<?xml version="1.0" encoding="utf-8" standalone="no"?>
<!DOCTYPE svg PUBLIC "-//W3C//DTD SVG 1.1//EN"
  "http://www.w3.org/Graphics/SVG/1.1/DTD/svg11.dtd">
<svg xmlns:xlink="http://www.w3.org/1999/xlink" width="296.39952pt" height="296.39952pt" viewBox="0 0 296.39952 296.39952" xmlns="http://www.w3.org/2000/svg" version="1.1">
 <metadata>
  <rdf:RDF xmlns:dc="http://purl.org/dc/elements/1.1/" xmlns:cc="http://creativecommons.org/ns#" xmlns:rdf="http://www.w3.org/1999/02/22-rdf-syntax-ns#">
   <cc:Work>
    <dc:type rdf:resource="http://purl.org/dc/dcmitype/StillImage"/>
    <dc:date>2026-01-24T23:34:29.437146</dc:date>
    <dc:format>image/svg+xml</dc:format>
    <dc:creator>
     <cc:Agent>
      <dc:title>Matplotlib v3.10.8, https://matplotlib.org/</dc:title>
     </cc:Agent>
    </dc:creator>
   </cc:Work>
  </rdf:RDF>
 </metadata>
 <defs>
  <style type="text/css">*{stroke-linejoin: round; stroke-linecap: butt}</style>
 </defs>
 <g id="figure_1">
  <g id="patch_1">
   <path d="M 0 296.39952 
L 296.39952 296.39952 
L 296.39952 0 
L 0 0 
z
" style="fill: #ffffff"/>
  </g>
  <g id="axes_1">
   <g id="patch_2">
    <path d="M 35.655938 265.022801 
L 289.19952 265.022801 
L 289.19952 19.642031 
L 35.655938 19.642031 
z
" style="fill: #ffffff"/>
   </g>
   <g id="matplotlib.axis_1">
    <g id="xtick_1">
     <g id="line2d_1">
      <path d="M 42.831699 265.022801 
L 42.831699 19.642031 
" clip-path="url(#p6bfaf63937)" style="fill: none; stroke: #c0c0c0; stroke-width: 0.25; stroke-linecap: round"/>
     </g>
     <g id="line2d_2"/>
     <g id="text_1">
      <!-- 0.0 -->
      <g style="fill: #333333" transform="translate(36.576699 274.964832) scale(0.09 -0.09)">
       <defs>
        <path id="ArialMT-30" d="M 266 2259 
Q 266 3072 433 3567 
Q 600 4063 929 4331 
Q 1259 4600 1759 4600 
Q 2128 4600 2406 4451 
Q 2684 4303 2865 4023 
Q 3047 3744 3150 3342 
Q 3253 2941 3253 2259 
Q 3253 1453 3087 958 
Q 2922 463 2592 192 
Q 2263 -78 1759 -78 
Q 1097 -78 719 397 
Q 266 969 266 2259 
z
M 844 2259 
Q 844 1131 1108 757 
Q 1372 384 1759 384 
Q 2147 384 2411 759 
Q 2675 1134 2675 2259 
Q 2675 3391 2411 3762 
Q 2147 4134 1753 4134 
Q 1366 4134 1134 3806 
Q 844 3388 844 2259 
z
" transform="scale(0.015625)"/>
        <path id="ArialMT-2e" d="M 581 0 
L 581 641 
L 1222 641 
L 1222 0 
L 581 0 
z
" transform="scale(0.015625)"/>
       </defs>
       <use xlink:href="#ArialMT-30"/>
       <use xlink:href="#ArialMT-2e" transform="translate(55.615234 0)"/>
       <use xlink:href="#ArialMT-30" transform="translate(83.398438 0)"/>
      </g>
     </g>
    </g>
    <g id="xtick_2">
     <g id="line2d_3">
      <path d="M 90.670111 265.022801 
L 90.670111 19.642031 
" clip-path="url(#p6bfaf63937)" style="fill: none; stroke: #c0c0c0; stroke-width: 0.25; stroke-linecap: round"/>
     </g>
     <g id="line2d_4"/>
     <g id="text_2">
      <!-- 0.2 -->
      <g style="fill: #333333" transform="translate(84.415111 274.964832) scale(0.09 -0.09)">
       <defs>
        <path id="ArialMT-32" d="M 3222 541 
L 3222 0 
L 194 0 
Q 188 203 259 391 
Q 375 700 629 1000 
Q 884 1300 1366 1694 
Q 2113 2306 2375 2664 
Q 2638 3022 2638 3341 
Q 2638 3675 2398 3904 
Q 2159 4134 1775 4134 
Q 1369 4134 1125 3890 
Q 881 3647 878 3216 
L 300 3275 
Q 359 3922 746 4261 
Q 1134 4600 1788 4600 
Q 2447 4600 2831 4234 
Q 3216 3869 3216 3328 
Q 3216 3053 3103 2787 
Q 2991 2522 2730 2228 
Q 2469 1934 1863 1422 
Q 1356 997 1212 845 
Q 1069 694 975 541 
L 3222 541 
z
" transform="scale(0.015625)"/>
       </defs>
       <use xlink:href="#ArialMT-30"/>
       <use xlink:href="#ArialMT-2e" transform="translate(55.615234 0)"/>
       <use xlink:href="#ArialMT-32" transform="translate(83.398438 0)"/>
      </g>
     </g>
    </g>
    <g id="xtick_3">
     <g id="line2d_5">
      <path d="M 138.508523 265.022801 
L 138.508523 19.642031 
" clip-path="url(#p6bfaf63937)" style="fill: none; stroke: #c0c0c0; stroke-width: 0.25; stroke-linecap: round"/>
     </g>
     <g id="line2d_6"/>
     <g id="text_3">
      <!-- 0.4 -->
      <g style="fill: #333333" transform="translate(132.253523 274.964832) scale(0.09 -0.09)">
       <defs>
        <path id="ArialMT-34" d="M 2069 0 
L 2069 1097 
L 81 1097 
L 81 1613 
L 2172 4581 
L 2631 4581 
L 2631 1613 
L 3250 1613 
L 3250 1097 
L 2631 1097 
L 2631 0 
L 2069 0 
z
M 2069 1613 
L 2069 3678 
L 634 1613 
L 2069 1613 
z
" transform="scale(0.015625)"/>
       </defs>
       <use xlink:href="#ArialMT-30"/>
       <use xlink:href="#ArialMT-2e" transform="translate(55.615234 0)"/>
       <use xlink:href="#ArialMT-34" transform="translate(83.398438 0)"/>
      </g>
     </g>
    </g>
    <g id="xtick_4">
     <g id="line2d_7">
      <path d="M 186.346935 265.022801 
L 186.346935 19.642031 
" clip-path="url(#p6bfaf63937)" style="fill: none; stroke: #c0c0c0; stroke-width: 0.25; stroke-linecap: round"/>
     </g>
     <g id="line2d_8"/>
     <g id="text_4">
      <!-- 0.6 -->
      <g style="fill: #333333" transform="translate(180.091935 274.964832) scale(0.09 -0.09)">
       <defs>
        <path id="ArialMT-36" d="M 3184 3459 
L 2625 3416 
Q 2550 3747 2413 3897 
Q 2184 4138 1850 4138 
Q 1581 4138 1378 3988 
Q 1113 3794 959 3422 
Q 806 3050 800 2363 
Q 1003 2672 1297 2822 
Q 1591 2972 1913 2972 
Q 2475 2972 2870 2558 
Q 3266 2144 3266 1488 
Q 3266 1056 3080 686 
Q 2894 316 2569 119 
Q 2244 -78 1831 -78 
Q 1128 -78 684 439 
Q 241 956 241 2144 
Q 241 3472 731 4075 
Q 1159 4600 1884 4600 
Q 2425 4600 2770 4297 
Q 3116 3994 3184 3459 
z
M 888 1484 
Q 888 1194 1011 928 
Q 1134 663 1356 523 
Q 1578 384 1822 384 
Q 2178 384 2434 671 
Q 2691 959 2691 1453 
Q 2691 1928 2437 2201 
Q 2184 2475 1800 2475 
Q 1419 2475 1153 2201 
Q 888 1928 888 1484 
z
" transform="scale(0.015625)"/>
       </defs>
       <use xlink:href="#ArialMT-30"/>
       <use xlink:href="#ArialMT-2e" transform="translate(55.615234 0)"/>
       <use xlink:href="#ArialMT-36" transform="translate(83.398438 0)"/>
      </g>
     </g>
    </g>
    <g id="xtick_5">
     <g id="line2d_9">
      <path d="M 234.185346 265.022801 
L 234.185346 19.642031 
" clip-path="url(#p6bfaf63937)" style="fill: none; stroke: #c0c0c0; stroke-width: 0.25; stroke-linecap: round"/>
     </g>
     <g id="line2d_10"/>
     <g id="text_5">
      <!-- 0.8 -->
      <g style="fill: #333333" transform="translate(227.930346 274.964832) scale(0.09 -0.09)">
       <defs>
        <path id="ArialMT-38" d="M 1131 2484 
Q 781 2613 612 2850 
Q 444 3088 444 3419 
Q 444 3919 803 4259 
Q 1163 4600 1759 4600 
Q 2359 4600 2725 4251 
Q 3091 3903 3091 3403 
Q 3091 3084 2923 2848 
Q 2756 2613 2416 2484 
Q 2838 2347 3058 2040 
Q 3278 1734 3278 1309 
Q 3278 722 2862 322 
Q 2447 -78 1769 -78 
Q 1091 -78 675 323 
Q 259 725 259 1325 
Q 259 1772 486 2073 
Q 713 2375 1131 2484 
z
M 1019 3438 
Q 1019 3113 1228 2906 
Q 1438 2700 1772 2700 
Q 2097 2700 2305 2904 
Q 2513 3109 2513 3406 
Q 2513 3716 2298 3927 
Q 2084 4138 1766 4138 
Q 1444 4138 1231 3931 
Q 1019 3725 1019 3438 
z
M 838 1322 
Q 838 1081 952 856 
Q 1066 631 1291 507 
Q 1516 384 1775 384 
Q 2178 384 2440 643 
Q 2703 903 2703 1303 
Q 2703 1709 2433 1975 
Q 2163 2241 1756 2241 
Q 1359 2241 1098 1978 
Q 838 1716 838 1322 
z
" transform="scale(0.015625)"/>
       </defs>
       <use xlink:href="#ArialMT-30"/>
       <use xlink:href="#ArialMT-2e" transform="translate(55.615234 0)"/>
       <use xlink:href="#ArialMT-38" transform="translate(83.398438 0)"/>
      </g>
     </g>
    </g>
    <g id="xtick_6">
     <g id="line2d_11">
      <path d="M 282.023758 265.022801 
L 282.023758 19.642031 
" clip-path="url(#p6bfaf63937)" style="fill: none; stroke: #c0c0c0; stroke-width: 0.25; stroke-linecap: round"/>
     </g>
     <g id="line2d_12"/>
     <g id="text_6">
      <!-- 1.0 -->
      <g style="fill: #333333" transform="translate(275.768758 274.964832) scale(0.09 -0.09)">
       <defs>
        <path id="ArialMT-31" d="M 2384 0 
L 1822 0 
L 1822 3584 
Q 1619 3391 1289 3197 
Q 959 3003 697 2906 
L 697 3450 
Q 1169 3672 1522 3987 
Q 1875 4303 2022 4600 
L 2384 4600 
L 2384 0 
z
" transform="scale(0.015625)"/>
       </defs>
       <use xlink:href="#ArialMT-31"/>
       <use xlink:href="#ArialMT-2e" transform="translate(55.615234 0)"/>
       <use xlink:href="#ArialMT-30" transform="translate(83.398438 0)"/>
      </g>
     </g>
    </g>
    <g id="text_7">
     <!-- Recall [TP / (TP + FN)] -->
     <g style="fill: #333333" transform="translate(115.706479 287.305301) scale(0.09 -0.09)">
      <defs>
       <path id="Arial-BoldMT-52" d="M 469 0 
L 469 4581 
L 2416 4581 
Q 3150 4581 3483 4457 
Q 3816 4334 4016 4018 
Q 4216 3703 4216 3297 
Q 4216 2781 3912 2445 
Q 3609 2109 3006 2022 
Q 3306 1847 3501 1637 
Q 3697 1428 4028 894 
L 4588 0 
L 3481 0 
L 2813 997 
Q 2456 1531 2325 1670 
Q 2194 1809 2047 1861 
Q 1900 1913 1581 1913 
L 1394 1913 
L 1394 0 
L 469 0 
z
M 1394 2644 
L 2078 2644 
Q 2744 2644 2909 2700 
Q 3075 2756 3169 2893 
Q 3263 3031 3263 3238 
Q 3263 3469 3139 3611 
Q 3016 3753 2791 3791 
Q 2678 3806 2116 3806 
L 1394 3806 
L 1394 2644 
z
" transform="scale(0.015625)"/>
       <path id="Arial-BoldMT-65" d="M 2381 1056 
L 3256 909 
Q 3088 428 2723 176 
Q 2359 -75 1813 -75 
Q 947 -75 531 491 
Q 203 944 203 1634 
Q 203 2459 634 2926 
Q 1066 3394 1725 3394 
Q 2466 3394 2894 2905 
Q 3322 2416 3303 1406 
L 1103 1406 
Q 1113 1016 1316 798 
Q 1519 581 1822 581 
Q 2028 581 2168 693 
Q 2309 806 2381 1056 
z
M 2431 1944 
Q 2422 2325 2234 2523 
Q 2047 2722 1778 2722 
Q 1491 2722 1303 2513 
Q 1116 2303 1119 1944 
L 2431 1944 
z
" transform="scale(0.015625)"/>
       <path id="Arial-BoldMT-63" d="M 3353 2338 
L 2488 2181 
Q 2444 2441 2289 2572 
Q 2134 2703 1888 2703 
Q 1559 2703 1364 2476 
Q 1169 2250 1169 1719 
Q 1169 1128 1367 884 
Q 1566 641 1900 641 
Q 2150 641 2309 783 
Q 2469 925 2534 1272 
L 3397 1125 
Q 3263 531 2881 228 
Q 2500 -75 1859 -75 
Q 1131 -75 698 384 
Q 266 844 266 1656 
Q 266 2478 700 2936 
Q 1134 3394 1875 3394 
Q 2481 3394 2839 3133 
Q 3197 2872 3353 2338 
z
" transform="scale(0.015625)"/>
       <path id="Arial-BoldMT-61" d="M 1116 2306 
L 319 2450 
Q 453 2931 781 3162 
Q 1109 3394 1756 3394 
Q 2344 3394 2631 3255 
Q 2919 3116 3036 2902 
Q 3153 2688 3153 2116 
L 3144 1091 
Q 3144 653 3186 445 
Q 3228 238 3344 0 
L 2475 0 
Q 2441 88 2391 259 
Q 2369 338 2359 363 
Q 2134 144 1878 34 
Q 1622 -75 1331 -75 
Q 819 -75 523 203 
Q 228 481 228 906 
Q 228 1188 362 1408 
Q 497 1628 739 1745 
Q 981 1863 1438 1950 
Q 2053 2066 2291 2166 
L 2291 2253 
Q 2291 2506 2166 2614 
Q 2041 2722 1694 2722 
Q 1459 2722 1328 2630 
Q 1197 2538 1116 2306 
z
M 2291 1594 
Q 2122 1538 1756 1459 
Q 1391 1381 1278 1306 
Q 1106 1184 1106 997 
Q 1106 813 1243 678 
Q 1381 544 1594 544 
Q 1831 544 2047 700 
Q 2206 819 2256 991 
Q 2291 1103 2291 1419 
L 2291 1594 
z
" transform="scale(0.015625)"/>
       <path id="Arial-BoldMT-6c" d="M 459 0 
L 459 4581 
L 1338 4581 
L 1338 0 
L 459 0 
z
" transform="scale(0.015625)"/>
       <path id="Arial-BoldMT-20" transform="scale(0.015625)"/>
       <path id="Arial-BoldMT-5b" d="M 456 -1291 
L 456 4581 
L 2013 4581 
L 2013 3891 
L 1291 3891 
L 1291 -600 
L 2013 -600 
L 2013 -1291 
L 456 -1291 
z
" transform="scale(0.015625)"/>
       <path id="Arial-BoldMT-54" d="M 1497 0 
L 1497 3806 
L 138 3806 
L 138 4581 
L 3778 4581 
L 3778 3806 
L 2422 3806 
L 2422 0 
L 1497 0 
z
" transform="scale(0.015625)"/>
       <path id="Arial-BoldMT-50" d="M 466 0 
L 466 4581 
L 1950 4581 
Q 2794 4581 3050 4513 
Q 3444 4409 3709 4064 
Q 3975 3719 3975 3172 
Q 3975 2750 3822 2462 
Q 3669 2175 3433 2011 
Q 3197 1847 2953 1794 
Q 2622 1728 1994 1728 
L 1391 1728 
L 1391 0 
L 466 0 
z
M 1391 3806 
L 1391 2506 
L 1897 2506 
Q 2444 2506 2628 2578 
Q 2813 2650 2917 2803 
Q 3022 2956 3022 3159 
Q 3022 3409 2875 3571 
Q 2728 3734 2503 3775 
Q 2338 3806 1838 3806 
L 1391 3806 
z
" transform="scale(0.015625)"/>
       <path id="Arial-BoldMT-2f" d="M -9 -78 
L 1125 4659 
L 1784 4659 
L 638 -78 
L -9 -78 
z
" transform="scale(0.015625)"/>
       <path id="Arial-BoldMT-28" d="M 1916 -1347 
L 1313 -1347 
Q 834 -625 584 153 
Q 334 931 334 1659 
Q 334 2563 644 3369 
Q 913 4069 1325 4659 
L 1925 4659 
Q 1497 3713 1336 3048 
Q 1175 2384 1175 1641 
Q 1175 1128 1270 590 
Q 1366 53 1531 -431 
Q 1641 -750 1916 -1347 
z
" transform="scale(0.015625)"/>
       <path id="Arial-BoldMT-2b" d="M 1466 659 
L 1466 1850 
L 266 1850 
L 266 2672 
L 1466 2672 
L 1466 3863 
L 2266 3863 
L 2266 2672 
L 3469 2672 
L 3469 1850 
L 2266 1850 
L 2266 659 
L 1466 659 
z
" transform="scale(0.015625)"/>
       <path id="Arial-BoldMT-46" d="M 472 0 
L 472 4581 
L 3613 4581 
L 3613 3806 
L 1397 3806 
L 1397 2722 
L 3309 2722 
L 3309 1947 
L 1397 1947 
L 1397 0 
L 472 0 
z
" transform="scale(0.015625)"/>
       <path id="Arial-BoldMT-4e" d="M 475 0 
L 475 4581 
L 1375 4581 
L 3250 1522 
L 3250 4581 
L 4109 4581 
L 4109 0 
L 3181 0 
L 1334 2988 
L 1334 0 
L 475 0 
z
" transform="scale(0.015625)"/>
       <path id="Arial-BoldMT-29" d="M 216 -1347 
Q 475 -791 581 -494 
Q 688 -197 778 190 
Q 869 578 912 926 
Q 956 1275 956 1641 
Q 956 2384 797 3048 
Q 638 3713 209 4659 
L 806 4659 
Q 1278 3988 1539 3234 
Q 1800 2481 1800 1706 
Q 1800 1053 1594 306 
Q 1359 -531 822 -1347 
L 216 -1347 
z
" transform="scale(0.015625)"/>
       <path id="Arial-BoldMT-5d" d="M 1675 4581 
L 1675 -1291 
L 119 -1291 
L 119 -600 
L 841 -600 
L 841 3897 
L 119 3897 
L 119 4581 
L 1675 4581 
z
" transform="scale(0.015625)"/>
      </defs>
      <use xlink:href="#Arial-BoldMT-52"/>
      <use xlink:href="#Arial-BoldMT-65" transform="translate(72.216797 0)"/>
      <use xlink:href="#Arial-BoldMT-63" transform="translate(127.832031 0)"/>
      <use xlink:href="#Arial-BoldMT-61" transform="translate(183.447266 0)"/>
      <use xlink:href="#Arial-BoldMT-6c" transform="translate(239.0625 0)"/>
      <use xlink:href="#Arial-BoldMT-6c" transform="translate(266.845703 0)"/>
      <use xlink:href="#Arial-BoldMT-20" transform="translate(294.628906 0)"/>
      <use xlink:href="#Arial-BoldMT-5b" transform="translate(322.412109 0)"/>
      <use xlink:href="#Arial-BoldMT-54" transform="translate(355.712891 0)"/>
      <use xlink:href="#Arial-BoldMT-50" transform="translate(416.796875 0)"/>
      <use xlink:href="#Arial-BoldMT-20" transform="translate(481.746094 0)"/>
      <use xlink:href="#Arial-BoldMT-2f" transform="translate(509.529297 0)"/>
      <use xlink:href="#Arial-BoldMT-20" transform="translate(537.3125 0)"/>
      <use xlink:href="#Arial-BoldMT-28" transform="translate(565.095703 0)"/>
      <use xlink:href="#Arial-BoldMT-54" transform="translate(598.396484 0)"/>
      <use xlink:href="#Arial-BoldMT-50" transform="translate(659.480469 0)"/>
      <use xlink:href="#Arial-BoldMT-20" transform="translate(724.429688 0)"/>
      <use xlink:href="#Arial-BoldMT-2b" transform="translate(752.212891 0)"/>
      <use xlink:href="#Arial-BoldMT-20" transform="translate(810.611328 0)"/>
      <use xlink:href="#Arial-BoldMT-46" transform="translate(838.394531 0)"/>
      <use xlink:href="#Arial-BoldMT-4e" transform="translate(899.478516 0)"/>
      <use xlink:href="#Arial-BoldMT-29" transform="translate(971.695312 0)"/>
      <use xlink:href="#Arial-BoldMT-5d" transform="translate(1004.996094 0)"/>
     </g>
    </g>
   </g>
   <g id="matplotlib.axis_2">
    <g id="ytick_1">
     <g id="line2d_13">
      <path d="M 35.655938 265.022801 
L 289.19952 265.022801 
" clip-path="url(#p6bfaf63937)" style="fill: none; stroke: #c0c0c0; stroke-width: 0.25; stroke-linecap: round"/>
     </g>
     <g id="line2d_14"/>
     <g id="text_8">
      <!-- 0.0 -->
      <g style="fill: #333333" transform="translate(19.645938 268.243817) scale(0.09 -0.09)">
       <use xlink:href="#ArialMT-30"/>
       <use xlink:href="#ArialMT-2e" transform="translate(55.615234 0)"/>
       <use xlink:href="#ArialMT-30" transform="translate(83.398438 0)"/>
      </g>
     </g>
    </g>
    <g id="ytick_2">
     <g id="line2d_15">
      <path d="M 35.655938 217.37605 
L 289.19952 217.37605 
" clip-path="url(#p6bfaf63937)" style="fill: none; stroke: #c0c0c0; stroke-width: 0.25; stroke-linecap: round"/>
     </g>
     <g id="line2d_16"/>
     <g id="text_9">
      <!-- 0.2 -->
      <g style="fill: #333333" transform="translate(19.645938 220.597065) scale(0.09 -0.09)">
       <use xlink:href="#ArialMT-30"/>
       <use xlink:href="#ArialMT-2e" transform="translate(55.615234 0)"/>
       <use xlink:href="#ArialMT-32" transform="translate(83.398438 0)"/>
      </g>
     </g>
    </g>
    <g id="ytick_3">
     <g id="line2d_17">
      <path d="M 35.655938 169.729298 
L 289.19952 169.729298 
" clip-path="url(#p6bfaf63937)" style="fill: none; stroke: #c0c0c0; stroke-width: 0.25; stroke-linecap: round"/>
     </g>
     <g id="line2d_18"/>
     <g id="text_10">
      <!-- 0.4 -->
      <g style="fill: #333333" transform="translate(19.645938 172.950314) scale(0.09 -0.09)">
       <use xlink:href="#ArialMT-30"/>
       <use xlink:href="#ArialMT-2e" transform="translate(55.615234 0)"/>
       <use xlink:href="#ArialMT-34" transform="translate(83.398438 0)"/>
      </g>
     </g>
    </g>
    <g id="ytick_4">
     <g id="line2d_19">
      <path d="M 35.655938 122.082547 
L 289.19952 122.082547 
" clip-path="url(#p6bfaf63937)" style="fill: none; stroke: #c0c0c0; stroke-width: 0.25; stroke-linecap: round"/>
     </g>
     <g id="line2d_20"/>
     <g id="text_11">
      <!-- 0.6 -->
      <g style="fill: #333333" transform="translate(19.645938 125.303563) scale(0.09 -0.09)">
       <use xlink:href="#ArialMT-30"/>
       <use xlink:href="#ArialMT-2e" transform="translate(55.615234 0)"/>
       <use xlink:href="#ArialMT-36" transform="translate(83.398438 0)"/>
      </g>
     </g>
    </g>
    <g id="ytick_5">
     <g id="line2d_21">
      <path d="M 35.655938 74.435795 
L 289.19952 74.435795 
" clip-path="url(#p6bfaf63937)" style="fill: none; stroke: #c0c0c0; stroke-width: 0.25; stroke-linecap: round"/>
     </g>
     <g id="line2d_22"/>
     <g id="text_12">
      <!-- 0.8 -->
      <g style="fill: #333333" transform="translate(19.645938 77.656811) scale(0.09 -0.09)">
       <use xlink:href="#ArialMT-30"/>
       <use xlink:href="#ArialMT-2e" transform="translate(55.615234 0)"/>
       <use xlink:href="#ArialMT-38" transform="translate(83.398438 0)"/>
      </g>
     </g>
    </g>
    <g id="ytick_6">
     <g id="line2d_23">
      <path d="M 35.655938 26.789044 
L 289.19952 26.789044 
" clip-path="url(#p6bfaf63937)" style="fill: none; stroke: #c0c0c0; stroke-width: 0.25; stroke-linecap: round"/>
     </g>
     <g id="line2d_24"/>
     <g id="text_13">
      <!-- 1.0 -->
      <g style="fill: #333333" transform="translate(19.645938 30.01006) scale(0.09 -0.09)">
       <use xlink:href="#ArialMT-31"/>
       <use xlink:href="#ArialMT-2e" transform="translate(55.615234 0)"/>
       <use xlink:href="#ArialMT-30" transform="translate(83.398438 0)"/>
      </g>
     </g>
    </g>
    <g id="text_14">
     <!-- Precision [TP / (TP + FP)] -->
     <g style="fill: #333333" transform="translate(13.751719 195.805776) rotate(-90) scale(0.09 -0.09)">
      <defs>
       <path id="Arial-BoldMT-72" d="M 1300 0 
L 422 0 
L 422 3319 
L 1238 3319 
L 1238 2847 
Q 1447 3181 1614 3287 
Q 1781 3394 1994 3394 
Q 2294 3394 2572 3228 
L 2300 2463 
Q 2078 2606 1888 2606 
Q 1703 2606 1575 2504 
Q 1447 2403 1373 2137 
Q 1300 1872 1300 1025 
L 1300 0 
z
" transform="scale(0.015625)"/>
       <path id="Arial-BoldMT-69" d="M 459 3769 
L 459 4581 
L 1338 4581 
L 1338 3769 
L 459 3769 
z
M 459 0 
L 459 3319 
L 1338 3319 
L 1338 0 
L 459 0 
z
" transform="scale(0.015625)"/>
       <path id="Arial-BoldMT-73" d="M 150 947 
L 1031 1081 
Q 1088 825 1259 692 
Q 1431 559 1741 559 
Q 2081 559 2253 684 
Q 2369 772 2369 919 
Q 2369 1019 2306 1084 
Q 2241 1147 2013 1200 
Q 950 1434 666 1628 
Q 272 1897 272 2375 
Q 272 2806 612 3100 
Q 953 3394 1669 3394 
Q 2350 3394 2681 3172 
Q 3013 2950 3138 2516 
L 2309 2363 
Q 2256 2556 2107 2659 
Q 1959 2763 1684 2763 
Q 1338 2763 1188 2666 
Q 1088 2597 1088 2488 
Q 1088 2394 1175 2328 
Q 1294 2241 1995 2081 
Q 2697 1922 2975 1691 
Q 3250 1456 3250 1038 
Q 3250 581 2869 253 
Q 2488 -75 1741 -75 
Q 1063 -75 667 200 
Q 272 475 150 947 
z
" transform="scale(0.015625)"/>
       <path id="Arial-BoldMT-6f" d="M 256 1706 
Q 256 2144 472 2553 
Q 688 2963 1083 3178 
Q 1478 3394 1966 3394 
Q 2719 3394 3200 2905 
Q 3681 2416 3681 1669 
Q 3681 916 3195 420 
Q 2709 -75 1972 -75 
Q 1516 -75 1102 131 
Q 688 338 472 736 
Q 256 1134 256 1706 
z
M 1156 1659 
Q 1156 1166 1390 903 
Q 1625 641 1969 641 
Q 2313 641 2545 903 
Q 2778 1166 2778 1666 
Q 2778 2153 2545 2415 
Q 2313 2678 1969 2678 
Q 1625 2678 1390 2415 
Q 1156 2153 1156 1659 
z
" transform="scale(0.015625)"/>
       <path id="Arial-BoldMT-6e" d="M 3478 0 
L 2600 0 
L 2600 1694 
Q 2600 2231 2544 2389 
Q 2488 2547 2361 2634 
Q 2234 2722 2056 2722 
Q 1828 2722 1647 2597 
Q 1466 2472 1398 2265 
Q 1331 2059 1331 1503 
L 1331 0 
L 453 0 
L 453 3319 
L 1269 3319 
L 1269 2831 
Q 1703 3394 2363 3394 
Q 2653 3394 2893 3289 
Q 3134 3184 3257 3021 
Q 3381 2859 3429 2653 
Q 3478 2447 3478 2063 
L 3478 0 
z
" transform="scale(0.015625)"/>
      </defs>
      <use xlink:href="#Arial-BoldMT-50"/>
      <use xlink:href="#Arial-BoldMT-72" transform="translate(66.699219 0)"/>
      <use xlink:href="#Arial-BoldMT-65" transform="translate(105.615234 0)"/>
      <use xlink:href="#Arial-BoldMT-63" transform="translate(161.230469 0)"/>
      <use xlink:href="#Arial-BoldMT-69" transform="translate(216.845703 0)"/>
      <use xlink:href="#Arial-BoldMT-73" transform="translate(244.628906 0)"/>
      <use xlink:href="#Arial-BoldMT-69" transform="translate(300.244141 0)"/>
      <use xlink:href="#Arial-BoldMT-6f" transform="translate(328.027344 0)"/>
      <use xlink:href="#Arial-BoldMT-6e" transform="translate(389.111328 0)"/>
      <use xlink:href="#Arial-BoldMT-20" transform="translate(450.195312 0)"/>
      <use xlink:href="#Arial-BoldMT-5b" transform="translate(477.978516 0)"/>
      <use xlink:href="#Arial-BoldMT-54" transform="translate(511.279297 0)"/>
      <use xlink:href="#Arial-BoldMT-50" transform="translate(572.363281 0)"/>
      <use xlink:href="#Arial-BoldMT-20" transform="translate(637.3125 0)"/>
      <use xlink:href="#Arial-BoldMT-2f" transform="translate(665.095703 0)"/>
      <use xlink:href="#Arial-BoldMT-20" transform="translate(692.878906 0)"/>
      <use xlink:href="#Arial-BoldMT-28" transform="translate(720.662109 0)"/>
      <use xlink:href="#Arial-BoldMT-54" transform="translate(753.962891 0)"/>
      <use xlink:href="#Arial-BoldMT-50" transform="translate(815.046875 0)"/>
      <use xlink:href="#Arial-BoldMT-20" transform="translate(879.996094 0)"/>
      <use xlink:href="#Arial-BoldMT-2b" transform="translate(907.779297 0)"/>
      <use xlink:href="#Arial-BoldMT-20" transform="translate(966.177734 0)"/>
      <use xlink:href="#Arial-BoldMT-46" transform="translate(993.960938 0)"/>
      <use xlink:href="#Arial-BoldMT-50" transform="translate(1055.044922 0)"/>
      <use xlink:href="#Arial-BoldMT-29" transform="translate(1121.744141 0)"/>
      <use xlink:href="#Arial-BoldMT-5d" transform="translate(1155.044922 0)"/>
     </g>
    </g>
   </g>
   <g id="line2d_25">
    <path d="M 42.831699 265.022801 
L 42.831842 264.915778 
L 42.942306 243.24357 
L 42.943987 243.136546 
L 43.054622 233.7185 
L 43.057957 233.611477 
L 43.168421 226.708477 
L 43.171185 226.601454 
L 43.281222 220.55464 
L 43.282105 220.55464 
L 43.289658 220.447617 
L 43.39693 216.434245 
L 43.404482 216.327222 
L 43.505798 212.795455 
L 43.522612 212.688431 
L 43.632278 210.440943 
L 43.640743 210.33392 
L 43.740548 207.979408 
L 43.743797 207.979408 
L 43.759871 207.872385 
L 43.867912 205.250315 
L 43.877773 205.143292 
L 43.985301 202.414199 
L 44.002772 202.307176 
L 44.106054 200.541292 
L 44.124322 200.434269 
L 44.232991 197.812199 
L 44.25428 197.705176 
L 44.361039 195.778758 
L 44.366796 195.671734 
L 44.475892 194.280432 
L 44.484755 194.173409 
L 44.595191 192.942642 
L 44.603199 192.835618 
L 44.708276 191.283781 
L 44.731276 191.176758 
L 44.838776 189.464386 
L 44.866306 189.357363 
L 44.974547 187.859037 
L 44.989395 187.752014 
L 45.097038 186.3072 
L 45.115876 186.200177 
L 45.226511 185.343991 
L 45.240219 185.236967 
L 45.348261 183.738642 
L 45.357723 183.631619 
L 45.465992 182.293828 
L 45.479729 182.186805 
L 45.586659 180.795503 
L 45.610627 180.688479 
L 45.720179 179.832293 
L 45.730924 179.72527 
L 45.830301 178.440991 
L 45.849082 178.333968 
L 45.958036 176.996177 
L 45.96764 176.889154 
L 46.073972 175.44434 
L 46.092126 175.337317 
L 46.196406 174.213573 
L 46.231432 174.106549 
L 46.336053 172.875782 
L 46.337877 172.875782 
L 46.354635 172.768759 
L 46.464643 171.48448 
L 46.491746 171.377456 
L 46.601611 170.360736 
L 46.60848 170.253712 
L 46.702785 169.129968 
L 46.740147 169.022945 
L 46.848274 167.738666 
L 46.866486 167.631643 
L 46.975439 166.454387 
L 46.994876 166.347364 
L 47.103601 165.437666 
L 47.11959 165.330643 
L 47.228543 164.046364 
L 47.249063 163.93934 
L 47.350692 162.815596 
L 47.354055 162.815596 
L 47.369701 162.708573 
L 47.479909 161.531317 
L 47.505843 161.424294 
L 47.616564 160.514596 
L 47.644721 160.407573 
L 47.741192 159.872457 
L 47.754786 159.872457 
L 47.778697 159.765434 
L 47.88406 158.802224 
L 47.915381 158.695201 
L 48.019632 157.892527 
L 48.035449 157.785503 
L 48.145999 156.715271 
L 48.167573 156.608248 
L 48.269829 155.859085 
L 48.273534 155.859085 
L 48.315314 155.752062 
L 48.421503 154.895876 
L 48.440683 154.788852 
L 48.548782 153.558085 
L 48.571182 153.451062 
L 48.680934 152.594876 
L 48.737249 152.487853 
L 48.841044 151.845713 
L 48.879917 151.73869 
L 48.989412 150.828992 
L 49.018396 150.721969 
L 49.129459 150.026318 
L 49.147015 149.919295 
L 49.255113 149.170132 
L 49.278169 149.063109 
L 49.383817 148.313946 
L 49.405049 148.206923 
L 49.506479 147.564783 
L 49.538084 147.45776 
L 49.640597 146.708597 
L 49.647836 146.708597 
L 49.693891 146.601574 
L 49.801448 145.531341 
L 49.804013 145.531341 
L 49.830575 145.424318 
L 49.906982 144.996225 
L 49.908207 144.996225 
L 49.94976 144.889202 
L 50.053583 144.568132 
L 50.08137 144.461109 
L 50.190751 143.818969 
L 50.225179 143.711946 
L 50.324727 142.962783 
L 50.353341 142.85576 
L 50.459416 142.160109 
L 50.500968 142.053086 
L 50.604706 141.464458 
L 50.611204 141.464458 
L 50.63617 141.357434 
L 50.712263 140.87583 
L 50.725345 140.87583 
L 50.778468 140.768807 
L 50.864821 140.23369 
L 50.935728 140.126667 
L 51.038924 139.377504 
L 51.073409 139.270481 
L 51.166431 138.949411 
L 51.248937 138.842388 
L 51.348628 138.57483 
L 51.382514 138.467807 
L 51.486993 138.039714 
L 51.522931 137.93269 
L 51.611964 137.558109 
L 51.703732 137.451086 
L 51.813284 136.91597 
L 51.818984 136.808946 
L 51.927481 136.220318 
L 51.967409 136.113295 
L 52.078158 135.63169 
L 52.100616 135.524667 
L 52.184974 134.989551 
L 52.206235 134.989551 
L 52.270986 134.882528 
L 52.375778 134.079853 
L 52.457429 133.97283 
L 52.554413 133.170156 
L 52.56453 133.170156 
L 52.59967 133.063132 
L 52.690156 132.474505 
L 52.692949 132.474505 
L 52.744049 132.367481 
L 52.845792 131.885877 
L 52.918922 131.778853 
L 53.006443 131.404272 
L 53.025082 131.404272 
L 53.053069 131.297249 
L 53.158317 130.762133 
L 53.187985 130.655109 
L 53.293034 130.280528 
L 53.318741 130.173505 
L 53.41125 129.638388 
L 53.469931 129.531365 
L 53.573982 128.835714 
L 53.619068 128.728691 
L 53.706248 128.086551 
L 53.747886 127.979528 
L 53.838629 127.71197 
L 53.855871 127.71197 
L 53.874481 127.604947 
L 53.947839 126.962807 
L 54.055196 126.855784 
L 54.141692 126.641737 
L 54.156825 126.641737 
L 54.24201 126.534714 
L 54.351705 125.839063 
L 54.408276 125.73204 
L 54.513382 125.250435 
L 54.56414 125.143412 
L 54.672609 124.76883 
L 54.699142 124.661807 
L 54.797608 124.287226 
L 54.804191 124.287226 
L 54.840585 124.180203 
L 54.939079 123.538063 
L 54.984792 123.43104 
L 55.083999 122.7889 
L 55.191813 122.681877 
L 55.296976 122.414319 
L 55.354174 122.307296 
L 55.458653 122.093249 
L 55.517847 121.986226 
L 55.626572 121.558133 
L 55.65017 121.45111 
L 55.747809 120.862482 
L 55.85796 120.755459 
L 55.950212 120.220342 
L 55.955143 120.220342 
L 56.008009 120.113319 
L 56.11303 119.524691 
L 56.140475 119.417668 
L 56.23857 119.043087 
L 56.28283 118.936063 
L 56.362942 118.82904 
L 56.416578 118.722017 
L 56.527242 118.400947 
L 56.552834 118.293924 
L 56.634314 118.026366 
L 56.648222 118.026366 
L 56.679514 117.919342 
L 56.715766 117.758808 
L 56.781343 117.758808 
L 56.802661 117.651784 
L 56.875676 117.223691 
L 56.907396 117.223691 
L 56.93923 117.116668 
L 57.048668 116.581552 
L 57.089679 116.474529 
L 57.191394 115.885901 
L 57.242721 115.778877 
L 57.344721 115.243761 
L 57.407505 115.136738 
L 57.514179 114.655133 
L 57.584202 114.54811 
L 57.668874 114.334063 
L 57.722254 114.22704 
L 57.813452 113.90597 
L 57.828699 113.90597 
L 57.902228 113.798947 
L 57.98918 113.370854 
L 58.051793 113.263831 
L 58.159635 112.88925 
L 58.238892 112.782226 
L 58.349071 112.461157 
L 58.410003 112.354133 
L 58.520581 111.819017 
L 58.569059 111.711994 
L 58.671201 111.230389 
L 58.698674 111.123366 
L 58.804465 110.427715 
L 58.830513 110.320692 
L 58.939866 109.518017 
L 58.983099 109.410994 
L 59.059677 109.089924 
L 59.087265 109.089924 
L 59.102968 108.982901 
L 59.2091 108.768854 
L 59.210554 108.768854 
L 59.302778 108.661831 
L 59.413556 108.340761 
L 59.57264 108.233738 
L 59.675665 107.698622 
L 59.683303 107.698622 
L 59.765752 107.591599 
L 59.817735 107.270529 
L 59.96636 107.163506 
L 60.059268 106.681901 
L 60.10273 106.574878 
L 60.195781 106.360831 
L 60.204758 106.360831 
L 60.268284 106.253808 
L 60.360537 105.932738 
L 60.554476 105.825715 
L 60.662802 105.558157 
L 60.741974 105.451134 
L 60.741974 105.397622 
L 60.824708 105.397622 
L 60.940302 105.290599 
L 61.03301 104.862506 
L 61.167499 104.755483 
L 61.261491 104.380901 
L 61.31906 104.273878 
L 61.420774 103.899296 
L 61.471475 103.792273 
L 61.525824 103.524715 
L 61.547227 103.524715 
L 61.676472 103.417692 
L 61.712638 103.203645 
L 61.770349 103.203645 
L 61.916437 103.096622 
L 62.023966 102.936087 
L 62.027215 102.936087 
L 62.069138 102.829064 
L 62.178889 102.507994 
L 62.263675 102.400971 
L 62.323239 102.240436 
L 62.457928 102.133413 
L 62.560355 101.812343 
L 62.742581 101.70532 
L 62.836771 101.437762 
L 62.85162 101.437762 
L 63.032335 101.330738 
L 63.12778 101.009669 
L 63.143141 101.009669 
L 63.195722 100.902645 
L 63.283016 100.742111 
L 63.40964 100.635087 
L 63.508761 100.099971 
L 63.547634 99.992948 
L 63.650831 99.671878 
L 63.658412 99.671878 
L 63.800938 99.564855 
L 63.907583 99.243785 
L 63.9458 99.136762 
L 64.04153 98.922715 
L 64.326383 98.815692 
L 64.413819 98.601646 
L 64.532434 98.494622 
L 64.603084 98.227064 
L 64.642584 98.227064 
L 64.717538 98.120041 
L 64.826064 97.798971 
L 64.863968 97.691948 
L 64.96252 97.317367 
L 64.962805 97.317367 
L 65.031346 97.210343 
L 65.136509 96.889274 
L 65.137478 96.889274 
L 65.257518 96.78225 
L 65.319989 96.461181 
L 65.36231 96.461181 
L 65.538466 96.354157 
L 65.63904 96.033088 
L 65.648388 96.033088 
L 65.813457 95.926064 
L 65.923465 95.551483 
L 66.009021 95.44446 
L 66.095488 95.12339 
L 66.099421 95.12339 
L 66.165198 95.016367 
L 66.271672 94.748809 
L 66.366832 94.641785 
L 66.477267 94.374227 
L 66.545182 94.267204 
L 66.651057 93.999646 
L 66.69241 93.892623 
L 66.798428 93.571553 
L 66.866257 93.464529 
L 66.93876 93.250483 
L 67.09696 93.14346 
L 67.144953 92.929413 
L 67.228884 92.82239 
L 67.283119 92.554832 
L 67.317489 92.554832 
L 67.487831 92.447809 
L 67.5735 91.966204 
L 67.576122 91.966204 
L 67.883974 91.859181 
L 67.955621 91.645134 
L 67.982097 91.645134 
L 68.043371 91.538111 
L 68.153579 91.16353 
L 68.195558 91.056506 
L 68.300266 90.574902 
L 68.395169 90.467878 
L 68.49429 90.307344 
L 68.569557 90.20032 
L 68.672412 89.772227 
L 68.673979 89.772227 
L 68.815137 89.665204 
L 68.914857 89.290623 
L 69.090214 89.183599 
L 69.194465 89.023065 
L 69.307551 88.916041 
L 69.406274 88.648483 
L 69.417445 88.648483 
L 69.563619 88.54146 
L 69.620533 88.380925 
L 69.671889 88.380925 
L 69.750234 88.273902 
L 69.846505 87.89932 
L 69.878368 87.792297 
L 69.981308 87.524739 
L 70.078234 87.417716 
L 70.078234 87.364204 
L 70.148885 87.364204 
L 70.2561 87.257181 
L 70.35012 87.150158 
L 70.362517 87.150158 
L 70.445023 87.043134 
L 70.536107 86.936111 
L 70.727709 86.829088 
L 70.836321 86.615041 
L 70.869893 86.508018 
L 70.869893 86.454507 
L 70.945388 86.454507 
L 71.223885 86.347483 
L 71.333494 86.079925 
L 71.443873 85.972902 
L 71.545559 85.705344 
L 71.677483 85.598321 
L 71.739612 85.330762 
L 71.901945 85.223739 
L 71.973479 85.116716 
L 71.998986 85.116716 
L 72.062654 85.009693 
L 72.116632 84.956181 
L 72.116689 84.956181 
L 72.235218 84.849158 
L 72.337531 84.635111 
L 72.340068 84.635111 
L 72.466377 84.528088 
L 72.571256 84.314042 
L 72.63404 84.207018 
L 72.675735 84.046483 
L 72.737436 84.046483 
L 72.811535 83.93946 
L 72.891476 83.725414 
L 72.902847 83.725414 
L 73.045288 83.61839 
L 73.106077 83.511367 
L 73.151448 83.511367 
L 73.219077 83.404344 
L 73.303806 83.243809 
L 73.430373 83.136786 
L 73.537274 82.815716 
L 73.586008 82.708693 
L 73.68171 82.494646 
L 73.813121 82.387623 
L 73.827684 82.2806 
L 73.88531 82.2806 
L 74.022706 82.173576 
L 74.108005 82.066553 
L 74.133398 82.066553 
L 74.302029 81.95953 
L 74.407193 81.691972 
L 74.502096 81.584949 
L 74.605805 81.370902 
L 74.716412 81.263879 
L 74.772014 81.156856 
L 74.786321 81.156856 
L 74.851585 81.049832 
L 74.936428 80.782274 
L 75.032956 80.675251 
L 75.131478 80.461204 
L 75.143933 80.461204 
L 75.243909 80.354181 
L 75.251005 80.247158 
L 75.321884 80.247158 
L 75.461845 80.140135 
L 75.5077 79.926088 
L 75.566979 79.926088 
L 75.671658 79.819065 
L 75.777134 79.712042 
L 75.90182 79.605018 
L 75.982616 79.444484 
L 76.203943 79.33746 
L 76.203943 79.283949 
L 76.310816 79.283949 
L 76.458158 79.176925 
L 76.458158 79.123414 
L 76.561811 79.123414 
L 76.619066 79.016391 
L 76.703624 78.909367 
L 76.853987 78.802344 
L 76.92193 78.481274 
L 77.106094 78.374251 
L 77.176773 78.106693 
L 77.202194 78.106693 
L 77.387697 77.99967 
L 77.496622 77.892646 
L 77.654168 77.785623 
L 77.750011 77.6786 
L 77.835624 77.571577 
L 77.835624 77.518065 
L 77.910948 77.518065 
L 78.101039 77.411042 
L 78.11395 77.304019 
L 78.133757 77.304019 
L 78.270782 77.196995 
L 78.369533 76.982949 
L 78.518072 76.875926 
L 78.621326 76.715391 
L 78.703975 76.608367 
L 78.807456 76.394321 
L 78.96426 76.287298 
L 79.046852 76.180274 
L 79.180116 76.073251 
L 79.192769 75.966228 
L 79.255411 75.966228 
L 79.840078 75.859205 
L 79.925007 75.752181 
L 80.14944 75.645158 
L 80.252665 75.431112 
L 80.438852 75.324088 
L 80.539712 75.110042 
L 80.542334 75.110042 
L 80.837361 75.003019 
L 80.945659 74.895995 
L 81.095025 74.788972 
L 81.166074 74.574926 
L 81.205432 74.574926 
L 81.234501 74.467902 
L 81.308685 74.253856 
L 81.322023 74.253856 
L 81.414418 74.146833 
L 81.490597 73.986298 
L 81.512799 73.986298 
L 81.618589 73.879275 
L 81.670486 73.665228 
L 81.866164 73.558205 
L 81.949154 73.39767 
L 81.974747 73.39767 
L 82.255324 73.290647 
L 82.312238 73.130112 
L 82.364933 73.130112 
L 82.515182 73.023089 
L 82.544793 72.969577 
L 82.587201 72.969577 
L 82.822891 72.862554 
L 82.921044 72.648507 
L 82.927684 72.648507 
L 83.275834 72.541484 
L 83.331636 72.434461 
L 83.359081 72.434461 
L 83.502633 72.327437 
L 83.545638 72.220414 
L 83.586022 72.220414 
L 83.726867 72.113391 
L 83.831089 71.899344 
L 84.047742 71.792321 
L 84.136518 71.631786 
L 84.13743 71.631786 
L 84.660339 71.524763 
L 84.726486 71.41774 
L 84.746721 71.41774 
L 85.049813 71.310716 
L 85.124624 71.043158 
L 85.155916 71.043158 
L 85.642887 70.936135 
L 85.642887 70.882623 
L 85.979637 70.7756 
L 86.084715 70.45453 
L 86.08785 70.45453 
L 86.265173 70.347507 
L 86.351327 70.186972 
L 86.542445 70.079949 
L 86.63732 69.919414 
L 87.111209 69.812391 
L 87.137115 69.651856 
L 87.142331 69.651856 
L 87.339604 69.544833 
L 87.42704 69.491321 
L 87.427097 69.491321 
L 87.584272 69.384298 
L 87.677893 69.223763 
L 87.946871 69.11674 
L 88.05725 68.956205 
L 88.339224 68.849182 
L 88.448719 68.635135 
L 88.787349 68.528112 
L 88.787349 68.4746 
L 88.850276 68.4746 
L 89.418784 68.367577 
L 89.488893 68.207042 
L 89.518846 68.207042 
L 89.770325 68.100019 
L 89.849611 67.992996 
L 90.083478 67.885972 
L 90.19189 67.725438 
L 90.430915 67.618414 
L 90.438325 67.511391 
L 90.850712 67.404368 
L 90.949207 67.297345 
L 90.955875 67.297345 
L 91.097831 67.190321 
L 91.097831 67.13681 
L 91.208552 67.13681 
L 91.629062 67.029786 
L 91.696663 66.869252 
L 91.717496 66.869252 
L 92.136638 66.762228 
L 92.136638 66.708717 
L 92.179016 66.708717 
L 92.576185 66.601693 
L 92.576185 66.548182 
L 93.165184 66.441159 
L 93.236746 66.280624 
L 93.723774 66.1736 
L 93.7816 66.066577 
L 93.97551 65.959554 
L 94.081015 65.799019 
L 94.187774 65.691996 
L 94.187774 65.638484 
L 94.274327 65.638484 
L 94.444498 65.531461 
L 94.49668 65.370926 
L 94.643082 65.263903 
L 94.643082 65.210391 
L 94.73884 65.210391 
L 94.898124 65.103368 
L 94.992856 64.996345 
L 95.127288 64.889321 
L 95.199677 64.568252 
L 95.237097 64.568252 
L 95.371215 64.461228 
L 95.461473 64.354205 
L 95.673424 64.247182 
L 95.736835 64.086647 
L 95.773685 64.086647 
L 96.003818 63.979624 
L 96.003818 63.926112 
L 96.076093 63.926112 
L 96.244525 63.819089 
L 96.275191 63.765577 
L 96.275248 63.765577 
L 96.432508 63.658554 
L 96.537813 63.551531 
L 96.68279 63.444508 
L 96.68279 63.390996 
L 96.777523 63.390996 
L 96.934498 63.283973 
L 96.983317 63.123438 
L 97.340131 63.016415 
L 97.364013 62.909391 
L 97.43056 62.909391 
L 97.787972 62.802368 
L 97.787972 62.748856 
L 97.898806 62.748856 
L 98.172658 62.641833 
L 98.207712 62.53481 
L 98.607304 62.427787 
L 98.670031 62.320763 
L 98.706966 62.320763 
L 98.867618 62.21374 
L 98.901361 62.106717 
L 99.168857 61.999694 
L 99.270772 61.89267 
L 99.275959 61.89267 
L 99.687862 61.785647 
L 99.687862 61.732136 
L 99.709151 61.732136 
L 100.027462 61.625112 
L 100.099594 61.464577 
L 100.306728 61.357554 
L 100.415739 61.250531 
L 100.699166 61.143508 
L 100.78398 60.982973 
L 101.15302 60.875949 
L 101.202353 60.768926 
L 101.251087 60.768926 
L 101.414646 60.661903 
L 101.414646 60.608391 
L 101.442034 60.608391 
L 101.877477 60.501368 
L 101.916778 60.394345 
L 101.969417 60.394345 
L 102.130809 60.287322 
L 102.173273 60.180298 
L 102.196871 60.180298 
L 102.393432 60.073275 
L 102.467645 59.91274 
L 102.474912 59.91274 
L 102.684811 59.805717 
L 102.763156 59.698694 
L 102.927569 59.59167 
L 103.017257 59.484647 
L 103.145163 59.377624 
L 103.145163 59.324112 
L 103.217409 59.324112 
L 103.556838 59.217089 
L 103.605316 59.110066 
L 104.239315 59.003043 
L 104.342284 58.842508 
L 104.636683 58.735484 
L 104.644834 58.628461 
L 105.369405 58.521438 
L 105.464252 58.414415 
L 105.576625 58.307391 
L 105.576625 58.25388 
L 106.104493 58.146857 
L 106.205922 58.039833 
L 106.212848 58.039833 
L 106.716291 57.93281 
L 106.755221 57.772275 
L 107.002711 57.665252 
L 107.002711 57.61174 
L 107.105794 57.61174 
L 107.274254 57.504717 
L 107.274254 57.451205 
L 107.811783 57.344182 
L 107.859662 57.237159 
L 108.853382 57.130136 
L 108.853382 57.076624 
L 109.318779 56.969601 
L 109.349245 56.862578 
L 109.517677 56.755554 
L 109.570401 56.648531 
L 110.107616 56.541508 
L 110.147943 56.434485 
L 110.17097 56.434485 
L 110.285253 56.327461 
L 110.285253 56.27395 
L 110.344931 56.27395 
L 111.015296 56.166926 
L 111.094867 56.006392 
L 111.309696 55.899368 
L 111.343553 55.792345 
L 111.87809 55.685322 
L 111.87809 55.63181 
L 112.132675 55.524787 
L 112.132675 55.471275 
L 112.201473 55.471275 
L 112.866708 55.364252 
L 112.956824 55.150206 
L 112.967511 55.150206 
L 113.313096 55.043182 
L 113.385969 54.936159 
L 113.610089 54.829136 
L 113.610089 54.775624 
L 113.967672 54.668601 
L 113.982606 54.561578 
L 114.017803 54.561578 
L 114.6298 54.454554 
L 114.6298 54.401043 
L 114.737472 54.401043 
L 114.987013 54.29402 
L 115.095311 54.186996 
L 115.637029 54.079973 
L 115.65866 53.97295 
L 115.732588 53.97295 
L 116.592902 53.865927 
L 116.592902 53.812415 
L 116.689658 53.812415 
L 117.306387 53.705392 
L 117.391344 53.598368 
L 117.588446 53.491345 
L 117.610875 53.33081 
L 118.454888 53.223787 
L 118.454888 53.170275 
L 119.27231 53.063252 
L 119.27231 53.009741 
L 119.549097 52.902717 
L 119.549097 52.849206 
L 119.646822 52.849206 
L 119.832524 52.742182 
L 119.832524 52.688671 
L 119.863931 52.688671 
L 120.229864 52.581648 
L 120.276147 52.474624 
L 120.982422 52.367601 
L 121.074988 52.260578 
L 122.335007 52.153555 
L 122.433302 51.99302 
L 122.70949 51.885996 
L 122.70949 51.832485 
L 123.300057 51.725462 
L 123.320462 51.618438 
L 123.981109 51.511415 
L 123.981109 51.457903 
L 123.990542 51.457903 
L 124.713175 51.35088 
L 124.771941 51.136834 
L 125.80291 51.02981 
L 125.80291 50.976299 
L 126.308691 50.869275 
L 126.309232 50.815764 
L 126.348903 50.815764 
L 126.987007 50.708741 
L 127.046058 50.548206 
L 127.059367 50.548206 
L 127.31951 50.441182 
L 127.37953 50.334159 
L 127.39113 50.334159 
L 127.595214 50.227136 
L 127.654778 50.120113 
L 127.934102 50.013089 
L 127.934102 49.959578 
L 128.030715 49.959578 
L 128.670557 49.852555 
L 128.780879 49.69202 
L 129.223191 49.584996 
L 129.250322 49.477973 
L 129.324392 49.477973 
L 129.868134 49.37095 
L 129.8872 49.263927 
L 129.952663 49.263927 
L 130.453542 49.156903 
L 130.536789 49.04988 
L 130.680455 48.942857 
L 130.680455 48.889345 
L 131.202736 48.782322 
L 131.285527 48.675299 
L 132.195602 48.568276 
L 132.195602 48.514764 
L 132.301677 48.514764 
L 132.760946 48.407741 
L 132.860979 48.300717 
L 133.415095 48.193694 
L 133.415095 48.140183 
L 133.870146 48.033159 
L 133.965505 47.872624 
L 134.696603 47.765601 
L 134.696603 47.71209 
L 135.126973 47.605066 
L 135.126973 47.551555 
L 136.149449 47.444531 
L 136.215369 47.337508 
L 136.734544 47.230485 
L 136.734544 47.176973 
L 136.95493 47.06995 
L 136.980893 46.962927 
L 137.713473 46.855904 
L 137.713473 46.802392 
L 138.903953 46.695369 
L 138.903953 46.641857 
L 138.93117 46.641857 
L 140.02746 46.534834 
L 140.07001 46.427811 
L 140.086682 46.427811 
L 140.447571 46.320787 
L 140.496533 46.160252 
L 141.173937 46.053229 
L 141.173937 45.999718 
L 141.244474 45.999718 
L 142.32811 45.892694 
L 142.363933 45.839183 
L 142.42002 45.839183 
L 142.677371 45.732159 
L 142.723796 45.625136 
L 143.46447 45.518113 
L 143.545209 45.41109 
L 144.026508 45.304066 
L 144.118105 45.09002 
L 144.559505 44.982997 
L 144.568426 44.875973 
L 145.020627 44.76895 
L 145.107094 44.608415 
L 145.506771 44.501392 
L 145.586256 44.394369 
L 147.650104 44.287346 
L 147.739535 44.180322 
L 148.205787 44.073299 
L 148.205787 44.019787 
L 149.006651 43.912764 
L 149.006651 43.859253 
L 149.829317 43.752229 
L 149.890904 43.645206 
L 150.683162 43.538183 
L 150.683162 43.484671 
L 150.713143 43.484671 
L 151.473196 43.377648 
L 151.473196 43.324136 
L 152.198109 43.217113 
L 152.246558 43.11009 
L 153.584409 43.003067 
L 153.584409 42.949555 
L 154.293591 42.842532 
L 154.293591 42.78902 
L 154.667333 42.681997 
L 154.667333 42.628485 
L 156.381491 42.521462 
L 156.381491 42.46795 
L 156.435954 42.46795 
L 156.930135 42.360927 
L 156.930135 42.307415 
L 157.212451 42.200392 
L 157.212451 42.146881 
L 158.508323 42.039857 
L 158.508323 41.986346 
L 158.607244 41.986346 
L 159.626699 41.879322 
L 159.713651 41.772299 
L 160.197031 41.665276 
L 160.253631 41.558253 
L 160.643447 41.451229 
L 160.643447 41.397718 
L 162.926342 41.290695 
L 162.926342 41.237183 
L 163.718827 41.13016 
L 163.755762 41.023136 
L 165.047074 40.916113 
L 165.104101 40.80909 
L 165.701593 40.702067 
L 165.780594 40.541532 
L 166.750545 40.434509 
L 166.835474 40.327485 
L 168.084578 40.220462 
L 168.164804 40.113439 
L 168.495911 40.006415 
L 168.495911 39.952904 
L 169.42545 39.845881 
L 169.477405 39.738857 
L 170.273994 39.631834 
L 170.273994 39.578322 
L 171.463534 39.471299 
L 171.498645 39.364276 
L 173.194878 39.257253 
L 173.287586 39.150229 
L 173.573921 39.043206 
L 173.573921 38.989695 
L 174.518565 38.882671 
L 174.56918 38.775648 
L 175.146323 38.668625 
L 175.146323 38.615113 
L 175.549334 38.50809 
L 175.655523 38.401067 
L 176.570499 38.294043 
L 176.570499 38.240532 
L 177.750378 38.133509 
L 177.814074 37.972974 
L 178.604622 37.86595 
L 178.604622 37.812439 
L 178.616819 37.812439 
L 179.971941 37.705416 
L 179.971941 37.651904 
L 181.919311 37.544881 
L 181.919311 37.491369 
L 182.015668 37.491369 
L 183.219401 37.384346 
L 183.257961 37.277323 
L 185.321096 37.170299 
L 185.321096 37.116788 
L 186.499407 37.009764 
L 186.499407 36.956253 
L 186.52081 36.956253 
L 187.350231 36.84923 
L 187.350231 36.795718 
L 187.799753 36.688695 
L 187.799753 36.635183 
L 188.620738 36.52816 
L 188.620738 36.474648 
L 189.404645 36.367625 
L 189.412083 36.260602 
L 190.962427 36.153578 
L 190.962427 36.100067 
L 191.764887 35.993044 
L 191.764887 35.939532 
L 192.844818 35.832509 
L 192.844818 35.778997 
L 193.850365 35.671974 
L 193.850365 35.618462 
L 195.806627 35.511439 
L 195.806627 35.457927 
L 196.894139 35.350904 
L 196.982117 35.190369 
L 197.682833 35.083346 
L 197.682833 35.029834 
L 198.369899 34.922811 
L 198.369899 34.869299 
L 199.875413 34.762276 
L 199.909356 34.655253 
L 201.440605 34.54823 
L 201.440605 34.494718 
L 202.545843 34.387695 
L 202.545843 34.334183 
L 203.208 34.22716 
L 203.208 34.173648 
L 205.073377 34.066625 
L 205.073377 34.013113 
L 206.755731 33.90609 
L 206.755731 33.852579 
L 208.640345 33.745555 
L 208.640345 33.692044 
L 208.670041 33.692044 
L 209.341318 33.58502 
L 209.341318 33.531509 
L 209.873289 33.424486 
L 209.873289 33.370974 
L 212.692915 33.263951 
L 212.692915 33.210439 
L 215.099183 33.103416 
L 215.099183 33.049904 
L 216.060841 32.942881 
L 216.135254 32.782346 
L 217.56208 32.675323 
L 217.56208 32.621811 
L 220.375692 32.514788 
L 220.375692 32.461276 
L 222.958572 32.354253 
L 223.028966 32.24723 
L 224.505268 32.140207 
L 224.505268 32.086695 
L 224.601169 32.086695 
L 225.200627 31.979672 
L 225.200627 31.92616 
L 227.507347 31.819137 
L 227.507347 31.765625 
L 228.585169 31.658602 
L 228.585169 31.60509 
L 229.762625 31.498067 
L 229.762625 31.444555 
L 231.00392 31.337532 
L 231.00392 31.284021 
L 233.958348 31.176997 
L 234.054534 31.069974 
L 236.274929 30.962951 
L 236.274929 30.909439 
L 237.182039 30.802416 
L 237.182039 30.748904 
L 238.178951 30.641881 
L 238.178951 30.588369 
L 239.615183 30.481346 
L 239.615183 30.427835 
L 240.916526 30.320811 
L 240.986834 30.213788 
L 243.291217 30.106765 
L 243.291217 30.053253 
L 243.833705 29.94623 
L 243.833705 29.892718 
L 244.76712 29.785695 
L 244.865643 29.678672 
L 246.49379 29.571649 
L 246.49379 29.518137 
L 247.819415 29.411114 
L 247.819415 29.357602 
L 251.775429 29.250579 
L 251.775429 29.197067 
L 253.375191 29.090044 
L 253.375191 29.036532 
L 254.554842 28.929509 
L 254.632332 28.822486 
L 256.96795 28.715462 
L 256.96795 28.661951 
L 259.438913 28.554928 
L 259.438913 28.501416 
L 261.395687 28.394393 
L 261.395687 28.340881 
L 263.245304 28.233858 
L 263.245304 28.180346 
L 263.961724 28.073323 
L 263.961724 28.019811 
L 266.141992 27.912788 
L 266.141992 27.859276 
L 269.218711 27.752253 
L 269.218711 27.698742 
L 271.563221 27.591718 
L 271.563221 27.538207 
L 274.278681 27.431183 
L 274.278681 27.377672 
L 275.366649 27.270649 
L 275.366649 27.217137 
L 276.649411 27.110114 
L 276.649411 27.056602 
L 278.558677 26.949579 
L 278.558677 26.896067 
L 282.023758 26.789044 
L 282.023758 26.789044 
" clip-path="url(#p6bfaf63937)" style="fill: none; stroke: #1f77b4; stroke-width: 1.5; stroke-linecap: round"/>
   </g>
   <g id="patch_3">
    <path d="M 35.655938 265.022801 
L 35.655938 19.642031 
" style="fill: none"/>
   </g>
   <g id="patch_4">
    <path d="M 289.19952 265.022801 
L 289.19952 19.642031 
" style="fill: none"/>
   </g>
   <g id="patch_5">
    <path d="M 35.655938 265.022801 
L 289.19952 265.022801 
" style="fill: none"/>
   </g>
   <g id="patch_6">
    <path d="M 35.655938 19.642031 
L 289.19952 19.642031 
" style="fill: none"/>
   </g>
   <g id="text_15">
    <!-- Model 1: Precision-Recall Curve -->
    <g style="fill: #333333" transform="translate(93.910307 13.642031) scale(0.09 -0.09)">
     <defs>
      <path id="Arial-BoldMT-4d" d="M 453 0 
L 453 4581 
L 1838 4581 
L 2669 1456 
L 3491 4581 
L 4878 4581 
L 4878 0 
L 4019 0 
L 4019 3606 
L 3109 0 
L 2219 0 
L 1313 3606 
L 1313 0 
L 453 0 
z
" transform="scale(0.015625)"/>
      <path id="Arial-BoldMT-64" d="M 3503 0 
L 2688 0 
L 2688 488 
Q 2484 203 2207 64 
Q 1931 -75 1650 -75 
Q 1078 -75 670 386 
Q 263 847 263 1672 
Q 263 2516 659 2955 
Q 1056 3394 1663 3394 
Q 2219 3394 2625 2931 
L 2625 4581 
L 3503 4581 
L 3503 0 
z
M 1159 1731 
Q 1159 1200 1306 963 
Q 1519 619 1900 619 
Q 2203 619 2415 876 
Q 2628 1134 2628 1647 
Q 2628 2219 2422 2470 
Q 2216 2722 1894 2722 
Q 1581 2722 1370 2473 
Q 1159 2225 1159 1731 
z
" transform="scale(0.015625)"/>
      <path id="Arial-BoldMT-31" d="M 2519 0 
L 1641 0 
L 1641 3309 
Q 1159 2859 506 2644 
L 506 3441 
Q 850 3553 1253 3867 
Q 1656 4181 1806 4600 
L 2519 4600 
L 2519 0 
z
" transform="scale(0.015625)"/>
      <path id="Arial-BoldMT-3a" d="M 628 2441 
L 628 3319 
L 1506 3319 
L 1506 2441 
L 628 2441 
z
M 628 0 
L 628 878 
L 1506 878 
L 1506 0 
L 628 0 
z
" transform="scale(0.015625)"/>
      <path id="Arial-BoldMT-2d" d="M 359 1222 
L 359 2100 
L 2084 2100 
L 2084 1222 
L 359 1222 
z
" transform="scale(0.015625)"/>
      <path id="Arial-BoldMT-43" d="M 3397 1684 
L 4294 1400 
Q 4088 650 3608 286 
Q 3128 -78 2391 -78 
Q 1478 -78 890 545 
Q 303 1169 303 2250 
Q 303 3394 893 4026 
Q 1484 4659 2447 4659 
Q 3288 4659 3813 4163 
Q 4125 3869 4281 3319 
L 3366 3100 
Q 3284 3456 3026 3662 
Q 2769 3869 2400 3869 
Q 1891 3869 1573 3503 
Q 1256 3138 1256 2319 
Q 1256 1450 1568 1081 
Q 1881 713 2381 713 
Q 2750 713 3015 947 
Q 3281 1181 3397 1684 
z
" transform="scale(0.015625)"/>
      <path id="Arial-BoldMT-75" d="M 2644 0 
L 2644 497 
Q 2463 231 2167 78 
Q 1872 -75 1544 -75 
Q 1209 -75 943 72 
Q 678 219 559 484 
Q 441 750 441 1219 
L 441 3319 
L 1319 3319 
L 1319 1794 
Q 1319 1094 1367 936 
Q 1416 778 1544 686 
Q 1672 594 1869 594 
Q 2094 594 2272 717 
Q 2450 841 2515 1023 
Q 2581 1206 2581 1919 
L 2581 3319 
L 3459 3319 
L 3459 0 
L 2644 0 
z
" transform="scale(0.015625)"/>
      <path id="Arial-BoldMT-76" d="M 1372 0 
L 34 3319 
L 956 3319 
L 1581 1625 
L 1763 1059 
Q 1834 1275 1853 1344 
Q 1897 1484 1947 1625 
L 2578 3319 
L 3481 3319 
L 2163 0 
L 1372 0 
z
" transform="scale(0.015625)"/>
     </defs>
     <use xlink:href="#Arial-BoldMT-4d"/>
     <use xlink:href="#Arial-BoldMT-6f" transform="translate(83.300781 0)"/>
     <use xlink:href="#Arial-BoldMT-64" transform="translate(144.384766 0)"/>
     <use xlink:href="#Arial-BoldMT-65" transform="translate(205.46875 0)"/>
     <use xlink:href="#Arial-BoldMT-6c" transform="translate(261.083984 0)"/>
     <use xlink:href="#Arial-BoldMT-20" transform="translate(288.867188 0)"/>
     <use xlink:href="#Arial-BoldMT-31" transform="translate(316.650391 0)"/>
     <use xlink:href="#Arial-BoldMT-3a" transform="translate(372.265625 0)"/>
     <use xlink:href="#Arial-BoldMT-20" transform="translate(405.566406 0)"/>
     <use xlink:href="#Arial-BoldMT-50" transform="translate(433.349609 0)"/>
     <use xlink:href="#Arial-BoldMT-72" transform="translate(500.048828 0)"/>
     <use xlink:href="#Arial-BoldMT-65" transform="translate(538.964844 0)"/>
     <use xlink:href="#Arial-BoldMT-63" transform="translate(594.580078 0)"/>
     <use xlink:href="#Arial-BoldMT-69" transform="translate(650.195312 0)"/>
     <use xlink:href="#Arial-BoldMT-73" transform="translate(677.978516 0)"/>
     <use xlink:href="#Arial-BoldMT-69" transform="translate(733.59375 0)"/>
     <use xlink:href="#Arial-BoldMT-6f" transform="translate(761.376953 0)"/>
     <use xlink:href="#Arial-BoldMT-6e" transform="translate(822.460938 0)"/>
     <use xlink:href="#Arial-BoldMT-2d" transform="translate(883.544922 0)"/>
     <use xlink:href="#Arial-BoldMT-52" transform="translate(916.845703 0)"/>
     <use xlink:href="#Arial-BoldMT-65" transform="translate(989.0625 0)"/>
     <use xlink:href="#Arial-BoldMT-63" transform="translate(1044.677734 0)"/>
     <use xlink:href="#Arial-BoldMT-61" transform="translate(1100.292969 0)"/>
     <use xlink:href="#Arial-BoldMT-6c" transform="translate(1155.908203 0)"/>
     <use xlink:href="#Arial-BoldMT-6c" transform="translate(1183.691406 0)"/>
     <use xlink:href="#Arial-BoldMT-20" transform="translate(1211.474609 0)"/>
     <use xlink:href="#Arial-BoldMT-43" transform="translate(1239.257812 0)"/>
     <use xlink:href="#Arial-BoldMT-75" transform="translate(1311.474609 0)"/>
     <use xlink:href="#Arial-BoldMT-72" transform="translate(1372.558594 0)"/>
     <use xlink:href="#Arial-BoldMT-76" transform="translate(1411.474609 0)"/>
     <use xlink:href="#Arial-BoldMT-65" transform="translate(1467.089844 0)"/>
    </g>
   </g>
   <g id="legend_1">
    <g id="patch_7">
     <path d="M 164.573426 260.522801 
L 282.89952 260.522801 
Q 284.69952 260.522801 284.69952 258.722801 
L 284.69952 246.89202 
Q 284.69952 245.09202 282.89952 245.09202 
L 164.573426 245.09202 
Q 162.773426 245.09202 162.773426 246.89202 
L 162.773426 258.722801 
Q 162.773426 260.522801 164.573426 260.522801 
z
" style="fill: #ffffff; opacity: 0.8; stroke: #cccccc; stroke-width: 0.75; stroke-linejoin: miter"/>
    </g>
    <g id="line2d_26">
     <path d="M 166.373426 251.984051 
L 175.373426 251.984051 
L 184.373426 251.984051 
" style="fill: none; stroke: #1f77b4; stroke-width: 1.5; stroke-linecap: round"/>
    </g>
    <g id="text_16">
     <!-- Precision-Recall curve -->
     <g style="fill: #333333" transform="translate(191.573426 255.134051) scale(0.09 -0.09)">
      <defs>
       <path id="ArialMT-50" d="M 494 0 
L 494 4581 
L 2222 4581 
Q 2678 4581 2919 4538 
Q 3256 4481 3484 4323 
Q 3713 4166 3852 3881 
Q 3991 3597 3991 3256 
Q 3991 2672 3619 2267 
Q 3247 1863 2275 1863 
L 1100 1863 
L 1100 0 
L 494 0 
z
M 1100 2403 
L 2284 2403 
Q 2872 2403 3119 2622 
Q 3366 2841 3366 3238 
Q 3366 3525 3220 3729 
Q 3075 3934 2838 4000 
Q 2684 4041 2272 4041 
L 1100 4041 
L 1100 2403 
z
" transform="scale(0.015625)"/>
       <path id="ArialMT-72" d="M 416 0 
L 416 3319 
L 922 3319 
L 922 2816 
Q 1116 3169 1280 3281 
Q 1444 3394 1641 3394 
Q 1925 3394 2219 3213 
L 2025 2691 
Q 1819 2813 1613 2813 
Q 1428 2813 1281 2702 
Q 1134 2591 1072 2394 
Q 978 2094 978 1738 
L 978 0 
L 416 0 
z
" transform="scale(0.015625)"/>
       <path id="ArialMT-65" d="M 2694 1069 
L 3275 997 
Q 3138 488 2766 206 
Q 2394 -75 1816 -75 
Q 1088 -75 661 373 
Q 234 822 234 1631 
Q 234 2469 665 2931 
Q 1097 3394 1784 3394 
Q 2450 3394 2872 2941 
Q 3294 2488 3294 1666 
Q 3294 1616 3291 1516 
L 816 1516 
Q 847 969 1125 678 
Q 1403 388 1819 388 
Q 2128 388 2347 550 
Q 2566 713 2694 1069 
z
M 847 1978 
L 2700 1978 
Q 2663 2397 2488 2606 
Q 2219 2931 1791 2931 
Q 1403 2931 1139 2672 
Q 875 2413 847 1978 
z
" transform="scale(0.015625)"/>
       <path id="ArialMT-63" d="M 2588 1216 
L 3141 1144 
Q 3050 572 2676 248 
Q 2303 -75 1759 -75 
Q 1078 -75 664 370 
Q 250 816 250 1647 
Q 250 2184 428 2587 
Q 606 2991 970 3192 
Q 1334 3394 1763 3394 
Q 2303 3394 2647 3120 
Q 2991 2847 3088 2344 
L 2541 2259 
Q 2463 2594 2264 2762 
Q 2066 2931 1784 2931 
Q 1359 2931 1093 2626 
Q 828 2322 828 1663 
Q 828 994 1084 691 
Q 1341 388 1753 388 
Q 2084 388 2306 591 
Q 2528 794 2588 1216 
z
" transform="scale(0.015625)"/>
       <path id="ArialMT-69" d="M 425 3934 
L 425 4581 
L 988 4581 
L 988 3934 
L 425 3934 
z
M 425 0 
L 425 3319 
L 988 3319 
L 988 0 
L 425 0 
z
" transform="scale(0.015625)"/>
       <path id="ArialMT-73" d="M 197 991 
L 753 1078 
Q 800 744 1014 566 
Q 1228 388 1613 388 
Q 2000 388 2187 545 
Q 2375 703 2375 916 
Q 2375 1106 2209 1216 
Q 2094 1291 1634 1406 
Q 1016 1563 777 1677 
Q 538 1791 414 1992 
Q 291 2194 291 2438 
Q 291 2659 392 2848 
Q 494 3038 669 3163 
Q 800 3259 1026 3326 
Q 1253 3394 1513 3394 
Q 1903 3394 2198 3281 
Q 2494 3169 2634 2976 
Q 2775 2784 2828 2463 
L 2278 2388 
Q 2241 2644 2061 2787 
Q 1881 2931 1553 2931 
Q 1166 2931 1000 2803 
Q 834 2675 834 2503 
Q 834 2394 903 2306 
Q 972 2216 1119 2156 
Q 1203 2125 1616 2013 
Q 2213 1853 2448 1751 
Q 2684 1650 2818 1456 
Q 2953 1263 2953 975 
Q 2953 694 2789 445 
Q 2625 197 2315 61 
Q 2006 -75 1616 -75 
Q 969 -75 630 194 
Q 291 463 197 991 
z
" transform="scale(0.015625)"/>
       <path id="ArialMT-6f" d="M 213 1659 
Q 213 2581 725 3025 
Q 1153 3394 1769 3394 
Q 2453 3394 2887 2945 
Q 3322 2497 3322 1706 
Q 3322 1066 3130 698 
Q 2938 331 2570 128 
Q 2203 -75 1769 -75 
Q 1072 -75 642 372 
Q 213 819 213 1659 
z
M 791 1659 
Q 791 1022 1069 705 
Q 1347 388 1769 388 
Q 2188 388 2466 706 
Q 2744 1025 2744 1678 
Q 2744 2294 2464 2611 
Q 2184 2928 1769 2928 
Q 1347 2928 1069 2612 
Q 791 2297 791 1659 
z
" transform="scale(0.015625)"/>
       <path id="ArialMT-6e" d="M 422 0 
L 422 3319 
L 928 3319 
L 928 2847 
Q 1294 3394 1984 3394 
Q 2284 3394 2536 3286 
Q 2788 3178 2913 3003 
Q 3038 2828 3088 2588 
Q 3119 2431 3119 2041 
L 3119 0 
L 2556 0 
L 2556 2019 
Q 2556 2363 2490 2533 
Q 2425 2703 2258 2804 
Q 2091 2906 1866 2906 
Q 1506 2906 1245 2678 
Q 984 2450 984 1813 
L 984 0 
L 422 0 
z
" transform="scale(0.015625)"/>
       <path id="ArialMT-2d" d="M 203 1375 
L 203 1941 
L 1931 1941 
L 1931 1375 
L 203 1375 
z
" transform="scale(0.015625)"/>
       <path id="ArialMT-52" d="M 503 0 
L 503 4581 
L 2534 4581 
Q 3147 4581 3465 4457 
Q 3784 4334 3975 4021 
Q 4166 3709 4166 3331 
Q 4166 2844 3850 2509 
Q 3534 2175 2875 2084 
Q 3116 1969 3241 1856 
Q 3506 1613 3744 1247 
L 4541 0 
L 3778 0 
L 3172 953 
Q 2906 1366 2734 1584 
Q 2563 1803 2427 1890 
Q 2291 1978 2150 2013 
Q 2047 2034 1813 2034 
L 1109 2034 
L 1109 0 
L 503 0 
z
M 1109 2559 
L 2413 2559 
Q 2828 2559 3062 2645 
Q 3297 2731 3419 2920 
Q 3541 3109 3541 3331 
Q 3541 3656 3305 3865 
Q 3069 4075 2559 4075 
L 1109 4075 
L 1109 2559 
z
" transform="scale(0.015625)"/>
       <path id="ArialMT-61" d="M 2588 409 
Q 2275 144 1986 34 
Q 1697 -75 1366 -75 
Q 819 -75 525 192 
Q 231 459 231 875 
Q 231 1119 342 1320 
Q 453 1522 633 1644 
Q 813 1766 1038 1828 
Q 1203 1872 1538 1913 
Q 2219 1994 2541 2106 
Q 2544 2222 2544 2253 
Q 2544 2597 2384 2738 
Q 2169 2928 1744 2928 
Q 1347 2928 1158 2789 
Q 969 2650 878 2297 
L 328 2372 
Q 403 2725 575 2942 
Q 747 3159 1072 3276 
Q 1397 3394 1825 3394 
Q 2250 3394 2515 3294 
Q 2781 3194 2906 3042 
Q 3031 2891 3081 2659 
Q 3109 2516 3109 2141 
L 3109 1391 
Q 3109 606 3145 398 
Q 3181 191 3288 0 
L 2700 0 
Q 2613 175 2588 409 
z
M 2541 1666 
Q 2234 1541 1622 1453 
Q 1275 1403 1131 1340 
Q 988 1278 909 1158 
Q 831 1038 831 891 
Q 831 666 1001 516 
Q 1172 366 1500 366 
Q 1825 366 2078 508 
Q 2331 650 2450 897 
Q 2541 1088 2541 1459 
L 2541 1666 
z
" transform="scale(0.015625)"/>
       <path id="ArialMT-6c" d="M 409 0 
L 409 4581 
L 972 4581 
L 972 0 
L 409 0 
z
" transform="scale(0.015625)"/>
       <path id="ArialMT-20" transform="scale(0.015625)"/>
       <path id="ArialMT-75" d="M 2597 0 
L 2597 488 
Q 2209 -75 1544 -75 
Q 1250 -75 995 37 
Q 741 150 617 320 
Q 494 491 444 738 
Q 409 903 409 1263 
L 409 3319 
L 972 3319 
L 972 1478 
Q 972 1038 1006 884 
Q 1059 663 1231 536 
Q 1403 409 1656 409 
Q 1909 409 2131 539 
Q 2353 669 2445 892 
Q 2538 1116 2538 1541 
L 2538 3319 
L 3100 3319 
L 3100 0 
L 2597 0 
z
" transform="scale(0.015625)"/>
       <path id="ArialMT-76" d="M 1344 0 
L 81 3319 
L 675 3319 
L 1388 1331 
Q 1503 1009 1600 663 
Q 1675 925 1809 1294 
L 2547 3319 
L 3125 3319 
L 1869 0 
L 1344 0 
z
" transform="scale(0.015625)"/>
      </defs>
      <use xlink:href="#ArialMT-50"/>
      <use xlink:href="#ArialMT-72" transform="translate(66.699219 0)"/>
      <use xlink:href="#ArialMT-65" transform="translate(100 0)"/>
      <use xlink:href="#ArialMT-63" transform="translate(155.615234 0)"/>
      <use xlink:href="#ArialMT-69" transform="translate(205.615234 0)"/>
      <use xlink:href="#ArialMT-73" transform="translate(227.832031 0)"/>
      <use xlink:href="#ArialMT-69" transform="translate(277.832031 0)"/>
      <use xlink:href="#ArialMT-6f" transform="translate(300.048828 0)"/>
      <use xlink:href="#ArialMT-6e" transform="translate(355.664062 0)"/>
      <use xlink:href="#ArialMT-2d" transform="translate(411.279297 0)"/>
      <use xlink:href="#ArialMT-52" transform="translate(444.580078 0)"/>
      <use xlink:href="#ArialMT-65" transform="translate(516.796875 0)"/>
      <use xlink:href="#ArialMT-63" transform="translate(572.412109 0)"/>
      <use xlink:href="#ArialMT-61" transform="translate(622.412109 0)"/>
      <use xlink:href="#ArialMT-6c" transform="translate(678.027344 0)"/>
      <use xlink:href="#ArialMT-6c" transform="translate(700.244141 0)"/>
      <use xlink:href="#ArialMT-20" transform="translate(722.460938 0)"/>
      <use xlink:href="#ArialMT-63" transform="translate(750.244141 0)"/>
      <use xlink:href="#ArialMT-75" transform="translate(800.244141 0)"/>
      <use xlink:href="#ArialMT-72" transform="translate(855.859375 0)"/>
      <use xlink:href="#ArialMT-76" transform="translate(889.160156 0)"/>
      <use xlink:href="#ArialMT-65" transform="translate(939.160156 0)"/>
     </g>
    </g>
   </g>
  </g>
 </g>
 <defs>
  <clipPath id="p6bfaf63937">
   <rect x="35.655938" y="19.642031" width="253.543583" height="245.38077"/>
  </clipPath>
 </defs>
</svg>
