<?xml version="1.0" encoding="utf-8" standalone="no"?>
<!DOCTYPE svg PUBLIC "-//W3C//DTD SVG 1.1//EN"
  "http://www.w3.org/Graphics/SVG/1.1/DTD/svg11.dtd">
<svg xmlns:xlink="http://www.w3.org/1999/xlink" width="296.39952pt" height="296.39952pt" viewBox="0 0 296.39952 296.39952" xmlns="http://www.w3.org/2000/svg" version="1.1">
 <metadata>
  <rdf:RDF xmlns:dc="http://purl.org/dc/elements/1.1/" xmlns:cc="http://creativecommons.org/ns#" xmlns:rdf="http://www.w3.org/1999/02/22-rdf-syntax-ns#">
   <cc:Work>
    <dc:type rdf:resource="http://purl.org/dc/dcmitype/StillImage"/>
    <dc:date>2026-01-24T23:34:29.125421</dc:date>
    <dc:format>image/svg+xml</dc:format>
    <dc:creator>
     <cc:Agent>
      <dc:title>Matplotlib v3.10.8, https://matplotlib.org/</dc:title>
     </cc:Agent>
    </dc:creator>
   </cc:Work>
  </rdf:RDF>
 </metadata>
 <defs>
  <style type="text/css">*{stroke-linejoin: round; stroke-linecap: butt}</style>
 </defs>
 <g id="figure_1">
  <g id="patch_1">
   <path d="M 0 296.39952 
L 296.39952 296.39952 
L 296.39952 0 
L 0 0 
z
" style="fill: #ffffff"/>
  </g>
  <g id="axes_1">
   <g id="patch_2">
    <path d="M 35.655938 265.022801 
L 289.19952 265.022801 
L 289.19952 19.751719 
L 35.655938 19.751719 
z
" style="fill: #ffffff"/>
   </g>
   <g id="matplotlib.axis_1">
    <g id="xtick_1">
     <g id="line2d_1">
      <path d="M 42.831699 265.022801 
L 42.831699 19.751719 
" clip-path="url(#p198940e142)" style="fill: none; stroke: #c0c0c0; stroke-width: 0.25; stroke-linecap: round"/>
     </g>
     <g id="line2d_2"/>
     <g id="text_1">
      <!-- 0.0 -->
      <g style="fill: #333333" transform="translate(36.576699 274.964832) scale(0.09 -0.09)">
       <defs>
        <path id="ArialMT-30" d="M 266 2259 
Q 266 3072 433 3567 
Q 600 4063 929 4331 
Q 1259 4600 1759 4600 
Q 2128 4600 2406 4451 
Q 2684 4303 2865 4023 
Q 3047 3744 3150 3342 
Q 3253 2941 3253 2259 
Q 3253 1453 3087 958 
Q 2922 463 2592 192 
Q 2263 -78 1759 -78 
Q 1097 -78 719 397 
Q 266 969 266 2259 
z
M 844 2259 
Q 844 1131 1108 757 
Q 1372 384 1759 384 
Q 2147 384 2411 759 
Q 2675 1134 2675 2259 
Q 2675 3391 2411 3762 
Q 2147 4134 1753 4134 
Q 1366 4134 1134 3806 
Q 844 3388 844 2259 
z
" transform="scale(0.015625)"/>
        <path id="ArialMT-2e" d="M 581 0 
L 581 641 
L 1222 641 
L 1222 0 
L 581 0 
z
" transform="scale(0.015625)"/>
       </defs>
       <use xlink:href="#ArialMT-30"/>
       <use xlink:href="#ArialMT-2e" transform="translate(55.615234 0)"/>
       <use xlink:href="#ArialMT-30" transform="translate(83.398438 0)"/>
      </g>
     </g>
    </g>
    <g id="xtick_2">
     <g id="line2d_3">
      <path d="M 90.670111 265.022801 
L 90.670111 19.751719 
" clip-path="url(#p198940e142)" style="fill: none; stroke: #c0c0c0; stroke-width: 0.25; stroke-linecap: round"/>
     </g>
     <g id="line2d_4"/>
     <g id="text_2">
      <!-- 0.2 -->
      <g style="fill: #333333" transform="translate(84.415111 274.964832) scale(0.09 -0.09)">
       <defs>
        <path id="ArialMT-32" d="M 3222 541 
L 3222 0 
L 194 0 
Q 188 203 259 391 
Q 375 700 629 1000 
Q 884 1300 1366 1694 
Q 2113 2306 2375 2664 
Q 2638 3022 2638 3341 
Q 2638 3675 2398 3904 
Q 2159 4134 1775 4134 
Q 1369 4134 1125 3890 
Q 881 3647 878 3216 
L 300 3275 
Q 359 3922 746 4261 
Q 1134 4600 1788 4600 
Q 2447 4600 2831 4234 
Q 3216 3869 3216 3328 
Q 3216 3053 3103 2787 
Q 2991 2522 2730 2228 
Q 2469 1934 1863 1422 
Q 1356 997 1212 845 
Q 1069 694 975 541 
L 3222 541 
z
" transform="scale(0.015625)"/>
       </defs>
       <use xlink:href="#ArialMT-30"/>
       <use xlink:href="#ArialMT-2e" transform="translate(55.615234 0)"/>
       <use xlink:href="#ArialMT-32" transform="translate(83.398438 0)"/>
      </g>
     </g>
    </g>
    <g id="xtick_3">
     <g id="line2d_5">
      <path d="M 138.508523 265.022801 
L 138.508523 19.751719 
" clip-path="url(#p198940e142)" style="fill: none; stroke: #c0c0c0; stroke-width: 0.25; stroke-linecap: round"/>
     </g>
     <g id="line2d_6"/>
     <g id="text_3">
      <!-- 0.4 -->
      <g style="fill: #333333" transform="translate(132.253523 274.964832) scale(0.09 -0.09)">
       <defs>
        <path id="ArialMT-34" d="M 2069 0 
L 2069 1097 
L 81 1097 
L 81 1613 
L 2172 4581 
L 2631 4581 
L 2631 1613 
L 3250 1613 
L 3250 1097 
L 2631 1097 
L 2631 0 
L 2069 0 
z
M 2069 1613 
L 2069 3678 
L 634 1613 
L 2069 1613 
z
" transform="scale(0.015625)"/>
       </defs>
       <use xlink:href="#ArialMT-30"/>
       <use xlink:href="#ArialMT-2e" transform="translate(55.615234 0)"/>
       <use xlink:href="#ArialMT-34" transform="translate(83.398438 0)"/>
      </g>
     </g>
    </g>
    <g id="xtick_4">
     <g id="line2d_7">
      <path d="M 186.346935 265.022801 
L 186.346935 19.751719 
" clip-path="url(#p198940e142)" style="fill: none; stroke: #c0c0c0; stroke-width: 0.25; stroke-linecap: round"/>
     </g>
     <g id="line2d_8"/>
     <g id="text_4">
      <!-- 0.6 -->
      <g style="fill: #333333" transform="translate(180.091935 274.964832) scale(0.09 -0.09)">
       <defs>
        <path id="ArialMT-36" d="M 3184 3459 
L 2625 3416 
Q 2550 3747 2413 3897 
Q 2184 4138 1850 4138 
Q 1581 4138 1378 3988 
Q 1113 3794 959 3422 
Q 806 3050 800 2363 
Q 1003 2672 1297 2822 
Q 1591 2972 1913 2972 
Q 2475 2972 2870 2558 
Q 3266 2144 3266 1488 
Q 3266 1056 3080 686 
Q 2894 316 2569 119 
Q 2244 -78 1831 -78 
Q 1128 -78 684 439 
Q 241 956 241 2144 
Q 241 3472 731 4075 
Q 1159 4600 1884 4600 
Q 2425 4600 2770 4297 
Q 3116 3994 3184 3459 
z
M 888 1484 
Q 888 1194 1011 928 
Q 1134 663 1356 523 
Q 1578 384 1822 384 
Q 2178 384 2434 671 
Q 2691 959 2691 1453 
Q 2691 1928 2437 2201 
Q 2184 2475 1800 2475 
Q 1419 2475 1153 2201 
Q 888 1928 888 1484 
z
" transform="scale(0.015625)"/>
       </defs>
       <use xlink:href="#ArialMT-30"/>
       <use xlink:href="#ArialMT-2e" transform="translate(55.615234 0)"/>
       <use xlink:href="#ArialMT-36" transform="translate(83.398438 0)"/>
      </g>
     </g>
    </g>
    <g id="xtick_5">
     <g id="line2d_9">
      <path d="M 234.185346 265.022801 
L 234.185346 19.751719 
" clip-path="url(#p198940e142)" style="fill: none; stroke: #c0c0c0; stroke-width: 0.25; stroke-linecap: round"/>
     </g>
     <g id="line2d_10"/>
     <g id="text_5">
      <!-- 0.8 -->
      <g style="fill: #333333" transform="translate(227.930346 274.964832) scale(0.09 -0.09)">
       <defs>
        <path id="ArialMT-38" d="M 1131 2484 
Q 781 2613 612 2850 
Q 444 3088 444 3419 
Q 444 3919 803 4259 
Q 1163 4600 1759 4600 
Q 2359 4600 2725 4251 
Q 3091 3903 3091 3403 
Q 3091 3084 2923 2848 
Q 2756 2613 2416 2484 
Q 2838 2347 3058 2040 
Q 3278 1734 3278 1309 
Q 3278 722 2862 322 
Q 2447 -78 1769 -78 
Q 1091 -78 675 323 
Q 259 725 259 1325 
Q 259 1772 486 2073 
Q 713 2375 1131 2484 
z
M 1019 3438 
Q 1019 3113 1228 2906 
Q 1438 2700 1772 2700 
Q 2097 2700 2305 2904 
Q 2513 3109 2513 3406 
Q 2513 3716 2298 3927 
Q 2084 4138 1766 4138 
Q 1444 4138 1231 3931 
Q 1019 3725 1019 3438 
z
M 838 1322 
Q 838 1081 952 856 
Q 1066 631 1291 507 
Q 1516 384 1775 384 
Q 2178 384 2440 643 
Q 2703 903 2703 1303 
Q 2703 1709 2433 1975 
Q 2163 2241 1756 2241 
Q 1359 2241 1098 1978 
Q 838 1716 838 1322 
z
" transform="scale(0.015625)"/>
       </defs>
       <use xlink:href="#ArialMT-30"/>
       <use xlink:href="#ArialMT-2e" transform="translate(55.615234 0)"/>
       <use xlink:href="#ArialMT-38" transform="translate(83.398438 0)"/>
      </g>
     </g>
    </g>
    <g id="xtick_6">
     <g id="line2d_11">
      <path d="M 282.023758 265.022801 
L 282.023758 19.751719 
" clip-path="url(#p198940e142)" style="fill: none; stroke: #c0c0c0; stroke-width: 0.25; stroke-linecap: round"/>
     </g>
     <g id="line2d_12"/>
     <g id="text_6">
      <!-- 1.0 -->
      <g style="fill: #333333" transform="translate(275.768758 274.964832) scale(0.09 -0.09)">
       <defs>
        <path id="ArialMT-31" d="M 2384 0 
L 1822 0 
L 1822 3584 
Q 1619 3391 1289 3197 
Q 959 3003 697 2906 
L 697 3450 
Q 1169 3672 1522 3987 
Q 1875 4303 2022 4600 
L 2384 4600 
L 2384 0 
z
" transform="scale(0.015625)"/>
       </defs>
       <use xlink:href="#ArialMT-31"/>
       <use xlink:href="#ArialMT-2e" transform="translate(55.615234 0)"/>
       <use xlink:href="#ArialMT-30" transform="translate(83.398438 0)"/>
      </g>
     </g>
    </g>
    <g id="text_7">
     <!-- False Positive Rate (FPR) -->
     <g style="fill: #333333" transform="translate(108.165463 287.305301) scale(0.09 -0.09)">
      <defs>
       <path id="Arial-BoldMT-46" d="M 472 0 
L 472 4581 
L 3613 4581 
L 3613 3806 
L 1397 3806 
L 1397 2722 
L 3309 2722 
L 3309 1947 
L 1397 1947 
L 1397 0 
L 472 0 
z
" transform="scale(0.015625)"/>
       <path id="Arial-BoldMT-61" d="M 1116 2306 
L 319 2450 
Q 453 2931 781 3162 
Q 1109 3394 1756 3394 
Q 2344 3394 2631 3255 
Q 2919 3116 3036 2902 
Q 3153 2688 3153 2116 
L 3144 1091 
Q 3144 653 3186 445 
Q 3228 238 3344 0 
L 2475 0 
Q 2441 88 2391 259 
Q 2369 338 2359 363 
Q 2134 144 1878 34 
Q 1622 -75 1331 -75 
Q 819 -75 523 203 
Q 228 481 228 906 
Q 228 1188 362 1408 
Q 497 1628 739 1745 
Q 981 1863 1438 1950 
Q 2053 2066 2291 2166 
L 2291 2253 
Q 2291 2506 2166 2614 
Q 2041 2722 1694 2722 
Q 1459 2722 1328 2630 
Q 1197 2538 1116 2306 
z
M 2291 1594 
Q 2122 1538 1756 1459 
Q 1391 1381 1278 1306 
Q 1106 1184 1106 997 
Q 1106 813 1243 678 
Q 1381 544 1594 544 
Q 1831 544 2047 700 
Q 2206 819 2256 991 
Q 2291 1103 2291 1419 
L 2291 1594 
z
" transform="scale(0.015625)"/>
       <path id="Arial-BoldMT-6c" d="M 459 0 
L 459 4581 
L 1338 4581 
L 1338 0 
L 459 0 
z
" transform="scale(0.015625)"/>
       <path id="Arial-BoldMT-73" d="M 150 947 
L 1031 1081 
Q 1088 825 1259 692 
Q 1431 559 1741 559 
Q 2081 559 2253 684 
Q 2369 772 2369 919 
Q 2369 1019 2306 1084 
Q 2241 1147 2013 1200 
Q 950 1434 666 1628 
Q 272 1897 272 2375 
Q 272 2806 612 3100 
Q 953 3394 1669 3394 
Q 2350 3394 2681 3172 
Q 3013 2950 3138 2516 
L 2309 2363 
Q 2256 2556 2107 2659 
Q 1959 2763 1684 2763 
Q 1338 2763 1188 2666 
Q 1088 2597 1088 2488 
Q 1088 2394 1175 2328 
Q 1294 2241 1995 2081 
Q 2697 1922 2975 1691 
Q 3250 1456 3250 1038 
Q 3250 581 2869 253 
Q 2488 -75 1741 -75 
Q 1063 -75 667 200 
Q 272 475 150 947 
z
" transform="scale(0.015625)"/>
       <path id="Arial-BoldMT-65" d="M 2381 1056 
L 3256 909 
Q 3088 428 2723 176 
Q 2359 -75 1813 -75 
Q 947 -75 531 491 
Q 203 944 203 1634 
Q 203 2459 634 2926 
Q 1066 3394 1725 3394 
Q 2466 3394 2894 2905 
Q 3322 2416 3303 1406 
L 1103 1406 
Q 1113 1016 1316 798 
Q 1519 581 1822 581 
Q 2028 581 2168 693 
Q 2309 806 2381 1056 
z
M 2431 1944 
Q 2422 2325 2234 2523 
Q 2047 2722 1778 2722 
Q 1491 2722 1303 2513 
Q 1116 2303 1119 1944 
L 2431 1944 
z
" transform="scale(0.015625)"/>
       <path id="Arial-BoldMT-20" transform="scale(0.015625)"/>
       <path id="Arial-BoldMT-50" d="M 466 0 
L 466 4581 
L 1950 4581 
Q 2794 4581 3050 4513 
Q 3444 4409 3709 4064 
Q 3975 3719 3975 3172 
Q 3975 2750 3822 2462 
Q 3669 2175 3433 2011 
Q 3197 1847 2953 1794 
Q 2622 1728 1994 1728 
L 1391 1728 
L 1391 0 
L 466 0 
z
M 1391 3806 
L 1391 2506 
L 1897 2506 
Q 2444 2506 2628 2578 
Q 2813 2650 2917 2803 
Q 3022 2956 3022 3159 
Q 3022 3409 2875 3571 
Q 2728 3734 2503 3775 
Q 2338 3806 1838 3806 
L 1391 3806 
z
" transform="scale(0.015625)"/>
       <path id="Arial-BoldMT-6f" d="M 256 1706 
Q 256 2144 472 2553 
Q 688 2963 1083 3178 
Q 1478 3394 1966 3394 
Q 2719 3394 3200 2905 
Q 3681 2416 3681 1669 
Q 3681 916 3195 420 
Q 2709 -75 1972 -75 
Q 1516 -75 1102 131 
Q 688 338 472 736 
Q 256 1134 256 1706 
z
M 1156 1659 
Q 1156 1166 1390 903 
Q 1625 641 1969 641 
Q 2313 641 2545 903 
Q 2778 1166 2778 1666 
Q 2778 2153 2545 2415 
Q 2313 2678 1969 2678 
Q 1625 2678 1390 2415 
Q 1156 2153 1156 1659 
z
" transform="scale(0.015625)"/>
       <path id="Arial-BoldMT-69" d="M 459 3769 
L 459 4581 
L 1338 4581 
L 1338 3769 
L 459 3769 
z
M 459 0 
L 459 3319 
L 1338 3319 
L 1338 0 
L 459 0 
z
" transform="scale(0.015625)"/>
       <path id="Arial-BoldMT-74" d="M 1981 3319 
L 1981 2619 
L 1381 2619 
L 1381 1281 
Q 1381 875 1398 808 
Q 1416 741 1477 697 
Q 1538 653 1625 653 
Q 1747 653 1978 738 
L 2053 56 
Q 1747 -75 1359 -75 
Q 1122 -75 931 4 
Q 741 84 652 211 
Q 563 338 528 553 
Q 500 706 500 1172 
L 500 2619 
L 97 2619 
L 97 3319 
L 500 3319 
L 500 3978 
L 1381 4491 
L 1381 3319 
L 1981 3319 
z
" transform="scale(0.015625)"/>
       <path id="Arial-BoldMT-76" d="M 1372 0 
L 34 3319 
L 956 3319 
L 1581 1625 
L 1763 1059 
Q 1834 1275 1853 1344 
Q 1897 1484 1947 1625 
L 2578 3319 
L 3481 3319 
L 2163 0 
L 1372 0 
z
" transform="scale(0.015625)"/>
       <path id="Arial-BoldMT-52" d="M 469 0 
L 469 4581 
L 2416 4581 
Q 3150 4581 3483 4457 
Q 3816 4334 4016 4018 
Q 4216 3703 4216 3297 
Q 4216 2781 3912 2445 
Q 3609 2109 3006 2022 
Q 3306 1847 3501 1637 
Q 3697 1428 4028 894 
L 4588 0 
L 3481 0 
L 2813 997 
Q 2456 1531 2325 1670 
Q 2194 1809 2047 1861 
Q 1900 1913 1581 1913 
L 1394 1913 
L 1394 0 
L 469 0 
z
M 1394 2644 
L 2078 2644 
Q 2744 2644 2909 2700 
Q 3075 2756 3169 2893 
Q 3263 3031 3263 3238 
Q 3263 3469 3139 3611 
Q 3016 3753 2791 3791 
Q 2678 3806 2116 3806 
L 1394 3806 
L 1394 2644 
z
" transform="scale(0.015625)"/>
       <path id="Arial-BoldMT-28" d="M 1916 -1347 
L 1313 -1347 
Q 834 -625 584 153 
Q 334 931 334 1659 
Q 334 2563 644 3369 
Q 913 4069 1325 4659 
L 1925 4659 
Q 1497 3713 1336 3048 
Q 1175 2384 1175 1641 
Q 1175 1128 1270 590 
Q 1366 53 1531 -431 
Q 1641 -750 1916 -1347 
z
" transform="scale(0.015625)"/>
       <path id="Arial-BoldMT-29" d="M 216 -1347 
Q 475 -791 581 -494 
Q 688 -197 778 190 
Q 869 578 912 926 
Q 956 1275 956 1641 
Q 956 2384 797 3048 
Q 638 3713 209 4659 
L 806 4659 
Q 1278 3988 1539 3234 
Q 1800 2481 1800 1706 
Q 1800 1053 1594 306 
Q 1359 -531 822 -1347 
L 216 -1347 
z
" transform="scale(0.015625)"/>
      </defs>
      <use xlink:href="#Arial-BoldMT-46"/>
      <use xlink:href="#Arial-BoldMT-61" transform="translate(61.083984 0)"/>
      <use xlink:href="#Arial-BoldMT-6c" transform="translate(116.699219 0)"/>
      <use xlink:href="#Arial-BoldMT-73" transform="translate(144.482422 0)"/>
      <use xlink:href="#Arial-BoldMT-65" transform="translate(200.097656 0)"/>
      <use xlink:href="#Arial-BoldMT-20" transform="translate(255.712891 0)"/>
      <use xlink:href="#Arial-BoldMT-50" transform="translate(283.496094 0)"/>
      <use xlink:href="#Arial-BoldMT-6f" transform="translate(350.195312 0)"/>
      <use xlink:href="#Arial-BoldMT-73" transform="translate(411.279297 0)"/>
      <use xlink:href="#Arial-BoldMT-69" transform="translate(466.894531 0)"/>
      <use xlink:href="#Arial-BoldMT-74" transform="translate(494.677734 0)"/>
      <use xlink:href="#Arial-BoldMT-69" transform="translate(527.978516 0)"/>
      <use xlink:href="#Arial-BoldMT-76" transform="translate(555.761719 0)"/>
      <use xlink:href="#Arial-BoldMT-65" transform="translate(611.376953 0)"/>
      <use xlink:href="#Arial-BoldMT-20" transform="translate(666.992188 0)"/>
      <use xlink:href="#Arial-BoldMT-52" transform="translate(694.775391 0)"/>
      <use xlink:href="#Arial-BoldMT-61" transform="translate(766.992188 0)"/>
      <use xlink:href="#Arial-BoldMT-74" transform="translate(822.607422 0)"/>
      <use xlink:href="#Arial-BoldMT-65" transform="translate(855.908203 0)"/>
      <use xlink:href="#Arial-BoldMT-20" transform="translate(911.523438 0)"/>
      <use xlink:href="#Arial-BoldMT-28" transform="translate(939.306641 0)"/>
      <use xlink:href="#Arial-BoldMT-46" transform="translate(972.607422 0)"/>
      <use xlink:href="#Arial-BoldMT-50" transform="translate(1033.691406 0)"/>
      <use xlink:href="#Arial-BoldMT-52" transform="translate(1100.390625 0)"/>
      <use xlink:href="#Arial-BoldMT-29" transform="translate(1172.607422 0)"/>
     </g>
    </g>
   </g>
   <g id="matplotlib.axis_2">
    <g id="ytick_1">
     <g id="line2d_13">
      <path d="M 35.655938 265.022801 
L 289.19952 265.022801 
" clip-path="url(#p198940e142)" style="fill: none; stroke: #c0c0c0; stroke-width: 0.25; stroke-linecap: round"/>
     </g>
     <g id="line2d_14"/>
     <g id="text_8">
      <!-- 0.0 -->
      <g style="fill: #333333" transform="translate(19.645938 268.243817) scale(0.09 -0.09)">
       <use xlink:href="#ArialMT-30"/>
       <use xlink:href="#ArialMT-2e" transform="translate(55.615234 0)"/>
       <use xlink:href="#ArialMT-30" transform="translate(83.398438 0)"/>
      </g>
     </g>
    </g>
    <g id="ytick_2">
     <g id="line2d_15">
      <path d="M 35.655938 217.397348 
L 289.19952 217.397348 
" clip-path="url(#p198940e142)" style="fill: none; stroke: #c0c0c0; stroke-width: 0.25; stroke-linecap: round"/>
     </g>
     <g id="line2d_16"/>
     <g id="text_9">
      <!-- 0.2 -->
      <g style="fill: #333333" transform="translate(19.645938 220.618364) scale(0.09 -0.09)">
       <use xlink:href="#ArialMT-30"/>
       <use xlink:href="#ArialMT-2e" transform="translate(55.615234 0)"/>
       <use xlink:href="#ArialMT-32" transform="translate(83.398438 0)"/>
      </g>
     </g>
    </g>
    <g id="ytick_3">
     <g id="line2d_17">
      <path d="M 35.655938 169.771895 
L 289.19952 169.771895 
" clip-path="url(#p198940e142)" style="fill: none; stroke: #c0c0c0; stroke-width: 0.25; stroke-linecap: round"/>
     </g>
     <g id="line2d_18"/>
     <g id="text_10">
      <!-- 0.4 -->
      <g style="fill: #333333" transform="translate(19.645938 172.992911) scale(0.09 -0.09)">
       <use xlink:href="#ArialMT-30"/>
       <use xlink:href="#ArialMT-2e" transform="translate(55.615234 0)"/>
       <use xlink:href="#ArialMT-34" transform="translate(83.398438 0)"/>
      </g>
     </g>
    </g>
    <g id="ytick_4">
     <g id="line2d_19">
      <path d="M 35.655938 122.146443 
L 289.19952 122.146443 
" clip-path="url(#p198940e142)" style="fill: none; stroke: #c0c0c0; stroke-width: 0.25; stroke-linecap: round"/>
     </g>
     <g id="line2d_20"/>
     <g id="text_11">
      <!-- 0.6 -->
      <g style="fill: #333333" transform="translate(19.645938 125.367458) scale(0.09 -0.09)">
       <use xlink:href="#ArialMT-30"/>
       <use xlink:href="#ArialMT-2e" transform="translate(55.615234 0)"/>
       <use xlink:href="#ArialMT-36" transform="translate(83.398438 0)"/>
      </g>
     </g>
    </g>
    <g id="ytick_5">
     <g id="line2d_21">
      <path d="M 35.655938 74.52099 
L 289.19952 74.52099 
" clip-path="url(#p198940e142)" style="fill: none; stroke: #c0c0c0; stroke-width: 0.25; stroke-linecap: round"/>
     </g>
     <g id="line2d_22"/>
     <g id="text_12">
      <!-- 0.8 -->
      <g style="fill: #333333" transform="translate(19.645938 77.742005) scale(0.09 -0.09)">
       <use xlink:href="#ArialMT-30"/>
       <use xlink:href="#ArialMT-2e" transform="translate(55.615234 0)"/>
       <use xlink:href="#ArialMT-38" transform="translate(83.398438 0)"/>
      </g>
     </g>
    </g>
    <g id="ytick_6">
     <g id="line2d_23">
      <path d="M 35.655938 26.895537 
L 289.19952 26.895537 
" clip-path="url(#p198940e142)" style="fill: none; stroke: #c0c0c0; stroke-width: 0.25; stroke-linecap: round"/>
     </g>
     <g id="line2d_24"/>
     <g id="text_13">
      <!-- 1.0 -->
      <g style="fill: #333333" transform="translate(19.645938 30.116552) scale(0.09 -0.09)">
       <use xlink:href="#ArialMT-31"/>
       <use xlink:href="#ArialMT-2e" transform="translate(55.615234 0)"/>
       <use xlink:href="#ArialMT-30" transform="translate(83.398438 0)"/>
      </g>
     </g>
    </g>
    <g id="text_14">
     <!-- True Positive Rate (TPR) -->
     <g style="fill: #333333" transform="translate(13.751719 194.647026) rotate(-90) scale(0.09 -0.09)">
      <defs>
       <path id="Arial-BoldMT-54" d="M 1497 0 
L 1497 3806 
L 138 3806 
L 138 4581 
L 3778 4581 
L 3778 3806 
L 2422 3806 
L 2422 0 
L 1497 0 
z
" transform="scale(0.015625)"/>
       <path id="Arial-BoldMT-72" d="M 1300 0 
L 422 0 
L 422 3319 
L 1238 3319 
L 1238 2847 
Q 1447 3181 1614 3287 
Q 1781 3394 1994 3394 
Q 2294 3394 2572 3228 
L 2300 2463 
Q 2078 2606 1888 2606 
Q 1703 2606 1575 2504 
Q 1447 2403 1373 2137 
Q 1300 1872 1300 1025 
L 1300 0 
z
" transform="scale(0.015625)"/>
       <path id="Arial-BoldMT-75" d="M 2644 0 
L 2644 497 
Q 2463 231 2167 78 
Q 1872 -75 1544 -75 
Q 1209 -75 943 72 
Q 678 219 559 484 
Q 441 750 441 1219 
L 441 3319 
L 1319 3319 
L 1319 1794 
Q 1319 1094 1367 936 
Q 1416 778 1544 686 
Q 1672 594 1869 594 
Q 2094 594 2272 717 
Q 2450 841 2515 1023 
Q 2581 1206 2581 1919 
L 2581 3319 
L 3459 3319 
L 3459 0 
L 2644 0 
z
" transform="scale(0.015625)"/>
      </defs>
      <use xlink:href="#Arial-BoldMT-54"/>
      <use xlink:href="#Arial-BoldMT-72" transform="translate(55.583984 0)"/>
      <use xlink:href="#Arial-BoldMT-75" transform="translate(94.5 0)"/>
      <use xlink:href="#Arial-BoldMT-65" transform="translate(155.583984 0)"/>
      <use xlink:href="#Arial-BoldMT-20" transform="translate(211.199219 0)"/>
      <use xlink:href="#Arial-BoldMT-50" transform="translate(238.982422 0)"/>
      <use xlink:href="#Arial-BoldMT-6f" transform="translate(305.681641 0)"/>
      <use xlink:href="#Arial-BoldMT-73" transform="translate(366.765625 0)"/>
      <use xlink:href="#Arial-BoldMT-69" transform="translate(422.380859 0)"/>
      <use xlink:href="#Arial-BoldMT-74" transform="translate(450.164062 0)"/>
      <use xlink:href="#Arial-BoldMT-69" transform="translate(483.464844 0)"/>
      <use xlink:href="#Arial-BoldMT-76" transform="translate(511.248047 0)"/>
      <use xlink:href="#Arial-BoldMT-65" transform="translate(566.863281 0)"/>
      <use xlink:href="#Arial-BoldMT-20" transform="translate(622.478516 0)"/>
      <use xlink:href="#Arial-BoldMT-52" transform="translate(650.261719 0)"/>
      <use xlink:href="#Arial-BoldMT-61" transform="translate(722.478516 0)"/>
      <use xlink:href="#Arial-BoldMT-74" transform="translate(778.09375 0)"/>
      <use xlink:href="#Arial-BoldMT-65" transform="translate(811.394531 0)"/>
      <use xlink:href="#Arial-BoldMT-20" transform="translate(867.009766 0)"/>
      <use xlink:href="#Arial-BoldMT-28" transform="translate(894.792969 0)"/>
      <use xlink:href="#Arial-BoldMT-54" transform="translate(928.09375 0)"/>
      <use xlink:href="#Arial-BoldMT-50" transform="translate(989.177734 0)"/>
      <use xlink:href="#Arial-BoldMT-52" transform="translate(1055.876953 0)"/>
      <use xlink:href="#Arial-BoldMT-29" transform="translate(1128.09375 0)"/>
     </g>
    </g>
   </g>
   <g id="line2d_25">
    <path d="M 42.831699 265.022801 
L 42.831842 264.915826 
L 42.942306 243.253305 
L 42.943987 243.14633 
L 43.054622 233.732494 
L 43.057957 233.625518 
L 43.168421 226.725604 
L 43.171185 226.618629 
L 43.281222 220.574518 
L 43.282105 220.574518 
L 43.289658 220.467543 
L 43.39693 216.455965 
L 43.404482 216.348989 
L 43.505798 212.818801 
L 43.522612 212.711825 
L 43.632278 210.465342 
L 43.640743 210.358366 
L 43.740548 208.004907 
L 43.743797 208.004907 
L 43.759871 207.897932 
L 43.867912 205.277034 
L 43.877773 205.170059 
L 43.985301 202.442186 
L 44.002772 202.33521 
L 44.106054 200.570116 
L 44.124322 200.463141 
L 44.232991 197.842243 
L 44.25428 197.735268 
L 44.361039 195.80971 
L 44.366796 195.702735 
L 44.475892 194.312055 
L 44.484755 194.205079 
L 44.595191 192.974862 
L 44.603199 192.867887 
L 44.708276 191.316743 
L 44.731276 191.209768 
L 44.838776 189.498161 
L 44.866306 189.391186 
L 44.974547 187.89353 
L 44.989395 187.786555 
L 45.097038 186.342387 
L 45.115876 186.235411 
L 45.226511 185.379608 
L 45.240219 185.272632 
L 45.348261 183.774977 
L 45.357723 183.668001 
L 45.465992 182.330809 
L 45.479729 182.223833 
L 45.586659 180.833153 
L 45.610627 180.726177 
L 45.720179 179.870374 
L 45.730924 179.763399 
L 45.830301 178.479694 
L 45.849082 178.372718 
L 45.958036 177.035526 
L 45.96764 176.92855 
L 46.073972 175.484382 
L 46.092126 175.377407 
L 46.196406 174.254165 
L 46.231432 174.14719 
L 46.336053 172.916973 
L 46.337877 172.916973 
L 46.354635 172.809997 
L 46.464643 171.526292 
L 46.491746 171.419317 
L 46.601611 170.40305 
L 46.60848 170.296075 
L 46.702785 169.172833 
L 46.740147 169.065858 
L 46.848274 167.782153 
L 46.866486 167.675177 
L 46.975439 166.498448 
L 46.994876 166.391472 
L 47.103601 165.482181 
L 47.11959 165.375206 
L 47.228543 164.091501 
L 47.249063 163.984526 
L 47.350692 162.861284 
L 47.354055 162.861284 
L 47.369701 162.754308 
L 47.479909 161.577579 
L 47.505843 161.470604 
L 47.616564 160.561313 
L 47.644721 160.454337 
L 47.741192 159.91946 
L 47.754786 159.91946 
L 47.778697 159.812485 
L 47.88406 158.849706 
L 47.915381 158.742731 
L 48.019632 157.940415 
L 48.035449 157.83344 
L 48.145999 156.763685 
L 48.167573 156.65671 
L 48.269829 155.907882 
L 48.273534 155.907882 
L 48.315314 155.800907 
L 48.421503 154.945103 
L 48.440683 154.838128 
L 48.548782 153.607911 
L 48.571182 153.500935 
L 48.680934 152.645132 
L 48.737249 152.538157 
L 48.841044 151.896304 
L 48.879917 151.789329 
L 48.989412 150.880038 
L 49.018396 150.773062 
L 49.129459 150.077722 
L 49.147015 149.970747 
L 49.255113 149.221919 
L 49.278169 149.114944 
L 49.383817 148.366116 
L 49.405049 148.25914 
L 49.506479 147.617288 
L 49.538084 147.510312 
L 49.640597 146.761485 
L 49.647836 146.761485 
L 49.693891 146.654509 
L 49.801448 145.584755 
L 49.804013 145.584755 
L 49.830575 145.47778 
L 49.906982 145.049878 
L 49.908207 145.049878 
L 49.94976 144.942903 
L 50.053583 144.621976 
L 50.08137 144.515001 
L 50.190751 143.873148 
L 50.225179 143.766173 
L 50.324727 143.017345 
L 50.353341 142.91037 
L 50.459416 142.21503 
L 50.500968 142.108054 
L 50.604706 141.519689 
L 50.611204 141.519689 
L 50.63617 141.412714 
L 50.712263 140.931325 
L 50.725345 140.931325 
L 50.778468 140.824349 
L 50.864821 140.289472 
L 50.935728 140.182497 
L 51.038924 139.433669 
L 51.073409 139.326693 
L 51.166431 139.005767 
L 51.248937 138.898792 
L 51.348628 138.631353 
L 51.382514 138.524378 
L 51.486993 138.096476 
L 51.522931 137.989501 
L 51.611964 137.615087 
L 51.703732 137.508112 
L 51.813284 136.973234 
L 51.818984 136.866259 
L 51.927481 136.277894 
L 51.967409 136.170919 
L 52.078158 135.68953 
L 52.100616 135.582554 
L 52.184974 135.047677 
L 52.206235 135.047677 
L 52.270986 134.940702 
L 52.375778 134.138386 
L 52.457429 134.031411 
L 52.554413 133.229095 
L 52.56453 133.229095 
L 52.59967 133.12212 
L 52.690156 132.533755 
L 52.692949 132.533755 
L 52.744049 132.426779 
L 52.845792 131.94539 
L 52.918922 131.838415 
L 53.006443 131.464001 
L 53.025082 131.464001 
L 53.053069 131.357025 
L 53.158317 130.822148 
L 53.187985 130.715173 
L 53.293034 130.340759 
L 53.318741 130.233784 
L 53.41125 129.698907 
L 53.469931 129.591931 
L 53.573982 128.896591 
L 53.619068 128.789616 
L 53.706248 128.147763 
L 53.747886 128.040788 
L 53.838629 127.773349 
L 53.855871 127.773349 
L 53.874481 127.666374 
L 53.947839 127.024521 
L 54.055196 126.917546 
L 54.141692 126.703595 
L 54.156825 126.703595 
L 54.24201 126.59662 
L 54.351705 125.901279 
L 54.408276 125.794304 
L 54.513382 125.312915 
L 54.56414 125.205939 
L 54.672609 124.831525 
L 54.699142 124.72455 
L 54.797608 124.350136 
L 54.804191 124.350136 
L 54.840585 124.243161 
L 54.939079 123.601308 
L 54.984792 123.494333 
L 55.083999 122.85248 
L 55.191813 122.745505 
L 55.296976 122.478066 
L 55.354174 122.371091 
L 55.458653 122.15714 
L 55.517847 122.050165 
L 55.626572 121.622263 
L 55.65017 121.515288 
L 55.747809 120.926923 
L 55.85796 120.819947 
L 55.950212 120.28507 
L 55.955143 120.28507 
L 56.008009 120.178095 
L 56.11303 119.58973 
L 56.140475 119.482755 
L 56.23857 119.108341 
L 56.28283 119.001365 
L 56.362942 118.89439 
L 56.416578 118.787415 
L 56.527242 118.466488 
L 56.552834 118.359513 
L 56.634314 118.092074 
L 56.648222 118.092074 
L 56.679514 117.985099 
L 56.715766 117.824636 
L 56.781343 117.824636 
L 56.802661 117.717661 
L 56.875676 117.289759 
L 56.907396 117.289759 
L 56.93923 117.182783 
L 57.048668 116.647906 
L 57.089679 116.540931 
L 57.191394 115.952566 
L 57.242721 115.845591 
L 57.344721 115.310714 
L 57.407505 115.203738 
L 57.514179 114.722349 
L 57.584202 114.615374 
L 57.668874 114.401423 
L 57.722254 114.294447 
L 57.813452 113.973521 
L 57.828699 113.973521 
L 57.902228 113.866546 
L 57.98918 113.438644 
L 58.051793 113.331669 
L 58.159635 112.957255 
L 58.238892 112.850279 
L 58.349071 112.529353 
L 58.410003 112.422378 
L 58.520581 111.887501 
L 58.569059 111.780525 
L 58.671201 111.299136 
L 58.698674 111.19216 
L 58.804465 110.49682 
L 58.830513 110.389845 
L 58.939866 109.587529 
L 58.983099 109.480554 
L 59.059677 109.159628 
L 59.087265 109.159628 
L 59.102968 109.052652 
L 59.2091 108.838701 
L 59.210554 108.838701 
L 59.302778 108.731726 
L 59.413556 108.4108 
L 59.57264 108.303824 
L 59.675665 107.768947 
L 59.683303 107.768947 
L 59.765752 107.661972 
L 59.817735 107.341046 
L 59.96636 107.23407 
L 60.059268 106.752681 
L 60.10273 106.645705 
L 60.195781 106.431755 
L 60.204758 106.431755 
L 60.268284 106.324779 
L 60.360537 106.003853 
L 60.554476 105.896878 
L 60.662802 105.629439 
L 60.741974 105.522464 
L 60.741974 105.468976 
L 60.824708 105.468976 
L 60.940302 105.362001 
L 61.03301 104.934099 
L 61.167499 104.827123 
L 61.261491 104.45271 
L 61.31906 104.345734 
L 61.420774 103.97132 
L 61.471475 103.864345 
L 61.525824 103.596906 
L 61.547227 103.596906 
L 61.676472 103.489931 
L 61.712638 103.27598 
L 61.770349 103.27598 
L 61.916437 103.169005 
L 62.023966 103.008542 
L 62.027215 103.008542 
L 62.069138 102.901566 
L 62.178889 102.58064 
L 62.263675 102.473664 
L 62.323239 102.313201 
L 62.457928 102.206226 
L 62.560355 101.8853 
L 62.742581 101.778324 
L 62.836771 101.510886 
L 62.85162 101.510886 
L 63.032335 101.40391 
L 63.12778 101.082984 
L 63.143141 101.082984 
L 63.195722 100.976009 
L 63.283016 100.815546 
L 63.40964 100.70857 
L 63.508761 100.173693 
L 63.547634 100.066718 
L 63.650831 99.745791 
L 63.658412 99.745791 
L 63.800938 99.638816 
L 63.907583 99.31789 
L 63.9458 99.210914 
L 64.04153 98.996964 
L 64.326383 98.889988 
L 64.413819 98.676037 
L 64.532434 98.569062 
L 64.603084 98.301623 
L 64.642584 98.301623 
L 64.717538 98.194648 
L 64.826064 97.873722 
L 64.863968 97.766746 
L 64.96252 97.392332 
L 64.962805 97.392332 
L 65.031346 97.285357 
L 65.136509 96.964431 
L 65.137478 96.964431 
L 65.257518 96.857455 
L 65.319989 96.536529 
L 65.36231 96.536529 
L 65.538466 96.429554 
L 65.63904 96.108628 
L 65.648388 96.108628 
L 65.813457 96.001652 
L 65.923465 95.627238 
L 66.009021 95.520263 
L 66.095488 95.199337 
L 66.099421 95.199337 
L 66.165198 95.092361 
L 66.271672 94.824923 
L 66.366832 94.717947 
L 66.477267 94.450509 
L 66.545182 94.343533 
L 66.651057 94.076095 
L 66.69241 93.969119 
L 66.798428 93.648193 
L 66.866257 93.541218 
L 66.93876 93.327267 
L 67.09696 93.220291 
L 67.144953 93.006341 
L 67.228884 92.899365 
L 67.283119 92.631927 
L 67.317489 92.631927 
L 67.487831 92.524951 
L 67.5735 92.043562 
L 67.576122 92.043562 
L 67.883974 91.936586 
L 67.955621 91.722636 
L 67.982097 91.722636 
L 68.043371 91.61566 
L 68.153579 91.241246 
L 68.195558 91.134271 
L 68.300266 90.652882 
L 68.395169 90.545906 
L 68.49429 90.385443 
L 68.569557 90.278468 
L 68.672412 89.850566 
L 68.673979 89.850566 
L 68.815137 89.743591 
L 68.914857 89.369177 
L 69.090214 89.262201 
L 69.194465 89.101738 
L 69.307551 88.994763 
L 69.406274 88.727324 
L 69.417445 88.727324 
L 69.563619 88.620349 
L 69.620533 88.459886 
L 69.671889 88.459886 
L 69.750234 88.35291 
L 69.846505 87.978496 
L 69.878368 87.871521 
L 69.981308 87.604082 
L 70.078234 87.497107 
L 70.078234 87.443619 
L 70.148885 87.443619 
L 70.2561 87.336644 
L 70.35012 87.229668 
L 70.362517 87.229668 
L 70.445023 87.122693 
L 70.536107 87.015718 
L 70.727709 86.908742 
L 70.836321 86.694791 
L 70.869893 86.587816 
L 70.869893 86.534328 
L 70.945388 86.534328 
L 71.223885 86.427353 
L 71.333494 86.159914 
L 71.443873 86.052939 
L 71.545559 85.7855 
L 71.677483 85.678525 
L 71.739612 85.411086 
L 71.901945 85.304111 
L 71.973479 85.197136 
L 71.998986 85.197136 
L 72.062654 85.09016 
L 72.062654 85.036672 
L 72.116689 85.036672 
L 72.235218 84.929697 
L 72.337531 84.715746 
L 72.340068 84.715746 
L 72.466377 84.608771 
L 72.571256 84.39482 
L 72.63404 84.287845 
L 72.675735 84.127381 
L 72.737436 84.127381 
L 72.811535 84.020406 
L 72.891476 83.806455 
L 72.902847 83.806455 
L 73.045288 83.69948 
L 73.106077 83.592504 
L 73.151448 83.592504 
L 73.219077 83.485529 
L 73.303806 83.325066 
L 73.430373 83.218091 
L 73.537274 82.897164 
L 73.586008 82.790189 
L 73.68171 82.576238 
L 73.813121 82.469263 
L 73.827684 82.362287 
L 73.88531 82.362287 
L 74.022706 82.255312 
L 74.108005 82.148336 
L 74.133398 82.148336 
L 74.302029 82.041361 
L 74.407193 81.773922 
L 74.502096 81.666947 
L 74.605805 81.452996 
L 74.716412 81.346021 
L 74.772014 81.239045 
L 74.786321 81.239045 
L 74.851585 81.13207 
L 74.936428 80.864631 
L 75.032956 80.757656 
L 75.131478 80.543705 
L 75.143933 80.543705 
L 75.243909 80.43673 
L 75.251005 80.329754 
L 75.321884 80.329754 
L 75.461845 80.222779 
L 75.5077 80.008828 
L 75.566979 80.008828 
L 75.671658 79.901853 
L 75.777134 79.794877 
L 75.90182 79.687902 
L 75.982616 79.527439 
L 76.203943 79.420463 
L 76.203943 79.366976 
L 76.310816 79.366976 
L 76.458158 79.26 
L 76.458158 79.206513 
L 76.561811 79.206513 
L 76.619066 79.099537 
L 76.703624 78.992562 
L 76.853987 78.885586 
L 76.92193 78.56466 
L 77.106094 78.457685 
L 77.176773 78.190246 
L 77.202194 78.190246 
L 77.387697 78.083271 
L 77.496622 77.976295 
L 77.654168 77.86932 
L 77.750011 77.762345 
L 77.835624 77.655369 
L 77.835624 77.601881 
L 77.910948 77.601881 
L 78.101039 77.494906 
L 78.11395 77.387931 
L 78.133757 77.387931 
L 78.270782 77.280955 
L 78.369533 77.067004 
L 78.518072 76.960029 
L 78.621326 76.799566 
L 78.703975 76.69259 
L 78.807456 76.47864 
L 78.96426 76.371664 
L 79.046852 76.264689 
L 79.180116 76.157713 
L 79.192769 76.050738 
L 79.255411 76.050738 
L 79.840078 75.943763 
L 79.925007 75.836787 
L 80.14944 75.729812 
L 80.252665 75.515861 
L 80.438852 75.408886 
L 80.539712 75.194935 
L 80.542334 75.194935 
L 80.837361 75.087959 
L 80.945659 74.980984 
L 81.095025 74.874008 
L 81.166074 74.660058 
L 81.205432 74.660058 
L 81.234501 74.553082 
L 81.308685 74.339131 
L 81.322023 74.339131 
L 81.414418 74.232156 
L 81.490597 74.071693 
L 81.512799 74.071693 
L 81.618589 73.964717 
L 81.670486 73.750767 
L 81.866164 73.643791 
L 81.949154 73.483328 
L 81.974747 73.483328 
L 82.255324 73.376353 
L 82.312238 73.21589 
L 82.364933 73.21589 
L 82.515182 73.108914 
L 82.515182 73.055426 
L 82.587201 73.055426 
L 82.822891 72.948451 
L 82.921044 72.7345 
L 82.927684 72.7345 
L 83.275834 72.627525 
L 83.331636 72.520549 
L 83.359081 72.520549 
L 83.502633 72.413574 
L 83.545638 72.306599 
L 83.586022 72.306599 
L 83.726867 72.199623 
L 83.831089 71.985672 
L 84.047742 71.878697 
L 84.136518 71.718234 
L 84.13743 71.718234 
L 84.660339 71.611258 
L 84.726486 71.504283 
L 84.746721 71.504283 
L 85.049813 71.397308 
L 85.124624 71.129869 
L 85.155916 71.129869 
L 85.642887 71.022894 
L 85.642887 70.969406 
L 85.979637 70.862431 
L 86.084715 70.541504 
L 86.08785 70.541504 
L 86.265173 70.434529 
L 86.351327 70.274066 
L 86.542445 70.16709 
L 86.63732 70.006627 
L 87.111209 69.899652 
L 87.137115 69.739189 
L 87.142331 69.739189 
L 87.339604 69.632213 
L 87.339604 69.578726 
L 87.427097 69.578726 
L 87.584272 69.47175 
L 87.677893 69.311287 
L 87.946871 69.204312 
L 88.05725 69.043849 
L 88.339224 68.936873 
L 88.448719 68.722922 
L 88.787349 68.615947 
L 88.787349 68.562459 
L 88.850276 68.562459 
L 89.418784 68.455484 
L 89.488893 68.295021 
L 89.518846 68.295021 
L 89.770325 68.188045 
L 89.849611 68.08107 
L 90.083478 67.974094 
L 90.19189 67.813631 
L 90.430915 67.706656 
L 90.438325 67.599681 
L 90.850712 67.492705 
L 90.949207 67.38573 
L 90.955875 67.38573 
L 91.097831 67.278754 
L 91.097831 67.225267 
L 91.208552 67.225267 
L 91.629062 67.118291 
L 91.696663 66.957828 
L 91.717496 66.957828 
L 92.136638 66.850853 
L 92.136638 66.797365 
L 92.179016 66.797365 
L 92.576185 66.69039 
L 92.576185 66.636902 
L 93.165184 66.529926 
L 93.236746 66.369463 
L 93.723774 66.262488 
L 93.7816 66.155512 
L 93.97551 66.048537 
L 94.081015 65.888074 
L 94.187774 65.781099 
L 94.187774 65.727611 
L 94.274327 65.727611 
L 94.444498 65.620635 
L 94.49668 65.460172 
L 94.643082 65.353197 
L 94.643082 65.299709 
L 94.73884 65.299709 
L 94.898124 65.192734 
L 94.992856 65.085758 
L 95.127288 64.978783 
L 95.199677 64.657857 
L 95.237097 64.657857 
L 95.371215 64.550881 
L 95.461473 64.443906 
L 95.673424 64.33693 
L 95.736835 64.176467 
L 95.773685 64.176467 
L 96.003818 64.069492 
L 96.003818 64.016004 
L 96.076093 64.016004 
L 96.244525 63.909029 
L 96.244525 63.855541 
L 96.275248 63.855541 
L 96.432508 63.748566 
L 96.537813 63.64159 
L 96.68279 63.534615 
L 96.68279 63.481127 
L 96.777523 63.481127 
L 96.934498 63.374152 
L 96.983317 63.213689 
L 97.340131 63.106713 
L 97.364013 62.999738 
L 97.43056 62.999738 
L 97.787972 62.892762 
L 97.787972 62.839275 
L 97.898806 62.839275 
L 98.172658 62.732299 
L 98.207712 62.625324 
L 98.607304 62.518349 
L 98.670031 62.411373 
L 98.706966 62.411373 
L 98.867618 62.304398 
L 98.901361 62.197422 
L 99.168857 62.090447 
L 99.270772 61.983471 
L 99.275959 61.983471 
L 99.687862 61.876496 
L 99.687862 61.823008 
L 99.709151 61.823008 
L 100.027462 61.716033 
L 100.099594 61.55557 
L 100.306728 61.448594 
L 100.415739 61.341619 
L 100.699166 61.234644 
L 100.78398 61.07418 
L 101.15302 60.967205 
L 101.202353 60.86023 
L 101.251087 60.86023 
L 101.414646 60.753254 
L 101.414646 60.699767 
L 101.442034 60.699767 
L 101.877477 60.592791 
L 101.916778 60.485816 
L 101.969417 60.485816 
L 102.130809 60.37884 
L 102.173273 60.271865 
L 102.196871 60.271865 
L 102.393432 60.164889 
L 102.467645 60.004426 
L 102.474912 60.004426 
L 102.684811 59.897451 
L 102.763156 59.790476 
L 102.927569 59.6835 
L 103.017257 59.576525 
L 103.145163 59.469549 
L 103.145163 59.416062 
L 103.217409 59.416062 
L 103.556838 59.309086 
L 103.605316 59.202111 
L 104.239315 59.095135 
L 104.342284 58.934672 
L 104.636683 58.827697 
L 104.644834 58.720721 
L 105.369405 58.613746 
L 105.464252 58.506771 
L 105.576625 58.399795 
L 105.576625 58.346307 
L 106.104493 58.239332 
L 106.205922 58.132357 
L 106.212848 58.132357 
L 106.716291 58.025381 
L 106.755221 57.864918 
L 107.002711 57.757943 
L 107.002711 57.704455 
L 107.105794 57.704455 
L 107.274254 57.59748 
L 107.274254 57.543992 
L 107.811783 57.437016 
L 107.859662 57.330041 
L 108.853382 57.223066 
L 108.853382 57.169578 
L 109.318779 57.062603 
L 109.349245 56.955627 
L 109.517677 56.848652 
L 109.570401 56.741676 
L 110.107616 56.634701 
L 110.147943 56.527725 
L 110.17097 56.527725 
L 110.285253 56.42075 
L 110.285253 56.367262 
L 110.344931 56.367262 
L 111.015296 56.260287 
L 111.094867 56.099824 
L 111.309696 55.992848 
L 111.343553 55.885873 
L 111.87809 55.778898 
L 111.87809 55.72541 
L 112.132675 55.618435 
L 112.132675 55.564947 
L 112.201473 55.564947 
L 112.866708 55.457971 
L 112.956824 55.244021 
L 112.967511 55.244021 
L 113.313096 55.137045 
L 113.385969 55.03007 
L 113.610089 54.923094 
L 113.610089 54.869607 
L 113.967672 54.762631 
L 113.982606 54.655656 
L 114.017803 54.655656 
L 114.6298 54.54868 
L 114.6298 54.495193 
L 114.737472 54.495193 
L 114.987013 54.388217 
L 115.095311 54.281242 
L 115.637029 54.174266 
L 115.65866 54.067291 
L 115.732588 54.067291 
L 116.592902 53.960316 
L 116.592902 53.906828 
L 116.689658 53.906828 
L 117.306387 53.799853 
L 117.391344 53.692877 
L 117.588446 53.585902 
L 117.610875 53.425439 
L 118.454888 53.318463 
L 118.454888 53.264975 
L 119.27231 53.158 
L 119.27231 53.104512 
L 119.549097 52.997537 
L 119.549097 52.944049 
L 119.646822 52.944049 
L 119.832524 52.837074 
L 119.832524 52.783586 
L 119.863931 52.783586 
L 120.229864 52.676611 
L 120.276147 52.569635 
L 120.982422 52.46266 
L 121.074988 52.355684 
L 122.335007 52.248709 
L 122.433302 52.088246 
L 122.70949 51.981271 
L 122.70949 51.927783 
L 123.300057 51.820807 
L 123.320462 51.713832 
L 123.981109 51.606857 
L 123.981109 51.553369 
L 123.990542 51.553369 
L 124.713175 51.446393 
L 124.771941 51.232443 
L 125.80291 51.125467 
L 125.80291 51.07198 
L 126.308691 50.965004 
L 126.308691 50.911516 
L 126.348903 50.911516 
L 126.987007 50.804541 
L 127.046058 50.644078 
L 127.059367 50.644078 
L 127.31951 50.537102 
L 127.37953 50.430127 
L 127.39113 50.430127 
L 127.595214 50.323152 
L 127.654778 50.216176 
L 127.934102 50.109201 
L 127.934102 50.055713 
L 128.030715 50.055713 
L 128.670557 49.948738 
L 128.780879 49.788275 
L 129.223191 49.681299 
L 129.250322 49.574324 
L 129.324392 49.574324 
L 129.868134 49.467348 
L 129.8872 49.360373 
L 129.952663 49.360373 
L 130.453542 49.253398 
L 130.536789 49.146422 
L 130.680455 49.039447 
L 130.680455 48.985959 
L 131.202736 48.878984 
L 131.285527 48.772008 
L 132.195602 48.665033 
L 132.195602 48.611545 
L 132.301677 48.611545 
L 132.760946 48.50457 
L 132.860979 48.397594 
L 133.415095 48.290619 
L 133.415095 48.237131 
L 133.870146 48.130156 
L 133.965505 47.969693 
L 134.696603 47.862717 
L 134.696603 47.80923 
L 135.126973 47.702254 
L 135.126973 47.648766 
L 136.149449 47.541791 
L 136.215369 47.434816 
L 136.734544 47.32784 
L 136.734544 47.274352 
L 136.95493 47.167377 
L 136.980893 47.060402 
L 137.713473 46.953426 
L 137.713473 46.899939 
L 138.903953 46.792963 
L 138.903953 46.739475 
L 138.93117 46.739475 
L 140.02746 46.6325 
L 140.07001 46.525525 
L 140.086682 46.525525 
L 140.447571 46.418549 
L 140.496533 46.258086 
L 141.173937 46.151111 
L 141.173937 46.097623 
L 141.244474 46.097623 
L 142.32811 45.990648 
L 142.32811 45.93716 
L 142.42002 45.93716 
L 142.677371 45.830184 
L 142.723796 45.723209 
L 143.46447 45.616234 
L 143.545209 45.509258 
L 144.026508 45.402283 
L 144.118105 45.188332 
L 144.559505 45.081357 
L 144.568426 44.974381 
L 145.020627 44.867406 
L 145.107094 44.706943 
L 145.506771 44.599967 
L 145.586256 44.492992 
L 147.650104 44.386016 
L 147.739535 44.279041 
L 148.205787 44.172066 
L 148.205787 44.118578 
L 149.006651 44.011602 
L 149.006651 43.958115 
L 149.829317 43.851139 
L 149.890904 43.744164 
L 150.683162 43.637188 
L 150.683162 43.583701 
L 150.713143 43.583701 
L 151.473196 43.476725 
L 151.473196 43.423238 
L 152.198109 43.316262 
L 152.246558 43.209287 
L 153.584409 43.102311 
L 153.584409 43.048824 
L 154.293591 42.941848 
L 154.293591 42.888361 
L 154.667333 42.781385 
L 154.667333 42.727897 
L 156.381491 42.620922 
L 156.381491 42.567434 
L 156.435954 42.567434 
L 156.930135 42.460459 
L 156.930135 42.406971 
L 157.212451 42.299996 
L 157.212451 42.246508 
L 158.508323 42.139533 
L 158.508323 42.086045 
L 158.607244 42.086045 
L 159.626699 41.97907 
L 159.713651 41.872094 
L 160.197031 41.765119 
L 160.253631 41.658143 
L 160.643447 41.551168 
L 160.643447 41.49768 
L 162.926342 41.390705 
L 162.926342 41.337217 
L 163.718827 41.230242 
L 163.755762 41.123266 
L 165.047074 41.016291 
L 165.104101 40.909316 
L 165.701593 40.80234 
L 165.780594 40.641877 
L 166.750545 40.534902 
L 166.835474 40.427926 
L 168.084578 40.320951 
L 168.164804 40.213975 
L 168.495911 40.107 
L 168.495911 40.053512 
L 169.42545 39.946537 
L 169.477405 39.839561 
L 170.273994 39.732586 
L 170.273994 39.679098 
L 171.463534 39.572123 
L 171.498645 39.465147 
L 173.194878 39.358172 
L 173.287586 39.251197 
L 173.573921 39.144221 
L 173.573921 39.090734 
L 174.518565 38.983758 
L 174.56918 38.876783 
L 175.146323 38.769807 
L 175.146323 38.71632 
L 175.549334 38.609344 
L 175.655523 38.502369 
L 176.570499 38.395393 
L 176.570499 38.341906 
L 177.750378 38.23493 
L 177.814074 38.074467 
L 178.604622 37.967492 
L 178.604622 37.914004 
L 178.616819 37.914004 
L 179.971941 37.807029 
L 179.971941 37.753541 
L 181.919311 37.646565 
L 181.919311 37.593078 
L 182.015668 37.593078 
L 183.219401 37.486102 
L 183.257961 37.379127 
L 185.321096 37.272152 
L 185.321096 37.218664 
L 186.499407 37.111688 
L 186.499407 37.058201 
L 186.52081 37.058201 
L 187.350231 36.951225 
L 187.350231 36.897738 
L 187.799753 36.790762 
L 187.799753 36.737274 
L 188.620738 36.630299 
L 188.620738 36.576811 
L 189.404645 36.469836 
L 189.412083 36.362861 
L 190.962427 36.255885 
L 190.962427 36.202397 
L 191.764887 36.095422 
L 191.764887 36.041934 
L 192.844818 35.934959 
L 192.844818 35.881471 
L 193.850365 35.774496 
L 193.850365 35.721008 
L 195.806627 35.614033 
L 195.806627 35.560545 
L 196.894139 35.45357 
L 196.982117 35.293106 
L 197.682833 35.186131 
L 197.682833 35.132643 
L 198.369899 35.025668 
L 198.369899 34.97218 
L 199.875413 34.865205 
L 199.909356 34.758229 
L 201.440605 34.651254 
L 201.440605 34.597766 
L 202.545843 34.490791 
L 202.545843 34.437303 
L 203.208 34.330328 
L 203.208 34.27684 
L 205.073377 34.169865 
L 205.073377 34.116377 
L 206.755731 34.009402 
L 206.755731 33.955914 
L 208.640345 33.848938 
L 208.640345 33.795451 
L 208.670041 33.795451 
L 209.341318 33.688475 
L 209.341318 33.634988 
L 209.873289 33.528012 
L 209.873289 33.474524 
L 212.692915 33.367549 
L 212.692915 33.314061 
L 215.099183 33.207086 
L 215.099183 33.153598 
L 216.060841 33.046623 
L 216.135254 32.88616 
L 217.56208 32.779184 
L 217.56208 32.725697 
L 220.375692 32.618721 
L 220.375692 32.565233 
L 222.958572 32.458258 
L 223.028966 32.351283 
L 224.505268 32.244307 
L 224.505268 32.19082 
L 224.601169 32.19082 
L 225.200627 32.083844 
L 225.200627 32.030356 
L 227.507347 31.923381 
L 227.507347 31.869893 
L 228.585169 31.762918 
L 228.585169 31.70943 
L 229.762625 31.602455 
L 229.762625 31.548967 
L 231.00392 31.441992 
L 231.00392 31.388504 
L 233.958348 31.281529 
L 234.054534 31.174553 
L 236.274929 31.067578 
L 236.274929 31.01409 
L 237.182039 30.907115 
L 237.182039 30.853627 
L 238.178951 30.746651 
L 238.178951 30.693164 
L 239.615183 30.586188 
L 239.615183 30.532701 
L 240.916526 30.425725 
L 240.986834 30.31875 
L 243.291217 30.211774 
L 243.291217 30.158287 
L 243.833705 30.051311 
L 243.833705 29.997824 
L 244.76712 29.890848 
L 244.865643 29.783873 
L 246.49379 29.676897 
L 246.49379 29.62341 
L 247.819415 29.516434 
L 247.819415 29.462947 
L 251.775429 29.355971 
L 251.775429 29.302483 
L 253.375191 29.195508 
L 253.375191 29.14202 
L 254.554842 29.035045 
L 254.632332 28.928069 
L 256.96795 28.821094 
L 256.96795 28.767606 
L 259.438913 28.660631 
L 259.438913 28.607143 
L 261.395687 28.500168 
L 261.395687 28.44668 
L 263.245304 28.339705 
L 263.245304 28.286217 
L 263.961724 28.179242 
L 263.961724 28.125754 
L 266.141992 28.018779 
L 266.141992 27.965291 
L 269.218711 27.858315 
L 269.218711 27.804828 
L 271.563221 27.697852 
L 271.563221 27.644365 
L 274.278681 27.537389 
L 274.278681 27.483901 
L 275.366649 27.376926 
L 275.366649 27.323438 
L 276.649411 27.216463 
L 276.649411 27.162975 
L 278.558677 27.056 
L 278.558677 27.002512 
L 282.023758 26.895537 
L 282.023758 26.895537 
" clip-path="url(#p198940e142)" style="fill: none; stroke: #1f77b4; stroke-width: 1.5; stroke-linecap: round"/>
   </g>
   <g id="line2d_26">
    <path d="M 42.831699 265.022801 
L 282.023758 26.895537 
" clip-path="url(#p198940e142)" style="fill: none; stroke-dasharray: 5.55,2.4; stroke-dashoffset: 0; stroke: #999999; stroke-width: 1.5"/>
   </g>
   <g id="patch_3">
    <path d="M 35.655938 265.022801 
L 35.655938 19.751719 
" style="fill: none"/>
   </g>
   <g id="patch_4">
    <path d="M 289.19952 265.022801 
L 289.19952 19.751719 
" style="fill: none"/>
   </g>
   <g id="patch_5">
    <path d="M 35.655938 265.022801 
L 289.19952 265.022801 
" style="fill: none"/>
   </g>
   <g id="patch_6">
    <path d="M 35.655938 19.751719 
L 289.19952 19.751719 
" style="fill: none"/>
   </g>
   <g id="text_15">
    <!-- Model 1: Receiver Operating Characteristic (ROC) Curve -->
    <g style="fill: #333333" transform="translate(42.14976 13.751719) scale(0.09 -0.09)">
     <defs>
      <path id="Arial-BoldMT-4d" d="M 453 0 
L 453 4581 
L 1838 4581 
L 2669 1456 
L 3491 4581 
L 4878 4581 
L 4878 0 
L 4019 0 
L 4019 3606 
L 3109 0 
L 2219 0 
L 1313 3606 
L 1313 0 
L 453 0 
z
" transform="scale(0.015625)"/>
      <path id="Arial-BoldMT-64" d="M 3503 0 
L 2688 0 
L 2688 488 
Q 2484 203 2207 64 
Q 1931 -75 1650 -75 
Q 1078 -75 670 386 
Q 263 847 263 1672 
Q 263 2516 659 2955 
Q 1056 3394 1663 3394 
Q 2219 3394 2625 2931 
L 2625 4581 
L 3503 4581 
L 3503 0 
z
M 1159 1731 
Q 1159 1200 1306 963 
Q 1519 619 1900 619 
Q 2203 619 2415 876 
Q 2628 1134 2628 1647 
Q 2628 2219 2422 2470 
Q 2216 2722 1894 2722 
Q 1581 2722 1370 2473 
Q 1159 2225 1159 1731 
z
" transform="scale(0.015625)"/>
      <path id="Arial-BoldMT-31" d="M 2519 0 
L 1641 0 
L 1641 3309 
Q 1159 2859 506 2644 
L 506 3441 
Q 850 3553 1253 3867 
Q 1656 4181 1806 4600 
L 2519 4600 
L 2519 0 
z
" transform="scale(0.015625)"/>
      <path id="Arial-BoldMT-3a" d="M 628 2441 
L 628 3319 
L 1506 3319 
L 1506 2441 
L 628 2441 
z
M 628 0 
L 628 878 
L 1506 878 
L 1506 0 
L 628 0 
z
" transform="scale(0.015625)"/>
      <path id="Arial-BoldMT-63" d="M 3353 2338 
L 2488 2181 
Q 2444 2441 2289 2572 
Q 2134 2703 1888 2703 
Q 1559 2703 1364 2476 
Q 1169 2250 1169 1719 
Q 1169 1128 1367 884 
Q 1566 641 1900 641 
Q 2150 641 2309 783 
Q 2469 925 2534 1272 
L 3397 1125 
Q 3263 531 2881 228 
Q 2500 -75 1859 -75 
Q 1131 -75 698 384 
Q 266 844 266 1656 
Q 266 2478 700 2936 
Q 1134 3394 1875 3394 
Q 2481 3394 2839 3133 
Q 3197 2872 3353 2338 
z
" transform="scale(0.015625)"/>
      <path id="Arial-BoldMT-4f" d="M 278 2263 
Q 278 2963 488 3438 
Q 644 3788 914 4066 
Q 1184 4344 1506 4478 
Q 1934 4659 2494 4659 
Q 3506 4659 4114 4031 
Q 4722 3403 4722 2284 
Q 4722 1175 4119 548 
Q 3516 -78 2506 -78 
Q 1484 -78 881 545 
Q 278 1169 278 2263 
z
M 1231 2294 
Q 1231 1516 1590 1114 
Q 1950 713 2503 713 
Q 3056 713 3411 1111 
Q 3766 1509 3766 2306 
Q 3766 3094 3420 3481 
Q 3075 3869 2503 3869 
Q 1931 3869 1581 3476 
Q 1231 3084 1231 2294 
z
" transform="scale(0.015625)"/>
      <path id="Arial-BoldMT-70" d="M 434 3319 
L 1253 3319 
L 1253 2831 
Q 1413 3081 1684 3237 
Q 1956 3394 2288 3394 
Q 2866 3394 3269 2941 
Q 3672 2488 3672 1678 
Q 3672 847 3265 386 
Q 2859 -75 2281 -75 
Q 2006 -75 1782 34 
Q 1559 144 1313 409 
L 1313 -1263 
L 434 -1263 
L 434 3319 
z
M 1303 1716 
Q 1303 1156 1525 889 
Q 1747 622 2066 622 
Q 2372 622 2575 867 
Q 2778 1113 2778 1672 
Q 2778 2194 2568 2447 
Q 2359 2700 2050 2700 
Q 1728 2700 1515 2451 
Q 1303 2203 1303 1716 
z
" transform="scale(0.015625)"/>
      <path id="Arial-BoldMT-6e" d="M 3478 0 
L 2600 0 
L 2600 1694 
Q 2600 2231 2544 2389 
Q 2488 2547 2361 2634 
Q 2234 2722 2056 2722 
Q 1828 2722 1647 2597 
Q 1466 2472 1398 2265 
Q 1331 2059 1331 1503 
L 1331 0 
L 453 0 
L 453 3319 
L 1269 3319 
L 1269 2831 
Q 1703 3394 2363 3394 
Q 2653 3394 2893 3289 
Q 3134 3184 3257 3021 
Q 3381 2859 3429 2653 
Q 3478 2447 3478 2063 
L 3478 0 
z
" transform="scale(0.015625)"/>
      <path id="Arial-BoldMT-67" d="M 378 -219 
L 1381 -341 
Q 1406 -516 1497 -581 
Q 1622 -675 1891 -675 
Q 2234 -675 2406 -572 
Q 2522 -503 2581 -350 
Q 2622 -241 2622 53 
L 2622 538 
Q 2228 0 1628 0 
Q 959 0 569 566 
Q 263 1013 263 1678 
Q 263 2513 664 2953 
Q 1066 3394 1663 3394 
Q 2278 3394 2678 2853 
L 2678 3319 
L 3500 3319 
L 3500 341 
Q 3500 -247 3403 -537 
Q 3306 -828 3131 -993 
Q 2956 -1159 2664 -1253 
Q 2372 -1347 1925 -1347 
Q 1081 -1347 728 -1058 
Q 375 -769 375 -325 
Q 375 -281 378 -219 
z
M 1163 1728 
Q 1163 1200 1367 954 
Q 1572 709 1872 709 
Q 2194 709 2416 961 
Q 2638 1213 2638 1706 
Q 2638 2222 2425 2472 
Q 2213 2722 1888 2722 
Q 1572 2722 1367 2476 
Q 1163 2231 1163 1728 
z
" transform="scale(0.015625)"/>
      <path id="Arial-BoldMT-43" d="M 3397 1684 
L 4294 1400 
Q 4088 650 3608 286 
Q 3128 -78 2391 -78 
Q 1478 -78 890 545 
Q 303 1169 303 2250 
Q 303 3394 893 4026 
Q 1484 4659 2447 4659 
Q 3288 4659 3813 4163 
Q 4125 3869 4281 3319 
L 3366 3100 
Q 3284 3456 3026 3662 
Q 2769 3869 2400 3869 
Q 1891 3869 1573 3503 
Q 1256 3138 1256 2319 
Q 1256 1450 1568 1081 
Q 1881 713 2381 713 
Q 2750 713 3015 947 
Q 3281 1181 3397 1684 
z
" transform="scale(0.015625)"/>
      <path id="Arial-BoldMT-68" d="M 1334 4581 
L 1334 2897 
Q 1759 3394 2350 3394 
Q 2653 3394 2897 3281 
Q 3141 3169 3264 2994 
Q 3388 2819 3433 2606 
Q 3478 2394 3478 1947 
L 3478 0 
L 2600 0 
L 2600 1753 
Q 2600 2275 2550 2415 
Q 2500 2556 2373 2639 
Q 2247 2722 2056 2722 
Q 1838 2722 1666 2615 
Q 1494 2509 1414 2295 
Q 1334 2081 1334 1663 
L 1334 0 
L 456 0 
L 456 4581 
L 1334 4581 
z
" transform="scale(0.015625)"/>
     </defs>
     <use xlink:href="#Arial-BoldMT-4d"/>
     <use xlink:href="#Arial-BoldMT-6f" transform="translate(83.300781 0)"/>
     <use xlink:href="#Arial-BoldMT-64" transform="translate(144.384766 0)"/>
     <use xlink:href="#Arial-BoldMT-65" transform="translate(205.46875 0)"/>
     <use xlink:href="#Arial-BoldMT-6c" transform="translate(261.083984 0)"/>
     <use xlink:href="#Arial-BoldMT-20" transform="translate(288.867188 0)"/>
     <use xlink:href="#Arial-BoldMT-31" transform="translate(316.650391 0)"/>
     <use xlink:href="#Arial-BoldMT-3a" transform="translate(372.265625 0)"/>
     <use xlink:href="#Arial-BoldMT-20" transform="translate(405.566406 0)"/>
     <use xlink:href="#Arial-BoldMT-52" transform="translate(433.349609 0)"/>
     <use xlink:href="#Arial-BoldMT-65" transform="translate(505.566406 0)"/>
     <use xlink:href="#Arial-BoldMT-63" transform="translate(561.181641 0)"/>
     <use xlink:href="#Arial-BoldMT-65" transform="translate(616.796875 0)"/>
     <use xlink:href="#Arial-BoldMT-69" transform="translate(672.412109 0)"/>
     <use xlink:href="#Arial-BoldMT-76" transform="translate(700.195312 0)"/>
     <use xlink:href="#Arial-BoldMT-65" transform="translate(755.810547 0)"/>
     <use xlink:href="#Arial-BoldMT-72" transform="translate(811.425781 0)"/>
     <use xlink:href="#Arial-BoldMT-20" transform="translate(850.341797 0)"/>
     <use xlink:href="#Arial-BoldMT-4f" transform="translate(878.125 0)"/>
     <use xlink:href="#Arial-BoldMT-70" transform="translate(955.908203 0)"/>
     <use xlink:href="#Arial-BoldMT-65" transform="translate(1016.992188 0)"/>
     <use xlink:href="#Arial-BoldMT-72" transform="translate(1072.607422 0)"/>
     <use xlink:href="#Arial-BoldMT-61" transform="translate(1111.523438 0)"/>
     <use xlink:href="#Arial-BoldMT-74" transform="translate(1167.138672 0)"/>
     <use xlink:href="#Arial-BoldMT-69" transform="translate(1200.439453 0)"/>
     <use xlink:href="#Arial-BoldMT-6e" transform="translate(1228.222656 0)"/>
     <use xlink:href="#Arial-BoldMT-67" transform="translate(1289.306641 0)"/>
     <use xlink:href="#Arial-BoldMT-20" transform="translate(1350.390625 0)"/>
     <use xlink:href="#Arial-BoldMT-43" transform="translate(1378.173828 0)"/>
     <use xlink:href="#Arial-BoldMT-68" transform="translate(1450.390625 0)"/>
     <use xlink:href="#Arial-BoldMT-61" transform="translate(1511.474609 0)"/>
     <use xlink:href="#Arial-BoldMT-72" transform="translate(1567.089844 0)"/>
     <use xlink:href="#Arial-BoldMT-61" transform="translate(1606.005859 0)"/>
     <use xlink:href="#Arial-BoldMT-63" transform="translate(1661.621094 0)"/>
     <use xlink:href="#Arial-BoldMT-74" transform="translate(1717.236328 0)"/>
     <use xlink:href="#Arial-BoldMT-65" transform="translate(1750.537109 0)"/>
     <use xlink:href="#Arial-BoldMT-72" transform="translate(1806.152344 0)"/>
     <use xlink:href="#Arial-BoldMT-69" transform="translate(1845.068359 0)"/>
     <use xlink:href="#Arial-BoldMT-73" transform="translate(1872.851562 0)"/>
     <use xlink:href="#Arial-BoldMT-74" transform="translate(1928.466797 0)"/>
     <use xlink:href="#Arial-BoldMT-69" transform="translate(1961.767578 0)"/>
     <use xlink:href="#Arial-BoldMT-63" transform="translate(1989.550781 0)"/>
     <use xlink:href="#Arial-BoldMT-20" transform="translate(2045.166016 0)"/>
     <use xlink:href="#Arial-BoldMT-28" transform="translate(2072.949219 0)"/>
     <use xlink:href="#Arial-BoldMT-52" transform="translate(2106.25 0)"/>
     <use xlink:href="#Arial-BoldMT-4f" transform="translate(2178.466797 0)"/>
     <use xlink:href="#Arial-BoldMT-43" transform="translate(2256.25 0)"/>
     <use xlink:href="#Arial-BoldMT-29" transform="translate(2328.466797 0)"/>
     <use xlink:href="#Arial-BoldMT-20" transform="translate(2361.767578 0)"/>
     <use xlink:href="#Arial-BoldMT-43" transform="translate(2389.550781 0)"/>
     <use xlink:href="#Arial-BoldMT-75" transform="translate(2461.767578 0)"/>
     <use xlink:href="#Arial-BoldMT-72" transform="translate(2522.851562 0)"/>
     <use xlink:href="#Arial-BoldMT-76" transform="translate(2561.767578 0)"/>
     <use xlink:href="#Arial-BoldMT-65" transform="translate(2617.382812 0)"/>
    </g>
   </g>
   <g id="legend_1">
    <g id="patch_7">
     <path d="M 182.577645 260.522801 
L 282.89952 260.522801 
Q 284.69952 260.522801 284.69952 258.722801 
L 284.69952 234.161239 
Q 284.69952 232.361239 282.89952 232.361239 
L 182.577645 232.361239 
Q 180.777645 232.361239 180.777645 234.161239 
L 180.777645 258.722801 
Q 180.777645 260.522801 182.577645 260.522801 
z
" style="fill: #ffffff; opacity: 0.8; stroke: #cccccc; stroke-width: 0.75; stroke-linejoin: miter"/>
    </g>
    <g id="line2d_27">
     <path d="M 184.377645 239.25327 
L 193.377645 239.25327 
L 202.377645 239.25327 
" style="fill: none; stroke: #1f77b4; stroke-width: 1.5; stroke-linecap: round"/>
    </g>
    <g id="text_16">
     <!-- ROC curve -->
     <g style="fill: #333333" transform="translate(209.577645 242.40327) scale(0.09 -0.09)">
      <defs>
       <path id="ArialMT-52" d="M 503 0 
L 503 4581 
L 2534 4581 
Q 3147 4581 3465 4457 
Q 3784 4334 3975 4021 
Q 4166 3709 4166 3331 
Q 4166 2844 3850 2509 
Q 3534 2175 2875 2084 
Q 3116 1969 3241 1856 
Q 3506 1613 3744 1247 
L 4541 0 
L 3778 0 
L 3172 953 
Q 2906 1366 2734 1584 
Q 2563 1803 2427 1890 
Q 2291 1978 2150 2013 
Q 2047 2034 1813 2034 
L 1109 2034 
L 1109 0 
L 503 0 
z
M 1109 2559 
L 2413 2559 
Q 2828 2559 3062 2645 
Q 3297 2731 3419 2920 
Q 3541 3109 3541 3331 
Q 3541 3656 3305 3865 
Q 3069 4075 2559 4075 
L 1109 4075 
L 1109 2559 
z
" transform="scale(0.015625)"/>
       <path id="ArialMT-4f" d="M 309 2231 
Q 309 3372 921 4017 
Q 1534 4663 2503 4663 
Q 3138 4663 3647 4359 
Q 4156 4056 4423 3514 
Q 4691 2972 4691 2284 
Q 4691 1588 4409 1038 
Q 4128 488 3612 205 
Q 3097 -78 2500 -78 
Q 1853 -78 1343 234 
Q 834 547 571 1087 
Q 309 1628 309 2231 
z
M 934 2222 
Q 934 1394 1379 917 
Q 1825 441 2497 441 
Q 3181 441 3623 922 
Q 4066 1403 4066 2288 
Q 4066 2847 3877 3264 
Q 3688 3681 3323 3911 
Q 2959 4141 2506 4141 
Q 1863 4141 1398 3698 
Q 934 3256 934 2222 
z
" transform="scale(0.015625)"/>
       <path id="ArialMT-43" d="M 3763 1606 
L 4369 1453 
Q 4178 706 3683 314 
Q 3188 -78 2472 -78 
Q 1731 -78 1267 223 
Q 803 525 561 1097 
Q 319 1669 319 2325 
Q 319 3041 592 3573 
Q 866 4106 1370 4382 
Q 1875 4659 2481 4659 
Q 3169 4659 3637 4309 
Q 4106 3959 4291 3325 
L 3694 3184 
Q 3534 3684 3231 3912 
Q 2928 4141 2469 4141 
Q 1941 4141 1586 3887 
Q 1231 3634 1087 3207 
Q 944 2781 944 2328 
Q 944 1744 1114 1308 
Q 1284 872 1643 656 
Q 2003 441 2422 441 
Q 2931 441 3284 734 
Q 3638 1028 3763 1606 
z
" transform="scale(0.015625)"/>
       <path id="ArialMT-20" transform="scale(0.015625)"/>
       <path id="ArialMT-63" d="M 2588 1216 
L 3141 1144 
Q 3050 572 2676 248 
Q 2303 -75 1759 -75 
Q 1078 -75 664 370 
Q 250 816 250 1647 
Q 250 2184 428 2587 
Q 606 2991 970 3192 
Q 1334 3394 1763 3394 
Q 2303 3394 2647 3120 
Q 2991 2847 3088 2344 
L 2541 2259 
Q 2463 2594 2264 2762 
Q 2066 2931 1784 2931 
Q 1359 2931 1093 2626 
Q 828 2322 828 1663 
Q 828 994 1084 691 
Q 1341 388 1753 388 
Q 2084 388 2306 591 
Q 2528 794 2588 1216 
z
" transform="scale(0.015625)"/>
       <path id="ArialMT-75" d="M 2597 0 
L 2597 488 
Q 2209 -75 1544 -75 
Q 1250 -75 995 37 
Q 741 150 617 320 
Q 494 491 444 738 
Q 409 903 409 1263 
L 409 3319 
L 972 3319 
L 972 1478 
Q 972 1038 1006 884 
Q 1059 663 1231 536 
Q 1403 409 1656 409 
Q 1909 409 2131 539 
Q 2353 669 2445 892 
Q 2538 1116 2538 1541 
L 2538 3319 
L 3100 3319 
L 3100 0 
L 2597 0 
z
" transform="scale(0.015625)"/>
       <path id="ArialMT-72" d="M 416 0 
L 416 3319 
L 922 3319 
L 922 2816 
Q 1116 3169 1280 3281 
Q 1444 3394 1641 3394 
Q 1925 3394 2219 3213 
L 2025 2691 
Q 1819 2813 1613 2813 
Q 1428 2813 1281 2702 
Q 1134 2591 1072 2394 
Q 978 2094 978 1738 
L 978 0 
L 416 0 
z
" transform="scale(0.015625)"/>
       <path id="ArialMT-76" d="M 1344 0 
L 81 3319 
L 675 3319 
L 1388 1331 
Q 1503 1009 1600 663 
Q 1675 925 1809 1294 
L 2547 3319 
L 3125 3319 
L 1869 0 
L 1344 0 
z
" transform="scale(0.015625)"/>
       <path id="ArialMT-65" d="M 2694 1069 
L 3275 997 
Q 3138 488 2766 206 
Q 2394 -75 1816 -75 
Q 1088 -75 661 373 
Q 234 822 234 1631 
Q 234 2469 665 2931 
Q 1097 3394 1784 3394 
Q 2450 3394 2872 2941 
Q 3294 2488 3294 1666 
Q 3294 1616 3291 1516 
L 816 1516 
Q 847 969 1125 678 
Q 1403 388 1819 388 
Q 2128 388 2347 550 
Q 2566 713 2694 1069 
z
M 847 1978 
L 2700 1978 
Q 2663 2397 2488 2606 
Q 2219 2931 1791 2931 
Q 1403 2931 1139 2672 
Q 875 2413 847 1978 
z
" transform="scale(0.015625)"/>
      </defs>
      <use xlink:href="#ArialMT-52"/>
      <use xlink:href="#ArialMT-4f" transform="translate(72.216797 0)"/>
      <use xlink:href="#ArialMT-43" transform="translate(150 0)"/>
      <use xlink:href="#ArialMT-20" transform="translate(222.216797 0)"/>
      <use xlink:href="#ArialMT-63" transform="translate(250 0)"/>
      <use xlink:href="#ArialMT-75" transform="translate(300 0)"/>
      <use xlink:href="#ArialMT-72" transform="translate(355.615234 0)"/>
      <use xlink:href="#ArialMT-76" transform="translate(388.916016 0)"/>
      <use xlink:href="#ArialMT-65" transform="translate(438.916016 0)"/>
     </g>
    </g>
    <g id="line2d_28">
     <path d="M 184.377645 251.984051 
L 193.377645 251.984051 
L 202.377645 251.984051 
" style="fill: none; stroke-dasharray: 5.55,2.4; stroke-dashoffset: 0; stroke: #999999; stroke-width: 1.5"/>
    </g>
    <g id="text_17">
     <!-- Random classifier -->
     <g style="fill: #333333" transform="translate(209.577645 255.134051) scale(0.09 -0.09)">
      <defs>
       <path id="ArialMT-61" d="M 2588 409 
Q 2275 144 1986 34 
Q 1697 -75 1366 -75 
Q 819 -75 525 192 
Q 231 459 231 875 
Q 231 1119 342 1320 
Q 453 1522 633 1644 
Q 813 1766 1038 1828 
Q 1203 1872 1538 1913 
Q 2219 1994 2541 2106 
Q 2544 2222 2544 2253 
Q 2544 2597 2384 2738 
Q 2169 2928 1744 2928 
Q 1347 2928 1158 2789 
Q 969 2650 878 2297 
L 328 2372 
Q 403 2725 575 2942 
Q 747 3159 1072 3276 
Q 1397 3394 1825 3394 
Q 2250 3394 2515 3294 
Q 2781 3194 2906 3042 
Q 3031 2891 3081 2659 
Q 3109 2516 3109 2141 
L 3109 1391 
Q 3109 606 3145 398 
Q 3181 191 3288 0 
L 2700 0 
Q 2613 175 2588 409 
z
M 2541 1666 
Q 2234 1541 1622 1453 
Q 1275 1403 1131 1340 
Q 988 1278 909 1158 
Q 831 1038 831 891 
Q 831 666 1001 516 
Q 1172 366 1500 366 
Q 1825 366 2078 508 
Q 2331 650 2450 897 
Q 2541 1088 2541 1459 
L 2541 1666 
z
" transform="scale(0.015625)"/>
       <path id="ArialMT-6e" d="M 422 0 
L 422 3319 
L 928 3319 
L 928 2847 
Q 1294 3394 1984 3394 
Q 2284 3394 2536 3286 
Q 2788 3178 2913 3003 
Q 3038 2828 3088 2588 
Q 3119 2431 3119 2041 
L 3119 0 
L 2556 0 
L 2556 2019 
Q 2556 2363 2490 2533 
Q 2425 2703 2258 2804 
Q 2091 2906 1866 2906 
Q 1506 2906 1245 2678 
Q 984 2450 984 1813 
L 984 0 
L 422 0 
z
" transform="scale(0.015625)"/>
       <path id="ArialMT-64" d="M 2575 0 
L 2575 419 
Q 2259 -75 1647 -75 
Q 1250 -75 917 144 
Q 584 363 401 755 
Q 219 1147 219 1656 
Q 219 2153 384 2558 
Q 550 2963 881 3178 
Q 1213 3394 1622 3394 
Q 1922 3394 2156 3267 
Q 2391 3141 2538 2938 
L 2538 4581 
L 3097 4581 
L 3097 0 
L 2575 0 
z
M 797 1656 
Q 797 1019 1065 703 
Q 1334 388 1700 388 
Q 2069 388 2326 689 
Q 2584 991 2584 1609 
Q 2584 2291 2321 2609 
Q 2059 2928 1675 2928 
Q 1300 2928 1048 2622 
Q 797 2316 797 1656 
z
" transform="scale(0.015625)"/>
       <path id="ArialMT-6f" d="M 213 1659 
Q 213 2581 725 3025 
Q 1153 3394 1769 3394 
Q 2453 3394 2887 2945 
Q 3322 2497 3322 1706 
Q 3322 1066 3130 698 
Q 2938 331 2570 128 
Q 2203 -75 1769 -75 
Q 1072 -75 642 372 
Q 213 819 213 1659 
z
M 791 1659 
Q 791 1022 1069 705 
Q 1347 388 1769 388 
Q 2188 388 2466 706 
Q 2744 1025 2744 1678 
Q 2744 2294 2464 2611 
Q 2184 2928 1769 2928 
Q 1347 2928 1069 2612 
Q 791 2297 791 1659 
z
" transform="scale(0.015625)"/>
       <path id="ArialMT-6d" d="M 422 0 
L 422 3319 
L 925 3319 
L 925 2853 
Q 1081 3097 1340 3245 
Q 1600 3394 1931 3394 
Q 2300 3394 2536 3241 
Q 2772 3088 2869 2813 
Q 3263 3394 3894 3394 
Q 4388 3394 4653 3120 
Q 4919 2847 4919 2278 
L 4919 0 
L 4359 0 
L 4359 2091 
Q 4359 2428 4304 2576 
Q 4250 2725 4106 2815 
Q 3963 2906 3769 2906 
Q 3419 2906 3187 2673 
Q 2956 2441 2956 1928 
L 2956 0 
L 2394 0 
L 2394 2156 
Q 2394 2531 2256 2718 
Q 2119 2906 1806 2906 
Q 1569 2906 1367 2781 
Q 1166 2656 1075 2415 
Q 984 2175 984 1722 
L 984 0 
L 422 0 
z
" transform="scale(0.015625)"/>
       <path id="ArialMT-6c" d="M 409 0 
L 409 4581 
L 972 4581 
L 972 0 
L 409 0 
z
" transform="scale(0.015625)"/>
       <path id="ArialMT-73" d="M 197 991 
L 753 1078 
Q 800 744 1014 566 
Q 1228 388 1613 388 
Q 2000 388 2187 545 
Q 2375 703 2375 916 
Q 2375 1106 2209 1216 
Q 2094 1291 1634 1406 
Q 1016 1563 777 1677 
Q 538 1791 414 1992 
Q 291 2194 291 2438 
Q 291 2659 392 2848 
Q 494 3038 669 3163 
Q 800 3259 1026 3326 
Q 1253 3394 1513 3394 
Q 1903 3394 2198 3281 
Q 2494 3169 2634 2976 
Q 2775 2784 2828 2463 
L 2278 2388 
Q 2241 2644 2061 2787 
Q 1881 2931 1553 2931 
Q 1166 2931 1000 2803 
Q 834 2675 834 2503 
Q 834 2394 903 2306 
Q 972 2216 1119 2156 
Q 1203 2125 1616 2013 
Q 2213 1853 2448 1751 
Q 2684 1650 2818 1456 
Q 2953 1263 2953 975 
Q 2953 694 2789 445 
Q 2625 197 2315 61 
Q 2006 -75 1616 -75 
Q 969 -75 630 194 
Q 291 463 197 991 
z
" transform="scale(0.015625)"/>
       <path id="ArialMT-69" d="M 425 3934 
L 425 4581 
L 988 4581 
L 988 3934 
L 425 3934 
z
M 425 0 
L 425 3319 
L 988 3319 
L 988 0 
L 425 0 
z
" transform="scale(0.015625)"/>
       <path id="ArialMT-66" d="M 556 0 
L 556 2881 
L 59 2881 
L 59 3319 
L 556 3319 
L 556 3672 
Q 556 4006 616 4169 
Q 697 4388 901 4523 
Q 1106 4659 1475 4659 
Q 1713 4659 2000 4603 
L 1916 4113 
Q 1741 4144 1584 4144 
Q 1328 4144 1222 4034 
Q 1116 3925 1116 3625 
L 1116 3319 
L 1763 3319 
L 1763 2881 
L 1116 2881 
L 1116 0 
L 556 0 
z
" transform="scale(0.015625)"/>
      </defs>
      <use xlink:href="#ArialMT-52"/>
      <use xlink:href="#ArialMT-61" transform="translate(72.216797 0)"/>
      <use xlink:href="#ArialMT-6e" transform="translate(127.832031 0)"/>
      <use xlink:href="#ArialMT-64" transform="translate(183.447266 0)"/>
      <use xlink:href="#ArialMT-6f" transform="translate(239.0625 0)"/>
      <use xlink:href="#ArialMT-6d" transform="translate(294.677734 0)"/>
      <use xlink:href="#ArialMT-20" transform="translate(377.978516 0)"/>
      <use xlink:href="#ArialMT-63" transform="translate(405.761719 0)"/>
      <use xlink:href="#ArialMT-6c" transform="translate(455.761719 0)"/>
      <use xlink:href="#ArialMT-61" transform="translate(477.978516 0)"/>
      <use xlink:href="#ArialMT-73" transform="translate(533.59375 0)"/>
      <use xlink:href="#ArialMT-73" transform="translate(583.59375 0)"/>
      <use xlink:href="#ArialMT-69" transform="translate(633.59375 0)"/>
      <use xlink:href="#ArialMT-66" transform="translate(655.810547 0)"/>
      <use xlink:href="#ArialMT-69" transform="translate(683.59375 0)"/>
      <use xlink:href="#ArialMT-65" transform="translate(705.810547 0)"/>
      <use xlink:href="#ArialMT-72" transform="translate(761.425781 0)"/>
     </g>
    </g>
   </g>
  </g>
 </g>
 <defs>
  <clipPath id="p198940e142">
   <rect x="35.655938" y="19.751719" width="253.543583" height="245.271083"/>
  </clipPath>
 </defs>
</svg>
