<?xml version="1.0" encoding="utf-8" standalone="no"?>
<!DOCTYPE svg PUBLIC "-//W3C//DTD SVG 1.1//EN"
  "http://www.w3.org/Graphics/SVG/1.1/DTD/svg11.dtd">
<svg xmlns:xlink="http://www.w3.org/1999/xlink" width="296.39952pt" height="296.39952pt" viewBox="0 0 296.39952 296.39952" xmlns="http://www.w3.org/2000/svg" version="1.1">
 <metadata>
  <rdf:RDF xmlns:dc="http://purl.org/dc/elements/1.1/" xmlns:cc="http://creativecommons.org/ns#" xmlns:rdf="http://www.w3.org/1999/02/22-rdf-syntax-ns#">
   <cc:Work>
    <dc:type rdf:resource="http://purl.org/dc/dcmitype/StillImage"/>
    <dc:date>2026-01-24T21:48:50.130546</dc:date>
    <dc:format>image/svg+xml</dc:format>
    <dc:creator>
     <cc:Agent>
      <dc:title>Matplotlib v3.10.8, https://matplotlib.org/</dc:title>
     </cc:Agent>
    </dc:creator>
   </cc:Work>
  </rdf:RDF>
 </metadata>
 <defs>
  <style type="text/css">*{stroke-linejoin: round; stroke-linecap: butt}</style>
 </defs>
 <g id="figure_1">
  <g id="patch_1">
   <path d="M 0 296.39952 
L 296.39952 296.39952 
L 296.39952 0 
L 0 0 
z
" style="fill: #ffffff"/>
  </g>
  <g id="axes_1">
   <g id="patch_2">
    <path d="M 35.655938 265.022801 
L 289.19952 265.022801 
L 289.19952 19.642031 
L 35.655938 19.642031 
z
" style="fill: #ffffff"/>
   </g>
   <g id="matplotlib.axis_1">
    <g id="xtick_1">
     <g id="line2d_1">
      <path d="M 42.831699 265.022801 
L 42.831699 19.642031 
" clip-path="url(#p86cc1b160a)" style="fill: none; stroke: #c0c0c0; stroke-width: 0.25; stroke-linecap: round"/>
     </g>
     <g id="line2d_2"/>
     <g id="text_1">
      <!-- 0.0 -->
      <g style="fill: #333333" transform="translate(36.576699 274.964832) scale(0.09 -0.09)">
       <defs>
        <path id="ArialMT-30" d="M 266 2259 
Q 266 3072 433 3567 
Q 600 4063 929 4331 
Q 1259 4600 1759 4600 
Q 2128 4600 2406 4451 
Q 2684 4303 2865 4023 
Q 3047 3744 3150 3342 
Q 3253 2941 3253 2259 
Q 3253 1453 3087 958 
Q 2922 463 2592 192 
Q 2263 -78 1759 -78 
Q 1097 -78 719 397 
Q 266 969 266 2259 
z
M 844 2259 
Q 844 1131 1108 757 
Q 1372 384 1759 384 
Q 2147 384 2411 759 
Q 2675 1134 2675 2259 
Q 2675 3391 2411 3762 
Q 2147 4134 1753 4134 
Q 1366 4134 1134 3806 
Q 844 3388 844 2259 
z
" transform="scale(0.015625)"/>
        <path id="ArialMT-2e" d="M 581 0 
L 581 641 
L 1222 641 
L 1222 0 
L 581 0 
z
" transform="scale(0.015625)"/>
       </defs>
       <use xlink:href="#ArialMT-30"/>
       <use xlink:href="#ArialMT-2e" transform="translate(55.615234 0)"/>
       <use xlink:href="#ArialMT-30" transform="translate(83.398438 0)"/>
      </g>
     </g>
    </g>
    <g id="xtick_2">
     <g id="line2d_3">
      <path d="M 90.670111 265.022801 
L 90.670111 19.642031 
" clip-path="url(#p86cc1b160a)" style="fill: none; stroke: #c0c0c0; stroke-width: 0.25; stroke-linecap: round"/>
     </g>
     <g id="line2d_4"/>
     <g id="text_2">
      <!-- 0.2 -->
      <g style="fill: #333333" transform="translate(84.415111 274.964832) scale(0.09 -0.09)">
       <defs>
        <path id="ArialMT-32" d="M 3222 541 
L 3222 0 
L 194 0 
Q 188 203 259 391 
Q 375 700 629 1000 
Q 884 1300 1366 1694 
Q 2113 2306 2375 2664 
Q 2638 3022 2638 3341 
Q 2638 3675 2398 3904 
Q 2159 4134 1775 4134 
Q 1369 4134 1125 3890 
Q 881 3647 878 3216 
L 300 3275 
Q 359 3922 746 4261 
Q 1134 4600 1788 4600 
Q 2447 4600 2831 4234 
Q 3216 3869 3216 3328 
Q 3216 3053 3103 2787 
Q 2991 2522 2730 2228 
Q 2469 1934 1863 1422 
Q 1356 997 1212 845 
Q 1069 694 975 541 
L 3222 541 
z
" transform="scale(0.015625)"/>
       </defs>
       <use xlink:href="#ArialMT-30"/>
       <use xlink:href="#ArialMT-2e" transform="translate(55.615234 0)"/>
       <use xlink:href="#ArialMT-32" transform="translate(83.398438 0)"/>
      </g>
     </g>
    </g>
    <g id="xtick_3">
     <g id="line2d_5">
      <path d="M 138.508523 265.022801 
L 138.508523 19.642031 
" clip-path="url(#p86cc1b160a)" style="fill: none; stroke: #c0c0c0; stroke-width: 0.25; stroke-linecap: round"/>
     </g>
     <g id="line2d_6"/>
     <g id="text_3">
      <!-- 0.4 -->
      <g style="fill: #333333" transform="translate(132.253523 274.964832) scale(0.09 -0.09)">
       <defs>
        <path id="ArialMT-34" d="M 2069 0 
L 2069 1097 
L 81 1097 
L 81 1613 
L 2172 4581 
L 2631 4581 
L 2631 1613 
L 3250 1613 
L 3250 1097 
L 2631 1097 
L 2631 0 
L 2069 0 
z
M 2069 1613 
L 2069 3678 
L 634 1613 
L 2069 1613 
z
" transform="scale(0.015625)"/>
       </defs>
       <use xlink:href="#ArialMT-30"/>
       <use xlink:href="#ArialMT-2e" transform="translate(55.615234 0)"/>
       <use xlink:href="#ArialMT-34" transform="translate(83.398438 0)"/>
      </g>
     </g>
    </g>
    <g id="xtick_4">
     <g id="line2d_7">
      <path d="M 186.346935 265.022801 
L 186.346935 19.642031 
" clip-path="url(#p86cc1b160a)" style="fill: none; stroke: #c0c0c0; stroke-width: 0.25; stroke-linecap: round"/>
     </g>
     <g id="line2d_8"/>
     <g id="text_4">
      <!-- 0.6 -->
      <g style="fill: #333333" transform="translate(180.091935 274.964832) scale(0.09 -0.09)">
       <defs>
        <path id="ArialMT-36" d="M 3184 3459 
L 2625 3416 
Q 2550 3747 2413 3897 
Q 2184 4138 1850 4138 
Q 1581 4138 1378 3988 
Q 1113 3794 959 3422 
Q 806 3050 800 2363 
Q 1003 2672 1297 2822 
Q 1591 2972 1913 2972 
Q 2475 2972 2870 2558 
Q 3266 2144 3266 1488 
Q 3266 1056 3080 686 
Q 2894 316 2569 119 
Q 2244 -78 1831 -78 
Q 1128 -78 684 439 
Q 241 956 241 2144 
Q 241 3472 731 4075 
Q 1159 4600 1884 4600 
Q 2425 4600 2770 4297 
Q 3116 3994 3184 3459 
z
M 888 1484 
Q 888 1194 1011 928 
Q 1134 663 1356 523 
Q 1578 384 1822 384 
Q 2178 384 2434 671 
Q 2691 959 2691 1453 
Q 2691 1928 2437 2201 
Q 2184 2475 1800 2475 
Q 1419 2475 1153 2201 
Q 888 1928 888 1484 
z
" transform="scale(0.015625)"/>
       </defs>
       <use xlink:href="#ArialMT-30"/>
       <use xlink:href="#ArialMT-2e" transform="translate(55.615234 0)"/>
       <use xlink:href="#ArialMT-36" transform="translate(83.398438 0)"/>
      </g>
     </g>
    </g>
    <g id="xtick_5">
     <g id="line2d_9">
      <path d="M 234.185346 265.022801 
L 234.185346 19.642031 
" clip-path="url(#p86cc1b160a)" style="fill: none; stroke: #c0c0c0; stroke-width: 0.25; stroke-linecap: round"/>
     </g>
     <g id="line2d_10"/>
     <g id="text_5">
      <!-- 0.8 -->
      <g style="fill: #333333" transform="translate(227.930346 274.964832) scale(0.09 -0.09)">
       <defs>
        <path id="ArialMT-38" d="M 1131 2484 
Q 781 2613 612 2850 
Q 444 3088 444 3419 
Q 444 3919 803 4259 
Q 1163 4600 1759 4600 
Q 2359 4600 2725 4251 
Q 3091 3903 3091 3403 
Q 3091 3084 2923 2848 
Q 2756 2613 2416 2484 
Q 2838 2347 3058 2040 
Q 3278 1734 3278 1309 
Q 3278 722 2862 322 
Q 2447 -78 1769 -78 
Q 1091 -78 675 323 
Q 259 725 259 1325 
Q 259 1772 486 2073 
Q 713 2375 1131 2484 
z
M 1019 3438 
Q 1019 3113 1228 2906 
Q 1438 2700 1772 2700 
Q 2097 2700 2305 2904 
Q 2513 3109 2513 3406 
Q 2513 3716 2298 3927 
Q 2084 4138 1766 4138 
Q 1444 4138 1231 3931 
Q 1019 3725 1019 3438 
z
M 838 1322 
Q 838 1081 952 856 
Q 1066 631 1291 507 
Q 1516 384 1775 384 
Q 2178 384 2440 643 
Q 2703 903 2703 1303 
Q 2703 1709 2433 1975 
Q 2163 2241 1756 2241 
Q 1359 2241 1098 1978 
Q 838 1716 838 1322 
z
" transform="scale(0.015625)"/>
       </defs>
       <use xlink:href="#ArialMT-30"/>
       <use xlink:href="#ArialMT-2e" transform="translate(55.615234 0)"/>
       <use xlink:href="#ArialMT-38" transform="translate(83.398438 0)"/>
      </g>
     </g>
    </g>
    <g id="xtick_6">
     <g id="line2d_11">
      <path d="M 282.023758 265.022801 
L 282.023758 19.642031 
" clip-path="url(#p86cc1b160a)" style="fill: none; stroke: #c0c0c0; stroke-width: 0.25; stroke-linecap: round"/>
     </g>
     <g id="line2d_12"/>
     <g id="text_6">
      <!-- 1.0 -->
      <g style="fill: #333333" transform="translate(275.768758 274.964832) scale(0.09 -0.09)">
       <defs>
        <path id="ArialMT-31" d="M 2384 0 
L 1822 0 
L 1822 3584 
Q 1619 3391 1289 3197 
Q 959 3003 697 2906 
L 697 3450 
Q 1169 3672 1522 3987 
Q 1875 4303 2022 4600 
L 2384 4600 
L 2384 0 
z
" transform="scale(0.015625)"/>
       </defs>
       <use xlink:href="#ArialMT-31"/>
       <use xlink:href="#ArialMT-2e" transform="translate(55.615234 0)"/>
       <use xlink:href="#ArialMT-30" transform="translate(83.398438 0)"/>
      </g>
     </g>
    </g>
    <g id="text_7">
     <!-- Recall [TP / (TP + FN)] -->
     <g style="fill: #333333" transform="translate(115.706479 287.305301) scale(0.09 -0.09)">
      <defs>
       <path id="Arial-BoldMT-52" d="M 469 0 
L 469 4581 
L 2416 4581 
Q 3150 4581 3483 4457 
Q 3816 4334 4016 4018 
Q 4216 3703 4216 3297 
Q 4216 2781 3912 2445 
Q 3609 2109 3006 2022 
Q 3306 1847 3501 1637 
Q 3697 1428 4028 894 
L 4588 0 
L 3481 0 
L 2813 997 
Q 2456 1531 2325 1670 
Q 2194 1809 2047 1861 
Q 1900 1913 1581 1913 
L 1394 1913 
L 1394 0 
L 469 0 
z
M 1394 2644 
L 2078 2644 
Q 2744 2644 2909 2700 
Q 3075 2756 3169 2893 
Q 3263 3031 3263 3238 
Q 3263 3469 3139 3611 
Q 3016 3753 2791 3791 
Q 2678 3806 2116 3806 
L 1394 3806 
L 1394 2644 
z
" transform="scale(0.015625)"/>
       <path id="Arial-BoldMT-65" d="M 2381 1056 
L 3256 909 
Q 3088 428 2723 176 
Q 2359 -75 1813 -75 
Q 947 -75 531 491 
Q 203 944 203 1634 
Q 203 2459 634 2926 
Q 1066 3394 1725 3394 
Q 2466 3394 2894 2905 
Q 3322 2416 3303 1406 
L 1103 1406 
Q 1113 1016 1316 798 
Q 1519 581 1822 581 
Q 2028 581 2168 693 
Q 2309 806 2381 1056 
z
M 2431 1944 
Q 2422 2325 2234 2523 
Q 2047 2722 1778 2722 
Q 1491 2722 1303 2513 
Q 1116 2303 1119 1944 
L 2431 1944 
z
" transform="scale(0.015625)"/>
       <path id="Arial-BoldMT-63" d="M 3353 2338 
L 2488 2181 
Q 2444 2441 2289 2572 
Q 2134 2703 1888 2703 
Q 1559 2703 1364 2476 
Q 1169 2250 1169 1719 
Q 1169 1128 1367 884 
Q 1566 641 1900 641 
Q 2150 641 2309 783 
Q 2469 925 2534 1272 
L 3397 1125 
Q 3263 531 2881 228 
Q 2500 -75 1859 -75 
Q 1131 -75 698 384 
Q 266 844 266 1656 
Q 266 2478 700 2936 
Q 1134 3394 1875 3394 
Q 2481 3394 2839 3133 
Q 3197 2872 3353 2338 
z
" transform="scale(0.015625)"/>
       <path id="Arial-BoldMT-61" d="M 1116 2306 
L 319 2450 
Q 453 2931 781 3162 
Q 1109 3394 1756 3394 
Q 2344 3394 2631 3255 
Q 2919 3116 3036 2902 
Q 3153 2688 3153 2116 
L 3144 1091 
Q 3144 653 3186 445 
Q 3228 238 3344 0 
L 2475 0 
Q 2441 88 2391 259 
Q 2369 338 2359 363 
Q 2134 144 1878 34 
Q 1622 -75 1331 -75 
Q 819 -75 523 203 
Q 228 481 228 906 
Q 228 1188 362 1408 
Q 497 1628 739 1745 
Q 981 1863 1438 1950 
Q 2053 2066 2291 2166 
L 2291 2253 
Q 2291 2506 2166 2614 
Q 2041 2722 1694 2722 
Q 1459 2722 1328 2630 
Q 1197 2538 1116 2306 
z
M 2291 1594 
Q 2122 1538 1756 1459 
Q 1391 1381 1278 1306 
Q 1106 1184 1106 997 
Q 1106 813 1243 678 
Q 1381 544 1594 544 
Q 1831 544 2047 700 
Q 2206 819 2256 991 
Q 2291 1103 2291 1419 
L 2291 1594 
z
" transform="scale(0.015625)"/>
       <path id="Arial-BoldMT-6c" d="M 459 0 
L 459 4581 
L 1338 4581 
L 1338 0 
L 459 0 
z
" transform="scale(0.015625)"/>
       <path id="Arial-BoldMT-20" transform="scale(0.015625)"/>
       <path id="Arial-BoldMT-5b" d="M 456 -1291 
L 456 4581 
L 2013 4581 
L 2013 3891 
L 1291 3891 
L 1291 -600 
L 2013 -600 
L 2013 -1291 
L 456 -1291 
z
" transform="scale(0.015625)"/>
       <path id="Arial-BoldMT-54" d="M 1497 0 
L 1497 3806 
L 138 3806 
L 138 4581 
L 3778 4581 
L 3778 3806 
L 2422 3806 
L 2422 0 
L 1497 0 
z
" transform="scale(0.015625)"/>
       <path id="Arial-BoldMT-50" d="M 466 0 
L 466 4581 
L 1950 4581 
Q 2794 4581 3050 4513 
Q 3444 4409 3709 4064 
Q 3975 3719 3975 3172 
Q 3975 2750 3822 2462 
Q 3669 2175 3433 2011 
Q 3197 1847 2953 1794 
Q 2622 1728 1994 1728 
L 1391 1728 
L 1391 0 
L 466 0 
z
M 1391 3806 
L 1391 2506 
L 1897 2506 
Q 2444 2506 2628 2578 
Q 2813 2650 2917 2803 
Q 3022 2956 3022 3159 
Q 3022 3409 2875 3571 
Q 2728 3734 2503 3775 
Q 2338 3806 1838 3806 
L 1391 3806 
z
" transform="scale(0.015625)"/>
       <path id="Arial-BoldMT-2f" d="M -9 -78 
L 1125 4659 
L 1784 4659 
L 638 -78 
L -9 -78 
z
" transform="scale(0.015625)"/>
       <path id="Arial-BoldMT-28" d="M 1916 -1347 
L 1313 -1347 
Q 834 -625 584 153 
Q 334 931 334 1659 
Q 334 2563 644 3369 
Q 913 4069 1325 4659 
L 1925 4659 
Q 1497 3713 1336 3048 
Q 1175 2384 1175 1641 
Q 1175 1128 1270 590 
Q 1366 53 1531 -431 
Q 1641 -750 1916 -1347 
z
" transform="scale(0.015625)"/>
       <path id="Arial-BoldMT-2b" d="M 1466 659 
L 1466 1850 
L 266 1850 
L 266 2672 
L 1466 2672 
L 1466 3863 
L 2266 3863 
L 2266 2672 
L 3469 2672 
L 3469 1850 
L 2266 1850 
L 2266 659 
L 1466 659 
z
" transform="scale(0.015625)"/>
       <path id="Arial-BoldMT-46" d="M 472 0 
L 472 4581 
L 3613 4581 
L 3613 3806 
L 1397 3806 
L 1397 2722 
L 3309 2722 
L 3309 1947 
L 1397 1947 
L 1397 0 
L 472 0 
z
" transform="scale(0.015625)"/>
       <path id="Arial-BoldMT-4e" d="M 475 0 
L 475 4581 
L 1375 4581 
L 3250 1522 
L 3250 4581 
L 4109 4581 
L 4109 0 
L 3181 0 
L 1334 2988 
L 1334 0 
L 475 0 
z
" transform="scale(0.015625)"/>
       <path id="Arial-BoldMT-29" d="M 216 -1347 
Q 475 -791 581 -494 
Q 688 -197 778 190 
Q 869 578 912 926 
Q 956 1275 956 1641 
Q 956 2384 797 3048 
Q 638 3713 209 4659 
L 806 4659 
Q 1278 3988 1539 3234 
Q 1800 2481 1800 1706 
Q 1800 1053 1594 306 
Q 1359 -531 822 -1347 
L 216 -1347 
z
" transform="scale(0.015625)"/>
       <path id="Arial-BoldMT-5d" d="M 1675 4581 
L 1675 -1291 
L 119 -1291 
L 119 -600 
L 841 -600 
L 841 3897 
L 119 3897 
L 119 4581 
L 1675 4581 
z
" transform="scale(0.015625)"/>
      </defs>
      <use xlink:href="#Arial-BoldMT-52"/>
      <use xlink:href="#Arial-BoldMT-65" transform="translate(72.216797 0)"/>
      <use xlink:href="#Arial-BoldMT-63" transform="translate(127.832031 0)"/>
      <use xlink:href="#Arial-BoldMT-61" transform="translate(183.447266 0)"/>
      <use xlink:href="#Arial-BoldMT-6c" transform="translate(239.0625 0)"/>
      <use xlink:href="#Arial-BoldMT-6c" transform="translate(266.845703 0)"/>
      <use xlink:href="#Arial-BoldMT-20" transform="translate(294.628906 0)"/>
      <use xlink:href="#Arial-BoldMT-5b" transform="translate(322.412109 0)"/>
      <use xlink:href="#Arial-BoldMT-54" transform="translate(355.712891 0)"/>
      <use xlink:href="#Arial-BoldMT-50" transform="translate(416.796875 0)"/>
      <use xlink:href="#Arial-BoldMT-20" transform="translate(481.746094 0)"/>
      <use xlink:href="#Arial-BoldMT-2f" transform="translate(509.529297 0)"/>
      <use xlink:href="#Arial-BoldMT-20" transform="translate(537.3125 0)"/>
      <use xlink:href="#Arial-BoldMT-28" transform="translate(565.095703 0)"/>
      <use xlink:href="#Arial-BoldMT-54" transform="translate(598.396484 0)"/>
      <use xlink:href="#Arial-BoldMT-50" transform="translate(659.480469 0)"/>
      <use xlink:href="#Arial-BoldMT-20" transform="translate(724.429688 0)"/>
      <use xlink:href="#Arial-BoldMT-2b" transform="translate(752.212891 0)"/>
      <use xlink:href="#Arial-BoldMT-20" transform="translate(810.611328 0)"/>
      <use xlink:href="#Arial-BoldMT-46" transform="translate(838.394531 0)"/>
      <use xlink:href="#Arial-BoldMT-4e" transform="translate(899.478516 0)"/>
      <use xlink:href="#Arial-BoldMT-29" transform="translate(971.695312 0)"/>
      <use xlink:href="#Arial-BoldMT-5d" transform="translate(1004.996094 0)"/>
     </g>
    </g>
   </g>
   <g id="matplotlib.axis_2">
    <g id="ytick_1">
     <g id="line2d_13">
      <path d="M 35.655938 265.022801 
L 289.19952 265.022801 
" clip-path="url(#p86cc1b160a)" style="fill: none; stroke: #c0c0c0; stroke-width: 0.25; stroke-linecap: round"/>
     </g>
     <g id="line2d_14"/>
     <g id="text_8">
      <!-- 0.0 -->
      <g style="fill: #333333" transform="translate(19.645938 268.243817) scale(0.09 -0.09)">
       <use xlink:href="#ArialMT-30"/>
       <use xlink:href="#ArialMT-2e" transform="translate(55.615234 0)"/>
       <use xlink:href="#ArialMT-30" transform="translate(83.398438 0)"/>
      </g>
     </g>
    </g>
    <g id="ytick_2">
     <g id="line2d_15">
      <path d="M 35.655938 217.37605 
L 289.19952 217.37605 
" clip-path="url(#p86cc1b160a)" style="fill: none; stroke: #c0c0c0; stroke-width: 0.25; stroke-linecap: round"/>
     </g>
     <g id="line2d_16"/>
     <g id="text_9">
      <!-- 0.2 -->
      <g style="fill: #333333" transform="translate(19.645938 220.597065) scale(0.09 -0.09)">
       <use xlink:href="#ArialMT-30"/>
       <use xlink:href="#ArialMT-2e" transform="translate(55.615234 0)"/>
       <use xlink:href="#ArialMT-32" transform="translate(83.398438 0)"/>
      </g>
     </g>
    </g>
    <g id="ytick_3">
     <g id="line2d_17">
      <path d="M 35.655938 169.729298 
L 289.19952 169.729298 
" clip-path="url(#p86cc1b160a)" style="fill: none; stroke: #c0c0c0; stroke-width: 0.25; stroke-linecap: round"/>
     </g>
     <g id="line2d_18"/>
     <g id="text_10">
      <!-- 0.4 -->
      <g style="fill: #333333" transform="translate(19.645938 172.950314) scale(0.09 -0.09)">
       <use xlink:href="#ArialMT-30"/>
       <use xlink:href="#ArialMT-2e" transform="translate(55.615234 0)"/>
       <use xlink:href="#ArialMT-34" transform="translate(83.398438 0)"/>
      </g>
     </g>
    </g>
    <g id="ytick_4">
     <g id="line2d_19">
      <path d="M 35.655938 122.082547 
L 289.19952 122.082547 
" clip-path="url(#p86cc1b160a)" style="fill: none; stroke: #c0c0c0; stroke-width: 0.25; stroke-linecap: round"/>
     </g>
     <g id="line2d_20"/>
     <g id="text_11">
      <!-- 0.6 -->
      <g style="fill: #333333" transform="translate(19.645938 125.303563) scale(0.09 -0.09)">
       <use xlink:href="#ArialMT-30"/>
       <use xlink:href="#ArialMT-2e" transform="translate(55.615234 0)"/>
       <use xlink:href="#ArialMT-36" transform="translate(83.398438 0)"/>
      </g>
     </g>
    </g>
    <g id="ytick_5">
     <g id="line2d_21">
      <path d="M 35.655938 74.435795 
L 289.19952 74.435795 
" clip-path="url(#p86cc1b160a)" style="fill: none; stroke: #c0c0c0; stroke-width: 0.25; stroke-linecap: round"/>
     </g>
     <g id="line2d_22"/>
     <g id="text_12">
      <!-- 0.8 -->
      <g style="fill: #333333" transform="translate(19.645938 77.656811) scale(0.09 -0.09)">
       <use xlink:href="#ArialMT-30"/>
       <use xlink:href="#ArialMT-2e" transform="translate(55.615234 0)"/>
       <use xlink:href="#ArialMT-38" transform="translate(83.398438 0)"/>
      </g>
     </g>
    </g>
    <g id="ytick_6">
     <g id="line2d_23">
      <path d="M 35.655938 26.789044 
L 289.19952 26.789044 
" clip-path="url(#p86cc1b160a)" style="fill: none; stroke: #c0c0c0; stroke-width: 0.25; stroke-linecap: round"/>
     </g>
     <g id="line2d_24"/>
     <g id="text_13">
      <!-- 1.0 -->
      <g style="fill: #333333" transform="translate(19.645938 30.01006) scale(0.09 -0.09)">
       <use xlink:href="#ArialMT-31"/>
       <use xlink:href="#ArialMT-2e" transform="translate(55.615234 0)"/>
       <use xlink:href="#ArialMT-30" transform="translate(83.398438 0)"/>
      </g>
     </g>
    </g>
    <g id="text_14">
     <!-- Precision [TP / (TP + FP)] -->
     <g style="fill: #333333" transform="translate(13.751719 195.805776) rotate(-90) scale(0.09 -0.09)">
      <defs>
       <path id="Arial-BoldMT-72" d="M 1300 0 
L 422 0 
L 422 3319 
L 1238 3319 
L 1238 2847 
Q 1447 3181 1614 3287 
Q 1781 3394 1994 3394 
Q 2294 3394 2572 3228 
L 2300 2463 
Q 2078 2606 1888 2606 
Q 1703 2606 1575 2504 
Q 1447 2403 1373 2137 
Q 1300 1872 1300 1025 
L 1300 0 
z
" transform="scale(0.015625)"/>
       <path id="Arial-BoldMT-69" d="M 459 3769 
L 459 4581 
L 1338 4581 
L 1338 3769 
L 459 3769 
z
M 459 0 
L 459 3319 
L 1338 3319 
L 1338 0 
L 459 0 
z
" transform="scale(0.015625)"/>
       <path id="Arial-BoldMT-73" d="M 150 947 
L 1031 1081 
Q 1088 825 1259 692 
Q 1431 559 1741 559 
Q 2081 559 2253 684 
Q 2369 772 2369 919 
Q 2369 1019 2306 1084 
Q 2241 1147 2013 1200 
Q 950 1434 666 1628 
Q 272 1897 272 2375 
Q 272 2806 612 3100 
Q 953 3394 1669 3394 
Q 2350 3394 2681 3172 
Q 3013 2950 3138 2516 
L 2309 2363 
Q 2256 2556 2107 2659 
Q 1959 2763 1684 2763 
Q 1338 2763 1188 2666 
Q 1088 2597 1088 2488 
Q 1088 2394 1175 2328 
Q 1294 2241 1995 2081 
Q 2697 1922 2975 1691 
Q 3250 1456 3250 1038 
Q 3250 581 2869 253 
Q 2488 -75 1741 -75 
Q 1063 -75 667 200 
Q 272 475 150 947 
z
" transform="scale(0.015625)"/>
       <path id="Arial-BoldMT-6f" d="M 256 1706 
Q 256 2144 472 2553 
Q 688 2963 1083 3178 
Q 1478 3394 1966 3394 
Q 2719 3394 3200 2905 
Q 3681 2416 3681 1669 
Q 3681 916 3195 420 
Q 2709 -75 1972 -75 
Q 1516 -75 1102 131 
Q 688 338 472 736 
Q 256 1134 256 1706 
z
M 1156 1659 
Q 1156 1166 1390 903 
Q 1625 641 1969 641 
Q 2313 641 2545 903 
Q 2778 1166 2778 1666 
Q 2778 2153 2545 2415 
Q 2313 2678 1969 2678 
Q 1625 2678 1390 2415 
Q 1156 2153 1156 1659 
z
" transform="scale(0.015625)"/>
       <path id="Arial-BoldMT-6e" d="M 3478 0 
L 2600 0 
L 2600 1694 
Q 2600 2231 2544 2389 
Q 2488 2547 2361 2634 
Q 2234 2722 2056 2722 
Q 1828 2722 1647 2597 
Q 1466 2472 1398 2265 
Q 1331 2059 1331 1503 
L 1331 0 
L 453 0 
L 453 3319 
L 1269 3319 
L 1269 2831 
Q 1703 3394 2363 3394 
Q 2653 3394 2893 3289 
Q 3134 3184 3257 3021 
Q 3381 2859 3429 2653 
Q 3478 2447 3478 2063 
L 3478 0 
z
" transform="scale(0.015625)"/>
      </defs>
      <use xlink:href="#Arial-BoldMT-50"/>
      <use xlink:href="#Arial-BoldMT-72" transform="translate(66.699219 0)"/>
      <use xlink:href="#Arial-BoldMT-65" transform="translate(105.615234 0)"/>
      <use xlink:href="#Arial-BoldMT-63" transform="translate(161.230469 0)"/>
      <use xlink:href="#Arial-BoldMT-69" transform="translate(216.845703 0)"/>
      <use xlink:href="#Arial-BoldMT-73" transform="translate(244.628906 0)"/>
      <use xlink:href="#Arial-BoldMT-69" transform="translate(300.244141 0)"/>
      <use xlink:href="#Arial-BoldMT-6f" transform="translate(328.027344 0)"/>
      <use xlink:href="#Arial-BoldMT-6e" transform="translate(389.111328 0)"/>
      <use xlink:href="#Arial-BoldMT-20" transform="translate(450.195312 0)"/>
      <use xlink:href="#Arial-BoldMT-5b" transform="translate(477.978516 0)"/>
      <use xlink:href="#Arial-BoldMT-54" transform="translate(511.279297 0)"/>
      <use xlink:href="#Arial-BoldMT-50" transform="translate(572.363281 0)"/>
      <use xlink:href="#Arial-BoldMT-20" transform="translate(637.3125 0)"/>
      <use xlink:href="#Arial-BoldMT-2f" transform="translate(665.095703 0)"/>
      <use xlink:href="#Arial-BoldMT-20" transform="translate(692.878906 0)"/>
      <use xlink:href="#Arial-BoldMT-28" transform="translate(720.662109 0)"/>
      <use xlink:href="#Arial-BoldMT-54" transform="translate(753.962891 0)"/>
      <use xlink:href="#Arial-BoldMT-50" transform="translate(815.046875 0)"/>
      <use xlink:href="#Arial-BoldMT-20" transform="translate(879.996094 0)"/>
      <use xlink:href="#Arial-BoldMT-2b" transform="translate(907.779297 0)"/>
      <use xlink:href="#Arial-BoldMT-20" transform="translate(966.177734 0)"/>
      <use xlink:href="#Arial-BoldMT-46" transform="translate(993.960938 0)"/>
      <use xlink:href="#Arial-BoldMT-50" transform="translate(1055.044922 0)"/>
      <use xlink:href="#Arial-BoldMT-29" transform="translate(1121.744141 0)"/>
      <use xlink:href="#Arial-BoldMT-5d" transform="translate(1155.044922 0)"/>
     </g>
    </g>
   </g>
   <g id="line2d_25">
    <path d="M 42.831699 265.022801 
L 42.831813 264.96929 
L 42.942163 242.815477 
L 42.943987 242.708453 
L 43.054565 233.343919 
L 43.056617 233.236896 
L 43.167195 226.654966 
L 43.170102 226.547942 
L 43.279968 220.661664 
L 43.284214 220.55464 
L 43.395305 216.220199 
L 43.400264 216.113175 
L 43.511298 212.741943 
L 43.513635 212.63492 
L 43.621221 210.33392 
L 43.627861 210.226897 
L 43.736928 207.765362 
L 43.747245 207.658339 
L 43.852836 204.929246 
L 43.862839 204.822222 
L 43.972135 202.735269 
L 43.981568 202.628246 
L 44.089068 200.059688 
L 44.094797 199.952664 
L 44.204634 197.384106 
L 44.214665 197.277083 
L 44.313502 195.832269 
L 44.332511 195.725246 
L 44.441407 194.119897 
L 44.44725 194.012874 
L 44.554664 192.514549 
L 44.56994 192.407525 
L 44.671256 191.123246 
L 44.683624 191.016223 
L 44.791922 189.250339 
L 44.811901 189.143316 
L 44.92094 187.912549 
L 44.942827 187.805525 
L 45.050498 186.146665 
L 45.06908 186.039642 
L 45.175953 184.701851 
L 45.182023 184.594828 
L 45.289894 183.096502 
L 45.308305 182.989479 
L 45.412527 181.330619 
L 45.447097 181.223596 
L 45.552232 180.206875 
L 45.55816 180.206875 
L 45.575972 180.099851 
L 45.685467 178.708549 
L 45.704676 178.601526 
L 45.814655 177.531293 
L 45.826568 177.42427 
L 45.93441 175.925945 
L 45.953419 175.818921 
L 46.056673 174.160061 
L 46.068357 174.053038 
L 46.177795 173.14334 
L 46.187115 173.036317 
L 46.291993 171.805549 
L 46.307924 171.698526 
L 46.414683 170.360736 
L 46.426283 170.253712 
L 46.535778 169.344015 
L 46.550455 169.236991 
L 46.653509 168.434317 
L 46.680783 168.327294 
L 46.783951 167.364084 
L 46.809772 167.257061 
L 46.90761 166.133317 
L 46.947624 166.026294 
L 47.057518 165.116596 
L 47.070599 165.009573 
L 47.174879 164.58148 
L 47.198704 164.474457 
L 47.303383 163.618271 
L 47.334476 163.511247 
L 47.443401 162.494527 
L 47.474864 162.387503 
L 47.584673 160.942689 
L 47.593536 160.835666 
L 47.703687 159.497876 
L 47.712863 159.390852 
L 47.822529 158.534666 
L 47.833844 158.427643 
L 47.936755 157.624969 
L 47.976199 157.517945 
L 48.067283 156.661759 
L 48.095298 156.554736 
L 48.206389 155.591527 
L 48.22574 155.484504 
L 48.326913 154.949387 
L 48.35299 154.842364 
L 48.462172 153.39755 
L 48.502698 153.290527 
L 48.61225 152.273806 
L 48.649527 152.166783 
L 48.755432 151.41762 
L 48.781794 151.310597 
L 48.891773 150.293876 
L 48.911751 150.186853 
L 49.016829 149.705248 
L 49.061858 149.598225 
L 49.166993 148.849062 
L 49.246335 148.742039 
L 49.337448 148.153411 
L 49.363867 148.046388 
L 49.473391 147.404248 
L 49.474474 147.404248 
L 49.484306 147.297225 
L 49.593145 146.655085 
L 49.628314 146.548062 
L 49.739319 145.745388 
L 49.772293 145.638364 
L 49.867254 144.996225 
L 49.900769 144.889202 
L 50.011005 144.033016 
L 50.041243 143.925992 
L 50.143328 143.283853 
L 50.187445 143.17683 
L 50.297681 142.588202 
L 50.326095 142.481179 
L 50.42724 141.785527 
L 50.463235 141.678504 
L 50.566659 141.089876 
L 50.582904 140.982853 
L 50.678976 140.715295 
L 50.687298 140.715295 
L 50.709043 140.608272 
L 50.81925 140.073155 
L 50.88953 139.966132 
L 50.996916 139.270481 
L 51.047902 139.163458 
L 51.150642 138.414295 
L 51.195387 138.307272 
L 51.303799 137.718644 
L 51.348001 137.611621 
L 51.452395 137.076504 
L 51.476107 136.969481 
L 51.540002 136.755435 
L 51.583407 136.755435 
L 51.607746 136.648411 
L 51.675916 136.327342 
L 51.70168 136.327342 
L 51.736221 136.220318 
L 51.841185 135.685202 
L 51.927823 135.578179 
L 51.993885 134.989551 
L 52.08648 134.882528 
L 52.186998 134.561458 
L 52.209284 134.454435 
L 52.319492 133.919318 
L 52.346395 133.812295 
L 52.447255 133.277179 
L 52.493424 133.170156 
L 52.594939 132.474505 
L 52.603746 132.474505 
L 52.671603 132.367481 
L 52.772263 132.099923 
L 52.827039 131.9929 
L 52.922883 131.618319 
L 52.950898 131.511295 
L 53.037194 130.922667 
L 53.127737 130.815644 
L 53.224807 130.119993 
L 53.299561 130.01297 
L 53.404895 129.37083 
L 53.430031 129.263807 
L 53.531689 128.675179 
L 53.56073 128.568156 
L 53.666349 127.818993 
L 53.736258 127.71197 
L 53.831703 127.176854 
L 53.915264 127.06983 
L 54.016123 126.534714 
L 54.102591 126.427691 
L 54.198634 125.839063 
L 54.235598 125.73204 
L 54.337256 125.357458 
L 54.37117 125.250435 
L 54.475849 124.661807 
L 54.548351 124.554784 
L 54.646931 123.859133 
L 54.686973 123.75211 
L 54.756397 123.43104 
L 54.768595 123.43104 
L 54.812541 123.324017 
L 54.909012 122.949435 
L 54.929817 122.842412 
L 55.026658 122.414319 
L 55.028083 122.414319 
L 55.061427 122.307296 
L 55.16642 121.825691 
L 55.193751 121.718668 
L 55.296206 121.183552 
L 55.406613 121.076528 
L 55.488834 120.594924 
L 55.58217 120.4879 
L 55.660515 120.166831 
L 55.736808 120.059807 
L 55.837839 119.792249 
L 55.91 119.685226 
L 55.994558 119.15011 
L 56.001711 119.15011 
L 56.05757 119.043087 
L 56.163759 118.668505 
L 56.239539 118.561482 
L 56.337321 118.240412 
L 56.363512 118.133389 
L 56.471497 117.384226 
L 56.50353 117.277203 
L 56.591707 116.742087 
L 56.686525 116.635063 
L 56.794681 116.260482 
L 56.850027 116.153459 
L 56.955304 115.564831 
L 57.025071 115.457808 
L 57.132742 115.083226 
L 57.163464 114.976203 
L 57.25546 114.494598 
L 57.260647 114.494598 
L 57.347058 114.387575 
L 57.45034 113.90597 
L 57.500898 113.798947 
L 57.585257 113.531389 
L 57.600276 113.531389 
L 57.661151 113.424366 
L 57.765174 112.782226 
L 57.839586 112.675203 
L 57.929302 112.24711 
L 57.968803 112.140087 
L 58.059545 111.872529 
L 58.09896 111.765505 
L 58.205833 111.390924 
L 58.293412 111.283901 
L 58.395582 110.748785 
L 58.422714 110.641761 
L 58.496955 110.26718 
L 58.581941 110.160157 
L 58.691464 109.785575 
L 58.784572 109.678552 
L 58.890334 109.410994 
L 58.994186 109.303971 
L 59.0961 108.822366 
L 59.149707 108.715343 
L 59.252248 108.501296 
L 59.324495 108.394273 
L 59.424927 108.019692 
L 59.457758 107.912668 
L 59.541091 107.538087 
L 59.560385 107.538087 
L 59.586889 107.431064 
L 59.682049 106.895948 
L 59.687151 106.895948 
L 59.838796 106.788924 
L 59.921017 106.200296 
L 59.941936 106.200296 
L 60.035899 106.093273 
L 60.13046 105.932738 
L 60.17643 105.825715 
L 60.278515 105.504645 
L 60.394679 105.397622 
L 60.477014 105.023041 
L 60.498674 105.023041 
L 60.545128 104.916017 
L 60.61592 104.434413 
L 60.7939 104.327389 
L 60.895557 104.00632 
L 60.90063 104.00632 
L 60.929728 103.899296 
L 60.983963 103.631738 
L 61.000834 103.631738 
L 61.10272 103.524715 
L 61.206544 103.257157 
L 61.406981 103.150134 
L 61.487292 102.829064 
L 61.641189 102.722041 
L 61.712324 102.400971 
L 61.73424 102.400971 
L 61.865737 102.293948 
L 61.942885 102.133413 
L 62.126365 102.02639 
L 62.227053 101.651808 
L 62.324493 101.544785 
L 62.431908 101.277227 
L 62.465822 101.170204 
L 62.552404 101.009669 
L 62.697608 100.902645 
L 62.796188 100.421041 
L 62.799067 100.421041 
L 62.876927 100.314018 
L 62.923182 100.099971 
L 62.971716 100.099971 
L 63.203189 99.992948 
L 63.307896 99.618366 
L 63.312513 99.618366 
L 63.428364 99.511343 
L 63.536263 99.08325 
L 63.702956 98.976227 
L 63.788626 98.869204 
L 63.811767 98.869204 
L 63.887519 98.76218 
L 63.99747 98.548134 
L 64.044665 98.441111 
L 64.155728 97.959506 
L 64.25653 97.852483 
L 64.362377 97.691948 
L 64.488231 97.584925 
L 64.594278 97.317367 
L 64.704485 97.210343 
L 64.769578 97.049808 
L 64.917604 96.942785 
L 65.015842 96.675227 
L 65.116987 96.568204 
L 65.169312 96.300646 
L 65.215852 96.300646 
L 65.337573 96.193622 
L 65.417514 96.086599 
L 65.443961 96.086599 
L 65.511192 95.979576 
L 65.604072 95.658506 
L 65.659988 95.551483 
L 65.722059 95.44446 
L 65.750416 95.44446 
L 65.826197 95.337436 
L 65.916796 94.962855 
L 65.919703 94.962855 
L 66.002979 94.855832 
L 66.107601 94.48125 
L 66.241149 94.374227 
L 66.351357 94.106669 
L 66.384046 93.999646 
L 66.409439 93.946134 
L 66.468005 93.946134 
L 66.55527 93.839111 
L 66.664566 93.250483 
L 66.74881 93.14346 
L 66.859075 92.661855 
L 66.985527 92.554832 
L 67.080117 92.340785 
L 67.091916 92.340785 
L 67.180977 92.233762 
L 67.282463 91.805669 
L 67.375429 91.698646 
L 67.482159 91.538111 
L 67.528214 91.431088 
L 67.613314 91.16353 
L 67.796309 91.056506 
L 67.893407 90.895971 
L 68.018292 90.788948 
L 68.11271 90.628413 
L 68.152239 90.52139 
L 68.236455 90.093297 
L 68.262817 90.093297 
L 68.34273 89.986274 
L 68.440739 89.772227 
L 68.527435 89.665204 
L 68.600223 89.344134 
L 68.720462 89.237111 
L 68.781337 89.076576 
L 68.812487 89.076576 
L 68.871623 88.969553 
L 68.97197 88.487948 
L 68.97881 88.487948 
L 69.019165 88.380925 
L 69.086937 88.166879 
L 69.123331 88.166879 
L 69.324651 88.059855 
L 69.434688 87.631762 
L 69.467205 87.524739 
L 69.555354 87.257181 
L 69.690299 87.150158 
L 69.79438 86.936111 
L 69.972273 86.829088 
L 70.076069 86.615041 
L 70.159401 86.508018 
L 70.226033 86.347483 
L 70.259976 86.347483 
L 70.38449 86.24046 
L 70.475603 86.079925 
L 70.489112 86.079925 
L 70.688893 85.972902 
L 70.750623 85.758855 
L 70.793971 85.758855 
L 70.834839 85.651832 
L 70.920822 85.491297 
L 70.940572 85.491297 
L 70.997713 85.384274 
L 71.063775 85.223739 
L 71.10282 85.223739 
L 71.226422 85.116716 
L 71.226422 85.063204 
L 71.311664 85.063204 
L 71.523842 84.956181 
L 71.63442 84.742135 
L 71.788061 84.635111 
L 71.849107 84.421065 
L 71.885358 84.421065 
L 71.969489 84.314042 
L 72.057723 84.207018 
L 72.098848 84.099995 
L 72.098848 84.046483 
L 72.182095 84.046483 
L 72.318921 83.93946 
L 72.425167 83.671902 
L 72.517135 83.564879 
L 72.625234 83.190297 
L 72.870899 83.083274 
L 72.956113 82.869228 
L 72.972329 82.869228 
L 73.05569 82.762204 
L 73.156436 82.548158 
L 73.230506 82.441135 
L 73.292692 82.066553 
L 73.325181 82.066553 
L 73.544713 81.95953 
L 73.586065 81.745483 
L 73.72406 81.63846 
L 73.800894 81.370902 
L 73.927033 81.263879 
L 74.0308 81.156856 
L 74.17153 81.049832 
L 74.273216 80.889297 
L 74.337853 80.782274 
L 74.441762 80.568228 
L 74.559665 80.461204 
L 74.634077 80.30067 
L 74.649809 80.30067 
L 74.726957 80.193646 
L 74.77646 80.033111 
L 74.815961 80.033111 
L 74.933607 79.926088 
L 74.997531 79.765553 
L 75.026144 79.765553 
L 75.290506 79.65853 
L 75.382274 79.390972 
L 75.523147 79.283949 
L 75.571397 79.123414 
L 75.684824 79.016391 
L 75.788848 78.855856 
L 75.908887 78.748832 
L 75.967511 78.481274 
L 75.998604 78.481274 
L 76.110293 78.374251 
L 76.217252 78.106693 
L 76.487484 77.99967 
L 76.526329 77.892646 
L 76.888415 77.785623 
L 76.888415 77.732112 
L 76.938574 77.732112 
L 77.116154 77.625088 
L 77.116154 77.571577 
L 77.208749 77.571577 
L 77.413461 77.464553 
L 77.485679 77.304019 
L 77.554448 77.196995 
L 77.554448 77.143484 
L 77.640887 77.143484 
L 77.7318 77.03646 
L 77.781788 76.929437 
L 77.820719 76.929437 
L 77.926195 76.822414 
L 77.980515 76.661879 
L 78.010782 76.661879 
L 78.380705 76.554856 
L 78.488746 76.394321 
L 78.712011 76.287298 
L 78.789701 76.073251 
L 78.802041 76.073251 
L 78.918405 75.966228 
L 78.963291 75.805693 
L 78.988257 75.805693 
L 79.11622 75.69867 
L 79.174615 75.484623 
L 79.226285 75.484623 
L 79.31868 75.3776 
L 79.367329 75.217065 
L 79.411702 75.217065 
L 79.617497 75.110042 
L 79.703081 74.949507 
L 79.988817 74.842484 
L 80.078448 74.681949 
L 80.079417 74.681949 
L 80.223026 74.574926 
L 80.223026 74.521414 
L 80.325937 74.521414 
L 80.528027 74.414391 
L 80.528027 74.360879 
L 80.576533 74.360879 
L 80.801394 74.253856 
L 80.801394 74.200344 
L 80.867827 74.200344 
L 81.136605 74.093321 
L 81.237151 73.772251 
L 81.382869 73.665228 
L 81.437218 73.558205 
L 81.590346 73.451182 
L 81.664615 73.344158 
L 81.666696 73.344158 
L 82.039241 73.237135 
L 82.039241 73.183623 
L 82.076974 73.183623 
L 82.326174 73.0766 
L 82.326174 73.023089 
L 82.426777 73.023089 
L 82.548014 72.916065 
L 82.63622 72.75553 
L 82.649073 72.75553 
L 82.729442 72.648507 
L 82.772675 72.541484 
L 82.825086 72.541484 
L 82.903288 72.434461 
L 82.965132 72.273926 
L 82.97277 72.273926 
L 83.183296 72.166902 
L 83.187913 72.059879 
L 83.456463 71.952856 
L 83.534866 71.845833 
L 83.752716 71.738809 
L 83.848987 71.578275 
L 83.855029 71.578275 
L 84.207852 71.471251 
L 84.308228 71.310716 
L 84.483272 71.203693 
L 84.483272 71.150182 
L 84.519352 71.150182 
L 84.859123 71.043158 
L 84.859123 70.989647 
L 85.184729 70.882623 
L 85.184729 70.829112 
L 85.270199 70.829112 
L 85.430309 70.722089 
L 85.510649 70.615065 
L 85.526495 70.615065 
L 85.752325 70.508042 
L 85.80351 70.347507 
L 85.967781 70.240484 
L 85.974792 70.133461 
L 86.004489 70.133461 
L 86.511067 70.026437 
L 86.511067 69.972926 
L 86.570716 69.972926 
L 86.671177 69.865903 
L 86.671177 69.812391 
L 87.016733 69.705368 
L 87.10645 69.491321 
L 87.126371 69.491321 
L 87.21717 69.384298 
L 87.21717 69.330786 
L 87.2335 69.330786 
L 87.353312 69.223763 
L 87.360238 69.11674 
L 87.362689 69.11674 
L 87.879641 69.009717 
L 87.987255 68.849182 
L 88.075204 68.742158 
L 88.088856 68.635135 
L 88.184842 68.635135 
L 88.322494 68.528112 
L 88.426546 68.421089 
L 88.721174 68.314065 
L 88.81753 68.207042 
L 88.928906 68.100019 
L 88.928906 68.046507 
L 88.970202 68.046507 
L 89.397409 67.939484 
L 89.49103 67.778949 
L 89.954061 67.671926 
L 89.980851 67.564903 
L 90.405778 67.457879 
L 90.50812 67.297345 
L 90.513449 67.297345 
L 90.838828 67.190321 
L 90.850085 67.083298 
L 91.060269 66.976275 
L 91.118151 66.762228 
L 91.128896 66.762228 
L 91.49919 66.655205 
L 91.49919 66.601693 
L 91.53869 66.601693 
L 92.027228 66.49467 
L 92.117087 66.334135 
L 92.306694 66.227112 
L 92.306694 66.1736 
L 92.33451 66.1736 
L 92.613833 66.066577 
L 92.712071 65.906042 
L 93.251994 65.799019 
L 93.267013 65.691996 
L 93.329284 65.691996 
L 93.529921 65.584973 
L 93.558506 65.424438 
L 93.600742 65.424438 
L 93.822012 65.317414 
L 93.930139 65.210391 
L 94.088083 65.103368 
L 94.151608 64.83581 
L 94.177913 64.83581 
L 94.295103 64.728787 
L 94.390548 64.51474 
L 94.754828 64.407717 
L 94.857227 64.247182 
L 95.077728 64.140159 
L 95.180326 64.033135 
L 95.527706 63.926112 
L 95.625203 63.765577 
L 96.001767 63.658554 
L 96.001767 63.605042 
L 96.257207 63.498019 
L 96.327801 63.390996 
L 96.757117 63.283973 
L 96.852619 63.176949 
L 97.225933 63.069926 
L 97.24899 62.962903 
L 97.313284 62.962903 
L 97.855288 62.85588 
L 97.898122 62.748856 
L 97.918272 62.748856 
L 98.238606 62.641833 
L 98.34545 62.53481 
L 98.648742 62.427787 
L 98.759092 62.267252 
L 98.830341 62.160229 
L 98.864568 62.053205 
L 98.912961 62.053205 
L 99.100658 61.946182 
L 99.116646 61.839159 
L 99.207047 61.839159 
L 99.336035 61.732136 
L 99.375194 61.625112 
L 99.42712 61.625112 
L 99.644314 61.518089 
L 99.644314 61.464577 
L 99.827424 61.357554 
L 99.834976 61.250531 
L 99.925034 61.250531 
L 100.299632 61.143508 
L 100.391941 60.982973 
L 100.84628 60.875949 
L 100.945002 60.768926 
L 101.358416 60.661903 
L 101.427755 60.55488 
L 101.71694 60.447856 
L 101.71694 60.394345 
L 102.059902 60.287322 
L 102.153267 60.180298 
L 102.31845 60.073275 
L 102.419252 59.91274 
L 102.850393 59.805717 
L 102.872394 59.698694 
L 103.196234 59.59167 
L 103.196234 59.538159 
L 103.699022 59.431136 
L 103.720567 59.270601 
L 103.959393 59.163577 
L 104.00998 59.056554 
L 104.259464 58.949531 
L 104.294205 58.842508 
L 104.345732 58.842508 
L 104.945019 58.735484 
L 105.038127 58.628461 
L 105.351479 58.521438 
L 105.460917 58.414415 
L 105.679166 58.307391 
L 105.694841 58.200368 
L 105.751469 58.200368 
L 106.095344 58.093345 
L 106.104236 57.986322 
L 106.45515 57.879298 
L 106.507475 57.772275 
L 106.851436 57.665252 
L 106.864032 57.558229 
L 107.196707 57.451205 
L 107.30281 57.344182 
L 107.62323 57.237159 
L 107.631096 57.130136 
L 108.213797 57.023112 
L 108.320955 56.916089 
L 108.508253 56.809066 
L 108.508253 56.755554 
L 108.764948 56.648531 
L 108.764948 56.595019 
L 108.802767 56.595019 
L 109.479573 56.487996 
L 109.553386 56.327461 
L 110.003393 56.220438 
L 110.003393 56.166926 
L 110.610831 56.059903 
L 110.647368 55.95288 
L 110.660477 55.95288 
L 111.398358 55.845857 
L 111.472057 55.792345 
L 111.472114 55.792345 
L 111.681272 55.685322 
L 111.736789 55.471275 
L 112.147039 55.364252 
L 112.248355 55.257229 
L 112.429156 55.150206 
L 112.490173 55.043182 
L 113.128619 54.936159 
L 113.201207 54.829136 
L 113.214772 54.829136 
L 113.862281 54.722113 
L 113.862281 54.668601 
L 113.925436 54.668601 
L 114.235225 54.561578 
L 114.235225 54.508066 
L 114.646758 54.401043 
L 114.723621 54.29402 
L 115.171262 54.186996 
L 115.240829 54.026461 
L 115.280273 54.026461 
L 116.413897 53.919438 
L 116.477052 53.758903 
L 117.072833 53.65188 
L 117.121197 53.544857 
L 117.127039 53.544857 
L 117.645417 53.437834 
L 117.747103 53.33081 
L 118.606248 53.223787 
L 118.716684 53.063252 
L 119.279121 52.956229 
L 119.339084 52.849206 
L 119.831384 52.742182 
L 119.831384 52.688671 
L 119.921585 52.688671 
L 120.158074 52.581648 
L 120.158074 52.528136 
L 120.245054 52.528136 
L 120.746075 52.421113 
L 120.746075 52.367601 
L 121.150626 52.260578 
L 121.197621 52.100043 
L 121.473724 51.99302 
L 121.473724 51.939508 
L 121.579514 51.939508 
L 121.94274 51.832485 
L 121.94274 51.778973 
L 122.525868 51.67195 
L 122.525868 51.618438 
L 123.800023 51.511415 
L 123.867966 51.404392 
L 124.459587 51.297369 
L 124.459587 51.243857 
L 124.957786 51.136834 
L 124.984205 51.02981 
L 125.598284 50.922787 
L 125.60652 50.815764 
L 126.280647 50.708741 
L 126.386295 50.601717 
L 127.060821 50.494694 
L 127.131756 50.387671 
L 127.698896 50.280648 
L 127.698896 50.227136 
L 128.35749 50.120113 
L 128.375245 49.959578 
L 128.863071 49.852555 
L 128.973051 49.745531 
L 129.711871 49.638508 
L 129.791698 49.477973 
L 130.035768 49.37095 
L 130.035768 49.317438 
L 130.635255 49.210415 
L 130.635255 49.156903 
L 130.684245 49.156903 
L 131.91776 49.04988 
L 131.969857 48.942857 
L 132.554296 48.835834 
L 132.617137 48.72881 
L 133.179033 48.621787 
L 133.179033 48.568276 
L 133.6448 48.461252 
L 133.713342 48.300717 
L 134.045674 48.193694 
L 134.099966 48.086671 
L 135.649426 47.979648 
L 135.707821 47.872624 
L 136.001537 47.765601 
L 136.028897 47.658578 
L 136.38306 47.551555 
L 136.38306 47.498043 
L 136.489819 47.498043 
L 136.812005 47.39102 
L 136.812005 47.337508 
L 137.258991 47.230485 
L 137.307269 47.123462 
L 137.700876 47.016438 
L 137.739379 46.909415 
L 138.38646 46.802392 
L 138.433655 46.695369 
L 138.708846 46.588345 
L 138.708846 46.534834 
L 139.263617 46.427811 
L 139.263617 46.374299 
L 139.687005 46.267276 
L 139.754748 46.160252 
L 140.276631 46.053229 
L 140.370964 45.946206 
L 141.186477 45.839183 
L 141.217399 45.732159 
L 141.781404 45.625136 
L 141.781404 45.571625 
L 142.335291 45.464601 
L 142.335291 45.41109 
L 142.36513 45.41109 
L 142.772844 45.304066 
L 142.772844 45.250555 
L 143.866911 45.143532 
L 143.959876 45.036508 
L 144.525363 44.929485 
L 144.632977 44.715439 
L 146.464069 44.608415 
L 146.508813 44.554904 
L 146.50887 44.554904 
L 147.150166 44.44788 
L 147.229252 44.287346 
L 147.627732 44.180322 
L 147.689347 44.019787 
L 148.273558 43.912764 
L 148.273558 43.859253 
L 149.476636 43.752229 
L 149.476636 43.698718 
L 150.809272 43.591694 
L 150.809272 43.538183 
L 151.778055 43.43116 
L 151.839186 43.324136 
L 151.884358 43.324136 
L 152.609271 43.217113 
L 152.609271 43.163601 
L 154.04801 43.056578 
L 154.04801 43.003067 
L 155.163224 42.896043 
L 155.163224 42.842532 
L 156.648247 42.735508 
L 156.727703 42.628485 
L 157.633787 42.521462 
L 157.690387 42.414439 
L 158.285343 42.307415 
L 158.285343 42.253904 
L 159.171591 42.146881 
L 159.171591 42.093369 
L 159.951565 41.986346 
L 159.957322 41.879322 
L 159.979495 41.879322 
L 160.220087 41.772299 
L 160.309747 41.665276 
L 161.613997 41.558253 
L 161.659397 41.451229 
L 162.20046 41.344206 
L 162.210976 41.13016 
L 162.884105 41.023136 
L 162.954186 40.916113 
L 163.717744 40.80909 
L 163.717744 40.755578 
L 164.614651 40.648555 
L 164.614651 40.595043 
L 165.167769 40.48802 
L 165.210433 40.380997 
L 166.297346 40.273974 
L 166.333199 40.16695 
L 166.389913 40.16695 
L 167.495978 40.059927 
L 167.495978 40.006415 
L 167.521171 40.006415 
L 168.465673 39.899392 
L 168.475363 39.792369 
L 168.551827 39.792369 
L 169.8642 39.685346 
L 169.8642 39.631834 
L 170.424955 39.524811 
L 170.424955 39.471299 
L 170.510568 39.471299 
L 171.466754 39.364276 
L 171.466754 39.310764 
L 171.480177 39.310764 
L 172.18135 39.203741 
L 172.18135 39.150229 
L 172.235927 39.150229 
L 174.260673 39.043206 
L 174.260673 38.989695 
L 175.041046 38.882671 
L 175.041046 38.82916 
L 176.327456 38.722136 
L 176.422644 38.561602 
L 176.861565 38.454578 
L 176.861565 38.401067 
L 178.353256 38.294043 
L 178.353256 38.240532 
L 178.886596 38.133509 
L 178.886596 38.079997 
L 179.39306 37.972974 
L 179.39306 37.919462 
L 180.781412 37.812439 
L 180.781412 37.758927 
L 181.945046 37.651904 
L 181.945046 37.598392 
L 182.594436 37.491369 
L 182.594436 37.437857 
L 182.606235 37.437857 
L 182.879773 37.330834 
L 182.879773 37.277323 
L 183.376832 37.170299 
L 183.376832 37.116788 
L 184.386882 37.009764 
L 184.434933 36.902741 
L 184.44599 36.902741 
L 186.406698 36.795718 
L 186.498096 36.688695 
L 187.409196 36.581671 
L 187.409196 36.52816 
L 188.117408 36.421137 
L 188.125445 36.367625 
L 188.153916 36.367625 
L 190.011655 36.260602 
L 190.011655 36.20709 
L 190.578253 36.100067 
L 190.636449 35.993044 
L 191.821601 35.88602 
L 191.91069 35.725485 
L 192.825409 35.618462 
L 192.825409 35.564951 
L 193.726478 35.457927 
L 193.726478 35.404416 
L 194.394762 35.297392 
L 194.394762 35.243881 
L 196.180968 35.136858 
L 196.180968 35.083346 
L 198.371267 34.976323 
L 198.371267 34.922811 
L 199.411612 34.815788 
L 199.411612 34.762276 
L 201.018584 34.655253 
L 201.018584 34.601741 
L 201.845753 34.494718 
L 201.845753 34.441206 
L 203.44315 34.334183 
L 203.548626 34.22716 
L 204.439121 34.120137 
L 204.439121 34.066625 
L 206.120933 33.959602 
L 206.197568 33.799067 
L 207.924295 33.692044 
L 207.924295 33.638532 
L 208.540596 33.531509 
L 208.619967 33.424486 
L 210.534192 33.317462 
L 210.534192 33.263951 
L 211.972305 33.156927 
L 211.972305 33.103416 
L 214.314564 32.996393 
L 214.314564 32.942881 
L 216.269714 32.835858 
L 216.269714 32.782346 
L 217.142796 32.675323 
L 217.142796 32.621811 
L 217.70948 32.514788 
L 217.70948 32.461276 
L 217.737409 32.461276 
L 219.862416 32.354253 
L 219.862416 32.300741 
L 222.378864 32.193718 
L 222.378864 32.140207 
L 224.176868 32.033183 
L 224.178521 31.92616 
L 225.202565 31.819137 
L 225.202565 31.765625 
L 227.007095 31.658602 
L 227.007095 31.60509 
L 228.89473 31.498067 
L 228.89473 31.444555 
L 229.510576 31.337532 
L 229.510576 31.284021 
L 230.456103 31.176997 
L 230.456103 31.123486 
L 232.328947 31.016462 
L 232.333763 30.909439 
L 233.998931 30.802416 
L 234.02384 30.695393 
L 236.772872 30.588369 
L 236.772872 30.534858 
L 237.574705 30.427835 
L 237.574705 30.374323 
L 239.640918 30.2673 
L 239.640918 30.213788 
L 242.545528 30.106765 
L 242.545528 30.053253 
L 244.167235 29.94623 
L 244.167235 29.892718 
L 245.085061 29.785695 
L 245.085061 29.732183 
L 246.146923 29.62516 
L 246.146923 29.571649 
L 247.58495 29.464625 
L 247.58495 29.411114 
L 248.640286 29.30409 
L 248.724958 29.197067 
L 251.152373 29.090044 
L 251.152373 29.036532 
L 252.233245 28.929509 
L 252.233245 28.875997 
L 255.702544 28.768974 
L 255.702544 28.715462 
L 256.510077 28.608439 
L 256.510077 28.554928 
L 258.568082 28.447904 
L 258.568082 28.394393 
L 262.896128 28.287369 
L 262.896128 28.233858 
L 265.310035 28.126835 
L 265.310035 28.073323 
L 267.844181 27.9663 
L 267.844181 27.912788 
L 269.48122 27.805765 
L 269.48122 27.752253 
L 273.817103 27.64523 
L 273.852898 27.538207 
L 274.849668 27.431183 
L 274.849668 27.377672 
L 275.760854 27.270649 
L 275.795024 27.163625 
L 277.878593 27.056602 
L 277.878593 27.00309 
L 280.694799 26.896067 
L 280.694799 26.842556 
L 282.023758 26.789044 
L 282.023758 26.789044 
" clip-path="url(#p86cc1b160a)" style="fill: none; stroke: #1f77b4; stroke-width: 1.5; stroke-linecap: round"/>
   </g>
   <g id="patch_3">
    <path d="M 35.655938 265.022801 
L 35.655938 19.642031 
" style="fill: none"/>
   </g>
   <g id="patch_4">
    <path d="M 289.19952 265.022801 
L 289.19952 19.642031 
" style="fill: none"/>
   </g>
   <g id="patch_5">
    <path d="M 35.655938 265.022801 
L 289.19952 265.022801 
" style="fill: none"/>
   </g>
   <g id="patch_6">
    <path d="M 35.655938 19.642031 
L 289.19952 19.642031 
" style="fill: none"/>
   </g>
   <g id="text_15">
    <!-- Model 0: Precision-Recall Curve -->
    <g style="fill: #333333" transform="translate(93.910307 13.642031) scale(0.09 -0.09)">
     <defs>
      <path id="Arial-BoldMT-4d" d="M 453 0 
L 453 4581 
L 1838 4581 
L 2669 1456 
L 3491 4581 
L 4878 4581 
L 4878 0 
L 4019 0 
L 4019 3606 
L 3109 0 
L 2219 0 
L 1313 3606 
L 1313 0 
L 453 0 
z
" transform="scale(0.015625)"/>
      <path id="Arial-BoldMT-64" d="M 3503 0 
L 2688 0 
L 2688 488 
Q 2484 203 2207 64 
Q 1931 -75 1650 -75 
Q 1078 -75 670 386 
Q 263 847 263 1672 
Q 263 2516 659 2955 
Q 1056 3394 1663 3394 
Q 2219 3394 2625 2931 
L 2625 4581 
L 3503 4581 
L 3503 0 
z
M 1159 1731 
Q 1159 1200 1306 963 
Q 1519 619 1900 619 
Q 2203 619 2415 876 
Q 2628 1134 2628 1647 
Q 2628 2219 2422 2470 
Q 2216 2722 1894 2722 
Q 1581 2722 1370 2473 
Q 1159 2225 1159 1731 
z
" transform="scale(0.015625)"/>
      <path id="Arial-BoldMT-30" d="M 1756 4600 
Q 2422 4600 2797 4125 
Q 3244 3563 3244 2259 
Q 3244 959 2794 391 
Q 2422 -78 1756 -78 
Q 1088 -78 678 436 
Q 269 950 269 2269 
Q 269 3563 719 4131 
Q 1091 4600 1756 4600 
z
M 1756 3872 
Q 1597 3872 1472 3770 
Q 1347 3669 1278 3406 
Q 1188 3066 1188 2259 
Q 1188 1453 1269 1151 
Q 1350 850 1473 750 
Q 1597 650 1756 650 
Q 1916 650 2041 751 
Q 2166 853 2234 1116 
Q 2325 1453 2325 2259 
Q 2325 3066 2244 3367 
Q 2163 3669 2039 3770 
Q 1916 3872 1756 3872 
z
" transform="scale(0.015625)"/>
      <path id="Arial-BoldMT-3a" d="M 628 2441 
L 628 3319 
L 1506 3319 
L 1506 2441 
L 628 2441 
z
M 628 0 
L 628 878 
L 1506 878 
L 1506 0 
L 628 0 
z
" transform="scale(0.015625)"/>
      <path id="Arial-BoldMT-2d" d="M 359 1222 
L 359 2100 
L 2084 2100 
L 2084 1222 
L 359 1222 
z
" transform="scale(0.015625)"/>
      <path id="Arial-BoldMT-43" d="M 3397 1684 
L 4294 1400 
Q 4088 650 3608 286 
Q 3128 -78 2391 -78 
Q 1478 -78 890 545 
Q 303 1169 303 2250 
Q 303 3394 893 4026 
Q 1484 4659 2447 4659 
Q 3288 4659 3813 4163 
Q 4125 3869 4281 3319 
L 3366 3100 
Q 3284 3456 3026 3662 
Q 2769 3869 2400 3869 
Q 1891 3869 1573 3503 
Q 1256 3138 1256 2319 
Q 1256 1450 1568 1081 
Q 1881 713 2381 713 
Q 2750 713 3015 947 
Q 3281 1181 3397 1684 
z
" transform="scale(0.015625)"/>
      <path id="Arial-BoldMT-75" d="M 2644 0 
L 2644 497 
Q 2463 231 2167 78 
Q 1872 -75 1544 -75 
Q 1209 -75 943 72 
Q 678 219 559 484 
Q 441 750 441 1219 
L 441 3319 
L 1319 3319 
L 1319 1794 
Q 1319 1094 1367 936 
Q 1416 778 1544 686 
Q 1672 594 1869 594 
Q 2094 594 2272 717 
Q 2450 841 2515 1023 
Q 2581 1206 2581 1919 
L 2581 3319 
L 3459 3319 
L 3459 0 
L 2644 0 
z
" transform="scale(0.015625)"/>
      <path id="Arial-BoldMT-76" d="M 1372 0 
L 34 3319 
L 956 3319 
L 1581 1625 
L 1763 1059 
Q 1834 1275 1853 1344 
Q 1897 1484 1947 1625 
L 2578 3319 
L 3481 3319 
L 2163 0 
L 1372 0 
z
" transform="scale(0.015625)"/>
     </defs>
     <use xlink:href="#Arial-BoldMT-4d"/>
     <use xlink:href="#Arial-BoldMT-6f" transform="translate(83.300781 0)"/>
     <use xlink:href="#Arial-BoldMT-64" transform="translate(144.384766 0)"/>
     <use xlink:href="#Arial-BoldMT-65" transform="translate(205.46875 0)"/>
     <use xlink:href="#Arial-BoldMT-6c" transform="translate(261.083984 0)"/>
     <use xlink:href="#Arial-BoldMT-20" transform="translate(288.867188 0)"/>
     <use xlink:href="#Arial-BoldMT-30" transform="translate(316.650391 0)"/>
     <use xlink:href="#Arial-BoldMT-3a" transform="translate(372.265625 0)"/>
     <use xlink:href="#Arial-BoldMT-20" transform="translate(405.566406 0)"/>
     <use xlink:href="#Arial-BoldMT-50" transform="translate(433.349609 0)"/>
     <use xlink:href="#Arial-BoldMT-72" transform="translate(500.048828 0)"/>
     <use xlink:href="#Arial-BoldMT-65" transform="translate(538.964844 0)"/>
     <use xlink:href="#Arial-BoldMT-63" transform="translate(594.580078 0)"/>
     <use xlink:href="#Arial-BoldMT-69" transform="translate(650.195312 0)"/>
     <use xlink:href="#Arial-BoldMT-73" transform="translate(677.978516 0)"/>
     <use xlink:href="#Arial-BoldMT-69" transform="translate(733.59375 0)"/>
     <use xlink:href="#Arial-BoldMT-6f" transform="translate(761.376953 0)"/>
     <use xlink:href="#Arial-BoldMT-6e" transform="translate(822.460938 0)"/>
     <use xlink:href="#Arial-BoldMT-2d" transform="translate(883.544922 0)"/>
     <use xlink:href="#Arial-BoldMT-52" transform="translate(916.845703 0)"/>
     <use xlink:href="#Arial-BoldMT-65" transform="translate(989.0625 0)"/>
     <use xlink:href="#Arial-BoldMT-63" transform="translate(1044.677734 0)"/>
     <use xlink:href="#Arial-BoldMT-61" transform="translate(1100.292969 0)"/>
     <use xlink:href="#Arial-BoldMT-6c" transform="translate(1155.908203 0)"/>
     <use xlink:href="#Arial-BoldMT-6c" transform="translate(1183.691406 0)"/>
     <use xlink:href="#Arial-BoldMT-20" transform="translate(1211.474609 0)"/>
     <use xlink:href="#Arial-BoldMT-43" transform="translate(1239.257812 0)"/>
     <use xlink:href="#Arial-BoldMT-75" transform="translate(1311.474609 0)"/>
     <use xlink:href="#Arial-BoldMT-72" transform="translate(1372.558594 0)"/>
     <use xlink:href="#Arial-BoldMT-76" transform="translate(1411.474609 0)"/>
     <use xlink:href="#Arial-BoldMT-65" transform="translate(1467.089844 0)"/>
    </g>
   </g>
   <g id="legend_1">
    <g id="patch_7">
     <path d="M 164.573426 260.522801 
L 282.89952 260.522801 
Q 284.69952 260.522801 284.69952 258.722801 
L 284.69952 246.89202 
Q 284.69952 245.09202 282.89952 245.09202 
L 164.573426 245.09202 
Q 162.773426 245.09202 162.773426 246.89202 
L 162.773426 258.722801 
Q 162.773426 260.522801 164.573426 260.522801 
z
" style="fill: #ffffff; opacity: 0.8; stroke: #cccccc; stroke-width: 0.75; stroke-linejoin: miter"/>
    </g>
    <g id="line2d_26">
     <path d="M 166.373426 251.984051 
L 175.373426 251.984051 
L 184.373426 251.984051 
" style="fill: none; stroke: #1f77b4; stroke-width: 1.5; stroke-linecap: round"/>
    </g>
    <g id="text_16">
     <!-- Precision-Recall curve -->
     <g style="fill: #333333" transform="translate(191.573426 255.134051) scale(0.09 -0.09)">
      <defs>
       <path id="ArialMT-50" d="M 494 0 
L 494 4581 
L 2222 4581 
Q 2678 4581 2919 4538 
Q 3256 4481 3484 4323 
Q 3713 4166 3852 3881 
Q 3991 3597 3991 3256 
Q 3991 2672 3619 2267 
Q 3247 1863 2275 1863 
L 1100 1863 
L 1100 0 
L 494 0 
z
M 1100 2403 
L 2284 2403 
Q 2872 2403 3119 2622 
Q 3366 2841 3366 3238 
Q 3366 3525 3220 3729 
Q 3075 3934 2838 4000 
Q 2684 4041 2272 4041 
L 1100 4041 
L 1100 2403 
z
" transform="scale(0.015625)"/>
       <path id="ArialMT-72" d="M 416 0 
L 416 3319 
L 922 3319 
L 922 2816 
Q 1116 3169 1280 3281 
Q 1444 3394 1641 3394 
Q 1925 3394 2219 3213 
L 2025 2691 
Q 1819 2813 1613 2813 
Q 1428 2813 1281 2702 
Q 1134 2591 1072 2394 
Q 978 2094 978 1738 
L 978 0 
L 416 0 
z
" transform="scale(0.015625)"/>
       <path id="ArialMT-65" d="M 2694 1069 
L 3275 997 
Q 3138 488 2766 206 
Q 2394 -75 1816 -75 
Q 1088 -75 661 373 
Q 234 822 234 1631 
Q 234 2469 665 2931 
Q 1097 3394 1784 3394 
Q 2450 3394 2872 2941 
Q 3294 2488 3294 1666 
Q 3294 1616 3291 1516 
L 816 1516 
Q 847 969 1125 678 
Q 1403 388 1819 388 
Q 2128 388 2347 550 
Q 2566 713 2694 1069 
z
M 847 1978 
L 2700 1978 
Q 2663 2397 2488 2606 
Q 2219 2931 1791 2931 
Q 1403 2931 1139 2672 
Q 875 2413 847 1978 
z
" transform="scale(0.015625)"/>
       <path id="ArialMT-63" d="M 2588 1216 
L 3141 1144 
Q 3050 572 2676 248 
Q 2303 -75 1759 -75 
Q 1078 -75 664 370 
Q 250 816 250 1647 
Q 250 2184 428 2587 
Q 606 2991 970 3192 
Q 1334 3394 1763 3394 
Q 2303 3394 2647 3120 
Q 2991 2847 3088 2344 
L 2541 2259 
Q 2463 2594 2264 2762 
Q 2066 2931 1784 2931 
Q 1359 2931 1093 2626 
Q 828 2322 828 1663 
Q 828 994 1084 691 
Q 1341 388 1753 388 
Q 2084 388 2306 591 
Q 2528 794 2588 1216 
z
" transform="scale(0.015625)"/>
       <path id="ArialMT-69" d="M 425 3934 
L 425 4581 
L 988 4581 
L 988 3934 
L 425 3934 
z
M 425 0 
L 425 3319 
L 988 3319 
L 988 0 
L 425 0 
z
" transform="scale(0.015625)"/>
       <path id="ArialMT-73" d="M 197 991 
L 753 1078 
Q 800 744 1014 566 
Q 1228 388 1613 388 
Q 2000 388 2187 545 
Q 2375 703 2375 916 
Q 2375 1106 2209 1216 
Q 2094 1291 1634 1406 
Q 1016 1563 777 1677 
Q 538 1791 414 1992 
Q 291 2194 291 2438 
Q 291 2659 392 2848 
Q 494 3038 669 3163 
Q 800 3259 1026 3326 
Q 1253 3394 1513 3394 
Q 1903 3394 2198 3281 
Q 2494 3169 2634 2976 
Q 2775 2784 2828 2463 
L 2278 2388 
Q 2241 2644 2061 2787 
Q 1881 2931 1553 2931 
Q 1166 2931 1000 2803 
Q 834 2675 834 2503 
Q 834 2394 903 2306 
Q 972 2216 1119 2156 
Q 1203 2125 1616 2013 
Q 2213 1853 2448 1751 
Q 2684 1650 2818 1456 
Q 2953 1263 2953 975 
Q 2953 694 2789 445 
Q 2625 197 2315 61 
Q 2006 -75 1616 -75 
Q 969 -75 630 194 
Q 291 463 197 991 
z
" transform="scale(0.015625)"/>
       <path id="ArialMT-6f" d="M 213 1659 
Q 213 2581 725 3025 
Q 1153 3394 1769 3394 
Q 2453 3394 2887 2945 
Q 3322 2497 3322 1706 
Q 3322 1066 3130 698 
Q 2938 331 2570 128 
Q 2203 -75 1769 -75 
Q 1072 -75 642 372 
Q 213 819 213 1659 
z
M 791 1659 
Q 791 1022 1069 705 
Q 1347 388 1769 388 
Q 2188 388 2466 706 
Q 2744 1025 2744 1678 
Q 2744 2294 2464 2611 
Q 2184 2928 1769 2928 
Q 1347 2928 1069 2612 
Q 791 2297 791 1659 
z
" transform="scale(0.015625)"/>
       <path id="ArialMT-6e" d="M 422 0 
L 422 3319 
L 928 3319 
L 928 2847 
Q 1294 3394 1984 3394 
Q 2284 3394 2536 3286 
Q 2788 3178 2913 3003 
Q 3038 2828 3088 2588 
Q 3119 2431 3119 2041 
L 3119 0 
L 2556 0 
L 2556 2019 
Q 2556 2363 2490 2533 
Q 2425 2703 2258 2804 
Q 2091 2906 1866 2906 
Q 1506 2906 1245 2678 
Q 984 2450 984 1813 
L 984 0 
L 422 0 
z
" transform="scale(0.015625)"/>
       <path id="ArialMT-2d" d="M 203 1375 
L 203 1941 
L 1931 1941 
L 1931 1375 
L 203 1375 
z
" transform="scale(0.015625)"/>
       <path id="ArialMT-52" d="M 503 0 
L 503 4581 
L 2534 4581 
Q 3147 4581 3465 4457 
Q 3784 4334 3975 4021 
Q 4166 3709 4166 3331 
Q 4166 2844 3850 2509 
Q 3534 2175 2875 2084 
Q 3116 1969 3241 1856 
Q 3506 1613 3744 1247 
L 4541 0 
L 3778 0 
L 3172 953 
Q 2906 1366 2734 1584 
Q 2563 1803 2427 1890 
Q 2291 1978 2150 2013 
Q 2047 2034 1813 2034 
L 1109 2034 
L 1109 0 
L 503 0 
z
M 1109 2559 
L 2413 2559 
Q 2828 2559 3062 2645 
Q 3297 2731 3419 2920 
Q 3541 3109 3541 3331 
Q 3541 3656 3305 3865 
Q 3069 4075 2559 4075 
L 1109 4075 
L 1109 2559 
z
" transform="scale(0.015625)"/>
       <path id="ArialMT-61" d="M 2588 409 
Q 2275 144 1986 34 
Q 1697 -75 1366 -75 
Q 819 -75 525 192 
Q 231 459 231 875 
Q 231 1119 342 1320 
Q 453 1522 633 1644 
Q 813 1766 1038 1828 
Q 1203 1872 1538 1913 
Q 2219 1994 2541 2106 
Q 2544 2222 2544 2253 
Q 2544 2597 2384 2738 
Q 2169 2928 1744 2928 
Q 1347 2928 1158 2789 
Q 969 2650 878 2297 
L 328 2372 
Q 403 2725 575 2942 
Q 747 3159 1072 3276 
Q 1397 3394 1825 3394 
Q 2250 3394 2515 3294 
Q 2781 3194 2906 3042 
Q 3031 2891 3081 2659 
Q 3109 2516 3109 2141 
L 3109 1391 
Q 3109 606 3145 398 
Q 3181 191 3288 0 
L 2700 0 
Q 2613 175 2588 409 
z
M 2541 1666 
Q 2234 1541 1622 1453 
Q 1275 1403 1131 1340 
Q 988 1278 909 1158 
Q 831 1038 831 891 
Q 831 666 1001 516 
Q 1172 366 1500 366 
Q 1825 366 2078 508 
Q 2331 650 2450 897 
Q 2541 1088 2541 1459 
L 2541 1666 
z
" transform="scale(0.015625)"/>
       <path id="ArialMT-6c" d="M 409 0 
L 409 4581 
L 972 4581 
L 972 0 
L 409 0 
z
" transform="scale(0.015625)"/>
       <path id="ArialMT-20" transform="scale(0.015625)"/>
       <path id="ArialMT-75" d="M 2597 0 
L 2597 488 
Q 2209 -75 1544 -75 
Q 1250 -75 995 37 
Q 741 150 617 320 
Q 494 491 444 738 
Q 409 903 409 1263 
L 409 3319 
L 972 3319 
L 972 1478 
Q 972 1038 1006 884 
Q 1059 663 1231 536 
Q 1403 409 1656 409 
Q 1909 409 2131 539 
Q 2353 669 2445 892 
Q 2538 1116 2538 1541 
L 2538 3319 
L 3100 3319 
L 3100 0 
L 2597 0 
z
" transform="scale(0.015625)"/>
       <path id="ArialMT-76" d="M 1344 0 
L 81 3319 
L 675 3319 
L 1388 1331 
Q 1503 1009 1600 663 
Q 1675 925 1809 1294 
L 2547 3319 
L 3125 3319 
L 1869 0 
L 1344 0 
z
" transform="scale(0.015625)"/>
      </defs>
      <use xlink:href="#ArialMT-50"/>
      <use xlink:href="#ArialMT-72" transform="translate(66.699219 0)"/>
      <use xlink:href="#ArialMT-65" transform="translate(100 0)"/>
      <use xlink:href="#ArialMT-63" transform="translate(155.615234 0)"/>
      <use xlink:href="#ArialMT-69" transform="translate(205.615234 0)"/>
      <use xlink:href="#ArialMT-73" transform="translate(227.832031 0)"/>
      <use xlink:href="#ArialMT-69" transform="translate(277.832031 0)"/>
      <use xlink:href="#ArialMT-6f" transform="translate(300.048828 0)"/>
      <use xlink:href="#ArialMT-6e" transform="translate(355.664062 0)"/>
      <use xlink:href="#ArialMT-2d" transform="translate(411.279297 0)"/>
      <use xlink:href="#ArialMT-52" transform="translate(444.580078 0)"/>
      <use xlink:href="#ArialMT-65" transform="translate(516.796875 0)"/>
      <use xlink:href="#ArialMT-63" transform="translate(572.412109 0)"/>
      <use xlink:href="#ArialMT-61" transform="translate(622.412109 0)"/>
      <use xlink:href="#ArialMT-6c" transform="translate(678.027344 0)"/>
      <use xlink:href="#ArialMT-6c" transform="translate(700.244141 0)"/>
      <use xlink:href="#ArialMT-20" transform="translate(722.460938 0)"/>
      <use xlink:href="#ArialMT-63" transform="translate(750.244141 0)"/>
      <use xlink:href="#ArialMT-75" transform="translate(800.244141 0)"/>
      <use xlink:href="#ArialMT-72" transform="translate(855.859375 0)"/>
      <use xlink:href="#ArialMT-76" transform="translate(889.160156 0)"/>
      <use xlink:href="#ArialMT-65" transform="translate(939.160156 0)"/>
     </g>
    </g>
   </g>
  </g>
 </g>
 <defs>
  <clipPath id="p86cc1b160a">
   <rect x="35.655938" y="19.642031" width="253.543583" height="245.38077"/>
  </clipPath>
 </defs>
</svg>
