<?xml version="1.0" encoding="utf-8" standalone="no"?>
<!DOCTYPE svg PUBLIC "-//W3C//DTD SVG 1.1//EN"
  "http://www.w3.org/Graphics/SVG/1.1/DTD/svg11.dtd">
<svg xmlns:xlink="http://www.w3.org/1999/xlink" width="296.39952pt" height="296.39952pt" viewBox="0 0 296.39952 296.39952" xmlns="http://www.w3.org/2000/svg" version="1.1">
 <metadata>
  <rdf:RDF xmlns:dc="http://purl.org/dc/elements/1.1/" xmlns:cc="http://creativecommons.org/ns#" xmlns:rdf="http://www.w3.org/1999/02/22-rdf-syntax-ns#">
   <cc:Work>
    <dc:type rdf:resource="http://purl.org/dc/dcmitype/StillImage"/>
    <dc:date>2026-01-25T10:31:15.532047</dc:date>
    <dc:format>image/svg+xml</dc:format>
    <dc:creator>
     <cc:Agent>
      <dc:title>Matplotlib v3.10.8, https://matplotlib.org/</dc:title>
     </cc:Agent>
    </dc:creator>
   </cc:Work>
  </rdf:RDF>
 </metadata>
 <defs>
  <style type="text/css">*{stroke-linejoin: round; stroke-linecap: butt}</style>
 </defs>
 <g id="figure_1">
  <g id="patch_1">
   <path d="M 0 296.39952 
L 296.39952 296.39952 
L 296.39952 0 
L 0 0 
z
" style="fill: #ffffff"/>
  </g>
  <g id="axes_1">
   <g id="patch_2">
    <path d="M 35.655938 265.022801 
L 289.19952 265.022801 
L 289.19952 19.642031 
L 35.655938 19.642031 
z
" style="fill: #ffffff"/>
   </g>
   <g id="matplotlib.axis_1">
    <g id="xtick_1">
     <g id="line2d_1">
      <path d="M 42.831699 265.022801 
L 42.831699 19.642031 
" clip-path="url(#p45be814f61)" style="fill: none; stroke: #c0c0c0; stroke-width: 0.25; stroke-linecap: round"/>
     </g>
     <g id="line2d_2"/>
     <g id="text_1">
      <!-- 0.0 -->
      <g style="fill: #333333" transform="translate(36.576699 274.964832) scale(0.09 -0.09)">
       <defs>
        <path id="ArialMT-30" d="M 266 2259 
Q 266 3072 433 3567 
Q 600 4063 929 4331 
Q 1259 4600 1759 4600 
Q 2128 4600 2406 4451 
Q 2684 4303 2865 4023 
Q 3047 3744 3150 3342 
Q 3253 2941 3253 2259 
Q 3253 1453 3087 958 
Q 2922 463 2592 192 
Q 2263 -78 1759 -78 
Q 1097 -78 719 397 
Q 266 969 266 2259 
z
M 844 2259 
Q 844 1131 1108 757 
Q 1372 384 1759 384 
Q 2147 384 2411 759 
Q 2675 1134 2675 2259 
Q 2675 3391 2411 3762 
Q 2147 4134 1753 4134 
Q 1366 4134 1134 3806 
Q 844 3388 844 2259 
z
" transform="scale(0.015625)"/>
        <path id="ArialMT-2e" d="M 581 0 
L 581 641 
L 1222 641 
L 1222 0 
L 581 0 
z
" transform="scale(0.015625)"/>
       </defs>
       <use xlink:href="#ArialMT-30"/>
       <use xlink:href="#ArialMT-2e" transform="translate(55.615234 0)"/>
       <use xlink:href="#ArialMT-30" transform="translate(83.398438 0)"/>
      </g>
     </g>
    </g>
    <g id="xtick_2">
     <g id="line2d_3">
      <path d="M 90.670111 265.022801 
L 90.670111 19.642031 
" clip-path="url(#p45be814f61)" style="fill: none; stroke: #c0c0c0; stroke-width: 0.25; stroke-linecap: round"/>
     </g>
     <g id="line2d_4"/>
     <g id="text_2">
      <!-- 0.2 -->
      <g style="fill: #333333" transform="translate(84.415111 274.964832) scale(0.09 -0.09)">
       <defs>
        <path id="ArialMT-32" d="M 3222 541 
L 3222 0 
L 194 0 
Q 188 203 259 391 
Q 375 700 629 1000 
Q 884 1300 1366 1694 
Q 2113 2306 2375 2664 
Q 2638 3022 2638 3341 
Q 2638 3675 2398 3904 
Q 2159 4134 1775 4134 
Q 1369 4134 1125 3890 
Q 881 3647 878 3216 
L 300 3275 
Q 359 3922 746 4261 
Q 1134 4600 1788 4600 
Q 2447 4600 2831 4234 
Q 3216 3869 3216 3328 
Q 3216 3053 3103 2787 
Q 2991 2522 2730 2228 
Q 2469 1934 1863 1422 
Q 1356 997 1212 845 
Q 1069 694 975 541 
L 3222 541 
z
" transform="scale(0.015625)"/>
       </defs>
       <use xlink:href="#ArialMT-30"/>
       <use xlink:href="#ArialMT-2e" transform="translate(55.615234 0)"/>
       <use xlink:href="#ArialMT-32" transform="translate(83.398438 0)"/>
      </g>
     </g>
    </g>
    <g id="xtick_3">
     <g id="line2d_5">
      <path d="M 138.508523 265.022801 
L 138.508523 19.642031 
" clip-path="url(#p45be814f61)" style="fill: none; stroke: #c0c0c0; stroke-width: 0.25; stroke-linecap: round"/>
     </g>
     <g id="line2d_6"/>
     <g id="text_3">
      <!-- 0.4 -->
      <g style="fill: #333333" transform="translate(132.253523 274.964832) scale(0.09 -0.09)">
       <defs>
        <path id="ArialMT-34" d="M 2069 0 
L 2069 1097 
L 81 1097 
L 81 1613 
L 2172 4581 
L 2631 4581 
L 2631 1613 
L 3250 1613 
L 3250 1097 
L 2631 1097 
L 2631 0 
L 2069 0 
z
M 2069 1613 
L 2069 3678 
L 634 1613 
L 2069 1613 
z
" transform="scale(0.015625)"/>
       </defs>
       <use xlink:href="#ArialMT-30"/>
       <use xlink:href="#ArialMT-2e" transform="translate(55.615234 0)"/>
       <use xlink:href="#ArialMT-34" transform="translate(83.398438 0)"/>
      </g>
     </g>
    </g>
    <g id="xtick_4">
     <g id="line2d_7">
      <path d="M 186.346935 265.022801 
L 186.346935 19.642031 
" clip-path="url(#p45be814f61)" style="fill: none; stroke: #c0c0c0; stroke-width: 0.25; stroke-linecap: round"/>
     </g>
     <g id="line2d_8"/>
     <g id="text_4">
      <!-- 0.6 -->
      <g style="fill: #333333" transform="translate(180.091935 274.964832) scale(0.09 -0.09)">
       <defs>
        <path id="ArialMT-36" d="M 3184 3459 
L 2625 3416 
Q 2550 3747 2413 3897 
Q 2184 4138 1850 4138 
Q 1581 4138 1378 3988 
Q 1113 3794 959 3422 
Q 806 3050 800 2363 
Q 1003 2672 1297 2822 
Q 1591 2972 1913 2972 
Q 2475 2972 2870 2558 
Q 3266 2144 3266 1488 
Q 3266 1056 3080 686 
Q 2894 316 2569 119 
Q 2244 -78 1831 -78 
Q 1128 -78 684 439 
Q 241 956 241 2144 
Q 241 3472 731 4075 
Q 1159 4600 1884 4600 
Q 2425 4600 2770 4297 
Q 3116 3994 3184 3459 
z
M 888 1484 
Q 888 1194 1011 928 
Q 1134 663 1356 523 
Q 1578 384 1822 384 
Q 2178 384 2434 671 
Q 2691 959 2691 1453 
Q 2691 1928 2437 2201 
Q 2184 2475 1800 2475 
Q 1419 2475 1153 2201 
Q 888 1928 888 1484 
z
" transform="scale(0.015625)"/>
       </defs>
       <use xlink:href="#ArialMT-30"/>
       <use xlink:href="#ArialMT-2e" transform="translate(55.615234 0)"/>
       <use xlink:href="#ArialMT-36" transform="translate(83.398438 0)"/>
      </g>
     </g>
    </g>
    <g id="xtick_5">
     <g id="line2d_9">
      <path d="M 234.185346 265.022801 
L 234.185346 19.642031 
" clip-path="url(#p45be814f61)" style="fill: none; stroke: #c0c0c0; stroke-width: 0.25; stroke-linecap: round"/>
     </g>
     <g id="line2d_10"/>
     <g id="text_5">
      <!-- 0.8 -->
      <g style="fill: #333333" transform="translate(227.930346 274.964832) scale(0.09 -0.09)">
       <defs>
        <path id="ArialMT-38" d="M 1131 2484 
Q 781 2613 612 2850 
Q 444 3088 444 3419 
Q 444 3919 803 4259 
Q 1163 4600 1759 4600 
Q 2359 4600 2725 4251 
Q 3091 3903 3091 3403 
Q 3091 3084 2923 2848 
Q 2756 2613 2416 2484 
Q 2838 2347 3058 2040 
Q 3278 1734 3278 1309 
Q 3278 722 2862 322 
Q 2447 -78 1769 -78 
Q 1091 -78 675 323 
Q 259 725 259 1325 
Q 259 1772 486 2073 
Q 713 2375 1131 2484 
z
M 1019 3438 
Q 1019 3113 1228 2906 
Q 1438 2700 1772 2700 
Q 2097 2700 2305 2904 
Q 2513 3109 2513 3406 
Q 2513 3716 2298 3927 
Q 2084 4138 1766 4138 
Q 1444 4138 1231 3931 
Q 1019 3725 1019 3438 
z
M 838 1322 
Q 838 1081 952 856 
Q 1066 631 1291 507 
Q 1516 384 1775 384 
Q 2178 384 2440 643 
Q 2703 903 2703 1303 
Q 2703 1709 2433 1975 
Q 2163 2241 1756 2241 
Q 1359 2241 1098 1978 
Q 838 1716 838 1322 
z
" transform="scale(0.015625)"/>
       </defs>
       <use xlink:href="#ArialMT-30"/>
       <use xlink:href="#ArialMT-2e" transform="translate(55.615234 0)"/>
       <use xlink:href="#ArialMT-38" transform="translate(83.398438 0)"/>
      </g>
     </g>
    </g>
    <g id="xtick_6">
     <g id="line2d_11">
      <path d="M 282.023758 265.022801 
L 282.023758 19.642031 
" clip-path="url(#p45be814f61)" style="fill: none; stroke: #c0c0c0; stroke-width: 0.25; stroke-linecap: round"/>
     </g>
     <g id="line2d_12"/>
     <g id="text_6">
      <!-- 1.0 -->
      <g style="fill: #333333" transform="translate(275.768758 274.964832) scale(0.09 -0.09)">
       <defs>
        <path id="ArialMT-31" d="M 2384 0 
L 1822 0 
L 1822 3584 
Q 1619 3391 1289 3197 
Q 959 3003 697 2906 
L 697 3450 
Q 1169 3672 1522 3987 
Q 1875 4303 2022 4600 
L 2384 4600 
L 2384 0 
z
" transform="scale(0.015625)"/>
       </defs>
       <use xlink:href="#ArialMT-31"/>
       <use xlink:href="#ArialMT-2e" transform="translate(55.615234 0)"/>
       <use xlink:href="#ArialMT-30" transform="translate(83.398438 0)"/>
      </g>
     </g>
    </g>
    <g id="text_7">
     <!-- Recall [TP / (TP + FN)] -->
     <g style="fill: #333333" transform="translate(115.706479 287.305301) scale(0.09 -0.09)">
      <defs>
       <path id="Arial-BoldMT-52" d="M 469 0 
L 469 4581 
L 2416 4581 
Q 3150 4581 3483 4457 
Q 3816 4334 4016 4018 
Q 4216 3703 4216 3297 
Q 4216 2781 3912 2445 
Q 3609 2109 3006 2022 
Q 3306 1847 3501 1637 
Q 3697 1428 4028 894 
L 4588 0 
L 3481 0 
L 2813 997 
Q 2456 1531 2325 1670 
Q 2194 1809 2047 1861 
Q 1900 1913 1581 1913 
L 1394 1913 
L 1394 0 
L 469 0 
z
M 1394 2644 
L 2078 2644 
Q 2744 2644 2909 2700 
Q 3075 2756 3169 2893 
Q 3263 3031 3263 3238 
Q 3263 3469 3139 3611 
Q 3016 3753 2791 3791 
Q 2678 3806 2116 3806 
L 1394 3806 
L 1394 2644 
z
" transform="scale(0.015625)"/>
       <path id="Arial-BoldMT-65" d="M 2381 1056 
L 3256 909 
Q 3088 428 2723 176 
Q 2359 -75 1813 -75 
Q 947 -75 531 491 
Q 203 944 203 1634 
Q 203 2459 634 2926 
Q 1066 3394 1725 3394 
Q 2466 3394 2894 2905 
Q 3322 2416 3303 1406 
L 1103 1406 
Q 1113 1016 1316 798 
Q 1519 581 1822 581 
Q 2028 581 2168 693 
Q 2309 806 2381 1056 
z
M 2431 1944 
Q 2422 2325 2234 2523 
Q 2047 2722 1778 2722 
Q 1491 2722 1303 2513 
Q 1116 2303 1119 1944 
L 2431 1944 
z
" transform="scale(0.015625)"/>
       <path id="Arial-BoldMT-63" d="M 3353 2338 
L 2488 2181 
Q 2444 2441 2289 2572 
Q 2134 2703 1888 2703 
Q 1559 2703 1364 2476 
Q 1169 2250 1169 1719 
Q 1169 1128 1367 884 
Q 1566 641 1900 641 
Q 2150 641 2309 783 
Q 2469 925 2534 1272 
L 3397 1125 
Q 3263 531 2881 228 
Q 2500 -75 1859 -75 
Q 1131 -75 698 384 
Q 266 844 266 1656 
Q 266 2478 700 2936 
Q 1134 3394 1875 3394 
Q 2481 3394 2839 3133 
Q 3197 2872 3353 2338 
z
" transform="scale(0.015625)"/>
       <path id="Arial-BoldMT-61" d="M 1116 2306 
L 319 2450 
Q 453 2931 781 3162 
Q 1109 3394 1756 3394 
Q 2344 3394 2631 3255 
Q 2919 3116 3036 2902 
Q 3153 2688 3153 2116 
L 3144 1091 
Q 3144 653 3186 445 
Q 3228 238 3344 0 
L 2475 0 
Q 2441 88 2391 259 
Q 2369 338 2359 363 
Q 2134 144 1878 34 
Q 1622 -75 1331 -75 
Q 819 -75 523 203 
Q 228 481 228 906 
Q 228 1188 362 1408 
Q 497 1628 739 1745 
Q 981 1863 1438 1950 
Q 2053 2066 2291 2166 
L 2291 2253 
Q 2291 2506 2166 2614 
Q 2041 2722 1694 2722 
Q 1459 2722 1328 2630 
Q 1197 2538 1116 2306 
z
M 2291 1594 
Q 2122 1538 1756 1459 
Q 1391 1381 1278 1306 
Q 1106 1184 1106 997 
Q 1106 813 1243 678 
Q 1381 544 1594 544 
Q 1831 544 2047 700 
Q 2206 819 2256 991 
Q 2291 1103 2291 1419 
L 2291 1594 
z
" transform="scale(0.015625)"/>
       <path id="Arial-BoldMT-6c" d="M 459 0 
L 459 4581 
L 1338 4581 
L 1338 0 
L 459 0 
z
" transform="scale(0.015625)"/>
       <path id="Arial-BoldMT-20" transform="scale(0.015625)"/>
       <path id="Arial-BoldMT-5b" d="M 456 -1291 
L 456 4581 
L 2013 4581 
L 2013 3891 
L 1291 3891 
L 1291 -600 
L 2013 -600 
L 2013 -1291 
L 456 -1291 
z
" transform="scale(0.015625)"/>
       <path id="Arial-BoldMT-54" d="M 1497 0 
L 1497 3806 
L 138 3806 
L 138 4581 
L 3778 4581 
L 3778 3806 
L 2422 3806 
L 2422 0 
L 1497 0 
z
" transform="scale(0.015625)"/>
       <path id="Arial-BoldMT-50" d="M 466 0 
L 466 4581 
L 1950 4581 
Q 2794 4581 3050 4513 
Q 3444 4409 3709 4064 
Q 3975 3719 3975 3172 
Q 3975 2750 3822 2462 
Q 3669 2175 3433 2011 
Q 3197 1847 2953 1794 
Q 2622 1728 1994 1728 
L 1391 1728 
L 1391 0 
L 466 0 
z
M 1391 3806 
L 1391 2506 
L 1897 2506 
Q 2444 2506 2628 2578 
Q 2813 2650 2917 2803 
Q 3022 2956 3022 3159 
Q 3022 3409 2875 3571 
Q 2728 3734 2503 3775 
Q 2338 3806 1838 3806 
L 1391 3806 
z
" transform="scale(0.015625)"/>
       <path id="Arial-BoldMT-2f" d="M -9 -78 
L 1125 4659 
L 1784 4659 
L 638 -78 
L -9 -78 
z
" transform="scale(0.015625)"/>
       <path id="Arial-BoldMT-28" d="M 1916 -1347 
L 1313 -1347 
Q 834 -625 584 153 
Q 334 931 334 1659 
Q 334 2563 644 3369 
Q 913 4069 1325 4659 
L 1925 4659 
Q 1497 3713 1336 3048 
Q 1175 2384 1175 1641 
Q 1175 1128 1270 590 
Q 1366 53 1531 -431 
Q 1641 -750 1916 -1347 
z
" transform="scale(0.015625)"/>
       <path id="Arial-BoldMT-2b" d="M 1466 659 
L 1466 1850 
L 266 1850 
L 266 2672 
L 1466 2672 
L 1466 3863 
L 2266 3863 
L 2266 2672 
L 3469 2672 
L 3469 1850 
L 2266 1850 
L 2266 659 
L 1466 659 
z
" transform="scale(0.015625)"/>
       <path id="Arial-BoldMT-46" d="M 472 0 
L 472 4581 
L 3613 4581 
L 3613 3806 
L 1397 3806 
L 1397 2722 
L 3309 2722 
L 3309 1947 
L 1397 1947 
L 1397 0 
L 472 0 
z
" transform="scale(0.015625)"/>
       <path id="Arial-BoldMT-4e" d="M 475 0 
L 475 4581 
L 1375 4581 
L 3250 1522 
L 3250 4581 
L 4109 4581 
L 4109 0 
L 3181 0 
L 1334 2988 
L 1334 0 
L 475 0 
z
" transform="scale(0.015625)"/>
       <path id="Arial-BoldMT-29" d="M 216 -1347 
Q 475 -791 581 -494 
Q 688 -197 778 190 
Q 869 578 912 926 
Q 956 1275 956 1641 
Q 956 2384 797 3048 
Q 638 3713 209 4659 
L 806 4659 
Q 1278 3988 1539 3234 
Q 1800 2481 1800 1706 
Q 1800 1053 1594 306 
Q 1359 -531 822 -1347 
L 216 -1347 
z
" transform="scale(0.015625)"/>
       <path id="Arial-BoldMT-5d" d="M 1675 4581 
L 1675 -1291 
L 119 -1291 
L 119 -600 
L 841 -600 
L 841 3897 
L 119 3897 
L 119 4581 
L 1675 4581 
z
" transform="scale(0.015625)"/>
      </defs>
      <use xlink:href="#Arial-BoldMT-52"/>
      <use xlink:href="#Arial-BoldMT-65" transform="translate(72.216797 0)"/>
      <use xlink:href="#Arial-BoldMT-63" transform="translate(127.832031 0)"/>
      <use xlink:href="#Arial-BoldMT-61" transform="translate(183.447266 0)"/>
      <use xlink:href="#Arial-BoldMT-6c" transform="translate(239.0625 0)"/>
      <use xlink:href="#Arial-BoldMT-6c" transform="translate(266.845703 0)"/>
      <use xlink:href="#Arial-BoldMT-20" transform="translate(294.628906 0)"/>
      <use xlink:href="#Arial-BoldMT-5b" transform="translate(322.412109 0)"/>
      <use xlink:href="#Arial-BoldMT-54" transform="translate(355.712891 0)"/>
      <use xlink:href="#Arial-BoldMT-50" transform="translate(416.796875 0)"/>
      <use xlink:href="#Arial-BoldMT-20" transform="translate(481.746094 0)"/>
      <use xlink:href="#Arial-BoldMT-2f" transform="translate(509.529297 0)"/>
      <use xlink:href="#Arial-BoldMT-20" transform="translate(537.3125 0)"/>
      <use xlink:href="#Arial-BoldMT-28" transform="translate(565.095703 0)"/>
      <use xlink:href="#Arial-BoldMT-54" transform="translate(598.396484 0)"/>
      <use xlink:href="#Arial-BoldMT-50" transform="translate(659.480469 0)"/>
      <use xlink:href="#Arial-BoldMT-20" transform="translate(724.429688 0)"/>
      <use xlink:href="#Arial-BoldMT-2b" transform="translate(752.212891 0)"/>
      <use xlink:href="#Arial-BoldMT-20" transform="translate(810.611328 0)"/>
      <use xlink:href="#Arial-BoldMT-46" transform="translate(838.394531 0)"/>
      <use xlink:href="#Arial-BoldMT-4e" transform="translate(899.478516 0)"/>
      <use xlink:href="#Arial-BoldMT-29" transform="translate(971.695312 0)"/>
      <use xlink:href="#Arial-BoldMT-5d" transform="translate(1004.996094 0)"/>
     </g>
    </g>
   </g>
   <g id="matplotlib.axis_2">
    <g id="ytick_1">
     <g id="line2d_13">
      <path d="M 35.655938 265.022801 
L 289.19952 265.022801 
" clip-path="url(#p45be814f61)" style="fill: none; stroke: #c0c0c0; stroke-width: 0.25; stroke-linecap: round"/>
     </g>
     <g id="line2d_14"/>
     <g id="text_8">
      <!-- 0.0 -->
      <g style="fill: #333333" transform="translate(19.645938 268.243817) scale(0.09 -0.09)">
       <use xlink:href="#ArialMT-30"/>
       <use xlink:href="#ArialMT-2e" transform="translate(55.615234 0)"/>
       <use xlink:href="#ArialMT-30" transform="translate(83.398438 0)"/>
      </g>
     </g>
    </g>
    <g id="ytick_2">
     <g id="line2d_15">
      <path d="M 35.655938 217.37605 
L 289.19952 217.37605 
" clip-path="url(#p45be814f61)" style="fill: none; stroke: #c0c0c0; stroke-width: 0.25; stroke-linecap: round"/>
     </g>
     <g id="line2d_16"/>
     <g id="text_9">
      <!-- 0.2 -->
      <g style="fill: #333333" transform="translate(19.645938 220.597065) scale(0.09 -0.09)">
       <use xlink:href="#ArialMT-30"/>
       <use xlink:href="#ArialMT-2e" transform="translate(55.615234 0)"/>
       <use xlink:href="#ArialMT-32" transform="translate(83.398438 0)"/>
      </g>
     </g>
    </g>
    <g id="ytick_3">
     <g id="line2d_17">
      <path d="M 35.655938 169.729298 
L 289.19952 169.729298 
" clip-path="url(#p45be814f61)" style="fill: none; stroke: #c0c0c0; stroke-width: 0.25; stroke-linecap: round"/>
     </g>
     <g id="line2d_18"/>
     <g id="text_10">
      <!-- 0.4 -->
      <g style="fill: #333333" transform="translate(19.645938 172.950314) scale(0.09 -0.09)">
       <use xlink:href="#ArialMT-30"/>
       <use xlink:href="#ArialMT-2e" transform="translate(55.615234 0)"/>
       <use xlink:href="#ArialMT-34" transform="translate(83.398438 0)"/>
      </g>
     </g>
    </g>
    <g id="ytick_4">
     <g id="line2d_19">
      <path d="M 35.655938 122.082547 
L 289.19952 122.082547 
" clip-path="url(#p45be814f61)" style="fill: none; stroke: #c0c0c0; stroke-width: 0.25; stroke-linecap: round"/>
     </g>
     <g id="line2d_20"/>
     <g id="text_11">
      <!-- 0.6 -->
      <g style="fill: #333333" transform="translate(19.645938 125.303563) scale(0.09 -0.09)">
       <use xlink:href="#ArialMT-30"/>
       <use xlink:href="#ArialMT-2e" transform="translate(55.615234 0)"/>
       <use xlink:href="#ArialMT-36" transform="translate(83.398438 0)"/>
      </g>
     </g>
    </g>
    <g id="ytick_5">
     <g id="line2d_21">
      <path d="M 35.655938 74.435795 
L 289.19952 74.435795 
" clip-path="url(#p45be814f61)" style="fill: none; stroke: #c0c0c0; stroke-width: 0.25; stroke-linecap: round"/>
     </g>
     <g id="line2d_22"/>
     <g id="text_12">
      <!-- 0.8 -->
      <g style="fill: #333333" transform="translate(19.645938 77.656811) scale(0.09 -0.09)">
       <use xlink:href="#ArialMT-30"/>
       <use xlink:href="#ArialMT-2e" transform="translate(55.615234 0)"/>
       <use xlink:href="#ArialMT-38" transform="translate(83.398438 0)"/>
      </g>
     </g>
    </g>
    <g id="ytick_6">
     <g id="line2d_23">
      <path d="M 35.655938 26.789044 
L 289.19952 26.789044 
" clip-path="url(#p45be814f61)" style="fill: none; stroke: #c0c0c0; stroke-width: 0.25; stroke-linecap: round"/>
     </g>
     <g id="line2d_24"/>
     <g id="text_13">
      <!-- 1.0 -->
      <g style="fill: #333333" transform="translate(19.645938 30.01006) scale(0.09 -0.09)">
       <use xlink:href="#ArialMT-31"/>
       <use xlink:href="#ArialMT-2e" transform="translate(55.615234 0)"/>
       <use xlink:href="#ArialMT-30" transform="translate(83.398438 0)"/>
      </g>
     </g>
    </g>
    <g id="text_14">
     <!-- Precision [TP / (TP + FP)] -->
     <g style="fill: #333333" transform="translate(13.751719 195.805776) rotate(-90) scale(0.09 -0.09)">
      <defs>
       <path id="Arial-BoldMT-72" d="M 1300 0 
L 422 0 
L 422 3319 
L 1238 3319 
L 1238 2847 
Q 1447 3181 1614 3287 
Q 1781 3394 1994 3394 
Q 2294 3394 2572 3228 
L 2300 2463 
Q 2078 2606 1888 2606 
Q 1703 2606 1575 2504 
Q 1447 2403 1373 2137 
Q 1300 1872 1300 1025 
L 1300 0 
z
" transform="scale(0.015625)"/>
       <path id="Arial-BoldMT-69" d="M 459 3769 
L 459 4581 
L 1338 4581 
L 1338 3769 
L 459 3769 
z
M 459 0 
L 459 3319 
L 1338 3319 
L 1338 0 
L 459 0 
z
" transform="scale(0.015625)"/>
       <path id="Arial-BoldMT-73" d="M 150 947 
L 1031 1081 
Q 1088 825 1259 692 
Q 1431 559 1741 559 
Q 2081 559 2253 684 
Q 2369 772 2369 919 
Q 2369 1019 2306 1084 
Q 2241 1147 2013 1200 
Q 950 1434 666 1628 
Q 272 1897 272 2375 
Q 272 2806 612 3100 
Q 953 3394 1669 3394 
Q 2350 3394 2681 3172 
Q 3013 2950 3138 2516 
L 2309 2363 
Q 2256 2556 2107 2659 
Q 1959 2763 1684 2763 
Q 1338 2763 1188 2666 
Q 1088 2597 1088 2488 
Q 1088 2394 1175 2328 
Q 1294 2241 1995 2081 
Q 2697 1922 2975 1691 
Q 3250 1456 3250 1038 
Q 3250 581 2869 253 
Q 2488 -75 1741 -75 
Q 1063 -75 667 200 
Q 272 475 150 947 
z
" transform="scale(0.015625)"/>
       <path id="Arial-BoldMT-6f" d="M 256 1706 
Q 256 2144 472 2553 
Q 688 2963 1083 3178 
Q 1478 3394 1966 3394 
Q 2719 3394 3200 2905 
Q 3681 2416 3681 1669 
Q 3681 916 3195 420 
Q 2709 -75 1972 -75 
Q 1516 -75 1102 131 
Q 688 338 472 736 
Q 256 1134 256 1706 
z
M 1156 1659 
Q 1156 1166 1390 903 
Q 1625 641 1969 641 
Q 2313 641 2545 903 
Q 2778 1166 2778 1666 
Q 2778 2153 2545 2415 
Q 2313 2678 1969 2678 
Q 1625 2678 1390 2415 
Q 1156 2153 1156 1659 
z
" transform="scale(0.015625)"/>
       <path id="Arial-BoldMT-6e" d="M 3478 0 
L 2600 0 
L 2600 1694 
Q 2600 2231 2544 2389 
Q 2488 2547 2361 2634 
Q 2234 2722 2056 2722 
Q 1828 2722 1647 2597 
Q 1466 2472 1398 2265 
Q 1331 2059 1331 1503 
L 1331 0 
L 453 0 
L 453 3319 
L 1269 3319 
L 1269 2831 
Q 1703 3394 2363 3394 
Q 2653 3394 2893 3289 
Q 3134 3184 3257 3021 
Q 3381 2859 3429 2653 
Q 3478 2447 3478 2063 
L 3478 0 
z
" transform="scale(0.015625)"/>
      </defs>
      <use xlink:href="#Arial-BoldMT-50"/>
      <use xlink:href="#Arial-BoldMT-72" transform="translate(66.699219 0)"/>
      <use xlink:href="#Arial-BoldMT-65" transform="translate(105.615234 0)"/>
      <use xlink:href="#Arial-BoldMT-63" transform="translate(161.230469 0)"/>
      <use xlink:href="#Arial-BoldMT-69" transform="translate(216.845703 0)"/>
      <use xlink:href="#Arial-BoldMT-73" transform="translate(244.628906 0)"/>
      <use xlink:href="#Arial-BoldMT-69" transform="translate(300.244141 0)"/>
      <use xlink:href="#Arial-BoldMT-6f" transform="translate(328.027344 0)"/>
      <use xlink:href="#Arial-BoldMT-6e" transform="translate(389.111328 0)"/>
      <use xlink:href="#Arial-BoldMT-20" transform="translate(450.195312 0)"/>
      <use xlink:href="#Arial-BoldMT-5b" transform="translate(477.978516 0)"/>
      <use xlink:href="#Arial-BoldMT-54" transform="translate(511.279297 0)"/>
      <use xlink:href="#Arial-BoldMT-50" transform="translate(572.363281 0)"/>
      <use xlink:href="#Arial-BoldMT-20" transform="translate(637.3125 0)"/>
      <use xlink:href="#Arial-BoldMT-2f" transform="translate(665.095703 0)"/>
      <use xlink:href="#Arial-BoldMT-20" transform="translate(692.878906 0)"/>
      <use xlink:href="#Arial-BoldMT-28" transform="translate(720.662109 0)"/>
      <use xlink:href="#Arial-BoldMT-54" transform="translate(753.962891 0)"/>
      <use xlink:href="#Arial-BoldMT-50" transform="translate(815.046875 0)"/>
      <use xlink:href="#Arial-BoldMT-20" transform="translate(879.996094 0)"/>
      <use xlink:href="#Arial-BoldMT-2b" transform="translate(907.779297 0)"/>
      <use xlink:href="#Arial-BoldMT-20" transform="translate(966.177734 0)"/>
      <use xlink:href="#Arial-BoldMT-46" transform="translate(993.960938 0)"/>
      <use xlink:href="#Arial-BoldMT-50" transform="translate(1055.044922 0)"/>
      <use xlink:href="#Arial-BoldMT-29" transform="translate(1121.744141 0)"/>
      <use xlink:href="#Arial-BoldMT-5d" transform="translate(1155.044922 0)"/>
     </g>
    </g>
   </g>
   <g id="line2d_25">
    <path d="M 42.831699 265.022801 
L 42.942277 243.618151 
L 42.944044 243.511128 
L 43.054537 234.200105 
L 43.058527 234.093082 
L 43.16939 226.387408 
L 43.1711 226.280384 
L 43.28202 220.340594 
L 43.283331 220.233571 
L 43.394336 216.006152 
L 43.399865 215.899129 
L 43.510158 213.009501 
L 43.521216 212.902478 
L 43.629286 210.226897 
L 43.640885 210.119873 
L 43.748328 207.069711 
L 43.761296 206.962687 
L 43.868739 204.929246 
L 43.880936 204.822222 
L 43.988636 202.574734 
L 43.995561 202.467711 
L 44.104657 200.434269 
L 44.120589 200.327246 
L 44.231024 198.507851 
L 44.242139 198.400827 
L 44.349838 196.956013 
L 44.370757 196.84899 
L 44.479625 195.029595 
L 44.49758 194.922572 
L 44.608528 193.263711 
L 44.617135 193.156688 
L 44.717795 191.711874 
L 44.733157 191.604851 
L 44.840372 189.94599 
L 44.851173 189.838967 
L 44.960212 188.768735 
L 44.966111 188.661711 
L 45.075834 187.109874 
L 45.108723 187.002851 
L 45.216394 185.558037 
L 45.234234 185.451014 
L 45.344556 184.113223 
L 45.352678 184.0062 
L 45.458155 182.721921 
L 45.475084 182.614898 
L 45.575259 181.330619 
L 45.617838 181.223596 
L 45.715562 180.36741 
L 45.74352 180.260386 
L 45.840048 178.922596 
L 45.872281 178.815572 
L 45.976732 177.691828 
L 45.990782 177.584805 
L 46.091727 176.782131 
L 46.111791 176.675107 
L 46.219747 175.44434 
L 46.250583 175.337317 
L 46.359337 174.053038 
L 46.384844 173.946014 
L 46.492857 172.661735 
L 46.511809 172.554712 
L 46.615804 171.591503 
L 46.618056 171.591503 
L 46.644019 171.48448 
L 46.748412 170.681805 
L 46.765255 170.574782 
L 46.873981 168.701875 
L 46.90248 168.594852 
L 47.008413 167.310573 
L 47.020554 167.20355 
L 47.102518 166.454387 
L 47.105226 166.454387 
L 47.162111 166.347364 
L 47.265706 165.170108 
L 47.290501 165.063085 
L 47.393356 163.992852 
L 47.40048 163.992852 
L 47.418036 163.885829 
L 47.518468 163.083154 
L 47.53933 162.976131 
L 47.644351 161.95941 
L 47.685874 161.852387 
L 47.795968 160.782155 
L 47.812327 160.675131 
L 47.912616 159.65841 
L 47.945077 159.551387 
L 48.050155 158.802224 
L 48.067967 158.695201 
L 48.133117 158.32062 
L 48.217931 158.213597 
L 48.305482 157.35741 
L 48.33837 157.250387 
L 48.445186 156.447713 
L 48.457697 156.34069 
L 48.555793 155.484504 
L 48.579419 155.37748 
L 48.680905 154.735341 
L 48.719294 154.628318 
L 48.829701 154.200225 
L 48.84227 154.093201 
L 48.951964 153.07648 
L 48.975077 152.969457 
L 49.084686 151.899225 
L 49.105747 151.792201 
L 49.205125 150.721969 
L 49.24226 150.614946 
L 49.334855 149.598225 
L 49.377433 149.491202 
L 49.474787 148.688527 
L 49.52583 148.581504 
L 49.636522 147.885853 
L 49.681123 147.77883 
L 49.788053 147.083178 
L 49.788253 147.083178 
L 49.805353 146.976155 
L 49.914534 146.334016 
L 49.945371 146.226992 
L 50.0527 145.47783 
L 50.10189 145.370806 
L 50.205029 144.568132 
L 50.228228 144.461109 
L 50.322675 143.765458 
L 50.361748 143.658434 
L 50.459729 142.962783 
L 50.487516 142.85576 
L 50.5676 142.481179 
L 50.677123 142.374155 
L 50.777869 142.053086 
L 50.806312 141.946062 
L 50.903552 141.410946 
L 50.955734 141.303923 
L 51.064061 140.608272 
L 51.105043 140.501248 
L 51.204107 140.019644 
L 51.207983 140.019644 
L 51.252642 139.912621 
L 51.359458 139.538039 
L 51.375817 139.431016 
L 51.483402 138.8959 
L 51.556247 138.788876 
L 51.664973 138.25376 
L 51.696066 138.146737 
L 51.806387 137.611621 
L 51.807014 137.611621 
L 51.857088 137.504597 
L 51.96758 136.648411 
L 52.102041 136.541388 
L 52.194807 136.006272 
L 52.206862 136.006272 
L 52.26711 135.899249 
L 52.372045 134.936039 
L 52.402397 134.829016 
L 52.513231 134.400923 
L 52.542643 134.2939 
L 52.630393 133.919318 
L 52.674937 133.812295 
L 52.777422 133.384202 
L 52.830858 133.277179 
L 52.935109 132.742063 
L 52.993704 132.635039 
L 53.095875 131.885877 
L 53.153843 131.778853 
L 53.241935 131.35076 
L 53.251881 131.35076 
L 53.304748 131.243737 
L 53.408286 130.548086 
L 53.444623 130.441063 
L 53.543773 129.852435 
L 53.614024 129.745412 
L 53.716166 129.210295 
L 53.724203 129.210295 
L 53.757205 129.103272 
L 53.847207 128.675179 
L 53.917002 128.568156 
L 54.017434 128.247086 
L 54.024559 128.247086 
L 54.076428 128.140063 
L 54.18732 127.3909 
L 54.205816 127.283877 
L 54.316821 126.588226 
L 54.335289 126.481203 
L 54.441535 126.05311 
L 54.446038 126.05311 
L 54.506913 125.946086 
L 54.608742 125.625016 
L 54.609027 125.625016 
L 54.661608 125.517993 
L 54.732486 125.196923 
L 54.842551 125.0899 
L 54.946375 124.608296 
L 55.036918 124.501272 
L 55.147781 124.019668 
L 55.181097 123.912644 
L 55.282355 123.484551 
L 55.325732 123.377528 
L 55.418555 123.10997 
L 55.461674 123.002947 
L 55.560368 122.467831 
L 55.64541 122.360807 
L 55.754051 121.986226 
L 55.784459 121.879203 
L 55.87657 121.611645 
L 55.923052 121.504621 
L 55.962809 121.13004 
L 55.996581 121.13004 
L 56.055176 121.023017 
L 56.141672 120.648435 
L 56.144265 120.648435 
L 56.194197 120.541412 
L 56.302808 120.220342 
L 56.31797 120.113319 
L 56.377619 119.792249 
L 56.420881 119.792249 
L 56.455765 119.685226 
L 56.562011 119.203621 
L 56.588658 119.096598 
L 56.688919 118.50797 
L 56.722549 118.400947 
L 56.832671 117.972854 
L 56.888273 117.865831 
L 56.983119 117.544761 
L 57.097944 117.437738 
L 57.200314 117.17018 
L 57.24845 117.063156 
L 57.357318 116.635063 
L 57.380516 116.52804 
L 57.491522 116.046436 
L 57.501611 115.939412 
L 57.592039 115.404296 
L 57.607629 115.404296 
L 57.664571 115.297273 
L 57.759787 114.922691 
L 57.816644 114.815668 
L 57.888919 114.387575 
L 57.88966 114.387575 
L 57.959882 114.280552 
L 58.060485 113.745436 
L 58.102437 113.638412 
L 58.210592 113.263831 
L 58.27996 113.156808 
L 58.370047 112.942761 
L 58.388657 112.942761 
L 58.440355 112.835738 
L 58.548653 112.300622 
L 58.570968 112.193598 
L 58.679181 111.765505 
L 58.773058 111.658482 
L 58.876996 111.337412 
L 58.920429 111.230389 
L 58.984866 110.962831 
L 59.027901 110.962831 
L 59.064408 110.855808 
L 59.170027 110.427715 
L 59.173932 110.427715 
L 59.195506 110.320692 
L 59.301553 109.839087 
L 59.37682 109.732064 
L 59.444905 109.357482 
L 59.473319 109.357482 
L 59.543171 109.250459 
L 59.643974 108.661831 
L 59.724542 108.554808 
L 59.813546 108.073203 
L 59.850624 107.96618 
L 59.954162 107.538087 
L 60.015949 107.431064 
L 60.125188 107.056482 
L 60.219778 106.949459 
L 60.29627 106.842436 
L 60.340929 106.735413 
L 60.405822 106.414343 
L 60.432954 106.414343 
L 60.521274 106.30732 
L 60.627263 106.146785 
L 60.672064 106.039762 
L 60.766227 105.718692 
L 60.773608 105.718692 
L 60.863438 105.611669 
L 60.971965 105.290599 
L 61.093315 105.183576 
L 61.130365 105.023041 
L 61.203238 105.023041 
L 61.266136 104.916017 
L 61.318575 104.648459 
L 61.366226 104.648459 
L 61.464806 104.541436 
L 61.528901 104.380901 
L 61.571081 104.380901 
L 61.643925 104.273878 
L 61.705199 103.899296 
L 61.743902 103.899296 
L 61.840942 103.792273 
L 61.922223 103.524715 
L 61.936587 103.524715 
L 62.043716 103.417692 
L 62.109037 103.203645 
L 62.139018 103.203645 
L 62.207959 103.096622 
L 62.264958 102.936087 
L 62.302463 102.936087 
L 62.380352 102.829064 
L 62.443963 102.668529 
L 62.52949 102.561506 
L 62.629666 102.293948 
L 62.638386 102.293948 
L 62.736197 102.186924 
L 62.842015 101.919366 
L 62.957182 101.812343 
L 63.045844 101.70532 
L 63.214475 101.598297 
L 63.325082 101.38425 
L 63.393623 101.277227 
L 63.474419 101.06318 
L 63.549173 100.956157 
L 63.647069 100.635087 
L 63.649862 100.635087 
L 63.710452 100.528064 
L 63.819149 100.314018 
L 63.885268 100.206994 
L 63.961076 100.099971 
L 63.99425 100.099971 
L 64.042642 99.992948 
L 64.083538 99.832413 
L 64.140338 99.832413 
L 64.211587 99.72539 
L 64.319856 99.350808 
L 64.320483 99.350808 
L 64.348812 99.243785 
L 64.450241 98.922715 
L 64.4552 98.922715 
L 64.654497 98.815692 
L 64.755186 98.334087 
L 64.830482 98.227064 
L 64.906233 98.066529 
L 64.908998 98.066529 
L 65.010228 97.959506 
L 65.017381 97.905994 
L 65.099973 97.905994 
L 65.188321 97.798971 
L 65.29109 97.584925 
L 65.339083 97.477901 
L 65.436609 97.049808 
L 65.48483 96.942785 
L 65.58891 96.835762 
L 65.683215 96.728739 
L 65.767573 96.568204 
L 65.785984 96.568204 
L 65.892942 96.461181 
L 65.990838 96.086599 
L 66.071492 95.979576 
L 66.175771 95.551483 
L 66.282217 95.44446 
L 66.323256 95.337436 
L 66.388748 95.337436 
L 66.444692 95.230413 
L 66.55054 94.855832 
L 66.559374 94.748809 
L 66.634642 94.320716 
L 66.754482 94.213692 
L 66.826814 93.946134 
L 66.840921 93.946134 
L 66.950587 93.839111 
L 67.04626 93.732088 
L 67.114202 93.625064 
L 67.207681 93.411018 
L 67.263882 93.303995 
L 67.374631 93.089948 
L 67.404555 92.982925 
L 67.483983 92.715367 
L 67.489256 92.715367 
L 67.640901 92.608343 
L 67.73418 92.447809 
L 67.908711 92.340785 
L 67.971638 91.966204 
L 68.114933 91.859181 
L 68.223716 91.591623 
L 68.285702 91.484599 
L 68.394371 91.217041 
L 68.450429 91.110018 
L 68.536099 91.002995 
L 68.53949 91.002995 
L 68.579788 90.895971 
L 68.682672 90.681925 
L 68.806416 90.574902 
L 68.906079 90.360855 
L 68.910183 90.360855 
L 68.993003 90.253832 
L 69.096883 90.146809 
L 69.139575 90.039785 
L 69.20806 89.879251 
L 69.246021 89.879251 
L 69.324737 89.772227 
L 69.381821 89.558181 
L 69.397296 89.558181 
L 69.595767 89.451158 
L 69.705433 89.130088 
L 69.749037 89.023065 
L 69.844083 88.648483 
L 69.943175 88.54146 
L 69.967257 88.273902 
L 70.046002 88.273902 
L 70.117592 88.166879 
L 70.214462 87.845809 
L 70.523225 87.738786 
L 70.624285 87.364204 
L 70.741817 87.257181 
L 70.842819 87.043134 
L 70.896455 86.936111 
L 70.987083 86.722065 
L 71.005294 86.722065 
L 71.252613 86.615041 
L 71.319216 86.508018 
L 71.453392 86.400995 
L 71.469294 86.293972 
L 71.545987 86.293972 
L 71.608942 86.186948 
L 71.714134 85.812367 
L 71.835655 85.705344 
L 71.895989 85.384274 
L 71.905194 85.384274 
L 72.025718 85.277251 
L 72.125638 85.116716 
L 72.383985 85.009693 
L 72.472448 84.688623 
L 72.752398 84.5816 
L 72.846475 84.26053 
L 72.862891 84.26053 
L 72.884208 84.153507 
L 72.96432 83.992972 
L 72.981449 83.992972 
L 73.114627 83.885949 
L 73.203317 83.725414 
L 73.208191 83.725414 
L 73.289671 83.61839 
L 73.385714 83.350832 
L 73.395518 83.350832 
L 73.510798 83.243809 
L 73.613282 82.922739 
L 73.788697 82.815716 
L 73.881149 82.655181 
L 73.897964 82.655181 
L 74.108774 82.548158 
L 74.196382 82.387623 
L 74.21086 82.387623 
L 74.269112 82.2806 
L 74.380175 82.120065 
L 74.483771 82.013042 
L 74.585457 81.852507 
L 74.657959 81.745483 
L 74.765631 81.531437 
L 74.894106 81.424414 
L 75.000466 81.31739 
L 75.194291 81.210367 
L 75.301734 80.782274 
L 75.418383 80.675251 
L 75.418383 80.621739 
L 75.519271 80.621739 
L 75.699245 80.514716 
L 75.777248 80.30067 
L 75.79147 80.30067 
L 75.959503 80.193646 
L 75.969734 80.033111 
L 76.065521 80.033111 
L 76.242673 79.926088 
L 76.33276 79.65853 
L 76.336237 79.65853 
L 76.55708 79.551507 
L 76.600114 79.33746 
L 76.662813 79.33746 
L 76.851223 79.230437 
L 76.955104 78.962879 
L 77.010906 78.855856 
L 77.118662 78.641809 
L 77.294561 78.534786 
L 77.35478 78.374251 
L 77.388353 78.374251 
L 77.49799 78.267228 
L 77.527345 77.99967 
L 77.608768 77.99967 
L 77.687768 77.892646 
L 77.788771 77.732112 
L 77.981171 77.625088 
L 78.030988 77.464553 
L 78.090181 77.464553 
L 78.228318 77.35753 
L 78.248182 77.196995 
L 78.329491 77.196995 
L 78.45241 77.089972 
L 78.470706 76.982949 
L 78.538877 76.982949 
L 78.697477 76.875926 
L 78.798678 76.715391 
L 78.926499 76.608367 
L 79.019293 76.394321 
L 79.025876 76.394321 
L 79.078543 76.287298 
L 79.137224 76.180274 
L 79.183307 76.180274 
L 79.396569 76.073251 
L 79.504041 75.805693 
L 79.828906 75.69867 
L 79.828906 75.645158 
L 79.895025 75.645158 
L 80.085487 75.538135 
L 80.193329 75.3776 
L 80.376296 75.270577 
L 80.407902 75.163554 
L 80.474619 75.163554 
L 80.644961 75.05653 
L 80.739237 74.949507 
L 80.744452 74.949507 
L 81.071797 74.842484 
L 81.1728 74.735461 
L 81.178414 74.735461 
L 81.455914 74.628437 
L 81.463608 74.521414 
L 81.55683 74.521414 
L 81.644381 74.414391 
L 81.749373 74.253856 
L 81.994867 74.146833 
L 82.098349 73.825763 
L 82.104562 73.825763 
L 82.328653 73.71874 
L 82.409307 73.611716 
L 82.774955 73.504693 
L 82.848683 73.237135 
L 83.076081 73.130112 
L 83.097427 72.969577 
L 83.186003 72.969577 
L 83.352469 72.862554 
L 83.45709 72.648507 
L 83.78435 72.541484 
L 83.815928 72.434461 
L 83.852065 72.434461 
L 84.058458 72.327437 
L 84.058458 72.273926 
L 84.167754 72.273926 
L 84.39575 72.166902 
L 84.490111 71.952856 
L 84.714288 71.845833 
L 84.811472 71.631786 
L 84.82461 71.631786 
L 84.997744 71.524763 
L 84.998229 71.41774 
L 85.053261 71.41774 
L 85.24663 71.310716 
L 85.288866 71.257205 
L 85.337088 71.257205 
L 85.811633 71.150182 
L 85.884848 70.936135 
L 85.891773 70.936135 
L 86.027374 70.829112 
L 86.027374 70.7756 
L 86.0962 70.7756 
L 86.300114 70.668577 
L 86.382762 70.401019 
L 86.401401 70.401019 
L 86.677504 70.293996 
L 86.697454 70.186972 
L 86.915361 70.079949 
L 86.915361 70.026437 
L 86.97749 70.026437 
L 87.108673 69.919414 
L 87.108673 69.865903 
L 87.208791 69.865903 
L 87.286595 69.758879 
L 87.286595 69.705368 
L 87.390333 69.705368 
L 87.762992 69.598344 
L 87.823155 69.43781 
L 87.853792 69.43781 
L 88.234288 69.330786 
L 88.234288 69.277275 
L 88.263187 69.277275 
L 88.524242 69.223763 
L 88.632683 69.009717 
L 88.819041 68.902693 
L 88.871366 68.742158 
L 88.916424 68.742158 
L 89.176168 68.635135 
L 89.250295 68.528112 
L 89.278538 68.528112 
L 89.537399 68.421089 
L 89.633157 68.260554 
L 89.741911 68.153531 
L 89.82684 67.992996 
L 89.837271 67.992996 
L 89.957196 67.885972 
L 89.957196 67.832461 
L 90.013483 67.832461 
L 90.286137 67.725438 
L 90.321534 67.618414 
L 90.388422 67.618414 
L 90.663015 67.511391 
L 90.663015 67.457879 
L 90.709668 67.457879 
L 91.06007 67.350856 
L 91.06007 67.297345 
L 91.127585 67.297345 
L 91.658958 67.190321 
L 91.658958 67.13681 
L 91.761043 67.13681 
L 91.93754 67.029786 
L 91.93754 66.976275 
L 91.975502 66.976275 
L 92.13051 66.869252 
L 92.13051 66.81574 
L 92.205008 66.81574 
L 92.454065 66.708717 
L 92.52614 66.548182 
L 92.924449 66.441159 
L 93.00838 66.1736 
L 93.021319 66.1736 
L 94.144569 66.066577 
L 94.203135 65.906042 
L 94.214421 65.906042 
L 94.528771 65.799019 
L 94.632167 65.584973 
L 94.922092 65.477949 
L 94.953669 65.370926 
L 94.97701 65.370926 
L 95.092918 65.263903 
L 95.092918 65.210391 
L 95.148948 65.210391 
L 95.314644 65.103368 
L 95.314644 65.049856 
L 95.411229 65.049856 
L 95.584192 64.942833 
L 95.591146 64.83581 
L 95.681632 64.83581 
L 95.994556 64.728787 
L 96.103082 64.568252 
L 96.17795 64.461228 
L 96.287787 64.247182 
L 96.645285 64.140159 
L 96.645285 64.086647 
L 96.703766 64.086647 
L 97.162693 63.979624 
L 97.188371 63.819089 
L 97.256428 63.819089 
L 97.398612 63.712066 
L 97.42238 63.605042 
L 97.436032 63.605042 
L 97.681754 63.498019 
L 97.73844 63.390996 
L 97.753145 63.390996 
L 97.931695 63.283973 
L 97.967234 63.176949 
L 97.971081 63.176949 
L 98.365799 63.069926 
L 98.432288 62.85588 
L 98.581569 62.748856 
L 98.581569 62.695345 
L 98.648428 62.695345 
L 98.808567 62.588322 
L 98.808567 62.53481 
L 99.002363 62.427787 
L 99.065062 62.320763 
L 99.081706 62.320763 
L 99.284138 62.21374 
L 99.284138 62.160229 
L 99.307279 62.160229 
L 99.550779 62.053205 
L 99.650442 61.785647 
L 99.782936 61.678624 
L 99.885905 61.518089 
L 100.167394 61.411066 
L 100.265803 61.250531 
L 100.32511 61.143508 
L 100.346884 61.036484 
L 100.764629 60.929461 
L 100.827357 60.822438 
L 101.01665 60.715415 
L 101.01665 60.661903 
L 101.066581 60.661903 
L 101.579002 60.55488 
L 101.673335 60.394345 
L 101.992729 60.287322 
L 102.086464 60.126787 
L 102.43621 60.019763 
L 102.517433 59.859229 
L 102.921926 59.752205 
L 103.004375 59.645182 
L 103.322515 59.538159 
L 103.322515 59.484647 
L 103.544099 59.377624 
L 103.64208 59.270601 
L 103.828923 59.163577 
L 103.866485 59.003043 
L 103.900884 59.003043 
L 104.29107 58.896019 
L 104.329545 58.788996 
L 104.388453 58.788996 
L 104.831249 58.681973 
L 104.885142 58.57495 
L 105.109889 58.467926 
L 105.109889 58.414415 
L 105.645765 58.307391 
L 105.694014 58.200368 
L 105.750871 58.200368 
L 106.353293 58.093345 
L 106.353293 58.039833 
L 106.76779 57.93281 
L 106.76779 57.879298 
L 106.870616 57.879298 
L 107.516471 57.772275 
L 107.516471 57.718764 
L 107.533286 57.718764 
L 108.045564 57.61174 
L 108.152124 57.504717 
L 108.234487 57.397694 
L 108.234487 57.344182 
L 108.540857 57.237159 
L 108.561148 57.130136 
L 109.625063 57.023112 
L 109.625063 56.969601 
L 109.652878 56.969601 
L 110.169289 56.862578 
L 110.175986 56.755554 
L 110.896938 56.648531 
L 110.952084 56.541508 
L 110.954934 56.541508 
L 111.521988 56.434485 
L 111.521988 56.380973 
L 111.885385 56.27395 
L 111.885385 56.220438 
L 111.97855 56.220438 
L 112.085167 56.113415 
L 112.085167 56.059903 
L 112.501031 55.95288 
L 112.501031 55.899368 
L 112.711529 55.792345 
L 112.711529 55.738833 
L 113.012626 55.63181 
L 113.069226 55.417764 
L 113.450862 55.31074 
L 113.488852 55.203717 
L 113.528181 55.203717 
L 113.715679 55.096694 
L 113.805424 55.043182 
L 113.805481 55.043182 
L 113.95992 54.936159 
L 114.027264 54.722113 
L 114.614012 54.615089 
L 114.695948 54.508066 
L 115.026228 54.401043 
L 115.067353 54.29402 
L 115.447736 54.186996 
L 115.45412 54.079973 
L 116.14432 53.97295 
L 116.188551 53.865927 
L 116.383858 53.758903 
L 116.432764 53.65188 
L 117.02598 53.544857 
L 117.02598 53.491345 
L 117.777483 53.384322 
L 117.860246 53.277299 
L 118.828972 53.170275 
L 118.899594 53.009741 
L 119.773673 52.902717 
L 119.773673 52.849206 
L 119.801887 52.849206 
L 120.095147 52.742182 
L 120.13858 52.635159 
L 120.487528 52.528136 
L 120.487528 52.474624 
L 120.550369 52.474624 
L 121.089238 52.367601 
L 121.089238 52.314089 
L 121.170775 52.314089 
L 121.33288 52.207066 
L 121.33288 52.153555 
L 121.373007 52.153555 
L 121.650535 52.046531 
L 121.669345 51.939508 
L 122.522648 51.832485 
L 122.522648 51.778973 
L 123.12185 51.67195 
L 123.12185 51.618438 
L 123.563905 51.511415 
L 123.662399 51.404392 
L 124.695278 51.297369 
L 124.695278 51.243857 
L 124.794769 51.243857 
L 125.505718 51.136834 
L 125.583493 51.02981 
L 126.299514 50.922787 
L 126.299514 50.869275 
L 127.149739 50.762252 
L 127.149739 50.708741 
L 127.959409 50.601717 
L 127.959409 50.548206 
L 128.517914 50.441182 
L 128.605863 50.280648 
L 128.763836 50.173624 
L 128.873673 50.013089 
L 128.985362 49.906066 
L 128.985362 49.852555 
L 129.077444 49.852555 
L 129.605597 49.745531 
L 129.677073 49.638508 
L 130.227 49.531485 
L 130.227 49.477973 
L 130.546137 49.37095 
L 130.568765 49.263927 
L 130.95385 49.156903 
L 130.95385 49.103392 
L 131.823028 48.996369 
L 131.823028 48.942857 
L 131.84634 48.942857 
L 132.24787 48.835834 
L 132.24787 48.782322 
L 132.293554 48.782322 
L 133.10901 48.675299 
L 133.128931 48.514764 
L 133.19505 48.514764 
L 133.57834 48.407741 
L 133.619721 48.300717 
L 133.66837 48.300717 
L 133.840164 48.193694 
L 133.886932 48.086671 
L 133.950942 48.086671 
L 134.379802 47.979648 
L 134.379802 47.926136 
L 134.486447 47.926136 
L 135.192779 47.819113 
L 135.266421 47.71209 
L 135.467571 47.605066 
L 135.532834 47.498043 
L 135.559681 47.498043 
L 136.275645 47.39102 
L 136.335038 47.283997 
L 136.372429 47.283997 
L 136.764668 47.176973 
L 136.764668 47.123462 
L 136.784418 47.123462 
L 137.251211 47.016438 
L 137.251211 46.962927 
L 137.890825 46.855904 
L 137.890825 46.802392 
L 137.956488 46.802392 
L 138.590516 46.695369 
L 138.590516 46.641857 
L 138.643895 46.641857 
L 139.246033 46.534834 
L 139.30078 46.427811 
L 140.139035 46.320787 
L 140.16819 46.213764 
L 140.843229 46.106741 
L 140.909947 45.946206 
L 141.392015 45.839183 
L 141.440664 45.732159 
L 142.25498 45.625136 
L 142.25498 45.571625 
L 143.074568 45.464601 
L 143.074568 45.41109 
L 143.744449 45.304066 
L 143.832597 45.197043 
L 143.853459 45.197043 
L 144.051217 45.09002 
L 144.126655 44.982997 
L 146.146043 44.875973 
L 146.15522 44.822462 
L 146.155277 44.822462 
L 146.806832 44.715439 
L 146.840775 44.608415 
L 147.852564 44.501392 
L 147.852564 44.44788 
L 147.877615 44.44788 
L 148.7493 44.340857 
L 148.7493 44.287346 
L 148.834428 44.287346 
L 149.135525 44.180322 
L 149.184345 44.073299 
L 149.833164 43.966276 
L 149.880303 43.859253 
L 150.686524 43.752229 
L 150.686524 43.698718 
L 151.406222 43.591694 
L 151.406222 43.538183 
L 152.343228 43.43116 
L 152.343228 43.377648 
L 153.505922 43.270625 
L 153.505922 43.217113 
L 154.255686 43.11009 
L 154.255686 43.056578 
L 154.329386 43.056578 
L 155.562074 42.949555 
L 155.653814 42.842532 
L 156.037645 42.735508 
L 156.103849 42.574974 
L 157.524577 42.46795 
L 157.524577 42.414439 
L 157.584797 42.414439 
L 158.341601 42.307415 
L 158.341601 42.253904 
L 158.427612 42.253904 
L 158.807881 42.146881 
L 158.879471 42.039857 
L 159.481808 41.932834 
L 159.481808 41.879322 
L 159.908958 41.772299 
L 160.00332 41.611764 
L 161.445366 41.504741 
L 161.445366 41.451229 
L 162.211546 41.344206 
L 162.211546 41.290695 
L 162.282652 41.290695 
L 163.337105 41.183671 
L 163.337105 41.13016 
L 163.858873 41.023136 
L 163.964863 40.80909 
L 164.699409 40.702067 
L 164.725942 40.595043 
L 165.327708 40.48802 
L 165.327708 40.434509 
L 167.787271 40.327485 
L 167.787271 40.273974 
L 167.817993 40.273974 
L 169.119736 40.16695 
L 169.119736 40.113439 
L 169.439244 40.006415 
L 169.498266 39.899392 
L 170.75327 39.792369 
L 170.75327 39.738857 
L 171.214648 39.631834 
L 171.217355 39.524811 
L 171.946201 39.417788 
L 171.946201 39.364276 
L 172.851715 39.257253 
L 172.851715 39.203741 
L 173.728046 39.096718 
L 173.800378 38.989695 
L 174.380912 38.882671 
L 174.380912 38.82916 
L 174.881591 38.722136 
L 174.881591 38.668625 
L 176.018464 38.561602 
L 176.018464 38.50809 
L 177.402257 38.401067 
L 177.411149 38.294043 
L 178.574783 38.18702 
L 178.574783 38.133509 
L 180.799367 38.026485 
L 180.799367 37.972974 
L 180.864773 37.972974 
L 181.984746 37.86595 
L 182.071499 37.758927 
L 183.186057 37.651904 
L 183.208172 37.544881 
L 183.52047 37.437857 
L 183.52047 37.384346 
L 183.543611 37.384346 
L 184.39167 37.277323 
L 184.477625 37.170299 
L 185.115472 37.063276 
L 185.189428 36.956253 
L 185.472 36.84923 
L 185.472 36.795718 
L 186.411799 36.688695 
L 186.411799 36.635183 
L 187.306626 36.52816 
L 187.306626 36.474648 
L 190.142354 36.367625 
L 190.197386 36.260602 
L 191.151663 36.153578 
L 191.151663 36.100067 
L 193.111972 35.993044 
L 193.207018 35.832509 
L 194.206409 35.725485 
L 194.206409 35.671974 
L 195.621751 35.564951 
L 195.621751 35.511439 
L 196.371914 35.404416 
L 196.371914 35.350904 
L 198.474122 35.243881 
L 198.474122 35.190369 
L 199.507798 35.083346 
L 199.507798 35.029834 
L 199.951621 34.922811 
L 199.951621 34.869299 
L 200.63501 34.762276 
L 200.63501 34.708765 
L 201.65113 34.601741 
L 201.65113 34.54823 
L 203.224787 34.441206 
L 203.224787 34.387695 
L 203.776537 34.280672 
L 203.776537 34.22716 
L 205.183043 34.120137 
L 205.183043 34.066625 
L 205.836166 33.959602 
L 205.836166 33.90609 
L 205.936969 33.90609 
L 206.58385 33.799067 
L 206.58385 33.745555 
L 207.333615 33.638532 
L 207.333615 33.58502 
L 207.418686 33.58502 
L 209.446453 33.477997 
L 209.446453 33.424486 
L 210.693847 33.317462 
L 210.785586 33.210439 
L 214.824277 33.103416 
L 214.868822 32.996393 
L 216.982116 32.889369 
L 217.030365 32.782346 
L 217.051569 32.782346 
L 219.858569 32.675323 
L 219.858569 32.621811 
L 221.861 32.514788 
L 221.881349 32.407765 
L 223.298315 32.300741 
L 223.298315 32.24723 
L 223.349614 32.24723 
L 224.176013 32.140207 
L 224.176013 32.086695 
L 225.479409 31.979672 
L 225.479409 31.92616 
L 226.498294 31.819137 
L 226.498294 31.765625 
L 227.33863 31.658602 
L 227.33863 31.60509 
L 228.143256 31.498067 
L 228.143256 31.444555 
L 231.073516 31.337532 
L 231.073516 31.284021 
L 232.238718 31.176997 
L 232.238718 31.123486 
L 236.34025 31.016462 
L 236.34025 30.962951 
L 237.583597 30.855928 
L 237.583597 30.802416 
L 238.935755 30.695393 
L 238.935755 30.641881 
L 240.121619 30.534858 
L 240.121619 30.481346 
L 242.022534 30.374323 
L 242.034504 30.2673 
L 243.174911 30.160276 
L 243.259013 30.106765 
L 243.25907 30.106765 
L 244.486628 29.999742 
L 244.585237 29.839207 
L 245.393511 29.732183 
L 245.393511 29.678672 
L 245.974672 29.571649 
L 245.974672 29.518137 
L 246.970957 29.411114 
L 246.970957 29.357602 
L 249.347358 29.250579 
L 249.347358 29.197067 
L 250.057651 29.090044 
L 250.057651 29.036532 
L 250.133745 29.036532 
L 252.816715 28.929509 
L 252.816715 28.875997 
L 254.042677 28.768974 
L 254.042677 28.715462 
L 257.493566 28.608439 
L 257.53509 28.501416 
L 258.510656 28.394393 
L 258.510656 28.340881 
L 260.623408 28.233858 
L 260.623408 28.180346 
L 262.657018 28.073323 
L 262.657018 28.019811 
L 265.221173 27.912788 
L 265.221173 27.859276 
L 265.268141 27.859276 
L 268.259019 27.752253 
L 268.259019 27.698742 
L 271.021788 27.591718 
L 271.021788 27.538207 
L 272.023288 27.431183 
L 272.023288 27.377672 
L 273.747393 27.270649 
L 273.747393 27.217137 
L 273.817531 27.217137 
L 277.451614 27.110114 
L 277.451614 27.056602 
L 278.139877 26.949579 
L 278.139877 26.896067 
L 282.023758 26.789044 
L 282.023758 26.789044 
" clip-path="url(#p45be814f61)" style="fill: none; stroke: #1f77b4; stroke-width: 1.5; stroke-linecap: round"/>
   </g>
   <g id="patch_3">
    <path d="M 35.655938 265.022801 
L 35.655938 19.642031 
" style="fill: none"/>
   </g>
   <g id="patch_4">
    <path d="M 289.19952 265.022801 
L 289.19952 19.642031 
" style="fill: none"/>
   </g>
   <g id="patch_5">
    <path d="M 35.655938 265.022801 
L 289.19952 265.022801 
" style="fill: none"/>
   </g>
   <g id="patch_6">
    <path d="M 35.655938 19.642031 
L 289.19952 19.642031 
" style="fill: none"/>
   </g>
   <g id="text_15">
    <!-- Model 2: Precision-Recall Curve -->
    <g style="fill: #333333" transform="translate(93.910307 13.642031) scale(0.09 -0.09)">
     <defs>
      <path id="Arial-BoldMT-4d" d="M 453 0 
L 453 4581 
L 1838 4581 
L 2669 1456 
L 3491 4581 
L 4878 4581 
L 4878 0 
L 4019 0 
L 4019 3606 
L 3109 0 
L 2219 0 
L 1313 3606 
L 1313 0 
L 453 0 
z
" transform="scale(0.015625)"/>
      <path id="Arial-BoldMT-64" d="M 3503 0 
L 2688 0 
L 2688 488 
Q 2484 203 2207 64 
Q 1931 -75 1650 -75 
Q 1078 -75 670 386 
Q 263 847 263 1672 
Q 263 2516 659 2955 
Q 1056 3394 1663 3394 
Q 2219 3394 2625 2931 
L 2625 4581 
L 3503 4581 
L 3503 0 
z
M 1159 1731 
Q 1159 1200 1306 963 
Q 1519 619 1900 619 
Q 2203 619 2415 876 
Q 2628 1134 2628 1647 
Q 2628 2219 2422 2470 
Q 2216 2722 1894 2722 
Q 1581 2722 1370 2473 
Q 1159 2225 1159 1731 
z
" transform="scale(0.015625)"/>
      <path id="Arial-BoldMT-32" d="M 3238 816 
L 3238 0 
L 159 0 
Q 209 463 459 877 
Q 709 1291 1447 1975 
Q 2041 2528 2175 2725 
Q 2356 2997 2356 3263 
Q 2356 3556 2198 3714 
Q 2041 3872 1763 3872 
Q 1488 3872 1325 3706 
Q 1163 3541 1138 3156 
L 263 3244 
Q 341 3969 753 4284 
Q 1166 4600 1784 4600 
Q 2463 4600 2850 4234 
Q 3238 3869 3238 3325 
Q 3238 3016 3127 2736 
Q 3016 2456 2775 2150 
Q 2616 1947 2200 1565 
Q 1784 1184 1673 1059 
Q 1563 934 1494 816 
L 3238 816 
z
" transform="scale(0.015625)"/>
      <path id="Arial-BoldMT-3a" d="M 628 2441 
L 628 3319 
L 1506 3319 
L 1506 2441 
L 628 2441 
z
M 628 0 
L 628 878 
L 1506 878 
L 1506 0 
L 628 0 
z
" transform="scale(0.015625)"/>
      <path id="Arial-BoldMT-2d" d="M 359 1222 
L 359 2100 
L 2084 2100 
L 2084 1222 
L 359 1222 
z
" transform="scale(0.015625)"/>
      <path id="Arial-BoldMT-43" d="M 3397 1684 
L 4294 1400 
Q 4088 650 3608 286 
Q 3128 -78 2391 -78 
Q 1478 -78 890 545 
Q 303 1169 303 2250 
Q 303 3394 893 4026 
Q 1484 4659 2447 4659 
Q 3288 4659 3813 4163 
Q 4125 3869 4281 3319 
L 3366 3100 
Q 3284 3456 3026 3662 
Q 2769 3869 2400 3869 
Q 1891 3869 1573 3503 
Q 1256 3138 1256 2319 
Q 1256 1450 1568 1081 
Q 1881 713 2381 713 
Q 2750 713 3015 947 
Q 3281 1181 3397 1684 
z
" transform="scale(0.015625)"/>
      <path id="Arial-BoldMT-75" d="M 2644 0 
L 2644 497 
Q 2463 231 2167 78 
Q 1872 -75 1544 -75 
Q 1209 -75 943 72 
Q 678 219 559 484 
Q 441 750 441 1219 
L 441 3319 
L 1319 3319 
L 1319 1794 
Q 1319 1094 1367 936 
Q 1416 778 1544 686 
Q 1672 594 1869 594 
Q 2094 594 2272 717 
Q 2450 841 2515 1023 
Q 2581 1206 2581 1919 
L 2581 3319 
L 3459 3319 
L 3459 0 
L 2644 0 
z
" transform="scale(0.015625)"/>
      <path id="Arial-BoldMT-76" d="M 1372 0 
L 34 3319 
L 956 3319 
L 1581 1625 
L 1763 1059 
Q 1834 1275 1853 1344 
Q 1897 1484 1947 1625 
L 2578 3319 
L 3481 3319 
L 2163 0 
L 1372 0 
z
" transform="scale(0.015625)"/>
     </defs>
     <use xlink:href="#Arial-BoldMT-4d"/>
     <use xlink:href="#Arial-BoldMT-6f" transform="translate(83.300781 0)"/>
     <use xlink:href="#Arial-BoldMT-64" transform="translate(144.384766 0)"/>
     <use xlink:href="#Arial-BoldMT-65" transform="translate(205.46875 0)"/>
     <use xlink:href="#Arial-BoldMT-6c" transform="translate(261.083984 0)"/>
     <use xlink:href="#Arial-BoldMT-20" transform="translate(288.867188 0)"/>
     <use xlink:href="#Arial-BoldMT-32" transform="translate(316.650391 0)"/>
     <use xlink:href="#Arial-BoldMT-3a" transform="translate(372.265625 0)"/>
     <use xlink:href="#Arial-BoldMT-20" transform="translate(405.566406 0)"/>
     <use xlink:href="#Arial-BoldMT-50" transform="translate(433.349609 0)"/>
     <use xlink:href="#Arial-BoldMT-72" transform="translate(500.048828 0)"/>
     <use xlink:href="#Arial-BoldMT-65" transform="translate(538.964844 0)"/>
     <use xlink:href="#Arial-BoldMT-63" transform="translate(594.580078 0)"/>
     <use xlink:href="#Arial-BoldMT-69" transform="translate(650.195312 0)"/>
     <use xlink:href="#Arial-BoldMT-73" transform="translate(677.978516 0)"/>
     <use xlink:href="#Arial-BoldMT-69" transform="translate(733.59375 0)"/>
     <use xlink:href="#Arial-BoldMT-6f" transform="translate(761.376953 0)"/>
     <use xlink:href="#Arial-BoldMT-6e" transform="translate(822.460938 0)"/>
     <use xlink:href="#Arial-BoldMT-2d" transform="translate(883.544922 0)"/>
     <use xlink:href="#Arial-BoldMT-52" transform="translate(916.845703 0)"/>
     <use xlink:href="#Arial-BoldMT-65" transform="translate(989.0625 0)"/>
     <use xlink:href="#Arial-BoldMT-63" transform="translate(1044.677734 0)"/>
     <use xlink:href="#Arial-BoldMT-61" transform="translate(1100.292969 0)"/>
     <use xlink:href="#Arial-BoldMT-6c" transform="translate(1155.908203 0)"/>
     <use xlink:href="#Arial-BoldMT-6c" transform="translate(1183.691406 0)"/>
     <use xlink:href="#Arial-BoldMT-20" transform="translate(1211.474609 0)"/>
     <use xlink:href="#Arial-BoldMT-43" transform="translate(1239.257812 0)"/>
     <use xlink:href="#Arial-BoldMT-75" transform="translate(1311.474609 0)"/>
     <use xlink:href="#Arial-BoldMT-72" transform="translate(1372.558594 0)"/>
     <use xlink:href="#Arial-BoldMT-76" transform="translate(1411.474609 0)"/>
     <use xlink:href="#Arial-BoldMT-65" transform="translate(1467.089844 0)"/>
    </g>
   </g>
   <g id="legend_1">
    <g id="patch_7">
     <path d="M 164.573426 260.522801 
L 282.89952 260.522801 
Q 284.69952 260.522801 284.69952 258.722801 
L 284.69952 246.89202 
Q 284.69952 245.09202 282.89952 245.09202 
L 164.573426 245.09202 
Q 162.773426 245.09202 162.773426 246.89202 
L 162.773426 258.722801 
Q 162.773426 260.522801 164.573426 260.522801 
z
" style="fill: #ffffff; opacity: 0.8; stroke: #cccccc; stroke-width: 0.75; stroke-linejoin: miter"/>
    </g>
    <g id="line2d_26">
     <path d="M 166.373426 251.984051 
L 175.373426 251.984051 
L 184.373426 251.984051 
" style="fill: none; stroke: #1f77b4; stroke-width: 1.5; stroke-linecap: round"/>
    </g>
    <g id="text_16">
     <!-- Precision-Recall curve -->
     <g style="fill: #333333" transform="translate(191.573426 255.134051) scale(0.09 -0.09)">
      <defs>
       <path id="ArialMT-50" d="M 494 0 
L 494 4581 
L 2222 4581 
Q 2678 4581 2919 4538 
Q 3256 4481 3484 4323 
Q 3713 4166 3852 3881 
Q 3991 3597 3991 3256 
Q 3991 2672 3619 2267 
Q 3247 1863 2275 1863 
L 1100 1863 
L 1100 0 
L 494 0 
z
M 1100 2403 
L 2284 2403 
Q 2872 2403 3119 2622 
Q 3366 2841 3366 3238 
Q 3366 3525 3220 3729 
Q 3075 3934 2838 4000 
Q 2684 4041 2272 4041 
L 1100 4041 
L 1100 2403 
z
" transform="scale(0.015625)"/>
       <path id="ArialMT-72" d="M 416 0 
L 416 3319 
L 922 3319 
L 922 2816 
Q 1116 3169 1280 3281 
Q 1444 3394 1641 3394 
Q 1925 3394 2219 3213 
L 2025 2691 
Q 1819 2813 1613 2813 
Q 1428 2813 1281 2702 
Q 1134 2591 1072 2394 
Q 978 2094 978 1738 
L 978 0 
L 416 0 
z
" transform="scale(0.015625)"/>
       <path id="ArialMT-65" d="M 2694 1069 
L 3275 997 
Q 3138 488 2766 206 
Q 2394 -75 1816 -75 
Q 1088 -75 661 373 
Q 234 822 234 1631 
Q 234 2469 665 2931 
Q 1097 3394 1784 3394 
Q 2450 3394 2872 2941 
Q 3294 2488 3294 1666 
Q 3294 1616 3291 1516 
L 816 1516 
Q 847 969 1125 678 
Q 1403 388 1819 388 
Q 2128 388 2347 550 
Q 2566 713 2694 1069 
z
M 847 1978 
L 2700 1978 
Q 2663 2397 2488 2606 
Q 2219 2931 1791 2931 
Q 1403 2931 1139 2672 
Q 875 2413 847 1978 
z
" transform="scale(0.015625)"/>
       <path id="ArialMT-63" d="M 2588 1216 
L 3141 1144 
Q 3050 572 2676 248 
Q 2303 -75 1759 -75 
Q 1078 -75 664 370 
Q 250 816 250 1647 
Q 250 2184 428 2587 
Q 606 2991 970 3192 
Q 1334 3394 1763 3394 
Q 2303 3394 2647 3120 
Q 2991 2847 3088 2344 
L 2541 2259 
Q 2463 2594 2264 2762 
Q 2066 2931 1784 2931 
Q 1359 2931 1093 2626 
Q 828 2322 828 1663 
Q 828 994 1084 691 
Q 1341 388 1753 388 
Q 2084 388 2306 591 
Q 2528 794 2588 1216 
z
" transform="scale(0.015625)"/>
       <path id="ArialMT-69" d="M 425 3934 
L 425 4581 
L 988 4581 
L 988 3934 
L 425 3934 
z
M 425 0 
L 425 3319 
L 988 3319 
L 988 0 
L 425 0 
z
" transform="scale(0.015625)"/>
       <path id="ArialMT-73" d="M 197 991 
L 753 1078 
Q 800 744 1014 566 
Q 1228 388 1613 388 
Q 2000 388 2187 545 
Q 2375 703 2375 916 
Q 2375 1106 2209 1216 
Q 2094 1291 1634 1406 
Q 1016 1563 777 1677 
Q 538 1791 414 1992 
Q 291 2194 291 2438 
Q 291 2659 392 2848 
Q 494 3038 669 3163 
Q 800 3259 1026 3326 
Q 1253 3394 1513 3394 
Q 1903 3394 2198 3281 
Q 2494 3169 2634 2976 
Q 2775 2784 2828 2463 
L 2278 2388 
Q 2241 2644 2061 2787 
Q 1881 2931 1553 2931 
Q 1166 2931 1000 2803 
Q 834 2675 834 2503 
Q 834 2394 903 2306 
Q 972 2216 1119 2156 
Q 1203 2125 1616 2013 
Q 2213 1853 2448 1751 
Q 2684 1650 2818 1456 
Q 2953 1263 2953 975 
Q 2953 694 2789 445 
Q 2625 197 2315 61 
Q 2006 -75 1616 -75 
Q 969 -75 630 194 
Q 291 463 197 991 
z
" transform="scale(0.015625)"/>
       <path id="ArialMT-6f" d="M 213 1659 
Q 213 2581 725 3025 
Q 1153 3394 1769 3394 
Q 2453 3394 2887 2945 
Q 3322 2497 3322 1706 
Q 3322 1066 3130 698 
Q 2938 331 2570 128 
Q 2203 -75 1769 -75 
Q 1072 -75 642 372 
Q 213 819 213 1659 
z
M 791 1659 
Q 791 1022 1069 705 
Q 1347 388 1769 388 
Q 2188 388 2466 706 
Q 2744 1025 2744 1678 
Q 2744 2294 2464 2611 
Q 2184 2928 1769 2928 
Q 1347 2928 1069 2612 
Q 791 2297 791 1659 
z
" transform="scale(0.015625)"/>
       <path id="ArialMT-6e" d="M 422 0 
L 422 3319 
L 928 3319 
L 928 2847 
Q 1294 3394 1984 3394 
Q 2284 3394 2536 3286 
Q 2788 3178 2913 3003 
Q 3038 2828 3088 2588 
Q 3119 2431 3119 2041 
L 3119 0 
L 2556 0 
L 2556 2019 
Q 2556 2363 2490 2533 
Q 2425 2703 2258 2804 
Q 2091 2906 1866 2906 
Q 1506 2906 1245 2678 
Q 984 2450 984 1813 
L 984 0 
L 422 0 
z
" transform="scale(0.015625)"/>
       <path id="ArialMT-2d" d="M 203 1375 
L 203 1941 
L 1931 1941 
L 1931 1375 
L 203 1375 
z
" transform="scale(0.015625)"/>
       <path id="ArialMT-52" d="M 503 0 
L 503 4581 
L 2534 4581 
Q 3147 4581 3465 4457 
Q 3784 4334 3975 4021 
Q 4166 3709 4166 3331 
Q 4166 2844 3850 2509 
Q 3534 2175 2875 2084 
Q 3116 1969 3241 1856 
Q 3506 1613 3744 1247 
L 4541 0 
L 3778 0 
L 3172 953 
Q 2906 1366 2734 1584 
Q 2563 1803 2427 1890 
Q 2291 1978 2150 2013 
Q 2047 2034 1813 2034 
L 1109 2034 
L 1109 0 
L 503 0 
z
M 1109 2559 
L 2413 2559 
Q 2828 2559 3062 2645 
Q 3297 2731 3419 2920 
Q 3541 3109 3541 3331 
Q 3541 3656 3305 3865 
Q 3069 4075 2559 4075 
L 1109 4075 
L 1109 2559 
z
" transform="scale(0.015625)"/>
       <path id="ArialMT-61" d="M 2588 409 
Q 2275 144 1986 34 
Q 1697 -75 1366 -75 
Q 819 -75 525 192 
Q 231 459 231 875 
Q 231 1119 342 1320 
Q 453 1522 633 1644 
Q 813 1766 1038 1828 
Q 1203 1872 1538 1913 
Q 2219 1994 2541 2106 
Q 2544 2222 2544 2253 
Q 2544 2597 2384 2738 
Q 2169 2928 1744 2928 
Q 1347 2928 1158 2789 
Q 969 2650 878 2297 
L 328 2372 
Q 403 2725 575 2942 
Q 747 3159 1072 3276 
Q 1397 3394 1825 3394 
Q 2250 3394 2515 3294 
Q 2781 3194 2906 3042 
Q 3031 2891 3081 2659 
Q 3109 2516 3109 2141 
L 3109 1391 
Q 3109 606 3145 398 
Q 3181 191 3288 0 
L 2700 0 
Q 2613 175 2588 409 
z
M 2541 1666 
Q 2234 1541 1622 1453 
Q 1275 1403 1131 1340 
Q 988 1278 909 1158 
Q 831 1038 831 891 
Q 831 666 1001 516 
Q 1172 366 1500 366 
Q 1825 366 2078 508 
Q 2331 650 2450 897 
Q 2541 1088 2541 1459 
L 2541 1666 
z
" transform="scale(0.015625)"/>
       <path id="ArialMT-6c" d="M 409 0 
L 409 4581 
L 972 4581 
L 972 0 
L 409 0 
z
" transform="scale(0.015625)"/>
       <path id="ArialMT-20" transform="scale(0.015625)"/>
       <path id="ArialMT-75" d="M 2597 0 
L 2597 488 
Q 2209 -75 1544 -75 
Q 1250 -75 995 37 
Q 741 150 617 320 
Q 494 491 444 738 
Q 409 903 409 1263 
L 409 3319 
L 972 3319 
L 972 1478 
Q 972 1038 1006 884 
Q 1059 663 1231 536 
Q 1403 409 1656 409 
Q 1909 409 2131 539 
Q 2353 669 2445 892 
Q 2538 1116 2538 1541 
L 2538 3319 
L 3100 3319 
L 3100 0 
L 2597 0 
z
" transform="scale(0.015625)"/>
       <path id="ArialMT-76" d="M 1344 0 
L 81 3319 
L 675 3319 
L 1388 1331 
Q 1503 1009 1600 663 
Q 1675 925 1809 1294 
L 2547 3319 
L 3125 3319 
L 1869 0 
L 1344 0 
z
" transform="scale(0.015625)"/>
      </defs>
      <use xlink:href="#ArialMT-50"/>
      <use xlink:href="#ArialMT-72" transform="translate(66.699219 0)"/>
      <use xlink:href="#ArialMT-65" transform="translate(100 0)"/>
      <use xlink:href="#ArialMT-63" transform="translate(155.615234 0)"/>
      <use xlink:href="#ArialMT-69" transform="translate(205.615234 0)"/>
      <use xlink:href="#ArialMT-73" transform="translate(227.832031 0)"/>
      <use xlink:href="#ArialMT-69" transform="translate(277.832031 0)"/>
      <use xlink:href="#ArialMT-6f" transform="translate(300.048828 0)"/>
      <use xlink:href="#ArialMT-6e" transform="translate(355.664062 0)"/>
      <use xlink:href="#ArialMT-2d" transform="translate(411.279297 0)"/>
      <use xlink:href="#ArialMT-52" transform="translate(444.580078 0)"/>
      <use xlink:href="#ArialMT-65" transform="translate(516.796875 0)"/>
      <use xlink:href="#ArialMT-63" transform="translate(572.412109 0)"/>
      <use xlink:href="#ArialMT-61" transform="translate(622.412109 0)"/>
      <use xlink:href="#ArialMT-6c" transform="translate(678.027344 0)"/>
      <use xlink:href="#ArialMT-6c" transform="translate(700.244141 0)"/>
      <use xlink:href="#ArialMT-20" transform="translate(722.460938 0)"/>
      <use xlink:href="#ArialMT-63" transform="translate(750.244141 0)"/>
      <use xlink:href="#ArialMT-75" transform="translate(800.244141 0)"/>
      <use xlink:href="#ArialMT-72" transform="translate(855.859375 0)"/>
      <use xlink:href="#ArialMT-76" transform="translate(889.160156 0)"/>
      <use xlink:href="#ArialMT-65" transform="translate(939.160156 0)"/>
     </g>
    </g>
   </g>
  </g>
 </g>
 <defs>
  <clipPath id="p45be814f61">
   <rect x="35.655938" y="19.642031" width="253.543583" height="245.38077"/>
  </clipPath>
 </defs>
</svg>
