<?xml version="1.0" encoding="utf-8" standalone="no"?>
<!DOCTYPE svg PUBLIC "-//W3C//DTD SVG 1.1//EN"
  "http://www.w3.org/Graphics/SVG/1.1/DTD/svg11.dtd">
<svg xmlns:xlink="http://www.w3.org/1999/xlink" width="296.39952pt" height="296.39952pt" viewBox="0 0 296.39952 296.39952" xmlns="http://www.w3.org/2000/svg" version="1.1">
 <metadata>
  <rdf:RDF xmlns:dc="http://purl.org/dc/elements/1.1/" xmlns:cc="http://creativecommons.org/ns#" xmlns:rdf="http://www.w3.org/1999/02/22-rdf-syntax-ns#">
   <cc:Work>
    <dc:type rdf:resource="http://purl.org/dc/dcmitype/StillImage"/>
    <dc:date>2026-01-24T21:48:49.835393</dc:date>
    <dc:format>image/svg+xml</dc:format>
    <dc:creator>
     <cc:Agent>
      <dc:title>Matplotlib v3.10.8, https://matplotlib.org/</dc:title>
     </cc:Agent>
    </dc:creator>
   </cc:Work>
  </rdf:RDF>
 </metadata>
 <defs>
  <style type="text/css">*{stroke-linejoin: round; stroke-linecap: butt}</style>
 </defs>
 <g id="figure_1">
  <g id="patch_1">
   <path d="M 0 296.39952 
L 296.39952 296.39952 
L 296.39952 0 
L 0 0 
z
" style="fill: #ffffff"/>
  </g>
  <g id="axes_1">
   <g id="patch_2">
    <path d="M 35.655938 265.022801 
L 289.19952 265.022801 
L 289.19952 19.751719 
L 35.655938 19.751719 
z
" style="fill: #ffffff"/>
   </g>
   <g id="matplotlib.axis_1">
    <g id="xtick_1">
     <g id="line2d_1">
      <path d="M 42.831699 265.022801 
L 42.831699 19.751719 
" clip-path="url(#pf117f071c5)" style="fill: none; stroke: #c0c0c0; stroke-width: 0.25; stroke-linecap: round"/>
     </g>
     <g id="line2d_2"/>
     <g id="text_1">
      <!-- 0.0 -->
      <g style="fill: #333333" transform="translate(36.576699 274.964832) scale(0.09 -0.09)">
       <defs>
        <path id="ArialMT-30" d="M 266 2259 
Q 266 3072 433 3567 
Q 600 4063 929 4331 
Q 1259 4600 1759 4600 
Q 2128 4600 2406 4451 
Q 2684 4303 2865 4023 
Q 3047 3744 3150 3342 
Q 3253 2941 3253 2259 
Q 3253 1453 3087 958 
Q 2922 463 2592 192 
Q 2263 -78 1759 -78 
Q 1097 -78 719 397 
Q 266 969 266 2259 
z
M 844 2259 
Q 844 1131 1108 757 
Q 1372 384 1759 384 
Q 2147 384 2411 759 
Q 2675 1134 2675 2259 
Q 2675 3391 2411 3762 
Q 2147 4134 1753 4134 
Q 1366 4134 1134 3806 
Q 844 3388 844 2259 
z
" transform="scale(0.015625)"/>
        <path id="ArialMT-2e" d="M 581 0 
L 581 641 
L 1222 641 
L 1222 0 
L 581 0 
z
" transform="scale(0.015625)"/>
       </defs>
       <use xlink:href="#ArialMT-30"/>
       <use xlink:href="#ArialMT-2e" transform="translate(55.615234 0)"/>
       <use xlink:href="#ArialMT-30" transform="translate(83.398438 0)"/>
      </g>
     </g>
    </g>
    <g id="xtick_2">
     <g id="line2d_3">
      <path d="M 90.670111 265.022801 
L 90.670111 19.751719 
" clip-path="url(#pf117f071c5)" style="fill: none; stroke: #c0c0c0; stroke-width: 0.25; stroke-linecap: round"/>
     </g>
     <g id="line2d_4"/>
     <g id="text_2">
      <!-- 0.2 -->
      <g style="fill: #333333" transform="translate(84.415111 274.964832) scale(0.09 -0.09)">
       <defs>
        <path id="ArialMT-32" d="M 3222 541 
L 3222 0 
L 194 0 
Q 188 203 259 391 
Q 375 700 629 1000 
Q 884 1300 1366 1694 
Q 2113 2306 2375 2664 
Q 2638 3022 2638 3341 
Q 2638 3675 2398 3904 
Q 2159 4134 1775 4134 
Q 1369 4134 1125 3890 
Q 881 3647 878 3216 
L 300 3275 
Q 359 3922 746 4261 
Q 1134 4600 1788 4600 
Q 2447 4600 2831 4234 
Q 3216 3869 3216 3328 
Q 3216 3053 3103 2787 
Q 2991 2522 2730 2228 
Q 2469 1934 1863 1422 
Q 1356 997 1212 845 
Q 1069 694 975 541 
L 3222 541 
z
" transform="scale(0.015625)"/>
       </defs>
       <use xlink:href="#ArialMT-30"/>
       <use xlink:href="#ArialMT-2e" transform="translate(55.615234 0)"/>
       <use xlink:href="#ArialMT-32" transform="translate(83.398438 0)"/>
      </g>
     </g>
    </g>
    <g id="xtick_3">
     <g id="line2d_5">
      <path d="M 138.508523 265.022801 
L 138.508523 19.751719 
" clip-path="url(#pf117f071c5)" style="fill: none; stroke: #c0c0c0; stroke-width: 0.25; stroke-linecap: round"/>
     </g>
     <g id="line2d_6"/>
     <g id="text_3">
      <!-- 0.4 -->
      <g style="fill: #333333" transform="translate(132.253523 274.964832) scale(0.09 -0.09)">
       <defs>
        <path id="ArialMT-34" d="M 2069 0 
L 2069 1097 
L 81 1097 
L 81 1613 
L 2172 4581 
L 2631 4581 
L 2631 1613 
L 3250 1613 
L 3250 1097 
L 2631 1097 
L 2631 0 
L 2069 0 
z
M 2069 1613 
L 2069 3678 
L 634 1613 
L 2069 1613 
z
" transform="scale(0.015625)"/>
       </defs>
       <use xlink:href="#ArialMT-30"/>
       <use xlink:href="#ArialMT-2e" transform="translate(55.615234 0)"/>
       <use xlink:href="#ArialMT-34" transform="translate(83.398438 0)"/>
      </g>
     </g>
    </g>
    <g id="xtick_4">
     <g id="line2d_7">
      <path d="M 186.346935 265.022801 
L 186.346935 19.751719 
" clip-path="url(#pf117f071c5)" style="fill: none; stroke: #c0c0c0; stroke-width: 0.25; stroke-linecap: round"/>
     </g>
     <g id="line2d_8"/>
     <g id="text_4">
      <!-- 0.6 -->
      <g style="fill: #333333" transform="translate(180.091935 274.964832) scale(0.09 -0.09)">
       <defs>
        <path id="ArialMT-36" d="M 3184 3459 
L 2625 3416 
Q 2550 3747 2413 3897 
Q 2184 4138 1850 4138 
Q 1581 4138 1378 3988 
Q 1113 3794 959 3422 
Q 806 3050 800 2363 
Q 1003 2672 1297 2822 
Q 1591 2972 1913 2972 
Q 2475 2972 2870 2558 
Q 3266 2144 3266 1488 
Q 3266 1056 3080 686 
Q 2894 316 2569 119 
Q 2244 -78 1831 -78 
Q 1128 -78 684 439 
Q 241 956 241 2144 
Q 241 3472 731 4075 
Q 1159 4600 1884 4600 
Q 2425 4600 2770 4297 
Q 3116 3994 3184 3459 
z
M 888 1484 
Q 888 1194 1011 928 
Q 1134 663 1356 523 
Q 1578 384 1822 384 
Q 2178 384 2434 671 
Q 2691 959 2691 1453 
Q 2691 1928 2437 2201 
Q 2184 2475 1800 2475 
Q 1419 2475 1153 2201 
Q 888 1928 888 1484 
z
" transform="scale(0.015625)"/>
       </defs>
       <use xlink:href="#ArialMT-30"/>
       <use xlink:href="#ArialMT-2e" transform="translate(55.615234 0)"/>
       <use xlink:href="#ArialMT-36" transform="translate(83.398438 0)"/>
      </g>
     </g>
    </g>
    <g id="xtick_5">
     <g id="line2d_9">
      <path d="M 234.185346 265.022801 
L 234.185346 19.751719 
" clip-path="url(#pf117f071c5)" style="fill: none; stroke: #c0c0c0; stroke-width: 0.25; stroke-linecap: round"/>
     </g>
     <g id="line2d_10"/>
     <g id="text_5">
      <!-- 0.8 -->
      <g style="fill: #333333" transform="translate(227.930346 274.964832) scale(0.09 -0.09)">
       <defs>
        <path id="ArialMT-38" d="M 1131 2484 
Q 781 2613 612 2850 
Q 444 3088 444 3419 
Q 444 3919 803 4259 
Q 1163 4600 1759 4600 
Q 2359 4600 2725 4251 
Q 3091 3903 3091 3403 
Q 3091 3084 2923 2848 
Q 2756 2613 2416 2484 
Q 2838 2347 3058 2040 
Q 3278 1734 3278 1309 
Q 3278 722 2862 322 
Q 2447 -78 1769 -78 
Q 1091 -78 675 323 
Q 259 725 259 1325 
Q 259 1772 486 2073 
Q 713 2375 1131 2484 
z
M 1019 3438 
Q 1019 3113 1228 2906 
Q 1438 2700 1772 2700 
Q 2097 2700 2305 2904 
Q 2513 3109 2513 3406 
Q 2513 3716 2298 3927 
Q 2084 4138 1766 4138 
Q 1444 4138 1231 3931 
Q 1019 3725 1019 3438 
z
M 838 1322 
Q 838 1081 952 856 
Q 1066 631 1291 507 
Q 1516 384 1775 384 
Q 2178 384 2440 643 
Q 2703 903 2703 1303 
Q 2703 1709 2433 1975 
Q 2163 2241 1756 2241 
Q 1359 2241 1098 1978 
Q 838 1716 838 1322 
z
" transform="scale(0.015625)"/>
       </defs>
       <use xlink:href="#ArialMT-30"/>
       <use xlink:href="#ArialMT-2e" transform="translate(55.615234 0)"/>
       <use xlink:href="#ArialMT-38" transform="translate(83.398438 0)"/>
      </g>
     </g>
    </g>
    <g id="xtick_6">
     <g id="line2d_11">
      <path d="M 282.023758 265.022801 
L 282.023758 19.751719 
" clip-path="url(#pf117f071c5)" style="fill: none; stroke: #c0c0c0; stroke-width: 0.25; stroke-linecap: round"/>
     </g>
     <g id="line2d_12"/>
     <g id="text_6">
      <!-- 1.0 -->
      <g style="fill: #333333" transform="translate(275.768758 274.964832) scale(0.09 -0.09)">
       <defs>
        <path id="ArialMT-31" d="M 2384 0 
L 1822 0 
L 1822 3584 
Q 1619 3391 1289 3197 
Q 959 3003 697 2906 
L 697 3450 
Q 1169 3672 1522 3987 
Q 1875 4303 2022 4600 
L 2384 4600 
L 2384 0 
z
" transform="scale(0.015625)"/>
       </defs>
       <use xlink:href="#ArialMT-31"/>
       <use xlink:href="#ArialMT-2e" transform="translate(55.615234 0)"/>
       <use xlink:href="#ArialMT-30" transform="translate(83.398438 0)"/>
      </g>
     </g>
    </g>
    <g id="text_7">
     <!-- False Positive Rate (FPR) -->
     <g style="fill: #333333" transform="translate(108.165463 287.305301) scale(0.09 -0.09)">
      <defs>
       <path id="Arial-BoldMT-46" d="M 472 0 
L 472 4581 
L 3613 4581 
L 3613 3806 
L 1397 3806 
L 1397 2722 
L 3309 2722 
L 3309 1947 
L 1397 1947 
L 1397 0 
L 472 0 
z
" transform="scale(0.015625)"/>
       <path id="Arial-BoldMT-61" d="M 1116 2306 
L 319 2450 
Q 453 2931 781 3162 
Q 1109 3394 1756 3394 
Q 2344 3394 2631 3255 
Q 2919 3116 3036 2902 
Q 3153 2688 3153 2116 
L 3144 1091 
Q 3144 653 3186 445 
Q 3228 238 3344 0 
L 2475 0 
Q 2441 88 2391 259 
Q 2369 338 2359 363 
Q 2134 144 1878 34 
Q 1622 -75 1331 -75 
Q 819 -75 523 203 
Q 228 481 228 906 
Q 228 1188 362 1408 
Q 497 1628 739 1745 
Q 981 1863 1438 1950 
Q 2053 2066 2291 2166 
L 2291 2253 
Q 2291 2506 2166 2614 
Q 2041 2722 1694 2722 
Q 1459 2722 1328 2630 
Q 1197 2538 1116 2306 
z
M 2291 1594 
Q 2122 1538 1756 1459 
Q 1391 1381 1278 1306 
Q 1106 1184 1106 997 
Q 1106 813 1243 678 
Q 1381 544 1594 544 
Q 1831 544 2047 700 
Q 2206 819 2256 991 
Q 2291 1103 2291 1419 
L 2291 1594 
z
" transform="scale(0.015625)"/>
       <path id="Arial-BoldMT-6c" d="M 459 0 
L 459 4581 
L 1338 4581 
L 1338 0 
L 459 0 
z
" transform="scale(0.015625)"/>
       <path id="Arial-BoldMT-73" d="M 150 947 
L 1031 1081 
Q 1088 825 1259 692 
Q 1431 559 1741 559 
Q 2081 559 2253 684 
Q 2369 772 2369 919 
Q 2369 1019 2306 1084 
Q 2241 1147 2013 1200 
Q 950 1434 666 1628 
Q 272 1897 272 2375 
Q 272 2806 612 3100 
Q 953 3394 1669 3394 
Q 2350 3394 2681 3172 
Q 3013 2950 3138 2516 
L 2309 2363 
Q 2256 2556 2107 2659 
Q 1959 2763 1684 2763 
Q 1338 2763 1188 2666 
Q 1088 2597 1088 2488 
Q 1088 2394 1175 2328 
Q 1294 2241 1995 2081 
Q 2697 1922 2975 1691 
Q 3250 1456 3250 1038 
Q 3250 581 2869 253 
Q 2488 -75 1741 -75 
Q 1063 -75 667 200 
Q 272 475 150 947 
z
" transform="scale(0.015625)"/>
       <path id="Arial-BoldMT-65" d="M 2381 1056 
L 3256 909 
Q 3088 428 2723 176 
Q 2359 -75 1813 -75 
Q 947 -75 531 491 
Q 203 944 203 1634 
Q 203 2459 634 2926 
Q 1066 3394 1725 3394 
Q 2466 3394 2894 2905 
Q 3322 2416 3303 1406 
L 1103 1406 
Q 1113 1016 1316 798 
Q 1519 581 1822 581 
Q 2028 581 2168 693 
Q 2309 806 2381 1056 
z
M 2431 1944 
Q 2422 2325 2234 2523 
Q 2047 2722 1778 2722 
Q 1491 2722 1303 2513 
Q 1116 2303 1119 1944 
L 2431 1944 
z
" transform="scale(0.015625)"/>
       <path id="Arial-BoldMT-20" transform="scale(0.015625)"/>
       <path id="Arial-BoldMT-50" d="M 466 0 
L 466 4581 
L 1950 4581 
Q 2794 4581 3050 4513 
Q 3444 4409 3709 4064 
Q 3975 3719 3975 3172 
Q 3975 2750 3822 2462 
Q 3669 2175 3433 2011 
Q 3197 1847 2953 1794 
Q 2622 1728 1994 1728 
L 1391 1728 
L 1391 0 
L 466 0 
z
M 1391 3806 
L 1391 2506 
L 1897 2506 
Q 2444 2506 2628 2578 
Q 2813 2650 2917 2803 
Q 3022 2956 3022 3159 
Q 3022 3409 2875 3571 
Q 2728 3734 2503 3775 
Q 2338 3806 1838 3806 
L 1391 3806 
z
" transform="scale(0.015625)"/>
       <path id="Arial-BoldMT-6f" d="M 256 1706 
Q 256 2144 472 2553 
Q 688 2963 1083 3178 
Q 1478 3394 1966 3394 
Q 2719 3394 3200 2905 
Q 3681 2416 3681 1669 
Q 3681 916 3195 420 
Q 2709 -75 1972 -75 
Q 1516 -75 1102 131 
Q 688 338 472 736 
Q 256 1134 256 1706 
z
M 1156 1659 
Q 1156 1166 1390 903 
Q 1625 641 1969 641 
Q 2313 641 2545 903 
Q 2778 1166 2778 1666 
Q 2778 2153 2545 2415 
Q 2313 2678 1969 2678 
Q 1625 2678 1390 2415 
Q 1156 2153 1156 1659 
z
" transform="scale(0.015625)"/>
       <path id="Arial-BoldMT-69" d="M 459 3769 
L 459 4581 
L 1338 4581 
L 1338 3769 
L 459 3769 
z
M 459 0 
L 459 3319 
L 1338 3319 
L 1338 0 
L 459 0 
z
" transform="scale(0.015625)"/>
       <path id="Arial-BoldMT-74" d="M 1981 3319 
L 1981 2619 
L 1381 2619 
L 1381 1281 
Q 1381 875 1398 808 
Q 1416 741 1477 697 
Q 1538 653 1625 653 
Q 1747 653 1978 738 
L 2053 56 
Q 1747 -75 1359 -75 
Q 1122 -75 931 4 
Q 741 84 652 211 
Q 563 338 528 553 
Q 500 706 500 1172 
L 500 2619 
L 97 2619 
L 97 3319 
L 500 3319 
L 500 3978 
L 1381 4491 
L 1381 3319 
L 1981 3319 
z
" transform="scale(0.015625)"/>
       <path id="Arial-BoldMT-76" d="M 1372 0 
L 34 3319 
L 956 3319 
L 1581 1625 
L 1763 1059 
Q 1834 1275 1853 1344 
Q 1897 1484 1947 1625 
L 2578 3319 
L 3481 3319 
L 2163 0 
L 1372 0 
z
" transform="scale(0.015625)"/>
       <path id="Arial-BoldMT-52" d="M 469 0 
L 469 4581 
L 2416 4581 
Q 3150 4581 3483 4457 
Q 3816 4334 4016 4018 
Q 4216 3703 4216 3297 
Q 4216 2781 3912 2445 
Q 3609 2109 3006 2022 
Q 3306 1847 3501 1637 
Q 3697 1428 4028 894 
L 4588 0 
L 3481 0 
L 2813 997 
Q 2456 1531 2325 1670 
Q 2194 1809 2047 1861 
Q 1900 1913 1581 1913 
L 1394 1913 
L 1394 0 
L 469 0 
z
M 1394 2644 
L 2078 2644 
Q 2744 2644 2909 2700 
Q 3075 2756 3169 2893 
Q 3263 3031 3263 3238 
Q 3263 3469 3139 3611 
Q 3016 3753 2791 3791 
Q 2678 3806 2116 3806 
L 1394 3806 
L 1394 2644 
z
" transform="scale(0.015625)"/>
       <path id="Arial-BoldMT-28" d="M 1916 -1347 
L 1313 -1347 
Q 834 -625 584 153 
Q 334 931 334 1659 
Q 334 2563 644 3369 
Q 913 4069 1325 4659 
L 1925 4659 
Q 1497 3713 1336 3048 
Q 1175 2384 1175 1641 
Q 1175 1128 1270 590 
Q 1366 53 1531 -431 
Q 1641 -750 1916 -1347 
z
" transform="scale(0.015625)"/>
       <path id="Arial-BoldMT-29" d="M 216 -1347 
Q 475 -791 581 -494 
Q 688 -197 778 190 
Q 869 578 912 926 
Q 956 1275 956 1641 
Q 956 2384 797 3048 
Q 638 3713 209 4659 
L 806 4659 
Q 1278 3988 1539 3234 
Q 1800 2481 1800 1706 
Q 1800 1053 1594 306 
Q 1359 -531 822 -1347 
L 216 -1347 
z
" transform="scale(0.015625)"/>
      </defs>
      <use xlink:href="#Arial-BoldMT-46"/>
      <use xlink:href="#Arial-BoldMT-61" transform="translate(61.083984 0)"/>
      <use xlink:href="#Arial-BoldMT-6c" transform="translate(116.699219 0)"/>
      <use xlink:href="#Arial-BoldMT-73" transform="translate(144.482422 0)"/>
      <use xlink:href="#Arial-BoldMT-65" transform="translate(200.097656 0)"/>
      <use xlink:href="#Arial-BoldMT-20" transform="translate(255.712891 0)"/>
      <use xlink:href="#Arial-BoldMT-50" transform="translate(283.496094 0)"/>
      <use xlink:href="#Arial-BoldMT-6f" transform="translate(350.195312 0)"/>
      <use xlink:href="#Arial-BoldMT-73" transform="translate(411.279297 0)"/>
      <use xlink:href="#Arial-BoldMT-69" transform="translate(466.894531 0)"/>
      <use xlink:href="#Arial-BoldMT-74" transform="translate(494.677734 0)"/>
      <use xlink:href="#Arial-BoldMT-69" transform="translate(527.978516 0)"/>
      <use xlink:href="#Arial-BoldMT-76" transform="translate(555.761719 0)"/>
      <use xlink:href="#Arial-BoldMT-65" transform="translate(611.376953 0)"/>
      <use xlink:href="#Arial-BoldMT-20" transform="translate(666.992188 0)"/>
      <use xlink:href="#Arial-BoldMT-52" transform="translate(694.775391 0)"/>
      <use xlink:href="#Arial-BoldMT-61" transform="translate(766.992188 0)"/>
      <use xlink:href="#Arial-BoldMT-74" transform="translate(822.607422 0)"/>
      <use xlink:href="#Arial-BoldMT-65" transform="translate(855.908203 0)"/>
      <use xlink:href="#Arial-BoldMT-20" transform="translate(911.523438 0)"/>
      <use xlink:href="#Arial-BoldMT-28" transform="translate(939.306641 0)"/>
      <use xlink:href="#Arial-BoldMT-46" transform="translate(972.607422 0)"/>
      <use xlink:href="#Arial-BoldMT-50" transform="translate(1033.691406 0)"/>
      <use xlink:href="#Arial-BoldMT-52" transform="translate(1100.390625 0)"/>
      <use xlink:href="#Arial-BoldMT-29" transform="translate(1172.607422 0)"/>
     </g>
    </g>
   </g>
   <g id="matplotlib.axis_2">
    <g id="ytick_1">
     <g id="line2d_13">
      <path d="M 35.655938 265.022801 
L 289.19952 265.022801 
" clip-path="url(#pf117f071c5)" style="fill: none; stroke: #c0c0c0; stroke-width: 0.25; stroke-linecap: round"/>
     </g>
     <g id="line2d_14"/>
     <g id="text_8">
      <!-- 0.0 -->
      <g style="fill: #333333" transform="translate(19.645938 268.243817) scale(0.09 -0.09)">
       <use xlink:href="#ArialMT-30"/>
       <use xlink:href="#ArialMT-2e" transform="translate(55.615234 0)"/>
       <use xlink:href="#ArialMT-30" transform="translate(83.398438 0)"/>
      </g>
     </g>
    </g>
    <g id="ytick_2">
     <g id="line2d_15">
      <path d="M 35.655938 217.397348 
L 289.19952 217.397348 
" clip-path="url(#pf117f071c5)" style="fill: none; stroke: #c0c0c0; stroke-width: 0.25; stroke-linecap: round"/>
     </g>
     <g id="line2d_16"/>
     <g id="text_9">
      <!-- 0.2 -->
      <g style="fill: #333333" transform="translate(19.645938 220.618364) scale(0.09 -0.09)">
       <use xlink:href="#ArialMT-30"/>
       <use xlink:href="#ArialMT-2e" transform="translate(55.615234 0)"/>
       <use xlink:href="#ArialMT-32" transform="translate(83.398438 0)"/>
      </g>
     </g>
    </g>
    <g id="ytick_3">
     <g id="line2d_17">
      <path d="M 35.655938 169.771895 
L 289.19952 169.771895 
" clip-path="url(#pf117f071c5)" style="fill: none; stroke: #c0c0c0; stroke-width: 0.25; stroke-linecap: round"/>
     </g>
     <g id="line2d_18"/>
     <g id="text_10">
      <!-- 0.4 -->
      <g style="fill: #333333" transform="translate(19.645938 172.992911) scale(0.09 -0.09)">
       <use xlink:href="#ArialMT-30"/>
       <use xlink:href="#ArialMT-2e" transform="translate(55.615234 0)"/>
       <use xlink:href="#ArialMT-34" transform="translate(83.398438 0)"/>
      </g>
     </g>
    </g>
    <g id="ytick_4">
     <g id="line2d_19">
      <path d="M 35.655938 122.146443 
L 289.19952 122.146443 
" clip-path="url(#pf117f071c5)" style="fill: none; stroke: #c0c0c0; stroke-width: 0.25; stroke-linecap: round"/>
     </g>
     <g id="line2d_20"/>
     <g id="text_11">
      <!-- 0.6 -->
      <g style="fill: #333333" transform="translate(19.645938 125.367458) scale(0.09 -0.09)">
       <use xlink:href="#ArialMT-30"/>
       <use xlink:href="#ArialMT-2e" transform="translate(55.615234 0)"/>
       <use xlink:href="#ArialMT-36" transform="translate(83.398438 0)"/>
      </g>
     </g>
    </g>
    <g id="ytick_5">
     <g id="line2d_21">
      <path d="M 35.655938 74.52099 
L 289.19952 74.52099 
" clip-path="url(#pf117f071c5)" style="fill: none; stroke: #c0c0c0; stroke-width: 0.25; stroke-linecap: round"/>
     </g>
     <g id="line2d_22"/>
     <g id="text_12">
      <!-- 0.8 -->
      <g style="fill: #333333" transform="translate(19.645938 77.742005) scale(0.09 -0.09)">
       <use xlink:href="#ArialMT-30"/>
       <use xlink:href="#ArialMT-2e" transform="translate(55.615234 0)"/>
       <use xlink:href="#ArialMT-38" transform="translate(83.398438 0)"/>
      </g>
     </g>
    </g>
    <g id="ytick_6">
     <g id="line2d_23">
      <path d="M 35.655938 26.895537 
L 289.19952 26.895537 
" clip-path="url(#pf117f071c5)" style="fill: none; stroke: #c0c0c0; stroke-width: 0.25; stroke-linecap: round"/>
     </g>
     <g id="line2d_24"/>
     <g id="text_13">
      <!-- 1.0 -->
      <g style="fill: #333333" transform="translate(19.645938 30.116552) scale(0.09 -0.09)">
       <use xlink:href="#ArialMT-31"/>
       <use xlink:href="#ArialMT-2e" transform="translate(55.615234 0)"/>
       <use xlink:href="#ArialMT-30" transform="translate(83.398438 0)"/>
      </g>
     </g>
    </g>
    <g id="text_14">
     <!-- True Positive Rate (TPR) -->
     <g style="fill: #333333" transform="translate(13.751719 194.647026) rotate(-90) scale(0.09 -0.09)">
      <defs>
       <path id="Arial-BoldMT-54" d="M 1497 0 
L 1497 3806 
L 138 3806 
L 138 4581 
L 3778 4581 
L 3778 3806 
L 2422 3806 
L 2422 0 
L 1497 0 
z
" transform="scale(0.015625)"/>
       <path id="Arial-BoldMT-72" d="M 1300 0 
L 422 0 
L 422 3319 
L 1238 3319 
L 1238 2847 
Q 1447 3181 1614 3287 
Q 1781 3394 1994 3394 
Q 2294 3394 2572 3228 
L 2300 2463 
Q 2078 2606 1888 2606 
Q 1703 2606 1575 2504 
Q 1447 2403 1373 2137 
Q 1300 1872 1300 1025 
L 1300 0 
z
" transform="scale(0.015625)"/>
       <path id="Arial-BoldMT-75" d="M 2644 0 
L 2644 497 
Q 2463 231 2167 78 
Q 1872 -75 1544 -75 
Q 1209 -75 943 72 
Q 678 219 559 484 
Q 441 750 441 1219 
L 441 3319 
L 1319 3319 
L 1319 1794 
Q 1319 1094 1367 936 
Q 1416 778 1544 686 
Q 1672 594 1869 594 
Q 2094 594 2272 717 
Q 2450 841 2515 1023 
Q 2581 1206 2581 1919 
L 2581 3319 
L 3459 3319 
L 3459 0 
L 2644 0 
z
" transform="scale(0.015625)"/>
      </defs>
      <use xlink:href="#Arial-BoldMT-54"/>
      <use xlink:href="#Arial-BoldMT-72" transform="translate(55.583984 0)"/>
      <use xlink:href="#Arial-BoldMT-75" transform="translate(94.5 0)"/>
      <use xlink:href="#Arial-BoldMT-65" transform="translate(155.583984 0)"/>
      <use xlink:href="#Arial-BoldMT-20" transform="translate(211.199219 0)"/>
      <use xlink:href="#Arial-BoldMT-50" transform="translate(238.982422 0)"/>
      <use xlink:href="#Arial-BoldMT-6f" transform="translate(305.681641 0)"/>
      <use xlink:href="#Arial-BoldMT-73" transform="translate(366.765625 0)"/>
      <use xlink:href="#Arial-BoldMT-69" transform="translate(422.380859 0)"/>
      <use xlink:href="#Arial-BoldMT-74" transform="translate(450.164062 0)"/>
      <use xlink:href="#Arial-BoldMT-69" transform="translate(483.464844 0)"/>
      <use xlink:href="#Arial-BoldMT-76" transform="translate(511.248047 0)"/>
      <use xlink:href="#Arial-BoldMT-65" transform="translate(566.863281 0)"/>
      <use xlink:href="#Arial-BoldMT-20" transform="translate(622.478516 0)"/>
      <use xlink:href="#Arial-BoldMT-52" transform="translate(650.261719 0)"/>
      <use xlink:href="#Arial-BoldMT-61" transform="translate(722.478516 0)"/>
      <use xlink:href="#Arial-BoldMT-74" transform="translate(778.09375 0)"/>
      <use xlink:href="#Arial-BoldMT-65" transform="translate(811.394531 0)"/>
      <use xlink:href="#Arial-BoldMT-20" transform="translate(867.009766 0)"/>
      <use xlink:href="#Arial-BoldMT-28" transform="translate(894.792969 0)"/>
      <use xlink:href="#Arial-BoldMT-54" transform="translate(928.09375 0)"/>
      <use xlink:href="#Arial-BoldMT-50" transform="translate(989.177734 0)"/>
      <use xlink:href="#Arial-BoldMT-52" transform="translate(1055.876953 0)"/>
      <use xlink:href="#Arial-BoldMT-29" transform="translate(1128.09375 0)"/>
     </g>
    </g>
   </g>
   <g id="line2d_25">
    <path d="M 42.831699 265.022801 
L 42.831813 264.969314 
L 42.942163 242.825403 
L 42.943987 242.718428 
L 43.054565 233.35808 
L 43.056617 233.251104 
L 43.167195 226.672116 
L 43.170102 226.565141 
L 43.279968 220.681493 
L 43.284214 220.574518 
L 43.395305 216.242014 
L 43.400264 216.135038 
L 43.511298 212.765313 
L 43.513635 212.658338 
L 43.621221 210.358366 
L 43.627861 210.251391 
L 43.736928 207.790956 
L 43.747245 207.683981 
L 43.852836 204.956108 
L 43.862839 204.849133 
L 43.972135 202.763112 
L 43.981568 202.656137 
L 44.089068 200.088727 
L 44.094797 199.981751 
L 44.204634 197.414342 
L 44.214665 197.307366 
L 44.313502 195.863198 
L 44.332511 195.756223 
L 44.441407 194.151592 
L 44.44725 194.044616 
L 44.554664 192.54696 
L 44.56994 192.439985 
L 44.671256 191.15628 
L 44.683624 191.049305 
L 44.791922 189.28421 
L 44.811901 189.177235 
L 44.92094 187.947018 
L 44.942827 187.840042 
L 45.050498 186.181923 
L 45.06908 186.074948 
L 45.175953 184.737755 
L 45.182023 184.63078 
L 45.289894 183.133124 
L 45.308305 183.026149 
L 45.412527 181.36803 
L 45.447097 181.261055 
L 45.552232 180.244788 
L 45.55816 180.244788 
L 45.575972 180.137813 
L 45.685467 178.747132 
L 45.704676 178.640157 
L 45.814655 177.570403 
L 45.826568 177.463427 
L 45.93441 175.965772 
L 45.953419 175.858796 
L 46.056673 174.200677 
L 46.068357 174.093702 
L 46.177795 173.184411 
L 46.187115 173.077436 
L 46.291993 171.847218 
L 46.307924 171.740243 
L 46.414683 170.40305 
L 46.426283 170.296075 
L 46.535778 169.386784 
L 46.550455 169.279809 
L 46.653509 168.477493 
L 46.680783 168.370518 
L 46.783951 167.407739 
L 46.809772 167.300763 
L 46.90761 166.177522 
L 46.947624 166.070546 
L 47.057518 165.161255 
L 47.070599 165.05428 
L 47.174879 164.626378 
L 47.198704 164.519403 
L 47.303383 163.663599 
L 47.334476 163.556624 
L 47.443401 162.540358 
L 47.474864 162.433382 
L 47.584673 160.989214 
L 47.593536 160.882239 
L 47.703687 159.545046 
L 47.712863 159.438071 
L 47.822529 158.582267 
L 47.833844 158.475292 
L 47.936755 157.672976 
L 47.976199 157.566001 
L 48.067283 156.710198 
L 48.095298 156.603222 
L 48.206389 155.640444 
L 48.22574 155.533468 
L 48.326913 154.998591 
L 48.35299 154.891616 
L 48.462172 153.447448 
L 48.502698 153.340472 
L 48.61225 152.324206 
L 48.649527 152.217231 
L 48.755432 151.468403 
L 48.781794 151.361427 
L 48.891773 150.345161 
L 48.911751 150.238185 
L 49.016829 149.756796 
L 49.061858 149.649821 
L 49.166993 148.900993 
L 49.246335 148.794017 
L 49.337448 148.205653 
L 49.363867 148.098677 
L 49.473391 147.456825 
L 49.474474 147.456825 
L 49.484306 147.349849 
L 49.593145 146.707997 
L 49.628314 146.601021 
L 49.739319 145.798706 
L 49.772293 145.69173 
L 49.867254 145.049878 
L 49.900769 144.942903 
L 50.011005 144.087099 
L 50.041243 143.980124 
L 50.143328 143.338271 
L 50.187445 143.231296 
L 50.297681 142.642931 
L 50.326095 142.535956 
L 50.42724 141.840616 
L 50.463235 141.73364 
L 50.566659 141.145275 
L 50.582904 141.0383 
L 50.678976 140.770862 
L 50.687298 140.770862 
L 50.709043 140.663886 
L 50.81925 140.129009 
L 50.88953 140.022034 
L 50.996916 139.326693 
L 51.047902 139.219718 
L 51.150642 138.47089 
L 51.195387 138.363915 
L 51.303799 137.77555 
L 51.348001 137.668575 
L 51.452395 137.133698 
L 51.476107 137.026722 
L 51.540002 136.812771 
L 51.583407 136.812771 
L 51.607746 136.705796 
L 51.675916 136.38487 
L 51.70168 136.38487 
L 51.736221 136.277894 
L 51.841185 135.743017 
L 51.927823 135.636042 
L 51.993885 135.047677 
L 52.08648 134.940702 
L 52.186998 134.619775 
L 52.209284 134.5128 
L 52.319492 133.977923 
L 52.346395 133.870948 
L 52.447255 133.33607 
L 52.493424 133.229095 
L 52.594939 132.533755 
L 52.603746 132.533755 
L 52.671603 132.426779 
L 52.772263 132.159341 
L 52.827039 132.052366 
L 52.922883 131.677952 
L 52.950898 131.570976 
L 53.037194 130.982611 
L 53.127737 130.875636 
L 53.224807 130.180296 
L 53.299561 130.07332 
L 53.404895 129.431468 
L 53.430031 129.324493 
L 53.531689 128.736128 
L 53.56073 128.629152 
L 53.666349 127.880325 
L 53.736258 127.773349 
L 53.831703 127.238472 
L 53.915264 127.131497 
L 54.016123 126.59662 
L 54.102591 126.489644 
L 54.198634 125.901279 
L 54.235598 125.794304 
L 54.337256 125.41989 
L 54.37117 125.312915 
L 54.475849 124.72455 
L 54.548351 124.617575 
L 54.646931 123.922234 
L 54.686973 123.815259 
L 54.756397 123.494333 
L 54.768595 123.494333 
L 54.812541 123.387357 
L 54.909012 123.012943 
L 54.929817 122.905968 
L 55.026658 122.478066 
L 55.028083 122.478066 
L 55.061427 122.371091 
L 55.16642 121.889702 
L 55.193751 121.782726 
L 55.296206 121.247849 
L 55.406613 121.140874 
L 55.488834 120.659484 
L 55.58217 120.552509 
L 55.660515 120.231583 
L 55.736808 120.124607 
L 55.837839 119.857169 
L 55.91 119.750193 
L 55.994558 119.215316 
L 56.001711 119.215316 
L 56.05757 119.108341 
L 56.163759 118.733927 
L 56.239539 118.626951 
L 56.337321 118.306025 
L 56.363512 118.19905 
L 56.471497 117.450222 
L 56.50353 117.343247 
L 56.591707 116.80837 
L 56.686525 116.701394 
L 56.794681 116.32698 
L 56.850027 116.220005 
L 56.955304 115.63164 
L 57.025071 115.524665 
L 57.132742 115.150251 
L 57.163464 115.043275 
L 57.25546 114.561886 
L 57.260647 114.561886 
L 57.347058 114.45491 
L 57.45034 113.973521 
L 57.500898 113.866546 
L 57.585257 113.599107 
L 57.600276 113.599107 
L 57.661151 113.492132 
L 57.765174 112.850279 
L 57.839586 112.743304 
L 57.929302 112.315402 
L 57.968803 112.208427 
L 58.059545 111.940988 
L 58.09896 111.834013 
L 58.205833 111.459599 
L 58.293412 111.352624 
L 58.395582 110.817747 
L 58.422714 110.710771 
L 58.496955 110.336357 
L 58.581941 110.229382 
L 58.691464 109.854968 
L 58.784572 109.747992 
L 58.890334 109.480554 
L 58.994186 109.373578 
L 59.0961 108.892189 
L 59.149707 108.785214 
L 59.252248 108.571263 
L 59.324495 108.464287 
L 59.424927 108.089874 
L 59.457758 107.982898 
L 59.541091 107.608484 
L 59.560385 107.608484 
L 59.586889 107.501509 
L 59.682049 106.966632 
L 59.687151 106.966632 
L 59.838796 106.859656 
L 59.921017 106.271292 
L 59.941936 106.271292 
L 60.035899 106.164316 
L 60.13046 106.003853 
L 60.17643 105.896878 
L 60.278515 105.575951 
L 60.394679 105.468976 
L 60.477014 105.094562 
L 60.498674 105.094562 
L 60.545128 104.987587 
L 60.61592 104.506197 
L 60.7939 104.399222 
L 60.895557 104.078296 
L 60.90063 104.078296 
L 60.929728 103.97132 
L 60.983963 103.703882 
L 61.000834 103.703882 
L 61.10272 103.596906 
L 61.206544 103.329468 
L 61.406981 103.222492 
L 61.487292 102.901566 
L 61.641189 102.794591 
L 61.712324 102.473664 
L 61.73424 102.473664 
L 61.865737 102.366689 
L 61.942885 102.206226 
L 62.126365 102.099251 
L 62.227053 101.724837 
L 62.324493 101.617861 
L 62.431908 101.350423 
L 62.465822 101.243447 
L 62.552404 101.082984 
L 62.697608 100.976009 
L 62.796188 100.494619 
L 62.799067 100.494619 
L 62.876927 100.387644 
L 62.923182 100.173693 
L 62.971716 100.173693 
L 63.203189 100.066718 
L 63.307896 99.692304 
L 63.312513 99.692304 
L 63.428364 99.585328 
L 63.536263 99.157427 
L 63.702956 99.050451 
L 63.788626 98.943476 
L 63.811767 98.943476 
L 63.887519 98.8365 
L 63.99747 98.62255 
L 64.044665 98.515574 
L 64.155728 98.034185 
L 64.25653 97.927209 
L 64.362377 97.766746 
L 64.488231 97.659771 
L 64.594278 97.392332 
L 64.704485 97.285357 
L 64.769578 97.124894 
L 64.917604 97.017919 
L 65.015842 96.75048 
L 65.116987 96.643505 
L 65.169312 96.376066 
L 65.215852 96.376066 
L 65.337573 96.269091 
L 65.417514 96.162115 
L 65.443961 96.162115 
L 65.511192 96.05514 
L 65.604072 95.734214 
L 65.659988 95.627238 
L 65.722059 95.520263 
L 65.750416 95.520263 
L 65.826197 95.413287 
L 65.916796 95.038873 
L 65.919703 95.038873 
L 66.002979 94.931898 
L 66.107601 94.557484 
L 66.241149 94.450509 
L 66.351357 94.18307 
L 66.384046 94.076095 
L 66.384046 94.022607 
L 66.468005 94.022607 
L 66.55527 93.915632 
L 66.664566 93.327267 
L 66.74881 93.220291 
L 66.859075 92.738902 
L 66.985527 92.631927 
L 67.080117 92.417976 
L 67.091916 92.417976 
L 67.180977 92.311 
L 67.282463 91.883099 
L 67.375429 91.776123 
L 67.482159 91.61566 
L 67.528214 91.508685 
L 67.613314 91.241246 
L 67.796309 91.134271 
L 67.893407 90.973808 
L 68.018292 90.866832 
L 68.11271 90.706369 
L 68.152239 90.599394 
L 68.236455 90.171492 
L 68.262817 90.171492 
L 68.34273 90.064517 
L 68.440739 89.850566 
L 68.527435 89.743591 
L 68.600223 89.422664 
L 68.720462 89.315689 
L 68.781337 89.155226 
L 68.812487 89.155226 
L 68.871623 89.04825 
L 68.97197 88.566861 
L 68.97881 88.566861 
L 69.019165 88.459886 
L 69.086937 88.245935 
L 69.123331 88.245935 
L 69.324651 88.138959 
L 69.434688 87.711058 
L 69.467205 87.604082 
L 69.555354 87.336644 
L 69.690299 87.229668 
L 69.79438 87.015718 
L 69.972273 86.908742 
L 70.076069 86.694791 
L 70.159401 86.587816 
L 70.226033 86.427353 
L 70.259976 86.427353 
L 70.38449 86.320377 
L 70.475603 86.159914 
L 70.489112 86.159914 
L 70.688893 86.052939 
L 70.750623 85.838988 
L 70.793971 85.838988 
L 70.834839 85.732013 
L 70.920822 85.57155 
L 70.940572 85.57155 
L 70.997713 85.464574 
L 71.063775 85.304111 
L 71.10282 85.304111 
L 71.226422 85.197136 
L 71.226422 85.143648 
L 71.311664 85.143648 
L 71.523842 85.036672 
L 71.63442 84.822722 
L 71.788061 84.715746 
L 71.849107 84.501795 
L 71.885358 84.501795 
L 71.969489 84.39482 
L 72.057723 84.287845 
L 72.098848 84.180869 
L 72.098848 84.127381 
L 72.182095 84.127381 
L 72.318921 84.020406 
L 72.425167 83.752968 
L 72.517135 83.645992 
L 72.625234 83.271578 
L 72.870899 83.164603 
L 72.956113 82.950652 
L 72.972329 82.950652 
L 73.05569 82.843677 
L 73.156436 82.629726 
L 73.230506 82.52275 
L 73.292692 82.148336 
L 73.325181 82.148336 
L 73.544713 82.041361 
L 73.586065 81.82741 
L 73.72406 81.720435 
L 73.800894 81.452996 
L 73.927033 81.346021 
L 74.0308 81.239045 
L 74.17153 81.13207 
L 74.273216 80.971607 
L 74.337853 80.864631 
L 74.441762 80.650681 
L 74.559665 80.543705 
L 74.634077 80.383242 
L 74.649809 80.383242 
L 74.726957 80.276267 
L 74.77646 80.115804 
L 74.815961 80.115804 
L 74.933607 80.008828 
L 74.997531 79.848365 
L 75.026144 79.848365 
L 75.290506 79.74139 
L 75.382274 79.473951 
L 75.523147 79.366976 
L 75.571397 79.206513 
L 75.684824 79.099537 
L 75.788848 78.939074 
L 75.908887 78.832099 
L 75.967511 78.56466 
L 75.998604 78.56466 
L 76.110293 78.457685 
L 76.217252 78.190246 
L 76.487484 78.083271 
L 76.526329 77.976295 
L 76.888415 77.86932 
L 76.888415 77.815832 
L 76.938574 77.815832 
L 77.116154 77.708857 
L 77.116154 77.655369 
L 77.208749 77.655369 
L 77.413461 77.548394 
L 77.485679 77.387931 
L 77.554448 77.280955 
L 77.554448 77.227467 
L 77.640887 77.227467 
L 77.7318 77.120492 
L 77.781788 77.013517 
L 77.820719 77.013517 
L 77.926195 76.906541 
L 77.980515 76.746078 
L 78.010782 76.746078 
L 78.380705 76.639103 
L 78.488746 76.47864 
L 78.712011 76.371664 
L 78.789701 76.157713 
L 78.802041 76.157713 
L 78.918405 76.050738 
L 78.963291 75.890275 
L 78.988257 75.890275 
L 79.11622 75.783299 
L 79.174615 75.569349 
L 79.226285 75.569349 
L 79.31868 75.462373 
L 79.367329 75.30191 
L 79.411702 75.30191 
L 79.617497 75.194935 
L 79.703081 75.034472 
L 79.988817 74.927496 
L 80.078448 74.767033 
L 80.079417 74.767033 
L 80.223026 74.660058 
L 80.223026 74.60657 
L 80.325937 74.60657 
L 80.528027 74.499595 
L 80.528027 74.446107 
L 80.576533 74.446107 
L 80.801394 74.339131 
L 80.801394 74.285644 
L 80.867827 74.285644 
L 81.136605 74.178668 
L 81.237151 73.857742 
L 81.382869 73.750767 
L 81.437218 73.643791 
L 81.590346 73.536816 
L 81.664615 73.42984 
L 81.666696 73.42984 
L 82.039241 73.322865 
L 82.039241 73.269377 
L 82.076974 73.269377 
L 82.326174 73.162402 
L 82.326174 73.108914 
L 82.426777 73.108914 
L 82.548014 73.001939 
L 82.63622 72.841476 
L 82.649073 72.841476 
L 82.729442 72.7345 
L 82.772675 72.627525 
L 82.825086 72.627525 
L 82.903288 72.520549 
L 82.965132 72.360086 
L 82.97277 72.360086 
L 83.183296 72.253111 
L 83.187913 72.146135 
L 83.456463 72.03916 
L 83.534866 71.932185 
L 83.752716 71.825209 
L 83.848987 71.664746 
L 83.855029 71.664746 
L 84.207852 71.557771 
L 84.308228 71.397308 
L 84.483272 71.290332 
L 84.483272 71.236844 
L 84.519352 71.236844 
L 84.859123 71.129869 
L 84.859123 71.076381 
L 85.184729 70.969406 
L 85.184729 70.915918 
L 85.270199 70.915918 
L 85.430309 70.808943 
L 85.510649 70.701967 
L 85.526495 70.701967 
L 85.752325 70.594992 
L 85.80351 70.434529 
L 85.967781 70.327553 
L 85.974792 70.220578 
L 86.004489 70.220578 
L 86.511067 70.113603 
L 86.511067 70.060115 
L 86.570716 70.060115 
L 86.671177 69.95314 
L 86.671177 69.899652 
L 87.016733 69.792676 
L 87.10645 69.578726 
L 87.126371 69.578726 
L 87.21717 69.47175 
L 87.21717 69.418263 
L 87.2335 69.418263 
L 87.353312 69.311287 
L 87.360238 69.204312 
L 87.362689 69.204312 
L 87.879641 69.097336 
L 87.987255 68.936873 
L 88.075204 68.829898 
L 88.088856 68.722922 
L 88.184842 68.722922 
L 88.322494 68.615947 
L 88.426546 68.508972 
L 88.721174 68.401996 
L 88.81753 68.295021 
L 88.928906 68.188045 
L 88.928906 68.134558 
L 88.970202 68.134558 
L 89.397409 68.027582 
L 89.49103 67.867119 
L 89.954061 67.760144 
L 89.980851 67.653168 
L 90.405778 67.546193 
L 90.50812 67.38573 
L 90.513449 67.38573 
L 90.838828 67.278754 
L 90.850085 67.171779 
L 91.060269 67.064803 
L 91.118151 66.850853 
L 91.128896 66.850853 
L 91.49919 66.743877 
L 91.49919 66.69039 
L 91.53869 66.69039 
L 92.027228 66.583414 
L 92.117087 66.422951 
L 92.306694 66.315976 
L 92.306694 66.262488 
L 92.33451 66.262488 
L 92.613833 66.155512 
L 92.712071 65.995049 
L 93.251994 65.888074 
L 93.267013 65.781099 
L 93.329284 65.781099 
L 93.529921 65.674123 
L 93.558506 65.51366 
L 93.600742 65.51366 
L 93.822012 65.406685 
L 93.930139 65.299709 
L 94.088083 65.192734 
L 94.151608 64.925295 
L 94.177913 64.925295 
L 94.295103 64.81832 
L 94.390548 64.604369 
L 94.754828 64.497394 
L 94.857227 64.33693 
L 95.077728 64.229955 
L 95.180326 64.12298 
L 95.527706 64.016004 
L 95.625203 63.855541 
L 96.001767 63.748566 
L 96.001767 63.695078 
L 96.257207 63.588103 
L 96.327801 63.481127 
L 96.757117 63.374152 
L 96.852619 63.267176 
L 97.225933 63.160201 
L 97.24899 63.053226 
L 97.313284 63.053226 
L 97.855288 62.94625 
L 97.898122 62.839275 
L 97.918272 62.839275 
L 98.238606 62.732299 
L 98.34545 62.625324 
L 98.648742 62.518349 
L 98.759092 62.357885 
L 98.830341 62.25091 
L 98.864568 62.143935 
L 98.912961 62.143935 
L 99.100658 62.036959 
L 99.116646 61.929984 
L 99.207047 61.929984 
L 99.336035 61.823008 
L 99.375194 61.716033 
L 99.42712 61.716033 
L 99.644314 61.609058 
L 99.644314 61.55557 
L 99.827424 61.448594 
L 99.834976 61.341619 
L 99.925034 61.341619 
L 100.299632 61.234644 
L 100.391941 61.07418 
L 100.84628 60.967205 
L 100.945002 60.86023 
L 101.358416 60.753254 
L 101.427755 60.646279 
L 101.71694 60.539303 
L 101.71694 60.485816 
L 102.059902 60.37884 
L 102.153267 60.271865 
L 102.31845 60.164889 
L 102.419252 60.004426 
L 102.850393 59.897451 
L 102.872394 59.790476 
L 103.196234 59.6835 
L 103.196234 59.630012 
L 103.699022 59.523037 
L 103.720567 59.362574 
L 103.959393 59.255598 
L 104.00998 59.148623 
L 104.259464 59.041648 
L 104.294205 58.934672 
L 104.345732 58.934672 
L 104.945019 58.827697 
L 105.038127 58.720721 
L 105.351479 58.613746 
L 105.460917 58.506771 
L 105.679166 58.399795 
L 105.694841 58.29282 
L 105.751469 58.29282 
L 106.095344 58.185844 
L 106.104236 58.078869 
L 106.45515 57.971894 
L 106.507475 57.864918 
L 106.851436 57.757943 
L 106.864032 57.650967 
L 107.196707 57.543992 
L 107.30281 57.437016 
L 107.62323 57.330041 
L 107.631096 57.223066 
L 108.213797 57.11609 
L 108.320955 57.009115 
L 108.508253 56.902139 
L 108.508253 56.848652 
L 108.764948 56.741676 
L 108.764948 56.688189 
L 108.802767 56.688189 
L 109.479573 56.581213 
L 109.553386 56.42075 
L 110.003393 56.313775 
L 110.003393 56.260287 
L 110.610831 56.153312 
L 110.647368 56.046336 
L 110.660477 56.046336 
L 111.398358 55.939361 
L 111.398358 55.885873 
L 111.472114 55.885873 
L 111.681272 55.778898 
L 111.736789 55.564947 
L 112.147039 55.457971 
L 112.248355 55.350996 
L 112.429156 55.244021 
L 112.490173 55.137045 
L 113.128619 55.03007 
L 113.201207 54.923094 
L 113.214772 54.923094 
L 113.862281 54.816119 
L 113.862281 54.762631 
L 113.925436 54.762631 
L 114.235225 54.655656 
L 114.235225 54.602168 
L 114.646758 54.495193 
L 114.723621 54.388217 
L 115.171262 54.281242 
L 115.240829 54.120779 
L 115.280273 54.120779 
L 116.413897 54.013803 
L 116.477052 53.85334 
L 117.072833 53.746365 
L 117.121197 53.639389 
L 117.127039 53.639389 
L 117.645417 53.532414 
L 117.747103 53.425439 
L 118.606248 53.318463 
L 118.716684 53.158 
L 119.279121 53.051025 
L 119.339084 52.944049 
L 119.831384 52.837074 
L 119.831384 52.783586 
L 119.921585 52.783586 
L 120.158074 52.676611 
L 120.158074 52.623123 
L 120.245054 52.623123 
L 120.746075 52.516148 
L 120.746075 52.46266 
L 121.150626 52.355684 
L 121.197621 52.195221 
L 121.473724 52.088246 
L 121.473724 52.034758 
L 121.579514 52.034758 
L 121.94274 51.927783 
L 121.94274 51.874295 
L 122.525868 51.76732 
L 122.525868 51.713832 
L 123.800023 51.606857 
L 123.867966 51.499881 
L 124.459587 51.392906 
L 124.459587 51.339418 
L 124.957786 51.232443 
L 124.984205 51.125467 
L 125.598284 51.018492 
L 125.60652 50.911516 
L 126.280647 50.804541 
L 126.386295 50.697566 
L 127.060821 50.59059 
L 127.131756 50.483615 
L 127.698896 50.376639 
L 127.698896 50.323152 
L 128.35749 50.216176 
L 128.375245 50.055713 
L 128.863071 49.948738 
L 128.973051 49.841762 
L 129.711871 49.734787 
L 129.791698 49.574324 
L 130.035768 49.467348 
L 130.035768 49.413861 
L 130.635255 49.306885 
L 130.635255 49.253398 
L 130.684245 49.253398 
L 131.91776 49.146422 
L 131.969857 49.039447 
L 132.554296 48.932471 
L 132.617137 48.825496 
L 133.179033 48.718521 
L 133.179033 48.665033 
L 133.6448 48.558057 
L 133.713342 48.397594 
L 134.045674 48.290619 
L 134.099966 48.183643 
L 135.649426 48.076668 
L 135.707821 47.969693 
L 136.001537 47.862717 
L 136.028897 47.755742 
L 136.38306 47.648766 
L 136.38306 47.595279 
L 136.489819 47.595279 
L 136.812005 47.488303 
L 136.812005 47.434816 
L 137.258991 47.32784 
L 137.307269 47.220865 
L 137.700876 47.113889 
L 137.739379 47.006914 
L 138.38646 46.899939 
L 138.433655 46.792963 
L 138.708846 46.685988 
L 138.708846 46.6325 
L 139.263617 46.525525 
L 139.263617 46.472037 
L 139.687005 46.365061 
L 139.754748 46.258086 
L 140.276631 46.151111 
L 140.370964 46.044135 
L 141.186477 45.93716 
L 141.217399 45.830184 
L 141.781404 45.723209 
L 141.781404 45.669721 
L 142.335291 45.562746 
L 142.335291 45.509258 
L 142.36513 45.509258 
L 142.772844 45.402283 
L 142.772844 45.348795 
L 143.866911 45.24182 
L 143.959876 45.134844 
L 144.525363 45.027869 
L 144.632977 44.813918 
L 146.464069 44.706943 
L 146.464069 44.653455 
L 146.50887 44.653455 
L 147.150166 44.546479 
L 147.229252 44.386016 
L 147.627732 44.279041 
L 147.689347 44.118578 
L 148.273558 44.011602 
L 148.273558 43.958115 
L 149.476636 43.851139 
L 149.476636 43.797652 
L 150.809272 43.690676 
L 150.809272 43.637188 
L 151.778055 43.530213 
L 151.839186 43.423238 
L 151.884358 43.423238 
L 152.609271 43.316262 
L 152.609271 43.262775 
L 154.04801 43.155799 
L 154.04801 43.102311 
L 155.163224 42.995336 
L 155.163224 42.941848 
L 156.648247 42.834873 
L 156.727703 42.727897 
L 157.633787 42.620922 
L 157.690387 42.513947 
L 158.285343 42.406971 
L 158.285343 42.353484 
L 159.171591 42.246508 
L 159.171591 42.19302 
L 159.951565 42.086045 
L 159.957322 41.97907 
L 159.979495 41.97907 
L 160.220087 41.872094 
L 160.309747 41.765119 
L 161.613997 41.658143 
L 161.659397 41.551168 
L 162.20046 41.444193 
L 162.210976 41.230242 
L 162.884105 41.123266 
L 162.954186 41.016291 
L 163.717744 40.909316 
L 163.717744 40.855828 
L 164.614651 40.748852 
L 164.614651 40.695365 
L 165.167769 40.588389 
L 165.210433 40.481414 
L 166.297346 40.374438 
L 166.333199 40.267463 
L 166.389913 40.267463 
L 167.495978 40.160488 
L 167.495978 40.107 
L 167.521171 40.107 
L 168.465673 40.000025 
L 168.475363 39.893049 
L 168.551827 39.893049 
L 169.8642 39.786074 
L 169.8642 39.732586 
L 170.424955 39.625611 
L 170.424955 39.572123 
L 170.510568 39.572123 
L 171.466754 39.465147 
L 171.466754 39.41166 
L 171.480177 39.41166 
L 172.18135 39.304684 
L 172.18135 39.251197 
L 172.235927 39.251197 
L 174.260673 39.144221 
L 174.260673 39.090734 
L 175.041046 38.983758 
L 175.041046 38.93027 
L 176.327456 38.823295 
L 176.422644 38.662832 
L 176.861565 38.555856 
L 176.861565 38.502369 
L 178.353256 38.395393 
L 178.353256 38.341906 
L 178.886596 38.23493 
L 178.886596 38.181443 
L 179.39306 38.074467 
L 179.39306 38.020979 
L 180.781412 37.914004 
L 180.781412 37.860516 
L 181.945046 37.753541 
L 181.945046 37.700053 
L 182.594436 37.593078 
L 182.594436 37.53959 
L 182.606235 37.53959 
L 182.879773 37.432615 
L 182.879773 37.379127 
L 183.376832 37.272152 
L 183.376832 37.218664 
L 184.386882 37.111688 
L 184.434933 37.004713 
L 184.44599 37.004713 
L 186.406698 36.897738 
L 186.498096 36.790762 
L 187.409196 36.683787 
L 187.409196 36.630299 
L 188.117408 36.523324 
L 188.117408 36.469836 
L 188.153916 36.469836 
L 190.011655 36.362861 
L 190.011655 36.309373 
L 190.578253 36.202397 
L 190.636449 36.095422 
L 191.821601 35.988447 
L 191.91069 35.827983 
L 192.825409 35.721008 
L 192.825409 35.66752 
L 193.726478 35.560545 
L 193.726478 35.507057 
L 194.394762 35.400082 
L 194.394762 35.346594 
L 196.180968 35.239619 
L 196.180968 35.186131 
L 198.371267 35.079156 
L 198.371267 35.025668 
L 199.411612 34.918693 
L 199.411612 34.865205 
L 201.018584 34.758229 
L 201.018584 34.704742 
L 201.845753 34.597766 
L 201.845753 34.544279 
L 203.44315 34.437303 
L 203.548626 34.330328 
L 204.439121 34.223352 
L 204.439121 34.169865 
L 206.120933 34.062889 
L 206.197568 33.902426 
L 207.924295 33.795451 
L 207.924295 33.741963 
L 208.540596 33.634988 
L 208.619967 33.528012 
L 210.534192 33.421037 
L 210.534192 33.367549 
L 211.972305 33.260574 
L 211.972305 33.207086 
L 214.314564 33.100111 
L 214.314564 33.046623 
L 216.269714 32.939647 
L 216.269714 32.88616 
L 217.142796 32.779184 
L 217.142796 32.725697 
L 217.70948 32.618721 
L 217.70948 32.565233 
L 217.737409 32.565233 
L 219.862416 32.458258 
L 219.862416 32.40477 
L 222.378864 32.297795 
L 222.378864 32.244307 
L 224.176868 32.137332 
L 224.178521 32.030356 
L 225.202565 31.923381 
L 225.202565 31.869893 
L 227.007095 31.762918 
L 227.007095 31.70943 
L 228.89473 31.602455 
L 228.89473 31.548967 
L 229.510576 31.441992 
L 229.510576 31.388504 
L 230.456103 31.281529 
L 230.456103 31.228041 
L 232.328947 31.121065 
L 232.333763 31.01409 
L 233.998931 30.907115 
L 234.02384 30.800139 
L 236.772872 30.693164 
L 236.772872 30.639676 
L 237.574705 30.532701 
L 237.574705 30.479213 
L 239.640918 30.372238 
L 239.640918 30.31875 
L 242.545528 30.211774 
L 242.545528 30.158287 
L 244.167235 30.051311 
L 244.167235 29.997824 
L 245.085061 29.890848 
L 245.085061 29.83736 
L 246.146923 29.730385 
L 246.146923 29.676897 
L 247.58495 29.569922 
L 247.58495 29.516434 
L 248.640286 29.409459 
L 248.724958 29.302483 
L 251.152373 29.195508 
L 251.152373 29.14202 
L 252.233245 29.035045 
L 252.233245 28.981557 
L 255.702544 28.874582 
L 255.702544 28.821094 
L 256.510077 28.714119 
L 256.510077 28.660631 
L 258.568082 28.553656 
L 258.568082 28.500168 
L 262.896128 28.393192 
L 262.896128 28.339705 
L 265.310035 28.232729 
L 265.310035 28.179242 
L 267.844181 28.072266 
L 267.844181 28.018779 
L 269.48122 27.911803 
L 269.48122 27.858315 
L 273.817103 27.75134 
L 273.852898 27.644365 
L 274.849668 27.537389 
L 274.849668 27.483901 
L 275.760854 27.376926 
L 275.795024 27.269951 
L 277.878593 27.162975 
L 277.878593 27.109488 
L 280.694799 27.002512 
L 280.694799 26.949024 
L 282.023758 26.895537 
L 282.023758 26.895537 
" clip-path="url(#pf117f071c5)" style="fill: none; stroke: #1f77b4; stroke-width: 1.5; stroke-linecap: round"/>
   </g>
   <g id="line2d_26">
    <path d="M 42.831699 265.022801 
L 282.023758 26.895537 
" clip-path="url(#pf117f071c5)" style="fill: none; stroke-dasharray: 5.55,2.4; stroke-dashoffset: 0; stroke: #999999; stroke-width: 1.5"/>
   </g>
   <g id="patch_3">
    <path d="M 35.655938 265.022801 
L 35.655938 19.751719 
" style="fill: none"/>
   </g>
   <g id="patch_4">
    <path d="M 289.19952 265.022801 
L 289.19952 19.751719 
" style="fill: none"/>
   </g>
   <g id="patch_5">
    <path d="M 35.655938 265.022801 
L 289.19952 265.022801 
" style="fill: none"/>
   </g>
   <g id="patch_6">
    <path d="M 35.655938 19.751719 
L 289.19952 19.751719 
" style="fill: none"/>
   </g>
   <g id="text_15">
    <!-- Model 0: Receiver Operating Characteristic (ROC) Curve -->
    <g style="fill: #333333" transform="translate(42.14976 13.751719) scale(0.09 -0.09)">
     <defs>
      <path id="Arial-BoldMT-4d" d="M 453 0 
L 453 4581 
L 1838 4581 
L 2669 1456 
L 3491 4581 
L 4878 4581 
L 4878 0 
L 4019 0 
L 4019 3606 
L 3109 0 
L 2219 0 
L 1313 3606 
L 1313 0 
L 453 0 
z
" transform="scale(0.015625)"/>
      <path id="Arial-BoldMT-64" d="M 3503 0 
L 2688 0 
L 2688 488 
Q 2484 203 2207 64 
Q 1931 -75 1650 -75 
Q 1078 -75 670 386 
Q 263 847 263 1672 
Q 263 2516 659 2955 
Q 1056 3394 1663 3394 
Q 2219 3394 2625 2931 
L 2625 4581 
L 3503 4581 
L 3503 0 
z
M 1159 1731 
Q 1159 1200 1306 963 
Q 1519 619 1900 619 
Q 2203 619 2415 876 
Q 2628 1134 2628 1647 
Q 2628 2219 2422 2470 
Q 2216 2722 1894 2722 
Q 1581 2722 1370 2473 
Q 1159 2225 1159 1731 
z
" transform="scale(0.015625)"/>
      <path id="Arial-BoldMT-30" d="M 1756 4600 
Q 2422 4600 2797 4125 
Q 3244 3563 3244 2259 
Q 3244 959 2794 391 
Q 2422 -78 1756 -78 
Q 1088 -78 678 436 
Q 269 950 269 2269 
Q 269 3563 719 4131 
Q 1091 4600 1756 4600 
z
M 1756 3872 
Q 1597 3872 1472 3770 
Q 1347 3669 1278 3406 
Q 1188 3066 1188 2259 
Q 1188 1453 1269 1151 
Q 1350 850 1473 750 
Q 1597 650 1756 650 
Q 1916 650 2041 751 
Q 2166 853 2234 1116 
Q 2325 1453 2325 2259 
Q 2325 3066 2244 3367 
Q 2163 3669 2039 3770 
Q 1916 3872 1756 3872 
z
" transform="scale(0.015625)"/>
      <path id="Arial-BoldMT-3a" d="M 628 2441 
L 628 3319 
L 1506 3319 
L 1506 2441 
L 628 2441 
z
M 628 0 
L 628 878 
L 1506 878 
L 1506 0 
L 628 0 
z
" transform="scale(0.015625)"/>
      <path id="Arial-BoldMT-63" d="M 3353 2338 
L 2488 2181 
Q 2444 2441 2289 2572 
Q 2134 2703 1888 2703 
Q 1559 2703 1364 2476 
Q 1169 2250 1169 1719 
Q 1169 1128 1367 884 
Q 1566 641 1900 641 
Q 2150 641 2309 783 
Q 2469 925 2534 1272 
L 3397 1125 
Q 3263 531 2881 228 
Q 2500 -75 1859 -75 
Q 1131 -75 698 384 
Q 266 844 266 1656 
Q 266 2478 700 2936 
Q 1134 3394 1875 3394 
Q 2481 3394 2839 3133 
Q 3197 2872 3353 2338 
z
" transform="scale(0.015625)"/>
      <path id="Arial-BoldMT-4f" d="M 278 2263 
Q 278 2963 488 3438 
Q 644 3788 914 4066 
Q 1184 4344 1506 4478 
Q 1934 4659 2494 4659 
Q 3506 4659 4114 4031 
Q 4722 3403 4722 2284 
Q 4722 1175 4119 548 
Q 3516 -78 2506 -78 
Q 1484 -78 881 545 
Q 278 1169 278 2263 
z
M 1231 2294 
Q 1231 1516 1590 1114 
Q 1950 713 2503 713 
Q 3056 713 3411 1111 
Q 3766 1509 3766 2306 
Q 3766 3094 3420 3481 
Q 3075 3869 2503 3869 
Q 1931 3869 1581 3476 
Q 1231 3084 1231 2294 
z
" transform="scale(0.015625)"/>
      <path id="Arial-BoldMT-70" d="M 434 3319 
L 1253 3319 
L 1253 2831 
Q 1413 3081 1684 3237 
Q 1956 3394 2288 3394 
Q 2866 3394 3269 2941 
Q 3672 2488 3672 1678 
Q 3672 847 3265 386 
Q 2859 -75 2281 -75 
Q 2006 -75 1782 34 
Q 1559 144 1313 409 
L 1313 -1263 
L 434 -1263 
L 434 3319 
z
M 1303 1716 
Q 1303 1156 1525 889 
Q 1747 622 2066 622 
Q 2372 622 2575 867 
Q 2778 1113 2778 1672 
Q 2778 2194 2568 2447 
Q 2359 2700 2050 2700 
Q 1728 2700 1515 2451 
Q 1303 2203 1303 1716 
z
" transform="scale(0.015625)"/>
      <path id="Arial-BoldMT-6e" d="M 3478 0 
L 2600 0 
L 2600 1694 
Q 2600 2231 2544 2389 
Q 2488 2547 2361 2634 
Q 2234 2722 2056 2722 
Q 1828 2722 1647 2597 
Q 1466 2472 1398 2265 
Q 1331 2059 1331 1503 
L 1331 0 
L 453 0 
L 453 3319 
L 1269 3319 
L 1269 2831 
Q 1703 3394 2363 3394 
Q 2653 3394 2893 3289 
Q 3134 3184 3257 3021 
Q 3381 2859 3429 2653 
Q 3478 2447 3478 2063 
L 3478 0 
z
" transform="scale(0.015625)"/>
      <path id="Arial-BoldMT-67" d="M 378 -219 
L 1381 -341 
Q 1406 -516 1497 -581 
Q 1622 -675 1891 -675 
Q 2234 -675 2406 -572 
Q 2522 -503 2581 -350 
Q 2622 -241 2622 53 
L 2622 538 
Q 2228 0 1628 0 
Q 959 0 569 566 
Q 263 1013 263 1678 
Q 263 2513 664 2953 
Q 1066 3394 1663 3394 
Q 2278 3394 2678 2853 
L 2678 3319 
L 3500 3319 
L 3500 341 
Q 3500 -247 3403 -537 
Q 3306 -828 3131 -993 
Q 2956 -1159 2664 -1253 
Q 2372 -1347 1925 -1347 
Q 1081 -1347 728 -1058 
Q 375 -769 375 -325 
Q 375 -281 378 -219 
z
M 1163 1728 
Q 1163 1200 1367 954 
Q 1572 709 1872 709 
Q 2194 709 2416 961 
Q 2638 1213 2638 1706 
Q 2638 2222 2425 2472 
Q 2213 2722 1888 2722 
Q 1572 2722 1367 2476 
Q 1163 2231 1163 1728 
z
" transform="scale(0.015625)"/>
      <path id="Arial-BoldMT-43" d="M 3397 1684 
L 4294 1400 
Q 4088 650 3608 286 
Q 3128 -78 2391 -78 
Q 1478 -78 890 545 
Q 303 1169 303 2250 
Q 303 3394 893 4026 
Q 1484 4659 2447 4659 
Q 3288 4659 3813 4163 
Q 4125 3869 4281 3319 
L 3366 3100 
Q 3284 3456 3026 3662 
Q 2769 3869 2400 3869 
Q 1891 3869 1573 3503 
Q 1256 3138 1256 2319 
Q 1256 1450 1568 1081 
Q 1881 713 2381 713 
Q 2750 713 3015 947 
Q 3281 1181 3397 1684 
z
" transform="scale(0.015625)"/>
      <path id="Arial-BoldMT-68" d="M 1334 4581 
L 1334 2897 
Q 1759 3394 2350 3394 
Q 2653 3394 2897 3281 
Q 3141 3169 3264 2994 
Q 3388 2819 3433 2606 
Q 3478 2394 3478 1947 
L 3478 0 
L 2600 0 
L 2600 1753 
Q 2600 2275 2550 2415 
Q 2500 2556 2373 2639 
Q 2247 2722 2056 2722 
Q 1838 2722 1666 2615 
Q 1494 2509 1414 2295 
Q 1334 2081 1334 1663 
L 1334 0 
L 456 0 
L 456 4581 
L 1334 4581 
z
" transform="scale(0.015625)"/>
     </defs>
     <use xlink:href="#Arial-BoldMT-4d"/>
     <use xlink:href="#Arial-BoldMT-6f" transform="translate(83.300781 0)"/>
     <use xlink:href="#Arial-BoldMT-64" transform="translate(144.384766 0)"/>
     <use xlink:href="#Arial-BoldMT-65" transform="translate(205.46875 0)"/>
     <use xlink:href="#Arial-BoldMT-6c" transform="translate(261.083984 0)"/>
     <use xlink:href="#Arial-BoldMT-20" transform="translate(288.867188 0)"/>
     <use xlink:href="#Arial-BoldMT-30" transform="translate(316.650391 0)"/>
     <use xlink:href="#Arial-BoldMT-3a" transform="translate(372.265625 0)"/>
     <use xlink:href="#Arial-BoldMT-20" transform="translate(405.566406 0)"/>
     <use xlink:href="#Arial-BoldMT-52" transform="translate(433.349609 0)"/>
     <use xlink:href="#Arial-BoldMT-65" transform="translate(505.566406 0)"/>
     <use xlink:href="#Arial-BoldMT-63" transform="translate(561.181641 0)"/>
     <use xlink:href="#Arial-BoldMT-65" transform="translate(616.796875 0)"/>
     <use xlink:href="#Arial-BoldMT-69" transform="translate(672.412109 0)"/>
     <use xlink:href="#Arial-BoldMT-76" transform="translate(700.195312 0)"/>
     <use xlink:href="#Arial-BoldMT-65" transform="translate(755.810547 0)"/>
     <use xlink:href="#Arial-BoldMT-72" transform="translate(811.425781 0)"/>
     <use xlink:href="#Arial-BoldMT-20" transform="translate(850.341797 0)"/>
     <use xlink:href="#Arial-BoldMT-4f" transform="translate(878.125 0)"/>
     <use xlink:href="#Arial-BoldMT-70" transform="translate(955.908203 0)"/>
     <use xlink:href="#Arial-BoldMT-65" transform="translate(1016.992188 0)"/>
     <use xlink:href="#Arial-BoldMT-72" transform="translate(1072.607422 0)"/>
     <use xlink:href="#Arial-BoldMT-61" transform="translate(1111.523438 0)"/>
     <use xlink:href="#Arial-BoldMT-74" transform="translate(1167.138672 0)"/>
     <use xlink:href="#Arial-BoldMT-69" transform="translate(1200.439453 0)"/>
     <use xlink:href="#Arial-BoldMT-6e" transform="translate(1228.222656 0)"/>
     <use xlink:href="#Arial-BoldMT-67" transform="translate(1289.306641 0)"/>
     <use xlink:href="#Arial-BoldMT-20" transform="translate(1350.390625 0)"/>
     <use xlink:href="#Arial-BoldMT-43" transform="translate(1378.173828 0)"/>
     <use xlink:href="#Arial-BoldMT-68" transform="translate(1450.390625 0)"/>
     <use xlink:href="#Arial-BoldMT-61" transform="translate(1511.474609 0)"/>
     <use xlink:href="#Arial-BoldMT-72" transform="translate(1567.089844 0)"/>
     <use xlink:href="#Arial-BoldMT-61" transform="translate(1606.005859 0)"/>
     <use xlink:href="#Arial-BoldMT-63" transform="translate(1661.621094 0)"/>
     <use xlink:href="#Arial-BoldMT-74" transform="translate(1717.236328 0)"/>
     <use xlink:href="#Arial-BoldMT-65" transform="translate(1750.537109 0)"/>
     <use xlink:href="#Arial-BoldMT-72" transform="translate(1806.152344 0)"/>
     <use xlink:href="#Arial-BoldMT-69" transform="translate(1845.068359 0)"/>
     <use xlink:href="#Arial-BoldMT-73" transform="translate(1872.851562 0)"/>
     <use xlink:href="#Arial-BoldMT-74" transform="translate(1928.466797 0)"/>
     <use xlink:href="#Arial-BoldMT-69" transform="translate(1961.767578 0)"/>
     <use xlink:href="#Arial-BoldMT-63" transform="translate(1989.550781 0)"/>
     <use xlink:href="#Arial-BoldMT-20" transform="translate(2045.166016 0)"/>
     <use xlink:href="#Arial-BoldMT-28" transform="translate(2072.949219 0)"/>
     <use xlink:href="#Arial-BoldMT-52" transform="translate(2106.25 0)"/>
     <use xlink:href="#Arial-BoldMT-4f" transform="translate(2178.466797 0)"/>
     <use xlink:href="#Arial-BoldMT-43" transform="translate(2256.25 0)"/>
     <use xlink:href="#Arial-BoldMT-29" transform="translate(2328.466797 0)"/>
     <use xlink:href="#Arial-BoldMT-20" transform="translate(2361.767578 0)"/>
     <use xlink:href="#Arial-BoldMT-43" transform="translate(2389.550781 0)"/>
     <use xlink:href="#Arial-BoldMT-75" transform="translate(2461.767578 0)"/>
     <use xlink:href="#Arial-BoldMT-72" transform="translate(2522.851562 0)"/>
     <use xlink:href="#Arial-BoldMT-76" transform="translate(2561.767578 0)"/>
     <use xlink:href="#Arial-BoldMT-65" transform="translate(2617.382812 0)"/>
    </g>
   </g>
   <g id="legend_1">
    <g id="patch_7">
     <path d="M 182.577645 260.522801 
L 282.89952 260.522801 
Q 284.69952 260.522801 284.69952 258.722801 
L 284.69952 234.161239 
Q 284.69952 232.361239 282.89952 232.361239 
L 182.577645 232.361239 
Q 180.777645 232.361239 180.777645 234.161239 
L 180.777645 258.722801 
Q 180.777645 260.522801 182.577645 260.522801 
z
" style="fill: #ffffff; opacity: 0.8; stroke: #cccccc; stroke-width: 0.75; stroke-linejoin: miter"/>
    </g>
    <g id="line2d_27">
     <path d="M 184.377645 239.25327 
L 193.377645 239.25327 
L 202.377645 239.25327 
" style="fill: none; stroke: #1f77b4; stroke-width: 1.5; stroke-linecap: round"/>
    </g>
    <g id="text_16">
     <!-- ROC curve -->
     <g style="fill: #333333" transform="translate(209.577645 242.40327) scale(0.09 -0.09)">
      <defs>
       <path id="ArialMT-52" d="M 503 0 
L 503 4581 
L 2534 4581 
Q 3147 4581 3465 4457 
Q 3784 4334 3975 4021 
Q 4166 3709 4166 3331 
Q 4166 2844 3850 2509 
Q 3534 2175 2875 2084 
Q 3116 1969 3241 1856 
Q 3506 1613 3744 1247 
L 4541 0 
L 3778 0 
L 3172 953 
Q 2906 1366 2734 1584 
Q 2563 1803 2427 1890 
Q 2291 1978 2150 2013 
Q 2047 2034 1813 2034 
L 1109 2034 
L 1109 0 
L 503 0 
z
M 1109 2559 
L 2413 2559 
Q 2828 2559 3062 2645 
Q 3297 2731 3419 2920 
Q 3541 3109 3541 3331 
Q 3541 3656 3305 3865 
Q 3069 4075 2559 4075 
L 1109 4075 
L 1109 2559 
z
" transform="scale(0.015625)"/>
       <path id="ArialMT-4f" d="M 309 2231 
Q 309 3372 921 4017 
Q 1534 4663 2503 4663 
Q 3138 4663 3647 4359 
Q 4156 4056 4423 3514 
Q 4691 2972 4691 2284 
Q 4691 1588 4409 1038 
Q 4128 488 3612 205 
Q 3097 -78 2500 -78 
Q 1853 -78 1343 234 
Q 834 547 571 1087 
Q 309 1628 309 2231 
z
M 934 2222 
Q 934 1394 1379 917 
Q 1825 441 2497 441 
Q 3181 441 3623 922 
Q 4066 1403 4066 2288 
Q 4066 2847 3877 3264 
Q 3688 3681 3323 3911 
Q 2959 4141 2506 4141 
Q 1863 4141 1398 3698 
Q 934 3256 934 2222 
z
" transform="scale(0.015625)"/>
       <path id="ArialMT-43" d="M 3763 1606 
L 4369 1453 
Q 4178 706 3683 314 
Q 3188 -78 2472 -78 
Q 1731 -78 1267 223 
Q 803 525 561 1097 
Q 319 1669 319 2325 
Q 319 3041 592 3573 
Q 866 4106 1370 4382 
Q 1875 4659 2481 4659 
Q 3169 4659 3637 4309 
Q 4106 3959 4291 3325 
L 3694 3184 
Q 3534 3684 3231 3912 
Q 2928 4141 2469 4141 
Q 1941 4141 1586 3887 
Q 1231 3634 1087 3207 
Q 944 2781 944 2328 
Q 944 1744 1114 1308 
Q 1284 872 1643 656 
Q 2003 441 2422 441 
Q 2931 441 3284 734 
Q 3638 1028 3763 1606 
z
" transform="scale(0.015625)"/>
       <path id="ArialMT-20" transform="scale(0.015625)"/>
       <path id="ArialMT-63" d="M 2588 1216 
L 3141 1144 
Q 3050 572 2676 248 
Q 2303 -75 1759 -75 
Q 1078 -75 664 370 
Q 250 816 250 1647 
Q 250 2184 428 2587 
Q 606 2991 970 3192 
Q 1334 3394 1763 3394 
Q 2303 3394 2647 3120 
Q 2991 2847 3088 2344 
L 2541 2259 
Q 2463 2594 2264 2762 
Q 2066 2931 1784 2931 
Q 1359 2931 1093 2626 
Q 828 2322 828 1663 
Q 828 994 1084 691 
Q 1341 388 1753 388 
Q 2084 388 2306 591 
Q 2528 794 2588 1216 
z
" transform="scale(0.015625)"/>
       <path id="ArialMT-75" d="M 2597 0 
L 2597 488 
Q 2209 -75 1544 -75 
Q 1250 -75 995 37 
Q 741 150 617 320 
Q 494 491 444 738 
Q 409 903 409 1263 
L 409 3319 
L 972 3319 
L 972 1478 
Q 972 1038 1006 884 
Q 1059 663 1231 536 
Q 1403 409 1656 409 
Q 1909 409 2131 539 
Q 2353 669 2445 892 
Q 2538 1116 2538 1541 
L 2538 3319 
L 3100 3319 
L 3100 0 
L 2597 0 
z
" transform="scale(0.015625)"/>
       <path id="ArialMT-72" d="M 416 0 
L 416 3319 
L 922 3319 
L 922 2816 
Q 1116 3169 1280 3281 
Q 1444 3394 1641 3394 
Q 1925 3394 2219 3213 
L 2025 2691 
Q 1819 2813 1613 2813 
Q 1428 2813 1281 2702 
Q 1134 2591 1072 2394 
Q 978 2094 978 1738 
L 978 0 
L 416 0 
z
" transform="scale(0.015625)"/>
       <path id="ArialMT-76" d="M 1344 0 
L 81 3319 
L 675 3319 
L 1388 1331 
Q 1503 1009 1600 663 
Q 1675 925 1809 1294 
L 2547 3319 
L 3125 3319 
L 1869 0 
L 1344 0 
z
" transform="scale(0.015625)"/>
       <path id="ArialMT-65" d="M 2694 1069 
L 3275 997 
Q 3138 488 2766 206 
Q 2394 -75 1816 -75 
Q 1088 -75 661 373 
Q 234 822 234 1631 
Q 234 2469 665 2931 
Q 1097 3394 1784 3394 
Q 2450 3394 2872 2941 
Q 3294 2488 3294 1666 
Q 3294 1616 3291 1516 
L 816 1516 
Q 847 969 1125 678 
Q 1403 388 1819 388 
Q 2128 388 2347 550 
Q 2566 713 2694 1069 
z
M 847 1978 
L 2700 1978 
Q 2663 2397 2488 2606 
Q 2219 2931 1791 2931 
Q 1403 2931 1139 2672 
Q 875 2413 847 1978 
z
" transform="scale(0.015625)"/>
      </defs>
      <use xlink:href="#ArialMT-52"/>
      <use xlink:href="#ArialMT-4f" transform="translate(72.216797 0)"/>
      <use xlink:href="#ArialMT-43" transform="translate(150 0)"/>
      <use xlink:href="#ArialMT-20" transform="translate(222.216797 0)"/>
      <use xlink:href="#ArialMT-63" transform="translate(250 0)"/>
      <use xlink:href="#ArialMT-75" transform="translate(300 0)"/>
      <use xlink:href="#ArialMT-72" transform="translate(355.615234 0)"/>
      <use xlink:href="#ArialMT-76" transform="translate(388.916016 0)"/>
      <use xlink:href="#ArialMT-65" transform="translate(438.916016 0)"/>
     </g>
    </g>
    <g id="line2d_28">
     <path d="M 184.377645 251.984051 
L 193.377645 251.984051 
L 202.377645 251.984051 
" style="fill: none; stroke-dasharray: 5.55,2.4; stroke-dashoffset: 0; stroke: #999999; stroke-width: 1.5"/>
    </g>
    <g id="text_17">
     <!-- Random classifier -->
     <g style="fill: #333333" transform="translate(209.577645 255.134051) scale(0.09 -0.09)">
      <defs>
       <path id="ArialMT-61" d="M 2588 409 
Q 2275 144 1986 34 
Q 1697 -75 1366 -75 
Q 819 -75 525 192 
Q 231 459 231 875 
Q 231 1119 342 1320 
Q 453 1522 633 1644 
Q 813 1766 1038 1828 
Q 1203 1872 1538 1913 
Q 2219 1994 2541 2106 
Q 2544 2222 2544 2253 
Q 2544 2597 2384 2738 
Q 2169 2928 1744 2928 
Q 1347 2928 1158 2789 
Q 969 2650 878 2297 
L 328 2372 
Q 403 2725 575 2942 
Q 747 3159 1072 3276 
Q 1397 3394 1825 3394 
Q 2250 3394 2515 3294 
Q 2781 3194 2906 3042 
Q 3031 2891 3081 2659 
Q 3109 2516 3109 2141 
L 3109 1391 
Q 3109 606 3145 398 
Q 3181 191 3288 0 
L 2700 0 
Q 2613 175 2588 409 
z
M 2541 1666 
Q 2234 1541 1622 1453 
Q 1275 1403 1131 1340 
Q 988 1278 909 1158 
Q 831 1038 831 891 
Q 831 666 1001 516 
Q 1172 366 1500 366 
Q 1825 366 2078 508 
Q 2331 650 2450 897 
Q 2541 1088 2541 1459 
L 2541 1666 
z
" transform="scale(0.015625)"/>
       <path id="ArialMT-6e" d="M 422 0 
L 422 3319 
L 928 3319 
L 928 2847 
Q 1294 3394 1984 3394 
Q 2284 3394 2536 3286 
Q 2788 3178 2913 3003 
Q 3038 2828 3088 2588 
Q 3119 2431 3119 2041 
L 3119 0 
L 2556 0 
L 2556 2019 
Q 2556 2363 2490 2533 
Q 2425 2703 2258 2804 
Q 2091 2906 1866 2906 
Q 1506 2906 1245 2678 
Q 984 2450 984 1813 
L 984 0 
L 422 0 
z
" transform="scale(0.015625)"/>
       <path id="ArialMT-64" d="M 2575 0 
L 2575 419 
Q 2259 -75 1647 -75 
Q 1250 -75 917 144 
Q 584 363 401 755 
Q 219 1147 219 1656 
Q 219 2153 384 2558 
Q 550 2963 881 3178 
Q 1213 3394 1622 3394 
Q 1922 3394 2156 3267 
Q 2391 3141 2538 2938 
L 2538 4581 
L 3097 4581 
L 3097 0 
L 2575 0 
z
M 797 1656 
Q 797 1019 1065 703 
Q 1334 388 1700 388 
Q 2069 388 2326 689 
Q 2584 991 2584 1609 
Q 2584 2291 2321 2609 
Q 2059 2928 1675 2928 
Q 1300 2928 1048 2622 
Q 797 2316 797 1656 
z
" transform="scale(0.015625)"/>
       <path id="ArialMT-6f" d="M 213 1659 
Q 213 2581 725 3025 
Q 1153 3394 1769 3394 
Q 2453 3394 2887 2945 
Q 3322 2497 3322 1706 
Q 3322 1066 3130 698 
Q 2938 331 2570 128 
Q 2203 -75 1769 -75 
Q 1072 -75 642 372 
Q 213 819 213 1659 
z
M 791 1659 
Q 791 1022 1069 705 
Q 1347 388 1769 388 
Q 2188 388 2466 706 
Q 2744 1025 2744 1678 
Q 2744 2294 2464 2611 
Q 2184 2928 1769 2928 
Q 1347 2928 1069 2612 
Q 791 2297 791 1659 
z
" transform="scale(0.015625)"/>
       <path id="ArialMT-6d" d="M 422 0 
L 422 3319 
L 925 3319 
L 925 2853 
Q 1081 3097 1340 3245 
Q 1600 3394 1931 3394 
Q 2300 3394 2536 3241 
Q 2772 3088 2869 2813 
Q 3263 3394 3894 3394 
Q 4388 3394 4653 3120 
Q 4919 2847 4919 2278 
L 4919 0 
L 4359 0 
L 4359 2091 
Q 4359 2428 4304 2576 
Q 4250 2725 4106 2815 
Q 3963 2906 3769 2906 
Q 3419 2906 3187 2673 
Q 2956 2441 2956 1928 
L 2956 0 
L 2394 0 
L 2394 2156 
Q 2394 2531 2256 2718 
Q 2119 2906 1806 2906 
Q 1569 2906 1367 2781 
Q 1166 2656 1075 2415 
Q 984 2175 984 1722 
L 984 0 
L 422 0 
z
" transform="scale(0.015625)"/>
       <path id="ArialMT-6c" d="M 409 0 
L 409 4581 
L 972 4581 
L 972 0 
L 409 0 
z
" transform="scale(0.015625)"/>
       <path id="ArialMT-73" d="M 197 991 
L 753 1078 
Q 800 744 1014 566 
Q 1228 388 1613 388 
Q 2000 388 2187 545 
Q 2375 703 2375 916 
Q 2375 1106 2209 1216 
Q 2094 1291 1634 1406 
Q 1016 1563 777 1677 
Q 538 1791 414 1992 
Q 291 2194 291 2438 
Q 291 2659 392 2848 
Q 494 3038 669 3163 
Q 800 3259 1026 3326 
Q 1253 3394 1513 3394 
Q 1903 3394 2198 3281 
Q 2494 3169 2634 2976 
Q 2775 2784 2828 2463 
L 2278 2388 
Q 2241 2644 2061 2787 
Q 1881 2931 1553 2931 
Q 1166 2931 1000 2803 
Q 834 2675 834 2503 
Q 834 2394 903 2306 
Q 972 2216 1119 2156 
Q 1203 2125 1616 2013 
Q 2213 1853 2448 1751 
Q 2684 1650 2818 1456 
Q 2953 1263 2953 975 
Q 2953 694 2789 445 
Q 2625 197 2315 61 
Q 2006 -75 1616 -75 
Q 969 -75 630 194 
Q 291 463 197 991 
z
" transform="scale(0.015625)"/>
       <path id="ArialMT-69" d="M 425 3934 
L 425 4581 
L 988 4581 
L 988 3934 
L 425 3934 
z
M 425 0 
L 425 3319 
L 988 3319 
L 988 0 
L 425 0 
z
" transform="scale(0.015625)"/>
       <path id="ArialMT-66" d="M 556 0 
L 556 2881 
L 59 2881 
L 59 3319 
L 556 3319 
L 556 3672 
Q 556 4006 616 4169 
Q 697 4388 901 4523 
Q 1106 4659 1475 4659 
Q 1713 4659 2000 4603 
L 1916 4113 
Q 1741 4144 1584 4144 
Q 1328 4144 1222 4034 
Q 1116 3925 1116 3625 
L 1116 3319 
L 1763 3319 
L 1763 2881 
L 1116 2881 
L 1116 0 
L 556 0 
z
" transform="scale(0.015625)"/>
      </defs>
      <use xlink:href="#ArialMT-52"/>
      <use xlink:href="#ArialMT-61" transform="translate(72.216797 0)"/>
      <use xlink:href="#ArialMT-6e" transform="translate(127.832031 0)"/>
      <use xlink:href="#ArialMT-64" transform="translate(183.447266 0)"/>
      <use xlink:href="#ArialMT-6f" transform="translate(239.0625 0)"/>
      <use xlink:href="#ArialMT-6d" transform="translate(294.677734 0)"/>
      <use xlink:href="#ArialMT-20" transform="translate(377.978516 0)"/>
      <use xlink:href="#ArialMT-63" transform="translate(405.761719 0)"/>
      <use xlink:href="#ArialMT-6c" transform="translate(455.761719 0)"/>
      <use xlink:href="#ArialMT-61" transform="translate(477.978516 0)"/>
      <use xlink:href="#ArialMT-73" transform="translate(533.59375 0)"/>
      <use xlink:href="#ArialMT-73" transform="translate(583.59375 0)"/>
      <use xlink:href="#ArialMT-69" transform="translate(633.59375 0)"/>
      <use xlink:href="#ArialMT-66" transform="translate(655.810547 0)"/>
      <use xlink:href="#ArialMT-69" transform="translate(683.59375 0)"/>
      <use xlink:href="#ArialMT-65" transform="translate(705.810547 0)"/>
      <use xlink:href="#ArialMT-72" transform="translate(761.425781 0)"/>
     </g>
    </g>
   </g>
  </g>
 </g>
 <defs>
  <clipPath id="pf117f071c5">
   <rect x="35.655938" y="19.751719" width="253.543583" height="245.271083"/>
  </clipPath>
 </defs>
</svg>
