<?xml version="1.0" encoding="utf-8" standalone="no"?>
<!DOCTYPE svg PUBLIC "-//W3C//DTD SVG 1.1//EN"
  "http://www.w3.org/Graphics/SVG/1.1/DTD/svg11.dtd">
<svg xmlns:xlink="http://www.w3.org/1999/xlink" width="296.39952pt" height="296.39952pt" viewBox="0 0 296.39952 296.39952" xmlns="http://www.w3.org/2000/svg" version="1.1">
 <metadata>
  <rdf:RDF xmlns:dc="http://purl.org/dc/elements/1.1/" xmlns:cc="http://creativecommons.org/ns#" xmlns:rdf="http://www.w3.org/1999/02/22-rdf-syntax-ns#">
   <cc:Work>
    <dc:type rdf:resource="http://purl.org/dc/dcmitype/StillImage"/>
    <dc:date>2026-01-25T10:31:15.226691</dc:date>
    <dc:format>image/svg+xml</dc:format>
    <dc:creator>
     <cc:Agent>
      <dc:title>Matplotlib v3.10.8, https://matplotlib.org/</dc:title>
     </cc:Agent>
    </dc:creator>
   </cc:Work>
  </rdf:RDF>
 </metadata>
 <defs>
  <style type="text/css">*{stroke-linejoin: round; stroke-linecap: butt}</style>
 </defs>
 <g id="figure_1">
  <g id="patch_1">
   <path d="M 0 296.39952 
L 296.39952 296.39952 
L 296.39952 0 
L 0 0 
z
" style="fill: #ffffff"/>
  </g>
  <g id="axes_1">
   <g id="patch_2">
    <path d="M 35.655938 265.022801 
L 289.19952 265.022801 
L 289.19952 19.751719 
L 35.655938 19.751719 
z
" style="fill: #ffffff"/>
   </g>
   <g id="matplotlib.axis_1">
    <g id="xtick_1">
     <g id="line2d_1">
      <path d="M 42.831699 265.022801 
L 42.831699 19.751719 
" clip-path="url(#pad225225c0)" style="fill: none; stroke: #c0c0c0; stroke-width: 0.25; stroke-linecap: round"/>
     </g>
     <g id="line2d_2"/>
     <g id="text_1">
      <!-- 0.0 -->
      <g style="fill: #333333" transform="translate(36.576699 274.964832) scale(0.09 -0.09)">
       <defs>
        <path id="ArialMT-30" d="M 266 2259 
Q 266 3072 433 3567 
Q 600 4063 929 4331 
Q 1259 4600 1759 4600 
Q 2128 4600 2406 4451 
Q 2684 4303 2865 4023 
Q 3047 3744 3150 3342 
Q 3253 2941 3253 2259 
Q 3253 1453 3087 958 
Q 2922 463 2592 192 
Q 2263 -78 1759 -78 
Q 1097 -78 719 397 
Q 266 969 266 2259 
z
M 844 2259 
Q 844 1131 1108 757 
Q 1372 384 1759 384 
Q 2147 384 2411 759 
Q 2675 1134 2675 2259 
Q 2675 3391 2411 3762 
Q 2147 4134 1753 4134 
Q 1366 4134 1134 3806 
Q 844 3388 844 2259 
z
" transform="scale(0.015625)"/>
        <path id="ArialMT-2e" d="M 581 0 
L 581 641 
L 1222 641 
L 1222 0 
L 581 0 
z
" transform="scale(0.015625)"/>
       </defs>
       <use xlink:href="#ArialMT-30"/>
       <use xlink:href="#ArialMT-2e" transform="translate(55.615234 0)"/>
       <use xlink:href="#ArialMT-30" transform="translate(83.398438 0)"/>
      </g>
     </g>
    </g>
    <g id="xtick_2">
     <g id="line2d_3">
      <path d="M 90.670111 265.022801 
L 90.670111 19.751719 
" clip-path="url(#pad225225c0)" style="fill: none; stroke: #c0c0c0; stroke-width: 0.25; stroke-linecap: round"/>
     </g>
     <g id="line2d_4"/>
     <g id="text_2">
      <!-- 0.2 -->
      <g style="fill: #333333" transform="translate(84.415111 274.964832) scale(0.09 -0.09)">
       <defs>
        <path id="ArialMT-32" d="M 3222 541 
L 3222 0 
L 194 0 
Q 188 203 259 391 
Q 375 700 629 1000 
Q 884 1300 1366 1694 
Q 2113 2306 2375 2664 
Q 2638 3022 2638 3341 
Q 2638 3675 2398 3904 
Q 2159 4134 1775 4134 
Q 1369 4134 1125 3890 
Q 881 3647 878 3216 
L 300 3275 
Q 359 3922 746 4261 
Q 1134 4600 1788 4600 
Q 2447 4600 2831 4234 
Q 3216 3869 3216 3328 
Q 3216 3053 3103 2787 
Q 2991 2522 2730 2228 
Q 2469 1934 1863 1422 
Q 1356 997 1212 845 
Q 1069 694 975 541 
L 3222 541 
z
" transform="scale(0.015625)"/>
       </defs>
       <use xlink:href="#ArialMT-30"/>
       <use xlink:href="#ArialMT-2e" transform="translate(55.615234 0)"/>
       <use xlink:href="#ArialMT-32" transform="translate(83.398438 0)"/>
      </g>
     </g>
    </g>
    <g id="xtick_3">
     <g id="line2d_5">
      <path d="M 138.508523 265.022801 
L 138.508523 19.751719 
" clip-path="url(#pad225225c0)" style="fill: none; stroke: #c0c0c0; stroke-width: 0.25; stroke-linecap: round"/>
     </g>
     <g id="line2d_6"/>
     <g id="text_3">
      <!-- 0.4 -->
      <g style="fill: #333333" transform="translate(132.253523 274.964832) scale(0.09 -0.09)">
       <defs>
        <path id="ArialMT-34" d="M 2069 0 
L 2069 1097 
L 81 1097 
L 81 1613 
L 2172 4581 
L 2631 4581 
L 2631 1613 
L 3250 1613 
L 3250 1097 
L 2631 1097 
L 2631 0 
L 2069 0 
z
M 2069 1613 
L 2069 3678 
L 634 1613 
L 2069 1613 
z
" transform="scale(0.015625)"/>
       </defs>
       <use xlink:href="#ArialMT-30"/>
       <use xlink:href="#ArialMT-2e" transform="translate(55.615234 0)"/>
       <use xlink:href="#ArialMT-34" transform="translate(83.398438 0)"/>
      </g>
     </g>
    </g>
    <g id="xtick_4">
     <g id="line2d_7">
      <path d="M 186.346935 265.022801 
L 186.346935 19.751719 
" clip-path="url(#pad225225c0)" style="fill: none; stroke: #c0c0c0; stroke-width: 0.25; stroke-linecap: round"/>
     </g>
     <g id="line2d_8"/>
     <g id="text_4">
      <!-- 0.6 -->
      <g style="fill: #333333" transform="translate(180.091935 274.964832) scale(0.09 -0.09)">
       <defs>
        <path id="ArialMT-36" d="M 3184 3459 
L 2625 3416 
Q 2550 3747 2413 3897 
Q 2184 4138 1850 4138 
Q 1581 4138 1378 3988 
Q 1113 3794 959 3422 
Q 806 3050 800 2363 
Q 1003 2672 1297 2822 
Q 1591 2972 1913 2972 
Q 2475 2972 2870 2558 
Q 3266 2144 3266 1488 
Q 3266 1056 3080 686 
Q 2894 316 2569 119 
Q 2244 -78 1831 -78 
Q 1128 -78 684 439 
Q 241 956 241 2144 
Q 241 3472 731 4075 
Q 1159 4600 1884 4600 
Q 2425 4600 2770 4297 
Q 3116 3994 3184 3459 
z
M 888 1484 
Q 888 1194 1011 928 
Q 1134 663 1356 523 
Q 1578 384 1822 384 
Q 2178 384 2434 671 
Q 2691 959 2691 1453 
Q 2691 1928 2437 2201 
Q 2184 2475 1800 2475 
Q 1419 2475 1153 2201 
Q 888 1928 888 1484 
z
" transform="scale(0.015625)"/>
       </defs>
       <use xlink:href="#ArialMT-30"/>
       <use xlink:href="#ArialMT-2e" transform="translate(55.615234 0)"/>
       <use xlink:href="#ArialMT-36" transform="translate(83.398438 0)"/>
      </g>
     </g>
    </g>
    <g id="xtick_5">
     <g id="line2d_9">
      <path d="M 234.185346 265.022801 
L 234.185346 19.751719 
" clip-path="url(#pad225225c0)" style="fill: none; stroke: #c0c0c0; stroke-width: 0.25; stroke-linecap: round"/>
     </g>
     <g id="line2d_10"/>
     <g id="text_5">
      <!-- 0.8 -->
      <g style="fill: #333333" transform="translate(227.930346 274.964832) scale(0.09 -0.09)">
       <defs>
        <path id="ArialMT-38" d="M 1131 2484 
Q 781 2613 612 2850 
Q 444 3088 444 3419 
Q 444 3919 803 4259 
Q 1163 4600 1759 4600 
Q 2359 4600 2725 4251 
Q 3091 3903 3091 3403 
Q 3091 3084 2923 2848 
Q 2756 2613 2416 2484 
Q 2838 2347 3058 2040 
Q 3278 1734 3278 1309 
Q 3278 722 2862 322 
Q 2447 -78 1769 -78 
Q 1091 -78 675 323 
Q 259 725 259 1325 
Q 259 1772 486 2073 
Q 713 2375 1131 2484 
z
M 1019 3438 
Q 1019 3113 1228 2906 
Q 1438 2700 1772 2700 
Q 2097 2700 2305 2904 
Q 2513 3109 2513 3406 
Q 2513 3716 2298 3927 
Q 2084 4138 1766 4138 
Q 1444 4138 1231 3931 
Q 1019 3725 1019 3438 
z
M 838 1322 
Q 838 1081 952 856 
Q 1066 631 1291 507 
Q 1516 384 1775 384 
Q 2178 384 2440 643 
Q 2703 903 2703 1303 
Q 2703 1709 2433 1975 
Q 2163 2241 1756 2241 
Q 1359 2241 1098 1978 
Q 838 1716 838 1322 
z
" transform="scale(0.015625)"/>
       </defs>
       <use xlink:href="#ArialMT-30"/>
       <use xlink:href="#ArialMT-2e" transform="translate(55.615234 0)"/>
       <use xlink:href="#ArialMT-38" transform="translate(83.398438 0)"/>
      </g>
     </g>
    </g>
    <g id="xtick_6">
     <g id="line2d_11">
      <path d="M 282.023758 265.022801 
L 282.023758 19.751719 
" clip-path="url(#pad225225c0)" style="fill: none; stroke: #c0c0c0; stroke-width: 0.25; stroke-linecap: round"/>
     </g>
     <g id="line2d_12"/>
     <g id="text_6">
      <!-- 1.0 -->
      <g style="fill: #333333" transform="translate(275.768758 274.964832) scale(0.09 -0.09)">
       <defs>
        <path id="ArialMT-31" d="M 2384 0 
L 1822 0 
L 1822 3584 
Q 1619 3391 1289 3197 
Q 959 3003 697 2906 
L 697 3450 
Q 1169 3672 1522 3987 
Q 1875 4303 2022 4600 
L 2384 4600 
L 2384 0 
z
" transform="scale(0.015625)"/>
       </defs>
       <use xlink:href="#ArialMT-31"/>
       <use xlink:href="#ArialMT-2e" transform="translate(55.615234 0)"/>
       <use xlink:href="#ArialMT-30" transform="translate(83.398438 0)"/>
      </g>
     </g>
    </g>
    <g id="text_7">
     <!-- False Positive Rate (FPR) -->
     <g style="fill: #333333" transform="translate(108.165463 287.305301) scale(0.09 -0.09)">
      <defs>
       <path id="Arial-BoldMT-46" d="M 472 0 
L 472 4581 
L 3613 4581 
L 3613 3806 
L 1397 3806 
L 1397 2722 
L 3309 2722 
L 3309 1947 
L 1397 1947 
L 1397 0 
L 472 0 
z
" transform="scale(0.015625)"/>
       <path id="Arial-BoldMT-61" d="M 1116 2306 
L 319 2450 
Q 453 2931 781 3162 
Q 1109 3394 1756 3394 
Q 2344 3394 2631 3255 
Q 2919 3116 3036 2902 
Q 3153 2688 3153 2116 
L 3144 1091 
Q 3144 653 3186 445 
Q 3228 238 3344 0 
L 2475 0 
Q 2441 88 2391 259 
Q 2369 338 2359 363 
Q 2134 144 1878 34 
Q 1622 -75 1331 -75 
Q 819 -75 523 203 
Q 228 481 228 906 
Q 228 1188 362 1408 
Q 497 1628 739 1745 
Q 981 1863 1438 1950 
Q 2053 2066 2291 2166 
L 2291 2253 
Q 2291 2506 2166 2614 
Q 2041 2722 1694 2722 
Q 1459 2722 1328 2630 
Q 1197 2538 1116 2306 
z
M 2291 1594 
Q 2122 1538 1756 1459 
Q 1391 1381 1278 1306 
Q 1106 1184 1106 997 
Q 1106 813 1243 678 
Q 1381 544 1594 544 
Q 1831 544 2047 700 
Q 2206 819 2256 991 
Q 2291 1103 2291 1419 
L 2291 1594 
z
" transform="scale(0.015625)"/>
       <path id="Arial-BoldMT-6c" d="M 459 0 
L 459 4581 
L 1338 4581 
L 1338 0 
L 459 0 
z
" transform="scale(0.015625)"/>
       <path id="Arial-BoldMT-73" d="M 150 947 
L 1031 1081 
Q 1088 825 1259 692 
Q 1431 559 1741 559 
Q 2081 559 2253 684 
Q 2369 772 2369 919 
Q 2369 1019 2306 1084 
Q 2241 1147 2013 1200 
Q 950 1434 666 1628 
Q 272 1897 272 2375 
Q 272 2806 612 3100 
Q 953 3394 1669 3394 
Q 2350 3394 2681 3172 
Q 3013 2950 3138 2516 
L 2309 2363 
Q 2256 2556 2107 2659 
Q 1959 2763 1684 2763 
Q 1338 2763 1188 2666 
Q 1088 2597 1088 2488 
Q 1088 2394 1175 2328 
Q 1294 2241 1995 2081 
Q 2697 1922 2975 1691 
Q 3250 1456 3250 1038 
Q 3250 581 2869 253 
Q 2488 -75 1741 -75 
Q 1063 -75 667 200 
Q 272 475 150 947 
z
" transform="scale(0.015625)"/>
       <path id="Arial-BoldMT-65" d="M 2381 1056 
L 3256 909 
Q 3088 428 2723 176 
Q 2359 -75 1813 -75 
Q 947 -75 531 491 
Q 203 944 203 1634 
Q 203 2459 634 2926 
Q 1066 3394 1725 3394 
Q 2466 3394 2894 2905 
Q 3322 2416 3303 1406 
L 1103 1406 
Q 1113 1016 1316 798 
Q 1519 581 1822 581 
Q 2028 581 2168 693 
Q 2309 806 2381 1056 
z
M 2431 1944 
Q 2422 2325 2234 2523 
Q 2047 2722 1778 2722 
Q 1491 2722 1303 2513 
Q 1116 2303 1119 1944 
L 2431 1944 
z
" transform="scale(0.015625)"/>
       <path id="Arial-BoldMT-20" transform="scale(0.015625)"/>
       <path id="Arial-BoldMT-50" d="M 466 0 
L 466 4581 
L 1950 4581 
Q 2794 4581 3050 4513 
Q 3444 4409 3709 4064 
Q 3975 3719 3975 3172 
Q 3975 2750 3822 2462 
Q 3669 2175 3433 2011 
Q 3197 1847 2953 1794 
Q 2622 1728 1994 1728 
L 1391 1728 
L 1391 0 
L 466 0 
z
M 1391 3806 
L 1391 2506 
L 1897 2506 
Q 2444 2506 2628 2578 
Q 2813 2650 2917 2803 
Q 3022 2956 3022 3159 
Q 3022 3409 2875 3571 
Q 2728 3734 2503 3775 
Q 2338 3806 1838 3806 
L 1391 3806 
z
" transform="scale(0.015625)"/>
       <path id="Arial-BoldMT-6f" d="M 256 1706 
Q 256 2144 472 2553 
Q 688 2963 1083 3178 
Q 1478 3394 1966 3394 
Q 2719 3394 3200 2905 
Q 3681 2416 3681 1669 
Q 3681 916 3195 420 
Q 2709 -75 1972 -75 
Q 1516 -75 1102 131 
Q 688 338 472 736 
Q 256 1134 256 1706 
z
M 1156 1659 
Q 1156 1166 1390 903 
Q 1625 641 1969 641 
Q 2313 641 2545 903 
Q 2778 1166 2778 1666 
Q 2778 2153 2545 2415 
Q 2313 2678 1969 2678 
Q 1625 2678 1390 2415 
Q 1156 2153 1156 1659 
z
" transform="scale(0.015625)"/>
       <path id="Arial-BoldMT-69" d="M 459 3769 
L 459 4581 
L 1338 4581 
L 1338 3769 
L 459 3769 
z
M 459 0 
L 459 3319 
L 1338 3319 
L 1338 0 
L 459 0 
z
" transform="scale(0.015625)"/>
       <path id="Arial-BoldMT-74" d="M 1981 3319 
L 1981 2619 
L 1381 2619 
L 1381 1281 
Q 1381 875 1398 808 
Q 1416 741 1477 697 
Q 1538 653 1625 653 
Q 1747 653 1978 738 
L 2053 56 
Q 1747 -75 1359 -75 
Q 1122 -75 931 4 
Q 741 84 652 211 
Q 563 338 528 553 
Q 500 706 500 1172 
L 500 2619 
L 97 2619 
L 97 3319 
L 500 3319 
L 500 3978 
L 1381 4491 
L 1381 3319 
L 1981 3319 
z
" transform="scale(0.015625)"/>
       <path id="Arial-BoldMT-76" d="M 1372 0 
L 34 3319 
L 956 3319 
L 1581 1625 
L 1763 1059 
Q 1834 1275 1853 1344 
Q 1897 1484 1947 1625 
L 2578 3319 
L 3481 3319 
L 2163 0 
L 1372 0 
z
" transform="scale(0.015625)"/>
       <path id="Arial-BoldMT-52" d="M 469 0 
L 469 4581 
L 2416 4581 
Q 3150 4581 3483 4457 
Q 3816 4334 4016 4018 
Q 4216 3703 4216 3297 
Q 4216 2781 3912 2445 
Q 3609 2109 3006 2022 
Q 3306 1847 3501 1637 
Q 3697 1428 4028 894 
L 4588 0 
L 3481 0 
L 2813 997 
Q 2456 1531 2325 1670 
Q 2194 1809 2047 1861 
Q 1900 1913 1581 1913 
L 1394 1913 
L 1394 0 
L 469 0 
z
M 1394 2644 
L 2078 2644 
Q 2744 2644 2909 2700 
Q 3075 2756 3169 2893 
Q 3263 3031 3263 3238 
Q 3263 3469 3139 3611 
Q 3016 3753 2791 3791 
Q 2678 3806 2116 3806 
L 1394 3806 
L 1394 2644 
z
" transform="scale(0.015625)"/>
       <path id="Arial-BoldMT-28" d="M 1916 -1347 
L 1313 -1347 
Q 834 -625 584 153 
Q 334 931 334 1659 
Q 334 2563 644 3369 
Q 913 4069 1325 4659 
L 1925 4659 
Q 1497 3713 1336 3048 
Q 1175 2384 1175 1641 
Q 1175 1128 1270 590 
Q 1366 53 1531 -431 
Q 1641 -750 1916 -1347 
z
" transform="scale(0.015625)"/>
       <path id="Arial-BoldMT-29" d="M 216 -1347 
Q 475 -791 581 -494 
Q 688 -197 778 190 
Q 869 578 912 926 
Q 956 1275 956 1641 
Q 956 2384 797 3048 
Q 638 3713 209 4659 
L 806 4659 
Q 1278 3988 1539 3234 
Q 1800 2481 1800 1706 
Q 1800 1053 1594 306 
Q 1359 -531 822 -1347 
L 216 -1347 
z
" transform="scale(0.015625)"/>
      </defs>
      <use xlink:href="#Arial-BoldMT-46"/>
      <use xlink:href="#Arial-BoldMT-61" transform="translate(61.083984 0)"/>
      <use xlink:href="#Arial-BoldMT-6c" transform="translate(116.699219 0)"/>
      <use xlink:href="#Arial-BoldMT-73" transform="translate(144.482422 0)"/>
      <use xlink:href="#Arial-BoldMT-65" transform="translate(200.097656 0)"/>
      <use xlink:href="#Arial-BoldMT-20" transform="translate(255.712891 0)"/>
      <use xlink:href="#Arial-BoldMT-50" transform="translate(283.496094 0)"/>
      <use xlink:href="#Arial-BoldMT-6f" transform="translate(350.195312 0)"/>
      <use xlink:href="#Arial-BoldMT-73" transform="translate(411.279297 0)"/>
      <use xlink:href="#Arial-BoldMT-69" transform="translate(466.894531 0)"/>
      <use xlink:href="#Arial-BoldMT-74" transform="translate(494.677734 0)"/>
      <use xlink:href="#Arial-BoldMT-69" transform="translate(527.978516 0)"/>
      <use xlink:href="#Arial-BoldMT-76" transform="translate(555.761719 0)"/>
      <use xlink:href="#Arial-BoldMT-65" transform="translate(611.376953 0)"/>
      <use xlink:href="#Arial-BoldMT-20" transform="translate(666.992188 0)"/>
      <use xlink:href="#Arial-BoldMT-52" transform="translate(694.775391 0)"/>
      <use xlink:href="#Arial-BoldMT-61" transform="translate(766.992188 0)"/>
      <use xlink:href="#Arial-BoldMT-74" transform="translate(822.607422 0)"/>
      <use xlink:href="#Arial-BoldMT-65" transform="translate(855.908203 0)"/>
      <use xlink:href="#Arial-BoldMT-20" transform="translate(911.523438 0)"/>
      <use xlink:href="#Arial-BoldMT-28" transform="translate(939.306641 0)"/>
      <use xlink:href="#Arial-BoldMT-46" transform="translate(972.607422 0)"/>
      <use xlink:href="#Arial-BoldMT-50" transform="translate(1033.691406 0)"/>
      <use xlink:href="#Arial-BoldMT-52" transform="translate(1100.390625 0)"/>
      <use xlink:href="#Arial-BoldMT-29" transform="translate(1172.607422 0)"/>
     </g>
    </g>
   </g>
   <g id="matplotlib.axis_2">
    <g id="ytick_1">
     <g id="line2d_13">
      <path d="M 35.655938 265.022801 
L 289.19952 265.022801 
" clip-path="url(#pad225225c0)" style="fill: none; stroke: #c0c0c0; stroke-width: 0.25; stroke-linecap: round"/>
     </g>
     <g id="line2d_14"/>
     <g id="text_8">
      <!-- 0.0 -->
      <g style="fill: #333333" transform="translate(19.645938 268.243817) scale(0.09 -0.09)">
       <use xlink:href="#ArialMT-30"/>
       <use xlink:href="#ArialMT-2e" transform="translate(55.615234 0)"/>
       <use xlink:href="#ArialMT-30" transform="translate(83.398438 0)"/>
      </g>
     </g>
    </g>
    <g id="ytick_2">
     <g id="line2d_15">
      <path d="M 35.655938 217.397348 
L 289.19952 217.397348 
" clip-path="url(#pad225225c0)" style="fill: none; stroke: #c0c0c0; stroke-width: 0.25; stroke-linecap: round"/>
     </g>
     <g id="line2d_16"/>
     <g id="text_9">
      <!-- 0.2 -->
      <g style="fill: #333333" transform="translate(19.645938 220.618364) scale(0.09 -0.09)">
       <use xlink:href="#ArialMT-30"/>
       <use xlink:href="#ArialMT-2e" transform="translate(55.615234 0)"/>
       <use xlink:href="#ArialMT-32" transform="translate(83.398438 0)"/>
      </g>
     </g>
    </g>
    <g id="ytick_3">
     <g id="line2d_17">
      <path d="M 35.655938 169.771895 
L 289.19952 169.771895 
" clip-path="url(#pad225225c0)" style="fill: none; stroke: #c0c0c0; stroke-width: 0.25; stroke-linecap: round"/>
     </g>
     <g id="line2d_18"/>
     <g id="text_10">
      <!-- 0.4 -->
      <g style="fill: #333333" transform="translate(19.645938 172.992911) scale(0.09 -0.09)">
       <use xlink:href="#ArialMT-30"/>
       <use xlink:href="#ArialMT-2e" transform="translate(55.615234 0)"/>
       <use xlink:href="#ArialMT-34" transform="translate(83.398438 0)"/>
      </g>
     </g>
    </g>
    <g id="ytick_4">
     <g id="line2d_19">
      <path d="M 35.655938 122.146443 
L 289.19952 122.146443 
" clip-path="url(#pad225225c0)" style="fill: none; stroke: #c0c0c0; stroke-width: 0.25; stroke-linecap: round"/>
     </g>
     <g id="line2d_20"/>
     <g id="text_11">
      <!-- 0.6 -->
      <g style="fill: #333333" transform="translate(19.645938 125.367458) scale(0.09 -0.09)">
       <use xlink:href="#ArialMT-30"/>
       <use xlink:href="#ArialMT-2e" transform="translate(55.615234 0)"/>
       <use xlink:href="#ArialMT-36" transform="translate(83.398438 0)"/>
      </g>
     </g>
    </g>
    <g id="ytick_5">
     <g id="line2d_21">
      <path d="M 35.655938 74.52099 
L 289.19952 74.52099 
" clip-path="url(#pad225225c0)" style="fill: none; stroke: #c0c0c0; stroke-width: 0.25; stroke-linecap: round"/>
     </g>
     <g id="line2d_22"/>
     <g id="text_12">
      <!-- 0.8 -->
      <g style="fill: #333333" transform="translate(19.645938 77.742005) scale(0.09 -0.09)">
       <use xlink:href="#ArialMT-30"/>
       <use xlink:href="#ArialMT-2e" transform="translate(55.615234 0)"/>
       <use xlink:href="#ArialMT-38" transform="translate(83.398438 0)"/>
      </g>
     </g>
    </g>
    <g id="ytick_6">
     <g id="line2d_23">
      <path d="M 35.655938 26.895537 
L 289.19952 26.895537 
" clip-path="url(#pad225225c0)" style="fill: none; stroke: #c0c0c0; stroke-width: 0.25; stroke-linecap: round"/>
     </g>
     <g id="line2d_24"/>
     <g id="text_13">
      <!-- 1.0 -->
      <g style="fill: #333333" transform="translate(19.645938 30.116552) scale(0.09 -0.09)">
       <use xlink:href="#ArialMT-31"/>
       <use xlink:href="#ArialMT-2e" transform="translate(55.615234 0)"/>
       <use xlink:href="#ArialMT-30" transform="translate(83.398438 0)"/>
      </g>
     </g>
    </g>
    <g id="text_14">
     <!-- True Positive Rate (TPR) -->
     <g style="fill: #333333" transform="translate(13.751719 194.647026) rotate(-90) scale(0.09 -0.09)">
      <defs>
       <path id="Arial-BoldMT-54" d="M 1497 0 
L 1497 3806 
L 138 3806 
L 138 4581 
L 3778 4581 
L 3778 3806 
L 2422 3806 
L 2422 0 
L 1497 0 
z
" transform="scale(0.015625)"/>
       <path id="Arial-BoldMT-72" d="M 1300 0 
L 422 0 
L 422 3319 
L 1238 3319 
L 1238 2847 
Q 1447 3181 1614 3287 
Q 1781 3394 1994 3394 
Q 2294 3394 2572 3228 
L 2300 2463 
Q 2078 2606 1888 2606 
Q 1703 2606 1575 2504 
Q 1447 2403 1373 2137 
Q 1300 1872 1300 1025 
L 1300 0 
z
" transform="scale(0.015625)"/>
       <path id="Arial-BoldMT-75" d="M 2644 0 
L 2644 497 
Q 2463 231 2167 78 
Q 1872 -75 1544 -75 
Q 1209 -75 943 72 
Q 678 219 559 484 
Q 441 750 441 1219 
L 441 3319 
L 1319 3319 
L 1319 1794 
Q 1319 1094 1367 936 
Q 1416 778 1544 686 
Q 1672 594 1869 594 
Q 2094 594 2272 717 
Q 2450 841 2515 1023 
Q 2581 1206 2581 1919 
L 2581 3319 
L 3459 3319 
L 3459 0 
L 2644 0 
z
" transform="scale(0.015625)"/>
      </defs>
      <use xlink:href="#Arial-BoldMT-54"/>
      <use xlink:href="#Arial-BoldMT-72" transform="translate(55.583984 0)"/>
      <use xlink:href="#Arial-BoldMT-75" transform="translate(94.5 0)"/>
      <use xlink:href="#Arial-BoldMT-65" transform="translate(155.583984 0)"/>
      <use xlink:href="#Arial-BoldMT-20" transform="translate(211.199219 0)"/>
      <use xlink:href="#Arial-BoldMT-50" transform="translate(238.982422 0)"/>
      <use xlink:href="#Arial-BoldMT-6f" transform="translate(305.681641 0)"/>
      <use xlink:href="#Arial-BoldMT-73" transform="translate(366.765625 0)"/>
      <use xlink:href="#Arial-BoldMT-69" transform="translate(422.380859 0)"/>
      <use xlink:href="#Arial-BoldMT-74" transform="translate(450.164062 0)"/>
      <use xlink:href="#Arial-BoldMT-69" transform="translate(483.464844 0)"/>
      <use xlink:href="#Arial-BoldMT-76" transform="translate(511.248047 0)"/>
      <use xlink:href="#Arial-BoldMT-65" transform="translate(566.863281 0)"/>
      <use xlink:href="#Arial-BoldMT-20" transform="translate(622.478516 0)"/>
      <use xlink:href="#Arial-BoldMT-52" transform="translate(650.261719 0)"/>
      <use xlink:href="#Arial-BoldMT-61" transform="translate(722.478516 0)"/>
      <use xlink:href="#Arial-BoldMT-74" transform="translate(778.09375 0)"/>
      <use xlink:href="#Arial-BoldMT-65" transform="translate(811.394531 0)"/>
      <use xlink:href="#Arial-BoldMT-20" transform="translate(867.009766 0)"/>
      <use xlink:href="#Arial-BoldMT-28" transform="translate(894.792969 0)"/>
      <use xlink:href="#Arial-BoldMT-54" transform="translate(928.09375 0)"/>
      <use xlink:href="#Arial-BoldMT-50" transform="translate(989.177734 0)"/>
      <use xlink:href="#Arial-BoldMT-52" transform="translate(1055.876953 0)"/>
      <use xlink:href="#Arial-BoldMT-29" transform="translate(1128.09375 0)"/>
     </g>
    </g>
   </g>
   <g id="line2d_25">
    <path d="M 42.831699 265.022801 
L 42.942277 243.627719 
L 42.944044 243.520744 
L 43.054537 234.213883 
L 43.058527 234.106908 
L 43.16939 226.404678 
L 43.1711 226.297703 
L 43.28202 220.360567 
L 43.283331 220.253592 
L 43.394336 216.028063 
L 43.399865 215.921088 
L 43.510158 213.032752 
L 43.521216 212.925776 
L 43.629286 210.251391 
L 43.640885 210.144415 
L 43.748328 207.095616 
L 43.761296 206.988641 
L 43.868739 204.956108 
L 43.880936 204.849133 
L 43.988636 202.602649 
L 43.995561 202.495674 
L 44.104657 200.463141 
L 44.120589 200.356165 
L 44.231024 198.537583 
L 44.242139 198.430608 
L 44.349838 196.98644 
L 44.370757 196.879465 
L 44.479625 195.060883 
L 44.49758 194.953907 
L 44.608528 193.295788 
L 44.617135 193.188813 
L 44.717795 191.744645 
L 44.733157 191.637669 
L 44.840372 189.979551 
L 44.851173 189.872575 
L 44.960212 188.802821 
L 44.966111 188.695846 
L 45.075834 187.144702 
L 45.108723 187.037727 
L 45.216394 185.593559 
L 45.234234 185.486583 
L 45.344556 184.149391 
L 45.352678 184.042415 
L 45.458155 182.75871 
L 45.475084 182.651735 
L 45.575259 181.36803 
L 45.617838 181.261055 
L 45.715562 180.405251 
L 45.74352 180.298276 
L 45.840048 178.961083 
L 45.872281 178.854108 
L 45.976732 177.730866 
L 45.990782 177.623891 
L 46.091727 176.821575 
L 46.111791 176.7146 
L 46.219747 175.484382 
L 46.250583 175.377407 
L 46.359337 174.093702 
L 46.384844 173.986727 
L 46.492857 172.703022 
L 46.511809 172.596046 
L 46.615804 171.633268 
L 46.618056 171.633268 
L 46.644019 171.526292 
L 46.748412 170.723977 
L 46.765255 170.617001 
L 46.873981 168.744931 
L 46.90248 168.637956 
L 47.008413 167.354251 
L 47.020554 167.247276 
L 47.102518 166.498448 
L 47.105226 166.498448 
L 47.162111 166.391472 
L 47.265706 165.214743 
L 47.290501 165.107768 
L 47.393356 164.038013 
L 47.40048 164.038013 
L 47.418036 163.931038 
L 47.518468 163.128722 
L 47.53933 163.021747 
L 47.644351 162.005481 
L 47.685874 161.898505 
L 47.795968 160.828751 
L 47.812327 160.721776 
L 47.912616 159.705509 
L 47.945077 159.598534 
L 48.050155 158.849706 
L 48.067967 158.742731 
L 48.133117 158.368317 
L 48.217931 158.261341 
L 48.305482 157.405538 
L 48.33837 157.298563 
L 48.445186 156.496247 
L 48.457697 156.389272 
L 48.555793 155.533468 
L 48.579419 155.426493 
L 48.680905 154.78464 
L 48.719294 154.677665 
L 48.829701 154.249763 
L 48.84227 154.142788 
L 48.951964 153.126521 
L 48.975077 153.019546 
L 49.084686 151.949792 
L 49.105747 151.842817 
L 49.205125 150.773062 
L 49.24226 150.666087 
L 49.334855 149.649821 
L 49.377433 149.542845 
L 49.474787 148.74053 
L 49.52583 148.633554 
L 49.636522 147.938214 
L 49.681123 147.831239 
L 49.788053 147.135898 
L 49.788253 147.135898 
L 49.805353 147.028923 
L 49.914534 146.387071 
L 49.945371 146.280095 
L 50.0527 145.531267 
L 50.10189 145.424292 
L 50.205029 144.621976 
L 50.228228 144.515001 
L 50.322675 143.819661 
L 50.361748 143.712685 
L 50.459729 143.017345 
L 50.487516 142.91037 
L 50.5676 142.535956 
L 50.677123 142.42898 
L 50.777869 142.108054 
L 50.806312 142.001079 
L 50.903552 141.466202 
L 50.955734 141.359226 
L 51.064061 140.663886 
L 51.105043 140.556911 
L 51.204107 140.075521 
L 51.207983 140.075521 
L 51.252642 139.968546 
L 51.359458 139.594132 
L 51.375817 139.487157 
L 51.483402 138.95228 
L 51.556247 138.845304 
L 51.664973 138.310427 
L 51.696066 138.203452 
L 51.806387 137.668575 
L 51.807014 137.668575 
L 51.857088 137.561599 
L 51.96758 136.705796 
L 52.102041 136.598821 
L 52.194807 136.063943 
L 52.206862 136.063943 
L 52.26711 135.956968 
L 52.372045 134.994189 
L 52.402397 134.887214 
L 52.513231 134.459312 
L 52.542643 134.352337 
L 52.630393 133.977923 
L 52.674937 133.870948 
L 52.777422 133.443046 
L 52.830858 133.33607 
L 52.935109 132.801193 
L 52.993704 132.694218 
L 53.095875 131.94539 
L 53.153843 131.838415 
L 53.241935 131.410513 
L 53.251881 131.410513 
L 53.304748 131.303538 
L 53.408286 130.608198 
L 53.444623 130.501222 
L 53.543773 129.912857 
L 53.614024 129.805882 
L 53.716166 129.271005 
L 53.724203 129.271005 
L 53.757205 129.164029 
L 53.847207 128.736128 
L 53.917002 128.629152 
L 54.017434 128.308226 
L 54.024559 128.308226 
L 54.076428 128.201251 
L 54.18732 127.452423 
L 54.205816 127.345447 
L 54.316821 126.650107 
L 54.335289 126.543132 
L 54.441535 126.11523 
L 54.446038 126.11523 
L 54.506913 126.008255 
L 54.608742 125.687329 
L 54.609027 125.687329 
L 54.661608 125.580353 
L 54.732486 125.259427 
L 54.842551 125.152452 
L 54.946375 124.671062 
L 55.036918 124.564087 
L 55.147781 124.082697 
L 55.181097 123.975722 
L 55.282355 123.54782 
L 55.325732 123.440845 
L 55.418555 123.173406 
L 55.461674 123.066431 
L 55.560368 122.531554 
L 55.64541 122.424579 
L 55.754051 122.050165 
L 55.784459 121.943189 
L 55.87657 121.675751 
L 55.923052 121.568775 
L 55.962809 121.194361 
L 55.996581 121.194361 
L 56.055176 121.087386 
L 56.141672 120.712972 
L 56.144265 120.712972 
L 56.194197 120.605997 
L 56.302808 120.28507 
L 56.31797 120.178095 
L 56.377619 119.857169 
L 56.420881 119.857169 
L 56.455765 119.750193 
L 56.562011 119.268804 
L 56.588658 119.161829 
L 56.688919 118.573464 
L 56.722549 118.466488 
L 56.832671 118.038587 
L 56.888273 117.931611 
L 56.983119 117.610685 
L 57.097944 117.50371 
L 57.200314 117.236271 
L 57.24845 117.129296 
L 57.357318 116.701394 
L 57.380516 116.594419 
L 57.491522 116.113029 
L 57.501611 116.006054 
L 57.592039 115.471177 
L 57.607629 115.471177 
L 57.664571 115.364201 
L 57.759787 114.989788 
L 57.816644 114.882812 
L 57.888919 114.45491 
L 57.88966 114.45491 
L 57.959882 114.347935 
L 58.060485 113.813058 
L 58.102437 113.706083 
L 58.210592 113.331669 
L 58.27996 113.224693 
L 58.370047 113.010742 
L 58.388657 113.010742 
L 58.440355 112.903767 
L 58.548653 112.36889 
L 58.570968 112.261915 
L 58.679181 111.834013 
L 58.773058 111.727037 
L 58.876996 111.406111 
L 58.920429 111.299136 
L 58.984866 111.031697 
L 59.027901 111.031697 
L 59.064408 110.924722 
L 59.170027 110.49682 
L 59.173932 110.49682 
L 59.195506 110.389845 
L 59.301553 109.908456 
L 59.37682 109.80148 
L 59.444905 109.427066 
L 59.473319 109.427066 
L 59.543171 109.320091 
L 59.643974 108.731726 
L 59.724542 108.624751 
L 59.813546 108.143361 
L 59.850624 108.036386 
L 59.954162 107.608484 
L 60.015949 107.501509 
L 60.125188 107.127095 
L 60.219778 107.020119 
L 60.29627 106.913144 
L 60.340929 106.806169 
L 60.405822 106.485242 
L 60.432954 106.485242 
L 60.521274 106.378267 
L 60.627263 106.217804 
L 60.672064 106.110828 
L 60.766227 105.789902 
L 60.773608 105.789902 
L 60.863438 105.682927 
L 60.971965 105.362001 
L 61.093315 105.255025 
L 61.130365 105.094562 
L 61.203238 105.094562 
L 61.266136 104.987587 
L 61.318575 104.720148 
L 61.366226 104.720148 
L 61.464806 104.613173 
L 61.528901 104.45271 
L 61.571081 104.45271 
L 61.643925 104.345734 
L 61.705199 103.97132 
L 61.743902 103.97132 
L 61.840942 103.864345 
L 61.922223 103.596906 
L 61.936587 103.596906 
L 62.043716 103.489931 
L 62.109037 103.27598 
L 62.139018 103.27598 
L 62.207959 103.169005 
L 62.264958 103.008542 
L 62.302463 103.008542 
L 62.380352 102.901566 
L 62.443963 102.741103 
L 62.52949 102.634128 
L 62.629666 102.366689 
L 62.638386 102.366689 
L 62.736197 102.259714 
L 62.842015 101.992275 
L 62.957182 101.8853 
L 63.045844 101.778324 
L 63.214475 101.671349 
L 63.325082 101.457398 
L 63.393623 101.350423 
L 63.474419 101.136472 
L 63.549173 101.029496 
L 63.647069 100.70857 
L 63.649862 100.70857 
L 63.710452 100.601595 
L 63.819149 100.387644 
L 63.885268 100.280669 
L 63.961076 100.173693 
L 63.99425 100.173693 
L 64.042642 100.066718 
L 64.083538 99.906255 
L 64.140338 99.906255 
L 64.211587 99.799279 
L 64.319856 99.424865 
L 64.320483 99.424865 
L 64.348812 99.31789 
L 64.450241 98.996964 
L 64.4552 98.996964 
L 64.654497 98.889988 
L 64.755186 98.408599 
L 64.830482 98.301623 
L 64.906233 98.14116 
L 64.908998 98.14116 
L 65.010228 98.034185 
L 65.010228 97.980697 
L 65.099973 97.980697 
L 65.188321 97.873722 
L 65.29109 97.659771 
L 65.339083 97.552796 
L 65.436609 97.124894 
L 65.48483 97.017919 
L 65.58891 96.910943 
L 65.683215 96.803968 
L 65.767573 96.643505 
L 65.785984 96.643505 
L 65.892942 96.536529 
L 65.990838 96.162115 
L 66.071492 96.05514 
L 66.175771 95.627238 
L 66.282217 95.520263 
L 66.323256 95.413287 
L 66.388748 95.413287 
L 66.444692 95.306312 
L 66.55054 94.931898 
L 66.559374 94.824923 
L 66.634642 94.397021 
L 66.754482 94.290046 
L 66.826814 94.022607 
L 66.840921 94.022607 
L 66.950587 93.915632 
L 67.04626 93.808656 
L 67.114202 93.701681 
L 67.207681 93.48773 
L 67.263882 93.380755 
L 67.374631 93.166804 
L 67.404555 93.059828 
L 67.483983 92.79239 
L 67.489256 92.79239 
L 67.640901 92.685414 
L 67.73418 92.524951 
L 67.908711 92.417976 
L 67.971638 92.043562 
L 68.114933 91.936586 
L 68.223716 91.669148 
L 68.285702 91.562173 
L 68.394371 91.294734 
L 68.450429 91.187759 
L 68.536099 91.080783 
L 68.53949 91.080783 
L 68.579788 90.973808 
L 68.682672 90.759857 
L 68.806416 90.652882 
L 68.906079 90.438931 
L 68.910183 90.438931 
L 68.993003 90.331955 
L 69.096883 90.22498 
L 69.139575 90.118005 
L 69.20806 89.957541 
L 69.246021 89.957541 
L 69.324737 89.850566 
L 69.381821 89.636615 
L 69.397296 89.636615 
L 69.595767 89.52964 
L 69.705433 89.208714 
L 69.749037 89.101738 
L 69.844083 88.727324 
L 69.943175 88.620349 
L 69.967257 88.35291 
L 70.046002 88.35291 
L 70.117592 88.245935 
L 70.214462 87.925009 
L 70.523225 87.818033 
L 70.624285 87.443619 
L 70.741817 87.336644 
L 70.842819 87.122693 
L 70.896455 87.015718 
L 70.987083 86.801767 
L 71.005294 86.801767 
L 71.252613 86.694791 
L 71.319216 86.587816 
L 71.453392 86.480841 
L 71.469294 86.373865 
L 71.545987 86.373865 
L 71.608942 86.26689 
L 71.714134 85.892476 
L 71.835655 85.7855 
L 71.895989 85.464574 
L 71.905194 85.464574 
L 72.025718 85.357599 
L 72.125638 85.197136 
L 72.383985 85.09016 
L 72.472448 84.769234 
L 72.752398 84.662259 
L 72.846475 84.341332 
L 72.862891 84.341332 
L 72.884208 84.234357 
L 72.96432 84.073894 
L 72.981449 84.073894 
L 73.114627 83.966918 
L 73.203317 83.806455 
L 73.208191 83.806455 
L 73.289671 83.69948 
L 73.385714 83.432041 
L 73.395518 83.432041 
L 73.510798 83.325066 
L 73.613282 83.00414 
L 73.788697 82.897164 
L 73.881149 82.736701 
L 73.897964 82.736701 
L 74.108774 82.629726 
L 74.196382 82.469263 
L 74.21086 82.469263 
L 74.269112 82.362287 
L 74.380175 82.201824 
L 74.483771 82.094849 
L 74.585457 81.934386 
L 74.657959 81.82741 
L 74.765631 81.613459 
L 74.894106 81.506484 
L 75.000466 81.399509 
L 75.194291 81.292533 
L 75.301734 80.864631 
L 75.418383 80.757656 
L 75.418383 80.704168 
L 75.519271 80.704168 
L 75.699245 80.597193 
L 75.777248 80.383242 
L 75.79147 80.383242 
L 75.959503 80.276267 
L 75.969734 80.115804 
L 76.065521 80.115804 
L 76.242673 80.008828 
L 76.33276 79.74139 
L 76.336237 79.74139 
L 76.55708 79.634414 
L 76.600114 79.420463 
L 76.662813 79.420463 
L 76.851223 79.313488 
L 76.955104 79.046049 
L 77.010906 78.939074 
L 77.118662 78.725123 
L 77.294561 78.618148 
L 77.35478 78.457685 
L 77.388353 78.457685 
L 77.49799 78.350709 
L 77.527345 78.083271 
L 77.608768 78.083271 
L 77.687768 77.976295 
L 77.788771 77.815832 
L 77.981171 77.708857 
L 78.030988 77.548394 
L 78.090181 77.548394 
L 78.228318 77.441418 
L 78.248182 77.280955 
L 78.329491 77.280955 
L 78.45241 77.17398 
L 78.470706 77.067004 
L 78.538877 77.067004 
L 78.697477 76.960029 
L 78.798678 76.799566 
L 78.926499 76.69259 
L 79.019293 76.47864 
L 79.025876 76.47864 
L 79.078543 76.371664 
L 79.137224 76.264689 
L 79.183307 76.264689 
L 79.396569 76.157713 
L 79.504041 75.890275 
L 79.828906 75.783299 
L 79.828906 75.729812 
L 79.895025 75.729812 
L 80.085487 75.622836 
L 80.193329 75.462373 
L 80.376296 75.355398 
L 80.407902 75.248422 
L 80.474619 75.248422 
L 80.644961 75.141447 
L 80.739237 75.034472 
L 80.744452 75.034472 
L 81.071797 74.927496 
L 81.1728 74.820521 
L 81.178414 74.820521 
L 81.455914 74.713545 
L 81.463608 74.60657 
L 81.55683 74.60657 
L 81.644381 74.499595 
L 81.749373 74.339131 
L 81.994867 74.232156 
L 82.098349 73.91123 
L 82.104562 73.91123 
L 82.328653 73.804254 
L 82.409307 73.697279 
L 82.774955 73.590304 
L 82.848683 73.322865 
L 83.076081 73.21589 
L 83.097427 73.055426 
L 83.186003 73.055426 
L 83.352469 72.948451 
L 83.45709 72.7345 
L 83.78435 72.627525 
L 83.815928 72.520549 
L 83.852065 72.520549 
L 84.058458 72.413574 
L 84.058458 72.360086 
L 84.167754 72.360086 
L 84.39575 72.253111 
L 84.490111 72.03916 
L 84.714288 71.932185 
L 84.811472 71.718234 
L 84.82461 71.718234 
L 84.997744 71.611258 
L 84.998229 71.504283 
L 85.053261 71.504283 
L 85.24663 71.397308 
L 85.24663 71.34382 
L 85.337088 71.34382 
L 85.811633 71.236844 
L 85.884848 71.022894 
L 85.891773 71.022894 
L 86.027374 70.915918 
L 86.027374 70.862431 
L 86.0962 70.862431 
L 86.300114 70.755455 
L 86.382762 70.488017 
L 86.401401 70.488017 
L 86.677504 70.381041 
L 86.697454 70.274066 
L 86.915361 70.16709 
L 86.915361 70.113603 
L 86.97749 70.113603 
L 87.108673 70.006627 
L 87.108673 69.95314 
L 87.208791 69.95314 
L 87.286595 69.846164 
L 87.286595 69.792676 
L 87.390333 69.792676 
L 87.762992 69.685701 
L 87.823155 69.525238 
L 87.853792 69.525238 
L 88.234288 69.418263 
L 88.234288 69.364775 
L 88.263187 69.364775 
L 88.524242 69.311287 
L 88.632683 69.097336 
L 88.819041 68.990361 
L 88.871366 68.829898 
L 88.916424 68.829898 
L 89.176168 68.722922 
L 89.250295 68.615947 
L 89.278538 68.615947 
L 89.537399 68.508972 
L 89.633157 68.348508 
L 89.741911 68.241533 
L 89.82684 68.08107 
L 89.837271 68.08107 
L 89.957196 67.974094 
L 89.957196 67.920607 
L 90.013483 67.920607 
L 90.286137 67.813631 
L 90.321534 67.706656 
L 90.388422 67.706656 
L 90.663015 67.599681 
L 90.663015 67.546193 
L 90.709668 67.546193 
L 91.06007 67.439217 
L 91.06007 67.38573 
L 91.127585 67.38573 
L 91.658958 67.278754 
L 91.658958 67.225267 
L 91.761043 67.225267 
L 91.93754 67.118291 
L 91.93754 67.064803 
L 91.975502 67.064803 
L 92.13051 66.957828 
L 92.13051 66.90434 
L 92.205008 66.90434 
L 92.454065 66.797365 
L 92.52614 66.636902 
L 92.924449 66.529926 
L 93.00838 66.262488 
L 93.021319 66.262488 
L 94.144569 66.155512 
L 94.203135 65.995049 
L 94.214421 65.995049 
L 94.528771 65.888074 
L 94.632167 65.674123 
L 94.922092 65.567148 
L 94.953669 65.460172 
L 94.97701 65.460172 
L 95.092918 65.353197 
L 95.092918 65.299709 
L 95.148948 65.299709 
L 95.314644 65.192734 
L 95.314644 65.139246 
L 95.411229 65.139246 
L 95.584192 65.032271 
L 95.591146 64.925295 
L 95.681632 64.925295 
L 95.994556 64.81832 
L 96.103082 64.657857 
L 96.17795 64.550881 
L 96.287787 64.33693 
L 96.645285 64.229955 
L 96.645285 64.176467 
L 96.703766 64.176467 
L 97.162693 64.069492 
L 97.188371 63.909029 
L 97.256428 63.909029 
L 97.398612 63.802053 
L 97.42238 63.695078 
L 97.436032 63.695078 
L 97.681754 63.588103 
L 97.73844 63.481127 
L 97.753145 63.481127 
L 97.931695 63.374152 
L 97.967234 63.267176 
L 97.971081 63.267176 
L 98.365799 63.160201 
L 98.432288 62.94625 
L 98.581569 62.839275 
L 98.581569 62.785787 
L 98.648428 62.785787 
L 98.808567 62.678812 
L 98.808567 62.625324 
L 99.002363 62.518349 
L 99.065062 62.411373 
L 99.081706 62.411373 
L 99.284138 62.304398 
L 99.284138 62.25091 
L 99.307279 62.25091 
L 99.550779 62.143935 
L 99.650442 61.876496 
L 99.782936 61.769521 
L 99.885905 61.609058 
L 100.167394 61.502082 
L 100.265803 61.341619 
L 100.32511 61.234644 
L 100.346884 61.127668 
L 100.764629 61.020693 
L 100.827357 60.913717 
L 101.01665 60.806742 
L 101.01665 60.753254 
L 101.066581 60.753254 
L 101.579002 60.646279 
L 101.673335 60.485816 
L 101.992729 60.37884 
L 102.086464 60.218377 
L 102.43621 60.111402 
L 102.517433 59.950939 
L 102.921926 59.843963 
L 103.004375 59.736988 
L 103.322515 59.630012 
L 103.322515 59.576525 
L 103.544099 59.469549 
L 103.64208 59.362574 
L 103.828923 59.255598 
L 103.866485 59.095135 
L 103.900884 59.095135 
L 104.29107 58.98816 
L 104.329545 58.881185 
L 104.388453 58.881185 
L 104.831249 58.774209 
L 104.885142 58.667234 
L 105.109889 58.560258 
L 105.109889 58.506771 
L 105.645765 58.399795 
L 105.694014 58.29282 
L 105.750871 58.29282 
L 106.353293 58.185844 
L 106.353293 58.132357 
L 106.76779 58.025381 
L 106.76779 57.971894 
L 106.870616 57.971894 
L 107.516471 57.864918 
L 107.516471 57.81143 
L 107.533286 57.81143 
L 108.045564 57.704455 
L 108.152124 57.59748 
L 108.234487 57.490504 
L 108.234487 57.437016 
L 108.540857 57.330041 
L 108.561148 57.223066 
L 109.625063 57.11609 
L 109.625063 57.062603 
L 109.652878 57.062603 
L 110.169289 56.955627 
L 110.175986 56.848652 
L 110.896938 56.741676 
L 110.952084 56.634701 
L 110.954934 56.634701 
L 111.521988 56.527725 
L 111.521988 56.474238 
L 111.885385 56.367262 
L 111.885385 56.313775 
L 111.97855 56.313775 
L 112.085167 56.206799 
L 112.085167 56.153312 
L 112.501031 56.046336 
L 112.501031 55.992848 
L 112.711529 55.885873 
L 112.711529 55.832385 
L 113.012626 55.72541 
L 113.069226 55.511459 
L 113.450862 55.404484 
L 113.488852 55.297508 
L 113.528181 55.297508 
L 113.715679 55.190533 
L 113.715679 55.137045 
L 113.805481 55.137045 
L 113.95992 55.03007 
L 114.027264 54.816119 
L 114.614012 54.709144 
L 114.695948 54.602168 
L 115.026228 54.495193 
L 115.067353 54.388217 
L 115.447736 54.281242 
L 115.45412 54.174266 
L 116.14432 54.067291 
L 116.188551 53.960316 
L 116.383858 53.85334 
L 116.432764 53.746365 
L 117.02598 53.639389 
L 117.02598 53.585902 
L 117.777483 53.478926 
L 117.860246 53.371951 
L 118.828972 53.264975 
L 118.899594 53.104512 
L 119.773673 52.997537 
L 119.773673 52.944049 
L 119.801887 52.944049 
L 120.095147 52.837074 
L 120.13858 52.730098 
L 120.487528 52.623123 
L 120.487528 52.569635 
L 120.550369 52.569635 
L 121.089238 52.46266 
L 121.089238 52.409172 
L 121.170775 52.409172 
L 121.33288 52.302197 
L 121.33288 52.248709 
L 121.373007 52.248709 
L 121.650535 52.141734 
L 121.669345 52.034758 
L 122.522648 51.927783 
L 122.522648 51.874295 
L 123.12185 51.76732 
L 123.12185 51.713832 
L 123.563905 51.606857 
L 123.662399 51.499881 
L 124.695278 51.392906 
L 124.695278 51.339418 
L 124.794769 51.339418 
L 125.505718 51.232443 
L 125.583493 51.125467 
L 126.299514 51.018492 
L 126.299514 50.965004 
L 127.149739 50.858029 
L 127.149739 50.804541 
L 127.959409 50.697566 
L 127.959409 50.644078 
L 128.517914 50.537102 
L 128.605863 50.376639 
L 128.763836 50.269664 
L 128.873673 50.109201 
L 128.985362 50.002225 
L 128.985362 49.948738 
L 129.077444 49.948738 
L 129.605597 49.841762 
L 129.677073 49.734787 
L 130.227 49.627811 
L 130.227 49.574324 
L 130.546137 49.467348 
L 130.568765 49.360373 
L 130.95385 49.253398 
L 130.95385 49.19991 
L 131.823028 49.092934 
L 131.823028 49.039447 
L 131.84634 49.039447 
L 132.24787 48.932471 
L 132.24787 48.878984 
L 132.293554 48.878984 
L 133.10901 48.772008 
L 133.128931 48.611545 
L 133.19505 48.611545 
L 133.57834 48.50457 
L 133.619721 48.397594 
L 133.66837 48.397594 
L 133.840164 48.290619 
L 133.886932 48.183643 
L 133.950942 48.183643 
L 134.379802 48.076668 
L 134.379802 48.02318 
L 134.486447 48.02318 
L 135.192779 47.916205 
L 135.266421 47.80923 
L 135.467571 47.702254 
L 135.532834 47.595279 
L 135.559681 47.595279 
L 136.275645 47.488303 
L 136.335038 47.381328 
L 136.372429 47.381328 
L 136.764668 47.274352 
L 136.764668 47.220865 
L 136.784418 47.220865 
L 137.251211 47.113889 
L 137.251211 47.060402 
L 137.890825 46.953426 
L 137.890825 46.899939 
L 137.956488 46.899939 
L 138.590516 46.792963 
L 138.590516 46.739475 
L 138.643895 46.739475 
L 139.246033 46.6325 
L 139.30078 46.525525 
L 140.139035 46.418549 
L 140.16819 46.311574 
L 140.843229 46.204598 
L 140.909947 46.044135 
L 141.392015 45.93716 
L 141.440664 45.830184 
L 142.25498 45.723209 
L 142.25498 45.669721 
L 143.074568 45.562746 
L 143.074568 45.509258 
L 143.744449 45.402283 
L 143.832597 45.295307 
L 143.853459 45.295307 
L 144.051217 45.188332 
L 144.126655 45.081357 
L 146.146043 44.974381 
L 146.146043 44.920893 
L 146.155277 44.920893 
L 146.806832 44.813918 
L 146.840775 44.706943 
L 147.852564 44.599967 
L 147.852564 44.546479 
L 147.877615 44.546479 
L 148.7493 44.439504 
L 148.7493 44.386016 
L 148.834428 44.386016 
L 149.135525 44.279041 
L 149.184345 44.172066 
L 149.833164 44.06509 
L 149.880303 43.958115 
L 150.686524 43.851139 
L 150.686524 43.797652 
L 151.406222 43.690676 
L 151.406222 43.637188 
L 152.343228 43.530213 
L 152.343228 43.476725 
L 153.505922 43.36975 
L 153.505922 43.316262 
L 154.255686 43.209287 
L 154.255686 43.155799 
L 154.329386 43.155799 
L 155.562074 43.048824 
L 155.653814 42.941848 
L 156.037645 42.834873 
L 156.103849 42.67441 
L 157.524577 42.567434 
L 157.524577 42.513947 
L 157.584797 42.513947 
L 158.341601 42.406971 
L 158.341601 42.353484 
L 158.427612 42.353484 
L 158.807881 42.246508 
L 158.879471 42.139533 
L 159.481808 42.032557 
L 159.481808 41.97907 
L 159.908958 41.872094 
L 160.00332 41.711631 
L 161.445366 41.604656 
L 161.445366 41.551168 
L 162.211546 41.444193 
L 162.211546 41.390705 
L 162.282652 41.390705 
L 163.337105 41.283729 
L 163.337105 41.230242 
L 163.858873 41.123266 
L 163.964863 40.909316 
L 164.699409 40.80234 
L 164.725942 40.695365 
L 165.327708 40.588389 
L 165.327708 40.534902 
L 167.787271 40.427926 
L 167.787271 40.374438 
L 167.817993 40.374438 
L 169.119736 40.267463 
L 169.119736 40.213975 
L 169.439244 40.107 
L 169.498266 40.000025 
L 170.75327 39.893049 
L 170.75327 39.839561 
L 171.214648 39.732586 
L 171.217355 39.625611 
L 171.946201 39.518635 
L 171.946201 39.465147 
L 172.851715 39.358172 
L 172.851715 39.304684 
L 173.728046 39.197709 
L 173.800378 39.090734 
L 174.380912 38.983758 
L 174.380912 38.93027 
L 174.881591 38.823295 
L 174.881591 38.769807 
L 176.018464 38.662832 
L 176.018464 38.609344 
L 177.402257 38.502369 
L 177.411149 38.395393 
L 178.574783 38.288418 
L 178.574783 38.23493 
L 180.799367 38.127955 
L 180.799367 38.074467 
L 180.864773 38.074467 
L 181.984746 37.967492 
L 182.071499 37.860516 
L 183.186057 37.753541 
L 183.208172 37.646565 
L 183.52047 37.53959 
L 183.52047 37.486102 
L 183.543611 37.486102 
L 184.39167 37.379127 
L 184.477625 37.272152 
L 185.115472 37.165176 
L 185.189428 37.058201 
L 185.472 36.951225 
L 185.472 36.897738 
L 186.411799 36.790762 
L 186.411799 36.737274 
L 187.306626 36.630299 
L 187.306626 36.576811 
L 190.142354 36.469836 
L 190.197386 36.362861 
L 191.151663 36.255885 
L 191.151663 36.202397 
L 193.111972 36.095422 
L 193.207018 35.934959 
L 194.206409 35.827983 
L 194.206409 35.774496 
L 195.621751 35.66752 
L 195.621751 35.614033 
L 196.371914 35.507057 
L 196.371914 35.45357 
L 198.474122 35.346594 
L 198.474122 35.293106 
L 199.507798 35.186131 
L 199.507798 35.132643 
L 199.951621 35.025668 
L 199.951621 34.97218 
L 200.63501 34.865205 
L 200.63501 34.811717 
L 201.65113 34.704742 
L 201.65113 34.651254 
L 203.224787 34.544279 
L 203.224787 34.490791 
L 203.776537 34.383815 
L 203.776537 34.330328 
L 205.183043 34.223352 
L 205.183043 34.169865 
L 205.836166 34.062889 
L 205.836166 34.009402 
L 205.936969 34.009402 
L 206.58385 33.902426 
L 206.58385 33.848938 
L 207.333615 33.741963 
L 207.333615 33.688475 
L 207.418686 33.688475 
L 209.446453 33.5815 
L 209.446453 33.528012 
L 210.693847 33.421037 
L 210.785586 33.314061 
L 214.824277 33.207086 
L 214.868822 33.100111 
L 216.982116 32.993135 
L 217.030365 32.88616 
L 217.051569 32.88616 
L 219.858569 32.779184 
L 219.858569 32.725697 
L 221.861 32.618721 
L 221.881349 32.511746 
L 223.298315 32.40477 
L 223.298315 32.351283 
L 223.349614 32.351283 
L 224.176013 32.244307 
L 224.176013 32.19082 
L 225.479409 32.083844 
L 225.479409 32.030356 
L 226.498294 31.923381 
L 226.498294 31.869893 
L 227.33863 31.762918 
L 227.33863 31.70943 
L 228.143256 31.602455 
L 228.143256 31.548967 
L 231.073516 31.441992 
L 231.073516 31.388504 
L 232.238718 31.281529 
L 232.238718 31.228041 
L 236.34025 31.121065 
L 236.34025 31.067578 
L 237.583597 30.960602 
L 237.583597 30.907115 
L 238.935755 30.800139 
L 238.935755 30.746651 
L 240.121619 30.639676 
L 240.121619 30.586188 
L 242.022534 30.479213 
L 242.034504 30.372238 
L 243.174911 30.265262 
L 243.174911 30.211774 
L 243.25907 30.211774 
L 244.486628 30.104799 
L 244.585237 29.944336 
L 245.393511 29.83736 
L 245.393511 29.783873 
L 245.974672 29.676897 
L 245.974672 29.62341 
L 246.970957 29.516434 
L 246.970957 29.462947 
L 249.347358 29.355971 
L 249.347358 29.302483 
L 250.057651 29.195508 
L 250.057651 29.14202 
L 250.133745 29.14202 
L 252.816715 29.035045 
L 252.816715 28.981557 
L 254.042677 28.874582 
L 254.042677 28.821094 
L 257.493566 28.714119 
L 257.53509 28.607143 
L 258.510656 28.500168 
L 258.510656 28.44668 
L 260.623408 28.339705 
L 260.623408 28.286217 
L 262.657018 28.179242 
L 262.657018 28.125754 
L 265.221173 28.018779 
L 265.221173 27.965291 
L 265.268141 27.965291 
L 268.259019 27.858315 
L 268.259019 27.804828 
L 271.021788 27.697852 
L 271.021788 27.644365 
L 272.023288 27.537389 
L 272.023288 27.483901 
L 273.747393 27.376926 
L 273.747393 27.323438 
L 273.817531 27.323438 
L 277.451614 27.216463 
L 277.451614 27.162975 
L 278.139877 27.056 
L 278.139877 27.002512 
L 282.023758 26.895537 
L 282.023758 26.895537 
" clip-path="url(#pad225225c0)" style="fill: none; stroke: #1f77b4; stroke-width: 1.5; stroke-linecap: round"/>
   </g>
   <g id="line2d_26">
    <path d="M 42.831699 265.022801 
L 282.023758 26.895537 
" clip-path="url(#pad225225c0)" style="fill: none; stroke-dasharray: 5.55,2.4; stroke-dashoffset: 0; stroke: #999999; stroke-width: 1.5"/>
   </g>
   <g id="patch_3">
    <path d="M 35.655938 265.022801 
L 35.655938 19.751719 
" style="fill: none"/>
   </g>
   <g id="patch_4">
    <path d="M 289.19952 265.022801 
L 289.19952 19.751719 
" style="fill: none"/>
   </g>
   <g id="patch_5">
    <path d="M 35.655938 265.022801 
L 289.19952 265.022801 
" style="fill: none"/>
   </g>
   <g id="patch_6">
    <path d="M 35.655938 19.751719 
L 289.19952 19.751719 
" style="fill: none"/>
   </g>
   <g id="text_15">
    <!-- Model 2: Receiver Operating Characteristic (ROC) Curve -->
    <g style="fill: #333333" transform="translate(42.14976 13.751719) scale(0.09 -0.09)">
     <defs>
      <path id="Arial-BoldMT-4d" d="M 453 0 
L 453 4581 
L 1838 4581 
L 2669 1456 
L 3491 4581 
L 4878 4581 
L 4878 0 
L 4019 0 
L 4019 3606 
L 3109 0 
L 2219 0 
L 1313 3606 
L 1313 0 
L 453 0 
z
" transform="scale(0.015625)"/>
      <path id="Arial-BoldMT-64" d="M 3503 0 
L 2688 0 
L 2688 488 
Q 2484 203 2207 64 
Q 1931 -75 1650 -75 
Q 1078 -75 670 386 
Q 263 847 263 1672 
Q 263 2516 659 2955 
Q 1056 3394 1663 3394 
Q 2219 3394 2625 2931 
L 2625 4581 
L 3503 4581 
L 3503 0 
z
M 1159 1731 
Q 1159 1200 1306 963 
Q 1519 619 1900 619 
Q 2203 619 2415 876 
Q 2628 1134 2628 1647 
Q 2628 2219 2422 2470 
Q 2216 2722 1894 2722 
Q 1581 2722 1370 2473 
Q 1159 2225 1159 1731 
z
" transform="scale(0.015625)"/>
      <path id="Arial-BoldMT-32" d="M 3238 816 
L 3238 0 
L 159 0 
Q 209 463 459 877 
Q 709 1291 1447 1975 
Q 2041 2528 2175 2725 
Q 2356 2997 2356 3263 
Q 2356 3556 2198 3714 
Q 2041 3872 1763 3872 
Q 1488 3872 1325 3706 
Q 1163 3541 1138 3156 
L 263 3244 
Q 341 3969 753 4284 
Q 1166 4600 1784 4600 
Q 2463 4600 2850 4234 
Q 3238 3869 3238 3325 
Q 3238 3016 3127 2736 
Q 3016 2456 2775 2150 
Q 2616 1947 2200 1565 
Q 1784 1184 1673 1059 
Q 1563 934 1494 816 
L 3238 816 
z
" transform="scale(0.015625)"/>
      <path id="Arial-BoldMT-3a" d="M 628 2441 
L 628 3319 
L 1506 3319 
L 1506 2441 
L 628 2441 
z
M 628 0 
L 628 878 
L 1506 878 
L 1506 0 
L 628 0 
z
" transform="scale(0.015625)"/>
      <path id="Arial-BoldMT-63" d="M 3353 2338 
L 2488 2181 
Q 2444 2441 2289 2572 
Q 2134 2703 1888 2703 
Q 1559 2703 1364 2476 
Q 1169 2250 1169 1719 
Q 1169 1128 1367 884 
Q 1566 641 1900 641 
Q 2150 641 2309 783 
Q 2469 925 2534 1272 
L 3397 1125 
Q 3263 531 2881 228 
Q 2500 -75 1859 -75 
Q 1131 -75 698 384 
Q 266 844 266 1656 
Q 266 2478 700 2936 
Q 1134 3394 1875 3394 
Q 2481 3394 2839 3133 
Q 3197 2872 3353 2338 
z
" transform="scale(0.015625)"/>
      <path id="Arial-BoldMT-4f" d="M 278 2263 
Q 278 2963 488 3438 
Q 644 3788 914 4066 
Q 1184 4344 1506 4478 
Q 1934 4659 2494 4659 
Q 3506 4659 4114 4031 
Q 4722 3403 4722 2284 
Q 4722 1175 4119 548 
Q 3516 -78 2506 -78 
Q 1484 -78 881 545 
Q 278 1169 278 2263 
z
M 1231 2294 
Q 1231 1516 1590 1114 
Q 1950 713 2503 713 
Q 3056 713 3411 1111 
Q 3766 1509 3766 2306 
Q 3766 3094 3420 3481 
Q 3075 3869 2503 3869 
Q 1931 3869 1581 3476 
Q 1231 3084 1231 2294 
z
" transform="scale(0.015625)"/>
      <path id="Arial-BoldMT-70" d="M 434 3319 
L 1253 3319 
L 1253 2831 
Q 1413 3081 1684 3237 
Q 1956 3394 2288 3394 
Q 2866 3394 3269 2941 
Q 3672 2488 3672 1678 
Q 3672 847 3265 386 
Q 2859 -75 2281 -75 
Q 2006 -75 1782 34 
Q 1559 144 1313 409 
L 1313 -1263 
L 434 -1263 
L 434 3319 
z
M 1303 1716 
Q 1303 1156 1525 889 
Q 1747 622 2066 622 
Q 2372 622 2575 867 
Q 2778 1113 2778 1672 
Q 2778 2194 2568 2447 
Q 2359 2700 2050 2700 
Q 1728 2700 1515 2451 
Q 1303 2203 1303 1716 
z
" transform="scale(0.015625)"/>
      <path id="Arial-BoldMT-6e" d="M 3478 0 
L 2600 0 
L 2600 1694 
Q 2600 2231 2544 2389 
Q 2488 2547 2361 2634 
Q 2234 2722 2056 2722 
Q 1828 2722 1647 2597 
Q 1466 2472 1398 2265 
Q 1331 2059 1331 1503 
L 1331 0 
L 453 0 
L 453 3319 
L 1269 3319 
L 1269 2831 
Q 1703 3394 2363 3394 
Q 2653 3394 2893 3289 
Q 3134 3184 3257 3021 
Q 3381 2859 3429 2653 
Q 3478 2447 3478 2063 
L 3478 0 
z
" transform="scale(0.015625)"/>
      <path id="Arial-BoldMT-67" d="M 378 -219 
L 1381 -341 
Q 1406 -516 1497 -581 
Q 1622 -675 1891 -675 
Q 2234 -675 2406 -572 
Q 2522 -503 2581 -350 
Q 2622 -241 2622 53 
L 2622 538 
Q 2228 0 1628 0 
Q 959 0 569 566 
Q 263 1013 263 1678 
Q 263 2513 664 2953 
Q 1066 3394 1663 3394 
Q 2278 3394 2678 2853 
L 2678 3319 
L 3500 3319 
L 3500 341 
Q 3500 -247 3403 -537 
Q 3306 -828 3131 -993 
Q 2956 -1159 2664 -1253 
Q 2372 -1347 1925 -1347 
Q 1081 -1347 728 -1058 
Q 375 -769 375 -325 
Q 375 -281 378 -219 
z
M 1163 1728 
Q 1163 1200 1367 954 
Q 1572 709 1872 709 
Q 2194 709 2416 961 
Q 2638 1213 2638 1706 
Q 2638 2222 2425 2472 
Q 2213 2722 1888 2722 
Q 1572 2722 1367 2476 
Q 1163 2231 1163 1728 
z
" transform="scale(0.015625)"/>
      <path id="Arial-BoldMT-43" d="M 3397 1684 
L 4294 1400 
Q 4088 650 3608 286 
Q 3128 -78 2391 -78 
Q 1478 -78 890 545 
Q 303 1169 303 2250 
Q 303 3394 893 4026 
Q 1484 4659 2447 4659 
Q 3288 4659 3813 4163 
Q 4125 3869 4281 3319 
L 3366 3100 
Q 3284 3456 3026 3662 
Q 2769 3869 2400 3869 
Q 1891 3869 1573 3503 
Q 1256 3138 1256 2319 
Q 1256 1450 1568 1081 
Q 1881 713 2381 713 
Q 2750 713 3015 947 
Q 3281 1181 3397 1684 
z
" transform="scale(0.015625)"/>
      <path id="Arial-BoldMT-68" d="M 1334 4581 
L 1334 2897 
Q 1759 3394 2350 3394 
Q 2653 3394 2897 3281 
Q 3141 3169 3264 2994 
Q 3388 2819 3433 2606 
Q 3478 2394 3478 1947 
L 3478 0 
L 2600 0 
L 2600 1753 
Q 2600 2275 2550 2415 
Q 2500 2556 2373 2639 
Q 2247 2722 2056 2722 
Q 1838 2722 1666 2615 
Q 1494 2509 1414 2295 
Q 1334 2081 1334 1663 
L 1334 0 
L 456 0 
L 456 4581 
L 1334 4581 
z
" transform="scale(0.015625)"/>
     </defs>
     <use xlink:href="#Arial-BoldMT-4d"/>
     <use xlink:href="#Arial-BoldMT-6f" transform="translate(83.300781 0)"/>
     <use xlink:href="#Arial-BoldMT-64" transform="translate(144.384766 0)"/>
     <use xlink:href="#Arial-BoldMT-65" transform="translate(205.46875 0)"/>
     <use xlink:href="#Arial-BoldMT-6c" transform="translate(261.083984 0)"/>
     <use xlink:href="#Arial-BoldMT-20" transform="translate(288.867188 0)"/>
     <use xlink:href="#Arial-BoldMT-32" transform="translate(316.650391 0)"/>
     <use xlink:href="#Arial-BoldMT-3a" transform="translate(372.265625 0)"/>
     <use xlink:href="#Arial-BoldMT-20" transform="translate(405.566406 0)"/>
     <use xlink:href="#Arial-BoldMT-52" transform="translate(433.349609 0)"/>
     <use xlink:href="#Arial-BoldMT-65" transform="translate(505.566406 0)"/>
     <use xlink:href="#Arial-BoldMT-63" transform="translate(561.181641 0)"/>
     <use xlink:href="#Arial-BoldMT-65" transform="translate(616.796875 0)"/>
     <use xlink:href="#Arial-BoldMT-69" transform="translate(672.412109 0)"/>
     <use xlink:href="#Arial-BoldMT-76" transform="translate(700.195312 0)"/>
     <use xlink:href="#Arial-BoldMT-65" transform="translate(755.810547 0)"/>
     <use xlink:href="#Arial-BoldMT-72" transform="translate(811.425781 0)"/>
     <use xlink:href="#Arial-BoldMT-20" transform="translate(850.341797 0)"/>
     <use xlink:href="#Arial-BoldMT-4f" transform="translate(878.125 0)"/>
     <use xlink:href="#Arial-BoldMT-70" transform="translate(955.908203 0)"/>
     <use xlink:href="#Arial-BoldMT-65" transform="translate(1016.992188 0)"/>
     <use xlink:href="#Arial-BoldMT-72" transform="translate(1072.607422 0)"/>
     <use xlink:href="#Arial-BoldMT-61" transform="translate(1111.523438 0)"/>
     <use xlink:href="#Arial-BoldMT-74" transform="translate(1167.138672 0)"/>
     <use xlink:href="#Arial-BoldMT-69" transform="translate(1200.439453 0)"/>
     <use xlink:href="#Arial-BoldMT-6e" transform="translate(1228.222656 0)"/>
     <use xlink:href="#Arial-BoldMT-67" transform="translate(1289.306641 0)"/>
     <use xlink:href="#Arial-BoldMT-20" transform="translate(1350.390625 0)"/>
     <use xlink:href="#Arial-BoldMT-43" transform="translate(1378.173828 0)"/>
     <use xlink:href="#Arial-BoldMT-68" transform="translate(1450.390625 0)"/>
     <use xlink:href="#Arial-BoldMT-61" transform="translate(1511.474609 0)"/>
     <use xlink:href="#Arial-BoldMT-72" transform="translate(1567.089844 0)"/>
     <use xlink:href="#Arial-BoldMT-61" transform="translate(1606.005859 0)"/>
     <use xlink:href="#Arial-BoldMT-63" transform="translate(1661.621094 0)"/>
     <use xlink:href="#Arial-BoldMT-74" transform="translate(1717.236328 0)"/>
     <use xlink:href="#Arial-BoldMT-65" transform="translate(1750.537109 0)"/>
     <use xlink:href="#Arial-BoldMT-72" transform="translate(1806.152344 0)"/>
     <use xlink:href="#Arial-BoldMT-69" transform="translate(1845.068359 0)"/>
     <use xlink:href="#Arial-BoldMT-73" transform="translate(1872.851562 0)"/>
     <use xlink:href="#Arial-BoldMT-74" transform="translate(1928.466797 0)"/>
     <use xlink:href="#Arial-BoldMT-69" transform="translate(1961.767578 0)"/>
     <use xlink:href="#Arial-BoldMT-63" transform="translate(1989.550781 0)"/>
     <use xlink:href="#Arial-BoldMT-20" transform="translate(2045.166016 0)"/>
     <use xlink:href="#Arial-BoldMT-28" transform="translate(2072.949219 0)"/>
     <use xlink:href="#Arial-BoldMT-52" transform="translate(2106.25 0)"/>
     <use xlink:href="#Arial-BoldMT-4f" transform="translate(2178.466797 0)"/>
     <use xlink:href="#Arial-BoldMT-43" transform="translate(2256.25 0)"/>
     <use xlink:href="#Arial-BoldMT-29" transform="translate(2328.466797 0)"/>
     <use xlink:href="#Arial-BoldMT-20" transform="translate(2361.767578 0)"/>
     <use xlink:href="#Arial-BoldMT-43" transform="translate(2389.550781 0)"/>
     <use xlink:href="#Arial-BoldMT-75" transform="translate(2461.767578 0)"/>
     <use xlink:href="#Arial-BoldMT-72" transform="translate(2522.851562 0)"/>
     <use xlink:href="#Arial-BoldMT-76" transform="translate(2561.767578 0)"/>
     <use xlink:href="#Arial-BoldMT-65" transform="translate(2617.382812 0)"/>
    </g>
   </g>
   <g id="legend_1">
    <g id="patch_7">
     <path d="M 182.577645 260.522801 
L 282.89952 260.522801 
Q 284.69952 260.522801 284.69952 258.722801 
L 284.69952 234.161239 
Q 284.69952 232.361239 282.89952 232.361239 
L 182.577645 232.361239 
Q 180.777645 232.361239 180.777645 234.161239 
L 180.777645 258.722801 
Q 180.777645 260.522801 182.577645 260.522801 
z
" style="fill: #ffffff; opacity: 0.8; stroke: #cccccc; stroke-width: 0.75; stroke-linejoin: miter"/>
    </g>
    <g id="line2d_27">
     <path d="M 184.377645 239.25327 
L 193.377645 239.25327 
L 202.377645 239.25327 
" style="fill: none; stroke: #1f77b4; stroke-width: 1.5; stroke-linecap: round"/>
    </g>
    <g id="text_16">
     <!-- ROC curve -->
     <g style="fill: #333333" transform="translate(209.577645 242.40327) scale(0.09 -0.09)">
      <defs>
       <path id="ArialMT-52" d="M 503 0 
L 503 4581 
L 2534 4581 
Q 3147 4581 3465 4457 
Q 3784 4334 3975 4021 
Q 4166 3709 4166 3331 
Q 4166 2844 3850 2509 
Q 3534 2175 2875 2084 
Q 3116 1969 3241 1856 
Q 3506 1613 3744 1247 
L 4541 0 
L 3778 0 
L 3172 953 
Q 2906 1366 2734 1584 
Q 2563 1803 2427 1890 
Q 2291 1978 2150 2013 
Q 2047 2034 1813 2034 
L 1109 2034 
L 1109 0 
L 503 0 
z
M 1109 2559 
L 2413 2559 
Q 2828 2559 3062 2645 
Q 3297 2731 3419 2920 
Q 3541 3109 3541 3331 
Q 3541 3656 3305 3865 
Q 3069 4075 2559 4075 
L 1109 4075 
L 1109 2559 
z
" transform="scale(0.015625)"/>
       <path id="ArialMT-4f" d="M 309 2231 
Q 309 3372 921 4017 
Q 1534 4663 2503 4663 
Q 3138 4663 3647 4359 
Q 4156 4056 4423 3514 
Q 4691 2972 4691 2284 
Q 4691 1588 4409 1038 
Q 4128 488 3612 205 
Q 3097 -78 2500 -78 
Q 1853 -78 1343 234 
Q 834 547 571 1087 
Q 309 1628 309 2231 
z
M 934 2222 
Q 934 1394 1379 917 
Q 1825 441 2497 441 
Q 3181 441 3623 922 
Q 4066 1403 4066 2288 
Q 4066 2847 3877 3264 
Q 3688 3681 3323 3911 
Q 2959 4141 2506 4141 
Q 1863 4141 1398 3698 
Q 934 3256 934 2222 
z
" transform="scale(0.015625)"/>
       <path id="ArialMT-43" d="M 3763 1606 
L 4369 1453 
Q 4178 706 3683 314 
Q 3188 -78 2472 -78 
Q 1731 -78 1267 223 
Q 803 525 561 1097 
Q 319 1669 319 2325 
Q 319 3041 592 3573 
Q 866 4106 1370 4382 
Q 1875 4659 2481 4659 
Q 3169 4659 3637 4309 
Q 4106 3959 4291 3325 
L 3694 3184 
Q 3534 3684 3231 3912 
Q 2928 4141 2469 4141 
Q 1941 4141 1586 3887 
Q 1231 3634 1087 3207 
Q 944 2781 944 2328 
Q 944 1744 1114 1308 
Q 1284 872 1643 656 
Q 2003 441 2422 441 
Q 2931 441 3284 734 
Q 3638 1028 3763 1606 
z
" transform="scale(0.015625)"/>
       <path id="ArialMT-20" transform="scale(0.015625)"/>
       <path id="ArialMT-63" d="M 2588 1216 
L 3141 1144 
Q 3050 572 2676 248 
Q 2303 -75 1759 -75 
Q 1078 -75 664 370 
Q 250 816 250 1647 
Q 250 2184 428 2587 
Q 606 2991 970 3192 
Q 1334 3394 1763 3394 
Q 2303 3394 2647 3120 
Q 2991 2847 3088 2344 
L 2541 2259 
Q 2463 2594 2264 2762 
Q 2066 2931 1784 2931 
Q 1359 2931 1093 2626 
Q 828 2322 828 1663 
Q 828 994 1084 691 
Q 1341 388 1753 388 
Q 2084 388 2306 591 
Q 2528 794 2588 1216 
z
" transform="scale(0.015625)"/>
       <path id="ArialMT-75" d="M 2597 0 
L 2597 488 
Q 2209 -75 1544 -75 
Q 1250 -75 995 37 
Q 741 150 617 320 
Q 494 491 444 738 
Q 409 903 409 1263 
L 409 3319 
L 972 3319 
L 972 1478 
Q 972 1038 1006 884 
Q 1059 663 1231 536 
Q 1403 409 1656 409 
Q 1909 409 2131 539 
Q 2353 669 2445 892 
Q 2538 1116 2538 1541 
L 2538 3319 
L 3100 3319 
L 3100 0 
L 2597 0 
z
" transform="scale(0.015625)"/>
       <path id="ArialMT-72" d="M 416 0 
L 416 3319 
L 922 3319 
L 922 2816 
Q 1116 3169 1280 3281 
Q 1444 3394 1641 3394 
Q 1925 3394 2219 3213 
L 2025 2691 
Q 1819 2813 1613 2813 
Q 1428 2813 1281 2702 
Q 1134 2591 1072 2394 
Q 978 2094 978 1738 
L 978 0 
L 416 0 
z
" transform="scale(0.015625)"/>
       <path id="ArialMT-76" d="M 1344 0 
L 81 3319 
L 675 3319 
L 1388 1331 
Q 1503 1009 1600 663 
Q 1675 925 1809 1294 
L 2547 3319 
L 3125 3319 
L 1869 0 
L 1344 0 
z
" transform="scale(0.015625)"/>
       <path id="ArialMT-65" d="M 2694 1069 
L 3275 997 
Q 3138 488 2766 206 
Q 2394 -75 1816 -75 
Q 1088 -75 661 373 
Q 234 822 234 1631 
Q 234 2469 665 2931 
Q 1097 3394 1784 3394 
Q 2450 3394 2872 2941 
Q 3294 2488 3294 1666 
Q 3294 1616 3291 1516 
L 816 1516 
Q 847 969 1125 678 
Q 1403 388 1819 388 
Q 2128 388 2347 550 
Q 2566 713 2694 1069 
z
M 847 1978 
L 2700 1978 
Q 2663 2397 2488 2606 
Q 2219 2931 1791 2931 
Q 1403 2931 1139 2672 
Q 875 2413 847 1978 
z
" transform="scale(0.015625)"/>
      </defs>
      <use xlink:href="#ArialMT-52"/>
      <use xlink:href="#ArialMT-4f" transform="translate(72.216797 0)"/>
      <use xlink:href="#ArialMT-43" transform="translate(150 0)"/>
      <use xlink:href="#ArialMT-20" transform="translate(222.216797 0)"/>
      <use xlink:href="#ArialMT-63" transform="translate(250 0)"/>
      <use xlink:href="#ArialMT-75" transform="translate(300 0)"/>
      <use xlink:href="#ArialMT-72" transform="translate(355.615234 0)"/>
      <use xlink:href="#ArialMT-76" transform="translate(388.916016 0)"/>
      <use xlink:href="#ArialMT-65" transform="translate(438.916016 0)"/>
     </g>
    </g>
    <g id="line2d_28">
     <path d="M 184.377645 251.984051 
L 193.377645 251.984051 
L 202.377645 251.984051 
" style="fill: none; stroke-dasharray: 5.55,2.4; stroke-dashoffset: 0; stroke: #999999; stroke-width: 1.5"/>
    </g>
    <g id="text_17">
     <!-- Random classifier -->
     <g style="fill: #333333" transform="translate(209.577645 255.134051) scale(0.09 -0.09)">
      <defs>
       <path id="ArialMT-61" d="M 2588 409 
Q 2275 144 1986 34 
Q 1697 -75 1366 -75 
Q 819 -75 525 192 
Q 231 459 231 875 
Q 231 1119 342 1320 
Q 453 1522 633 1644 
Q 813 1766 1038 1828 
Q 1203 1872 1538 1913 
Q 2219 1994 2541 2106 
Q 2544 2222 2544 2253 
Q 2544 2597 2384 2738 
Q 2169 2928 1744 2928 
Q 1347 2928 1158 2789 
Q 969 2650 878 2297 
L 328 2372 
Q 403 2725 575 2942 
Q 747 3159 1072 3276 
Q 1397 3394 1825 3394 
Q 2250 3394 2515 3294 
Q 2781 3194 2906 3042 
Q 3031 2891 3081 2659 
Q 3109 2516 3109 2141 
L 3109 1391 
Q 3109 606 3145 398 
Q 3181 191 3288 0 
L 2700 0 
Q 2613 175 2588 409 
z
M 2541 1666 
Q 2234 1541 1622 1453 
Q 1275 1403 1131 1340 
Q 988 1278 909 1158 
Q 831 1038 831 891 
Q 831 666 1001 516 
Q 1172 366 1500 366 
Q 1825 366 2078 508 
Q 2331 650 2450 897 
Q 2541 1088 2541 1459 
L 2541 1666 
z
" transform="scale(0.015625)"/>
       <path id="ArialMT-6e" d="M 422 0 
L 422 3319 
L 928 3319 
L 928 2847 
Q 1294 3394 1984 3394 
Q 2284 3394 2536 3286 
Q 2788 3178 2913 3003 
Q 3038 2828 3088 2588 
Q 3119 2431 3119 2041 
L 3119 0 
L 2556 0 
L 2556 2019 
Q 2556 2363 2490 2533 
Q 2425 2703 2258 2804 
Q 2091 2906 1866 2906 
Q 1506 2906 1245 2678 
Q 984 2450 984 1813 
L 984 0 
L 422 0 
z
" transform="scale(0.015625)"/>
       <path id="ArialMT-64" d="M 2575 0 
L 2575 419 
Q 2259 -75 1647 -75 
Q 1250 -75 917 144 
Q 584 363 401 755 
Q 219 1147 219 1656 
Q 219 2153 384 2558 
Q 550 2963 881 3178 
Q 1213 3394 1622 3394 
Q 1922 3394 2156 3267 
Q 2391 3141 2538 2938 
L 2538 4581 
L 3097 4581 
L 3097 0 
L 2575 0 
z
M 797 1656 
Q 797 1019 1065 703 
Q 1334 388 1700 388 
Q 2069 388 2326 689 
Q 2584 991 2584 1609 
Q 2584 2291 2321 2609 
Q 2059 2928 1675 2928 
Q 1300 2928 1048 2622 
Q 797 2316 797 1656 
z
" transform="scale(0.015625)"/>
       <path id="ArialMT-6f" d="M 213 1659 
Q 213 2581 725 3025 
Q 1153 3394 1769 3394 
Q 2453 3394 2887 2945 
Q 3322 2497 3322 1706 
Q 3322 1066 3130 698 
Q 2938 331 2570 128 
Q 2203 -75 1769 -75 
Q 1072 -75 642 372 
Q 213 819 213 1659 
z
M 791 1659 
Q 791 1022 1069 705 
Q 1347 388 1769 388 
Q 2188 388 2466 706 
Q 2744 1025 2744 1678 
Q 2744 2294 2464 2611 
Q 2184 2928 1769 2928 
Q 1347 2928 1069 2612 
Q 791 2297 791 1659 
z
" transform="scale(0.015625)"/>
       <path id="ArialMT-6d" d="M 422 0 
L 422 3319 
L 925 3319 
L 925 2853 
Q 1081 3097 1340 3245 
Q 1600 3394 1931 3394 
Q 2300 3394 2536 3241 
Q 2772 3088 2869 2813 
Q 3263 3394 3894 3394 
Q 4388 3394 4653 3120 
Q 4919 2847 4919 2278 
L 4919 0 
L 4359 0 
L 4359 2091 
Q 4359 2428 4304 2576 
Q 4250 2725 4106 2815 
Q 3963 2906 3769 2906 
Q 3419 2906 3187 2673 
Q 2956 2441 2956 1928 
L 2956 0 
L 2394 0 
L 2394 2156 
Q 2394 2531 2256 2718 
Q 2119 2906 1806 2906 
Q 1569 2906 1367 2781 
Q 1166 2656 1075 2415 
Q 984 2175 984 1722 
L 984 0 
L 422 0 
z
" transform="scale(0.015625)"/>
       <path id="ArialMT-6c" d="M 409 0 
L 409 4581 
L 972 4581 
L 972 0 
L 409 0 
z
" transform="scale(0.015625)"/>
       <path id="ArialMT-73" d="M 197 991 
L 753 1078 
Q 800 744 1014 566 
Q 1228 388 1613 388 
Q 2000 388 2187 545 
Q 2375 703 2375 916 
Q 2375 1106 2209 1216 
Q 2094 1291 1634 1406 
Q 1016 1563 777 1677 
Q 538 1791 414 1992 
Q 291 2194 291 2438 
Q 291 2659 392 2848 
Q 494 3038 669 3163 
Q 800 3259 1026 3326 
Q 1253 3394 1513 3394 
Q 1903 3394 2198 3281 
Q 2494 3169 2634 2976 
Q 2775 2784 2828 2463 
L 2278 2388 
Q 2241 2644 2061 2787 
Q 1881 2931 1553 2931 
Q 1166 2931 1000 2803 
Q 834 2675 834 2503 
Q 834 2394 903 2306 
Q 972 2216 1119 2156 
Q 1203 2125 1616 2013 
Q 2213 1853 2448 1751 
Q 2684 1650 2818 1456 
Q 2953 1263 2953 975 
Q 2953 694 2789 445 
Q 2625 197 2315 61 
Q 2006 -75 1616 -75 
Q 969 -75 630 194 
Q 291 463 197 991 
z
" transform="scale(0.015625)"/>
       <path id="ArialMT-69" d="M 425 3934 
L 425 4581 
L 988 4581 
L 988 3934 
L 425 3934 
z
M 425 0 
L 425 3319 
L 988 3319 
L 988 0 
L 425 0 
z
" transform="scale(0.015625)"/>
       <path id="ArialMT-66" d="M 556 0 
L 556 2881 
L 59 2881 
L 59 3319 
L 556 3319 
L 556 3672 
Q 556 4006 616 4169 
Q 697 4388 901 4523 
Q 1106 4659 1475 4659 
Q 1713 4659 2000 4603 
L 1916 4113 
Q 1741 4144 1584 4144 
Q 1328 4144 1222 4034 
Q 1116 3925 1116 3625 
L 1116 3319 
L 1763 3319 
L 1763 2881 
L 1116 2881 
L 1116 0 
L 556 0 
z
" transform="scale(0.015625)"/>
      </defs>
      <use xlink:href="#ArialMT-52"/>
      <use xlink:href="#ArialMT-61" transform="translate(72.216797 0)"/>
      <use xlink:href="#ArialMT-6e" transform="translate(127.832031 0)"/>
      <use xlink:href="#ArialMT-64" transform="translate(183.447266 0)"/>
      <use xlink:href="#ArialMT-6f" transform="translate(239.0625 0)"/>
      <use xlink:href="#ArialMT-6d" transform="translate(294.677734 0)"/>
      <use xlink:href="#ArialMT-20" transform="translate(377.978516 0)"/>
      <use xlink:href="#ArialMT-63" transform="translate(405.761719 0)"/>
      <use xlink:href="#ArialMT-6c" transform="translate(455.761719 0)"/>
      <use xlink:href="#ArialMT-61" transform="translate(477.978516 0)"/>
      <use xlink:href="#ArialMT-73" transform="translate(533.59375 0)"/>
      <use xlink:href="#ArialMT-73" transform="translate(583.59375 0)"/>
      <use xlink:href="#ArialMT-69" transform="translate(633.59375 0)"/>
      <use xlink:href="#ArialMT-66" transform="translate(655.810547 0)"/>
      <use xlink:href="#ArialMT-69" transform="translate(683.59375 0)"/>
      <use xlink:href="#ArialMT-65" transform="translate(705.810547 0)"/>
      <use xlink:href="#ArialMT-72" transform="translate(761.425781 0)"/>
     </g>
    </g>
   </g>
  </g>
 </g>
 <defs>
  <clipPath id="pad225225c0">
   <rect x="35.655938" y="19.751719" width="253.543583" height="245.271083"/>
  </clipPath>
 </defs>
</svg>
