<?xml version="1.0" encoding="utf-8" standalone="no"?>
<!DOCTYPE svg PUBLIC "-//W3C//DTD SVG 1.1//EN"
  "http://www.w3.org/Graphics/SVG/1.1/DTD/svg11.dtd">
<svg xmlns:xlink="http://www.w3.org/1999/xlink" width="296.39952pt" height="296.39952pt" viewBox="0 0 296.39952 296.39952" xmlns="http://www.w3.org/2000/svg" version="1.1">
 <metadata>
  <rdf:RDF xmlns:dc="http://purl.org/dc/elements/1.1/" xmlns:cc="http://creativecommons.org/ns#" xmlns:rdf="http://www.w3.org/1999/02/22-rdf-syntax-ns#">
   <cc:Work>
    <dc:type rdf:resource="http://purl.org/dc/dcmitype/StillImage"/>
    <dc:date>2026-01-02T15:02:40.316608</dc:date>
    <dc:format>image/svg+xml</dc:format>
    <dc:creator>
     <cc:Agent>
      <dc:title>Matplotlib v3.10.8, https://matplotlib.org/</dc:title>
     </cc:Agent>
    </dc:creator>
   </cc:Work>
  </rdf:RDF>
 </metadata>
 <defs>
  <style type="text/css">*{stroke-linejoin: round; stroke-linecap: butt}</style>
 </defs>
 <g id="figure_1">
  <g id="patch_1">
   <path d="M 0 296.39952 
L 296.39952 296.39952 
L 296.39952 0 
L 0 0 
z
" style="fill: #ffffff"/>
  </g>
  <g id="axes_1">
   <g id="patch_2">
    <path d="M 35.655938 265.022801 
L 289.19952 265.022801 
L 289.19952 19.642031 
L 35.655938 19.642031 
z
" style="fill: #ffffff"/>
   </g>
   <g id="matplotlib.axis_1">
    <g id="xtick_1">
     <g id="line2d_1">
      <path d="M 42.831699 265.022801 
L 42.831699 19.642031 
" clip-path="url(#p4efd8cee6f)" style="fill: none; stroke: #c0c0c0; stroke-width: 0.25; stroke-linecap: round"/>
     </g>
     <g id="line2d_2"/>
     <g id="text_1">
      <!-- 0.0 -->
      <g style="fill: #333333" transform="translate(36.576699 274.964832) scale(0.09 -0.09)">
       <defs>
        <path id="ArialMT-30" d="M 266 2259 
Q 266 3072 433 3567 
Q 600 4063 929 4331 
Q 1259 4600 1759 4600 
Q 2128 4600 2406 4451 
Q 2684 4303 2865 4023 
Q 3047 3744 3150 3342 
Q 3253 2941 3253 2259 
Q 3253 1453 3087 958 
Q 2922 463 2592 192 
Q 2263 -78 1759 -78 
Q 1097 -78 719 397 
Q 266 969 266 2259 
z
M 844 2259 
Q 844 1131 1108 757 
Q 1372 384 1759 384 
Q 2147 384 2411 759 
Q 2675 1134 2675 2259 
Q 2675 3391 2411 3762 
Q 2147 4134 1753 4134 
Q 1366 4134 1134 3806 
Q 844 3388 844 2259 
z
" transform="scale(0.015625)"/>
        <path id="ArialMT-2e" d="M 581 0 
L 581 641 
L 1222 641 
L 1222 0 
L 581 0 
z
" transform="scale(0.015625)"/>
       </defs>
       <use xlink:href="#ArialMT-30"/>
       <use xlink:href="#ArialMT-2e" transform="translate(55.615234 0)"/>
       <use xlink:href="#ArialMT-30" transform="translate(83.398438 0)"/>
      </g>
     </g>
    </g>
    <g id="xtick_2">
     <g id="line2d_3">
      <path d="M 90.670111 265.022801 
L 90.670111 19.642031 
" clip-path="url(#p4efd8cee6f)" style="fill: none; stroke: #c0c0c0; stroke-width: 0.25; stroke-linecap: round"/>
     </g>
     <g id="line2d_4"/>
     <g id="text_2">
      <!-- 0.2 -->
      <g style="fill: #333333" transform="translate(84.415111 274.964832) scale(0.09 -0.09)">
       <defs>
        <path id="ArialMT-32" d="M 3222 541 
L 3222 0 
L 194 0 
Q 188 203 259 391 
Q 375 700 629 1000 
Q 884 1300 1366 1694 
Q 2113 2306 2375 2664 
Q 2638 3022 2638 3341 
Q 2638 3675 2398 3904 
Q 2159 4134 1775 4134 
Q 1369 4134 1125 3890 
Q 881 3647 878 3216 
L 300 3275 
Q 359 3922 746 4261 
Q 1134 4600 1788 4600 
Q 2447 4600 2831 4234 
Q 3216 3869 3216 3328 
Q 3216 3053 3103 2787 
Q 2991 2522 2730 2228 
Q 2469 1934 1863 1422 
Q 1356 997 1212 845 
Q 1069 694 975 541 
L 3222 541 
z
" transform="scale(0.015625)"/>
       </defs>
       <use xlink:href="#ArialMT-30"/>
       <use xlink:href="#ArialMT-2e" transform="translate(55.615234 0)"/>
       <use xlink:href="#ArialMT-32" transform="translate(83.398438 0)"/>
      </g>
     </g>
    </g>
    <g id="xtick_3">
     <g id="line2d_5">
      <path d="M 138.508523 265.022801 
L 138.508523 19.642031 
" clip-path="url(#p4efd8cee6f)" style="fill: none; stroke: #c0c0c0; stroke-width: 0.25; stroke-linecap: round"/>
     </g>
     <g id="line2d_6"/>
     <g id="text_3">
      <!-- 0.4 -->
      <g style="fill: #333333" transform="translate(132.253523 274.964832) scale(0.09 -0.09)">
       <defs>
        <path id="ArialMT-34" d="M 2069 0 
L 2069 1097 
L 81 1097 
L 81 1613 
L 2172 4581 
L 2631 4581 
L 2631 1613 
L 3250 1613 
L 3250 1097 
L 2631 1097 
L 2631 0 
L 2069 0 
z
M 2069 1613 
L 2069 3678 
L 634 1613 
L 2069 1613 
z
" transform="scale(0.015625)"/>
       </defs>
       <use xlink:href="#ArialMT-30"/>
       <use xlink:href="#ArialMT-2e" transform="translate(55.615234 0)"/>
       <use xlink:href="#ArialMT-34" transform="translate(83.398438 0)"/>
      </g>
     </g>
    </g>
    <g id="xtick_4">
     <g id="line2d_7">
      <path d="M 186.346935 265.022801 
L 186.346935 19.642031 
" clip-path="url(#p4efd8cee6f)" style="fill: none; stroke: #c0c0c0; stroke-width: 0.25; stroke-linecap: round"/>
     </g>
     <g id="line2d_8"/>
     <g id="text_4">
      <!-- 0.6 -->
      <g style="fill: #333333" transform="translate(180.091935 274.964832) scale(0.09 -0.09)">
       <defs>
        <path id="ArialMT-36" d="M 3184 3459 
L 2625 3416 
Q 2550 3747 2413 3897 
Q 2184 4138 1850 4138 
Q 1581 4138 1378 3988 
Q 1113 3794 959 3422 
Q 806 3050 800 2363 
Q 1003 2672 1297 2822 
Q 1591 2972 1913 2972 
Q 2475 2972 2870 2558 
Q 3266 2144 3266 1488 
Q 3266 1056 3080 686 
Q 2894 316 2569 119 
Q 2244 -78 1831 -78 
Q 1128 -78 684 439 
Q 241 956 241 2144 
Q 241 3472 731 4075 
Q 1159 4600 1884 4600 
Q 2425 4600 2770 4297 
Q 3116 3994 3184 3459 
z
M 888 1484 
Q 888 1194 1011 928 
Q 1134 663 1356 523 
Q 1578 384 1822 384 
Q 2178 384 2434 671 
Q 2691 959 2691 1453 
Q 2691 1928 2437 2201 
Q 2184 2475 1800 2475 
Q 1419 2475 1153 2201 
Q 888 1928 888 1484 
z
" transform="scale(0.015625)"/>
       </defs>
       <use xlink:href="#ArialMT-30"/>
       <use xlink:href="#ArialMT-2e" transform="translate(55.615234 0)"/>
       <use xlink:href="#ArialMT-36" transform="translate(83.398438 0)"/>
      </g>
     </g>
    </g>
    <g id="xtick_5">
     <g id="line2d_9">
      <path d="M 234.185346 265.022801 
L 234.185346 19.642031 
" clip-path="url(#p4efd8cee6f)" style="fill: none; stroke: #c0c0c0; stroke-width: 0.25; stroke-linecap: round"/>
     </g>
     <g id="line2d_10"/>
     <g id="text_5">
      <!-- 0.8 -->
      <g style="fill: #333333" transform="translate(227.930346 274.964832) scale(0.09 -0.09)">
       <defs>
        <path id="ArialMT-38" d="M 1131 2484 
Q 781 2613 612 2850 
Q 444 3088 444 3419 
Q 444 3919 803 4259 
Q 1163 4600 1759 4600 
Q 2359 4600 2725 4251 
Q 3091 3903 3091 3403 
Q 3091 3084 2923 2848 
Q 2756 2613 2416 2484 
Q 2838 2347 3058 2040 
Q 3278 1734 3278 1309 
Q 3278 722 2862 322 
Q 2447 -78 1769 -78 
Q 1091 -78 675 323 
Q 259 725 259 1325 
Q 259 1772 486 2073 
Q 713 2375 1131 2484 
z
M 1019 3438 
Q 1019 3113 1228 2906 
Q 1438 2700 1772 2700 
Q 2097 2700 2305 2904 
Q 2513 3109 2513 3406 
Q 2513 3716 2298 3927 
Q 2084 4138 1766 4138 
Q 1444 4138 1231 3931 
Q 1019 3725 1019 3438 
z
M 838 1322 
Q 838 1081 952 856 
Q 1066 631 1291 507 
Q 1516 384 1775 384 
Q 2178 384 2440 643 
Q 2703 903 2703 1303 
Q 2703 1709 2433 1975 
Q 2163 2241 1756 2241 
Q 1359 2241 1098 1978 
Q 838 1716 838 1322 
z
" transform="scale(0.015625)"/>
       </defs>
       <use xlink:href="#ArialMT-30"/>
       <use xlink:href="#ArialMT-2e" transform="translate(55.615234 0)"/>
       <use xlink:href="#ArialMT-38" transform="translate(83.398438 0)"/>
      </g>
     </g>
    </g>
    <g id="xtick_6">
     <g id="line2d_11">
      <path d="M 282.023758 265.022801 
L 282.023758 19.642031 
" clip-path="url(#p4efd8cee6f)" style="fill: none; stroke: #c0c0c0; stroke-width: 0.25; stroke-linecap: round"/>
     </g>
     <g id="line2d_12"/>
     <g id="text_6">
      <!-- 1.0 -->
      <g style="fill: #333333" transform="translate(275.768758 274.964832) scale(0.09 -0.09)">
       <defs>
        <path id="ArialMT-31" d="M 2384 0 
L 1822 0 
L 1822 3584 
Q 1619 3391 1289 3197 
Q 959 3003 697 2906 
L 697 3450 
Q 1169 3672 1522 3987 
Q 1875 4303 2022 4600 
L 2384 4600 
L 2384 0 
z
" transform="scale(0.015625)"/>
       </defs>
       <use xlink:href="#ArialMT-31"/>
       <use xlink:href="#ArialMT-2e" transform="translate(55.615234 0)"/>
       <use xlink:href="#ArialMT-30" transform="translate(83.398438 0)"/>
      </g>
     </g>
    </g>
    <g id="text_7">
     <!-- Recall [TP / (TP + FN)] -->
     <g style="fill: #333333" transform="translate(115.706479 287.305301) scale(0.09 -0.09)">
      <defs>
       <path id="Arial-BoldMT-52" d="M 469 0 
L 469 4581 
L 2416 4581 
Q 3150 4581 3483 4457 
Q 3816 4334 4016 4018 
Q 4216 3703 4216 3297 
Q 4216 2781 3912 2445 
Q 3609 2109 3006 2022 
Q 3306 1847 3501 1637 
Q 3697 1428 4028 894 
L 4588 0 
L 3481 0 
L 2813 997 
Q 2456 1531 2325 1670 
Q 2194 1809 2047 1861 
Q 1900 1913 1581 1913 
L 1394 1913 
L 1394 0 
L 469 0 
z
M 1394 2644 
L 2078 2644 
Q 2744 2644 2909 2700 
Q 3075 2756 3169 2893 
Q 3263 3031 3263 3238 
Q 3263 3469 3139 3611 
Q 3016 3753 2791 3791 
Q 2678 3806 2116 3806 
L 1394 3806 
L 1394 2644 
z
" transform="scale(0.015625)"/>
       <path id="Arial-BoldMT-65" d="M 2381 1056 
L 3256 909 
Q 3088 428 2723 176 
Q 2359 -75 1813 -75 
Q 947 -75 531 491 
Q 203 944 203 1634 
Q 203 2459 634 2926 
Q 1066 3394 1725 3394 
Q 2466 3394 2894 2905 
Q 3322 2416 3303 1406 
L 1103 1406 
Q 1113 1016 1316 798 
Q 1519 581 1822 581 
Q 2028 581 2168 693 
Q 2309 806 2381 1056 
z
M 2431 1944 
Q 2422 2325 2234 2523 
Q 2047 2722 1778 2722 
Q 1491 2722 1303 2513 
Q 1116 2303 1119 1944 
L 2431 1944 
z
" transform="scale(0.015625)"/>
       <path id="Arial-BoldMT-63" d="M 3353 2338 
L 2488 2181 
Q 2444 2441 2289 2572 
Q 2134 2703 1888 2703 
Q 1559 2703 1364 2476 
Q 1169 2250 1169 1719 
Q 1169 1128 1367 884 
Q 1566 641 1900 641 
Q 2150 641 2309 783 
Q 2469 925 2534 1272 
L 3397 1125 
Q 3263 531 2881 228 
Q 2500 -75 1859 -75 
Q 1131 -75 698 384 
Q 266 844 266 1656 
Q 266 2478 700 2936 
Q 1134 3394 1875 3394 
Q 2481 3394 2839 3133 
Q 3197 2872 3353 2338 
z
" transform="scale(0.015625)"/>
       <path id="Arial-BoldMT-61" d="M 1116 2306 
L 319 2450 
Q 453 2931 781 3162 
Q 1109 3394 1756 3394 
Q 2344 3394 2631 3255 
Q 2919 3116 3036 2902 
Q 3153 2688 3153 2116 
L 3144 1091 
Q 3144 653 3186 445 
Q 3228 238 3344 0 
L 2475 0 
Q 2441 88 2391 259 
Q 2369 338 2359 363 
Q 2134 144 1878 34 
Q 1622 -75 1331 -75 
Q 819 -75 523 203 
Q 228 481 228 906 
Q 228 1188 362 1408 
Q 497 1628 739 1745 
Q 981 1863 1438 1950 
Q 2053 2066 2291 2166 
L 2291 2253 
Q 2291 2506 2166 2614 
Q 2041 2722 1694 2722 
Q 1459 2722 1328 2630 
Q 1197 2538 1116 2306 
z
M 2291 1594 
Q 2122 1538 1756 1459 
Q 1391 1381 1278 1306 
Q 1106 1184 1106 997 
Q 1106 813 1243 678 
Q 1381 544 1594 544 
Q 1831 544 2047 700 
Q 2206 819 2256 991 
Q 2291 1103 2291 1419 
L 2291 1594 
z
" transform="scale(0.015625)"/>
       <path id="Arial-BoldMT-6c" d="M 459 0 
L 459 4581 
L 1338 4581 
L 1338 0 
L 459 0 
z
" transform="scale(0.015625)"/>
       <path id="Arial-BoldMT-20" transform="scale(0.015625)"/>
       <path id="Arial-BoldMT-5b" d="M 456 -1291 
L 456 4581 
L 2013 4581 
L 2013 3891 
L 1291 3891 
L 1291 -600 
L 2013 -600 
L 2013 -1291 
L 456 -1291 
z
" transform="scale(0.015625)"/>
       <path id="Arial-BoldMT-54" d="M 1497 0 
L 1497 3806 
L 138 3806 
L 138 4581 
L 3778 4581 
L 3778 3806 
L 2422 3806 
L 2422 0 
L 1497 0 
z
" transform="scale(0.015625)"/>
       <path id="Arial-BoldMT-50" d="M 466 0 
L 466 4581 
L 1950 4581 
Q 2794 4581 3050 4513 
Q 3444 4409 3709 4064 
Q 3975 3719 3975 3172 
Q 3975 2750 3822 2462 
Q 3669 2175 3433 2011 
Q 3197 1847 2953 1794 
Q 2622 1728 1994 1728 
L 1391 1728 
L 1391 0 
L 466 0 
z
M 1391 3806 
L 1391 2506 
L 1897 2506 
Q 2444 2506 2628 2578 
Q 2813 2650 2917 2803 
Q 3022 2956 3022 3159 
Q 3022 3409 2875 3571 
Q 2728 3734 2503 3775 
Q 2338 3806 1838 3806 
L 1391 3806 
z
" transform="scale(0.015625)"/>
       <path id="Arial-BoldMT-2f" d="M -9 -78 
L 1125 4659 
L 1784 4659 
L 638 -78 
L -9 -78 
z
" transform="scale(0.015625)"/>
       <path id="Arial-BoldMT-28" d="M 1916 -1347 
L 1313 -1347 
Q 834 -625 584 153 
Q 334 931 334 1659 
Q 334 2563 644 3369 
Q 913 4069 1325 4659 
L 1925 4659 
Q 1497 3713 1336 3048 
Q 1175 2384 1175 1641 
Q 1175 1128 1270 590 
Q 1366 53 1531 -431 
Q 1641 -750 1916 -1347 
z
" transform="scale(0.015625)"/>
       <path id="Arial-BoldMT-2b" d="M 1466 659 
L 1466 1850 
L 266 1850 
L 266 2672 
L 1466 2672 
L 1466 3863 
L 2266 3863 
L 2266 2672 
L 3469 2672 
L 3469 1850 
L 2266 1850 
L 2266 659 
L 1466 659 
z
" transform="scale(0.015625)"/>
       <path id="Arial-BoldMT-46" d="M 472 0 
L 472 4581 
L 3613 4581 
L 3613 3806 
L 1397 3806 
L 1397 2722 
L 3309 2722 
L 3309 1947 
L 1397 1947 
L 1397 0 
L 472 0 
z
" transform="scale(0.015625)"/>
       <path id="Arial-BoldMT-4e" d="M 475 0 
L 475 4581 
L 1375 4581 
L 3250 1522 
L 3250 4581 
L 4109 4581 
L 4109 0 
L 3181 0 
L 1334 2988 
L 1334 0 
L 475 0 
z
" transform="scale(0.015625)"/>
       <path id="Arial-BoldMT-29" d="M 216 -1347 
Q 475 -791 581 -494 
Q 688 -197 778 190 
Q 869 578 912 926 
Q 956 1275 956 1641 
Q 956 2384 797 3048 
Q 638 3713 209 4659 
L 806 4659 
Q 1278 3988 1539 3234 
Q 1800 2481 1800 1706 
Q 1800 1053 1594 306 
Q 1359 -531 822 -1347 
L 216 -1347 
z
" transform="scale(0.015625)"/>
       <path id="Arial-BoldMT-5d" d="M 1675 4581 
L 1675 -1291 
L 119 -1291 
L 119 -600 
L 841 -600 
L 841 3897 
L 119 3897 
L 119 4581 
L 1675 4581 
z
" transform="scale(0.015625)"/>
      </defs>
      <use xlink:href="#Arial-BoldMT-52"/>
      <use xlink:href="#Arial-BoldMT-65" transform="translate(72.216797 0)"/>
      <use xlink:href="#Arial-BoldMT-63" transform="translate(127.832031 0)"/>
      <use xlink:href="#Arial-BoldMT-61" transform="translate(183.447266 0)"/>
      <use xlink:href="#Arial-BoldMT-6c" transform="translate(239.0625 0)"/>
      <use xlink:href="#Arial-BoldMT-6c" transform="translate(266.845703 0)"/>
      <use xlink:href="#Arial-BoldMT-20" transform="translate(294.628906 0)"/>
      <use xlink:href="#Arial-BoldMT-5b" transform="translate(322.412109 0)"/>
      <use xlink:href="#Arial-BoldMT-54" transform="translate(355.712891 0)"/>
      <use xlink:href="#Arial-BoldMT-50" transform="translate(416.796875 0)"/>
      <use xlink:href="#Arial-BoldMT-20" transform="translate(481.746094 0)"/>
      <use xlink:href="#Arial-BoldMT-2f" transform="translate(509.529297 0)"/>
      <use xlink:href="#Arial-BoldMT-20" transform="translate(537.3125 0)"/>
      <use xlink:href="#Arial-BoldMT-28" transform="translate(565.095703 0)"/>
      <use xlink:href="#Arial-BoldMT-54" transform="translate(598.396484 0)"/>
      <use xlink:href="#Arial-BoldMT-50" transform="translate(659.480469 0)"/>
      <use xlink:href="#Arial-BoldMT-20" transform="translate(724.429688 0)"/>
      <use xlink:href="#Arial-BoldMT-2b" transform="translate(752.212891 0)"/>
      <use xlink:href="#Arial-BoldMT-20" transform="translate(810.611328 0)"/>
      <use xlink:href="#Arial-BoldMT-46" transform="translate(838.394531 0)"/>
      <use xlink:href="#Arial-BoldMT-4e" transform="translate(899.478516 0)"/>
      <use xlink:href="#Arial-BoldMT-29" transform="translate(971.695312 0)"/>
      <use xlink:href="#Arial-BoldMT-5d" transform="translate(1004.996094 0)"/>
     </g>
    </g>
   </g>
   <g id="matplotlib.axis_2">
    <g id="ytick_1">
     <g id="line2d_13">
      <path d="M 35.655938 265.022801 
L 289.19952 265.022801 
" clip-path="url(#p4efd8cee6f)" style="fill: none; stroke: #c0c0c0; stroke-width: 0.25; stroke-linecap: round"/>
     </g>
     <g id="line2d_14"/>
     <g id="text_8">
      <!-- 0.0 -->
      <g style="fill: #333333" transform="translate(19.645938 268.243817) scale(0.09 -0.09)">
       <use xlink:href="#ArialMT-30"/>
       <use xlink:href="#ArialMT-2e" transform="translate(55.615234 0)"/>
       <use xlink:href="#ArialMT-30" transform="translate(83.398438 0)"/>
      </g>
     </g>
    </g>
    <g id="ytick_2">
     <g id="line2d_15">
      <path d="M 35.655938 217.37605 
L 289.19952 217.37605 
" clip-path="url(#p4efd8cee6f)" style="fill: none; stroke: #c0c0c0; stroke-width: 0.25; stroke-linecap: round"/>
     </g>
     <g id="line2d_16"/>
     <g id="text_9">
      <!-- 0.2 -->
      <g style="fill: #333333" transform="translate(19.645938 220.597065) scale(0.09 -0.09)">
       <use xlink:href="#ArialMT-30"/>
       <use xlink:href="#ArialMT-2e" transform="translate(55.615234 0)"/>
       <use xlink:href="#ArialMT-32" transform="translate(83.398438 0)"/>
      </g>
     </g>
    </g>
    <g id="ytick_3">
     <g id="line2d_17">
      <path d="M 35.655938 169.729298 
L 289.19952 169.729298 
" clip-path="url(#p4efd8cee6f)" style="fill: none; stroke: #c0c0c0; stroke-width: 0.25; stroke-linecap: round"/>
     </g>
     <g id="line2d_18"/>
     <g id="text_10">
      <!-- 0.4 -->
      <g style="fill: #333333" transform="translate(19.645938 172.950314) scale(0.09 -0.09)">
       <use xlink:href="#ArialMT-30"/>
       <use xlink:href="#ArialMT-2e" transform="translate(55.615234 0)"/>
       <use xlink:href="#ArialMT-34" transform="translate(83.398438 0)"/>
      </g>
     </g>
    </g>
    <g id="ytick_4">
     <g id="line2d_19">
      <path d="M 35.655938 122.082547 
L 289.19952 122.082547 
" clip-path="url(#p4efd8cee6f)" style="fill: none; stroke: #c0c0c0; stroke-width: 0.25; stroke-linecap: round"/>
     </g>
     <g id="line2d_20"/>
     <g id="text_11">
      <!-- 0.6 -->
      <g style="fill: #333333" transform="translate(19.645938 125.303563) scale(0.09 -0.09)">
       <use xlink:href="#ArialMT-30"/>
       <use xlink:href="#ArialMT-2e" transform="translate(55.615234 0)"/>
       <use xlink:href="#ArialMT-36" transform="translate(83.398438 0)"/>
      </g>
     </g>
    </g>
    <g id="ytick_5">
     <g id="line2d_21">
      <path d="M 35.655938 74.435795 
L 289.19952 74.435795 
" clip-path="url(#p4efd8cee6f)" style="fill: none; stroke: #c0c0c0; stroke-width: 0.25; stroke-linecap: round"/>
     </g>
     <g id="line2d_22"/>
     <g id="text_12">
      <!-- 0.8 -->
      <g style="fill: #333333" transform="translate(19.645938 77.656811) scale(0.09 -0.09)">
       <use xlink:href="#ArialMT-30"/>
       <use xlink:href="#ArialMT-2e" transform="translate(55.615234 0)"/>
       <use xlink:href="#ArialMT-38" transform="translate(83.398438 0)"/>
      </g>
     </g>
    </g>
    <g id="ytick_6">
     <g id="line2d_23">
      <path d="M 35.655938 26.789044 
L 289.19952 26.789044 
" clip-path="url(#p4efd8cee6f)" style="fill: none; stroke: #c0c0c0; stroke-width: 0.25; stroke-linecap: round"/>
     </g>
     <g id="line2d_24"/>
     <g id="text_13">
      <!-- 1.0 -->
      <g style="fill: #333333" transform="translate(19.645938 30.01006) scale(0.09 -0.09)">
       <use xlink:href="#ArialMT-31"/>
       <use xlink:href="#ArialMT-2e" transform="translate(55.615234 0)"/>
       <use xlink:href="#ArialMT-30" transform="translate(83.398438 0)"/>
      </g>
     </g>
    </g>
    <g id="text_14">
     <!-- Precision [TP / (TP + FP)] -->
     <g style="fill: #333333" transform="translate(13.751719 195.805776) rotate(-90) scale(0.09 -0.09)">
      <defs>
       <path id="Arial-BoldMT-72" d="M 1300 0 
L 422 0 
L 422 3319 
L 1238 3319 
L 1238 2847 
Q 1447 3181 1614 3287 
Q 1781 3394 1994 3394 
Q 2294 3394 2572 3228 
L 2300 2463 
Q 2078 2606 1888 2606 
Q 1703 2606 1575 2504 
Q 1447 2403 1373 2137 
Q 1300 1872 1300 1025 
L 1300 0 
z
" transform="scale(0.015625)"/>
       <path id="Arial-BoldMT-69" d="M 459 3769 
L 459 4581 
L 1338 4581 
L 1338 3769 
L 459 3769 
z
M 459 0 
L 459 3319 
L 1338 3319 
L 1338 0 
L 459 0 
z
" transform="scale(0.015625)"/>
       <path id="Arial-BoldMT-73" d="M 150 947 
L 1031 1081 
Q 1088 825 1259 692 
Q 1431 559 1741 559 
Q 2081 559 2253 684 
Q 2369 772 2369 919 
Q 2369 1019 2306 1084 
Q 2241 1147 2013 1200 
Q 950 1434 666 1628 
Q 272 1897 272 2375 
Q 272 2806 612 3100 
Q 953 3394 1669 3394 
Q 2350 3394 2681 3172 
Q 3013 2950 3138 2516 
L 2309 2363 
Q 2256 2556 2107 2659 
Q 1959 2763 1684 2763 
Q 1338 2763 1188 2666 
Q 1088 2597 1088 2488 
Q 1088 2394 1175 2328 
Q 1294 2241 1995 2081 
Q 2697 1922 2975 1691 
Q 3250 1456 3250 1038 
Q 3250 581 2869 253 
Q 2488 -75 1741 -75 
Q 1063 -75 667 200 
Q 272 475 150 947 
z
" transform="scale(0.015625)"/>
       <path id="Arial-BoldMT-6f" d="M 256 1706 
Q 256 2144 472 2553 
Q 688 2963 1083 3178 
Q 1478 3394 1966 3394 
Q 2719 3394 3200 2905 
Q 3681 2416 3681 1669 
Q 3681 916 3195 420 
Q 2709 -75 1972 -75 
Q 1516 -75 1102 131 
Q 688 338 472 736 
Q 256 1134 256 1706 
z
M 1156 1659 
Q 1156 1166 1390 903 
Q 1625 641 1969 641 
Q 2313 641 2545 903 
Q 2778 1166 2778 1666 
Q 2778 2153 2545 2415 
Q 2313 2678 1969 2678 
Q 1625 2678 1390 2415 
Q 1156 2153 1156 1659 
z
" transform="scale(0.015625)"/>
       <path id="Arial-BoldMT-6e" d="M 3478 0 
L 2600 0 
L 2600 1694 
Q 2600 2231 2544 2389 
Q 2488 2547 2361 2634 
Q 2234 2722 2056 2722 
Q 1828 2722 1647 2597 
Q 1466 2472 1398 2265 
Q 1331 2059 1331 1503 
L 1331 0 
L 453 0 
L 453 3319 
L 1269 3319 
L 1269 2831 
Q 1703 3394 2363 3394 
Q 2653 3394 2893 3289 
Q 3134 3184 3257 3021 
Q 3381 2859 3429 2653 
Q 3478 2447 3478 2063 
L 3478 0 
z
" transform="scale(0.015625)"/>
      </defs>
      <use xlink:href="#Arial-BoldMT-50"/>
      <use xlink:href="#Arial-BoldMT-72" transform="translate(66.699219 0)"/>
      <use xlink:href="#Arial-BoldMT-65" transform="translate(105.615234 0)"/>
      <use xlink:href="#Arial-BoldMT-63" transform="translate(161.230469 0)"/>
      <use xlink:href="#Arial-BoldMT-69" transform="translate(216.845703 0)"/>
      <use xlink:href="#Arial-BoldMT-73" transform="translate(244.628906 0)"/>
      <use xlink:href="#Arial-BoldMT-69" transform="translate(300.244141 0)"/>
      <use xlink:href="#Arial-BoldMT-6f" transform="translate(328.027344 0)"/>
      <use xlink:href="#Arial-BoldMT-6e" transform="translate(389.111328 0)"/>
      <use xlink:href="#Arial-BoldMT-20" transform="translate(450.195312 0)"/>
      <use xlink:href="#Arial-BoldMT-5b" transform="translate(477.978516 0)"/>
      <use xlink:href="#Arial-BoldMT-54" transform="translate(511.279297 0)"/>
      <use xlink:href="#Arial-BoldMT-50" transform="translate(572.363281 0)"/>
      <use xlink:href="#Arial-BoldMT-20" transform="translate(637.3125 0)"/>
      <use xlink:href="#Arial-BoldMT-2f" transform="translate(665.095703 0)"/>
      <use xlink:href="#Arial-BoldMT-20" transform="translate(692.878906 0)"/>
      <use xlink:href="#Arial-BoldMT-28" transform="translate(720.662109 0)"/>
      <use xlink:href="#Arial-BoldMT-54" transform="translate(753.962891 0)"/>
      <use xlink:href="#Arial-BoldMT-50" transform="translate(815.046875 0)"/>
      <use xlink:href="#Arial-BoldMT-20" transform="translate(879.996094 0)"/>
      <use xlink:href="#Arial-BoldMT-2b" transform="translate(907.779297 0)"/>
      <use xlink:href="#Arial-BoldMT-20" transform="translate(966.177734 0)"/>
      <use xlink:href="#Arial-BoldMT-46" transform="translate(993.960938 0)"/>
      <use xlink:href="#Arial-BoldMT-50" transform="translate(1055.044922 0)"/>
      <use xlink:href="#Arial-BoldMT-29" transform="translate(1121.744141 0)"/>
      <use xlink:href="#Arial-BoldMT-5d" transform="translate(1155.044922 0)"/>
     </g>
    </g>
   </g>
   <g id="line2d_25">
    <path d="M 42.831699 265.022801 
L 42.942301 243.888083 
L 42.943774 243.798907 
L 43.054826 233.142371 
L 43.056346 233.053195 
L 43.165761 225.696173 
L 43.167827 225.606997 
L 43.277621 220.791492 
L 43.27945 220.702316 
L 43.389957 216.77857 
L 43.393044 216.689394 
L 43.502102 213.389881 
L 43.508847 213.300705 
L 43.616931 209.332372 
L 43.623415 209.243196 
L 43.733352 205.988271 
L 43.736653 205.899095 
L 43.847682 202.956286 
L 43.853453 202.86711 
L 43.964483 200.86065 
L 43.96757 200.771473 
L 44.078314 198.452897 
L 44.082114 198.363721 
L 44.192882 196.669376 
L 44.200245 196.5802 
L 44.310015 194.439976 
L 44.321035 194.3508 
L 44.43147 192.121399 
L 44.438405 192.032223 
L 44.545991 190.605406 
L 44.546893 190.605406 
L 44.554921 190.51623 
L 44.663931 188.821886 
L 44.676376 188.73271 
L 44.785719 187.261305 
L 44.798663 187.172129 
L 44.900714 185.656137 
L 44.914703 185.566961 
L 45.023547 184.318496 
L 45.033831 184.22932 
L 45.142248 182.312036 
L 45.149515 182.22286 
L 45.259808 180.662279 
L 45.263608 180.573103 
L 45.374233 179.458403 
L 45.381287 179.369227 
L 45.491818 178.120763 
L 45.510841 178.031586 
L 45.620635 176.515594 
L 45.627926 176.426418 
L 45.734538 175.356306 
L 45.748764 175.26713 
L 45.858772 174.063253 
L 45.859603 174.063253 
L 45.865612 173.974077 
L 45.973055 172.814789 
L 45.974908 172.814789 
L 45.987519 172.725613 
L 46.096838 171.521736 
L 46.103108 171.43256 
L 46.20231 170.5408 
L 46.204637 170.5408 
L 46.218341 170.451624 
L 46.31968 169.381512 
L 46.341459 169.292336 
L 46.450327 168.355988 
L 46.466571 168.266811 
L 46.577411 167.464227 
L 46.589665 167.375051 
L 46.691456 166.171175 
L 46.706561 166.081999 
L 46.810441 164.833534 
L 46.834262 164.744358 
L 46.940375 163.80801 
L 46.95453 163.718834 
L 47.061379 162.960838 
L 47.093228 162.871662 
L 47.202452 161.935314 
L 47.22822 161.846138 
L 47.327778 160.865201 
L 47.351552 160.776025 
L 47.448094 159.928853 
L 47.455408 159.928853 
L 47.471249 159.839677 
L 47.571758 159.170857 
L 47.579619 159.170857 
L 47.613747 159.081681 
L 47.720026 158.323684 
L 47.735796 158.234508 
L 47.846659 157.565688 
L 47.858011 157.476512 
L 47.965549 156.317224 
L 47.993621 156.228048 
L 48.090472 155.51464 
L 48.122724 155.425464 
L 48.232851 154.578291 
L 48.278664 154.489115 
L 48.388624 153.597355 
L 48.405724 153.508179 
L 48.512834 152.438067 
L 48.54872 152.348891 
L 48.659156 151.546306 
L 48.669677 151.45713 
L 48.767311 150.654546 
L 48.787474 150.56537 
L 48.884705 149.941138 
L 48.893588 149.941138 
L 48.901757 149.851962 
L 49.006517 149.093966 
L 49.030456 149.00479 
L 49.133648 148.335969 
L 49.184971 148.246793 
L 49.294647 147.756325 
L 49.354733 147.667149 
L 49.463007 146.864565 
L 49.496019 146.775389 
L 49.589783 146.106569 
L 49.641557 146.017393 
L 49.75204 145.571513 
L 49.783793 145.482336 
L 49.893041 144.412224 
L 49.899073 144.323048 
L 50.005471 143.520464 
L 50.014971 143.431288 
L 50.125882 142.673292 
L 50.175756 142.584116 
L 50.261967 142.093647 
L 50.346349 142.004471 
L 50.454362 141.291063 
L 50.473433 141.201887 
L 50.57615 140.622243 
L 50.608283 140.533067 
L 50.702759 139.730483 
L 50.768616 139.641307 
L 50.871381 139.106251 
L 50.896911 139.017074 
L 50.994688 138.66037 
L 51.021217 138.571194 
L 51.131344 137.902374 
L 51.168773 137.813198 
L 51.267049 137.09979 
L 51.273057 137.09979 
L 51.32989 137.010614 
L 51.420685 136.65391 
L 51.495306 136.564734 
L 51.600398 136.20803 
L 51.603794 136.20803 
L 51.617141 136.118854 
L 51.722613 135.762149 
L 51.724109 135.762149 
L 51.776667 135.672973 
L 51.883326 135.093329 
L 51.967257 135.004153 
L 52.053183 134.469097 
L 52.054062 134.469097 
L 52.101822 134.379921 
L 52.212115 133.443573 
L 52.250447 133.354397 
L 52.357178 132.908517 
L 52.399404 132.819341 
L 52.502929 132.195108 
L 52.519862 132.105932 
L 52.612818 131.392524 
L 52.705418 131.303348 
L 52.802767 130.902056 
L 52.884014 130.81288 
L 52.982884 130.58994 
L 53.009436 130.500764 
L 53.103912 129.965708 
L 53.149487 129.876532 
L 53.255125 129.47524 
L 53.339056 129.386064 
L 53.434553 129.073947 
L 53.464027 128.984771 
L 53.567361 128.449715 
L 53.595314 128.360539 
L 53.667228 128.003835 
L 53.691714 128.003835 
L 53.779373 127.914659 
L 53.88931 127.290427 
L 53.898644 127.201251 
L 53.985686 126.844547 
L 54.006799 126.844547 
L 54.039479 126.755371 
L 54.147468 126.309491 
L 54.18485 126.220315 
L 54.293837 125.729846 
L 54.307825 125.64067 
L 54.412964 125.373142 
L 54.465688 125.283966 
L 54.566007 124.97185 
L 54.574913 124.97185 
L 54.629323 124.882674 
L 54.739141 124.481382 
L 54.764672 124.392206 
L 54.87316 123.990914 
L 54.92605 123.901738 
L 55.021666 123.18833 
L 55.055485 123.099154 
L 55.159437 122.519509 
L 55.236885 122.430333 
L 55.345919 122.073629 
L 55.468918 121.984453 
L 55.555984 121.672337 
L 55.629299 121.583161 
L 55.737336 121.048105 
L 55.755053 120.958929 
L 55.833236 120.557637 
L 55.913866 120.468461 
L 56.022354 120.111757 
L 56.039739 120.022581 
L 56.119632 119.576701 
L 56.149011 119.576701 
L 56.195465 119.487524 
L 56.257332 119.219996 
L 56.302457 119.219996 
L 56.325707 119.13082 
L 56.429588 118.774116 
L 56.465664 118.68494 
L 56.552967 118.372824 
L 56.572228 118.372824 
L 56.600989 118.283648 
L 56.703468 117.748592 
L 56.707506 117.748592 
L 56.750754 117.659416 
L 56.851143 117.302712 
L 56.856914 117.302712 
L 56.902062 117.213536 
L 56.987038 117.035184 
L 57.036485 116.946008 
L 57.14255 116.633892 
L 57.208645 116.544716 
L 57.303786 116.232599 
L 57.306874 116.232599 
L 57.330386 116.143423 
L 57.434052 115.697543 
L 57.463336 115.608367 
L 57.568594 115.117899 
L 57.569924 115.117899 
L 57.616615 115.028723 
L 57.707838 114.582843 
L 57.771439 114.493667 
L 57.870855 114.047787 
L 57.878003 114.047787 
L 57.936546 113.958611 
L 58.041424 113.735671 
L 58.079922 113.646495 
L 58.17302 113.334379 
L 58.278777 113.245203 
L 58.385555 112.84391 
L 58.40066 112.754734 
L 58.509552 112.264266 
L 58.540735 112.17509 
L 58.627088 111.862974 
L 58.643214 111.862974 
L 58.707101 111.773798 
L 58.788704 111.50627 
L 58.804237 111.50627 
L 58.834684 111.417094 
L 58.917593 111.015802 
L 58.938232 111.015802 
L 58.990576 110.926626 
L 59.074554 110.659098 
L 59.09467 110.659098 
L 59.212064 110.569922 
L 59.314876 110.034866 
L 59.320742 110.034866 
L 59.38223 109.94569 
L 59.485849 109.321457 
L 59.487084 109.321457 
L 59.524181 109.232281 
L 59.627325 109.053929 
L 59.686794 108.964753 
L 59.796897 108.608049 
L 59.861758 108.518873 
L 59.95735 108.072993 
L 59.958917 108.072993 
L 60.055625 107.983817 
L 60.160242 107.805465 
L 60.296612 107.716289 
L 60.350144 107.493349 
L 60.453549 107.404173 
L 60.522494 107.270409 
L 60.544035 107.270409 
L 60.584504 107.181233 
L 60.693491 106.735353 
L 60.731918 106.646177 
L 60.81687 106.289472 
L 60.894484 106.200296 
L 61.002378 105.843592 
L 61.004231 105.843592 
L 61.073603 105.754416 
L 61.166179 105.353124 
L 61.174634 105.353124 
L 61.218452 105.263948 
L 61.309864 104.99642 
L 61.31269 104.99642 
L 61.374534 104.907244 
L 61.485445 104.3276 
L 61.55059 104.238424 
L 61.638653 104.060072 
L 61.649127 104.060072 
L 61.710994 103.970896 
L 61.797348 103.65878 
L 61.818984 103.65878 
L 61.86748 103.569604 
L 61.974021 103.346664 
L 61.997913 103.257487 
L 62.087377 102.989959 
L 62.1031 102.989959 
L 62.169717 102.900783 
L 62.274857 102.544079 
L 62.322498 102.454903 
L 62.392939 102.053611 
L 62.400421 102.053611 
L 62.487154 101.964435 
L 62.57004 101.786083 
L 62.590512 101.786083 
L 62.62293 101.696907 
L 62.72883 101.206439 
L 62.75987 101.117263 
L 62.864321 100.715971 
L 63.035793 100.626795 
L 63.035793 100.582207 
L 63.094929 100.582207 
L 63.230824 100.493031 
L 63.326036 100.136327 
L 63.336106 100.136327 
L 63.448109 100.047151 
L 63.552109 99.82421 
L 63.590654 99.735034 
L 63.692065 99.512094 
L 63.776138 99.422918 
L 63.878641 99.066214 
L 63.906595 98.977038 
L 64.006747 98.843274 
L 64.147867 98.754098 
L 64.228449 98.664922 
L 64.24771 98.664922 
L 64.291718 98.575746 
L 64.374342 98.352806 
L 64.380802 98.352806 
L 64.502899 98.26363 
L 64.5684 97.996102 
L 64.57771 97.996102 
L 64.691946 97.906926 
L 64.80155 97.773162 
L 64.873083 97.683986 
L 64.977178 97.37187 
L 65.090202 97.282694 
L 65.192254 97.015166 
L 65.263455 96.92599 
L 65.353537 96.658461 
L 65.363536 96.658461 
L 65.423551 96.569285 
L 65.423551 96.524697 
L 65.532633 96.524697 
L 65.543819 96.435521 
L 65.651974 96.212581 
L 65.710018 96.123405 
L 65.818768 95.811289 
L 65.853965 95.722113 
L 65.95262 95.499173 
L 66.067853 95.409997 
L 66.149932 95.142469 
L 66.165891 95.142469 
L 66.211942 95.053293 
L 66.281481 94.652001 
L 66.307866 94.652001 
L 66.363749 94.562825 
L 66.433858 94.250709 
L 66.552653 94.161533 
L 66.621361 93.938593 
L 66.660476 93.938593 
L 66.719684 93.849417 
L 66.8096 93.626477 
L 66.84425 93.537301 
L 66.931008 93.31436 
L 67.171472 93.225184 
L 67.251936 92.913068 
L 67.279176 92.913068 
L 67.312758 92.823892 
L 67.388994 92.467188 
L 67.418729 92.467188 
L 67.501472 92.378012 
L 67.599202 92.244248 
L 67.612098 92.244248 
L 67.69002 92.155072 
L 67.766375 92.021308 
L 67.779437 92.021308 
L 67.858072 91.932132 
L 67.914976 91.842956 
L 67.952714 91.842956 
L 68.003277 91.75378 
L 68.091673 91.486252 
L 68.31309 91.397076 
L 68.333111 91.3079 
L 68.373485 91.3079 
L 68.461074 91.218724 
L 68.555288 91.08496 
L 68.570678 91.08496 
L 68.614615 90.995784 
L 68.675034 90.728256 
L 68.724932 90.728256 
L 68.832588 90.63908 
L 68.935614 90.41614 
L 68.940126 90.41614 
L 69.01869 90.326964 
L 69.106801 90.148611 
L 69.126988 90.148611 
L 69.162327 90.059435 
L 69.244359 89.747319 
L 69.270911 89.747319 
L 69.329881 89.658143 
L 69.43578 89.479791 
L 69.473209 89.390615 
L 69.474824 89.301439 
L 69.570155 89.301439 
L 69.682704 89.212263 
L 69.76331 89.033911 
L 69.790646 89.033911 
L 69.855174 88.944735 
L 69.929225 88.677207 
L 69.945256 88.677207 
L 70.017953 88.588031 
L 70.111455 88.365091 
L 70.17432 88.275915 
L 70.280576 87.963799 
L 70.331923 87.874623 
L 70.440411 87.740859 
L 70.483445 87.651683 
L 70.590057 87.339567 
L 70.733789 87.250391 
L 70.786537 87.116627 
L 70.840662 87.116627 
L 70.896117 87.02745 
L 71.007004 86.849098 
L 71.182656 86.759922 
L 71.250271 86.626158 
L 71.358569 86.536982 
L 71.400178 86.447806 
L 71.457154 86.447806 
L 71.554123 86.35863 
L 71.634112 86.091102 
L 71.649026 86.091102 
L 71.997765 86.001926 
L 72.078324 85.91275 
L 72.108058 85.91275 
L 72.212913 85.823574 
L 72.284707 85.68981 
L 72.321519 85.68981 
L 72.346623 85.600634 
L 72.398207 85.377694 
L 72.452664 85.377694 
L 72.556735 85.288518 
L 72.660046 84.976402 
L 72.723125 84.887226 
L 72.797413 84.530522 
L 72.825343 84.530522 
L 72.92141 84.441346 
L 73.022797 84.12923 
L 73.028354 84.12923 
L 73.109958 84.040054 
L 73.189732 83.817114 
L 73.214123 83.817114 
L 73.248489 83.727937 
L 73.333607 83.549585 
L 73.352275 83.549585 
L 73.426967 83.460409 
L 73.496553 83.326645 
L 73.531465 83.326645 
L 73.58293 83.237469 
L 73.58293 83.192881 
L 73.689115 83.192881 
L 73.780551 83.103705 
L 73.832515 83.014529 
L 73.877045 83.014529 
L 73.955134 82.925353 
L 74.024981 82.747001 
L 74.034528 82.747001 
L 74.092121 82.657825 
L 74.160544 82.524061 
L 74.198021 82.524061 
L 74.35073 82.434885 
L 74.426705 82.256533 
L 74.457413 82.256533 
L 74.5816 82.167357 
L 74.643278 82.033593 
L 74.686169 82.033593 
L 74.738252 81.944417 
L 74.825888 81.810653 
L 74.838166 81.810653 
L 75.007406 81.721477 
L 75.100409 81.453949 
L 75.185243 81.364773 
L 75.271287 81.141833 
L 75.276061 81.141833 
L 75.386449 81.052657 
L 75.435967 80.874305 
L 75.494723 80.874305 
L 75.53258 80.785129 
L 75.613376 80.695953 
L 75.783542 80.606777 
L 75.795203 80.5176 
L 75.872413 80.5176 
L 76.247609 80.428424 
L 76.322396 80.250072 
L 76.353555 80.250072 
L 76.39032 80.160896 
L 76.485746 79.893368 
L 76.691108 79.804192 
L 76.796437 79.62584 
L 76.801282 79.62584 
L 76.905021 79.536664 
L 77.01415 79.4029 
L 77.04538 79.313724 
L 77.141851 79.224548 
L 77.156457 79.224548 
L 77.274136 79.135372 
L 77.325198 78.95702 
L 77.381342 78.95702 
L 77.432926 78.867844 
L 77.462185 78.73408 
L 77.627008 78.644904 
L 77.641376 78.555728 
L 77.724167 78.555728 
L 77.856452 78.466552 
L 77.947627 78.332788 
L 77.965629 78.332788 
L 78.113066 78.243612 
L 78.198826 78.06526 
L 78.306934 77.976084 
L 78.387588 77.663968 
L 78.543147 77.574792 
L 78.583522 77.441028 
L 78.640948 77.441028 
L 78.787863 77.351852 
L 78.824841 77.262675 
L 78.881484 77.262675 
L 79.018875 77.173499 
L 79.018875 77.128911 
L 79.088865 77.128911 
L 79.445726 77.039735 
L 79.464274 76.905971 
L 79.511085 76.905971 
L 79.742691 76.816795 
L 79.83757 76.504679 
L 80.014908 76.415503 
L 80.114205 76.192563 
L 80.304012 76.103387 
L 80.304012 76.058799 
L 80.38305 76.058799 
L 80.449478 75.969623 
L 80.556755 75.835859 
L 80.65921 75.746683 
L 80.732003 75.657507 
L 80.768838 75.657507 
L 80.893452 75.568331 
L 80.987477 75.345391 
L 80.998592 75.345391 
L 81.351677 75.256215 
L 81.430288 75.122451 
L 81.442946 75.122451 
L 81.725637 75.033275 
L 81.836215 74.721159 
L 81.940927 74.631983 
L 82.019657 74.409043 
L 82.465864 74.319867 
L 82.529418 74.186103 
L 82.570718 74.186103 
L 82.625509 74.096927 
L 82.723357 73.963162 
L 82.725803 73.963162 
L 83.190392 73.873986 
L 83.297408 73.740222 
L 83.421048 73.651046 
L 83.445486 73.56187 
L 83.488022 73.56187 
L 83.644152 73.472694 
L 83.719675 73.33893 
L 84.20609 73.249754 
L 84.302846 73.026814 
L 84.477952 72.937638 
L 84.48833 72.848462 
L 84.563284 72.848462 
L 84.787171 72.759286 
L 84.884782 72.625522 
L 84.896443 72.625522 
L 85.0378 72.536346 
L 85.038774 72.44717 
L 85.138071 72.44717 
L 85.474317 72.357994 
L 85.575134 72.179642 
L 85.716658 72.090466 
L 85.801349 71.956702 
L 85.81757 71.956702 
L 86.032337 71.867526 
L 86.12033 71.644586 
L 86.128214 71.644586 
L 86.288714 71.55541 
L 86.379485 71.421646 
L 86.462418 71.33247 
L 86.550696 71.154118 
L 86.570265 71.154118 
L 86.778359 71.064942 
L 86.855949 70.88659 
L 86.873215 70.88659 
L 86.966384 70.797414 
L 87.070004 70.574473 
L 87.070241 70.574473 
L 87.287787 70.485297 
L 87.366707 70.306945 
L 87.599595 70.217769 
L 87.681199 70.128593 
L 87.868013 70.039417 
L 87.942349 69.905653 
L 87.951612 69.905653 
L 88.036208 69.816477 
L 88.117526 69.682713 
L 88.134816 69.682713 
L 88.351602 69.593537 
L 88.351602 69.548949 
L 88.461254 69.548949 
L 88.675118 69.459773 
L 88.718058 69.370597 
L 88.74727 69.370597 
L 88.948096 69.281421 
L 88.950257 69.192245 
L 89.049341 69.192245 
L 89.274035 69.103069 
L 89.281445 69.013893 
L 89.354451 69.013893 
L 89.77147 68.924717 
L 89.77147 68.880129 
L 89.871337 68.880129 
L 89.993647 68.790953 
L 90.092042 68.701777 
L 90.388935 68.612601 
L 90.436601 68.478837 
L 90.497233 68.478837 
L 90.535707 68.389661 
L 90.535707 68.345073 
L 90.544685 68.345073 
L 91.103061 68.255897 
L 91.158659 68.166721 
L 91.178252 68.166721 
L 91.761779 68.077545 
L 91.868581 67.943781 
L 91.986783 67.854605 
L 92.031289 67.720841 
L 92.076342 67.720841 
L 92.128995 67.631665 
L 92.144955 67.4979 
L 92.188606 67.4979 
L 92.381595 67.408724 
L 92.381595 67.364136 
L 92.427218 67.364136 
L 92.678916 67.27496 
L 92.685994 67.185784 
L 92.715681 67.185784 
L 92.824525 67.096608 
L 92.909643 66.873668 
L 93.095911 66.784492 
L 93.153362 66.561552 
L 93.158966 66.561552 
L 93.530362 66.472376 
L 93.542427 66.3832 
L 93.63448 66.3832 
L 93.858391 66.294024 
L 93.921636 66.204848 
L 94.159061 66.115672 
L 94.159061 66.071084 
L 94.264224 66.071084 
L 94.486971 65.981908 
L 94.486971 65.93732 
L 94.553328 65.93732 
L 95.299064 65.848144 
L 95.299064 65.803556 
L 95.377367 65.803556 
L 95.966475 65.71438 
L 95.966475 65.669792 
L 96.072849 65.669792 
L 96.404346 65.580616 
L 96.452985 65.446852 
L 96.505424 65.446852 
L 96.734013 65.357676 
L 96.734013 65.313088 
L 96.812719 65.313088 
L 97.100683 65.223912 
L 97.197035 65.134736 
L 97.701666 65.04556 
L 97.804644 64.688856 
L 98.05582 64.59968 
L 98.14108 64.421328 
L 98.147327 64.421328 
L 98.390855 64.332152 
L 98.420542 64.242975 
L 98.498488 64.242975 
L 98.828607 64.153799 
L 98.828607 64.109211 
L 98.936549 64.109211 
L 99.295903 64.020035 
L 99.346158 63.930859 
L 99.632316 63.841683 
L 99.74078 63.618743 
L 99.958303 63.529567 
L 100.05627 63.395803 
L 100.37031 63.306627 
L 100.422536 63.128275 
L 100.769588 63.039099 
L 100.769588 62.994511 
L 100.871213 62.994511 
L 100.965356 62.905335 
L 100.965356 62.860747 
L 101.004899 62.860747 
L 101.371046 62.771571 
L 101.371046 62.726983 
L 101.408855 62.726983 
L 101.740946 62.637807 
L 101.844256 62.459455 
L 101.924577 62.370279 
L 102.020122 62.281103 
L 102.023091 62.281103 
L 102.211021 62.191927 
L 102.269849 62.102751 
L 102.474499 62.013575 
L 102.490268 61.924399 
L 102.549191 61.924399 
L 102.732205 61.835223 
L 102.732205 61.790635 
L 102.781319 61.790635 
L 103.629179 61.701459 
L 103.663925 61.567695 
L 103.906527 61.478519 
L 103.938779 61.344755 
L 103.992334 61.344755 
L 104.328628 61.255579 
L 104.415147 61.166403 
L 104.515561 61.077227 
L 104.624737 60.98805 
L 104.87501 60.898874 
L 104.907809 60.809698 
L 104.95431 60.809698 
L 105.11177 60.720522 
L 105.11177 60.675934 
L 105.220685 60.675934 
L 105.490837 60.586758 
L 105.598422 60.452994 
L 105.75992 60.363818 
L 105.81604 60.274642 
L 105.973428 60.185466 
L 105.979484 60.09629 
L 106.083222 60.09629 
L 106.387431 60.007114 
L 106.436877 59.87335 
L 107.103718 59.784174 
L 107.173447 59.65041 
L 107.188456 59.65041 
L 107.513612 59.561234 
L 107.543299 59.472058 
L 107.621933 59.472058 
L 107.75809 59.382882 
L 107.75809 59.338294 
L 107.80452 59.338294 
L 108.132549 59.249118 
L 108.172734 59.159942 
L 108.45248 59.070766 
L 108.489743 58.98159 
L 108.546457 58.98159 
L 108.66055 58.892414 
L 108.681188 58.75865 
L 108.746666 58.75865 
L 109.084432 58.669474 
L 109.084432 58.624886 
L 109.156488 58.624886 
L 109.38522 58.53571 
L 109.471241 58.446534 
L 109.489956 58.446534 
L 109.672614 58.357358 
L 109.672614 58.31277 
L 109.710613 58.31277 
L 110.149482 58.223594 
L 110.149482 58.179006 
L 110.17316 58.179006 
L 110.496962 58.08983 
L 110.581154 58.000654 
L 110.891181 57.911478 
L 110.891181 57.86689 
L 110.936875 57.86689 
L 111.623285 57.777714 
L 111.623285 57.733125 
L 112.487152 57.643949 
L 112.550468 57.510185 
L 113.173135 57.421009 
L 113.251627 57.287245 
L 113.280578 57.287245 
L 113.536289 57.198069 
L 113.642878 57.108893 
L 113.830523 57.019717 
L 113.830523 56.975129 
L 114.233791 56.885953 
L 114.249062 56.796777 
L 114.32601 56.796777 
L 114.639932 56.707601 
L 114.639932 56.663013 
L 114.67615 56.663013 
L 115.03636 56.573837 
L 115.03636 56.529249 
L 115.043461 56.529249 
L 115.699733 56.440073 
L 115.802284 56.261721 
L 116.245047 56.172545 
L 116.245047 56.127957 
L 116.340686 56.127957 
L 116.678738 56.038781 
L 116.690684 55.949605 
L 116.747635 55.949605 
L 116.900416 55.860429 
L 116.900416 55.815841 
L 117.371917 55.726665 
L 117.393434 55.637489 
L 117.458959 55.637489 
L 117.587729 55.548313 
L 117.587729 55.503725 
L 117.639266 55.503725 
L 117.921125 55.414549 
L 117.92255 55.325373 
L 117.929485 55.325373 
L 118.210609 55.236197 
L 118.319335 55.147021 
L 118.426801 55.057845 
L 118.519425 54.924081 
L 118.526122 54.924081 
L 118.740771 54.834905 
L 118.78219 54.745729 
L 118.80195 54.745729 
L 118.982019 54.656553 
L 119.056165 54.522788 
L 119.405355 54.433612 
L 119.405355 54.389024 
L 119.497361 54.389024 
L 119.985248 54.299848 
L 120.032985 54.210672 
L 120.087063 54.210672 
L 120.292211 54.121496 
L 120.364505 53.987732 
L 120.821186 53.898556 
L 120.821186 53.853968 
L 120.851894 53.853968 
L 121.15444 53.764792 
L 121.15444 53.720204 
L 121.181182 53.720204 
L 121.762666 53.631028 
L 121.762666 53.58644 
L 121.873054 53.58644 
L 122.168071 53.497264 
L 122.168071 53.452676 
L 123.06609 53.3635 
L 123.175196 53.229736 
L 123.488263 53.14056 
L 123.576421 53.006796 
L 123.5906 53.006796 
L 124.153726 52.91762 
L 124.246848 52.828444 
L 124.509281 52.739268 
L 124.556518 52.650092 
L 125.025335 52.560916 
L 125.079413 52.47174 
L 125.108577 52.47174 
L 125.391078 52.382564 
L 125.391078 52.337976 
L 125.475793 52.337976 
L 125.759506 52.2488 
L 125.782044 52.159624 
L 126.206591 52.070448 
L 126.206591 52.02586 
L 126.268174 52.02586 
L 126.549108 51.936684 
L 126.549108 51.892096 
L 126.630474 51.892096 
L 126.821491 51.80292 
L 126.821491 51.758332 
L 127.397822 51.669156 
L 127.481254 51.446216 
L 127.686807 51.35704 
L 127.732359 51.223275 
L 127.765751 51.223275 
L 127.953253 51.134099 
L 127.953253 51.089511 
L 128.006144 51.089511 
L 128.228677 51.000335 
L 128.228677 50.955747 
L 128.299142 50.955747 
L 129.088008 50.866571 
L 129.088008 50.821983 
L 129.676427 50.732807 
L 129.715021 50.643631 
L 130.817119 50.554455 
L 130.912973 50.420691 
L 131.176997 50.331515 
L 131.176997 50.286927 
L 131.268385 50.286927 
L 131.376612 50.197751 
L 131.376612 50.153163 
L 131.464271 50.153163 
L 132.030936 50.063987 
L 132.124581 49.974811 
L 132.751736 49.885635 
L 132.756438 49.796459 
L 133.136384 49.707283 
L 133.136384 49.662695 
L 133.42563 49.573519 
L 133.42563 49.528931 
L 133.930641 49.439755 
L 133.944059 49.350579 
L 134.260974 49.261403 
L 134.260974 49.216815 
L 134.329515 49.216815 
L 135.013526 49.127639 
L 135.013526 49.083051 
L 135.086651 49.083051 
L 135.454983 48.993875 
L 135.518656 48.904699 
L 135.734825 48.815523 
L 135.738102 48.726347 
L 135.790731 48.726347 
L 136.648209 48.637171 
L 136.648209 48.592583 
L 137.474528 48.503407 
L 137.495214 48.414231 
L 137.560122 48.414231 
L 137.846945 48.325055 
L 137.91494 48.146703 
L 138.449638 48.057527 
L 138.449638 48.012938 
L 138.8212 47.923762 
L 138.8212 47.879174 
L 138.828634 47.879174 
L 139.273653 47.789998 
L 139.378056 47.567058 
L 139.71093 47.477882 
L 139.71093 47.433294 
L 139.765578 47.433294 
L 140.89373 47.344118 
L 140.946573 47.254942 
L 141.370171 47.165766 
L 141.370171 47.121178 
L 142.097002 47.032002 
L 142.154975 46.898238 
L 143.499937 46.809062 
L 143.519412 46.675298 
L 143.582016 46.675298 
L 143.808634 46.586122 
L 143.821791 46.496946 
L 143.867011 46.496946 
L 144.592821 46.40777 
L 144.592821 46.363182 
L 145.101941 46.274006 
L 145.101941 46.229418 
L 145.506182 46.140242 
L 145.506182 46.095654 
L 147.095029 46.006478 
L 147.118826 45.917302 
L 147.78759 45.828126 
L 147.78759 45.783538 
L 147.883609 45.783538 
L 148.104172 45.694362 
L 148.104172 45.649774 
L 148.140675 45.649774 
L 148.393893 45.560598 
L 148.48901 45.426834 
L 148.490316 45.426834 
L 148.710166 45.337658 
L 148.710166 45.29307 
L 149.769682 45.203894 
L 149.769682 45.159306 
L 149.78158 45.159306 
L 150.563559 45.07013 
L 150.638964 44.980954 
L 151.200593 44.891778 
L 151.285926 44.668837 
L 152.096119 44.579661 
L 152.151051 44.490485 
L 152.189644 44.490485 
L 153.293548 44.401309 
L 153.383559 44.312133 
L 153.797633 44.222957 
L 153.797633 44.178369 
L 153.904245 44.178369 
L 154.14231 44.089193 
L 154.14231 44.044605 
L 154.687031 43.955429 
L 154.704368 43.866253 
L 154.848029 43.777077 
L 154.848029 43.732489 
L 155.406666 43.643313 
L 155.509573 43.509549 
L 156.305564 43.420373 
L 156.305564 43.375785 
L 156.362729 43.375785 
L 156.774096 43.286609 
L 156.774096 43.242021 
L 157.155941 43.152845 
L 157.254858 43.063669 
L 157.538072 42.974493 
L 157.538072 42.929905 
L 157.59177 42.929905 
L 157.819955 42.840729 
L 157.819955 42.796141 
L 158.283998 42.706965 
L 158.283998 42.662377 
L 159.210469 42.573201 
L 159.210469 42.528613 
L 159.620553 42.439437 
L 159.709163 42.350261 
L 159.944901 42.261085 
L 160.022681 42.171909 
L 160.258609 42.082733 
L 160.258609 42.038145 
L 160.315466 42.038145 
L 160.550064 41.948969 
L 160.651213 41.815205 
L 161.20009 41.726029 
L 161.20009 41.681441 
L 161.811499 41.592265 
L 161.811499 41.547677 
L 162.869138 41.4585 
L 162.869138 41.413912 
L 163.504178 41.324736 
L 163.538947 41.23556 
L 165.250413 41.146384 
L 165.250413 41.101796 
L 166.113021 41.01262 
L 166.113021 40.968032 
L 166.188497 40.968032 
L 166.484987 40.878856 
L 166.523912 40.78968 
L 167.885428 40.700504 
L 167.902575 40.611328 
L 167.943543 40.611328 
L 168.601668 40.522152 
L 168.601668 40.477564 
L 169.387018 40.388388 
L 169.493535 40.299212 
L 170.900697 40.210036 
L 170.964251 40.12086 
L 171.334602 40.031684 
L 171.422855 39.89792 
L 171.42466 39.89792 
L 171.929291 39.808744 
L 171.929291 39.764156 
L 172.218062 39.67498 
L 172.218062 39.630392 
L 173.228084 39.541216 
L 173.337522 39.45204 
L 174.371127 39.362864 
L 174.371127 39.318276 
L 174.574637 39.2291 
L 174.574637 39.184512 
L 175.205474 39.095336 
L 175.205474 39.050748 
L 175.225494 39.050748 
L 175.665242 38.961572 
L 175.665242 38.916984 
L 175.760739 38.916984 
L 178.090168 38.827808 
L 178.090168 38.78322 
L 178.15441 38.78322 
L 178.891621 38.694044 
L 178.891621 38.649456 
L 180.035804 38.56028 
L 180.035804 38.515692 
L 180.089739 38.515692 
L 182.07822 38.426516 
L 182.159871 38.33734 
L 182.185948 38.33734 
L 182.724754 38.248163 
L 182.724754 38.203575 
L 182.799661 38.203575 
L 183.472795 38.114399 
L 183.548366 38.025223 
L 183.890241 37.936047 
L 183.890241 37.891459 
L 183.968519 37.891459 
L 184.537963 37.802283 
L 184.537963 37.757695 
L 186.06943 37.668519 
L 186.06943 37.623931 
L 186.155285 37.623931 
L 187.957711 37.534755 
L 187.957711 37.490167 
L 188.286643 37.400991 
L 188.334712 37.267227 
L 188.345019 37.267227 
L 188.942036 37.178051 
L 188.942535 37.088875 
L 190.196227 36.999699 
L 190.258261 36.910523 
L 191.825234 36.821347 
L 191.825234 36.776759 
L 191.886128 36.776759 
L 192.665803 36.687583 
L 192.665803 36.642995 
L 193.552493 36.553819 
L 193.552493 36.509231 
L 195.180645 36.420055 
L 195.254269 36.286291 
L 196.142194 36.197115 
L 196.142194 36.152527 
L 196.242512 36.152527 
L 197.884083 36.063351 
L 197.884083 36.018763 
L 198.667866 35.929587 
L 198.667866 35.884999 
L 198.762271 35.884999 
L 199.053654 35.795823 
L 199.053654 35.751235 
L 199.14224 35.751235 
L 199.915953 35.662059 
L 199.915953 35.617471 
L 200.018742 35.617471 
L 200.207337 35.528295 
L 200.207337 35.483707 
L 200.303926 35.483707 
L 201.351568 35.394531 
L 201.351568 35.349943 
L 202.17126 35.260767 
L 202.17126 35.216179 
L 203.433693 35.127003 
L 203.433693 35.082415 
L 204.364747 34.993238 
L 204.364747 34.94865 
L 205.648673 34.859474 
L 205.675628 34.770298 
L 205.81682 34.681122 
L 205.915665 34.591946 
L 206.531753 34.50277 
L 206.531753 34.458182 
L 207.609034 34.369006 
L 207.680211 34.27983 
L 208.527928 34.190654 
L 208.527928 34.146066 
L 210.254 34.05689 
L 210.254 34.012302 
L 210.299836 34.012302 
L 210.851966 33.923126 
L 210.851966 33.878538 
L 210.90716 33.878538 
L 212.69605 33.789362 
L 212.69605 33.744774 
L 213.808907 33.655598 
L 213.808907 33.61101 
L 214.558206 33.521834 
L 214.558206 33.477246 
L 215.677215 33.38807 
L 215.779623 33.254306 
L 217.061458 33.16513 
L 217.061458 33.120542 
L 218.34878 33.031366 
L 218.413332 32.94219 
L 219.654983 32.853014 
L 219.654983 32.808426 
L 219.661039 32.808426 
L 221.235659 32.71925 
L 221.235659 32.674662 
L 222.540627 32.585486 
L 222.540627 32.540898 
L 223.447742 32.451722 
L 223.447742 32.407134 
L 225.474934 32.317958 
L 225.474934 32.27337 
L 226.310231 32.184194 
L 226.310231 32.139606 
L 227.008515 32.05043 
L 227.086818 31.961254 
L 228.145906 31.872078 
L 228.145906 31.82749 
L 230.287001 31.738313 
L 230.328397 31.559961 
L 231.788117 31.470785 
L 231.788117 31.426197 
L 231.81721 31.426197 
L 232.267169 31.337021 
L 232.283058 31.247845 
L 233.12935 31.158669 
L 233.12935 31.114081 
L 233.221665 31.114081 
L 233.861621 31.024905 
L 233.861621 30.980317 
L 235.353711 30.891141 
L 235.353711 30.846553 
L 236.689625 30.757377 
L 236.689625 30.712789 
L 238.675018 30.623613 
L 238.675018 30.579025 
L 240.626401 30.489849 
L 240.626401 30.445261 
L 240.677415 30.445261 
L 241.139891 30.356085 
L 241.139891 30.311497 
L 242.096785 30.222321 
L 242.096785 30.177733 
L 243.7527 30.088557 
L 243.7527 30.043969 
L 243.753341 30.043969 
L 244.63882 29.954793 
L 244.63882 29.910205 
L 245.828056 29.821029 
L 245.928541 29.731853 
L 248.13186 29.642677 
L 248.13186 29.598089 
L 249.926995 29.508913 
L 249.970599 29.419737 
L 251.612051 29.330561 
L 251.612051 29.285973 
L 252.074526 29.196797 
L 252.074526 29.152209 
L 252.120292 29.152209 
L 252.839975 29.063033 
L 252.889541 28.973857 
L 252.950624 28.973857 
L 253.722866 28.884681 
L 253.794375 28.795505 
L 256.533271 28.706329 
L 256.533271 28.661741 
L 256.603095 28.661741 
L 257.682442 28.572565 
L 257.719206 28.483388 
L 258.72861 28.394212 
L 258.793732 28.305036 
L 260.128434 28.21586 
L 260.128434 28.171272 
L 261.12765 28.082096 
L 261.12765 28.037508 
L 263.099268 27.948332 
L 263.099268 27.903744 
L 263.164745 27.903744 
L 265.300521 27.814568 
L 265.389083 27.725392 
L 267.687424 27.636216 
L 267.704096 27.54704 
L 267.724806 27.54704 
L 269.153105 27.457864 
L 269.153105 27.413276 
L 269.21939 27.413276 
L 270.848136 27.3241 
L 270.848136 27.279512 
L 270.903282 27.279512 
L 273.430261 27.190336 
L 273.430261 27.145748 
L 273.508872 27.145748 
L 275.866872 27.056572 
L 275.866872 27.011984 
L 275.967522 27.011984 
L 277.867631 26.922808 
L 277.867631 26.87822 
L 277.975501 26.87822 
L 282.023758 26.789044 
L 282.023758 26.789044 
" clip-path="url(#p4efd8cee6f)" style="fill: none; stroke: #1f77b4; stroke-width: 1.5; stroke-linecap: round"/>
   </g>
   <g id="patch_3">
    <path d="M 35.655938 265.022801 
L 35.655938 19.642031 
" style="fill: none"/>
   </g>
   <g id="patch_4">
    <path d="M 289.19952 265.022801 
L 289.19952 19.642031 
" style="fill: none"/>
   </g>
   <g id="patch_5">
    <path d="M 35.655938 265.022801 
L 289.19952 265.022801 
" style="fill: none"/>
   </g>
   <g id="patch_6">
    <path d="M 35.655938 19.642031 
L 289.19952 19.642031 
" style="fill: none"/>
   </g>
   <g id="text_15">
    <!-- Model 0: Precision-Recall Curve -->
    <g style="fill: #333333" transform="translate(93.910307 13.642031) scale(0.09 -0.09)">
     <defs>
      <path id="Arial-BoldMT-4d" d="M 453 0 
L 453 4581 
L 1838 4581 
L 2669 1456 
L 3491 4581 
L 4878 4581 
L 4878 0 
L 4019 0 
L 4019 3606 
L 3109 0 
L 2219 0 
L 1313 3606 
L 1313 0 
L 453 0 
z
" transform="scale(0.015625)"/>
      <path id="Arial-BoldMT-64" d="M 3503 0 
L 2688 0 
L 2688 488 
Q 2484 203 2207 64 
Q 1931 -75 1650 -75 
Q 1078 -75 670 386 
Q 263 847 263 1672 
Q 263 2516 659 2955 
Q 1056 3394 1663 3394 
Q 2219 3394 2625 2931 
L 2625 4581 
L 3503 4581 
L 3503 0 
z
M 1159 1731 
Q 1159 1200 1306 963 
Q 1519 619 1900 619 
Q 2203 619 2415 876 
Q 2628 1134 2628 1647 
Q 2628 2219 2422 2470 
Q 2216 2722 1894 2722 
Q 1581 2722 1370 2473 
Q 1159 2225 1159 1731 
z
" transform="scale(0.015625)"/>
      <path id="Arial-BoldMT-30" d="M 1756 4600 
Q 2422 4600 2797 4125 
Q 3244 3563 3244 2259 
Q 3244 959 2794 391 
Q 2422 -78 1756 -78 
Q 1088 -78 678 436 
Q 269 950 269 2269 
Q 269 3563 719 4131 
Q 1091 4600 1756 4600 
z
M 1756 3872 
Q 1597 3872 1472 3770 
Q 1347 3669 1278 3406 
Q 1188 3066 1188 2259 
Q 1188 1453 1269 1151 
Q 1350 850 1473 750 
Q 1597 650 1756 650 
Q 1916 650 2041 751 
Q 2166 853 2234 1116 
Q 2325 1453 2325 2259 
Q 2325 3066 2244 3367 
Q 2163 3669 2039 3770 
Q 1916 3872 1756 3872 
z
" transform="scale(0.015625)"/>
      <path id="Arial-BoldMT-3a" d="M 628 2441 
L 628 3319 
L 1506 3319 
L 1506 2441 
L 628 2441 
z
M 628 0 
L 628 878 
L 1506 878 
L 1506 0 
L 628 0 
z
" transform="scale(0.015625)"/>
      <path id="Arial-BoldMT-2d" d="M 359 1222 
L 359 2100 
L 2084 2100 
L 2084 1222 
L 359 1222 
z
" transform="scale(0.015625)"/>
      <path id="Arial-BoldMT-43" d="M 3397 1684 
L 4294 1400 
Q 4088 650 3608 286 
Q 3128 -78 2391 -78 
Q 1478 -78 890 545 
Q 303 1169 303 2250 
Q 303 3394 893 4026 
Q 1484 4659 2447 4659 
Q 3288 4659 3813 4163 
Q 4125 3869 4281 3319 
L 3366 3100 
Q 3284 3456 3026 3662 
Q 2769 3869 2400 3869 
Q 1891 3869 1573 3503 
Q 1256 3138 1256 2319 
Q 1256 1450 1568 1081 
Q 1881 713 2381 713 
Q 2750 713 3015 947 
Q 3281 1181 3397 1684 
z
" transform="scale(0.015625)"/>
      <path id="Arial-BoldMT-75" d="M 2644 0 
L 2644 497 
Q 2463 231 2167 78 
Q 1872 -75 1544 -75 
Q 1209 -75 943 72 
Q 678 219 559 484 
Q 441 750 441 1219 
L 441 3319 
L 1319 3319 
L 1319 1794 
Q 1319 1094 1367 936 
Q 1416 778 1544 686 
Q 1672 594 1869 594 
Q 2094 594 2272 717 
Q 2450 841 2515 1023 
Q 2581 1206 2581 1919 
L 2581 3319 
L 3459 3319 
L 3459 0 
L 2644 0 
z
" transform="scale(0.015625)"/>
      <path id="Arial-BoldMT-76" d="M 1372 0 
L 34 3319 
L 956 3319 
L 1581 1625 
L 1763 1059 
Q 1834 1275 1853 1344 
Q 1897 1484 1947 1625 
L 2578 3319 
L 3481 3319 
L 2163 0 
L 1372 0 
z
" transform="scale(0.015625)"/>
     </defs>
     <use xlink:href="#Arial-BoldMT-4d"/>
     <use xlink:href="#Arial-BoldMT-6f" transform="translate(83.300781 0)"/>
     <use xlink:href="#Arial-BoldMT-64" transform="translate(144.384766 0)"/>
     <use xlink:href="#Arial-BoldMT-65" transform="translate(205.46875 0)"/>
     <use xlink:href="#Arial-BoldMT-6c" transform="translate(261.083984 0)"/>
     <use xlink:href="#Arial-BoldMT-20" transform="translate(288.867188 0)"/>
     <use xlink:href="#Arial-BoldMT-30" transform="translate(316.650391 0)"/>
     <use xlink:href="#Arial-BoldMT-3a" transform="translate(372.265625 0)"/>
     <use xlink:href="#Arial-BoldMT-20" transform="translate(405.566406 0)"/>
     <use xlink:href="#Arial-BoldMT-50" transform="translate(433.349609 0)"/>
     <use xlink:href="#Arial-BoldMT-72" transform="translate(500.048828 0)"/>
     <use xlink:href="#Arial-BoldMT-65" transform="translate(538.964844 0)"/>
     <use xlink:href="#Arial-BoldMT-63" transform="translate(594.580078 0)"/>
     <use xlink:href="#Arial-BoldMT-69" transform="translate(650.195312 0)"/>
     <use xlink:href="#Arial-BoldMT-73" transform="translate(677.978516 0)"/>
     <use xlink:href="#Arial-BoldMT-69" transform="translate(733.59375 0)"/>
     <use xlink:href="#Arial-BoldMT-6f" transform="translate(761.376953 0)"/>
     <use xlink:href="#Arial-BoldMT-6e" transform="translate(822.460938 0)"/>
     <use xlink:href="#Arial-BoldMT-2d" transform="translate(883.544922 0)"/>
     <use xlink:href="#Arial-BoldMT-52" transform="translate(916.845703 0)"/>
     <use xlink:href="#Arial-BoldMT-65" transform="translate(989.0625 0)"/>
     <use xlink:href="#Arial-BoldMT-63" transform="translate(1044.677734 0)"/>
     <use xlink:href="#Arial-BoldMT-61" transform="translate(1100.292969 0)"/>
     <use xlink:href="#Arial-BoldMT-6c" transform="translate(1155.908203 0)"/>
     <use xlink:href="#Arial-BoldMT-6c" transform="translate(1183.691406 0)"/>
     <use xlink:href="#Arial-BoldMT-20" transform="translate(1211.474609 0)"/>
     <use xlink:href="#Arial-BoldMT-43" transform="translate(1239.257812 0)"/>
     <use xlink:href="#Arial-BoldMT-75" transform="translate(1311.474609 0)"/>
     <use xlink:href="#Arial-BoldMT-72" transform="translate(1372.558594 0)"/>
     <use xlink:href="#Arial-BoldMT-76" transform="translate(1411.474609 0)"/>
     <use xlink:href="#Arial-BoldMT-65" transform="translate(1467.089844 0)"/>
    </g>
   </g>
   <g id="legend_1">
    <g id="patch_7">
     <path d="M 164.573426 260.522801 
L 282.89952 260.522801 
Q 284.69952 260.522801 284.69952 258.722801 
L 284.69952 246.89202 
Q 284.69952 245.09202 282.89952 245.09202 
L 164.573426 245.09202 
Q 162.773426 245.09202 162.773426 246.89202 
L 162.773426 258.722801 
Q 162.773426 260.522801 164.573426 260.522801 
z
" style="fill: #ffffff; opacity: 0.8; stroke: #cccccc; stroke-width: 0.75; stroke-linejoin: miter"/>
    </g>
    <g id="line2d_26">
     <path d="M 166.373426 251.984051 
L 175.373426 251.984051 
L 184.373426 251.984051 
" style="fill: none; stroke: #1f77b4; stroke-width: 1.5; stroke-linecap: round"/>
    </g>
    <g id="text_16">
     <!-- Precision-Recall curve -->
     <g style="fill: #333333" transform="translate(191.573426 255.134051) scale(0.09 -0.09)">
      <defs>
       <path id="ArialMT-50" d="M 494 0 
L 494 4581 
L 2222 4581 
Q 2678 4581 2919 4538 
Q 3256 4481 3484 4323 
Q 3713 4166 3852 3881 
Q 3991 3597 3991 3256 
Q 3991 2672 3619 2267 
Q 3247 1863 2275 1863 
L 1100 1863 
L 1100 0 
L 494 0 
z
M 1100 2403 
L 2284 2403 
Q 2872 2403 3119 2622 
Q 3366 2841 3366 3238 
Q 3366 3525 3220 3729 
Q 3075 3934 2838 4000 
Q 2684 4041 2272 4041 
L 1100 4041 
L 1100 2403 
z
" transform="scale(0.015625)"/>
       <path id="ArialMT-72" d="M 416 0 
L 416 3319 
L 922 3319 
L 922 2816 
Q 1116 3169 1280 3281 
Q 1444 3394 1641 3394 
Q 1925 3394 2219 3213 
L 2025 2691 
Q 1819 2813 1613 2813 
Q 1428 2813 1281 2702 
Q 1134 2591 1072 2394 
Q 978 2094 978 1738 
L 978 0 
L 416 0 
z
" transform="scale(0.015625)"/>
       <path id="ArialMT-65" d="M 2694 1069 
L 3275 997 
Q 3138 488 2766 206 
Q 2394 -75 1816 -75 
Q 1088 -75 661 373 
Q 234 822 234 1631 
Q 234 2469 665 2931 
Q 1097 3394 1784 3394 
Q 2450 3394 2872 2941 
Q 3294 2488 3294 1666 
Q 3294 1616 3291 1516 
L 816 1516 
Q 847 969 1125 678 
Q 1403 388 1819 388 
Q 2128 388 2347 550 
Q 2566 713 2694 1069 
z
M 847 1978 
L 2700 1978 
Q 2663 2397 2488 2606 
Q 2219 2931 1791 2931 
Q 1403 2931 1139 2672 
Q 875 2413 847 1978 
z
" transform="scale(0.015625)"/>
       <path id="ArialMT-63" d="M 2588 1216 
L 3141 1144 
Q 3050 572 2676 248 
Q 2303 -75 1759 -75 
Q 1078 -75 664 370 
Q 250 816 250 1647 
Q 250 2184 428 2587 
Q 606 2991 970 3192 
Q 1334 3394 1763 3394 
Q 2303 3394 2647 3120 
Q 2991 2847 3088 2344 
L 2541 2259 
Q 2463 2594 2264 2762 
Q 2066 2931 1784 2931 
Q 1359 2931 1093 2626 
Q 828 2322 828 1663 
Q 828 994 1084 691 
Q 1341 388 1753 388 
Q 2084 388 2306 591 
Q 2528 794 2588 1216 
z
" transform="scale(0.015625)"/>
       <path id="ArialMT-69" d="M 425 3934 
L 425 4581 
L 988 4581 
L 988 3934 
L 425 3934 
z
M 425 0 
L 425 3319 
L 988 3319 
L 988 0 
L 425 0 
z
" transform="scale(0.015625)"/>
       <path id="ArialMT-73" d="M 197 991 
L 753 1078 
Q 800 744 1014 566 
Q 1228 388 1613 388 
Q 2000 388 2187 545 
Q 2375 703 2375 916 
Q 2375 1106 2209 1216 
Q 2094 1291 1634 1406 
Q 1016 1563 777 1677 
Q 538 1791 414 1992 
Q 291 2194 291 2438 
Q 291 2659 392 2848 
Q 494 3038 669 3163 
Q 800 3259 1026 3326 
Q 1253 3394 1513 3394 
Q 1903 3394 2198 3281 
Q 2494 3169 2634 2976 
Q 2775 2784 2828 2463 
L 2278 2388 
Q 2241 2644 2061 2787 
Q 1881 2931 1553 2931 
Q 1166 2931 1000 2803 
Q 834 2675 834 2503 
Q 834 2394 903 2306 
Q 972 2216 1119 2156 
Q 1203 2125 1616 2013 
Q 2213 1853 2448 1751 
Q 2684 1650 2818 1456 
Q 2953 1263 2953 975 
Q 2953 694 2789 445 
Q 2625 197 2315 61 
Q 2006 -75 1616 -75 
Q 969 -75 630 194 
Q 291 463 197 991 
z
" transform="scale(0.015625)"/>
       <path id="ArialMT-6f" d="M 213 1659 
Q 213 2581 725 3025 
Q 1153 3394 1769 3394 
Q 2453 3394 2887 2945 
Q 3322 2497 3322 1706 
Q 3322 1066 3130 698 
Q 2938 331 2570 128 
Q 2203 -75 1769 -75 
Q 1072 -75 642 372 
Q 213 819 213 1659 
z
M 791 1659 
Q 791 1022 1069 705 
Q 1347 388 1769 388 
Q 2188 388 2466 706 
Q 2744 1025 2744 1678 
Q 2744 2294 2464 2611 
Q 2184 2928 1769 2928 
Q 1347 2928 1069 2612 
Q 791 2297 791 1659 
z
" transform="scale(0.015625)"/>
       <path id="ArialMT-6e" d="M 422 0 
L 422 3319 
L 928 3319 
L 928 2847 
Q 1294 3394 1984 3394 
Q 2284 3394 2536 3286 
Q 2788 3178 2913 3003 
Q 3038 2828 3088 2588 
Q 3119 2431 3119 2041 
L 3119 0 
L 2556 0 
L 2556 2019 
Q 2556 2363 2490 2533 
Q 2425 2703 2258 2804 
Q 2091 2906 1866 2906 
Q 1506 2906 1245 2678 
Q 984 2450 984 1813 
L 984 0 
L 422 0 
z
" transform="scale(0.015625)"/>
       <path id="ArialMT-2d" d="M 203 1375 
L 203 1941 
L 1931 1941 
L 1931 1375 
L 203 1375 
z
" transform="scale(0.015625)"/>
       <path id="ArialMT-52" d="M 503 0 
L 503 4581 
L 2534 4581 
Q 3147 4581 3465 4457 
Q 3784 4334 3975 4021 
Q 4166 3709 4166 3331 
Q 4166 2844 3850 2509 
Q 3534 2175 2875 2084 
Q 3116 1969 3241 1856 
Q 3506 1613 3744 1247 
L 4541 0 
L 3778 0 
L 3172 953 
Q 2906 1366 2734 1584 
Q 2563 1803 2427 1890 
Q 2291 1978 2150 2013 
Q 2047 2034 1813 2034 
L 1109 2034 
L 1109 0 
L 503 0 
z
M 1109 2559 
L 2413 2559 
Q 2828 2559 3062 2645 
Q 3297 2731 3419 2920 
Q 3541 3109 3541 3331 
Q 3541 3656 3305 3865 
Q 3069 4075 2559 4075 
L 1109 4075 
L 1109 2559 
z
" transform="scale(0.015625)"/>
       <path id="ArialMT-61" d="M 2588 409 
Q 2275 144 1986 34 
Q 1697 -75 1366 -75 
Q 819 -75 525 192 
Q 231 459 231 875 
Q 231 1119 342 1320 
Q 453 1522 633 1644 
Q 813 1766 1038 1828 
Q 1203 1872 1538 1913 
Q 2219 1994 2541 2106 
Q 2544 2222 2544 2253 
Q 2544 2597 2384 2738 
Q 2169 2928 1744 2928 
Q 1347 2928 1158 2789 
Q 969 2650 878 2297 
L 328 2372 
Q 403 2725 575 2942 
Q 747 3159 1072 3276 
Q 1397 3394 1825 3394 
Q 2250 3394 2515 3294 
Q 2781 3194 2906 3042 
Q 3031 2891 3081 2659 
Q 3109 2516 3109 2141 
L 3109 1391 
Q 3109 606 3145 398 
Q 3181 191 3288 0 
L 2700 0 
Q 2613 175 2588 409 
z
M 2541 1666 
Q 2234 1541 1622 1453 
Q 1275 1403 1131 1340 
Q 988 1278 909 1158 
Q 831 1038 831 891 
Q 831 666 1001 516 
Q 1172 366 1500 366 
Q 1825 366 2078 508 
Q 2331 650 2450 897 
Q 2541 1088 2541 1459 
L 2541 1666 
z
" transform="scale(0.015625)"/>
       <path id="ArialMT-6c" d="M 409 0 
L 409 4581 
L 972 4581 
L 972 0 
L 409 0 
z
" transform="scale(0.015625)"/>
       <path id="ArialMT-20" transform="scale(0.015625)"/>
       <path id="ArialMT-75" d="M 2597 0 
L 2597 488 
Q 2209 -75 1544 -75 
Q 1250 -75 995 37 
Q 741 150 617 320 
Q 494 491 444 738 
Q 409 903 409 1263 
L 409 3319 
L 972 3319 
L 972 1478 
Q 972 1038 1006 884 
Q 1059 663 1231 536 
Q 1403 409 1656 409 
Q 1909 409 2131 539 
Q 2353 669 2445 892 
Q 2538 1116 2538 1541 
L 2538 3319 
L 3100 3319 
L 3100 0 
L 2597 0 
z
" transform="scale(0.015625)"/>
       <path id="ArialMT-76" d="M 1344 0 
L 81 3319 
L 675 3319 
L 1388 1331 
Q 1503 1009 1600 663 
Q 1675 925 1809 1294 
L 2547 3319 
L 3125 3319 
L 1869 0 
L 1344 0 
z
" transform="scale(0.015625)"/>
      </defs>
      <use xlink:href="#ArialMT-50"/>
      <use xlink:href="#ArialMT-72" transform="translate(66.699219 0)"/>
      <use xlink:href="#ArialMT-65" transform="translate(100 0)"/>
      <use xlink:href="#ArialMT-63" transform="translate(155.615234 0)"/>
      <use xlink:href="#ArialMT-69" transform="translate(205.615234 0)"/>
      <use xlink:href="#ArialMT-73" transform="translate(227.832031 0)"/>
      <use xlink:href="#ArialMT-69" transform="translate(277.832031 0)"/>
      <use xlink:href="#ArialMT-6f" transform="translate(300.048828 0)"/>
      <use xlink:href="#ArialMT-6e" transform="translate(355.664062 0)"/>
      <use xlink:href="#ArialMT-2d" transform="translate(411.279297 0)"/>
      <use xlink:href="#ArialMT-52" transform="translate(444.580078 0)"/>
      <use xlink:href="#ArialMT-65" transform="translate(516.796875 0)"/>
      <use xlink:href="#ArialMT-63" transform="translate(572.412109 0)"/>
      <use xlink:href="#ArialMT-61" transform="translate(622.412109 0)"/>
      <use xlink:href="#ArialMT-6c" transform="translate(678.027344 0)"/>
      <use xlink:href="#ArialMT-6c" transform="translate(700.244141 0)"/>
      <use xlink:href="#ArialMT-20" transform="translate(722.460938 0)"/>
      <use xlink:href="#ArialMT-63" transform="translate(750.244141 0)"/>
      <use xlink:href="#ArialMT-75" transform="translate(800.244141 0)"/>
      <use xlink:href="#ArialMT-72" transform="translate(855.859375 0)"/>
      <use xlink:href="#ArialMT-76" transform="translate(889.160156 0)"/>
      <use xlink:href="#ArialMT-65" transform="translate(939.160156 0)"/>
     </g>
    </g>
   </g>
  </g>
 </g>
 <defs>
  <clipPath id="p4efd8cee6f">
   <rect x="35.655938" y="19.642031" width="253.543583" height="245.38077"/>
  </clipPath>
 </defs>
</svg>
