<?xml version="1.0" encoding="utf-8" standalone="no"?>
<!DOCTYPE svg PUBLIC "-//W3C//DTD SVG 1.1//EN"
  "http://www.w3.org/Graphics/SVG/1.1/DTD/svg11.dtd">
<svg xmlns:xlink="http://www.w3.org/1999/xlink" width="296.39952pt" height="296.39952pt" viewBox="0 0 296.39952 296.39952" xmlns="http://www.w3.org/2000/svg" version="1.1">
 <metadata>
  <rdf:RDF xmlns:dc="http://purl.org/dc/elements/1.1/" xmlns:cc="http://creativecommons.org/ns#" xmlns:rdf="http://www.w3.org/1999/02/22-rdf-syntax-ns#">
   <cc:Work>
    <dc:type rdf:resource="http://purl.org/dc/dcmitype/StillImage"/>
    <dc:date>2026-01-02T15:02:40.041975</dc:date>
    <dc:format>image/svg+xml</dc:format>
    <dc:creator>
     <cc:Agent>
      <dc:title>Matplotlib v3.10.8, https://matplotlib.org/</dc:title>
     </cc:Agent>
    </dc:creator>
   </cc:Work>
  </rdf:RDF>
 </metadata>
 <defs>
  <style type="text/css">*{stroke-linejoin: round; stroke-linecap: butt}</style>
 </defs>
 <g id="figure_1">
  <g id="patch_1">
   <path d="M 0 296.39952 
L 296.39952 296.39952 
L 296.39952 0 
L 0 0 
z
" style="fill: #ffffff"/>
  </g>
  <g id="axes_1">
   <g id="patch_2">
    <path d="M 35.655938 265.022801 
L 289.19952 265.022801 
L 289.19952 19.751719 
L 35.655938 19.751719 
z
" style="fill: #ffffff"/>
   </g>
   <g id="matplotlib.axis_1">
    <g id="xtick_1">
     <g id="line2d_1">
      <path d="M 42.831699 265.022801 
L 42.831699 19.751719 
" clip-path="url(#pd4724637c9)" style="fill: none; stroke: #c0c0c0; stroke-width: 0.25; stroke-linecap: round"/>
     </g>
     <g id="line2d_2"/>
     <g id="text_1">
      <!-- 0.0 -->
      <g style="fill: #333333" transform="translate(36.576699 274.964832) scale(0.09 -0.09)">
       <defs>
        <path id="ArialMT-30" d="M 266 2259 
Q 266 3072 433 3567 
Q 600 4063 929 4331 
Q 1259 4600 1759 4600 
Q 2128 4600 2406 4451 
Q 2684 4303 2865 4023 
Q 3047 3744 3150 3342 
Q 3253 2941 3253 2259 
Q 3253 1453 3087 958 
Q 2922 463 2592 192 
Q 2263 -78 1759 -78 
Q 1097 -78 719 397 
Q 266 969 266 2259 
z
M 844 2259 
Q 844 1131 1108 757 
Q 1372 384 1759 384 
Q 2147 384 2411 759 
Q 2675 1134 2675 2259 
Q 2675 3391 2411 3762 
Q 2147 4134 1753 4134 
Q 1366 4134 1134 3806 
Q 844 3388 844 2259 
z
" transform="scale(0.015625)"/>
        <path id="ArialMT-2e" d="M 581 0 
L 581 641 
L 1222 641 
L 1222 0 
L 581 0 
z
" transform="scale(0.015625)"/>
       </defs>
       <use xlink:href="#ArialMT-30"/>
       <use xlink:href="#ArialMT-2e" transform="translate(55.615234 0)"/>
       <use xlink:href="#ArialMT-30" transform="translate(83.398438 0)"/>
      </g>
     </g>
    </g>
    <g id="xtick_2">
     <g id="line2d_3">
      <path d="M 90.670111 265.022801 
L 90.670111 19.751719 
" clip-path="url(#pd4724637c9)" style="fill: none; stroke: #c0c0c0; stroke-width: 0.25; stroke-linecap: round"/>
     </g>
     <g id="line2d_4"/>
     <g id="text_2">
      <!-- 0.2 -->
      <g style="fill: #333333" transform="translate(84.415111 274.964832) scale(0.09 -0.09)">
       <defs>
        <path id="ArialMT-32" d="M 3222 541 
L 3222 0 
L 194 0 
Q 188 203 259 391 
Q 375 700 629 1000 
Q 884 1300 1366 1694 
Q 2113 2306 2375 2664 
Q 2638 3022 2638 3341 
Q 2638 3675 2398 3904 
Q 2159 4134 1775 4134 
Q 1369 4134 1125 3890 
Q 881 3647 878 3216 
L 300 3275 
Q 359 3922 746 4261 
Q 1134 4600 1788 4600 
Q 2447 4600 2831 4234 
Q 3216 3869 3216 3328 
Q 3216 3053 3103 2787 
Q 2991 2522 2730 2228 
Q 2469 1934 1863 1422 
Q 1356 997 1212 845 
Q 1069 694 975 541 
L 3222 541 
z
" transform="scale(0.015625)"/>
       </defs>
       <use xlink:href="#ArialMT-30"/>
       <use xlink:href="#ArialMT-2e" transform="translate(55.615234 0)"/>
       <use xlink:href="#ArialMT-32" transform="translate(83.398438 0)"/>
      </g>
     </g>
    </g>
    <g id="xtick_3">
     <g id="line2d_5">
      <path d="M 138.508523 265.022801 
L 138.508523 19.751719 
" clip-path="url(#pd4724637c9)" style="fill: none; stroke: #c0c0c0; stroke-width: 0.25; stroke-linecap: round"/>
     </g>
     <g id="line2d_6"/>
     <g id="text_3">
      <!-- 0.4 -->
      <g style="fill: #333333" transform="translate(132.253523 274.964832) scale(0.09 -0.09)">
       <defs>
        <path id="ArialMT-34" d="M 2069 0 
L 2069 1097 
L 81 1097 
L 81 1613 
L 2172 4581 
L 2631 4581 
L 2631 1613 
L 3250 1613 
L 3250 1097 
L 2631 1097 
L 2631 0 
L 2069 0 
z
M 2069 1613 
L 2069 3678 
L 634 1613 
L 2069 1613 
z
" transform="scale(0.015625)"/>
       </defs>
       <use xlink:href="#ArialMT-30"/>
       <use xlink:href="#ArialMT-2e" transform="translate(55.615234 0)"/>
       <use xlink:href="#ArialMT-34" transform="translate(83.398438 0)"/>
      </g>
     </g>
    </g>
    <g id="xtick_4">
     <g id="line2d_7">
      <path d="M 186.346935 265.022801 
L 186.346935 19.751719 
" clip-path="url(#pd4724637c9)" style="fill: none; stroke: #c0c0c0; stroke-width: 0.25; stroke-linecap: round"/>
     </g>
     <g id="line2d_8"/>
     <g id="text_4">
      <!-- 0.6 -->
      <g style="fill: #333333" transform="translate(180.091935 274.964832) scale(0.09 -0.09)">
       <defs>
        <path id="ArialMT-36" d="M 3184 3459 
L 2625 3416 
Q 2550 3747 2413 3897 
Q 2184 4138 1850 4138 
Q 1581 4138 1378 3988 
Q 1113 3794 959 3422 
Q 806 3050 800 2363 
Q 1003 2672 1297 2822 
Q 1591 2972 1913 2972 
Q 2475 2972 2870 2558 
Q 3266 2144 3266 1488 
Q 3266 1056 3080 686 
Q 2894 316 2569 119 
Q 2244 -78 1831 -78 
Q 1128 -78 684 439 
Q 241 956 241 2144 
Q 241 3472 731 4075 
Q 1159 4600 1884 4600 
Q 2425 4600 2770 4297 
Q 3116 3994 3184 3459 
z
M 888 1484 
Q 888 1194 1011 928 
Q 1134 663 1356 523 
Q 1578 384 1822 384 
Q 2178 384 2434 671 
Q 2691 959 2691 1453 
Q 2691 1928 2437 2201 
Q 2184 2475 1800 2475 
Q 1419 2475 1153 2201 
Q 888 1928 888 1484 
z
" transform="scale(0.015625)"/>
       </defs>
       <use xlink:href="#ArialMT-30"/>
       <use xlink:href="#ArialMT-2e" transform="translate(55.615234 0)"/>
       <use xlink:href="#ArialMT-36" transform="translate(83.398438 0)"/>
      </g>
     </g>
    </g>
    <g id="xtick_5">
     <g id="line2d_9">
      <path d="M 234.185346 265.022801 
L 234.185346 19.751719 
" clip-path="url(#pd4724637c9)" style="fill: none; stroke: #c0c0c0; stroke-width: 0.25; stroke-linecap: round"/>
     </g>
     <g id="line2d_10"/>
     <g id="text_5">
      <!-- 0.8 -->
      <g style="fill: #333333" transform="translate(227.930346 274.964832) scale(0.09 -0.09)">
       <defs>
        <path id="ArialMT-38" d="M 1131 2484 
Q 781 2613 612 2850 
Q 444 3088 444 3419 
Q 444 3919 803 4259 
Q 1163 4600 1759 4600 
Q 2359 4600 2725 4251 
Q 3091 3903 3091 3403 
Q 3091 3084 2923 2848 
Q 2756 2613 2416 2484 
Q 2838 2347 3058 2040 
Q 3278 1734 3278 1309 
Q 3278 722 2862 322 
Q 2447 -78 1769 -78 
Q 1091 -78 675 323 
Q 259 725 259 1325 
Q 259 1772 486 2073 
Q 713 2375 1131 2484 
z
M 1019 3438 
Q 1019 3113 1228 2906 
Q 1438 2700 1772 2700 
Q 2097 2700 2305 2904 
Q 2513 3109 2513 3406 
Q 2513 3716 2298 3927 
Q 2084 4138 1766 4138 
Q 1444 4138 1231 3931 
Q 1019 3725 1019 3438 
z
M 838 1322 
Q 838 1081 952 856 
Q 1066 631 1291 507 
Q 1516 384 1775 384 
Q 2178 384 2440 643 
Q 2703 903 2703 1303 
Q 2703 1709 2433 1975 
Q 2163 2241 1756 2241 
Q 1359 2241 1098 1978 
Q 838 1716 838 1322 
z
" transform="scale(0.015625)"/>
       </defs>
       <use xlink:href="#ArialMT-30"/>
       <use xlink:href="#ArialMT-2e" transform="translate(55.615234 0)"/>
       <use xlink:href="#ArialMT-38" transform="translate(83.398438 0)"/>
      </g>
     </g>
    </g>
    <g id="xtick_6">
     <g id="line2d_11">
      <path d="M 282.023758 265.022801 
L 282.023758 19.751719 
" clip-path="url(#pd4724637c9)" style="fill: none; stroke: #c0c0c0; stroke-width: 0.25; stroke-linecap: round"/>
     </g>
     <g id="line2d_12"/>
     <g id="text_6">
      <!-- 1.0 -->
      <g style="fill: #333333" transform="translate(275.768758 274.964832) scale(0.09 -0.09)">
       <defs>
        <path id="ArialMT-31" d="M 2384 0 
L 1822 0 
L 1822 3584 
Q 1619 3391 1289 3197 
Q 959 3003 697 2906 
L 697 3450 
Q 1169 3672 1522 3987 
Q 1875 4303 2022 4600 
L 2384 4600 
L 2384 0 
z
" transform="scale(0.015625)"/>
       </defs>
       <use xlink:href="#ArialMT-31"/>
       <use xlink:href="#ArialMT-2e" transform="translate(55.615234 0)"/>
       <use xlink:href="#ArialMT-30" transform="translate(83.398438 0)"/>
      </g>
     </g>
    </g>
    <g id="text_7">
     <!-- False Positive Rate (FPR) -->
     <g style="fill: #333333" transform="translate(108.165463 287.305301) scale(0.09 -0.09)">
      <defs>
       <path id="Arial-BoldMT-46" d="M 472 0 
L 472 4581 
L 3613 4581 
L 3613 3806 
L 1397 3806 
L 1397 2722 
L 3309 2722 
L 3309 1947 
L 1397 1947 
L 1397 0 
L 472 0 
z
" transform="scale(0.015625)"/>
       <path id="Arial-BoldMT-61" d="M 1116 2306 
L 319 2450 
Q 453 2931 781 3162 
Q 1109 3394 1756 3394 
Q 2344 3394 2631 3255 
Q 2919 3116 3036 2902 
Q 3153 2688 3153 2116 
L 3144 1091 
Q 3144 653 3186 445 
Q 3228 238 3344 0 
L 2475 0 
Q 2441 88 2391 259 
Q 2369 338 2359 363 
Q 2134 144 1878 34 
Q 1622 -75 1331 -75 
Q 819 -75 523 203 
Q 228 481 228 906 
Q 228 1188 362 1408 
Q 497 1628 739 1745 
Q 981 1863 1438 1950 
Q 2053 2066 2291 2166 
L 2291 2253 
Q 2291 2506 2166 2614 
Q 2041 2722 1694 2722 
Q 1459 2722 1328 2630 
Q 1197 2538 1116 2306 
z
M 2291 1594 
Q 2122 1538 1756 1459 
Q 1391 1381 1278 1306 
Q 1106 1184 1106 997 
Q 1106 813 1243 678 
Q 1381 544 1594 544 
Q 1831 544 2047 700 
Q 2206 819 2256 991 
Q 2291 1103 2291 1419 
L 2291 1594 
z
" transform="scale(0.015625)"/>
       <path id="Arial-BoldMT-6c" d="M 459 0 
L 459 4581 
L 1338 4581 
L 1338 0 
L 459 0 
z
" transform="scale(0.015625)"/>
       <path id="Arial-BoldMT-73" d="M 150 947 
L 1031 1081 
Q 1088 825 1259 692 
Q 1431 559 1741 559 
Q 2081 559 2253 684 
Q 2369 772 2369 919 
Q 2369 1019 2306 1084 
Q 2241 1147 2013 1200 
Q 950 1434 666 1628 
Q 272 1897 272 2375 
Q 272 2806 612 3100 
Q 953 3394 1669 3394 
Q 2350 3394 2681 3172 
Q 3013 2950 3138 2516 
L 2309 2363 
Q 2256 2556 2107 2659 
Q 1959 2763 1684 2763 
Q 1338 2763 1188 2666 
Q 1088 2597 1088 2488 
Q 1088 2394 1175 2328 
Q 1294 2241 1995 2081 
Q 2697 1922 2975 1691 
Q 3250 1456 3250 1038 
Q 3250 581 2869 253 
Q 2488 -75 1741 -75 
Q 1063 -75 667 200 
Q 272 475 150 947 
z
" transform="scale(0.015625)"/>
       <path id="Arial-BoldMT-65" d="M 2381 1056 
L 3256 909 
Q 3088 428 2723 176 
Q 2359 -75 1813 -75 
Q 947 -75 531 491 
Q 203 944 203 1634 
Q 203 2459 634 2926 
Q 1066 3394 1725 3394 
Q 2466 3394 2894 2905 
Q 3322 2416 3303 1406 
L 1103 1406 
Q 1113 1016 1316 798 
Q 1519 581 1822 581 
Q 2028 581 2168 693 
Q 2309 806 2381 1056 
z
M 2431 1944 
Q 2422 2325 2234 2523 
Q 2047 2722 1778 2722 
Q 1491 2722 1303 2513 
Q 1116 2303 1119 1944 
L 2431 1944 
z
" transform="scale(0.015625)"/>
       <path id="Arial-BoldMT-20" transform="scale(0.015625)"/>
       <path id="Arial-BoldMT-50" d="M 466 0 
L 466 4581 
L 1950 4581 
Q 2794 4581 3050 4513 
Q 3444 4409 3709 4064 
Q 3975 3719 3975 3172 
Q 3975 2750 3822 2462 
Q 3669 2175 3433 2011 
Q 3197 1847 2953 1794 
Q 2622 1728 1994 1728 
L 1391 1728 
L 1391 0 
L 466 0 
z
M 1391 3806 
L 1391 2506 
L 1897 2506 
Q 2444 2506 2628 2578 
Q 2813 2650 2917 2803 
Q 3022 2956 3022 3159 
Q 3022 3409 2875 3571 
Q 2728 3734 2503 3775 
Q 2338 3806 1838 3806 
L 1391 3806 
z
" transform="scale(0.015625)"/>
       <path id="Arial-BoldMT-6f" d="M 256 1706 
Q 256 2144 472 2553 
Q 688 2963 1083 3178 
Q 1478 3394 1966 3394 
Q 2719 3394 3200 2905 
Q 3681 2416 3681 1669 
Q 3681 916 3195 420 
Q 2709 -75 1972 -75 
Q 1516 -75 1102 131 
Q 688 338 472 736 
Q 256 1134 256 1706 
z
M 1156 1659 
Q 1156 1166 1390 903 
Q 1625 641 1969 641 
Q 2313 641 2545 903 
Q 2778 1166 2778 1666 
Q 2778 2153 2545 2415 
Q 2313 2678 1969 2678 
Q 1625 2678 1390 2415 
Q 1156 2153 1156 1659 
z
" transform="scale(0.015625)"/>
       <path id="Arial-BoldMT-69" d="M 459 3769 
L 459 4581 
L 1338 4581 
L 1338 3769 
L 459 3769 
z
M 459 0 
L 459 3319 
L 1338 3319 
L 1338 0 
L 459 0 
z
" transform="scale(0.015625)"/>
       <path id="Arial-BoldMT-74" d="M 1981 3319 
L 1981 2619 
L 1381 2619 
L 1381 1281 
Q 1381 875 1398 808 
Q 1416 741 1477 697 
Q 1538 653 1625 653 
Q 1747 653 1978 738 
L 2053 56 
Q 1747 -75 1359 -75 
Q 1122 -75 931 4 
Q 741 84 652 211 
Q 563 338 528 553 
Q 500 706 500 1172 
L 500 2619 
L 97 2619 
L 97 3319 
L 500 3319 
L 500 3978 
L 1381 4491 
L 1381 3319 
L 1981 3319 
z
" transform="scale(0.015625)"/>
       <path id="Arial-BoldMT-76" d="M 1372 0 
L 34 3319 
L 956 3319 
L 1581 1625 
L 1763 1059 
Q 1834 1275 1853 1344 
Q 1897 1484 1947 1625 
L 2578 3319 
L 3481 3319 
L 2163 0 
L 1372 0 
z
" transform="scale(0.015625)"/>
       <path id="Arial-BoldMT-52" d="M 469 0 
L 469 4581 
L 2416 4581 
Q 3150 4581 3483 4457 
Q 3816 4334 4016 4018 
Q 4216 3703 4216 3297 
Q 4216 2781 3912 2445 
Q 3609 2109 3006 2022 
Q 3306 1847 3501 1637 
Q 3697 1428 4028 894 
L 4588 0 
L 3481 0 
L 2813 997 
Q 2456 1531 2325 1670 
Q 2194 1809 2047 1861 
Q 1900 1913 1581 1913 
L 1394 1913 
L 1394 0 
L 469 0 
z
M 1394 2644 
L 2078 2644 
Q 2744 2644 2909 2700 
Q 3075 2756 3169 2893 
Q 3263 3031 3263 3238 
Q 3263 3469 3139 3611 
Q 3016 3753 2791 3791 
Q 2678 3806 2116 3806 
L 1394 3806 
L 1394 2644 
z
" transform="scale(0.015625)"/>
       <path id="Arial-BoldMT-28" d="M 1916 -1347 
L 1313 -1347 
Q 834 -625 584 153 
Q 334 931 334 1659 
Q 334 2563 644 3369 
Q 913 4069 1325 4659 
L 1925 4659 
Q 1497 3713 1336 3048 
Q 1175 2384 1175 1641 
Q 1175 1128 1270 590 
Q 1366 53 1531 -431 
Q 1641 -750 1916 -1347 
z
" transform="scale(0.015625)"/>
       <path id="Arial-BoldMT-29" d="M 216 -1347 
Q 475 -791 581 -494 
Q 688 -197 778 190 
Q 869 578 912 926 
Q 956 1275 956 1641 
Q 956 2384 797 3048 
Q 638 3713 209 4659 
L 806 4659 
Q 1278 3988 1539 3234 
Q 1800 2481 1800 1706 
Q 1800 1053 1594 306 
Q 1359 -531 822 -1347 
L 216 -1347 
z
" transform="scale(0.015625)"/>
      </defs>
      <use xlink:href="#Arial-BoldMT-46"/>
      <use xlink:href="#Arial-BoldMT-61" transform="translate(61.083984 0)"/>
      <use xlink:href="#Arial-BoldMT-6c" transform="translate(116.699219 0)"/>
      <use xlink:href="#Arial-BoldMT-73" transform="translate(144.482422 0)"/>
      <use xlink:href="#Arial-BoldMT-65" transform="translate(200.097656 0)"/>
      <use xlink:href="#Arial-BoldMT-20" transform="translate(255.712891 0)"/>
      <use xlink:href="#Arial-BoldMT-50" transform="translate(283.496094 0)"/>
      <use xlink:href="#Arial-BoldMT-6f" transform="translate(350.195312 0)"/>
      <use xlink:href="#Arial-BoldMT-73" transform="translate(411.279297 0)"/>
      <use xlink:href="#Arial-BoldMT-69" transform="translate(466.894531 0)"/>
      <use xlink:href="#Arial-BoldMT-74" transform="translate(494.677734 0)"/>
      <use xlink:href="#Arial-BoldMT-69" transform="translate(527.978516 0)"/>
      <use xlink:href="#Arial-BoldMT-76" transform="translate(555.761719 0)"/>
      <use xlink:href="#Arial-BoldMT-65" transform="translate(611.376953 0)"/>
      <use xlink:href="#Arial-BoldMT-20" transform="translate(666.992188 0)"/>
      <use xlink:href="#Arial-BoldMT-52" transform="translate(694.775391 0)"/>
      <use xlink:href="#Arial-BoldMT-61" transform="translate(766.992188 0)"/>
      <use xlink:href="#Arial-BoldMT-74" transform="translate(822.607422 0)"/>
      <use xlink:href="#Arial-BoldMT-65" transform="translate(855.908203 0)"/>
      <use xlink:href="#Arial-BoldMT-20" transform="translate(911.523438 0)"/>
      <use xlink:href="#Arial-BoldMT-28" transform="translate(939.306641 0)"/>
      <use xlink:href="#Arial-BoldMT-46" transform="translate(972.607422 0)"/>
      <use xlink:href="#Arial-BoldMT-50" transform="translate(1033.691406 0)"/>
      <use xlink:href="#Arial-BoldMT-52" transform="translate(1100.390625 0)"/>
      <use xlink:href="#Arial-BoldMT-29" transform="translate(1172.607422 0)"/>
     </g>
    </g>
   </g>
   <g id="matplotlib.axis_2">
    <g id="ytick_1">
     <g id="line2d_13">
      <path d="M 35.655938 265.022801 
L 289.19952 265.022801 
" clip-path="url(#pd4724637c9)" style="fill: none; stroke: #c0c0c0; stroke-width: 0.25; stroke-linecap: round"/>
     </g>
     <g id="line2d_14"/>
     <g id="text_8">
      <!-- 0.0 -->
      <g style="fill: #333333" transform="translate(19.645938 268.243817) scale(0.09 -0.09)">
       <use xlink:href="#ArialMT-30"/>
       <use xlink:href="#ArialMT-2e" transform="translate(55.615234 0)"/>
       <use xlink:href="#ArialMT-30" transform="translate(83.398438 0)"/>
      </g>
     </g>
    </g>
    <g id="ytick_2">
     <g id="line2d_15">
      <path d="M 35.655938 217.397348 
L 289.19952 217.397348 
" clip-path="url(#pd4724637c9)" style="fill: none; stroke: #c0c0c0; stroke-width: 0.25; stroke-linecap: round"/>
     </g>
     <g id="line2d_16"/>
     <g id="text_9">
      <!-- 0.2 -->
      <g style="fill: #333333" transform="translate(19.645938 220.618364) scale(0.09 -0.09)">
       <use xlink:href="#ArialMT-30"/>
       <use xlink:href="#ArialMT-2e" transform="translate(55.615234 0)"/>
       <use xlink:href="#ArialMT-32" transform="translate(83.398438 0)"/>
      </g>
     </g>
    </g>
    <g id="ytick_3">
     <g id="line2d_17">
      <path d="M 35.655938 169.771895 
L 289.19952 169.771895 
" clip-path="url(#pd4724637c9)" style="fill: none; stroke: #c0c0c0; stroke-width: 0.25; stroke-linecap: round"/>
     </g>
     <g id="line2d_18"/>
     <g id="text_10">
      <!-- 0.4 -->
      <g style="fill: #333333" transform="translate(19.645938 172.992911) scale(0.09 -0.09)">
       <use xlink:href="#ArialMT-30"/>
       <use xlink:href="#ArialMT-2e" transform="translate(55.615234 0)"/>
       <use xlink:href="#ArialMT-34" transform="translate(83.398438 0)"/>
      </g>
     </g>
    </g>
    <g id="ytick_4">
     <g id="line2d_19">
      <path d="M 35.655938 122.146443 
L 289.19952 122.146443 
" clip-path="url(#pd4724637c9)" style="fill: none; stroke: #c0c0c0; stroke-width: 0.25; stroke-linecap: round"/>
     </g>
     <g id="line2d_20"/>
     <g id="text_11">
      <!-- 0.6 -->
      <g style="fill: #333333" transform="translate(19.645938 125.367458) scale(0.09 -0.09)">
       <use xlink:href="#ArialMT-30"/>
       <use xlink:href="#ArialMT-2e" transform="translate(55.615234 0)"/>
       <use xlink:href="#ArialMT-36" transform="translate(83.398438 0)"/>
      </g>
     </g>
    </g>
    <g id="ytick_5">
     <g id="line2d_21">
      <path d="M 35.655938 74.52099 
L 289.19952 74.52099 
" clip-path="url(#pd4724637c9)" style="fill: none; stroke: #c0c0c0; stroke-width: 0.25; stroke-linecap: round"/>
     </g>
     <g id="line2d_22"/>
     <g id="text_12">
      <!-- 0.8 -->
      <g style="fill: #333333" transform="translate(19.645938 77.742005) scale(0.09 -0.09)">
       <use xlink:href="#ArialMT-30"/>
       <use xlink:href="#ArialMT-2e" transform="translate(55.615234 0)"/>
       <use xlink:href="#ArialMT-38" transform="translate(83.398438 0)"/>
      </g>
     </g>
    </g>
    <g id="ytick_6">
     <g id="line2d_23">
      <path d="M 35.655938 26.895537 
L 289.19952 26.895537 
" clip-path="url(#pd4724637c9)" style="fill: none; stroke: #c0c0c0; stroke-width: 0.25; stroke-linecap: round"/>
     </g>
     <g id="line2d_24"/>
     <g id="text_13">
      <!-- 1.0 -->
      <g style="fill: #333333" transform="translate(19.645938 30.116552) scale(0.09 -0.09)">
       <use xlink:href="#ArialMT-31"/>
       <use xlink:href="#ArialMT-2e" transform="translate(55.615234 0)"/>
       <use xlink:href="#ArialMT-30" transform="translate(83.398438 0)"/>
      </g>
     </g>
    </g>
    <g id="text_14">
     <!-- True Positive Rate (TPR) -->
     <g style="fill: #333333" transform="translate(13.751719 194.647026) rotate(-90) scale(0.09 -0.09)">
      <defs>
       <path id="Arial-BoldMT-54" d="M 1497 0 
L 1497 3806 
L 138 3806 
L 138 4581 
L 3778 4581 
L 3778 3806 
L 2422 3806 
L 2422 0 
L 1497 0 
z
" transform="scale(0.015625)"/>
       <path id="Arial-BoldMT-72" d="M 1300 0 
L 422 0 
L 422 3319 
L 1238 3319 
L 1238 2847 
Q 1447 3181 1614 3287 
Q 1781 3394 1994 3394 
Q 2294 3394 2572 3228 
L 2300 2463 
Q 2078 2606 1888 2606 
Q 1703 2606 1575 2504 
Q 1447 2403 1373 2137 
Q 1300 1872 1300 1025 
L 1300 0 
z
" transform="scale(0.015625)"/>
       <path id="Arial-BoldMT-75" d="M 2644 0 
L 2644 497 
Q 2463 231 2167 78 
Q 1872 -75 1544 -75 
Q 1209 -75 943 72 
Q 678 219 559 484 
Q 441 750 441 1219 
L 441 3319 
L 1319 3319 
L 1319 1794 
Q 1319 1094 1367 936 
Q 1416 778 1544 686 
Q 1672 594 1869 594 
Q 2094 594 2272 717 
Q 2450 841 2515 1023 
Q 2581 1206 2581 1919 
L 2581 3319 
L 3459 3319 
L 3459 0 
L 2644 0 
z
" transform="scale(0.015625)"/>
      </defs>
      <use xlink:href="#Arial-BoldMT-54"/>
      <use xlink:href="#Arial-BoldMT-72" transform="translate(55.583984 0)"/>
      <use xlink:href="#Arial-BoldMT-75" transform="translate(94.5 0)"/>
      <use xlink:href="#Arial-BoldMT-65" transform="translate(155.583984 0)"/>
      <use xlink:href="#Arial-BoldMT-20" transform="translate(211.199219 0)"/>
      <use xlink:href="#Arial-BoldMT-50" transform="translate(238.982422 0)"/>
      <use xlink:href="#Arial-BoldMT-6f" transform="translate(305.681641 0)"/>
      <use xlink:href="#Arial-BoldMT-73" transform="translate(366.765625 0)"/>
      <use xlink:href="#Arial-BoldMT-69" transform="translate(422.380859 0)"/>
      <use xlink:href="#Arial-BoldMT-74" transform="translate(450.164062 0)"/>
      <use xlink:href="#Arial-BoldMT-69" transform="translate(483.464844 0)"/>
      <use xlink:href="#Arial-BoldMT-76" transform="translate(511.248047 0)"/>
      <use xlink:href="#Arial-BoldMT-65" transform="translate(566.863281 0)"/>
      <use xlink:href="#Arial-BoldMT-20" transform="translate(622.478516 0)"/>
      <use xlink:href="#Arial-BoldMT-52" transform="translate(650.261719 0)"/>
      <use xlink:href="#Arial-BoldMT-61" transform="translate(722.478516 0)"/>
      <use xlink:href="#Arial-BoldMT-74" transform="translate(778.09375 0)"/>
      <use xlink:href="#Arial-BoldMT-65" transform="translate(811.394531 0)"/>
      <use xlink:href="#Arial-BoldMT-20" transform="translate(867.009766 0)"/>
      <use xlink:href="#Arial-BoldMT-28" transform="translate(894.792969 0)"/>
      <use xlink:href="#Arial-BoldMT-54" transform="translate(928.09375 0)"/>
      <use xlink:href="#Arial-BoldMT-50" transform="translate(989.177734 0)"/>
      <use xlink:href="#Arial-BoldMT-52" transform="translate(1055.876953 0)"/>
      <use xlink:href="#Arial-BoldMT-29" transform="translate(1128.09375 0)"/>
     </g>
    </g>
   </g>
   <g id="line2d_25">
    <path d="M 42.831699 265.022801 
L 42.942301 243.89753 
L 42.943774 243.808394 
L 43.054826 233.156622 
L 43.056346 233.067486 
L 43.165761 225.713753 
L 43.167827 225.624616 
L 43.277621 220.811263 
L 43.27945 220.722127 
L 43.389957 216.800136 
L 43.393044 216.711 
L 43.502102 213.412962 
L 43.508847 213.323826 
L 43.616931 209.357266 
L 43.623415 209.26813 
L 43.733352 206.01466 
L 43.736653 205.925524 
L 43.847682 202.98403 
L 43.853453 202.894894 
L 43.964483 200.889331 
L 43.96757 200.800194 
L 44.078314 198.482654 
L 44.082114 198.393518 
L 44.192882 196.699931 
L 44.200245 196.610795 
L 44.310015 194.471527 
L 44.321035 194.382391 
L 44.43147 192.153986 
L 44.438405 192.06485 
L 44.545991 190.638672 
L 44.546893 190.638672 
L 44.554921 190.549535 
L 44.663931 188.855948 
L 44.676376 188.766812 
L 44.785719 187.296065 
L 44.798663 187.206929 
L 44.900714 185.691614 
L 44.914703 185.602478 
L 45.023547 184.354572 
L 45.033831 184.265436 
L 45.142248 182.349008 
L 45.149515 182.259872 
L 45.259808 180.699989 
L 45.263608 180.610853 
L 45.374233 179.496651 
L 45.381287 179.407515 
L 45.491818 178.159609 
L 45.510841 178.070472 
L 45.620635 176.555158 
L 45.627926 176.466021 
L 45.734538 175.396387 
L 45.748764 175.307251 
L 45.858772 174.103913 
L 45.859603 174.103913 
L 45.865612 174.014777 
L 45.973055 172.856007 
L 45.974908 172.856007 
L 45.987519 172.766871 
L 46.096838 171.563532 
L 46.103108 171.474396 
L 46.20231 170.583035 
L 46.204637 170.583035 
L 46.218341 170.493898 
L 46.31968 169.424264 
L 46.341459 169.335128 
L 46.450327 168.399198 
L 46.466571 168.310062 
L 46.577411 167.507837 
L 46.589665 167.418701 
L 46.691456 166.215362 
L 46.706561 166.126226 
L 46.810441 164.87832 
L 46.834262 164.789184 
L 46.940375 163.853254 
L 46.95453 163.764118 
L 47.061379 163.006461 
L 47.093228 162.917324 
L 47.202452 161.981395 
L 47.22822 161.892258 
L 47.327778 160.911761 
L 47.351552 160.822624 
L 47.448094 159.975831 
L 47.455408 159.975831 
L 47.471249 159.886695 
L 47.571758 159.218173 
L 47.579619 159.218173 
L 47.613747 159.129037 
L 47.720026 158.37138 
L 47.735796 158.282244 
L 47.846659 157.613723 
L 47.858011 157.524586 
L 47.965549 156.365816 
L 47.993621 156.27668 
L 48.090472 155.563591 
L 48.122724 155.474455 
L 48.232851 154.627661 
L 48.278664 154.538525 
L 48.388624 153.647163 
L 48.405724 153.558027 
L 48.512834 152.488393 
L 48.54872 152.399257 
L 48.659156 151.597031 
L 48.669677 151.507895 
L 48.767311 150.70567 
L 48.787474 150.616534 
L 48.884705 149.99258 
L 48.893588 149.99258 
L 48.901757 149.903444 
L 49.006517 149.145787 
L 49.030456 149.056651 
L 49.133648 148.388129 
L 49.184971 148.298993 
L 49.294647 147.808744 
L 49.354733 147.719608 
L 49.463007 146.917383 
L 49.496019 146.828247 
L 49.589783 146.159725 
L 49.641557 146.070589 
L 49.75204 145.624908 
L 49.783793 145.535772 
L 49.893041 144.466138 
L 49.899073 144.377002 
L 50.005471 143.574777 
L 50.014971 143.48564 
L 50.125882 142.727983 
L 50.175756 142.638847 
L 50.261967 142.148598 
L 50.346349 142.059462 
L 50.454362 141.346372 
L 50.473433 141.257236 
L 50.57615 140.677851 
L 50.608283 140.588715 
L 50.702759 139.78649 
L 50.768616 139.697353 
L 50.871381 139.162536 
L 50.896911 139.0734 
L 50.994688 138.716856 
L 51.021217 138.627719 
L 51.131344 137.959198 
L 51.168773 137.870062 
L 51.267049 137.156973 
L 51.273057 137.156973 
L 51.32989 137.067837 
L 51.420685 136.711292 
L 51.495306 136.622156 
L 51.600398 136.265611 
L 51.603794 136.265611 
L 51.617141 136.176475 
L 51.722613 135.81993 
L 51.724109 135.81993 
L 51.776667 135.730794 
L 51.883326 135.151409 
L 51.967257 135.062273 
L 52.053183 134.527456 
L 52.054062 134.527456 
L 52.101822 134.43832 
L 52.212115 133.50239 
L 52.250447 133.413254 
L 52.357178 132.967573 
L 52.399404 132.878437 
L 52.502929 132.254484 
L 52.519862 132.165347 
L 52.612818 131.452258 
L 52.705418 131.363122 
L 52.802767 130.962009 
L 52.884014 130.872873 
L 52.982884 130.650033 
L 53.009436 130.560896 
L 53.103912 130.026079 
L 53.149487 129.936943 
L 53.255125 129.535831 
L 53.339056 129.446694 
L 53.434553 129.134718 
L 53.464027 129.045582 
L 53.567361 128.510765 
L 53.595314 128.421629 
L 53.667228 128.065084 
L 53.691714 128.065084 
L 53.779373 127.975948 
L 53.88931 127.351995 
L 53.898644 127.262858 
L 53.985686 126.906314 
L 54.006799 126.906314 
L 54.039479 126.817178 
L 54.147468 126.371497 
L 54.18485 126.282361 
L 54.293837 125.792112 
L 54.307825 125.702975 
L 54.412964 125.435567 
L 54.465688 125.346431 
L 54.566007 125.034454 
L 54.574913 125.034454 
L 54.629323 124.945318 
L 54.739141 124.544205 
L 54.764672 124.455069 
L 54.87316 124.053956 
L 54.92605 123.96482 
L 55.021666 123.251731 
L 55.055485 123.162595 
L 55.159437 122.58321 
L 55.236885 122.494074 
L 55.345919 122.137529 
L 55.468918 122.048393 
L 55.555984 121.736416 
L 55.629299 121.64728 
L 55.737336 121.112463 
L 55.755053 121.023327 
L 55.833236 120.622214 
L 55.913866 120.533078 
L 56.022354 120.176533 
L 56.039739 120.087397 
L 56.119632 119.641716 
L 56.149011 119.641716 
L 56.195465 119.55258 
L 56.257332 119.285172 
L 56.302457 119.285172 
L 56.325707 119.196035 
L 56.429588 118.839491 
L 56.465664 118.750355 
L 56.552967 118.438378 
L 56.572228 118.438378 
L 56.600989 118.349242 
L 56.703468 117.814425 
L 56.707506 117.814425 
L 56.750754 117.725289 
L 56.851143 117.368744 
L 56.856914 117.368744 
L 56.902062 117.279608 
L 56.987038 117.101336 
L 57.036485 117.012199 
L 57.14255 116.700223 
L 57.208645 116.611087 
L 57.303786 116.29911 
L 57.306874 116.29911 
L 57.330386 116.209974 
L 57.434052 115.764293 
L 57.463336 115.675157 
L 57.568594 115.184908 
L 57.569924 115.184908 
L 57.616615 115.095772 
L 57.707838 114.650091 
L 57.771439 114.560955 
L 57.870855 114.115274 
L 57.878003 114.115274 
L 57.936546 114.026138 
L 58.041424 113.803297 
L 58.079922 113.714161 
L 58.17302 113.402185 
L 58.278777 113.313049 
L 58.385555 112.911936 
L 58.40066 112.8228 
L 58.509552 112.332551 
L 58.540735 112.243415 
L 58.627088 111.931438 
L 58.643214 111.931438 
L 58.707101 111.842302 
L 58.788704 111.574893 
L 58.804237 111.574893 
L 58.834684 111.485757 
L 58.917593 111.084644 
L 58.938232 111.084644 
L 58.990576 110.995508 
L 59.074554 110.7281 
L 59.09467 110.7281 
L 59.212064 110.638964 
L 59.314876 110.104147 
L 59.320742 110.104147 
L 59.38223 110.01501 
L 59.485849 109.391057 
L 59.487084 109.391057 
L 59.524181 109.301921 
L 59.627325 109.123649 
L 59.686794 109.034513 
L 59.796897 108.677968 
L 59.861758 108.588832 
L 59.95735 108.143151 
L 59.958917 108.143151 
L 60.055625 108.054015 
L 60.160242 107.875743 
L 60.296612 107.786606 
L 60.350144 107.563766 
L 60.453549 107.47463 
L 60.522494 107.340926 
L 60.544035 107.340926 
L 60.584504 107.251789 
L 60.693491 106.806109 
L 60.731918 106.716972 
L 60.81687 106.360428 
L 60.894484 106.271292 
L 61.002378 105.914747 
L 61.004231 105.914747 
L 61.073603 105.825611 
L 61.166179 105.424498 
L 61.174634 105.424498 
L 61.218452 105.335362 
L 61.309864 105.067953 
L 61.31269 105.067953 
L 61.374534 104.978817 
L 61.485445 104.399432 
L 61.55059 104.310296 
L 61.638653 104.132024 
L 61.649127 104.132024 
L 61.710994 104.042887 
L 61.797348 103.730911 
L 61.818984 103.730911 
L 61.86748 103.641775 
L 61.974021 103.418934 
L 61.997913 103.329798 
L 62.087377 103.06239 
L 62.1031 103.06239 
L 62.169717 102.973253 
L 62.274857 102.616709 
L 62.322498 102.527573 
L 62.392939 102.12646 
L 62.400421 102.12646 
L 62.487154 102.037324 
L 62.57004 101.859051 
L 62.590512 101.859051 
L 62.62293 101.769915 
L 62.72883 101.279666 
L 62.75987 101.19053 
L 62.864321 100.789417 
L 63.035793 100.700281 
L 63.035793 100.655713 
L 63.094929 100.655713 
L 63.230824 100.566577 
L 63.326036 100.210032 
L 63.336106 100.210032 
L 63.448109 100.120896 
L 63.552109 99.898056 
L 63.590654 99.80892 
L 63.692065 99.586079 
L 63.776138 99.496943 
L 63.878641 99.140398 
L 63.906595 99.051262 
L 64.006747 98.917558 
L 64.147867 98.828422 
L 64.228449 98.739286 
L 64.24771 98.739286 
L 64.291718 98.650149 
L 64.374342 98.427309 
L 64.380802 98.427309 
L 64.502899 98.338173 
L 64.5684 98.070764 
L 64.57771 98.070764 
L 64.691946 97.981628 
L 64.80155 97.847924 
L 64.873083 97.758788 
L 64.977178 97.446811 
L 65.090202 97.357675 
L 65.192254 97.090267 
L 65.263455 97.00113 
L 65.353537 96.733722 
L 65.363536 96.733722 
L 65.423551 96.644586 
L 65.423551 96.600018 
L 65.532633 96.600018 
L 65.543819 96.510881 
L 65.651974 96.288041 
L 65.710018 96.198905 
L 65.818768 95.886928 
L 65.853965 95.797792 
L 65.95262 95.574952 
L 66.067853 95.485816 
L 66.149932 95.218407 
L 66.165891 95.218407 
L 66.211942 95.129271 
L 66.281481 94.728158 
L 66.307866 94.728158 
L 66.363749 94.639022 
L 66.433858 94.327045 
L 66.552653 94.237909 
L 66.621361 94.015069 
L 66.660476 94.015069 
L 66.719684 93.925933 
L 66.8096 93.703092 
L 66.84425 93.613956 
L 66.931008 93.391116 
L 67.171472 93.30198 
L 67.251936 92.990003 
L 67.279176 92.990003 
L 67.312758 92.900867 
L 67.388994 92.544322 
L 67.418729 92.544322 
L 67.501472 92.455186 
L 67.599202 92.321482 
L 67.612098 92.321482 
L 67.69002 92.232346 
L 67.766375 92.098641 
L 67.779437 92.098641 
L 67.858072 92.009505 
L 67.914976 91.920369 
L 67.952714 91.920369 
L 68.003277 91.831233 
L 68.091673 91.563824 
L 68.31309 91.474688 
L 68.333111 91.385552 
L 68.373485 91.385552 
L 68.461074 91.296416 
L 68.555288 91.162712 
L 68.570678 91.162712 
L 68.614615 91.073575 
L 68.675034 90.806167 
L 68.724932 90.806167 
L 68.832588 90.717031 
L 68.935614 90.49419 
L 68.940126 90.49419 
L 69.01869 90.405054 
L 69.106801 90.226782 
L 69.126988 90.226782 
L 69.162327 90.137646 
L 69.244359 89.825669 
L 69.270911 89.825669 
L 69.329881 89.736533 
L 69.43578 89.558261 
L 69.473209 89.469124 
L 69.474824 89.379988 
L 69.570155 89.379988 
L 69.682704 89.290852 
L 69.76331 89.11258 
L 69.790646 89.11258 
L 69.855174 89.023444 
L 69.929225 88.756035 
L 69.945256 88.756035 
L 70.017953 88.666899 
L 70.111455 88.444059 
L 70.17432 88.354922 
L 70.280576 88.042946 
L 70.331923 87.95381 
L 70.440411 87.820105 
L 70.483445 87.730969 
L 70.590057 87.418993 
L 70.733789 87.329856 
L 70.786537 87.196152 
L 70.840662 87.196152 
L 70.896117 87.107016 
L 71.007004 86.928744 
L 71.182656 86.839608 
L 71.250271 86.705903 
L 71.358569 86.616767 
L 71.400178 86.527631 
L 71.457154 86.527631 
L 71.554123 86.438495 
L 71.634112 86.171086 
L 71.649026 86.171086 
L 71.997765 86.08195 
L 72.078324 85.992814 
L 72.108058 85.992814 
L 72.212913 85.903678 
L 72.284707 85.769974 
L 72.321519 85.769974 
L 72.346623 85.680837 
L 72.398207 85.457997 
L 72.452664 85.457997 
L 72.556735 85.368861 
L 72.660046 85.056884 
L 72.723125 84.967748 
L 72.797413 84.611203 
L 72.825343 84.611203 
L 72.92141 84.522067 
L 73.022797 84.210091 
L 73.028354 84.210091 
L 73.109958 84.120955 
L 73.189732 83.898114 
L 73.214123 83.898114 
L 73.248489 83.808978 
L 73.333607 83.630706 
L 73.352275 83.630706 
L 73.426967 83.541569 
L 73.496553 83.407865 
L 73.531465 83.407865 
L 73.58293 83.318729 
L 73.58293 83.274161 
L 73.689115 83.274161 
L 73.780551 83.185025 
L 73.832515 83.095889 
L 73.877045 83.095889 
L 73.955134 83.006752 
L 74.024981 82.82848 
L 74.034528 82.82848 
L 74.092121 82.739344 
L 74.160544 82.60564 
L 74.198021 82.60564 
L 74.35073 82.516504 
L 74.426705 82.338231 
L 74.457413 82.338231 
L 74.5816 82.249095 
L 74.643278 82.115391 
L 74.686169 82.115391 
L 74.738252 82.026255 
L 74.825888 81.89255 
L 74.838166 81.89255 
L 75.007406 81.803414 
L 75.100409 81.536006 
L 75.185243 81.44687 
L 75.271287 81.224029 
L 75.276061 81.224029 
L 75.386449 81.134893 
L 75.435967 80.956621 
L 75.494723 80.956621 
L 75.53258 80.867485 
L 75.613376 80.778348 
L 75.783542 80.689212 
L 75.795203 80.600076 
L 75.872413 80.600076 
L 76.247609 80.51094 
L 76.322396 80.332668 
L 76.353555 80.332668 
L 76.39032 80.243531 
L 76.485746 79.976123 
L 76.691108 79.886987 
L 76.796437 79.708714 
L 76.801282 79.708714 
L 76.905021 79.619578 
L 77.01415 79.485874 
L 77.04538 79.396738 
L 77.141851 79.307602 
L 77.156457 79.307602 
L 77.274136 79.218465 
L 77.325198 79.040193 
L 77.381342 79.040193 
L 77.432926 78.951057 
L 77.462185 78.817353 
L 77.627008 78.728217 
L 77.641376 78.63908 
L 77.724167 78.63908 
L 77.856452 78.549944 
L 77.947627 78.41624 
L 77.965629 78.41624 
L 78.113066 78.327104 
L 78.198826 78.148832 
L 78.306934 78.059695 
L 78.387588 77.747719 
L 78.543147 77.658583 
L 78.583522 77.524878 
L 78.640948 77.524878 
L 78.787863 77.435742 
L 78.824841 77.346606 
L 78.881484 77.346606 
L 79.018875 77.25747 
L 79.018875 77.212902 
L 79.088865 77.212902 
L 79.445726 77.123766 
L 79.464274 76.990061 
L 79.511085 76.990061 
L 79.742691 76.900925 
L 79.83757 76.588949 
L 80.014908 76.499812 
L 80.114205 76.276972 
L 80.304012 76.187836 
L 80.304012 76.143268 
L 80.38305 76.143268 
L 80.449478 76.054132 
L 80.556755 75.920427 
L 80.65921 75.831291 
L 80.732003 75.742155 
L 80.768838 75.742155 
L 80.893452 75.653019 
L 80.987477 75.430178 
L 80.998592 75.430178 
L 81.351677 75.341042 
L 81.430288 75.207338 
L 81.442946 75.207338 
L 81.725637 75.118202 
L 81.836215 74.806225 
L 81.940927 74.717089 
L 82.019657 74.494249 
L 82.465864 74.405113 
L 82.529418 74.271408 
L 82.570718 74.271408 
L 82.625509 74.182272 
L 82.723357 74.048568 
L 82.725803 74.048568 
L 83.190392 73.959432 
L 83.297408 73.825728 
L 83.421048 73.736591 
L 83.445486 73.647455 
L 83.488022 73.647455 
L 83.644152 73.558319 
L 83.719675 73.424615 
L 84.20609 73.335479 
L 84.302846 73.112638 
L 84.477952 73.023502 
L 84.48833 72.934366 
L 84.563284 72.934366 
L 84.787171 72.84523 
L 84.884782 72.711525 
L 84.896443 72.711525 
L 85.0378 72.622389 
L 85.038774 72.533253 
L 85.138071 72.533253 
L 85.474317 72.444117 
L 85.575134 72.265845 
L 85.716658 72.176708 
L 85.801349 72.043004 
L 85.81757 72.043004 
L 86.032337 71.953868 
L 86.12033 71.731028 
L 86.128214 71.731028 
L 86.288714 71.641891 
L 86.379485 71.508187 
L 86.462418 71.419051 
L 86.550696 71.240779 
L 86.570265 71.240779 
L 86.778359 71.151643 
L 86.855949 70.97337 
L 86.873215 70.97337 
L 86.966384 70.884234 
L 87.070004 70.661394 
L 87.070241 70.661394 
L 87.287787 70.572257 
L 87.366707 70.393985 
L 87.599595 70.304849 
L 87.681199 70.215713 
L 87.868013 70.126577 
L 87.942349 69.992872 
L 87.951612 69.992872 
L 88.036208 69.903736 
L 88.117526 69.770032 
L 88.134816 69.770032 
L 88.351602 69.680896 
L 88.351602 69.636328 
L 88.461254 69.636328 
L 88.675118 69.547192 
L 88.718058 69.458055 
L 88.74727 69.458055 
L 88.948096 69.368919 
L 88.950257 69.279783 
L 89.049341 69.279783 
L 89.274035 69.190647 
L 89.281445 69.101511 
L 89.354451 69.101511 
L 89.77147 69.012375 
L 89.77147 68.967807 
L 89.871337 68.967807 
L 89.993647 68.87867 
L 90.092042 68.789534 
L 90.388935 68.700398 
L 90.436601 68.566694 
L 90.497233 68.566694 
L 90.535707 68.477558 
L 90.535707 68.43299 
L 90.544685 68.43299 
L 91.103061 68.343853 
L 91.158659 68.254717 
L 91.178252 68.254717 
L 91.761779 68.165581 
L 91.868581 68.031877 
L 91.986783 67.942741 
L 92.031289 67.809036 
L 92.076342 67.809036 
L 92.128995 67.7199 
L 92.144955 67.586196 
L 92.188606 67.586196 
L 92.381595 67.49706 
L 92.381595 67.452492 
L 92.427218 67.452492 
L 92.678916 67.363356 
L 92.685994 67.274219 
L 92.715681 67.274219 
L 92.824525 67.185083 
L 92.909643 66.962243 
L 93.095911 66.873107 
L 93.153362 66.650266 
L 93.158966 66.650266 
L 93.530362 66.56113 
L 93.542427 66.471994 
L 93.63448 66.471994 
L 93.858391 66.382858 
L 93.921636 66.293722 
L 94.159061 66.204585 
L 94.159061 66.160017 
L 94.264224 66.160017 
L 94.486971 66.070881 
L 94.486971 66.026313 
L 94.553328 66.026313 
L 95.299064 65.937177 
L 95.299064 65.892609 
L 95.377367 65.892609 
L 95.966475 65.803473 
L 95.966475 65.758905 
L 96.072849 65.758905 
L 96.404346 65.669768 
L 96.452985 65.536064 
L 96.505424 65.536064 
L 96.734013 65.446928 
L 96.734013 65.40236 
L 96.812719 65.40236 
L 97.100683 65.313224 
L 97.197035 65.224088 
L 97.701666 65.134951 
L 97.804644 64.778407 
L 98.05582 64.689271 
L 98.14108 64.510998 
L 98.147327 64.510998 
L 98.390855 64.421862 
L 98.420542 64.332726 
L 98.498488 64.332726 
L 98.828607 64.24359 
L 98.828607 64.199022 
L 98.936549 64.199022 
L 99.295903 64.109886 
L 99.346158 64.020749 
L 99.632316 63.931613 
L 99.74078 63.708773 
L 99.958303 63.619637 
L 100.05627 63.485932 
L 100.37031 63.396796 
L 100.422536 63.218524 
L 100.769588 63.129388 
L 100.769588 63.08482 
L 100.871213 63.08482 
L 100.965356 62.995683 
L 100.965356 62.951115 
L 101.004899 62.951115 
L 101.371046 62.861979 
L 101.371046 62.817411 
L 101.408855 62.817411 
L 101.740946 62.728275 
L 101.844256 62.550003 
L 101.924577 62.460866 
L 102.020122 62.37173 
L 102.023091 62.37173 
L 102.211021 62.282594 
L 102.269849 62.193458 
L 102.474499 62.104322 
L 102.490268 62.015186 
L 102.549191 62.015186 
L 102.732205 61.926049 
L 102.732205 61.881481 
L 102.781319 61.881481 
L 103.629179 61.792345 
L 103.663925 61.658641 
L 103.906527 61.569505 
L 103.938779 61.435801 
L 103.992334 61.435801 
L 104.328628 61.346664 
L 104.415147 61.257528 
L 104.515561 61.168392 
L 104.624737 61.079256 
L 104.87501 60.99012 
L 104.907809 60.900984 
L 104.95431 60.900984 
L 105.11177 60.811847 
L 105.11177 60.767279 
L 105.220685 60.767279 
L 105.490837 60.678143 
L 105.598422 60.544439 
L 105.75992 60.455303 
L 105.81604 60.366167 
L 105.973428 60.27703 
L 105.979484 60.187894 
L 106.083222 60.187894 
L 106.387431 60.098758 
L 106.436877 59.965054 
L 107.103718 59.875918 
L 107.173447 59.742213 
L 107.188456 59.742213 
L 107.513612 59.653077 
L 107.543299 59.563941 
L 107.621933 59.563941 
L 107.75809 59.474805 
L 107.75809 59.430237 
L 107.80452 59.430237 
L 108.132549 59.341101 
L 108.172734 59.251965 
L 108.45248 59.162828 
L 108.489743 59.073692 
L 108.546457 59.073692 
L 108.66055 58.984556 
L 108.681188 58.850852 
L 108.746666 58.850852 
L 109.084432 58.761716 
L 109.084432 58.717148 
L 109.156488 58.717148 
L 109.38522 58.628011 
L 109.471241 58.538875 
L 109.489956 58.538875 
L 109.672614 58.449739 
L 109.672614 58.405171 
L 109.710613 58.405171 
L 110.149482 58.316035 
L 110.149482 58.271467 
L 110.17316 58.271467 
L 110.496962 58.182331 
L 110.581154 58.093194 
L 110.891181 58.004058 
L 110.891181 57.95949 
L 110.936875 57.95949 
L 111.623285 57.870354 
L 111.623285 57.825786 
L 112.487152 57.73665 
L 112.550468 57.602945 
L 113.173135 57.513809 
L 113.251627 57.380105 
L 113.280578 57.380105 
L 113.536289 57.290969 
L 113.642878 57.201833 
L 113.830523 57.112697 
L 113.830523 57.068129 
L 114.233791 56.978992 
L 114.249062 56.889856 
L 114.32601 56.889856 
L 114.639932 56.80072 
L 114.639932 56.756152 
L 114.67615 56.756152 
L 115.03636 56.667016 
L 115.03636 56.622448 
L 115.043461 56.622448 
L 115.699733 56.533312 
L 115.802284 56.355039 
L 116.245047 56.265903 
L 116.245047 56.221335 
L 116.340686 56.221335 
L 116.678738 56.132199 
L 116.690684 56.043063 
L 116.747635 56.043063 
L 116.900416 55.953926 
L 116.900416 55.909358 
L 117.371917 55.820222 
L 117.393434 55.731086 
L 117.458959 55.731086 
L 117.587729 55.64195 
L 117.587729 55.597382 
L 117.639266 55.597382 
L 117.921125 55.508246 
L 117.92255 55.419109 
L 117.929485 55.419109 
L 118.210609 55.329973 
L 118.319335 55.240837 
L 118.426801 55.151701 
L 118.519425 55.017997 
L 118.526122 55.017997 
L 118.740771 54.928861 
L 118.78219 54.839724 
L 118.80195 54.839724 
L 118.982019 54.750588 
L 119.056165 54.616884 
L 119.405355 54.527748 
L 119.405355 54.48318 
L 119.497361 54.48318 
L 119.985248 54.394044 
L 120.032985 54.304907 
L 120.087063 54.304907 
L 120.292211 54.215771 
L 120.364505 54.082067 
L 120.821186 53.992931 
L 120.821186 53.948363 
L 120.851894 53.948363 
L 121.15444 53.859227 
L 121.15444 53.814658 
L 121.181182 53.814658 
L 121.762666 53.725522 
L 121.762666 53.680954 
L 121.873054 53.680954 
L 122.168071 53.591818 
L 122.168071 53.54725 
L 123.06609 53.458114 
L 123.175196 53.32441 
L 123.488263 53.235273 
L 123.576421 53.101569 
L 123.5906 53.101569 
L 124.153726 53.012433 
L 124.246848 52.923297 
L 124.509281 52.834161 
L 124.556518 52.745025 
L 125.025335 52.655888 
L 125.079413 52.566752 
L 125.108577 52.566752 
L 125.391078 52.477616 
L 125.391078 52.433048 
L 125.475793 52.433048 
L 125.759506 52.343912 
L 125.782044 52.254776 
L 126.206591 52.165639 
L 126.206591 52.121071 
L 126.268174 52.121071 
L 126.549108 52.031935 
L 126.549108 51.987367 
L 126.630474 51.987367 
L 126.821491 51.898231 
L 126.821491 51.853663 
L 127.397822 51.764527 
L 127.481254 51.541686 
L 127.686807 51.45255 
L 127.732359 51.318846 
L 127.765751 51.318846 
L 127.953253 51.22971 
L 127.953253 51.185142 
L 128.006144 51.185142 
L 128.228677 51.096005 
L 128.228677 51.051437 
L 128.299142 51.051437 
L 129.088008 50.962301 
L 129.088008 50.917733 
L 129.676427 50.828597 
L 129.715021 50.739461 
L 130.817119 50.650325 
L 130.912973 50.51662 
L 131.176997 50.427484 
L 131.176997 50.382916 
L 131.268385 50.382916 
L 131.376612 50.29378 
L 131.376612 50.249212 
L 131.464271 50.249212 
L 132.030936 50.160076 
L 132.124581 50.07094 
L 132.751736 49.981803 
L 132.756438 49.892667 
L 133.136384 49.803531 
L 133.136384 49.758963 
L 133.42563 49.669827 
L 133.42563 49.625259 
L 133.930641 49.536123 
L 133.944059 49.446986 
L 134.260974 49.35785 
L 134.260974 49.313282 
L 134.329515 49.313282 
L 135.013526 49.224146 
L 135.013526 49.179578 
L 135.086651 49.179578 
L 135.454983 49.090442 
L 135.518656 49.001306 
L 135.734825 48.912169 
L 135.738102 48.823033 
L 135.790731 48.823033 
L 136.648209 48.733897 
L 136.648209 48.689329 
L 137.474528 48.600193 
L 137.495214 48.511057 
L 137.560122 48.511057 
L 137.846945 48.421921 
L 137.91494 48.243648 
L 138.449638 48.154512 
L 138.449638 48.109944 
L 138.8212 48.020808 
L 138.8212 47.97624 
L 138.828634 47.97624 
L 139.273653 47.887104 
L 139.378056 47.664263 
L 139.71093 47.575127 
L 139.71093 47.530559 
L 139.765578 47.530559 
L 140.89373 47.441423 
L 140.946573 47.352287 
L 141.370171 47.26315 
L 141.370171 47.218582 
L 142.097002 47.129446 
L 142.154975 46.995742 
L 143.499937 46.906606 
L 143.519412 46.772901 
L 143.582016 46.772901 
L 143.808634 46.683765 
L 143.821791 46.594629 
L 143.867011 46.594629 
L 144.592821 46.505493 
L 144.592821 46.460925 
L 145.101941 46.371789 
L 145.101941 46.327221 
L 145.506182 46.238084 
L 145.506182 46.193516 
L 147.095029 46.10438 
L 147.118826 46.015244 
L 147.78759 45.926108 
L 147.78759 45.88154 
L 147.883609 45.88154 
L 148.104172 45.792404 
L 148.104172 45.747836 
L 148.140675 45.747836 
L 148.393893 45.658699 
L 148.48901 45.524995 
L 148.490316 45.524995 
L 148.710166 45.435859 
L 148.710166 45.391291 
L 149.769682 45.302155 
L 149.769682 45.257587 
L 149.78158 45.257587 
L 150.563559 45.16845 
L 150.638964 45.079314 
L 151.200593 44.990178 
L 151.285926 44.767338 
L 152.096119 44.678202 
L 152.151051 44.589065 
L 152.189644 44.589065 
L 153.293548 44.499929 
L 153.383559 44.410793 
L 153.797633 44.321657 
L 153.797633 44.277089 
L 153.904245 44.277089 
L 154.14231 44.187953 
L 154.14231 44.143385 
L 154.687031 44.054248 
L 154.704368 43.965112 
L 154.848029 43.875976 
L 154.848029 43.831408 
L 155.406666 43.742272 
L 155.509573 43.608568 
L 156.305564 43.519431 
L 156.305564 43.474863 
L 156.362729 43.474863 
L 156.774096 43.385727 
L 156.774096 43.341159 
L 157.155941 43.252023 
L 157.254858 43.162887 
L 157.538072 43.073751 
L 157.538072 43.029183 
L 157.59177 43.029183 
L 157.819955 42.940046 
L 157.819955 42.895478 
L 158.283998 42.806342 
L 158.283998 42.761774 
L 159.210469 42.672638 
L 159.210469 42.62807 
L 159.620553 42.538934 
L 159.709163 42.449797 
L 159.944901 42.360661 
L 160.022681 42.271525 
L 160.258609 42.182389 
L 160.258609 42.137821 
L 160.315466 42.137821 
L 160.550064 42.048685 
L 160.651213 41.91498 
L 161.20009 41.825844 
L 161.20009 41.781276 
L 161.811499 41.69214 
L 161.811499 41.647572 
L 162.869138 41.558436 
L 162.869138 41.513868 
L 163.504178 41.424732 
L 163.538947 41.335595 
L 165.250413 41.246459 
L 165.250413 41.201891 
L 166.113021 41.112755 
L 166.113021 41.068187 
L 166.188497 41.068187 
L 166.484987 40.979051 
L 166.523912 40.889915 
L 167.885428 40.800778 
L 167.902575 40.711642 
L 167.943543 40.711642 
L 168.601668 40.622506 
L 168.601668 40.577938 
L 169.387018 40.488802 
L 169.493535 40.399666 
L 170.900697 40.31053 
L 170.964251 40.221393 
L 171.334602 40.132257 
L 171.422855 39.998553 
L 171.42466 39.998553 
L 171.929291 39.909417 
L 171.929291 39.864849 
L 172.218062 39.775713 
L 172.218062 39.731144 
L 173.228084 39.642008 
L 173.337522 39.552872 
L 174.371127 39.463736 
L 174.371127 39.419168 
L 174.574637 39.330032 
L 174.574637 39.285464 
L 175.205474 39.196327 
L 175.205474 39.151759 
L 175.225494 39.151759 
L 175.665242 39.062623 
L 175.665242 39.018055 
L 175.760739 39.018055 
L 178.090168 38.928919 
L 178.090168 38.884351 
L 178.15441 38.884351 
L 178.891621 38.795215 
L 178.891621 38.750647 
L 180.035804 38.66151 
L 180.035804 38.616942 
L 180.089739 38.616942 
L 182.07822 38.527806 
L 182.159871 38.43867 
L 182.185948 38.43867 
L 182.724754 38.349534 
L 182.724754 38.304966 
L 182.799661 38.304966 
L 183.472795 38.21583 
L 183.548366 38.126693 
L 183.890241 38.037557 
L 183.890241 37.992989 
L 183.968519 37.992989 
L 184.537963 37.903853 
L 184.537963 37.859285 
L 186.06943 37.770149 
L 186.06943 37.725581 
L 186.155285 37.725581 
L 187.957711 37.636445 
L 187.957711 37.591876 
L 188.286643 37.50274 
L 188.334712 37.369036 
L 188.345019 37.369036 
L 188.942036 37.2799 
L 188.942535 37.190764 
L 190.196227 37.101628 
L 190.258261 37.012491 
L 191.825234 36.923355 
L 191.825234 36.878787 
L 191.886128 36.878787 
L 192.665803 36.789651 
L 192.665803 36.745083 
L 193.552493 36.655947 
L 193.552493 36.611379 
L 195.180645 36.522242 
L 195.254269 36.388538 
L 196.142194 36.299402 
L 196.142194 36.254834 
L 196.242512 36.254834 
L 197.884083 36.165698 
L 197.884083 36.12113 
L 198.667866 36.031994 
L 198.667866 35.987426 
L 198.762271 35.987426 
L 199.053654 35.898289 
L 199.053654 35.853721 
L 199.14224 35.853721 
L 199.915953 35.764585 
L 199.915953 35.720017 
L 200.018742 35.720017 
L 200.207337 35.630881 
L 200.207337 35.586313 
L 200.303926 35.586313 
L 201.351568 35.497177 
L 201.351568 35.452609 
L 202.17126 35.363472 
L 202.17126 35.318904 
L 203.433693 35.229768 
L 203.433693 35.1852 
L 204.364747 35.096064 
L 204.364747 35.051496 
L 205.648673 34.96236 
L 205.675628 34.873223 
L 205.81682 34.784087 
L 205.915665 34.694951 
L 206.531753 34.605815 
L 206.531753 34.561247 
L 207.609034 34.472111 
L 207.680211 34.382975 
L 208.527928 34.293838 
L 208.527928 34.24927 
L 210.254 34.160134 
L 210.254 34.115566 
L 210.299836 34.115566 
L 210.851966 34.02643 
L 210.851966 33.981862 
L 210.90716 33.981862 
L 212.69605 33.892726 
L 212.69605 33.848158 
L 213.808907 33.759021 
L 213.808907 33.714453 
L 214.558206 33.625317 
L 214.558206 33.580749 
L 215.677215 33.491613 
L 215.779623 33.357909 
L 217.061458 33.268772 
L 217.061458 33.224204 
L 218.34878 33.135068 
L 218.413332 33.045932 
L 219.654983 32.956796 
L 219.654983 32.912228 
L 219.661039 32.912228 
L 221.235659 32.823092 
L 221.235659 32.778524 
L 222.540627 32.689387 
L 222.540627 32.644819 
L 223.447742 32.555683 
L 223.447742 32.511115 
L 225.474934 32.421979 
L 225.474934 32.377411 
L 226.310231 32.288275 
L 226.310231 32.243707 
L 227.008515 32.15457 
L 227.086818 32.065434 
L 228.145906 31.976298 
L 228.145906 31.93173 
L 230.287001 31.842594 
L 230.328397 31.664322 
L 231.788117 31.575185 
L 231.788117 31.530617 
L 231.81721 31.530617 
L 232.267169 31.441481 
L 232.283058 31.352345 
L 233.12935 31.263209 
L 233.12935 31.218641 
L 233.221665 31.218641 
L 233.861621 31.129505 
L 233.861621 31.084936 
L 235.353711 30.9958 
L 235.353711 30.951232 
L 236.689625 30.862096 
L 236.689625 30.817528 
L 238.675018 30.728392 
L 238.675018 30.683824 
L 240.626401 30.594688 
L 240.626401 30.550119 
L 240.677415 30.550119 
L 241.139891 30.460983 
L 241.139891 30.416415 
L 242.096785 30.327279 
L 242.096785 30.282711 
L 243.7527 30.193575 
L 243.7527 30.149007 
L 243.753341 30.149007 
L 244.63882 30.059871 
L 244.63882 30.015302 
L 245.828056 29.926166 
L 245.928541 29.83703 
L 248.13186 29.747894 
L 248.13186 29.703326 
L 249.926995 29.61419 
L 249.970599 29.525054 
L 251.612051 29.435917 
L 251.612051 29.391349 
L 252.074526 29.302213 
L 252.074526 29.257645 
L 252.120292 29.257645 
L 252.839975 29.168509 
L 252.889541 29.079373 
L 252.950624 29.079373 
L 253.722866 28.990237 
L 253.794375 28.9011 
L 256.533271 28.811964 
L 256.533271 28.767396 
L 256.603095 28.767396 
L 257.682442 28.67826 
L 257.719206 28.589124 
L 258.72861 28.499988 
L 258.793732 28.410851 
L 260.128434 28.321715 
L 260.128434 28.277147 
L 261.12765 28.188011 
L 261.12765 28.143443 
L 263.099268 28.054307 
L 263.099268 28.009739 
L 263.164745 28.009739 
L 265.300521 27.920603 
L 265.389083 27.831466 
L 267.687424 27.74233 
L 267.704096 27.653194 
L 267.724806 27.653194 
L 269.153105 27.564058 
L 269.153105 27.51949 
L 269.21939 27.51949 
L 270.848136 27.430354 
L 270.848136 27.385786 
L 270.903282 27.385786 
L 273.430261 27.296649 
L 273.430261 27.252081 
L 273.508872 27.252081 
L 275.866872 27.162945 
L 275.866872 27.118377 
L 275.967522 27.118377 
L 277.867631 27.029241 
L 277.867631 26.984673 
L 277.975501 26.984673 
L 282.023758 26.895537 
L 282.023758 26.895537 
" clip-path="url(#pd4724637c9)" style="fill: none; stroke: #1f77b4; stroke-width: 1.5; stroke-linecap: round"/>
   </g>
   <g id="line2d_26">
    <path d="M 42.831699 265.022801 
L 282.023758 26.895537 
" clip-path="url(#pd4724637c9)" style="fill: none; stroke-dasharray: 5.55,2.4; stroke-dashoffset: 0; stroke: #999999; stroke-width: 1.5"/>
   </g>
   <g id="patch_3">
    <path d="M 35.655938 265.022801 
L 35.655938 19.751719 
" style="fill: none"/>
   </g>
   <g id="patch_4">
    <path d="M 289.19952 265.022801 
L 289.19952 19.751719 
" style="fill: none"/>
   </g>
   <g id="patch_5">
    <path d="M 35.655938 265.022801 
L 289.19952 265.022801 
" style="fill: none"/>
   </g>
   <g id="patch_6">
    <path d="M 35.655938 19.751719 
L 289.19952 19.751719 
" style="fill: none"/>
   </g>
   <g id="text_15">
    <!-- Model 0: Receiver Operating Characteristic (ROC) Curve -->
    <g style="fill: #333333" transform="translate(42.14976 13.751719) scale(0.09 -0.09)">
     <defs>
      <path id="Arial-BoldMT-4d" d="M 453 0 
L 453 4581 
L 1838 4581 
L 2669 1456 
L 3491 4581 
L 4878 4581 
L 4878 0 
L 4019 0 
L 4019 3606 
L 3109 0 
L 2219 0 
L 1313 3606 
L 1313 0 
L 453 0 
z
" transform="scale(0.015625)"/>
      <path id="Arial-BoldMT-64" d="M 3503 0 
L 2688 0 
L 2688 488 
Q 2484 203 2207 64 
Q 1931 -75 1650 -75 
Q 1078 -75 670 386 
Q 263 847 263 1672 
Q 263 2516 659 2955 
Q 1056 3394 1663 3394 
Q 2219 3394 2625 2931 
L 2625 4581 
L 3503 4581 
L 3503 0 
z
M 1159 1731 
Q 1159 1200 1306 963 
Q 1519 619 1900 619 
Q 2203 619 2415 876 
Q 2628 1134 2628 1647 
Q 2628 2219 2422 2470 
Q 2216 2722 1894 2722 
Q 1581 2722 1370 2473 
Q 1159 2225 1159 1731 
z
" transform="scale(0.015625)"/>
      <path id="Arial-BoldMT-30" d="M 1756 4600 
Q 2422 4600 2797 4125 
Q 3244 3563 3244 2259 
Q 3244 959 2794 391 
Q 2422 -78 1756 -78 
Q 1088 -78 678 436 
Q 269 950 269 2269 
Q 269 3563 719 4131 
Q 1091 4600 1756 4600 
z
M 1756 3872 
Q 1597 3872 1472 3770 
Q 1347 3669 1278 3406 
Q 1188 3066 1188 2259 
Q 1188 1453 1269 1151 
Q 1350 850 1473 750 
Q 1597 650 1756 650 
Q 1916 650 2041 751 
Q 2166 853 2234 1116 
Q 2325 1453 2325 2259 
Q 2325 3066 2244 3367 
Q 2163 3669 2039 3770 
Q 1916 3872 1756 3872 
z
" transform="scale(0.015625)"/>
      <path id="Arial-BoldMT-3a" d="M 628 2441 
L 628 3319 
L 1506 3319 
L 1506 2441 
L 628 2441 
z
M 628 0 
L 628 878 
L 1506 878 
L 1506 0 
L 628 0 
z
" transform="scale(0.015625)"/>
      <path id="Arial-BoldMT-63" d="M 3353 2338 
L 2488 2181 
Q 2444 2441 2289 2572 
Q 2134 2703 1888 2703 
Q 1559 2703 1364 2476 
Q 1169 2250 1169 1719 
Q 1169 1128 1367 884 
Q 1566 641 1900 641 
Q 2150 641 2309 783 
Q 2469 925 2534 1272 
L 3397 1125 
Q 3263 531 2881 228 
Q 2500 -75 1859 -75 
Q 1131 -75 698 384 
Q 266 844 266 1656 
Q 266 2478 700 2936 
Q 1134 3394 1875 3394 
Q 2481 3394 2839 3133 
Q 3197 2872 3353 2338 
z
" transform="scale(0.015625)"/>
      <path id="Arial-BoldMT-4f" d="M 278 2263 
Q 278 2963 488 3438 
Q 644 3788 914 4066 
Q 1184 4344 1506 4478 
Q 1934 4659 2494 4659 
Q 3506 4659 4114 4031 
Q 4722 3403 4722 2284 
Q 4722 1175 4119 548 
Q 3516 -78 2506 -78 
Q 1484 -78 881 545 
Q 278 1169 278 2263 
z
M 1231 2294 
Q 1231 1516 1590 1114 
Q 1950 713 2503 713 
Q 3056 713 3411 1111 
Q 3766 1509 3766 2306 
Q 3766 3094 3420 3481 
Q 3075 3869 2503 3869 
Q 1931 3869 1581 3476 
Q 1231 3084 1231 2294 
z
" transform="scale(0.015625)"/>
      <path id="Arial-BoldMT-70" d="M 434 3319 
L 1253 3319 
L 1253 2831 
Q 1413 3081 1684 3237 
Q 1956 3394 2288 3394 
Q 2866 3394 3269 2941 
Q 3672 2488 3672 1678 
Q 3672 847 3265 386 
Q 2859 -75 2281 -75 
Q 2006 -75 1782 34 
Q 1559 144 1313 409 
L 1313 -1263 
L 434 -1263 
L 434 3319 
z
M 1303 1716 
Q 1303 1156 1525 889 
Q 1747 622 2066 622 
Q 2372 622 2575 867 
Q 2778 1113 2778 1672 
Q 2778 2194 2568 2447 
Q 2359 2700 2050 2700 
Q 1728 2700 1515 2451 
Q 1303 2203 1303 1716 
z
" transform="scale(0.015625)"/>
      <path id="Arial-BoldMT-6e" d="M 3478 0 
L 2600 0 
L 2600 1694 
Q 2600 2231 2544 2389 
Q 2488 2547 2361 2634 
Q 2234 2722 2056 2722 
Q 1828 2722 1647 2597 
Q 1466 2472 1398 2265 
Q 1331 2059 1331 1503 
L 1331 0 
L 453 0 
L 453 3319 
L 1269 3319 
L 1269 2831 
Q 1703 3394 2363 3394 
Q 2653 3394 2893 3289 
Q 3134 3184 3257 3021 
Q 3381 2859 3429 2653 
Q 3478 2447 3478 2063 
L 3478 0 
z
" transform="scale(0.015625)"/>
      <path id="Arial-BoldMT-67" d="M 378 -219 
L 1381 -341 
Q 1406 -516 1497 -581 
Q 1622 -675 1891 -675 
Q 2234 -675 2406 -572 
Q 2522 -503 2581 -350 
Q 2622 -241 2622 53 
L 2622 538 
Q 2228 0 1628 0 
Q 959 0 569 566 
Q 263 1013 263 1678 
Q 263 2513 664 2953 
Q 1066 3394 1663 3394 
Q 2278 3394 2678 2853 
L 2678 3319 
L 3500 3319 
L 3500 341 
Q 3500 -247 3403 -537 
Q 3306 -828 3131 -993 
Q 2956 -1159 2664 -1253 
Q 2372 -1347 1925 -1347 
Q 1081 -1347 728 -1058 
Q 375 -769 375 -325 
Q 375 -281 378 -219 
z
M 1163 1728 
Q 1163 1200 1367 954 
Q 1572 709 1872 709 
Q 2194 709 2416 961 
Q 2638 1213 2638 1706 
Q 2638 2222 2425 2472 
Q 2213 2722 1888 2722 
Q 1572 2722 1367 2476 
Q 1163 2231 1163 1728 
z
" transform="scale(0.015625)"/>
      <path id="Arial-BoldMT-43" d="M 3397 1684 
L 4294 1400 
Q 4088 650 3608 286 
Q 3128 -78 2391 -78 
Q 1478 -78 890 545 
Q 303 1169 303 2250 
Q 303 3394 893 4026 
Q 1484 4659 2447 4659 
Q 3288 4659 3813 4163 
Q 4125 3869 4281 3319 
L 3366 3100 
Q 3284 3456 3026 3662 
Q 2769 3869 2400 3869 
Q 1891 3869 1573 3503 
Q 1256 3138 1256 2319 
Q 1256 1450 1568 1081 
Q 1881 713 2381 713 
Q 2750 713 3015 947 
Q 3281 1181 3397 1684 
z
" transform="scale(0.015625)"/>
      <path id="Arial-BoldMT-68" d="M 1334 4581 
L 1334 2897 
Q 1759 3394 2350 3394 
Q 2653 3394 2897 3281 
Q 3141 3169 3264 2994 
Q 3388 2819 3433 2606 
Q 3478 2394 3478 1947 
L 3478 0 
L 2600 0 
L 2600 1753 
Q 2600 2275 2550 2415 
Q 2500 2556 2373 2639 
Q 2247 2722 2056 2722 
Q 1838 2722 1666 2615 
Q 1494 2509 1414 2295 
Q 1334 2081 1334 1663 
L 1334 0 
L 456 0 
L 456 4581 
L 1334 4581 
z
" transform="scale(0.015625)"/>
     </defs>
     <use xlink:href="#Arial-BoldMT-4d"/>
     <use xlink:href="#Arial-BoldMT-6f" transform="translate(83.300781 0)"/>
     <use xlink:href="#Arial-BoldMT-64" transform="translate(144.384766 0)"/>
     <use xlink:href="#Arial-BoldMT-65" transform="translate(205.46875 0)"/>
     <use xlink:href="#Arial-BoldMT-6c" transform="translate(261.083984 0)"/>
     <use xlink:href="#Arial-BoldMT-20" transform="translate(288.867188 0)"/>
     <use xlink:href="#Arial-BoldMT-30" transform="translate(316.650391 0)"/>
     <use xlink:href="#Arial-BoldMT-3a" transform="translate(372.265625 0)"/>
     <use xlink:href="#Arial-BoldMT-20" transform="translate(405.566406 0)"/>
     <use xlink:href="#Arial-BoldMT-52" transform="translate(433.349609 0)"/>
     <use xlink:href="#Arial-BoldMT-65" transform="translate(505.566406 0)"/>
     <use xlink:href="#Arial-BoldMT-63" transform="translate(561.181641 0)"/>
     <use xlink:href="#Arial-BoldMT-65" transform="translate(616.796875 0)"/>
     <use xlink:href="#Arial-BoldMT-69" transform="translate(672.412109 0)"/>
     <use xlink:href="#Arial-BoldMT-76" transform="translate(700.195312 0)"/>
     <use xlink:href="#Arial-BoldMT-65" transform="translate(755.810547 0)"/>
     <use xlink:href="#Arial-BoldMT-72" transform="translate(811.425781 0)"/>
     <use xlink:href="#Arial-BoldMT-20" transform="translate(850.341797 0)"/>
     <use xlink:href="#Arial-BoldMT-4f" transform="translate(878.125 0)"/>
     <use xlink:href="#Arial-BoldMT-70" transform="translate(955.908203 0)"/>
     <use xlink:href="#Arial-BoldMT-65" transform="translate(1016.992188 0)"/>
     <use xlink:href="#Arial-BoldMT-72" transform="translate(1072.607422 0)"/>
     <use xlink:href="#Arial-BoldMT-61" transform="translate(1111.523438 0)"/>
     <use xlink:href="#Arial-BoldMT-74" transform="translate(1167.138672 0)"/>
     <use xlink:href="#Arial-BoldMT-69" transform="translate(1200.439453 0)"/>
     <use xlink:href="#Arial-BoldMT-6e" transform="translate(1228.222656 0)"/>
     <use xlink:href="#Arial-BoldMT-67" transform="translate(1289.306641 0)"/>
     <use xlink:href="#Arial-BoldMT-20" transform="translate(1350.390625 0)"/>
     <use xlink:href="#Arial-BoldMT-43" transform="translate(1378.173828 0)"/>
     <use xlink:href="#Arial-BoldMT-68" transform="translate(1450.390625 0)"/>
     <use xlink:href="#Arial-BoldMT-61" transform="translate(1511.474609 0)"/>
     <use xlink:href="#Arial-BoldMT-72" transform="translate(1567.089844 0)"/>
     <use xlink:href="#Arial-BoldMT-61" transform="translate(1606.005859 0)"/>
     <use xlink:href="#Arial-BoldMT-63" transform="translate(1661.621094 0)"/>
     <use xlink:href="#Arial-BoldMT-74" transform="translate(1717.236328 0)"/>
     <use xlink:href="#Arial-BoldMT-65" transform="translate(1750.537109 0)"/>
     <use xlink:href="#Arial-BoldMT-72" transform="translate(1806.152344 0)"/>
     <use xlink:href="#Arial-BoldMT-69" transform="translate(1845.068359 0)"/>
     <use xlink:href="#Arial-BoldMT-73" transform="translate(1872.851562 0)"/>
     <use xlink:href="#Arial-BoldMT-74" transform="translate(1928.466797 0)"/>
     <use xlink:href="#Arial-BoldMT-69" transform="translate(1961.767578 0)"/>
     <use xlink:href="#Arial-BoldMT-63" transform="translate(1989.550781 0)"/>
     <use xlink:href="#Arial-BoldMT-20" transform="translate(2045.166016 0)"/>
     <use xlink:href="#Arial-BoldMT-28" transform="translate(2072.949219 0)"/>
     <use xlink:href="#Arial-BoldMT-52" transform="translate(2106.25 0)"/>
     <use xlink:href="#Arial-BoldMT-4f" transform="translate(2178.466797 0)"/>
     <use xlink:href="#Arial-BoldMT-43" transform="translate(2256.25 0)"/>
     <use xlink:href="#Arial-BoldMT-29" transform="translate(2328.466797 0)"/>
     <use xlink:href="#Arial-BoldMT-20" transform="translate(2361.767578 0)"/>
     <use xlink:href="#Arial-BoldMT-43" transform="translate(2389.550781 0)"/>
     <use xlink:href="#Arial-BoldMT-75" transform="translate(2461.767578 0)"/>
     <use xlink:href="#Arial-BoldMT-72" transform="translate(2522.851562 0)"/>
     <use xlink:href="#Arial-BoldMT-76" transform="translate(2561.767578 0)"/>
     <use xlink:href="#Arial-BoldMT-65" transform="translate(2617.382812 0)"/>
    </g>
   </g>
   <g id="legend_1">
    <g id="patch_7">
     <path d="M 182.577645 260.522801 
L 282.89952 260.522801 
Q 284.69952 260.522801 284.69952 258.722801 
L 284.69952 234.161239 
Q 284.69952 232.361239 282.89952 232.361239 
L 182.577645 232.361239 
Q 180.777645 232.361239 180.777645 234.161239 
L 180.777645 258.722801 
Q 180.777645 260.522801 182.577645 260.522801 
z
" style="fill: #ffffff; opacity: 0.8; stroke: #cccccc; stroke-width: 0.75; stroke-linejoin: miter"/>
    </g>
    <g id="line2d_27">
     <path d="M 184.377645 239.25327 
L 193.377645 239.25327 
L 202.377645 239.25327 
" style="fill: none; stroke: #1f77b4; stroke-width: 1.5; stroke-linecap: round"/>
    </g>
    <g id="text_16">
     <!-- ROC curve -->
     <g style="fill: #333333" transform="translate(209.577645 242.40327) scale(0.09 -0.09)">
      <defs>
       <path id="ArialMT-52" d="M 503 0 
L 503 4581 
L 2534 4581 
Q 3147 4581 3465 4457 
Q 3784 4334 3975 4021 
Q 4166 3709 4166 3331 
Q 4166 2844 3850 2509 
Q 3534 2175 2875 2084 
Q 3116 1969 3241 1856 
Q 3506 1613 3744 1247 
L 4541 0 
L 3778 0 
L 3172 953 
Q 2906 1366 2734 1584 
Q 2563 1803 2427 1890 
Q 2291 1978 2150 2013 
Q 2047 2034 1813 2034 
L 1109 2034 
L 1109 0 
L 503 0 
z
M 1109 2559 
L 2413 2559 
Q 2828 2559 3062 2645 
Q 3297 2731 3419 2920 
Q 3541 3109 3541 3331 
Q 3541 3656 3305 3865 
Q 3069 4075 2559 4075 
L 1109 4075 
L 1109 2559 
z
" transform="scale(0.015625)"/>
       <path id="ArialMT-4f" d="M 309 2231 
Q 309 3372 921 4017 
Q 1534 4663 2503 4663 
Q 3138 4663 3647 4359 
Q 4156 4056 4423 3514 
Q 4691 2972 4691 2284 
Q 4691 1588 4409 1038 
Q 4128 488 3612 205 
Q 3097 -78 2500 -78 
Q 1853 -78 1343 234 
Q 834 547 571 1087 
Q 309 1628 309 2231 
z
M 934 2222 
Q 934 1394 1379 917 
Q 1825 441 2497 441 
Q 3181 441 3623 922 
Q 4066 1403 4066 2288 
Q 4066 2847 3877 3264 
Q 3688 3681 3323 3911 
Q 2959 4141 2506 4141 
Q 1863 4141 1398 3698 
Q 934 3256 934 2222 
z
" transform="scale(0.015625)"/>
       <path id="ArialMT-43" d="M 3763 1606 
L 4369 1453 
Q 4178 706 3683 314 
Q 3188 -78 2472 -78 
Q 1731 -78 1267 223 
Q 803 525 561 1097 
Q 319 1669 319 2325 
Q 319 3041 592 3573 
Q 866 4106 1370 4382 
Q 1875 4659 2481 4659 
Q 3169 4659 3637 4309 
Q 4106 3959 4291 3325 
L 3694 3184 
Q 3534 3684 3231 3912 
Q 2928 4141 2469 4141 
Q 1941 4141 1586 3887 
Q 1231 3634 1087 3207 
Q 944 2781 944 2328 
Q 944 1744 1114 1308 
Q 1284 872 1643 656 
Q 2003 441 2422 441 
Q 2931 441 3284 734 
Q 3638 1028 3763 1606 
z
" transform="scale(0.015625)"/>
       <path id="ArialMT-20" transform="scale(0.015625)"/>
       <path id="ArialMT-63" d="M 2588 1216 
L 3141 1144 
Q 3050 572 2676 248 
Q 2303 -75 1759 -75 
Q 1078 -75 664 370 
Q 250 816 250 1647 
Q 250 2184 428 2587 
Q 606 2991 970 3192 
Q 1334 3394 1763 3394 
Q 2303 3394 2647 3120 
Q 2991 2847 3088 2344 
L 2541 2259 
Q 2463 2594 2264 2762 
Q 2066 2931 1784 2931 
Q 1359 2931 1093 2626 
Q 828 2322 828 1663 
Q 828 994 1084 691 
Q 1341 388 1753 388 
Q 2084 388 2306 591 
Q 2528 794 2588 1216 
z
" transform="scale(0.015625)"/>
       <path id="ArialMT-75" d="M 2597 0 
L 2597 488 
Q 2209 -75 1544 -75 
Q 1250 -75 995 37 
Q 741 150 617 320 
Q 494 491 444 738 
Q 409 903 409 1263 
L 409 3319 
L 972 3319 
L 972 1478 
Q 972 1038 1006 884 
Q 1059 663 1231 536 
Q 1403 409 1656 409 
Q 1909 409 2131 539 
Q 2353 669 2445 892 
Q 2538 1116 2538 1541 
L 2538 3319 
L 3100 3319 
L 3100 0 
L 2597 0 
z
" transform="scale(0.015625)"/>
       <path id="ArialMT-72" d="M 416 0 
L 416 3319 
L 922 3319 
L 922 2816 
Q 1116 3169 1280 3281 
Q 1444 3394 1641 3394 
Q 1925 3394 2219 3213 
L 2025 2691 
Q 1819 2813 1613 2813 
Q 1428 2813 1281 2702 
Q 1134 2591 1072 2394 
Q 978 2094 978 1738 
L 978 0 
L 416 0 
z
" transform="scale(0.015625)"/>
       <path id="ArialMT-76" d="M 1344 0 
L 81 3319 
L 675 3319 
L 1388 1331 
Q 1503 1009 1600 663 
Q 1675 925 1809 1294 
L 2547 3319 
L 3125 3319 
L 1869 0 
L 1344 0 
z
" transform="scale(0.015625)"/>
       <path id="ArialMT-65" d="M 2694 1069 
L 3275 997 
Q 3138 488 2766 206 
Q 2394 -75 1816 -75 
Q 1088 -75 661 373 
Q 234 822 234 1631 
Q 234 2469 665 2931 
Q 1097 3394 1784 3394 
Q 2450 3394 2872 2941 
Q 3294 2488 3294 1666 
Q 3294 1616 3291 1516 
L 816 1516 
Q 847 969 1125 678 
Q 1403 388 1819 388 
Q 2128 388 2347 550 
Q 2566 713 2694 1069 
z
M 847 1978 
L 2700 1978 
Q 2663 2397 2488 2606 
Q 2219 2931 1791 2931 
Q 1403 2931 1139 2672 
Q 875 2413 847 1978 
z
" transform="scale(0.015625)"/>
      </defs>
      <use xlink:href="#ArialMT-52"/>
      <use xlink:href="#ArialMT-4f" transform="translate(72.216797 0)"/>
      <use xlink:href="#ArialMT-43" transform="translate(150 0)"/>
      <use xlink:href="#ArialMT-20" transform="translate(222.216797 0)"/>
      <use xlink:href="#ArialMT-63" transform="translate(250 0)"/>
      <use xlink:href="#ArialMT-75" transform="translate(300 0)"/>
      <use xlink:href="#ArialMT-72" transform="translate(355.615234 0)"/>
      <use xlink:href="#ArialMT-76" transform="translate(388.916016 0)"/>
      <use xlink:href="#ArialMT-65" transform="translate(438.916016 0)"/>
     </g>
    </g>
    <g id="line2d_28">
     <path d="M 184.377645 251.984051 
L 193.377645 251.984051 
L 202.377645 251.984051 
" style="fill: none; stroke-dasharray: 5.55,2.4; stroke-dashoffset: 0; stroke: #999999; stroke-width: 1.5"/>
    </g>
    <g id="text_17">
     <!-- Random classifier -->
     <g style="fill: #333333" transform="translate(209.577645 255.134051) scale(0.09 -0.09)">
      <defs>
       <path id="ArialMT-61" d="M 2588 409 
Q 2275 144 1986 34 
Q 1697 -75 1366 -75 
Q 819 -75 525 192 
Q 231 459 231 875 
Q 231 1119 342 1320 
Q 453 1522 633 1644 
Q 813 1766 1038 1828 
Q 1203 1872 1538 1913 
Q 2219 1994 2541 2106 
Q 2544 2222 2544 2253 
Q 2544 2597 2384 2738 
Q 2169 2928 1744 2928 
Q 1347 2928 1158 2789 
Q 969 2650 878 2297 
L 328 2372 
Q 403 2725 575 2942 
Q 747 3159 1072 3276 
Q 1397 3394 1825 3394 
Q 2250 3394 2515 3294 
Q 2781 3194 2906 3042 
Q 3031 2891 3081 2659 
Q 3109 2516 3109 2141 
L 3109 1391 
Q 3109 606 3145 398 
Q 3181 191 3288 0 
L 2700 0 
Q 2613 175 2588 409 
z
M 2541 1666 
Q 2234 1541 1622 1453 
Q 1275 1403 1131 1340 
Q 988 1278 909 1158 
Q 831 1038 831 891 
Q 831 666 1001 516 
Q 1172 366 1500 366 
Q 1825 366 2078 508 
Q 2331 650 2450 897 
Q 2541 1088 2541 1459 
L 2541 1666 
z
" transform="scale(0.015625)"/>
       <path id="ArialMT-6e" d="M 422 0 
L 422 3319 
L 928 3319 
L 928 2847 
Q 1294 3394 1984 3394 
Q 2284 3394 2536 3286 
Q 2788 3178 2913 3003 
Q 3038 2828 3088 2588 
Q 3119 2431 3119 2041 
L 3119 0 
L 2556 0 
L 2556 2019 
Q 2556 2363 2490 2533 
Q 2425 2703 2258 2804 
Q 2091 2906 1866 2906 
Q 1506 2906 1245 2678 
Q 984 2450 984 1813 
L 984 0 
L 422 0 
z
" transform="scale(0.015625)"/>
       <path id="ArialMT-64" d="M 2575 0 
L 2575 419 
Q 2259 -75 1647 -75 
Q 1250 -75 917 144 
Q 584 363 401 755 
Q 219 1147 219 1656 
Q 219 2153 384 2558 
Q 550 2963 881 3178 
Q 1213 3394 1622 3394 
Q 1922 3394 2156 3267 
Q 2391 3141 2538 2938 
L 2538 4581 
L 3097 4581 
L 3097 0 
L 2575 0 
z
M 797 1656 
Q 797 1019 1065 703 
Q 1334 388 1700 388 
Q 2069 388 2326 689 
Q 2584 991 2584 1609 
Q 2584 2291 2321 2609 
Q 2059 2928 1675 2928 
Q 1300 2928 1048 2622 
Q 797 2316 797 1656 
z
" transform="scale(0.015625)"/>
       <path id="ArialMT-6f" d="M 213 1659 
Q 213 2581 725 3025 
Q 1153 3394 1769 3394 
Q 2453 3394 2887 2945 
Q 3322 2497 3322 1706 
Q 3322 1066 3130 698 
Q 2938 331 2570 128 
Q 2203 -75 1769 -75 
Q 1072 -75 642 372 
Q 213 819 213 1659 
z
M 791 1659 
Q 791 1022 1069 705 
Q 1347 388 1769 388 
Q 2188 388 2466 706 
Q 2744 1025 2744 1678 
Q 2744 2294 2464 2611 
Q 2184 2928 1769 2928 
Q 1347 2928 1069 2612 
Q 791 2297 791 1659 
z
" transform="scale(0.015625)"/>
       <path id="ArialMT-6d" d="M 422 0 
L 422 3319 
L 925 3319 
L 925 2853 
Q 1081 3097 1340 3245 
Q 1600 3394 1931 3394 
Q 2300 3394 2536 3241 
Q 2772 3088 2869 2813 
Q 3263 3394 3894 3394 
Q 4388 3394 4653 3120 
Q 4919 2847 4919 2278 
L 4919 0 
L 4359 0 
L 4359 2091 
Q 4359 2428 4304 2576 
Q 4250 2725 4106 2815 
Q 3963 2906 3769 2906 
Q 3419 2906 3187 2673 
Q 2956 2441 2956 1928 
L 2956 0 
L 2394 0 
L 2394 2156 
Q 2394 2531 2256 2718 
Q 2119 2906 1806 2906 
Q 1569 2906 1367 2781 
Q 1166 2656 1075 2415 
Q 984 2175 984 1722 
L 984 0 
L 422 0 
z
" transform="scale(0.015625)"/>
       <path id="ArialMT-6c" d="M 409 0 
L 409 4581 
L 972 4581 
L 972 0 
L 409 0 
z
" transform="scale(0.015625)"/>
       <path id="ArialMT-73" d="M 197 991 
L 753 1078 
Q 800 744 1014 566 
Q 1228 388 1613 388 
Q 2000 388 2187 545 
Q 2375 703 2375 916 
Q 2375 1106 2209 1216 
Q 2094 1291 1634 1406 
Q 1016 1563 777 1677 
Q 538 1791 414 1992 
Q 291 2194 291 2438 
Q 291 2659 392 2848 
Q 494 3038 669 3163 
Q 800 3259 1026 3326 
Q 1253 3394 1513 3394 
Q 1903 3394 2198 3281 
Q 2494 3169 2634 2976 
Q 2775 2784 2828 2463 
L 2278 2388 
Q 2241 2644 2061 2787 
Q 1881 2931 1553 2931 
Q 1166 2931 1000 2803 
Q 834 2675 834 2503 
Q 834 2394 903 2306 
Q 972 2216 1119 2156 
Q 1203 2125 1616 2013 
Q 2213 1853 2448 1751 
Q 2684 1650 2818 1456 
Q 2953 1263 2953 975 
Q 2953 694 2789 445 
Q 2625 197 2315 61 
Q 2006 -75 1616 -75 
Q 969 -75 630 194 
Q 291 463 197 991 
z
" transform="scale(0.015625)"/>
       <path id="ArialMT-69" d="M 425 3934 
L 425 4581 
L 988 4581 
L 988 3934 
L 425 3934 
z
M 425 0 
L 425 3319 
L 988 3319 
L 988 0 
L 425 0 
z
" transform="scale(0.015625)"/>
       <path id="ArialMT-66" d="M 556 0 
L 556 2881 
L 59 2881 
L 59 3319 
L 556 3319 
L 556 3672 
Q 556 4006 616 4169 
Q 697 4388 901 4523 
Q 1106 4659 1475 4659 
Q 1713 4659 2000 4603 
L 1916 4113 
Q 1741 4144 1584 4144 
Q 1328 4144 1222 4034 
Q 1116 3925 1116 3625 
L 1116 3319 
L 1763 3319 
L 1763 2881 
L 1116 2881 
L 1116 0 
L 556 0 
z
" transform="scale(0.015625)"/>
      </defs>
      <use xlink:href="#ArialMT-52"/>
      <use xlink:href="#ArialMT-61" transform="translate(72.216797 0)"/>
      <use xlink:href="#ArialMT-6e" transform="translate(127.832031 0)"/>
      <use xlink:href="#ArialMT-64" transform="translate(183.447266 0)"/>
      <use xlink:href="#ArialMT-6f" transform="translate(239.0625 0)"/>
      <use xlink:href="#ArialMT-6d" transform="translate(294.677734 0)"/>
      <use xlink:href="#ArialMT-20" transform="translate(377.978516 0)"/>
      <use xlink:href="#ArialMT-63" transform="translate(405.761719 0)"/>
      <use xlink:href="#ArialMT-6c" transform="translate(455.761719 0)"/>
      <use xlink:href="#ArialMT-61" transform="translate(477.978516 0)"/>
      <use xlink:href="#ArialMT-73" transform="translate(533.59375 0)"/>
      <use xlink:href="#ArialMT-73" transform="translate(583.59375 0)"/>
      <use xlink:href="#ArialMT-69" transform="translate(633.59375 0)"/>
      <use xlink:href="#ArialMT-66" transform="translate(655.810547 0)"/>
      <use xlink:href="#ArialMT-69" transform="translate(683.59375 0)"/>
      <use xlink:href="#ArialMT-65" transform="translate(705.810547 0)"/>
      <use xlink:href="#ArialMT-72" transform="translate(761.425781 0)"/>
     </g>
    </g>
   </g>
  </g>
 </g>
 <defs>
  <clipPath id="pd4724637c9">
   <rect x="35.655938" y="19.751719" width="253.543583" height="245.271083"/>
  </clipPath>
 </defs>
</svg>
