<?xml version="1.0" encoding="utf-8" standalone="no"?>
<!DOCTYPE svg PUBLIC "-//W3C//DTD SVG 1.1//EN"
  "http://www.w3.org/Graphics/SVG/1.1/DTD/svg11.dtd">
<svg xmlns:xlink="http://www.w3.org/1999/xlink" width="296.39952pt" height="296.39952pt" viewBox="0 0 296.39952 296.39952" xmlns="http://www.w3.org/2000/svg" version="1.1">
 <metadata>
  <rdf:RDF xmlns:dc="http://purl.org/dc/elements/1.1/" xmlns:cc="http://creativecommons.org/ns#" xmlns:rdf="http://www.w3.org/1999/02/22-rdf-syntax-ns#">
   <cc:Work>
    <dc:type rdf:resource="http://purl.org/dc/dcmitype/StillImage"/>
    <dc:date>2026-01-02T17:48:17.784974</dc:date>
    <dc:format>image/svg+xml</dc:format>
    <dc:creator>
     <cc:Agent>
      <dc:title>Matplotlib v3.10.8, https://matplotlib.org/</dc:title>
     </cc:Agent>
    </dc:creator>
   </cc:Work>
  </rdf:RDF>
 </metadata>
 <defs>
  <style type="text/css">*{stroke-linejoin: round; stroke-linecap: butt}</style>
 </defs>
 <g id="figure_1">
  <g id="patch_1">
   <path d="M 0 296.39952 
L 296.39952 296.39952 
L 296.39952 0 
L 0 0 
z
" style="fill: #ffffff"/>
  </g>
  <g id="axes_1">
   <g id="patch_2">
    <path d="M 35.655938 265.022801 
L 289.19952 265.022801 
L 289.19952 19.751719 
L 35.655938 19.751719 
z
" style="fill: #ffffff"/>
   </g>
   <g id="matplotlib.axis_1">
    <g id="xtick_1">
     <g id="line2d_1">
      <path d="M 42.831699 265.022801 
L 42.831699 19.751719 
" clip-path="url(#pcb3e65a9bd)" style="fill: none; stroke: #c0c0c0; stroke-width: 0.25; stroke-linecap: round"/>
     </g>
     <g id="line2d_2"/>
     <g id="text_1">
      <!-- 0.0 -->
      <g style="fill: #333333" transform="translate(36.576699 274.964832) scale(0.09 -0.09)">
       <defs>
        <path id="ArialMT-30" d="M 266 2259 
Q 266 3072 433 3567 
Q 600 4063 929 4331 
Q 1259 4600 1759 4600 
Q 2128 4600 2406 4451 
Q 2684 4303 2865 4023 
Q 3047 3744 3150 3342 
Q 3253 2941 3253 2259 
Q 3253 1453 3087 958 
Q 2922 463 2592 192 
Q 2263 -78 1759 -78 
Q 1097 -78 719 397 
Q 266 969 266 2259 
z
M 844 2259 
Q 844 1131 1108 757 
Q 1372 384 1759 384 
Q 2147 384 2411 759 
Q 2675 1134 2675 2259 
Q 2675 3391 2411 3762 
Q 2147 4134 1753 4134 
Q 1366 4134 1134 3806 
Q 844 3388 844 2259 
z
" transform="scale(0.015625)"/>
        <path id="ArialMT-2e" d="M 581 0 
L 581 641 
L 1222 641 
L 1222 0 
L 581 0 
z
" transform="scale(0.015625)"/>
       </defs>
       <use xlink:href="#ArialMT-30"/>
       <use xlink:href="#ArialMT-2e" transform="translate(55.615234 0)"/>
       <use xlink:href="#ArialMT-30" transform="translate(83.398438 0)"/>
      </g>
     </g>
    </g>
    <g id="xtick_2">
     <g id="line2d_3">
      <path d="M 90.670111 265.022801 
L 90.670111 19.751719 
" clip-path="url(#pcb3e65a9bd)" style="fill: none; stroke: #c0c0c0; stroke-width: 0.25; stroke-linecap: round"/>
     </g>
     <g id="line2d_4"/>
     <g id="text_2">
      <!-- 0.2 -->
      <g style="fill: #333333" transform="translate(84.415111 274.964832) scale(0.09 -0.09)">
       <defs>
        <path id="ArialMT-32" d="M 3222 541 
L 3222 0 
L 194 0 
Q 188 203 259 391 
Q 375 700 629 1000 
Q 884 1300 1366 1694 
Q 2113 2306 2375 2664 
Q 2638 3022 2638 3341 
Q 2638 3675 2398 3904 
Q 2159 4134 1775 4134 
Q 1369 4134 1125 3890 
Q 881 3647 878 3216 
L 300 3275 
Q 359 3922 746 4261 
Q 1134 4600 1788 4600 
Q 2447 4600 2831 4234 
Q 3216 3869 3216 3328 
Q 3216 3053 3103 2787 
Q 2991 2522 2730 2228 
Q 2469 1934 1863 1422 
Q 1356 997 1212 845 
Q 1069 694 975 541 
L 3222 541 
z
" transform="scale(0.015625)"/>
       </defs>
       <use xlink:href="#ArialMT-30"/>
       <use xlink:href="#ArialMT-2e" transform="translate(55.615234 0)"/>
       <use xlink:href="#ArialMT-32" transform="translate(83.398438 0)"/>
      </g>
     </g>
    </g>
    <g id="xtick_3">
     <g id="line2d_5">
      <path d="M 138.508523 265.022801 
L 138.508523 19.751719 
" clip-path="url(#pcb3e65a9bd)" style="fill: none; stroke: #c0c0c0; stroke-width: 0.25; stroke-linecap: round"/>
     </g>
     <g id="line2d_6"/>
     <g id="text_3">
      <!-- 0.4 -->
      <g style="fill: #333333" transform="translate(132.253523 274.964832) scale(0.09 -0.09)">
       <defs>
        <path id="ArialMT-34" d="M 2069 0 
L 2069 1097 
L 81 1097 
L 81 1613 
L 2172 4581 
L 2631 4581 
L 2631 1613 
L 3250 1613 
L 3250 1097 
L 2631 1097 
L 2631 0 
L 2069 0 
z
M 2069 1613 
L 2069 3678 
L 634 1613 
L 2069 1613 
z
" transform="scale(0.015625)"/>
       </defs>
       <use xlink:href="#ArialMT-30"/>
       <use xlink:href="#ArialMT-2e" transform="translate(55.615234 0)"/>
       <use xlink:href="#ArialMT-34" transform="translate(83.398438 0)"/>
      </g>
     </g>
    </g>
    <g id="xtick_4">
     <g id="line2d_7">
      <path d="M 186.346935 265.022801 
L 186.346935 19.751719 
" clip-path="url(#pcb3e65a9bd)" style="fill: none; stroke: #c0c0c0; stroke-width: 0.25; stroke-linecap: round"/>
     </g>
     <g id="line2d_8"/>
     <g id="text_4">
      <!-- 0.6 -->
      <g style="fill: #333333" transform="translate(180.091935 274.964832) scale(0.09 -0.09)">
       <defs>
        <path id="ArialMT-36" d="M 3184 3459 
L 2625 3416 
Q 2550 3747 2413 3897 
Q 2184 4138 1850 4138 
Q 1581 4138 1378 3988 
Q 1113 3794 959 3422 
Q 806 3050 800 2363 
Q 1003 2672 1297 2822 
Q 1591 2972 1913 2972 
Q 2475 2972 2870 2558 
Q 3266 2144 3266 1488 
Q 3266 1056 3080 686 
Q 2894 316 2569 119 
Q 2244 -78 1831 -78 
Q 1128 -78 684 439 
Q 241 956 241 2144 
Q 241 3472 731 4075 
Q 1159 4600 1884 4600 
Q 2425 4600 2770 4297 
Q 3116 3994 3184 3459 
z
M 888 1484 
Q 888 1194 1011 928 
Q 1134 663 1356 523 
Q 1578 384 1822 384 
Q 2178 384 2434 671 
Q 2691 959 2691 1453 
Q 2691 1928 2437 2201 
Q 2184 2475 1800 2475 
Q 1419 2475 1153 2201 
Q 888 1928 888 1484 
z
" transform="scale(0.015625)"/>
       </defs>
       <use xlink:href="#ArialMT-30"/>
       <use xlink:href="#ArialMT-2e" transform="translate(55.615234 0)"/>
       <use xlink:href="#ArialMT-36" transform="translate(83.398438 0)"/>
      </g>
     </g>
    </g>
    <g id="xtick_5">
     <g id="line2d_9">
      <path d="M 234.185346 265.022801 
L 234.185346 19.751719 
" clip-path="url(#pcb3e65a9bd)" style="fill: none; stroke: #c0c0c0; stroke-width: 0.25; stroke-linecap: round"/>
     </g>
     <g id="line2d_10"/>
     <g id="text_5">
      <!-- 0.8 -->
      <g style="fill: #333333" transform="translate(227.930346 274.964832) scale(0.09 -0.09)">
       <defs>
        <path id="ArialMT-38" d="M 1131 2484 
Q 781 2613 612 2850 
Q 444 3088 444 3419 
Q 444 3919 803 4259 
Q 1163 4600 1759 4600 
Q 2359 4600 2725 4251 
Q 3091 3903 3091 3403 
Q 3091 3084 2923 2848 
Q 2756 2613 2416 2484 
Q 2838 2347 3058 2040 
Q 3278 1734 3278 1309 
Q 3278 722 2862 322 
Q 2447 -78 1769 -78 
Q 1091 -78 675 323 
Q 259 725 259 1325 
Q 259 1772 486 2073 
Q 713 2375 1131 2484 
z
M 1019 3438 
Q 1019 3113 1228 2906 
Q 1438 2700 1772 2700 
Q 2097 2700 2305 2904 
Q 2513 3109 2513 3406 
Q 2513 3716 2298 3927 
Q 2084 4138 1766 4138 
Q 1444 4138 1231 3931 
Q 1019 3725 1019 3438 
z
M 838 1322 
Q 838 1081 952 856 
Q 1066 631 1291 507 
Q 1516 384 1775 384 
Q 2178 384 2440 643 
Q 2703 903 2703 1303 
Q 2703 1709 2433 1975 
Q 2163 2241 1756 2241 
Q 1359 2241 1098 1978 
Q 838 1716 838 1322 
z
" transform="scale(0.015625)"/>
       </defs>
       <use xlink:href="#ArialMT-30"/>
       <use xlink:href="#ArialMT-2e" transform="translate(55.615234 0)"/>
       <use xlink:href="#ArialMT-38" transform="translate(83.398438 0)"/>
      </g>
     </g>
    </g>
    <g id="xtick_6">
     <g id="line2d_11">
      <path d="M 282.023758 265.022801 
L 282.023758 19.751719 
" clip-path="url(#pcb3e65a9bd)" style="fill: none; stroke: #c0c0c0; stroke-width: 0.25; stroke-linecap: round"/>
     </g>
     <g id="line2d_12"/>
     <g id="text_6">
      <!-- 1.0 -->
      <g style="fill: #333333" transform="translate(275.768758 274.964832) scale(0.09 -0.09)">
       <defs>
        <path id="ArialMT-31" d="M 2384 0 
L 1822 0 
L 1822 3584 
Q 1619 3391 1289 3197 
Q 959 3003 697 2906 
L 697 3450 
Q 1169 3672 1522 3987 
Q 1875 4303 2022 4600 
L 2384 4600 
L 2384 0 
z
" transform="scale(0.015625)"/>
       </defs>
       <use xlink:href="#ArialMT-31"/>
       <use xlink:href="#ArialMT-2e" transform="translate(55.615234 0)"/>
       <use xlink:href="#ArialMT-30" transform="translate(83.398438 0)"/>
      </g>
     </g>
    </g>
    <g id="text_7">
     <!-- False Positive Rate (FPR) -->
     <g style="fill: #333333" transform="translate(108.165463 287.305301) scale(0.09 -0.09)">
      <defs>
       <path id="Arial-BoldMT-46" d="M 472 0 
L 472 4581 
L 3613 4581 
L 3613 3806 
L 1397 3806 
L 1397 2722 
L 3309 2722 
L 3309 1947 
L 1397 1947 
L 1397 0 
L 472 0 
z
" transform="scale(0.015625)"/>
       <path id="Arial-BoldMT-61" d="M 1116 2306 
L 319 2450 
Q 453 2931 781 3162 
Q 1109 3394 1756 3394 
Q 2344 3394 2631 3255 
Q 2919 3116 3036 2902 
Q 3153 2688 3153 2116 
L 3144 1091 
Q 3144 653 3186 445 
Q 3228 238 3344 0 
L 2475 0 
Q 2441 88 2391 259 
Q 2369 338 2359 363 
Q 2134 144 1878 34 
Q 1622 -75 1331 -75 
Q 819 -75 523 203 
Q 228 481 228 906 
Q 228 1188 362 1408 
Q 497 1628 739 1745 
Q 981 1863 1438 1950 
Q 2053 2066 2291 2166 
L 2291 2253 
Q 2291 2506 2166 2614 
Q 2041 2722 1694 2722 
Q 1459 2722 1328 2630 
Q 1197 2538 1116 2306 
z
M 2291 1594 
Q 2122 1538 1756 1459 
Q 1391 1381 1278 1306 
Q 1106 1184 1106 997 
Q 1106 813 1243 678 
Q 1381 544 1594 544 
Q 1831 544 2047 700 
Q 2206 819 2256 991 
Q 2291 1103 2291 1419 
L 2291 1594 
z
" transform="scale(0.015625)"/>
       <path id="Arial-BoldMT-6c" d="M 459 0 
L 459 4581 
L 1338 4581 
L 1338 0 
L 459 0 
z
" transform="scale(0.015625)"/>
       <path id="Arial-BoldMT-73" d="M 150 947 
L 1031 1081 
Q 1088 825 1259 692 
Q 1431 559 1741 559 
Q 2081 559 2253 684 
Q 2369 772 2369 919 
Q 2369 1019 2306 1084 
Q 2241 1147 2013 1200 
Q 950 1434 666 1628 
Q 272 1897 272 2375 
Q 272 2806 612 3100 
Q 953 3394 1669 3394 
Q 2350 3394 2681 3172 
Q 3013 2950 3138 2516 
L 2309 2363 
Q 2256 2556 2107 2659 
Q 1959 2763 1684 2763 
Q 1338 2763 1188 2666 
Q 1088 2597 1088 2488 
Q 1088 2394 1175 2328 
Q 1294 2241 1995 2081 
Q 2697 1922 2975 1691 
Q 3250 1456 3250 1038 
Q 3250 581 2869 253 
Q 2488 -75 1741 -75 
Q 1063 -75 667 200 
Q 272 475 150 947 
z
" transform="scale(0.015625)"/>
       <path id="Arial-BoldMT-65" d="M 2381 1056 
L 3256 909 
Q 3088 428 2723 176 
Q 2359 -75 1813 -75 
Q 947 -75 531 491 
Q 203 944 203 1634 
Q 203 2459 634 2926 
Q 1066 3394 1725 3394 
Q 2466 3394 2894 2905 
Q 3322 2416 3303 1406 
L 1103 1406 
Q 1113 1016 1316 798 
Q 1519 581 1822 581 
Q 2028 581 2168 693 
Q 2309 806 2381 1056 
z
M 2431 1944 
Q 2422 2325 2234 2523 
Q 2047 2722 1778 2722 
Q 1491 2722 1303 2513 
Q 1116 2303 1119 1944 
L 2431 1944 
z
" transform="scale(0.015625)"/>
       <path id="Arial-BoldMT-20" transform="scale(0.015625)"/>
       <path id="Arial-BoldMT-50" d="M 466 0 
L 466 4581 
L 1950 4581 
Q 2794 4581 3050 4513 
Q 3444 4409 3709 4064 
Q 3975 3719 3975 3172 
Q 3975 2750 3822 2462 
Q 3669 2175 3433 2011 
Q 3197 1847 2953 1794 
Q 2622 1728 1994 1728 
L 1391 1728 
L 1391 0 
L 466 0 
z
M 1391 3806 
L 1391 2506 
L 1897 2506 
Q 2444 2506 2628 2578 
Q 2813 2650 2917 2803 
Q 3022 2956 3022 3159 
Q 3022 3409 2875 3571 
Q 2728 3734 2503 3775 
Q 2338 3806 1838 3806 
L 1391 3806 
z
" transform="scale(0.015625)"/>
       <path id="Arial-BoldMT-6f" d="M 256 1706 
Q 256 2144 472 2553 
Q 688 2963 1083 3178 
Q 1478 3394 1966 3394 
Q 2719 3394 3200 2905 
Q 3681 2416 3681 1669 
Q 3681 916 3195 420 
Q 2709 -75 1972 -75 
Q 1516 -75 1102 131 
Q 688 338 472 736 
Q 256 1134 256 1706 
z
M 1156 1659 
Q 1156 1166 1390 903 
Q 1625 641 1969 641 
Q 2313 641 2545 903 
Q 2778 1166 2778 1666 
Q 2778 2153 2545 2415 
Q 2313 2678 1969 2678 
Q 1625 2678 1390 2415 
Q 1156 2153 1156 1659 
z
" transform="scale(0.015625)"/>
       <path id="Arial-BoldMT-69" d="M 459 3769 
L 459 4581 
L 1338 4581 
L 1338 3769 
L 459 3769 
z
M 459 0 
L 459 3319 
L 1338 3319 
L 1338 0 
L 459 0 
z
" transform="scale(0.015625)"/>
       <path id="Arial-BoldMT-74" d="M 1981 3319 
L 1981 2619 
L 1381 2619 
L 1381 1281 
Q 1381 875 1398 808 
Q 1416 741 1477 697 
Q 1538 653 1625 653 
Q 1747 653 1978 738 
L 2053 56 
Q 1747 -75 1359 -75 
Q 1122 -75 931 4 
Q 741 84 652 211 
Q 563 338 528 553 
Q 500 706 500 1172 
L 500 2619 
L 97 2619 
L 97 3319 
L 500 3319 
L 500 3978 
L 1381 4491 
L 1381 3319 
L 1981 3319 
z
" transform="scale(0.015625)"/>
       <path id="Arial-BoldMT-76" d="M 1372 0 
L 34 3319 
L 956 3319 
L 1581 1625 
L 1763 1059 
Q 1834 1275 1853 1344 
Q 1897 1484 1947 1625 
L 2578 3319 
L 3481 3319 
L 2163 0 
L 1372 0 
z
" transform="scale(0.015625)"/>
       <path id="Arial-BoldMT-52" d="M 469 0 
L 469 4581 
L 2416 4581 
Q 3150 4581 3483 4457 
Q 3816 4334 4016 4018 
Q 4216 3703 4216 3297 
Q 4216 2781 3912 2445 
Q 3609 2109 3006 2022 
Q 3306 1847 3501 1637 
Q 3697 1428 4028 894 
L 4588 0 
L 3481 0 
L 2813 997 
Q 2456 1531 2325 1670 
Q 2194 1809 2047 1861 
Q 1900 1913 1581 1913 
L 1394 1913 
L 1394 0 
L 469 0 
z
M 1394 2644 
L 2078 2644 
Q 2744 2644 2909 2700 
Q 3075 2756 3169 2893 
Q 3263 3031 3263 3238 
Q 3263 3469 3139 3611 
Q 3016 3753 2791 3791 
Q 2678 3806 2116 3806 
L 1394 3806 
L 1394 2644 
z
" transform="scale(0.015625)"/>
       <path id="Arial-BoldMT-28" d="M 1916 -1347 
L 1313 -1347 
Q 834 -625 584 153 
Q 334 931 334 1659 
Q 334 2563 644 3369 
Q 913 4069 1325 4659 
L 1925 4659 
Q 1497 3713 1336 3048 
Q 1175 2384 1175 1641 
Q 1175 1128 1270 590 
Q 1366 53 1531 -431 
Q 1641 -750 1916 -1347 
z
" transform="scale(0.015625)"/>
       <path id="Arial-BoldMT-29" d="M 216 -1347 
Q 475 -791 581 -494 
Q 688 -197 778 190 
Q 869 578 912 926 
Q 956 1275 956 1641 
Q 956 2384 797 3048 
Q 638 3713 209 4659 
L 806 4659 
Q 1278 3988 1539 3234 
Q 1800 2481 1800 1706 
Q 1800 1053 1594 306 
Q 1359 -531 822 -1347 
L 216 -1347 
z
" transform="scale(0.015625)"/>
      </defs>
      <use xlink:href="#Arial-BoldMT-46"/>
      <use xlink:href="#Arial-BoldMT-61" transform="translate(61.083984 0)"/>
      <use xlink:href="#Arial-BoldMT-6c" transform="translate(116.699219 0)"/>
      <use xlink:href="#Arial-BoldMT-73" transform="translate(144.482422 0)"/>
      <use xlink:href="#Arial-BoldMT-65" transform="translate(200.097656 0)"/>
      <use xlink:href="#Arial-BoldMT-20" transform="translate(255.712891 0)"/>
      <use xlink:href="#Arial-BoldMT-50" transform="translate(283.496094 0)"/>
      <use xlink:href="#Arial-BoldMT-6f" transform="translate(350.195312 0)"/>
      <use xlink:href="#Arial-BoldMT-73" transform="translate(411.279297 0)"/>
      <use xlink:href="#Arial-BoldMT-69" transform="translate(466.894531 0)"/>
      <use xlink:href="#Arial-BoldMT-74" transform="translate(494.677734 0)"/>
      <use xlink:href="#Arial-BoldMT-69" transform="translate(527.978516 0)"/>
      <use xlink:href="#Arial-BoldMT-76" transform="translate(555.761719 0)"/>
      <use xlink:href="#Arial-BoldMT-65" transform="translate(611.376953 0)"/>
      <use xlink:href="#Arial-BoldMT-20" transform="translate(666.992188 0)"/>
      <use xlink:href="#Arial-BoldMT-52" transform="translate(694.775391 0)"/>
      <use xlink:href="#Arial-BoldMT-61" transform="translate(766.992188 0)"/>
      <use xlink:href="#Arial-BoldMT-74" transform="translate(822.607422 0)"/>
      <use xlink:href="#Arial-BoldMT-65" transform="translate(855.908203 0)"/>
      <use xlink:href="#Arial-BoldMT-20" transform="translate(911.523438 0)"/>
      <use xlink:href="#Arial-BoldMT-28" transform="translate(939.306641 0)"/>
      <use xlink:href="#Arial-BoldMT-46" transform="translate(972.607422 0)"/>
      <use xlink:href="#Arial-BoldMT-50" transform="translate(1033.691406 0)"/>
      <use xlink:href="#Arial-BoldMT-52" transform="translate(1100.390625 0)"/>
      <use xlink:href="#Arial-BoldMT-29" transform="translate(1172.607422 0)"/>
     </g>
    </g>
   </g>
   <g id="matplotlib.axis_2">
    <g id="ytick_1">
     <g id="line2d_13">
      <path d="M 35.655938 265.022801 
L 289.19952 265.022801 
" clip-path="url(#pcb3e65a9bd)" style="fill: none; stroke: #c0c0c0; stroke-width: 0.25; stroke-linecap: round"/>
     </g>
     <g id="line2d_14"/>
     <g id="text_8">
      <!-- 0.0 -->
      <g style="fill: #333333" transform="translate(19.645938 268.243817) scale(0.09 -0.09)">
       <use xlink:href="#ArialMT-30"/>
       <use xlink:href="#ArialMT-2e" transform="translate(55.615234 0)"/>
       <use xlink:href="#ArialMT-30" transform="translate(83.398438 0)"/>
      </g>
     </g>
    </g>
    <g id="ytick_2">
     <g id="line2d_15">
      <path d="M 35.655938 217.397348 
L 289.19952 217.397348 
" clip-path="url(#pcb3e65a9bd)" style="fill: none; stroke: #c0c0c0; stroke-width: 0.25; stroke-linecap: round"/>
     </g>
     <g id="line2d_16"/>
     <g id="text_9">
      <!-- 0.2 -->
      <g style="fill: #333333" transform="translate(19.645938 220.618364) scale(0.09 -0.09)">
       <use xlink:href="#ArialMT-30"/>
       <use xlink:href="#ArialMT-2e" transform="translate(55.615234 0)"/>
       <use xlink:href="#ArialMT-32" transform="translate(83.398438 0)"/>
      </g>
     </g>
    </g>
    <g id="ytick_3">
     <g id="line2d_17">
      <path d="M 35.655938 169.771895 
L 289.19952 169.771895 
" clip-path="url(#pcb3e65a9bd)" style="fill: none; stroke: #c0c0c0; stroke-width: 0.25; stroke-linecap: round"/>
     </g>
     <g id="line2d_18"/>
     <g id="text_10">
      <!-- 0.4 -->
      <g style="fill: #333333" transform="translate(19.645938 172.992911) scale(0.09 -0.09)">
       <use xlink:href="#ArialMT-30"/>
       <use xlink:href="#ArialMT-2e" transform="translate(55.615234 0)"/>
       <use xlink:href="#ArialMT-34" transform="translate(83.398438 0)"/>
      </g>
     </g>
    </g>
    <g id="ytick_4">
     <g id="line2d_19">
      <path d="M 35.655938 122.146443 
L 289.19952 122.146443 
" clip-path="url(#pcb3e65a9bd)" style="fill: none; stroke: #c0c0c0; stroke-width: 0.25; stroke-linecap: round"/>
     </g>
     <g id="line2d_20"/>
     <g id="text_11">
      <!-- 0.6 -->
      <g style="fill: #333333" transform="translate(19.645938 125.367458) scale(0.09 -0.09)">
       <use xlink:href="#ArialMT-30"/>
       <use xlink:href="#ArialMT-2e" transform="translate(55.615234 0)"/>
       <use xlink:href="#ArialMT-36" transform="translate(83.398438 0)"/>
      </g>
     </g>
    </g>
    <g id="ytick_5">
     <g id="line2d_21">
      <path d="M 35.655938 74.52099 
L 289.19952 74.52099 
" clip-path="url(#pcb3e65a9bd)" style="fill: none; stroke: #c0c0c0; stroke-width: 0.25; stroke-linecap: round"/>
     </g>
     <g id="line2d_22"/>
     <g id="text_12">
      <!-- 0.8 -->
      <g style="fill: #333333" transform="translate(19.645938 77.742005) scale(0.09 -0.09)">
       <use xlink:href="#ArialMT-30"/>
       <use xlink:href="#ArialMT-2e" transform="translate(55.615234 0)"/>
       <use xlink:href="#ArialMT-38" transform="translate(83.398438 0)"/>
      </g>
     </g>
    </g>
    <g id="ytick_6">
     <g id="line2d_23">
      <path d="M 35.655938 26.895537 
L 289.19952 26.895537 
" clip-path="url(#pcb3e65a9bd)" style="fill: none; stroke: #c0c0c0; stroke-width: 0.25; stroke-linecap: round"/>
     </g>
     <g id="line2d_24"/>
     <g id="text_13">
      <!-- 1.0 -->
      <g style="fill: #333333" transform="translate(19.645938 30.116552) scale(0.09 -0.09)">
       <use xlink:href="#ArialMT-31"/>
       <use xlink:href="#ArialMT-2e" transform="translate(55.615234 0)"/>
       <use xlink:href="#ArialMT-30" transform="translate(83.398438 0)"/>
      </g>
     </g>
    </g>
    <g id="text_14">
     <!-- True Positive Rate (TPR) -->
     <g style="fill: #333333" transform="translate(13.751719 194.647026) rotate(-90) scale(0.09 -0.09)">
      <defs>
       <path id="Arial-BoldMT-54" d="M 1497 0 
L 1497 3806 
L 138 3806 
L 138 4581 
L 3778 4581 
L 3778 3806 
L 2422 3806 
L 2422 0 
L 1497 0 
z
" transform="scale(0.015625)"/>
       <path id="Arial-BoldMT-72" d="M 1300 0 
L 422 0 
L 422 3319 
L 1238 3319 
L 1238 2847 
Q 1447 3181 1614 3287 
Q 1781 3394 1994 3394 
Q 2294 3394 2572 3228 
L 2300 2463 
Q 2078 2606 1888 2606 
Q 1703 2606 1575 2504 
Q 1447 2403 1373 2137 
Q 1300 1872 1300 1025 
L 1300 0 
z
" transform="scale(0.015625)"/>
       <path id="Arial-BoldMT-75" d="M 2644 0 
L 2644 497 
Q 2463 231 2167 78 
Q 1872 -75 1544 -75 
Q 1209 -75 943 72 
Q 678 219 559 484 
Q 441 750 441 1219 
L 441 3319 
L 1319 3319 
L 1319 1794 
Q 1319 1094 1367 936 
Q 1416 778 1544 686 
Q 1672 594 1869 594 
Q 2094 594 2272 717 
Q 2450 841 2515 1023 
Q 2581 1206 2581 1919 
L 2581 3319 
L 3459 3319 
L 3459 0 
L 2644 0 
z
" transform="scale(0.015625)"/>
      </defs>
      <use xlink:href="#Arial-BoldMT-54"/>
      <use xlink:href="#Arial-BoldMT-72" transform="translate(55.583984 0)"/>
      <use xlink:href="#Arial-BoldMT-75" transform="translate(94.5 0)"/>
      <use xlink:href="#Arial-BoldMT-65" transform="translate(155.583984 0)"/>
      <use xlink:href="#Arial-BoldMT-20" transform="translate(211.199219 0)"/>
      <use xlink:href="#Arial-BoldMT-50" transform="translate(238.982422 0)"/>
      <use xlink:href="#Arial-BoldMT-6f" transform="translate(305.681641 0)"/>
      <use xlink:href="#Arial-BoldMT-73" transform="translate(366.765625 0)"/>
      <use xlink:href="#Arial-BoldMT-69" transform="translate(422.380859 0)"/>
      <use xlink:href="#Arial-BoldMT-74" transform="translate(450.164062 0)"/>
      <use xlink:href="#Arial-BoldMT-69" transform="translate(483.464844 0)"/>
      <use xlink:href="#Arial-BoldMT-76" transform="translate(511.248047 0)"/>
      <use xlink:href="#Arial-BoldMT-65" transform="translate(566.863281 0)"/>
      <use xlink:href="#Arial-BoldMT-20" transform="translate(622.478516 0)"/>
      <use xlink:href="#Arial-BoldMT-52" transform="translate(650.261719 0)"/>
      <use xlink:href="#Arial-BoldMT-61" transform="translate(722.478516 0)"/>
      <use xlink:href="#Arial-BoldMT-74" transform="translate(778.09375 0)"/>
      <use xlink:href="#Arial-BoldMT-65" transform="translate(811.394531 0)"/>
      <use xlink:href="#Arial-BoldMT-20" transform="translate(867.009766 0)"/>
      <use xlink:href="#Arial-BoldMT-28" transform="translate(894.792969 0)"/>
      <use xlink:href="#Arial-BoldMT-54" transform="translate(928.09375 0)"/>
      <use xlink:href="#Arial-BoldMT-50" transform="translate(989.177734 0)"/>
      <use xlink:href="#Arial-BoldMT-52" transform="translate(1055.876953 0)"/>
      <use xlink:href="#Arial-BoldMT-29" transform="translate(1128.09375 0)"/>
     </g>
    </g>
   </g>
   <g id="line2d_25">
    <path d="M 42.831699 265.022801 
L 42.942752 243.362713 
L 42.943631 243.273577 
L 43.054684 233.513167 
L 43.055753 233.424031 
L 43.166711 226.738818 
L 43.168943 226.649682 
L 43.279782 221.078672 
L 43.285292 220.989536 
L 43.39473 216.800136 
L 43.399932 216.711 
L 43.505427 212.29876 
L 43.517231 212.209624 
L 43.626004 208.822449 
L 43.635622 208.733313 
L 43.74544 205.568979 
L 43.750523 205.479843 
L 43.859937 203.028599 
L 43.863214 202.939462 
L 43.971227 200.131673 
L 43.979587 200.042537 
L 44.0876 198.259814 
L 44.096126 198.170678 
L 44.203973 196.120546 
L 44.217178 196.03141 
L 44.326616 194.025846 
L 44.336876 193.93671 
L 44.444746 191.931146 
L 44.453843 191.84201 
L 44.561262 190.148423 
L 44.570975 190.059287 
L 44.677326 188.766812 
L 44.686707 188.677676 
L 44.787738 186.984089 
L 44.81049 186.894953 
L 44.914086 185.468774 
L 44.916437 185.468774 
L 44.930235 185.379638 
L 45.041336 183.552347 
L 45.047677 183.46321 
L 45.153576 182.0816 
L 45.161841 181.992464 
L 45.267978 180.699989 
L 45.296952 180.610853 
L 45.404657 179.273811 
L 45.424013 179.184674 
L 45.533997 177.847632 
L 45.54105 177.758496 
L 45.633769 176.510589 
L 45.664667 176.421453 
L 45.77287 175.485524 
L 45.787619 175.396387 
L 45.896035 174.505026 
L 45.910475 174.41589 
L 46.017182 173.034279 
L 46.030054 172.945143 
L 46.140561 171.697237 
L 46.151699 171.6081 
L 46.252873 170.805875 
L 46.277643 170.716739 
L 46.387651 169.602537 
L 46.405084 169.513401 
L 46.503811 168.666607 
L 46.52756 168.577471 
L 46.638518 167.730677 
L 46.658373 167.641541 
L 46.756197 166.705611 
L 46.776242 166.616475 
L 46.877676 165.234865 
L 46.905725 165.145728 
L 47.01635 164.521775 
L 47.040646 164.432639 
L 47.148873 163.363005 
L 47.162101 163.273869 
L 47.269592 162.204235 
L 47.283557 162.115099 
L 47.388007 161.045465 
L 47.417053 160.956329 
L 47.524472 160.020399 
L 47.540384 159.931263 
L 47.64949 158.995333 
L 47.689936 158.906197 
L 47.795146 157.747427 
L 47.820392 157.658291 
L 47.929996 156.722361 
L 47.943248 156.633225 
L 48.012312 156.232112 
L 48.057175 156.142976 
L 48.164048 155.207046 
L 48.180697 155.11791 
L 48.270185 154.672229 
L 48.288995 154.672229 
L 48.311652 154.583093 
L 48.385679 153.870004 
L 48.419071 153.870004 
L 48.428903 153.780867 
L 48.536109 153.156914 
L 48.582183 153.067778 
L 48.687228 152.532961 
L 48.696656 152.443825 
L 48.806355 151.775304 
L 48.816591 151.686168 
L 48.910545 151.062214 
L 48.92052 151.062214 
L 48.968731 150.973078 
L 49.075937 150.259989 
L 49.089165 150.170853 
L 49.191835 149.636036 
L 49.19573 149.636036 
L 49.227388 149.5469 
L 49.328941 148.922946 
L 49.353973 148.83381 
L 49.463696 148.432698 
L 49.473196 148.343561 
L 49.578288 147.585904 
L 49.624766 147.496768 
L 49.723991 146.872815 
L 49.762632 146.783678 
L 49.864684 146.29343 
L 49.879789 146.204293 
L 49.984215 145.179228 
L 50.003928 145.090091 
L 50.111133 144.510706 
L 50.131035 144.42157 
L 50.24045 143.574777 
L 50.275409 143.48564 
L 50.372355 142.906255 
L 50.431491 142.817119 
L 50.540359 141.881189 
L 50.552448 141.792053 
L 50.662313 141.257236 
L 50.68972 141.1681 
L 50.789445 140.588715 
L 50.82457 140.499579 
L 50.927026 139.831058 
L 50.927335 139.831058 
L 50.980795 139.741921 
L 51.081446 138.984264 
L 51.088119 138.984264 
L 51.118258 138.895128 
L 51.207556 138.538583 
L 51.224181 138.538583 
L 51.24318 138.449447 
L 51.353663 137.91463 
L 51.366488 137.825494 
L 51.452628 137.424381 
L 51.466664 137.424381 
L 51.492005 137.335245 
L 51.578809 136.711292 
L 51.591729 136.711292 
L 51.632008 136.622156 
L 51.732398 136.221043 
L 51.774054 136.131907 
L 51.874919 135.641658 
L 51.914747 135.552522 
L 52.006492 134.973137 
L 52.023401 134.973137 
L 52.036368 134.884 
L 52.132554 134.43832 
L 52.189814 134.349183 
L 52.293268 133.948071 
L 52.333167 133.858935 
L 52.438805 133.324118 
L 52.457092 133.234981 
L 52.567076 132.789301 
L 52.58686 132.700164 
L 52.69587 131.942507 
L 52.722992 131.853371 
L 52.80823 131.585962 
L 52.820627 131.585962 
L 52.902254 131.496826 
L 53.012428 130.872873 
L 53.041593 130.783737 
L 53.151316 130.293488 
L 53.227813 130.204352 
L 53.307802 129.714103 
L 53.323833 129.714103 
L 53.375346 129.624967 
L 53.482124 129.09015 
L 53.552066 129.001014 
L 53.645307 128.37706 
L 53.705868 128.287924 
L 53.816779 127.93138 
L 53.851952 127.842243 
L 53.946475 127.441131 
L 53.961984 127.441131 
L 54.02169 127.351995 
L 54.123647 126.906314 
L 54.125713 126.906314 
L 54.139037 126.817178 
L 54.248807 126.193224 
L 54.278969 126.104088 
L 54.344376 125.702975 
L 54.385059 125.702975 
L 54.474381 125.613839 
L 54.579924 125.390999 
L 54.635783 125.301863 
L 54.723324 124.856182 
L 54.743867 124.856182 
L 54.780418 124.767046 
L 54.885818 124.410501 
L 54.889761 124.410501 
L 54.932249 124.321365 
L 55.021286 123.920252 
L 55.036319 123.920252 
L 55.053158 123.831116 
L 55.113197 123.563708 
L 55.144499 123.563708 
L 55.208908 123.474571 
L 55.302718 123.118027 
L 55.318821 123.118027 
L 55.34941 123.028891 
L 55.459988 122.627778 
L 55.524444 122.538642 
L 55.635379 122.092961 
L 55.697413 122.003825 
L 55.808513 121.64728 
L 55.850075 121.558144 
L 55.939991 121.246167 
L 55.98521 121.157031 
L 56.09213 120.71135 
L 56.113838 120.622214 
L 56.217314 120.087397 
L 56.243463 119.998261 
L 56.354563 119.597148 
L 56.372518 119.508012 
L 56.481647 119.106899 
L 56.551281 119.017763 
L 56.660481 118.661218 
L 56.678935 118.572082 
L 56.774384 117.992697 
L 56.820672 117.903561 
L 56.921869 117.680721 
L 56.928519 117.680721 
L 56.946735 117.591584 
L 57.043918 117.145904 
L 57.057788 117.145904 
L 57.121437 117.056767 
L 57.209405 116.611087 
L 57.256263 116.521951 
L 57.321551 116.209974 
L 57.330789 116.209974 
L 57.45481 116.120838 
L 57.559118 115.675157 
L 57.626852 115.586021 
L 57.728333 115.184908 
L 57.756405 115.095772 
L 57.865273 114.516387 
L 57.952529 114.427251 
L 58.041092 114.070706 
L 58.10341 113.98157 
L 58.190334 113.357617 
L 58.234603 113.26848 
L 58.345181 112.555391 
L 58.375699 112.466255 
L 58.46875 112.243415 
L 58.485019 112.243415 
L 58.53931 112.154278 
L 58.634973 111.88687 
L 58.697435 111.797734 
L 58.799534 111.307485 
L 58.800199 111.307485 
L 58.859763 111.218349 
L 58.950225 110.594396 
L 58.95678 110.594396 
L 58.997582 110.505259 
L 59.073628 110.237851 
L 59.107352 110.237851 
L 59.176844 110.148715 
L 59.274312 109.925874 
L 59.276378 109.925874 
L 59.344729 109.836738 
L 59.455307 109.524762 
L 59.474616 109.435625 
L 59.565102 109.079081 
L 59.584196 109.079081 
L 59.624309 108.989945 
L 59.733272 108.811672 
L 59.750895 108.722536 
L 59.846368 108.499696 
L 59.86152 108.499696 
L 59.893463 108.410559 
L 59.989578 108.143151 
L 60.051398 108.054015 
L 60.151621 107.652902 
L 60.232631 107.563766 
L 60.32903 107.385494 
L 60.507318 107.296357 
L 60.59854 106.850677 
L 60.625876 106.76154 
L 60.696246 106.5387 
L 60.856152 106.449564 
L 60.966683 106.226723 
L 61.006891 106.137587 
L 61.102198 105.781043 
L 61.153378 105.691906 
L 61.22807 105.424498 
L 61.315136 105.335362 
L 61.425002 105.112521 
L 61.474567 105.023385 
L 61.577094 104.622272 
L 61.693158 104.533136 
L 61.769798 104.22116 
L 61.79255 104.22116 
L 61.883297 104.132024 
L 61.99055 103.953751 
L 62.097186 103.864615 
L 62.189192 103.641775 
L 62.204273 103.641775 
L 62.281981 103.552639 
L 62.378381 103.374366 
L 62.385767 103.374366 
L 62.530022 103.28523 
L 62.630031 102.973253 
L 62.634449 102.973253 
L 62.652427 102.884117 
L 62.740681 102.527573 
L 62.755002 102.527573 
L 62.849074 102.438436 
L 62.932506 102.12646 
L 62.956018 102.12646 
L 62.972975 102.037324 
L 63.083458 101.591643 
L 63.127324 101.502507 
L 63.215696 101.235098 
L 63.291884 101.145962 
L 63.398876 100.611145 
L 63.401489 100.611145 
L 63.523253 100.522009 
L 63.632501 100.299168 
L 63.683729 100.210032 
L 63.763717 99.853488 
L 63.77051 99.853488 
L 63.831831 99.764352 
L 63.927138 99.541511 
L 64.017339 99.452375 
L 64.095024 99.363239 
L 64.194701 99.274103 
L 64.297323 98.917558 
L 64.363465 98.828422 
L 64.472666 98.561013 
L 64.535317 98.471877 
L 64.641881 98.115332 
L 64.64523 98.115332 
L 64.733507 98.026196 
L 64.824278 97.803356 
L 64.825917 97.803356 
L 64.872537 97.71422 
L 64.965208 97.446811 
L 64.976988 97.446811 
L 65.060301 97.357675 
L 65.060301 97.313107 
L 65.123546 97.313107 
L 65.246356 97.223971 
L 65.356981 97.00113 
L 65.450032 96.911994 
L 65.517908 96.644586 
L 65.518146 96.644586 
L 65.608774 96.55545 
L 65.709045 96.243473 
L 65.816844 96.154337 
L 65.906024 96.020633 
L 65.924596 96.020633 
L 65.986178 95.931496 
L 66.095616 95.574952 
L 66.162733 95.485816 
L 66.272883 95.262975 
L 66.325536 95.173839 
L 66.325536 95.129271 
L 66.4283 95.129271 
L 66.487413 95.040135 
L 66.596732 94.728158 
L 66.686126 94.639022 
L 66.789816 94.327045 
L 66.894908 94.237909 
L 66.997055 93.970501 
L 67.001948 93.970501 
L 67.014084 93.881365 
L 67.109961 93.703092 
L 67.205244 93.613956 
L 67.315442 93.391116 
L 67.413314 93.30198 
L 67.521208 92.945435 
L 67.554481 92.856299 
L 67.6548 92.544322 
L 67.716976 92.455186 
L 67.799007 92.232346 
L 67.825773 92.232346 
L 67.857027 92.143209 
L 67.955944 91.697529 
L 67.963924 91.697529 
L 68.078729 91.608392 
L 68.101102 91.519256 
L 68.1847 91.519256 
L 68.234289 91.43012 
L 68.324989 91.162712 
L 68.342658 91.162712 
L 68.433144 91.073575 
L 68.539329 90.806167 
L 68.638056 90.717031 
L 68.638056 90.672463 
L 68.748349 90.672463 
L 68.884861 90.583327 
L 68.992376 90.226782 
L 69.191587 90.137646 
L 69.236355 89.959373 
L 69.295491 89.959373 
L 69.427183 89.870237 
L 69.486604 89.691965 
L 69.525031 89.691965 
L 69.547474 89.602829 
L 69.547474 89.558261 
L 69.649027 89.558261 
L 69.76806 89.469124 
L 69.870872 89.157148 
L 70.044244 89.068012 
L 70.13568 88.889739 
L 70.138435 88.889739 
L 70.209969 88.800603 
L 70.28098 88.533195 
L 70.316272 88.533195 
L 70.401105 88.444059 
L 70.487744 88.221218 
L 70.506363 88.221218 
L 70.710918 88.132082 
L 70.768297 87.95381 
L 70.774187 87.95381 
L 71.006672 87.864673 
L 71.108534 87.552697 
L 71.200207 87.463561 
L 71.272049 87.062448 
L 71.294255 87.062448 
L 71.361894 86.973312 
L 71.453591 86.750471 
L 71.641878 86.661335 
L 71.709635 86.527631 
L 71.746305 86.527631 
L 71.822375 86.438495 
L 71.918062 86.171086 
L 71.930388 86.171086 
L 72.035527 86.08195 
L 72.119624 85.85911 
L 72.143398 85.85911 
L 72.244024 85.769974 
L 72.347929 85.636269 
L 72.506885 85.547133 
L 72.559775 85.413429 
L 72.608367 85.413429 
L 72.75654 85.324293 
L 72.854626 85.190589 
L 72.857333 85.190589 
L 72.999617 85.101452 
L 73.063955 84.878612 
L 73.106181 84.878612 
L 73.238039 84.789476 
L 73.306319 84.566635 
L 73.467911 84.477499 
L 73.525694 84.299227 
L 73.571103 84.299227 
L 73.646223 84.210091 
L 73.752764 83.942682 
L 73.889181 83.853546 
L 73.987861 83.630706 
L 74.046403 83.541569 
L 74.130263 83.274161 
L 74.230082 83.185025 
L 74.307126 83.006752 
L 74.508902 82.917616 
L 74.588915 82.783912 
L 74.612094 82.783912 
L 74.876593 82.694776 
L 74.986483 82.471936 
L 75.108365 82.382799 
L 75.152967 82.159959 
L 75.201321 82.159959 
L 75.348307 82.070823 
L 75.456914 81.89255 
L 75.457294 81.89255 
L 75.675315 81.803414 
L 75.709277 81.714278 
L 75.753071 81.714278 
L 75.848046 81.625142 
L 75.958078 81.402302 
L 76.089413 81.313165 
L 76.172465 81.179461 
L 76.184886 81.179461 
L 76.363744 81.090325 
L 76.413262 80.912053 
L 76.432927 80.912053 
L 76.642255 80.822916 
L 76.688139 80.689212 
L 76.752572 80.689212 
L 76.875286 80.600076 
L 76.939196 80.51094 
L 76.98071 80.51094 
L 77.018757 80.421804 
L 77.046568 80.288099 
L 77.107747 80.288099 
L 77.191084 80.198963 
L 77.297577 80.020691 
L 77.413689 79.931555 
L 77.516999 79.708714 
L 77.543053 79.619578 
L 77.543053 79.57501 
L 77.63057 79.57501 
L 77.856167 79.485874 
L 77.947769 79.35217 
L 78.015479 79.263034 
L 78.015479 79.218465 
L 78.118267 79.218465 
L 78.250624 79.129329 
L 78.356119 78.951057 
L 78.438317 78.861921 
L 78.542815 78.594512 
L 78.580909 78.505376 
L 78.677736 78.41624 
L 78.681726 78.41624 
L 78.789739 78.327104 
L 78.857354 78.1934 
L 78.900792 78.1934 
L 79.045878 78.104263 
L 79.127125 77.970559 
L 79.144629 77.970559 
L 79.200892 77.881423 
L 79.284823 77.747719 
L 79.311897 77.747719 
L 79.511489 77.658583 
L 79.520181 77.569446 
L 79.59219 77.569446 
L 79.713122 77.48031 
L 79.823059 77.25747 
L 79.875593 77.168334 
L 79.931927 77.079198 
L 79.980068 77.079198 
L 80.096061 76.990061 
L 80.180965 76.900925 
L 80.202601 76.900925 
L 80.382457 76.811789 
L 80.473346 76.722653 
L 80.480732 76.722653 
L 80.551007 76.633517 
L 80.585634 76.544381 
L 80.618765 76.544381 
L 80.817668 76.455244 
L 80.912476 76.32154 
L 80.913165 76.32154 
L 81.297195 76.232404 
L 81.381886 76.054132 
L 81.383739 76.054132 
L 81.552717 75.964995 
L 81.596179 75.831291 
L 81.661395 75.831291 
L 81.761832 75.742155 
L 81.864905 75.519315 
L 81.970543 75.430178 
L 82.035641 75.251906 
L 82.076276 75.251906 
L 82.265608 75.16277 
L 82.334529 75.073634 
L 82.371365 75.073634 
L 82.520298 74.984498 
L 82.601474 74.806225 
L 82.752735 74.717089 
L 82.854312 74.494249 
L 83.128477 74.405113 
L 83.224093 74.315976 
L 83.518516 74.22684 
L 83.593138 74.093136 
L 83.60563 74.093136 
L 83.701887 74.004 
L 83.761688 73.870296 
L 83.80154 73.870296 
L 83.995812 73.781159 
L 84.091617 73.602887 
L 84.270309 73.513751 
L 84.295816 73.424615 
L 84.373715 73.424615 
L 84.572522 73.335479 
L 84.664053 73.112638 
L 84.850511 73.023502 
L 84.91967 72.889798 
L 84.948644 72.889798 
L 85.017803 72.800662 
L 85.108218 72.622389 
L 85.226039 72.533253 
L 85.33277 72.310413 
L 85.47503 72.221277 
L 85.507021 72.087572 
L 85.565065 72.087572 
L 85.879343 71.998436 
L 85.925274 71.9093 
L 85.984054 71.9093 
L 86.072189 71.820164 
L 86.072189 71.775596 
L 86.170916 71.775596 
L 86.664028 71.68646 
L 86.66543 71.597323 
L 86.707419 71.597323 
L 86.847066 71.508187 
L 86.88357 71.419051 
L 86.943181 71.419051 
L 87.050434 71.329915 
L 87.120187 71.240779 
L 87.148662 71.240779 
L 87.267648 71.151643 
L 87.378178 70.97337 
L 87.538868 70.884234 
L 87.642796 70.616826 
L 87.645123 70.616826 
L 87.734517 70.527689 
L 87.760594 70.393985 
L 87.819564 70.393985 
L 88.004051 70.304849 
L 88.03464 70.215713 
L 88.093064 70.215713 
L 88.166308 70.126577 
L 88.166308 70.082009 
L 88.275342 70.082009 
L 88.500749 69.992872 
L 88.525401 69.8146 
L 88.546253 69.8146 
L 88.816761 69.725464 
L 88.924608 69.413487 
L 89.116029 69.324351 
L 89.185639 69.190647 
L 89.354119 69.101511 
L 89.395229 68.967807 
L 89.765081 68.87867 
L 89.851269 68.744966 
L 89.86616 68.744966 
L 90.173313 68.65583 
L 90.275365 68.566694 
L 90.27831 68.566694 
L 90.598478 68.477558 
L 90.613867 68.388421 
L 90.693476 68.388421 
L 90.742115 68.299285 
L 90.742115 68.254717 
L 90.829181 68.254717 
L 91.160701 68.165581 
L 91.160701 68.121013 
L 91.239027 68.121013 
L 91.38409 68.031877 
L 91.473768 67.853604 
L 91.485144 67.853604 
L 92.620564 67.764468 
L 92.718768 67.675332 
L 92.984478 67.586196 
L 92.991247 67.49706 
L 93.026705 67.49706 
L 93.234751 67.407924 
L 93.238813 67.318787 
L 93.336875 67.318787 
L 93.484122 67.229651 
L 93.524211 67.140515 
L 93.592064 67.140515 
L 93.886582 67.051379 
L 93.993479 66.828539 
L 94.045681 66.739402 
L 94.126643 66.650266 
L 94.393137 66.56113 
L 94.494714 66.33829 
L 94.869031 66.249153 
L 94.973196 66.160017 
L 95.105291 66.070881 
L 95.165378 65.981745 
L 95.422016 65.892609 
L 95.493146 65.803473 
L 95.494594 65.803473 
L 95.825283 65.714337 
L 95.884206 65.6252 
L 95.890476 65.6252 
L 96.322053 65.536064 
L 96.322053 65.491496 
L 96.359055 65.491496 
L 96.819369 65.40236 
L 96.911019 65.224088 
L 97.473219 65.134951 
L 97.566127 65.045815 
L 97.882733 64.956679 
L 97.989154 64.822975 
L 98.36682 64.733839 
L 98.46151 64.644703 
L 98.612248 64.555566 
L 98.707555 64.46643 
L 98.979369 64.377294 
L 99.053539 64.288158 
L 99.408073 64.199022 
L 99.498915 64.020749 
L 99.518318 64.020749 
L 99.876295 63.931613 
L 99.933651 63.797909 
L 99.972505 63.797909 
L 100.313003 63.708773 
L 100.400021 63.619637 
L 100.407217 63.619637 
L 100.91959 63.5305 
L 100.968847 63.30766 
L 100.994805 63.30766 
L 101.08104 63.218524 
L 101.180836 63.129388 
L 101.232206 63.040252 
L 101.293907 62.951115 
L 101.341858 62.951115 
L 101.68549 62.861979 
L 101.783742 62.772843 
L 102.107283 62.683707 
L 102.140152 62.550003 
L 102.145852 62.550003 
L 102.410589 62.460866 
L 102.465593 62.238026 
L 102.720758 62.14889 
L 102.813856 61.970618 
L 102.977396 61.881481 
L 102.977396 61.836913 
L 103.068618 61.836913 
L 103.500551 61.747777 
L 103.509386 61.658641 
L 103.608232 61.658641 
L 103.907785 61.569505 
L 103.971648 61.480369 
L 104.216055 61.391233 
L 104.26163 61.302096 
L 104.289963 61.302096 
L 104.946758 61.21296 
L 105.039524 61.123824 
L 105.141172 61.034688 
L 105.141172 60.99012 
L 105.240421 60.99012 
L 105.389189 60.900984 
L 105.480268 60.767279 
L 106.092152 60.678143 
L 106.171238 60.589007 
L 106.351878 60.499871 
L 106.441532 60.321599 
L 106.736573 60.232462 
L 106.817013 60.143326 
L 107.075622 60.05419 
L 107.113764 59.920486 
L 107.143475 59.920486 
L 107.514775 59.83135 
L 107.571703 59.742213 
L 107.624831 59.742213 
L 107.972121 59.653077 
L 108.012281 59.519373 
L 108.388308 59.430237 
L 108.388308 59.385669 
L 108.39598 59.385669 
L 108.818627 59.296533 
L 108.850736 59.162828 
L 108.864915 59.162828 
L 109.539545 59.073692 
L 109.539545 59.029124 
L 109.600273 59.029124 
L 109.913411 58.939988 
L 110.009905 58.806284 
L 110.261603 58.717148 
L 110.351068 58.583443 
L 110.362777 58.583443 
L 110.708452 58.494307 
L 110.708452 58.449739 
L 110.759703 58.449739 
L 111.160857 58.360603 
L 111.266187 58.271467 
L 111.366125 58.182331 
L 111.387238 58.093194 
L 111.443905 58.093194 
L 111.873059 58.004058 
L 111.937207 57.914922 
L 111.967749 57.914922 
L 112.258467 57.825786 
L 112.32252 57.692082 
L 112.648079 57.602945 
L 112.725693 57.469241 
L 112.747305 57.469241 
L 113.049162 57.380105 
L 113.049162 57.335537 
L 113.147271 57.335537 
L 113.478768 57.246401 
L 113.478768 57.201833 
L 113.548995 57.201833 
L 114.207381 57.112697 
L 114.304921 57.02356 
L 114.585166 56.934424 
L 114.695055 56.756152 
L 115.10901 56.667016 
L 115.150453 56.533312 
L 115.172184 56.533312 
L 115.524105 56.444175 
L 115.629648 56.355039 
L 115.972829 56.265903 
L 116.0598 56.176767 
L 116.075641 56.176767 
L 116.504606 56.087631 
L 116.504606 56.043063 
L 116.602312 56.043063 
L 116.796607 55.953926 
L 116.866621 55.86479 
L 117.448034 55.775654 
L 117.45124 55.686518 
L 117.463804 55.686518 
L 117.728635 55.597382 
L 117.805703 55.508246 
L 118.046309 55.419109 
L 118.046309 55.374541 
L 118.730155 55.285405 
L 118.82482 55.196269 
L 119.013748 55.107133 
L 119.013748 55.062565 
L 119.024578 55.062565 
L 119.470619 54.973429 
L 119.536904 54.884292 
L 119.877259 54.795156 
L 119.877259 54.750588 
L 119.964111 54.750588 
L 120.206024 54.661452 
L 120.206024 54.616884 
L 120.547757 54.527748 
L 120.591979 54.438612 
L 121.07666 54.349475 
L 121.169996 54.126635 
L 121.628766 54.037499 
L 121.628766 53.992931 
L 121.718706 53.992931 
L 122.000019 53.903795 
L 122.110455 53.725522 
L 122.623564 53.636386 
L 122.652824 53.54725 
L 123.041937 53.458114 
L 123.041937 53.413546 
L 123.146696 53.413546 
L 123.382292 53.32441 
L 123.382292 53.279842 
L 123.411837 53.279842 
L 124.093616 53.190705 
L 124.179399 53.057001 
L 124.857212 52.967865 
L 124.857212 52.923297 
L 124.931215 52.923297 
L 125.664602 52.834161 
L 125.664602 52.789593 
L 125.92846 52.700456 
L 125.92846 52.655888 
L 126.2881 52.566752 
L 126.2881 52.522184 
L 126.356902 52.522184 
L 126.607935 52.433048 
L 126.607935 52.38848 
L 126.683245 52.38848 
L 127.045759 52.299344 
L 127.045759 52.254776 
L 127.050603 52.254776 
L 127.294037 52.165639 
L 127.294037 52.121071 
L 127.350656 52.121071 
L 128.078129 52.031935 
L 128.078129 51.987367 
L 128.369821 51.898231 
L 128.448788 51.764527 
L 128.737726 51.675391 
L 128.836001 51.586254 
L 129.103374 51.497118 
L 129.131921 51.407982 
L 129.203882 51.407982 
L 129.437815 51.318846 
L 129.483153 51.22971 
L 129.928577 51.140574 
L 129.928577 51.096005 
L 130.632633 51.006869 
L 130.632633 50.962301 
L 130.886373 50.873165 
L 130.886373 50.828597 
L 130.9775 50.828597 
L 131.675073 50.739461 
L 131.696709 50.605757 
L 132.294462 50.51662 
L 132.380839 50.427484 
L 132.753232 50.338348 
L 132.813983 50.249212 
L 133.345451 50.160076 
L 133.440853 50.026371 
L 133.898674 49.937235 
L 133.898674 49.892667 
L 134.86483 49.803531 
L 134.962132 49.669827 
L 135.269072 49.580691 
L 135.373831 49.491554 
L 135.623938 49.402418 
L 135.688394 49.268714 
L 135.980015 49.179578 
L 136.064112 49.045874 
L 136.182219 48.956738 
L 136.2576 48.823033 
L 136.609236 48.733897 
L 136.609236 48.689329 
L 136.676661 48.689329 
L 136.968211 48.600193 
L 137.049268 48.511057 
L 137.050646 48.511057 
L 137.586982 48.421921 
L 137.667968 48.332784 
L 138.376394 48.243648 
L 138.435198 48.154512 
L 138.616859 48.065376 
L 138.616859 48.020808 
L 139.286858 47.931672 
L 139.286858 47.887104 
L 139.338988 47.887104 
L 140.185851 47.797967 
L 140.208365 47.708831 
L 140.565321 47.619695 
L 140.565321 47.575127 
L 140.660676 47.575127 
L 141.02972 47.485991 
L 141.06696 47.396855 
L 141.310939 47.307718 
L 141.310939 47.26315 
L 141.354353 47.26315 
L 142.02117 47.174014 
L 142.106479 47.04031 
L 142.112178 47.04031 
L 142.979299 46.951174 
L 142.979299 46.906606 
L 144.763937 46.81747 
L 144.839864 46.683765 
L 145.319986 46.594629 
L 145.319986 46.550061 
L 146.063775 46.460925 
L 146.063775 46.416357 
L 146.327158 46.327221 
L 146.327158 46.282653 
L 146.348865 46.282653 
L 147.110133 46.193516 
L 147.110133 46.148948 
L 148.326064 46.059812 
L 148.388193 45.970676 
L 148.727598 45.88154 
L 148.770561 45.792404 
L 148.835279 45.792404 
L 148.912797 45.703267 
L 148.912797 45.658699 
L 148.960486 45.658699 
L 149.159864 45.569563 
L 149.201639 45.435859 
L 149.239283 45.435859 
L 149.975353 45.346723 
L 149.978203 45.257587 
L 150.660077 45.16845 
L 150.674493 45.079314 
L 150.707315 45.079314 
L 151.330409 44.990178 
L 151.330409 44.94561 
L 152.023326 44.856474 
L 152.124879 44.72277 
L 152.618277 44.633634 
L 152.682876 44.499929 
L 153.496726 44.410793 
L 153.496726 44.366225 
L 153.846605 44.277089 
L 153.898307 44.187953 
L 155.097566 44.098817 
L 155.097566 44.054248 
L 155.145587 44.054248 
L 155.577165 43.965112 
L 155.577165 43.920544 
L 155.62806 43.920544 
L 156.084907 43.831408 
L 156.119249 43.697704 
L 157.310527 43.608568 
L 157.375387 43.474863 
L 157.417851 43.474863 
L 157.620863 43.385727 
L 157.726643 43.207455 
L 157.911035 43.118319 
L 157.911035 43.073751 
L 157.915001 43.073751 
L 158.61483 42.984614 
L 158.61483 42.940046 
L 159.212037 42.85091 
L 159.212037 42.806342 
L 159.312616 42.806342 
L 159.777063 42.717206 
L 159.853964 42.62807 
L 160.173657 42.538934 
L 160.173657 42.494366 
L 160.746568 42.405229 
L 160.78851 42.316093 
L 160.824656 42.316093 
L 161.641784 42.226957 
L 161.716548 42.137821 
L 161.947037 42.048685 
L 161.947037 42.004117 
L 162.549825 41.91498 
L 162.658575 41.825844 
L 163.30955 41.736708 
L 163.42058 41.647572 
L 163.678666 41.558436 
L 163.678666 41.513868 
L 163.783663 41.513868 
L 164.179568 41.424732 
L 164.179568 41.380163 
L 164.572719 41.291027 
L 164.572719 41.246459 
L 165.072505 41.157323 
L 165.153277 41.068187 
L 165.362938 40.979051 
L 165.362938 40.934483 
L 165.859756 40.845346 
L 165.859756 40.800778 
L 165.905782 40.800778 
L 166.77694 40.711642 
L 166.77694 40.667074 
L 167.382317 40.577938 
L 167.463659 40.488802 
L 168.192439 40.399666 
L 168.192439 40.355098 
L 169.760694 40.265961 
L 169.760694 40.221393 
L 170.583783 40.132257 
L 170.583783 40.087689 
L 170.601263 40.087689 
L 171.816671 39.998553 
L 171.816671 39.953985 
L 172.613802 39.864849 
L 172.690703 39.775713 
L 173.31971 39.686576 
L 173.31971 39.642008 
L 173.890365 39.552872 
L 173.890365 39.508304 
L 174.43784 39.419168 
L 174.43784 39.3746 
L 174.494031 39.3746 
L 175.443468 39.285464 
L 175.503839 39.196327 
L 176.371293 39.107191 
L 176.371293 39.062623 
L 176.983177 38.973487 
L 176.983177 38.928919 
L 177.026638 38.928919 
L 178.592471 38.839783 
L 178.592471 38.795215 
L 178.873476 38.706079 
L 178.873476 38.66151 
L 179.937053 38.572374 
L 179.960328 38.483238 
L 180.021958 38.483238 
L 180.788048 38.394102 
L 180.788048 38.349534 
L 181.824337 38.260398 
L 181.824337 38.21583 
L 181.837233 38.21583 
L 182.090095 38.126693 
L 182.090095 38.082125 
L 182.41107 37.992989 
L 182.425249 37.903853 
L 182.922755 37.814717 
L 182.922755 37.770149 
L 183.902282 37.681013 
L 183.902282 37.636445 
L 184.207321 37.547308 
L 184.207321 37.50274 
L 184.738908 37.413604 
L 184.738908 37.369036 
L 185.843548 37.2799 
L 185.843548 37.235332 
L 185.925888 37.235332 
L 186.291489 37.146196 
L 186.291489 37.101628 
L 186.37162 37.101628 
L 186.853499 37.012491 
L 186.91197 36.923355 
L 186.951775 36.923355 
L 187.251399 36.834219 
L 187.270446 36.745083 
L 189.503856 36.655947 
L 189.503856 36.611379 
L 192.201261 36.522242 
L 192.201261 36.477674 
L 193.495328 36.388538 
L 193.526464 36.299402 
L 194.094435 36.210266 
L 194.100728 36.12113 
L 195.341453 36.031994 
L 195.341453 35.987426 
L 195.426857 35.987426 
L 196.129702 35.898289 
L 196.129702 35.853721 
L 196.231207 35.853721 
L 197.069496 35.764585 
L 197.160979 35.675449 
L 198.038455 35.586313 
L 198.038455 35.541745 
L 199.167129 35.452609 
L 199.167129 35.40804 
L 201.350594 35.318904 
L 201.376338 35.229768 
L 202.032254 35.140632 
L 202.032254 35.096064 
L 202.967322 35.006928 
L 202.967322 34.96236 
L 203.051325 34.96236 
L 204.438537 34.873223 
L 204.456753 34.784087 
L 205.994015 34.694951 
L 205.994015 34.650383 
L 206.883508 34.561247 
L 206.883508 34.516679 
L 208.431315 34.427543 
L 208.431315 34.382975 
L 208.787535 34.293838 
L 208.787535 34.24927 
L 210.014652 34.160134 
L 210.014652 34.115566 
L 210.096326 34.115566 
L 210.49254 34.02643 
L 210.49254 33.981862 
L 210.990759 33.892726 
L 210.990759 33.848158 
L 212.413596 33.759021 
L 212.441383 33.669885 
L 214.219585 33.580749 
L 214.219585 33.536181 
L 215.029089 33.447045 
L 215.029089 33.402477 
L 215.63551 33.313341 
L 215.63551 33.268772 
L 216.884263 33.179636 
L 216.937866 33.0905 
L 217.481493 33.001364 
L 217.481493 32.956796 
L 217.509328 32.956796 
L 218.797528 32.86766 
L 218.797528 32.823092 
L 220.722526 32.733955 
L 220.722526 32.689387 
L 220.76157 32.689387 
L 221.420241 32.600251 
L 221.420241 32.555683 
L 222.557656 32.466547 
L 222.557656 32.421979 
L 224.353195 32.332843 
L 224.353195 32.288275 
L 225.305909 32.199138 
L 225.305909 32.15457 
L 225.402569 32.15457 
L 227.418433 32.065434 
L 227.418433 32.020866 
L 228.50367 31.93173 
L 228.50367 31.887162 
L 230.235204 31.798026 
L 230.235204 31.753458 
L 230.289329 31.753458 
L 232.179296 31.664322 
L 232.280517 31.486049 
L 233.56639 31.396913 
L 233.598238 31.307777 
L 235.413893 31.218641 
L 235.458471 31.129505 
L 237.564488 31.040368 
L 237.564488 30.9958 
L 238.561162 30.906664 
L 238.648513 30.817528 
L 238.651624 30.817528 
L 239.202852 30.728392 
L 239.313858 30.639256 
L 240.649866 30.550119 
L 240.649866 30.505551 
L 242.007558 30.416415 
L 242.007558 30.371847 
L 243.516416 30.282711 
L 243.516416 30.238143 
L 243.607305 30.238143 
L 244.946282 30.149007 
L 244.946282 30.104439 
L 246.566336 30.015302 
L 246.566336 29.970734 
L 248.533323 29.881598 
L 248.533323 29.83703 
L 250.35824 29.747894 
L 250.372965 29.658758 
L 250.449533 29.658758 
L 250.626563 29.569622 
L 250.626563 29.525054 
L 252.022515 29.435917 
L 252.022515 29.391349 
L 252.550919 29.302213 
L 252.550919 29.257645 
L 254.974777 29.168509 
L 254.974777 29.123941 
L 257.091552 29.034805 
L 257.091552 28.990237 
L 258.401436 28.9011 
L 258.401436 28.856532 
L 259.649168 28.767396 
L 259.649168 28.722828 
L 260.515124 28.633692 
L 260.515124 28.589124 
L 260.591218 28.589124 
L 261.996836 28.499988 
L 261.996836 28.45542 
L 263.286296 28.366283 
L 263.286296 28.321715 
L 265.22248 28.232579 
L 265.305294 28.143443 
L 267.013934 28.054307 
L 267.013934 28.009739 
L 267.90193 27.920603 
L 267.90193 27.876035 
L 268.583733 27.786898 
L 268.583733 27.74233 
L 270.926153 27.653194 
L 270.926153 27.608626 
L 271.922068 27.51949 
L 271.922068 27.474922 
L 275.747815 27.385786 
L 275.80213 27.296649 
L 276.982983 27.207513 
L 277.050123 27.118377 
L 278.237863 27.029241 
L 278.237863 26.984673 
L 282.023758 26.895537 
L 282.023758 26.895537 
" clip-path="url(#pcb3e65a9bd)" style="fill: none; stroke: #1f77b4; stroke-width: 1.5; stroke-linecap: round"/>
   </g>
   <g id="line2d_26">
    <path d="M 42.831699 265.022801 
L 282.023758 26.895537 
" clip-path="url(#pcb3e65a9bd)" style="fill: none; stroke-dasharray: 5.55,2.4; stroke-dashoffset: 0; stroke: #999999; stroke-width: 1.5"/>
   </g>
   <g id="patch_3">
    <path d="M 35.655938 265.022801 
L 35.655938 19.751719 
" style="fill: none"/>
   </g>
   <g id="patch_4">
    <path d="M 289.19952 265.022801 
L 289.19952 19.751719 
" style="fill: none"/>
   </g>
   <g id="patch_5">
    <path d="M 35.655938 265.022801 
L 289.19952 265.022801 
" style="fill: none"/>
   </g>
   <g id="patch_6">
    <path d="M 35.655938 19.751719 
L 289.19952 19.751719 
" style="fill: none"/>
   </g>
   <g id="text_15">
    <!-- Model 2: Receiver Operating Characteristic (ROC) Curve -->
    <g style="fill: #333333" transform="translate(42.14976 13.751719) scale(0.09 -0.09)">
     <defs>
      <path id="Arial-BoldMT-4d" d="M 453 0 
L 453 4581 
L 1838 4581 
L 2669 1456 
L 3491 4581 
L 4878 4581 
L 4878 0 
L 4019 0 
L 4019 3606 
L 3109 0 
L 2219 0 
L 1313 3606 
L 1313 0 
L 453 0 
z
" transform="scale(0.015625)"/>
      <path id="Arial-BoldMT-64" d="M 3503 0 
L 2688 0 
L 2688 488 
Q 2484 203 2207 64 
Q 1931 -75 1650 -75 
Q 1078 -75 670 386 
Q 263 847 263 1672 
Q 263 2516 659 2955 
Q 1056 3394 1663 3394 
Q 2219 3394 2625 2931 
L 2625 4581 
L 3503 4581 
L 3503 0 
z
M 1159 1731 
Q 1159 1200 1306 963 
Q 1519 619 1900 619 
Q 2203 619 2415 876 
Q 2628 1134 2628 1647 
Q 2628 2219 2422 2470 
Q 2216 2722 1894 2722 
Q 1581 2722 1370 2473 
Q 1159 2225 1159 1731 
z
" transform="scale(0.015625)"/>
      <path id="Arial-BoldMT-32" d="M 3238 816 
L 3238 0 
L 159 0 
Q 209 463 459 877 
Q 709 1291 1447 1975 
Q 2041 2528 2175 2725 
Q 2356 2997 2356 3263 
Q 2356 3556 2198 3714 
Q 2041 3872 1763 3872 
Q 1488 3872 1325 3706 
Q 1163 3541 1138 3156 
L 263 3244 
Q 341 3969 753 4284 
Q 1166 4600 1784 4600 
Q 2463 4600 2850 4234 
Q 3238 3869 3238 3325 
Q 3238 3016 3127 2736 
Q 3016 2456 2775 2150 
Q 2616 1947 2200 1565 
Q 1784 1184 1673 1059 
Q 1563 934 1494 816 
L 3238 816 
z
" transform="scale(0.015625)"/>
      <path id="Arial-BoldMT-3a" d="M 628 2441 
L 628 3319 
L 1506 3319 
L 1506 2441 
L 628 2441 
z
M 628 0 
L 628 878 
L 1506 878 
L 1506 0 
L 628 0 
z
" transform="scale(0.015625)"/>
      <path id="Arial-BoldMT-63" d="M 3353 2338 
L 2488 2181 
Q 2444 2441 2289 2572 
Q 2134 2703 1888 2703 
Q 1559 2703 1364 2476 
Q 1169 2250 1169 1719 
Q 1169 1128 1367 884 
Q 1566 641 1900 641 
Q 2150 641 2309 783 
Q 2469 925 2534 1272 
L 3397 1125 
Q 3263 531 2881 228 
Q 2500 -75 1859 -75 
Q 1131 -75 698 384 
Q 266 844 266 1656 
Q 266 2478 700 2936 
Q 1134 3394 1875 3394 
Q 2481 3394 2839 3133 
Q 3197 2872 3353 2338 
z
" transform="scale(0.015625)"/>
      <path id="Arial-BoldMT-4f" d="M 278 2263 
Q 278 2963 488 3438 
Q 644 3788 914 4066 
Q 1184 4344 1506 4478 
Q 1934 4659 2494 4659 
Q 3506 4659 4114 4031 
Q 4722 3403 4722 2284 
Q 4722 1175 4119 548 
Q 3516 -78 2506 -78 
Q 1484 -78 881 545 
Q 278 1169 278 2263 
z
M 1231 2294 
Q 1231 1516 1590 1114 
Q 1950 713 2503 713 
Q 3056 713 3411 1111 
Q 3766 1509 3766 2306 
Q 3766 3094 3420 3481 
Q 3075 3869 2503 3869 
Q 1931 3869 1581 3476 
Q 1231 3084 1231 2294 
z
" transform="scale(0.015625)"/>
      <path id="Arial-BoldMT-70" d="M 434 3319 
L 1253 3319 
L 1253 2831 
Q 1413 3081 1684 3237 
Q 1956 3394 2288 3394 
Q 2866 3394 3269 2941 
Q 3672 2488 3672 1678 
Q 3672 847 3265 386 
Q 2859 -75 2281 -75 
Q 2006 -75 1782 34 
Q 1559 144 1313 409 
L 1313 -1263 
L 434 -1263 
L 434 3319 
z
M 1303 1716 
Q 1303 1156 1525 889 
Q 1747 622 2066 622 
Q 2372 622 2575 867 
Q 2778 1113 2778 1672 
Q 2778 2194 2568 2447 
Q 2359 2700 2050 2700 
Q 1728 2700 1515 2451 
Q 1303 2203 1303 1716 
z
" transform="scale(0.015625)"/>
      <path id="Arial-BoldMT-6e" d="M 3478 0 
L 2600 0 
L 2600 1694 
Q 2600 2231 2544 2389 
Q 2488 2547 2361 2634 
Q 2234 2722 2056 2722 
Q 1828 2722 1647 2597 
Q 1466 2472 1398 2265 
Q 1331 2059 1331 1503 
L 1331 0 
L 453 0 
L 453 3319 
L 1269 3319 
L 1269 2831 
Q 1703 3394 2363 3394 
Q 2653 3394 2893 3289 
Q 3134 3184 3257 3021 
Q 3381 2859 3429 2653 
Q 3478 2447 3478 2063 
L 3478 0 
z
" transform="scale(0.015625)"/>
      <path id="Arial-BoldMT-67" d="M 378 -219 
L 1381 -341 
Q 1406 -516 1497 -581 
Q 1622 -675 1891 -675 
Q 2234 -675 2406 -572 
Q 2522 -503 2581 -350 
Q 2622 -241 2622 53 
L 2622 538 
Q 2228 0 1628 0 
Q 959 0 569 566 
Q 263 1013 263 1678 
Q 263 2513 664 2953 
Q 1066 3394 1663 3394 
Q 2278 3394 2678 2853 
L 2678 3319 
L 3500 3319 
L 3500 341 
Q 3500 -247 3403 -537 
Q 3306 -828 3131 -993 
Q 2956 -1159 2664 -1253 
Q 2372 -1347 1925 -1347 
Q 1081 -1347 728 -1058 
Q 375 -769 375 -325 
Q 375 -281 378 -219 
z
M 1163 1728 
Q 1163 1200 1367 954 
Q 1572 709 1872 709 
Q 2194 709 2416 961 
Q 2638 1213 2638 1706 
Q 2638 2222 2425 2472 
Q 2213 2722 1888 2722 
Q 1572 2722 1367 2476 
Q 1163 2231 1163 1728 
z
" transform="scale(0.015625)"/>
      <path id="Arial-BoldMT-43" d="M 3397 1684 
L 4294 1400 
Q 4088 650 3608 286 
Q 3128 -78 2391 -78 
Q 1478 -78 890 545 
Q 303 1169 303 2250 
Q 303 3394 893 4026 
Q 1484 4659 2447 4659 
Q 3288 4659 3813 4163 
Q 4125 3869 4281 3319 
L 3366 3100 
Q 3284 3456 3026 3662 
Q 2769 3869 2400 3869 
Q 1891 3869 1573 3503 
Q 1256 3138 1256 2319 
Q 1256 1450 1568 1081 
Q 1881 713 2381 713 
Q 2750 713 3015 947 
Q 3281 1181 3397 1684 
z
" transform="scale(0.015625)"/>
      <path id="Arial-BoldMT-68" d="M 1334 4581 
L 1334 2897 
Q 1759 3394 2350 3394 
Q 2653 3394 2897 3281 
Q 3141 3169 3264 2994 
Q 3388 2819 3433 2606 
Q 3478 2394 3478 1947 
L 3478 0 
L 2600 0 
L 2600 1753 
Q 2600 2275 2550 2415 
Q 2500 2556 2373 2639 
Q 2247 2722 2056 2722 
Q 1838 2722 1666 2615 
Q 1494 2509 1414 2295 
Q 1334 2081 1334 1663 
L 1334 0 
L 456 0 
L 456 4581 
L 1334 4581 
z
" transform="scale(0.015625)"/>
     </defs>
     <use xlink:href="#Arial-BoldMT-4d"/>
     <use xlink:href="#Arial-BoldMT-6f" transform="translate(83.300781 0)"/>
     <use xlink:href="#Arial-BoldMT-64" transform="translate(144.384766 0)"/>
     <use xlink:href="#Arial-BoldMT-65" transform="translate(205.46875 0)"/>
     <use xlink:href="#Arial-BoldMT-6c" transform="translate(261.083984 0)"/>
     <use xlink:href="#Arial-BoldMT-20" transform="translate(288.867188 0)"/>
     <use xlink:href="#Arial-BoldMT-32" transform="translate(316.650391 0)"/>
     <use xlink:href="#Arial-BoldMT-3a" transform="translate(372.265625 0)"/>
     <use xlink:href="#Arial-BoldMT-20" transform="translate(405.566406 0)"/>
     <use xlink:href="#Arial-BoldMT-52" transform="translate(433.349609 0)"/>
     <use xlink:href="#Arial-BoldMT-65" transform="translate(505.566406 0)"/>
     <use xlink:href="#Arial-BoldMT-63" transform="translate(561.181641 0)"/>
     <use xlink:href="#Arial-BoldMT-65" transform="translate(616.796875 0)"/>
     <use xlink:href="#Arial-BoldMT-69" transform="translate(672.412109 0)"/>
     <use xlink:href="#Arial-BoldMT-76" transform="translate(700.195312 0)"/>
     <use xlink:href="#Arial-BoldMT-65" transform="translate(755.810547 0)"/>
     <use xlink:href="#Arial-BoldMT-72" transform="translate(811.425781 0)"/>
     <use xlink:href="#Arial-BoldMT-20" transform="translate(850.341797 0)"/>
     <use xlink:href="#Arial-BoldMT-4f" transform="translate(878.125 0)"/>
     <use xlink:href="#Arial-BoldMT-70" transform="translate(955.908203 0)"/>
     <use xlink:href="#Arial-BoldMT-65" transform="translate(1016.992188 0)"/>
     <use xlink:href="#Arial-BoldMT-72" transform="translate(1072.607422 0)"/>
     <use xlink:href="#Arial-BoldMT-61" transform="translate(1111.523438 0)"/>
     <use xlink:href="#Arial-BoldMT-74" transform="translate(1167.138672 0)"/>
     <use xlink:href="#Arial-BoldMT-69" transform="translate(1200.439453 0)"/>
     <use xlink:href="#Arial-BoldMT-6e" transform="translate(1228.222656 0)"/>
     <use xlink:href="#Arial-BoldMT-67" transform="translate(1289.306641 0)"/>
     <use xlink:href="#Arial-BoldMT-20" transform="translate(1350.390625 0)"/>
     <use xlink:href="#Arial-BoldMT-43" transform="translate(1378.173828 0)"/>
     <use xlink:href="#Arial-BoldMT-68" transform="translate(1450.390625 0)"/>
     <use xlink:href="#Arial-BoldMT-61" transform="translate(1511.474609 0)"/>
     <use xlink:href="#Arial-BoldMT-72" transform="translate(1567.089844 0)"/>
     <use xlink:href="#Arial-BoldMT-61" transform="translate(1606.005859 0)"/>
     <use xlink:href="#Arial-BoldMT-63" transform="translate(1661.621094 0)"/>
     <use xlink:href="#Arial-BoldMT-74" transform="translate(1717.236328 0)"/>
     <use xlink:href="#Arial-BoldMT-65" transform="translate(1750.537109 0)"/>
     <use xlink:href="#Arial-BoldMT-72" transform="translate(1806.152344 0)"/>
     <use xlink:href="#Arial-BoldMT-69" transform="translate(1845.068359 0)"/>
     <use xlink:href="#Arial-BoldMT-73" transform="translate(1872.851562 0)"/>
     <use xlink:href="#Arial-BoldMT-74" transform="translate(1928.466797 0)"/>
     <use xlink:href="#Arial-BoldMT-69" transform="translate(1961.767578 0)"/>
     <use xlink:href="#Arial-BoldMT-63" transform="translate(1989.550781 0)"/>
     <use xlink:href="#Arial-BoldMT-20" transform="translate(2045.166016 0)"/>
     <use xlink:href="#Arial-BoldMT-28" transform="translate(2072.949219 0)"/>
     <use xlink:href="#Arial-BoldMT-52" transform="translate(2106.25 0)"/>
     <use xlink:href="#Arial-BoldMT-4f" transform="translate(2178.466797 0)"/>
     <use xlink:href="#Arial-BoldMT-43" transform="translate(2256.25 0)"/>
     <use xlink:href="#Arial-BoldMT-29" transform="translate(2328.466797 0)"/>
     <use xlink:href="#Arial-BoldMT-20" transform="translate(2361.767578 0)"/>
     <use xlink:href="#Arial-BoldMT-43" transform="translate(2389.550781 0)"/>
     <use xlink:href="#Arial-BoldMT-75" transform="translate(2461.767578 0)"/>
     <use xlink:href="#Arial-BoldMT-72" transform="translate(2522.851562 0)"/>
     <use xlink:href="#Arial-BoldMT-76" transform="translate(2561.767578 0)"/>
     <use xlink:href="#Arial-BoldMT-65" transform="translate(2617.382812 0)"/>
    </g>
   </g>
   <g id="legend_1">
    <g id="patch_7">
     <path d="M 182.577645 260.522801 
L 282.89952 260.522801 
Q 284.69952 260.522801 284.69952 258.722801 
L 284.69952 234.161239 
Q 284.69952 232.361239 282.89952 232.361239 
L 182.577645 232.361239 
Q 180.777645 232.361239 180.777645 234.161239 
L 180.777645 258.722801 
Q 180.777645 260.522801 182.577645 260.522801 
z
" style="fill: #ffffff; opacity: 0.8; stroke: #cccccc; stroke-width: 0.75; stroke-linejoin: miter"/>
    </g>
    <g id="line2d_27">
     <path d="M 184.377645 239.25327 
L 193.377645 239.25327 
L 202.377645 239.25327 
" style="fill: none; stroke: #1f77b4; stroke-width: 1.5; stroke-linecap: round"/>
    </g>
    <g id="text_16">
     <!-- ROC curve -->
     <g style="fill: #333333" transform="translate(209.577645 242.40327) scale(0.09 -0.09)">
      <defs>
       <path id="ArialMT-52" d="M 503 0 
L 503 4581 
L 2534 4581 
Q 3147 4581 3465 4457 
Q 3784 4334 3975 4021 
Q 4166 3709 4166 3331 
Q 4166 2844 3850 2509 
Q 3534 2175 2875 2084 
Q 3116 1969 3241 1856 
Q 3506 1613 3744 1247 
L 4541 0 
L 3778 0 
L 3172 953 
Q 2906 1366 2734 1584 
Q 2563 1803 2427 1890 
Q 2291 1978 2150 2013 
Q 2047 2034 1813 2034 
L 1109 2034 
L 1109 0 
L 503 0 
z
M 1109 2559 
L 2413 2559 
Q 2828 2559 3062 2645 
Q 3297 2731 3419 2920 
Q 3541 3109 3541 3331 
Q 3541 3656 3305 3865 
Q 3069 4075 2559 4075 
L 1109 4075 
L 1109 2559 
z
" transform="scale(0.015625)"/>
       <path id="ArialMT-4f" d="M 309 2231 
Q 309 3372 921 4017 
Q 1534 4663 2503 4663 
Q 3138 4663 3647 4359 
Q 4156 4056 4423 3514 
Q 4691 2972 4691 2284 
Q 4691 1588 4409 1038 
Q 4128 488 3612 205 
Q 3097 -78 2500 -78 
Q 1853 -78 1343 234 
Q 834 547 571 1087 
Q 309 1628 309 2231 
z
M 934 2222 
Q 934 1394 1379 917 
Q 1825 441 2497 441 
Q 3181 441 3623 922 
Q 4066 1403 4066 2288 
Q 4066 2847 3877 3264 
Q 3688 3681 3323 3911 
Q 2959 4141 2506 4141 
Q 1863 4141 1398 3698 
Q 934 3256 934 2222 
z
" transform="scale(0.015625)"/>
       <path id="ArialMT-43" d="M 3763 1606 
L 4369 1453 
Q 4178 706 3683 314 
Q 3188 -78 2472 -78 
Q 1731 -78 1267 223 
Q 803 525 561 1097 
Q 319 1669 319 2325 
Q 319 3041 592 3573 
Q 866 4106 1370 4382 
Q 1875 4659 2481 4659 
Q 3169 4659 3637 4309 
Q 4106 3959 4291 3325 
L 3694 3184 
Q 3534 3684 3231 3912 
Q 2928 4141 2469 4141 
Q 1941 4141 1586 3887 
Q 1231 3634 1087 3207 
Q 944 2781 944 2328 
Q 944 1744 1114 1308 
Q 1284 872 1643 656 
Q 2003 441 2422 441 
Q 2931 441 3284 734 
Q 3638 1028 3763 1606 
z
" transform="scale(0.015625)"/>
       <path id="ArialMT-20" transform="scale(0.015625)"/>
       <path id="ArialMT-63" d="M 2588 1216 
L 3141 1144 
Q 3050 572 2676 248 
Q 2303 -75 1759 -75 
Q 1078 -75 664 370 
Q 250 816 250 1647 
Q 250 2184 428 2587 
Q 606 2991 970 3192 
Q 1334 3394 1763 3394 
Q 2303 3394 2647 3120 
Q 2991 2847 3088 2344 
L 2541 2259 
Q 2463 2594 2264 2762 
Q 2066 2931 1784 2931 
Q 1359 2931 1093 2626 
Q 828 2322 828 1663 
Q 828 994 1084 691 
Q 1341 388 1753 388 
Q 2084 388 2306 591 
Q 2528 794 2588 1216 
z
" transform="scale(0.015625)"/>
       <path id="ArialMT-75" d="M 2597 0 
L 2597 488 
Q 2209 -75 1544 -75 
Q 1250 -75 995 37 
Q 741 150 617 320 
Q 494 491 444 738 
Q 409 903 409 1263 
L 409 3319 
L 972 3319 
L 972 1478 
Q 972 1038 1006 884 
Q 1059 663 1231 536 
Q 1403 409 1656 409 
Q 1909 409 2131 539 
Q 2353 669 2445 892 
Q 2538 1116 2538 1541 
L 2538 3319 
L 3100 3319 
L 3100 0 
L 2597 0 
z
" transform="scale(0.015625)"/>
       <path id="ArialMT-72" d="M 416 0 
L 416 3319 
L 922 3319 
L 922 2816 
Q 1116 3169 1280 3281 
Q 1444 3394 1641 3394 
Q 1925 3394 2219 3213 
L 2025 2691 
Q 1819 2813 1613 2813 
Q 1428 2813 1281 2702 
Q 1134 2591 1072 2394 
Q 978 2094 978 1738 
L 978 0 
L 416 0 
z
" transform="scale(0.015625)"/>
       <path id="ArialMT-76" d="M 1344 0 
L 81 3319 
L 675 3319 
L 1388 1331 
Q 1503 1009 1600 663 
Q 1675 925 1809 1294 
L 2547 3319 
L 3125 3319 
L 1869 0 
L 1344 0 
z
" transform="scale(0.015625)"/>
       <path id="ArialMT-65" d="M 2694 1069 
L 3275 997 
Q 3138 488 2766 206 
Q 2394 -75 1816 -75 
Q 1088 -75 661 373 
Q 234 822 234 1631 
Q 234 2469 665 2931 
Q 1097 3394 1784 3394 
Q 2450 3394 2872 2941 
Q 3294 2488 3294 1666 
Q 3294 1616 3291 1516 
L 816 1516 
Q 847 969 1125 678 
Q 1403 388 1819 388 
Q 2128 388 2347 550 
Q 2566 713 2694 1069 
z
M 847 1978 
L 2700 1978 
Q 2663 2397 2488 2606 
Q 2219 2931 1791 2931 
Q 1403 2931 1139 2672 
Q 875 2413 847 1978 
z
" transform="scale(0.015625)"/>
      </defs>
      <use xlink:href="#ArialMT-52"/>
      <use xlink:href="#ArialMT-4f" transform="translate(72.216797 0)"/>
      <use xlink:href="#ArialMT-43" transform="translate(150 0)"/>
      <use xlink:href="#ArialMT-20" transform="translate(222.216797 0)"/>
      <use xlink:href="#ArialMT-63" transform="translate(250 0)"/>
      <use xlink:href="#ArialMT-75" transform="translate(300 0)"/>
      <use xlink:href="#ArialMT-72" transform="translate(355.615234 0)"/>
      <use xlink:href="#ArialMT-76" transform="translate(388.916016 0)"/>
      <use xlink:href="#ArialMT-65" transform="translate(438.916016 0)"/>
     </g>
    </g>
    <g id="line2d_28">
     <path d="M 184.377645 251.984051 
L 193.377645 251.984051 
L 202.377645 251.984051 
" style="fill: none; stroke-dasharray: 5.55,2.4; stroke-dashoffset: 0; stroke: #999999; stroke-width: 1.5"/>
    </g>
    <g id="text_17">
     <!-- Random classifier -->
     <g style="fill: #333333" transform="translate(209.577645 255.134051) scale(0.09 -0.09)">
      <defs>
       <path id="ArialMT-61" d="M 2588 409 
Q 2275 144 1986 34 
Q 1697 -75 1366 -75 
Q 819 -75 525 192 
Q 231 459 231 875 
Q 231 1119 342 1320 
Q 453 1522 633 1644 
Q 813 1766 1038 1828 
Q 1203 1872 1538 1913 
Q 2219 1994 2541 2106 
Q 2544 2222 2544 2253 
Q 2544 2597 2384 2738 
Q 2169 2928 1744 2928 
Q 1347 2928 1158 2789 
Q 969 2650 878 2297 
L 328 2372 
Q 403 2725 575 2942 
Q 747 3159 1072 3276 
Q 1397 3394 1825 3394 
Q 2250 3394 2515 3294 
Q 2781 3194 2906 3042 
Q 3031 2891 3081 2659 
Q 3109 2516 3109 2141 
L 3109 1391 
Q 3109 606 3145 398 
Q 3181 191 3288 0 
L 2700 0 
Q 2613 175 2588 409 
z
M 2541 1666 
Q 2234 1541 1622 1453 
Q 1275 1403 1131 1340 
Q 988 1278 909 1158 
Q 831 1038 831 891 
Q 831 666 1001 516 
Q 1172 366 1500 366 
Q 1825 366 2078 508 
Q 2331 650 2450 897 
Q 2541 1088 2541 1459 
L 2541 1666 
z
" transform="scale(0.015625)"/>
       <path id="ArialMT-6e" d="M 422 0 
L 422 3319 
L 928 3319 
L 928 2847 
Q 1294 3394 1984 3394 
Q 2284 3394 2536 3286 
Q 2788 3178 2913 3003 
Q 3038 2828 3088 2588 
Q 3119 2431 3119 2041 
L 3119 0 
L 2556 0 
L 2556 2019 
Q 2556 2363 2490 2533 
Q 2425 2703 2258 2804 
Q 2091 2906 1866 2906 
Q 1506 2906 1245 2678 
Q 984 2450 984 1813 
L 984 0 
L 422 0 
z
" transform="scale(0.015625)"/>
       <path id="ArialMT-64" d="M 2575 0 
L 2575 419 
Q 2259 -75 1647 -75 
Q 1250 -75 917 144 
Q 584 363 401 755 
Q 219 1147 219 1656 
Q 219 2153 384 2558 
Q 550 2963 881 3178 
Q 1213 3394 1622 3394 
Q 1922 3394 2156 3267 
Q 2391 3141 2538 2938 
L 2538 4581 
L 3097 4581 
L 3097 0 
L 2575 0 
z
M 797 1656 
Q 797 1019 1065 703 
Q 1334 388 1700 388 
Q 2069 388 2326 689 
Q 2584 991 2584 1609 
Q 2584 2291 2321 2609 
Q 2059 2928 1675 2928 
Q 1300 2928 1048 2622 
Q 797 2316 797 1656 
z
" transform="scale(0.015625)"/>
       <path id="ArialMT-6f" d="M 213 1659 
Q 213 2581 725 3025 
Q 1153 3394 1769 3394 
Q 2453 3394 2887 2945 
Q 3322 2497 3322 1706 
Q 3322 1066 3130 698 
Q 2938 331 2570 128 
Q 2203 -75 1769 -75 
Q 1072 -75 642 372 
Q 213 819 213 1659 
z
M 791 1659 
Q 791 1022 1069 705 
Q 1347 388 1769 388 
Q 2188 388 2466 706 
Q 2744 1025 2744 1678 
Q 2744 2294 2464 2611 
Q 2184 2928 1769 2928 
Q 1347 2928 1069 2612 
Q 791 2297 791 1659 
z
" transform="scale(0.015625)"/>
       <path id="ArialMT-6d" d="M 422 0 
L 422 3319 
L 925 3319 
L 925 2853 
Q 1081 3097 1340 3245 
Q 1600 3394 1931 3394 
Q 2300 3394 2536 3241 
Q 2772 3088 2869 2813 
Q 3263 3394 3894 3394 
Q 4388 3394 4653 3120 
Q 4919 2847 4919 2278 
L 4919 0 
L 4359 0 
L 4359 2091 
Q 4359 2428 4304 2576 
Q 4250 2725 4106 2815 
Q 3963 2906 3769 2906 
Q 3419 2906 3187 2673 
Q 2956 2441 2956 1928 
L 2956 0 
L 2394 0 
L 2394 2156 
Q 2394 2531 2256 2718 
Q 2119 2906 1806 2906 
Q 1569 2906 1367 2781 
Q 1166 2656 1075 2415 
Q 984 2175 984 1722 
L 984 0 
L 422 0 
z
" transform="scale(0.015625)"/>
       <path id="ArialMT-6c" d="M 409 0 
L 409 4581 
L 972 4581 
L 972 0 
L 409 0 
z
" transform="scale(0.015625)"/>
       <path id="ArialMT-73" d="M 197 991 
L 753 1078 
Q 800 744 1014 566 
Q 1228 388 1613 388 
Q 2000 388 2187 545 
Q 2375 703 2375 916 
Q 2375 1106 2209 1216 
Q 2094 1291 1634 1406 
Q 1016 1563 777 1677 
Q 538 1791 414 1992 
Q 291 2194 291 2438 
Q 291 2659 392 2848 
Q 494 3038 669 3163 
Q 800 3259 1026 3326 
Q 1253 3394 1513 3394 
Q 1903 3394 2198 3281 
Q 2494 3169 2634 2976 
Q 2775 2784 2828 2463 
L 2278 2388 
Q 2241 2644 2061 2787 
Q 1881 2931 1553 2931 
Q 1166 2931 1000 2803 
Q 834 2675 834 2503 
Q 834 2394 903 2306 
Q 972 2216 1119 2156 
Q 1203 2125 1616 2013 
Q 2213 1853 2448 1751 
Q 2684 1650 2818 1456 
Q 2953 1263 2953 975 
Q 2953 694 2789 445 
Q 2625 197 2315 61 
Q 2006 -75 1616 -75 
Q 969 -75 630 194 
Q 291 463 197 991 
z
" transform="scale(0.015625)"/>
       <path id="ArialMT-69" d="M 425 3934 
L 425 4581 
L 988 4581 
L 988 3934 
L 425 3934 
z
M 425 0 
L 425 3319 
L 988 3319 
L 988 0 
L 425 0 
z
" transform="scale(0.015625)"/>
       <path id="ArialMT-66" d="M 556 0 
L 556 2881 
L 59 2881 
L 59 3319 
L 556 3319 
L 556 3672 
Q 556 4006 616 4169 
Q 697 4388 901 4523 
Q 1106 4659 1475 4659 
Q 1713 4659 2000 4603 
L 1916 4113 
Q 1741 4144 1584 4144 
Q 1328 4144 1222 4034 
Q 1116 3925 1116 3625 
L 1116 3319 
L 1763 3319 
L 1763 2881 
L 1116 2881 
L 1116 0 
L 556 0 
z
" transform="scale(0.015625)"/>
      </defs>
      <use xlink:href="#ArialMT-52"/>
      <use xlink:href="#ArialMT-61" transform="translate(72.216797 0)"/>
      <use xlink:href="#ArialMT-6e" transform="translate(127.832031 0)"/>
      <use xlink:href="#ArialMT-64" transform="translate(183.447266 0)"/>
      <use xlink:href="#ArialMT-6f" transform="translate(239.0625 0)"/>
      <use xlink:href="#ArialMT-6d" transform="translate(294.677734 0)"/>
      <use xlink:href="#ArialMT-20" transform="translate(377.978516 0)"/>
      <use xlink:href="#ArialMT-63" transform="translate(405.761719 0)"/>
      <use xlink:href="#ArialMT-6c" transform="translate(455.761719 0)"/>
      <use xlink:href="#ArialMT-61" transform="translate(477.978516 0)"/>
      <use xlink:href="#ArialMT-73" transform="translate(533.59375 0)"/>
      <use xlink:href="#ArialMT-73" transform="translate(583.59375 0)"/>
      <use xlink:href="#ArialMT-69" transform="translate(633.59375 0)"/>
      <use xlink:href="#ArialMT-66" transform="translate(655.810547 0)"/>
      <use xlink:href="#ArialMT-69" transform="translate(683.59375 0)"/>
      <use xlink:href="#ArialMT-65" transform="translate(705.810547 0)"/>
      <use xlink:href="#ArialMT-72" transform="translate(761.425781 0)"/>
     </g>
    </g>
   </g>
  </g>
 </g>
 <defs>
  <clipPath id="pcb3e65a9bd">
   <rect x="35.655938" y="19.751719" width="253.543583" height="245.271083"/>
  </clipPath>
 </defs>
</svg>
