<?xml version="1.0" encoding="utf-8" standalone="no"?>
<!DOCTYPE svg PUBLIC "-//W3C//DTD SVG 1.1//EN"
  "http://www.w3.org/Graphics/SVG/1.1/DTD/svg11.dtd">
<svg xmlns:xlink="http://www.w3.org/1999/xlink" width="296.39952pt" height="296.39952pt" viewBox="0 0 296.39952 296.39952" xmlns="http://www.w3.org/2000/svg" version="1.1">
 <metadata>
  <rdf:RDF xmlns:dc="http://purl.org/dc/elements/1.1/" xmlns:cc="http://creativecommons.org/ns#" xmlns:rdf="http://www.w3.org/1999/02/22-rdf-syntax-ns#">
   <cc:Work>
    <dc:type rdf:resource="http://purl.org/dc/dcmitype/StillImage"/>
    <dc:date>2026-01-02T16:15:02.903885</dc:date>
    <dc:format>image/svg+xml</dc:format>
    <dc:creator>
     <cc:Agent>
      <dc:title>Matplotlib v3.10.8, https://matplotlib.org/</dc:title>
     </cc:Agent>
    </dc:creator>
   </cc:Work>
  </rdf:RDF>
 </metadata>
 <defs>
  <style type="text/css">*{stroke-linejoin: round; stroke-linecap: butt}</style>
 </defs>
 <g id="figure_1">
  <g id="patch_1">
   <path d="M 0 296.39952 
L 296.39952 296.39952 
L 296.39952 0 
L 0 0 
z
" style="fill: #ffffff"/>
  </g>
  <g id="axes_1">
   <g id="patch_2">
    <path d="M 35.655938 265.022801 
L 289.19952 265.022801 
L 289.19952 19.642031 
L 35.655938 19.642031 
z
" style="fill: #ffffff"/>
   </g>
   <g id="matplotlib.axis_1">
    <g id="xtick_1">
     <g id="line2d_1">
      <path d="M 42.831699 265.022801 
L 42.831699 19.642031 
" clip-path="url(#p7cbe54d862)" style="fill: none; stroke: #c0c0c0; stroke-width: 0.25; stroke-linecap: round"/>
     </g>
     <g id="line2d_2"/>
     <g id="text_1">
      <!-- 0.0 -->
      <g style="fill: #333333" transform="translate(36.576699 274.964832) scale(0.09 -0.09)">
       <defs>
        <path id="ArialMT-30" d="M 266 2259 
Q 266 3072 433 3567 
Q 600 4063 929 4331 
Q 1259 4600 1759 4600 
Q 2128 4600 2406 4451 
Q 2684 4303 2865 4023 
Q 3047 3744 3150 3342 
Q 3253 2941 3253 2259 
Q 3253 1453 3087 958 
Q 2922 463 2592 192 
Q 2263 -78 1759 -78 
Q 1097 -78 719 397 
Q 266 969 266 2259 
z
M 844 2259 
Q 844 1131 1108 757 
Q 1372 384 1759 384 
Q 2147 384 2411 759 
Q 2675 1134 2675 2259 
Q 2675 3391 2411 3762 
Q 2147 4134 1753 4134 
Q 1366 4134 1134 3806 
Q 844 3388 844 2259 
z
" transform="scale(0.015625)"/>
        <path id="ArialMT-2e" d="M 581 0 
L 581 641 
L 1222 641 
L 1222 0 
L 581 0 
z
" transform="scale(0.015625)"/>
       </defs>
       <use xlink:href="#ArialMT-30"/>
       <use xlink:href="#ArialMT-2e" transform="translate(55.615234 0)"/>
       <use xlink:href="#ArialMT-30" transform="translate(83.398438 0)"/>
      </g>
     </g>
    </g>
    <g id="xtick_2">
     <g id="line2d_3">
      <path d="M 90.670111 265.022801 
L 90.670111 19.642031 
" clip-path="url(#p7cbe54d862)" style="fill: none; stroke: #c0c0c0; stroke-width: 0.25; stroke-linecap: round"/>
     </g>
     <g id="line2d_4"/>
     <g id="text_2">
      <!-- 0.2 -->
      <g style="fill: #333333" transform="translate(84.415111 274.964832) scale(0.09 -0.09)">
       <defs>
        <path id="ArialMT-32" d="M 3222 541 
L 3222 0 
L 194 0 
Q 188 203 259 391 
Q 375 700 629 1000 
Q 884 1300 1366 1694 
Q 2113 2306 2375 2664 
Q 2638 3022 2638 3341 
Q 2638 3675 2398 3904 
Q 2159 4134 1775 4134 
Q 1369 4134 1125 3890 
Q 881 3647 878 3216 
L 300 3275 
Q 359 3922 746 4261 
Q 1134 4600 1788 4600 
Q 2447 4600 2831 4234 
Q 3216 3869 3216 3328 
Q 3216 3053 3103 2787 
Q 2991 2522 2730 2228 
Q 2469 1934 1863 1422 
Q 1356 997 1212 845 
Q 1069 694 975 541 
L 3222 541 
z
" transform="scale(0.015625)"/>
       </defs>
       <use xlink:href="#ArialMT-30"/>
       <use xlink:href="#ArialMT-2e" transform="translate(55.615234 0)"/>
       <use xlink:href="#ArialMT-32" transform="translate(83.398438 0)"/>
      </g>
     </g>
    </g>
    <g id="xtick_3">
     <g id="line2d_5">
      <path d="M 138.508523 265.022801 
L 138.508523 19.642031 
" clip-path="url(#p7cbe54d862)" style="fill: none; stroke: #c0c0c0; stroke-width: 0.25; stroke-linecap: round"/>
     </g>
     <g id="line2d_6"/>
     <g id="text_3">
      <!-- 0.4 -->
      <g style="fill: #333333" transform="translate(132.253523 274.964832) scale(0.09 -0.09)">
       <defs>
        <path id="ArialMT-34" d="M 2069 0 
L 2069 1097 
L 81 1097 
L 81 1613 
L 2172 4581 
L 2631 4581 
L 2631 1613 
L 3250 1613 
L 3250 1097 
L 2631 1097 
L 2631 0 
L 2069 0 
z
M 2069 1613 
L 2069 3678 
L 634 1613 
L 2069 1613 
z
" transform="scale(0.015625)"/>
       </defs>
       <use xlink:href="#ArialMT-30"/>
       <use xlink:href="#ArialMT-2e" transform="translate(55.615234 0)"/>
       <use xlink:href="#ArialMT-34" transform="translate(83.398438 0)"/>
      </g>
     </g>
    </g>
    <g id="xtick_4">
     <g id="line2d_7">
      <path d="M 186.346935 265.022801 
L 186.346935 19.642031 
" clip-path="url(#p7cbe54d862)" style="fill: none; stroke: #c0c0c0; stroke-width: 0.25; stroke-linecap: round"/>
     </g>
     <g id="line2d_8"/>
     <g id="text_4">
      <!-- 0.6 -->
      <g style="fill: #333333" transform="translate(180.091935 274.964832) scale(0.09 -0.09)">
       <defs>
        <path id="ArialMT-36" d="M 3184 3459 
L 2625 3416 
Q 2550 3747 2413 3897 
Q 2184 4138 1850 4138 
Q 1581 4138 1378 3988 
Q 1113 3794 959 3422 
Q 806 3050 800 2363 
Q 1003 2672 1297 2822 
Q 1591 2972 1913 2972 
Q 2475 2972 2870 2558 
Q 3266 2144 3266 1488 
Q 3266 1056 3080 686 
Q 2894 316 2569 119 
Q 2244 -78 1831 -78 
Q 1128 -78 684 439 
Q 241 956 241 2144 
Q 241 3472 731 4075 
Q 1159 4600 1884 4600 
Q 2425 4600 2770 4297 
Q 3116 3994 3184 3459 
z
M 888 1484 
Q 888 1194 1011 928 
Q 1134 663 1356 523 
Q 1578 384 1822 384 
Q 2178 384 2434 671 
Q 2691 959 2691 1453 
Q 2691 1928 2437 2201 
Q 2184 2475 1800 2475 
Q 1419 2475 1153 2201 
Q 888 1928 888 1484 
z
" transform="scale(0.015625)"/>
       </defs>
       <use xlink:href="#ArialMT-30"/>
       <use xlink:href="#ArialMT-2e" transform="translate(55.615234 0)"/>
       <use xlink:href="#ArialMT-36" transform="translate(83.398438 0)"/>
      </g>
     </g>
    </g>
    <g id="xtick_5">
     <g id="line2d_9">
      <path d="M 234.185346 265.022801 
L 234.185346 19.642031 
" clip-path="url(#p7cbe54d862)" style="fill: none; stroke: #c0c0c0; stroke-width: 0.25; stroke-linecap: round"/>
     </g>
     <g id="line2d_10"/>
     <g id="text_5">
      <!-- 0.8 -->
      <g style="fill: #333333" transform="translate(227.930346 274.964832) scale(0.09 -0.09)">
       <defs>
        <path id="ArialMT-38" d="M 1131 2484 
Q 781 2613 612 2850 
Q 444 3088 444 3419 
Q 444 3919 803 4259 
Q 1163 4600 1759 4600 
Q 2359 4600 2725 4251 
Q 3091 3903 3091 3403 
Q 3091 3084 2923 2848 
Q 2756 2613 2416 2484 
Q 2838 2347 3058 2040 
Q 3278 1734 3278 1309 
Q 3278 722 2862 322 
Q 2447 -78 1769 -78 
Q 1091 -78 675 323 
Q 259 725 259 1325 
Q 259 1772 486 2073 
Q 713 2375 1131 2484 
z
M 1019 3438 
Q 1019 3113 1228 2906 
Q 1438 2700 1772 2700 
Q 2097 2700 2305 2904 
Q 2513 3109 2513 3406 
Q 2513 3716 2298 3927 
Q 2084 4138 1766 4138 
Q 1444 4138 1231 3931 
Q 1019 3725 1019 3438 
z
M 838 1322 
Q 838 1081 952 856 
Q 1066 631 1291 507 
Q 1516 384 1775 384 
Q 2178 384 2440 643 
Q 2703 903 2703 1303 
Q 2703 1709 2433 1975 
Q 2163 2241 1756 2241 
Q 1359 2241 1098 1978 
Q 838 1716 838 1322 
z
" transform="scale(0.015625)"/>
       </defs>
       <use xlink:href="#ArialMT-30"/>
       <use xlink:href="#ArialMT-2e" transform="translate(55.615234 0)"/>
       <use xlink:href="#ArialMT-38" transform="translate(83.398438 0)"/>
      </g>
     </g>
    </g>
    <g id="xtick_6">
     <g id="line2d_11">
      <path d="M 282.023758 265.022801 
L 282.023758 19.642031 
" clip-path="url(#p7cbe54d862)" style="fill: none; stroke: #c0c0c0; stroke-width: 0.25; stroke-linecap: round"/>
     </g>
     <g id="line2d_12"/>
     <g id="text_6">
      <!-- 1.0 -->
      <g style="fill: #333333" transform="translate(275.768758 274.964832) scale(0.09 -0.09)">
       <defs>
        <path id="ArialMT-31" d="M 2384 0 
L 1822 0 
L 1822 3584 
Q 1619 3391 1289 3197 
Q 959 3003 697 2906 
L 697 3450 
Q 1169 3672 1522 3987 
Q 1875 4303 2022 4600 
L 2384 4600 
L 2384 0 
z
" transform="scale(0.015625)"/>
       </defs>
       <use xlink:href="#ArialMT-31"/>
       <use xlink:href="#ArialMT-2e" transform="translate(55.615234 0)"/>
       <use xlink:href="#ArialMT-30" transform="translate(83.398438 0)"/>
      </g>
     </g>
    </g>
    <g id="text_7">
     <!-- Recall [TP / (TP + FN)] -->
     <g style="fill: #333333" transform="translate(115.706479 287.305301) scale(0.09 -0.09)">
      <defs>
       <path id="Arial-BoldMT-52" d="M 469 0 
L 469 4581 
L 2416 4581 
Q 3150 4581 3483 4457 
Q 3816 4334 4016 4018 
Q 4216 3703 4216 3297 
Q 4216 2781 3912 2445 
Q 3609 2109 3006 2022 
Q 3306 1847 3501 1637 
Q 3697 1428 4028 894 
L 4588 0 
L 3481 0 
L 2813 997 
Q 2456 1531 2325 1670 
Q 2194 1809 2047 1861 
Q 1900 1913 1581 1913 
L 1394 1913 
L 1394 0 
L 469 0 
z
M 1394 2644 
L 2078 2644 
Q 2744 2644 2909 2700 
Q 3075 2756 3169 2893 
Q 3263 3031 3263 3238 
Q 3263 3469 3139 3611 
Q 3016 3753 2791 3791 
Q 2678 3806 2116 3806 
L 1394 3806 
L 1394 2644 
z
" transform="scale(0.015625)"/>
       <path id="Arial-BoldMT-65" d="M 2381 1056 
L 3256 909 
Q 3088 428 2723 176 
Q 2359 -75 1813 -75 
Q 947 -75 531 491 
Q 203 944 203 1634 
Q 203 2459 634 2926 
Q 1066 3394 1725 3394 
Q 2466 3394 2894 2905 
Q 3322 2416 3303 1406 
L 1103 1406 
Q 1113 1016 1316 798 
Q 1519 581 1822 581 
Q 2028 581 2168 693 
Q 2309 806 2381 1056 
z
M 2431 1944 
Q 2422 2325 2234 2523 
Q 2047 2722 1778 2722 
Q 1491 2722 1303 2513 
Q 1116 2303 1119 1944 
L 2431 1944 
z
" transform="scale(0.015625)"/>
       <path id="Arial-BoldMT-63" d="M 3353 2338 
L 2488 2181 
Q 2444 2441 2289 2572 
Q 2134 2703 1888 2703 
Q 1559 2703 1364 2476 
Q 1169 2250 1169 1719 
Q 1169 1128 1367 884 
Q 1566 641 1900 641 
Q 2150 641 2309 783 
Q 2469 925 2534 1272 
L 3397 1125 
Q 3263 531 2881 228 
Q 2500 -75 1859 -75 
Q 1131 -75 698 384 
Q 266 844 266 1656 
Q 266 2478 700 2936 
Q 1134 3394 1875 3394 
Q 2481 3394 2839 3133 
Q 3197 2872 3353 2338 
z
" transform="scale(0.015625)"/>
       <path id="Arial-BoldMT-61" d="M 1116 2306 
L 319 2450 
Q 453 2931 781 3162 
Q 1109 3394 1756 3394 
Q 2344 3394 2631 3255 
Q 2919 3116 3036 2902 
Q 3153 2688 3153 2116 
L 3144 1091 
Q 3144 653 3186 445 
Q 3228 238 3344 0 
L 2475 0 
Q 2441 88 2391 259 
Q 2369 338 2359 363 
Q 2134 144 1878 34 
Q 1622 -75 1331 -75 
Q 819 -75 523 203 
Q 228 481 228 906 
Q 228 1188 362 1408 
Q 497 1628 739 1745 
Q 981 1863 1438 1950 
Q 2053 2066 2291 2166 
L 2291 2253 
Q 2291 2506 2166 2614 
Q 2041 2722 1694 2722 
Q 1459 2722 1328 2630 
Q 1197 2538 1116 2306 
z
M 2291 1594 
Q 2122 1538 1756 1459 
Q 1391 1381 1278 1306 
Q 1106 1184 1106 997 
Q 1106 813 1243 678 
Q 1381 544 1594 544 
Q 1831 544 2047 700 
Q 2206 819 2256 991 
Q 2291 1103 2291 1419 
L 2291 1594 
z
" transform="scale(0.015625)"/>
       <path id="Arial-BoldMT-6c" d="M 459 0 
L 459 4581 
L 1338 4581 
L 1338 0 
L 459 0 
z
" transform="scale(0.015625)"/>
       <path id="Arial-BoldMT-20" transform="scale(0.015625)"/>
       <path id="Arial-BoldMT-5b" d="M 456 -1291 
L 456 4581 
L 2013 4581 
L 2013 3891 
L 1291 3891 
L 1291 -600 
L 2013 -600 
L 2013 -1291 
L 456 -1291 
z
" transform="scale(0.015625)"/>
       <path id="Arial-BoldMT-54" d="M 1497 0 
L 1497 3806 
L 138 3806 
L 138 4581 
L 3778 4581 
L 3778 3806 
L 2422 3806 
L 2422 0 
L 1497 0 
z
" transform="scale(0.015625)"/>
       <path id="Arial-BoldMT-50" d="M 466 0 
L 466 4581 
L 1950 4581 
Q 2794 4581 3050 4513 
Q 3444 4409 3709 4064 
Q 3975 3719 3975 3172 
Q 3975 2750 3822 2462 
Q 3669 2175 3433 2011 
Q 3197 1847 2953 1794 
Q 2622 1728 1994 1728 
L 1391 1728 
L 1391 0 
L 466 0 
z
M 1391 3806 
L 1391 2506 
L 1897 2506 
Q 2444 2506 2628 2578 
Q 2813 2650 2917 2803 
Q 3022 2956 3022 3159 
Q 3022 3409 2875 3571 
Q 2728 3734 2503 3775 
Q 2338 3806 1838 3806 
L 1391 3806 
z
" transform="scale(0.015625)"/>
       <path id="Arial-BoldMT-2f" d="M -9 -78 
L 1125 4659 
L 1784 4659 
L 638 -78 
L -9 -78 
z
" transform="scale(0.015625)"/>
       <path id="Arial-BoldMT-28" d="M 1916 -1347 
L 1313 -1347 
Q 834 -625 584 153 
Q 334 931 334 1659 
Q 334 2563 644 3369 
Q 913 4069 1325 4659 
L 1925 4659 
Q 1497 3713 1336 3048 
Q 1175 2384 1175 1641 
Q 1175 1128 1270 590 
Q 1366 53 1531 -431 
Q 1641 -750 1916 -1347 
z
" transform="scale(0.015625)"/>
       <path id="Arial-BoldMT-2b" d="M 1466 659 
L 1466 1850 
L 266 1850 
L 266 2672 
L 1466 2672 
L 1466 3863 
L 2266 3863 
L 2266 2672 
L 3469 2672 
L 3469 1850 
L 2266 1850 
L 2266 659 
L 1466 659 
z
" transform="scale(0.015625)"/>
       <path id="Arial-BoldMT-46" d="M 472 0 
L 472 4581 
L 3613 4581 
L 3613 3806 
L 1397 3806 
L 1397 2722 
L 3309 2722 
L 3309 1947 
L 1397 1947 
L 1397 0 
L 472 0 
z
" transform="scale(0.015625)"/>
       <path id="Arial-BoldMT-4e" d="M 475 0 
L 475 4581 
L 1375 4581 
L 3250 1522 
L 3250 4581 
L 4109 4581 
L 4109 0 
L 3181 0 
L 1334 2988 
L 1334 0 
L 475 0 
z
" transform="scale(0.015625)"/>
       <path id="Arial-BoldMT-29" d="M 216 -1347 
Q 475 -791 581 -494 
Q 688 -197 778 190 
Q 869 578 912 926 
Q 956 1275 956 1641 
Q 956 2384 797 3048 
Q 638 3713 209 4659 
L 806 4659 
Q 1278 3988 1539 3234 
Q 1800 2481 1800 1706 
Q 1800 1053 1594 306 
Q 1359 -531 822 -1347 
L 216 -1347 
z
" transform="scale(0.015625)"/>
       <path id="Arial-BoldMT-5d" d="M 1675 4581 
L 1675 -1291 
L 119 -1291 
L 119 -600 
L 841 -600 
L 841 3897 
L 119 3897 
L 119 4581 
L 1675 4581 
z
" transform="scale(0.015625)"/>
      </defs>
      <use xlink:href="#Arial-BoldMT-52"/>
      <use xlink:href="#Arial-BoldMT-65" transform="translate(72.216797 0)"/>
      <use xlink:href="#Arial-BoldMT-63" transform="translate(127.832031 0)"/>
      <use xlink:href="#Arial-BoldMT-61" transform="translate(183.447266 0)"/>
      <use xlink:href="#Arial-BoldMT-6c" transform="translate(239.0625 0)"/>
      <use xlink:href="#Arial-BoldMT-6c" transform="translate(266.845703 0)"/>
      <use xlink:href="#Arial-BoldMT-20" transform="translate(294.628906 0)"/>
      <use xlink:href="#Arial-BoldMT-5b" transform="translate(322.412109 0)"/>
      <use xlink:href="#Arial-BoldMT-54" transform="translate(355.712891 0)"/>
      <use xlink:href="#Arial-BoldMT-50" transform="translate(416.796875 0)"/>
      <use xlink:href="#Arial-BoldMT-20" transform="translate(481.746094 0)"/>
      <use xlink:href="#Arial-BoldMT-2f" transform="translate(509.529297 0)"/>
      <use xlink:href="#Arial-BoldMT-20" transform="translate(537.3125 0)"/>
      <use xlink:href="#Arial-BoldMT-28" transform="translate(565.095703 0)"/>
      <use xlink:href="#Arial-BoldMT-54" transform="translate(598.396484 0)"/>
      <use xlink:href="#Arial-BoldMT-50" transform="translate(659.480469 0)"/>
      <use xlink:href="#Arial-BoldMT-20" transform="translate(724.429688 0)"/>
      <use xlink:href="#Arial-BoldMT-2b" transform="translate(752.212891 0)"/>
      <use xlink:href="#Arial-BoldMT-20" transform="translate(810.611328 0)"/>
      <use xlink:href="#Arial-BoldMT-46" transform="translate(838.394531 0)"/>
      <use xlink:href="#Arial-BoldMT-4e" transform="translate(899.478516 0)"/>
      <use xlink:href="#Arial-BoldMT-29" transform="translate(971.695312 0)"/>
      <use xlink:href="#Arial-BoldMT-5d" transform="translate(1004.996094 0)"/>
     </g>
    </g>
   </g>
   <g id="matplotlib.axis_2">
    <g id="ytick_1">
     <g id="line2d_13">
      <path d="M 35.655938 265.022801 
L 289.19952 265.022801 
" clip-path="url(#p7cbe54d862)" style="fill: none; stroke: #c0c0c0; stroke-width: 0.25; stroke-linecap: round"/>
     </g>
     <g id="line2d_14"/>
     <g id="text_8">
      <!-- 0.0 -->
      <g style="fill: #333333" transform="translate(19.645938 268.243817) scale(0.09 -0.09)">
       <use xlink:href="#ArialMT-30"/>
       <use xlink:href="#ArialMT-2e" transform="translate(55.615234 0)"/>
       <use xlink:href="#ArialMT-30" transform="translate(83.398438 0)"/>
      </g>
     </g>
    </g>
    <g id="ytick_2">
     <g id="line2d_15">
      <path d="M 35.655938 217.37605 
L 289.19952 217.37605 
" clip-path="url(#p7cbe54d862)" style="fill: none; stroke: #c0c0c0; stroke-width: 0.25; stroke-linecap: round"/>
     </g>
     <g id="line2d_16"/>
     <g id="text_9">
      <!-- 0.2 -->
      <g style="fill: #333333" transform="translate(19.645938 220.597065) scale(0.09 -0.09)">
       <use xlink:href="#ArialMT-30"/>
       <use xlink:href="#ArialMT-2e" transform="translate(55.615234 0)"/>
       <use xlink:href="#ArialMT-32" transform="translate(83.398438 0)"/>
      </g>
     </g>
    </g>
    <g id="ytick_3">
     <g id="line2d_17">
      <path d="M 35.655938 169.729298 
L 289.19952 169.729298 
" clip-path="url(#p7cbe54d862)" style="fill: none; stroke: #c0c0c0; stroke-width: 0.25; stroke-linecap: round"/>
     </g>
     <g id="line2d_18"/>
     <g id="text_10">
      <!-- 0.4 -->
      <g style="fill: #333333" transform="translate(19.645938 172.950314) scale(0.09 -0.09)">
       <use xlink:href="#ArialMT-30"/>
       <use xlink:href="#ArialMT-2e" transform="translate(55.615234 0)"/>
       <use xlink:href="#ArialMT-34" transform="translate(83.398438 0)"/>
      </g>
     </g>
    </g>
    <g id="ytick_4">
     <g id="line2d_19">
      <path d="M 35.655938 122.082547 
L 289.19952 122.082547 
" clip-path="url(#p7cbe54d862)" style="fill: none; stroke: #c0c0c0; stroke-width: 0.25; stroke-linecap: round"/>
     </g>
     <g id="line2d_20"/>
     <g id="text_11">
      <!-- 0.6 -->
      <g style="fill: #333333" transform="translate(19.645938 125.303563) scale(0.09 -0.09)">
       <use xlink:href="#ArialMT-30"/>
       <use xlink:href="#ArialMT-2e" transform="translate(55.615234 0)"/>
       <use xlink:href="#ArialMT-36" transform="translate(83.398438 0)"/>
      </g>
     </g>
    </g>
    <g id="ytick_5">
     <g id="line2d_21">
      <path d="M 35.655938 74.435795 
L 289.19952 74.435795 
" clip-path="url(#p7cbe54d862)" style="fill: none; stroke: #c0c0c0; stroke-width: 0.25; stroke-linecap: round"/>
     </g>
     <g id="line2d_22"/>
     <g id="text_12">
      <!-- 0.8 -->
      <g style="fill: #333333" transform="translate(19.645938 77.656811) scale(0.09 -0.09)">
       <use xlink:href="#ArialMT-30"/>
       <use xlink:href="#ArialMT-2e" transform="translate(55.615234 0)"/>
       <use xlink:href="#ArialMT-38" transform="translate(83.398438 0)"/>
      </g>
     </g>
    </g>
    <g id="ytick_6">
     <g id="line2d_23">
      <path d="M 35.655938 26.789044 
L 289.19952 26.789044 
" clip-path="url(#p7cbe54d862)" style="fill: none; stroke: #c0c0c0; stroke-width: 0.25; stroke-linecap: round"/>
     </g>
     <g id="line2d_24"/>
     <g id="text_13">
      <!-- 1.0 -->
      <g style="fill: #333333" transform="translate(19.645938 30.01006) scale(0.09 -0.09)">
       <use xlink:href="#ArialMT-31"/>
       <use xlink:href="#ArialMT-2e" transform="translate(55.615234 0)"/>
       <use xlink:href="#ArialMT-30" transform="translate(83.398438 0)"/>
      </g>
     </g>
    </g>
    <g id="text_14">
     <!-- Precision [TP / (TP + FP)] -->
     <g style="fill: #333333" transform="translate(13.751719 195.805776) rotate(-90) scale(0.09 -0.09)">
      <defs>
       <path id="Arial-BoldMT-72" d="M 1300 0 
L 422 0 
L 422 3319 
L 1238 3319 
L 1238 2847 
Q 1447 3181 1614 3287 
Q 1781 3394 1994 3394 
Q 2294 3394 2572 3228 
L 2300 2463 
Q 2078 2606 1888 2606 
Q 1703 2606 1575 2504 
Q 1447 2403 1373 2137 
Q 1300 1872 1300 1025 
L 1300 0 
z
" transform="scale(0.015625)"/>
       <path id="Arial-BoldMT-69" d="M 459 3769 
L 459 4581 
L 1338 4581 
L 1338 3769 
L 459 3769 
z
M 459 0 
L 459 3319 
L 1338 3319 
L 1338 0 
L 459 0 
z
" transform="scale(0.015625)"/>
       <path id="Arial-BoldMT-73" d="M 150 947 
L 1031 1081 
Q 1088 825 1259 692 
Q 1431 559 1741 559 
Q 2081 559 2253 684 
Q 2369 772 2369 919 
Q 2369 1019 2306 1084 
Q 2241 1147 2013 1200 
Q 950 1434 666 1628 
Q 272 1897 272 2375 
Q 272 2806 612 3100 
Q 953 3394 1669 3394 
Q 2350 3394 2681 3172 
Q 3013 2950 3138 2516 
L 2309 2363 
Q 2256 2556 2107 2659 
Q 1959 2763 1684 2763 
Q 1338 2763 1188 2666 
Q 1088 2597 1088 2488 
Q 1088 2394 1175 2328 
Q 1294 2241 1995 2081 
Q 2697 1922 2975 1691 
Q 3250 1456 3250 1038 
Q 3250 581 2869 253 
Q 2488 -75 1741 -75 
Q 1063 -75 667 200 
Q 272 475 150 947 
z
" transform="scale(0.015625)"/>
       <path id="Arial-BoldMT-6f" d="M 256 1706 
Q 256 2144 472 2553 
Q 688 2963 1083 3178 
Q 1478 3394 1966 3394 
Q 2719 3394 3200 2905 
Q 3681 2416 3681 1669 
Q 3681 916 3195 420 
Q 2709 -75 1972 -75 
Q 1516 -75 1102 131 
Q 688 338 472 736 
Q 256 1134 256 1706 
z
M 1156 1659 
Q 1156 1166 1390 903 
Q 1625 641 1969 641 
Q 2313 641 2545 903 
Q 2778 1166 2778 1666 
Q 2778 2153 2545 2415 
Q 2313 2678 1969 2678 
Q 1625 2678 1390 2415 
Q 1156 2153 1156 1659 
z
" transform="scale(0.015625)"/>
       <path id="Arial-BoldMT-6e" d="M 3478 0 
L 2600 0 
L 2600 1694 
Q 2600 2231 2544 2389 
Q 2488 2547 2361 2634 
Q 2234 2722 2056 2722 
Q 1828 2722 1647 2597 
Q 1466 2472 1398 2265 
Q 1331 2059 1331 1503 
L 1331 0 
L 453 0 
L 453 3319 
L 1269 3319 
L 1269 2831 
Q 1703 3394 2363 3394 
Q 2653 3394 2893 3289 
Q 3134 3184 3257 3021 
Q 3381 2859 3429 2653 
Q 3478 2447 3478 2063 
L 3478 0 
z
" transform="scale(0.015625)"/>
      </defs>
      <use xlink:href="#Arial-BoldMT-50"/>
      <use xlink:href="#Arial-BoldMT-72" transform="translate(66.699219 0)"/>
      <use xlink:href="#Arial-BoldMT-65" transform="translate(105.615234 0)"/>
      <use xlink:href="#Arial-BoldMT-63" transform="translate(161.230469 0)"/>
      <use xlink:href="#Arial-BoldMT-69" transform="translate(216.845703 0)"/>
      <use xlink:href="#Arial-BoldMT-73" transform="translate(244.628906 0)"/>
      <use xlink:href="#Arial-BoldMT-69" transform="translate(300.244141 0)"/>
      <use xlink:href="#Arial-BoldMT-6f" transform="translate(328.027344 0)"/>
      <use xlink:href="#Arial-BoldMT-6e" transform="translate(389.111328 0)"/>
      <use xlink:href="#Arial-BoldMT-20" transform="translate(450.195312 0)"/>
      <use xlink:href="#Arial-BoldMT-5b" transform="translate(477.978516 0)"/>
      <use xlink:href="#Arial-BoldMT-54" transform="translate(511.279297 0)"/>
      <use xlink:href="#Arial-BoldMT-50" transform="translate(572.363281 0)"/>
      <use xlink:href="#Arial-BoldMT-20" transform="translate(637.3125 0)"/>
      <use xlink:href="#Arial-BoldMT-2f" transform="translate(665.095703 0)"/>
      <use xlink:href="#Arial-BoldMT-20" transform="translate(692.878906 0)"/>
      <use xlink:href="#Arial-BoldMT-28" transform="translate(720.662109 0)"/>
      <use xlink:href="#Arial-BoldMT-54" transform="translate(753.962891 0)"/>
      <use xlink:href="#Arial-BoldMT-50" transform="translate(815.046875 0)"/>
      <use xlink:href="#Arial-BoldMT-20" transform="translate(879.996094 0)"/>
      <use xlink:href="#Arial-BoldMT-2b" transform="translate(907.779297 0)"/>
      <use xlink:href="#Arial-BoldMT-20" transform="translate(966.177734 0)"/>
      <use xlink:href="#Arial-BoldMT-46" transform="translate(993.960938 0)"/>
      <use xlink:href="#Arial-BoldMT-50" transform="translate(1055.044922 0)"/>
      <use xlink:href="#Arial-BoldMT-29" transform="translate(1121.744141 0)"/>
      <use xlink:href="#Arial-BoldMT-5d" transform="translate(1155.044922 0)"/>
     </g>
    </g>
   </g>
   <g id="line2d_25">
    <path d="M 42.831699 265.022801 
L 42.942491 244.155611 
L 42.94356 244.066435 
L 43.052998 233.276135 
L 43.055634 233.186959 
L 43.166497 226.142053 
L 43.171508 226.052877 
L 43.279711 220.791492 
L 43.28971 220.702316 
L 43.400454 216.065162 
L 43.406368 215.975986 
L 43.517207 212.096829 
L 43.519178 212.007653 
L 43.628094 208.618964 
L 43.631442 208.529788 
L 43.740999 205.586979 
L 43.747222 205.497803 
L 43.856042 202.599582 
L 43.864734 202.510406 
L 43.974529 200.414769 
L 43.979041 200.325593 
L 44.082518 198.542073 
L 44.090474 198.452897 
L 44.199936 196.13432 
L 44.212618 196.045144 
L 44.32322 194.3508 
L 44.330345 194.261623 
L 44.436814 192.745631 
L 44.450969 192.656455 
L 44.557082 190.560818 
L 44.564919 190.471642 
L 44.674809 188.95565 
L 44.681292 188.866474 
L 44.788878 187.172129 
L 44.798924 187.082953 
L 44.909787 185.789901 
L 44.920047 185.700725 
L 45.030981 184.00638 
L 45.036111 183.917204 
L 45.14467 182.267448 
L 45.151652 182.178272 
L 45.260117 180.840631 
L 45.27173 180.751455 
L 45.382332 179.592167 
L 45.388483 179.502991 
L 45.497233 178.343703 
L 45.518797 178.254527 
L 45.627831 176.783122 
L 45.640941 176.693946 
L 45.745582 175.222542 
L 45.755224 175.133366 
L 45.86357 173.706549 
L 45.882688 173.617373 
L 45.974551 172.814789 
L 45.99196 172.814789 
L 46.010532 172.725613 
L 46.119448 171.43256 
L 46.13688 171.343384 
L 46.243135 170.496212 
L 46.25444 170.407036 
L 46.363308 168.98022 
L 46.383543 168.891044 
L 46.476736 168.177635 
L 46.496567 168.088459 
L 46.602015 167.018347 
L 46.613795 166.929171 
L 46.719338 165.948235 
L 46.735131 165.859059 
L 46.843976 164.967298 
L 46.860458 164.878122 
L 46.970323 163.941774 
L 46.997849 163.852598 
L 47.096362 162.91625 
L 47.127854 162.827074 
L 47.234941 161.935314 
L 47.245819 161.846138 
L 47.34996 160.954377 
L 47.351979 160.954377 
L 47.372641 160.865201 
L 47.482768 160.018029 
L 47.487375 159.928853 
L 47.592111 159.126269 
L 47.62802 159.037093 
L 47.73297 158.145332 
L 47.774698 158.056156 
L 47.882141 157.119808 
L 47.903302 157.030632 
L 48.00951 156.228048 
L 48.038247 156.138872 
L 48.149181 155.559228 
L 48.168679 155.470052 
L 48.268238 154.801231 
L 48.273462 154.801231 
L 48.30068 154.712055 
L 48.405819 153.731119 
L 48.421351 153.641943 
L 48.53048 152.705595 
L 48.556082 152.616419 
L 48.657327 151.992186 
L 48.682383 151.90301 
L 48.785503 151.01125 
L 48.802627 150.922074 
L 48.906151 150.253254 
L 48.912896 150.253254 
L 48.95023 150.164078 
L 49.045775 149.584434 
L 49.05803 149.584434 
L 49.075129 149.495258 
L 49.182572 148.915614 
L 49.189958 148.826438 
L 49.297924 148.113029 
L 49.377556 148.023853 
L 49.486828 147.265857 
L 49.51129 147.176681 
L 49.621963 146.418685 
L 49.638778 146.329509 
L 49.748833 145.526924 
L 49.769804 145.437748 
L 49.878744 144.768928 
L 49.903016 144.679752 
L 50.005044 144.010932 
L 50.008155 144.010932 
L 50.039908 143.921756 
L 50.132199 143.520464 
L 50.184852 143.431288 
L 50.295739 142.762468 
L 50.313859 142.673292 
L 50.419545 142.227411 
L 50.487683 142.138235 
L 50.594627 141.335651 
L 50.627663 141.246475 
L 50.737362 140.666831 
L 50.771466 140.577655 
L 50.876131 139.953423 
L 50.890832 139.864247 
L 50.992385 139.329191 
L 50.998845 139.329191 
L 51.029339 139.240015 
L 51.13379 138.526606 
L 51.178368 138.43743 
L 51.274221 138.125314 
L 51.308468 138.036138 
L 51.412253 137.411906 
L 51.434317 137.32273 
L 51.544966 136.609322 
L 51.549882 136.520146 
L 51.651127 135.940502 
L 51.665994 135.851326 
L 51.771941 135.494621 
L 51.809726 135.405445 
L 51.902516 134.870389 
L 51.93282 134.781213 
L 52.034326 134.379921 
L 52.084129 134.290745 
L 52.187582 133.488161 
L 52.208862 133.398985 
L 52.308634 132.863929 
L 52.342287 132.774753 
L 52.442534 132.105932 
L 52.44726 132.105932 
L 52.466141 132.016756 
L 52.551568 131.660052 
L 52.558455 131.660052 
L 52.610206 131.570876 
L 52.685468 131.214172 
L 52.702876 131.214172 
L 52.765623 131.124996 
L 52.875726 130.679116 
L 52.900995 130.58994 
L 53.009008 130.099472 
L 53.082157 130.010296 
L 53.182285 129.742768 
L 53.263936 129.653592 
L 53.359695 129.252299 
L 53.462008 129.163123 
L 53.541474 128.761831 
L 53.572135 128.761831 
L 53.582228 128.672655 
L 53.690312 128.137599 
L 53.733489 128.048423 
L 53.80792 127.602543 
L 53.822408 127.602543 
L 53.913677 127.513367 
L 54.01352 126.889135 
L 54.063157 126.799959 
L 54.164283 126.309491 
L 54.190953 126.220315 
L 54.245554 125.997374 
L 54.293575 125.997374 
L 54.326207 125.908198 
L 54.42966 125.551494 
L 54.455785 125.462318 
L 54.531712 125.105614 
L 54.562515 125.105614 
L 54.611416 125.016438 
L 54.719928 124.481382 
L 54.740875 124.392206 
L 54.850289 123.946326 
L 54.888597 123.85715 
L 54.967422 123.277506 
L 54.999318 123.277506 
L 55.032424 123.18833 
L 55.141198 122.742449 
L 55.20221 122.653273 
L 55.293432 122.385745 
L 55.312978 122.385745 
L 55.344209 122.296569 
L 55.453599 121.939865 
L 55.454288 121.939865 
L 55.516417 121.850689 
L 55.626259 121.583161 
L 55.661289 121.493985 
L 55.754673 121.003517 
L 55.853946 120.914341 
L 55.943529 120.423873 
L 55.954692 120.423873 
L 55.973905 120.334697 
L 56.078403 119.888817 
L 56.128277 119.799641 
L 56.216602 119.35376 
L 56.23895 119.35376 
L 56.278945 119.264584 
L 56.36677 118.818704 
L 56.389285 118.818704 
L 56.419685 118.729528 
L 56.529835 118.194472 
L 56.613434 118.105296 
L 56.716887 117.748592 
L 56.792078 117.659416 
L 56.892182 117.12436 
L 56.936 117.035184 
L 57.012331 116.67848 
L 57.064058 116.589304 
L 57.158652 116.277187 
L 57.212041 116.188011 
L 57.304641 115.965071 
L 57.312455 115.965071 
L 57.354563 115.875895 
L 57.463597 115.742131 
L 57.479509 115.652955 
L 57.554605 115.296251 
L 57.588021 115.296251 
L 57.623194 115.207075 
L 57.726125 114.894959 
L 57.734271 114.894959 
L 57.768518 114.805783 
L 57.879357 114.359903 
L 57.895483 114.270727 
L 57.998034 113.824847 
L 58.04064 113.735671 
L 58.150126 113.378967 
L 58.193374 113.289791 
L 58.274241 113.022262 
L 58.28367 113.022262 
L 58.415551 112.933086 
L 58.510621 112.576382 
L 58.541376 112.487206 
L 58.612483 112.308854 
L 58.710924 112.219678 
L 58.795853 111.996738 
L 58.857744 111.907562 
L 58.962931 111.461682 
L 59.03171 111.372506 
L 59.1411 111.015802 
L 59.164138 110.926626 
L 59.230708 110.748274 
L 59.245456 110.748274 
L 59.297373 110.659098 
L 59.405196 110.39157 
L 59.406217 110.39157 
L 59.41992 110.302394 
L 59.497653 109.94569 
L 59.516225 109.94569 
L 59.605951 109.856514 
L 59.70083 109.499809 
L 59.752011 109.410633 
L 59.842853 109.143105 
L 59.859525 109.143105 
L 59.929016 109.053929 
L 60.036839 108.608049 
L 60.049237 108.518873 
L 60.133168 108.117581 
L 60.272008 108.028405 
L 60.334303 107.760877 
L 60.376244 107.760877 
L 60.435143 107.671701 
L 60.524299 107.359585 
L 60.579802 107.270409 
L 60.656276 107.047469 
L 60.68392 107.047469 
L 60.775475 106.958293 
L 60.884058 106.646177 
L 60.920252 106.557001 
L 61.029144 105.977356 
L 61.130008 105.88818 
L 61.221587 105.531476 
L 61.22541 105.531476 
L 61.274335 105.4423 
L 61.372682 105.041008 
L 61.419563 104.951832 
L 61.523943 104.639716 
L 61.525178 104.639716 
L 61.579564 104.55054 
L 61.677175 104.238424 
L 61.68715 104.238424 
L 61.719425 104.149248 
L 61.779559 103.926308 
L 61.827225 103.926308 
L 61.908733 103.837132 
L 61.975541 103.65878 
L 61.992902 103.65878 
L 62.081226 103.569604 
L 62.182661 103.302076 
L 62.242985 103.212899 
L 62.349644 103.079135 
L 62.351378 103.079135 
L 62.380827 102.989959 
L 62.49188 102.811607 
L 62.546575 102.722431 
L 62.638961 102.454903 
L 62.649981 102.454903 
L 62.758802 102.365727 
L 62.865105 102.098199 
L 62.908875 102.009023 
L 62.995086 101.607731 
L 63.016081 101.607731 
L 63.098539 101.518555 
L 63.188978 101.295615 
L 63.2517 101.206439 
L 63.362349 101.072675 
L 63.395741 100.983499 
L 63.48922 100.849735 
L 63.506771 100.849735 
L 63.644756 100.760559 
L 63.745501 100.493031 
L 63.747948 100.493031 
L 63.787277 100.403855 
L 63.893366 99.913386 
L 63.950246 99.82421 
L 64.047073 99.556682 
L 64.188312 99.467506 
L 64.2873 99.244566 
L 64.289889 99.244566 
L 64.371326 99.15539 
L 64.478033 98.93245 
L 64.542299 98.843274 
L 64.652616 98.575746 
L 64.66404 98.48657 
L 64.770509 98.219042 
L 64.926758 98.129866 
L 65.031636 97.773162 
L 65.096116 97.683986 
L 65.192159 97.461046 
L 65.197384 97.461046 
L 65.245762 97.37187 
L 65.344228 97.059754 
L 65.345747 97.059754 
L 65.43412 96.970578 
L 65.517409 96.703049 
L 65.534533 96.703049 
L 65.563602 96.613873 
L 65.646845 96.346345 
L 65.763479 96.257169 
L 65.85596 96.034229 
L 65.933787 95.945053 
L 66.003159 95.722113 
L 66.042964 95.722113 
L 66.151357 95.632937 
L 66.241391 95.409997 
L 66.25139 95.409997 
L 66.317271 95.320821 
L 66.423836 94.830353 
L 66.517884 94.741177 
L 66.625944 94.384473 
L 66.680307 94.295297 
L 66.774569 94.116945 
L 66.802261 94.027769 
L 66.843823 93.894005 
L 66.87465 93.894005 
L 67.020567 93.804829 
L 67.110056 93.448124 
L 67.19515 93.358948 
L 67.28965 93.136008 
L 67.354106 93.046832 
L 67.450696 92.779304 
L 67.461431 92.779304 
L 67.533059 92.690128 
L 67.633093 92.4226 
L 67.637225 92.4226 
L 67.681993 92.333424 
L 67.719327 92.19966 
L 67.791573 92.19966 
L 67.939367 92.110484 
L 67.994822 91.887544 
L 68.047831 91.887544 
L 68.10521 91.798368 
L 68.187289 91.575428 
L 68.27027 91.486252 
L 68.378948 91.218724 
L 68.398826 91.129548 
L 68.508549 90.995784 
L 68.58621 90.906608 
L 68.664418 90.683668 
L 68.693036 90.683668 
L 68.859378 90.594492 
L 68.944853 90.371552 
L 68.961382 90.371552 
L 69.07253 90.282375 
L 69.177955 89.970259 
L 69.179285 89.970259 
L 69.250866 89.881083 
L 69.356338 89.613555 
L 69.511589 89.524379 
L 69.548709 89.435203 
L 69.622333 89.435203 
L 69.687549 89.346027 
L 69.772359 89.078499 
L 69.781835 89.078499 
L 69.884979 88.989323 
L 69.991259 88.766383 
L 70.0408 88.677207 
L 70.115802 88.543443 
L 70.139361 88.543443 
L 70.198284 88.454267 
L 70.256922 88.365091 
L 70.360636 88.275915 
L 70.463044 87.963799 
L 70.467746 87.963799 
L 70.547355 87.874623 
L 70.60585 87.740859 
L 70.650618 87.740859 
L 70.755188 87.651683 
L 70.835509 87.384155 
L 70.863011 87.384155 
L 71.008785 87.294979 
L 71.077089 87.072039 
L 71.107204 87.072039 
L 71.158028 86.982862 
L 71.158028 86.938274 
L 71.247112 86.938274 
L 71.38182 86.849098 
L 71.463305 86.670746 
L 71.480499 86.670746 
L 71.538686 86.58157 
L 71.645393 86.314042 
L 71.776514 86.224866 
L 71.8238 86.046514 
L 71.872581 86.046514 
L 71.928963 85.957338 
L 72.038211 85.734398 
L 72.127675 85.645222 
L 72.225049 85.333106 
L 72.435612 85.24393 
L 72.527191 84.976402 
L 72.546452 84.976402 
L 72.585306 84.887226 
L 72.651306 84.708874 
L 72.665009 84.708874 
L 72.725975 84.619698 
L 72.804111 84.441346 
L 72.927418 84.35217 
L 73.015957 84.218406 
L 73.036286 84.218406 
L 73.194554 84.12923 
L 73.269199 84.040054 
L 73.292687 84.040054 
L 73.400272 83.950878 
L 73.423404 83.772525 
L 73.494724 83.772525 
L 73.613686 83.683349 
L 73.720274 83.504997 
L 73.748489 83.415821 
L 73.848142 83.192881 
L 74.02586 83.103705 
L 74.098296 83.014529 
L 74.134039 83.014529 
L 74.201393 82.925353 
L 74.283566 82.702413 
L 74.302637 82.702413 
L 74.478218 82.613237 
L 74.574475 82.390297 
L 74.704148 82.301121 
L 74.799075 82.167357 
L 75.120596 82.078181 
L 75.152397 81.944417 
L 75.228039 81.944417 
L 75.356881 81.855241 
L 75.41255 81.721477 
L 75.46525 81.721477 
L 75.574569 81.632301 
L 75.659165 81.453949 
L 75.674033 81.453949 
L 75.762429 81.364773 
L 75.865383 81.097245 
L 75.86733 81.097245 
L 76.221294 81.008069 
L 76.331587 80.829717 
L 76.457056 80.740541 
L 76.548207 80.5176 
L 76.566874 80.5176 
L 76.691013 80.428424 
L 76.785798 80.160896 
L 76.90825 80.07172 
L 76.971258 79.937956 
L 77.001159 79.937956 
L 77.079699 79.84878 
L 77.157716 79.581252 
L 77.178972 79.581252 
L 77.51244 79.492076 
L 77.621023 79.224548 
L 77.95297 79.135372 
L 77.979974 79.001608 
L 78.031201 79.001608 
L 78.192437 78.912432 
L 78.295819 78.51114 
L 78.415185 78.421964 
L 78.490257 78.2882 
L 78.522651 78.2882 
L 78.677285 78.199024 
L 78.758152 77.976084 
L 79.082286 77.886908 
L 79.138834 77.753144 
L 79.156076 77.753144 
L 79.255991 77.663968 
L 79.327738 77.574792 
L 79.342273 77.574792 
L 79.426251 77.485616 
L 79.510681 77.351852 
L 79.52562 77.351852 
L 79.647194 77.262675 
L 79.737537 77.084323 
L 79.746799 77.084323 
L 80.014267 76.995147 
L 80.091501 76.727619 
L 80.121259 76.727619 
L 80.457814 76.638443 
L 80.507712 76.504679 
L 80.566635 76.504679 
L 80.6219 76.415503 
L 80.698231 76.237151 
L 80.731457 76.237151 
L 80.966649 76.147975 
L 80.992559 76.058799 
L 81.053952 76.058799 
L 81.320375 75.969623 
L 81.416608 75.702095 
L 81.419719 75.702095 
L 81.502605 75.612919 
L 81.502605 75.568331 
L 81.593257 75.568331 
L 81.817952 75.479155 
L 81.882052 75.389979 
L 81.920384 75.389979 
L 81.99434 75.300803 
L 82.029418 75.211627 
L 82.085253 75.211627 
L 82.294915 75.122451 
L 82.34011 74.944099 
L 82.369488 74.944099 
L 82.48997 74.854923 
L 82.565422 74.631983 
L 82.795318 74.542807 
L 82.883239 74.364455 
L 83.248602 74.275279 
L 83.334362 74.141515 
L 83.383358 74.052339 
L 83.455818 73.963162 
L 83.493152 73.963162 
L 83.631541 73.873986 
L 83.71274 73.651046 
L 83.730339 73.651046 
L 83.911097 73.56187 
L 83.911097 73.517282 
L 83.965578 73.517282 
L 84.122492 73.428106 
L 84.221147 73.205166 
L 84.398818 73.11599 
L 84.481205 72.89305 
L 84.49669 72.89305 
L 85.10589 72.803874 
L 85.188753 72.714698 
L 85.195972 72.714698 
L 85.315124 72.625522 
L 85.418078 72.491758 
L 85.420976 72.491758 
L 85.631658 72.402582 
L 85.712264 72.135054 
L 85.862908 72.045878 
L 85.964105 71.912114 
L 85.996974 71.822938 
L 86.045376 71.733762 
L 86.073258 71.733762 
L 86.139068 71.644586 
L 86.181342 71.510822 
L 86.354595 71.421646 
L 86.434299 71.243294 
L 86.715185 71.154118 
L 86.819469 71.064942 
L 86.968379 70.975766 
L 87.01101 70.88659 
L 87.05934 70.88659 
L 87.584514 70.797414 
L 87.620542 70.663649 
L 87.670654 70.663649 
L 87.891739 70.574473 
L 87.987165 70.485297 
L 88.000916 70.485297 
L 88.163695 70.396121 
L 88.238673 70.173181 
L 88.273038 70.173181 
L 88.356233 70.084005 
L 88.364474 69.994829 
L 88.442515 69.994829 
L 88.674929 69.905653 
L 88.74822 69.816477 
L 88.761733 69.816477 
L 88.911545 69.727301 
L 88.979541 69.548949 
L 89.002221 69.548949 
L 89.402592 69.459773 
L 89.439498 69.326009 
L 89.512386 69.326009 
L 89.672696 69.236833 
L 89.746509 69.058481 
L 89.752827 69.058481 
L 90.146998 68.969305 
L 90.229647 68.880129 
L 90.234017 68.880129 
L 90.560383 68.790953 
L 90.649278 68.478837 
L 90.661984 68.478837 
L 90.88352 68.389661 
L 90.88352 68.345073 
L 90.993433 68.345073 
L 91.20117 68.255897 
L 91.299137 68.166721 
L 91.727865 68.077545 
L 91.727865 68.032957 
L 91.757124 68.032957 
L 91.940827 67.943781 
L 91.940827 67.899193 
L 92.011696 67.899193 
L 92.152317 67.810017 
L 92.234277 67.676253 
L 92.244869 67.676253 
L 92.489157 67.587077 
L 92.559171 67.4979 
L 92.585319 67.4979 
L 92.961964 67.408724 
L 92.992007 67.27496 
L 93.020815 67.27496 
L 93.685946 67.185784 
L 93.685946 67.141196 
L 93.768309 67.141196 
L 94.008584 67.05202 
L 94.008584 67.007432 
L 94.054515 67.007432 
L 94.26819 66.918256 
L 94.27066 66.82908 
L 94.47227 66.739904 
L 94.511695 66.650728 
L 94.555156 66.650728 
L 94.69364 66.561552 
L 94.749333 66.427788 
L 95.057151 66.338612 
L 95.086031 66.16026 
L 95.148611 66.16026 
L 95.355493 66.071084 
L 95.426908 65.93732 
L 95.429164 65.93732 
L 95.568717 65.848144 
L 95.568717 65.803556 
L 95.631297 65.803556 
L 95.745984 65.71438 
L 95.830247 65.625204 
L 95.846373 65.625204 
L 96.091706 65.536028 
L 96.091706 65.49144 
L 96.620039 65.402264 
L 96.667966 65.313088 
L 96.724893 65.313088 
L 96.894537 65.223912 
L 96.894537 65.179324 
L 96.994 65.179324 
L 97.315332 65.090148 
L 97.403728 64.956384 
L 97.716842 64.867208 
L 97.716842 64.82262 
L 97.794479 64.82262 
L 97.93567 64.733444 
L 97.93567 64.688856 
L 98.019174 64.688856 
L 98.464217 64.59968 
L 98.524209 64.421328 
L 98.552114 64.421328 
L 98.824712 64.332152 
L 98.837988 64.242975 
L 98.935622 64.242975 
L 99.100017 64.153799 
L 99.100017 64.109211 
L 99.449563 64.020035 
L 99.521881 63.886271 
L 99.550285 63.886271 
L 100.139726 63.797095 
L 100.171503 63.707919 
L 100.220997 63.707919 
L 100.41249 63.618743 
L 100.50782 63.529567 
L 100.523281 63.529567 
L 100.679269 63.440391 
L 100.679269 63.395803 
L 100.786925 63.395803 
L 101.145924 63.306627 
L 101.156849 63.217451 
L 101.188174 63.217451 
L 101.482242 63.128275 
L 101.502785 63.039099 
L 101.645947 62.949923 
L 101.645947 62.905335 
L 101.749424 62.905335 
L 101.82243 62.816159 
L 101.864396 62.726983 
L 101.879999 62.726983 
L 102.087072 62.637807 
L 102.161171 62.504043 
L 102.348127 62.414867 
L 102.420896 62.325691 
L 102.45044 62.325691 
L 102.604385 62.236515 
L 102.640223 62.147339 
L 102.668509 62.147339 
L 103.336608 62.058163 
L 103.336608 62.013575 
L 103.392467 62.013575 
L 103.557693 61.924399 
L 103.557693 61.879811 
L 103.636399 61.879811 
L 104.000622 61.790635 
L 104.063036 61.656871 
L 104.084411 61.656871 
L 104.160172 61.567695 
L 104.195393 61.433931 
L 104.240042 61.433931 
L 104.750444 61.344755 
L 104.860499 61.255579 
L 105.305091 61.166403 
L 105.305091 61.121815 
L 105.415004 61.121815 
L 105.747665 61.032639 
L 105.858243 60.898874 
L 106.050686 60.809698 
L 106.050686 60.76511 
L 106.15174 60.76511 
L 106.269324 60.675934 
L 106.333685 60.497582 
L 106.368289 60.497582 
L 106.671737 60.408406 
L 106.708026 60.31923 
L 106.763814 60.31923 
L 107.064484 60.230054 
L 107.064484 60.185466 
L 107.088993 60.185466 
L 107.268872 60.09629 
L 107.378548 59.962526 
L 107.600654 59.87335 
L 107.666108 59.739586 
L 108.077308 59.65041 
L 108.077878 59.561234 
L 108.154636 59.561234 
L 108.331689 59.472058 
L 108.373156 59.382882 
L 108.397404 59.382882 
L 108.825087 59.293706 
L 108.825087 59.249118 
L 108.888807 59.249118 
L 109.197931 59.159942 
L 109.197931 59.115354 
L 109.291837 59.115354 
L 109.688906 59.026178 
L 109.736073 58.892414 
L 109.776756 58.892414 
L 110.29585 58.803238 
L 110.384222 58.714062 
L 110.646489 58.624886 
L 110.699166 58.491122 
L 110.789081 58.401946 
L 110.84931 58.31277 
L 110.897071 58.31277 
L 111.216384 58.223594 
L 111.302713 58.134418 
L 111.314921 58.134418 
L 111.692111 58.045242 
L 111.777325 57.86689 
L 112.326344 57.777714 
L 112.420273 57.643949 
L 112.591175 57.554773 
L 112.656463 57.421009 
L 112.986297 57.331833 
L 113.048853 57.153481 
L 113.426495 57.064305 
L 113.426495 57.019717 
L 113.526053 57.019717 
L 113.939367 56.930541 
L 114.048211 56.796777 
L 114.420486 56.707601 
L 114.523535 56.618425 
L 114.887331 56.529249 
L 114.95592 56.440073 
L 115.430508 56.350897 
L 115.478268 56.172545 
L 115.500854 56.172545 
L 116.141997 56.083369 
L 116.169642 55.994193 
L 116.681445 55.905017 
L 116.74583 55.815841 
L 116.97404 55.726665 
L 116.97404 55.682077 
L 117.538496 55.592901 
L 117.595424 55.503725 
L 118.191063 55.414549 
L 118.293685 55.236197 
L 118.672514 55.147021 
L 118.672514 55.102433 
L 118.775231 55.102433 
L 119.241934 55.013257 
L 119.306533 54.879493 
L 119.350398 54.879493 
L 120.019471 54.790317 
L 120.124801 54.701141 
L 120.268414 54.611965 
L 120.268414 54.567377 
L 120.338499 54.567377 
L 120.559418 54.4782 
L 120.661232 54.299848 
L 121.218944 54.210672 
L 121.218944 54.166084 
L 121.310142 54.166084 
L 121.687831 54.076908 
L 121.733811 53.987732 
L 121.788221 53.987732 
L 121.8774 53.898556 
L 121.979167 53.80938 
L 122.282544 53.720204 
L 122.37474 53.541852 
L 122.534504 53.452676 
L 122.599815 53.3635 
L 123.388752 53.274324 
L 123.476435 53.14056 
L 123.949289 53.051384 
L 123.949289 53.006796 
L 124.391696 52.91762 
L 124.391696 52.873032 
L 124.468431 52.873032 
L 125.028066 52.783856 
L 125.028066 52.739268 
L 125.11233 52.739268 
L 125.245209 52.650092 
L 125.245209 52.605504 
L 125.270217 52.605504 
L 125.757036 52.516328 
L 125.836288 52.427152 
L 126.28753 52.337976 
L 126.387397 52.2488 
L 126.852461 52.159624 
L 126.948148 52.070448 
L 127.328473 51.981272 
L 127.328473 51.936684 
L 127.357163 51.936684 
L 127.646124 51.847508 
L 127.739507 51.713744 
L 128.060174 51.624568 
L 128.166358 51.446216 
L 128.438742 51.35704 
L 128.438742 51.312452 
L 128.887775 51.223275 
L 128.998591 51.089511 
L 129.505336 51.000335 
L 129.505336 50.955747 
L 129.571787 50.955747 
L 130.152986 50.866571 
L 130.152986 50.821983 
L 130.83657 50.732807 
L 130.83942 50.643631 
L 130.891408 50.643631 
L 131.503767 50.554455 
L 131.6 50.465279 
L 132.11577 50.376103 
L 132.11577 50.331515 
L 132.471253 50.242339 
L 132.509134 50.108575 
L 132.563354 50.108575 
L 132.764917 50.019399 
L 132.849655 49.885635 
L 132.862385 49.885635 
L 133.319992 49.796459 
L 133.319992 49.751871 
L 133.616434 49.662695 
L 133.68298 49.573519 
L 134.315811 49.484343 
L 134.315811 49.439755 
L 134.383141 49.439755 
L 135.043142 49.350579 
L 135.118238 49.216815 
L 135.122608 49.216815 
L 135.744657 49.127639 
L 135.764345 49.038463 
L 135.956764 48.949287 
L 135.956764 48.904699 
L 136.467024 48.815523 
L 136.495476 48.726347 
L 136.922873 48.637171 
L 137.024426 48.547995 
L 137.540125 48.458819 
L 137.628924 48.325055 
L 137.63783 48.325055 
L 138.441896 48.235879 
L 138.469897 48.146703 
L 139.260947 48.057527 
L 139.29555 47.96835 
L 140.459137 47.879174 
L 140.50267 47.789998 
L 141.007776 47.700822 
L 141.009581 47.611646 
L 141.081613 47.611646 
L 141.744226 47.52247 
L 141.744226 47.477882 
L 142.1208 47.388706 
L 142.1208 47.344118 
L 142.797947 47.254942 
L 142.8525 47.165766 
L 144.047959 47.07659 
L 144.138088 46.987414 
L 144.490033 46.898238 
L 144.507608 46.809062 
L 144.556651 46.809062 
L 144.781559 46.719886 
L 144.890427 46.586122 
L 145.562231 46.496946 
L 145.604529 46.40777 
L 145.872139 46.318594 
L 145.872139 46.274006 
L 145.944647 46.274006 
L 146.646851 46.18483 
L 146.646851 46.140242 
L 146.73774 46.140242 
L 147.15673 46.051066 
L 147.25655 45.96189 
L 148.238642 45.872714 
L 148.339981 45.783538 
L 148.831146 45.694362 
L 148.869312 45.605186 
L 149.436404 45.51601 
L 149.436404 45.471422 
L 149.496609 45.471422 
L 149.855821 45.382246 
L 149.860666 45.29307 
L 149.911752 45.29307 
L 150.369358 45.203894 
L 150.369358 45.159306 
L 150.477965 45.159306 
L 150.827155 45.07013 
L 150.927236 44.980954 
L 151.8054 44.891778 
L 151.883275 44.802602 
L 152.415669 44.713425 
L 152.415669 44.668837 
L 152.505157 44.668837 
L 153.048073 44.579661 
L 153.048073 44.535073 
L 153.639912 44.445897 
L 153.735053 44.312133 
L 154.11336 44.222957 
L 154.11336 44.178369 
L 154.177104 44.178369 
L 154.735812 44.089193 
L 154.763338 44.000017 
L 154.8443 44.000017 
L 155.430036 43.910841 
L 155.430036 43.866253 
L 155.49074 43.866253 
L 156.381468 43.777077 
L 156.397807 43.687901 
L 156.413815 43.687901 
L 157.180522 43.598725 
L 157.180522 43.554137 
L 157.568685 43.464961 
L 157.667839 43.375785 
L 158.070371 43.286609 
L 158.156772 43.152845 
L 158.251794 43.063669 
L 158.263479 42.974493 
L 159.199829 42.885317 
L 159.290577 42.796141 
L 159.602503 42.706965 
L 159.69477 42.528613 
L 160.238612 42.439437 
L 160.238612 42.394849 
L 160.298033 42.394849 
L 161.581698 42.305673 
L 161.664797 42.216497 
L 162.076425 42.127321 
L 162.076425 42.082733 
L 162.16456 42.082733 
L 162.373675 41.993557 
L 162.373675 41.948969 
L 162.402388 41.948969 
L 163.410819 41.859793 
L 163.410819 41.815205 
L 163.490831 41.815205 
L 164.96765 41.726029 
L 164.985676 41.636853 
L 165.375906 41.547677 
L 165.375906 41.503088 
L 165.591291 41.413912 
L 165.603165 41.324736 
L 165.68674 41.324736 
L 165.964943 41.23556 
L 166.055167 41.146384 
L 166.882151 41.057208 
L 166.882151 41.01262 
L 166.992349 41.01262 
L 167.644584 40.923444 
L 167.738703 40.834268 
L 168.564737 40.745092 
L 168.564737 40.700504 
L 168.649095 40.700504 
L 169.216781 40.611328 
L 169.216781 40.56674 
L 169.296651 40.56674 
L 169.8489 40.477564 
L 169.926704 40.388388 
L 169.943257 40.388388 
L 171.301566 40.299212 
L 171.301566 40.254624 
L 171.400673 40.254624 
L 171.954228 40.165448 
L 172.011655 40.076272 
L 173.632207 39.987096 
L 173.632207 39.942508 
L 173.676072 39.942508 
L 174.899484 39.853332 
L 174.899484 39.808744 
L 175.765797 39.719568 
L 175.765797 39.67498 
L 175.842081 39.67498 
L 176.372694 39.585804 
L 176.372694 39.541216 
L 177.203003 39.45204 
L 177.203003 39.407452 
L 177.209557 39.407452 
L 178.485052 39.318276 
L 178.503648 39.184512 
L 180.113489 39.095336 
L 180.204521 39.00616 
L 180.209033 39.00616 
L 181.13852 38.916984 
L 181.224731 38.78322 
L 182.04991 38.694044 
L 182.04991 38.649456 
L 182.147236 38.649456 
L 182.531718 38.56028 
L 182.573446 38.471104 
L 182.64042 38.471104 
L 183.429 38.381928 
L 183.429 38.33734 
L 184.196207 38.248163 
L 184.248646 38.158987 
L 184.257956 38.158987 
L 185.04276 38.069811 
L 185.04276 38.025223 
L 185.797783 37.936047 
L 185.898742 37.802283 
L 186.945861 37.713107 
L 186.948307 37.623931 
L 189.501695 37.534755 
L 189.501695 37.490167 
L 189.596408 37.490167 
L 191.682309 37.400991 
L 191.682309 37.356403 
L 191.899 37.267227 
L 191.899 37.222639 
L 192.458897 37.133463 
L 192.458897 37.088875 
L 192.839056 36.999699 
L 192.839056 36.955111 
L 192.873897 36.955111 
L 193.237123 36.865935 
L 193.291984 36.776759 
L 194.165493 36.687583 
L 194.247453 36.598407 
L 195.26764 36.509231 
L 195.26764 36.464643 
L 195.361736 36.464643 
L 196.08016 36.375467 
L 196.15813 36.286291 
L 196.884534 36.197115 
L 196.884534 36.152527 
L 197.408616 36.063351 
L 197.496893 35.974175 
L 198.568284 35.884999 
L 198.620794 35.795823 
L 199.400778 35.706647 
L 199.490931 35.572883 
L 200.635922 35.483707 
L 200.635922 35.439119 
L 201.368145 35.349943 
L 201.368145 35.305355 
L 201.420703 35.305355 
L 202.742746 35.216179 
L 202.791433 35.127003 
L 202.80288 35.127003 
L 204.640266 35.037827 
L 204.640266 34.993238 
L 205.972736 34.904062 
L 205.972736 34.859474 
L 205.994609 34.859474 
L 206.507172 34.770298 
L 206.507172 34.72571 
L 206.655536 34.636534 
L 206.680235 34.547358 
L 208.054077 34.458182 
L 208.054077 34.413594 
L 208.103547 34.413594 
L 208.608582 34.324418 
L 208.608582 34.27983 
L 209.323943 34.190654 
L 209.323943 34.146066 
L 209.327101 34.146066 
L 209.901485 34.05689 
L 209.991591 33.967714 
L 210.657742 33.878538 
L 210.657742 33.83395 
L 211.847406 33.744774 
L 211.852845 33.655598 
L 211.89177 33.655598 
L 212.267512 33.566422 
L 212.267512 33.521834 
L 214.751385 33.432658 
L 214.751385 33.38807 
L 216.264328 33.298894 
L 216.264328 33.254306 
L 216.334056 33.254306 
L 216.95202 33.16513 
L 217.000422 33.075954 
L 217.002631 33.075954 
L 218.707684 32.986778 
L 218.707684 32.94219 
L 218.789145 32.94219 
L 220.864287 32.853014 
L 220.864287 32.808426 
L 220.957053 32.808426 
L 222.79565 32.71925 
L 222.79565 32.674662 
L 222.850963 32.674662 
L 223.324719 32.585486 
L 223.396087 32.49631 
L 224.285722 32.407134 
L 224.285722 32.362546 
L 224.389531 32.362546 
L 225.14434 32.27337 
L 225.14434 32.228782 
L 225.243922 32.228782 
L 226.064755 32.139606 
L 226.167923 32.05043 
L 227.360627 31.961254 
L 227.360627 31.916666 
L 227.45705 31.916666 
L 228.121183 31.82749 
L 228.121183 31.782902 
L 228.129519 31.782902 
L 230.074609 31.693725 
L 230.074609 31.649137 
L 230.121206 31.649137 
L 231.291323 31.559961 
L 231.307354 31.470785 
L 231.376703 31.470785 
L 232.093608 31.381609 
L 232.093608 31.337021 
L 232.203117 31.337021 
L 233.189033 31.247845 
L 233.189033 31.203257 
L 233.294053 31.203257 
L 234.783508 31.114081 
L 234.875917 31.024905 
L 235.485617 30.935729 
L 235.485617 30.891141 
L 235.538816 30.891141 
L 236.462698 30.801965 
L 236.462698 30.757377 
L 236.549716 30.757377 
L 236.91394 30.668201 
L 236.91394 30.623613 
L 237.024375 30.623613 
L 237.700074 30.534437 
L 237.700074 30.489849 
L 237.805095 30.489849 
L 238.22076 30.400673 
L 238.22076 30.356085 
L 238.318465 30.356085 
L 238.880903 30.266909 
L 238.951748 30.177733 
L 241.653072 30.088557 
L 241.710783 29.999381 
L 241.761013 29.999381 
L 243.623835 29.910205 
L 243.667415 29.821029 
L 243.692946 29.821029 
L 245.819768 29.731853 
L 245.819768 29.687265 
L 245.856698 29.687265 
L 246.493377 29.598089 
L 246.567404 29.508913 
L 246.604335 29.508913 
L 249.135612 29.419737 
L 249.23783 29.330561 
L 249.817272 29.241385 
L 249.817272 29.196797 
L 249.924525 29.196797 
L 251.58025 29.107621 
L 251.58025 29.063033 
L 251.687218 29.063033 
L 253.863748 28.973857 
L 253.863748 28.929269 
L 253.949674 28.929269 
L 256.698331 28.840093 
L 256.764259 28.750917 
L 256.801808 28.750917 
L 258.622236 28.661741 
L 258.636391 28.572565 
L 258.730273 28.572565 
L 259.765588 28.483388 
L 259.795584 28.394212 
L 259.875168 28.394212 
L 260.547733 28.305036 
L 260.622282 28.21586 
L 260.655864 28.21586 
L 261.422691 28.126684 
L 261.422691 28.082096 
L 261.521394 28.082096 
L 262.332798 27.99292 
L 262.332798 27.948332 
L 262.439813 27.948332 
L 263.492846 27.859156 
L 263.492846 27.814568 
L 263.603281 27.814568 
L 264.174506 27.725392 
L 264.174506 27.680804 
L 264.283374 27.680804 
L 267.845382 27.591628 
L 267.845382 27.54704 
L 267.954797 27.54704 
L 270.076916 27.457864 
L 270.076916 27.413276 
L 270.167948 27.413276 
L 272.902189 27.3241 
L 273.007328 27.234924 
L 273.009774 27.234924 
L 275.358726 27.145748 
L 275.358726 27.10116 
L 275.469613 27.10116 
L 276.400216 27.011984 
L 276.400216 26.967396 
L 276.511008 26.967396 
L 279.901876 26.87822 
L 279.901876 26.833632 
L 280.012526 26.833632 
L 282.023758 26.789044 
L 282.023758 26.789044 
" clip-path="url(#p7cbe54d862)" style="fill: none; stroke: #1f77b4; stroke-width: 1.5; stroke-linecap: round"/>
   </g>
   <g id="patch_3">
    <path d="M 35.655938 265.022801 
L 35.655938 19.642031 
" style="fill: none"/>
   </g>
   <g id="patch_4">
    <path d="M 289.19952 265.022801 
L 289.19952 19.642031 
" style="fill: none"/>
   </g>
   <g id="patch_5">
    <path d="M 35.655938 265.022801 
L 289.19952 265.022801 
" style="fill: none"/>
   </g>
   <g id="patch_6">
    <path d="M 35.655938 19.642031 
L 289.19952 19.642031 
" style="fill: none"/>
   </g>
   <g id="text_15">
    <!-- Model 1: Precision-Recall Curve -->
    <g style="fill: #333333" transform="translate(93.910307 13.642031) scale(0.09 -0.09)">
     <defs>
      <path id="Arial-BoldMT-4d" d="M 453 0 
L 453 4581 
L 1838 4581 
L 2669 1456 
L 3491 4581 
L 4878 4581 
L 4878 0 
L 4019 0 
L 4019 3606 
L 3109 0 
L 2219 0 
L 1313 3606 
L 1313 0 
L 453 0 
z
" transform="scale(0.015625)"/>
      <path id="Arial-BoldMT-64" d="M 3503 0 
L 2688 0 
L 2688 488 
Q 2484 203 2207 64 
Q 1931 -75 1650 -75 
Q 1078 -75 670 386 
Q 263 847 263 1672 
Q 263 2516 659 2955 
Q 1056 3394 1663 3394 
Q 2219 3394 2625 2931 
L 2625 4581 
L 3503 4581 
L 3503 0 
z
M 1159 1731 
Q 1159 1200 1306 963 
Q 1519 619 1900 619 
Q 2203 619 2415 876 
Q 2628 1134 2628 1647 
Q 2628 2219 2422 2470 
Q 2216 2722 1894 2722 
Q 1581 2722 1370 2473 
Q 1159 2225 1159 1731 
z
" transform="scale(0.015625)"/>
      <path id="Arial-BoldMT-31" d="M 2519 0 
L 1641 0 
L 1641 3309 
Q 1159 2859 506 2644 
L 506 3441 
Q 850 3553 1253 3867 
Q 1656 4181 1806 4600 
L 2519 4600 
L 2519 0 
z
" transform="scale(0.015625)"/>
      <path id="Arial-BoldMT-3a" d="M 628 2441 
L 628 3319 
L 1506 3319 
L 1506 2441 
L 628 2441 
z
M 628 0 
L 628 878 
L 1506 878 
L 1506 0 
L 628 0 
z
" transform="scale(0.015625)"/>
      <path id="Arial-BoldMT-2d" d="M 359 1222 
L 359 2100 
L 2084 2100 
L 2084 1222 
L 359 1222 
z
" transform="scale(0.015625)"/>
      <path id="Arial-BoldMT-43" d="M 3397 1684 
L 4294 1400 
Q 4088 650 3608 286 
Q 3128 -78 2391 -78 
Q 1478 -78 890 545 
Q 303 1169 303 2250 
Q 303 3394 893 4026 
Q 1484 4659 2447 4659 
Q 3288 4659 3813 4163 
Q 4125 3869 4281 3319 
L 3366 3100 
Q 3284 3456 3026 3662 
Q 2769 3869 2400 3869 
Q 1891 3869 1573 3503 
Q 1256 3138 1256 2319 
Q 1256 1450 1568 1081 
Q 1881 713 2381 713 
Q 2750 713 3015 947 
Q 3281 1181 3397 1684 
z
" transform="scale(0.015625)"/>
      <path id="Arial-BoldMT-75" d="M 2644 0 
L 2644 497 
Q 2463 231 2167 78 
Q 1872 -75 1544 -75 
Q 1209 -75 943 72 
Q 678 219 559 484 
Q 441 750 441 1219 
L 441 3319 
L 1319 3319 
L 1319 1794 
Q 1319 1094 1367 936 
Q 1416 778 1544 686 
Q 1672 594 1869 594 
Q 2094 594 2272 717 
Q 2450 841 2515 1023 
Q 2581 1206 2581 1919 
L 2581 3319 
L 3459 3319 
L 3459 0 
L 2644 0 
z
" transform="scale(0.015625)"/>
      <path id="Arial-BoldMT-76" d="M 1372 0 
L 34 3319 
L 956 3319 
L 1581 1625 
L 1763 1059 
Q 1834 1275 1853 1344 
Q 1897 1484 1947 1625 
L 2578 3319 
L 3481 3319 
L 2163 0 
L 1372 0 
z
" transform="scale(0.015625)"/>
     </defs>
     <use xlink:href="#Arial-BoldMT-4d"/>
     <use xlink:href="#Arial-BoldMT-6f" transform="translate(83.300781 0)"/>
     <use xlink:href="#Arial-BoldMT-64" transform="translate(144.384766 0)"/>
     <use xlink:href="#Arial-BoldMT-65" transform="translate(205.46875 0)"/>
     <use xlink:href="#Arial-BoldMT-6c" transform="translate(261.083984 0)"/>
     <use xlink:href="#Arial-BoldMT-20" transform="translate(288.867188 0)"/>
     <use xlink:href="#Arial-BoldMT-31" transform="translate(316.650391 0)"/>
     <use xlink:href="#Arial-BoldMT-3a" transform="translate(372.265625 0)"/>
     <use xlink:href="#Arial-BoldMT-20" transform="translate(405.566406 0)"/>
     <use xlink:href="#Arial-BoldMT-50" transform="translate(433.349609 0)"/>
     <use xlink:href="#Arial-BoldMT-72" transform="translate(500.048828 0)"/>
     <use xlink:href="#Arial-BoldMT-65" transform="translate(538.964844 0)"/>
     <use xlink:href="#Arial-BoldMT-63" transform="translate(594.580078 0)"/>
     <use xlink:href="#Arial-BoldMT-69" transform="translate(650.195312 0)"/>
     <use xlink:href="#Arial-BoldMT-73" transform="translate(677.978516 0)"/>
     <use xlink:href="#Arial-BoldMT-69" transform="translate(733.59375 0)"/>
     <use xlink:href="#Arial-BoldMT-6f" transform="translate(761.376953 0)"/>
     <use xlink:href="#Arial-BoldMT-6e" transform="translate(822.460938 0)"/>
     <use xlink:href="#Arial-BoldMT-2d" transform="translate(883.544922 0)"/>
     <use xlink:href="#Arial-BoldMT-52" transform="translate(916.845703 0)"/>
     <use xlink:href="#Arial-BoldMT-65" transform="translate(989.0625 0)"/>
     <use xlink:href="#Arial-BoldMT-63" transform="translate(1044.677734 0)"/>
     <use xlink:href="#Arial-BoldMT-61" transform="translate(1100.292969 0)"/>
     <use xlink:href="#Arial-BoldMT-6c" transform="translate(1155.908203 0)"/>
     <use xlink:href="#Arial-BoldMT-6c" transform="translate(1183.691406 0)"/>
     <use xlink:href="#Arial-BoldMT-20" transform="translate(1211.474609 0)"/>
     <use xlink:href="#Arial-BoldMT-43" transform="translate(1239.257812 0)"/>
     <use xlink:href="#Arial-BoldMT-75" transform="translate(1311.474609 0)"/>
     <use xlink:href="#Arial-BoldMT-72" transform="translate(1372.558594 0)"/>
     <use xlink:href="#Arial-BoldMT-76" transform="translate(1411.474609 0)"/>
     <use xlink:href="#Arial-BoldMT-65" transform="translate(1467.089844 0)"/>
    </g>
   </g>
   <g id="legend_1">
    <g id="patch_7">
     <path d="M 164.573426 260.522801 
L 282.89952 260.522801 
Q 284.69952 260.522801 284.69952 258.722801 
L 284.69952 246.89202 
Q 284.69952 245.09202 282.89952 245.09202 
L 164.573426 245.09202 
Q 162.773426 245.09202 162.773426 246.89202 
L 162.773426 258.722801 
Q 162.773426 260.522801 164.573426 260.522801 
z
" style="fill: #ffffff; opacity: 0.8; stroke: #cccccc; stroke-width: 0.75; stroke-linejoin: miter"/>
    </g>
    <g id="line2d_26">
     <path d="M 166.373426 251.984051 
L 175.373426 251.984051 
L 184.373426 251.984051 
" style="fill: none; stroke: #1f77b4; stroke-width: 1.5; stroke-linecap: round"/>
    </g>
    <g id="text_16">
     <!-- Precision-Recall curve -->
     <g style="fill: #333333" transform="translate(191.573426 255.134051) scale(0.09 -0.09)">
      <defs>
       <path id="ArialMT-50" d="M 494 0 
L 494 4581 
L 2222 4581 
Q 2678 4581 2919 4538 
Q 3256 4481 3484 4323 
Q 3713 4166 3852 3881 
Q 3991 3597 3991 3256 
Q 3991 2672 3619 2267 
Q 3247 1863 2275 1863 
L 1100 1863 
L 1100 0 
L 494 0 
z
M 1100 2403 
L 2284 2403 
Q 2872 2403 3119 2622 
Q 3366 2841 3366 3238 
Q 3366 3525 3220 3729 
Q 3075 3934 2838 4000 
Q 2684 4041 2272 4041 
L 1100 4041 
L 1100 2403 
z
" transform="scale(0.015625)"/>
       <path id="ArialMT-72" d="M 416 0 
L 416 3319 
L 922 3319 
L 922 2816 
Q 1116 3169 1280 3281 
Q 1444 3394 1641 3394 
Q 1925 3394 2219 3213 
L 2025 2691 
Q 1819 2813 1613 2813 
Q 1428 2813 1281 2702 
Q 1134 2591 1072 2394 
Q 978 2094 978 1738 
L 978 0 
L 416 0 
z
" transform="scale(0.015625)"/>
       <path id="ArialMT-65" d="M 2694 1069 
L 3275 997 
Q 3138 488 2766 206 
Q 2394 -75 1816 -75 
Q 1088 -75 661 373 
Q 234 822 234 1631 
Q 234 2469 665 2931 
Q 1097 3394 1784 3394 
Q 2450 3394 2872 2941 
Q 3294 2488 3294 1666 
Q 3294 1616 3291 1516 
L 816 1516 
Q 847 969 1125 678 
Q 1403 388 1819 388 
Q 2128 388 2347 550 
Q 2566 713 2694 1069 
z
M 847 1978 
L 2700 1978 
Q 2663 2397 2488 2606 
Q 2219 2931 1791 2931 
Q 1403 2931 1139 2672 
Q 875 2413 847 1978 
z
" transform="scale(0.015625)"/>
       <path id="ArialMT-63" d="M 2588 1216 
L 3141 1144 
Q 3050 572 2676 248 
Q 2303 -75 1759 -75 
Q 1078 -75 664 370 
Q 250 816 250 1647 
Q 250 2184 428 2587 
Q 606 2991 970 3192 
Q 1334 3394 1763 3394 
Q 2303 3394 2647 3120 
Q 2991 2847 3088 2344 
L 2541 2259 
Q 2463 2594 2264 2762 
Q 2066 2931 1784 2931 
Q 1359 2931 1093 2626 
Q 828 2322 828 1663 
Q 828 994 1084 691 
Q 1341 388 1753 388 
Q 2084 388 2306 591 
Q 2528 794 2588 1216 
z
" transform="scale(0.015625)"/>
       <path id="ArialMT-69" d="M 425 3934 
L 425 4581 
L 988 4581 
L 988 3934 
L 425 3934 
z
M 425 0 
L 425 3319 
L 988 3319 
L 988 0 
L 425 0 
z
" transform="scale(0.015625)"/>
       <path id="ArialMT-73" d="M 197 991 
L 753 1078 
Q 800 744 1014 566 
Q 1228 388 1613 388 
Q 2000 388 2187 545 
Q 2375 703 2375 916 
Q 2375 1106 2209 1216 
Q 2094 1291 1634 1406 
Q 1016 1563 777 1677 
Q 538 1791 414 1992 
Q 291 2194 291 2438 
Q 291 2659 392 2848 
Q 494 3038 669 3163 
Q 800 3259 1026 3326 
Q 1253 3394 1513 3394 
Q 1903 3394 2198 3281 
Q 2494 3169 2634 2976 
Q 2775 2784 2828 2463 
L 2278 2388 
Q 2241 2644 2061 2787 
Q 1881 2931 1553 2931 
Q 1166 2931 1000 2803 
Q 834 2675 834 2503 
Q 834 2394 903 2306 
Q 972 2216 1119 2156 
Q 1203 2125 1616 2013 
Q 2213 1853 2448 1751 
Q 2684 1650 2818 1456 
Q 2953 1263 2953 975 
Q 2953 694 2789 445 
Q 2625 197 2315 61 
Q 2006 -75 1616 -75 
Q 969 -75 630 194 
Q 291 463 197 991 
z
" transform="scale(0.015625)"/>
       <path id="ArialMT-6f" d="M 213 1659 
Q 213 2581 725 3025 
Q 1153 3394 1769 3394 
Q 2453 3394 2887 2945 
Q 3322 2497 3322 1706 
Q 3322 1066 3130 698 
Q 2938 331 2570 128 
Q 2203 -75 1769 -75 
Q 1072 -75 642 372 
Q 213 819 213 1659 
z
M 791 1659 
Q 791 1022 1069 705 
Q 1347 388 1769 388 
Q 2188 388 2466 706 
Q 2744 1025 2744 1678 
Q 2744 2294 2464 2611 
Q 2184 2928 1769 2928 
Q 1347 2928 1069 2612 
Q 791 2297 791 1659 
z
" transform="scale(0.015625)"/>
       <path id="ArialMT-6e" d="M 422 0 
L 422 3319 
L 928 3319 
L 928 2847 
Q 1294 3394 1984 3394 
Q 2284 3394 2536 3286 
Q 2788 3178 2913 3003 
Q 3038 2828 3088 2588 
Q 3119 2431 3119 2041 
L 3119 0 
L 2556 0 
L 2556 2019 
Q 2556 2363 2490 2533 
Q 2425 2703 2258 2804 
Q 2091 2906 1866 2906 
Q 1506 2906 1245 2678 
Q 984 2450 984 1813 
L 984 0 
L 422 0 
z
" transform="scale(0.015625)"/>
       <path id="ArialMT-2d" d="M 203 1375 
L 203 1941 
L 1931 1941 
L 1931 1375 
L 203 1375 
z
" transform="scale(0.015625)"/>
       <path id="ArialMT-52" d="M 503 0 
L 503 4581 
L 2534 4581 
Q 3147 4581 3465 4457 
Q 3784 4334 3975 4021 
Q 4166 3709 4166 3331 
Q 4166 2844 3850 2509 
Q 3534 2175 2875 2084 
Q 3116 1969 3241 1856 
Q 3506 1613 3744 1247 
L 4541 0 
L 3778 0 
L 3172 953 
Q 2906 1366 2734 1584 
Q 2563 1803 2427 1890 
Q 2291 1978 2150 2013 
Q 2047 2034 1813 2034 
L 1109 2034 
L 1109 0 
L 503 0 
z
M 1109 2559 
L 2413 2559 
Q 2828 2559 3062 2645 
Q 3297 2731 3419 2920 
Q 3541 3109 3541 3331 
Q 3541 3656 3305 3865 
Q 3069 4075 2559 4075 
L 1109 4075 
L 1109 2559 
z
" transform="scale(0.015625)"/>
       <path id="ArialMT-61" d="M 2588 409 
Q 2275 144 1986 34 
Q 1697 -75 1366 -75 
Q 819 -75 525 192 
Q 231 459 231 875 
Q 231 1119 342 1320 
Q 453 1522 633 1644 
Q 813 1766 1038 1828 
Q 1203 1872 1538 1913 
Q 2219 1994 2541 2106 
Q 2544 2222 2544 2253 
Q 2544 2597 2384 2738 
Q 2169 2928 1744 2928 
Q 1347 2928 1158 2789 
Q 969 2650 878 2297 
L 328 2372 
Q 403 2725 575 2942 
Q 747 3159 1072 3276 
Q 1397 3394 1825 3394 
Q 2250 3394 2515 3294 
Q 2781 3194 2906 3042 
Q 3031 2891 3081 2659 
Q 3109 2516 3109 2141 
L 3109 1391 
Q 3109 606 3145 398 
Q 3181 191 3288 0 
L 2700 0 
Q 2613 175 2588 409 
z
M 2541 1666 
Q 2234 1541 1622 1453 
Q 1275 1403 1131 1340 
Q 988 1278 909 1158 
Q 831 1038 831 891 
Q 831 666 1001 516 
Q 1172 366 1500 366 
Q 1825 366 2078 508 
Q 2331 650 2450 897 
Q 2541 1088 2541 1459 
L 2541 1666 
z
" transform="scale(0.015625)"/>
       <path id="ArialMT-6c" d="M 409 0 
L 409 4581 
L 972 4581 
L 972 0 
L 409 0 
z
" transform="scale(0.015625)"/>
       <path id="ArialMT-20" transform="scale(0.015625)"/>
       <path id="ArialMT-75" d="M 2597 0 
L 2597 488 
Q 2209 -75 1544 -75 
Q 1250 -75 995 37 
Q 741 150 617 320 
Q 494 491 444 738 
Q 409 903 409 1263 
L 409 3319 
L 972 3319 
L 972 1478 
Q 972 1038 1006 884 
Q 1059 663 1231 536 
Q 1403 409 1656 409 
Q 1909 409 2131 539 
Q 2353 669 2445 892 
Q 2538 1116 2538 1541 
L 2538 3319 
L 3100 3319 
L 3100 0 
L 2597 0 
z
" transform="scale(0.015625)"/>
       <path id="ArialMT-76" d="M 1344 0 
L 81 3319 
L 675 3319 
L 1388 1331 
Q 1503 1009 1600 663 
Q 1675 925 1809 1294 
L 2547 3319 
L 3125 3319 
L 1869 0 
L 1344 0 
z
" transform="scale(0.015625)"/>
      </defs>
      <use xlink:href="#ArialMT-50"/>
      <use xlink:href="#ArialMT-72" transform="translate(66.699219 0)"/>
      <use xlink:href="#ArialMT-65" transform="translate(100 0)"/>
      <use xlink:href="#ArialMT-63" transform="translate(155.615234 0)"/>
      <use xlink:href="#ArialMT-69" transform="translate(205.615234 0)"/>
      <use xlink:href="#ArialMT-73" transform="translate(227.832031 0)"/>
      <use xlink:href="#ArialMT-69" transform="translate(277.832031 0)"/>
      <use xlink:href="#ArialMT-6f" transform="translate(300.048828 0)"/>
      <use xlink:href="#ArialMT-6e" transform="translate(355.664062 0)"/>
      <use xlink:href="#ArialMT-2d" transform="translate(411.279297 0)"/>
      <use xlink:href="#ArialMT-52" transform="translate(444.580078 0)"/>
      <use xlink:href="#ArialMT-65" transform="translate(516.796875 0)"/>
      <use xlink:href="#ArialMT-63" transform="translate(572.412109 0)"/>
      <use xlink:href="#ArialMT-61" transform="translate(622.412109 0)"/>
      <use xlink:href="#ArialMT-6c" transform="translate(678.027344 0)"/>
      <use xlink:href="#ArialMT-6c" transform="translate(700.244141 0)"/>
      <use xlink:href="#ArialMT-20" transform="translate(722.460938 0)"/>
      <use xlink:href="#ArialMT-63" transform="translate(750.244141 0)"/>
      <use xlink:href="#ArialMT-75" transform="translate(800.244141 0)"/>
      <use xlink:href="#ArialMT-72" transform="translate(855.859375 0)"/>
      <use xlink:href="#ArialMT-76" transform="translate(889.160156 0)"/>
      <use xlink:href="#ArialMT-65" transform="translate(939.160156 0)"/>
     </g>
    </g>
   </g>
  </g>
 </g>
 <defs>
  <clipPath id="p7cbe54d862">
   <rect x="35.655938" y="19.642031" width="253.543583" height="245.38077"/>
  </clipPath>
 </defs>
</svg>
