<?xml version="1.0" encoding="utf-8" standalone="no"?>
<!DOCTYPE svg PUBLIC "-//W3C//DTD SVG 1.1//EN"
  "http://www.w3.org/Graphics/SVG/1.1/DTD/svg11.dtd">
<svg xmlns:xlink="http://www.w3.org/1999/xlink" width="296.39952pt" height="296.39952pt" viewBox="0 0 296.39952 296.39952" xmlns="http://www.w3.org/2000/svg" version="1.1">
 <metadata>
  <rdf:RDF xmlns:dc="http://purl.org/dc/elements/1.1/" xmlns:cc="http://creativecommons.org/ns#" xmlns:rdf="http://www.w3.org/1999/02/22-rdf-syntax-ns#">
   <cc:Work>
    <dc:type rdf:resource="http://purl.org/dc/dcmitype/StillImage"/>
    <dc:date>2026-01-02T17:48:18.257885</dc:date>
    <dc:format>image/svg+xml</dc:format>
    <dc:creator>
     <cc:Agent>
      <dc:title>Matplotlib v3.10.8, https://matplotlib.org/</dc:title>
     </cc:Agent>
    </dc:creator>
   </cc:Work>
  </rdf:RDF>
 </metadata>
 <defs>
  <style type="text/css">*{stroke-linejoin: round; stroke-linecap: butt}</style>
 </defs>
 <g id="figure_1">
  <g id="patch_1">
   <path d="M 0 296.39952 
L 296.39952 296.39952 
L 296.39952 0 
L 0 0 
z
" style="fill: #ffffff"/>
  </g>
  <g id="axes_1">
   <g id="patch_2">
    <path d="M 35.655938 265.022801 
L 289.19952 265.022801 
L 289.19952 19.642031 
L 35.655938 19.642031 
z
" style="fill: #ffffff"/>
   </g>
   <g id="matplotlib.axis_1">
    <g id="xtick_1">
     <g id="line2d_1">
      <path d="M 42.831699 265.022801 
L 42.831699 19.642031 
" clip-path="url(#p21416c88b4)" style="fill: none; stroke: #c0c0c0; stroke-width: 0.25; stroke-linecap: round"/>
     </g>
     <g id="line2d_2"/>
     <g id="text_1">
      <!-- 0.0 -->
      <g style="fill: #333333" transform="translate(36.576699 274.964832) scale(0.09 -0.09)">
       <defs>
        <path id="ArialMT-30" d="M 266 2259 
Q 266 3072 433 3567 
Q 600 4063 929 4331 
Q 1259 4600 1759 4600 
Q 2128 4600 2406 4451 
Q 2684 4303 2865 4023 
Q 3047 3744 3150 3342 
Q 3253 2941 3253 2259 
Q 3253 1453 3087 958 
Q 2922 463 2592 192 
Q 2263 -78 1759 -78 
Q 1097 -78 719 397 
Q 266 969 266 2259 
z
M 844 2259 
Q 844 1131 1108 757 
Q 1372 384 1759 384 
Q 2147 384 2411 759 
Q 2675 1134 2675 2259 
Q 2675 3391 2411 3762 
Q 2147 4134 1753 4134 
Q 1366 4134 1134 3806 
Q 844 3388 844 2259 
z
" transform="scale(0.015625)"/>
        <path id="ArialMT-2e" d="M 581 0 
L 581 641 
L 1222 641 
L 1222 0 
L 581 0 
z
" transform="scale(0.015625)"/>
       </defs>
       <use xlink:href="#ArialMT-30"/>
       <use xlink:href="#ArialMT-2e" transform="translate(55.615234 0)"/>
       <use xlink:href="#ArialMT-30" transform="translate(83.398438 0)"/>
      </g>
     </g>
    </g>
    <g id="xtick_2">
     <g id="line2d_3">
      <path d="M 90.670111 265.022801 
L 90.670111 19.642031 
" clip-path="url(#p21416c88b4)" style="fill: none; stroke: #c0c0c0; stroke-width: 0.25; stroke-linecap: round"/>
     </g>
     <g id="line2d_4"/>
     <g id="text_2">
      <!-- 0.2 -->
      <g style="fill: #333333" transform="translate(84.415111 274.964832) scale(0.09 -0.09)">
       <defs>
        <path id="ArialMT-32" d="M 3222 541 
L 3222 0 
L 194 0 
Q 188 203 259 391 
Q 375 700 629 1000 
Q 884 1300 1366 1694 
Q 2113 2306 2375 2664 
Q 2638 3022 2638 3341 
Q 2638 3675 2398 3904 
Q 2159 4134 1775 4134 
Q 1369 4134 1125 3890 
Q 881 3647 878 3216 
L 300 3275 
Q 359 3922 746 4261 
Q 1134 4600 1788 4600 
Q 2447 4600 2831 4234 
Q 3216 3869 3216 3328 
Q 3216 3053 3103 2787 
Q 2991 2522 2730 2228 
Q 2469 1934 1863 1422 
Q 1356 997 1212 845 
Q 1069 694 975 541 
L 3222 541 
z
" transform="scale(0.015625)"/>
       </defs>
       <use xlink:href="#ArialMT-30"/>
       <use xlink:href="#ArialMT-2e" transform="translate(55.615234 0)"/>
       <use xlink:href="#ArialMT-32" transform="translate(83.398438 0)"/>
      </g>
     </g>
    </g>
    <g id="xtick_3">
     <g id="line2d_5">
      <path d="M 138.508523 265.022801 
L 138.508523 19.642031 
" clip-path="url(#p21416c88b4)" style="fill: none; stroke: #c0c0c0; stroke-width: 0.25; stroke-linecap: round"/>
     </g>
     <g id="line2d_6"/>
     <g id="text_3">
      <!-- 0.4 -->
      <g style="fill: #333333" transform="translate(132.253523 274.964832) scale(0.09 -0.09)">
       <defs>
        <path id="ArialMT-34" d="M 2069 0 
L 2069 1097 
L 81 1097 
L 81 1613 
L 2172 4581 
L 2631 4581 
L 2631 1613 
L 3250 1613 
L 3250 1097 
L 2631 1097 
L 2631 0 
L 2069 0 
z
M 2069 1613 
L 2069 3678 
L 634 1613 
L 2069 1613 
z
" transform="scale(0.015625)"/>
       </defs>
       <use xlink:href="#ArialMT-30"/>
       <use xlink:href="#ArialMT-2e" transform="translate(55.615234 0)"/>
       <use xlink:href="#ArialMT-34" transform="translate(83.398438 0)"/>
      </g>
     </g>
    </g>
    <g id="xtick_4">
     <g id="line2d_7">
      <path d="M 186.346935 265.022801 
L 186.346935 19.642031 
" clip-path="url(#p21416c88b4)" style="fill: none; stroke: #c0c0c0; stroke-width: 0.25; stroke-linecap: round"/>
     </g>
     <g id="line2d_8"/>
     <g id="text_4">
      <!-- 0.6 -->
      <g style="fill: #333333" transform="translate(180.091935 274.964832) scale(0.09 -0.09)">
       <defs>
        <path id="ArialMT-36" d="M 3184 3459 
L 2625 3416 
Q 2550 3747 2413 3897 
Q 2184 4138 1850 4138 
Q 1581 4138 1378 3988 
Q 1113 3794 959 3422 
Q 806 3050 800 2363 
Q 1003 2672 1297 2822 
Q 1591 2972 1913 2972 
Q 2475 2972 2870 2558 
Q 3266 2144 3266 1488 
Q 3266 1056 3080 686 
Q 2894 316 2569 119 
Q 2244 -78 1831 -78 
Q 1128 -78 684 439 
Q 241 956 241 2144 
Q 241 3472 731 4075 
Q 1159 4600 1884 4600 
Q 2425 4600 2770 4297 
Q 3116 3994 3184 3459 
z
M 888 1484 
Q 888 1194 1011 928 
Q 1134 663 1356 523 
Q 1578 384 1822 384 
Q 2178 384 2434 671 
Q 2691 959 2691 1453 
Q 2691 1928 2437 2201 
Q 2184 2475 1800 2475 
Q 1419 2475 1153 2201 
Q 888 1928 888 1484 
z
" transform="scale(0.015625)"/>
       </defs>
       <use xlink:href="#ArialMT-30"/>
       <use xlink:href="#ArialMT-2e" transform="translate(55.615234 0)"/>
       <use xlink:href="#ArialMT-36" transform="translate(83.398438 0)"/>
      </g>
     </g>
    </g>
    <g id="xtick_5">
     <g id="line2d_9">
      <path d="M 234.185346 265.022801 
L 234.185346 19.642031 
" clip-path="url(#p21416c88b4)" style="fill: none; stroke: #c0c0c0; stroke-width: 0.25; stroke-linecap: round"/>
     </g>
     <g id="line2d_10"/>
     <g id="text_5">
      <!-- 0.8 -->
      <g style="fill: #333333" transform="translate(227.930346 274.964832) scale(0.09 -0.09)">
       <defs>
        <path id="ArialMT-38" d="M 1131 2484 
Q 781 2613 612 2850 
Q 444 3088 444 3419 
Q 444 3919 803 4259 
Q 1163 4600 1759 4600 
Q 2359 4600 2725 4251 
Q 3091 3903 3091 3403 
Q 3091 3084 2923 2848 
Q 2756 2613 2416 2484 
Q 2838 2347 3058 2040 
Q 3278 1734 3278 1309 
Q 3278 722 2862 322 
Q 2447 -78 1769 -78 
Q 1091 -78 675 323 
Q 259 725 259 1325 
Q 259 1772 486 2073 
Q 713 2375 1131 2484 
z
M 1019 3438 
Q 1019 3113 1228 2906 
Q 1438 2700 1772 2700 
Q 2097 2700 2305 2904 
Q 2513 3109 2513 3406 
Q 2513 3716 2298 3927 
Q 2084 4138 1766 4138 
Q 1444 4138 1231 3931 
Q 1019 3725 1019 3438 
z
M 838 1322 
Q 838 1081 952 856 
Q 1066 631 1291 507 
Q 1516 384 1775 384 
Q 2178 384 2440 643 
Q 2703 903 2703 1303 
Q 2703 1709 2433 1975 
Q 2163 2241 1756 2241 
Q 1359 2241 1098 1978 
Q 838 1716 838 1322 
z
" transform="scale(0.015625)"/>
       </defs>
       <use xlink:href="#ArialMT-30"/>
       <use xlink:href="#ArialMT-2e" transform="translate(55.615234 0)"/>
       <use xlink:href="#ArialMT-38" transform="translate(83.398438 0)"/>
      </g>
     </g>
    </g>
    <g id="xtick_6">
     <g id="line2d_11">
      <path d="M 282.023758 265.022801 
L 282.023758 19.642031 
" clip-path="url(#p21416c88b4)" style="fill: none; stroke: #c0c0c0; stroke-width: 0.25; stroke-linecap: round"/>
     </g>
     <g id="line2d_12"/>
     <g id="text_6">
      <!-- 1.0 -->
      <g style="fill: #333333" transform="translate(275.768758 274.964832) scale(0.09 -0.09)">
       <defs>
        <path id="ArialMT-31" d="M 2384 0 
L 1822 0 
L 1822 3584 
Q 1619 3391 1289 3197 
Q 959 3003 697 2906 
L 697 3450 
Q 1169 3672 1522 3987 
Q 1875 4303 2022 4600 
L 2384 4600 
L 2384 0 
z
" transform="scale(0.015625)"/>
       </defs>
       <use xlink:href="#ArialMT-31"/>
       <use xlink:href="#ArialMT-2e" transform="translate(55.615234 0)"/>
       <use xlink:href="#ArialMT-30" transform="translate(83.398438 0)"/>
      </g>
     </g>
    </g>
    <g id="text_7">
     <!-- Recall [TP / (TP + FN)] -->
     <g style="fill: #333333" transform="translate(115.706479 287.305301) scale(0.09 -0.09)">
      <defs>
       <path id="Arial-BoldMT-52" d="M 469 0 
L 469 4581 
L 2416 4581 
Q 3150 4581 3483 4457 
Q 3816 4334 4016 4018 
Q 4216 3703 4216 3297 
Q 4216 2781 3912 2445 
Q 3609 2109 3006 2022 
Q 3306 1847 3501 1637 
Q 3697 1428 4028 894 
L 4588 0 
L 3481 0 
L 2813 997 
Q 2456 1531 2325 1670 
Q 2194 1809 2047 1861 
Q 1900 1913 1581 1913 
L 1394 1913 
L 1394 0 
L 469 0 
z
M 1394 2644 
L 2078 2644 
Q 2744 2644 2909 2700 
Q 3075 2756 3169 2893 
Q 3263 3031 3263 3238 
Q 3263 3469 3139 3611 
Q 3016 3753 2791 3791 
Q 2678 3806 2116 3806 
L 1394 3806 
L 1394 2644 
z
" transform="scale(0.015625)"/>
       <path id="Arial-BoldMT-65" d="M 2381 1056 
L 3256 909 
Q 3088 428 2723 176 
Q 2359 -75 1813 -75 
Q 947 -75 531 491 
Q 203 944 203 1634 
Q 203 2459 634 2926 
Q 1066 3394 1725 3394 
Q 2466 3394 2894 2905 
Q 3322 2416 3303 1406 
L 1103 1406 
Q 1113 1016 1316 798 
Q 1519 581 1822 581 
Q 2028 581 2168 693 
Q 2309 806 2381 1056 
z
M 2431 1944 
Q 2422 2325 2234 2523 
Q 2047 2722 1778 2722 
Q 1491 2722 1303 2513 
Q 1116 2303 1119 1944 
L 2431 1944 
z
" transform="scale(0.015625)"/>
       <path id="Arial-BoldMT-63" d="M 3353 2338 
L 2488 2181 
Q 2444 2441 2289 2572 
Q 2134 2703 1888 2703 
Q 1559 2703 1364 2476 
Q 1169 2250 1169 1719 
Q 1169 1128 1367 884 
Q 1566 641 1900 641 
Q 2150 641 2309 783 
Q 2469 925 2534 1272 
L 3397 1125 
Q 3263 531 2881 228 
Q 2500 -75 1859 -75 
Q 1131 -75 698 384 
Q 266 844 266 1656 
Q 266 2478 700 2936 
Q 1134 3394 1875 3394 
Q 2481 3394 2839 3133 
Q 3197 2872 3353 2338 
z
" transform="scale(0.015625)"/>
       <path id="Arial-BoldMT-61" d="M 1116 2306 
L 319 2450 
Q 453 2931 781 3162 
Q 1109 3394 1756 3394 
Q 2344 3394 2631 3255 
Q 2919 3116 3036 2902 
Q 3153 2688 3153 2116 
L 3144 1091 
Q 3144 653 3186 445 
Q 3228 238 3344 0 
L 2475 0 
Q 2441 88 2391 259 
Q 2369 338 2359 363 
Q 2134 144 1878 34 
Q 1622 -75 1331 -75 
Q 819 -75 523 203 
Q 228 481 228 906 
Q 228 1188 362 1408 
Q 497 1628 739 1745 
Q 981 1863 1438 1950 
Q 2053 2066 2291 2166 
L 2291 2253 
Q 2291 2506 2166 2614 
Q 2041 2722 1694 2722 
Q 1459 2722 1328 2630 
Q 1197 2538 1116 2306 
z
M 2291 1594 
Q 2122 1538 1756 1459 
Q 1391 1381 1278 1306 
Q 1106 1184 1106 997 
Q 1106 813 1243 678 
Q 1381 544 1594 544 
Q 1831 544 2047 700 
Q 2206 819 2256 991 
Q 2291 1103 2291 1419 
L 2291 1594 
z
" transform="scale(0.015625)"/>
       <path id="Arial-BoldMT-6c" d="M 459 0 
L 459 4581 
L 1338 4581 
L 1338 0 
L 459 0 
z
" transform="scale(0.015625)"/>
       <path id="Arial-BoldMT-20" transform="scale(0.015625)"/>
       <path id="Arial-BoldMT-5b" d="M 456 -1291 
L 456 4581 
L 2013 4581 
L 2013 3891 
L 1291 3891 
L 1291 -600 
L 2013 -600 
L 2013 -1291 
L 456 -1291 
z
" transform="scale(0.015625)"/>
       <path id="Arial-BoldMT-54" d="M 1497 0 
L 1497 3806 
L 138 3806 
L 138 4581 
L 3778 4581 
L 3778 3806 
L 2422 3806 
L 2422 0 
L 1497 0 
z
" transform="scale(0.015625)"/>
       <path id="Arial-BoldMT-50" d="M 466 0 
L 466 4581 
L 1950 4581 
Q 2794 4581 3050 4513 
Q 3444 4409 3709 4064 
Q 3975 3719 3975 3172 
Q 3975 2750 3822 2462 
Q 3669 2175 3433 2011 
Q 3197 1847 2953 1794 
Q 2622 1728 1994 1728 
L 1391 1728 
L 1391 0 
L 466 0 
z
M 1391 3806 
L 1391 2506 
L 1897 2506 
Q 2444 2506 2628 2578 
Q 2813 2650 2917 2803 
Q 3022 2956 3022 3159 
Q 3022 3409 2875 3571 
Q 2728 3734 2503 3775 
Q 2338 3806 1838 3806 
L 1391 3806 
z
" transform="scale(0.015625)"/>
       <path id="Arial-BoldMT-2f" d="M -9 -78 
L 1125 4659 
L 1784 4659 
L 638 -78 
L -9 -78 
z
" transform="scale(0.015625)"/>
       <path id="Arial-BoldMT-28" d="M 1916 -1347 
L 1313 -1347 
Q 834 -625 584 153 
Q 334 931 334 1659 
Q 334 2563 644 3369 
Q 913 4069 1325 4659 
L 1925 4659 
Q 1497 3713 1336 3048 
Q 1175 2384 1175 1641 
Q 1175 1128 1270 590 
Q 1366 53 1531 -431 
Q 1641 -750 1916 -1347 
z
" transform="scale(0.015625)"/>
       <path id="Arial-BoldMT-2b" d="M 1466 659 
L 1466 1850 
L 266 1850 
L 266 2672 
L 1466 2672 
L 1466 3863 
L 2266 3863 
L 2266 2672 
L 3469 2672 
L 3469 1850 
L 2266 1850 
L 2266 659 
L 1466 659 
z
" transform="scale(0.015625)"/>
       <path id="Arial-BoldMT-46" d="M 472 0 
L 472 4581 
L 3613 4581 
L 3613 3806 
L 1397 3806 
L 1397 2722 
L 3309 2722 
L 3309 1947 
L 1397 1947 
L 1397 0 
L 472 0 
z
" transform="scale(0.015625)"/>
       <path id="Arial-BoldMT-4e" d="M 475 0 
L 475 4581 
L 1375 4581 
L 3250 1522 
L 3250 4581 
L 4109 4581 
L 4109 0 
L 3181 0 
L 1334 2988 
L 1334 0 
L 475 0 
z
" transform="scale(0.015625)"/>
       <path id="Arial-BoldMT-29" d="M 216 -1347 
Q 475 -791 581 -494 
Q 688 -197 778 190 
Q 869 578 912 926 
Q 956 1275 956 1641 
Q 956 2384 797 3048 
Q 638 3713 209 4659 
L 806 4659 
Q 1278 3988 1539 3234 
Q 1800 2481 1800 1706 
Q 1800 1053 1594 306 
Q 1359 -531 822 -1347 
L 216 -1347 
z
" transform="scale(0.015625)"/>
       <path id="Arial-BoldMT-5d" d="M 1675 4581 
L 1675 -1291 
L 119 -1291 
L 119 -600 
L 841 -600 
L 841 3897 
L 119 3897 
L 119 4581 
L 1675 4581 
z
" transform="scale(0.015625)"/>
      </defs>
      <use xlink:href="#Arial-BoldMT-52"/>
      <use xlink:href="#Arial-BoldMT-65" transform="translate(72.216797 0)"/>
      <use xlink:href="#Arial-BoldMT-63" transform="translate(127.832031 0)"/>
      <use xlink:href="#Arial-BoldMT-61" transform="translate(183.447266 0)"/>
      <use xlink:href="#Arial-BoldMT-6c" transform="translate(239.0625 0)"/>
      <use xlink:href="#Arial-BoldMT-6c" transform="translate(266.845703 0)"/>
      <use xlink:href="#Arial-BoldMT-20" transform="translate(294.628906 0)"/>
      <use xlink:href="#Arial-BoldMT-5b" transform="translate(322.412109 0)"/>
      <use xlink:href="#Arial-BoldMT-54" transform="translate(355.712891 0)"/>
      <use xlink:href="#Arial-BoldMT-50" transform="translate(416.796875 0)"/>
      <use xlink:href="#Arial-BoldMT-20" transform="translate(481.746094 0)"/>
      <use xlink:href="#Arial-BoldMT-2f" transform="translate(509.529297 0)"/>
      <use xlink:href="#Arial-BoldMT-20" transform="translate(537.3125 0)"/>
      <use xlink:href="#Arial-BoldMT-28" transform="translate(565.095703 0)"/>
      <use xlink:href="#Arial-BoldMT-54" transform="translate(598.396484 0)"/>
      <use xlink:href="#Arial-BoldMT-50" transform="translate(659.480469 0)"/>
      <use xlink:href="#Arial-BoldMT-20" transform="translate(724.429688 0)"/>
      <use xlink:href="#Arial-BoldMT-2b" transform="translate(752.212891 0)"/>
      <use xlink:href="#Arial-BoldMT-20" transform="translate(810.611328 0)"/>
      <use xlink:href="#Arial-BoldMT-46" transform="translate(838.394531 0)"/>
      <use xlink:href="#Arial-BoldMT-4e" transform="translate(899.478516 0)"/>
      <use xlink:href="#Arial-BoldMT-29" transform="translate(971.695312 0)"/>
      <use xlink:href="#Arial-BoldMT-5d" transform="translate(1004.996094 0)"/>
     </g>
    </g>
   </g>
   <g id="matplotlib.axis_2">
    <g id="ytick_1">
     <g id="line2d_13">
      <path d="M 35.655938 265.022801 
L 289.19952 265.022801 
" clip-path="url(#p21416c88b4)" style="fill: none; stroke: #c0c0c0; stroke-width: 0.25; stroke-linecap: round"/>
     </g>
     <g id="line2d_14"/>
     <g id="text_8">
      <!-- 0.0 -->
      <g style="fill: #333333" transform="translate(19.645938 268.243817) scale(0.09 -0.09)">
       <use xlink:href="#ArialMT-30"/>
       <use xlink:href="#ArialMT-2e" transform="translate(55.615234 0)"/>
       <use xlink:href="#ArialMT-30" transform="translate(83.398438 0)"/>
      </g>
     </g>
    </g>
    <g id="ytick_2">
     <g id="line2d_15">
      <path d="M 35.655938 217.37605 
L 289.19952 217.37605 
" clip-path="url(#p21416c88b4)" style="fill: none; stroke: #c0c0c0; stroke-width: 0.25; stroke-linecap: round"/>
     </g>
     <g id="line2d_16"/>
     <g id="text_9">
      <!-- 0.2 -->
      <g style="fill: #333333" transform="translate(19.645938 220.597065) scale(0.09 -0.09)">
       <use xlink:href="#ArialMT-30"/>
       <use xlink:href="#ArialMT-2e" transform="translate(55.615234 0)"/>
       <use xlink:href="#ArialMT-32" transform="translate(83.398438 0)"/>
      </g>
     </g>
    </g>
    <g id="ytick_3">
     <g id="line2d_17">
      <path d="M 35.655938 169.729298 
L 289.19952 169.729298 
" clip-path="url(#p21416c88b4)" style="fill: none; stroke: #c0c0c0; stroke-width: 0.25; stroke-linecap: round"/>
     </g>
     <g id="line2d_18"/>
     <g id="text_10">
      <!-- 0.4 -->
      <g style="fill: #333333" transform="translate(19.645938 172.950314) scale(0.09 -0.09)">
       <use xlink:href="#ArialMT-30"/>
       <use xlink:href="#ArialMT-2e" transform="translate(55.615234 0)"/>
       <use xlink:href="#ArialMT-34" transform="translate(83.398438 0)"/>
      </g>
     </g>
    </g>
    <g id="ytick_4">
     <g id="line2d_19">
      <path d="M 35.655938 122.082547 
L 289.19952 122.082547 
" clip-path="url(#p21416c88b4)" style="fill: none; stroke: #c0c0c0; stroke-width: 0.25; stroke-linecap: round"/>
     </g>
     <g id="line2d_20"/>
     <g id="text_11">
      <!-- 0.6 -->
      <g style="fill: #333333" transform="translate(19.645938 125.303563) scale(0.09 -0.09)">
       <use xlink:href="#ArialMT-30"/>
       <use xlink:href="#ArialMT-2e" transform="translate(55.615234 0)"/>
       <use xlink:href="#ArialMT-36" transform="translate(83.398438 0)"/>
      </g>
     </g>
    </g>
    <g id="ytick_5">
     <g id="line2d_21">
      <path d="M 35.655938 74.435795 
L 289.19952 74.435795 
" clip-path="url(#p21416c88b4)" style="fill: none; stroke: #c0c0c0; stroke-width: 0.25; stroke-linecap: round"/>
     </g>
     <g id="line2d_22"/>
     <g id="text_12">
      <!-- 0.8 -->
      <g style="fill: #333333" transform="translate(19.645938 77.656811) scale(0.09 -0.09)">
       <use xlink:href="#ArialMT-30"/>
       <use xlink:href="#ArialMT-2e" transform="translate(55.615234 0)"/>
       <use xlink:href="#ArialMT-38" transform="translate(83.398438 0)"/>
      </g>
     </g>
    </g>
    <g id="ytick_6">
     <g id="line2d_23">
      <path d="M 35.655938 26.789044 
L 289.19952 26.789044 
" clip-path="url(#p21416c88b4)" style="fill: none; stroke: #c0c0c0; stroke-width: 0.25; stroke-linecap: round"/>
     </g>
     <g id="line2d_24"/>
     <g id="text_13">
      <!-- 1.0 -->
      <g style="fill: #333333" transform="translate(19.645938 30.01006) scale(0.09 -0.09)">
       <use xlink:href="#ArialMT-31"/>
       <use xlink:href="#ArialMT-2e" transform="translate(55.615234 0)"/>
       <use xlink:href="#ArialMT-30" transform="translate(83.398438 0)"/>
      </g>
     </g>
    </g>
    <g id="text_14">
     <!-- Precision [TP / (TP + FP)] -->
     <g style="fill: #333333" transform="translate(13.751719 195.805776) rotate(-90) scale(0.09 -0.09)">
      <defs>
       <path id="Arial-BoldMT-72" d="M 1300 0 
L 422 0 
L 422 3319 
L 1238 3319 
L 1238 2847 
Q 1447 3181 1614 3287 
Q 1781 3394 1994 3394 
Q 2294 3394 2572 3228 
L 2300 2463 
Q 2078 2606 1888 2606 
Q 1703 2606 1575 2504 
Q 1447 2403 1373 2137 
Q 1300 1872 1300 1025 
L 1300 0 
z
" transform="scale(0.015625)"/>
       <path id="Arial-BoldMT-69" d="M 459 3769 
L 459 4581 
L 1338 4581 
L 1338 3769 
L 459 3769 
z
M 459 0 
L 459 3319 
L 1338 3319 
L 1338 0 
L 459 0 
z
" transform="scale(0.015625)"/>
       <path id="Arial-BoldMT-73" d="M 150 947 
L 1031 1081 
Q 1088 825 1259 692 
Q 1431 559 1741 559 
Q 2081 559 2253 684 
Q 2369 772 2369 919 
Q 2369 1019 2306 1084 
Q 2241 1147 2013 1200 
Q 950 1434 666 1628 
Q 272 1897 272 2375 
Q 272 2806 612 3100 
Q 953 3394 1669 3394 
Q 2350 3394 2681 3172 
Q 3013 2950 3138 2516 
L 2309 2363 
Q 2256 2556 2107 2659 
Q 1959 2763 1684 2763 
Q 1338 2763 1188 2666 
Q 1088 2597 1088 2488 
Q 1088 2394 1175 2328 
Q 1294 2241 1995 2081 
Q 2697 1922 2975 1691 
Q 3250 1456 3250 1038 
Q 3250 581 2869 253 
Q 2488 -75 1741 -75 
Q 1063 -75 667 200 
Q 272 475 150 947 
z
" transform="scale(0.015625)"/>
       <path id="Arial-BoldMT-6f" d="M 256 1706 
Q 256 2144 472 2553 
Q 688 2963 1083 3178 
Q 1478 3394 1966 3394 
Q 2719 3394 3200 2905 
Q 3681 2416 3681 1669 
Q 3681 916 3195 420 
Q 2709 -75 1972 -75 
Q 1516 -75 1102 131 
Q 688 338 472 736 
Q 256 1134 256 1706 
z
M 1156 1659 
Q 1156 1166 1390 903 
Q 1625 641 1969 641 
Q 2313 641 2545 903 
Q 2778 1166 2778 1666 
Q 2778 2153 2545 2415 
Q 2313 2678 1969 2678 
Q 1625 2678 1390 2415 
Q 1156 2153 1156 1659 
z
" transform="scale(0.015625)"/>
       <path id="Arial-BoldMT-6e" d="M 3478 0 
L 2600 0 
L 2600 1694 
Q 2600 2231 2544 2389 
Q 2488 2547 2361 2634 
Q 2234 2722 2056 2722 
Q 1828 2722 1647 2597 
Q 1466 2472 1398 2265 
Q 1331 2059 1331 1503 
L 1331 0 
L 453 0 
L 453 3319 
L 1269 3319 
L 1269 2831 
Q 1703 3394 2363 3394 
Q 2653 3394 2893 3289 
Q 3134 3184 3257 3021 
Q 3381 2859 3429 2653 
Q 3478 2447 3478 2063 
L 3478 0 
z
" transform="scale(0.015625)"/>
      </defs>
      <use xlink:href="#Arial-BoldMT-50"/>
      <use xlink:href="#Arial-BoldMT-72" transform="translate(66.699219 0)"/>
      <use xlink:href="#Arial-BoldMT-65" transform="translate(105.615234 0)"/>
      <use xlink:href="#Arial-BoldMT-63" transform="translate(161.230469 0)"/>
      <use xlink:href="#Arial-BoldMT-69" transform="translate(216.845703 0)"/>
      <use xlink:href="#Arial-BoldMT-73" transform="translate(244.628906 0)"/>
      <use xlink:href="#Arial-BoldMT-69" transform="translate(300.244141 0)"/>
      <use xlink:href="#Arial-BoldMT-6f" transform="translate(328.027344 0)"/>
      <use xlink:href="#Arial-BoldMT-6e" transform="translate(389.111328 0)"/>
      <use xlink:href="#Arial-BoldMT-20" transform="translate(450.195312 0)"/>
      <use xlink:href="#Arial-BoldMT-5b" transform="translate(477.978516 0)"/>
      <use xlink:href="#Arial-BoldMT-54" transform="translate(511.279297 0)"/>
      <use xlink:href="#Arial-BoldMT-50" transform="translate(572.363281 0)"/>
      <use xlink:href="#Arial-BoldMT-20" transform="translate(637.3125 0)"/>
      <use xlink:href="#Arial-BoldMT-2f" transform="translate(665.095703 0)"/>
      <use xlink:href="#Arial-BoldMT-20" transform="translate(692.878906 0)"/>
      <use xlink:href="#Arial-BoldMT-28" transform="translate(720.662109 0)"/>
      <use xlink:href="#Arial-BoldMT-54" transform="translate(753.962891 0)"/>
      <use xlink:href="#Arial-BoldMT-50" transform="translate(815.046875 0)"/>
      <use xlink:href="#Arial-BoldMT-20" transform="translate(879.996094 0)"/>
      <use xlink:href="#Arial-BoldMT-2b" transform="translate(907.779297 0)"/>
      <use xlink:href="#Arial-BoldMT-20" transform="translate(966.177734 0)"/>
      <use xlink:href="#Arial-BoldMT-46" transform="translate(993.960938 0)"/>
      <use xlink:href="#Arial-BoldMT-50" transform="translate(1055.044922 0)"/>
      <use xlink:href="#Arial-BoldMT-29" transform="translate(1121.744141 0)"/>
      <use xlink:href="#Arial-BoldMT-5d" transform="translate(1155.044922 0)"/>
     </g>
    </g>
   </g>
   <g id="line2d_25">
    <path d="M 42.831699 265.022801 
L 42.942752 243.353027 
L 42.943631 243.263851 
L 43.054684 233.499076 
L 43.055753 233.4099 
L 43.166711 226.721697 
L 43.168943 226.632521 
L 43.279782 221.05902 
L 43.285292 220.969844 
L 43.39473 216.77857 
L 43.399932 216.689394 
L 43.505427 212.275181 
L 43.517231 212.186005 
L 43.626004 208.797316 
L 43.635622 208.70814 
L 43.74544 205.542391 
L 43.750523 205.453215 
L 43.859937 203.000874 
L 43.863214 202.911698 
L 43.971227 200.102653 
L 43.979587 200.013477 
L 44.0876 198.229957 
L 44.096126 198.140781 
L 44.203973 196.089732 
L 44.217178 196.000556 
L 44.326616 193.994095 
L 44.336876 193.904919 
L 44.444746 191.898459 
L 44.453843 191.809283 
L 44.561262 190.114938 
L 44.570975 190.025762 
L 44.677326 188.73271 
L 44.686707 188.643534 
L 44.787738 186.949189 
L 44.81049 186.860013 
L 44.914086 185.433197 
L 44.916437 185.433197 
L 44.930235 185.344021 
L 45.041336 183.515912 
L 45.047677 183.426736 
L 45.153576 182.044508 
L 45.161841 181.955332 
L 45.267978 180.662279 
L 45.296952 180.573103 
L 45.404657 179.235463 
L 45.424013 179.146287 
L 45.533997 177.808646 
L 45.54105 177.71947 
L 45.633769 176.471006 
L 45.664667 176.38183 
L 45.77287 175.445482 
L 45.787619 175.356306 
L 45.896035 174.464545 
L 45.910475 174.375369 
L 46.017182 172.993141 
L 46.030054 172.903965 
L 46.140561 171.655501 
L 46.151699 171.566325 
L 46.252873 170.76374 
L 46.277643 170.674564 
L 46.387651 169.559864 
L 46.405084 169.470688 
L 46.503811 168.623516 
L 46.52756 168.53434 
L 46.638518 167.687167 
L 46.658373 167.597991 
L 46.756197 166.661643 
L 46.776242 166.572467 
L 46.877676 165.190239 
L 46.905725 165.101063 
L 47.01635 164.47683 
L 47.040646 164.387654 
L 47.148873 163.317542 
L 47.162101 163.228366 
L 47.269592 162.158254 
L 47.283557 162.069078 
L 47.388007 160.998965 
L 47.417053 160.909789 
L 47.524472 159.973441 
L 47.540384 159.884265 
L 47.64949 158.947917 
L 47.689936 158.858741 
L 47.795146 157.699452 
L 47.820392 157.610276 
L 47.929996 156.673928 
L 47.943248 156.584752 
L 48.012312 156.18346 
L 48.057175 156.094284 
L 48.164048 155.157935 
L 48.180697 155.068759 
L 48.270185 154.622879 
L 48.288995 154.622879 
L 48.311652 154.533703 
L 48.385679 153.820295 
L 48.419071 153.820295 
L 48.428903 153.731119 
L 48.536109 153.106887 
L 48.582183 153.017711 
L 48.687228 152.482655 
L 48.696656 152.393479 
L 48.806355 151.724658 
L 48.816591 151.635482 
L 48.910545 151.01125 
L 48.92052 151.01125 
L 48.968731 150.922074 
L 49.075937 150.208666 
L 49.089165 150.11949 
L 49.191835 149.584434 
L 49.19573 149.584434 
L 49.227388 149.495258 
L 49.328941 148.871026 
L 49.353973 148.781849 
L 49.463696 148.380557 
L 49.473196 148.291381 
L 49.578288 147.533385 
L 49.624766 147.444209 
L 49.723991 146.819977 
L 49.762632 146.730801 
L 49.864684 146.240333 
L 49.879789 146.151157 
L 49.984215 145.125632 
L 50.003928 145.036456 
L 50.111133 144.456812 
L 50.131035 144.367636 
L 50.24045 143.520464 
L 50.275409 143.431288 
L 50.372355 142.851644 
L 50.431491 142.762468 
L 50.540359 141.826119 
L 50.552448 141.736943 
L 50.662313 141.201887 
L 50.68972 141.112711 
L 50.789445 140.533067 
L 50.82457 140.443891 
L 50.927026 139.775071 
L 50.927335 139.775071 
L 50.980795 139.685895 
L 51.081446 138.927898 
L 51.088119 138.927898 
L 51.118258 138.838722 
L 51.207556 138.482018 
L 51.224181 138.482018 
L 51.24318 138.392842 
L 51.353663 137.857786 
L 51.366488 137.76861 
L 51.452628 137.367318 
L 51.466664 137.367318 
L 51.492005 137.278142 
L 51.578809 136.65391 
L 51.591729 136.65391 
L 51.632008 136.564734 
L 51.732398 136.163442 
L 51.774054 136.074266 
L 51.874919 135.583797 
L 51.914747 135.494621 
L 52.006492 134.914977 
L 52.023401 134.914977 
L 52.036368 134.825801 
L 52.132554 134.379921 
L 52.189814 134.290745 
L 52.293268 133.889453 
L 52.333167 133.800277 
L 52.438805 133.265221 
L 52.457092 133.176045 
L 52.567076 132.730165 
L 52.58686 132.640989 
L 52.69587 131.882992 
L 52.722992 131.793816 
L 52.80823 131.526288 
L 52.820627 131.526288 
L 52.902254 131.437112 
L 53.012428 130.81288 
L 53.041593 130.723704 
L 53.151316 130.233236 
L 53.227813 130.14406 
L 53.307802 129.653592 
L 53.323833 129.653592 
L 53.375346 129.564416 
L 53.482124 129.029359 
L 53.552066 128.940183 
L 53.645307 128.315951 
L 53.705868 128.226775 
L 53.816779 127.870071 
L 53.851952 127.780895 
L 53.946475 127.379603 
L 53.961984 127.379603 
L 54.02169 127.290427 
L 54.123647 126.844547 
L 54.125713 126.844547 
L 54.139037 126.755371 
L 54.248807 126.131139 
L 54.278969 126.041962 
L 54.344376 125.64067 
L 54.385059 125.64067 
L 54.474381 125.551494 
L 54.579924 125.328554 
L 54.635783 125.239378 
L 54.723324 124.793498 
L 54.743867 124.793498 
L 54.780418 124.704322 
L 54.885818 124.347618 
L 54.889761 124.347618 
L 54.932249 124.258442 
L 55.021286 123.85715 
L 55.036319 123.85715 
L 55.053158 123.767974 
L 55.113197 123.500446 
L 55.144499 123.500446 
L 55.208908 123.41127 
L 55.302718 123.054566 
L 55.318821 123.054566 
L 55.34941 122.96539 
L 55.459988 122.564097 
L 55.524444 122.474921 
L 55.635379 122.029041 
L 55.697413 121.939865 
L 55.808513 121.583161 
L 55.850075 121.493985 
L 55.939991 121.181869 
L 55.98521 121.092693 
L 56.09213 120.646813 
L 56.113838 120.557637 
L 56.217314 120.022581 
L 56.243463 119.933405 
L 56.354563 119.532112 
L 56.372518 119.442936 
L 56.481647 119.041644 
L 56.551281 118.952468 
L 56.660481 118.595764 
L 56.678935 118.506588 
L 56.774384 117.926944 
L 56.820672 117.837768 
L 56.921869 117.614828 
L 56.928519 117.614828 
L 56.946735 117.525652 
L 57.043918 117.079772 
L 57.057788 117.079772 
L 57.121437 116.990596 
L 57.209405 116.544716 
L 57.256263 116.45554 
L 57.321551 116.143423 
L 57.330789 116.143423 
L 57.45481 116.054247 
L 57.559118 115.608367 
L 57.626852 115.519191 
L 57.728333 115.117899 
L 57.756405 115.028723 
L 57.865273 114.449079 
L 57.952529 114.359903 
L 58.041092 114.003199 
L 58.10341 113.914023 
L 58.190334 113.289791 
L 58.234603 113.200615 
L 58.345181 112.487206 
L 58.375699 112.39803 
L 58.46875 112.17509 
L 58.485019 112.17509 
L 58.53931 112.085914 
L 58.634973 111.818386 
L 58.697435 111.72921 
L 58.799534 111.238742 
L 58.800199 111.238742 
L 58.859763 111.149566 
L 58.950225 110.525334 
L 58.95678 110.525334 
L 58.997582 110.436158 
L 59.073628 110.16863 
L 59.107352 110.16863 
L 59.176844 110.079454 
L 59.274312 109.856514 
L 59.276378 109.856514 
L 59.344729 109.767337 
L 59.455307 109.455221 
L 59.474616 109.366045 
L 59.565102 109.009341 
L 59.584196 109.009341 
L 59.624309 108.920165 
L 59.733272 108.741813 
L 59.750895 108.652637 
L 59.846368 108.429697 
L 59.86152 108.429697 
L 59.893463 108.340521 
L 59.989578 108.072993 
L 60.051398 107.983817 
L 60.151621 107.582525 
L 60.232631 107.493349 
L 60.32903 107.314997 
L 60.507318 107.225821 
L 60.59854 106.779941 
L 60.625876 106.690765 
L 60.696246 106.467824 
L 60.856152 106.378648 
L 60.966683 106.155708 
L 61.006891 106.066532 
L 61.102198 105.709828 
L 61.153378 105.620652 
L 61.22807 105.353124 
L 61.315136 105.263948 
L 61.425002 105.041008 
L 61.474567 104.951832 
L 61.577094 104.55054 
L 61.693158 104.461364 
L 61.769798 104.149248 
L 61.79255 104.149248 
L 61.883297 104.060072 
L 61.99055 103.88172 
L 62.097186 103.792544 
L 62.189192 103.569604 
L 62.204273 103.569604 
L 62.281981 103.480428 
L 62.378381 103.302076 
L 62.385767 103.302076 
L 62.530022 103.212899 
L 62.630031 102.900783 
L 62.634449 102.900783 
L 62.652427 102.811607 
L 62.740681 102.454903 
L 62.755002 102.454903 
L 62.849074 102.365727 
L 62.932506 102.053611 
L 62.956018 102.053611 
L 62.972975 101.964435 
L 63.083458 101.518555 
L 63.127324 101.429379 
L 63.215696 101.161851 
L 63.291884 101.072675 
L 63.398876 100.537619 
L 63.401489 100.537619 
L 63.523253 100.448443 
L 63.632501 100.225503 
L 63.683729 100.136327 
L 63.763717 99.779622 
L 63.77051 99.779622 
L 63.831831 99.690446 
L 63.927138 99.467506 
L 64.017339 99.37833 
L 64.095024 99.289154 
L 64.194701 99.199978 
L 64.297323 98.843274 
L 64.363465 98.754098 
L 64.472666 98.48657 
L 64.535317 98.397394 
L 64.641881 98.04069 
L 64.64523 98.04069 
L 64.733507 97.951514 
L 64.824278 97.728574 
L 64.825917 97.728574 
L 64.872537 97.639398 
L 64.965208 97.37187 
L 64.976988 97.37187 
L 65.060301 97.282694 
L 65.060301 97.238106 
L 65.123546 97.238106 
L 65.246356 97.14893 
L 65.356981 96.92599 
L 65.450032 96.836814 
L 65.517908 96.569285 
L 65.518146 96.569285 
L 65.608774 96.480109 
L 65.709045 96.167993 
L 65.816844 96.078817 
L 65.906024 95.945053 
L 65.924596 95.945053 
L 65.986178 95.855877 
L 66.095616 95.499173 
L 66.162733 95.409997 
L 66.272883 95.187057 
L 66.325536 95.097881 
L 66.325536 95.053293 
L 66.4283 95.053293 
L 66.487413 94.964117 
L 66.596732 94.652001 
L 66.686126 94.562825 
L 66.789816 94.250709 
L 66.894908 94.161533 
L 66.997055 93.894005 
L 67.001948 93.894005 
L 67.014084 93.804829 
L 67.109961 93.626477 
L 67.205244 93.537301 
L 67.315442 93.31436 
L 67.413314 93.225184 
L 67.521208 92.86848 
L 67.554481 92.779304 
L 67.6548 92.467188 
L 67.716976 92.378012 
L 67.799007 92.155072 
L 67.825773 92.155072 
L 67.857027 92.065896 
L 67.955944 91.620016 
L 67.963924 91.620016 
L 68.078729 91.53084 
L 68.101102 91.441664 
L 68.1847 91.441664 
L 68.234289 91.352488 
L 68.324989 91.08496 
L 68.342658 91.08496 
L 68.433144 90.995784 
L 68.539329 90.728256 
L 68.638056 90.63908 
L 68.638056 90.594492 
L 68.748349 90.594492 
L 68.884861 90.505316 
L 68.992376 90.148611 
L 69.191587 90.059435 
L 69.236355 89.881083 
L 69.295491 89.881083 
L 69.427183 89.791907 
L 69.486604 89.613555 
L 69.525031 89.613555 
L 69.547474 89.524379 
L 69.547474 89.479791 
L 69.649027 89.479791 
L 69.76806 89.390615 
L 69.870872 89.078499 
L 70.044244 88.989323 
L 70.13568 88.810971 
L 70.138435 88.810971 
L 70.209969 88.721795 
L 70.28098 88.454267 
L 70.316272 88.454267 
L 70.401105 88.365091 
L 70.487744 88.142151 
L 70.506363 88.142151 
L 70.710918 88.052975 
L 70.768297 87.874623 
L 70.774187 87.874623 
L 71.006672 87.785447 
L 71.108534 87.473331 
L 71.200207 87.384155 
L 71.272049 86.982862 
L 71.294255 86.982862 
L 71.361894 86.893686 
L 71.453591 86.670746 
L 71.641878 86.58157 
L 71.709635 86.447806 
L 71.746305 86.447806 
L 71.822375 86.35863 
L 71.918062 86.091102 
L 71.930388 86.091102 
L 72.035527 86.001926 
L 72.119624 85.778986 
L 72.143398 85.778986 
L 72.244024 85.68981 
L 72.347929 85.556046 
L 72.506885 85.46687 
L 72.559775 85.333106 
L 72.608367 85.333106 
L 72.75654 85.24393 
L 72.854626 85.110166 
L 72.857333 85.110166 
L 72.999617 85.02099 
L 73.063955 84.79805 
L 73.106181 84.79805 
L 73.238039 84.708874 
L 73.306319 84.485934 
L 73.467911 84.396758 
L 73.525694 84.218406 
L 73.571103 84.218406 
L 73.646223 84.12923 
L 73.752764 83.861702 
L 73.889181 83.772525 
L 73.987861 83.549585 
L 74.046403 83.460409 
L 74.130263 83.192881 
L 74.230082 83.103705 
L 74.307126 82.925353 
L 74.508902 82.836177 
L 74.588915 82.702413 
L 74.612094 82.702413 
L 74.876593 82.613237 
L 74.986483 82.390297 
L 75.108365 82.301121 
L 75.152967 82.078181 
L 75.201321 82.078181 
L 75.348307 81.989005 
L 75.456914 81.810653 
L 75.457294 81.810653 
L 75.675315 81.721477 
L 75.709277 81.632301 
L 75.753071 81.632301 
L 75.848046 81.543125 
L 75.958078 81.320185 
L 76.089413 81.231009 
L 76.172465 81.097245 
L 76.184886 81.097245 
L 76.363744 81.008069 
L 76.413262 80.829717 
L 76.432927 80.829717 
L 76.642255 80.740541 
L 76.688139 80.606777 
L 76.752572 80.606777 
L 76.875286 80.5176 
L 76.939196 80.428424 
L 76.98071 80.428424 
L 77.018757 80.339248 
L 77.046568 80.205484 
L 77.107747 80.205484 
L 77.191084 80.116308 
L 77.297577 79.937956 
L 77.413689 79.84878 
L 77.516999 79.62584 
L 77.543053 79.536664 
L 77.543053 79.492076 
L 77.63057 79.492076 
L 77.856167 79.4029 
L 77.947769 79.269136 
L 78.015479 79.17996 
L 78.015479 79.135372 
L 78.118267 79.135372 
L 78.250624 79.046196 
L 78.356119 78.867844 
L 78.438317 78.778668 
L 78.542815 78.51114 
L 78.580909 78.421964 
L 78.677736 78.332788 
L 78.681726 78.332788 
L 78.789739 78.243612 
L 78.857354 78.109848 
L 78.900792 78.109848 
L 79.045878 78.020672 
L 79.127125 77.886908 
L 79.144629 77.886908 
L 79.200892 77.797732 
L 79.284823 77.663968 
L 79.311897 77.663968 
L 79.511489 77.574792 
L 79.520181 77.485616 
L 79.59219 77.485616 
L 79.713122 77.39644 
L 79.823059 77.173499 
L 79.875593 77.084323 
L 79.931927 76.995147 
L 79.980068 76.995147 
L 80.096061 76.905971 
L 80.180965 76.816795 
L 80.202601 76.816795 
L 80.382457 76.727619 
L 80.473346 76.638443 
L 80.480732 76.638443 
L 80.551007 76.549267 
L 80.585634 76.460091 
L 80.618765 76.460091 
L 80.817668 76.370915 
L 80.912476 76.237151 
L 80.913165 76.237151 
L 81.297195 76.147975 
L 81.381886 75.969623 
L 81.383739 75.969623 
L 81.552717 75.880447 
L 81.596179 75.746683 
L 81.661395 75.746683 
L 81.761832 75.657507 
L 81.864905 75.434567 
L 81.970543 75.345391 
L 82.035641 75.167039 
L 82.076276 75.167039 
L 82.265608 75.077863 
L 82.334529 74.988687 
L 82.371365 74.988687 
L 82.520298 74.899511 
L 82.601474 74.721159 
L 82.752735 74.631983 
L 82.854312 74.409043 
L 83.128477 74.319867 
L 83.224093 74.230691 
L 83.518516 74.141515 
L 83.593138 74.00775 
L 83.60563 74.00775 
L 83.701887 73.918574 
L 83.761688 73.78481 
L 83.80154 73.78481 
L 83.995812 73.695634 
L 84.091617 73.517282 
L 84.270309 73.428106 
L 84.295816 73.33893 
L 84.373715 73.33893 
L 84.572522 73.249754 
L 84.664053 73.026814 
L 84.850511 72.937638 
L 84.91967 72.803874 
L 84.948644 72.803874 
L 85.017803 72.714698 
L 85.108218 72.536346 
L 85.226039 72.44717 
L 85.33277 72.22423 
L 85.47503 72.135054 
L 85.507021 72.00129 
L 85.565065 72.00129 
L 85.879343 71.912114 
L 85.925274 71.822938 
L 85.984054 71.822938 
L 86.072189 71.733762 
L 86.072189 71.689174 
L 86.170916 71.689174 
L 86.664028 71.599998 
L 86.66543 71.510822 
L 86.707419 71.510822 
L 86.847066 71.421646 
L 86.88357 71.33247 
L 86.943181 71.33247 
L 87.050434 71.243294 
L 87.120187 71.154118 
L 87.148662 71.154118 
L 87.267648 71.064942 
L 87.378178 70.88659 
L 87.538868 70.797414 
L 87.642796 70.529885 
L 87.645123 70.529885 
L 87.734517 70.440709 
L 87.760594 70.306945 
L 87.819564 70.306945 
L 88.004051 70.217769 
L 88.03464 70.128593 
L 88.093064 70.128593 
L 88.166308 70.039417 
L 88.166308 69.994829 
L 88.275342 69.994829 
L 88.500749 69.905653 
L 88.525401 69.727301 
L 88.546253 69.727301 
L 88.816761 69.638125 
L 88.924608 69.326009 
L 89.116029 69.236833 
L 89.185639 69.103069 
L 89.354119 69.013893 
L 89.395229 68.880129 
L 89.765081 68.790953 
L 89.851269 68.657189 
L 89.86616 68.657189 
L 90.173313 68.568013 
L 90.275365 68.478837 
L 90.27831 68.478837 
L 90.598478 68.389661 
L 90.613867 68.300485 
L 90.693476 68.300485 
L 90.742115 68.211309 
L 90.742115 68.166721 
L 90.829181 68.166721 
L 91.160701 68.077545 
L 91.160701 68.032957 
L 91.239027 68.032957 
L 91.38409 67.943781 
L 91.473768 67.765429 
L 91.485144 67.765429 
L 92.620564 67.676253 
L 92.718768 67.587077 
L 92.984478 67.4979 
L 92.991247 67.408724 
L 93.026705 67.408724 
L 93.234751 67.319548 
L 93.238813 67.230372 
L 93.336875 67.230372 
L 93.484122 67.141196 
L 93.524211 67.05202 
L 93.592064 67.05202 
L 93.886582 66.962844 
L 93.993479 66.739904 
L 94.045681 66.650728 
L 94.126643 66.561552 
L 94.393137 66.472376 
L 94.494714 66.249436 
L 94.869031 66.16026 
L 94.973196 66.071084 
L 95.105291 65.981908 
L 95.165378 65.892732 
L 95.422016 65.803556 
L 95.493146 65.71438 
L 95.494594 65.71438 
L 95.825283 65.625204 
L 95.884206 65.536028 
L 95.890476 65.536028 
L 96.322053 65.446852 
L 96.322053 65.402264 
L 96.359055 65.402264 
L 96.819369 65.313088 
L 96.911019 65.134736 
L 97.473219 65.04556 
L 97.566127 64.956384 
L 97.882733 64.867208 
L 97.989154 64.733444 
L 98.36682 64.644268 
L 98.46151 64.555092 
L 98.612248 64.465916 
L 98.707555 64.37674 
L 98.979369 64.287564 
L 99.053539 64.198387 
L 99.408073 64.109211 
L 99.498915 63.930859 
L 99.518318 63.930859 
L 99.876295 63.841683 
L 99.933651 63.707919 
L 99.972505 63.707919 
L 100.313003 63.618743 
L 100.400021 63.529567 
L 100.407217 63.529567 
L 100.91959 63.440391 
L 100.968847 63.217451 
L 100.994805 63.217451 
L 101.08104 63.128275 
L 101.180836 63.039099 
L 101.232206 62.949923 
L 101.293907 62.860747 
L 101.341858 62.860747 
L 101.68549 62.771571 
L 101.783742 62.682395 
L 102.107283 62.593219 
L 102.140152 62.459455 
L 102.145852 62.459455 
L 102.410589 62.370279 
L 102.465593 62.147339 
L 102.720758 62.058163 
L 102.813856 61.879811 
L 102.977396 61.790635 
L 102.977396 61.746047 
L 103.068618 61.746047 
L 103.500551 61.656871 
L 103.509386 61.567695 
L 103.608232 61.567695 
L 103.907785 61.478519 
L 103.971648 61.389343 
L 104.216055 61.300167 
L 104.26163 61.210991 
L 104.289963 61.210991 
L 104.946758 61.121815 
L 105.039524 61.032639 
L 105.141172 60.943462 
L 105.141172 60.898874 
L 105.240421 60.898874 
L 105.389189 60.809698 
L 105.480268 60.675934 
L 106.092152 60.586758 
L 106.171238 60.497582 
L 106.351878 60.408406 
L 106.441532 60.230054 
L 106.736573 60.140878 
L 106.817013 60.051702 
L 107.075622 59.962526 
L 107.113764 59.828762 
L 107.143475 59.828762 
L 107.514775 59.739586 
L 107.571703 59.65041 
L 107.624831 59.65041 
L 107.972121 59.561234 
L 108.012281 59.42747 
L 108.388308 59.338294 
L 108.388308 59.293706 
L 108.39598 59.293706 
L 108.818627 59.20453 
L 108.850736 59.070766 
L 108.864915 59.070766 
L 109.539545 58.98159 
L 109.539545 58.937002 
L 109.600273 58.937002 
L 109.913411 58.847826 
L 110.009905 58.714062 
L 110.261603 58.624886 
L 110.351068 58.491122 
L 110.362777 58.491122 
L 110.708452 58.401946 
L 110.708452 58.357358 
L 110.759703 58.357358 
L 111.160857 58.268182 
L 111.266187 58.179006 
L 111.366125 58.08983 
L 111.387238 58.000654 
L 111.443905 58.000654 
L 111.873059 57.911478 
L 111.937207 57.822302 
L 111.967749 57.822302 
L 112.258467 57.733125 
L 112.32252 57.599361 
L 112.648079 57.510185 
L 112.725693 57.376421 
L 112.747305 57.376421 
L 113.049162 57.287245 
L 113.049162 57.242657 
L 113.147271 57.242657 
L 113.478768 57.153481 
L 113.478768 57.108893 
L 113.548995 57.108893 
L 114.207381 57.019717 
L 114.304921 56.930541 
L 114.585166 56.841365 
L 114.695055 56.663013 
L 115.10901 56.573837 
L 115.150453 56.440073 
L 115.172184 56.440073 
L 115.524105 56.350897 
L 115.629648 56.261721 
L 115.972829 56.172545 
L 116.0598 56.083369 
L 116.075641 56.083369 
L 116.504606 55.994193 
L 116.504606 55.949605 
L 116.602312 55.949605 
L 116.796607 55.860429 
L 116.866621 55.771253 
L 117.448034 55.682077 
L 117.45124 55.592901 
L 117.463804 55.592901 
L 117.728635 55.503725 
L 117.805703 55.414549 
L 118.046309 55.325373 
L 118.046309 55.280785 
L 118.730155 55.191609 
L 118.82482 55.102433 
L 119.013748 55.013257 
L 119.013748 54.968669 
L 119.024578 54.968669 
L 119.470619 54.879493 
L 119.536904 54.790317 
L 119.877259 54.701141 
L 119.877259 54.656553 
L 119.964111 54.656553 
L 120.206024 54.567377 
L 120.206024 54.522788 
L 120.547757 54.433612 
L 120.591979 54.344436 
L 121.07666 54.25526 
L 121.169996 54.03232 
L 121.628766 53.943144 
L 121.628766 53.898556 
L 121.718706 53.898556 
L 122.000019 53.80938 
L 122.110455 53.631028 
L 122.623564 53.541852 
L 122.652824 53.452676 
L 123.041937 53.3635 
L 123.041937 53.318912 
L 123.146696 53.318912 
L 123.382292 53.229736 
L 123.382292 53.185148 
L 123.411837 53.185148 
L 124.093616 53.095972 
L 124.179399 52.962208 
L 124.857212 52.873032 
L 124.857212 52.828444 
L 124.931215 52.828444 
L 125.664602 52.739268 
L 125.664602 52.69468 
L 125.92846 52.605504 
L 125.92846 52.560916 
L 126.2881 52.47174 
L 126.2881 52.427152 
L 126.356902 52.427152 
L 126.607935 52.337976 
L 126.607935 52.293388 
L 126.683245 52.293388 
L 127.045759 52.204212 
L 127.045759 52.159624 
L 127.050603 52.159624 
L 127.294037 52.070448 
L 127.294037 52.02586 
L 127.350656 52.02586 
L 128.078129 51.936684 
L 128.078129 51.892096 
L 128.369821 51.80292 
L 128.448788 51.669156 
L 128.737726 51.57998 
L 128.836001 51.490804 
L 129.103374 51.401628 
L 129.131921 51.312452 
L 129.203882 51.312452 
L 129.437815 51.223275 
L 129.483153 51.134099 
L 129.928577 51.044923 
L 129.928577 51.000335 
L 130.632633 50.911159 
L 130.632633 50.866571 
L 130.886373 50.777395 
L 130.886373 50.732807 
L 130.9775 50.732807 
L 131.675073 50.643631 
L 131.696709 50.509867 
L 132.294462 50.420691 
L 132.380839 50.331515 
L 132.753232 50.242339 
L 132.813983 50.153163 
L 133.345451 50.063987 
L 133.440853 49.930223 
L 133.898674 49.841047 
L 133.898674 49.796459 
L 134.86483 49.707283 
L 134.962132 49.573519 
L 135.269072 49.484343 
L 135.373831 49.395167 
L 135.623938 49.305991 
L 135.688394 49.172227 
L 135.980015 49.083051 
L 136.064112 48.949287 
L 136.182219 48.860111 
L 136.2576 48.726347 
L 136.609236 48.637171 
L 136.609236 48.592583 
L 136.676661 48.592583 
L 136.968211 48.503407 
L 137.049268 48.414231 
L 137.050646 48.414231 
L 137.586982 48.325055 
L 137.667968 48.235879 
L 138.376394 48.146703 
L 138.435198 48.057527 
L 138.616859 47.96835 
L 138.616859 47.923762 
L 139.286858 47.834586 
L 139.286858 47.789998 
L 139.338988 47.789998 
L 140.185851 47.700822 
L 140.208365 47.611646 
L 140.565321 47.52247 
L 140.565321 47.477882 
L 140.660676 47.477882 
L 141.02972 47.388706 
L 141.06696 47.29953 
L 141.310939 47.210354 
L 141.310939 47.165766 
L 141.354353 47.165766 
L 142.02117 47.07659 
L 142.106479 46.942826 
L 142.112178 46.942826 
L 142.979299 46.85365 
L 142.979299 46.809062 
L 144.763937 46.719886 
L 144.839864 46.586122 
L 145.319986 46.496946 
L 145.319986 46.452358 
L 146.063775 46.363182 
L 146.063775 46.318594 
L 146.327158 46.229418 
L 146.327158 46.18483 
L 146.348865 46.18483 
L 147.110133 46.095654 
L 147.110133 46.051066 
L 148.326064 45.96189 
L 148.388193 45.872714 
L 148.727598 45.783538 
L 148.770561 45.694362 
L 148.835279 45.694362 
L 148.912797 45.605186 
L 148.912797 45.560598 
L 148.960486 45.560598 
L 149.159864 45.471422 
L 149.201639 45.337658 
L 149.239283 45.337658 
L 149.975353 45.248482 
L 149.978203 45.159306 
L 150.660077 45.07013 
L 150.674493 44.980954 
L 150.707315 44.980954 
L 151.330409 44.891778 
L 151.330409 44.84719 
L 152.023326 44.758013 
L 152.124879 44.624249 
L 152.618277 44.535073 
L 152.682876 44.401309 
L 153.496726 44.312133 
L 153.496726 44.267545 
L 153.846605 44.178369 
L 153.898307 44.089193 
L 155.097566 44.000017 
L 155.097566 43.955429 
L 155.145587 43.955429 
L 155.577165 43.866253 
L 155.577165 43.821665 
L 155.62806 43.821665 
L 156.084907 43.732489 
L 156.119249 43.598725 
L 157.310527 43.509549 
L 157.375387 43.375785 
L 157.417851 43.375785 
L 157.620863 43.286609 
L 157.726643 43.108257 
L 157.911035 43.019081 
L 157.911035 42.974493 
L 157.915001 42.974493 
L 158.61483 42.885317 
L 158.61483 42.840729 
L 159.212037 42.751553 
L 159.212037 42.706965 
L 159.312616 42.706965 
L 159.777063 42.617789 
L 159.853964 42.528613 
L 160.173657 42.439437 
L 160.173657 42.394849 
L 160.746568 42.305673 
L 160.78851 42.216497 
L 160.824656 42.216497 
L 161.641784 42.127321 
L 161.716548 42.038145 
L 161.947037 41.948969 
L 161.947037 41.904381 
L 162.549825 41.815205 
L 162.658575 41.726029 
L 163.30955 41.636853 
L 163.42058 41.547677 
L 163.678666 41.4585 
L 163.678666 41.413912 
L 163.783663 41.413912 
L 164.179568 41.324736 
L 164.179568 41.280148 
L 164.572719 41.190972 
L 164.572719 41.146384 
L 165.072505 41.057208 
L 165.153277 40.968032 
L 165.362938 40.878856 
L 165.362938 40.834268 
L 165.859756 40.745092 
L 165.859756 40.700504 
L 165.905782 40.700504 
L 166.77694 40.611328 
L 166.77694 40.56674 
L 167.382317 40.477564 
L 167.463659 40.388388 
L 168.192439 40.299212 
L 168.192439 40.254624 
L 169.760694 40.165448 
L 169.760694 40.12086 
L 170.583783 40.031684 
L 170.583783 39.987096 
L 170.601263 39.987096 
L 171.816671 39.89792 
L 171.816671 39.853332 
L 172.613802 39.764156 
L 172.690703 39.67498 
L 173.31971 39.585804 
L 173.31971 39.541216 
L 173.890365 39.45204 
L 173.890365 39.407452 
L 174.43784 39.318276 
L 174.43784 39.273688 
L 174.494031 39.273688 
L 175.443468 39.184512 
L 175.503839 39.095336 
L 176.371293 39.00616 
L 176.371293 38.961572 
L 176.983177 38.872396 
L 176.983177 38.827808 
L 177.026638 38.827808 
L 178.592471 38.738632 
L 178.592471 38.694044 
L 178.873476 38.604868 
L 178.873476 38.56028 
L 179.937053 38.471104 
L 179.960328 38.381928 
L 180.021958 38.381928 
L 180.788048 38.292752 
L 180.788048 38.248163 
L 181.824337 38.158987 
L 181.824337 38.114399 
L 181.837233 38.114399 
L 182.090095 38.025223 
L 182.090095 37.980635 
L 182.41107 37.891459 
L 182.425249 37.802283 
L 182.922755 37.713107 
L 182.922755 37.668519 
L 183.902282 37.579343 
L 183.902282 37.534755 
L 184.207321 37.445579 
L 184.207321 37.400991 
L 184.738908 37.311815 
L 184.738908 37.267227 
L 185.843548 37.178051 
L 185.843548 37.133463 
L 185.925888 37.133463 
L 186.291489 37.044287 
L 186.291489 36.999699 
L 186.37162 36.999699 
L 186.853499 36.910523 
L 186.91197 36.821347 
L 186.951775 36.821347 
L 187.251399 36.732171 
L 187.270446 36.642995 
L 189.503856 36.553819 
L 189.503856 36.509231 
L 192.201261 36.420055 
L 192.201261 36.375467 
L 193.495328 36.286291 
L 193.526464 36.197115 
L 194.094435 36.107939 
L 194.100728 36.018763 
L 195.341453 35.929587 
L 195.341453 35.884999 
L 195.426857 35.884999 
L 196.129702 35.795823 
L 196.129702 35.751235 
L 196.231207 35.751235 
L 197.069496 35.662059 
L 197.160979 35.572883 
L 198.038455 35.483707 
L 198.038455 35.439119 
L 199.167129 35.349943 
L 199.167129 35.305355 
L 201.350594 35.216179 
L 201.376338 35.127003 
L 202.032254 35.037827 
L 202.032254 34.993238 
L 202.967322 34.904062 
L 202.967322 34.859474 
L 203.051325 34.859474 
L 204.438537 34.770298 
L 204.456753 34.681122 
L 205.994015 34.591946 
L 205.994015 34.547358 
L 206.883508 34.458182 
L 206.883508 34.413594 
L 208.431315 34.324418 
L 208.431315 34.27983 
L 208.787535 34.190654 
L 208.787535 34.146066 
L 210.014652 34.05689 
L 210.014652 34.012302 
L 210.096326 34.012302 
L 210.49254 33.923126 
L 210.49254 33.878538 
L 210.990759 33.789362 
L 210.990759 33.744774 
L 212.413596 33.655598 
L 212.441383 33.566422 
L 214.219585 33.477246 
L 214.219585 33.432658 
L 215.029089 33.343482 
L 215.029089 33.298894 
L 215.63551 33.209718 
L 215.63551 33.16513 
L 216.884263 33.075954 
L 216.937866 32.986778 
L 217.481493 32.897602 
L 217.481493 32.853014 
L 217.509328 32.853014 
L 218.797528 32.763838 
L 218.797528 32.71925 
L 220.722526 32.630074 
L 220.722526 32.585486 
L 220.76157 32.585486 
L 221.420241 32.49631 
L 221.420241 32.451722 
L 222.557656 32.362546 
L 222.557656 32.317958 
L 224.353195 32.228782 
L 224.353195 32.184194 
L 225.305909 32.095018 
L 225.305909 32.05043 
L 225.402569 32.05043 
L 227.418433 31.961254 
L 227.418433 31.916666 
L 228.50367 31.82749 
L 228.50367 31.782902 
L 230.235204 31.693725 
L 230.235204 31.649137 
L 230.289329 31.649137 
L 232.179296 31.559961 
L 232.280517 31.381609 
L 233.56639 31.292433 
L 233.598238 31.203257 
L 235.413893 31.114081 
L 235.458471 31.024905 
L 237.564488 30.935729 
L 237.564488 30.891141 
L 238.561162 30.801965 
L 238.648513 30.712789 
L 238.651624 30.712789 
L 239.202852 30.623613 
L 239.313858 30.534437 
L 240.649866 30.445261 
L 240.649866 30.400673 
L 242.007558 30.311497 
L 242.007558 30.266909 
L 243.516416 30.177733 
L 243.516416 30.133145 
L 243.607305 30.133145 
L 244.946282 30.043969 
L 244.946282 29.999381 
L 246.566336 29.910205 
L 246.566336 29.865617 
L 248.533323 29.776441 
L 248.533323 29.731853 
L 250.35824 29.642677 
L 250.372965 29.553501 
L 250.449533 29.553501 
L 250.626563 29.464325 
L 250.626563 29.419737 
L 252.022515 29.330561 
L 252.022515 29.285973 
L 252.550919 29.196797 
L 252.550919 29.152209 
L 254.974777 29.063033 
L 254.974777 29.018445 
L 257.091552 28.929269 
L 257.091552 28.884681 
L 258.401436 28.795505 
L 258.401436 28.750917 
L 259.649168 28.661741 
L 259.649168 28.617153 
L 260.515124 28.527977 
L 260.515124 28.483388 
L 260.591218 28.483388 
L 261.996836 28.394212 
L 261.996836 28.349624 
L 263.286296 28.260448 
L 263.286296 28.21586 
L 265.22248 28.126684 
L 265.305294 28.037508 
L 267.013934 27.948332 
L 267.013934 27.903744 
L 267.90193 27.814568 
L 267.90193 27.76998 
L 268.583733 27.680804 
L 268.583733 27.636216 
L 270.926153 27.54704 
L 270.926153 27.502452 
L 271.922068 27.413276 
L 271.922068 27.368688 
L 275.747815 27.279512 
L 275.80213 27.190336 
L 276.982983 27.10116 
L 277.050123 27.011984 
L 278.237863 26.922808 
L 278.237863 26.87822 
L 282.023758 26.789044 
L 282.023758 26.789044 
" clip-path="url(#p21416c88b4)" style="fill: none; stroke: #1f77b4; stroke-width: 1.5; stroke-linecap: round"/>
   </g>
   <g id="patch_3">
    <path d="M 35.655938 265.022801 
L 35.655938 19.642031 
" style="fill: none"/>
   </g>
   <g id="patch_4">
    <path d="M 289.19952 265.022801 
L 289.19952 19.642031 
" style="fill: none"/>
   </g>
   <g id="patch_5">
    <path d="M 35.655938 265.022801 
L 289.19952 265.022801 
" style="fill: none"/>
   </g>
   <g id="patch_6">
    <path d="M 35.655938 19.642031 
L 289.19952 19.642031 
" style="fill: none"/>
   </g>
   <g id="text_15">
    <!-- Model 2: Precision-Recall Curve -->
    <g style="fill: #333333" transform="translate(93.910307 13.642031) scale(0.09 -0.09)">
     <defs>
      <path id="Arial-BoldMT-4d" d="M 453 0 
L 453 4581 
L 1838 4581 
L 2669 1456 
L 3491 4581 
L 4878 4581 
L 4878 0 
L 4019 0 
L 4019 3606 
L 3109 0 
L 2219 0 
L 1313 3606 
L 1313 0 
L 453 0 
z
" transform="scale(0.015625)"/>
      <path id="Arial-BoldMT-64" d="M 3503 0 
L 2688 0 
L 2688 488 
Q 2484 203 2207 64 
Q 1931 -75 1650 -75 
Q 1078 -75 670 386 
Q 263 847 263 1672 
Q 263 2516 659 2955 
Q 1056 3394 1663 3394 
Q 2219 3394 2625 2931 
L 2625 4581 
L 3503 4581 
L 3503 0 
z
M 1159 1731 
Q 1159 1200 1306 963 
Q 1519 619 1900 619 
Q 2203 619 2415 876 
Q 2628 1134 2628 1647 
Q 2628 2219 2422 2470 
Q 2216 2722 1894 2722 
Q 1581 2722 1370 2473 
Q 1159 2225 1159 1731 
z
" transform="scale(0.015625)"/>
      <path id="Arial-BoldMT-32" d="M 3238 816 
L 3238 0 
L 159 0 
Q 209 463 459 877 
Q 709 1291 1447 1975 
Q 2041 2528 2175 2725 
Q 2356 2997 2356 3263 
Q 2356 3556 2198 3714 
Q 2041 3872 1763 3872 
Q 1488 3872 1325 3706 
Q 1163 3541 1138 3156 
L 263 3244 
Q 341 3969 753 4284 
Q 1166 4600 1784 4600 
Q 2463 4600 2850 4234 
Q 3238 3869 3238 3325 
Q 3238 3016 3127 2736 
Q 3016 2456 2775 2150 
Q 2616 1947 2200 1565 
Q 1784 1184 1673 1059 
Q 1563 934 1494 816 
L 3238 816 
z
" transform="scale(0.015625)"/>
      <path id="Arial-BoldMT-3a" d="M 628 2441 
L 628 3319 
L 1506 3319 
L 1506 2441 
L 628 2441 
z
M 628 0 
L 628 878 
L 1506 878 
L 1506 0 
L 628 0 
z
" transform="scale(0.015625)"/>
      <path id="Arial-BoldMT-2d" d="M 359 1222 
L 359 2100 
L 2084 2100 
L 2084 1222 
L 359 1222 
z
" transform="scale(0.015625)"/>
      <path id="Arial-BoldMT-43" d="M 3397 1684 
L 4294 1400 
Q 4088 650 3608 286 
Q 3128 -78 2391 -78 
Q 1478 -78 890 545 
Q 303 1169 303 2250 
Q 303 3394 893 4026 
Q 1484 4659 2447 4659 
Q 3288 4659 3813 4163 
Q 4125 3869 4281 3319 
L 3366 3100 
Q 3284 3456 3026 3662 
Q 2769 3869 2400 3869 
Q 1891 3869 1573 3503 
Q 1256 3138 1256 2319 
Q 1256 1450 1568 1081 
Q 1881 713 2381 713 
Q 2750 713 3015 947 
Q 3281 1181 3397 1684 
z
" transform="scale(0.015625)"/>
      <path id="Arial-BoldMT-75" d="M 2644 0 
L 2644 497 
Q 2463 231 2167 78 
Q 1872 -75 1544 -75 
Q 1209 -75 943 72 
Q 678 219 559 484 
Q 441 750 441 1219 
L 441 3319 
L 1319 3319 
L 1319 1794 
Q 1319 1094 1367 936 
Q 1416 778 1544 686 
Q 1672 594 1869 594 
Q 2094 594 2272 717 
Q 2450 841 2515 1023 
Q 2581 1206 2581 1919 
L 2581 3319 
L 3459 3319 
L 3459 0 
L 2644 0 
z
" transform="scale(0.015625)"/>
      <path id="Arial-BoldMT-76" d="M 1372 0 
L 34 3319 
L 956 3319 
L 1581 1625 
L 1763 1059 
Q 1834 1275 1853 1344 
Q 1897 1484 1947 1625 
L 2578 3319 
L 3481 3319 
L 2163 0 
L 1372 0 
z
" transform="scale(0.015625)"/>
     </defs>
     <use xlink:href="#Arial-BoldMT-4d"/>
     <use xlink:href="#Arial-BoldMT-6f" transform="translate(83.300781 0)"/>
     <use xlink:href="#Arial-BoldMT-64" transform="translate(144.384766 0)"/>
     <use xlink:href="#Arial-BoldMT-65" transform="translate(205.46875 0)"/>
     <use xlink:href="#Arial-BoldMT-6c" transform="translate(261.083984 0)"/>
     <use xlink:href="#Arial-BoldMT-20" transform="translate(288.867188 0)"/>
     <use xlink:href="#Arial-BoldMT-32" transform="translate(316.650391 0)"/>
     <use xlink:href="#Arial-BoldMT-3a" transform="translate(372.265625 0)"/>
     <use xlink:href="#Arial-BoldMT-20" transform="translate(405.566406 0)"/>
     <use xlink:href="#Arial-BoldMT-50" transform="translate(433.349609 0)"/>
     <use xlink:href="#Arial-BoldMT-72" transform="translate(500.048828 0)"/>
     <use xlink:href="#Arial-BoldMT-65" transform="translate(538.964844 0)"/>
     <use xlink:href="#Arial-BoldMT-63" transform="translate(594.580078 0)"/>
     <use xlink:href="#Arial-BoldMT-69" transform="translate(650.195312 0)"/>
     <use xlink:href="#Arial-BoldMT-73" transform="translate(677.978516 0)"/>
     <use xlink:href="#Arial-BoldMT-69" transform="translate(733.59375 0)"/>
     <use xlink:href="#Arial-BoldMT-6f" transform="translate(761.376953 0)"/>
     <use xlink:href="#Arial-BoldMT-6e" transform="translate(822.460938 0)"/>
     <use xlink:href="#Arial-BoldMT-2d" transform="translate(883.544922 0)"/>
     <use xlink:href="#Arial-BoldMT-52" transform="translate(916.845703 0)"/>
     <use xlink:href="#Arial-BoldMT-65" transform="translate(989.0625 0)"/>
     <use xlink:href="#Arial-BoldMT-63" transform="translate(1044.677734 0)"/>
     <use xlink:href="#Arial-BoldMT-61" transform="translate(1100.292969 0)"/>
     <use xlink:href="#Arial-BoldMT-6c" transform="translate(1155.908203 0)"/>
     <use xlink:href="#Arial-BoldMT-6c" transform="translate(1183.691406 0)"/>
     <use xlink:href="#Arial-BoldMT-20" transform="translate(1211.474609 0)"/>
     <use xlink:href="#Arial-BoldMT-43" transform="translate(1239.257812 0)"/>
     <use xlink:href="#Arial-BoldMT-75" transform="translate(1311.474609 0)"/>
     <use xlink:href="#Arial-BoldMT-72" transform="translate(1372.558594 0)"/>
     <use xlink:href="#Arial-BoldMT-76" transform="translate(1411.474609 0)"/>
     <use xlink:href="#Arial-BoldMT-65" transform="translate(1467.089844 0)"/>
    </g>
   </g>
   <g id="legend_1">
    <g id="patch_7">
     <path d="M 164.573426 260.522801 
L 282.89952 260.522801 
Q 284.69952 260.522801 284.69952 258.722801 
L 284.69952 246.89202 
Q 284.69952 245.09202 282.89952 245.09202 
L 164.573426 245.09202 
Q 162.773426 245.09202 162.773426 246.89202 
L 162.773426 258.722801 
Q 162.773426 260.522801 164.573426 260.522801 
z
" style="fill: #ffffff; opacity: 0.8; stroke: #cccccc; stroke-width: 0.75; stroke-linejoin: miter"/>
    </g>
    <g id="line2d_26">
     <path d="M 166.373426 251.984051 
L 175.373426 251.984051 
L 184.373426 251.984051 
" style="fill: none; stroke: #1f77b4; stroke-width: 1.5; stroke-linecap: round"/>
    </g>
    <g id="text_16">
     <!-- Precision-Recall curve -->
     <g style="fill: #333333" transform="translate(191.573426 255.134051) scale(0.09 -0.09)">
      <defs>
       <path id="ArialMT-50" d="M 494 0 
L 494 4581 
L 2222 4581 
Q 2678 4581 2919 4538 
Q 3256 4481 3484 4323 
Q 3713 4166 3852 3881 
Q 3991 3597 3991 3256 
Q 3991 2672 3619 2267 
Q 3247 1863 2275 1863 
L 1100 1863 
L 1100 0 
L 494 0 
z
M 1100 2403 
L 2284 2403 
Q 2872 2403 3119 2622 
Q 3366 2841 3366 3238 
Q 3366 3525 3220 3729 
Q 3075 3934 2838 4000 
Q 2684 4041 2272 4041 
L 1100 4041 
L 1100 2403 
z
" transform="scale(0.015625)"/>
       <path id="ArialMT-72" d="M 416 0 
L 416 3319 
L 922 3319 
L 922 2816 
Q 1116 3169 1280 3281 
Q 1444 3394 1641 3394 
Q 1925 3394 2219 3213 
L 2025 2691 
Q 1819 2813 1613 2813 
Q 1428 2813 1281 2702 
Q 1134 2591 1072 2394 
Q 978 2094 978 1738 
L 978 0 
L 416 0 
z
" transform="scale(0.015625)"/>
       <path id="ArialMT-65" d="M 2694 1069 
L 3275 997 
Q 3138 488 2766 206 
Q 2394 -75 1816 -75 
Q 1088 -75 661 373 
Q 234 822 234 1631 
Q 234 2469 665 2931 
Q 1097 3394 1784 3394 
Q 2450 3394 2872 2941 
Q 3294 2488 3294 1666 
Q 3294 1616 3291 1516 
L 816 1516 
Q 847 969 1125 678 
Q 1403 388 1819 388 
Q 2128 388 2347 550 
Q 2566 713 2694 1069 
z
M 847 1978 
L 2700 1978 
Q 2663 2397 2488 2606 
Q 2219 2931 1791 2931 
Q 1403 2931 1139 2672 
Q 875 2413 847 1978 
z
" transform="scale(0.015625)"/>
       <path id="ArialMT-63" d="M 2588 1216 
L 3141 1144 
Q 3050 572 2676 248 
Q 2303 -75 1759 -75 
Q 1078 -75 664 370 
Q 250 816 250 1647 
Q 250 2184 428 2587 
Q 606 2991 970 3192 
Q 1334 3394 1763 3394 
Q 2303 3394 2647 3120 
Q 2991 2847 3088 2344 
L 2541 2259 
Q 2463 2594 2264 2762 
Q 2066 2931 1784 2931 
Q 1359 2931 1093 2626 
Q 828 2322 828 1663 
Q 828 994 1084 691 
Q 1341 388 1753 388 
Q 2084 388 2306 591 
Q 2528 794 2588 1216 
z
" transform="scale(0.015625)"/>
       <path id="ArialMT-69" d="M 425 3934 
L 425 4581 
L 988 4581 
L 988 3934 
L 425 3934 
z
M 425 0 
L 425 3319 
L 988 3319 
L 988 0 
L 425 0 
z
" transform="scale(0.015625)"/>
       <path id="ArialMT-73" d="M 197 991 
L 753 1078 
Q 800 744 1014 566 
Q 1228 388 1613 388 
Q 2000 388 2187 545 
Q 2375 703 2375 916 
Q 2375 1106 2209 1216 
Q 2094 1291 1634 1406 
Q 1016 1563 777 1677 
Q 538 1791 414 1992 
Q 291 2194 291 2438 
Q 291 2659 392 2848 
Q 494 3038 669 3163 
Q 800 3259 1026 3326 
Q 1253 3394 1513 3394 
Q 1903 3394 2198 3281 
Q 2494 3169 2634 2976 
Q 2775 2784 2828 2463 
L 2278 2388 
Q 2241 2644 2061 2787 
Q 1881 2931 1553 2931 
Q 1166 2931 1000 2803 
Q 834 2675 834 2503 
Q 834 2394 903 2306 
Q 972 2216 1119 2156 
Q 1203 2125 1616 2013 
Q 2213 1853 2448 1751 
Q 2684 1650 2818 1456 
Q 2953 1263 2953 975 
Q 2953 694 2789 445 
Q 2625 197 2315 61 
Q 2006 -75 1616 -75 
Q 969 -75 630 194 
Q 291 463 197 991 
z
" transform="scale(0.015625)"/>
       <path id="ArialMT-6f" d="M 213 1659 
Q 213 2581 725 3025 
Q 1153 3394 1769 3394 
Q 2453 3394 2887 2945 
Q 3322 2497 3322 1706 
Q 3322 1066 3130 698 
Q 2938 331 2570 128 
Q 2203 -75 1769 -75 
Q 1072 -75 642 372 
Q 213 819 213 1659 
z
M 791 1659 
Q 791 1022 1069 705 
Q 1347 388 1769 388 
Q 2188 388 2466 706 
Q 2744 1025 2744 1678 
Q 2744 2294 2464 2611 
Q 2184 2928 1769 2928 
Q 1347 2928 1069 2612 
Q 791 2297 791 1659 
z
" transform="scale(0.015625)"/>
       <path id="ArialMT-6e" d="M 422 0 
L 422 3319 
L 928 3319 
L 928 2847 
Q 1294 3394 1984 3394 
Q 2284 3394 2536 3286 
Q 2788 3178 2913 3003 
Q 3038 2828 3088 2588 
Q 3119 2431 3119 2041 
L 3119 0 
L 2556 0 
L 2556 2019 
Q 2556 2363 2490 2533 
Q 2425 2703 2258 2804 
Q 2091 2906 1866 2906 
Q 1506 2906 1245 2678 
Q 984 2450 984 1813 
L 984 0 
L 422 0 
z
" transform="scale(0.015625)"/>
       <path id="ArialMT-2d" d="M 203 1375 
L 203 1941 
L 1931 1941 
L 1931 1375 
L 203 1375 
z
" transform="scale(0.015625)"/>
       <path id="ArialMT-52" d="M 503 0 
L 503 4581 
L 2534 4581 
Q 3147 4581 3465 4457 
Q 3784 4334 3975 4021 
Q 4166 3709 4166 3331 
Q 4166 2844 3850 2509 
Q 3534 2175 2875 2084 
Q 3116 1969 3241 1856 
Q 3506 1613 3744 1247 
L 4541 0 
L 3778 0 
L 3172 953 
Q 2906 1366 2734 1584 
Q 2563 1803 2427 1890 
Q 2291 1978 2150 2013 
Q 2047 2034 1813 2034 
L 1109 2034 
L 1109 0 
L 503 0 
z
M 1109 2559 
L 2413 2559 
Q 2828 2559 3062 2645 
Q 3297 2731 3419 2920 
Q 3541 3109 3541 3331 
Q 3541 3656 3305 3865 
Q 3069 4075 2559 4075 
L 1109 4075 
L 1109 2559 
z
" transform="scale(0.015625)"/>
       <path id="ArialMT-61" d="M 2588 409 
Q 2275 144 1986 34 
Q 1697 -75 1366 -75 
Q 819 -75 525 192 
Q 231 459 231 875 
Q 231 1119 342 1320 
Q 453 1522 633 1644 
Q 813 1766 1038 1828 
Q 1203 1872 1538 1913 
Q 2219 1994 2541 2106 
Q 2544 2222 2544 2253 
Q 2544 2597 2384 2738 
Q 2169 2928 1744 2928 
Q 1347 2928 1158 2789 
Q 969 2650 878 2297 
L 328 2372 
Q 403 2725 575 2942 
Q 747 3159 1072 3276 
Q 1397 3394 1825 3394 
Q 2250 3394 2515 3294 
Q 2781 3194 2906 3042 
Q 3031 2891 3081 2659 
Q 3109 2516 3109 2141 
L 3109 1391 
Q 3109 606 3145 398 
Q 3181 191 3288 0 
L 2700 0 
Q 2613 175 2588 409 
z
M 2541 1666 
Q 2234 1541 1622 1453 
Q 1275 1403 1131 1340 
Q 988 1278 909 1158 
Q 831 1038 831 891 
Q 831 666 1001 516 
Q 1172 366 1500 366 
Q 1825 366 2078 508 
Q 2331 650 2450 897 
Q 2541 1088 2541 1459 
L 2541 1666 
z
" transform="scale(0.015625)"/>
       <path id="ArialMT-6c" d="M 409 0 
L 409 4581 
L 972 4581 
L 972 0 
L 409 0 
z
" transform="scale(0.015625)"/>
       <path id="ArialMT-20" transform="scale(0.015625)"/>
       <path id="ArialMT-75" d="M 2597 0 
L 2597 488 
Q 2209 -75 1544 -75 
Q 1250 -75 995 37 
Q 741 150 617 320 
Q 494 491 444 738 
Q 409 903 409 1263 
L 409 3319 
L 972 3319 
L 972 1478 
Q 972 1038 1006 884 
Q 1059 663 1231 536 
Q 1403 409 1656 409 
Q 1909 409 2131 539 
Q 2353 669 2445 892 
Q 2538 1116 2538 1541 
L 2538 3319 
L 3100 3319 
L 3100 0 
L 2597 0 
z
" transform="scale(0.015625)"/>
       <path id="ArialMT-76" d="M 1344 0 
L 81 3319 
L 675 3319 
L 1388 1331 
Q 1503 1009 1600 663 
Q 1675 925 1809 1294 
L 2547 3319 
L 3125 3319 
L 1869 0 
L 1344 0 
z
" transform="scale(0.015625)"/>
      </defs>
      <use xlink:href="#ArialMT-50"/>
      <use xlink:href="#ArialMT-72" transform="translate(66.699219 0)"/>
      <use xlink:href="#ArialMT-65" transform="translate(100 0)"/>
      <use xlink:href="#ArialMT-63" transform="translate(155.615234 0)"/>
      <use xlink:href="#ArialMT-69" transform="translate(205.615234 0)"/>
      <use xlink:href="#ArialMT-73" transform="translate(227.832031 0)"/>
      <use xlink:href="#ArialMT-69" transform="translate(277.832031 0)"/>
      <use xlink:href="#ArialMT-6f" transform="translate(300.048828 0)"/>
      <use xlink:href="#ArialMT-6e" transform="translate(355.664062 0)"/>
      <use xlink:href="#ArialMT-2d" transform="translate(411.279297 0)"/>
      <use xlink:href="#ArialMT-52" transform="translate(444.580078 0)"/>
      <use xlink:href="#ArialMT-65" transform="translate(516.796875 0)"/>
      <use xlink:href="#ArialMT-63" transform="translate(572.412109 0)"/>
      <use xlink:href="#ArialMT-61" transform="translate(622.412109 0)"/>
      <use xlink:href="#ArialMT-6c" transform="translate(678.027344 0)"/>
      <use xlink:href="#ArialMT-6c" transform="translate(700.244141 0)"/>
      <use xlink:href="#ArialMT-20" transform="translate(722.460938 0)"/>
      <use xlink:href="#ArialMT-63" transform="translate(750.244141 0)"/>
      <use xlink:href="#ArialMT-75" transform="translate(800.244141 0)"/>
      <use xlink:href="#ArialMT-72" transform="translate(855.859375 0)"/>
      <use xlink:href="#ArialMT-76" transform="translate(889.160156 0)"/>
      <use xlink:href="#ArialMT-65" transform="translate(939.160156 0)"/>
     </g>
    </g>
   </g>
  </g>
 </g>
 <defs>
  <clipPath id="p21416c88b4">
   <rect x="35.655938" y="19.642031" width="253.543583" height="245.38077"/>
  </clipPath>
 </defs>
</svg>
