<?xml version="1.0" encoding="utf-8" standalone="no"?>
<!DOCTYPE svg PUBLIC "-//W3C//DTD SVG 1.1//EN"
  "http://www.w3.org/Graphics/SVG/1.1/DTD/svg11.dtd">
<svg xmlns:xlink="http://www.w3.org/1999/xlink" width="296.39952pt" height="296.39952pt" viewBox="0 0 296.39952 296.39952" xmlns="http://www.w3.org/2000/svg" version="1.1">
 <metadata>
  <rdf:RDF xmlns:dc="http://purl.org/dc/elements/1.1/" xmlns:cc="http://creativecommons.org/ns#" xmlns:rdf="http://www.w3.org/1999/02/22-rdf-syntax-ns#">
   <cc:Work>
    <dc:type rdf:resource="http://purl.org/dc/dcmitype/StillImage"/>
    <dc:date>2026-01-02T16:15:02.638318</dc:date>
    <dc:format>image/svg+xml</dc:format>
    <dc:creator>
     <cc:Agent>
      <dc:title>Matplotlib v3.10.8, https://matplotlib.org/</dc:title>
     </cc:Agent>
    </dc:creator>
   </cc:Work>
  </rdf:RDF>
 </metadata>
 <defs>
  <style type="text/css">*{stroke-linejoin: round; stroke-linecap: butt}</style>
 </defs>
 <g id="figure_1">
  <g id="patch_1">
   <path d="M 0 296.39952 
L 296.39952 296.39952 
L 296.39952 0 
L 0 0 
z
" style="fill: #ffffff"/>
  </g>
  <g id="axes_1">
   <g id="patch_2">
    <path d="M 35.655938 265.022801 
L 289.19952 265.022801 
L 289.19952 19.751719 
L 35.655938 19.751719 
z
" style="fill: #ffffff"/>
   </g>
   <g id="matplotlib.axis_1">
    <g id="xtick_1">
     <g id="line2d_1">
      <path d="M 42.831699 265.022801 
L 42.831699 19.751719 
" clip-path="url(#pcffacc2e9f)" style="fill: none; stroke: #c0c0c0; stroke-width: 0.25; stroke-linecap: round"/>
     </g>
     <g id="line2d_2"/>
     <g id="text_1">
      <!-- 0.0 -->
      <g style="fill: #333333" transform="translate(36.576699 274.964832) scale(0.09 -0.09)">
       <defs>
        <path id="ArialMT-30" d="M 266 2259 
Q 266 3072 433 3567 
Q 600 4063 929 4331 
Q 1259 4600 1759 4600 
Q 2128 4600 2406 4451 
Q 2684 4303 2865 4023 
Q 3047 3744 3150 3342 
Q 3253 2941 3253 2259 
Q 3253 1453 3087 958 
Q 2922 463 2592 192 
Q 2263 -78 1759 -78 
Q 1097 -78 719 397 
Q 266 969 266 2259 
z
M 844 2259 
Q 844 1131 1108 757 
Q 1372 384 1759 384 
Q 2147 384 2411 759 
Q 2675 1134 2675 2259 
Q 2675 3391 2411 3762 
Q 2147 4134 1753 4134 
Q 1366 4134 1134 3806 
Q 844 3388 844 2259 
z
" transform="scale(0.015625)"/>
        <path id="ArialMT-2e" d="M 581 0 
L 581 641 
L 1222 641 
L 1222 0 
L 581 0 
z
" transform="scale(0.015625)"/>
       </defs>
       <use xlink:href="#ArialMT-30"/>
       <use xlink:href="#ArialMT-2e" transform="translate(55.615234 0)"/>
       <use xlink:href="#ArialMT-30" transform="translate(83.398438 0)"/>
      </g>
     </g>
    </g>
    <g id="xtick_2">
     <g id="line2d_3">
      <path d="M 90.670111 265.022801 
L 90.670111 19.751719 
" clip-path="url(#pcffacc2e9f)" style="fill: none; stroke: #c0c0c0; stroke-width: 0.25; stroke-linecap: round"/>
     </g>
     <g id="line2d_4"/>
     <g id="text_2">
      <!-- 0.2 -->
      <g style="fill: #333333" transform="translate(84.415111 274.964832) scale(0.09 -0.09)">
       <defs>
        <path id="ArialMT-32" d="M 3222 541 
L 3222 0 
L 194 0 
Q 188 203 259 391 
Q 375 700 629 1000 
Q 884 1300 1366 1694 
Q 2113 2306 2375 2664 
Q 2638 3022 2638 3341 
Q 2638 3675 2398 3904 
Q 2159 4134 1775 4134 
Q 1369 4134 1125 3890 
Q 881 3647 878 3216 
L 300 3275 
Q 359 3922 746 4261 
Q 1134 4600 1788 4600 
Q 2447 4600 2831 4234 
Q 3216 3869 3216 3328 
Q 3216 3053 3103 2787 
Q 2991 2522 2730 2228 
Q 2469 1934 1863 1422 
Q 1356 997 1212 845 
Q 1069 694 975 541 
L 3222 541 
z
" transform="scale(0.015625)"/>
       </defs>
       <use xlink:href="#ArialMT-30"/>
       <use xlink:href="#ArialMT-2e" transform="translate(55.615234 0)"/>
       <use xlink:href="#ArialMT-32" transform="translate(83.398438 0)"/>
      </g>
     </g>
    </g>
    <g id="xtick_3">
     <g id="line2d_5">
      <path d="M 138.508523 265.022801 
L 138.508523 19.751719 
" clip-path="url(#pcffacc2e9f)" style="fill: none; stroke: #c0c0c0; stroke-width: 0.25; stroke-linecap: round"/>
     </g>
     <g id="line2d_6"/>
     <g id="text_3">
      <!-- 0.4 -->
      <g style="fill: #333333" transform="translate(132.253523 274.964832) scale(0.09 -0.09)">
       <defs>
        <path id="ArialMT-34" d="M 2069 0 
L 2069 1097 
L 81 1097 
L 81 1613 
L 2172 4581 
L 2631 4581 
L 2631 1613 
L 3250 1613 
L 3250 1097 
L 2631 1097 
L 2631 0 
L 2069 0 
z
M 2069 1613 
L 2069 3678 
L 634 1613 
L 2069 1613 
z
" transform="scale(0.015625)"/>
       </defs>
       <use xlink:href="#ArialMT-30"/>
       <use xlink:href="#ArialMT-2e" transform="translate(55.615234 0)"/>
       <use xlink:href="#ArialMT-34" transform="translate(83.398438 0)"/>
      </g>
     </g>
    </g>
    <g id="xtick_4">
     <g id="line2d_7">
      <path d="M 186.346935 265.022801 
L 186.346935 19.751719 
" clip-path="url(#pcffacc2e9f)" style="fill: none; stroke: #c0c0c0; stroke-width: 0.25; stroke-linecap: round"/>
     </g>
     <g id="line2d_8"/>
     <g id="text_4">
      <!-- 0.6 -->
      <g style="fill: #333333" transform="translate(180.091935 274.964832) scale(0.09 -0.09)">
       <defs>
        <path id="ArialMT-36" d="M 3184 3459 
L 2625 3416 
Q 2550 3747 2413 3897 
Q 2184 4138 1850 4138 
Q 1581 4138 1378 3988 
Q 1113 3794 959 3422 
Q 806 3050 800 2363 
Q 1003 2672 1297 2822 
Q 1591 2972 1913 2972 
Q 2475 2972 2870 2558 
Q 3266 2144 3266 1488 
Q 3266 1056 3080 686 
Q 2894 316 2569 119 
Q 2244 -78 1831 -78 
Q 1128 -78 684 439 
Q 241 956 241 2144 
Q 241 3472 731 4075 
Q 1159 4600 1884 4600 
Q 2425 4600 2770 4297 
Q 3116 3994 3184 3459 
z
M 888 1484 
Q 888 1194 1011 928 
Q 1134 663 1356 523 
Q 1578 384 1822 384 
Q 2178 384 2434 671 
Q 2691 959 2691 1453 
Q 2691 1928 2437 2201 
Q 2184 2475 1800 2475 
Q 1419 2475 1153 2201 
Q 888 1928 888 1484 
z
" transform="scale(0.015625)"/>
       </defs>
       <use xlink:href="#ArialMT-30"/>
       <use xlink:href="#ArialMT-2e" transform="translate(55.615234 0)"/>
       <use xlink:href="#ArialMT-36" transform="translate(83.398438 0)"/>
      </g>
     </g>
    </g>
    <g id="xtick_5">
     <g id="line2d_9">
      <path d="M 234.185346 265.022801 
L 234.185346 19.751719 
" clip-path="url(#pcffacc2e9f)" style="fill: none; stroke: #c0c0c0; stroke-width: 0.25; stroke-linecap: round"/>
     </g>
     <g id="line2d_10"/>
     <g id="text_5">
      <!-- 0.8 -->
      <g style="fill: #333333" transform="translate(227.930346 274.964832) scale(0.09 -0.09)">
       <defs>
        <path id="ArialMT-38" d="M 1131 2484 
Q 781 2613 612 2850 
Q 444 3088 444 3419 
Q 444 3919 803 4259 
Q 1163 4600 1759 4600 
Q 2359 4600 2725 4251 
Q 3091 3903 3091 3403 
Q 3091 3084 2923 2848 
Q 2756 2613 2416 2484 
Q 2838 2347 3058 2040 
Q 3278 1734 3278 1309 
Q 3278 722 2862 322 
Q 2447 -78 1769 -78 
Q 1091 -78 675 323 
Q 259 725 259 1325 
Q 259 1772 486 2073 
Q 713 2375 1131 2484 
z
M 1019 3438 
Q 1019 3113 1228 2906 
Q 1438 2700 1772 2700 
Q 2097 2700 2305 2904 
Q 2513 3109 2513 3406 
Q 2513 3716 2298 3927 
Q 2084 4138 1766 4138 
Q 1444 4138 1231 3931 
Q 1019 3725 1019 3438 
z
M 838 1322 
Q 838 1081 952 856 
Q 1066 631 1291 507 
Q 1516 384 1775 384 
Q 2178 384 2440 643 
Q 2703 903 2703 1303 
Q 2703 1709 2433 1975 
Q 2163 2241 1756 2241 
Q 1359 2241 1098 1978 
Q 838 1716 838 1322 
z
" transform="scale(0.015625)"/>
       </defs>
       <use xlink:href="#ArialMT-30"/>
       <use xlink:href="#ArialMT-2e" transform="translate(55.615234 0)"/>
       <use xlink:href="#ArialMT-38" transform="translate(83.398438 0)"/>
      </g>
     </g>
    </g>
    <g id="xtick_6">
     <g id="line2d_11">
      <path d="M 282.023758 265.022801 
L 282.023758 19.751719 
" clip-path="url(#pcffacc2e9f)" style="fill: none; stroke: #c0c0c0; stroke-width: 0.25; stroke-linecap: round"/>
     </g>
     <g id="line2d_12"/>
     <g id="text_6">
      <!-- 1.0 -->
      <g style="fill: #333333" transform="translate(275.768758 274.964832) scale(0.09 -0.09)">
       <defs>
        <path id="ArialMT-31" d="M 2384 0 
L 1822 0 
L 1822 3584 
Q 1619 3391 1289 3197 
Q 959 3003 697 2906 
L 697 3450 
Q 1169 3672 1522 3987 
Q 1875 4303 2022 4600 
L 2384 4600 
L 2384 0 
z
" transform="scale(0.015625)"/>
       </defs>
       <use xlink:href="#ArialMT-31"/>
       <use xlink:href="#ArialMT-2e" transform="translate(55.615234 0)"/>
       <use xlink:href="#ArialMT-30" transform="translate(83.398438 0)"/>
      </g>
     </g>
    </g>
    <g id="text_7">
     <!-- False Positive Rate (FPR) -->
     <g style="fill: #333333" transform="translate(108.165463 287.305301) scale(0.09 -0.09)">
      <defs>
       <path id="Arial-BoldMT-46" d="M 472 0 
L 472 4581 
L 3613 4581 
L 3613 3806 
L 1397 3806 
L 1397 2722 
L 3309 2722 
L 3309 1947 
L 1397 1947 
L 1397 0 
L 472 0 
z
" transform="scale(0.015625)"/>
       <path id="Arial-BoldMT-61" d="M 1116 2306 
L 319 2450 
Q 453 2931 781 3162 
Q 1109 3394 1756 3394 
Q 2344 3394 2631 3255 
Q 2919 3116 3036 2902 
Q 3153 2688 3153 2116 
L 3144 1091 
Q 3144 653 3186 445 
Q 3228 238 3344 0 
L 2475 0 
Q 2441 88 2391 259 
Q 2369 338 2359 363 
Q 2134 144 1878 34 
Q 1622 -75 1331 -75 
Q 819 -75 523 203 
Q 228 481 228 906 
Q 228 1188 362 1408 
Q 497 1628 739 1745 
Q 981 1863 1438 1950 
Q 2053 2066 2291 2166 
L 2291 2253 
Q 2291 2506 2166 2614 
Q 2041 2722 1694 2722 
Q 1459 2722 1328 2630 
Q 1197 2538 1116 2306 
z
M 2291 1594 
Q 2122 1538 1756 1459 
Q 1391 1381 1278 1306 
Q 1106 1184 1106 997 
Q 1106 813 1243 678 
Q 1381 544 1594 544 
Q 1831 544 2047 700 
Q 2206 819 2256 991 
Q 2291 1103 2291 1419 
L 2291 1594 
z
" transform="scale(0.015625)"/>
       <path id="Arial-BoldMT-6c" d="M 459 0 
L 459 4581 
L 1338 4581 
L 1338 0 
L 459 0 
z
" transform="scale(0.015625)"/>
       <path id="Arial-BoldMT-73" d="M 150 947 
L 1031 1081 
Q 1088 825 1259 692 
Q 1431 559 1741 559 
Q 2081 559 2253 684 
Q 2369 772 2369 919 
Q 2369 1019 2306 1084 
Q 2241 1147 2013 1200 
Q 950 1434 666 1628 
Q 272 1897 272 2375 
Q 272 2806 612 3100 
Q 953 3394 1669 3394 
Q 2350 3394 2681 3172 
Q 3013 2950 3138 2516 
L 2309 2363 
Q 2256 2556 2107 2659 
Q 1959 2763 1684 2763 
Q 1338 2763 1188 2666 
Q 1088 2597 1088 2488 
Q 1088 2394 1175 2328 
Q 1294 2241 1995 2081 
Q 2697 1922 2975 1691 
Q 3250 1456 3250 1038 
Q 3250 581 2869 253 
Q 2488 -75 1741 -75 
Q 1063 -75 667 200 
Q 272 475 150 947 
z
" transform="scale(0.015625)"/>
       <path id="Arial-BoldMT-65" d="M 2381 1056 
L 3256 909 
Q 3088 428 2723 176 
Q 2359 -75 1813 -75 
Q 947 -75 531 491 
Q 203 944 203 1634 
Q 203 2459 634 2926 
Q 1066 3394 1725 3394 
Q 2466 3394 2894 2905 
Q 3322 2416 3303 1406 
L 1103 1406 
Q 1113 1016 1316 798 
Q 1519 581 1822 581 
Q 2028 581 2168 693 
Q 2309 806 2381 1056 
z
M 2431 1944 
Q 2422 2325 2234 2523 
Q 2047 2722 1778 2722 
Q 1491 2722 1303 2513 
Q 1116 2303 1119 1944 
L 2431 1944 
z
" transform="scale(0.015625)"/>
       <path id="Arial-BoldMT-20" transform="scale(0.015625)"/>
       <path id="Arial-BoldMT-50" d="M 466 0 
L 466 4581 
L 1950 4581 
Q 2794 4581 3050 4513 
Q 3444 4409 3709 4064 
Q 3975 3719 3975 3172 
Q 3975 2750 3822 2462 
Q 3669 2175 3433 2011 
Q 3197 1847 2953 1794 
Q 2622 1728 1994 1728 
L 1391 1728 
L 1391 0 
L 466 0 
z
M 1391 3806 
L 1391 2506 
L 1897 2506 
Q 2444 2506 2628 2578 
Q 2813 2650 2917 2803 
Q 3022 2956 3022 3159 
Q 3022 3409 2875 3571 
Q 2728 3734 2503 3775 
Q 2338 3806 1838 3806 
L 1391 3806 
z
" transform="scale(0.015625)"/>
       <path id="Arial-BoldMT-6f" d="M 256 1706 
Q 256 2144 472 2553 
Q 688 2963 1083 3178 
Q 1478 3394 1966 3394 
Q 2719 3394 3200 2905 
Q 3681 2416 3681 1669 
Q 3681 916 3195 420 
Q 2709 -75 1972 -75 
Q 1516 -75 1102 131 
Q 688 338 472 736 
Q 256 1134 256 1706 
z
M 1156 1659 
Q 1156 1166 1390 903 
Q 1625 641 1969 641 
Q 2313 641 2545 903 
Q 2778 1166 2778 1666 
Q 2778 2153 2545 2415 
Q 2313 2678 1969 2678 
Q 1625 2678 1390 2415 
Q 1156 2153 1156 1659 
z
" transform="scale(0.015625)"/>
       <path id="Arial-BoldMT-69" d="M 459 3769 
L 459 4581 
L 1338 4581 
L 1338 3769 
L 459 3769 
z
M 459 0 
L 459 3319 
L 1338 3319 
L 1338 0 
L 459 0 
z
" transform="scale(0.015625)"/>
       <path id="Arial-BoldMT-74" d="M 1981 3319 
L 1981 2619 
L 1381 2619 
L 1381 1281 
Q 1381 875 1398 808 
Q 1416 741 1477 697 
Q 1538 653 1625 653 
Q 1747 653 1978 738 
L 2053 56 
Q 1747 -75 1359 -75 
Q 1122 -75 931 4 
Q 741 84 652 211 
Q 563 338 528 553 
Q 500 706 500 1172 
L 500 2619 
L 97 2619 
L 97 3319 
L 500 3319 
L 500 3978 
L 1381 4491 
L 1381 3319 
L 1981 3319 
z
" transform="scale(0.015625)"/>
       <path id="Arial-BoldMT-76" d="M 1372 0 
L 34 3319 
L 956 3319 
L 1581 1625 
L 1763 1059 
Q 1834 1275 1853 1344 
Q 1897 1484 1947 1625 
L 2578 3319 
L 3481 3319 
L 2163 0 
L 1372 0 
z
" transform="scale(0.015625)"/>
       <path id="Arial-BoldMT-52" d="M 469 0 
L 469 4581 
L 2416 4581 
Q 3150 4581 3483 4457 
Q 3816 4334 4016 4018 
Q 4216 3703 4216 3297 
Q 4216 2781 3912 2445 
Q 3609 2109 3006 2022 
Q 3306 1847 3501 1637 
Q 3697 1428 4028 894 
L 4588 0 
L 3481 0 
L 2813 997 
Q 2456 1531 2325 1670 
Q 2194 1809 2047 1861 
Q 1900 1913 1581 1913 
L 1394 1913 
L 1394 0 
L 469 0 
z
M 1394 2644 
L 2078 2644 
Q 2744 2644 2909 2700 
Q 3075 2756 3169 2893 
Q 3263 3031 3263 3238 
Q 3263 3469 3139 3611 
Q 3016 3753 2791 3791 
Q 2678 3806 2116 3806 
L 1394 3806 
L 1394 2644 
z
" transform="scale(0.015625)"/>
       <path id="Arial-BoldMT-28" d="M 1916 -1347 
L 1313 -1347 
Q 834 -625 584 153 
Q 334 931 334 1659 
Q 334 2563 644 3369 
Q 913 4069 1325 4659 
L 1925 4659 
Q 1497 3713 1336 3048 
Q 1175 2384 1175 1641 
Q 1175 1128 1270 590 
Q 1366 53 1531 -431 
Q 1641 -750 1916 -1347 
z
" transform="scale(0.015625)"/>
       <path id="Arial-BoldMT-29" d="M 216 -1347 
Q 475 -791 581 -494 
Q 688 -197 778 190 
Q 869 578 912 926 
Q 956 1275 956 1641 
Q 956 2384 797 3048 
Q 638 3713 209 4659 
L 806 4659 
Q 1278 3988 1539 3234 
Q 1800 2481 1800 1706 
Q 1800 1053 1594 306 
Q 1359 -531 822 -1347 
L 216 -1347 
z
" transform="scale(0.015625)"/>
      </defs>
      <use xlink:href="#Arial-BoldMT-46"/>
      <use xlink:href="#Arial-BoldMT-61" transform="translate(61.083984 0)"/>
      <use xlink:href="#Arial-BoldMT-6c" transform="translate(116.699219 0)"/>
      <use xlink:href="#Arial-BoldMT-73" transform="translate(144.482422 0)"/>
      <use xlink:href="#Arial-BoldMT-65" transform="translate(200.097656 0)"/>
      <use xlink:href="#Arial-BoldMT-20" transform="translate(255.712891 0)"/>
      <use xlink:href="#Arial-BoldMT-50" transform="translate(283.496094 0)"/>
      <use xlink:href="#Arial-BoldMT-6f" transform="translate(350.195312 0)"/>
      <use xlink:href="#Arial-BoldMT-73" transform="translate(411.279297 0)"/>
      <use xlink:href="#Arial-BoldMT-69" transform="translate(466.894531 0)"/>
      <use xlink:href="#Arial-BoldMT-74" transform="translate(494.677734 0)"/>
      <use xlink:href="#Arial-BoldMT-69" transform="translate(527.978516 0)"/>
      <use xlink:href="#Arial-BoldMT-76" transform="translate(555.761719 0)"/>
      <use xlink:href="#Arial-BoldMT-65" transform="translate(611.376953 0)"/>
      <use xlink:href="#Arial-BoldMT-20" transform="translate(666.992188 0)"/>
      <use xlink:href="#Arial-BoldMT-52" transform="translate(694.775391 0)"/>
      <use xlink:href="#Arial-BoldMT-61" transform="translate(766.992188 0)"/>
      <use xlink:href="#Arial-BoldMT-74" transform="translate(822.607422 0)"/>
      <use xlink:href="#Arial-BoldMT-65" transform="translate(855.908203 0)"/>
      <use xlink:href="#Arial-BoldMT-20" transform="translate(911.523438 0)"/>
      <use xlink:href="#Arial-BoldMT-28" transform="translate(939.306641 0)"/>
      <use xlink:href="#Arial-BoldMT-46" transform="translate(972.607422 0)"/>
      <use xlink:href="#Arial-BoldMT-50" transform="translate(1033.691406 0)"/>
      <use xlink:href="#Arial-BoldMT-52" transform="translate(1100.390625 0)"/>
      <use xlink:href="#Arial-BoldMT-29" transform="translate(1172.607422 0)"/>
     </g>
    </g>
   </g>
   <g id="matplotlib.axis_2">
    <g id="ytick_1">
     <g id="line2d_13">
      <path d="M 35.655938 265.022801 
L 289.19952 265.022801 
" clip-path="url(#pcffacc2e9f)" style="fill: none; stroke: #c0c0c0; stroke-width: 0.25; stroke-linecap: round"/>
     </g>
     <g id="line2d_14"/>
     <g id="text_8">
      <!-- 0.0 -->
      <g style="fill: #333333" transform="translate(19.645938 268.243817) scale(0.09 -0.09)">
       <use xlink:href="#ArialMT-30"/>
       <use xlink:href="#ArialMT-2e" transform="translate(55.615234 0)"/>
       <use xlink:href="#ArialMT-30" transform="translate(83.398438 0)"/>
      </g>
     </g>
    </g>
    <g id="ytick_2">
     <g id="line2d_15">
      <path d="M 35.655938 217.397348 
L 289.19952 217.397348 
" clip-path="url(#pcffacc2e9f)" style="fill: none; stroke: #c0c0c0; stroke-width: 0.25; stroke-linecap: round"/>
     </g>
     <g id="line2d_16"/>
     <g id="text_9">
      <!-- 0.2 -->
      <g style="fill: #333333" transform="translate(19.645938 220.618364) scale(0.09 -0.09)">
       <use xlink:href="#ArialMT-30"/>
       <use xlink:href="#ArialMT-2e" transform="translate(55.615234 0)"/>
       <use xlink:href="#ArialMT-32" transform="translate(83.398438 0)"/>
      </g>
     </g>
    </g>
    <g id="ytick_3">
     <g id="line2d_17">
      <path d="M 35.655938 169.771895 
L 289.19952 169.771895 
" clip-path="url(#pcffacc2e9f)" style="fill: none; stroke: #c0c0c0; stroke-width: 0.25; stroke-linecap: round"/>
     </g>
     <g id="line2d_18"/>
     <g id="text_10">
      <!-- 0.4 -->
      <g style="fill: #333333" transform="translate(19.645938 172.992911) scale(0.09 -0.09)">
       <use xlink:href="#ArialMT-30"/>
       <use xlink:href="#ArialMT-2e" transform="translate(55.615234 0)"/>
       <use xlink:href="#ArialMT-34" transform="translate(83.398438 0)"/>
      </g>
     </g>
    </g>
    <g id="ytick_4">
     <g id="line2d_19">
      <path d="M 35.655938 122.146443 
L 289.19952 122.146443 
" clip-path="url(#pcffacc2e9f)" style="fill: none; stroke: #c0c0c0; stroke-width: 0.25; stroke-linecap: round"/>
     </g>
     <g id="line2d_20"/>
     <g id="text_11">
      <!-- 0.6 -->
      <g style="fill: #333333" transform="translate(19.645938 125.367458) scale(0.09 -0.09)">
       <use xlink:href="#ArialMT-30"/>
       <use xlink:href="#ArialMT-2e" transform="translate(55.615234 0)"/>
       <use xlink:href="#ArialMT-36" transform="translate(83.398438 0)"/>
      </g>
     </g>
    </g>
    <g id="ytick_5">
     <g id="line2d_21">
      <path d="M 35.655938 74.52099 
L 289.19952 74.52099 
" clip-path="url(#pcffacc2e9f)" style="fill: none; stroke: #c0c0c0; stroke-width: 0.25; stroke-linecap: round"/>
     </g>
     <g id="line2d_22"/>
     <g id="text_12">
      <!-- 0.8 -->
      <g style="fill: #333333" transform="translate(19.645938 77.742005) scale(0.09 -0.09)">
       <use xlink:href="#ArialMT-30"/>
       <use xlink:href="#ArialMT-2e" transform="translate(55.615234 0)"/>
       <use xlink:href="#ArialMT-38" transform="translate(83.398438 0)"/>
      </g>
     </g>
    </g>
    <g id="ytick_6">
     <g id="line2d_23">
      <path d="M 35.655938 26.895537 
L 289.19952 26.895537 
" clip-path="url(#pcffacc2e9f)" style="fill: none; stroke: #c0c0c0; stroke-width: 0.25; stroke-linecap: round"/>
     </g>
     <g id="line2d_24"/>
     <g id="text_13">
      <!-- 1.0 -->
      <g style="fill: #333333" transform="translate(19.645938 30.116552) scale(0.09 -0.09)">
       <use xlink:href="#ArialMT-31"/>
       <use xlink:href="#ArialMT-2e" transform="translate(55.615234 0)"/>
       <use xlink:href="#ArialMT-30" transform="translate(83.398438 0)"/>
      </g>
     </g>
    </g>
    <g id="text_14">
     <!-- True Positive Rate (TPR) -->
     <g style="fill: #333333" transform="translate(13.751719 194.647026) rotate(-90) scale(0.09 -0.09)">
      <defs>
       <path id="Arial-BoldMT-54" d="M 1497 0 
L 1497 3806 
L 138 3806 
L 138 4581 
L 3778 4581 
L 3778 3806 
L 2422 3806 
L 2422 0 
L 1497 0 
z
" transform="scale(0.015625)"/>
       <path id="Arial-BoldMT-72" d="M 1300 0 
L 422 0 
L 422 3319 
L 1238 3319 
L 1238 2847 
Q 1447 3181 1614 3287 
Q 1781 3394 1994 3394 
Q 2294 3394 2572 3228 
L 2300 2463 
Q 2078 2606 1888 2606 
Q 1703 2606 1575 2504 
Q 1447 2403 1373 2137 
Q 1300 1872 1300 1025 
L 1300 0 
z
" transform="scale(0.015625)"/>
       <path id="Arial-BoldMT-75" d="M 2644 0 
L 2644 497 
Q 2463 231 2167 78 
Q 1872 -75 1544 -75 
Q 1209 -75 943 72 
Q 678 219 559 484 
Q 441 750 441 1219 
L 441 3319 
L 1319 3319 
L 1319 1794 
Q 1319 1094 1367 936 
Q 1416 778 1544 686 
Q 1672 594 1869 594 
Q 2094 594 2272 717 
Q 2450 841 2515 1023 
Q 2581 1206 2581 1919 
L 2581 3319 
L 3459 3319 
L 3459 0 
L 2644 0 
z
" transform="scale(0.015625)"/>
      </defs>
      <use xlink:href="#Arial-BoldMT-54"/>
      <use xlink:href="#Arial-BoldMT-72" transform="translate(55.583984 0)"/>
      <use xlink:href="#Arial-BoldMT-75" transform="translate(94.5 0)"/>
      <use xlink:href="#Arial-BoldMT-65" transform="translate(155.583984 0)"/>
      <use xlink:href="#Arial-BoldMT-20" transform="translate(211.199219 0)"/>
      <use xlink:href="#Arial-BoldMT-50" transform="translate(238.982422 0)"/>
      <use xlink:href="#Arial-BoldMT-6f" transform="translate(305.681641 0)"/>
      <use xlink:href="#Arial-BoldMT-73" transform="translate(366.765625 0)"/>
      <use xlink:href="#Arial-BoldMT-69" transform="translate(422.380859 0)"/>
      <use xlink:href="#Arial-BoldMT-74" transform="translate(450.164062 0)"/>
      <use xlink:href="#Arial-BoldMT-69" transform="translate(483.464844 0)"/>
      <use xlink:href="#Arial-BoldMT-76" transform="translate(511.248047 0)"/>
      <use xlink:href="#Arial-BoldMT-65" transform="translate(566.863281 0)"/>
      <use xlink:href="#Arial-BoldMT-20" transform="translate(622.478516 0)"/>
      <use xlink:href="#Arial-BoldMT-52" transform="translate(650.261719 0)"/>
      <use xlink:href="#Arial-BoldMT-61" transform="translate(722.478516 0)"/>
      <use xlink:href="#Arial-BoldMT-74" transform="translate(778.09375 0)"/>
      <use xlink:href="#Arial-BoldMT-65" transform="translate(811.394531 0)"/>
      <use xlink:href="#Arial-BoldMT-20" transform="translate(867.009766 0)"/>
      <use xlink:href="#Arial-BoldMT-28" transform="translate(894.792969 0)"/>
      <use xlink:href="#Arial-BoldMT-54" transform="translate(928.09375 0)"/>
      <use xlink:href="#Arial-BoldMT-50" transform="translate(989.177734 0)"/>
      <use xlink:href="#Arial-BoldMT-52" transform="translate(1055.876953 0)"/>
      <use xlink:href="#Arial-BoldMT-29" transform="translate(1128.09375 0)"/>
     </g>
    </g>
   </g>
   <g id="line2d_25">
    <path d="M 42.831699 265.022801 
L 42.942491 244.164939 
L 42.94356 244.075802 
L 43.052998 233.290327 
L 43.055634 233.20119 
L 43.166497 226.159433 
L 43.171508 226.070297 
L 43.279711 220.811263 
L 43.28971 220.722127 
L 43.400454 216.087047 
L 43.406368 215.997911 
L 43.517207 212.120487 
L 43.519178 212.031351 
L 43.628094 208.644177 
L 43.631442 208.555041 
L 43.740999 205.613547 
L 43.747222 205.524411 
L 43.856042 202.627486 
L 43.864734 202.53835 
L 43.974529 200.44365 
L 43.979041 200.354514 
L 44.082518 198.57179 
L 44.090474 198.482654 
L 44.199936 196.165114 
L 44.212618 196.075978 
L 44.32322 194.382391 
L 44.330345 194.293254 
L 44.436814 192.77794 
L 44.450969 192.688803 
L 44.557082 190.594104 
L 44.564919 190.504967 
L 44.674809 188.989653 
L 44.681292 188.900516 
L 44.788878 187.206929 
L 44.798924 187.117793 
L 44.909787 185.825319 
L 44.920047 185.736183 
L 45.030981 184.042595 
L 45.036111 183.953459 
L 45.14467 182.30444 
L 45.151652 182.215304 
L 45.260117 180.878262 
L 45.27173 180.789125 
L 45.382332 179.630355 
L 45.388483 179.541219 
L 45.497233 178.382449 
L 45.518797 178.293313 
L 45.627831 176.822566 
L 45.640941 176.73343 
L 45.745582 175.262683 
L 45.755224 175.173547 
L 45.86357 173.747368 
L 45.882688 173.658232 
L 45.974551 172.856007 
L 45.99196 172.856007 
L 46.010532 172.766871 
L 46.119448 171.474396 
L 46.13688 171.38526 
L 46.243135 170.538466 
L 46.25444 170.44933 
L 46.363308 169.023152 
L 46.383543 168.934015 
L 46.476736 168.220926 
L 46.496567 168.13179 
L 46.602015 167.062156 
L 46.613795 166.97302 
L 46.719338 165.992522 
L 46.735131 165.903386 
L 46.843976 165.012024 
L 46.860458 164.922888 
L 46.970323 163.986958 
L 46.997849 163.897822 
L 47.096362 162.961892 
L 47.127854 162.872756 
L 47.234941 161.981395 
L 47.245819 161.892258 
L 47.34996 161.000897 
L 47.351979 161.000897 
L 47.372641 160.911761 
L 47.482768 160.064967 
L 47.487375 159.975831 
L 47.592111 159.173605 
L 47.62802 159.084469 
L 47.73297 158.193108 
L 47.774698 158.103971 
L 47.882141 157.168042 
L 47.903302 157.078906 
L 48.00951 156.27668 
L 48.038247 156.187544 
L 48.149181 155.608159 
L 48.168679 155.519023 
L 48.268238 154.850501 
L 48.273462 154.850501 
L 48.30068 154.761365 
L 48.405819 153.780867 
L 48.421351 153.691731 
L 48.53048 152.755802 
L 48.556082 152.666665 
L 48.657327 152.042712 
L 48.682383 151.953576 
L 48.785503 151.062214 
L 48.802627 150.973078 
L 48.906151 150.304557 
L 48.912896 150.304557 
L 48.95023 150.215421 
L 49.045775 149.636036 
L 49.05803 149.636036 
L 49.075129 149.5469 
L 49.182572 148.967515 
L 49.189958 148.878378 
L 49.297924 148.165289 
L 49.377556 148.076153 
L 49.486828 147.318495 
L 49.51129 147.229359 
L 49.621963 146.471702 
L 49.638778 146.382566 
L 49.748833 145.58034 
L 49.769804 145.491204 
L 49.878744 144.822683 
L 49.903016 144.733547 
L 50.005044 144.065025 
L 50.008155 144.065025 
L 50.039908 143.975889 
L 50.132199 143.574777 
L 50.184852 143.48564 
L 50.295739 142.817119 
L 50.313859 142.727983 
L 50.419545 142.282302 
L 50.487683 142.193166 
L 50.594627 141.390941 
L 50.627663 141.301804 
L 50.737362 140.722419 
L 50.771466 140.633283 
L 50.876131 140.00933 
L 50.890832 139.920194 
L 50.992385 139.385377 
L 50.998845 139.385377 
L 51.029339 139.296241 
L 51.13379 138.583151 
L 51.178368 138.494015 
L 51.274221 138.182039 
L 51.308468 138.092902 
L 51.412253 137.468949 
L 51.434317 137.379813 
L 51.544966 136.666724 
L 51.549882 136.577588 
L 51.651127 135.998203 
L 51.665994 135.909066 
L 51.771941 135.552522 
L 51.809726 135.463386 
L 51.902516 134.928569 
L 51.93282 134.839432 
L 52.034326 134.43832 
L 52.084129 134.349183 
L 52.187582 133.546958 
L 52.208862 133.457822 
L 52.308634 132.923005 
L 52.342287 132.833869 
L 52.442534 132.165347 
L 52.44726 132.165347 
L 52.466141 132.076211 
L 52.551568 131.719667 
L 52.558455 131.719667 
L 52.610206 131.63053 
L 52.685468 131.273986 
L 52.702876 131.273986 
L 52.765623 131.18485 
L 52.875726 130.739169 
L 52.900995 130.650033 
L 53.009008 130.159784 
L 53.082157 130.070648 
L 53.182285 129.803239 
L 53.263936 129.714103 
L 53.359695 129.31299 
L 53.462008 129.223854 
L 53.541474 128.822741 
L 53.572135 128.822741 
L 53.582228 128.733605 
L 53.690312 128.198788 
L 53.733489 128.109652 
L 53.80792 127.663971 
L 53.822408 127.663971 
L 53.913677 127.574835 
L 54.01352 126.950882 
L 54.063157 126.861746 
L 54.164283 126.371497 
L 54.190953 126.282361 
L 54.245554 126.05952 
L 54.293575 126.05952 
L 54.326207 125.970384 
L 54.42966 125.613839 
L 54.455785 125.524703 
L 54.531712 125.168159 
L 54.562515 125.168159 
L 54.611416 125.079022 
L 54.719928 124.544205 
L 54.740875 124.455069 
L 54.850289 124.009388 
L 54.888597 123.920252 
L 54.967422 123.340867 
L 54.999318 123.340867 
L 55.032424 123.251731 
L 55.141198 122.80605 
L 55.20221 122.716914 
L 55.293432 122.449505 
L 55.312978 122.449505 
L 55.344209 122.360369 
L 55.453599 122.003825 
L 55.454288 122.003825 
L 55.516417 121.914688 
L 55.626259 121.64728 
L 55.661289 121.558144 
L 55.754673 121.067895 
L 55.853946 120.978759 
L 55.943529 120.48851 
L 55.954692 120.48851 
L 55.973905 120.399374 
L 56.078403 119.953693 
L 56.128277 119.864557 
L 56.216602 119.418876 
L 56.23895 119.418876 
L 56.278945 119.32974 
L 56.36677 118.884059 
L 56.389285 118.884059 
L 56.419685 118.794923 
L 56.529835 118.260106 
L 56.613434 118.17097 
L 56.716887 117.814425 
L 56.792078 117.725289 
L 56.892182 117.190472 
L 56.936 117.101336 
L 57.012331 116.744791 
L 57.064058 116.655655 
L 57.158652 116.343678 
L 57.212041 116.254542 
L 57.304641 116.031702 
L 57.312455 116.031702 
L 57.354563 115.942565 
L 57.463597 115.808861 
L 57.479509 115.719725 
L 57.554605 115.36318 
L 57.588021 115.36318 
L 57.623194 115.274044 
L 57.726125 114.962068 
L 57.734271 114.962068 
L 57.768518 114.872931 
L 57.879357 114.427251 
L 57.895483 114.338114 
L 57.998034 113.892434 
L 58.04064 113.803297 
L 58.150126 113.446753 
L 58.193374 113.357617 
L 58.274241 113.090208 
L 58.28367 113.090208 
L 58.415551 113.001072 
L 58.510621 112.644527 
L 58.541376 112.555391 
L 58.612483 112.377119 
L 58.710924 112.287983 
L 58.795853 112.065142 
L 58.857744 111.976006 
L 58.962931 111.530325 
L 59.03171 111.441189 
L 59.1411 111.084644 
L 59.164138 110.995508 
L 59.230708 110.817236 
L 59.245456 110.817236 
L 59.297373 110.7281 
L 59.405196 110.460691 
L 59.406217 110.460691 
L 59.41992 110.371555 
L 59.497653 110.01501 
L 59.516225 110.01501 
L 59.605951 109.925874 
L 59.70083 109.56933 
L 59.752011 109.480193 
L 59.842853 109.212785 
L 59.859525 109.212785 
L 59.929016 109.123649 
L 60.036839 108.677968 
L 60.049237 108.588832 
L 60.133168 108.187719 
L 60.272008 108.098583 
L 60.334303 107.831174 
L 60.376244 107.831174 
L 60.435143 107.742038 
L 60.524299 107.430062 
L 60.579802 107.340926 
L 60.656276 107.118085 
L 60.68392 107.118085 
L 60.775475 107.028949 
L 60.884058 106.716972 
L 60.920252 106.627836 
L 61.029144 106.048451 
L 61.130008 105.959315 
L 61.221587 105.60277 
L 61.22541 105.60277 
L 61.274335 105.513634 
L 61.372682 105.112521 
L 61.419563 105.023385 
L 61.523943 104.711409 
L 61.525178 104.711409 
L 61.579564 104.622272 
L 61.677175 104.310296 
L 61.68715 104.310296 
L 61.719425 104.22116 
L 61.779559 103.998319 
L 61.827225 103.998319 
L 61.908733 103.909183 
L 61.975541 103.730911 
L 61.992902 103.730911 
L 62.081226 103.641775 
L 62.182661 103.374366 
L 62.242985 103.28523 
L 62.349644 103.151526 
L 62.351378 103.151526 
L 62.380827 103.06239 
L 62.49188 102.884117 
L 62.546575 102.794981 
L 62.638961 102.527573 
L 62.649981 102.527573 
L 62.758802 102.438436 
L 62.865105 102.171028 
L 62.908875 102.081892 
L 62.995086 101.680779 
L 63.016081 101.680779 
L 63.098539 101.591643 
L 63.188978 101.368802 
L 63.2517 101.279666 
L 63.362349 101.145962 
L 63.395741 101.056826 
L 63.48922 100.923122 
L 63.506771 100.923122 
L 63.644756 100.833985 
L 63.745501 100.566577 
L 63.747948 100.566577 
L 63.787277 100.477441 
L 63.893366 99.987192 
L 63.950246 99.898056 
L 64.047073 99.630647 
L 64.188312 99.541511 
L 64.2873 99.318671 
L 64.289889 99.318671 
L 64.371326 99.229535 
L 64.478033 99.006694 
L 64.542299 98.917558 
L 64.652616 98.650149 
L 64.66404 98.561013 
L 64.770509 98.293605 
L 64.926758 98.204469 
L 65.031636 97.847924 
L 65.096116 97.758788 
L 65.192159 97.535947 
L 65.197384 97.535947 
L 65.245762 97.446811 
L 65.344228 97.134835 
L 65.345747 97.134835 
L 65.43412 97.045698 
L 65.517409 96.77829 
L 65.534533 96.77829 
L 65.563602 96.689154 
L 65.646845 96.421745 
L 65.763479 96.332609 
L 65.85596 96.109769 
L 65.933787 96.020633 
L 66.003159 95.797792 
L 66.042964 95.797792 
L 66.151357 95.708656 
L 66.241391 95.485816 
L 66.25139 95.485816 
L 66.317271 95.396679 
L 66.423836 94.906431 
L 66.517884 94.817294 
L 66.625944 94.46075 
L 66.680307 94.371614 
L 66.774569 94.193341 
L 66.802261 94.104205 
L 66.843823 93.970501 
L 66.87465 93.970501 
L 67.020567 93.881365 
L 67.110056 93.52482 
L 67.19515 93.435684 
L 67.28965 93.212843 
L 67.354106 93.123707 
L 67.450696 92.856299 
L 67.461431 92.856299 
L 67.533059 92.767163 
L 67.633093 92.499754 
L 67.637225 92.499754 
L 67.681993 92.410618 
L 67.719327 92.276914 
L 67.791573 92.276914 
L 67.939367 92.187777 
L 67.994822 91.964937 
L 68.047831 91.964937 
L 68.10521 91.875801 
L 68.187289 91.65296 
L 68.27027 91.563824 
L 68.378948 91.296416 
L 68.398826 91.20728 
L 68.508549 91.073575 
L 68.58621 90.984439 
L 68.664418 90.761599 
L 68.693036 90.761599 
L 68.859378 90.672463 
L 68.944853 90.449622 
L 68.961382 90.449622 
L 69.07253 90.360486 
L 69.177955 90.04851 
L 69.179285 90.04851 
L 69.250866 89.959373 
L 69.356338 89.691965 
L 69.511589 89.602829 
L 69.548709 89.513693 
L 69.622333 89.513693 
L 69.687549 89.424556 
L 69.772359 89.157148 
L 69.781835 89.157148 
L 69.884979 89.068012 
L 69.991259 88.845171 
L 70.0408 88.756035 
L 70.115802 88.622331 
L 70.139361 88.622331 
L 70.198284 88.533195 
L 70.256922 88.444059 
L 70.360636 88.354922 
L 70.463044 88.042946 
L 70.467746 88.042946 
L 70.547355 87.95381 
L 70.60585 87.820105 
L 70.650618 87.820105 
L 70.755188 87.730969 
L 70.835509 87.463561 
L 70.863011 87.463561 
L 71.008785 87.374425 
L 71.077089 87.151584 
L 71.107204 87.151584 
L 71.158028 87.062448 
L 71.158028 87.01788 
L 71.247112 87.01788 
L 71.38182 86.928744 
L 71.463305 86.750471 
L 71.480499 86.750471 
L 71.538686 86.661335 
L 71.645393 86.393927 
L 71.776514 86.304791 
L 71.8238 86.126518 
L 71.872581 86.126518 
L 71.928963 86.037382 
L 72.038211 85.814542 
L 72.127675 85.725406 
L 72.225049 85.413429 
L 72.435612 85.324293 
L 72.527191 85.056884 
L 72.546452 85.056884 
L 72.585306 84.967748 
L 72.651306 84.789476 
L 72.665009 84.789476 
L 72.725975 84.70034 
L 72.804111 84.522067 
L 72.927418 84.432931 
L 73.015957 84.299227 
L 73.036286 84.299227 
L 73.194554 84.210091 
L 73.269199 84.120955 
L 73.292687 84.120955 
L 73.400272 84.031818 
L 73.423404 83.853546 
L 73.494724 83.853546 
L 73.613686 83.76441 
L 73.720274 83.586138 
L 73.748489 83.497001 
L 73.848142 83.274161 
L 74.02586 83.185025 
L 74.098296 83.095889 
L 74.134039 83.095889 
L 74.201393 83.006752 
L 74.283566 82.783912 
L 74.302637 82.783912 
L 74.478218 82.694776 
L 74.574475 82.471936 
L 74.704148 82.382799 
L 74.799075 82.249095 
L 75.120596 82.159959 
L 75.152397 82.026255 
L 75.228039 82.026255 
L 75.356881 81.937119 
L 75.41255 81.803414 
L 75.46525 81.803414 
L 75.574569 81.714278 
L 75.659165 81.536006 
L 75.674033 81.536006 
L 75.762429 81.44687 
L 75.865383 81.179461 
L 75.86733 81.179461 
L 76.221294 81.090325 
L 76.331587 80.912053 
L 76.457056 80.822916 
L 76.548207 80.600076 
L 76.566874 80.600076 
L 76.691013 80.51094 
L 76.785798 80.243531 
L 76.90825 80.154395 
L 76.971258 80.020691 
L 77.001159 80.020691 
L 77.079699 79.931555 
L 77.157716 79.664146 
L 77.178972 79.664146 
L 77.51244 79.57501 
L 77.621023 79.307602 
L 77.95297 79.218465 
L 77.979974 79.084761 
L 78.031201 79.084761 
L 78.192437 78.995625 
L 78.295819 78.594512 
L 78.415185 78.505376 
L 78.490257 78.371672 
L 78.522651 78.371672 
L 78.677285 78.282536 
L 78.758152 78.059695 
L 79.082286 77.970559 
L 79.138834 77.836855 
L 79.156076 77.836855 
L 79.255991 77.747719 
L 79.327738 77.658583 
L 79.342273 77.658583 
L 79.426251 77.569446 
L 79.510681 77.435742 
L 79.52562 77.435742 
L 79.647194 77.346606 
L 79.737537 77.168334 
L 79.746799 77.168334 
L 80.014267 77.079198 
L 80.091501 76.811789 
L 80.121259 76.811789 
L 80.457814 76.722653 
L 80.507712 76.588949 
L 80.566635 76.588949 
L 80.6219 76.499812 
L 80.698231 76.32154 
L 80.731457 76.32154 
L 80.966649 76.232404 
L 80.992559 76.143268 
L 81.053952 76.143268 
L 81.320375 76.054132 
L 81.416608 75.786723 
L 81.419719 75.786723 
L 81.502605 75.697587 
L 81.502605 75.653019 
L 81.593257 75.653019 
L 81.817952 75.563883 
L 81.882052 75.474747 
L 81.920384 75.474747 
L 81.99434 75.38561 
L 82.029418 75.296474 
L 82.085253 75.296474 
L 82.294915 75.207338 
L 82.34011 75.029066 
L 82.369488 75.029066 
L 82.48997 74.93993 
L 82.565422 74.717089 
L 82.795318 74.627953 
L 82.883239 74.449681 
L 83.248602 74.360545 
L 83.334362 74.22684 
L 83.383358 74.137704 
L 83.455818 74.048568 
L 83.493152 74.048568 
L 83.631541 73.959432 
L 83.71274 73.736591 
L 83.730339 73.736591 
L 83.911097 73.647455 
L 83.911097 73.602887 
L 83.965578 73.602887 
L 84.122492 73.513751 
L 84.221147 73.290911 
L 84.398818 73.201774 
L 84.481205 72.978934 
L 84.49669 72.978934 
L 85.10589 72.889798 
L 85.188753 72.800662 
L 85.195972 72.800662 
L 85.315124 72.711525 
L 85.418078 72.577821 
L 85.420976 72.577821 
L 85.631658 72.488685 
L 85.712264 72.221277 
L 85.862908 72.13214 
L 85.964105 71.998436 
L 85.996974 71.9093 
L 86.045376 71.820164 
L 86.073258 71.820164 
L 86.139068 71.731028 
L 86.181342 71.597323 
L 86.354595 71.508187 
L 86.434299 71.329915 
L 86.715185 71.240779 
L 86.819469 71.151643 
L 86.968379 71.062506 
L 87.01101 70.97337 
L 87.05934 70.97337 
L 87.584514 70.884234 
L 87.620542 70.75053 
L 87.670654 70.75053 
L 87.891739 70.661394 
L 87.987165 70.572257 
L 88.000916 70.572257 
L 88.163695 70.483121 
L 88.238673 70.260281 
L 88.273038 70.260281 
L 88.356233 70.171145 
L 88.364474 70.082009 
L 88.442515 70.082009 
L 88.674929 69.992872 
L 88.74822 69.903736 
L 88.761733 69.903736 
L 88.911545 69.8146 
L 88.979541 69.636328 
L 89.002221 69.636328 
L 89.402592 69.547192 
L 89.439498 69.413487 
L 89.512386 69.413487 
L 89.672696 69.324351 
L 89.746509 69.146079 
L 89.752827 69.146079 
L 90.146998 69.056943 
L 90.229647 68.967807 
L 90.234017 68.967807 
L 90.560383 68.87867 
L 90.649278 68.566694 
L 90.661984 68.566694 
L 90.88352 68.477558 
L 90.88352 68.43299 
L 90.993433 68.43299 
L 91.20117 68.343853 
L 91.299137 68.254717 
L 91.727865 68.165581 
L 91.727865 68.121013 
L 91.757124 68.121013 
L 91.940827 68.031877 
L 91.940827 67.987309 
L 92.011696 67.987309 
L 92.152317 67.898173 
L 92.234277 67.764468 
L 92.244869 67.764468 
L 92.489157 67.675332 
L 92.559171 67.586196 
L 92.585319 67.586196 
L 92.961964 67.49706 
L 92.992007 67.363356 
L 93.020815 67.363356 
L 93.685946 67.274219 
L 93.685946 67.229651 
L 93.768309 67.229651 
L 94.008584 67.140515 
L 94.008584 67.095947 
L 94.054515 67.095947 
L 94.26819 67.006811 
L 94.27066 66.917675 
L 94.47227 66.828539 
L 94.511695 66.739402 
L 94.555156 66.739402 
L 94.69364 66.650266 
L 94.749333 66.516562 
L 95.057151 66.427426 
L 95.086031 66.249153 
L 95.148611 66.249153 
L 95.355493 66.160017 
L 95.426908 66.026313 
L 95.429164 66.026313 
L 95.568717 65.937177 
L 95.568717 65.892609 
L 95.631297 65.892609 
L 95.745984 65.803473 
L 95.830247 65.714337 
L 95.846373 65.714337 
L 96.091706 65.6252 
L 96.091706 65.580632 
L 96.620039 65.491496 
L 96.667966 65.40236 
L 96.724893 65.40236 
L 96.894537 65.313224 
L 96.894537 65.268656 
L 96.994 65.268656 
L 97.315332 65.17952 
L 97.403728 65.045815 
L 97.716842 64.956679 
L 97.716842 64.912111 
L 97.794479 64.912111 
L 97.93567 64.822975 
L 97.93567 64.778407 
L 98.019174 64.778407 
L 98.464217 64.689271 
L 98.524209 64.510998 
L 98.552114 64.510998 
L 98.824712 64.421862 
L 98.837988 64.332726 
L 98.935622 64.332726 
L 99.100017 64.24359 
L 99.100017 64.199022 
L 99.449563 64.109886 
L 99.521881 63.976181 
L 99.550285 63.976181 
L 100.139726 63.887045 
L 100.171503 63.797909 
L 100.220997 63.797909 
L 100.41249 63.708773 
L 100.50782 63.619637 
L 100.523281 63.619637 
L 100.679269 63.5305 
L 100.679269 63.485932 
L 100.786925 63.485932 
L 101.145924 63.396796 
L 101.156849 63.30766 
L 101.188174 63.30766 
L 101.482242 63.218524 
L 101.502785 63.129388 
L 101.645947 63.040252 
L 101.645947 62.995683 
L 101.749424 62.995683 
L 101.82243 62.906547 
L 101.864396 62.817411 
L 101.879999 62.817411 
L 102.087072 62.728275 
L 102.161171 62.594571 
L 102.348127 62.505435 
L 102.420896 62.416298 
L 102.45044 62.416298 
L 102.604385 62.327162 
L 102.640223 62.238026 
L 102.668509 62.238026 
L 103.336608 62.14889 
L 103.336608 62.104322 
L 103.392467 62.104322 
L 103.557693 62.015186 
L 103.557693 61.970618 
L 103.636399 61.970618 
L 104.000622 61.881481 
L 104.063036 61.747777 
L 104.084411 61.747777 
L 104.160172 61.658641 
L 104.195393 61.524937 
L 104.240042 61.524937 
L 104.750444 61.435801 
L 104.860499 61.346664 
L 105.305091 61.257528 
L 105.305091 61.21296 
L 105.415004 61.21296 
L 105.747665 61.123824 
L 105.858243 60.99012 
L 106.050686 60.900984 
L 106.050686 60.856416 
L 106.15174 60.856416 
L 106.269324 60.767279 
L 106.333685 60.589007 
L 106.368289 60.589007 
L 106.671737 60.499871 
L 106.708026 60.410735 
L 106.763814 60.410735 
L 107.064484 60.321599 
L 107.064484 60.27703 
L 107.088993 60.27703 
L 107.268872 60.187894 
L 107.378548 60.05419 
L 107.600654 59.965054 
L 107.666108 59.83135 
L 108.077308 59.742213 
L 108.077878 59.653077 
L 108.154636 59.653077 
L 108.331689 59.563941 
L 108.373156 59.474805 
L 108.397404 59.474805 
L 108.825087 59.385669 
L 108.825087 59.341101 
L 108.888807 59.341101 
L 109.197931 59.251965 
L 109.197931 59.207396 
L 109.291837 59.207396 
L 109.688906 59.11826 
L 109.736073 58.984556 
L 109.776756 58.984556 
L 110.29585 58.89542 
L 110.384222 58.806284 
L 110.646489 58.717148 
L 110.699166 58.583443 
L 110.789081 58.494307 
L 110.84931 58.405171 
L 110.897071 58.405171 
L 111.216384 58.316035 
L 111.302713 58.226899 
L 111.314921 58.226899 
L 111.692111 58.137762 
L 111.777325 57.95949 
L 112.326344 57.870354 
L 112.420273 57.73665 
L 112.591175 57.647514 
L 112.656463 57.513809 
L 112.986297 57.424673 
L 113.048853 57.246401 
L 113.426495 57.157265 
L 113.426495 57.112697 
L 113.526053 57.112697 
L 113.939367 57.02356 
L 114.048211 56.889856 
L 114.420486 56.80072 
L 114.523535 56.711584 
L 114.887331 56.622448 
L 114.95592 56.533312 
L 115.430508 56.444175 
L 115.478268 56.265903 
L 115.500854 56.265903 
L 116.141997 56.176767 
L 116.169642 56.087631 
L 116.681445 55.998495 
L 116.74583 55.909358 
L 116.97404 55.820222 
L 116.97404 55.775654 
L 117.538496 55.686518 
L 117.595424 55.597382 
L 118.191063 55.508246 
L 118.293685 55.329973 
L 118.672514 55.240837 
L 118.672514 55.196269 
L 118.775231 55.196269 
L 119.241934 55.107133 
L 119.306533 54.973429 
L 119.350398 54.973429 
L 120.019471 54.884292 
L 120.124801 54.795156 
L 120.268414 54.70602 
L 120.268414 54.661452 
L 120.338499 54.661452 
L 120.559418 54.572316 
L 120.661232 54.394044 
L 121.218944 54.304907 
L 121.218944 54.260339 
L 121.310142 54.260339 
L 121.687831 54.171203 
L 121.733811 54.082067 
L 121.788221 54.082067 
L 121.8774 53.992931 
L 121.979167 53.903795 
L 122.282544 53.814658 
L 122.37474 53.636386 
L 122.534504 53.54725 
L 122.599815 53.458114 
L 123.388752 53.368978 
L 123.476435 53.235273 
L 123.949289 53.146137 
L 123.949289 53.101569 
L 124.391696 53.012433 
L 124.391696 52.967865 
L 124.468431 52.967865 
L 125.028066 52.878729 
L 125.028066 52.834161 
L 125.11233 52.834161 
L 125.245209 52.745025 
L 125.245209 52.700456 
L 125.270217 52.700456 
L 125.757036 52.61132 
L 125.836288 52.522184 
L 126.28753 52.433048 
L 126.387397 52.343912 
L 126.852461 52.254776 
L 126.948148 52.165639 
L 127.328473 52.076503 
L 127.328473 52.031935 
L 127.357163 52.031935 
L 127.646124 51.942799 
L 127.739507 51.809095 
L 128.060174 51.719959 
L 128.166358 51.541686 
L 128.438742 51.45255 
L 128.438742 51.407982 
L 128.887775 51.318846 
L 128.998591 51.185142 
L 129.505336 51.096005 
L 129.505336 51.051437 
L 129.571787 51.051437 
L 130.152986 50.962301 
L 130.152986 50.917733 
L 130.83657 50.828597 
L 130.83942 50.739461 
L 130.891408 50.739461 
L 131.503767 50.650325 
L 131.6 50.561188 
L 132.11577 50.472052 
L 132.11577 50.427484 
L 132.471253 50.338348 
L 132.509134 50.204644 
L 132.563354 50.204644 
L 132.764917 50.115508 
L 132.849655 49.981803 
L 132.862385 49.981803 
L 133.319992 49.892667 
L 133.319992 49.848099 
L 133.616434 49.758963 
L 133.68298 49.669827 
L 134.315811 49.580691 
L 134.315811 49.536123 
L 134.383141 49.536123 
L 135.043142 49.446986 
L 135.118238 49.313282 
L 135.122608 49.313282 
L 135.744657 49.224146 
L 135.764345 49.13501 
L 135.956764 49.045874 
L 135.956764 49.001306 
L 136.467024 48.912169 
L 136.495476 48.823033 
L 136.922873 48.733897 
L 137.024426 48.644761 
L 137.540125 48.555625 
L 137.628924 48.421921 
L 137.63783 48.421921 
L 138.441896 48.332784 
L 138.469897 48.243648 
L 139.260947 48.154512 
L 139.29555 48.065376 
L 140.459137 47.97624 
L 140.50267 47.887104 
L 141.007776 47.797967 
L 141.009581 47.708831 
L 141.081613 47.708831 
L 141.744226 47.619695 
L 141.744226 47.575127 
L 142.1208 47.485991 
L 142.1208 47.441423 
L 142.797947 47.352287 
L 142.8525 47.26315 
L 144.047959 47.174014 
L 144.138088 47.084878 
L 144.490033 46.995742 
L 144.507608 46.906606 
L 144.556651 46.906606 
L 144.781559 46.81747 
L 144.890427 46.683765 
L 145.562231 46.594629 
L 145.604529 46.505493 
L 145.872139 46.416357 
L 145.872139 46.371789 
L 145.944647 46.371789 
L 146.646851 46.282653 
L 146.646851 46.238084 
L 146.73774 46.238084 
L 147.15673 46.148948 
L 147.25655 46.059812 
L 148.238642 45.970676 
L 148.339981 45.88154 
L 148.831146 45.792404 
L 148.869312 45.703267 
L 149.436404 45.614131 
L 149.436404 45.569563 
L 149.496609 45.569563 
L 149.855821 45.480427 
L 149.860666 45.391291 
L 149.911752 45.391291 
L 150.369358 45.302155 
L 150.369358 45.257587 
L 150.477965 45.257587 
L 150.827155 45.16845 
L 150.927236 45.079314 
L 151.8054 44.990178 
L 151.883275 44.901042 
L 152.415669 44.811906 
L 152.415669 44.767338 
L 152.505157 44.767338 
L 153.048073 44.678202 
L 153.048073 44.633634 
L 153.639912 44.544497 
L 153.735053 44.410793 
L 154.11336 44.321657 
L 154.11336 44.277089 
L 154.177104 44.277089 
L 154.735812 44.187953 
L 154.763338 44.098817 
L 154.8443 44.098817 
L 155.430036 44.00968 
L 155.430036 43.965112 
L 155.49074 43.965112 
L 156.381468 43.875976 
L 156.397807 43.78684 
L 156.413815 43.78684 
L 157.180522 43.697704 
L 157.180522 43.653136 
L 157.568685 43.564 
L 157.667839 43.474863 
L 158.070371 43.385727 
L 158.156772 43.252023 
L 158.251794 43.162887 
L 158.263479 43.073751 
L 159.199829 42.984614 
L 159.290577 42.895478 
L 159.602503 42.806342 
L 159.69477 42.62807 
L 160.238612 42.538934 
L 160.238612 42.494366 
L 160.298033 42.494366 
L 161.581698 42.405229 
L 161.664797 42.316093 
L 162.076425 42.226957 
L 162.076425 42.182389 
L 162.16456 42.182389 
L 162.373675 42.093253 
L 162.373675 42.048685 
L 162.402388 42.048685 
L 163.410819 41.959549 
L 163.410819 41.91498 
L 163.490831 41.91498 
L 164.96765 41.825844 
L 164.985676 41.736708 
L 165.375906 41.647572 
L 165.375906 41.603004 
L 165.591291 41.513868 
L 165.603165 41.424732 
L 165.68674 41.424732 
L 165.964943 41.335595 
L 166.055167 41.246459 
L 166.882151 41.157323 
L 166.882151 41.112755 
L 166.992349 41.112755 
L 167.644584 41.023619 
L 167.738703 40.934483 
L 168.564737 40.845346 
L 168.564737 40.800778 
L 168.649095 40.800778 
L 169.216781 40.711642 
L 169.216781 40.667074 
L 169.296651 40.667074 
L 169.8489 40.577938 
L 169.926704 40.488802 
L 169.943257 40.488802 
L 171.301566 40.399666 
L 171.301566 40.355098 
L 171.400673 40.355098 
L 171.954228 40.265961 
L 172.011655 40.176825 
L 173.632207 40.087689 
L 173.632207 40.043121 
L 173.676072 40.043121 
L 174.899484 39.953985 
L 174.899484 39.909417 
L 175.765797 39.820281 
L 175.765797 39.775713 
L 175.842081 39.775713 
L 176.372694 39.686576 
L 176.372694 39.642008 
L 177.203003 39.552872 
L 177.203003 39.508304 
L 177.209557 39.508304 
L 178.485052 39.419168 
L 178.503648 39.285464 
L 180.113489 39.196327 
L 180.204521 39.107191 
L 180.209033 39.107191 
L 181.13852 39.018055 
L 181.224731 38.884351 
L 182.04991 38.795215 
L 182.04991 38.750647 
L 182.147236 38.750647 
L 182.531718 38.66151 
L 182.573446 38.572374 
L 182.64042 38.572374 
L 183.429 38.483238 
L 183.429 38.43867 
L 184.196207 38.349534 
L 184.248646 38.260398 
L 184.257956 38.260398 
L 185.04276 38.171262 
L 185.04276 38.126693 
L 185.797783 38.037557 
L 185.898742 37.903853 
L 186.945861 37.814717 
L 186.948307 37.725581 
L 189.501695 37.636445 
L 189.501695 37.591876 
L 189.596408 37.591876 
L 191.682309 37.50274 
L 191.682309 37.458172 
L 191.899 37.369036 
L 191.899 37.324468 
L 192.458897 37.235332 
L 192.458897 37.190764 
L 192.839056 37.101628 
L 192.839056 37.057059 
L 192.873897 37.057059 
L 193.237123 36.967923 
L 193.291984 36.878787 
L 194.165493 36.789651 
L 194.247453 36.700515 
L 195.26764 36.611379 
L 195.26764 36.566811 
L 195.361736 36.566811 
L 196.08016 36.477674 
L 196.15813 36.388538 
L 196.884534 36.299402 
L 196.884534 36.254834 
L 197.408616 36.165698 
L 197.496893 36.076562 
L 198.568284 35.987426 
L 198.620794 35.898289 
L 199.400778 35.809153 
L 199.490931 35.675449 
L 200.635922 35.586313 
L 200.635922 35.541745 
L 201.368145 35.452609 
L 201.368145 35.40804 
L 201.420703 35.40804 
L 202.742746 35.318904 
L 202.791433 35.229768 
L 202.80288 35.229768 
L 204.640266 35.140632 
L 204.640266 35.096064 
L 205.972736 35.006928 
L 205.972736 34.96236 
L 205.994609 34.96236 
L 206.507172 34.873223 
L 206.507172 34.828655 
L 206.655536 34.739519 
L 206.680235 34.650383 
L 208.054077 34.561247 
L 208.054077 34.516679 
L 208.103547 34.516679 
L 208.608582 34.427543 
L 208.608582 34.382975 
L 209.323943 34.293838 
L 209.323943 34.24927 
L 209.327101 34.24927 
L 209.901485 34.160134 
L 209.991591 34.070998 
L 210.657742 33.981862 
L 210.657742 33.937294 
L 211.847406 33.848158 
L 211.852845 33.759021 
L 211.89177 33.759021 
L 212.267512 33.669885 
L 212.267512 33.625317 
L 214.751385 33.536181 
L 214.751385 33.491613 
L 216.264328 33.402477 
L 216.264328 33.357909 
L 216.334056 33.357909 
L 216.95202 33.268772 
L 217.000422 33.179636 
L 217.002631 33.179636 
L 218.707684 33.0905 
L 218.707684 33.045932 
L 218.789145 33.045932 
L 220.864287 32.956796 
L 220.864287 32.912228 
L 220.957053 32.912228 
L 222.79565 32.823092 
L 222.79565 32.778524 
L 222.850963 32.778524 
L 223.324719 32.689387 
L 223.396087 32.600251 
L 224.285722 32.511115 
L 224.285722 32.466547 
L 224.389531 32.466547 
L 225.14434 32.377411 
L 225.14434 32.332843 
L 225.243922 32.332843 
L 226.064755 32.243707 
L 226.167923 32.15457 
L 227.360627 32.065434 
L 227.360627 32.020866 
L 227.45705 32.020866 
L 228.121183 31.93173 
L 228.121183 31.887162 
L 228.129519 31.887162 
L 230.074609 31.798026 
L 230.074609 31.753458 
L 230.121206 31.753458 
L 231.291323 31.664322 
L 231.307354 31.575185 
L 231.376703 31.575185 
L 232.093608 31.486049 
L 232.093608 31.441481 
L 232.203117 31.441481 
L 233.189033 31.352345 
L 233.189033 31.307777 
L 233.294053 31.307777 
L 234.783508 31.218641 
L 234.875917 31.129505 
L 235.485617 31.040368 
L 235.485617 30.9958 
L 235.538816 30.9958 
L 236.462698 30.906664 
L 236.462698 30.862096 
L 236.549716 30.862096 
L 236.91394 30.77296 
L 236.91394 30.728392 
L 237.024375 30.728392 
L 237.700074 30.639256 
L 237.700074 30.594688 
L 237.805095 30.594688 
L 238.22076 30.505551 
L 238.22076 30.460983 
L 238.318465 30.460983 
L 238.880903 30.371847 
L 238.951748 30.282711 
L 241.653072 30.193575 
L 241.710783 30.104439 
L 241.761013 30.104439 
L 243.623835 30.015302 
L 243.667415 29.926166 
L 243.692946 29.926166 
L 245.819768 29.83703 
L 245.819768 29.792462 
L 245.856698 29.792462 
L 246.493377 29.703326 
L 246.567404 29.61419 
L 246.604335 29.61419 
L 249.135612 29.525054 
L 249.23783 29.435917 
L 249.817272 29.346781 
L 249.817272 29.302213 
L 249.924525 29.302213 
L 251.58025 29.213077 
L 251.58025 29.168509 
L 251.687218 29.168509 
L 253.863748 29.079373 
L 253.863748 29.034805 
L 253.949674 29.034805 
L 256.698331 28.945668 
L 256.764259 28.856532 
L 256.801808 28.856532 
L 258.622236 28.767396 
L 258.636391 28.67826 
L 258.730273 28.67826 
L 259.765588 28.589124 
L 259.795584 28.499988 
L 259.875168 28.499988 
L 260.547733 28.410851 
L 260.622282 28.321715 
L 260.655864 28.321715 
L 261.422691 28.232579 
L 261.422691 28.188011 
L 261.521394 28.188011 
L 262.332798 28.098875 
L 262.332798 28.054307 
L 262.439813 28.054307 
L 263.492846 27.965171 
L 263.492846 27.920603 
L 263.603281 27.920603 
L 264.174506 27.831466 
L 264.174506 27.786898 
L 264.283374 27.786898 
L 267.845382 27.697762 
L 267.845382 27.653194 
L 267.954797 27.653194 
L 270.076916 27.564058 
L 270.076916 27.51949 
L 270.167948 27.51949 
L 272.902189 27.430354 
L 273.007328 27.341218 
L 273.009774 27.341218 
L 275.358726 27.252081 
L 275.358726 27.207513 
L 275.469613 27.207513 
L 276.400216 27.118377 
L 276.400216 27.073809 
L 276.511008 27.073809 
L 279.901876 26.984673 
L 279.901876 26.940105 
L 280.012526 26.940105 
L 282.023758 26.895537 
L 282.023758 26.895537 
" clip-path="url(#pcffacc2e9f)" style="fill: none; stroke: #1f77b4; stroke-width: 1.5; stroke-linecap: round"/>
   </g>
   <g id="line2d_26">
    <path d="M 42.831699 265.022801 
L 282.023758 26.895537 
" clip-path="url(#pcffacc2e9f)" style="fill: none; stroke-dasharray: 5.55,2.4; stroke-dashoffset: 0; stroke: #999999; stroke-width: 1.5"/>
   </g>
   <g id="patch_3">
    <path d="M 35.655938 265.022801 
L 35.655938 19.751719 
" style="fill: none"/>
   </g>
   <g id="patch_4">
    <path d="M 289.19952 265.022801 
L 289.19952 19.751719 
" style="fill: none"/>
   </g>
   <g id="patch_5">
    <path d="M 35.655938 265.022801 
L 289.19952 265.022801 
" style="fill: none"/>
   </g>
   <g id="patch_6">
    <path d="M 35.655938 19.751719 
L 289.19952 19.751719 
" style="fill: none"/>
   </g>
   <g id="text_15">
    <!-- Model 1: Receiver Operating Characteristic (ROC) Curve -->
    <g style="fill: #333333" transform="translate(42.14976 13.751719) scale(0.09 -0.09)">
     <defs>
      <path id="Arial-BoldMT-4d" d="M 453 0 
L 453 4581 
L 1838 4581 
L 2669 1456 
L 3491 4581 
L 4878 4581 
L 4878 0 
L 4019 0 
L 4019 3606 
L 3109 0 
L 2219 0 
L 1313 3606 
L 1313 0 
L 453 0 
z
" transform="scale(0.015625)"/>
      <path id="Arial-BoldMT-64" d="M 3503 0 
L 2688 0 
L 2688 488 
Q 2484 203 2207 64 
Q 1931 -75 1650 -75 
Q 1078 -75 670 386 
Q 263 847 263 1672 
Q 263 2516 659 2955 
Q 1056 3394 1663 3394 
Q 2219 3394 2625 2931 
L 2625 4581 
L 3503 4581 
L 3503 0 
z
M 1159 1731 
Q 1159 1200 1306 963 
Q 1519 619 1900 619 
Q 2203 619 2415 876 
Q 2628 1134 2628 1647 
Q 2628 2219 2422 2470 
Q 2216 2722 1894 2722 
Q 1581 2722 1370 2473 
Q 1159 2225 1159 1731 
z
" transform="scale(0.015625)"/>
      <path id="Arial-BoldMT-31" d="M 2519 0 
L 1641 0 
L 1641 3309 
Q 1159 2859 506 2644 
L 506 3441 
Q 850 3553 1253 3867 
Q 1656 4181 1806 4600 
L 2519 4600 
L 2519 0 
z
" transform="scale(0.015625)"/>
      <path id="Arial-BoldMT-3a" d="M 628 2441 
L 628 3319 
L 1506 3319 
L 1506 2441 
L 628 2441 
z
M 628 0 
L 628 878 
L 1506 878 
L 1506 0 
L 628 0 
z
" transform="scale(0.015625)"/>
      <path id="Arial-BoldMT-63" d="M 3353 2338 
L 2488 2181 
Q 2444 2441 2289 2572 
Q 2134 2703 1888 2703 
Q 1559 2703 1364 2476 
Q 1169 2250 1169 1719 
Q 1169 1128 1367 884 
Q 1566 641 1900 641 
Q 2150 641 2309 783 
Q 2469 925 2534 1272 
L 3397 1125 
Q 3263 531 2881 228 
Q 2500 -75 1859 -75 
Q 1131 -75 698 384 
Q 266 844 266 1656 
Q 266 2478 700 2936 
Q 1134 3394 1875 3394 
Q 2481 3394 2839 3133 
Q 3197 2872 3353 2338 
z
" transform="scale(0.015625)"/>
      <path id="Arial-BoldMT-4f" d="M 278 2263 
Q 278 2963 488 3438 
Q 644 3788 914 4066 
Q 1184 4344 1506 4478 
Q 1934 4659 2494 4659 
Q 3506 4659 4114 4031 
Q 4722 3403 4722 2284 
Q 4722 1175 4119 548 
Q 3516 -78 2506 -78 
Q 1484 -78 881 545 
Q 278 1169 278 2263 
z
M 1231 2294 
Q 1231 1516 1590 1114 
Q 1950 713 2503 713 
Q 3056 713 3411 1111 
Q 3766 1509 3766 2306 
Q 3766 3094 3420 3481 
Q 3075 3869 2503 3869 
Q 1931 3869 1581 3476 
Q 1231 3084 1231 2294 
z
" transform="scale(0.015625)"/>
      <path id="Arial-BoldMT-70" d="M 434 3319 
L 1253 3319 
L 1253 2831 
Q 1413 3081 1684 3237 
Q 1956 3394 2288 3394 
Q 2866 3394 3269 2941 
Q 3672 2488 3672 1678 
Q 3672 847 3265 386 
Q 2859 -75 2281 -75 
Q 2006 -75 1782 34 
Q 1559 144 1313 409 
L 1313 -1263 
L 434 -1263 
L 434 3319 
z
M 1303 1716 
Q 1303 1156 1525 889 
Q 1747 622 2066 622 
Q 2372 622 2575 867 
Q 2778 1113 2778 1672 
Q 2778 2194 2568 2447 
Q 2359 2700 2050 2700 
Q 1728 2700 1515 2451 
Q 1303 2203 1303 1716 
z
" transform="scale(0.015625)"/>
      <path id="Arial-BoldMT-6e" d="M 3478 0 
L 2600 0 
L 2600 1694 
Q 2600 2231 2544 2389 
Q 2488 2547 2361 2634 
Q 2234 2722 2056 2722 
Q 1828 2722 1647 2597 
Q 1466 2472 1398 2265 
Q 1331 2059 1331 1503 
L 1331 0 
L 453 0 
L 453 3319 
L 1269 3319 
L 1269 2831 
Q 1703 3394 2363 3394 
Q 2653 3394 2893 3289 
Q 3134 3184 3257 3021 
Q 3381 2859 3429 2653 
Q 3478 2447 3478 2063 
L 3478 0 
z
" transform="scale(0.015625)"/>
      <path id="Arial-BoldMT-67" d="M 378 -219 
L 1381 -341 
Q 1406 -516 1497 -581 
Q 1622 -675 1891 -675 
Q 2234 -675 2406 -572 
Q 2522 -503 2581 -350 
Q 2622 -241 2622 53 
L 2622 538 
Q 2228 0 1628 0 
Q 959 0 569 566 
Q 263 1013 263 1678 
Q 263 2513 664 2953 
Q 1066 3394 1663 3394 
Q 2278 3394 2678 2853 
L 2678 3319 
L 3500 3319 
L 3500 341 
Q 3500 -247 3403 -537 
Q 3306 -828 3131 -993 
Q 2956 -1159 2664 -1253 
Q 2372 -1347 1925 -1347 
Q 1081 -1347 728 -1058 
Q 375 -769 375 -325 
Q 375 -281 378 -219 
z
M 1163 1728 
Q 1163 1200 1367 954 
Q 1572 709 1872 709 
Q 2194 709 2416 961 
Q 2638 1213 2638 1706 
Q 2638 2222 2425 2472 
Q 2213 2722 1888 2722 
Q 1572 2722 1367 2476 
Q 1163 2231 1163 1728 
z
" transform="scale(0.015625)"/>
      <path id="Arial-BoldMT-43" d="M 3397 1684 
L 4294 1400 
Q 4088 650 3608 286 
Q 3128 -78 2391 -78 
Q 1478 -78 890 545 
Q 303 1169 303 2250 
Q 303 3394 893 4026 
Q 1484 4659 2447 4659 
Q 3288 4659 3813 4163 
Q 4125 3869 4281 3319 
L 3366 3100 
Q 3284 3456 3026 3662 
Q 2769 3869 2400 3869 
Q 1891 3869 1573 3503 
Q 1256 3138 1256 2319 
Q 1256 1450 1568 1081 
Q 1881 713 2381 713 
Q 2750 713 3015 947 
Q 3281 1181 3397 1684 
z
" transform="scale(0.015625)"/>
      <path id="Arial-BoldMT-68" d="M 1334 4581 
L 1334 2897 
Q 1759 3394 2350 3394 
Q 2653 3394 2897 3281 
Q 3141 3169 3264 2994 
Q 3388 2819 3433 2606 
Q 3478 2394 3478 1947 
L 3478 0 
L 2600 0 
L 2600 1753 
Q 2600 2275 2550 2415 
Q 2500 2556 2373 2639 
Q 2247 2722 2056 2722 
Q 1838 2722 1666 2615 
Q 1494 2509 1414 2295 
Q 1334 2081 1334 1663 
L 1334 0 
L 456 0 
L 456 4581 
L 1334 4581 
z
" transform="scale(0.015625)"/>
     </defs>
     <use xlink:href="#Arial-BoldMT-4d"/>
     <use xlink:href="#Arial-BoldMT-6f" transform="translate(83.300781 0)"/>
     <use xlink:href="#Arial-BoldMT-64" transform="translate(144.384766 0)"/>
     <use xlink:href="#Arial-BoldMT-65" transform="translate(205.46875 0)"/>
     <use xlink:href="#Arial-BoldMT-6c" transform="translate(261.083984 0)"/>
     <use xlink:href="#Arial-BoldMT-20" transform="translate(288.867188 0)"/>
     <use xlink:href="#Arial-BoldMT-31" transform="translate(316.650391 0)"/>
     <use xlink:href="#Arial-BoldMT-3a" transform="translate(372.265625 0)"/>
     <use xlink:href="#Arial-BoldMT-20" transform="translate(405.566406 0)"/>
     <use xlink:href="#Arial-BoldMT-52" transform="translate(433.349609 0)"/>
     <use xlink:href="#Arial-BoldMT-65" transform="translate(505.566406 0)"/>
     <use xlink:href="#Arial-BoldMT-63" transform="translate(561.181641 0)"/>
     <use xlink:href="#Arial-BoldMT-65" transform="translate(616.796875 0)"/>
     <use xlink:href="#Arial-BoldMT-69" transform="translate(672.412109 0)"/>
     <use xlink:href="#Arial-BoldMT-76" transform="translate(700.195312 0)"/>
     <use xlink:href="#Arial-BoldMT-65" transform="translate(755.810547 0)"/>
     <use xlink:href="#Arial-BoldMT-72" transform="translate(811.425781 0)"/>
     <use xlink:href="#Arial-BoldMT-20" transform="translate(850.341797 0)"/>
     <use xlink:href="#Arial-BoldMT-4f" transform="translate(878.125 0)"/>
     <use xlink:href="#Arial-BoldMT-70" transform="translate(955.908203 0)"/>
     <use xlink:href="#Arial-BoldMT-65" transform="translate(1016.992188 0)"/>
     <use xlink:href="#Arial-BoldMT-72" transform="translate(1072.607422 0)"/>
     <use xlink:href="#Arial-BoldMT-61" transform="translate(1111.523438 0)"/>
     <use xlink:href="#Arial-BoldMT-74" transform="translate(1167.138672 0)"/>
     <use xlink:href="#Arial-BoldMT-69" transform="translate(1200.439453 0)"/>
     <use xlink:href="#Arial-BoldMT-6e" transform="translate(1228.222656 0)"/>
     <use xlink:href="#Arial-BoldMT-67" transform="translate(1289.306641 0)"/>
     <use xlink:href="#Arial-BoldMT-20" transform="translate(1350.390625 0)"/>
     <use xlink:href="#Arial-BoldMT-43" transform="translate(1378.173828 0)"/>
     <use xlink:href="#Arial-BoldMT-68" transform="translate(1450.390625 0)"/>
     <use xlink:href="#Arial-BoldMT-61" transform="translate(1511.474609 0)"/>
     <use xlink:href="#Arial-BoldMT-72" transform="translate(1567.089844 0)"/>
     <use xlink:href="#Arial-BoldMT-61" transform="translate(1606.005859 0)"/>
     <use xlink:href="#Arial-BoldMT-63" transform="translate(1661.621094 0)"/>
     <use xlink:href="#Arial-BoldMT-74" transform="translate(1717.236328 0)"/>
     <use xlink:href="#Arial-BoldMT-65" transform="translate(1750.537109 0)"/>
     <use xlink:href="#Arial-BoldMT-72" transform="translate(1806.152344 0)"/>
     <use xlink:href="#Arial-BoldMT-69" transform="translate(1845.068359 0)"/>
     <use xlink:href="#Arial-BoldMT-73" transform="translate(1872.851562 0)"/>
     <use xlink:href="#Arial-BoldMT-74" transform="translate(1928.466797 0)"/>
     <use xlink:href="#Arial-BoldMT-69" transform="translate(1961.767578 0)"/>
     <use xlink:href="#Arial-BoldMT-63" transform="translate(1989.550781 0)"/>
     <use xlink:href="#Arial-BoldMT-20" transform="translate(2045.166016 0)"/>
     <use xlink:href="#Arial-BoldMT-28" transform="translate(2072.949219 0)"/>
     <use xlink:href="#Arial-BoldMT-52" transform="translate(2106.25 0)"/>
     <use xlink:href="#Arial-BoldMT-4f" transform="translate(2178.466797 0)"/>
     <use xlink:href="#Arial-BoldMT-43" transform="translate(2256.25 0)"/>
     <use xlink:href="#Arial-BoldMT-29" transform="translate(2328.466797 0)"/>
     <use xlink:href="#Arial-BoldMT-20" transform="translate(2361.767578 0)"/>
     <use xlink:href="#Arial-BoldMT-43" transform="translate(2389.550781 0)"/>
     <use xlink:href="#Arial-BoldMT-75" transform="translate(2461.767578 0)"/>
     <use xlink:href="#Arial-BoldMT-72" transform="translate(2522.851562 0)"/>
     <use xlink:href="#Arial-BoldMT-76" transform="translate(2561.767578 0)"/>
     <use xlink:href="#Arial-BoldMT-65" transform="translate(2617.382812 0)"/>
    </g>
   </g>
   <g id="legend_1">
    <g id="patch_7">
     <path d="M 182.577645 260.522801 
L 282.89952 260.522801 
Q 284.69952 260.522801 284.69952 258.722801 
L 284.69952 234.161239 
Q 284.69952 232.361239 282.89952 232.361239 
L 182.577645 232.361239 
Q 180.777645 232.361239 180.777645 234.161239 
L 180.777645 258.722801 
Q 180.777645 260.522801 182.577645 260.522801 
z
" style="fill: #ffffff; opacity: 0.8; stroke: #cccccc; stroke-width: 0.75; stroke-linejoin: miter"/>
    </g>
    <g id="line2d_27">
     <path d="M 184.377645 239.25327 
L 193.377645 239.25327 
L 202.377645 239.25327 
" style="fill: none; stroke: #1f77b4; stroke-width: 1.5; stroke-linecap: round"/>
    </g>
    <g id="text_16">
     <!-- ROC curve -->
     <g style="fill: #333333" transform="translate(209.577645 242.40327) scale(0.09 -0.09)">
      <defs>
       <path id="ArialMT-52" d="M 503 0 
L 503 4581 
L 2534 4581 
Q 3147 4581 3465 4457 
Q 3784 4334 3975 4021 
Q 4166 3709 4166 3331 
Q 4166 2844 3850 2509 
Q 3534 2175 2875 2084 
Q 3116 1969 3241 1856 
Q 3506 1613 3744 1247 
L 4541 0 
L 3778 0 
L 3172 953 
Q 2906 1366 2734 1584 
Q 2563 1803 2427 1890 
Q 2291 1978 2150 2013 
Q 2047 2034 1813 2034 
L 1109 2034 
L 1109 0 
L 503 0 
z
M 1109 2559 
L 2413 2559 
Q 2828 2559 3062 2645 
Q 3297 2731 3419 2920 
Q 3541 3109 3541 3331 
Q 3541 3656 3305 3865 
Q 3069 4075 2559 4075 
L 1109 4075 
L 1109 2559 
z
" transform="scale(0.015625)"/>
       <path id="ArialMT-4f" d="M 309 2231 
Q 309 3372 921 4017 
Q 1534 4663 2503 4663 
Q 3138 4663 3647 4359 
Q 4156 4056 4423 3514 
Q 4691 2972 4691 2284 
Q 4691 1588 4409 1038 
Q 4128 488 3612 205 
Q 3097 -78 2500 -78 
Q 1853 -78 1343 234 
Q 834 547 571 1087 
Q 309 1628 309 2231 
z
M 934 2222 
Q 934 1394 1379 917 
Q 1825 441 2497 441 
Q 3181 441 3623 922 
Q 4066 1403 4066 2288 
Q 4066 2847 3877 3264 
Q 3688 3681 3323 3911 
Q 2959 4141 2506 4141 
Q 1863 4141 1398 3698 
Q 934 3256 934 2222 
z
" transform="scale(0.015625)"/>
       <path id="ArialMT-43" d="M 3763 1606 
L 4369 1453 
Q 4178 706 3683 314 
Q 3188 -78 2472 -78 
Q 1731 -78 1267 223 
Q 803 525 561 1097 
Q 319 1669 319 2325 
Q 319 3041 592 3573 
Q 866 4106 1370 4382 
Q 1875 4659 2481 4659 
Q 3169 4659 3637 4309 
Q 4106 3959 4291 3325 
L 3694 3184 
Q 3534 3684 3231 3912 
Q 2928 4141 2469 4141 
Q 1941 4141 1586 3887 
Q 1231 3634 1087 3207 
Q 944 2781 944 2328 
Q 944 1744 1114 1308 
Q 1284 872 1643 656 
Q 2003 441 2422 441 
Q 2931 441 3284 734 
Q 3638 1028 3763 1606 
z
" transform="scale(0.015625)"/>
       <path id="ArialMT-20" transform="scale(0.015625)"/>
       <path id="ArialMT-63" d="M 2588 1216 
L 3141 1144 
Q 3050 572 2676 248 
Q 2303 -75 1759 -75 
Q 1078 -75 664 370 
Q 250 816 250 1647 
Q 250 2184 428 2587 
Q 606 2991 970 3192 
Q 1334 3394 1763 3394 
Q 2303 3394 2647 3120 
Q 2991 2847 3088 2344 
L 2541 2259 
Q 2463 2594 2264 2762 
Q 2066 2931 1784 2931 
Q 1359 2931 1093 2626 
Q 828 2322 828 1663 
Q 828 994 1084 691 
Q 1341 388 1753 388 
Q 2084 388 2306 591 
Q 2528 794 2588 1216 
z
" transform="scale(0.015625)"/>
       <path id="ArialMT-75" d="M 2597 0 
L 2597 488 
Q 2209 -75 1544 -75 
Q 1250 -75 995 37 
Q 741 150 617 320 
Q 494 491 444 738 
Q 409 903 409 1263 
L 409 3319 
L 972 3319 
L 972 1478 
Q 972 1038 1006 884 
Q 1059 663 1231 536 
Q 1403 409 1656 409 
Q 1909 409 2131 539 
Q 2353 669 2445 892 
Q 2538 1116 2538 1541 
L 2538 3319 
L 3100 3319 
L 3100 0 
L 2597 0 
z
" transform="scale(0.015625)"/>
       <path id="ArialMT-72" d="M 416 0 
L 416 3319 
L 922 3319 
L 922 2816 
Q 1116 3169 1280 3281 
Q 1444 3394 1641 3394 
Q 1925 3394 2219 3213 
L 2025 2691 
Q 1819 2813 1613 2813 
Q 1428 2813 1281 2702 
Q 1134 2591 1072 2394 
Q 978 2094 978 1738 
L 978 0 
L 416 0 
z
" transform="scale(0.015625)"/>
       <path id="ArialMT-76" d="M 1344 0 
L 81 3319 
L 675 3319 
L 1388 1331 
Q 1503 1009 1600 663 
Q 1675 925 1809 1294 
L 2547 3319 
L 3125 3319 
L 1869 0 
L 1344 0 
z
" transform="scale(0.015625)"/>
       <path id="ArialMT-65" d="M 2694 1069 
L 3275 997 
Q 3138 488 2766 206 
Q 2394 -75 1816 -75 
Q 1088 -75 661 373 
Q 234 822 234 1631 
Q 234 2469 665 2931 
Q 1097 3394 1784 3394 
Q 2450 3394 2872 2941 
Q 3294 2488 3294 1666 
Q 3294 1616 3291 1516 
L 816 1516 
Q 847 969 1125 678 
Q 1403 388 1819 388 
Q 2128 388 2347 550 
Q 2566 713 2694 1069 
z
M 847 1978 
L 2700 1978 
Q 2663 2397 2488 2606 
Q 2219 2931 1791 2931 
Q 1403 2931 1139 2672 
Q 875 2413 847 1978 
z
" transform="scale(0.015625)"/>
      </defs>
      <use xlink:href="#ArialMT-52"/>
      <use xlink:href="#ArialMT-4f" transform="translate(72.216797 0)"/>
      <use xlink:href="#ArialMT-43" transform="translate(150 0)"/>
      <use xlink:href="#ArialMT-20" transform="translate(222.216797 0)"/>
      <use xlink:href="#ArialMT-63" transform="translate(250 0)"/>
      <use xlink:href="#ArialMT-75" transform="translate(300 0)"/>
      <use xlink:href="#ArialMT-72" transform="translate(355.615234 0)"/>
      <use xlink:href="#ArialMT-76" transform="translate(388.916016 0)"/>
      <use xlink:href="#ArialMT-65" transform="translate(438.916016 0)"/>
     </g>
    </g>
    <g id="line2d_28">
     <path d="M 184.377645 251.984051 
L 193.377645 251.984051 
L 202.377645 251.984051 
" style="fill: none; stroke-dasharray: 5.55,2.4; stroke-dashoffset: 0; stroke: #999999; stroke-width: 1.5"/>
    </g>
    <g id="text_17">
     <!-- Random classifier -->
     <g style="fill: #333333" transform="translate(209.577645 255.134051) scale(0.09 -0.09)">
      <defs>
       <path id="ArialMT-61" d="M 2588 409 
Q 2275 144 1986 34 
Q 1697 -75 1366 -75 
Q 819 -75 525 192 
Q 231 459 231 875 
Q 231 1119 342 1320 
Q 453 1522 633 1644 
Q 813 1766 1038 1828 
Q 1203 1872 1538 1913 
Q 2219 1994 2541 2106 
Q 2544 2222 2544 2253 
Q 2544 2597 2384 2738 
Q 2169 2928 1744 2928 
Q 1347 2928 1158 2789 
Q 969 2650 878 2297 
L 328 2372 
Q 403 2725 575 2942 
Q 747 3159 1072 3276 
Q 1397 3394 1825 3394 
Q 2250 3394 2515 3294 
Q 2781 3194 2906 3042 
Q 3031 2891 3081 2659 
Q 3109 2516 3109 2141 
L 3109 1391 
Q 3109 606 3145 398 
Q 3181 191 3288 0 
L 2700 0 
Q 2613 175 2588 409 
z
M 2541 1666 
Q 2234 1541 1622 1453 
Q 1275 1403 1131 1340 
Q 988 1278 909 1158 
Q 831 1038 831 891 
Q 831 666 1001 516 
Q 1172 366 1500 366 
Q 1825 366 2078 508 
Q 2331 650 2450 897 
Q 2541 1088 2541 1459 
L 2541 1666 
z
" transform="scale(0.015625)"/>
       <path id="ArialMT-6e" d="M 422 0 
L 422 3319 
L 928 3319 
L 928 2847 
Q 1294 3394 1984 3394 
Q 2284 3394 2536 3286 
Q 2788 3178 2913 3003 
Q 3038 2828 3088 2588 
Q 3119 2431 3119 2041 
L 3119 0 
L 2556 0 
L 2556 2019 
Q 2556 2363 2490 2533 
Q 2425 2703 2258 2804 
Q 2091 2906 1866 2906 
Q 1506 2906 1245 2678 
Q 984 2450 984 1813 
L 984 0 
L 422 0 
z
" transform="scale(0.015625)"/>
       <path id="ArialMT-64" d="M 2575 0 
L 2575 419 
Q 2259 -75 1647 -75 
Q 1250 -75 917 144 
Q 584 363 401 755 
Q 219 1147 219 1656 
Q 219 2153 384 2558 
Q 550 2963 881 3178 
Q 1213 3394 1622 3394 
Q 1922 3394 2156 3267 
Q 2391 3141 2538 2938 
L 2538 4581 
L 3097 4581 
L 3097 0 
L 2575 0 
z
M 797 1656 
Q 797 1019 1065 703 
Q 1334 388 1700 388 
Q 2069 388 2326 689 
Q 2584 991 2584 1609 
Q 2584 2291 2321 2609 
Q 2059 2928 1675 2928 
Q 1300 2928 1048 2622 
Q 797 2316 797 1656 
z
" transform="scale(0.015625)"/>
       <path id="ArialMT-6f" d="M 213 1659 
Q 213 2581 725 3025 
Q 1153 3394 1769 3394 
Q 2453 3394 2887 2945 
Q 3322 2497 3322 1706 
Q 3322 1066 3130 698 
Q 2938 331 2570 128 
Q 2203 -75 1769 -75 
Q 1072 -75 642 372 
Q 213 819 213 1659 
z
M 791 1659 
Q 791 1022 1069 705 
Q 1347 388 1769 388 
Q 2188 388 2466 706 
Q 2744 1025 2744 1678 
Q 2744 2294 2464 2611 
Q 2184 2928 1769 2928 
Q 1347 2928 1069 2612 
Q 791 2297 791 1659 
z
" transform="scale(0.015625)"/>
       <path id="ArialMT-6d" d="M 422 0 
L 422 3319 
L 925 3319 
L 925 2853 
Q 1081 3097 1340 3245 
Q 1600 3394 1931 3394 
Q 2300 3394 2536 3241 
Q 2772 3088 2869 2813 
Q 3263 3394 3894 3394 
Q 4388 3394 4653 3120 
Q 4919 2847 4919 2278 
L 4919 0 
L 4359 0 
L 4359 2091 
Q 4359 2428 4304 2576 
Q 4250 2725 4106 2815 
Q 3963 2906 3769 2906 
Q 3419 2906 3187 2673 
Q 2956 2441 2956 1928 
L 2956 0 
L 2394 0 
L 2394 2156 
Q 2394 2531 2256 2718 
Q 2119 2906 1806 2906 
Q 1569 2906 1367 2781 
Q 1166 2656 1075 2415 
Q 984 2175 984 1722 
L 984 0 
L 422 0 
z
" transform="scale(0.015625)"/>
       <path id="ArialMT-6c" d="M 409 0 
L 409 4581 
L 972 4581 
L 972 0 
L 409 0 
z
" transform="scale(0.015625)"/>
       <path id="ArialMT-73" d="M 197 991 
L 753 1078 
Q 800 744 1014 566 
Q 1228 388 1613 388 
Q 2000 388 2187 545 
Q 2375 703 2375 916 
Q 2375 1106 2209 1216 
Q 2094 1291 1634 1406 
Q 1016 1563 777 1677 
Q 538 1791 414 1992 
Q 291 2194 291 2438 
Q 291 2659 392 2848 
Q 494 3038 669 3163 
Q 800 3259 1026 3326 
Q 1253 3394 1513 3394 
Q 1903 3394 2198 3281 
Q 2494 3169 2634 2976 
Q 2775 2784 2828 2463 
L 2278 2388 
Q 2241 2644 2061 2787 
Q 1881 2931 1553 2931 
Q 1166 2931 1000 2803 
Q 834 2675 834 2503 
Q 834 2394 903 2306 
Q 972 2216 1119 2156 
Q 1203 2125 1616 2013 
Q 2213 1853 2448 1751 
Q 2684 1650 2818 1456 
Q 2953 1263 2953 975 
Q 2953 694 2789 445 
Q 2625 197 2315 61 
Q 2006 -75 1616 -75 
Q 969 -75 630 194 
Q 291 463 197 991 
z
" transform="scale(0.015625)"/>
       <path id="ArialMT-69" d="M 425 3934 
L 425 4581 
L 988 4581 
L 988 3934 
L 425 3934 
z
M 425 0 
L 425 3319 
L 988 3319 
L 988 0 
L 425 0 
z
" transform="scale(0.015625)"/>
       <path id="ArialMT-66" d="M 556 0 
L 556 2881 
L 59 2881 
L 59 3319 
L 556 3319 
L 556 3672 
Q 556 4006 616 4169 
Q 697 4388 901 4523 
Q 1106 4659 1475 4659 
Q 1713 4659 2000 4603 
L 1916 4113 
Q 1741 4144 1584 4144 
Q 1328 4144 1222 4034 
Q 1116 3925 1116 3625 
L 1116 3319 
L 1763 3319 
L 1763 2881 
L 1116 2881 
L 1116 0 
L 556 0 
z
" transform="scale(0.015625)"/>
      </defs>
      <use xlink:href="#ArialMT-52"/>
      <use xlink:href="#ArialMT-61" transform="translate(72.216797 0)"/>
      <use xlink:href="#ArialMT-6e" transform="translate(127.832031 0)"/>
      <use xlink:href="#ArialMT-64" transform="translate(183.447266 0)"/>
      <use xlink:href="#ArialMT-6f" transform="translate(239.0625 0)"/>
      <use xlink:href="#ArialMT-6d" transform="translate(294.677734 0)"/>
      <use xlink:href="#ArialMT-20" transform="translate(377.978516 0)"/>
      <use xlink:href="#ArialMT-63" transform="translate(405.761719 0)"/>
      <use xlink:href="#ArialMT-6c" transform="translate(455.761719 0)"/>
      <use xlink:href="#ArialMT-61" transform="translate(477.978516 0)"/>
      <use xlink:href="#ArialMT-73" transform="translate(533.59375 0)"/>
      <use xlink:href="#ArialMT-73" transform="translate(583.59375 0)"/>
      <use xlink:href="#ArialMT-69" transform="translate(633.59375 0)"/>
      <use xlink:href="#ArialMT-66" transform="translate(655.810547 0)"/>
      <use xlink:href="#ArialMT-69" transform="translate(683.59375 0)"/>
      <use xlink:href="#ArialMT-65" transform="translate(705.810547 0)"/>
      <use xlink:href="#ArialMT-72" transform="translate(761.425781 0)"/>
     </g>
    </g>
   </g>
  </g>
 </g>
 <defs>
  <clipPath id="pcffacc2e9f">
   <rect x="35.655938" y="19.751719" width="253.543583" height="245.271083"/>
  </clipPath>
 </defs>
</svg>
