<?xml version="1.0" encoding="utf-8" standalone="no"?>
<!DOCTYPE svg PUBLIC "-//W3C//DTD SVG 1.1//EN"
  "http://www.w3.org/Graphics/SVG/1.1/DTD/svg11.dtd">
<svg xmlns:xlink="http://www.w3.org/1999/xlink" width="296.39952pt" height="296.39952pt" viewBox="0 0 296.39952 296.39952" xmlns="http://www.w3.org/2000/svg" version="1.1">
 <metadata>
  <rdf:RDF xmlns:dc="http://purl.org/dc/elements/1.1/" xmlns:cc="http://creativecommons.org/ns#" xmlns:rdf="http://www.w3.org/1999/02/22-rdf-syntax-ns#">
   <cc:Work>
    <dc:type rdf:resource="http://purl.org/dc/dcmitype/StillImage"/>
    <dc:date>2025-12-27T19:10:55.054468</dc:date>
    <dc:format>image/svg+xml</dc:format>
    <dc:creator>
     <cc:Agent>
      <dc:title>Matplotlib v3.10.8, https://matplotlib.org/</dc:title>
     </cc:Agent>
    </dc:creator>
   </cc:Work>
  </rdf:RDF>
 </metadata>
 <defs>
  <style type="text/css">*{stroke-linejoin: round; stroke-linecap: butt}</style>
 </defs>
 <g id="figure_1">
  <g id="patch_1">
   <path d="M 0 296.39952 
L 296.39952 296.39952 
L 296.39952 0 
L 0 0 
z
" style="fill: #ffffff"/>
  </g>
  <g id="axes_1">
   <g id="patch_2">
    <path d="M 35.655938 265.022801 
L 289.19952 265.022801 
L 289.19952 19.642031 
L 35.655938 19.642031 
z
" style="fill: #ffffff"/>
   </g>
   <g id="matplotlib.axis_1">
    <g id="xtick_1">
     <g id="line2d_1">
      <path d="M 42.831699 265.022801 
L 42.831699 19.642031 
" clip-path="url(#pa1866e4afb)" style="fill: none; stroke: #c0c0c0; stroke-width: 0.25; stroke-linecap: round"/>
     </g>
     <g id="line2d_2"/>
     <g id="text_1">
      <!-- 0.0 -->
      <g style="fill: #333333" transform="translate(36.576699 274.964832) scale(0.09 -0.09)">
       <defs>
        <path id="ArialMT-30" d="M 266 2259 
Q 266 3072 433 3567 
Q 600 4063 929 4331 
Q 1259 4600 1759 4600 
Q 2128 4600 2406 4451 
Q 2684 4303 2865 4023 
Q 3047 3744 3150 3342 
Q 3253 2941 3253 2259 
Q 3253 1453 3087 958 
Q 2922 463 2592 192 
Q 2263 -78 1759 -78 
Q 1097 -78 719 397 
Q 266 969 266 2259 
z
M 844 2259 
Q 844 1131 1108 757 
Q 1372 384 1759 384 
Q 2147 384 2411 759 
Q 2675 1134 2675 2259 
Q 2675 3391 2411 3762 
Q 2147 4134 1753 4134 
Q 1366 4134 1134 3806 
Q 844 3388 844 2259 
z
" transform="scale(0.015625)"/>
        <path id="ArialMT-2e" d="M 581 0 
L 581 641 
L 1222 641 
L 1222 0 
L 581 0 
z
" transform="scale(0.015625)"/>
       </defs>
       <use xlink:href="#ArialMT-30"/>
       <use xlink:href="#ArialMT-2e" transform="translate(55.615234 0)"/>
       <use xlink:href="#ArialMT-30" transform="translate(83.398438 0)"/>
      </g>
     </g>
    </g>
    <g id="xtick_2">
     <g id="line2d_3">
      <path d="M 90.670111 265.022801 
L 90.670111 19.642031 
" clip-path="url(#pa1866e4afb)" style="fill: none; stroke: #c0c0c0; stroke-width: 0.25; stroke-linecap: round"/>
     </g>
     <g id="line2d_4"/>
     <g id="text_2">
      <!-- 0.2 -->
      <g style="fill: #333333" transform="translate(84.415111 274.964832) scale(0.09 -0.09)">
       <defs>
        <path id="ArialMT-32" d="M 3222 541 
L 3222 0 
L 194 0 
Q 188 203 259 391 
Q 375 700 629 1000 
Q 884 1300 1366 1694 
Q 2113 2306 2375 2664 
Q 2638 3022 2638 3341 
Q 2638 3675 2398 3904 
Q 2159 4134 1775 4134 
Q 1369 4134 1125 3890 
Q 881 3647 878 3216 
L 300 3275 
Q 359 3922 746 4261 
Q 1134 4600 1788 4600 
Q 2447 4600 2831 4234 
Q 3216 3869 3216 3328 
Q 3216 3053 3103 2787 
Q 2991 2522 2730 2228 
Q 2469 1934 1863 1422 
Q 1356 997 1212 845 
Q 1069 694 975 541 
L 3222 541 
z
" transform="scale(0.015625)"/>
       </defs>
       <use xlink:href="#ArialMT-30"/>
       <use xlink:href="#ArialMT-2e" transform="translate(55.615234 0)"/>
       <use xlink:href="#ArialMT-32" transform="translate(83.398438 0)"/>
      </g>
     </g>
    </g>
    <g id="xtick_3">
     <g id="line2d_5">
      <path d="M 138.508523 265.022801 
L 138.508523 19.642031 
" clip-path="url(#pa1866e4afb)" style="fill: none; stroke: #c0c0c0; stroke-width: 0.25; stroke-linecap: round"/>
     </g>
     <g id="line2d_6"/>
     <g id="text_3">
      <!-- 0.4 -->
      <g style="fill: #333333" transform="translate(132.253523 274.964832) scale(0.09 -0.09)">
       <defs>
        <path id="ArialMT-34" d="M 2069 0 
L 2069 1097 
L 81 1097 
L 81 1613 
L 2172 4581 
L 2631 4581 
L 2631 1613 
L 3250 1613 
L 3250 1097 
L 2631 1097 
L 2631 0 
L 2069 0 
z
M 2069 1613 
L 2069 3678 
L 634 1613 
L 2069 1613 
z
" transform="scale(0.015625)"/>
       </defs>
       <use xlink:href="#ArialMT-30"/>
       <use xlink:href="#ArialMT-2e" transform="translate(55.615234 0)"/>
       <use xlink:href="#ArialMT-34" transform="translate(83.398438 0)"/>
      </g>
     </g>
    </g>
    <g id="xtick_4">
     <g id="line2d_7">
      <path d="M 186.346935 265.022801 
L 186.346935 19.642031 
" clip-path="url(#pa1866e4afb)" style="fill: none; stroke: #c0c0c0; stroke-width: 0.25; stroke-linecap: round"/>
     </g>
     <g id="line2d_8"/>
     <g id="text_4">
      <!-- 0.6 -->
      <g style="fill: #333333" transform="translate(180.091935 274.964832) scale(0.09 -0.09)">
       <defs>
        <path id="ArialMT-36" d="M 3184 3459 
L 2625 3416 
Q 2550 3747 2413 3897 
Q 2184 4138 1850 4138 
Q 1581 4138 1378 3988 
Q 1113 3794 959 3422 
Q 806 3050 800 2363 
Q 1003 2672 1297 2822 
Q 1591 2972 1913 2972 
Q 2475 2972 2870 2558 
Q 3266 2144 3266 1488 
Q 3266 1056 3080 686 
Q 2894 316 2569 119 
Q 2244 -78 1831 -78 
Q 1128 -78 684 439 
Q 241 956 241 2144 
Q 241 3472 731 4075 
Q 1159 4600 1884 4600 
Q 2425 4600 2770 4297 
Q 3116 3994 3184 3459 
z
M 888 1484 
Q 888 1194 1011 928 
Q 1134 663 1356 523 
Q 1578 384 1822 384 
Q 2178 384 2434 671 
Q 2691 959 2691 1453 
Q 2691 1928 2437 2201 
Q 2184 2475 1800 2475 
Q 1419 2475 1153 2201 
Q 888 1928 888 1484 
z
" transform="scale(0.015625)"/>
       </defs>
       <use xlink:href="#ArialMT-30"/>
       <use xlink:href="#ArialMT-2e" transform="translate(55.615234 0)"/>
       <use xlink:href="#ArialMT-36" transform="translate(83.398438 0)"/>
      </g>
     </g>
    </g>
    <g id="xtick_5">
     <g id="line2d_9">
      <path d="M 234.185346 265.022801 
L 234.185346 19.642031 
" clip-path="url(#pa1866e4afb)" style="fill: none; stroke: #c0c0c0; stroke-width: 0.25; stroke-linecap: round"/>
     </g>
     <g id="line2d_10"/>
     <g id="text_5">
      <!-- 0.8 -->
      <g style="fill: #333333" transform="translate(227.930346 274.964832) scale(0.09 -0.09)">
       <defs>
        <path id="ArialMT-38" d="M 1131 2484 
Q 781 2613 612 2850 
Q 444 3088 444 3419 
Q 444 3919 803 4259 
Q 1163 4600 1759 4600 
Q 2359 4600 2725 4251 
Q 3091 3903 3091 3403 
Q 3091 3084 2923 2848 
Q 2756 2613 2416 2484 
Q 2838 2347 3058 2040 
Q 3278 1734 3278 1309 
Q 3278 722 2862 322 
Q 2447 -78 1769 -78 
Q 1091 -78 675 323 
Q 259 725 259 1325 
Q 259 1772 486 2073 
Q 713 2375 1131 2484 
z
M 1019 3438 
Q 1019 3113 1228 2906 
Q 1438 2700 1772 2700 
Q 2097 2700 2305 2904 
Q 2513 3109 2513 3406 
Q 2513 3716 2298 3927 
Q 2084 4138 1766 4138 
Q 1444 4138 1231 3931 
Q 1019 3725 1019 3438 
z
M 838 1322 
Q 838 1081 952 856 
Q 1066 631 1291 507 
Q 1516 384 1775 384 
Q 2178 384 2440 643 
Q 2703 903 2703 1303 
Q 2703 1709 2433 1975 
Q 2163 2241 1756 2241 
Q 1359 2241 1098 1978 
Q 838 1716 838 1322 
z
" transform="scale(0.015625)"/>
       </defs>
       <use xlink:href="#ArialMT-30"/>
       <use xlink:href="#ArialMT-2e" transform="translate(55.615234 0)"/>
       <use xlink:href="#ArialMT-38" transform="translate(83.398438 0)"/>
      </g>
     </g>
    </g>
    <g id="xtick_6">
     <g id="line2d_11">
      <path d="M 282.023758 265.022801 
L 282.023758 19.642031 
" clip-path="url(#pa1866e4afb)" style="fill: none; stroke: #c0c0c0; stroke-width: 0.25; stroke-linecap: round"/>
     </g>
     <g id="line2d_12"/>
     <g id="text_6">
      <!-- 1.0 -->
      <g style="fill: #333333" transform="translate(275.768758 274.964832) scale(0.09 -0.09)">
       <defs>
        <path id="ArialMT-31" d="M 2384 0 
L 1822 0 
L 1822 3584 
Q 1619 3391 1289 3197 
Q 959 3003 697 2906 
L 697 3450 
Q 1169 3672 1522 3987 
Q 1875 4303 2022 4600 
L 2384 4600 
L 2384 0 
z
" transform="scale(0.015625)"/>
       </defs>
       <use xlink:href="#ArialMT-31"/>
       <use xlink:href="#ArialMT-2e" transform="translate(55.615234 0)"/>
       <use xlink:href="#ArialMT-30" transform="translate(83.398438 0)"/>
      </g>
     </g>
    </g>
    <g id="text_7">
     <!-- Recall [TP / (TP + FN)] -->
     <g style="fill: #333333" transform="translate(115.706479 287.305301) scale(0.09 -0.09)">
      <defs>
       <path id="Arial-BoldMT-52" d="M 469 0 
L 469 4581 
L 2416 4581 
Q 3150 4581 3483 4457 
Q 3816 4334 4016 4018 
Q 4216 3703 4216 3297 
Q 4216 2781 3912 2445 
Q 3609 2109 3006 2022 
Q 3306 1847 3501 1637 
Q 3697 1428 4028 894 
L 4588 0 
L 3481 0 
L 2813 997 
Q 2456 1531 2325 1670 
Q 2194 1809 2047 1861 
Q 1900 1913 1581 1913 
L 1394 1913 
L 1394 0 
L 469 0 
z
M 1394 2644 
L 2078 2644 
Q 2744 2644 2909 2700 
Q 3075 2756 3169 2893 
Q 3263 3031 3263 3238 
Q 3263 3469 3139 3611 
Q 3016 3753 2791 3791 
Q 2678 3806 2116 3806 
L 1394 3806 
L 1394 2644 
z
" transform="scale(0.015625)"/>
       <path id="Arial-BoldMT-65" d="M 2381 1056 
L 3256 909 
Q 3088 428 2723 176 
Q 2359 -75 1813 -75 
Q 947 -75 531 491 
Q 203 944 203 1634 
Q 203 2459 634 2926 
Q 1066 3394 1725 3394 
Q 2466 3394 2894 2905 
Q 3322 2416 3303 1406 
L 1103 1406 
Q 1113 1016 1316 798 
Q 1519 581 1822 581 
Q 2028 581 2168 693 
Q 2309 806 2381 1056 
z
M 2431 1944 
Q 2422 2325 2234 2523 
Q 2047 2722 1778 2722 
Q 1491 2722 1303 2513 
Q 1116 2303 1119 1944 
L 2431 1944 
z
" transform="scale(0.015625)"/>
       <path id="Arial-BoldMT-63" d="M 3353 2338 
L 2488 2181 
Q 2444 2441 2289 2572 
Q 2134 2703 1888 2703 
Q 1559 2703 1364 2476 
Q 1169 2250 1169 1719 
Q 1169 1128 1367 884 
Q 1566 641 1900 641 
Q 2150 641 2309 783 
Q 2469 925 2534 1272 
L 3397 1125 
Q 3263 531 2881 228 
Q 2500 -75 1859 -75 
Q 1131 -75 698 384 
Q 266 844 266 1656 
Q 266 2478 700 2936 
Q 1134 3394 1875 3394 
Q 2481 3394 2839 3133 
Q 3197 2872 3353 2338 
z
" transform="scale(0.015625)"/>
       <path id="Arial-BoldMT-61" d="M 1116 2306 
L 319 2450 
Q 453 2931 781 3162 
Q 1109 3394 1756 3394 
Q 2344 3394 2631 3255 
Q 2919 3116 3036 2902 
Q 3153 2688 3153 2116 
L 3144 1091 
Q 3144 653 3186 445 
Q 3228 238 3344 0 
L 2475 0 
Q 2441 88 2391 259 
Q 2369 338 2359 363 
Q 2134 144 1878 34 
Q 1622 -75 1331 -75 
Q 819 -75 523 203 
Q 228 481 228 906 
Q 228 1188 362 1408 
Q 497 1628 739 1745 
Q 981 1863 1438 1950 
Q 2053 2066 2291 2166 
L 2291 2253 
Q 2291 2506 2166 2614 
Q 2041 2722 1694 2722 
Q 1459 2722 1328 2630 
Q 1197 2538 1116 2306 
z
M 2291 1594 
Q 2122 1538 1756 1459 
Q 1391 1381 1278 1306 
Q 1106 1184 1106 997 
Q 1106 813 1243 678 
Q 1381 544 1594 544 
Q 1831 544 2047 700 
Q 2206 819 2256 991 
Q 2291 1103 2291 1419 
L 2291 1594 
z
" transform="scale(0.015625)"/>
       <path id="Arial-BoldMT-6c" d="M 459 0 
L 459 4581 
L 1338 4581 
L 1338 0 
L 459 0 
z
" transform="scale(0.015625)"/>
       <path id="Arial-BoldMT-20" transform="scale(0.015625)"/>
       <path id="Arial-BoldMT-5b" d="M 456 -1291 
L 456 4581 
L 2013 4581 
L 2013 3891 
L 1291 3891 
L 1291 -600 
L 2013 -600 
L 2013 -1291 
L 456 -1291 
z
" transform="scale(0.015625)"/>
       <path id="Arial-BoldMT-54" d="M 1497 0 
L 1497 3806 
L 138 3806 
L 138 4581 
L 3778 4581 
L 3778 3806 
L 2422 3806 
L 2422 0 
L 1497 0 
z
" transform="scale(0.015625)"/>
       <path id="Arial-BoldMT-50" d="M 466 0 
L 466 4581 
L 1950 4581 
Q 2794 4581 3050 4513 
Q 3444 4409 3709 4064 
Q 3975 3719 3975 3172 
Q 3975 2750 3822 2462 
Q 3669 2175 3433 2011 
Q 3197 1847 2953 1794 
Q 2622 1728 1994 1728 
L 1391 1728 
L 1391 0 
L 466 0 
z
M 1391 3806 
L 1391 2506 
L 1897 2506 
Q 2444 2506 2628 2578 
Q 2813 2650 2917 2803 
Q 3022 2956 3022 3159 
Q 3022 3409 2875 3571 
Q 2728 3734 2503 3775 
Q 2338 3806 1838 3806 
L 1391 3806 
z
" transform="scale(0.015625)"/>
       <path id="Arial-BoldMT-2f" d="M -9 -78 
L 1125 4659 
L 1784 4659 
L 638 -78 
L -9 -78 
z
" transform="scale(0.015625)"/>
       <path id="Arial-BoldMT-28" d="M 1916 -1347 
L 1313 -1347 
Q 834 -625 584 153 
Q 334 931 334 1659 
Q 334 2563 644 3369 
Q 913 4069 1325 4659 
L 1925 4659 
Q 1497 3713 1336 3048 
Q 1175 2384 1175 1641 
Q 1175 1128 1270 590 
Q 1366 53 1531 -431 
Q 1641 -750 1916 -1347 
z
" transform="scale(0.015625)"/>
       <path id="Arial-BoldMT-2b" d="M 1466 659 
L 1466 1850 
L 266 1850 
L 266 2672 
L 1466 2672 
L 1466 3863 
L 2266 3863 
L 2266 2672 
L 3469 2672 
L 3469 1850 
L 2266 1850 
L 2266 659 
L 1466 659 
z
" transform="scale(0.015625)"/>
       <path id="Arial-BoldMT-46" d="M 472 0 
L 472 4581 
L 3613 4581 
L 3613 3806 
L 1397 3806 
L 1397 2722 
L 3309 2722 
L 3309 1947 
L 1397 1947 
L 1397 0 
L 472 0 
z
" transform="scale(0.015625)"/>
       <path id="Arial-BoldMT-4e" d="M 475 0 
L 475 4581 
L 1375 4581 
L 3250 1522 
L 3250 4581 
L 4109 4581 
L 4109 0 
L 3181 0 
L 1334 2988 
L 1334 0 
L 475 0 
z
" transform="scale(0.015625)"/>
       <path id="Arial-BoldMT-29" d="M 216 -1347 
Q 475 -791 581 -494 
Q 688 -197 778 190 
Q 869 578 912 926 
Q 956 1275 956 1641 
Q 956 2384 797 3048 
Q 638 3713 209 4659 
L 806 4659 
Q 1278 3988 1539 3234 
Q 1800 2481 1800 1706 
Q 1800 1053 1594 306 
Q 1359 -531 822 -1347 
L 216 -1347 
z
" transform="scale(0.015625)"/>
       <path id="Arial-BoldMT-5d" d="M 1675 4581 
L 1675 -1291 
L 119 -1291 
L 119 -600 
L 841 -600 
L 841 3897 
L 119 3897 
L 119 4581 
L 1675 4581 
z
" transform="scale(0.015625)"/>
      </defs>
      <use xlink:href="#Arial-BoldMT-52"/>
      <use xlink:href="#Arial-BoldMT-65" transform="translate(72.216797 0)"/>
      <use xlink:href="#Arial-BoldMT-63" transform="translate(127.832031 0)"/>
      <use xlink:href="#Arial-BoldMT-61" transform="translate(183.447266 0)"/>
      <use xlink:href="#Arial-BoldMT-6c" transform="translate(239.0625 0)"/>
      <use xlink:href="#Arial-BoldMT-6c" transform="translate(266.845703 0)"/>
      <use xlink:href="#Arial-BoldMT-20" transform="translate(294.628906 0)"/>
      <use xlink:href="#Arial-BoldMT-5b" transform="translate(322.412109 0)"/>
      <use xlink:href="#Arial-BoldMT-54" transform="translate(355.712891 0)"/>
      <use xlink:href="#Arial-BoldMT-50" transform="translate(416.796875 0)"/>
      <use xlink:href="#Arial-BoldMT-20" transform="translate(481.746094 0)"/>
      <use xlink:href="#Arial-BoldMT-2f" transform="translate(509.529297 0)"/>
      <use xlink:href="#Arial-BoldMT-20" transform="translate(537.3125 0)"/>
      <use xlink:href="#Arial-BoldMT-28" transform="translate(565.095703 0)"/>
      <use xlink:href="#Arial-BoldMT-54" transform="translate(598.396484 0)"/>
      <use xlink:href="#Arial-BoldMT-50" transform="translate(659.480469 0)"/>
      <use xlink:href="#Arial-BoldMT-20" transform="translate(724.429688 0)"/>
      <use xlink:href="#Arial-BoldMT-2b" transform="translate(752.212891 0)"/>
      <use xlink:href="#Arial-BoldMT-20" transform="translate(810.611328 0)"/>
      <use xlink:href="#Arial-BoldMT-46" transform="translate(838.394531 0)"/>
      <use xlink:href="#Arial-BoldMT-4e" transform="translate(899.478516 0)"/>
      <use xlink:href="#Arial-BoldMT-29" transform="translate(971.695312 0)"/>
      <use xlink:href="#Arial-BoldMT-5d" transform="translate(1004.996094 0)"/>
     </g>
    </g>
   </g>
   <g id="matplotlib.axis_2">
    <g id="ytick_1">
     <g id="line2d_13">
      <path d="M 35.655938 265.022801 
L 289.19952 265.022801 
" clip-path="url(#pa1866e4afb)" style="fill: none; stroke: #c0c0c0; stroke-width: 0.25; stroke-linecap: round"/>
     </g>
     <g id="line2d_14"/>
     <g id="text_8">
      <!-- 0.0 -->
      <g style="fill: #333333" transform="translate(19.645938 268.243817) scale(0.09 -0.09)">
       <use xlink:href="#ArialMT-30"/>
       <use xlink:href="#ArialMT-2e" transform="translate(55.615234 0)"/>
       <use xlink:href="#ArialMT-30" transform="translate(83.398438 0)"/>
      </g>
     </g>
    </g>
    <g id="ytick_2">
     <g id="line2d_15">
      <path d="M 35.655938 217.37605 
L 289.19952 217.37605 
" clip-path="url(#pa1866e4afb)" style="fill: none; stroke: #c0c0c0; stroke-width: 0.25; stroke-linecap: round"/>
     </g>
     <g id="line2d_16"/>
     <g id="text_9">
      <!-- 0.2 -->
      <g style="fill: #333333" transform="translate(19.645938 220.597065) scale(0.09 -0.09)">
       <use xlink:href="#ArialMT-30"/>
       <use xlink:href="#ArialMT-2e" transform="translate(55.615234 0)"/>
       <use xlink:href="#ArialMT-32" transform="translate(83.398438 0)"/>
      </g>
     </g>
    </g>
    <g id="ytick_3">
     <g id="line2d_17">
      <path d="M 35.655938 169.729298 
L 289.19952 169.729298 
" clip-path="url(#pa1866e4afb)" style="fill: none; stroke: #c0c0c0; stroke-width: 0.25; stroke-linecap: round"/>
     </g>
     <g id="line2d_18"/>
     <g id="text_10">
      <!-- 0.4 -->
      <g style="fill: #333333" transform="translate(19.645938 172.950314) scale(0.09 -0.09)">
       <use xlink:href="#ArialMT-30"/>
       <use xlink:href="#ArialMT-2e" transform="translate(55.615234 0)"/>
       <use xlink:href="#ArialMT-34" transform="translate(83.398438 0)"/>
      </g>
     </g>
    </g>
    <g id="ytick_4">
     <g id="line2d_19">
      <path d="M 35.655938 122.082547 
L 289.19952 122.082547 
" clip-path="url(#pa1866e4afb)" style="fill: none; stroke: #c0c0c0; stroke-width: 0.25; stroke-linecap: round"/>
     </g>
     <g id="line2d_20"/>
     <g id="text_11">
      <!-- 0.6 -->
      <g style="fill: #333333" transform="translate(19.645938 125.303563) scale(0.09 -0.09)">
       <use xlink:href="#ArialMT-30"/>
       <use xlink:href="#ArialMT-2e" transform="translate(55.615234 0)"/>
       <use xlink:href="#ArialMT-36" transform="translate(83.398438 0)"/>
      </g>
     </g>
    </g>
    <g id="ytick_5">
     <g id="line2d_21">
      <path d="M 35.655938 74.435795 
L 289.19952 74.435795 
" clip-path="url(#pa1866e4afb)" style="fill: none; stroke: #c0c0c0; stroke-width: 0.25; stroke-linecap: round"/>
     </g>
     <g id="line2d_22"/>
     <g id="text_12">
      <!-- 0.8 -->
      <g style="fill: #333333" transform="translate(19.645938 77.656811) scale(0.09 -0.09)">
       <use xlink:href="#ArialMT-30"/>
       <use xlink:href="#ArialMT-2e" transform="translate(55.615234 0)"/>
       <use xlink:href="#ArialMT-38" transform="translate(83.398438 0)"/>
      </g>
     </g>
    </g>
    <g id="ytick_6">
     <g id="line2d_23">
      <path d="M 35.655938 26.789044 
L 289.19952 26.789044 
" clip-path="url(#pa1866e4afb)" style="fill: none; stroke: #c0c0c0; stroke-width: 0.25; stroke-linecap: round"/>
     </g>
     <g id="line2d_24"/>
     <g id="text_13">
      <!-- 1.0 -->
      <g style="fill: #333333" transform="translate(19.645938 30.01006) scale(0.09 -0.09)">
       <use xlink:href="#ArialMT-31"/>
       <use xlink:href="#ArialMT-2e" transform="translate(55.615234 0)"/>
       <use xlink:href="#ArialMT-30" transform="translate(83.398438 0)"/>
      </g>
     </g>
    </g>
    <g id="text_14">
     <!-- Precision [TP / (TP + FP)] -->
     <g style="fill: #333333" transform="translate(13.751719 195.805776) rotate(-90) scale(0.09 -0.09)">
      <defs>
       <path id="Arial-BoldMT-72" d="M 1300 0 
L 422 0 
L 422 3319 
L 1238 3319 
L 1238 2847 
Q 1447 3181 1614 3287 
Q 1781 3394 1994 3394 
Q 2294 3394 2572 3228 
L 2300 2463 
Q 2078 2606 1888 2606 
Q 1703 2606 1575 2504 
Q 1447 2403 1373 2137 
Q 1300 1872 1300 1025 
L 1300 0 
z
" transform="scale(0.015625)"/>
       <path id="Arial-BoldMT-69" d="M 459 3769 
L 459 4581 
L 1338 4581 
L 1338 3769 
L 459 3769 
z
M 459 0 
L 459 3319 
L 1338 3319 
L 1338 0 
L 459 0 
z
" transform="scale(0.015625)"/>
       <path id="Arial-BoldMT-73" d="M 150 947 
L 1031 1081 
Q 1088 825 1259 692 
Q 1431 559 1741 559 
Q 2081 559 2253 684 
Q 2369 772 2369 919 
Q 2369 1019 2306 1084 
Q 2241 1147 2013 1200 
Q 950 1434 666 1628 
Q 272 1897 272 2375 
Q 272 2806 612 3100 
Q 953 3394 1669 3394 
Q 2350 3394 2681 3172 
Q 3013 2950 3138 2516 
L 2309 2363 
Q 2256 2556 2107 2659 
Q 1959 2763 1684 2763 
Q 1338 2763 1188 2666 
Q 1088 2597 1088 2488 
Q 1088 2394 1175 2328 
Q 1294 2241 1995 2081 
Q 2697 1922 2975 1691 
Q 3250 1456 3250 1038 
Q 3250 581 2869 253 
Q 2488 -75 1741 -75 
Q 1063 -75 667 200 
Q 272 475 150 947 
z
" transform="scale(0.015625)"/>
       <path id="Arial-BoldMT-6f" d="M 256 1706 
Q 256 2144 472 2553 
Q 688 2963 1083 3178 
Q 1478 3394 1966 3394 
Q 2719 3394 3200 2905 
Q 3681 2416 3681 1669 
Q 3681 916 3195 420 
Q 2709 -75 1972 -75 
Q 1516 -75 1102 131 
Q 688 338 472 736 
Q 256 1134 256 1706 
z
M 1156 1659 
Q 1156 1166 1390 903 
Q 1625 641 1969 641 
Q 2313 641 2545 903 
Q 2778 1166 2778 1666 
Q 2778 2153 2545 2415 
Q 2313 2678 1969 2678 
Q 1625 2678 1390 2415 
Q 1156 2153 1156 1659 
z
" transform="scale(0.015625)"/>
       <path id="Arial-BoldMT-6e" d="M 3478 0 
L 2600 0 
L 2600 1694 
Q 2600 2231 2544 2389 
Q 2488 2547 2361 2634 
Q 2234 2722 2056 2722 
Q 1828 2722 1647 2597 
Q 1466 2472 1398 2265 
Q 1331 2059 1331 1503 
L 1331 0 
L 453 0 
L 453 3319 
L 1269 3319 
L 1269 2831 
Q 1703 3394 2363 3394 
Q 2653 3394 2893 3289 
Q 3134 3184 3257 3021 
Q 3381 2859 3429 2653 
Q 3478 2447 3478 2063 
L 3478 0 
z
" transform="scale(0.015625)"/>
      </defs>
      <use xlink:href="#Arial-BoldMT-50"/>
      <use xlink:href="#Arial-BoldMT-72" transform="translate(66.699219 0)"/>
      <use xlink:href="#Arial-BoldMT-65" transform="translate(105.615234 0)"/>
      <use xlink:href="#Arial-BoldMT-63" transform="translate(161.230469 0)"/>
      <use xlink:href="#Arial-BoldMT-69" transform="translate(216.845703 0)"/>
      <use xlink:href="#Arial-BoldMT-73" transform="translate(244.628906 0)"/>
      <use xlink:href="#Arial-BoldMT-69" transform="translate(300.244141 0)"/>
      <use xlink:href="#Arial-BoldMT-6f" transform="translate(328.027344 0)"/>
      <use xlink:href="#Arial-BoldMT-6e" transform="translate(389.111328 0)"/>
      <use xlink:href="#Arial-BoldMT-20" transform="translate(450.195312 0)"/>
      <use xlink:href="#Arial-BoldMT-5b" transform="translate(477.978516 0)"/>
      <use xlink:href="#Arial-BoldMT-54" transform="translate(511.279297 0)"/>
      <use xlink:href="#Arial-BoldMT-50" transform="translate(572.363281 0)"/>
      <use xlink:href="#Arial-BoldMT-20" transform="translate(637.3125 0)"/>
      <use xlink:href="#Arial-BoldMT-2f" transform="translate(665.095703 0)"/>
      <use xlink:href="#Arial-BoldMT-20" transform="translate(692.878906 0)"/>
      <use xlink:href="#Arial-BoldMT-28" transform="translate(720.662109 0)"/>
      <use xlink:href="#Arial-BoldMT-54" transform="translate(753.962891 0)"/>
      <use xlink:href="#Arial-BoldMT-50" transform="translate(815.046875 0)"/>
      <use xlink:href="#Arial-BoldMT-20" transform="translate(879.996094 0)"/>
      <use xlink:href="#Arial-BoldMT-2b" transform="translate(907.779297 0)"/>
      <use xlink:href="#Arial-BoldMT-20" transform="translate(966.177734 0)"/>
      <use xlink:href="#Arial-BoldMT-46" transform="translate(993.960938 0)"/>
      <use xlink:href="#Arial-BoldMT-50" transform="translate(1055.044922 0)"/>
      <use xlink:href="#Arial-BoldMT-29" transform="translate(1121.744141 0)"/>
      <use xlink:href="#Arial-BoldMT-5d" transform="translate(1155.044922 0)"/>
     </g>
    </g>
   </g>
   <g id="line2d_25">
    <path d="M 42.831699 265.022801 
L 42.94242 244.039273 
L 42.944252 243.943719 
L 43.055359 233.948833 
L 43.056235 233.85328 
L 43.167077 226.973434 
L 43.169662 226.877881 
L 43.280648 221.125566 
L 43.281798 221.030012 
L 43.392763 216.76833 
L 43.395521 216.672777 
L 43.506618 212.812419 
L 43.509763 212.716866 
L 43.620606 209.659157 
L 43.624209 209.563603 
L 43.734909 206.200123 
L 43.739011 206.10457 
L 43.849467 203.773067 
L 43.851889 203.677513 
L 43.962488 201.403342 
L 43.972239 201.307789 
L 44.083336 199.148282 
L 44.088415 199.052728 
L 44.199329 196.893221 
L 44.205242 196.797668 
L 44.311362 194.924821 
L 44.32777 194.829268 
L 44.437981 193.128417 
L 44.446551 193.032864 
L 44.557445 191.389345 
L 44.561486 191.293791 
L 44.672583 189.478277 
L 44.680838 189.382723 
L 44.790805 187.681873 
L 44.802602 187.586319 
L 44.912742 186.133907 
L 44.923999 186.038354 
L 45.034547 184.375725 
L 45.048064 184.280171 
L 45.158978 182.980645 
L 45.16656 182.885092 
L 45.277189 181.490012 
L 45.300366 181.394458 
L 45.410994 180.018489 
L 45.418109 179.922936 
L 45.527659 178.62341 
L 45.531517 178.527856 
L 45.63727 177.170998 
L 45.663897 177.075444 
L 45.773925 175.947914 
L 45.797234 175.852361 
L 45.904036 174.724831 
L 45.919853 174.629277 
L 46.029606 173.444415 
L 46.038441 173.348861 
L 46.149355 172.316885 
L 46.163676 172.221331 
L 46.27118 171.112912 
L 46.271801 171.112912 
L 46.285318 171.017358 
L 46.396385 169.775164 
L 46.413332 169.679611 
L 46.522943 168.743187 
L 46.523584 168.743187 
L 46.541254 168.647634 
L 46.651007 167.864096 
L 46.658916 167.768542 
L 46.769931 166.889451 
L 46.785647 166.793898 
L 46.895024 165.704589 
L 46.904286 165.609035 
L 47.013286 164.749055 
L 47.020686 164.653501 
L 47.131743 163.697967 
L 47.147142 163.602414 
L 47.254891 162.895319 
L 47.28454 162.799765 
L 47.394213 161.882452 
L 47.395556 161.882452 
L 47.408981 161.786899 
L 47.518501 160.754922 
L 47.519224 160.754922 
L 47.534746 160.659369 
L 47.644672 159.703835 
L 47.645008 159.703835 
L 47.656581 159.608281 
L 47.767688 158.882075 
L 47.779475 158.786522 
L 47.888384 157.926541 
L 47.914338 157.830988 
L 48.020153 156.971007 
L 48.040561 156.875454 
L 48.149011 156.130137 
L 48.162722 156.034584 
L 48.272343 155.231935 
L 48.283977 155.136382 
L 48.394697 154.391065 
L 48.410626 154.295512 
L 48.520604 153.588417 
L 48.538365 153.492863 
L 48.649238 152.804879 
L 48.666073 152.709325 
L 48.768641 152.078673 
L 48.79083 151.983119 
L 48.901561 151.046696 
L 48.914131 150.951143 
L 49.015691 150.339601 
L 49.043539 150.244047 
L 49.154463 149.441399 
L 49.194291 149.345845 
L 49.305022 148.715193 
L 49.323781 148.619639 
L 49.434389 148.027208 
L 49.462084 147.931655 
L 49.571309 147.415666 
L 49.571757 147.415666 
L 49.588724 147.320113 
L 49.697256 146.536575 
L 49.720046 146.441022 
L 49.825565 145.848591 
L 49.831 145.848591 
L 49.854492 145.753037 
L 49.963899 145.065053 
L 49.99362 144.969499 
L 50.101399 144.510843 
L 50.102936 144.510843 
L 50.1254 144.415289 
L 50.235591 143.784637 
L 50.257403 143.689084 
L 50.364073 143.230427 
L 50.365508 143.230427 
L 50.388623 143.134874 
L 50.49686 142.523332 
L 50.529451 142.427779 
L 50.637983 141.778015 
L 50.639011 141.778015 
L 50.657445 141.682462 
L 50.768318 141.013588 
L 50.781377 140.918035 
L 50.892321 140.268272 
L 50.92253 140.172718 
L 51.033149 139.561176 
L 51.049984 139.465623 
L 51.158791 138.777638 
L 51.177611 138.682085 
L 51.286805 138.108765 
L 51.287914 138.108765 
L 51.321503 138.013211 
L 51.427348 137.459001 
L 51.432071 137.459001 
L 51.446626 137.363448 
L 51.555138 136.885681 
L 51.578039 136.790127 
L 51.687538 136.350582 
L 51.722236 136.255028 
L 51.819114 135.949257 
L 51.829231 135.949257 
L 51.880643 135.853704 
L 51.988676 135.395048 
L 51.991597 135.395048 
L 52.047314 135.299494 
L 52.14697 134.936391 
L 52.151164 134.936391 
L 52.179531 134.840838 
L 52.282903 134.401292 
L 52.285437 134.401292 
L 52.309204 134.305739 
L 52.416698 133.885304 
L 52.416911 133.885304 
L 52.451711 133.808861 
L 52.5572 133.350205 
L 52.59541 133.254651 
L 52.70441 132.757774 
L 52.730243 132.66222 
L 52.830714 132.069789 
L 52.88644 131.974236 
L 52.996591 131.515579 
L 53.007013 131.420026 
L 53.117276 131.018702 
L 53.118029 131.018702 
L 53.139872 130.923148 
L 53.249371 130.579156 
L 53.272741 130.483603 
L 53.36345 130.005835 
L 53.430322 129.910282 
L 53.530885 129.489847 
L 53.539822 129.489847 
L 53.578774 129.394294 
L 53.689342 128.992969 
L 53.71491 128.897416 
L 53.814506 128.381428 
L 53.825285 128.381428 
L 53.847148 128.285874 
L 53.951782 127.941882 
L 53.98364 127.846328 
L 54.090727 127.445004 
L 54.115257 127.349451 
L 54.214618 127.024569 
L 54.222476 127.024569 
L 54.268696 126.929016 
L 54.363131 126.565913 
L 54.369452 126.565913 
L 54.408893 126.470359 
L 54.506158 126.069035 
L 54.51939 126.069035 
L 54.537344 125.973482 
L 54.647983 125.476604 
L 54.676076 125.381051 
L 54.786603 125.017948 
L 54.808201 124.922394 
L 54.911817 124.501959 
L 54.916092 124.501959 
L 54.956928 124.406406 
L 55.067872 123.947749 
L 55.092789 123.852196 
L 55.199235 123.489093 
L 55.251114 123.39354 
L 55.352389 123.049547 
L 55.361611 123.049547 
L 55.393703 122.953994 
L 55.504108 122.590891 
L 55.525055 122.495338 
L 55.628641 122.151345 
L 55.695553 122.055792 
L 55.803414 121.7118 
L 55.806294 121.7118 
L 55.850499 121.616246 
L 55.959255 121.291365 
L 56.025313 121.195811 
L 56.12215 120.928262 
L 56.130293 120.928262 
L 56.165337 120.832708 
L 56.272495 120.374052 
L 56.287162 120.278499 
L 56.384345 119.896285 
L 56.397465 119.896285 
L 56.427888 119.800731 
L 56.531616 119.533182 
L 56.536522 119.533182 
L 56.548238 119.437629 
L 56.656413 119.055415 
L 56.656698 119.055415 
L 56.670979 118.959862 
L 56.781129 118.596759 
L 56.820794 118.501205 
L 56.929968 118.195434 
L 56.967394 118.099881 
L 57.06358 117.79411 
L 57.068506 117.79411 
L 57.110482 117.698557 
L 57.202494 117.411896 
L 57.215522 117.411896 
L 57.245131 117.316343 
L 57.35574 116.915019 
L 57.390275 116.819465 
L 57.500721 116.513694 
L 57.532325 116.418141 
L 57.636999 115.959484 
L 57.642882 115.959484 
L 57.686161 115.863931 
L 57.791131 115.481717 
L 57.854573 115.386164 
L 57.958148 114.927508 
L 57.964642 114.927508 
L 58.032582 114.831954 
L 58.143618 114.583515 
L 58.185889 114.487962 
L 58.281332 114.14397 
L 58.288559 114.14397 
L 58.34112 114.048416 
L 58.451016 113.666203 
L 58.476492 113.570649 
L 58.587467 113.01644 
L 58.62525 112.920886 
L 58.735339 112.557783 
L 58.774923 112.46223 
L 58.878152 112.080016 
L 58.917471 111.984463 
L 58.988252 111.736024 
L 59.028069 111.736024 
L 59.087267 111.64047 
L 59.190089 111.35381 
L 59.196298 111.35381 
L 59.285379 111.258257 
L 59.39325 111.028929 
L 59.464519 110.933375 
L 59.566883 110.704047 
L 59.569529 110.704047 
L 59.61464 110.608494 
L 59.720098 110.321833 
L 59.746277 110.22628 
L 59.855175 109.691181 
L 59.857069 109.691181 
L 59.89309 109.595627 
L 59.997602 109.251635 
L 60.003668 109.251635 
L 60.025898 109.156082 
L 60.125646 108.907643 
L 60.135224 108.907643 
L 60.189474 108.81209 
L 60.296592 108.410765 
L 60.375098 108.315212 
L 60.464311 108.047662 
L 60.485462 108.047662 
L 60.52241 107.952109 
L 60.630626 107.799223 
L 60.633385 107.799223 
L 60.669375 107.70367 
L 60.749092 107.512563 
L 60.779577 107.512563 
L 60.832728 107.41701 
L 60.934868 107.073018 
L 60.991063 106.977464 
L 61.084195 106.614361 
L 61.101601 106.614361 
L 61.167658 106.518808 
L 61.275508 106.174815 
L 61.275783 106.174815 
L 61.286196 106.079262 
L 61.361078 105.926377 
L 61.388336 105.926377 
L 61.418393 105.830823 
L 61.527546 105.563274 
L 61.573155 105.46772 
L 61.683774 105.333945 
L 61.752997 105.238392 
L 61.863443 104.932621 
L 61.901775 104.837068 
L 61.981878 104.569518 
L 62.001543 104.569518 
L 62.082471 104.473965 
L 62.180103 104.187305 
L 62.19306 104.187305 
L 62.26837 104.091751 
L 62.36371 103.862423 
L 62.373757 103.862423 
L 62.438746 103.76687 
L 62.547654 103.537541 
L 62.597722 103.441988 
L 62.696869 103.231771 
L 62.708442 103.231771 
L 62.750062 103.136217 
L 62.820669 102.964221 
L 62.852273 102.964221 
L 62.905394 102.868668 
L 63.01586 102.677561 
L 63.063994 102.582007 
L 63.17449 102.390901 
L 63.268213 102.295347 
L 63.37929 102.066019 
L 63.418426 101.970466 
L 63.516871 101.798469 
L 63.525604 101.798469 
L 63.615489 101.702916 
L 63.720937 101.397145 
L 63.747249 101.301592 
L 63.852463 101.091374 
L 63.858173 101.091374 
L 63.900026 100.995821 
L 64.009739 100.766493 
L 64.086606 100.670939 
L 64.177703 100.4225 
L 64.193907 100.4225 
L 64.219108 100.326947 
L 64.3276 100.116729 
L 64.32816 100.116729 
L 64.39834 100.021176 
L 64.507422 99.791848 
L 64.556542 99.696294 
L 64.649858 99.486077 
L 64.66479 99.486077 
L 64.705462 99.390524 
L 64.793933 99.161195 
L 64.811979 99.161195 
L 64.845741 99.065642 
L 64.952105 98.72165 
L 64.990732 98.626096 
L 65.074979 98.415879 
L 65.100231 98.415879 
L 65.180142 98.320325 
L 65.279839 98.052776 
L 65.28901 98.052776 
L 65.326649 97.957222 
L 65.432464 97.727894 
L 65.434184 97.727894 
L 65.47674 97.632341 
L 65.581659 97.383902 
L 65.584499 97.383902 
L 65.649426 97.288349 
L 65.75577 97.154574 
L 65.759282 97.154574 
L 65.880079 97.05902 
L 65.984784 96.848803 
L 66.090324 96.753249 
L 66.185135 96.581253 
L 66.199222 96.581253 
L 66.259774 96.4857 
L 66.365364 96.313704 
L 66.368112 96.313704 
L 66.417905 96.21815 
L 66.493093 96.103486 
L 66.515007 96.103486 
L 66.591966 96.007933 
L 66.691836 95.778605 
L 66.70233 95.778605 
L 66.77593 95.683051 
L 66.869713 95.587498 
L 66.883566 95.587498 
L 66.95054 95.491944 
L 67.029901 95.300838 
L 67.057708 95.300838 
L 67.081627 95.205284 
L 67.187839 95.033288 
L 67.189641 95.033288 
L 67.279455 94.937735 
L 67.38531 94.727517 
L 67.387702 94.727517 
L 67.421158 94.631964 
L 67.522403 94.326193 
L 67.531431 94.326193 
L 67.607667 94.230639 
L 67.717166 94.001311 
L 67.718601 94.001311 
L 67.783784 93.905758 
L 67.894127 93.733762 
L 67.936113 93.638208 
L 68.041846 93.313327 
L 68.045124 93.313327 
L 68.129431 93.217773 
L 68.236386 93.045777 
L 68.284285 92.950224 
L 68.388756 92.701785 
L 68.395036 92.701785 
L 68.45287 92.606232 
L 68.542165 92.396014 
L 68.563865 92.396014 
L 68.619246 92.300461 
L 68.721091 92.052022 
L 68.723157 92.052022 
L 68.8049 91.956468 
L 68.903233 91.822694 
L 68.914847 91.822694 
L 68.971866 91.72714 
L 69.080663 91.497812 
L 69.082057 91.497812 
L 69.208463 91.402259 
L 69.266978 91.325816 
L 69.310389 91.325816 
L 69.365322 91.230262 
L 69.472175 91.058266 
L 69.473579 91.058266 
L 69.614377 90.962713 
L 69.695132 90.88627 
L 69.724497 90.88627 
L 69.772325 90.790717 
L 69.878201 90.523167 
L 69.921174 90.427614 
L 70.018907 90.274728 
L 70.023406 90.274728 
L 70.135235 90.179175 
L 70.204092 90.0454 
L 70.24391 90.0454 
L 70.28954 89.949847 
L 70.359913 89.796961 
L 70.397899 89.796961 
L 70.475855 89.701408 
L 70.581252 89.376526 
L 70.582433 89.376526 
L 70.643229 89.280973 
L 70.749491 88.975202 
L 70.749817 88.975202 
L 70.850115 88.879649 
L 70.919562 88.764985 
L 70.938483 88.764985 
L 71.049977 88.669431 
L 71.160555 88.382771 
L 71.160678 88.382771 
L 71.203376 88.287217 
L 71.300315 88.210775 
L 71.31261 88.210775 
L 71.393478 88.115221 
L 71.48546 87.924115 
L 71.499475 87.924115 
L 71.551395 87.828561 
L 71.644701 87.694786 
L 71.661688 87.694786 
L 71.726148 87.599233 
L 71.832634 87.350794 
L 71.837255 87.350794 
L 71.924932 87.255241 
L 72.024975 87.140577 
L 72.035072 87.140577 
L 72.092295 87.045023 
L 72.199484 86.853916 
L 72.202914 86.853916 
L 72.253307 86.758363 
L 72.342053 86.624588 
L 72.361239 86.624588 
L 72.410665 86.529035 
L 72.514525 86.376149 
L 72.518383 86.376149 
L 72.597591 86.280596 
L 72.706286 86.051268 
L 72.809811 85.955714 
L 72.911737 85.745497 
L 73.014824 85.649943 
L 73.11958 85.516169 
L 73.123865 85.516169 
L 73.213699 85.420615 
L 73.323046 85.248619 
L 73.448321 85.153066 
L 73.556436 85.019291 
L 73.609486 84.923738 
L 73.713051 84.847295 
L 73.930889 84.751741 
L 73.959602 84.71352 
L 74.038474 84.71352 
L 74.109672 84.617967 
L 74.212637 84.465081 
L 74.215721 84.465081 
L 74.398301 84.369528 
L 74.509388 84.15931 
L 74.607375 84.063757 
L 74.718299 83.87265 
L 74.786057 83.777097 
L 74.894884 83.662433 
L 74.897164 83.662433 
L 75.052659 83.566879 
L 75.144315 83.471326 
L 75.160916 83.471326 
L 75.25243 83.375772 
L 75.346021 83.222887 
L 75.362031 83.222887 
L 75.492121 83.127333 
L 75.600826 82.974448 
L 75.812262 82.878895 
L 75.922341 82.74512 
L 76.019698 82.649566 
L 76.117715 82.496681 
L 76.125044 82.496681 
L 76.227795 82.401128 
L 76.319756 82.229131 
L 76.338434 82.229131 
L 76.398598 82.133578 
L 76.478997 81.885139 
L 76.502581 81.885139 
L 76.586562 81.789586 
L 76.630268 81.694032 
L 76.694932 81.694032 
L 76.74331 81.598479 
L 76.848666 81.483815 
L 76.979408 81.388261 
L 77.069781 81.311819 
L 77.085232 81.311819 
L 77.199607 81.216265 
L 77.295447 81.139823 
L 77.304505 81.139823 
L 77.487207 81.044269 
L 77.587729 80.948716 
L 77.596533 80.948716 
L 77.714084 80.853162 
L 77.821924 80.700277 
L 78.018275 80.604723 
L 78.125789 80.375395 
L 78.260521 80.279842 
L 78.32155 80.184288 
L 78.369165 80.184288 
L 78.422041 80.088735 
L 78.508598 79.974071 
L 78.531072 79.974071 
L 78.646292 79.878518 
L 78.74663 79.6683 
L 78.753073 79.6683 
L 78.847936 79.572747 
L 78.946646 79.438972 
L 78.955928 79.438972 
L 79.046526 79.343418 
L 79.120075 79.228754 
L 79.138783 79.228754 
L 79.227976 79.133201 
L 79.288487 79.037648 
L 79.330605 79.037648 
L 79.470649 78.942094 
L 79.571578 78.789209 
L 79.577258 78.789209 
L 79.74625 78.693655 
L 79.854476 78.578991 
L 79.956393 78.483438 
L 80.023631 78.406995 
L 80.067184 78.406995 
L 80.166699 78.311442 
L 80.264808 78.196778 
L 80.27636 78.196778 
L 80.343945 78.101224 
L 80.450014 78.024781 
L 80.454747 78.024781 
L 80.580979 77.929228 
L 80.690102 77.814564 
L 80.809983 77.719011 
L 80.889384 77.604346 
L 80.918657 77.604346 
L 81.082204 77.508793 
L 81.170705 77.394129 
L 81.187805 77.394129 
L 81.22634 77.298576 
L 81.318475 77.050137 
L 81.32904 77.050137 
L 81.391199 76.954583 
L 81.485919 76.820808 
L 81.499905 76.820808 
L 81.545422 76.725255 
L 81.653201 76.59148 
L 81.785988 76.495927 
L 81.892709 76.343041 
L 81.975072 76.247488 
L 82.056001 76.113713 
L 82.083869 76.113713 
L 82.164787 76.01816 
L 82.266164 75.884385 
L 82.272241 75.884385 
L 82.357576 75.788832 
L 82.463075 75.674168 
L 82.463106 75.674168 
L 82.562355 75.578614 
L 82.637563 75.406618 
L 82.658439 75.406618 
L 82.775155 75.311065 
L 82.83306 75.234622 
L 82.873122 75.234622 
L 83.042327 75.139069 
L 83.124396 75.005294 
L 83.144528 75.005294 
L 83.244277 74.90974 
L 83.342803 74.680412 
L 83.346732 74.680412 
L 83.459265 74.584859 
L 83.556153 74.527527 
L 83.570372 74.527527 
L 83.694192 74.431973 
L 83.782459 74.298199 
L 83.801554 74.298199 
L 83.953527 74.202645 
L 84.057795 74.06887 
L 84.059861 74.06887 
L 84.197544 73.973317 
L 84.234624 73.935096 
L 84.292366 73.935096 
L 84.40613 73.839542 
L 84.513338 73.686657 
L 84.626624 73.591103 
L 84.715542 73.438218 
L 84.82212 73.342664 
L 84.906072 73.228 
L 84.932444 73.228 
L 85.150312 73.132447 
L 85.255781 72.998672 
L 85.26087 72.998672 
L 85.402125 72.903119 
L 85.508174 72.788455 
L 85.678001 72.692901 
L 85.787683 72.578237 
L 86.043914 72.482684 
L 86.125768 72.348909 
L 86.149677 72.348909 
L 86.322547 72.253356 
L 86.409613 72.138691 
L 86.430947 72.138691 
L 86.531224 72.043138 
L 86.630433 71.928474 
L 86.888119 71.832921 
L 86.997578 71.680035 
L 87.128166 71.584482 
L 87.210428 71.450707 
L 87.237045 71.450707 
L 87.356783 71.355154 
L 87.460114 71.316932 
L 87.467056 71.316932 
L 87.592688 71.221379 
L 87.686838 71.106715 
L 87.702299 71.106715 
L 87.762606 71.011161 
L 87.859789 70.839165 
L 87.868939 70.839165 
L 87.961379 70.743612 
L 88.028944 70.68628 
L 88.052384 70.68628 
L 88.250476 70.590726 
L 88.308676 70.533394 
L 88.358123 70.533394 
L 88.530748 70.437841 
L 88.639698 70.380509 
L 88.84353 70.284955 
L 88.919125 70.208513 
L 88.947798 70.208513 
L 89.134296 70.112959 
L 89.220578 70.055627 
L 89.244945 70.055627 
L 89.36161 69.960074 
L 89.467374 69.826299 
L 89.599062 69.730746 
L 89.657445 69.654303 
L 89.709782 69.654303 
L 89.80721 69.558749 
L 89.907416 69.463196 
L 90.003927 69.367643 
L 90.072275 69.310311 
L 90.106271 69.310311 
L 90.236198 69.214757 
L 90.327183 69.176536 
L 90.346206 69.176536 
L 90.397902 69.080982 
L 90.497712 68.908986 
L 90.505987 68.908986 
L 90.592055 68.813433 
L 90.639812 68.756101 
L 90.697646 68.756101 
L 90.818921 68.660547 
L 90.847309 68.584105 
L 90.928512 68.584105 
L 91.02254 68.488551 
L 91.120497 68.431219 
L 91.122817 68.431219 
L 91.32893 68.335666 
L 91.425624 68.259223 
L 91.43391 68.259223 
L 91.581649 68.16367 
L 91.692369 68.087227 
L 91.69241 68.087227 
L 91.828882 67.991674 
L 91.936244 67.934342 
L 92.06273 67.838788 
L 92.137521 67.762345 
L 92.17341 67.762345 
L 92.424755 67.666792 
L 92.523689 67.628571 
L 92.697617 67.533017 
L 92.779523 67.456574 
L 92.79987 67.456574 
L 92.921583 67.361021 
L 93.023702 67.246357 
L 93.330347 67.150804 
L 93.435123 67.036139 
L 93.52282 66.940586 
L 93.611494 66.845033 
L 93.795896 66.749479 
L 93.885252 66.673037 
L 93.886993 66.673037 
L 94.158053 66.577483 
L 94.256366 66.462819 
L 94.380929 66.367266 
L 94.466194 66.309934 
L 94.636814 66.21438 
L 94.733529 66.061495 
L 94.966289 65.965941 
L 95.06737 65.851277 
L 95.069416 65.851277 
L 95.166223 65.755724 
L 95.255996 65.621949 
L 95.257055 65.621949 
L 95.420672 65.526396 
L 95.483646 65.430842 
L 95.530629 65.430842 
L 95.692282 65.335289 
L 95.786433 65.297067 
L 95.787155 65.297067 
L 96.11039 65.201514 
L 96.214332 65.08685 
L 96.219238 65.08685 
L 96.344015 64.991297 
L 96.448669 64.933965 
L 96.546086 64.838411 
L 96.650863 64.723747 
L 97.101735 64.628194 
L 97.211102 64.494419 
L 97.212506 64.494419 
L 97.366393 64.398865 
L 97.36964 64.341533 
L 97.471943 64.341533 
L 97.653179 64.24598 
L 97.762668 64.073984 
L 97.861358 63.97843 
L 97.972048 63.863766 
L 98.233643 63.768213 
L 98.336139 63.596217 
L 98.343691 63.596217 
L 98.674876 63.500663 
L 98.785332 63.424221 
L 98.966039 63.328667 
L 99.00318 63.271335 
L 99.069818 63.271335 
L 99.199897 63.175782 
L 99.277233 63.11845 
L 99.557179 63.022896 
L 99.571958 62.984675 
L 99.667442 62.984675 
L 99.896252 62.889122 
L 99.973363 62.8509 
L 100.005028 62.8509 
L 100.164422 62.755347 
L 100.254887 62.678904 
L 100.554906 62.583351 
L 100.622999 62.526019 
L 100.663163 62.526019 
L 100.841386 62.430465 
L 100.941114 62.354022 
L 100.941511 62.354022 
L 101.28376 62.258469 
L 101.367823 62.162916 
L 101.444273 62.067362 
L 101.53714 62.029141 
L 101.549731 62.029141 
L 101.952358 61.933587 
L 102.044492 61.838034 
L 102.04552 61.838034 
L 102.189412 61.742481 
L 102.24689 61.666038 
L 102.278249 61.666038 
L 102.467567 61.570485 
L 102.564964 61.494042 
L 102.571295 61.494042 
L 102.815576 61.398488 
L 102.908943 61.283824 
L 102.926317 61.283824 
L 103.095431 61.188271 
L 103.190742 61.15005 
L 103.201633 61.15005 
L 103.326542 61.054496 
L 103.431573 60.958943 
L 103.587343 60.863389 
L 103.641654 60.729615 
L 103.688689 60.729615 
L 103.938538 60.634061 
L 104.021339 60.500286 
L 104.325774 60.404733 
L 104.408352 60.32829 
L 104.413359 60.32829 
L 104.78255 60.232737 
L 104.888711 60.137183 
L 105.221147 60.04163 
L 105.318055 60.003409 
L 105.329465 60.003409 
L 105.636283 59.907855 
L 105.723349 59.793191 
L 105.738148 59.793191 
L 105.895893 59.697638 
L 105.943904 59.659416 
L 106.003834 59.659416 
L 106.30883 59.563863 
L 106.336607 59.525642 
L 106.377086 59.525642 
L 106.551656 59.430088 
L 106.592797 59.391867 
L 106.645918 59.391867 
L 106.992095 59.296313 
L 107.033419 59.20076 
L 107.09738 59.20076 
L 107.332938 59.105207 
L 107.413623 59.047875 
L 107.417368 59.047875 
L 107.591062 58.952321 
L 107.698139 58.818546 
L 107.821725 58.722993 
L 107.916781 58.62744 
L 107.921504 58.62744 
L 108.391735 58.531886 
L 108.490913 58.455443 
L 108.491137 58.455443 
L 108.620698 58.35989 
L 108.620698 58.340779 
L 108.726451 58.340779 
L 109.01737 58.245226 
L 109.084293 58.168783 
L 109.123551 58.168783 
L 109.574281 58.07323 
L 109.619025 57.977676 
L 109.676238 57.977676 
L 109.821839 57.882123 
L 109.893444 57.824791 
L 109.897373 57.824791 
L 110.272854 57.729238 
L 110.326331 57.652795 
L 110.377956 57.652795 
L 110.616405 57.557241 
L 110.7228 57.385245 
L 110.724774 57.385245 
L 110.966542 57.289692 
L 111.053302 57.23236 
L 111.277074 57.136806 
L 111.362776 57.041253 
L 111.371377 57.041253 
L 111.611119 56.9457 
L 111.673471 56.831036 
L 111.704159 56.831036 
L 112.011791 56.735482 
L 112.055527 56.67815 
L 112.121972 56.67815 
L 112.476597 56.582597 
L 112.476597 56.563486 
L 112.560111 56.563486 
L 112.910207 56.467933 
L 112.972315 56.410601 
L 113.007593 56.410601 
L 113.368244 56.315047 
L 113.469753 56.219494 
L 113.615935 56.12394 
L 113.699999 56.047498 
L 113.725302 56.047498 
L 114.131929 55.951944 
L 114.241611 55.894612 
L 114.294824 55.799059 
L 114.388841 55.684395 
L 114.403631 55.684395 
L 114.806654 55.588841 
L 114.913079 55.531509 
L 115.167844 55.435956 
L 115.251562 55.378624 
L 115.515976 55.28307 
L 115.607826 55.187517 
L 115.619297 55.187517 
L 115.957514 55.091963 
L 116.039654 55.053742 
L 116.306053 54.958189 
L 116.405373 54.843525 
L 116.411939 54.843525 
L 116.752019 54.747971 
L 116.752019 54.728861 
L 116.820988 54.728861 
L 117.004555 54.633307 
L 117.101361 54.556864 
L 117.380606 54.461311 
L 117.483763 54.384868 
L 117.768433 54.289315 
L 117.831467 54.251093 
L 118.290207 54.15554 
L 118.337089 54.098208 
L 118.397203 54.098208 
L 118.809672 54.002655 
L 118.862986 53.945323 
L 118.863495 53.945323 
L 119.30942 53.849769 
L 119.30942 53.830658 
L 119.402329 53.830658 
L 119.835846 53.735105 
L 119.923401 53.658662 
L 119.943076 53.658662 
L 120.235114 53.563109 
L 120.343412 53.486666 
L 120.64115 53.391113 
L 120.751504 53.295559 
L 120.911173 53.200006 
L 120.94351 53.161785 
L 120.981648 53.161785 
L 121.053619 53.066231 
L 121.156085 52.951567 
L 121.164218 52.951567 
L 121.424764 52.856014 
L 121.516583 52.779571 
L 122.088802 52.684018 
L 122.128406 52.645796 
L 122.191003 52.645796 
L 122.43219 52.550243 
L 122.475489 52.512021 
L 122.726244 52.416468 
L 122.833504 52.301804 
L 122.943817 52.206251 
L 123.052512 52.129808 
L 123.27089 52.034254 
L 123.355889 51.976922 
L 123.374719 51.976922 
L 123.717578 51.881369 
L 123.717578 51.862258 
L 123.822792 51.862258 
L 124.386767 51.766705 
L 124.409281 51.728484 
L 124.475502 51.728484 
L 124.658245 51.63293 
L 124.658245 51.613819 
L 124.706073 51.613819 
L 125.064851 51.518266 
L 125.106776 51.480045 
L 125.125331 51.480045 
L 125.53836 51.384491 
L 125.640561 51.288938 
L 125.641599 51.288938 
L 125.961262 51.193384 
L 126.069 51.097831 
L 126.416989 51.002278 
L 126.508961 50.944946 
L 126.819096 50.849392 
L 126.906376 50.753839 
L 127.578516 50.658285 
L 127.60783 50.620064 
L 127.680279 50.620064 
L 127.974821 50.524511 
L 128.060951 50.448068 
L 128.066763 50.448068 
L 128.476127 50.352514 
L 128.543264 50.23785 
L 128.577677 50.23785 
L 128.93387 50.142297 
L 128.93387 50.123186 
L 129.029832 50.123186 
L 129.30873 50.027633 
L 129.364049 49.989411 
L 129.41256 49.989411 
L 129.598743 49.893858 
L 129.660861 49.836526 
L 129.701351 49.836526 
L 129.869681 49.740973 
L 129.886272 49.702751 
L 129.970498 49.702751 
L 130.409421 49.607198 
L 130.518849 49.492534 
L 130.852374 49.39698 
L 130.852374 49.37787 
L 130.861636 49.37787 
L 131.64351 49.282316 
L 131.644069 49.244095 
L 131.676671 49.244095 
L 132.150424 49.148541 
L 132.150424 49.129431 
L 132.261144 49.129431 
L 132.638467 49.033877 
L 132.681064 48.976545 
L 132.74705 48.976545 
L 132.993663 48.880992 
L 133.079761 48.82366 
L 133.09453 48.82366 
L 133.640519 48.728106 
L 133.705895 48.689885 
L 133.744492 48.689885 
L 134.256923 48.594332 
L 134.341403 48.517889 
L 134.739103 48.422336 
L 134.769842 48.384114 
L 134.834455 48.384114 
L 135.245641 48.288561 
L 135.293266 48.250339 
L 135.800618 48.154786 
L 135.800618 48.135675 
L 135.833982 48.135675 
L 136.11398 48.040122 
L 136.22011 47.963679 
L 136.518652 47.868126 
L 136.618899 47.829904 
L 136.842488 47.734351 
L 136.894357 47.677019 
L 137.173061 47.581466 
L 137.265959 47.524134 
L 137.271283 47.524134 
L 137.754451 47.42858 
L 137.83997 47.371248 
L 137.86225 47.371248 
L 138.275788 47.275695 
L 138.292623 47.237473 
L 138.382223 47.237473 
L 138.920222 47.14192 
L 138.946025 47.084588 
L 139.017355 47.084588 
L 139.284222 46.989034 
L 139.372937 46.931702 
L 139.977869 46.836149 
L 140.054726 46.721485 
L 140.680778 46.625932 
L 140.789697 46.530378 
L 141.132841 46.434825 
L 141.132841 46.415714 
L 141.233648 46.415714 
L 141.476077 46.320161 
L 141.578665 46.281939 
L 142.065385 46.186386 
L 142.173551 46.090832 
L 142.874689 45.995279 
L 142.874689 45.976168 
L 142.978926 45.976168 
L 143.102339 45.880615 
L 143.206077 45.785062 
L 143.613172 45.689508 
L 143.675423 45.632176 
L 144.536687 45.536623 
L 144.536687 45.517512 
L 144.61099 45.517512 
L 144.873511 45.421959 
L 144.932627 45.326405 
L 145.290397 45.230852 
L 145.342704 45.19263 
L 145.375753 45.19263 
L 145.992462 45.097077 
L 146.024727 45.058856 
L 146.049715 45.058856 
L 146.419333 44.963302 
L 146.450967 44.925081 
L 146.850968 44.829527 
L 146.934421 44.791306 
L 146.94751 44.791306 
L 147.221258 44.695753 
L 147.228759 44.657531 
L 147.296242 44.657531 
L 148.169975 44.561978 
L 148.274772 44.485535 
L 148.584612 44.389982 
L 148.622404 44.35176 
L 148.941466 44.256207 
L 148.941466 44.237096 
L 148.989142 44.237096 
L 149.685323 44.141543 
L 149.793153 44.084211 
L 150.187902 43.988657 
L 150.264239 43.912215 
L 150.2945 43.912215 
L 150.750654 43.816661 
L 150.841588 43.759329 
L 151.491499 43.663776 
L 151.491499 43.644665 
L 151.936508 43.549112 
L 151.976529 43.49178 
L 152.021681 43.49178 
L 152.770332 43.396226 
L 152.770332 43.377116 
L 152.83758 43.377116 
L 153.373462 43.281562 
L 153.459551 43.243341 
L 153.478747 43.243341 
L 154.302454 43.147787 
L 154.369723 43.090455 
L 154.402721 43.090455 
L 155.300211 42.994902 
L 155.397313 42.93757 
L 156.117545 42.842017 
L 156.117545 42.822906 
L 156.21993 42.822906 
L 156.842684 42.727352 
L 156.935084 42.689131 
L 157.36052 42.593578 
L 157.36052 42.574467 
L 157.456889 42.574467 
L 158.386502 42.478914 
L 158.478158 42.421582 
L 158.951626 42.326028 
L 159.030305 42.268696 
L 159.051903 42.268696 
L 159.397999 42.173143 
L 159.504404 42.115811 
L 160.321942 42.020257 
L 160.321942 42.001147 
L 160.394921 42.001147 
L 160.6704 41.905593 
L 160.777212 41.848261 
L 161.293276 41.752708 
L 161.293276 41.733597 
L 161.394856 41.733597 
L 161.828435 41.638044 
L 161.835062 41.599822 
L 161.892773 41.599822 
L 162.607632 41.504269 
L 162.686901 41.446937 
L 162.718118 41.446937 
L 163.405851 41.351383 
L 163.459817 41.313162 
L 163.498505 41.313162 
L 164.284592 41.217609 
L 164.284592 41.198498 
L 164.386264 41.198498 
L 164.792189 41.102945 
L 164.811039 41.064723 
L 164.871163 41.064723 
L 165.178357 40.96917 
L 165.178357 40.950059 
L 165.218724 40.950059 
L 165.942784 40.854506 
L 165.942784 40.835395 
L 166.032038 40.835395 
L 166.252411 40.739842 
L 166.252411 40.720731 
L 166.354398 40.720731 
L 167.218828 40.625177 
L 167.218828 40.606067 
L 167.319717 40.606067 
L 167.929962 40.510513 
L 167.944161 40.472292 
L 168.010778 40.472292 
L 168.37376 40.376739 
L 168.472592 40.338517 
L 168.854495 40.242964 
L 168.927261 40.204742 
L 168.954345 40.204742 
L 169.463936 40.109189 
L 169.463936 40.090078 
L 169.543165 40.090078 
L 170.509542 39.994525 
L 170.584516 39.956304 
L 170.878305 39.86075 
L 170.878305 39.84164 
L 170.976679 39.84164 
L 171.834554 39.746086 
L 171.935738 39.669643 
L 172.397093 39.57409 
L 172.402366 39.535869 
L 172.498267 39.535869 
L 173.015288 39.440315 
L 173.015288 39.421205 
L 173.088827 39.421205 
L 173.958804 39.325651 
L 173.958804 39.30654 
L 174.068151 39.30654 
L 174.927705 39.210987 
L 174.999147 39.172766 
L 175.619225 39.077212 
L 175.72051 39.038991 
L 175.72337 39.038991 
L 176.413302 38.943437 
L 176.447614 38.905216 
L 177.18001 38.809663 
L 177.281559 38.752331 
L 177.73976 38.656777 
L 177.771354 38.618556 
L 178.806872 38.523002 
L 178.827748 38.484781 
L 178.863128 38.484781 
L 179.613642 38.389228 
L 179.613642 38.370117 
L 179.670071 38.370117 
L 180.319228 38.274564 
L 180.319228 38.255453 
L 180.380634 38.255453 
L 180.773683 38.1599 
L 180.806111 38.121678 
L 181.117142 38.026125 
L 181.181999 37.987903 
L 181.661483 37.89235 
L 181.661483 37.873239 
L 182.33916 37.777686 
L 182.370723 37.739465 
L 183.45696 37.643911 
L 183.45696 37.6248 
L 184.360852 37.529247 
L 184.397749 37.491026 
L 185.95888 37.395472 
L 186.048256 37.299919 
L 186.064267 37.299919 
L 186.397599 37.204365 
L 186.484145 37.147033 
L 187.163125 37.05148 
L 187.163125 37.032369 
L 188.352246 36.936816 
L 188.41982 36.898595 
L 188.962359 36.803041 
L 189.044834 36.726598 
L 189.766706 36.631045 
L 189.844917 36.554602 
L 190.555643 36.459049 
L 190.65477 36.401717 
L 191.204444 36.306163 
L 191.204444 36.287053 
L 192.729564 36.191499 
L 192.729564 36.172389 
L 193.859039 36.076835 
L 193.935234 36.038614 
L 194.760671 35.94306 
L 194.858597 35.904839 
L 196.255683 35.809286 
L 196.273424 35.751954 
L 197.232584 35.6564 
L 197.330846 35.618179 
L 198.129921 35.522625 
L 198.129921 35.503515 
L 198.177536 35.503515 
L 198.715881 35.407961 
L 198.715881 35.388851 
L 199.405263 35.293297 
L 199.405263 35.274187 
L 200.449189 35.178633 
L 200.449189 35.159523 
L 201.736032 35.063969 
L 201.833816 34.987526 
L 203.095427 34.891973 
L 203.192132 34.853752 
L 203.889505 34.758198 
L 203.927877 34.719977 
L 204.50149 34.624423 
L 204.50149 34.605313 
L 205.711955 34.509759 
L 205.711955 34.490649 
L 206.641435 34.395095 
L 206.641435 34.375985 
L 208.42133 34.280431 
L 208.510391 34.223099 
L 209.456584 34.127546 
L 209.544078 34.089324 
L 210.267191 33.993771 
L 210.312953 33.95555 
L 210.323986 33.95555 
L 211.665732 33.859996 
L 211.76488 33.802664 
L 212.697607 33.707111 
L 212.719643 33.668889 
L 213.32313 33.573336 
L 213.422308 33.535115 
L 214.404085 33.439561 
L 214.404085 33.42045 
L 215.627008 33.324897 
L 215.730492 33.286676 
L 216.225029 33.191122 
L 216.320238 33.13379 
L 216.984724 33.038237 
L 217.094324 32.980905 
L 217.962643 32.885351 
L 218.026695 32.84713 
L 218.644971 32.751577 
L 218.65173 32.713355 
L 218.712322 32.713355 
L 219.653548 32.617802 
L 219.761021 32.56047 
L 220.502089 32.464916 
L 220.502089 32.445806 
L 221.901384 32.350252 
L 221.901384 32.331142 
L 222.859496 32.235588 
L 222.873399 32.197367 
L 224.106684 32.101813 
L 224.106684 32.082703 
L 224.887987 31.987149 
L 224.887987 31.968039 
L 226.843551 31.872485 
L 226.921273 31.796043 
L 227.680856 31.700489 
L 227.76497 31.662268 
L 228.811644 31.566714 
L 228.811644 31.547604 
L 229.778143 31.45205 
L 229.778143 31.43294 
L 231.073913 31.337386 
L 231.137243 31.299165 
L 232.504862 31.203611 
L 232.614076 31.16539 
L 233.248047 31.069837 
L 233.248047 31.050726 
L 233.325505 31.050726 
L 234.377777 30.955173 
L 234.377777 30.936062 
L 234.469118 30.936062 
L 235.95843 30.840508 
L 236.016386 30.783176 
L 237.089401 30.687623 
L 237.089401 30.668512 
L 238.200464 30.572959 
L 238.200464 30.553848 
L 239.684829 30.458295 
L 239.764913 30.420073 
L 241.175861 30.32452 
L 241.175861 30.305409 
L 242.870329 30.209856 
L 242.885515 30.171635 
L 243.936678 30.076081 
L 243.945676 30.03786 
L 245.609333 29.942306 
L 245.609333 29.923196 
L 247.375121 29.827642 
L 247.375121 29.808532 
L 248.357396 29.712978 
L 248.357396 29.693868 
L 249.381434 29.598314 
L 249.381434 29.579203 
L 250.53948 29.48365 
L 250.646393 29.445429 
L 252.216298 29.349875 
L 252.216298 29.330765 
L 253.03746 29.235211 
L 253.03746 29.216101 
L 253.510256 29.120547 
L 253.510256 29.101436 
L 254.217013 29.005883 
L 254.326084 28.967662 
L 256.14142 28.872108 
L 256.14142 28.852998 
L 256.858681 28.757444 
L 256.858681 28.738333 
L 258.190808 28.64278 
L 258.190808 28.623669 
L 259.148401 28.528116 
L 259.148401 28.509005 
L 260.017839 28.413452 
L 260.017839 28.394341 
L 260.119338 28.394341 
L 261.358974 28.298788 
L 261.358974 28.279677 
L 262.629298 28.184124 
L 262.722817 28.145902 
L 264.882996 28.050349 
L 264.882996 28.031238 
L 264.952576 28.031238 
L 267.227049 27.935685 
L 267.303814 27.897464 
L 268.784179 27.80191 
L 268.784179 27.782799 
L 269.565493 27.687246 
L 269.581656 27.649025 
L 271.230585 27.553471 
L 271.286841 27.51525 
L 273.825911 27.419696 
L 273.825911 27.400586 
L 274.988355 27.305032 
L 274.988355 27.285922 
L 277.817977 27.190368 
L 277.854405 27.152147 
L 279.43574 27.056594 
L 279.43574 27.037483 
L 280.235192 26.941929 
L 280.235192 26.922819 
L 281.316085 26.827265 
L 281.316085 26.808155 
L 282.023758 26.789044 
L 282.023758 26.789044 
" clip-path="url(#pa1866e4afb)" style="fill: none; stroke: #1f77b4; stroke-width: 1.5; stroke-linecap: round"/>
   </g>
   <g id="patch_3">
    <path d="M 35.655938 265.022801 
L 35.655938 19.642031 
" style="fill: none"/>
   </g>
   <g id="patch_4">
    <path d="M 289.19952 265.022801 
L 289.19952 19.642031 
" style="fill: none"/>
   </g>
   <g id="patch_5">
    <path d="M 35.655938 265.022801 
L 289.19952 265.022801 
" style="fill: none"/>
   </g>
   <g id="patch_6">
    <path d="M 35.655938 19.642031 
L 289.19952 19.642031 
" style="fill: none"/>
   </g>
   <g id="text_15">
    <!-- Model 0: Precision-Recall Curve -->
    <g style="fill: #333333" transform="translate(93.910307 13.642031) scale(0.09 -0.09)">
     <defs>
      <path id="Arial-BoldMT-4d" d="M 453 0 
L 453 4581 
L 1838 4581 
L 2669 1456 
L 3491 4581 
L 4878 4581 
L 4878 0 
L 4019 0 
L 4019 3606 
L 3109 0 
L 2219 0 
L 1313 3606 
L 1313 0 
L 453 0 
z
" transform="scale(0.015625)"/>
      <path id="Arial-BoldMT-64" d="M 3503 0 
L 2688 0 
L 2688 488 
Q 2484 203 2207 64 
Q 1931 -75 1650 -75 
Q 1078 -75 670 386 
Q 263 847 263 1672 
Q 263 2516 659 2955 
Q 1056 3394 1663 3394 
Q 2219 3394 2625 2931 
L 2625 4581 
L 3503 4581 
L 3503 0 
z
M 1159 1731 
Q 1159 1200 1306 963 
Q 1519 619 1900 619 
Q 2203 619 2415 876 
Q 2628 1134 2628 1647 
Q 2628 2219 2422 2470 
Q 2216 2722 1894 2722 
Q 1581 2722 1370 2473 
Q 1159 2225 1159 1731 
z
" transform="scale(0.015625)"/>
      <path id="Arial-BoldMT-30" d="M 1756 4600 
Q 2422 4600 2797 4125 
Q 3244 3563 3244 2259 
Q 3244 959 2794 391 
Q 2422 -78 1756 -78 
Q 1088 -78 678 436 
Q 269 950 269 2269 
Q 269 3563 719 4131 
Q 1091 4600 1756 4600 
z
M 1756 3872 
Q 1597 3872 1472 3770 
Q 1347 3669 1278 3406 
Q 1188 3066 1188 2259 
Q 1188 1453 1269 1151 
Q 1350 850 1473 750 
Q 1597 650 1756 650 
Q 1916 650 2041 751 
Q 2166 853 2234 1116 
Q 2325 1453 2325 2259 
Q 2325 3066 2244 3367 
Q 2163 3669 2039 3770 
Q 1916 3872 1756 3872 
z
" transform="scale(0.015625)"/>
      <path id="Arial-BoldMT-3a" d="M 628 2441 
L 628 3319 
L 1506 3319 
L 1506 2441 
L 628 2441 
z
M 628 0 
L 628 878 
L 1506 878 
L 1506 0 
L 628 0 
z
" transform="scale(0.015625)"/>
      <path id="Arial-BoldMT-2d" d="M 359 1222 
L 359 2100 
L 2084 2100 
L 2084 1222 
L 359 1222 
z
" transform="scale(0.015625)"/>
      <path id="Arial-BoldMT-43" d="M 3397 1684 
L 4294 1400 
Q 4088 650 3608 286 
Q 3128 -78 2391 -78 
Q 1478 -78 890 545 
Q 303 1169 303 2250 
Q 303 3394 893 4026 
Q 1484 4659 2447 4659 
Q 3288 4659 3813 4163 
Q 4125 3869 4281 3319 
L 3366 3100 
Q 3284 3456 3026 3662 
Q 2769 3869 2400 3869 
Q 1891 3869 1573 3503 
Q 1256 3138 1256 2319 
Q 1256 1450 1568 1081 
Q 1881 713 2381 713 
Q 2750 713 3015 947 
Q 3281 1181 3397 1684 
z
" transform="scale(0.015625)"/>
      <path id="Arial-BoldMT-75" d="M 2644 0 
L 2644 497 
Q 2463 231 2167 78 
Q 1872 -75 1544 -75 
Q 1209 -75 943 72 
Q 678 219 559 484 
Q 441 750 441 1219 
L 441 3319 
L 1319 3319 
L 1319 1794 
Q 1319 1094 1367 936 
Q 1416 778 1544 686 
Q 1672 594 1869 594 
Q 2094 594 2272 717 
Q 2450 841 2515 1023 
Q 2581 1206 2581 1919 
L 2581 3319 
L 3459 3319 
L 3459 0 
L 2644 0 
z
" transform="scale(0.015625)"/>
      <path id="Arial-BoldMT-76" d="M 1372 0 
L 34 3319 
L 956 3319 
L 1581 1625 
L 1763 1059 
Q 1834 1275 1853 1344 
Q 1897 1484 1947 1625 
L 2578 3319 
L 3481 3319 
L 2163 0 
L 1372 0 
z
" transform="scale(0.015625)"/>
     </defs>
     <use xlink:href="#Arial-BoldMT-4d"/>
     <use xlink:href="#Arial-BoldMT-6f" transform="translate(83.300781 0)"/>
     <use xlink:href="#Arial-BoldMT-64" transform="translate(144.384766 0)"/>
     <use xlink:href="#Arial-BoldMT-65" transform="translate(205.46875 0)"/>
     <use xlink:href="#Arial-BoldMT-6c" transform="translate(261.083984 0)"/>
     <use xlink:href="#Arial-BoldMT-20" transform="translate(288.867188 0)"/>
     <use xlink:href="#Arial-BoldMT-30" transform="translate(316.650391 0)"/>
     <use xlink:href="#Arial-BoldMT-3a" transform="translate(372.265625 0)"/>
     <use xlink:href="#Arial-BoldMT-20" transform="translate(405.566406 0)"/>
     <use xlink:href="#Arial-BoldMT-50" transform="translate(433.349609 0)"/>
     <use xlink:href="#Arial-BoldMT-72" transform="translate(500.048828 0)"/>
     <use xlink:href="#Arial-BoldMT-65" transform="translate(538.964844 0)"/>
     <use xlink:href="#Arial-BoldMT-63" transform="translate(594.580078 0)"/>
     <use xlink:href="#Arial-BoldMT-69" transform="translate(650.195312 0)"/>
     <use xlink:href="#Arial-BoldMT-73" transform="translate(677.978516 0)"/>
     <use xlink:href="#Arial-BoldMT-69" transform="translate(733.59375 0)"/>
     <use xlink:href="#Arial-BoldMT-6f" transform="translate(761.376953 0)"/>
     <use xlink:href="#Arial-BoldMT-6e" transform="translate(822.460938 0)"/>
     <use xlink:href="#Arial-BoldMT-2d" transform="translate(883.544922 0)"/>
     <use xlink:href="#Arial-BoldMT-52" transform="translate(916.845703 0)"/>
     <use xlink:href="#Arial-BoldMT-65" transform="translate(989.0625 0)"/>
     <use xlink:href="#Arial-BoldMT-63" transform="translate(1044.677734 0)"/>
     <use xlink:href="#Arial-BoldMT-61" transform="translate(1100.292969 0)"/>
     <use xlink:href="#Arial-BoldMT-6c" transform="translate(1155.908203 0)"/>
     <use xlink:href="#Arial-BoldMT-6c" transform="translate(1183.691406 0)"/>
     <use xlink:href="#Arial-BoldMT-20" transform="translate(1211.474609 0)"/>
     <use xlink:href="#Arial-BoldMT-43" transform="translate(1239.257812 0)"/>
     <use xlink:href="#Arial-BoldMT-75" transform="translate(1311.474609 0)"/>
     <use xlink:href="#Arial-BoldMT-72" transform="translate(1372.558594 0)"/>
     <use xlink:href="#Arial-BoldMT-76" transform="translate(1411.474609 0)"/>
     <use xlink:href="#Arial-BoldMT-65" transform="translate(1467.089844 0)"/>
    </g>
   </g>
   <g id="legend_1">
    <g id="patch_7">
     <path d="M 164.573426 260.522801 
L 282.89952 260.522801 
Q 284.69952 260.522801 284.69952 258.722801 
L 284.69952 246.89202 
Q 284.69952 245.09202 282.89952 245.09202 
L 164.573426 245.09202 
Q 162.773426 245.09202 162.773426 246.89202 
L 162.773426 258.722801 
Q 162.773426 260.522801 164.573426 260.522801 
z
" style="fill: #ffffff; opacity: 0.8; stroke: #cccccc; stroke-width: 0.75; stroke-linejoin: miter"/>
    </g>
    <g id="line2d_26">
     <path d="M 166.373426 251.984051 
L 175.373426 251.984051 
L 184.373426 251.984051 
" style="fill: none; stroke: #1f77b4; stroke-width: 1.5; stroke-linecap: round"/>
    </g>
    <g id="text_16">
     <!-- Precision-Recall curve -->
     <g style="fill: #333333" transform="translate(191.573426 255.134051) scale(0.09 -0.09)">
      <defs>
       <path id="ArialMT-50" d="M 494 0 
L 494 4581 
L 2222 4581 
Q 2678 4581 2919 4538 
Q 3256 4481 3484 4323 
Q 3713 4166 3852 3881 
Q 3991 3597 3991 3256 
Q 3991 2672 3619 2267 
Q 3247 1863 2275 1863 
L 1100 1863 
L 1100 0 
L 494 0 
z
M 1100 2403 
L 2284 2403 
Q 2872 2403 3119 2622 
Q 3366 2841 3366 3238 
Q 3366 3525 3220 3729 
Q 3075 3934 2838 4000 
Q 2684 4041 2272 4041 
L 1100 4041 
L 1100 2403 
z
" transform="scale(0.015625)"/>
       <path id="ArialMT-72" d="M 416 0 
L 416 3319 
L 922 3319 
L 922 2816 
Q 1116 3169 1280 3281 
Q 1444 3394 1641 3394 
Q 1925 3394 2219 3213 
L 2025 2691 
Q 1819 2813 1613 2813 
Q 1428 2813 1281 2702 
Q 1134 2591 1072 2394 
Q 978 2094 978 1738 
L 978 0 
L 416 0 
z
" transform="scale(0.015625)"/>
       <path id="ArialMT-65" d="M 2694 1069 
L 3275 997 
Q 3138 488 2766 206 
Q 2394 -75 1816 -75 
Q 1088 -75 661 373 
Q 234 822 234 1631 
Q 234 2469 665 2931 
Q 1097 3394 1784 3394 
Q 2450 3394 2872 2941 
Q 3294 2488 3294 1666 
Q 3294 1616 3291 1516 
L 816 1516 
Q 847 969 1125 678 
Q 1403 388 1819 388 
Q 2128 388 2347 550 
Q 2566 713 2694 1069 
z
M 847 1978 
L 2700 1978 
Q 2663 2397 2488 2606 
Q 2219 2931 1791 2931 
Q 1403 2931 1139 2672 
Q 875 2413 847 1978 
z
" transform="scale(0.015625)"/>
       <path id="ArialMT-63" d="M 2588 1216 
L 3141 1144 
Q 3050 572 2676 248 
Q 2303 -75 1759 -75 
Q 1078 -75 664 370 
Q 250 816 250 1647 
Q 250 2184 428 2587 
Q 606 2991 970 3192 
Q 1334 3394 1763 3394 
Q 2303 3394 2647 3120 
Q 2991 2847 3088 2344 
L 2541 2259 
Q 2463 2594 2264 2762 
Q 2066 2931 1784 2931 
Q 1359 2931 1093 2626 
Q 828 2322 828 1663 
Q 828 994 1084 691 
Q 1341 388 1753 388 
Q 2084 388 2306 591 
Q 2528 794 2588 1216 
z
" transform="scale(0.015625)"/>
       <path id="ArialMT-69" d="M 425 3934 
L 425 4581 
L 988 4581 
L 988 3934 
L 425 3934 
z
M 425 0 
L 425 3319 
L 988 3319 
L 988 0 
L 425 0 
z
" transform="scale(0.015625)"/>
       <path id="ArialMT-73" d="M 197 991 
L 753 1078 
Q 800 744 1014 566 
Q 1228 388 1613 388 
Q 2000 388 2187 545 
Q 2375 703 2375 916 
Q 2375 1106 2209 1216 
Q 2094 1291 1634 1406 
Q 1016 1563 777 1677 
Q 538 1791 414 1992 
Q 291 2194 291 2438 
Q 291 2659 392 2848 
Q 494 3038 669 3163 
Q 800 3259 1026 3326 
Q 1253 3394 1513 3394 
Q 1903 3394 2198 3281 
Q 2494 3169 2634 2976 
Q 2775 2784 2828 2463 
L 2278 2388 
Q 2241 2644 2061 2787 
Q 1881 2931 1553 2931 
Q 1166 2931 1000 2803 
Q 834 2675 834 2503 
Q 834 2394 903 2306 
Q 972 2216 1119 2156 
Q 1203 2125 1616 2013 
Q 2213 1853 2448 1751 
Q 2684 1650 2818 1456 
Q 2953 1263 2953 975 
Q 2953 694 2789 445 
Q 2625 197 2315 61 
Q 2006 -75 1616 -75 
Q 969 -75 630 194 
Q 291 463 197 991 
z
" transform="scale(0.015625)"/>
       <path id="ArialMT-6f" d="M 213 1659 
Q 213 2581 725 3025 
Q 1153 3394 1769 3394 
Q 2453 3394 2887 2945 
Q 3322 2497 3322 1706 
Q 3322 1066 3130 698 
Q 2938 331 2570 128 
Q 2203 -75 1769 -75 
Q 1072 -75 642 372 
Q 213 819 213 1659 
z
M 791 1659 
Q 791 1022 1069 705 
Q 1347 388 1769 388 
Q 2188 388 2466 706 
Q 2744 1025 2744 1678 
Q 2744 2294 2464 2611 
Q 2184 2928 1769 2928 
Q 1347 2928 1069 2612 
Q 791 2297 791 1659 
z
" transform="scale(0.015625)"/>
       <path id="ArialMT-6e" d="M 422 0 
L 422 3319 
L 928 3319 
L 928 2847 
Q 1294 3394 1984 3394 
Q 2284 3394 2536 3286 
Q 2788 3178 2913 3003 
Q 3038 2828 3088 2588 
Q 3119 2431 3119 2041 
L 3119 0 
L 2556 0 
L 2556 2019 
Q 2556 2363 2490 2533 
Q 2425 2703 2258 2804 
Q 2091 2906 1866 2906 
Q 1506 2906 1245 2678 
Q 984 2450 984 1813 
L 984 0 
L 422 0 
z
" transform="scale(0.015625)"/>
       <path id="ArialMT-2d" d="M 203 1375 
L 203 1941 
L 1931 1941 
L 1931 1375 
L 203 1375 
z
" transform="scale(0.015625)"/>
       <path id="ArialMT-52" d="M 503 0 
L 503 4581 
L 2534 4581 
Q 3147 4581 3465 4457 
Q 3784 4334 3975 4021 
Q 4166 3709 4166 3331 
Q 4166 2844 3850 2509 
Q 3534 2175 2875 2084 
Q 3116 1969 3241 1856 
Q 3506 1613 3744 1247 
L 4541 0 
L 3778 0 
L 3172 953 
Q 2906 1366 2734 1584 
Q 2563 1803 2427 1890 
Q 2291 1978 2150 2013 
Q 2047 2034 1813 2034 
L 1109 2034 
L 1109 0 
L 503 0 
z
M 1109 2559 
L 2413 2559 
Q 2828 2559 3062 2645 
Q 3297 2731 3419 2920 
Q 3541 3109 3541 3331 
Q 3541 3656 3305 3865 
Q 3069 4075 2559 4075 
L 1109 4075 
L 1109 2559 
z
" transform="scale(0.015625)"/>
       <path id="ArialMT-61" d="M 2588 409 
Q 2275 144 1986 34 
Q 1697 -75 1366 -75 
Q 819 -75 525 192 
Q 231 459 231 875 
Q 231 1119 342 1320 
Q 453 1522 633 1644 
Q 813 1766 1038 1828 
Q 1203 1872 1538 1913 
Q 2219 1994 2541 2106 
Q 2544 2222 2544 2253 
Q 2544 2597 2384 2738 
Q 2169 2928 1744 2928 
Q 1347 2928 1158 2789 
Q 969 2650 878 2297 
L 328 2372 
Q 403 2725 575 2942 
Q 747 3159 1072 3276 
Q 1397 3394 1825 3394 
Q 2250 3394 2515 3294 
Q 2781 3194 2906 3042 
Q 3031 2891 3081 2659 
Q 3109 2516 3109 2141 
L 3109 1391 
Q 3109 606 3145 398 
Q 3181 191 3288 0 
L 2700 0 
Q 2613 175 2588 409 
z
M 2541 1666 
Q 2234 1541 1622 1453 
Q 1275 1403 1131 1340 
Q 988 1278 909 1158 
Q 831 1038 831 891 
Q 831 666 1001 516 
Q 1172 366 1500 366 
Q 1825 366 2078 508 
Q 2331 650 2450 897 
Q 2541 1088 2541 1459 
L 2541 1666 
z
" transform="scale(0.015625)"/>
       <path id="ArialMT-6c" d="M 409 0 
L 409 4581 
L 972 4581 
L 972 0 
L 409 0 
z
" transform="scale(0.015625)"/>
       <path id="ArialMT-20" transform="scale(0.015625)"/>
       <path id="ArialMT-75" d="M 2597 0 
L 2597 488 
Q 2209 -75 1544 -75 
Q 1250 -75 995 37 
Q 741 150 617 320 
Q 494 491 444 738 
Q 409 903 409 1263 
L 409 3319 
L 972 3319 
L 972 1478 
Q 972 1038 1006 884 
Q 1059 663 1231 536 
Q 1403 409 1656 409 
Q 1909 409 2131 539 
Q 2353 669 2445 892 
Q 2538 1116 2538 1541 
L 2538 3319 
L 3100 3319 
L 3100 0 
L 2597 0 
z
" transform="scale(0.015625)"/>
       <path id="ArialMT-76" d="M 1344 0 
L 81 3319 
L 675 3319 
L 1388 1331 
Q 1503 1009 1600 663 
Q 1675 925 1809 1294 
L 2547 3319 
L 3125 3319 
L 1869 0 
L 1344 0 
z
" transform="scale(0.015625)"/>
      </defs>
      <use xlink:href="#ArialMT-50"/>
      <use xlink:href="#ArialMT-72" transform="translate(66.699219 0)"/>
      <use xlink:href="#ArialMT-65" transform="translate(100 0)"/>
      <use xlink:href="#ArialMT-63" transform="translate(155.615234 0)"/>
      <use xlink:href="#ArialMT-69" transform="translate(205.615234 0)"/>
      <use xlink:href="#ArialMT-73" transform="translate(227.832031 0)"/>
      <use xlink:href="#ArialMT-69" transform="translate(277.832031 0)"/>
      <use xlink:href="#ArialMT-6f" transform="translate(300.048828 0)"/>
      <use xlink:href="#ArialMT-6e" transform="translate(355.664062 0)"/>
      <use xlink:href="#ArialMT-2d" transform="translate(411.279297 0)"/>
      <use xlink:href="#ArialMT-52" transform="translate(444.580078 0)"/>
      <use xlink:href="#ArialMT-65" transform="translate(516.796875 0)"/>
      <use xlink:href="#ArialMT-63" transform="translate(572.412109 0)"/>
      <use xlink:href="#ArialMT-61" transform="translate(622.412109 0)"/>
      <use xlink:href="#ArialMT-6c" transform="translate(678.027344 0)"/>
      <use xlink:href="#ArialMT-6c" transform="translate(700.244141 0)"/>
      <use xlink:href="#ArialMT-20" transform="translate(722.460938 0)"/>
      <use xlink:href="#ArialMT-63" transform="translate(750.244141 0)"/>
      <use xlink:href="#ArialMT-75" transform="translate(800.244141 0)"/>
      <use xlink:href="#ArialMT-72" transform="translate(855.859375 0)"/>
      <use xlink:href="#ArialMT-76" transform="translate(889.160156 0)"/>
      <use xlink:href="#ArialMT-65" transform="translate(939.160156 0)"/>
     </g>
    </g>
   </g>
  </g>
 </g>
 <defs>
  <clipPath id="pa1866e4afb">
   <rect x="35.655938" y="19.642031" width="253.543583" height="245.38077"/>
  </clipPath>
 </defs>
</svg>
