<?xml version="1.0" encoding="utf-8" standalone="no"?>
<!DOCTYPE svg PUBLIC "-//W3C//DTD SVG 1.1//EN"
  "http://www.w3.org/Graphics/SVG/1.1/DTD/svg11.dtd">
<svg xmlns:xlink="http://www.w3.org/1999/xlink" width="296.39952pt" height="296.39952pt" viewBox="0 0 296.39952 296.39952" xmlns="http://www.w3.org/2000/svg" version="1.1">
 <metadata>
  <rdf:RDF xmlns:dc="http://purl.org/dc/elements/1.1/" xmlns:cc="http://creativecommons.org/ns#" xmlns:rdf="http://www.w3.org/1999/02/22-rdf-syntax-ns#">
   <cc:Work>
    <dc:type rdf:resource="http://purl.org/dc/dcmitype/StillImage"/>
    <dc:date>2025-12-27T20:45:02.808968</dc:date>
    <dc:format>image/svg+xml</dc:format>
    <dc:creator>
     <cc:Agent>
      <dc:title>Matplotlib v3.10.8, https://matplotlib.org/</dc:title>
     </cc:Agent>
    </dc:creator>
   </cc:Work>
  </rdf:RDF>
 </metadata>
 <defs>
  <style type="text/css">*{stroke-linejoin: round; stroke-linecap: butt}</style>
 </defs>
 <g id="figure_1">
  <g id="patch_1">
   <path d="M 0 296.39952 
L 296.39952 296.39952 
L 296.39952 0 
L 0 0 
z
" style="fill: #ffffff"/>
  </g>
  <g id="axes_1">
   <g id="patch_2">
    <path d="M 35.655938 265.022801 
L 289.19952 265.022801 
L 289.19952 19.751719 
L 35.655938 19.751719 
z
" style="fill: #ffffff"/>
   </g>
   <g id="matplotlib.axis_1">
    <g id="xtick_1">
     <g id="line2d_1">
      <path d="M 42.831699 265.022801 
L 42.831699 19.751719 
" clip-path="url(#p21d04a8952)" style="fill: none; stroke: #c0c0c0; stroke-width: 0.25; stroke-linecap: round"/>
     </g>
     <g id="line2d_2"/>
     <g id="text_1">
      <!-- 0.0 -->
      <g style="fill: #333333" transform="translate(36.576699 274.964832) scale(0.09 -0.09)">
       <defs>
        <path id="ArialMT-30" d="M 266 2259 
Q 266 3072 433 3567 
Q 600 4063 929 4331 
Q 1259 4600 1759 4600 
Q 2128 4600 2406 4451 
Q 2684 4303 2865 4023 
Q 3047 3744 3150 3342 
Q 3253 2941 3253 2259 
Q 3253 1453 3087 958 
Q 2922 463 2592 192 
Q 2263 -78 1759 -78 
Q 1097 -78 719 397 
Q 266 969 266 2259 
z
M 844 2259 
Q 844 1131 1108 757 
Q 1372 384 1759 384 
Q 2147 384 2411 759 
Q 2675 1134 2675 2259 
Q 2675 3391 2411 3762 
Q 2147 4134 1753 4134 
Q 1366 4134 1134 3806 
Q 844 3388 844 2259 
z
" transform="scale(0.015625)"/>
        <path id="ArialMT-2e" d="M 581 0 
L 581 641 
L 1222 641 
L 1222 0 
L 581 0 
z
" transform="scale(0.015625)"/>
       </defs>
       <use xlink:href="#ArialMT-30"/>
       <use xlink:href="#ArialMT-2e" transform="translate(55.615234 0)"/>
       <use xlink:href="#ArialMT-30" transform="translate(83.398438 0)"/>
      </g>
     </g>
    </g>
    <g id="xtick_2">
     <g id="line2d_3">
      <path d="M 90.670111 265.022801 
L 90.670111 19.751719 
" clip-path="url(#p21d04a8952)" style="fill: none; stroke: #c0c0c0; stroke-width: 0.25; stroke-linecap: round"/>
     </g>
     <g id="line2d_4"/>
     <g id="text_2">
      <!-- 0.2 -->
      <g style="fill: #333333" transform="translate(84.415111 274.964832) scale(0.09 -0.09)">
       <defs>
        <path id="ArialMT-32" d="M 3222 541 
L 3222 0 
L 194 0 
Q 188 203 259 391 
Q 375 700 629 1000 
Q 884 1300 1366 1694 
Q 2113 2306 2375 2664 
Q 2638 3022 2638 3341 
Q 2638 3675 2398 3904 
Q 2159 4134 1775 4134 
Q 1369 4134 1125 3890 
Q 881 3647 878 3216 
L 300 3275 
Q 359 3922 746 4261 
Q 1134 4600 1788 4600 
Q 2447 4600 2831 4234 
Q 3216 3869 3216 3328 
Q 3216 3053 3103 2787 
Q 2991 2522 2730 2228 
Q 2469 1934 1863 1422 
Q 1356 997 1212 845 
Q 1069 694 975 541 
L 3222 541 
z
" transform="scale(0.015625)"/>
       </defs>
       <use xlink:href="#ArialMT-30"/>
       <use xlink:href="#ArialMT-2e" transform="translate(55.615234 0)"/>
       <use xlink:href="#ArialMT-32" transform="translate(83.398438 0)"/>
      </g>
     </g>
    </g>
    <g id="xtick_3">
     <g id="line2d_5">
      <path d="M 138.508523 265.022801 
L 138.508523 19.751719 
" clip-path="url(#p21d04a8952)" style="fill: none; stroke: #c0c0c0; stroke-width: 0.25; stroke-linecap: round"/>
     </g>
     <g id="line2d_6"/>
     <g id="text_3">
      <!-- 0.4 -->
      <g style="fill: #333333" transform="translate(132.253523 274.964832) scale(0.09 -0.09)">
       <defs>
        <path id="ArialMT-34" d="M 2069 0 
L 2069 1097 
L 81 1097 
L 81 1613 
L 2172 4581 
L 2631 4581 
L 2631 1613 
L 3250 1613 
L 3250 1097 
L 2631 1097 
L 2631 0 
L 2069 0 
z
M 2069 1613 
L 2069 3678 
L 634 1613 
L 2069 1613 
z
" transform="scale(0.015625)"/>
       </defs>
       <use xlink:href="#ArialMT-30"/>
       <use xlink:href="#ArialMT-2e" transform="translate(55.615234 0)"/>
       <use xlink:href="#ArialMT-34" transform="translate(83.398438 0)"/>
      </g>
     </g>
    </g>
    <g id="xtick_4">
     <g id="line2d_7">
      <path d="M 186.346935 265.022801 
L 186.346935 19.751719 
" clip-path="url(#p21d04a8952)" style="fill: none; stroke: #c0c0c0; stroke-width: 0.25; stroke-linecap: round"/>
     </g>
     <g id="line2d_8"/>
     <g id="text_4">
      <!-- 0.6 -->
      <g style="fill: #333333" transform="translate(180.091935 274.964832) scale(0.09 -0.09)">
       <defs>
        <path id="ArialMT-36" d="M 3184 3459 
L 2625 3416 
Q 2550 3747 2413 3897 
Q 2184 4138 1850 4138 
Q 1581 4138 1378 3988 
Q 1113 3794 959 3422 
Q 806 3050 800 2363 
Q 1003 2672 1297 2822 
Q 1591 2972 1913 2972 
Q 2475 2972 2870 2558 
Q 3266 2144 3266 1488 
Q 3266 1056 3080 686 
Q 2894 316 2569 119 
Q 2244 -78 1831 -78 
Q 1128 -78 684 439 
Q 241 956 241 2144 
Q 241 3472 731 4075 
Q 1159 4600 1884 4600 
Q 2425 4600 2770 4297 
Q 3116 3994 3184 3459 
z
M 888 1484 
Q 888 1194 1011 928 
Q 1134 663 1356 523 
Q 1578 384 1822 384 
Q 2178 384 2434 671 
Q 2691 959 2691 1453 
Q 2691 1928 2437 2201 
Q 2184 2475 1800 2475 
Q 1419 2475 1153 2201 
Q 888 1928 888 1484 
z
" transform="scale(0.015625)"/>
       </defs>
       <use xlink:href="#ArialMT-30"/>
       <use xlink:href="#ArialMT-2e" transform="translate(55.615234 0)"/>
       <use xlink:href="#ArialMT-36" transform="translate(83.398438 0)"/>
      </g>
     </g>
    </g>
    <g id="xtick_5">
     <g id="line2d_9">
      <path d="M 234.185346 265.022801 
L 234.185346 19.751719 
" clip-path="url(#p21d04a8952)" style="fill: none; stroke: #c0c0c0; stroke-width: 0.25; stroke-linecap: round"/>
     </g>
     <g id="line2d_10"/>
     <g id="text_5">
      <!-- 0.8 -->
      <g style="fill: #333333" transform="translate(227.930346 274.964832) scale(0.09 -0.09)">
       <defs>
        <path id="ArialMT-38" d="M 1131 2484 
Q 781 2613 612 2850 
Q 444 3088 444 3419 
Q 444 3919 803 4259 
Q 1163 4600 1759 4600 
Q 2359 4600 2725 4251 
Q 3091 3903 3091 3403 
Q 3091 3084 2923 2848 
Q 2756 2613 2416 2484 
Q 2838 2347 3058 2040 
Q 3278 1734 3278 1309 
Q 3278 722 2862 322 
Q 2447 -78 1769 -78 
Q 1091 -78 675 323 
Q 259 725 259 1325 
Q 259 1772 486 2073 
Q 713 2375 1131 2484 
z
M 1019 3438 
Q 1019 3113 1228 2906 
Q 1438 2700 1772 2700 
Q 2097 2700 2305 2904 
Q 2513 3109 2513 3406 
Q 2513 3716 2298 3927 
Q 2084 4138 1766 4138 
Q 1444 4138 1231 3931 
Q 1019 3725 1019 3438 
z
M 838 1322 
Q 838 1081 952 856 
Q 1066 631 1291 507 
Q 1516 384 1775 384 
Q 2178 384 2440 643 
Q 2703 903 2703 1303 
Q 2703 1709 2433 1975 
Q 2163 2241 1756 2241 
Q 1359 2241 1098 1978 
Q 838 1716 838 1322 
z
" transform="scale(0.015625)"/>
       </defs>
       <use xlink:href="#ArialMT-30"/>
       <use xlink:href="#ArialMT-2e" transform="translate(55.615234 0)"/>
       <use xlink:href="#ArialMT-38" transform="translate(83.398438 0)"/>
      </g>
     </g>
    </g>
    <g id="xtick_6">
     <g id="line2d_11">
      <path d="M 282.023758 265.022801 
L 282.023758 19.751719 
" clip-path="url(#p21d04a8952)" style="fill: none; stroke: #c0c0c0; stroke-width: 0.25; stroke-linecap: round"/>
     </g>
     <g id="line2d_12"/>
     <g id="text_6">
      <!-- 1.0 -->
      <g style="fill: #333333" transform="translate(275.768758 274.964832) scale(0.09 -0.09)">
       <defs>
        <path id="ArialMT-31" d="M 2384 0 
L 1822 0 
L 1822 3584 
Q 1619 3391 1289 3197 
Q 959 3003 697 2906 
L 697 3450 
Q 1169 3672 1522 3987 
Q 1875 4303 2022 4600 
L 2384 4600 
L 2384 0 
z
" transform="scale(0.015625)"/>
       </defs>
       <use xlink:href="#ArialMT-31"/>
       <use xlink:href="#ArialMT-2e" transform="translate(55.615234 0)"/>
       <use xlink:href="#ArialMT-30" transform="translate(83.398438 0)"/>
      </g>
     </g>
    </g>
    <g id="text_7">
     <!-- False Positive Rate (FPR) -->
     <g style="fill: #333333" transform="translate(108.165463 287.305301) scale(0.09 -0.09)">
      <defs>
       <path id="Arial-BoldMT-46" d="M 472 0 
L 472 4581 
L 3613 4581 
L 3613 3806 
L 1397 3806 
L 1397 2722 
L 3309 2722 
L 3309 1947 
L 1397 1947 
L 1397 0 
L 472 0 
z
" transform="scale(0.015625)"/>
       <path id="Arial-BoldMT-61" d="M 1116 2306 
L 319 2450 
Q 453 2931 781 3162 
Q 1109 3394 1756 3394 
Q 2344 3394 2631 3255 
Q 2919 3116 3036 2902 
Q 3153 2688 3153 2116 
L 3144 1091 
Q 3144 653 3186 445 
Q 3228 238 3344 0 
L 2475 0 
Q 2441 88 2391 259 
Q 2369 338 2359 363 
Q 2134 144 1878 34 
Q 1622 -75 1331 -75 
Q 819 -75 523 203 
Q 228 481 228 906 
Q 228 1188 362 1408 
Q 497 1628 739 1745 
Q 981 1863 1438 1950 
Q 2053 2066 2291 2166 
L 2291 2253 
Q 2291 2506 2166 2614 
Q 2041 2722 1694 2722 
Q 1459 2722 1328 2630 
Q 1197 2538 1116 2306 
z
M 2291 1594 
Q 2122 1538 1756 1459 
Q 1391 1381 1278 1306 
Q 1106 1184 1106 997 
Q 1106 813 1243 678 
Q 1381 544 1594 544 
Q 1831 544 2047 700 
Q 2206 819 2256 991 
Q 2291 1103 2291 1419 
L 2291 1594 
z
" transform="scale(0.015625)"/>
       <path id="Arial-BoldMT-6c" d="M 459 0 
L 459 4581 
L 1338 4581 
L 1338 0 
L 459 0 
z
" transform="scale(0.015625)"/>
       <path id="Arial-BoldMT-73" d="M 150 947 
L 1031 1081 
Q 1088 825 1259 692 
Q 1431 559 1741 559 
Q 2081 559 2253 684 
Q 2369 772 2369 919 
Q 2369 1019 2306 1084 
Q 2241 1147 2013 1200 
Q 950 1434 666 1628 
Q 272 1897 272 2375 
Q 272 2806 612 3100 
Q 953 3394 1669 3394 
Q 2350 3394 2681 3172 
Q 3013 2950 3138 2516 
L 2309 2363 
Q 2256 2556 2107 2659 
Q 1959 2763 1684 2763 
Q 1338 2763 1188 2666 
Q 1088 2597 1088 2488 
Q 1088 2394 1175 2328 
Q 1294 2241 1995 2081 
Q 2697 1922 2975 1691 
Q 3250 1456 3250 1038 
Q 3250 581 2869 253 
Q 2488 -75 1741 -75 
Q 1063 -75 667 200 
Q 272 475 150 947 
z
" transform="scale(0.015625)"/>
       <path id="Arial-BoldMT-65" d="M 2381 1056 
L 3256 909 
Q 3088 428 2723 176 
Q 2359 -75 1813 -75 
Q 947 -75 531 491 
Q 203 944 203 1634 
Q 203 2459 634 2926 
Q 1066 3394 1725 3394 
Q 2466 3394 2894 2905 
Q 3322 2416 3303 1406 
L 1103 1406 
Q 1113 1016 1316 798 
Q 1519 581 1822 581 
Q 2028 581 2168 693 
Q 2309 806 2381 1056 
z
M 2431 1944 
Q 2422 2325 2234 2523 
Q 2047 2722 1778 2722 
Q 1491 2722 1303 2513 
Q 1116 2303 1119 1944 
L 2431 1944 
z
" transform="scale(0.015625)"/>
       <path id="Arial-BoldMT-20" transform="scale(0.015625)"/>
       <path id="Arial-BoldMT-50" d="M 466 0 
L 466 4581 
L 1950 4581 
Q 2794 4581 3050 4513 
Q 3444 4409 3709 4064 
Q 3975 3719 3975 3172 
Q 3975 2750 3822 2462 
Q 3669 2175 3433 2011 
Q 3197 1847 2953 1794 
Q 2622 1728 1994 1728 
L 1391 1728 
L 1391 0 
L 466 0 
z
M 1391 3806 
L 1391 2506 
L 1897 2506 
Q 2444 2506 2628 2578 
Q 2813 2650 2917 2803 
Q 3022 2956 3022 3159 
Q 3022 3409 2875 3571 
Q 2728 3734 2503 3775 
Q 2338 3806 1838 3806 
L 1391 3806 
z
" transform="scale(0.015625)"/>
       <path id="Arial-BoldMT-6f" d="M 256 1706 
Q 256 2144 472 2553 
Q 688 2963 1083 3178 
Q 1478 3394 1966 3394 
Q 2719 3394 3200 2905 
Q 3681 2416 3681 1669 
Q 3681 916 3195 420 
Q 2709 -75 1972 -75 
Q 1516 -75 1102 131 
Q 688 338 472 736 
Q 256 1134 256 1706 
z
M 1156 1659 
Q 1156 1166 1390 903 
Q 1625 641 1969 641 
Q 2313 641 2545 903 
Q 2778 1166 2778 1666 
Q 2778 2153 2545 2415 
Q 2313 2678 1969 2678 
Q 1625 2678 1390 2415 
Q 1156 2153 1156 1659 
z
" transform="scale(0.015625)"/>
       <path id="Arial-BoldMT-69" d="M 459 3769 
L 459 4581 
L 1338 4581 
L 1338 3769 
L 459 3769 
z
M 459 0 
L 459 3319 
L 1338 3319 
L 1338 0 
L 459 0 
z
" transform="scale(0.015625)"/>
       <path id="Arial-BoldMT-74" d="M 1981 3319 
L 1981 2619 
L 1381 2619 
L 1381 1281 
Q 1381 875 1398 808 
Q 1416 741 1477 697 
Q 1538 653 1625 653 
Q 1747 653 1978 738 
L 2053 56 
Q 1747 -75 1359 -75 
Q 1122 -75 931 4 
Q 741 84 652 211 
Q 563 338 528 553 
Q 500 706 500 1172 
L 500 2619 
L 97 2619 
L 97 3319 
L 500 3319 
L 500 3978 
L 1381 4491 
L 1381 3319 
L 1981 3319 
z
" transform="scale(0.015625)"/>
       <path id="Arial-BoldMT-76" d="M 1372 0 
L 34 3319 
L 956 3319 
L 1581 1625 
L 1763 1059 
Q 1834 1275 1853 1344 
Q 1897 1484 1947 1625 
L 2578 3319 
L 3481 3319 
L 2163 0 
L 1372 0 
z
" transform="scale(0.015625)"/>
       <path id="Arial-BoldMT-52" d="M 469 0 
L 469 4581 
L 2416 4581 
Q 3150 4581 3483 4457 
Q 3816 4334 4016 4018 
Q 4216 3703 4216 3297 
Q 4216 2781 3912 2445 
Q 3609 2109 3006 2022 
Q 3306 1847 3501 1637 
Q 3697 1428 4028 894 
L 4588 0 
L 3481 0 
L 2813 997 
Q 2456 1531 2325 1670 
Q 2194 1809 2047 1861 
Q 1900 1913 1581 1913 
L 1394 1913 
L 1394 0 
L 469 0 
z
M 1394 2644 
L 2078 2644 
Q 2744 2644 2909 2700 
Q 3075 2756 3169 2893 
Q 3263 3031 3263 3238 
Q 3263 3469 3139 3611 
Q 3016 3753 2791 3791 
Q 2678 3806 2116 3806 
L 1394 3806 
L 1394 2644 
z
" transform="scale(0.015625)"/>
       <path id="Arial-BoldMT-28" d="M 1916 -1347 
L 1313 -1347 
Q 834 -625 584 153 
Q 334 931 334 1659 
Q 334 2563 644 3369 
Q 913 4069 1325 4659 
L 1925 4659 
Q 1497 3713 1336 3048 
Q 1175 2384 1175 1641 
Q 1175 1128 1270 590 
Q 1366 53 1531 -431 
Q 1641 -750 1916 -1347 
z
" transform="scale(0.015625)"/>
       <path id="Arial-BoldMT-29" d="M 216 -1347 
Q 475 -791 581 -494 
Q 688 -197 778 190 
Q 869 578 912 926 
Q 956 1275 956 1641 
Q 956 2384 797 3048 
Q 638 3713 209 4659 
L 806 4659 
Q 1278 3988 1539 3234 
Q 1800 2481 1800 1706 
Q 1800 1053 1594 306 
Q 1359 -531 822 -1347 
L 216 -1347 
z
" transform="scale(0.015625)"/>
      </defs>
      <use xlink:href="#Arial-BoldMT-46"/>
      <use xlink:href="#Arial-BoldMT-61" transform="translate(61.083984 0)"/>
      <use xlink:href="#Arial-BoldMT-6c" transform="translate(116.699219 0)"/>
      <use xlink:href="#Arial-BoldMT-73" transform="translate(144.482422 0)"/>
      <use xlink:href="#Arial-BoldMT-65" transform="translate(200.097656 0)"/>
      <use xlink:href="#Arial-BoldMT-20" transform="translate(255.712891 0)"/>
      <use xlink:href="#Arial-BoldMT-50" transform="translate(283.496094 0)"/>
      <use xlink:href="#Arial-BoldMT-6f" transform="translate(350.195312 0)"/>
      <use xlink:href="#Arial-BoldMT-73" transform="translate(411.279297 0)"/>
      <use xlink:href="#Arial-BoldMT-69" transform="translate(466.894531 0)"/>
      <use xlink:href="#Arial-BoldMT-74" transform="translate(494.677734 0)"/>
      <use xlink:href="#Arial-BoldMT-69" transform="translate(527.978516 0)"/>
      <use xlink:href="#Arial-BoldMT-76" transform="translate(555.761719 0)"/>
      <use xlink:href="#Arial-BoldMT-65" transform="translate(611.376953 0)"/>
      <use xlink:href="#Arial-BoldMT-20" transform="translate(666.992188 0)"/>
      <use xlink:href="#Arial-BoldMT-52" transform="translate(694.775391 0)"/>
      <use xlink:href="#Arial-BoldMT-61" transform="translate(766.992188 0)"/>
      <use xlink:href="#Arial-BoldMT-74" transform="translate(822.607422 0)"/>
      <use xlink:href="#Arial-BoldMT-65" transform="translate(855.908203 0)"/>
      <use xlink:href="#Arial-BoldMT-20" transform="translate(911.523438 0)"/>
      <use xlink:href="#Arial-BoldMT-28" transform="translate(939.306641 0)"/>
      <use xlink:href="#Arial-BoldMT-46" transform="translate(972.607422 0)"/>
      <use xlink:href="#Arial-BoldMT-50" transform="translate(1033.691406 0)"/>
      <use xlink:href="#Arial-BoldMT-52" transform="translate(1100.390625 0)"/>
      <use xlink:href="#Arial-BoldMT-29" transform="translate(1172.607422 0)"/>
     </g>
    </g>
   </g>
   <g id="matplotlib.axis_2">
    <g id="ytick_1">
     <g id="line2d_13">
      <path d="M 35.655938 265.022801 
L 289.19952 265.022801 
" clip-path="url(#p21d04a8952)" style="fill: none; stroke: #c0c0c0; stroke-width: 0.25; stroke-linecap: round"/>
     </g>
     <g id="line2d_14"/>
     <g id="text_8">
      <!-- 0.0 -->
      <g style="fill: #333333" transform="translate(19.645938 268.243817) scale(0.09 -0.09)">
       <use xlink:href="#ArialMT-30"/>
       <use xlink:href="#ArialMT-2e" transform="translate(55.615234 0)"/>
       <use xlink:href="#ArialMT-30" transform="translate(83.398438 0)"/>
      </g>
     </g>
    </g>
    <g id="ytick_2">
     <g id="line2d_15">
      <path d="M 35.655938 217.397348 
L 289.19952 217.397348 
" clip-path="url(#p21d04a8952)" style="fill: none; stroke: #c0c0c0; stroke-width: 0.25; stroke-linecap: round"/>
     </g>
     <g id="line2d_16"/>
     <g id="text_9">
      <!-- 0.2 -->
      <g style="fill: #333333" transform="translate(19.645938 220.618364) scale(0.09 -0.09)">
       <use xlink:href="#ArialMT-30"/>
       <use xlink:href="#ArialMT-2e" transform="translate(55.615234 0)"/>
       <use xlink:href="#ArialMT-32" transform="translate(83.398438 0)"/>
      </g>
     </g>
    </g>
    <g id="ytick_3">
     <g id="line2d_17">
      <path d="M 35.655938 169.771895 
L 289.19952 169.771895 
" clip-path="url(#p21d04a8952)" style="fill: none; stroke: #c0c0c0; stroke-width: 0.25; stroke-linecap: round"/>
     </g>
     <g id="line2d_18"/>
     <g id="text_10">
      <!-- 0.4 -->
      <g style="fill: #333333" transform="translate(19.645938 172.992911) scale(0.09 -0.09)">
       <use xlink:href="#ArialMT-30"/>
       <use xlink:href="#ArialMT-2e" transform="translate(55.615234 0)"/>
       <use xlink:href="#ArialMT-34" transform="translate(83.398438 0)"/>
      </g>
     </g>
    </g>
    <g id="ytick_4">
     <g id="line2d_19">
      <path d="M 35.655938 122.146443 
L 289.19952 122.146443 
" clip-path="url(#p21d04a8952)" style="fill: none; stroke: #c0c0c0; stroke-width: 0.25; stroke-linecap: round"/>
     </g>
     <g id="line2d_20"/>
     <g id="text_11">
      <!-- 0.6 -->
      <g style="fill: #333333" transform="translate(19.645938 125.367458) scale(0.09 -0.09)">
       <use xlink:href="#ArialMT-30"/>
       <use xlink:href="#ArialMT-2e" transform="translate(55.615234 0)"/>
       <use xlink:href="#ArialMT-36" transform="translate(83.398438 0)"/>
      </g>
     </g>
    </g>
    <g id="ytick_5">
     <g id="line2d_21">
      <path d="M 35.655938 74.52099 
L 289.19952 74.52099 
" clip-path="url(#p21d04a8952)" style="fill: none; stroke: #c0c0c0; stroke-width: 0.25; stroke-linecap: round"/>
     </g>
     <g id="line2d_22"/>
     <g id="text_12">
      <!-- 0.8 -->
      <g style="fill: #333333" transform="translate(19.645938 77.742005) scale(0.09 -0.09)">
       <use xlink:href="#ArialMT-30"/>
       <use xlink:href="#ArialMT-2e" transform="translate(55.615234 0)"/>
       <use xlink:href="#ArialMT-38" transform="translate(83.398438 0)"/>
      </g>
     </g>
    </g>
    <g id="ytick_6">
     <g id="line2d_23">
      <path d="M 35.655938 26.895537 
L 289.19952 26.895537 
" clip-path="url(#p21d04a8952)" style="fill: none; stroke: #c0c0c0; stroke-width: 0.25; stroke-linecap: round"/>
     </g>
     <g id="line2d_24"/>
     <g id="text_13">
      <!-- 1.0 -->
      <g style="fill: #333333" transform="translate(19.645938 30.116552) scale(0.09 -0.09)">
       <use xlink:href="#ArialMT-31"/>
       <use xlink:href="#ArialMT-2e" transform="translate(55.615234 0)"/>
       <use xlink:href="#ArialMT-30" transform="translate(83.398438 0)"/>
      </g>
     </g>
    </g>
    <g id="text_14">
     <!-- True Positive Rate (TPR) -->
     <g style="fill: #333333" transform="translate(13.751719 194.647026) rotate(-90) scale(0.09 -0.09)">
      <defs>
       <path id="Arial-BoldMT-54" d="M 1497 0 
L 1497 3806 
L 138 3806 
L 138 4581 
L 3778 4581 
L 3778 3806 
L 2422 3806 
L 2422 0 
L 1497 0 
z
" transform="scale(0.015625)"/>
       <path id="Arial-BoldMT-72" d="M 1300 0 
L 422 0 
L 422 3319 
L 1238 3319 
L 1238 2847 
Q 1447 3181 1614 3287 
Q 1781 3394 1994 3394 
Q 2294 3394 2572 3228 
L 2300 2463 
Q 2078 2606 1888 2606 
Q 1703 2606 1575 2504 
Q 1447 2403 1373 2137 
Q 1300 1872 1300 1025 
L 1300 0 
z
" transform="scale(0.015625)"/>
       <path id="Arial-BoldMT-75" d="M 2644 0 
L 2644 497 
Q 2463 231 2167 78 
Q 1872 -75 1544 -75 
Q 1209 -75 943 72 
Q 678 219 559 484 
Q 441 750 441 1219 
L 441 3319 
L 1319 3319 
L 1319 1794 
Q 1319 1094 1367 936 
Q 1416 778 1544 686 
Q 1672 594 1869 594 
Q 2094 594 2272 717 
Q 2450 841 2515 1023 
Q 2581 1206 2581 1919 
L 2581 3319 
L 3459 3319 
L 3459 0 
L 2644 0 
z
" transform="scale(0.015625)"/>
      </defs>
      <use xlink:href="#Arial-BoldMT-54"/>
      <use xlink:href="#Arial-BoldMT-72" transform="translate(55.583984 0)"/>
      <use xlink:href="#Arial-BoldMT-75" transform="translate(94.5 0)"/>
      <use xlink:href="#Arial-BoldMT-65" transform="translate(155.583984 0)"/>
      <use xlink:href="#Arial-BoldMT-20" transform="translate(211.199219 0)"/>
      <use xlink:href="#Arial-BoldMT-50" transform="translate(238.982422 0)"/>
      <use xlink:href="#Arial-BoldMT-6f" transform="translate(305.681641 0)"/>
      <use xlink:href="#Arial-BoldMT-73" transform="translate(366.765625 0)"/>
      <use xlink:href="#Arial-BoldMT-69" transform="translate(422.380859 0)"/>
      <use xlink:href="#Arial-BoldMT-74" transform="translate(450.164062 0)"/>
      <use xlink:href="#Arial-BoldMT-69" transform="translate(483.464844 0)"/>
      <use xlink:href="#Arial-BoldMT-76" transform="translate(511.248047 0)"/>
      <use xlink:href="#Arial-BoldMT-65" transform="translate(566.863281 0)"/>
      <use xlink:href="#Arial-BoldMT-20" transform="translate(622.478516 0)"/>
      <use xlink:href="#Arial-BoldMT-52" transform="translate(650.261719 0)"/>
      <use xlink:href="#Arial-BoldMT-61" transform="translate(722.478516 0)"/>
      <use xlink:href="#Arial-BoldMT-74" transform="translate(778.09375 0)"/>
      <use xlink:href="#Arial-BoldMT-65" transform="translate(811.394531 0)"/>
      <use xlink:href="#Arial-BoldMT-20" transform="translate(867.009766 0)"/>
      <use xlink:href="#Arial-BoldMT-28" transform="translate(894.792969 0)"/>
      <use xlink:href="#Arial-BoldMT-54" transform="translate(928.09375 0)"/>
      <use xlink:href="#Arial-BoldMT-50" transform="translate(989.177734 0)"/>
      <use xlink:href="#Arial-BoldMT-52" transform="translate(1055.876953 0)"/>
      <use xlink:href="#Arial-BoldMT-29" transform="translate(1128.09375 0)"/>
     </g>
    </g>
   </g>
   <g id="line2d_25">
    <path d="M 42.831699 265.022801 
L 42.942674 243.991346 
L 42.943784 243.895836 
L 43.05425 234.325664 
L 43.056275 234.230153 
L 43.167291 227.124158 
L 43.169194 227.028647 
L 43.28021 221.680048 
L 43.282592 221.584537 
L 43.393231 216.980922 
L 43.395613 216.885411 
L 43.506547 213.103187 
L 43.509763 213.007677 
L 43.62086 209.454679 
L 43.626214 209.359168 
L 43.734848 206.379235 
L 43.740334 206.283724 
L 43.851065 203.743139 
L 43.857416 203.647629 
L 43.966763 201.508189 
L 43.971526 201.412678 
L 44.08244 199.483362 
L 44.082582 199.483362 
L 44.088608 199.387852 
L 44.19825 197.745068 
L 44.208377 197.649557 
L 44.31921 195.586526 
L 44.327006 195.491015 
L 44.438073 193.829129 
L 44.446704 193.733619 
L 44.557587 192.148141 
L 44.56517 192.05263 
L 44.676013 190.295234 
L 44.68837 190.199723 
L 44.794052 188.709756 
L 44.79851 188.709756 
L 44.80593 188.614245 
L 44.915673 187.181585 
L 44.923226 187.086074 
L 45.032134 185.538801 
L 45.04783 185.44329 
L 45.158855 184.029732 
L 45.164932 183.934221 
L 45.276009 182.711684 
L 45.288579 182.616174 
L 45.399269 181.298126 
L 45.399635 181.298126 
L 45.40844 181.202615 
L 45.518142 179.808159 
L 45.518702 179.808159 
L 45.531893 179.712649 
L 45.642339 178.356397 
L 45.650125 178.260886 
L 45.759686 177.000145 
L 45.765304 176.904634 
L 45.875791 175.414667 
L 45.886559 175.319157 
L 45.990878 174.249437 
L 45.996007 174.249437 
L 46.008954 174.153926 
L 46.118077 173.217921 
L 46.131095 173.122411 
L 46.239128 172.186406 
L 46.239149 172.186406 
L 46.249429 172.090895 
L 46.35734 171.135788 
L 46.370898 171.040277 
L 46.481567 170.027864 
L 46.497497 169.932353 
L 46.607861 168.939042 
L 46.627037 168.843531 
L 46.738134 167.792914 
L 46.749676 167.697403 
L 46.859043 166.704092 
L 46.876804 166.608581 
L 46.986823 165.787189 
L 46.99638 165.691679 
L 47.10363 164.717469 
L 47.120638 164.621959 
L 47.23086 163.838771 
L 47.245201 163.74326 
L 47.355759 163.055583 
L 47.365764 162.960073 
L 47.468779 162.062272 
L 47.490989 161.966761 
L 47.592661 161.202676 
L 47.59891 161.202676 
L 47.612081 161.107165 
L 47.722476 160.094752 
L 47.736298 159.999241 
L 47.846958 159.216053 
L 47.870561 159.120543 
L 47.977638 158.375559 
L 47.994585 158.280049 
L 48.103606 157.496861 
L 48.126975 157.40135 
L 48.234958 156.694571 
L 48.236719 156.694571 
L 48.258643 156.59906 
L 48.364671 155.834975 
L 48.369608 155.834975 
L 48.390606 155.739464 
L 48.501051 154.975379 
L 48.518355 154.879868 
L 48.623385 154.115782 
L 48.641004 154.020272 
L 48.74862 153.332595 
L 48.749068 153.332595 
L 48.765068 153.237084 
L 48.867341 152.568509 
L 48.867789 152.568509 
L 48.898283 152.472998 
L 49.009167 151.460585 
L 49.031203 151.365074 
L 49.141893 150.811112 
L 49.15484 150.715602 
L 49.255809 150.008822 
L 49.263189 150.008822 
L 49.28265 149.913312 
L 49.38824 148.977307 
L 49.391345 148.977307 
L 49.414297 148.881796 
L 49.52457 148.270528 
L 49.561619 148.175017 
L 49.653744 147.48734 
L 49.666263 147.48734 
L 49.679546 147.391829 
L 49.790633 146.837867 
L 49.803997 146.742357 
L 49.913862 146.15019 
L 49.930982 146.05468 
L 50.038395 145.386105 
L 50.040024 145.386105 
L 50.06149 145.290594 
L 50.165218 144.755734 
L 50.171325 144.755734 
L 50.187936 144.660224 
L 50.294616 144.087159 
L 50.296916 144.087159 
L 50.316896 143.991649 
L 50.417611 143.418584 
L 50.425062 143.418584 
L 50.443892 143.323074 
L 50.554643 142.730907 
L 50.576537 142.635397 
L 50.684824 142.138741 
L 50.725253 142.04323 
L 50.835444 141.508371 
L 50.863577 141.41286 
L 50.962063 140.878 
L 50.967203 140.878 
L 50.996782 140.782489 
L 51.105915 140.171221 
L 51.124897 140.07571 
L 51.230081 139.44534 
L 51.23573 139.44534 
L 51.269461 139.349829 
L 51.374878 138.834071 
L 51.379866 138.834071 
L 51.421506 138.73856 
L 51.528531 138.299211 
L 51.548135 138.203701 
L 51.658336 137.687943 
L 51.70133 137.592432 
L 51.811348 137.095776 
L 51.846077 137.000266 
L 51.951036 136.618223 
L 51.99461 136.522712 
L 52.097798 135.949648 
L 52.128985 135.854137 
L 52.239777 135.204665 
L 52.258251 135.109154 
L 52.366213 134.440579 
L 52.368564 134.440579 
L 52.404718 134.345068 
L 52.505545 133.905719 
L 52.510125 133.905719 
L 52.542614 133.810209 
L 52.643777 133.218042 
L 52.648439 133.218042 
L 52.670017 133.122532 
L 52.780707 132.587672 
L 52.78085 132.587672 
L 52.810988 132.492161 
L 52.919795 132.071914 
L 52.919988 132.071914 
L 52.958076 131.976403 
L 53.0656 131.479748 
L 53.067819 131.479748 
L 53.106507 131.384237 
L 53.210622 130.925786 
L 53.216312 130.925786 
L 53.240485 130.830275 
L 53.348763 130.543743 
L 53.350137 130.543743 
L 53.380062 130.448232 
L 53.479728 129.913372 
L 53.482833 129.913372 
L 53.502986 129.817862 
L 53.610918 129.340308 
L 53.611895 129.340308 
L 53.658023 129.244797 
L 53.766423 128.786346 
L 53.768774 128.786346 
L 53.801172 128.690835 
L 53.895892 128.28969 
L 53.905969 128.28969 
L 53.947181 128.19418 
L 54.057983 127.812137 
L 54.114697 127.716626 
L 54.220878 127.296379 
L 54.221835 127.296379 
L 54.244115 127.200868 
L 54.351752 126.837928 
L 54.354459 126.837928 
L 54.377554 126.742417 
L 54.478656 126.474987 
L 54.487592 126.474987 
L 54.522474 126.379477 
L 54.63184 126.05474 
L 54.687995 125.959229 
L 54.791967 125.653595 
L 54.798868 125.653595 
L 54.854798 125.558085 
L 54.96334 125.137837 
L 54.965661 125.137837 
L 55.005784 125.042327 
L 55.115324 124.602978 
L 55.142796 124.507467 
L 55.251938 124.182731 
L 55.253516 124.182731 
L 55.281079 124.08722 
L 55.388665 123.762483 
L 55.391067 123.762483 
L 55.427088 123.666973 
L 55.527671 123.227624 
L 55.535508 123.227624 
L 55.562725 123.132113 
L 55.670586 122.711866 
L 55.69992 122.616355 
L 55.801917 122.310721 
L 55.802406 122.310721 
L 55.855995 122.21521 
L 55.959285 121.794963 
L 55.959754 121.794963 
L 56.007999 121.699452 
L 56.105763 121.470227 
L 56.116857 121.470227 
L 56.1393 121.374716 
L 56.248616 120.935367 
L 56.249705 120.935367 
L 56.310277 120.839856 
L 56.415328 120.400507 
L 56.417822 120.400507 
L 56.439023 120.304996 
L 56.53638 119.98026 
L 56.566467 119.884749 
L 56.669157 119.598217 
L 56.725586 119.502706 
L 56.833487 119.063357 
L 56.834413 119.063357 
L 56.869081 118.967847 
L 56.97803 118.662212 
L 57.009675 118.566702 
L 57.108548 118.184659 
L 57.118105 118.184659 
L 57.164804 118.089148 
L 57.272878 117.764412 
L 57.275575 117.764412 
L 57.336299 117.668901 
L 57.445401 117.325063 
L 57.481433 117.229552 
L 57.590454 116.94302 
L 57.688818 116.847509 
L 57.799049 116.465466 
L 57.837086 116.369956 
L 57.94056 116.159832 
L 57.944163 116.159832 
L 57.979278 116.064321 
L 58.090162 115.777789 
L 58.107902 115.682279 
L 58.216913 115.300236 
L 58.249677 115.204725 
L 58.357639 114.9755 
L 58.360774 114.9755 
L 58.454843 114.879989 
L 58.557747 114.555252 
L 58.560474 114.555252 
L 58.664223 114.459742 
L 58.772164 114.154108 
L 58.773019 114.154108 
L 58.816135 114.058597 
L 58.910306 113.733861 
L 58.926876 113.733861 
L 58.957442 113.63835 
L 59.066238 113.179898 
L 59.089007 113.084388 
L 59.189489 112.56863 
L 59.198598 112.56863 
L 59.247882 112.473119 
L 59.347681 112.071974 
L 59.357351 112.071974 
L 59.374053 111.976464 
L 59.483634 111.479808 
L 59.528347 111.384297 
L 59.632187 111.078663 
L 59.634661 111.078663 
L 59.685899 110.983152 
L 59.794095 110.715723 
L 59.818411 110.620212 
L 59.927747 110.219067 
L 59.942811 110.123556 
L 60.036911 109.779718 
L 60.050193 109.779718 
L 60.126928 109.684207 
L 60.232895 109.378573 
L 60.232916 109.378573 
L 60.271807 109.283062 
L 60.373571 108.977428 
L 60.380401 108.977428 
L 60.428717 108.881917 
L 60.523438 108.557181 
L 60.539336 108.557181 
L 60.602391 108.46167 
L 60.705834 108.156036 
L 60.712216 108.156036 
L 60.770263 108.060525 
L 60.874551 107.716687 
L 60.92696 107.621176 
L 61.033517 107.353746 
L 61.115138 107.258235 
L 61.226011 106.895295 
L 61.250266 106.799784 
L 61.332467 106.513252 
L 61.354747 106.513252 
L 61.43305 106.417741 
L 61.542701 106.112107 
L 61.569644 106.016596 
L 61.678919 105.768269 
L 61.67956 105.768269 
L 61.715622 105.672758 
L 61.825986 105.348021 
L 61.877458 105.252511 
L 61.986571 104.927774 
L 61.986632 104.927774 
L 62.064496 104.832264 
L 62.170983 104.507527 
L 62.174565 104.507527 
L 62.189823 104.412017 
L 62.298019 104.144587 
L 62.349043 104.049076 
L 62.459784 103.762544 
L 62.501872 103.667033 
L 62.596276 103.476012 
L 62.611096 103.476012 
L 62.668004 103.380501 
L 62.76024 103.036663 
L 62.768576 103.036663 
L 62.852466 102.941152 
L 62.958525 102.731028 
L 62.996745 102.635518 
L 63.100524 102.38719 
L 63.170836 102.291679 
L 63.266401 102.005147 
L 63.277251 102.005147 
L 63.322392 101.909636 
L 63.432747 101.661309 
L 63.495059 101.565798 
L 63.596914 101.451185 
L 63.605637 101.451185 
L 63.677537 101.355674 
L 63.780379 101.088244 
L 63.786924 101.088244 
L 63.813805 100.992734 
L 63.924302 100.744406 
L 63.998858 100.648895 
L 64.103116 100.362363 
L 64.266947 100.266853 
L 64.373016 100.037627 
L 64.377596 100.037627 
L 64.421333 99.942116 
L 64.507381 99.808401 
L 64.529061 99.808401 
L 64.590559 99.71289 
L 64.694042 99.502767 
L 64.700098 99.502767 
L 64.741545 99.407256 
L 64.787734 99.273541 
L 64.852479 99.273541 
L 64.936206 99.178031 
L 65.033593 99.025213 
L 65.041441 99.025213 
L 65.111845 98.929703 
L 65.222769 98.757784 
L 65.297722 98.662273 
L 65.40026 98.452149 
L 65.400789 98.452149 
L 65.443742 98.356639 
L 65.54179 98.089209 
L 65.554533 98.089209 
L 65.592865 97.993698 
L 65.694985 97.802677 
L 65.738487 97.707166 
L 65.8242 97.363327 
L 65.848129 97.363327 
L 65.921566 97.267817 
L 66.032612 96.94308 
L 66.068003 96.84757 
L 66.177787 96.599242 
L 66.201421 96.503731 
L 66.308223 96.331812 
L 66.311632 96.331812 
L 66.36226 96.236301 
L 66.464064 96.102586 
L 66.557084 96.007076 
L 66.659285 95.758748 
L 66.667662 95.758748 
L 66.690177 95.663237 
L 66.797101 95.434011 
L 66.799075 95.434011 
L 66.868543 95.338501 
L 66.969136 95.185684 
L 66.977879 95.185684 
L 67.068426 95.090173 
L 67.129802 94.97556 
L 67.173498 94.97556 
L 67.244044 94.880049 
L 67.352597 94.612619 
L 67.455632 94.517109 
L 67.564918 94.268781 
L 67.646497 94.17327 
L 67.755579 93.963147 
L 67.764781 93.867636 
L 67.856824 93.695717 
L 67.872834 93.695717 
L 67.945671 93.600206 
L 68.042732 93.390082 
L 68.141198 93.294572 
L 68.234371 93.027142 
L 68.250351 93.027142 
L 68.316551 92.931631 
L 68.366374 92.759712 
L 68.421826 92.759712 
L 68.5322 92.664201 
L 68.634402 92.549588 
L 68.64002 92.549588 
L 68.754822 92.454078 
L 68.84597 92.282158 
L 68.864515 92.282158 
L 68.957565 92.186648 
L 69.068062 92.014728 
L 69.119056 91.919218 
L 69.222061 91.728196 
L 69.22997 91.728196 
L 69.346329 91.632686 
L 69.446036 91.441664 
L 69.45594 91.441664 
L 69.501417 91.346154 
L 69.570477 91.155132 
L 69.607517 91.155132 
L 69.680638 91.059622 
L 69.788875 90.887702 
L 69.790941 90.887702 
L 69.919596 90.792192 
L 70.018642 90.582068 
L 70.018825 90.582068 
L 70.088649 90.486557 
L 70.197385 90.180923 
L 70.313551 90.085412 
L 70.421594 89.913493 
L 70.424627 89.913493 
L 70.516548 89.817982 
L 70.620124 89.569655 
L 70.627198 89.569655 
L 70.720493 89.474144 
L 70.824435 89.244918 
L 70.825849 89.244918 
L 70.929842 89.149408 
L 70.986077 89.034795 
L 71.038659 89.034795 
L 71.129786 88.939284 
L 71.220679 88.767365 
L 71.23727 88.767365 
L 71.262858 88.671854 
L 71.353416 88.519037 
L 71.373345 88.519037 
L 71.440227 88.423526 
L 71.542418 88.136994 
L 71.550856 88.136994 
L 71.628344 88.041484 
L 71.724652 87.850462 
L 71.725924 87.850462 
L 71.958276 87.754951 
L 72.064091 87.621237 
L 72.06801 87.621237 
L 72.219037 87.525726 
L 72.315945 87.334704 
L 72.324434 87.334704 
L 72.429169 87.239194 
L 72.517324 87.02907 
L 72.529304 87.02907 
L 72.677481 86.93356 
L 72.788131 86.780742 
L 72.880662 86.685232 
L 72.989042 86.532415 
L 73.083222 86.436904 
L 73.159642 86.322291 
L 73.190574 86.322291 
L 73.304358 86.22678 
L 73.410753 85.921146 
L 73.41458 85.921146 
L 73.524741 85.825635 
L 73.627736 85.69192 
L 73.634433 85.69192 
L 73.698587 85.59641 
L 73.794732 85.386286 
L 73.80598 85.386286 
L 73.898847 85.290776 
L 73.992631 85.004243 
L 74.007278 85.004243 
L 74.100298 84.908733 
L 74.202377 84.679507 
L 74.208677 84.679507 
L 74.265605 84.583996 
L 74.354951 84.431179 
L 74.369475 84.431179 
L 74.533694 84.335669 
L 74.637025 84.240158 
L 74.735897 84.144647 
L 74.823279 83.972728 
L 74.840694 83.972728 
L 74.964097 83.877217 
L 75.06581 83.743502 
L 75.071917 83.743502 
L 75.147919 83.647992 
L 75.192093 83.533379 
L 75.244858 83.533379 
L 75.320514 83.437868 
L 75.419356 83.304153 
L 75.431417 83.304153 
L 75.562291 83.208642 
L 75.657662 83.074927 
L 75.670457 83.074927 
L 75.874482 82.979417 
L 75.965976 82.788395 
L 75.97193 82.788395 
L 76.10312 82.692885 
L 76.18131 82.540068 
L 76.213891 82.540068 
L 76.30057 82.444557 
L 76.388237 82.329944 
L 76.398354 82.329944 
L 76.531416 82.234433 
L 76.642136 82.11982 
L 76.698983 82.02431 
L 76.77471 81.871493 
L 76.807851 81.871493 
L 76.91109 81.775982 
L 77.020599 81.642267 
L 77.110505 81.546756 
L 77.21859 81.413041 
L 77.38806 81.317531 
L 77.476581 81.202918 
L 77.495431 81.202918 
L 77.590925 81.107407 
L 77.688994 80.973692 
L 77.698511 80.973692 
L 77.769882 80.878181 
L 77.87191 80.763569 
L 77.878658 80.763569 
L 78.03171 80.668058 
L 78.131499 80.496139 
L 78.217028 80.400628 
L 78.308298 80.247811 
L 78.318232 80.247811 
L 78.502512 80.1523 
L 78.599756 79.999483 
L 78.607471 79.999483 
L 78.695178 79.903972 
L 78.793033 79.693849 
L 78.800728 79.693849 
L 78.865432 79.598338 
L 78.963725 79.388215 
L 78.975461 79.388215 
L 79.102365 79.292704 
L 79.208872 79.139887 
L 79.339766 79.044376 
L 79.428053 78.929763 
L 79.445631 78.929763 
L 79.571416 78.834253 
L 79.671642 78.662333 
L 79.779187 78.566823 
L 79.880767 78.471312 
L 79.888808 78.471312 
L 79.951507 78.375801 
L 80.054319 78.203882 
L 80.061953 78.203882 
L 80.177213 78.108371 
L 80.287801 78.031963 
L 80.363508 77.936452 
L 80.456925 77.802737 
L 80.472193 77.802737 
L 80.57988 77.707226 
L 80.678519 77.64992 
L 80.688483 77.64992 
L 80.870941 77.554409 
L 80.960277 77.458899 
L 80.969977 77.458899 
L 81.083588 77.363388 
L 81.164455 77.286979 
L 81.183224 77.286979 
L 81.23834 77.191469 
L 81.305385 77.019549 
L 81.34844 77.019549 
L 81.466794 76.924039 
L 81.576772 76.828528 
L 81.698576 76.733017 
L 81.802976 76.618404 
L 81.804839 76.618404 
L 81.902623 76.522894 
L 81.981912 76.427383 
L 82.004905 76.427383 
L 82.161998 76.331872 
L 82.251955 76.21726 
L 82.270083 76.21726 
L 82.402768 76.121749 
L 82.504318 76.007136 
L 82.512552 76.007136 
L 82.686613 75.911625 
L 82.787735 75.720604 
L 82.92779 75.625093 
L 83.037401 75.472276 
L 83.231727 75.376765 
L 83.325765 75.338561 
L 83.34259 75.338561 
L 83.439213 75.24305 
L 83.548987 75.166642 
L 83.641519 75.071131 
L 83.738773 74.937416 
L 83.740616 74.937416 
L 83.885912 74.841906 
L 83.966108 74.727293 
L 83.988704 74.727293 
L 84.110478 74.631782 
L 84.211234 74.459863 
L 84.301516 74.364352 
L 84.392602 74.211535 
L 84.408776 74.211535 
L 84.551457 74.116024 
L 84.614389 74.001411 
L 84.657648 74.001411 
L 84.820166 73.905901 
L 84.926866 73.753084 
L 85.030818 73.657573 
L 85.139727 73.562062 
L 85.293532 73.466552 
L 85.360191 73.390143 
L 85.392008 73.390143 
L 85.585133 73.294632 
L 85.645491 73.199122 
L 85.689075 73.199122 
L 86.032656 73.103611 
L 86.134053 73.0081 
L 86.342089 72.912589 
L 86.416504 72.797977 
L 86.451192 72.797977 
L 86.530013 72.702466 
L 86.616438 72.587853 
L 86.639797 72.587853 
L 86.681142 72.492342 
L 86.746853 72.37773 
L 86.776523 72.37773 
L 86.871844 72.282219 
L 86.949678 72.186708 
L 86.974188 72.186708 
L 87.140482 72.091198 
L 87.240078 71.93838 
L 87.245187 71.93838 
L 87.409426 71.84287 
L 87.515077 71.709155 
L 87.519403 71.709155 
L 87.609289 71.613644 
L 87.686298 71.518133 
L 87.717556 71.518133 
L 88.001869 71.422623 
L 88.106717 71.30801 
L 88.196459 71.212499 
L 88.292798 71.097886 
L 88.299404 71.097886 
L 88.50119 71.002376 
L 88.611626 70.792252 
L 88.735507 70.696741 
L 88.81444 70.543924 
L 88.845739 70.543924 
L 88.894341 70.448414 
L 88.989213 70.295596 
L 89.004868 70.295596 
L 89.174888 70.200086 
L 89.278809 70.047269 
L 89.284336 70.047269 
L 89.404156 69.951758 
L 89.509431 69.856247 
L 89.699329 69.760737 
L 89.804584 69.627022 
L 89.808411 69.627022 
L 90.097854 69.531511 
L 90.194894 69.493307 
L 90.207434 69.493307 
L 90.412814 69.397796 
L 90.451888 69.359592 
L 90.50504 69.359592 
L 90.597867 69.264081 
L 90.695355 69.16857 
L 90.705768 69.16857 
L 90.79604 69.07306 
L 90.886658 68.90114 
L 90.906252 68.90114 
L 90.972829 68.80563 
L 91.032392 68.729221 
L 91.076903 68.729221 
L 91.133586 68.63371 
L 91.226484 68.576404 
L 91.239136 68.576404 
L 91.47559 68.480893 
L 91.571888 68.385383 
L 91.584204 68.385383 
L 91.715037 68.289872 
L 91.805217 68.156157 
L 91.825218 68.156157 
L 91.905851 68.060646 
L 91.968173 67.984238 
L 92.01534 67.984238 
L 92.210734 67.888727 
L 92.258603 67.812318 
L 92.31778 67.812318 
L 92.638959 67.716808 
L 92.74798 67.621297 
L 92.748 67.621297 
L 92.947466 67.525786 
L 93.047744 67.353867 
L 93.050716 67.353867 
L 93.265734 67.258356 
L 93.362694 67.162846 
L 93.36819 67.162846 
L 93.498728 67.067335 
L 93.596746 66.93362 
L 93.689583 66.838109 
L 93.773544 66.742599 
L 93.792812 66.742599 
L 93.952949 66.647088 
L 94.039017 66.513373 
L 94.049786 66.513373 
L 94.207093 66.417862 
L 94.310444 66.341454 
L 94.580619 66.245943 
L 94.643206 66.169534 
L 94.676001 66.169534 
L 94.769327 66.074024 
L 94.877279 66.035819 
L 95.036743 65.940309 
L 95.112104 65.806594 
L 95.129957 65.806594 
L 95.235873 65.711083 
L 95.319743 65.577368 
L 95.417802 65.481857 
L 95.526731 65.405449 
L 95.633024 65.309938 
L 95.70358 65.23353 
L 95.744111 65.23353 
L 95.896491 65.138019 
L 95.896491 65.118917 
L 95.996413 65.118917 
L 96.165394 65.023406 
L 96.246058 64.927895 
L 96.272155 64.927895 
L 96.448873 64.832385 
L 96.544743 64.736874 
L 96.555054 64.736874 
L 96.692482 64.641363 
L 96.751293 64.584057 
L 96.802541 64.584057 
L 97.054548 64.488546 
L 97.143812 64.412138 
L 97.402771 64.316627 
L 97.51112 64.221116 
L 97.779351 64.125606 
L 97.829601 64.068299 
L 97.878112 64.068299 
L 98.309451 63.972788 
L 98.390512 63.89638 
L 98.416782 63.89638 
L 98.663965 63.800869 
L 98.760262 63.743563 
L 98.775052 63.743563 
L 98.940318 63.648052 
L 98.979841 63.590746 
L 99.0306 63.590746 
L 99.277609 63.495235 
L 99.324532 63.437929 
L 99.388696 63.437929 
L 99.594463 63.342418 
L 99.66336 63.304214 
L 99.945312 63.208703 
L 100.051503 63.113192 
L 100.332335 63.017682 
L 100.422505 62.960375 
L 100.440022 62.960375 
L 100.647071 62.864864 
L 100.750799 62.769354 
L 100.757038 62.769354 
L 100.948595 62.673843 
L 101.004271 62.616537 
L 101.044364 62.616537 
L 101.316544 62.521026 
L 101.316544 62.501924 
L 101.416903 62.501924 
L 101.551258 62.406413 
L 101.65408 62.330005 
L 101.858238 62.234494 
L 101.858238 62.215392 
L 101.952836 62.215392 
L 102.155345 62.119881 
L 102.201341 62.02437 
L 102.216945 62.02437 
L 102.464442 61.92886 
L 102.53104 61.890655 
L 102.566074 61.890655 
L 102.798996 61.795145 
L 102.859282 61.75694 
L 102.908841 61.75694 
L 103.069334 61.66143 
L 103.16267 61.546817 
L 103.176685 61.546817 
L 103.404315 61.451306 
L 103.478322 61.374898 
L 103.492572 61.374898 
L 103.702715 61.279387 
L 103.80115 61.183876 
L 103.809852 61.183876 
L 104.097941 61.088365 
L 104.176162 61.011957 
L 104.1994 61.011957 
L 104.35633 60.916446 
L 104.455467 60.85914 
L 104.458134 60.85914 
L 104.820627 60.763629 
L 104.820627 60.744527 
L 104.922085 60.744527 
L 105.126366 60.649016 
L 105.231793 60.553506 
L 105.236455 60.553506 
L 105.364102 60.457995 
L 105.436298 60.381586 
L 105.45414 60.381586 
L 105.758993 60.286076 
L 105.78275 60.247871 
L 105.842517 60.247871 
L 106.387712 60.152361 
L 106.480733 60.075952 
L 106.662386 59.980441 
L 106.720016 59.884931 
L 106.764313 59.884931 
L 107.084453 59.78942 
L 107.185983 59.636603 
L 107.186288 59.636603 
L 107.438051 59.541092 
L 107.537565 59.426479 
L 107.7621 59.330969 
L 107.789205 59.25456 
L 107.832575 59.25456 
L 108.153571 59.159049 
L 108.2317 59.063539 
L 108.249014 59.063539 
L 108.389842 58.968028 
L 108.495667 58.853415 
L 108.498588 58.853415 
L 108.702288 58.757905 
L 108.78401 58.700598 
L 108.801313 58.700598 
L 109.038765 58.605087 
L 109.113118 58.547781 
L 109.145068 58.547781 
L 109.666731 58.45227 
L 109.746183 58.394964 
L 109.773502 58.394964 
L 110.025 58.299453 
L 110.025 58.280351 
L 110.121827 58.280351 
L 110.427901 58.18484 
L 110.476391 58.146636 
L 110.510509 58.146636 
L 110.726108 58.051125 
L 110.817194 57.974717 
L 110.98526 57.879206 
L 111.08227 57.764593 
L 111.376405 57.669083 
L 111.380619 57.630878 
L 111.469893 57.630878 
L 111.931076 57.535368 
L 111.975291 57.478061 
L 111.998284 57.478061 
L 112.242443 57.382551 
L 112.333672 57.267938 
L 112.695117 57.172427 
L 112.777847 57.115121 
L 112.77972 57.115121 
L 113.243732 57.01961 
L 113.276069 56.981406 
L 113.318401 56.981406 
L 113.562336 56.885895 
L 113.644862 56.809486 
L 113.649392 56.809486 
L 113.749537 56.713976 
L 113.803584 56.656669 
L 113.842292 56.656669 
L 114.205926 56.561159 
L 114.313582 56.48475 
L 114.485434 56.389239 
L 114.565324 56.312831 
L 114.591381 56.312831 
L 114.872468 56.21732 
L 114.964684 56.102707 
L 115.234065 56.007196 
L 115.34049 55.892584 
L 115.656214 55.797073 
L 115.753305 55.720664 
L 115.75645 55.720664 
L 115.90533 55.625154 
L 115.94643 55.510541 
L 115.977688 55.510541 
L 116.229124 55.41503 
L 116.331153 55.338622 
L 116.651629 55.243111 
L 116.7601 55.185805 
L 116.761098 55.185805 
L 116.949062 55.090294 
L 117.052953 55.032987 
L 117.057442 55.032987 
L 117.300593 54.937477 
L 117.394591 54.861068 
L 117.632877 54.765557 
L 117.710406 54.61274 
L 118.05245 54.51723 
L 118.135038 54.421719 
L 118.536066 54.326208 
L 118.633667 54.230698 
L 118.635102 54.230698 
L 118.822975 54.135187 
L 118.822975 54.116085 
L 118.889246 54.116085 
L 119.096773 54.020574 
L 119.149385 53.925063 
L 119.194262 53.925063 
L 119.710907 53.829553 
L 119.710907 53.810451 
L 119.809149 53.810451 
L 120.058916 53.71494 
L 120.158735 53.657633 
L 120.276652 53.562123 
L 120.379749 53.428408 
L 120.551051 53.332897 
L 120.551051 53.313795 
L 120.628631 53.313795 
L 121.03766 53.218284 
L 121.132838 53.160978 
L 121.421039 53.065467 
L 121.499209 53.008161 
L 121.51979 53.008161 
L 121.9289 52.91265 
L 122.003436 52.817139 
L 122.033615 52.817139 
L 122.448598 52.721629 
L 122.544947 52.607016 
L 122.55828 52.607016 
L 122.910402 52.511505 
L 122.921812 52.454199 
L 123.013132 52.454199 
L 123.312967 52.358688 
L 123.380867 52.282279 
L 123.414364 52.282279 
L 123.900749 52.186769 
L 123.916881 52.148564 
L 123.966867 52.148564 
L 124.165214 52.053054 
L 124.255058 52.014849 
L 124.546588 51.919339 
L 124.652921 51.881134 
L 125.072403 51.785624 
L 125.178381 51.632807 
L 125.484699 51.537296 
L 125.592926 51.499092 
L 125.947052 51.403581 
L 126.034963 51.327172 
L 126.047422 51.327172 
L 126.235773 51.231662 
L 126.235773 51.21256 
L 126.345913 51.21256 
L 126.716793 51.117049 
L 126.716793 51.097947 
L 126.777894 51.097947 
L 127.189386 51.002436 
L 127.189386 50.983334 
L 127.295709 50.983334 
L 127.539492 50.887823 
L 127.56337 50.849619 
L 127.606883 50.849619 
L 128.147152 50.754108 
L 128.254646 50.658598 
L 128.258229 50.658598 
L 128.504902 50.563087 
L 128.596528 50.50578 
L 128.60924 50.50578 
L 128.999327 50.41027 
L 129.010686 50.352963 
L 129.060184 50.352963 
L 129.355499 50.257453 
L 129.355499 50.238351 
L 129.461477 50.238351 
L 129.706349 50.14284 
L 129.815614 50.066431 
L 130.096924 49.970921 
L 130.141037 49.913614 
L 130.56403 49.818103 
L 130.612948 49.779899 
L 130.668298 49.779899 
L 130.877779 49.684388 
L 130.963939 49.646184 
L 130.987166 49.646184 
L 131.468095 49.550674 
L 131.483373 49.512469 
L 131.555986 49.512469 
L 131.788338 49.416959 
L 131.893399 49.321448 
L 132.485965 49.225937 
L 132.485965 49.206835 
L 132.593275 49.206835 
L 133.028228 49.111324 
L 133.109523 49.034916 
L 133.391373 48.939405 
L 133.463293 48.901201 
L 133.490683 48.901201 
L 133.722944 48.80569 
L 133.771485 48.729282 
L 133.82942 48.729282 
L 134.396183 48.633771 
L 134.499972 48.576464 
L 134.901052 48.480954 
L 134.901052 48.461852 
L 134.916258 48.461852 
L 135.508844 48.366341 
L 135.603849 48.289932 
L 135.613865 48.289932 
L 135.77908 48.194422 
L 135.877271 48.137115 
L 136.377478 48.041605 
L 136.377478 48.022502 
L 136.444757 48.022502 
L 136.836045 47.926992 
L 136.890723 47.831481 
L 136.943752 47.831481 
L 137.633308 47.73597 
L 137.704953 47.697766 
L 137.742379 47.697766 
L 138.165393 47.602255 
L 138.165393 47.583153 
L 138.248042 47.583153 
L 138.635329 47.487643 
L 138.635329 47.46854 
L 138.740014 47.46854 
L 139.118762 47.37303 
L 139.218113 47.334825 
L 139.439239 47.239315 
L 139.508106 47.182008 
L 139.542753 47.182008 
L 139.818363 47.086498 
L 139.876126 47.029191 
L 139.904727 47.029191 
L 140.184907 46.93368 
L 140.253062 46.876374 
L 140.292727 46.876374 
L 140.721329 46.780863 
L 140.823795 46.704455 
L 140.824029 46.704455 
L 141.103273 46.608944 
L 141.193718 46.513433 
L 141.207764 46.513433 
L 141.470112 46.417923 
L 141.470112 46.398821 
L 141.580415 46.398821 
L 142.036071 46.30331 
L 142.100958 46.265106 
L 142.428967 46.169595 
L 142.535443 46.074084 
L 143.083387 45.978574 
L 143.138146 45.902165 
L 143.17202 45.902165 
L 143.518971 45.806654 
L 143.560254 45.76845 
L 143.620032 45.76845 
L 144.185279 45.672939 
L 144.206877 45.634735 
L 144.26583 45.634735 
L 144.492778 45.539224 
L 144.523089 45.50102 
L 144.589391 45.50102 
L 145.134088 45.405509 
L 145.134088 45.386407 
L 145.22492 45.386407 
L 145.52505 45.290897 
L 145.606538 45.23359 
L 145.634885 45.23359 
L 145.944582 45.138079 
L 146.009073 45.099875 
L 146.049257 45.099875 
L 146.431628 45.004364 
L 146.534746 44.96616 
L 146.542736 44.96616 
L 146.729316 44.870649 
L 146.749296 44.832445 
L 146.825003 44.832445 
L 147.351724 44.736934 
L 147.418881 44.69873 
L 147.45988 44.69873 
L 148.085362 44.60322 
L 148.085362 44.584117 
L 148.12064 44.584117 
L 148.569589 44.488607 
L 148.599361 44.4313 
L 148.668502 44.4313 
L 149.194338 44.33579 
L 149.194338 44.316687 
L 149.506102 44.221177 
L 149.599194 44.16387 
L 150.146974 44.06836 
L 150.146974 44.049257 
L 150.25112 44.049257 
L 151.109982 43.953747 
L 151.217904 43.877338 
L 151.218351 43.877338 
L 151.503397 43.781828 
L 151.509789 43.743623 
L 151.613517 43.743623 
L 152.148218 43.648113 
L 152.148218 43.62901 
L 152.258338 43.62901 
L 152.646603 43.5335 
L 152.73317 43.495295 
L 152.749955 43.495295 
L 153.537456 43.399785 
L 153.610171 43.36158 
L 153.614853 43.36158 
L 154.097237 43.26607 
L 154.188466 43.208763 
L 154.189647 43.208763 
L 154.734068 43.113253 
L 154.765072 43.075048 
L 154.842438 43.075048 
L 155.290205 42.979538 
L 155.304313 42.941333 
L 155.370716 42.941333 
L 155.876898 42.845823 
L 155.962834 42.788516 
L 155.967709 42.788516 
L 156.747883 42.693006 
L 156.773166 42.654801 
L 156.839427 42.654801 
L 157.39305 42.559291 
L 157.39305 42.540189 
L 158.059592 42.444678 
L 158.153416 42.406474 
L 159.230646 42.310963 
L 159.322384 42.253656 
L 159.571174 42.158146 
L 159.666607 42.081737 
L 159.678108 42.081737 
L 160.036703 41.986226 
L 160.046271 41.948022 
L 160.10155 41.948022 
L 160.742788 41.852512 
L 160.7583 41.795205 
L 161.327028 41.699694 
L 161.327028 41.680592 
L 161.420954 41.680592 
L 161.87546 41.585082 
L 161.87546 41.565979 
L 161.944052 41.565979 
L 162.711329 41.470469 
L 162.73818 41.432264 
L 162.820421 41.432264 
L 163.206447 41.336754 
L 163.250743 41.298549 
L 163.297106 41.298549 
L 163.544308 41.203039 
L 163.544308 41.183937 
L 163.613114 41.183937 
L 164.590972 41.088426 
L 164.683942 41.012017 
L 164.690476 41.012017 
L 165.584688 40.916507 
L 165.584688 40.897405 
L 165.598307 40.897405 
L 166.389188 40.801894 
L 166.389188 40.782792 
L 166.476111 40.782792 
L 167.43345 40.687281 
L 167.507213 40.629975 
L 167.516679 40.629975 
L 167.964202 40.534464 
L 168.074475 40.477158 
L 168.280343 40.381647 
L 168.375928 40.32434 
L 169.381461 40.22883 
L 169.416383 40.152421 
L 169.479448 40.152421 
L 169.832761 40.05691 
L 169.925292 39.980502 
L 169.941242 39.980502 
L 170.411534 39.884991 
L 170.491323 39.846787 
L 170.495017 39.846787 
L 171.195443 39.751276 
L 171.195443 39.732174 
L 171.282509 39.732174 
L 171.636819 39.636663 
L 171.636819 39.617561 
L 171.643109 39.617561 
L 172.067161 39.522051 
L 172.088617 39.483846 
L 172.16412 39.483846 
L 172.497218 39.388336 
L 172.524822 39.350131 
L 172.608254 39.350131 
L 173.458526 39.254621 
L 173.458526 39.235518 
L 173.543455 39.235518 
L 174.606811 39.140008 
L 174.606811 39.120906 
L 174.673164 39.120906 
L 175.455404 39.025395 
L 175.455404 39.006293 
L 175.55615 39.006293 
L 175.7456 38.910782 
L 175.7456 38.89168 
L 175.759107 38.89168 
L 176.918812 38.796169 
L 176.999801 38.757965 
L 177.029258 38.757965 
L 177.643666 38.662454 
L 177.703423 38.605148 
L 177.721765 38.605148 
L 178.425264 38.509637 
L 178.498325 38.452331 
L 178.501042 38.452331 
L 178.8661 38.35682 
L 178.974347 38.299514 
L 179.584328 38.204003 
L 179.587911 38.165799 
L 179.606425 38.165799 
L 180.396482 38.070288 
L 180.485421 38.032084 
L 180.494307 38.032084 
L 181.082913 37.936573 
L 181.183495 37.879267 
L 181.95574 37.783756 
L 181.95574 37.764654 
L 182.049096 37.764654 
L 182.859479 37.669143 
L 182.947573 37.573632 
L 182.952652 37.573632 
L 183.880839 37.478122 
L 183.880839 37.45902 
L 183.891802 37.45902 
L 185.241802 37.363509 
L 185.241802 37.344407 
L 185.330476 37.344407 
L 186.548045 37.248896 
L 186.557776 37.210692 
L 186.638938 37.210692 
L 187.193701 37.115181 
L 187.296533 37.057875 
L 187.296808 37.057875 
L 187.855011 36.962364 
L 187.899562 36.92416 
L 187.95648 36.92416 
L 188.266921 36.828649 
L 188.304825 36.790445 
L 188.377254 36.790445 
L 188.783718 36.694934 
L 188.866468 36.65673 
L 189.53584 36.561219 
L 189.641736 36.503913 
L 190.444892 36.408402 
L 190.444892 36.3893 
L 190.493433 36.3893 
L 191.439168 36.293789 
L 191.497185 36.255585 
L 191.54598 36.255585 
L 192.529324 36.160074 
L 192.633469 36.12187 
L 193.242453 36.026359 
L 193.295808 35.988155 
L 193.320714 35.988155 
L 193.950024 35.892644 
L 193.950024 35.873542 
L 194.04964 35.873542 
L 194.729525 35.778031 
L 194.785578 35.739827 
L 194.82336 35.739827 
L 195.362652 35.644316 
L 195.472578 35.606112 
L 196.823159 35.510601 
L 196.823159 35.491499 
L 196.918795 35.491499 
L 197.597449 35.395989 
L 197.664881 35.338682 
L 198.466429 35.243171 
L 198.529535 35.204967 
L 198.57036 35.204967 
L 199.479708 35.109456 
L 199.479708 35.090354 
L 199.479891 35.090354 
L 200.056955 34.994844 
L 200.1394 34.956639 
L 200.160805 34.956639 
L 200.767722 34.861129 
L 200.767722 34.842027 
L 200.795814 34.842027 
L 201.624773 34.746516 
L 201.653119 34.708312 
L 201.728093 34.708312 
L 202.669431 34.612801 
L 202.669431 34.593699 
L 202.76633 34.593699 
L 203.679871 34.498188 
L 203.679871 34.479086 
L 203.763537 34.479086 
L 204.724183 34.383575 
L 204.796847 34.345371 
L 204.814527 34.345371 
L 205.733869 34.24986 
L 205.843256 34.192554 
L 206.749642 34.097043 
L 206.749642 34.077941 
L 207.835523 33.98243 
L 207.835645 33.944226 
L 207.888115 33.944226 
L 208.589497 33.848715 
L 208.68779 33.791409 
L 209.768419 33.695898 
L 209.768419 33.676796 
L 209.877175 33.676796 
L 211.267625 33.581285 
L 211.356625 33.543081 
L 212.189939 33.44757 
L 212.189939 33.428468 
L 212.287214 33.428468 
L 213.592246 33.332958 
L 213.637469 33.294753 
L 213.637968 33.294753 
L 214.55161 33.199243 
L 214.638442 33.161038 
L 215.185704 33.065528 
L 215.185704 33.046425 
L 215.286012 33.046425 
L 216.975095 32.950915 
L 216.975095 32.931813 
L 217.072054 32.931813 
L 218.434706 32.836302 
L 218.434706 32.8172 
L 218.535157 32.8172 
L 220.229482 32.721689 
L 220.229482 32.702587 
L 220.29956 32.702587 
L 221.006591 32.607076 
L 221.055723 32.54977 
L 221.089352 32.54977 
L 222.293241 32.454259 
L 222.316021 32.416055 
L 222.369854 32.416055 
L 223.253053 32.320544 
L 223.352781 32.28234 
L 224.956661 32.186829 
L 224.970443 32.148625 
L 225.048755 32.148625 
L 226.507858 32.053114 
L 226.551268 32.01491 
L 227.509859 31.919399 
L 227.509859 31.900297 
L 227.620834 31.900297 
L 228.020783 31.804786 
L 228.020783 31.785684 
L 228.13187 31.785684 
L 229.310986 31.690174 
L 229.310986 31.671071 
L 229.421574 31.671071 
L 230.202256 31.575561 
L 230.239926 31.537356 
L 230.30063 31.537356 
L 231.463806 31.441846 
L 231.570527 31.365437 
L 232.803659 31.269927 
L 232.90299 31.193518 
L 234.279342 31.098007 
L 234.279342 31.078905 
L 234.35397 31.078905 
L 235.694331 30.983394 
L 235.694331 30.964292 
L 235.767035 30.964292 
L 237.018305 30.868782 
L 237.018305 30.849679 
L 237.071559 30.849679 
L 237.841941 30.754169 
L 237.92352 30.715964 
L 237.948691 30.715964 
L 239.663444 30.620454 
L 239.663444 30.601352 
L 239.765066 30.601352 
L 240.726068 30.505841 
L 240.825328 30.467637 
L 241.174711 30.372126 
L 241.174711 30.353024 
L 241.270958 30.353024 
L 241.958864 30.257513 
L 242.055071 30.200207 
L 242.061239 30.200207 
L 242.80707 30.104696 
L 242.80707 30.085594 
L 242.875876 30.085594 
L 243.645128 29.990083 
L 243.645128 29.970981 
L 243.684152 29.970981 
L 244.611973 29.87547 
L 244.611973 29.856368 
L 244.638895 29.856368 
L 245.412341 29.760858 
L 245.412341 29.741755 
L 245.518583 29.741755 
L 246.760336 29.646245 
L 246.760336 29.627143 
L 246.852247 29.627143 
L 247.805585 29.531632 
L 247.805585 29.51253 
L 247.908773 29.51253 
L 248.25376 29.417019 
L 248.312133 29.378815 
L 249.497925 29.283304 
L 249.497925 29.264202 
L 249.568543 29.264202 
L 250.340563 29.168691 
L 250.340563 29.149589 
L 250.425706 29.149589 
L 251.504391 29.054078 
L 251.504391 29.034976 
L 251.605523 29.034976 
L 253.596274 28.939466 
L 253.663726 28.901261 
L 253.706923 28.901261 
L 254.648607 28.805751 
L 254.648607 28.786648 
L 254.751816 28.786648 
L 256.001946 28.691138 
L 256.019788 28.652933 
L 256.100534 28.652933 
L 257.819083 28.557423 
L 257.819083 28.538321 
L 257.925386 28.538321 
L 260.382907 28.44281 
L 260.382907 28.423708 
L 260.459133 28.423708 
L 262.821751 28.328197 
L 262.821751 28.309095 
L 262.914649 28.309095 
L 264.916209 28.213584 
L 264.916209 28.194482 
L 265.020751 28.194482 
L 266.109105 28.098971 
L 266.109105 28.079869 
L 266.207072 28.079869 
L 267.620677 27.984359 
L 267.620677 27.965256 
L 267.725617 27.965256 
L 269.673536 27.869746 
L 269.673536 27.850644 
L 269.777712 27.850644 
L 271.855528 27.755133 
L 271.855528 27.736031 
L 271.96175 27.736031 
L 274.275216 27.64052 
L 274.359351 27.602316 
L 274.379076 27.602316 
L 276.121891 27.506805 
L 276.121891 27.487703 
L 276.231838 27.487703 
L 277.305577 27.392192 
L 277.390179 27.353988 
L 277.415697 27.353988 
L 277.827677 27.258477 
L 277.827677 27.239375 
L 277.938499 27.239375 
L 279.092576 27.143864 
L 279.092576 27.124762 
L 279.189617 27.124762 
L 280.98026 27.029252 
L 280.98026 27.01015 
L 281.076537 27.01015 
L 281.885434 26.914639 
L 281.885434 26.895537 
L 281.989905 26.895537 
L 282.023758 26.895537 
L 282.023758 26.895537 
" clip-path="url(#p21d04a8952)" style="fill: none; stroke: #1f77b4; stroke-width: 1.5; stroke-linecap: round"/>
   </g>
   <g id="line2d_26">
    <path d="M 42.831699 265.022801 
L 282.023758 26.895537 
" clip-path="url(#p21d04a8952)" style="fill: none; stroke-dasharray: 5.55,2.4; stroke-dashoffset: 0; stroke: #999999; stroke-width: 1.5"/>
   </g>
   <g id="patch_3">
    <path d="M 35.655938 265.022801 
L 35.655938 19.751719 
" style="fill: none"/>
   </g>
   <g id="patch_4">
    <path d="M 289.19952 265.022801 
L 289.19952 19.751719 
" style="fill: none"/>
   </g>
   <g id="patch_5">
    <path d="M 35.655938 265.022801 
L 289.19952 265.022801 
" style="fill: none"/>
   </g>
   <g id="patch_6">
    <path d="M 35.655938 19.751719 
L 289.19952 19.751719 
" style="fill: none"/>
   </g>
   <g id="text_15">
    <!-- Model 1: Receiver Operating Characteristic (ROC) Curve -->
    <g style="fill: #333333" transform="translate(42.14976 13.751719) scale(0.09 -0.09)">
     <defs>
      <path id="Arial-BoldMT-4d" d="M 453 0 
L 453 4581 
L 1838 4581 
L 2669 1456 
L 3491 4581 
L 4878 4581 
L 4878 0 
L 4019 0 
L 4019 3606 
L 3109 0 
L 2219 0 
L 1313 3606 
L 1313 0 
L 453 0 
z
" transform="scale(0.015625)"/>
      <path id="Arial-BoldMT-64" d="M 3503 0 
L 2688 0 
L 2688 488 
Q 2484 203 2207 64 
Q 1931 -75 1650 -75 
Q 1078 -75 670 386 
Q 263 847 263 1672 
Q 263 2516 659 2955 
Q 1056 3394 1663 3394 
Q 2219 3394 2625 2931 
L 2625 4581 
L 3503 4581 
L 3503 0 
z
M 1159 1731 
Q 1159 1200 1306 963 
Q 1519 619 1900 619 
Q 2203 619 2415 876 
Q 2628 1134 2628 1647 
Q 2628 2219 2422 2470 
Q 2216 2722 1894 2722 
Q 1581 2722 1370 2473 
Q 1159 2225 1159 1731 
z
" transform="scale(0.015625)"/>
      <path id="Arial-BoldMT-31" d="M 2519 0 
L 1641 0 
L 1641 3309 
Q 1159 2859 506 2644 
L 506 3441 
Q 850 3553 1253 3867 
Q 1656 4181 1806 4600 
L 2519 4600 
L 2519 0 
z
" transform="scale(0.015625)"/>
      <path id="Arial-BoldMT-3a" d="M 628 2441 
L 628 3319 
L 1506 3319 
L 1506 2441 
L 628 2441 
z
M 628 0 
L 628 878 
L 1506 878 
L 1506 0 
L 628 0 
z
" transform="scale(0.015625)"/>
      <path id="Arial-BoldMT-63" d="M 3353 2338 
L 2488 2181 
Q 2444 2441 2289 2572 
Q 2134 2703 1888 2703 
Q 1559 2703 1364 2476 
Q 1169 2250 1169 1719 
Q 1169 1128 1367 884 
Q 1566 641 1900 641 
Q 2150 641 2309 783 
Q 2469 925 2534 1272 
L 3397 1125 
Q 3263 531 2881 228 
Q 2500 -75 1859 -75 
Q 1131 -75 698 384 
Q 266 844 266 1656 
Q 266 2478 700 2936 
Q 1134 3394 1875 3394 
Q 2481 3394 2839 3133 
Q 3197 2872 3353 2338 
z
" transform="scale(0.015625)"/>
      <path id="Arial-BoldMT-4f" d="M 278 2263 
Q 278 2963 488 3438 
Q 644 3788 914 4066 
Q 1184 4344 1506 4478 
Q 1934 4659 2494 4659 
Q 3506 4659 4114 4031 
Q 4722 3403 4722 2284 
Q 4722 1175 4119 548 
Q 3516 -78 2506 -78 
Q 1484 -78 881 545 
Q 278 1169 278 2263 
z
M 1231 2294 
Q 1231 1516 1590 1114 
Q 1950 713 2503 713 
Q 3056 713 3411 1111 
Q 3766 1509 3766 2306 
Q 3766 3094 3420 3481 
Q 3075 3869 2503 3869 
Q 1931 3869 1581 3476 
Q 1231 3084 1231 2294 
z
" transform="scale(0.015625)"/>
      <path id="Arial-BoldMT-70" d="M 434 3319 
L 1253 3319 
L 1253 2831 
Q 1413 3081 1684 3237 
Q 1956 3394 2288 3394 
Q 2866 3394 3269 2941 
Q 3672 2488 3672 1678 
Q 3672 847 3265 386 
Q 2859 -75 2281 -75 
Q 2006 -75 1782 34 
Q 1559 144 1313 409 
L 1313 -1263 
L 434 -1263 
L 434 3319 
z
M 1303 1716 
Q 1303 1156 1525 889 
Q 1747 622 2066 622 
Q 2372 622 2575 867 
Q 2778 1113 2778 1672 
Q 2778 2194 2568 2447 
Q 2359 2700 2050 2700 
Q 1728 2700 1515 2451 
Q 1303 2203 1303 1716 
z
" transform="scale(0.015625)"/>
      <path id="Arial-BoldMT-6e" d="M 3478 0 
L 2600 0 
L 2600 1694 
Q 2600 2231 2544 2389 
Q 2488 2547 2361 2634 
Q 2234 2722 2056 2722 
Q 1828 2722 1647 2597 
Q 1466 2472 1398 2265 
Q 1331 2059 1331 1503 
L 1331 0 
L 453 0 
L 453 3319 
L 1269 3319 
L 1269 2831 
Q 1703 3394 2363 3394 
Q 2653 3394 2893 3289 
Q 3134 3184 3257 3021 
Q 3381 2859 3429 2653 
Q 3478 2447 3478 2063 
L 3478 0 
z
" transform="scale(0.015625)"/>
      <path id="Arial-BoldMT-67" d="M 378 -219 
L 1381 -341 
Q 1406 -516 1497 -581 
Q 1622 -675 1891 -675 
Q 2234 -675 2406 -572 
Q 2522 -503 2581 -350 
Q 2622 -241 2622 53 
L 2622 538 
Q 2228 0 1628 0 
Q 959 0 569 566 
Q 263 1013 263 1678 
Q 263 2513 664 2953 
Q 1066 3394 1663 3394 
Q 2278 3394 2678 2853 
L 2678 3319 
L 3500 3319 
L 3500 341 
Q 3500 -247 3403 -537 
Q 3306 -828 3131 -993 
Q 2956 -1159 2664 -1253 
Q 2372 -1347 1925 -1347 
Q 1081 -1347 728 -1058 
Q 375 -769 375 -325 
Q 375 -281 378 -219 
z
M 1163 1728 
Q 1163 1200 1367 954 
Q 1572 709 1872 709 
Q 2194 709 2416 961 
Q 2638 1213 2638 1706 
Q 2638 2222 2425 2472 
Q 2213 2722 1888 2722 
Q 1572 2722 1367 2476 
Q 1163 2231 1163 1728 
z
" transform="scale(0.015625)"/>
      <path id="Arial-BoldMT-43" d="M 3397 1684 
L 4294 1400 
Q 4088 650 3608 286 
Q 3128 -78 2391 -78 
Q 1478 -78 890 545 
Q 303 1169 303 2250 
Q 303 3394 893 4026 
Q 1484 4659 2447 4659 
Q 3288 4659 3813 4163 
Q 4125 3869 4281 3319 
L 3366 3100 
Q 3284 3456 3026 3662 
Q 2769 3869 2400 3869 
Q 1891 3869 1573 3503 
Q 1256 3138 1256 2319 
Q 1256 1450 1568 1081 
Q 1881 713 2381 713 
Q 2750 713 3015 947 
Q 3281 1181 3397 1684 
z
" transform="scale(0.015625)"/>
      <path id="Arial-BoldMT-68" d="M 1334 4581 
L 1334 2897 
Q 1759 3394 2350 3394 
Q 2653 3394 2897 3281 
Q 3141 3169 3264 2994 
Q 3388 2819 3433 2606 
Q 3478 2394 3478 1947 
L 3478 0 
L 2600 0 
L 2600 1753 
Q 2600 2275 2550 2415 
Q 2500 2556 2373 2639 
Q 2247 2722 2056 2722 
Q 1838 2722 1666 2615 
Q 1494 2509 1414 2295 
Q 1334 2081 1334 1663 
L 1334 0 
L 456 0 
L 456 4581 
L 1334 4581 
z
" transform="scale(0.015625)"/>
     </defs>
     <use xlink:href="#Arial-BoldMT-4d"/>
     <use xlink:href="#Arial-BoldMT-6f" transform="translate(83.300781 0)"/>
     <use xlink:href="#Arial-BoldMT-64" transform="translate(144.384766 0)"/>
     <use xlink:href="#Arial-BoldMT-65" transform="translate(205.46875 0)"/>
     <use xlink:href="#Arial-BoldMT-6c" transform="translate(261.083984 0)"/>
     <use xlink:href="#Arial-BoldMT-20" transform="translate(288.867188 0)"/>
     <use xlink:href="#Arial-BoldMT-31" transform="translate(316.650391 0)"/>
     <use xlink:href="#Arial-BoldMT-3a" transform="translate(372.265625 0)"/>
     <use xlink:href="#Arial-BoldMT-20" transform="translate(405.566406 0)"/>
     <use xlink:href="#Arial-BoldMT-52" transform="translate(433.349609 0)"/>
     <use xlink:href="#Arial-BoldMT-65" transform="translate(505.566406 0)"/>
     <use xlink:href="#Arial-BoldMT-63" transform="translate(561.181641 0)"/>
     <use xlink:href="#Arial-BoldMT-65" transform="translate(616.796875 0)"/>
     <use xlink:href="#Arial-BoldMT-69" transform="translate(672.412109 0)"/>
     <use xlink:href="#Arial-BoldMT-76" transform="translate(700.195312 0)"/>
     <use xlink:href="#Arial-BoldMT-65" transform="translate(755.810547 0)"/>
     <use xlink:href="#Arial-BoldMT-72" transform="translate(811.425781 0)"/>
     <use xlink:href="#Arial-BoldMT-20" transform="translate(850.341797 0)"/>
     <use xlink:href="#Arial-BoldMT-4f" transform="translate(878.125 0)"/>
     <use xlink:href="#Arial-BoldMT-70" transform="translate(955.908203 0)"/>
     <use xlink:href="#Arial-BoldMT-65" transform="translate(1016.992188 0)"/>
     <use xlink:href="#Arial-BoldMT-72" transform="translate(1072.607422 0)"/>
     <use xlink:href="#Arial-BoldMT-61" transform="translate(1111.523438 0)"/>
     <use xlink:href="#Arial-BoldMT-74" transform="translate(1167.138672 0)"/>
     <use xlink:href="#Arial-BoldMT-69" transform="translate(1200.439453 0)"/>
     <use xlink:href="#Arial-BoldMT-6e" transform="translate(1228.222656 0)"/>
     <use xlink:href="#Arial-BoldMT-67" transform="translate(1289.306641 0)"/>
     <use xlink:href="#Arial-BoldMT-20" transform="translate(1350.390625 0)"/>
     <use xlink:href="#Arial-BoldMT-43" transform="translate(1378.173828 0)"/>
     <use xlink:href="#Arial-BoldMT-68" transform="translate(1450.390625 0)"/>
     <use xlink:href="#Arial-BoldMT-61" transform="translate(1511.474609 0)"/>
     <use xlink:href="#Arial-BoldMT-72" transform="translate(1567.089844 0)"/>
     <use xlink:href="#Arial-BoldMT-61" transform="translate(1606.005859 0)"/>
     <use xlink:href="#Arial-BoldMT-63" transform="translate(1661.621094 0)"/>
     <use xlink:href="#Arial-BoldMT-74" transform="translate(1717.236328 0)"/>
     <use xlink:href="#Arial-BoldMT-65" transform="translate(1750.537109 0)"/>
     <use xlink:href="#Arial-BoldMT-72" transform="translate(1806.152344 0)"/>
     <use xlink:href="#Arial-BoldMT-69" transform="translate(1845.068359 0)"/>
     <use xlink:href="#Arial-BoldMT-73" transform="translate(1872.851562 0)"/>
     <use xlink:href="#Arial-BoldMT-74" transform="translate(1928.466797 0)"/>
     <use xlink:href="#Arial-BoldMT-69" transform="translate(1961.767578 0)"/>
     <use xlink:href="#Arial-BoldMT-63" transform="translate(1989.550781 0)"/>
     <use xlink:href="#Arial-BoldMT-20" transform="translate(2045.166016 0)"/>
     <use xlink:href="#Arial-BoldMT-28" transform="translate(2072.949219 0)"/>
     <use xlink:href="#Arial-BoldMT-52" transform="translate(2106.25 0)"/>
     <use xlink:href="#Arial-BoldMT-4f" transform="translate(2178.466797 0)"/>
     <use xlink:href="#Arial-BoldMT-43" transform="translate(2256.25 0)"/>
     <use xlink:href="#Arial-BoldMT-29" transform="translate(2328.466797 0)"/>
     <use xlink:href="#Arial-BoldMT-20" transform="translate(2361.767578 0)"/>
     <use xlink:href="#Arial-BoldMT-43" transform="translate(2389.550781 0)"/>
     <use xlink:href="#Arial-BoldMT-75" transform="translate(2461.767578 0)"/>
     <use xlink:href="#Arial-BoldMT-72" transform="translate(2522.851562 0)"/>
     <use xlink:href="#Arial-BoldMT-76" transform="translate(2561.767578 0)"/>
     <use xlink:href="#Arial-BoldMT-65" transform="translate(2617.382812 0)"/>
    </g>
   </g>
   <g id="legend_1">
    <g id="patch_7">
     <path d="M 182.577645 260.522801 
L 282.89952 260.522801 
Q 284.69952 260.522801 284.69952 258.722801 
L 284.69952 234.161239 
Q 284.69952 232.361239 282.89952 232.361239 
L 182.577645 232.361239 
Q 180.777645 232.361239 180.777645 234.161239 
L 180.777645 258.722801 
Q 180.777645 260.522801 182.577645 260.522801 
z
" style="fill: #ffffff; opacity: 0.8; stroke: #cccccc; stroke-width: 0.75; stroke-linejoin: miter"/>
    </g>
    <g id="line2d_27">
     <path d="M 184.377645 239.25327 
L 193.377645 239.25327 
L 202.377645 239.25327 
" style="fill: none; stroke: #1f77b4; stroke-width: 1.5; stroke-linecap: round"/>
    </g>
    <g id="text_16">
     <!-- ROC curve -->
     <g style="fill: #333333" transform="translate(209.577645 242.40327) scale(0.09 -0.09)">
      <defs>
       <path id="ArialMT-52" d="M 503 0 
L 503 4581 
L 2534 4581 
Q 3147 4581 3465 4457 
Q 3784 4334 3975 4021 
Q 4166 3709 4166 3331 
Q 4166 2844 3850 2509 
Q 3534 2175 2875 2084 
Q 3116 1969 3241 1856 
Q 3506 1613 3744 1247 
L 4541 0 
L 3778 0 
L 3172 953 
Q 2906 1366 2734 1584 
Q 2563 1803 2427 1890 
Q 2291 1978 2150 2013 
Q 2047 2034 1813 2034 
L 1109 2034 
L 1109 0 
L 503 0 
z
M 1109 2559 
L 2413 2559 
Q 2828 2559 3062 2645 
Q 3297 2731 3419 2920 
Q 3541 3109 3541 3331 
Q 3541 3656 3305 3865 
Q 3069 4075 2559 4075 
L 1109 4075 
L 1109 2559 
z
" transform="scale(0.015625)"/>
       <path id="ArialMT-4f" d="M 309 2231 
Q 309 3372 921 4017 
Q 1534 4663 2503 4663 
Q 3138 4663 3647 4359 
Q 4156 4056 4423 3514 
Q 4691 2972 4691 2284 
Q 4691 1588 4409 1038 
Q 4128 488 3612 205 
Q 3097 -78 2500 -78 
Q 1853 -78 1343 234 
Q 834 547 571 1087 
Q 309 1628 309 2231 
z
M 934 2222 
Q 934 1394 1379 917 
Q 1825 441 2497 441 
Q 3181 441 3623 922 
Q 4066 1403 4066 2288 
Q 4066 2847 3877 3264 
Q 3688 3681 3323 3911 
Q 2959 4141 2506 4141 
Q 1863 4141 1398 3698 
Q 934 3256 934 2222 
z
" transform="scale(0.015625)"/>
       <path id="ArialMT-43" d="M 3763 1606 
L 4369 1453 
Q 4178 706 3683 314 
Q 3188 -78 2472 -78 
Q 1731 -78 1267 223 
Q 803 525 561 1097 
Q 319 1669 319 2325 
Q 319 3041 592 3573 
Q 866 4106 1370 4382 
Q 1875 4659 2481 4659 
Q 3169 4659 3637 4309 
Q 4106 3959 4291 3325 
L 3694 3184 
Q 3534 3684 3231 3912 
Q 2928 4141 2469 4141 
Q 1941 4141 1586 3887 
Q 1231 3634 1087 3207 
Q 944 2781 944 2328 
Q 944 1744 1114 1308 
Q 1284 872 1643 656 
Q 2003 441 2422 441 
Q 2931 441 3284 734 
Q 3638 1028 3763 1606 
z
" transform="scale(0.015625)"/>
       <path id="ArialMT-20" transform="scale(0.015625)"/>
       <path id="ArialMT-63" d="M 2588 1216 
L 3141 1144 
Q 3050 572 2676 248 
Q 2303 -75 1759 -75 
Q 1078 -75 664 370 
Q 250 816 250 1647 
Q 250 2184 428 2587 
Q 606 2991 970 3192 
Q 1334 3394 1763 3394 
Q 2303 3394 2647 3120 
Q 2991 2847 3088 2344 
L 2541 2259 
Q 2463 2594 2264 2762 
Q 2066 2931 1784 2931 
Q 1359 2931 1093 2626 
Q 828 2322 828 1663 
Q 828 994 1084 691 
Q 1341 388 1753 388 
Q 2084 388 2306 591 
Q 2528 794 2588 1216 
z
" transform="scale(0.015625)"/>
       <path id="ArialMT-75" d="M 2597 0 
L 2597 488 
Q 2209 -75 1544 -75 
Q 1250 -75 995 37 
Q 741 150 617 320 
Q 494 491 444 738 
Q 409 903 409 1263 
L 409 3319 
L 972 3319 
L 972 1478 
Q 972 1038 1006 884 
Q 1059 663 1231 536 
Q 1403 409 1656 409 
Q 1909 409 2131 539 
Q 2353 669 2445 892 
Q 2538 1116 2538 1541 
L 2538 3319 
L 3100 3319 
L 3100 0 
L 2597 0 
z
" transform="scale(0.015625)"/>
       <path id="ArialMT-72" d="M 416 0 
L 416 3319 
L 922 3319 
L 922 2816 
Q 1116 3169 1280 3281 
Q 1444 3394 1641 3394 
Q 1925 3394 2219 3213 
L 2025 2691 
Q 1819 2813 1613 2813 
Q 1428 2813 1281 2702 
Q 1134 2591 1072 2394 
Q 978 2094 978 1738 
L 978 0 
L 416 0 
z
" transform="scale(0.015625)"/>
       <path id="ArialMT-76" d="M 1344 0 
L 81 3319 
L 675 3319 
L 1388 1331 
Q 1503 1009 1600 663 
Q 1675 925 1809 1294 
L 2547 3319 
L 3125 3319 
L 1869 0 
L 1344 0 
z
" transform="scale(0.015625)"/>
       <path id="ArialMT-65" d="M 2694 1069 
L 3275 997 
Q 3138 488 2766 206 
Q 2394 -75 1816 -75 
Q 1088 -75 661 373 
Q 234 822 234 1631 
Q 234 2469 665 2931 
Q 1097 3394 1784 3394 
Q 2450 3394 2872 2941 
Q 3294 2488 3294 1666 
Q 3294 1616 3291 1516 
L 816 1516 
Q 847 969 1125 678 
Q 1403 388 1819 388 
Q 2128 388 2347 550 
Q 2566 713 2694 1069 
z
M 847 1978 
L 2700 1978 
Q 2663 2397 2488 2606 
Q 2219 2931 1791 2931 
Q 1403 2931 1139 2672 
Q 875 2413 847 1978 
z
" transform="scale(0.015625)"/>
      </defs>
      <use xlink:href="#ArialMT-52"/>
      <use xlink:href="#ArialMT-4f" transform="translate(72.216797 0)"/>
      <use xlink:href="#ArialMT-43" transform="translate(150 0)"/>
      <use xlink:href="#ArialMT-20" transform="translate(222.216797 0)"/>
      <use xlink:href="#ArialMT-63" transform="translate(250 0)"/>
      <use xlink:href="#ArialMT-75" transform="translate(300 0)"/>
      <use xlink:href="#ArialMT-72" transform="translate(355.615234 0)"/>
      <use xlink:href="#ArialMT-76" transform="translate(388.916016 0)"/>
      <use xlink:href="#ArialMT-65" transform="translate(438.916016 0)"/>
     </g>
    </g>
    <g id="line2d_28">
     <path d="M 184.377645 251.984051 
L 193.377645 251.984051 
L 202.377645 251.984051 
" style="fill: none; stroke-dasharray: 5.55,2.4; stroke-dashoffset: 0; stroke: #999999; stroke-width: 1.5"/>
    </g>
    <g id="text_17">
     <!-- Random classifier -->
     <g style="fill: #333333" transform="translate(209.577645 255.134051) scale(0.09 -0.09)">
      <defs>
       <path id="ArialMT-61" d="M 2588 409 
Q 2275 144 1986 34 
Q 1697 -75 1366 -75 
Q 819 -75 525 192 
Q 231 459 231 875 
Q 231 1119 342 1320 
Q 453 1522 633 1644 
Q 813 1766 1038 1828 
Q 1203 1872 1538 1913 
Q 2219 1994 2541 2106 
Q 2544 2222 2544 2253 
Q 2544 2597 2384 2738 
Q 2169 2928 1744 2928 
Q 1347 2928 1158 2789 
Q 969 2650 878 2297 
L 328 2372 
Q 403 2725 575 2942 
Q 747 3159 1072 3276 
Q 1397 3394 1825 3394 
Q 2250 3394 2515 3294 
Q 2781 3194 2906 3042 
Q 3031 2891 3081 2659 
Q 3109 2516 3109 2141 
L 3109 1391 
Q 3109 606 3145 398 
Q 3181 191 3288 0 
L 2700 0 
Q 2613 175 2588 409 
z
M 2541 1666 
Q 2234 1541 1622 1453 
Q 1275 1403 1131 1340 
Q 988 1278 909 1158 
Q 831 1038 831 891 
Q 831 666 1001 516 
Q 1172 366 1500 366 
Q 1825 366 2078 508 
Q 2331 650 2450 897 
Q 2541 1088 2541 1459 
L 2541 1666 
z
" transform="scale(0.015625)"/>
       <path id="ArialMT-6e" d="M 422 0 
L 422 3319 
L 928 3319 
L 928 2847 
Q 1294 3394 1984 3394 
Q 2284 3394 2536 3286 
Q 2788 3178 2913 3003 
Q 3038 2828 3088 2588 
Q 3119 2431 3119 2041 
L 3119 0 
L 2556 0 
L 2556 2019 
Q 2556 2363 2490 2533 
Q 2425 2703 2258 2804 
Q 2091 2906 1866 2906 
Q 1506 2906 1245 2678 
Q 984 2450 984 1813 
L 984 0 
L 422 0 
z
" transform="scale(0.015625)"/>
       <path id="ArialMT-64" d="M 2575 0 
L 2575 419 
Q 2259 -75 1647 -75 
Q 1250 -75 917 144 
Q 584 363 401 755 
Q 219 1147 219 1656 
Q 219 2153 384 2558 
Q 550 2963 881 3178 
Q 1213 3394 1622 3394 
Q 1922 3394 2156 3267 
Q 2391 3141 2538 2938 
L 2538 4581 
L 3097 4581 
L 3097 0 
L 2575 0 
z
M 797 1656 
Q 797 1019 1065 703 
Q 1334 388 1700 388 
Q 2069 388 2326 689 
Q 2584 991 2584 1609 
Q 2584 2291 2321 2609 
Q 2059 2928 1675 2928 
Q 1300 2928 1048 2622 
Q 797 2316 797 1656 
z
" transform="scale(0.015625)"/>
       <path id="ArialMT-6f" d="M 213 1659 
Q 213 2581 725 3025 
Q 1153 3394 1769 3394 
Q 2453 3394 2887 2945 
Q 3322 2497 3322 1706 
Q 3322 1066 3130 698 
Q 2938 331 2570 128 
Q 2203 -75 1769 -75 
Q 1072 -75 642 372 
Q 213 819 213 1659 
z
M 791 1659 
Q 791 1022 1069 705 
Q 1347 388 1769 388 
Q 2188 388 2466 706 
Q 2744 1025 2744 1678 
Q 2744 2294 2464 2611 
Q 2184 2928 1769 2928 
Q 1347 2928 1069 2612 
Q 791 2297 791 1659 
z
" transform="scale(0.015625)"/>
       <path id="ArialMT-6d" d="M 422 0 
L 422 3319 
L 925 3319 
L 925 2853 
Q 1081 3097 1340 3245 
Q 1600 3394 1931 3394 
Q 2300 3394 2536 3241 
Q 2772 3088 2869 2813 
Q 3263 3394 3894 3394 
Q 4388 3394 4653 3120 
Q 4919 2847 4919 2278 
L 4919 0 
L 4359 0 
L 4359 2091 
Q 4359 2428 4304 2576 
Q 4250 2725 4106 2815 
Q 3963 2906 3769 2906 
Q 3419 2906 3187 2673 
Q 2956 2441 2956 1928 
L 2956 0 
L 2394 0 
L 2394 2156 
Q 2394 2531 2256 2718 
Q 2119 2906 1806 2906 
Q 1569 2906 1367 2781 
Q 1166 2656 1075 2415 
Q 984 2175 984 1722 
L 984 0 
L 422 0 
z
" transform="scale(0.015625)"/>
       <path id="ArialMT-6c" d="M 409 0 
L 409 4581 
L 972 4581 
L 972 0 
L 409 0 
z
" transform="scale(0.015625)"/>
       <path id="ArialMT-73" d="M 197 991 
L 753 1078 
Q 800 744 1014 566 
Q 1228 388 1613 388 
Q 2000 388 2187 545 
Q 2375 703 2375 916 
Q 2375 1106 2209 1216 
Q 2094 1291 1634 1406 
Q 1016 1563 777 1677 
Q 538 1791 414 1992 
Q 291 2194 291 2438 
Q 291 2659 392 2848 
Q 494 3038 669 3163 
Q 800 3259 1026 3326 
Q 1253 3394 1513 3394 
Q 1903 3394 2198 3281 
Q 2494 3169 2634 2976 
Q 2775 2784 2828 2463 
L 2278 2388 
Q 2241 2644 2061 2787 
Q 1881 2931 1553 2931 
Q 1166 2931 1000 2803 
Q 834 2675 834 2503 
Q 834 2394 903 2306 
Q 972 2216 1119 2156 
Q 1203 2125 1616 2013 
Q 2213 1853 2448 1751 
Q 2684 1650 2818 1456 
Q 2953 1263 2953 975 
Q 2953 694 2789 445 
Q 2625 197 2315 61 
Q 2006 -75 1616 -75 
Q 969 -75 630 194 
Q 291 463 197 991 
z
" transform="scale(0.015625)"/>
       <path id="ArialMT-69" d="M 425 3934 
L 425 4581 
L 988 4581 
L 988 3934 
L 425 3934 
z
M 425 0 
L 425 3319 
L 988 3319 
L 988 0 
L 425 0 
z
" transform="scale(0.015625)"/>
       <path id="ArialMT-66" d="M 556 0 
L 556 2881 
L 59 2881 
L 59 3319 
L 556 3319 
L 556 3672 
Q 556 4006 616 4169 
Q 697 4388 901 4523 
Q 1106 4659 1475 4659 
Q 1713 4659 2000 4603 
L 1916 4113 
Q 1741 4144 1584 4144 
Q 1328 4144 1222 4034 
Q 1116 3925 1116 3625 
L 1116 3319 
L 1763 3319 
L 1763 2881 
L 1116 2881 
L 1116 0 
L 556 0 
z
" transform="scale(0.015625)"/>
      </defs>
      <use xlink:href="#ArialMT-52"/>
      <use xlink:href="#ArialMT-61" transform="translate(72.216797 0)"/>
      <use xlink:href="#ArialMT-6e" transform="translate(127.832031 0)"/>
      <use xlink:href="#ArialMT-64" transform="translate(183.447266 0)"/>
      <use xlink:href="#ArialMT-6f" transform="translate(239.0625 0)"/>
      <use xlink:href="#ArialMT-6d" transform="translate(294.677734 0)"/>
      <use xlink:href="#ArialMT-20" transform="translate(377.978516 0)"/>
      <use xlink:href="#ArialMT-63" transform="translate(405.761719 0)"/>
      <use xlink:href="#ArialMT-6c" transform="translate(455.761719 0)"/>
      <use xlink:href="#ArialMT-61" transform="translate(477.978516 0)"/>
      <use xlink:href="#ArialMT-73" transform="translate(533.59375 0)"/>
      <use xlink:href="#ArialMT-73" transform="translate(583.59375 0)"/>
      <use xlink:href="#ArialMT-69" transform="translate(633.59375 0)"/>
      <use xlink:href="#ArialMT-66" transform="translate(655.810547 0)"/>
      <use xlink:href="#ArialMT-69" transform="translate(683.59375 0)"/>
      <use xlink:href="#ArialMT-65" transform="translate(705.810547 0)"/>
      <use xlink:href="#ArialMT-72" transform="translate(761.425781 0)"/>
     </g>
    </g>
   </g>
  </g>
 </g>
 <defs>
  <clipPath id="p21d04a8952">
   <rect x="35.655938" y="19.751719" width="253.543583" height="245.271083"/>
  </clipPath>
 </defs>
</svg>
