<?xml version="1.0" encoding="utf-8" standalone="no"?>
<!DOCTYPE svg PUBLIC "-//W3C//DTD SVG 1.1//EN"
  "http://www.w3.org/Graphics/SVG/1.1/DTD/svg11.dtd">
<svg xmlns:xlink="http://www.w3.org/1999/xlink" width="296.39952pt" height="296.39952pt" viewBox="0 0 296.39952 296.39952" xmlns="http://www.w3.org/2000/svg" version="1.1">
 <metadata>
  <rdf:RDF xmlns:dc="http://purl.org/dc/elements/1.1/" xmlns:cc="http://creativecommons.org/ns#" xmlns:rdf="http://www.w3.org/1999/02/22-rdf-syntax-ns#">
   <cc:Work>
    <dc:type rdf:resource="http://purl.org/dc/dcmitype/StillImage"/>
    <dc:date>2025-12-27T21:51:34.166087</dc:date>
    <dc:format>image/svg+xml</dc:format>
    <dc:creator>
     <cc:Agent>
      <dc:title>Matplotlib v3.10.8, https://matplotlib.org/</dc:title>
     </cc:Agent>
    </dc:creator>
   </cc:Work>
  </rdf:RDF>
 </metadata>
 <defs>
  <style type="text/css">*{stroke-linejoin: round; stroke-linecap: butt}</style>
 </defs>
 <g id="figure_1">
  <g id="patch_1">
   <path d="M 0 296.39952 
L 296.39952 296.39952 
L 296.39952 0 
L 0 0 
z
" style="fill: #ffffff"/>
  </g>
  <g id="axes_1">
   <g id="patch_2">
    <path d="M 35.655938 265.022801 
L 289.19952 265.022801 
L 289.19952 19.751719 
L 35.655938 19.751719 
z
" style="fill: #ffffff"/>
   </g>
   <g id="matplotlib.axis_1">
    <g id="xtick_1">
     <g id="line2d_1">
      <path d="M 42.831699 265.022801 
L 42.831699 19.751719 
" clip-path="url(#p861acc6726)" style="fill: none; stroke: #c0c0c0; stroke-width: 0.25; stroke-linecap: round"/>
     </g>
     <g id="line2d_2"/>
     <g id="text_1">
      <!-- 0.0 -->
      <g style="fill: #333333" transform="translate(36.576699 274.964832) scale(0.09 -0.09)">
       <defs>
        <path id="ArialMT-30" d="M 266 2259 
Q 266 3072 433 3567 
Q 600 4063 929 4331 
Q 1259 4600 1759 4600 
Q 2128 4600 2406 4451 
Q 2684 4303 2865 4023 
Q 3047 3744 3150 3342 
Q 3253 2941 3253 2259 
Q 3253 1453 3087 958 
Q 2922 463 2592 192 
Q 2263 -78 1759 -78 
Q 1097 -78 719 397 
Q 266 969 266 2259 
z
M 844 2259 
Q 844 1131 1108 757 
Q 1372 384 1759 384 
Q 2147 384 2411 759 
Q 2675 1134 2675 2259 
Q 2675 3391 2411 3762 
Q 2147 4134 1753 4134 
Q 1366 4134 1134 3806 
Q 844 3388 844 2259 
z
" transform="scale(0.015625)"/>
        <path id="ArialMT-2e" d="M 581 0 
L 581 641 
L 1222 641 
L 1222 0 
L 581 0 
z
" transform="scale(0.015625)"/>
       </defs>
       <use xlink:href="#ArialMT-30"/>
       <use xlink:href="#ArialMT-2e" transform="translate(55.615234 0)"/>
       <use xlink:href="#ArialMT-30" transform="translate(83.398438 0)"/>
      </g>
     </g>
    </g>
    <g id="xtick_2">
     <g id="line2d_3">
      <path d="M 90.670111 265.022801 
L 90.670111 19.751719 
" clip-path="url(#p861acc6726)" style="fill: none; stroke: #c0c0c0; stroke-width: 0.25; stroke-linecap: round"/>
     </g>
     <g id="line2d_4"/>
     <g id="text_2">
      <!-- 0.2 -->
      <g style="fill: #333333" transform="translate(84.415111 274.964832) scale(0.09 -0.09)">
       <defs>
        <path id="ArialMT-32" d="M 3222 541 
L 3222 0 
L 194 0 
Q 188 203 259 391 
Q 375 700 629 1000 
Q 884 1300 1366 1694 
Q 2113 2306 2375 2664 
Q 2638 3022 2638 3341 
Q 2638 3675 2398 3904 
Q 2159 4134 1775 4134 
Q 1369 4134 1125 3890 
Q 881 3647 878 3216 
L 300 3275 
Q 359 3922 746 4261 
Q 1134 4600 1788 4600 
Q 2447 4600 2831 4234 
Q 3216 3869 3216 3328 
Q 3216 3053 3103 2787 
Q 2991 2522 2730 2228 
Q 2469 1934 1863 1422 
Q 1356 997 1212 845 
Q 1069 694 975 541 
L 3222 541 
z
" transform="scale(0.015625)"/>
       </defs>
       <use xlink:href="#ArialMT-30"/>
       <use xlink:href="#ArialMT-2e" transform="translate(55.615234 0)"/>
       <use xlink:href="#ArialMT-32" transform="translate(83.398438 0)"/>
      </g>
     </g>
    </g>
    <g id="xtick_3">
     <g id="line2d_5">
      <path d="M 138.508523 265.022801 
L 138.508523 19.751719 
" clip-path="url(#p861acc6726)" style="fill: none; stroke: #c0c0c0; stroke-width: 0.25; stroke-linecap: round"/>
     </g>
     <g id="line2d_6"/>
     <g id="text_3">
      <!-- 0.4 -->
      <g style="fill: #333333" transform="translate(132.253523 274.964832) scale(0.09 -0.09)">
       <defs>
        <path id="ArialMT-34" d="M 2069 0 
L 2069 1097 
L 81 1097 
L 81 1613 
L 2172 4581 
L 2631 4581 
L 2631 1613 
L 3250 1613 
L 3250 1097 
L 2631 1097 
L 2631 0 
L 2069 0 
z
M 2069 1613 
L 2069 3678 
L 634 1613 
L 2069 1613 
z
" transform="scale(0.015625)"/>
       </defs>
       <use xlink:href="#ArialMT-30"/>
       <use xlink:href="#ArialMT-2e" transform="translate(55.615234 0)"/>
       <use xlink:href="#ArialMT-34" transform="translate(83.398438 0)"/>
      </g>
     </g>
    </g>
    <g id="xtick_4">
     <g id="line2d_7">
      <path d="M 186.346935 265.022801 
L 186.346935 19.751719 
" clip-path="url(#p861acc6726)" style="fill: none; stroke: #c0c0c0; stroke-width: 0.25; stroke-linecap: round"/>
     </g>
     <g id="line2d_8"/>
     <g id="text_4">
      <!-- 0.6 -->
      <g style="fill: #333333" transform="translate(180.091935 274.964832) scale(0.09 -0.09)">
       <defs>
        <path id="ArialMT-36" d="M 3184 3459 
L 2625 3416 
Q 2550 3747 2413 3897 
Q 2184 4138 1850 4138 
Q 1581 4138 1378 3988 
Q 1113 3794 959 3422 
Q 806 3050 800 2363 
Q 1003 2672 1297 2822 
Q 1591 2972 1913 2972 
Q 2475 2972 2870 2558 
Q 3266 2144 3266 1488 
Q 3266 1056 3080 686 
Q 2894 316 2569 119 
Q 2244 -78 1831 -78 
Q 1128 -78 684 439 
Q 241 956 241 2144 
Q 241 3472 731 4075 
Q 1159 4600 1884 4600 
Q 2425 4600 2770 4297 
Q 3116 3994 3184 3459 
z
M 888 1484 
Q 888 1194 1011 928 
Q 1134 663 1356 523 
Q 1578 384 1822 384 
Q 2178 384 2434 671 
Q 2691 959 2691 1453 
Q 2691 1928 2437 2201 
Q 2184 2475 1800 2475 
Q 1419 2475 1153 2201 
Q 888 1928 888 1484 
z
" transform="scale(0.015625)"/>
       </defs>
       <use xlink:href="#ArialMT-30"/>
       <use xlink:href="#ArialMT-2e" transform="translate(55.615234 0)"/>
       <use xlink:href="#ArialMT-36" transform="translate(83.398438 0)"/>
      </g>
     </g>
    </g>
    <g id="xtick_5">
     <g id="line2d_9">
      <path d="M 234.185346 265.022801 
L 234.185346 19.751719 
" clip-path="url(#p861acc6726)" style="fill: none; stroke: #c0c0c0; stroke-width: 0.25; stroke-linecap: round"/>
     </g>
     <g id="line2d_10"/>
     <g id="text_5">
      <!-- 0.8 -->
      <g style="fill: #333333" transform="translate(227.930346 274.964832) scale(0.09 -0.09)">
       <defs>
        <path id="ArialMT-38" d="M 1131 2484 
Q 781 2613 612 2850 
Q 444 3088 444 3419 
Q 444 3919 803 4259 
Q 1163 4600 1759 4600 
Q 2359 4600 2725 4251 
Q 3091 3903 3091 3403 
Q 3091 3084 2923 2848 
Q 2756 2613 2416 2484 
Q 2838 2347 3058 2040 
Q 3278 1734 3278 1309 
Q 3278 722 2862 322 
Q 2447 -78 1769 -78 
Q 1091 -78 675 323 
Q 259 725 259 1325 
Q 259 1772 486 2073 
Q 713 2375 1131 2484 
z
M 1019 3438 
Q 1019 3113 1228 2906 
Q 1438 2700 1772 2700 
Q 2097 2700 2305 2904 
Q 2513 3109 2513 3406 
Q 2513 3716 2298 3927 
Q 2084 4138 1766 4138 
Q 1444 4138 1231 3931 
Q 1019 3725 1019 3438 
z
M 838 1322 
Q 838 1081 952 856 
Q 1066 631 1291 507 
Q 1516 384 1775 384 
Q 2178 384 2440 643 
Q 2703 903 2703 1303 
Q 2703 1709 2433 1975 
Q 2163 2241 1756 2241 
Q 1359 2241 1098 1978 
Q 838 1716 838 1322 
z
" transform="scale(0.015625)"/>
       </defs>
       <use xlink:href="#ArialMT-30"/>
       <use xlink:href="#ArialMT-2e" transform="translate(55.615234 0)"/>
       <use xlink:href="#ArialMT-38" transform="translate(83.398438 0)"/>
      </g>
     </g>
    </g>
    <g id="xtick_6">
     <g id="line2d_11">
      <path d="M 282.023758 265.022801 
L 282.023758 19.751719 
" clip-path="url(#p861acc6726)" style="fill: none; stroke: #c0c0c0; stroke-width: 0.25; stroke-linecap: round"/>
     </g>
     <g id="line2d_12"/>
     <g id="text_6">
      <!-- 1.0 -->
      <g style="fill: #333333" transform="translate(275.768758 274.964832) scale(0.09 -0.09)">
       <defs>
        <path id="ArialMT-31" d="M 2384 0 
L 1822 0 
L 1822 3584 
Q 1619 3391 1289 3197 
Q 959 3003 697 2906 
L 697 3450 
Q 1169 3672 1522 3987 
Q 1875 4303 2022 4600 
L 2384 4600 
L 2384 0 
z
" transform="scale(0.015625)"/>
       </defs>
       <use xlink:href="#ArialMT-31"/>
       <use xlink:href="#ArialMT-2e" transform="translate(55.615234 0)"/>
       <use xlink:href="#ArialMT-30" transform="translate(83.398438 0)"/>
      </g>
     </g>
    </g>
    <g id="text_7">
     <!-- False Positive Rate (FPR) -->
     <g style="fill: #333333" transform="translate(108.165463 287.305301) scale(0.09 -0.09)">
      <defs>
       <path id="Arial-BoldMT-46" d="M 472 0 
L 472 4581 
L 3613 4581 
L 3613 3806 
L 1397 3806 
L 1397 2722 
L 3309 2722 
L 3309 1947 
L 1397 1947 
L 1397 0 
L 472 0 
z
" transform="scale(0.015625)"/>
       <path id="Arial-BoldMT-61" d="M 1116 2306 
L 319 2450 
Q 453 2931 781 3162 
Q 1109 3394 1756 3394 
Q 2344 3394 2631 3255 
Q 2919 3116 3036 2902 
Q 3153 2688 3153 2116 
L 3144 1091 
Q 3144 653 3186 445 
Q 3228 238 3344 0 
L 2475 0 
Q 2441 88 2391 259 
Q 2369 338 2359 363 
Q 2134 144 1878 34 
Q 1622 -75 1331 -75 
Q 819 -75 523 203 
Q 228 481 228 906 
Q 228 1188 362 1408 
Q 497 1628 739 1745 
Q 981 1863 1438 1950 
Q 2053 2066 2291 2166 
L 2291 2253 
Q 2291 2506 2166 2614 
Q 2041 2722 1694 2722 
Q 1459 2722 1328 2630 
Q 1197 2538 1116 2306 
z
M 2291 1594 
Q 2122 1538 1756 1459 
Q 1391 1381 1278 1306 
Q 1106 1184 1106 997 
Q 1106 813 1243 678 
Q 1381 544 1594 544 
Q 1831 544 2047 700 
Q 2206 819 2256 991 
Q 2291 1103 2291 1419 
L 2291 1594 
z
" transform="scale(0.015625)"/>
       <path id="Arial-BoldMT-6c" d="M 459 0 
L 459 4581 
L 1338 4581 
L 1338 0 
L 459 0 
z
" transform="scale(0.015625)"/>
       <path id="Arial-BoldMT-73" d="M 150 947 
L 1031 1081 
Q 1088 825 1259 692 
Q 1431 559 1741 559 
Q 2081 559 2253 684 
Q 2369 772 2369 919 
Q 2369 1019 2306 1084 
Q 2241 1147 2013 1200 
Q 950 1434 666 1628 
Q 272 1897 272 2375 
Q 272 2806 612 3100 
Q 953 3394 1669 3394 
Q 2350 3394 2681 3172 
Q 3013 2950 3138 2516 
L 2309 2363 
Q 2256 2556 2107 2659 
Q 1959 2763 1684 2763 
Q 1338 2763 1188 2666 
Q 1088 2597 1088 2488 
Q 1088 2394 1175 2328 
Q 1294 2241 1995 2081 
Q 2697 1922 2975 1691 
Q 3250 1456 3250 1038 
Q 3250 581 2869 253 
Q 2488 -75 1741 -75 
Q 1063 -75 667 200 
Q 272 475 150 947 
z
" transform="scale(0.015625)"/>
       <path id="Arial-BoldMT-65" d="M 2381 1056 
L 3256 909 
Q 3088 428 2723 176 
Q 2359 -75 1813 -75 
Q 947 -75 531 491 
Q 203 944 203 1634 
Q 203 2459 634 2926 
Q 1066 3394 1725 3394 
Q 2466 3394 2894 2905 
Q 3322 2416 3303 1406 
L 1103 1406 
Q 1113 1016 1316 798 
Q 1519 581 1822 581 
Q 2028 581 2168 693 
Q 2309 806 2381 1056 
z
M 2431 1944 
Q 2422 2325 2234 2523 
Q 2047 2722 1778 2722 
Q 1491 2722 1303 2513 
Q 1116 2303 1119 1944 
L 2431 1944 
z
" transform="scale(0.015625)"/>
       <path id="Arial-BoldMT-20" transform="scale(0.015625)"/>
       <path id="Arial-BoldMT-50" d="M 466 0 
L 466 4581 
L 1950 4581 
Q 2794 4581 3050 4513 
Q 3444 4409 3709 4064 
Q 3975 3719 3975 3172 
Q 3975 2750 3822 2462 
Q 3669 2175 3433 2011 
Q 3197 1847 2953 1794 
Q 2622 1728 1994 1728 
L 1391 1728 
L 1391 0 
L 466 0 
z
M 1391 3806 
L 1391 2506 
L 1897 2506 
Q 2444 2506 2628 2578 
Q 2813 2650 2917 2803 
Q 3022 2956 3022 3159 
Q 3022 3409 2875 3571 
Q 2728 3734 2503 3775 
Q 2338 3806 1838 3806 
L 1391 3806 
z
" transform="scale(0.015625)"/>
       <path id="Arial-BoldMT-6f" d="M 256 1706 
Q 256 2144 472 2553 
Q 688 2963 1083 3178 
Q 1478 3394 1966 3394 
Q 2719 3394 3200 2905 
Q 3681 2416 3681 1669 
Q 3681 916 3195 420 
Q 2709 -75 1972 -75 
Q 1516 -75 1102 131 
Q 688 338 472 736 
Q 256 1134 256 1706 
z
M 1156 1659 
Q 1156 1166 1390 903 
Q 1625 641 1969 641 
Q 2313 641 2545 903 
Q 2778 1166 2778 1666 
Q 2778 2153 2545 2415 
Q 2313 2678 1969 2678 
Q 1625 2678 1390 2415 
Q 1156 2153 1156 1659 
z
" transform="scale(0.015625)"/>
       <path id="Arial-BoldMT-69" d="M 459 3769 
L 459 4581 
L 1338 4581 
L 1338 3769 
L 459 3769 
z
M 459 0 
L 459 3319 
L 1338 3319 
L 1338 0 
L 459 0 
z
" transform="scale(0.015625)"/>
       <path id="Arial-BoldMT-74" d="M 1981 3319 
L 1981 2619 
L 1381 2619 
L 1381 1281 
Q 1381 875 1398 808 
Q 1416 741 1477 697 
Q 1538 653 1625 653 
Q 1747 653 1978 738 
L 2053 56 
Q 1747 -75 1359 -75 
Q 1122 -75 931 4 
Q 741 84 652 211 
Q 563 338 528 553 
Q 500 706 500 1172 
L 500 2619 
L 97 2619 
L 97 3319 
L 500 3319 
L 500 3978 
L 1381 4491 
L 1381 3319 
L 1981 3319 
z
" transform="scale(0.015625)"/>
       <path id="Arial-BoldMT-76" d="M 1372 0 
L 34 3319 
L 956 3319 
L 1581 1625 
L 1763 1059 
Q 1834 1275 1853 1344 
Q 1897 1484 1947 1625 
L 2578 3319 
L 3481 3319 
L 2163 0 
L 1372 0 
z
" transform="scale(0.015625)"/>
       <path id="Arial-BoldMT-52" d="M 469 0 
L 469 4581 
L 2416 4581 
Q 3150 4581 3483 4457 
Q 3816 4334 4016 4018 
Q 4216 3703 4216 3297 
Q 4216 2781 3912 2445 
Q 3609 2109 3006 2022 
Q 3306 1847 3501 1637 
Q 3697 1428 4028 894 
L 4588 0 
L 3481 0 
L 2813 997 
Q 2456 1531 2325 1670 
Q 2194 1809 2047 1861 
Q 1900 1913 1581 1913 
L 1394 1913 
L 1394 0 
L 469 0 
z
M 1394 2644 
L 2078 2644 
Q 2744 2644 2909 2700 
Q 3075 2756 3169 2893 
Q 3263 3031 3263 3238 
Q 3263 3469 3139 3611 
Q 3016 3753 2791 3791 
Q 2678 3806 2116 3806 
L 1394 3806 
L 1394 2644 
z
" transform="scale(0.015625)"/>
       <path id="Arial-BoldMT-28" d="M 1916 -1347 
L 1313 -1347 
Q 834 -625 584 153 
Q 334 931 334 1659 
Q 334 2563 644 3369 
Q 913 4069 1325 4659 
L 1925 4659 
Q 1497 3713 1336 3048 
Q 1175 2384 1175 1641 
Q 1175 1128 1270 590 
Q 1366 53 1531 -431 
Q 1641 -750 1916 -1347 
z
" transform="scale(0.015625)"/>
       <path id="Arial-BoldMT-29" d="M 216 -1347 
Q 475 -791 581 -494 
Q 688 -197 778 190 
Q 869 578 912 926 
Q 956 1275 956 1641 
Q 956 2384 797 3048 
Q 638 3713 209 4659 
L 806 4659 
Q 1278 3988 1539 3234 
Q 1800 2481 1800 1706 
Q 1800 1053 1594 306 
Q 1359 -531 822 -1347 
L 216 -1347 
z
" transform="scale(0.015625)"/>
      </defs>
      <use xlink:href="#Arial-BoldMT-46"/>
      <use xlink:href="#Arial-BoldMT-61" transform="translate(61.083984 0)"/>
      <use xlink:href="#Arial-BoldMT-6c" transform="translate(116.699219 0)"/>
      <use xlink:href="#Arial-BoldMT-73" transform="translate(144.482422 0)"/>
      <use xlink:href="#Arial-BoldMT-65" transform="translate(200.097656 0)"/>
      <use xlink:href="#Arial-BoldMT-20" transform="translate(255.712891 0)"/>
      <use xlink:href="#Arial-BoldMT-50" transform="translate(283.496094 0)"/>
      <use xlink:href="#Arial-BoldMT-6f" transform="translate(350.195312 0)"/>
      <use xlink:href="#Arial-BoldMT-73" transform="translate(411.279297 0)"/>
      <use xlink:href="#Arial-BoldMT-69" transform="translate(466.894531 0)"/>
      <use xlink:href="#Arial-BoldMT-74" transform="translate(494.677734 0)"/>
      <use xlink:href="#Arial-BoldMT-69" transform="translate(527.978516 0)"/>
      <use xlink:href="#Arial-BoldMT-76" transform="translate(555.761719 0)"/>
      <use xlink:href="#Arial-BoldMT-65" transform="translate(611.376953 0)"/>
      <use xlink:href="#Arial-BoldMT-20" transform="translate(666.992188 0)"/>
      <use xlink:href="#Arial-BoldMT-52" transform="translate(694.775391 0)"/>
      <use xlink:href="#Arial-BoldMT-61" transform="translate(766.992188 0)"/>
      <use xlink:href="#Arial-BoldMT-74" transform="translate(822.607422 0)"/>
      <use xlink:href="#Arial-BoldMT-65" transform="translate(855.908203 0)"/>
      <use xlink:href="#Arial-BoldMT-20" transform="translate(911.523438 0)"/>
      <use xlink:href="#Arial-BoldMT-28" transform="translate(939.306641 0)"/>
      <use xlink:href="#Arial-BoldMT-46" transform="translate(972.607422 0)"/>
      <use xlink:href="#Arial-BoldMT-50" transform="translate(1033.691406 0)"/>
      <use xlink:href="#Arial-BoldMT-52" transform="translate(1100.390625 0)"/>
      <use xlink:href="#Arial-BoldMT-29" transform="translate(1172.607422 0)"/>
     </g>
    </g>
   </g>
   <g id="matplotlib.axis_2">
    <g id="ytick_1">
     <g id="line2d_13">
      <path d="M 35.655938 265.022801 
L 289.19952 265.022801 
" clip-path="url(#p861acc6726)" style="fill: none; stroke: #c0c0c0; stroke-width: 0.25; stroke-linecap: round"/>
     </g>
     <g id="line2d_14"/>
     <g id="text_8">
      <!-- 0.0 -->
      <g style="fill: #333333" transform="translate(19.645938 268.243817) scale(0.09 -0.09)">
       <use xlink:href="#ArialMT-30"/>
       <use xlink:href="#ArialMT-2e" transform="translate(55.615234 0)"/>
       <use xlink:href="#ArialMT-30" transform="translate(83.398438 0)"/>
      </g>
     </g>
    </g>
    <g id="ytick_2">
     <g id="line2d_15">
      <path d="M 35.655938 217.397348 
L 289.19952 217.397348 
" clip-path="url(#p861acc6726)" style="fill: none; stroke: #c0c0c0; stroke-width: 0.25; stroke-linecap: round"/>
     </g>
     <g id="line2d_16"/>
     <g id="text_9">
      <!-- 0.2 -->
      <g style="fill: #333333" transform="translate(19.645938 220.618364) scale(0.09 -0.09)">
       <use xlink:href="#ArialMT-30"/>
       <use xlink:href="#ArialMT-2e" transform="translate(55.615234 0)"/>
       <use xlink:href="#ArialMT-32" transform="translate(83.398438 0)"/>
      </g>
     </g>
    </g>
    <g id="ytick_3">
     <g id="line2d_17">
      <path d="M 35.655938 169.771895 
L 289.19952 169.771895 
" clip-path="url(#p861acc6726)" style="fill: none; stroke: #c0c0c0; stroke-width: 0.25; stroke-linecap: round"/>
     </g>
     <g id="line2d_18"/>
     <g id="text_10">
      <!-- 0.4 -->
      <g style="fill: #333333" transform="translate(19.645938 172.992911) scale(0.09 -0.09)">
       <use xlink:href="#ArialMT-30"/>
       <use xlink:href="#ArialMT-2e" transform="translate(55.615234 0)"/>
       <use xlink:href="#ArialMT-34" transform="translate(83.398438 0)"/>
      </g>
     </g>
    </g>
    <g id="ytick_4">
     <g id="line2d_19">
      <path d="M 35.655938 122.146443 
L 289.19952 122.146443 
" clip-path="url(#p861acc6726)" style="fill: none; stroke: #c0c0c0; stroke-width: 0.25; stroke-linecap: round"/>
     </g>
     <g id="line2d_20"/>
     <g id="text_11">
      <!-- 0.6 -->
      <g style="fill: #333333" transform="translate(19.645938 125.367458) scale(0.09 -0.09)">
       <use xlink:href="#ArialMT-30"/>
       <use xlink:href="#ArialMT-2e" transform="translate(55.615234 0)"/>
       <use xlink:href="#ArialMT-36" transform="translate(83.398438 0)"/>
      </g>
     </g>
    </g>
    <g id="ytick_5">
     <g id="line2d_21">
      <path d="M 35.655938 74.52099 
L 289.19952 74.52099 
" clip-path="url(#p861acc6726)" style="fill: none; stroke: #c0c0c0; stroke-width: 0.25; stroke-linecap: round"/>
     </g>
     <g id="line2d_22"/>
     <g id="text_12">
      <!-- 0.8 -->
      <g style="fill: #333333" transform="translate(19.645938 77.742005) scale(0.09 -0.09)">
       <use xlink:href="#ArialMT-30"/>
       <use xlink:href="#ArialMT-2e" transform="translate(55.615234 0)"/>
       <use xlink:href="#ArialMT-38" transform="translate(83.398438 0)"/>
      </g>
     </g>
    </g>
    <g id="ytick_6">
     <g id="line2d_23">
      <path d="M 35.655938 26.895537 
L 289.19952 26.895537 
" clip-path="url(#p861acc6726)" style="fill: none; stroke: #c0c0c0; stroke-width: 0.25; stroke-linecap: round"/>
     </g>
     <g id="line2d_24"/>
     <g id="text_13">
      <!-- 1.0 -->
      <g style="fill: #333333" transform="translate(19.645938 30.116552) scale(0.09 -0.09)">
       <use xlink:href="#ArialMT-31"/>
       <use xlink:href="#ArialMT-2e" transform="translate(55.615234 0)"/>
       <use xlink:href="#ArialMT-30" transform="translate(83.398438 0)"/>
      </g>
     </g>
    </g>
    <g id="text_14">
     <!-- True Positive Rate (TPR) -->
     <g style="fill: #333333" transform="translate(13.751719 194.647026) rotate(-90) scale(0.09 -0.09)">
      <defs>
       <path id="Arial-BoldMT-54" d="M 1497 0 
L 1497 3806 
L 138 3806 
L 138 4581 
L 3778 4581 
L 3778 3806 
L 2422 3806 
L 2422 0 
L 1497 0 
z
" transform="scale(0.015625)"/>
       <path id="Arial-BoldMT-72" d="M 1300 0 
L 422 0 
L 422 3319 
L 1238 3319 
L 1238 2847 
Q 1447 3181 1614 3287 
Q 1781 3394 1994 3394 
Q 2294 3394 2572 3228 
L 2300 2463 
Q 2078 2606 1888 2606 
Q 1703 2606 1575 2504 
Q 1447 2403 1373 2137 
Q 1300 1872 1300 1025 
L 1300 0 
z
" transform="scale(0.015625)"/>
       <path id="Arial-BoldMT-75" d="M 2644 0 
L 2644 497 
Q 2463 231 2167 78 
Q 1872 -75 1544 -75 
Q 1209 -75 943 72 
Q 678 219 559 484 
Q 441 750 441 1219 
L 441 3319 
L 1319 3319 
L 1319 1794 
Q 1319 1094 1367 936 
Q 1416 778 1544 686 
Q 1672 594 1869 594 
Q 2094 594 2272 717 
Q 2450 841 2515 1023 
Q 2581 1206 2581 1919 
L 2581 3319 
L 3459 3319 
L 3459 0 
L 2644 0 
z
" transform="scale(0.015625)"/>
      </defs>
      <use xlink:href="#Arial-BoldMT-54"/>
      <use xlink:href="#Arial-BoldMT-72" transform="translate(55.583984 0)"/>
      <use xlink:href="#Arial-BoldMT-75" transform="translate(94.5 0)"/>
      <use xlink:href="#Arial-BoldMT-65" transform="translate(155.583984 0)"/>
      <use xlink:href="#Arial-BoldMT-20" transform="translate(211.199219 0)"/>
      <use xlink:href="#Arial-BoldMT-50" transform="translate(238.982422 0)"/>
      <use xlink:href="#Arial-BoldMT-6f" transform="translate(305.681641 0)"/>
      <use xlink:href="#Arial-BoldMT-73" transform="translate(366.765625 0)"/>
      <use xlink:href="#Arial-BoldMT-69" transform="translate(422.380859 0)"/>
      <use xlink:href="#Arial-BoldMT-74" transform="translate(450.164062 0)"/>
      <use xlink:href="#Arial-BoldMT-69" transform="translate(483.464844 0)"/>
      <use xlink:href="#Arial-BoldMT-76" transform="translate(511.248047 0)"/>
      <use xlink:href="#Arial-BoldMT-65" transform="translate(566.863281 0)"/>
      <use xlink:href="#Arial-BoldMT-20" transform="translate(622.478516 0)"/>
      <use xlink:href="#Arial-BoldMT-52" transform="translate(650.261719 0)"/>
      <use xlink:href="#Arial-BoldMT-61" transform="translate(722.478516 0)"/>
      <use xlink:href="#Arial-BoldMT-74" transform="translate(778.09375 0)"/>
      <use xlink:href="#Arial-BoldMT-65" transform="translate(811.394531 0)"/>
      <use xlink:href="#Arial-BoldMT-20" transform="translate(867.009766 0)"/>
      <use xlink:href="#Arial-BoldMT-28" transform="translate(894.792969 0)"/>
      <use xlink:href="#Arial-BoldMT-54" transform="translate(928.09375 0)"/>
      <use xlink:href="#Arial-BoldMT-50" transform="translate(989.177734 0)"/>
      <use xlink:href="#Arial-BoldMT-52" transform="translate(1055.876953 0)"/>
      <use xlink:href="#Arial-BoldMT-29" transform="translate(1128.09375 0)"/>
     </g>
    </g>
   </g>
   <g id="line2d_25">
    <path d="M 42.831699 265.022801 
L 42.832025 264.927291 
L 42.943112 243.953142 
L 42.945992 243.857631 
L 43.057008 233.943621 
L 43.05827 233.84811 
L 43.169082 227.372485 
L 43.171189 227.276975 
L 43.280912 222.138499 
L 43.284271 222.042989 
L 43.393821 217.897824 
L 43.402239 217.802314 
L 43.51246 213.638047 
L 43.516237 213.542537 
L 43.627201 209.894028 
L 43.632219 209.798517 
L 43.743143 206.742175 
L 43.746136 206.646665 
L 43.85707 203.743139 
L 43.865488 203.647629 
L 43.976106 201.546393 
L 43.980076 201.450883 
L 44.091031 199.273239 
L 44.095529 199.177728 
L 44.20571 197.095595 
L 44.205955 197.095595 
L 44.209609 197.000084 
L 44.318151 195.471913 
L 44.324869 195.376403 
L 44.432994 193.886436 
L 44.445157 193.790925 
L 44.555267 192.339162 
L 44.555531 192.339162 
L 44.562005 192.243652 
L 44.670395 190.868298 
L 44.681428 190.791889 
L 44.792169 189.531148 
L 44.798887 189.435637 
L 44.907683 187.94567 
L 44.913953 187.85016 
L 45.024185 186.24558 
L 45.032766 186.150069 
L 45.141857 184.621898 
L 45.142621 184.621898 
L 45.152239 184.526388 
L 45.26294 182.788093 
L 45.276894 182.692582 
L 45.387859 181.145309 
L 45.40275 181.049798 
L 45.513175 179.712649 
L 45.525349 179.617138 
L 45.628028 178.260886 
L 45.660039 178.165375 
L 45.770851 176.637204 
L 45.790791 176.541693 
L 45.899374 175.204544 
L 45.913339 175.109033 
L 46.022034 174.001109 
L 46.040334 173.905598 
L 46.151258 172.835879 
L 46.167127 172.740368 
L 46.274732 171.766159 
L 46.28999 171.670648 
L 46.398756 170.88746 
L 46.401016 170.88746 
L 46.409311 170.79195 
L 46.520286 169.760434 
L 46.52621 169.664923 
L 46.636432 168.748021 
L 46.637185 168.748021 
L 46.657684 168.65251 
L 46.766542 167.601892 
L 46.777718 167.506382 
L 46.887909 166.474866 
L 46.918953 166.379356 
L 47.028829 165.462453 
L 47.036707 165.366942 
L 47.144476 164.507346 
L 47.159153 164.411835 
L 47.265385 163.590443 
L 47.267471 163.590443 
L 47.284836 163.494933 
L 47.394467 162.597132 
L 47.405053 162.501621 
L 47.50362 161.737536 
L 47.515956 161.737536 
L 47.525504 161.642025 
L 47.635043 160.763327 
L 47.647074 160.667816 
L 47.745968 159.884628 
L 47.77806 159.789118 
L 47.884587 159.27336 
L 47.906857 159.177849 
L 48.016529 158.490172 
L 48.028499 158.394661 
L 48.137805 157.477759 
L 48.155414 157.382248 
L 48.264556 156.790082 
L 48.266297 156.790082 
L 48.283967 156.694571 
L 48.392723 155.96869 
L 48.41368 155.873179 
L 48.524736 155.032685 
L 48.547047 154.937174 
L 48.656933 154.134884 
L 48.665951 154.039374 
L 48.76685 153.389901 
L 48.776662 153.389901 
L 48.801741 153.29439 
L 48.90439 152.683122 
L 48.91181 152.683122 
L 48.947628 152.587611 
L 49.058359 151.919036 
L 49.079784 151.823526 
L 49.188632 151.097644 
L 49.204073 151.002134 
L 49.31118 150.429069 
L 49.334906 150.333559 
L 49.443468 149.760495 
L 49.443601 149.760495 
L 49.461352 149.664984 
L 49.569589 148.958205 
L 49.5879 148.862694 
L 49.697673 148.194119 
L 49.720483 148.098609 
L 49.82927 147.391829 
L 49.83954 147.296319 
L 49.943909 146.570437 
L 49.949874 146.570437 
L 49.958271 146.474927 
L 50.069256 145.959169 
L 50.087394 145.863658 
L 50.19843 145.042266 
L 50.240813 144.946756 
L 50.350067 144.316385 
L 50.36849 144.220874 
L 50.475821 143.494993 
L 50.48827 143.399482 
L 50.586847 142.960133 
L 50.598023 142.960133 
L 50.618858 142.864622 
L 50.727075 142.329763 
L 50.754302 142.234252 
L 50.864972 141.546575 
L 50.883049 141.451064 
L 50.991876 140.858898 
L 50.993749 140.858898 
L 51.015581 140.763387 
L 51.118872 140.266732 
L 51.147534 140.171221 
L 51.257257 139.731872 
L 51.276871 139.636361 
L 51.385108 139.101501 
L 51.405515 139.00599 
L 51.511839 138.394722 
L 51.538343 138.299211 
L 51.634916 137.84076 
L 51.646204 137.84076 
L 51.685981 137.745249 
L 51.786696 137.286798 
L 51.796671 137.286798 
L 51.818351 137.191287 
L 51.925519 136.656427 
L 51.958263 136.560917 
L 52.066347 136.006955 
L 52.067548 136.006955 
L 52.092292 135.911444 
L 52.200417 135.281073 
L 52.201404 135.281073 
L 52.228652 135.185563 
L 52.320542 134.784418 
L 52.321275 134.784418 
L 52.377124 134.688907 
L 52.481452 134.039434 
L 52.494053 133.943924 
L 52.604428 133.46637 
L 52.634708 133.370859 
L 52.745795 132.778693 
L 52.774193 132.683182 
L 52.882623 132.377548 
L 52.883041 132.377548 
L 52.942208 132.282037 
L 53.04049 131.842688 
L 53.049111 131.842688 
L 53.068328 131.747178 
L 53.173349 131.326931 
L 53.177919 131.326931 
L 53.215487 131.23142 
L 53.324264 130.772968 
L 53.324793 130.772968 
L 53.381364 130.677458 
L 53.46099 130.390926 
L 53.487841 130.390926 
L 53.510213 130.295415 
L 53.617483 129.836964 
L 53.617554 129.836964 
L 53.663265 129.741453 
L 53.766515 129.378512 
L 53.771278 129.378512 
L 53.814323 129.283002 
L 53.900747 128.72904 
L 53.910081 128.72904 
L 53.968026 128.633529 
L 54.075754 128.098669 
L 54.078716 128.098669 
L 54.107053 128.003158 
L 54.204338 127.735728 
L 54.215198 127.735728 
L 54.269368 127.640218 
L 54.376851 127.200868 
L 54.379763 127.200868 
L 54.42244 127.105358 
L 54.53252 126.685111 
L 54.56963 126.5896 
L 54.674641 126.016536 
L 54.678916 126.016536 
L 54.711354 125.921025 
L 54.822278 125.347961 
L 54.875613 125.25245 
L 54.983046 124.813101 
L 55.023006 124.71759 
L 55.133319 124.240037 
L 55.133961 124.240037 
L 55.19156 124.144526 
L 55.300072 123.81979 
L 55.359188 123.724279 
L 55.47 123.437747 
L 55.504515 123.342236 
L 55.587795 123.036602 
L 55.611185 123.036602 
L 55.646158 122.941091 
L 55.740878 122.48264 
L 55.748196 122.48264 
L 55.791281 122.387129 
L 55.886429 121.985985 
L 55.900322 121.985985 
L 55.938002 121.890474 
L 56.046738 121.58484 
L 56.047725 121.58484 
L 56.076123 121.489329 
L 56.182253 121.279205 
L 56.185582 121.279205 
L 56.222102 121.183695 
L 56.319651 120.87806 
L 56.330573 120.87806 
L 56.368467 120.78255 
L 56.474841 120.438711 
L 56.477935 120.438711 
L 56.513723 120.343201 
L 56.584849 120.133077 
L 56.624138 120.133077 
L 56.656291 120.037566 
L 56.766208 119.636421 
L 56.766442 119.636421 
L 56.824072 119.540911 
L 56.922812 119.311685 
L 56.935077 119.311685 
L 56.967607 119.216174 
L 57.070959 118.91054 
L 57.078012 118.91054 
L 57.137149 118.815029 
L 57.239075 118.490293 
L 57.247788 118.490293 
L 57.279422 118.394782 
L 57.384189 118.031842 
L 57.389074 118.031842 
L 57.451274 117.936331 
L 57.562025 117.554288 
L 57.60623 117.458778 
L 57.703831 117.191348 
L 57.713724 117.191348 
L 57.742722 117.095837 
L 57.846929 116.885713 
L 57.852771 116.885713 
L 57.887744 116.790203 
L 57.99077 116.446364 
L 57.995726 116.446364 
L 58.040898 116.350854 
L 58.131873 116.007015 
L 58.133868 116.007015 
L 58.174154 115.911504 
L 58.283123 115.586768 
L 58.312132 115.491257 
L 58.422435 114.994602 
L 58.45694 114.899091 
L 58.566693 114.555252 
L 58.584801 114.459742 
L 58.682717 114.096801 
L 58.733924 114.00129 
L 58.842955 113.752963 
L 58.875831 113.657452 
L 58.975295 113.351818 
L 58.986369 113.351818 
L 59.037566 113.256307 
L 59.148276 112.855162 
L 59.190435 112.759651 
L 59.293349 112.473119 
L 59.300117 112.473119 
L 59.352333 112.377609 
L 59.462402 111.995566 
L 59.462809 111.995566 
L 59.500937 111.900055 
L 59.609296 111.594421 
L 59.61006 111.594421 
L 59.639526 111.49891 
L 59.739732 111.212378 
L 59.750623 111.212378 
L 59.789678 111.116867 
L 59.891736 110.753927 
L 59.898311 110.753927 
L 59.920734 110.658416 
L 60.030458 110.390986 
L 60.062082 110.295475 
L 60.156995 110.047148 
L 60.167214 110.047148 
L 60.239888 109.951637 
L 60.336308 109.646003 
L 60.347056 109.646003 
L 60.390426 109.569594 
L 60.501065 109.26396 
L 60.516516 109.168449 
L 60.620723 108.901019 
L 60.702557 108.805509 
L 60.806407 108.538079 
L 60.812453 108.538079 
L 60.878745 108.442568 
L 60.987694 108.19424 
L 61.052673 108.09873 
L 61.158335 107.716687 
L 61.163343 107.716687 
L 61.212056 107.621176 
L 61.313962 107.315542 
L 61.321912 107.315542 
L 61.353872 107.220031 
L 61.452429 107.048112 
L 61.458913 107.048112 
L 61.526986 106.952601 
L 61.636434 106.76158 
L 61.638083 106.76158 
L 61.663855 106.666069 
L 61.763216 106.360435 
L 61.768275 106.360435 
L 61.822811 106.264924 
L 61.931129 105.940188 
L 61.932839 105.940188 
L 61.98541 105.844677 
L 62.096121 105.672758 
L 62.171125 105.577247 
L 62.265143 105.290715 
L 62.280472 105.290715 
L 62.315119 105.195204 
L 62.424822 104.985081 
L 62.508356 104.88957 
L 62.619208 104.717651 
L 62.666355 104.62214 
L 62.765971 104.297404 
L 62.775732 104.297404 
L 62.80475 104.201893 
L 62.907908 103.953565 
L 62.994903 103.858055 
L 63.096056 103.571523 
L 63.101979 103.571523 
L 63.180781 103.476012 
L 63.285669 103.132173 
L 63.29087 103.132173 
L 63.347442 103.036663 
L 63.442172 102.845641 
L 63.443984 102.845641 
L 63.525899 102.750131 
L 63.619276 102.520905 
L 63.634503 102.520905 
L 63.696509 102.425394 
L 63.783697 102.196169 
L 63.807108 102.196169 
L 63.842284 102.100658 
L 63.952842 101.814126 
L 63.980741 101.718615 
L 64.087034 101.412981 
L 64.12792 101.31747 
L 64.233491 101.145551 
L 64.233603 101.145551 
L 64.286662 101.05004 
L 64.378013 100.820815 
L 64.397648 100.820815 
L 64.458942 100.725304 
L 64.560716 100.438772 
L 64.567973 100.438772 
L 64.654581 100.343261 
L 64.752202 100.094933 
L 64.764558 100.094933 
L 64.824326 99.999423 
L 64.932725 99.789299 
L 65.003262 99.693788 
L 65.107733 99.502767 
L 65.111651 99.502767 
L 65.178676 99.407256 
L 65.28332 99.08252 
L 65.287442 99.08252 
L 65.371353 98.987009 
L 65.480913 98.662273 
L 65.507927 98.566762 
L 65.618494 98.242026 
L 65.619003 98.242026 
L 65.672419 98.146515 
L 65.777348 97.898187 
L 65.782997 97.898187 
L 65.870399 97.802677 
L 65.977232 97.516145 
L 65.977934 97.516145 
L 66.072104 97.420634 
L 66.169573 97.286919 
L 66.17915 97.286919 
L 66.229401 97.191408 
L 66.295581 97.095897 
L 66.335633 97.095897 
L 66.428511 97.000387 
L 66.538305 96.67565 
L 66.638277 96.58014 
L 66.748112 96.40822 
L 66.795157 96.31271 
L 66.905053 96.198097 
L 66.905144 96.198097 
L 66.986164 96.102586 
L 67.095307 95.816054 
L 67.146016 95.720543 
L 67.256278 95.491318 
L 67.287363 95.395807 
L 67.373248 95.204786 
L 67.39788 95.204786 
L 67.448803 95.109275 
L 67.557111 94.880049 
L 67.558607 94.880049 
L 67.57763 94.784539 
L 67.688208 94.536211 
L 67.688605 94.536211 
L 67.734673 94.4407 
L 67.840274 94.192372 
L 67.845617 94.192372 
L 67.881812 94.096862 
L 67.971249 93.963147 
L 67.987657 93.963147 
L 68.051638 93.867636 
L 68.15788 93.657512 
L 68.159946 93.657512 
L 68.215347 93.562002 
L 68.321141 93.313674 
L 68.321966 93.313674 
L 68.447211 93.218163 
L 68.547142 93.065346 
L 68.555539 93.065346 
L 68.63544 92.969835 
L 68.738985 92.817018 
L 68.746181 92.817018 
L 68.831119 92.721508 
L 68.941575 92.511384 
L 68.995521 92.415873 
L 69.085284 92.263056 
L 69.104002 92.263056 
L 69.169561 92.167546 
L 69.278337 91.93832 
L 69.279966 91.93832 
L 69.330909 91.842809 
L 69.437344 91.67089 
L 69.439909 91.67089 
L 69.584452 91.575379 
L 69.690216 91.346154 
L 69.694542 91.346154 
L 69.727225 91.250643 
L 69.836714 90.964111 
L 69.927149 90.8686 
L 70.024149 90.658477 
L 70.029625 90.658477 
L 70.104161 90.562966 
L 70.212754 90.352842 
L 70.213711 90.352842 
L 70.244154 90.257332 
L 70.324411 90.161821 
L 70.34777 90.161821 
L 70.401054 90.06631 
L 70.509719 89.779778 
L 70.511184 89.779778 
L 70.625142 89.684268 
L 70.733409 89.455042 
L 70.735648 89.455042 
L 70.821758 89.359531 
L 70.91549 89.149408 
L 70.930483 89.149408 
L 71.030557 89.053897 
L 71.128626 88.939284 
L 71.141532 88.939284 
L 71.1996 88.843773 
L 71.29832 88.671854 
L 71.310239 88.671854 
L 71.335155 88.576343 
L 71.437123 88.423526 
L 71.442792 88.423526 
L 71.509929 88.328016 
L 71.616873 88.117892 
L 71.619489 88.117892 
L 71.693231 88.022381 
L 71.787514 87.774054 
L 71.793285 87.774054 
L 71.888911 87.678543 
L 71.987427 87.487522 
L 71.997534 87.487522 
L 72.097659 87.392011 
L 72.177244 87.181887 
L 72.208349 87.181887 
L 72.302072 87.086377 
L 72.399683 86.895355 
L 72.407958 86.895355 
L 72.539177 86.799845 
L 72.64144 86.627925 
L 72.729971 86.532415 
L 72.831775 86.284087 
L 72.964115 86.188576 
L 73.021999 86.112168 
L 73.071436 86.112168 
L 73.166563 86.016657 
L 73.273589 85.882942 
L 73.447385 85.787431 
L 73.546736 85.59641 
L 73.551092 85.59641 
L 73.649772 85.500899 
L 73.757826 85.386286 
L 73.760452 85.386286 
L 73.904486 85.290776 
L 74.007115 85.195265 
L 74.111168 85.099754 
L 74.217441 84.908733 
L 74.219232 84.908733 
L 74.412174 84.813222 
L 74.481316 84.679507 
L 74.516339 84.679507 
L 74.630409 84.583996 
L 74.740203 84.354771 
L 74.838363 84.25926 
L 74.949175 84.106443 
L 75.049891 84.010932 
L 75.132173 83.934524 
L 75.138259 83.934524 
L 75.260563 83.839013 
L 75.36826 83.7244 
L 75.371497 83.7244 
L 75.458583 83.628889 
L 75.560998 83.437868 
L 75.568744 83.437868 
L 75.636715 83.342357 
L 75.73857 83.113132 
L 75.739873 83.113132 
L 75.865291 83.017621 
L 75.964419 82.8266 
L 75.9725 82.8266 
L 76.097684 82.731089 
L 76.188333 82.578272 
L 76.202898 82.578272 
L 76.37302 82.482761 
L 76.445286 82.368148 
L 76.482112 82.368148 
L 76.600191 82.272638 
L 76.70852 82.138923 
L 76.709344 82.138923 
L 76.777265 82.043412 
L 76.883863 81.890595 
L 76.886367 81.890595 
L 77.067186 81.795084 
L 77.171484 81.642267 
L 77.178181 81.642267 
L 77.26709 81.546756 
L 77.338593 81.317531 
L 77.377851 81.317531 
L 77.480113 81.22202 
L 77.577846 81.030999 
L 77.589989 81.030999 
L 77.709697 80.935488 
L 77.807196 80.782671 
L 77.82 80.782671 
L 77.923015 80.68716 
L 78.03109 80.591649 
L 78.033186 80.591649 
L 78.20799 80.496139 
L 78.305896 80.343322 
L 78.314873 80.343322 
L 78.362437 80.247811 
L 78.45564 80.171402 
L 78.471457 80.171402 
L 78.533373 80.075892 
L 78.636643 79.865768 
L 78.641223 79.865768 
L 78.683891 79.770257 
L 78.782468 79.674747 
L 78.785145 79.674747 
L 78.85387 79.579236 
L 78.960621 79.502827 
L 78.964824 79.502827 
L 79.065763 79.407317 
L 79.153298 79.273602 
L 79.176708 79.273602 
L 79.288874 79.178091 
L 79.388795 79.120785 
L 79.394271 79.120785 
L 79.454659 79.025274 
L 79.55285 78.872457 
L 79.55795 78.872457 
L 79.632649 78.776946 
L 79.73827 78.605027 
L 79.743064 78.605027 
L 79.83188 78.509516 
L 79.884096 78.433108 
L 79.930438 78.433108 
L 80.11944 78.337597 
L 80.205132 78.203882 
L 80.219392 78.203882 
L 80.298407 78.108371 
L 80.334581 78.070167 
L 80.404578 78.070167 
L 80.544357 77.974656 
L 80.650345 77.879146 
L 80.734113 77.783635 
L 80.844488 77.688124 
L 80.934933 77.592614 
L 81.026671 77.535307 
L 81.030935 77.535307 
L 81.241536 77.439796 
L 81.327595 77.286979 
L 81.347453 77.286979 
L 81.469817 77.191469 
L 81.560659 77.000447 
L 81.578858 77.000447 
L 81.694597 76.904937 
L 81.792615 76.752119 
L 81.796381 76.752119 
L 82.025628 76.656609 
L 82.127321 76.427383 
L 82.188646 76.331872 
L 82.299498 76.179055 
L 82.395786 76.083545 
L 82.502079 75.94983 
L 82.502893 75.94983 
L 82.643314 75.854319 
L 82.743195 75.720604 
L 82.746879 75.720604 
L 82.874048 75.625093 
L 82.93235 75.529583 
L 82.974824 75.529583 
L 83.062806 75.434072 
L 83.173384 75.319459 
L 83.306314 75.223948 
L 83.414032 75.109335 
L 83.415823 75.109335 
L 83.63246 75.013825 
L 83.731251 74.746395 
L 83.822704 74.650884 
L 83.929109 74.498067 
L 83.932794 74.498067 
L 84.011137 74.402556 
L 84.074894 74.287944 
L 84.113877 74.287944 
L 84.214399 74.192433 
L 84.301852 74.058718 
L 84.315684 74.058718 
L 84.433326 73.963207 
L 84.542072 73.848594 
L 84.665516 73.753084 
L 84.732601 73.657573 
L 84.770618 73.657573 
L 84.918744 73.562062 
L 85.024772 73.409245 
L 85.025708 73.409245 
L 85.219566 73.313734 
L 85.290927 73.199122 
L 85.330541 73.199122 
L 85.483868 73.103611 
L 85.591382 72.931692 
L 85.81321 72.836181 
L 85.829333 72.778875 
L 85.912093 72.778875 
L 86.157189 72.683364 
L 86.259278 72.606955 
L 86.342324 72.511445 
L 86.444118 72.37773 
L 86.449044 72.37773 
L 86.573312 72.282219 
L 86.683697 72.148504 
L 86.847497 72.052993 
L 86.89843 71.995687 
L 86.949841 71.995687 
L 87.104817 71.900176 
L 87.13748 71.861972 
L 87.206102 71.861972 
L 87.352508 71.766461 
L 87.446587 71.594542 
L 87.450648 71.594542 
L 87.621889 71.499031 
L 87.682298 71.422623 
L 87.732956 71.422623 
L 87.909246 71.327112 
L 87.988484 71.231601 
L 88.009228 71.231601 
L 88.189884 71.136091 
L 88.294253 71.021478 
L 88.29976 71.021478 
L 88.444354 70.925967 
L 88.549385 70.868661 
L 88.718173 70.77315 
L 88.802613 70.658537 
L 88.82813 70.658537 
L 88.928153 70.563026 
L 88.95082 70.524822 
L 89.037632 70.524822 
L 89.106611 70.429311 
L 89.1579 70.333801 
L 89.216252 70.333801 
L 89.472269 70.23829 
L 89.578115 70.123677 
L 89.863914 70.028167 
L 89.94075 69.932656 
L 89.961087 69.932656 
L 90.171036 69.837145 
L 90.259497 69.70343 
L 90.273838 69.70343 
L 90.410819 69.607919 
L 90.50164 69.550613 
L 90.520369 69.550613 
L 90.718857 69.455102 
L 90.766462 69.397796 
L 90.829751 69.397796 
L 90.967617 69.302285 
L 91.031232 69.225877 
L 91.078551 69.225877 
L 91.269752 69.130366 
L 91.375893 68.996651 
L 91.379883 68.996651 
L 91.518787 68.90114 
L 91.60456 68.748323 
L 91.626729 68.748323 
L 91.807925 68.652813 
L 91.876619 68.557302 
L 91.915602 68.557302 
L 92.015146 68.461791 
L 92.100604 68.385383 
L 92.118518 68.385383 
L 92.276029 68.289872 
L 92.385833 68.194361 
L 92.705099 68.09885 
L 92.806536 68.00334 
L 92.810883 68.00334 
L 92.966693 67.907829 
L 93.064263 67.850523 
L 93.23009 67.755012 
L 93.302774 67.716808 
L 93.332301 67.716808 
L 93.522006 67.621297 
L 93.614375 67.563991 
L 93.78014 67.46848 
L 93.853302 67.372969 
L 93.855165 67.372969 
L 94.167825 67.277458 
L 94.250616 67.181948 
L 94.271125 67.181948 
L 94.516923 67.086437 
L 94.528648 67.048233 
L 94.624366 67.048233 
L 94.810732 66.952722 
L 94.873859 66.857211 
L 94.917259 66.857211 
L 95.013893 66.761701 
L 95.100277 66.685292 
L 95.123697 66.685292 
L 95.300903 66.589781 
L 95.360396 66.532475 
L 95.408224 66.532475 
L 95.648912 66.436964 
L 95.742207 66.39876 
L 95.755317 66.39876 
L 95.892267 66.303249 
L 95.963923 66.245943 
L 95.992117 66.245943 
L 96.250425 66.150432 
L 96.321938 66.074024 
L 96.35515 66.074024 
L 96.592235 65.978513 
L 96.592235 65.959411 
L 96.677042 65.959411 
L 96.819061 65.8639 
L 96.89435 65.730185 
L 96.91603 65.730185 
L 97.079241 65.634675 
L 97.120921 65.577368 
L 97.188414 65.577368 
L 97.282442 65.481857 
L 97.308794 65.405449 
L 97.382964 65.405449 
L 97.527425 65.309938 
L 97.612904 65.252632 
L 97.625036 65.252632 
L 97.720856 65.157121 
L 97.809285 65.023406 
L 97.822751 65.023406 
L 98.025495 64.927895 
L 98.134495 64.755976 
L 98.229643 64.660465 
L 98.269522 64.603159 
L 98.329401 64.603159 
L 98.552471 64.507648 
L 98.658916 64.393036 
L 98.750817 64.297525 
L 98.845791 64.16381 
L 98.859542 64.16381 
L 99.255583 64.068299 
L 99.312786 63.953686 
L 99.467508 63.858176 
L 99.500659 63.781767 
L 99.576427 63.781767 
L 99.765276 63.686256 
L 99.765276 63.667154 
L 99.875641 63.667154 
L 100.146986 63.571644 
L 100.201054 63.476133 
L 100.257351 63.476133 
L 100.41079 63.380622 
L 100.49808 63.285111 
L 100.510253 63.285111 
L 100.704172 63.189601 
L 100.791645 63.055886 
L 100.803859 63.055886 
L 100.957685 62.960375 
L 101.020608 62.922171 
L 101.066685 62.922171 
L 101.263077 62.82666 
L 101.3711 62.769354 
L 101.4949 62.673843 
L 101.602119 62.578332 
L 101.603687 62.578332 
L 101.718998 62.482822 
L 101.762958 62.368209 
L 101.817901 62.368209 
L 102.318352 62.272698 
L 102.429062 62.177187 
L 102.879914 62.081677 
L 102.959275 61.947962 
L 102.990014 61.947962 
L 103.140735 61.852451 
L 103.237674 61.699634 
L 103.249898 61.699634 
L 103.411348 61.604123 
L 103.47877 61.565919 
L 103.520949 61.565919 
L 103.84739 61.470408 
L 103.943067 61.413102 
L 103.949245 61.413102 
L 104.195125 61.317591 
L 104.281794 61.202978 
L 104.30496 61.202978 
L 104.542126 61.107468 
L 104.639238 61.050161 
L 104.76714 60.95465 
L 104.825401 60.916446 
L 104.864537 60.916446 
L 105.150926 60.820936 
L 105.153583 60.782731 
L 105.25157 60.782731 
L 105.548922 60.687221 
L 105.654919 60.610812 
L 105.930886 60.515301 
L 105.999203 60.477097 
L 106.020914 60.477097 
L 106.334815 60.381586 
L 106.435449 60.286076 
L 106.443286 60.286076 
L 106.529182 60.190565 
L 106.587361 60.133259 
L 106.608634 60.133259 
L 106.946964 60.037748 
L 106.997276 59.999544 
L 107.052229 59.999544 
L 107.339035 59.904033 
L 107.343911 59.865829 
L 107.390976 59.865829 
L 107.714007 59.770318 
L 107.812198 59.674807 
L 107.820341 59.674807 
L 107.978381 59.579296 
L 108.014147 59.52199 
L 108.063085 59.52199 
L 108.455014 59.426479 
L 108.552238 59.350071 
L 108.754147 59.25456 
L 108.850373 59.159049 
L 108.86443 59.159049 
L 109.241814 59.063539 
L 109.307922 59.006232 
L 109.314549 59.006232 
L 109.652247 58.910722 
L 109.746051 58.815211 
L 110.22469 58.7197 
L 110.250502 58.62419 
L 110.309496 58.62419 
L 110.516535 58.528679 
L 110.623357 58.45227 
L 110.800278 58.35676 
L 110.844381 58.280351 
L 111.076244 58.18484 
L 111.152053 58.108432 
L 111.342918 58.012921 
L 111.342918 57.993819 
L 111.44628 57.993819 
L 111.898312 57.898308 
L 111.9889 57.8219 
L 112.330232 57.726389 
L 112.434397 57.611776 
L 112.441146 57.611776 
L 112.654057 57.516265 
L 112.692929 57.458959 
L 112.760656 57.458959 
L 112.981995 57.363448 
L 113.060501 57.306142 
L 113.356946 57.210631 
L 113.45359 57.134223 
L 113.466374 57.134223 
L 113.625432 57.038712 
L 113.710849 56.943201 
L 113.72517 56.943201 
L 114.014144 56.847691 
L 114.111837 56.771282 
L 114.120193 56.771282 
L 114.487816 56.675771 
L 114.584989 56.599363 
L 114.893028 56.503852 
L 114.98903 56.427444 
L 115.000888 56.427444 
L 115.189433 56.331933 
L 115.2104 56.293729 
L 115.275725 56.293729 
L 115.722424 56.198218 
L 115.778629 56.121809 
L 115.82662 56.121809 
L 116.097559 56.026299 
L 116.196584 55.94989 
L 116.418025 55.854379 
L 116.511707 55.758869 
L 116.685462 55.663358 
L 116.785984 55.567847 
L 117.052363 55.472337 
L 117.148437 55.41503 
L 117.148823 55.41503 
L 117.420841 55.319519 
L 117.514146 55.243111 
L 117.789716 55.1476 
L 117.865982 55.109396 
L 118.136534 55.013885 
L 118.246837 54.88017 
L 118.518315 54.78466 
L 118.617147 54.746455 
L 118.823942 54.650945 
L 118.921145 54.574536 
L 119.377962 54.479025 
L 119.453933 54.383515 
L 119.487959 54.383515 
L 120.024686 54.288004 
L 120.114195 54.211595 
L 120.122439 54.211595 
L 120.273069 54.116085 
L 120.367525 54.020574 
L 120.379841 54.020574 
L 120.52873 53.925063 
L 120.591236 53.886859 
L 120.604356 53.886859 
L 120.961932 53.791348 
L 120.980121 53.734042 
L 121.041059 53.734042 
L 121.218061 53.638531 
L 121.318665 53.543021 
L 121.328304 53.543021 
L 121.689738 53.44751 
L 121.763633 53.409306 
L 121.795308 53.409306 
L 121.960972 53.313795 
L 122.057361 53.256488 
L 122.284889 53.160978 
L 122.343557 53.122774 
L 122.355333 53.122774 
L 122.642303 53.027263 
L 122.642303 53.008161 
L 122.749329 53.008161 
L 122.982037 52.91265 
L 123.091567 52.836241 
L 123.249403 52.740731 
L 123.342535 52.702526 
L 123.60125 52.607016 
L 123.708621 52.454199 
L 124.062697 52.358688 
L 124.173631 52.282279 
L 124.431368 52.186769 
L 124.529447 52.091258 
L 124.883462 51.995747 
L 124.883462 51.976645 
L 124.978039 51.976645 
L 125.451161 51.881134 
L 125.520486 51.84293 
L 125.55036 51.84293 
L 126.079606 51.74742 
L 126.190041 51.690113 
L 126.287102 51.594602 
L 126.328376 51.556398 
L 126.903963 51.460887 
L 127.000841 51.422683 
L 127.014521 51.422683 
L 127.293032 51.327172 
L 127.375101 51.269866 
L 127.694906 51.174355 
L 127.730438 51.117049 
L 127.797891 51.117049 
L 128.125248 51.021538 
L 128.235826 50.94513 
L 128.658066 50.849619 
L 128.688683 50.77321 
L 128.758466 50.77321 
L 129.122689 50.6777 
L 129.149224 50.639495 
L 129.222081 50.639495 
L 129.608941 50.543985 
L 129.709555 50.467576 
L 130.03621 50.372065 
L 130.117158 50.314759 
L 130.122889 50.314759 
L 130.46357 50.219248 
L 130.530676 50.161942 
L 130.542045 50.161942 
L 130.929221 50.066431 
L 131.023432 50.009125 
L 131.305872 49.913614 
L 131.371502 49.818103 
L 131.410048 49.818103 
L 131.931914 49.722593 
L 132.02923 49.646184 
L 132.283486 49.550674 
L 132.290275 49.512469 
L 132.392415 49.512469 
L 132.709909 49.416959 
L 132.799337 49.378754 
L 132.818859 49.378754 
L 133.121411 49.283244 
L 133.121411 49.264141 
L 133.197464 49.264141 
L 133.509463 49.168631 
L 133.587887 49.130426 
L 133.603043 49.130426 
L 133.819842 49.034916 
L 133.903773 48.958507 
L 133.925026 48.958507 
L 134.477814 48.862997 
L 134.57629 48.824792 
L 134.58486 48.824792 
L 134.929561 48.729282 
L 135.039539 48.576464 
L 135.216785 48.480954 
L 135.325877 48.423647 
L 135.91316 48.328137 
L 135.976633 48.27083 
L 136.014343 48.27083 
L 136.497023 48.17532 
L 136.513034 48.137115 
L 136.563071 48.137115 
L 136.945625 48.041605 
L 137.003591 48.0034 
L 137.053333 48.0034 
L 137.665227 47.90789 
L 137.694694 47.869685 
L 137.74983 47.869685 
L 138.122542 47.774175 
L 138.218087 47.73597 
L 138.228133 47.73597 
L 138.67419 47.64046 
L 138.67419 47.621357 
L 138.783089 47.621357 
L 139.190296 47.525847 
L 139.190296 47.506745 
L 139.297922 47.506745 
L 139.49353 47.411234 
L 139.589482 47.334825 
L 139.590897 47.334825 
L 140.03958 47.239315 
L 140.108977 47.182008 
L 140.146179 47.182008 
L 140.542576 47.086498 
L 140.625774 47.010089 
L 141.156832 46.914578 
L 141.256753 46.83817 
L 141.257435 46.83817 
L 141.63489 46.742659 
L 141.731554 46.685353 
L 141.744766 46.685353 
L 142.013923 46.589842 
L 142.121142 46.532536 
L 142.380172 46.437025 
L 142.488134 46.341514 
L 142.968351 46.246003 
L 143.064933 46.207799 
L 143.394927 46.112289 
L 143.494095 46.03588 
L 143.502879 46.03588 
L 143.763405 45.940369 
L 143.780138 45.883063 
L 143.843224 45.883063 
L 144.594317 45.787552 
L 144.647489 45.730246 
L 144.663368 45.730246 
L 144.976221 45.634735 
L 145.080203 45.596531 
L 145.224105 45.50102 
L 145.305207 45.443714 
L 145.32934 45.443714 
L 145.775601 45.348203 
L 145.775601 45.329101 
L 145.869069 45.329101 
L 146.12989 45.23359 
L 146.159509 45.195386 
L 146.220244 45.195386 
L 146.751321 45.099875 
L 146.751321 45.080773 
L 146.839029 45.080773 
L 147.357546 44.985262 
L 147.443432 44.927956 
L 147.668425 44.832445 
L 147.682023 44.794241 
L 147.75258 44.794241 
L 148.454817 44.69873 
L 148.560581 44.660526 
L 149.153676 44.565015 
L 149.257485 44.488607 
L 149.881502 44.393096 
L 149.881502 44.373994 
L 149.911579 44.373994 
L 150.164919 44.278483 
L 150.228727 44.240279 
L 150.26082 44.240279 
L 150.812274 44.144768 
L 150.900857 44.06836 
L 151.117463 43.972849 
L 151.149464 43.934645 
L 151.216937 43.934645 
L 151.832719 43.839134 
L 151.875641 43.80093 
L 151.937068 43.80093 
L 152.237432 43.705419 
L 152.237432 43.686317 
L 152.321567 43.686317 
L 152.706045 43.590806 
L 152.758688 43.552602 
L 152.81133 43.552602 
L 153.60953 43.457091 
L 153.687252 43.418887 
L 153.715466 43.418887 
L 154.186614 43.323376 
L 154.233678 43.26607 
L 154.294739 43.26607 
L 154.748532 43.170559 
L 154.857257 43.132355 
L 155.668322 43.036844 
L 155.726024 42.979538 
L 155.768467 42.979538 
L 156.991136 42.884027 
L 157.078395 42.826721 
L 157.416552 42.73121 
L 157.416552 42.712108 
L 157.514102 42.712108 
L 158.275964 42.616597 
L 158.382135 42.559291 
L 159.07966 42.46378 
L 159.07966 42.444678 
L 159.099416 42.444678 
L 159.458327 42.349167 
L 159.560253 42.310963 
L 159.845166 42.215452 
L 159.941708 42.158146 
L 160.495626 42.062635 
L 160.495993 42.024431 
L 160.539587 42.024431 
L 161.350194 41.92892 
L 161.43557 41.833409 
L 162.177666 41.737899 
L 162.207295 41.699694 
L 162.259684 41.699694 
L 162.875802 41.604184 
L 162.927579 41.527775 
L 163.411073 41.432264 
L 163.464856 41.39406 
L 163.507859 41.39406 
L 164.213924 41.298549 
L 164.250291 41.260345 
L 164.267941 41.260345 
L 164.960427 41.164835 
L 165.004428 41.12663 
L 165.068288 41.12663 
L 165.557227 41.03112 
L 165.56198 40.992915 
L 166.102565 40.897405 
L 166.107929 40.8592 
L 166.209193 40.8592 
L 167.368563 40.76369 
L 167.418986 40.706383 
L 167.851436 40.610872 
L 167.890867 40.553566 
L 168.677198 40.458055 
L 168.677198 40.438953 
L 168.733973 40.438953 
L 168.972616 40.343443 
L 168.988901 40.305238 
L 169.066094 40.305238 
L 169.675688 40.209728 
L 169.675688 40.190625 
L 169.772708 40.190625 
L 170.291195 40.095115 
L 170.291195 40.076013 
L 170.372001 40.076013 
L 171.251445 39.980502 
L 171.313879 39.865889 
L 171.359061 39.865889 
L 172.052952 39.770378 
L 172.052952 39.751276 
L 172.160232 39.751276 
L 172.709417 39.655766 
L 172.719952 39.617561 
L 172.801135 39.617561 
L 173.524696 39.522051 
L 173.633096 39.445642 
L 174.038511 39.350131 
L 174.049249 39.292825 
L 174.129313 39.292825 
L 174.520549 39.197314 
L 174.577243 39.15911 
L 175.801866 39.063599 
L 175.801866 39.044497 
L 176.728547 38.948986 
L 176.826687 38.872578 
L 177.658374 38.777067 
L 177.727749 38.738863 
L 177.753694 38.738863 
L 178.782169 38.643352 
L 178.782169 38.62425 
L 178.891465 38.62425 
L 179.135726 38.528739 
L 179.135726 38.509637 
L 179.231769 38.509637 
L 179.745676 38.414126 
L 179.745676 38.395024 
L 179.763152 38.395024 
L 181.080602 38.299514 
L 181.080602 38.280412 
L 181.186203 38.280412 
L 181.340202 38.184901 
L 181.37203 38.127594 
L 182.062745 38.032084 
L 182.168896 37.974777 
L 182.994821 37.879267 
L 183.096564 37.82196 
L 183.852544 37.726449 
L 183.852544 37.707347 
L 183.941391 37.707347 
L 184.466809 37.611837 
L 184.507533 37.573632 
L 184.570262 37.573632 
L 185.57549 37.478122 
L 185.57549 37.45902 
L 185.639828 37.45902 
L 186.113713 37.363509 
L 186.195018 37.306202 
L 186.807604 37.210692 
L 186.807604 37.19159 
L 186.904808 37.19159 
L 187.260563 37.096079 
L 187.296523 37.057875 
L 187.354367 37.057875 
L 187.986761 36.962364 
L 188.02268 36.905058 
L 189.016243 36.809547 
L 189.016243 36.790445 
L 190.667789 36.694934 
L 190.667789 36.675832 
L 190.766529 36.675832 
L 191.24473 36.580321 
L 191.246003 36.542117 
L 191.330453 36.542117 
L 191.993503 36.446606 
L 192.048131 36.408402 
L 192.061556 36.408402 
L 193.055445 36.312891 
L 193.055445 36.293789 
L 193.087884 36.293789 
L 193.370171 36.198278 
L 193.4808 36.160074 
L 194.197816 36.064563 
L 194.197816 36.045461 
L 194.27447 36.045461 
L 194.995517 35.949951 
L 194.995517 35.930848 
L 195.484813 35.835338 
L 195.591126 35.778031 
L 196.639408 35.682521 
L 196.639408 35.663418 
L 196.717273 35.663418 
L 197.758003 35.567908 
L 197.824661 35.548806 
L 198.769012 35.453295 
L 198.858724 35.415091 
L 199.298736 35.31958 
L 199.298736 35.300478 
L 199.384591 35.300478 
L 200.442705 35.204967 
L 200.442705 35.185865 
L 200.495236 35.185865 
L 201.704296 35.090354 
L 201.725976 35.033048 
L 201.773041 35.033048 
L 202.752273 34.937537 
L 202.752273 34.918435 
L 202.772111 34.918435 
L 203.480089 34.822924 
L 203.480089 34.803822 
L 204.173248 34.708312 
L 204.173248 34.689209 
L 204.25271 34.689209 
L 204.783788 34.593699 
L 204.783788 34.574597 
L 204.812532 34.574597 
L 206.063303 34.479086 
L 206.063303 34.459984 
L 206.166888 34.459984 
L 206.732542 34.364473 
L 206.732542 34.345371 
L 206.822539 34.345371 
L 207.782372 34.24986 
L 207.782372 34.230758 
L 207.893082 34.230758 
L 208.751853 34.135247 
L 208.751853 34.116145 
L 208.771436 34.116145 
L 209.700418 34.020635 
L 209.700418 34.001532 
L 209.742108 34.001532 
L 210.14559 33.906022 
L 210.14559 33.88692 
L 210.231536 33.88692 
L 211.600906 33.791409 
L 211.600906 33.772307 
L 211.667961 33.772307 
L 212.807096 33.676796 
L 212.830425 33.638592 
L 213.755487 33.543081 
L 213.823174 33.466672 
L 213.836721 33.466672 
L 214.58126 33.371162 
L 214.670178 33.332958 
L 215.532726 33.237447 
L 215.532726 33.218345 
L 215.621491 33.218345 
L 216.017502 33.122834 
L 216.054052 33.08463 
L 216.097331 33.08463 
L 216.855102 32.989119 
L 216.865453 32.950915 
L 218.625093 32.855404 
L 218.728699 32.8172 
L 219.898674 32.721689 
L 219.934207 32.683485 
L 219.967653 32.683485 
L 220.962702 32.587974 
L 220.997614 32.54977 
L 221.061341 32.54977 
L 222.186908 32.454259 
L 222.278982 32.396953 
L 222.29772 32.396953 
L 223.449384 32.301442 
L 223.515116 32.263238 
L 223.522546 32.263238 
L 224.575104 32.167727 
L 224.575104 32.148625 
L 224.667666 32.148625 
L 225.622083 32.053114 
L 225.681749 32.01491 
L 227.044757 31.919399 
L 227.044757 31.900297 
L 227.150694 31.900297 
L 227.960446 31.804786 
L 228.057497 31.728378 
L 229.356402 31.632867 
L 229.382438 31.594663 
L 229.456903 31.594663 
L 231.426146 31.499152 
L 231.426146 31.48005 
L 231.536734 31.48005 
L 232.452708 31.384539 
L 232.452708 31.365437 
L 232.544649 31.365437 
L 233.981736 31.269927 
L 233.981736 31.250824 
L 233.999375 31.250824 
L 235.039922 31.155314 
L 235.039922 31.136212 
L 235.149492 31.136212 
L 235.91224 31.040701 
L 235.91224 31.021599 
L 236.003836 31.021599 
L 237.445696 30.926088 
L 237.445696 30.906986 
L 237.554503 30.906986 
L 238.461855 30.811475 
L 238.525399 30.754169 
L 238.569247 30.754169 
L 239.489353 30.658658 
L 239.576419 30.620454 
L 240.900434 30.524943 
L 240.900434 30.505841 
L 240.999755 30.505841 
L 241.745688 30.41033 
L 241.781567 30.372126 
L 241.82108 30.372126 
L 242.714864 30.276615 
L 242.784535 30.238411 
L 242.819437 30.238411 
L 243.485226 30.1429 
L 243.485226 30.123798 
L 243.551283 30.123798 
L 245.380391 30.028287 
L 245.44711 29.970981 
L 245.470215 29.970981 
L 247.287515 29.87547 
L 247.287515 29.856368 
L 247.391691 29.856368 
L 248.067332 29.760858 
L 248.067332 29.741755 
L 248.097603 29.741755 
L 248.808757 29.646245 
L 248.911436 29.588938 
L 250.270241 29.493428 
L 250.270241 29.474325 
L 250.368106 29.474325 
L 251.545674 29.378815 
L 251.589665 29.321508 
L 251.646715 29.321508 
L 252.794563 29.225998 
L 252.8007 29.187793 
L 252.902016 29.187793 
L 254.462811 29.092283 
L 254.499056 29.054078 
L 254.564126 29.054078 
L 255.782683 28.958568 
L 255.87036 28.901261 
L 257.054279 28.805751 
L 257.054279 28.786648 
L 257.140704 28.786648 
L 258.370945 28.691138 
L 258.437206 28.633831 
L 260.092182 28.538321 
L 260.092182 28.519219 
L 260.200287 28.519219 
L 261.936078 28.423708 
L 262.027419 28.366401 
L 262.038676 28.366401 
L 264.173298 28.270891 
L 264.173298 28.251789 
L 264.224414 28.251789 
L 265.977621 28.156278 
L 265.977621 28.137176 
L 266.025694 28.137176 
L 266.953535 28.041665 
L 266.953535 28.022563 
L 267.061996 28.022563 
L 268.438501 27.927052 
L 268.438501 27.90795 
L 268.541659 27.90795 
L 270.439022 27.812439 
L 270.439022 27.793337 
L 270.514546 27.793337 
L 271.486735 27.697827 
L 271.486735 27.678724 
L 271.595084 27.678724 
L 273.547258 27.583214 
L 273.648696 27.545009 
L 274.646188 27.449499 
L 274.646188 27.430397 
L 274.752399 27.430397 
L 277.069204 27.334886 
L 277.135119 27.296682 
L 278.104305 27.201171 
L 278.104305 27.182069 
L 278.18561 27.182069 
L 279.286362 27.086558 
L 279.292652 27.048354 
L 279.383026 27.048354 
L 281.724106 26.952843 
L 281.724106 26.933741 
L 281.825422 26.933741 
L 282.023758 26.895537 
L 282.023758 26.895537 
" clip-path="url(#p861acc6726)" style="fill: none; stroke: #1f77b4; stroke-width: 1.5; stroke-linecap: round"/>
   </g>
   <g id="line2d_26">
    <path d="M 42.831699 265.022801 
L 282.023758 26.895537 
" clip-path="url(#p861acc6726)" style="fill: none; stroke-dasharray: 5.55,2.4; stroke-dashoffset: 0; stroke: #999999; stroke-width: 1.5"/>
   </g>
   <g id="patch_3">
    <path d="M 35.655938 265.022801 
L 35.655938 19.751719 
" style="fill: none"/>
   </g>
   <g id="patch_4">
    <path d="M 289.19952 265.022801 
L 289.19952 19.751719 
" style="fill: none"/>
   </g>
   <g id="patch_5">
    <path d="M 35.655938 265.022801 
L 289.19952 265.022801 
" style="fill: none"/>
   </g>
   <g id="patch_6">
    <path d="M 35.655938 19.751719 
L 289.19952 19.751719 
" style="fill: none"/>
   </g>
   <g id="text_15">
    <!-- Model 2: Receiver Operating Characteristic (ROC) Curve -->
    <g style="fill: #333333" transform="translate(42.14976 13.751719) scale(0.09 -0.09)">
     <defs>
      <path id="Arial-BoldMT-4d" d="M 453 0 
L 453 4581 
L 1838 4581 
L 2669 1456 
L 3491 4581 
L 4878 4581 
L 4878 0 
L 4019 0 
L 4019 3606 
L 3109 0 
L 2219 0 
L 1313 3606 
L 1313 0 
L 453 0 
z
" transform="scale(0.015625)"/>
      <path id="Arial-BoldMT-64" d="M 3503 0 
L 2688 0 
L 2688 488 
Q 2484 203 2207 64 
Q 1931 -75 1650 -75 
Q 1078 -75 670 386 
Q 263 847 263 1672 
Q 263 2516 659 2955 
Q 1056 3394 1663 3394 
Q 2219 3394 2625 2931 
L 2625 4581 
L 3503 4581 
L 3503 0 
z
M 1159 1731 
Q 1159 1200 1306 963 
Q 1519 619 1900 619 
Q 2203 619 2415 876 
Q 2628 1134 2628 1647 
Q 2628 2219 2422 2470 
Q 2216 2722 1894 2722 
Q 1581 2722 1370 2473 
Q 1159 2225 1159 1731 
z
" transform="scale(0.015625)"/>
      <path id="Arial-BoldMT-32" d="M 3238 816 
L 3238 0 
L 159 0 
Q 209 463 459 877 
Q 709 1291 1447 1975 
Q 2041 2528 2175 2725 
Q 2356 2997 2356 3263 
Q 2356 3556 2198 3714 
Q 2041 3872 1763 3872 
Q 1488 3872 1325 3706 
Q 1163 3541 1138 3156 
L 263 3244 
Q 341 3969 753 4284 
Q 1166 4600 1784 4600 
Q 2463 4600 2850 4234 
Q 3238 3869 3238 3325 
Q 3238 3016 3127 2736 
Q 3016 2456 2775 2150 
Q 2616 1947 2200 1565 
Q 1784 1184 1673 1059 
Q 1563 934 1494 816 
L 3238 816 
z
" transform="scale(0.015625)"/>
      <path id="Arial-BoldMT-3a" d="M 628 2441 
L 628 3319 
L 1506 3319 
L 1506 2441 
L 628 2441 
z
M 628 0 
L 628 878 
L 1506 878 
L 1506 0 
L 628 0 
z
" transform="scale(0.015625)"/>
      <path id="Arial-BoldMT-63" d="M 3353 2338 
L 2488 2181 
Q 2444 2441 2289 2572 
Q 2134 2703 1888 2703 
Q 1559 2703 1364 2476 
Q 1169 2250 1169 1719 
Q 1169 1128 1367 884 
Q 1566 641 1900 641 
Q 2150 641 2309 783 
Q 2469 925 2534 1272 
L 3397 1125 
Q 3263 531 2881 228 
Q 2500 -75 1859 -75 
Q 1131 -75 698 384 
Q 266 844 266 1656 
Q 266 2478 700 2936 
Q 1134 3394 1875 3394 
Q 2481 3394 2839 3133 
Q 3197 2872 3353 2338 
z
" transform="scale(0.015625)"/>
      <path id="Arial-BoldMT-4f" d="M 278 2263 
Q 278 2963 488 3438 
Q 644 3788 914 4066 
Q 1184 4344 1506 4478 
Q 1934 4659 2494 4659 
Q 3506 4659 4114 4031 
Q 4722 3403 4722 2284 
Q 4722 1175 4119 548 
Q 3516 -78 2506 -78 
Q 1484 -78 881 545 
Q 278 1169 278 2263 
z
M 1231 2294 
Q 1231 1516 1590 1114 
Q 1950 713 2503 713 
Q 3056 713 3411 1111 
Q 3766 1509 3766 2306 
Q 3766 3094 3420 3481 
Q 3075 3869 2503 3869 
Q 1931 3869 1581 3476 
Q 1231 3084 1231 2294 
z
" transform="scale(0.015625)"/>
      <path id="Arial-BoldMT-70" d="M 434 3319 
L 1253 3319 
L 1253 2831 
Q 1413 3081 1684 3237 
Q 1956 3394 2288 3394 
Q 2866 3394 3269 2941 
Q 3672 2488 3672 1678 
Q 3672 847 3265 386 
Q 2859 -75 2281 -75 
Q 2006 -75 1782 34 
Q 1559 144 1313 409 
L 1313 -1263 
L 434 -1263 
L 434 3319 
z
M 1303 1716 
Q 1303 1156 1525 889 
Q 1747 622 2066 622 
Q 2372 622 2575 867 
Q 2778 1113 2778 1672 
Q 2778 2194 2568 2447 
Q 2359 2700 2050 2700 
Q 1728 2700 1515 2451 
Q 1303 2203 1303 1716 
z
" transform="scale(0.015625)"/>
      <path id="Arial-BoldMT-6e" d="M 3478 0 
L 2600 0 
L 2600 1694 
Q 2600 2231 2544 2389 
Q 2488 2547 2361 2634 
Q 2234 2722 2056 2722 
Q 1828 2722 1647 2597 
Q 1466 2472 1398 2265 
Q 1331 2059 1331 1503 
L 1331 0 
L 453 0 
L 453 3319 
L 1269 3319 
L 1269 2831 
Q 1703 3394 2363 3394 
Q 2653 3394 2893 3289 
Q 3134 3184 3257 3021 
Q 3381 2859 3429 2653 
Q 3478 2447 3478 2063 
L 3478 0 
z
" transform="scale(0.015625)"/>
      <path id="Arial-BoldMT-67" d="M 378 -219 
L 1381 -341 
Q 1406 -516 1497 -581 
Q 1622 -675 1891 -675 
Q 2234 -675 2406 -572 
Q 2522 -503 2581 -350 
Q 2622 -241 2622 53 
L 2622 538 
Q 2228 0 1628 0 
Q 959 0 569 566 
Q 263 1013 263 1678 
Q 263 2513 664 2953 
Q 1066 3394 1663 3394 
Q 2278 3394 2678 2853 
L 2678 3319 
L 3500 3319 
L 3500 341 
Q 3500 -247 3403 -537 
Q 3306 -828 3131 -993 
Q 2956 -1159 2664 -1253 
Q 2372 -1347 1925 -1347 
Q 1081 -1347 728 -1058 
Q 375 -769 375 -325 
Q 375 -281 378 -219 
z
M 1163 1728 
Q 1163 1200 1367 954 
Q 1572 709 1872 709 
Q 2194 709 2416 961 
Q 2638 1213 2638 1706 
Q 2638 2222 2425 2472 
Q 2213 2722 1888 2722 
Q 1572 2722 1367 2476 
Q 1163 2231 1163 1728 
z
" transform="scale(0.015625)"/>
      <path id="Arial-BoldMT-43" d="M 3397 1684 
L 4294 1400 
Q 4088 650 3608 286 
Q 3128 -78 2391 -78 
Q 1478 -78 890 545 
Q 303 1169 303 2250 
Q 303 3394 893 4026 
Q 1484 4659 2447 4659 
Q 3288 4659 3813 4163 
Q 4125 3869 4281 3319 
L 3366 3100 
Q 3284 3456 3026 3662 
Q 2769 3869 2400 3869 
Q 1891 3869 1573 3503 
Q 1256 3138 1256 2319 
Q 1256 1450 1568 1081 
Q 1881 713 2381 713 
Q 2750 713 3015 947 
Q 3281 1181 3397 1684 
z
" transform="scale(0.015625)"/>
      <path id="Arial-BoldMT-68" d="M 1334 4581 
L 1334 2897 
Q 1759 3394 2350 3394 
Q 2653 3394 2897 3281 
Q 3141 3169 3264 2994 
Q 3388 2819 3433 2606 
Q 3478 2394 3478 1947 
L 3478 0 
L 2600 0 
L 2600 1753 
Q 2600 2275 2550 2415 
Q 2500 2556 2373 2639 
Q 2247 2722 2056 2722 
Q 1838 2722 1666 2615 
Q 1494 2509 1414 2295 
Q 1334 2081 1334 1663 
L 1334 0 
L 456 0 
L 456 4581 
L 1334 4581 
z
" transform="scale(0.015625)"/>
     </defs>
     <use xlink:href="#Arial-BoldMT-4d"/>
     <use xlink:href="#Arial-BoldMT-6f" transform="translate(83.300781 0)"/>
     <use xlink:href="#Arial-BoldMT-64" transform="translate(144.384766 0)"/>
     <use xlink:href="#Arial-BoldMT-65" transform="translate(205.46875 0)"/>
     <use xlink:href="#Arial-BoldMT-6c" transform="translate(261.083984 0)"/>
     <use xlink:href="#Arial-BoldMT-20" transform="translate(288.867188 0)"/>
     <use xlink:href="#Arial-BoldMT-32" transform="translate(316.650391 0)"/>
     <use xlink:href="#Arial-BoldMT-3a" transform="translate(372.265625 0)"/>
     <use xlink:href="#Arial-BoldMT-20" transform="translate(405.566406 0)"/>
     <use xlink:href="#Arial-BoldMT-52" transform="translate(433.349609 0)"/>
     <use xlink:href="#Arial-BoldMT-65" transform="translate(505.566406 0)"/>
     <use xlink:href="#Arial-BoldMT-63" transform="translate(561.181641 0)"/>
     <use xlink:href="#Arial-BoldMT-65" transform="translate(616.796875 0)"/>
     <use xlink:href="#Arial-BoldMT-69" transform="translate(672.412109 0)"/>
     <use xlink:href="#Arial-BoldMT-76" transform="translate(700.195312 0)"/>
     <use xlink:href="#Arial-BoldMT-65" transform="translate(755.810547 0)"/>
     <use xlink:href="#Arial-BoldMT-72" transform="translate(811.425781 0)"/>
     <use xlink:href="#Arial-BoldMT-20" transform="translate(850.341797 0)"/>
     <use xlink:href="#Arial-BoldMT-4f" transform="translate(878.125 0)"/>
     <use xlink:href="#Arial-BoldMT-70" transform="translate(955.908203 0)"/>
     <use xlink:href="#Arial-BoldMT-65" transform="translate(1016.992188 0)"/>
     <use xlink:href="#Arial-BoldMT-72" transform="translate(1072.607422 0)"/>
     <use xlink:href="#Arial-BoldMT-61" transform="translate(1111.523438 0)"/>
     <use xlink:href="#Arial-BoldMT-74" transform="translate(1167.138672 0)"/>
     <use xlink:href="#Arial-BoldMT-69" transform="translate(1200.439453 0)"/>
     <use xlink:href="#Arial-BoldMT-6e" transform="translate(1228.222656 0)"/>
     <use xlink:href="#Arial-BoldMT-67" transform="translate(1289.306641 0)"/>
     <use xlink:href="#Arial-BoldMT-20" transform="translate(1350.390625 0)"/>
     <use xlink:href="#Arial-BoldMT-43" transform="translate(1378.173828 0)"/>
     <use xlink:href="#Arial-BoldMT-68" transform="translate(1450.390625 0)"/>
     <use xlink:href="#Arial-BoldMT-61" transform="translate(1511.474609 0)"/>
     <use xlink:href="#Arial-BoldMT-72" transform="translate(1567.089844 0)"/>
     <use xlink:href="#Arial-BoldMT-61" transform="translate(1606.005859 0)"/>
     <use xlink:href="#Arial-BoldMT-63" transform="translate(1661.621094 0)"/>
     <use xlink:href="#Arial-BoldMT-74" transform="translate(1717.236328 0)"/>
     <use xlink:href="#Arial-BoldMT-65" transform="translate(1750.537109 0)"/>
     <use xlink:href="#Arial-BoldMT-72" transform="translate(1806.152344 0)"/>
     <use xlink:href="#Arial-BoldMT-69" transform="translate(1845.068359 0)"/>
     <use xlink:href="#Arial-BoldMT-73" transform="translate(1872.851562 0)"/>
     <use xlink:href="#Arial-BoldMT-74" transform="translate(1928.466797 0)"/>
     <use xlink:href="#Arial-BoldMT-69" transform="translate(1961.767578 0)"/>
     <use xlink:href="#Arial-BoldMT-63" transform="translate(1989.550781 0)"/>
     <use xlink:href="#Arial-BoldMT-20" transform="translate(2045.166016 0)"/>
     <use xlink:href="#Arial-BoldMT-28" transform="translate(2072.949219 0)"/>
     <use xlink:href="#Arial-BoldMT-52" transform="translate(2106.25 0)"/>
     <use xlink:href="#Arial-BoldMT-4f" transform="translate(2178.466797 0)"/>
     <use xlink:href="#Arial-BoldMT-43" transform="translate(2256.25 0)"/>
     <use xlink:href="#Arial-BoldMT-29" transform="translate(2328.466797 0)"/>
     <use xlink:href="#Arial-BoldMT-20" transform="translate(2361.767578 0)"/>
     <use xlink:href="#Arial-BoldMT-43" transform="translate(2389.550781 0)"/>
     <use xlink:href="#Arial-BoldMT-75" transform="translate(2461.767578 0)"/>
     <use xlink:href="#Arial-BoldMT-72" transform="translate(2522.851562 0)"/>
     <use xlink:href="#Arial-BoldMT-76" transform="translate(2561.767578 0)"/>
     <use xlink:href="#Arial-BoldMT-65" transform="translate(2617.382812 0)"/>
    </g>
   </g>
   <g id="legend_1">
    <g id="patch_7">
     <path d="M 182.577645 260.522801 
L 282.89952 260.522801 
Q 284.69952 260.522801 284.69952 258.722801 
L 284.69952 234.161239 
Q 284.69952 232.361239 282.89952 232.361239 
L 182.577645 232.361239 
Q 180.777645 232.361239 180.777645 234.161239 
L 180.777645 258.722801 
Q 180.777645 260.522801 182.577645 260.522801 
z
" style="fill: #ffffff; opacity: 0.8; stroke: #cccccc; stroke-width: 0.75; stroke-linejoin: miter"/>
    </g>
    <g id="line2d_27">
     <path d="M 184.377645 239.25327 
L 193.377645 239.25327 
L 202.377645 239.25327 
" style="fill: none; stroke: #1f77b4; stroke-width: 1.5; stroke-linecap: round"/>
    </g>
    <g id="text_16">
     <!-- ROC curve -->
     <g style="fill: #333333" transform="translate(209.577645 242.40327) scale(0.09 -0.09)">
      <defs>
       <path id="ArialMT-52" d="M 503 0 
L 503 4581 
L 2534 4581 
Q 3147 4581 3465 4457 
Q 3784 4334 3975 4021 
Q 4166 3709 4166 3331 
Q 4166 2844 3850 2509 
Q 3534 2175 2875 2084 
Q 3116 1969 3241 1856 
Q 3506 1613 3744 1247 
L 4541 0 
L 3778 0 
L 3172 953 
Q 2906 1366 2734 1584 
Q 2563 1803 2427 1890 
Q 2291 1978 2150 2013 
Q 2047 2034 1813 2034 
L 1109 2034 
L 1109 0 
L 503 0 
z
M 1109 2559 
L 2413 2559 
Q 2828 2559 3062 2645 
Q 3297 2731 3419 2920 
Q 3541 3109 3541 3331 
Q 3541 3656 3305 3865 
Q 3069 4075 2559 4075 
L 1109 4075 
L 1109 2559 
z
" transform="scale(0.015625)"/>
       <path id="ArialMT-4f" d="M 309 2231 
Q 309 3372 921 4017 
Q 1534 4663 2503 4663 
Q 3138 4663 3647 4359 
Q 4156 4056 4423 3514 
Q 4691 2972 4691 2284 
Q 4691 1588 4409 1038 
Q 4128 488 3612 205 
Q 3097 -78 2500 -78 
Q 1853 -78 1343 234 
Q 834 547 571 1087 
Q 309 1628 309 2231 
z
M 934 2222 
Q 934 1394 1379 917 
Q 1825 441 2497 441 
Q 3181 441 3623 922 
Q 4066 1403 4066 2288 
Q 4066 2847 3877 3264 
Q 3688 3681 3323 3911 
Q 2959 4141 2506 4141 
Q 1863 4141 1398 3698 
Q 934 3256 934 2222 
z
" transform="scale(0.015625)"/>
       <path id="ArialMT-43" d="M 3763 1606 
L 4369 1453 
Q 4178 706 3683 314 
Q 3188 -78 2472 -78 
Q 1731 -78 1267 223 
Q 803 525 561 1097 
Q 319 1669 319 2325 
Q 319 3041 592 3573 
Q 866 4106 1370 4382 
Q 1875 4659 2481 4659 
Q 3169 4659 3637 4309 
Q 4106 3959 4291 3325 
L 3694 3184 
Q 3534 3684 3231 3912 
Q 2928 4141 2469 4141 
Q 1941 4141 1586 3887 
Q 1231 3634 1087 3207 
Q 944 2781 944 2328 
Q 944 1744 1114 1308 
Q 1284 872 1643 656 
Q 2003 441 2422 441 
Q 2931 441 3284 734 
Q 3638 1028 3763 1606 
z
" transform="scale(0.015625)"/>
       <path id="ArialMT-20" transform="scale(0.015625)"/>
       <path id="ArialMT-63" d="M 2588 1216 
L 3141 1144 
Q 3050 572 2676 248 
Q 2303 -75 1759 -75 
Q 1078 -75 664 370 
Q 250 816 250 1647 
Q 250 2184 428 2587 
Q 606 2991 970 3192 
Q 1334 3394 1763 3394 
Q 2303 3394 2647 3120 
Q 2991 2847 3088 2344 
L 2541 2259 
Q 2463 2594 2264 2762 
Q 2066 2931 1784 2931 
Q 1359 2931 1093 2626 
Q 828 2322 828 1663 
Q 828 994 1084 691 
Q 1341 388 1753 388 
Q 2084 388 2306 591 
Q 2528 794 2588 1216 
z
" transform="scale(0.015625)"/>
       <path id="ArialMT-75" d="M 2597 0 
L 2597 488 
Q 2209 -75 1544 -75 
Q 1250 -75 995 37 
Q 741 150 617 320 
Q 494 491 444 738 
Q 409 903 409 1263 
L 409 3319 
L 972 3319 
L 972 1478 
Q 972 1038 1006 884 
Q 1059 663 1231 536 
Q 1403 409 1656 409 
Q 1909 409 2131 539 
Q 2353 669 2445 892 
Q 2538 1116 2538 1541 
L 2538 3319 
L 3100 3319 
L 3100 0 
L 2597 0 
z
" transform="scale(0.015625)"/>
       <path id="ArialMT-72" d="M 416 0 
L 416 3319 
L 922 3319 
L 922 2816 
Q 1116 3169 1280 3281 
Q 1444 3394 1641 3394 
Q 1925 3394 2219 3213 
L 2025 2691 
Q 1819 2813 1613 2813 
Q 1428 2813 1281 2702 
Q 1134 2591 1072 2394 
Q 978 2094 978 1738 
L 978 0 
L 416 0 
z
" transform="scale(0.015625)"/>
       <path id="ArialMT-76" d="M 1344 0 
L 81 3319 
L 675 3319 
L 1388 1331 
Q 1503 1009 1600 663 
Q 1675 925 1809 1294 
L 2547 3319 
L 3125 3319 
L 1869 0 
L 1344 0 
z
" transform="scale(0.015625)"/>
       <path id="ArialMT-65" d="M 2694 1069 
L 3275 997 
Q 3138 488 2766 206 
Q 2394 -75 1816 -75 
Q 1088 -75 661 373 
Q 234 822 234 1631 
Q 234 2469 665 2931 
Q 1097 3394 1784 3394 
Q 2450 3394 2872 2941 
Q 3294 2488 3294 1666 
Q 3294 1616 3291 1516 
L 816 1516 
Q 847 969 1125 678 
Q 1403 388 1819 388 
Q 2128 388 2347 550 
Q 2566 713 2694 1069 
z
M 847 1978 
L 2700 1978 
Q 2663 2397 2488 2606 
Q 2219 2931 1791 2931 
Q 1403 2931 1139 2672 
Q 875 2413 847 1978 
z
" transform="scale(0.015625)"/>
      </defs>
      <use xlink:href="#ArialMT-52"/>
      <use xlink:href="#ArialMT-4f" transform="translate(72.216797 0)"/>
      <use xlink:href="#ArialMT-43" transform="translate(150 0)"/>
      <use xlink:href="#ArialMT-20" transform="translate(222.216797 0)"/>
      <use xlink:href="#ArialMT-63" transform="translate(250 0)"/>
      <use xlink:href="#ArialMT-75" transform="translate(300 0)"/>
      <use xlink:href="#ArialMT-72" transform="translate(355.615234 0)"/>
      <use xlink:href="#ArialMT-76" transform="translate(388.916016 0)"/>
      <use xlink:href="#ArialMT-65" transform="translate(438.916016 0)"/>
     </g>
    </g>
    <g id="line2d_28">
     <path d="M 184.377645 251.984051 
L 193.377645 251.984051 
L 202.377645 251.984051 
" style="fill: none; stroke-dasharray: 5.55,2.4; stroke-dashoffset: 0; stroke: #999999; stroke-width: 1.5"/>
    </g>
    <g id="text_17">
     <!-- Random classifier -->
     <g style="fill: #333333" transform="translate(209.577645 255.134051) scale(0.09 -0.09)">
      <defs>
       <path id="ArialMT-61" d="M 2588 409 
Q 2275 144 1986 34 
Q 1697 -75 1366 -75 
Q 819 -75 525 192 
Q 231 459 231 875 
Q 231 1119 342 1320 
Q 453 1522 633 1644 
Q 813 1766 1038 1828 
Q 1203 1872 1538 1913 
Q 2219 1994 2541 2106 
Q 2544 2222 2544 2253 
Q 2544 2597 2384 2738 
Q 2169 2928 1744 2928 
Q 1347 2928 1158 2789 
Q 969 2650 878 2297 
L 328 2372 
Q 403 2725 575 2942 
Q 747 3159 1072 3276 
Q 1397 3394 1825 3394 
Q 2250 3394 2515 3294 
Q 2781 3194 2906 3042 
Q 3031 2891 3081 2659 
Q 3109 2516 3109 2141 
L 3109 1391 
Q 3109 606 3145 398 
Q 3181 191 3288 0 
L 2700 0 
Q 2613 175 2588 409 
z
M 2541 1666 
Q 2234 1541 1622 1453 
Q 1275 1403 1131 1340 
Q 988 1278 909 1158 
Q 831 1038 831 891 
Q 831 666 1001 516 
Q 1172 366 1500 366 
Q 1825 366 2078 508 
Q 2331 650 2450 897 
Q 2541 1088 2541 1459 
L 2541 1666 
z
" transform="scale(0.015625)"/>
       <path id="ArialMT-6e" d="M 422 0 
L 422 3319 
L 928 3319 
L 928 2847 
Q 1294 3394 1984 3394 
Q 2284 3394 2536 3286 
Q 2788 3178 2913 3003 
Q 3038 2828 3088 2588 
Q 3119 2431 3119 2041 
L 3119 0 
L 2556 0 
L 2556 2019 
Q 2556 2363 2490 2533 
Q 2425 2703 2258 2804 
Q 2091 2906 1866 2906 
Q 1506 2906 1245 2678 
Q 984 2450 984 1813 
L 984 0 
L 422 0 
z
" transform="scale(0.015625)"/>
       <path id="ArialMT-64" d="M 2575 0 
L 2575 419 
Q 2259 -75 1647 -75 
Q 1250 -75 917 144 
Q 584 363 401 755 
Q 219 1147 219 1656 
Q 219 2153 384 2558 
Q 550 2963 881 3178 
Q 1213 3394 1622 3394 
Q 1922 3394 2156 3267 
Q 2391 3141 2538 2938 
L 2538 4581 
L 3097 4581 
L 3097 0 
L 2575 0 
z
M 797 1656 
Q 797 1019 1065 703 
Q 1334 388 1700 388 
Q 2069 388 2326 689 
Q 2584 991 2584 1609 
Q 2584 2291 2321 2609 
Q 2059 2928 1675 2928 
Q 1300 2928 1048 2622 
Q 797 2316 797 1656 
z
" transform="scale(0.015625)"/>
       <path id="ArialMT-6f" d="M 213 1659 
Q 213 2581 725 3025 
Q 1153 3394 1769 3394 
Q 2453 3394 2887 2945 
Q 3322 2497 3322 1706 
Q 3322 1066 3130 698 
Q 2938 331 2570 128 
Q 2203 -75 1769 -75 
Q 1072 -75 642 372 
Q 213 819 213 1659 
z
M 791 1659 
Q 791 1022 1069 705 
Q 1347 388 1769 388 
Q 2188 388 2466 706 
Q 2744 1025 2744 1678 
Q 2744 2294 2464 2611 
Q 2184 2928 1769 2928 
Q 1347 2928 1069 2612 
Q 791 2297 791 1659 
z
" transform="scale(0.015625)"/>
       <path id="ArialMT-6d" d="M 422 0 
L 422 3319 
L 925 3319 
L 925 2853 
Q 1081 3097 1340 3245 
Q 1600 3394 1931 3394 
Q 2300 3394 2536 3241 
Q 2772 3088 2869 2813 
Q 3263 3394 3894 3394 
Q 4388 3394 4653 3120 
Q 4919 2847 4919 2278 
L 4919 0 
L 4359 0 
L 4359 2091 
Q 4359 2428 4304 2576 
Q 4250 2725 4106 2815 
Q 3963 2906 3769 2906 
Q 3419 2906 3187 2673 
Q 2956 2441 2956 1928 
L 2956 0 
L 2394 0 
L 2394 2156 
Q 2394 2531 2256 2718 
Q 2119 2906 1806 2906 
Q 1569 2906 1367 2781 
Q 1166 2656 1075 2415 
Q 984 2175 984 1722 
L 984 0 
L 422 0 
z
" transform="scale(0.015625)"/>
       <path id="ArialMT-6c" d="M 409 0 
L 409 4581 
L 972 4581 
L 972 0 
L 409 0 
z
" transform="scale(0.015625)"/>
       <path id="ArialMT-73" d="M 197 991 
L 753 1078 
Q 800 744 1014 566 
Q 1228 388 1613 388 
Q 2000 388 2187 545 
Q 2375 703 2375 916 
Q 2375 1106 2209 1216 
Q 2094 1291 1634 1406 
Q 1016 1563 777 1677 
Q 538 1791 414 1992 
Q 291 2194 291 2438 
Q 291 2659 392 2848 
Q 494 3038 669 3163 
Q 800 3259 1026 3326 
Q 1253 3394 1513 3394 
Q 1903 3394 2198 3281 
Q 2494 3169 2634 2976 
Q 2775 2784 2828 2463 
L 2278 2388 
Q 2241 2644 2061 2787 
Q 1881 2931 1553 2931 
Q 1166 2931 1000 2803 
Q 834 2675 834 2503 
Q 834 2394 903 2306 
Q 972 2216 1119 2156 
Q 1203 2125 1616 2013 
Q 2213 1853 2448 1751 
Q 2684 1650 2818 1456 
Q 2953 1263 2953 975 
Q 2953 694 2789 445 
Q 2625 197 2315 61 
Q 2006 -75 1616 -75 
Q 969 -75 630 194 
Q 291 463 197 991 
z
" transform="scale(0.015625)"/>
       <path id="ArialMT-69" d="M 425 3934 
L 425 4581 
L 988 4581 
L 988 3934 
L 425 3934 
z
M 425 0 
L 425 3319 
L 988 3319 
L 988 0 
L 425 0 
z
" transform="scale(0.015625)"/>
       <path id="ArialMT-66" d="M 556 0 
L 556 2881 
L 59 2881 
L 59 3319 
L 556 3319 
L 556 3672 
Q 556 4006 616 4169 
Q 697 4388 901 4523 
Q 1106 4659 1475 4659 
Q 1713 4659 2000 4603 
L 1916 4113 
Q 1741 4144 1584 4144 
Q 1328 4144 1222 4034 
Q 1116 3925 1116 3625 
L 1116 3319 
L 1763 3319 
L 1763 2881 
L 1116 2881 
L 1116 0 
L 556 0 
z
" transform="scale(0.015625)"/>
      </defs>
      <use xlink:href="#ArialMT-52"/>
      <use xlink:href="#ArialMT-61" transform="translate(72.216797 0)"/>
      <use xlink:href="#ArialMT-6e" transform="translate(127.832031 0)"/>
      <use xlink:href="#ArialMT-64" transform="translate(183.447266 0)"/>
      <use xlink:href="#ArialMT-6f" transform="translate(239.0625 0)"/>
      <use xlink:href="#ArialMT-6d" transform="translate(294.677734 0)"/>
      <use xlink:href="#ArialMT-20" transform="translate(377.978516 0)"/>
      <use xlink:href="#ArialMT-63" transform="translate(405.761719 0)"/>
      <use xlink:href="#ArialMT-6c" transform="translate(455.761719 0)"/>
      <use xlink:href="#ArialMT-61" transform="translate(477.978516 0)"/>
      <use xlink:href="#ArialMT-73" transform="translate(533.59375 0)"/>
      <use xlink:href="#ArialMT-73" transform="translate(583.59375 0)"/>
      <use xlink:href="#ArialMT-69" transform="translate(633.59375 0)"/>
      <use xlink:href="#ArialMT-66" transform="translate(655.810547 0)"/>
      <use xlink:href="#ArialMT-69" transform="translate(683.59375 0)"/>
      <use xlink:href="#ArialMT-65" transform="translate(705.810547 0)"/>
      <use xlink:href="#ArialMT-72" transform="translate(761.425781 0)"/>
     </g>
    </g>
   </g>
  </g>
 </g>
 <defs>
  <clipPath id="p861acc6726">
   <rect x="35.655938" y="19.751719" width="253.543583" height="245.271083"/>
  </clipPath>
 </defs>
</svg>
