<?xml version="1.0" encoding="utf-8" standalone="no"?>
<!DOCTYPE svg PUBLIC "-//W3C//DTD SVG 1.1//EN"
  "http://www.w3.org/Graphics/SVG/1.1/DTD/svg11.dtd">
<svg xmlns:xlink="http://www.w3.org/1999/xlink" width="296.39952pt" height="296.39952pt" viewBox="0 0 296.39952 296.39952" xmlns="http://www.w3.org/2000/svg" version="1.1">
 <metadata>
  <rdf:RDF xmlns:dc="http://purl.org/dc/elements/1.1/" xmlns:cc="http://creativecommons.org/ns#" xmlns:rdf="http://www.w3.org/1999/02/22-rdf-syntax-ns#">
   <cc:Work>
    <dc:type rdf:resource="http://purl.org/dc/dcmitype/StillImage"/>
    <dc:date>2025-12-27T21:51:34.485583</dc:date>
    <dc:format>image/svg+xml</dc:format>
    <dc:creator>
     <cc:Agent>
      <dc:title>Matplotlib v3.10.8, https://matplotlib.org/</dc:title>
     </cc:Agent>
    </dc:creator>
   </cc:Work>
  </rdf:RDF>
 </metadata>
 <defs>
  <style type="text/css">*{stroke-linejoin: round; stroke-linecap: butt}</style>
 </defs>
 <g id="figure_1">
  <g id="patch_1">
   <path d="M 0 296.39952 
L 296.39952 296.39952 
L 296.39952 0 
L 0 0 
z
" style="fill: #ffffff"/>
  </g>
  <g id="axes_1">
   <g id="patch_2">
    <path d="M 35.655938 265.022801 
L 289.19952 265.022801 
L 289.19952 19.642031 
L 35.655938 19.642031 
z
" style="fill: #ffffff"/>
   </g>
   <g id="matplotlib.axis_1">
    <g id="xtick_1">
     <g id="line2d_1">
      <path d="M 42.831699 265.022801 
L 42.831699 19.642031 
" clip-path="url(#pa9639c4234)" style="fill: none; stroke: #c0c0c0; stroke-width: 0.25; stroke-linecap: round"/>
     </g>
     <g id="line2d_2"/>
     <g id="text_1">
      <!-- 0.0 -->
      <g style="fill: #333333" transform="translate(36.576699 274.964832) scale(0.09 -0.09)">
       <defs>
        <path id="ArialMT-30" d="M 266 2259 
Q 266 3072 433 3567 
Q 600 4063 929 4331 
Q 1259 4600 1759 4600 
Q 2128 4600 2406 4451 
Q 2684 4303 2865 4023 
Q 3047 3744 3150 3342 
Q 3253 2941 3253 2259 
Q 3253 1453 3087 958 
Q 2922 463 2592 192 
Q 2263 -78 1759 -78 
Q 1097 -78 719 397 
Q 266 969 266 2259 
z
M 844 2259 
Q 844 1131 1108 757 
Q 1372 384 1759 384 
Q 2147 384 2411 759 
Q 2675 1134 2675 2259 
Q 2675 3391 2411 3762 
Q 2147 4134 1753 4134 
Q 1366 4134 1134 3806 
Q 844 3388 844 2259 
z
" transform="scale(0.015625)"/>
        <path id="ArialMT-2e" d="M 581 0 
L 581 641 
L 1222 641 
L 1222 0 
L 581 0 
z
" transform="scale(0.015625)"/>
       </defs>
       <use xlink:href="#ArialMT-30"/>
       <use xlink:href="#ArialMT-2e" transform="translate(55.615234 0)"/>
       <use xlink:href="#ArialMT-30" transform="translate(83.398438 0)"/>
      </g>
     </g>
    </g>
    <g id="xtick_2">
     <g id="line2d_3">
      <path d="M 90.670111 265.022801 
L 90.670111 19.642031 
" clip-path="url(#pa9639c4234)" style="fill: none; stroke: #c0c0c0; stroke-width: 0.25; stroke-linecap: round"/>
     </g>
     <g id="line2d_4"/>
     <g id="text_2">
      <!-- 0.2 -->
      <g style="fill: #333333" transform="translate(84.415111 274.964832) scale(0.09 -0.09)">
       <defs>
        <path id="ArialMT-32" d="M 3222 541 
L 3222 0 
L 194 0 
Q 188 203 259 391 
Q 375 700 629 1000 
Q 884 1300 1366 1694 
Q 2113 2306 2375 2664 
Q 2638 3022 2638 3341 
Q 2638 3675 2398 3904 
Q 2159 4134 1775 4134 
Q 1369 4134 1125 3890 
Q 881 3647 878 3216 
L 300 3275 
Q 359 3922 746 4261 
Q 1134 4600 1788 4600 
Q 2447 4600 2831 4234 
Q 3216 3869 3216 3328 
Q 3216 3053 3103 2787 
Q 2991 2522 2730 2228 
Q 2469 1934 1863 1422 
Q 1356 997 1212 845 
Q 1069 694 975 541 
L 3222 541 
z
" transform="scale(0.015625)"/>
       </defs>
       <use xlink:href="#ArialMT-30"/>
       <use xlink:href="#ArialMT-2e" transform="translate(55.615234 0)"/>
       <use xlink:href="#ArialMT-32" transform="translate(83.398438 0)"/>
      </g>
     </g>
    </g>
    <g id="xtick_3">
     <g id="line2d_5">
      <path d="M 138.508523 265.022801 
L 138.508523 19.642031 
" clip-path="url(#pa9639c4234)" style="fill: none; stroke: #c0c0c0; stroke-width: 0.25; stroke-linecap: round"/>
     </g>
     <g id="line2d_6"/>
     <g id="text_3">
      <!-- 0.4 -->
      <g style="fill: #333333" transform="translate(132.253523 274.964832) scale(0.09 -0.09)">
       <defs>
        <path id="ArialMT-34" d="M 2069 0 
L 2069 1097 
L 81 1097 
L 81 1613 
L 2172 4581 
L 2631 4581 
L 2631 1613 
L 3250 1613 
L 3250 1097 
L 2631 1097 
L 2631 0 
L 2069 0 
z
M 2069 1613 
L 2069 3678 
L 634 1613 
L 2069 1613 
z
" transform="scale(0.015625)"/>
       </defs>
       <use xlink:href="#ArialMT-30"/>
       <use xlink:href="#ArialMT-2e" transform="translate(55.615234 0)"/>
       <use xlink:href="#ArialMT-34" transform="translate(83.398438 0)"/>
      </g>
     </g>
    </g>
    <g id="xtick_4">
     <g id="line2d_7">
      <path d="M 186.346935 265.022801 
L 186.346935 19.642031 
" clip-path="url(#pa9639c4234)" style="fill: none; stroke: #c0c0c0; stroke-width: 0.25; stroke-linecap: round"/>
     </g>
     <g id="line2d_8"/>
     <g id="text_4">
      <!-- 0.6 -->
      <g style="fill: #333333" transform="translate(180.091935 274.964832) scale(0.09 -0.09)">
       <defs>
        <path id="ArialMT-36" d="M 3184 3459 
L 2625 3416 
Q 2550 3747 2413 3897 
Q 2184 4138 1850 4138 
Q 1581 4138 1378 3988 
Q 1113 3794 959 3422 
Q 806 3050 800 2363 
Q 1003 2672 1297 2822 
Q 1591 2972 1913 2972 
Q 2475 2972 2870 2558 
Q 3266 2144 3266 1488 
Q 3266 1056 3080 686 
Q 2894 316 2569 119 
Q 2244 -78 1831 -78 
Q 1128 -78 684 439 
Q 241 956 241 2144 
Q 241 3472 731 4075 
Q 1159 4600 1884 4600 
Q 2425 4600 2770 4297 
Q 3116 3994 3184 3459 
z
M 888 1484 
Q 888 1194 1011 928 
Q 1134 663 1356 523 
Q 1578 384 1822 384 
Q 2178 384 2434 671 
Q 2691 959 2691 1453 
Q 2691 1928 2437 2201 
Q 2184 2475 1800 2475 
Q 1419 2475 1153 2201 
Q 888 1928 888 1484 
z
" transform="scale(0.015625)"/>
       </defs>
       <use xlink:href="#ArialMT-30"/>
       <use xlink:href="#ArialMT-2e" transform="translate(55.615234 0)"/>
       <use xlink:href="#ArialMT-36" transform="translate(83.398438 0)"/>
      </g>
     </g>
    </g>
    <g id="xtick_5">
     <g id="line2d_9">
      <path d="M 234.185346 265.022801 
L 234.185346 19.642031 
" clip-path="url(#pa9639c4234)" style="fill: none; stroke: #c0c0c0; stroke-width: 0.25; stroke-linecap: round"/>
     </g>
     <g id="line2d_10"/>
     <g id="text_5">
      <!-- 0.8 -->
      <g style="fill: #333333" transform="translate(227.930346 274.964832) scale(0.09 -0.09)">
       <defs>
        <path id="ArialMT-38" d="M 1131 2484 
Q 781 2613 612 2850 
Q 444 3088 444 3419 
Q 444 3919 803 4259 
Q 1163 4600 1759 4600 
Q 2359 4600 2725 4251 
Q 3091 3903 3091 3403 
Q 3091 3084 2923 2848 
Q 2756 2613 2416 2484 
Q 2838 2347 3058 2040 
Q 3278 1734 3278 1309 
Q 3278 722 2862 322 
Q 2447 -78 1769 -78 
Q 1091 -78 675 323 
Q 259 725 259 1325 
Q 259 1772 486 2073 
Q 713 2375 1131 2484 
z
M 1019 3438 
Q 1019 3113 1228 2906 
Q 1438 2700 1772 2700 
Q 2097 2700 2305 2904 
Q 2513 3109 2513 3406 
Q 2513 3716 2298 3927 
Q 2084 4138 1766 4138 
Q 1444 4138 1231 3931 
Q 1019 3725 1019 3438 
z
M 838 1322 
Q 838 1081 952 856 
Q 1066 631 1291 507 
Q 1516 384 1775 384 
Q 2178 384 2440 643 
Q 2703 903 2703 1303 
Q 2703 1709 2433 1975 
Q 2163 2241 1756 2241 
Q 1359 2241 1098 1978 
Q 838 1716 838 1322 
z
" transform="scale(0.015625)"/>
       </defs>
       <use xlink:href="#ArialMT-30"/>
       <use xlink:href="#ArialMT-2e" transform="translate(55.615234 0)"/>
       <use xlink:href="#ArialMT-38" transform="translate(83.398438 0)"/>
      </g>
     </g>
    </g>
    <g id="xtick_6">
     <g id="line2d_11">
      <path d="M 282.023758 265.022801 
L 282.023758 19.642031 
" clip-path="url(#pa9639c4234)" style="fill: none; stroke: #c0c0c0; stroke-width: 0.25; stroke-linecap: round"/>
     </g>
     <g id="line2d_12"/>
     <g id="text_6">
      <!-- 1.0 -->
      <g style="fill: #333333" transform="translate(275.768758 274.964832) scale(0.09 -0.09)">
       <defs>
        <path id="ArialMT-31" d="M 2384 0 
L 1822 0 
L 1822 3584 
Q 1619 3391 1289 3197 
Q 959 3003 697 2906 
L 697 3450 
Q 1169 3672 1522 3987 
Q 1875 4303 2022 4600 
L 2384 4600 
L 2384 0 
z
" transform="scale(0.015625)"/>
       </defs>
       <use xlink:href="#ArialMT-31"/>
       <use xlink:href="#ArialMT-2e" transform="translate(55.615234 0)"/>
       <use xlink:href="#ArialMT-30" transform="translate(83.398438 0)"/>
      </g>
     </g>
    </g>
    <g id="text_7">
     <!-- Recall [TP / (TP + FN)] -->
     <g style="fill: #333333" transform="translate(115.706479 287.305301) scale(0.09 -0.09)">
      <defs>
       <path id="Arial-BoldMT-52" d="M 469 0 
L 469 4581 
L 2416 4581 
Q 3150 4581 3483 4457 
Q 3816 4334 4016 4018 
Q 4216 3703 4216 3297 
Q 4216 2781 3912 2445 
Q 3609 2109 3006 2022 
Q 3306 1847 3501 1637 
Q 3697 1428 4028 894 
L 4588 0 
L 3481 0 
L 2813 997 
Q 2456 1531 2325 1670 
Q 2194 1809 2047 1861 
Q 1900 1913 1581 1913 
L 1394 1913 
L 1394 0 
L 469 0 
z
M 1394 2644 
L 2078 2644 
Q 2744 2644 2909 2700 
Q 3075 2756 3169 2893 
Q 3263 3031 3263 3238 
Q 3263 3469 3139 3611 
Q 3016 3753 2791 3791 
Q 2678 3806 2116 3806 
L 1394 3806 
L 1394 2644 
z
" transform="scale(0.015625)"/>
       <path id="Arial-BoldMT-65" d="M 2381 1056 
L 3256 909 
Q 3088 428 2723 176 
Q 2359 -75 1813 -75 
Q 947 -75 531 491 
Q 203 944 203 1634 
Q 203 2459 634 2926 
Q 1066 3394 1725 3394 
Q 2466 3394 2894 2905 
Q 3322 2416 3303 1406 
L 1103 1406 
Q 1113 1016 1316 798 
Q 1519 581 1822 581 
Q 2028 581 2168 693 
Q 2309 806 2381 1056 
z
M 2431 1944 
Q 2422 2325 2234 2523 
Q 2047 2722 1778 2722 
Q 1491 2722 1303 2513 
Q 1116 2303 1119 1944 
L 2431 1944 
z
" transform="scale(0.015625)"/>
       <path id="Arial-BoldMT-63" d="M 3353 2338 
L 2488 2181 
Q 2444 2441 2289 2572 
Q 2134 2703 1888 2703 
Q 1559 2703 1364 2476 
Q 1169 2250 1169 1719 
Q 1169 1128 1367 884 
Q 1566 641 1900 641 
Q 2150 641 2309 783 
Q 2469 925 2534 1272 
L 3397 1125 
Q 3263 531 2881 228 
Q 2500 -75 1859 -75 
Q 1131 -75 698 384 
Q 266 844 266 1656 
Q 266 2478 700 2936 
Q 1134 3394 1875 3394 
Q 2481 3394 2839 3133 
Q 3197 2872 3353 2338 
z
" transform="scale(0.015625)"/>
       <path id="Arial-BoldMT-61" d="M 1116 2306 
L 319 2450 
Q 453 2931 781 3162 
Q 1109 3394 1756 3394 
Q 2344 3394 2631 3255 
Q 2919 3116 3036 2902 
Q 3153 2688 3153 2116 
L 3144 1091 
Q 3144 653 3186 445 
Q 3228 238 3344 0 
L 2475 0 
Q 2441 88 2391 259 
Q 2369 338 2359 363 
Q 2134 144 1878 34 
Q 1622 -75 1331 -75 
Q 819 -75 523 203 
Q 228 481 228 906 
Q 228 1188 362 1408 
Q 497 1628 739 1745 
Q 981 1863 1438 1950 
Q 2053 2066 2291 2166 
L 2291 2253 
Q 2291 2506 2166 2614 
Q 2041 2722 1694 2722 
Q 1459 2722 1328 2630 
Q 1197 2538 1116 2306 
z
M 2291 1594 
Q 2122 1538 1756 1459 
Q 1391 1381 1278 1306 
Q 1106 1184 1106 997 
Q 1106 813 1243 678 
Q 1381 544 1594 544 
Q 1831 544 2047 700 
Q 2206 819 2256 991 
Q 2291 1103 2291 1419 
L 2291 1594 
z
" transform="scale(0.015625)"/>
       <path id="Arial-BoldMT-6c" d="M 459 0 
L 459 4581 
L 1338 4581 
L 1338 0 
L 459 0 
z
" transform="scale(0.015625)"/>
       <path id="Arial-BoldMT-20" transform="scale(0.015625)"/>
       <path id="Arial-BoldMT-5b" d="M 456 -1291 
L 456 4581 
L 2013 4581 
L 2013 3891 
L 1291 3891 
L 1291 -600 
L 2013 -600 
L 2013 -1291 
L 456 -1291 
z
" transform="scale(0.015625)"/>
       <path id="Arial-BoldMT-54" d="M 1497 0 
L 1497 3806 
L 138 3806 
L 138 4581 
L 3778 4581 
L 3778 3806 
L 2422 3806 
L 2422 0 
L 1497 0 
z
" transform="scale(0.015625)"/>
       <path id="Arial-BoldMT-50" d="M 466 0 
L 466 4581 
L 1950 4581 
Q 2794 4581 3050 4513 
Q 3444 4409 3709 4064 
Q 3975 3719 3975 3172 
Q 3975 2750 3822 2462 
Q 3669 2175 3433 2011 
Q 3197 1847 2953 1794 
Q 2622 1728 1994 1728 
L 1391 1728 
L 1391 0 
L 466 0 
z
M 1391 3806 
L 1391 2506 
L 1897 2506 
Q 2444 2506 2628 2578 
Q 2813 2650 2917 2803 
Q 3022 2956 3022 3159 
Q 3022 3409 2875 3571 
Q 2728 3734 2503 3775 
Q 2338 3806 1838 3806 
L 1391 3806 
z
" transform="scale(0.015625)"/>
       <path id="Arial-BoldMT-2f" d="M -9 -78 
L 1125 4659 
L 1784 4659 
L 638 -78 
L -9 -78 
z
" transform="scale(0.015625)"/>
       <path id="Arial-BoldMT-28" d="M 1916 -1347 
L 1313 -1347 
Q 834 -625 584 153 
Q 334 931 334 1659 
Q 334 2563 644 3369 
Q 913 4069 1325 4659 
L 1925 4659 
Q 1497 3713 1336 3048 
Q 1175 2384 1175 1641 
Q 1175 1128 1270 590 
Q 1366 53 1531 -431 
Q 1641 -750 1916 -1347 
z
" transform="scale(0.015625)"/>
       <path id="Arial-BoldMT-2b" d="M 1466 659 
L 1466 1850 
L 266 1850 
L 266 2672 
L 1466 2672 
L 1466 3863 
L 2266 3863 
L 2266 2672 
L 3469 2672 
L 3469 1850 
L 2266 1850 
L 2266 659 
L 1466 659 
z
" transform="scale(0.015625)"/>
       <path id="Arial-BoldMT-46" d="M 472 0 
L 472 4581 
L 3613 4581 
L 3613 3806 
L 1397 3806 
L 1397 2722 
L 3309 2722 
L 3309 1947 
L 1397 1947 
L 1397 0 
L 472 0 
z
" transform="scale(0.015625)"/>
       <path id="Arial-BoldMT-4e" d="M 475 0 
L 475 4581 
L 1375 4581 
L 3250 1522 
L 3250 4581 
L 4109 4581 
L 4109 0 
L 3181 0 
L 1334 2988 
L 1334 0 
L 475 0 
z
" transform="scale(0.015625)"/>
       <path id="Arial-BoldMT-29" d="M 216 -1347 
Q 475 -791 581 -494 
Q 688 -197 778 190 
Q 869 578 912 926 
Q 956 1275 956 1641 
Q 956 2384 797 3048 
Q 638 3713 209 4659 
L 806 4659 
Q 1278 3988 1539 3234 
Q 1800 2481 1800 1706 
Q 1800 1053 1594 306 
Q 1359 -531 822 -1347 
L 216 -1347 
z
" transform="scale(0.015625)"/>
       <path id="Arial-BoldMT-5d" d="M 1675 4581 
L 1675 -1291 
L 119 -1291 
L 119 -600 
L 841 -600 
L 841 3897 
L 119 3897 
L 119 4581 
L 1675 4581 
z
" transform="scale(0.015625)"/>
      </defs>
      <use xlink:href="#Arial-BoldMT-52"/>
      <use xlink:href="#Arial-BoldMT-65" transform="translate(72.216797 0)"/>
      <use xlink:href="#Arial-BoldMT-63" transform="translate(127.832031 0)"/>
      <use xlink:href="#Arial-BoldMT-61" transform="translate(183.447266 0)"/>
      <use xlink:href="#Arial-BoldMT-6c" transform="translate(239.0625 0)"/>
      <use xlink:href="#Arial-BoldMT-6c" transform="translate(266.845703 0)"/>
      <use xlink:href="#Arial-BoldMT-20" transform="translate(294.628906 0)"/>
      <use xlink:href="#Arial-BoldMT-5b" transform="translate(322.412109 0)"/>
      <use xlink:href="#Arial-BoldMT-54" transform="translate(355.712891 0)"/>
      <use xlink:href="#Arial-BoldMT-50" transform="translate(416.796875 0)"/>
      <use xlink:href="#Arial-BoldMT-20" transform="translate(481.746094 0)"/>
      <use xlink:href="#Arial-BoldMT-2f" transform="translate(509.529297 0)"/>
      <use xlink:href="#Arial-BoldMT-20" transform="translate(537.3125 0)"/>
      <use xlink:href="#Arial-BoldMT-28" transform="translate(565.095703 0)"/>
      <use xlink:href="#Arial-BoldMT-54" transform="translate(598.396484 0)"/>
      <use xlink:href="#Arial-BoldMT-50" transform="translate(659.480469 0)"/>
      <use xlink:href="#Arial-BoldMT-20" transform="translate(724.429688 0)"/>
      <use xlink:href="#Arial-BoldMT-2b" transform="translate(752.212891 0)"/>
      <use xlink:href="#Arial-BoldMT-20" transform="translate(810.611328 0)"/>
      <use xlink:href="#Arial-BoldMT-46" transform="translate(838.394531 0)"/>
      <use xlink:href="#Arial-BoldMT-4e" transform="translate(899.478516 0)"/>
      <use xlink:href="#Arial-BoldMT-29" transform="translate(971.695312 0)"/>
      <use xlink:href="#Arial-BoldMT-5d" transform="translate(1004.996094 0)"/>
     </g>
    </g>
   </g>
   <g id="matplotlib.axis_2">
    <g id="ytick_1">
     <g id="line2d_13">
      <path d="M 35.655938 265.022801 
L 289.19952 265.022801 
" clip-path="url(#pa9639c4234)" style="fill: none; stroke: #c0c0c0; stroke-width: 0.25; stroke-linecap: round"/>
     </g>
     <g id="line2d_14"/>
     <g id="text_8">
      <!-- 0.0 -->
      <g style="fill: #333333" transform="translate(19.645938 268.243817) scale(0.09 -0.09)">
       <use xlink:href="#ArialMT-30"/>
       <use xlink:href="#ArialMT-2e" transform="translate(55.615234 0)"/>
       <use xlink:href="#ArialMT-30" transform="translate(83.398438 0)"/>
      </g>
     </g>
    </g>
    <g id="ytick_2">
     <g id="line2d_15">
      <path d="M 35.655938 217.37605 
L 289.19952 217.37605 
" clip-path="url(#pa9639c4234)" style="fill: none; stroke: #c0c0c0; stroke-width: 0.25; stroke-linecap: round"/>
     </g>
     <g id="line2d_16"/>
     <g id="text_9">
      <!-- 0.2 -->
      <g style="fill: #333333" transform="translate(19.645938 220.597065) scale(0.09 -0.09)">
       <use xlink:href="#ArialMT-30"/>
       <use xlink:href="#ArialMT-2e" transform="translate(55.615234 0)"/>
       <use xlink:href="#ArialMT-32" transform="translate(83.398438 0)"/>
      </g>
     </g>
    </g>
    <g id="ytick_3">
     <g id="line2d_17">
      <path d="M 35.655938 169.729298 
L 289.19952 169.729298 
" clip-path="url(#pa9639c4234)" style="fill: none; stroke: #c0c0c0; stroke-width: 0.25; stroke-linecap: round"/>
     </g>
     <g id="line2d_18"/>
     <g id="text_10">
      <!-- 0.4 -->
      <g style="fill: #333333" transform="translate(19.645938 172.950314) scale(0.09 -0.09)">
       <use xlink:href="#ArialMT-30"/>
       <use xlink:href="#ArialMT-2e" transform="translate(55.615234 0)"/>
       <use xlink:href="#ArialMT-34" transform="translate(83.398438 0)"/>
      </g>
     </g>
    </g>
    <g id="ytick_4">
     <g id="line2d_19">
      <path d="M 35.655938 122.082547 
L 289.19952 122.082547 
" clip-path="url(#pa9639c4234)" style="fill: none; stroke: #c0c0c0; stroke-width: 0.25; stroke-linecap: round"/>
     </g>
     <g id="line2d_20"/>
     <g id="text_11">
      <!-- 0.6 -->
      <g style="fill: #333333" transform="translate(19.645938 125.303563) scale(0.09 -0.09)">
       <use xlink:href="#ArialMT-30"/>
       <use xlink:href="#ArialMT-2e" transform="translate(55.615234 0)"/>
       <use xlink:href="#ArialMT-36" transform="translate(83.398438 0)"/>
      </g>
     </g>
    </g>
    <g id="ytick_5">
     <g id="line2d_21">
      <path d="M 35.655938 74.435795 
L 289.19952 74.435795 
" clip-path="url(#pa9639c4234)" style="fill: none; stroke: #c0c0c0; stroke-width: 0.25; stroke-linecap: round"/>
     </g>
     <g id="line2d_22"/>
     <g id="text_12">
      <!-- 0.8 -->
      <g style="fill: #333333" transform="translate(19.645938 77.656811) scale(0.09 -0.09)">
       <use xlink:href="#ArialMT-30"/>
       <use xlink:href="#ArialMT-2e" transform="translate(55.615234 0)"/>
       <use xlink:href="#ArialMT-38" transform="translate(83.398438 0)"/>
      </g>
     </g>
    </g>
    <g id="ytick_6">
     <g id="line2d_23">
      <path d="M 35.655938 26.789044 
L 289.19952 26.789044 
" clip-path="url(#pa9639c4234)" style="fill: none; stroke: #c0c0c0; stroke-width: 0.25; stroke-linecap: round"/>
     </g>
     <g id="line2d_24"/>
     <g id="text_13">
      <!-- 1.0 -->
      <g style="fill: #333333" transform="translate(19.645938 30.01006) scale(0.09 -0.09)">
       <use xlink:href="#ArialMT-31"/>
       <use xlink:href="#ArialMT-2e" transform="translate(55.615234 0)"/>
       <use xlink:href="#ArialMT-30" transform="translate(83.398438 0)"/>
      </g>
     </g>
    </g>
    <g id="text_14">
     <!-- Precision [TP / (TP + FP)] -->
     <g style="fill: #333333" transform="translate(13.751719 195.805776) rotate(-90) scale(0.09 -0.09)">
      <defs>
       <path id="Arial-BoldMT-72" d="M 1300 0 
L 422 0 
L 422 3319 
L 1238 3319 
L 1238 2847 
Q 1447 3181 1614 3287 
Q 1781 3394 1994 3394 
Q 2294 3394 2572 3228 
L 2300 2463 
Q 2078 2606 1888 2606 
Q 1703 2606 1575 2504 
Q 1447 2403 1373 2137 
Q 1300 1872 1300 1025 
L 1300 0 
z
" transform="scale(0.015625)"/>
       <path id="Arial-BoldMT-69" d="M 459 3769 
L 459 4581 
L 1338 4581 
L 1338 3769 
L 459 3769 
z
M 459 0 
L 459 3319 
L 1338 3319 
L 1338 0 
L 459 0 
z
" transform="scale(0.015625)"/>
       <path id="Arial-BoldMT-73" d="M 150 947 
L 1031 1081 
Q 1088 825 1259 692 
Q 1431 559 1741 559 
Q 2081 559 2253 684 
Q 2369 772 2369 919 
Q 2369 1019 2306 1084 
Q 2241 1147 2013 1200 
Q 950 1434 666 1628 
Q 272 1897 272 2375 
Q 272 2806 612 3100 
Q 953 3394 1669 3394 
Q 2350 3394 2681 3172 
Q 3013 2950 3138 2516 
L 2309 2363 
Q 2256 2556 2107 2659 
Q 1959 2763 1684 2763 
Q 1338 2763 1188 2666 
Q 1088 2597 1088 2488 
Q 1088 2394 1175 2328 
Q 1294 2241 1995 2081 
Q 2697 1922 2975 1691 
Q 3250 1456 3250 1038 
Q 3250 581 2869 253 
Q 2488 -75 1741 -75 
Q 1063 -75 667 200 
Q 272 475 150 947 
z
" transform="scale(0.015625)"/>
       <path id="Arial-BoldMT-6f" d="M 256 1706 
Q 256 2144 472 2553 
Q 688 2963 1083 3178 
Q 1478 3394 1966 3394 
Q 2719 3394 3200 2905 
Q 3681 2416 3681 1669 
Q 3681 916 3195 420 
Q 2709 -75 1972 -75 
Q 1516 -75 1102 131 
Q 688 338 472 736 
Q 256 1134 256 1706 
z
M 1156 1659 
Q 1156 1166 1390 903 
Q 1625 641 1969 641 
Q 2313 641 2545 903 
Q 2778 1166 2778 1666 
Q 2778 2153 2545 2415 
Q 2313 2678 1969 2678 
Q 1625 2678 1390 2415 
Q 1156 2153 1156 1659 
z
" transform="scale(0.015625)"/>
       <path id="Arial-BoldMT-6e" d="M 3478 0 
L 2600 0 
L 2600 1694 
Q 2600 2231 2544 2389 
Q 2488 2547 2361 2634 
Q 2234 2722 2056 2722 
Q 1828 2722 1647 2597 
Q 1466 2472 1398 2265 
Q 1331 2059 1331 1503 
L 1331 0 
L 453 0 
L 453 3319 
L 1269 3319 
L 1269 2831 
Q 1703 3394 2363 3394 
Q 2653 3394 2893 3289 
Q 3134 3184 3257 3021 
Q 3381 2859 3429 2653 
Q 3478 2447 3478 2063 
L 3478 0 
z
" transform="scale(0.015625)"/>
      </defs>
      <use xlink:href="#Arial-BoldMT-50"/>
      <use xlink:href="#Arial-BoldMT-72" transform="translate(66.699219 0)"/>
      <use xlink:href="#Arial-BoldMT-65" transform="translate(105.615234 0)"/>
      <use xlink:href="#Arial-BoldMT-63" transform="translate(161.230469 0)"/>
      <use xlink:href="#Arial-BoldMT-69" transform="translate(216.845703 0)"/>
      <use xlink:href="#Arial-BoldMT-73" transform="translate(244.628906 0)"/>
      <use xlink:href="#Arial-BoldMT-69" transform="translate(300.244141 0)"/>
      <use xlink:href="#Arial-BoldMT-6f" transform="translate(328.027344 0)"/>
      <use xlink:href="#Arial-BoldMT-6e" transform="translate(389.111328 0)"/>
      <use xlink:href="#Arial-BoldMT-20" transform="translate(450.195312 0)"/>
      <use xlink:href="#Arial-BoldMT-5b" transform="translate(477.978516 0)"/>
      <use xlink:href="#Arial-BoldMT-54" transform="translate(511.279297 0)"/>
      <use xlink:href="#Arial-BoldMT-50" transform="translate(572.363281 0)"/>
      <use xlink:href="#Arial-BoldMT-20" transform="translate(637.3125 0)"/>
      <use xlink:href="#Arial-BoldMT-2f" transform="translate(665.095703 0)"/>
      <use xlink:href="#Arial-BoldMT-20" transform="translate(692.878906 0)"/>
      <use xlink:href="#Arial-BoldMT-28" transform="translate(720.662109 0)"/>
      <use xlink:href="#Arial-BoldMT-54" transform="translate(753.962891 0)"/>
      <use xlink:href="#Arial-BoldMT-50" transform="translate(815.046875 0)"/>
      <use xlink:href="#Arial-BoldMT-20" transform="translate(879.996094 0)"/>
      <use xlink:href="#Arial-BoldMT-2b" transform="translate(907.779297 0)"/>
      <use xlink:href="#Arial-BoldMT-20" transform="translate(966.177734 0)"/>
      <use xlink:href="#Arial-BoldMT-46" transform="translate(993.960938 0)"/>
      <use xlink:href="#Arial-BoldMT-50" transform="translate(1055.044922 0)"/>
      <use xlink:href="#Arial-BoldMT-29" transform="translate(1121.744141 0)"/>
      <use xlink:href="#Arial-BoldMT-5d" transform="translate(1155.044922 0)"/>
     </g>
    </g>
   </g>
   <g id="line2d_25">
    <path d="M 42.831699 265.022801 
L 42.832025 264.927248 
L 42.943112 243.943719 
L 42.945992 243.848166 
L 43.057008 233.929722 
L 43.05827 233.834169 
L 43.169082 227.355648 
L 43.171189 227.260094 
L 43.280912 222.119321 
L 43.284271 222.023768 
L 43.393821 217.87675 
L 43.402239 217.781196 
L 43.51246 213.615068 
L 43.516237 213.519514 
L 43.627201 209.869374 
L 43.632219 209.773821 
L 43.743143 206.716112 
L 43.746136 206.620558 
L 43.85707 203.715735 
L 43.865488 203.620181 
L 43.976106 201.518006 
L 43.980076 201.422453 
L 44.091031 199.243835 
L 44.095529 199.148282 
L 44.20571 197.065217 
L 44.205955 197.065217 
L 44.209609 196.969664 
L 44.318151 195.440809 
L 44.324869 195.345256 
L 44.432994 193.854623 
L 44.445157 193.759069 
L 44.555267 192.306658 
L 44.555531 192.306658 
L 44.562005 192.211104 
L 44.670395 190.835135 
L 44.681428 190.758692 
L 44.792169 189.497387 
L 44.798887 189.401834 
L 44.907683 187.911201 
L 44.913953 187.815647 
L 45.024185 186.21035 
L 45.032766 186.114797 
L 45.141857 184.585942 
L 45.142621 184.585942 
L 45.152239 184.490389 
L 45.26294 182.751317 
L 45.276894 182.655763 
L 45.387859 181.107798 
L 45.40275 181.012245 
L 45.513175 179.674497 
L 45.525349 179.578944 
L 45.628028 178.222085 
L 45.660039 178.126532 
L 45.770851 176.597677 
L 45.790791 176.502124 
L 45.899374 175.164376 
L 45.913339 175.068823 
L 46.022034 173.960403 
L 46.040334 173.86485 
L 46.151258 172.794652 
L 46.167127 172.699098 
L 46.274732 171.724454 
L 46.28999 171.6289 
L 46.398756 170.845362 
L 46.401016 170.845362 
L 46.409311 170.749809 
L 46.520286 169.717832 
L 46.52621 169.622279 
L 46.636432 168.704966 
L 46.637185 168.704966 
L 46.657684 168.609412 
L 46.766542 167.558325 
L 46.777718 167.462771 
L 46.887909 166.430795 
L 46.918953 166.335241 
L 47.028829 165.417929 
L 47.036707 165.322375 
L 47.144476 164.462394 
L 47.159153 164.366841 
L 47.265385 163.545082 
L 47.267471 163.545082 
L 47.284836 163.449528 
L 47.394467 162.551326 
L 47.405053 162.455773 
L 47.50362 161.691346 
L 47.515956 161.691346 
L 47.525504 161.595792 
L 47.635043 160.716701 
L 47.647074 160.621147 
L 47.745968 159.83761 
L 47.77806 159.742056 
L 47.884587 159.226068 
L 47.906857 159.130514 
L 48.016529 158.44253 
L 48.028499 158.346976 
L 48.137805 157.429664 
L 48.155414 157.33411 
L 48.264556 156.741679 
L 48.266297 156.741679 
L 48.283967 156.646126 
L 48.392723 155.91992 
L 48.41368 155.824366 
L 48.524736 154.983496 
L 48.547047 154.887943 
L 48.656933 154.085294 
L 48.665951 153.989741 
L 48.76685 153.339978 
L 48.776662 153.339978 
L 48.801741 153.244424 
L 48.90439 152.632883 
L 48.91181 152.632883 
L 48.947628 152.537329 
L 49.058359 151.868455 
L 49.079784 151.772902 
L 49.188632 151.046696 
L 49.204073 150.951143 
L 49.31118 150.377822 
L 49.334906 150.282269 
L 49.443468 149.708948 
L 49.443601 149.708948 
L 49.461352 149.613395 
L 49.569589 148.9063 
L 49.5879 148.810746 
L 49.697673 148.141872 
L 49.720483 148.046319 
L 49.82927 147.339224 
L 49.83954 147.24367 
L 49.943909 146.517464 
L 49.949874 146.517464 
L 49.958271 146.421911 
L 50.069256 145.905923 
L 50.087394 145.810369 
L 50.19843 144.98861 
L 50.240813 144.893056 
L 50.350067 144.262404 
L 50.36849 144.166851 
L 50.475821 143.440645 
L 50.48827 143.345091 
L 50.586847 142.905546 
L 50.598023 142.905546 
L 50.618858 142.809992 
L 50.727075 142.274893 
L 50.754302 142.17934 
L 50.864972 141.491355 
L 50.883049 141.395802 
L 50.991876 140.803371 
L 50.993749 140.803371 
L 51.015581 140.707817 
L 51.118872 140.210939 
L 51.147534 140.115386 
L 51.257257 139.67584 
L 51.276871 139.580287 
L 51.385108 139.045188 
L 51.405515 138.949634 
L 51.511839 138.338093 
L 51.538343 138.242539 
L 51.634916 137.783883 
L 51.646204 137.783883 
L 51.685981 137.68833 
L 51.786696 137.229673 
L 51.796671 137.229673 
L 51.818351 137.13412 
L 51.925519 136.599021 
L 51.958263 136.503467 
L 52.066347 135.949257 
L 52.067548 135.949257 
L 52.092292 135.853704 
L 52.200417 135.223052 
L 52.201404 135.223052 
L 52.228652 135.127498 
L 52.320542 134.726174 
L 52.321275 134.726174 
L 52.377124 134.63062 
L 52.481452 133.980857 
L 52.494053 133.885304 
L 52.604428 133.407537 
L 52.634708 133.311983 
L 52.745795 132.719552 
L 52.774193 132.623999 
L 52.882623 132.318228 
L 52.883041 132.318228 
L 52.942208 132.222675 
L 53.04049 131.783129 
L 53.049111 131.783129 
L 53.068328 131.687575 
L 53.173349 131.26714 
L 53.177919 131.26714 
L 53.215487 131.171587 
L 53.324264 130.712931 
L 53.324793 130.712931 
L 53.381364 130.617377 
L 53.46099 130.330717 
L 53.487841 130.330717 
L 53.510213 130.235164 
L 53.617483 129.776507 
L 53.617554 129.776507 
L 53.663265 129.680954 
L 53.766515 129.317851 
L 53.771278 129.317851 
L 53.814323 129.222298 
L 53.900747 128.668088 
L 53.910081 128.668088 
L 53.968026 128.572534 
L 54.075754 128.037435 
L 54.078716 128.037435 
L 54.107053 127.941882 
L 54.204338 127.674332 
L 54.215198 127.674332 
L 54.269368 127.578779 
L 54.376851 127.139233 
L 54.379763 127.139233 
L 54.42244 127.04368 
L 54.53252 126.623245 
L 54.56963 126.527691 
L 54.674641 125.954371 
L 54.678916 125.954371 
L 54.711354 125.858818 
L 54.822278 125.285497 
L 54.875613 125.189944 
L 54.983046 124.750398 
L 55.023006 124.654845 
L 55.133319 124.177078 
L 55.133961 124.177078 
L 55.19156 124.081524 
L 55.300072 123.756643 
L 55.359188 123.661089 
L 55.47 123.374429 
L 55.504515 123.278876 
L 55.587795 122.973105 
L 55.611185 122.973105 
L 55.646158 122.877551 
L 55.740878 122.418895 
L 55.748196 122.418895 
L 55.791281 122.323341 
L 55.886429 121.922017 
L 55.900322 121.922017 
L 55.938002 121.826464 
L 56.046738 121.520693 
L 56.047725 121.520693 
L 56.076123 121.425139 
L 56.182253 121.214922 
L 56.185582 121.214922 
L 56.222102 121.119369 
L 56.319651 120.813598 
L 56.330573 120.813598 
L 56.368467 120.718044 
L 56.474841 120.374052 
L 56.477935 120.374052 
L 56.513723 120.278499 
L 56.584849 120.068281 
L 56.624138 120.068281 
L 56.656291 119.972728 
L 56.766208 119.571403 
L 56.766442 119.571403 
L 56.824072 119.47585 
L 56.922812 119.246522 
L 56.935077 119.246522 
L 56.967607 119.150968 
L 57.070959 118.845197 
L 57.078012 118.845197 
L 57.137149 118.749644 
L 57.239075 118.424762 
L 57.247788 118.424762 
L 57.279422 118.329209 
L 57.384189 117.966106 
L 57.389074 117.966106 
L 57.451274 117.870553 
L 57.562025 117.488339 
L 57.60623 117.392786 
L 57.703831 117.125236 
L 57.713724 117.125236 
L 57.742722 117.029683 
L 57.846929 116.819465 
L 57.852771 116.819465 
L 57.887744 116.723912 
L 57.99077 116.379919 
L 57.995726 116.379919 
L 58.040898 116.284366 
L 58.131873 115.940374 
L 58.133868 115.940374 
L 58.174154 115.84482 
L 58.283123 115.519939 
L 58.312132 115.424385 
L 58.422435 114.927508 
L 58.45694 114.831954 
L 58.566693 114.487962 
L 58.584801 114.392409 
L 58.682717 114.029306 
L 58.733924 113.933752 
L 58.842955 113.685313 
L 58.875831 113.58976 
L 58.975295 113.283989 
L 58.986369 113.283989 
L 59.037566 113.188436 
L 59.148276 112.787111 
L 59.190435 112.691558 
L 59.293349 112.404898 
L 59.300117 112.404898 
L 59.352333 112.309344 
L 59.462402 111.927131 
L 59.462809 111.927131 
L 59.500937 111.831577 
L 59.609296 111.525806 
L 59.61006 111.525806 
L 59.639526 111.430253 
L 59.739732 111.143593 
L 59.750623 111.143593 
L 59.789678 111.048039 
L 59.891736 110.684936 
L 59.898311 110.684936 
L 59.920734 110.589383 
L 60.030458 110.321833 
L 60.062082 110.22628 
L 60.156995 109.977841 
L 60.167214 109.977841 
L 60.239888 109.882288 
L 60.336308 109.576517 
L 60.347056 109.576517 
L 60.390426 109.500074 
L 60.501065 109.194303 
L 60.516516 109.09875 
L 60.620723 108.8312 
L 60.702557 108.735647 
L 60.806407 108.468097 
L 60.812453 108.468097 
L 60.878745 108.372544 
L 60.987694 108.124105 
L 61.052673 108.028552 
L 61.158335 107.646338 
L 61.163343 107.646338 
L 61.212056 107.550785 
L 61.313962 107.245014 
L 61.321912 107.245014 
L 61.353872 107.14946 
L 61.452429 106.977464 
L 61.458913 106.977464 
L 61.526986 106.881911 
L 61.636434 106.690804 
L 61.638083 106.690804 
L 61.663855 106.59525 
L 61.763216 106.28948 
L 61.768275 106.28948 
L 61.822811 106.193926 
L 61.931129 105.869045 
L 61.932839 105.869045 
L 61.98541 105.773491 
L 62.096121 105.601495 
L 62.171125 105.505942 
L 62.265143 105.219281 
L 62.280472 105.219281 
L 62.315119 105.123728 
L 62.424822 104.91351 
L 62.508356 104.817957 
L 62.619208 104.645961 
L 62.666355 104.550408 
L 62.765971 104.225526 
L 62.775732 104.225526 
L 62.80475 104.129973 
L 62.907908 103.881534 
L 62.994903 103.78598 
L 63.096056 103.49932 
L 63.101979 103.49932 
L 63.180781 103.403767 
L 63.285669 103.059774 
L 63.29087 103.059774 
L 63.347442 102.964221 
L 63.442172 102.773114 
L 63.443984 102.773114 
L 63.525899 102.677561 
L 63.619276 102.448233 
L 63.634503 102.448233 
L 63.696509 102.352679 
L 63.783697 102.123351 
L 63.807108 102.123351 
L 63.842284 102.027798 
L 63.952842 101.741137 
L 63.980741 101.645584 
L 64.087034 101.339813 
L 64.12792 101.24426 
L 64.233491 101.072263 
L 64.233603 101.072263 
L 64.286662 100.97671 
L 64.378013 100.747382 
L 64.397648 100.747382 
L 64.458942 100.651828 
L 64.560716 100.365168 
L 64.567973 100.365168 
L 64.654581 100.269615 
L 64.752202 100.021176 
L 64.764558 100.021176 
L 64.824326 99.925623 
L 64.932725 99.715405 
L 65.003262 99.619852 
L 65.107733 99.428745 
L 65.111651 99.428745 
L 65.178676 99.333191 
L 65.28332 99.00831 
L 65.287442 99.00831 
L 65.371353 98.912756 
L 65.480913 98.587875 
L 65.507927 98.492321 
L 65.618494 98.16744 
L 65.619003 98.16744 
L 65.672419 98.071886 
L 65.777348 97.823448 
L 65.782997 97.823448 
L 65.870399 97.727894 
L 65.977232 97.441234 
L 65.977934 97.441234 
L 66.072104 97.345681 
L 66.169573 97.211906 
L 66.17915 97.211906 
L 66.229401 97.116352 
L 66.295581 97.020799 
L 66.335633 97.020799 
L 66.428511 96.925246 
L 66.538305 96.600364 
L 66.638277 96.504811 
L 66.748112 96.332814 
L 66.795157 96.237261 
L 66.905053 96.122597 
L 66.905144 96.122597 
L 66.986164 96.027044 
L 67.095307 95.740383 
L 67.146016 95.64483 
L 67.256278 95.415502 
L 67.287363 95.319948 
L 67.373248 95.128842 
L 67.39788 95.128842 
L 67.448803 95.033288 
L 67.557111 94.80396 
L 67.558607 94.80396 
L 67.57763 94.708407 
L 67.688208 94.459968 
L 67.688605 94.459968 
L 67.734673 94.364414 
L 67.840274 94.115975 
L 67.845617 94.115975 
L 67.881812 94.020422 
L 67.971249 93.886647 
L 67.987657 93.886647 
L 68.051638 93.791094 
L 68.15788 93.580876 
L 68.159946 93.580876 
L 68.215347 93.485323 
L 68.321141 93.236884 
L 68.321966 93.236884 
L 68.447211 93.141331 
L 68.547142 92.988445 
L 68.555539 92.988445 
L 68.63544 92.892892 
L 68.738985 92.740006 
L 68.746181 92.740006 
L 68.831119 92.644453 
L 68.941575 92.434235 
L 68.995521 92.338682 
L 69.085284 92.185797 
L 69.104002 92.185797 
L 69.169561 92.090243 
L 69.278337 91.860915 
L 69.279966 91.860915 
L 69.330909 91.765362 
L 69.437344 91.593365 
L 69.439909 91.593365 
L 69.584452 91.497812 
L 69.690216 91.268484 
L 69.694542 91.268484 
L 69.727225 91.17293 
L 69.836714 90.88627 
L 69.927149 90.790717 
L 70.024149 90.580499 
L 70.029625 90.580499 
L 70.104161 90.484946 
L 70.212754 90.274728 
L 70.213711 90.274728 
L 70.244154 90.179175 
L 70.324411 90.083622 
L 70.34777 90.083622 
L 70.401054 89.988068 
L 70.509719 89.701408 
L 70.511184 89.701408 
L 70.625142 89.605855 
L 70.733409 89.376526 
L 70.735648 89.376526 
L 70.821758 89.280973 
L 70.91549 89.070755 
L 70.930483 89.070755 
L 71.030557 88.975202 
L 71.128626 88.860538 
L 71.141532 88.860538 
L 71.1996 88.764985 
L 71.29832 88.592988 
L 71.310239 88.592988 
L 71.335155 88.497435 
L 71.437123 88.34455 
L 71.442792 88.34455 
L 71.509929 88.248996 
L 71.616873 88.038779 
L 71.619489 88.038779 
L 71.693231 87.943225 
L 71.787514 87.694786 
L 71.793285 87.694786 
L 71.888911 87.599233 
L 71.987427 87.408126 
L 71.997534 87.408126 
L 72.097659 87.312573 
L 72.177244 87.102355 
L 72.208349 87.102355 
L 72.302072 87.006802 
L 72.399683 86.815695 
L 72.407958 86.815695 
L 72.539177 86.720142 
L 72.64144 86.548145 
L 72.729971 86.452592 
L 72.831775 86.204153 
L 72.964115 86.1086 
L 73.021999 86.032157 
L 73.071436 86.032157 
L 73.166563 85.936604 
L 73.273589 85.802829 
L 73.447385 85.707275 
L 73.546736 85.516169 
L 73.551092 85.516169 
L 73.649772 85.420615 
L 73.757826 85.305951 
L 73.760452 85.305951 
L 73.904486 85.210398 
L 74.007115 85.114844 
L 74.111168 85.019291 
L 74.217441 84.828184 
L 74.219232 84.828184 
L 74.412174 84.732631 
L 74.481316 84.598856 
L 74.516339 84.598856 
L 74.630409 84.503303 
L 74.740203 84.273974 
L 74.838363 84.178421 
L 74.949175 84.025535 
L 75.049891 83.929982 
L 75.132173 83.853539 
L 75.138259 83.853539 
L 75.260563 83.757986 
L 75.36826 83.643322 
L 75.371497 83.643322 
L 75.458583 83.547768 
L 75.560998 83.356662 
L 75.568744 83.356662 
L 75.636715 83.261108 
L 75.73857 83.03178 
L 75.739873 83.03178 
L 75.865291 82.936227 
L 75.964419 82.74512 
L 75.9725 82.74512 
L 76.097684 82.649566 
L 76.188333 82.496681 
L 76.202898 82.496681 
L 76.37302 82.401128 
L 76.445286 82.286463 
L 76.482112 82.286463 
L 76.600191 82.19091 
L 76.70852 82.057135 
L 76.709344 82.057135 
L 76.777265 81.961582 
L 76.883863 81.808696 
L 76.886367 81.808696 
L 77.067186 81.713143 
L 77.171484 81.560258 
L 77.178181 81.560258 
L 77.26709 81.464704 
L 77.338593 81.235376 
L 77.377851 81.235376 
L 77.480113 81.139823 
L 77.577846 80.948716 
L 77.589989 80.948716 
L 77.709697 80.853162 
L 77.807196 80.700277 
L 77.82 80.700277 
L 77.923015 80.604723 
L 78.03109 80.50917 
L 78.033186 80.50917 
L 78.20799 80.413617 
L 78.305896 80.260731 
L 78.314873 80.260731 
L 78.362437 80.165178 
L 78.45564 80.088735 
L 78.471457 80.088735 
L 78.533373 79.993182 
L 78.636643 79.782964 
L 78.641223 79.782964 
L 78.683891 79.687411 
L 78.782468 79.591857 
L 78.785145 79.591857 
L 78.85387 79.496304 
L 78.960621 79.419861 
L 78.964824 79.419861 
L 79.065763 79.324308 
L 79.153298 79.190533 
L 79.176708 79.190533 
L 79.288874 79.09498 
L 79.388795 79.037648 
L 79.394271 79.037648 
L 79.454659 78.942094 
L 79.55285 78.789209 
L 79.55795 78.789209 
L 79.632649 78.693655 
L 79.73827 78.521659 
L 79.743064 78.521659 
L 79.83188 78.426106 
L 79.884096 78.349663 
L 79.930438 78.349663 
L 80.11944 78.25411 
L 80.205132 78.120335 
L 80.219392 78.120335 
L 80.298407 78.024781 
L 80.334581 77.98656 
L 80.404578 77.98656 
L 80.544357 77.891007 
L 80.650345 77.795453 
L 80.734113 77.6999 
L 80.844488 77.604346 
L 80.934933 77.508793 
L 81.026671 77.451461 
L 81.030935 77.451461 
L 81.241536 77.355908 
L 81.327595 77.203022 
L 81.347453 77.203022 
L 81.469817 77.107469 
L 81.560659 76.916362 
L 81.578858 76.916362 
L 81.694597 76.820808 
L 81.792615 76.667923 
L 81.796381 76.667923 
L 82.025628 76.57237 
L 82.127321 76.343041 
L 82.188646 76.247488 
L 82.299498 76.094603 
L 82.395786 75.999049 
L 82.502079 75.865274 
L 82.502893 75.865274 
L 82.643314 75.769721 
L 82.743195 75.635946 
L 82.746879 75.635946 
L 82.874048 75.540393 
L 82.93235 75.444839 
L 82.974824 75.444839 
L 83.062806 75.349286 
L 83.173384 75.234622 
L 83.306314 75.139069 
L 83.414032 75.024404 
L 83.415823 75.024404 
L 83.63246 74.928851 
L 83.731251 74.661301 
L 83.822704 74.565748 
L 83.929109 74.412863 
L 83.932794 74.412863 
L 84.011137 74.317309 
L 84.074894 74.202645 
L 84.113877 74.202645 
L 84.214399 74.107092 
L 84.301852 73.973317 
L 84.315684 73.973317 
L 84.433326 73.877764 
L 84.542072 73.763099 
L 84.665516 73.667546 
L 84.732601 73.571993 
L 84.770618 73.571993 
L 84.918744 73.476439 
L 85.024772 73.323554 
L 85.025708 73.323554 
L 85.219566 73.228 
L 85.290927 73.113336 
L 85.330541 73.113336 
L 85.483868 73.017783 
L 85.591382 72.845787 
L 85.81321 72.750233 
L 85.829333 72.692901 
L 85.912093 72.692901 
L 86.157189 72.597348 
L 86.259278 72.520905 
L 86.342324 72.425352 
L 86.444118 72.291577 
L 86.449044 72.291577 
L 86.573312 72.196024 
L 86.683697 72.062249 
L 86.847497 71.966695 
L 86.89843 71.909363 
L 86.949841 71.909363 
L 87.104817 71.81381 
L 87.13748 71.775589 
L 87.206102 71.775589 
L 87.352508 71.680035 
L 87.446587 71.508039 
L 87.450648 71.508039 
L 87.621889 71.412486 
L 87.682298 71.336043 
L 87.732956 71.336043 
L 87.909246 71.240489 
L 87.988484 71.144936 
L 88.009228 71.144936 
L 88.189884 71.049383 
L 88.294253 70.934719 
L 88.29976 70.934719 
L 88.444354 70.839165 
L 88.549385 70.781833 
L 88.718173 70.68628 
L 88.802613 70.571616 
L 88.82813 70.571616 
L 88.928153 70.476062 
L 88.95082 70.437841 
L 89.037632 70.437841 
L 89.106611 70.342287 
L 89.1579 70.246734 
L 89.216252 70.246734 
L 89.472269 70.151181 
L 89.578115 70.036517 
L 89.863914 69.940963 
L 89.94075 69.84541 
L 89.961087 69.84541 
L 90.171036 69.749856 
L 90.259497 69.616082 
L 90.273838 69.616082 
L 90.410819 69.520528 
L 90.50164 69.463196 
L 90.520369 69.463196 
L 90.718857 69.367643 
L 90.766462 69.310311 
L 90.829751 69.310311 
L 90.967617 69.214757 
L 91.031232 69.138314 
L 91.078551 69.138314 
L 91.269752 69.042761 
L 91.375893 68.908986 
L 91.379883 68.908986 
L 91.518787 68.813433 
L 91.60456 68.660547 
L 91.626729 68.660547 
L 91.807925 68.564994 
L 91.876619 68.469441 
L 91.915602 68.469441 
L 92.015146 68.373887 
L 92.100604 68.297444 
L 92.118518 68.297444 
L 92.276029 68.201891 
L 92.385833 68.106338 
L 92.705099 68.010784 
L 92.806536 67.915231 
L 92.810883 67.915231 
L 92.966693 67.819677 
L 93.064263 67.762345 
L 93.23009 67.666792 
L 93.302774 67.628571 
L 93.332301 67.628571 
L 93.522006 67.533017 
L 93.614375 67.475685 
L 93.78014 67.380132 
L 93.853302 67.284578 
L 93.855165 67.284578 
L 94.167825 67.189025 
L 94.250616 67.093472 
L 94.271125 67.093472 
L 94.516923 66.997918 
L 94.528648 66.959697 
L 94.624366 66.959697 
L 94.810732 66.864143 
L 94.873859 66.76859 
L 94.917259 66.76859 
L 95.013893 66.673037 
L 95.100277 66.596594 
L 95.123697 66.596594 
L 95.300903 66.50104 
L 95.360396 66.443708 
L 95.408224 66.443708 
L 95.648912 66.348155 
L 95.742207 66.309934 
L 95.755317 66.309934 
L 95.892267 66.21438 
L 95.963923 66.157048 
L 95.992117 66.157048 
L 96.250425 66.061495 
L 96.321938 65.985052 
L 96.35515 65.985052 
L 96.592235 65.889499 
L 96.592235 65.870388 
L 96.677042 65.870388 
L 96.819061 65.774835 
L 96.89435 65.64106 
L 96.91603 65.64106 
L 97.079241 65.545506 
L 97.120921 65.488174 
L 97.188414 65.488174 
L 97.282442 65.392621 
L 97.308794 65.316178 
L 97.382964 65.316178 
L 97.527425 65.220625 
L 97.612904 65.163293 
L 97.625036 65.163293 
L 97.720856 65.067739 
L 97.809285 64.933965 
L 97.822751 64.933965 
L 98.025495 64.838411 
L 98.134495 64.666415 
L 98.229643 64.570862 
L 98.269522 64.51353 
L 98.329401 64.51353 
L 98.552471 64.417976 
L 98.658916 64.303312 
L 98.750817 64.207759 
L 98.845791 64.073984 
L 98.859542 64.073984 
L 99.255583 63.97843 
L 99.312786 63.863766 
L 99.467508 63.768213 
L 99.500659 63.69177 
L 99.576427 63.69177 
L 99.765276 63.596217 
L 99.765276 63.577106 
L 99.875641 63.577106 
L 100.146986 63.481553 
L 100.201054 63.385999 
L 100.257351 63.385999 
L 100.41079 63.290446 
L 100.49808 63.194892 
L 100.510253 63.194892 
L 100.704172 63.099339 
L 100.791645 62.965564 
L 100.803859 62.965564 
L 100.957685 62.870011 
L 101.020608 62.83179 
L 101.066685 62.83179 
L 101.263077 62.736236 
L 101.3711 62.678904 
L 101.4949 62.583351 
L 101.602119 62.487797 
L 101.603687 62.487797 
L 101.718998 62.392244 
L 101.762958 62.27758 
L 101.817901 62.27758 
L 102.318352 62.182026 
L 102.429062 62.086473 
L 102.879914 61.99092 
L 102.959275 61.857145 
L 102.990014 61.857145 
L 103.140735 61.761591 
L 103.237674 61.608706 
L 103.249898 61.608706 
L 103.411348 61.513153 
L 103.47877 61.474931 
L 103.520949 61.474931 
L 103.84739 61.379378 
L 103.943067 61.322046 
L 103.949245 61.322046 
L 104.195125 61.226492 
L 104.281794 61.111828 
L 104.30496 61.111828 
L 104.542126 61.016275 
L 104.639238 60.958943 
L 104.76714 60.863389 
L 104.825401 60.825168 
L 104.864537 60.825168 
L 105.150926 60.729615 
L 105.153583 60.691393 
L 105.25157 60.691393 
L 105.548922 60.59584 
L 105.654919 60.519397 
L 105.930886 60.423844 
L 105.999203 60.385622 
L 106.020914 60.385622 
L 106.334815 60.290069 
L 106.435449 60.194515 
L 106.443286 60.194515 
L 106.529182 60.098962 
L 106.587361 60.04163 
L 106.608634 60.04163 
L 106.946964 59.946077 
L 106.997276 59.907855 
L 107.052229 59.907855 
L 107.339035 59.812302 
L 107.343911 59.77408 
L 107.390976 59.77408 
L 107.714007 59.678527 
L 107.812198 59.582974 
L 107.820341 59.582974 
L 107.978381 59.48742 
L 108.014147 59.430088 
L 108.063085 59.430088 
L 108.455014 59.334535 
L 108.552238 59.258092 
L 108.754147 59.162539 
L 108.850373 59.066985 
L 108.86443 59.066985 
L 109.241814 58.971432 
L 109.307922 58.9141 
L 109.314549 58.9141 
L 109.652247 58.818546 
L 109.746051 58.722993 
L 110.22469 58.62744 
L 110.250502 58.531886 
L 110.309496 58.531886 
L 110.516535 58.436333 
L 110.623357 58.35989 
L 110.800278 58.264337 
L 110.844381 58.187894 
L 111.076244 58.09234 
L 111.152053 58.015898 
L 111.342918 57.920344 
L 111.342918 57.901234 
L 111.44628 57.901234 
L 111.898312 57.80568 
L 111.9889 57.729238 
L 112.330232 57.633684 
L 112.434397 57.51902 
L 112.441146 57.51902 
L 112.654057 57.423467 
L 112.692929 57.366135 
L 112.760656 57.366135 
L 112.981995 57.270581 
L 113.060501 57.213249 
L 113.356946 57.117696 
L 113.45359 57.041253 
L 113.466374 57.041253 
L 113.625432 56.9457 
L 113.710849 56.850146 
L 113.72517 56.850146 
L 114.014144 56.754593 
L 114.111837 56.67815 
L 114.120193 56.67815 
L 114.487816 56.582597 
L 114.584989 56.506154 
L 114.893028 56.410601 
L 114.98903 56.334158 
L 115.000888 56.334158 
L 115.189433 56.238604 
L 115.2104 56.200383 
L 115.275725 56.200383 
L 115.722424 56.10483 
L 115.778629 56.028387 
L 115.82662 56.028387 
L 116.097559 55.932833 
L 116.196584 55.856391 
L 116.418025 55.760837 
L 116.511707 55.665284 
L 116.685462 55.569731 
L 116.785984 55.474177 
L 117.052363 55.378624 
L 117.148437 55.321292 
L 117.148823 55.321292 
L 117.420841 55.225738 
L 117.514146 55.149296 
L 117.789716 55.053742 
L 117.865982 55.015521 
L 118.136534 54.919967 
L 118.246837 54.786193 
L 118.518315 54.690639 
L 118.617147 54.652418 
L 118.823942 54.556864 
L 118.921145 54.480422 
L 119.377962 54.384868 
L 119.453933 54.289315 
L 119.487959 54.289315 
L 120.024686 54.193761 
L 120.114195 54.117319 
L 120.122439 54.117319 
L 120.273069 54.021765 
L 120.367525 53.926212 
L 120.379841 53.926212 
L 120.52873 53.830658 
L 120.591236 53.792437 
L 120.604356 53.792437 
L 120.961932 53.696884 
L 120.980121 53.639552 
L 121.041059 53.639552 
L 121.218061 53.543998 
L 121.318665 53.448445 
L 121.328304 53.448445 
L 121.689738 53.352891 
L 121.763633 53.31467 
L 121.795308 53.31467 
L 121.960972 53.219117 
L 122.057361 53.161785 
L 122.284889 53.066231 
L 122.343557 53.02801 
L 122.355333 53.02801 
L 122.642303 52.932456 
L 122.642303 52.913346 
L 122.749329 52.913346 
L 122.982037 52.817792 
L 123.091567 52.74135 
L 123.249403 52.645796 
L 123.342535 52.607575 
L 123.60125 52.512021 
L 123.708621 52.359136 
L 124.062697 52.263583 
L 124.173631 52.18714 
L 124.431368 52.091586 
L 124.529447 51.996033 
L 124.883462 51.90048 
L 124.883462 51.881369 
L 124.978039 51.881369 
L 125.451161 51.785816 
L 125.520486 51.747594 
L 125.55036 51.747594 
L 126.079606 51.652041 
L 126.190041 51.594709 
L 126.287102 51.499155 
L 126.328376 51.460934 
L 126.903963 51.365381 
L 127.000841 51.327159 
L 127.014521 51.327159 
L 127.293032 51.231606 
L 127.375101 51.174274 
L 127.694906 51.07872 
L 127.730438 51.021388 
L 127.797891 51.021388 
L 128.125248 50.925835 
L 128.235826 50.849392 
L 128.658066 50.753839 
L 128.688683 50.677396 
L 128.758466 50.677396 
L 129.122689 50.581843 
L 129.149224 50.543621 
L 129.222081 50.543621 
L 129.608941 50.448068 
L 129.709555 50.371625 
L 130.03621 50.276072 
L 130.117158 50.21874 
L 130.122889 50.21874 
L 130.46357 50.123186 
L 130.530676 50.065854 
L 130.542045 50.065854 
L 130.929221 49.970301 
L 131.023432 49.912969 
L 131.305872 49.817415 
L 131.371502 49.721862 
L 131.410048 49.721862 
L 131.931914 49.626309 
L 132.02923 49.549866 
L 132.283486 49.454312 
L 132.290275 49.416091 
L 132.392415 49.416091 
L 132.709909 49.320538 
L 132.799337 49.282316 
L 132.818859 49.282316 
L 133.121411 49.186763 
L 133.121411 49.167652 
L 133.197464 49.167652 
L 133.509463 49.072099 
L 133.587887 49.033877 
L 133.603043 49.033877 
L 133.819842 48.938324 
L 133.903773 48.861881 
L 133.925026 48.861881 
L 134.477814 48.766328 
L 134.57629 48.728106 
L 134.58486 48.728106 
L 134.929561 48.632553 
L 135.039539 48.479668 
L 135.216785 48.384114 
L 135.325877 48.326782 
L 135.91316 48.231229 
L 135.976633 48.173897 
L 136.014343 48.173897 
L 136.497023 48.078343 
L 136.513034 48.040122 
L 136.563071 48.040122 
L 136.945625 47.944569 
L 137.003591 47.906347 
L 137.053333 47.906347 
L 137.665227 47.810794 
L 137.694694 47.772572 
L 137.74983 47.772572 
L 138.122542 47.677019 
L 138.218087 47.638798 
L 138.228133 47.638798 
L 138.67419 47.543244 
L 138.67419 47.524134 
L 138.783089 47.524134 
L 139.190296 47.42858 
L 139.190296 47.409469 
L 139.297922 47.409469 
L 139.49353 47.313916 
L 139.589482 47.237473 
L 139.590897 47.237473 
L 140.03958 47.14192 
L 140.108977 47.084588 
L 140.146179 47.084588 
L 140.542576 46.989034 
L 140.625774 46.912592 
L 141.156832 46.817038 
L 141.256753 46.740596 
L 141.257435 46.740596 
L 141.63489 46.645042 
L 141.731554 46.58771 
L 141.744766 46.58771 
L 142.013923 46.492157 
L 142.121142 46.434825 
L 142.380172 46.339271 
L 142.488134 46.243718 
L 142.968351 46.148164 
L 143.064933 46.109943 
L 143.394927 46.01439 
L 143.494095 45.937947 
L 143.502879 45.937947 
L 143.763405 45.842394 
L 143.780138 45.785062 
L 143.843224 45.785062 
L 144.594317 45.689508 
L 144.647489 45.632176 
L 144.663368 45.632176 
L 144.976221 45.536623 
L 145.080203 45.498401 
L 145.224105 45.402848 
L 145.305207 45.345516 
L 145.32934 45.345516 
L 145.775601 45.249962 
L 145.775601 45.230852 
L 145.869069 45.230852 
L 146.12989 45.135298 
L 146.159509 45.097077 
L 146.220244 45.097077 
L 146.751321 45.001524 
L 146.751321 44.982413 
L 146.839029 44.982413 
L 147.357546 44.886859 
L 147.443432 44.829527 
L 147.668425 44.733974 
L 147.682023 44.695753 
L 147.75258 44.695753 
L 148.454817 44.600199 
L 148.560581 44.561978 
L 149.153676 44.466424 
L 149.257485 44.389982 
L 149.881502 44.294428 
L 149.881502 44.275318 
L 149.911579 44.275318 
L 150.164919 44.179764 
L 150.228727 44.141543 
L 150.26082 44.141543 
L 150.812274 44.045989 
L 150.900857 43.969547 
L 151.117463 43.873993 
L 151.149464 43.835772 
L 151.216937 43.835772 
L 151.832719 43.740219 
L 151.875641 43.701997 
L 151.937068 43.701997 
L 152.237432 43.606444 
L 152.237432 43.587333 
L 152.321567 43.587333 
L 152.706045 43.49178 
L 152.758688 43.453558 
L 152.81133 43.453558 
L 153.60953 43.358005 
L 153.687252 43.319784 
L 153.715466 43.319784 
L 154.186614 43.22423 
L 154.233678 43.166898 
L 154.294739 43.166898 
L 154.748532 43.071345 
L 154.857257 43.033123 
L 155.668322 42.93757 
L 155.726024 42.880238 
L 155.768467 42.880238 
L 156.991136 42.784684 
L 157.078395 42.727352 
L 157.416552 42.631799 
L 157.416552 42.612688 
L 157.514102 42.612688 
L 158.275964 42.517135 
L 158.382135 42.459803 
L 159.07966 42.36425 
L 159.07966 42.345139 
L 159.099416 42.345139 
L 159.458327 42.249585 
L 159.560253 42.211364 
L 159.845166 42.115811 
L 159.941708 42.058479 
L 160.495626 41.962925 
L 160.495993 41.924704 
L 160.539587 41.924704 
L 161.350194 41.82915 
L 161.43557 41.733597 
L 162.177666 41.638044 
L 162.207295 41.599822 
L 162.259684 41.599822 
L 162.875802 41.504269 
L 162.927579 41.427826 
L 163.411073 41.332273 
L 163.464856 41.294051 
L 163.507859 41.294051 
L 164.213924 41.198498 
L 164.250291 41.160277 
L 164.267941 41.160277 
L 164.960427 41.064723 
L 165.004428 41.026502 
L 165.068288 41.026502 
L 165.557227 40.930948 
L 165.56198 40.892727 
L 166.102565 40.797174 
L 166.107929 40.758952 
L 166.209193 40.758952 
L 167.368563 40.663399 
L 167.418986 40.606067 
L 167.851436 40.510513 
L 167.890867 40.453181 
L 168.677198 40.357628 
L 168.677198 40.338517 
L 168.733973 40.338517 
L 168.972616 40.242964 
L 168.988901 40.204742 
L 169.066094 40.204742 
L 169.675688 40.109189 
L 169.675688 40.090078 
L 169.772708 40.090078 
L 170.291195 39.994525 
L 170.291195 39.975414 
L 170.372001 39.975414 
L 171.251445 39.879861 
L 171.313879 39.765197 
L 171.359061 39.765197 
L 172.052952 39.669643 
L 172.052952 39.650533 
L 172.160232 39.650533 
L 172.709417 39.554979 
L 172.719952 39.516758 
L 172.801135 39.516758 
L 173.524696 39.421205 
L 173.633096 39.344762 
L 174.038511 39.249208 
L 174.049249 39.191876 
L 174.129313 39.191876 
L 174.520549 39.096323 
L 174.577243 39.058102 
L 175.801866 38.962548 
L 175.801866 38.943437 
L 176.728547 38.847884 
L 176.826687 38.771441 
L 177.658374 38.675888 
L 177.727749 38.637667 
L 177.753694 38.637667 
L 178.782169 38.542113 
L 178.782169 38.523002 
L 178.891465 38.523002 
L 179.135726 38.427449 
L 179.135726 38.408338 
L 179.231769 38.408338 
L 179.745676 38.312785 
L 179.745676 38.293674 
L 179.763152 38.293674 
L 181.080602 38.198121 
L 181.080602 38.17901 
L 181.186203 38.17901 
L 181.340202 38.083457 
L 181.37203 38.026125 
L 182.062745 37.930571 
L 182.168896 37.873239 
L 182.994821 37.777686 
L 183.096564 37.720354 
L 183.852544 37.6248 
L 183.852544 37.60569 
L 183.941391 37.60569 
L 184.466809 37.510136 
L 184.507533 37.471915 
L 184.570262 37.471915 
L 185.57549 37.376362 
L 185.57549 37.357251 
L 185.639828 37.357251 
L 186.113713 37.261698 
L 186.195018 37.204365 
L 186.807604 37.108812 
L 186.807604 37.089701 
L 186.904808 37.089701 
L 187.260563 36.994148 
L 187.296523 36.955927 
L 187.354367 36.955927 
L 187.986761 36.860373 
L 188.02268 36.803041 
L 189.016243 36.707488 
L 189.016243 36.688377 
L 190.667789 36.592824 
L 190.667789 36.573713 
L 190.766529 36.573713 
L 191.24473 36.47816 
L 191.246003 36.439938 
L 191.330453 36.439938 
L 191.993503 36.344385 
L 192.048131 36.306163 
L 192.061556 36.306163 
L 193.055445 36.21061 
L 193.055445 36.191499 
L 193.087884 36.191499 
L 193.370171 36.095946 
L 193.4808 36.057725 
L 194.197816 35.962171 
L 194.197816 35.94306 
L 194.27447 35.94306 
L 194.995517 35.847507 
L 194.995517 35.828396 
L 195.484813 35.732843 
L 195.591126 35.675511 
L 196.639408 35.579958 
L 196.639408 35.560847 
L 196.717273 35.560847 
L 197.758003 35.465293 
L 197.824661 35.446183 
L 198.769012 35.350629 
L 198.858724 35.312408 
L 199.298736 35.216855 
L 199.298736 35.197744 
L 199.384591 35.197744 
L 200.442705 35.10219 
L 200.442705 35.08308 
L 200.495236 35.08308 
L 201.704296 34.987526 
L 201.725976 34.930194 
L 201.773041 34.930194 
L 202.752273 34.834641 
L 202.752273 34.81553 
L 202.772111 34.81553 
L 203.480089 34.719977 
L 203.480089 34.700866 
L 204.173248 34.605313 
L 204.173248 34.586202 
L 204.25271 34.586202 
L 204.783788 34.490649 
L 204.783788 34.471538 
L 204.812532 34.471538 
L 206.063303 34.375985 
L 206.063303 34.356874 
L 206.166888 34.356874 
L 206.732542 34.26132 
L 206.732542 34.24221 
L 206.822539 34.24221 
L 207.782372 34.146656 
L 207.782372 34.127546 
L 207.893082 34.127546 
L 208.751853 34.031992 
L 208.751853 34.012882 
L 208.771436 34.012882 
L 209.700418 33.917328 
L 209.700418 33.898218 
L 209.742108 33.898218 
L 210.14559 33.802664 
L 210.14559 33.783553 
L 210.231536 33.783553 
L 211.600906 33.688 
L 211.600906 33.668889 
L 211.667961 33.668889 
L 212.807096 33.573336 
L 212.830425 33.535115 
L 213.755487 33.439561 
L 213.823174 33.363118 
L 213.836721 33.363118 
L 214.58126 33.267565 
L 214.670178 33.229344 
L 215.532726 33.13379 
L 215.532726 33.11468 
L 215.621491 33.11468 
L 216.017502 33.019126 
L 216.054052 32.980905 
L 216.097331 32.980905 
L 216.855102 32.885351 
L 216.865453 32.84713 
L 218.625093 32.751577 
L 218.728699 32.713355 
L 219.898674 32.617802 
L 219.934207 32.579581 
L 219.967653 32.579581 
L 220.962702 32.484027 
L 220.997614 32.445806 
L 221.061341 32.445806 
L 222.186908 32.350252 
L 222.278982 32.29292 
L 222.29772 32.29292 
L 223.449384 32.197367 
L 223.515116 32.159146 
L 223.522546 32.159146 
L 224.575104 32.063592 
L 224.575104 32.044481 
L 224.667666 32.044481 
L 225.622083 31.948928 
L 225.681749 31.910707 
L 227.044757 31.815153 
L 227.044757 31.796043 
L 227.150694 31.796043 
L 227.960446 31.700489 
L 228.057497 31.624046 
L 229.356402 31.528493 
L 229.382438 31.490272 
L 229.456903 31.490272 
L 231.426146 31.394718 
L 231.426146 31.375608 
L 231.536734 31.375608 
L 232.452708 31.280054 
L 232.452708 31.260943 
L 232.544649 31.260943 
L 233.981736 31.16539 
L 233.981736 31.146279 
L 233.999375 31.146279 
L 235.039922 31.050726 
L 235.039922 31.031615 
L 235.149492 31.031615 
L 235.91224 30.936062 
L 235.91224 30.916951 
L 236.003836 30.916951 
L 237.445696 30.821398 
L 237.445696 30.802287 
L 237.554503 30.802287 
L 238.461855 30.706734 
L 238.525399 30.649402 
L 238.569247 30.649402 
L 239.489353 30.553848 
L 239.576419 30.515627 
L 240.900434 30.420073 
L 240.900434 30.400963 
L 240.999755 30.400963 
L 241.745688 30.305409 
L 241.781567 30.267188 
L 241.82108 30.267188 
L 242.714864 30.171635 
L 242.784535 30.133413 
L 242.819437 30.133413 
L 243.485226 30.03786 
L 243.485226 30.018749 
L 243.551283 30.018749 
L 245.380391 29.923196 
L 245.44711 29.865864 
L 245.470215 29.865864 
L 247.287515 29.77031 
L 247.287515 29.7512 
L 247.391691 29.7512 
L 248.067332 29.655646 
L 248.067332 29.636536 
L 248.097603 29.636536 
L 248.808757 29.540982 
L 248.911436 29.48365 
L 250.270241 29.388097 
L 250.270241 29.368986 
L 250.368106 29.368986 
L 251.545674 29.273433 
L 251.589665 29.216101 
L 251.646715 29.216101 
L 252.794563 29.120547 
L 252.8007 29.082326 
L 252.902016 29.082326 
L 254.462811 28.986772 
L 254.499056 28.948551 
L 254.564126 28.948551 
L 255.782683 28.852998 
L 255.87036 28.795666 
L 257.054279 28.700112 
L 257.054279 28.681001 
L 257.140704 28.681001 
L 258.370945 28.585448 
L 258.437206 28.528116 
L 260.092182 28.432563 
L 260.092182 28.413452 
L 260.200287 28.413452 
L 261.936078 28.317898 
L 262.027419 28.260566 
L 262.038676 28.260566 
L 264.173298 28.165013 
L 264.173298 28.145902 
L 264.224414 28.145902 
L 265.977621 28.050349 
L 265.977621 28.031238 
L 266.025694 28.031238 
L 266.953535 27.935685 
L 266.953535 27.916574 
L 267.061996 27.916574 
L 268.438501 27.821021 
L 268.438501 27.80191 
L 268.541659 27.80191 
L 270.439022 27.706357 
L 270.439022 27.687246 
L 270.514546 27.687246 
L 271.486735 27.591693 
L 271.486735 27.572582 
L 271.595084 27.572582 
L 273.547258 27.477029 
L 273.648696 27.438807 
L 274.646188 27.343254 
L 274.646188 27.324143 
L 274.752399 27.324143 
L 277.069204 27.22859 
L 277.135119 27.190368 
L 278.104305 27.094815 
L 278.104305 27.075704 
L 278.18561 27.075704 
L 279.286362 26.980151 
L 279.292652 26.941929 
L 279.383026 26.941929 
L 281.724106 26.846376 
L 281.724106 26.827265 
L 281.825422 26.827265 
L 282.023758 26.789044 
L 282.023758 26.789044 
" clip-path="url(#pa9639c4234)" style="fill: none; stroke: #1f77b4; stroke-width: 1.5; stroke-linecap: round"/>
   </g>
   <g id="patch_3">
    <path d="M 35.655938 265.022801 
L 35.655938 19.642031 
" style="fill: none"/>
   </g>
   <g id="patch_4">
    <path d="M 289.19952 265.022801 
L 289.19952 19.642031 
" style="fill: none"/>
   </g>
   <g id="patch_5">
    <path d="M 35.655938 265.022801 
L 289.19952 265.022801 
" style="fill: none"/>
   </g>
   <g id="patch_6">
    <path d="M 35.655938 19.642031 
L 289.19952 19.642031 
" style="fill: none"/>
   </g>
   <g id="text_15">
    <!-- Model 2: Precision-Recall Curve -->
    <g style="fill: #333333" transform="translate(93.910307 13.642031) scale(0.09 -0.09)">
     <defs>
      <path id="Arial-BoldMT-4d" d="M 453 0 
L 453 4581 
L 1838 4581 
L 2669 1456 
L 3491 4581 
L 4878 4581 
L 4878 0 
L 4019 0 
L 4019 3606 
L 3109 0 
L 2219 0 
L 1313 3606 
L 1313 0 
L 453 0 
z
" transform="scale(0.015625)"/>
      <path id="Arial-BoldMT-64" d="M 3503 0 
L 2688 0 
L 2688 488 
Q 2484 203 2207 64 
Q 1931 -75 1650 -75 
Q 1078 -75 670 386 
Q 263 847 263 1672 
Q 263 2516 659 2955 
Q 1056 3394 1663 3394 
Q 2219 3394 2625 2931 
L 2625 4581 
L 3503 4581 
L 3503 0 
z
M 1159 1731 
Q 1159 1200 1306 963 
Q 1519 619 1900 619 
Q 2203 619 2415 876 
Q 2628 1134 2628 1647 
Q 2628 2219 2422 2470 
Q 2216 2722 1894 2722 
Q 1581 2722 1370 2473 
Q 1159 2225 1159 1731 
z
" transform="scale(0.015625)"/>
      <path id="Arial-BoldMT-32" d="M 3238 816 
L 3238 0 
L 159 0 
Q 209 463 459 877 
Q 709 1291 1447 1975 
Q 2041 2528 2175 2725 
Q 2356 2997 2356 3263 
Q 2356 3556 2198 3714 
Q 2041 3872 1763 3872 
Q 1488 3872 1325 3706 
Q 1163 3541 1138 3156 
L 263 3244 
Q 341 3969 753 4284 
Q 1166 4600 1784 4600 
Q 2463 4600 2850 4234 
Q 3238 3869 3238 3325 
Q 3238 3016 3127 2736 
Q 3016 2456 2775 2150 
Q 2616 1947 2200 1565 
Q 1784 1184 1673 1059 
Q 1563 934 1494 816 
L 3238 816 
z
" transform="scale(0.015625)"/>
      <path id="Arial-BoldMT-3a" d="M 628 2441 
L 628 3319 
L 1506 3319 
L 1506 2441 
L 628 2441 
z
M 628 0 
L 628 878 
L 1506 878 
L 1506 0 
L 628 0 
z
" transform="scale(0.015625)"/>
      <path id="Arial-BoldMT-2d" d="M 359 1222 
L 359 2100 
L 2084 2100 
L 2084 1222 
L 359 1222 
z
" transform="scale(0.015625)"/>
      <path id="Arial-BoldMT-43" d="M 3397 1684 
L 4294 1400 
Q 4088 650 3608 286 
Q 3128 -78 2391 -78 
Q 1478 -78 890 545 
Q 303 1169 303 2250 
Q 303 3394 893 4026 
Q 1484 4659 2447 4659 
Q 3288 4659 3813 4163 
Q 4125 3869 4281 3319 
L 3366 3100 
Q 3284 3456 3026 3662 
Q 2769 3869 2400 3869 
Q 1891 3869 1573 3503 
Q 1256 3138 1256 2319 
Q 1256 1450 1568 1081 
Q 1881 713 2381 713 
Q 2750 713 3015 947 
Q 3281 1181 3397 1684 
z
" transform="scale(0.015625)"/>
      <path id="Arial-BoldMT-75" d="M 2644 0 
L 2644 497 
Q 2463 231 2167 78 
Q 1872 -75 1544 -75 
Q 1209 -75 943 72 
Q 678 219 559 484 
Q 441 750 441 1219 
L 441 3319 
L 1319 3319 
L 1319 1794 
Q 1319 1094 1367 936 
Q 1416 778 1544 686 
Q 1672 594 1869 594 
Q 2094 594 2272 717 
Q 2450 841 2515 1023 
Q 2581 1206 2581 1919 
L 2581 3319 
L 3459 3319 
L 3459 0 
L 2644 0 
z
" transform="scale(0.015625)"/>
      <path id="Arial-BoldMT-76" d="M 1372 0 
L 34 3319 
L 956 3319 
L 1581 1625 
L 1763 1059 
Q 1834 1275 1853 1344 
Q 1897 1484 1947 1625 
L 2578 3319 
L 3481 3319 
L 2163 0 
L 1372 0 
z
" transform="scale(0.015625)"/>
     </defs>
     <use xlink:href="#Arial-BoldMT-4d"/>
     <use xlink:href="#Arial-BoldMT-6f" transform="translate(83.300781 0)"/>
     <use xlink:href="#Arial-BoldMT-64" transform="translate(144.384766 0)"/>
     <use xlink:href="#Arial-BoldMT-65" transform="translate(205.46875 0)"/>
     <use xlink:href="#Arial-BoldMT-6c" transform="translate(261.083984 0)"/>
     <use xlink:href="#Arial-BoldMT-20" transform="translate(288.867188 0)"/>
     <use xlink:href="#Arial-BoldMT-32" transform="translate(316.650391 0)"/>
     <use xlink:href="#Arial-BoldMT-3a" transform="translate(372.265625 0)"/>
     <use xlink:href="#Arial-BoldMT-20" transform="translate(405.566406 0)"/>
     <use xlink:href="#Arial-BoldMT-50" transform="translate(433.349609 0)"/>
     <use xlink:href="#Arial-BoldMT-72" transform="translate(500.048828 0)"/>
     <use xlink:href="#Arial-BoldMT-65" transform="translate(538.964844 0)"/>
     <use xlink:href="#Arial-BoldMT-63" transform="translate(594.580078 0)"/>
     <use xlink:href="#Arial-BoldMT-69" transform="translate(650.195312 0)"/>
     <use xlink:href="#Arial-BoldMT-73" transform="translate(677.978516 0)"/>
     <use xlink:href="#Arial-BoldMT-69" transform="translate(733.59375 0)"/>
     <use xlink:href="#Arial-BoldMT-6f" transform="translate(761.376953 0)"/>
     <use xlink:href="#Arial-BoldMT-6e" transform="translate(822.460938 0)"/>
     <use xlink:href="#Arial-BoldMT-2d" transform="translate(883.544922 0)"/>
     <use xlink:href="#Arial-BoldMT-52" transform="translate(916.845703 0)"/>
     <use xlink:href="#Arial-BoldMT-65" transform="translate(989.0625 0)"/>
     <use xlink:href="#Arial-BoldMT-63" transform="translate(1044.677734 0)"/>
     <use xlink:href="#Arial-BoldMT-61" transform="translate(1100.292969 0)"/>
     <use xlink:href="#Arial-BoldMT-6c" transform="translate(1155.908203 0)"/>
     <use xlink:href="#Arial-BoldMT-6c" transform="translate(1183.691406 0)"/>
     <use xlink:href="#Arial-BoldMT-20" transform="translate(1211.474609 0)"/>
     <use xlink:href="#Arial-BoldMT-43" transform="translate(1239.257812 0)"/>
     <use xlink:href="#Arial-BoldMT-75" transform="translate(1311.474609 0)"/>
     <use xlink:href="#Arial-BoldMT-72" transform="translate(1372.558594 0)"/>
     <use xlink:href="#Arial-BoldMT-76" transform="translate(1411.474609 0)"/>
     <use xlink:href="#Arial-BoldMT-65" transform="translate(1467.089844 0)"/>
    </g>
   </g>
   <g id="legend_1">
    <g id="patch_7">
     <path d="M 164.573426 260.522801 
L 282.89952 260.522801 
Q 284.69952 260.522801 284.69952 258.722801 
L 284.69952 246.89202 
Q 284.69952 245.09202 282.89952 245.09202 
L 164.573426 245.09202 
Q 162.773426 245.09202 162.773426 246.89202 
L 162.773426 258.722801 
Q 162.773426 260.522801 164.573426 260.522801 
z
" style="fill: #ffffff; opacity: 0.8; stroke: #cccccc; stroke-width: 0.75; stroke-linejoin: miter"/>
    </g>
    <g id="line2d_26">
     <path d="M 166.373426 251.984051 
L 175.373426 251.984051 
L 184.373426 251.984051 
" style="fill: none; stroke: #1f77b4; stroke-width: 1.5; stroke-linecap: round"/>
    </g>
    <g id="text_16">
     <!-- Precision-Recall curve -->
     <g style="fill: #333333" transform="translate(191.573426 255.134051) scale(0.09 -0.09)">
      <defs>
       <path id="ArialMT-50" d="M 494 0 
L 494 4581 
L 2222 4581 
Q 2678 4581 2919 4538 
Q 3256 4481 3484 4323 
Q 3713 4166 3852 3881 
Q 3991 3597 3991 3256 
Q 3991 2672 3619 2267 
Q 3247 1863 2275 1863 
L 1100 1863 
L 1100 0 
L 494 0 
z
M 1100 2403 
L 2284 2403 
Q 2872 2403 3119 2622 
Q 3366 2841 3366 3238 
Q 3366 3525 3220 3729 
Q 3075 3934 2838 4000 
Q 2684 4041 2272 4041 
L 1100 4041 
L 1100 2403 
z
" transform="scale(0.015625)"/>
       <path id="ArialMT-72" d="M 416 0 
L 416 3319 
L 922 3319 
L 922 2816 
Q 1116 3169 1280 3281 
Q 1444 3394 1641 3394 
Q 1925 3394 2219 3213 
L 2025 2691 
Q 1819 2813 1613 2813 
Q 1428 2813 1281 2702 
Q 1134 2591 1072 2394 
Q 978 2094 978 1738 
L 978 0 
L 416 0 
z
" transform="scale(0.015625)"/>
       <path id="ArialMT-65" d="M 2694 1069 
L 3275 997 
Q 3138 488 2766 206 
Q 2394 -75 1816 -75 
Q 1088 -75 661 373 
Q 234 822 234 1631 
Q 234 2469 665 2931 
Q 1097 3394 1784 3394 
Q 2450 3394 2872 2941 
Q 3294 2488 3294 1666 
Q 3294 1616 3291 1516 
L 816 1516 
Q 847 969 1125 678 
Q 1403 388 1819 388 
Q 2128 388 2347 550 
Q 2566 713 2694 1069 
z
M 847 1978 
L 2700 1978 
Q 2663 2397 2488 2606 
Q 2219 2931 1791 2931 
Q 1403 2931 1139 2672 
Q 875 2413 847 1978 
z
" transform="scale(0.015625)"/>
       <path id="ArialMT-63" d="M 2588 1216 
L 3141 1144 
Q 3050 572 2676 248 
Q 2303 -75 1759 -75 
Q 1078 -75 664 370 
Q 250 816 250 1647 
Q 250 2184 428 2587 
Q 606 2991 970 3192 
Q 1334 3394 1763 3394 
Q 2303 3394 2647 3120 
Q 2991 2847 3088 2344 
L 2541 2259 
Q 2463 2594 2264 2762 
Q 2066 2931 1784 2931 
Q 1359 2931 1093 2626 
Q 828 2322 828 1663 
Q 828 994 1084 691 
Q 1341 388 1753 388 
Q 2084 388 2306 591 
Q 2528 794 2588 1216 
z
" transform="scale(0.015625)"/>
       <path id="ArialMT-69" d="M 425 3934 
L 425 4581 
L 988 4581 
L 988 3934 
L 425 3934 
z
M 425 0 
L 425 3319 
L 988 3319 
L 988 0 
L 425 0 
z
" transform="scale(0.015625)"/>
       <path id="ArialMT-73" d="M 197 991 
L 753 1078 
Q 800 744 1014 566 
Q 1228 388 1613 388 
Q 2000 388 2187 545 
Q 2375 703 2375 916 
Q 2375 1106 2209 1216 
Q 2094 1291 1634 1406 
Q 1016 1563 777 1677 
Q 538 1791 414 1992 
Q 291 2194 291 2438 
Q 291 2659 392 2848 
Q 494 3038 669 3163 
Q 800 3259 1026 3326 
Q 1253 3394 1513 3394 
Q 1903 3394 2198 3281 
Q 2494 3169 2634 2976 
Q 2775 2784 2828 2463 
L 2278 2388 
Q 2241 2644 2061 2787 
Q 1881 2931 1553 2931 
Q 1166 2931 1000 2803 
Q 834 2675 834 2503 
Q 834 2394 903 2306 
Q 972 2216 1119 2156 
Q 1203 2125 1616 2013 
Q 2213 1853 2448 1751 
Q 2684 1650 2818 1456 
Q 2953 1263 2953 975 
Q 2953 694 2789 445 
Q 2625 197 2315 61 
Q 2006 -75 1616 -75 
Q 969 -75 630 194 
Q 291 463 197 991 
z
" transform="scale(0.015625)"/>
       <path id="ArialMT-6f" d="M 213 1659 
Q 213 2581 725 3025 
Q 1153 3394 1769 3394 
Q 2453 3394 2887 2945 
Q 3322 2497 3322 1706 
Q 3322 1066 3130 698 
Q 2938 331 2570 128 
Q 2203 -75 1769 -75 
Q 1072 -75 642 372 
Q 213 819 213 1659 
z
M 791 1659 
Q 791 1022 1069 705 
Q 1347 388 1769 388 
Q 2188 388 2466 706 
Q 2744 1025 2744 1678 
Q 2744 2294 2464 2611 
Q 2184 2928 1769 2928 
Q 1347 2928 1069 2612 
Q 791 2297 791 1659 
z
" transform="scale(0.015625)"/>
       <path id="ArialMT-6e" d="M 422 0 
L 422 3319 
L 928 3319 
L 928 2847 
Q 1294 3394 1984 3394 
Q 2284 3394 2536 3286 
Q 2788 3178 2913 3003 
Q 3038 2828 3088 2588 
Q 3119 2431 3119 2041 
L 3119 0 
L 2556 0 
L 2556 2019 
Q 2556 2363 2490 2533 
Q 2425 2703 2258 2804 
Q 2091 2906 1866 2906 
Q 1506 2906 1245 2678 
Q 984 2450 984 1813 
L 984 0 
L 422 0 
z
" transform="scale(0.015625)"/>
       <path id="ArialMT-2d" d="M 203 1375 
L 203 1941 
L 1931 1941 
L 1931 1375 
L 203 1375 
z
" transform="scale(0.015625)"/>
       <path id="ArialMT-52" d="M 503 0 
L 503 4581 
L 2534 4581 
Q 3147 4581 3465 4457 
Q 3784 4334 3975 4021 
Q 4166 3709 4166 3331 
Q 4166 2844 3850 2509 
Q 3534 2175 2875 2084 
Q 3116 1969 3241 1856 
Q 3506 1613 3744 1247 
L 4541 0 
L 3778 0 
L 3172 953 
Q 2906 1366 2734 1584 
Q 2563 1803 2427 1890 
Q 2291 1978 2150 2013 
Q 2047 2034 1813 2034 
L 1109 2034 
L 1109 0 
L 503 0 
z
M 1109 2559 
L 2413 2559 
Q 2828 2559 3062 2645 
Q 3297 2731 3419 2920 
Q 3541 3109 3541 3331 
Q 3541 3656 3305 3865 
Q 3069 4075 2559 4075 
L 1109 4075 
L 1109 2559 
z
" transform="scale(0.015625)"/>
       <path id="ArialMT-61" d="M 2588 409 
Q 2275 144 1986 34 
Q 1697 -75 1366 -75 
Q 819 -75 525 192 
Q 231 459 231 875 
Q 231 1119 342 1320 
Q 453 1522 633 1644 
Q 813 1766 1038 1828 
Q 1203 1872 1538 1913 
Q 2219 1994 2541 2106 
Q 2544 2222 2544 2253 
Q 2544 2597 2384 2738 
Q 2169 2928 1744 2928 
Q 1347 2928 1158 2789 
Q 969 2650 878 2297 
L 328 2372 
Q 403 2725 575 2942 
Q 747 3159 1072 3276 
Q 1397 3394 1825 3394 
Q 2250 3394 2515 3294 
Q 2781 3194 2906 3042 
Q 3031 2891 3081 2659 
Q 3109 2516 3109 2141 
L 3109 1391 
Q 3109 606 3145 398 
Q 3181 191 3288 0 
L 2700 0 
Q 2613 175 2588 409 
z
M 2541 1666 
Q 2234 1541 1622 1453 
Q 1275 1403 1131 1340 
Q 988 1278 909 1158 
Q 831 1038 831 891 
Q 831 666 1001 516 
Q 1172 366 1500 366 
Q 1825 366 2078 508 
Q 2331 650 2450 897 
Q 2541 1088 2541 1459 
L 2541 1666 
z
" transform="scale(0.015625)"/>
       <path id="ArialMT-6c" d="M 409 0 
L 409 4581 
L 972 4581 
L 972 0 
L 409 0 
z
" transform="scale(0.015625)"/>
       <path id="ArialMT-20" transform="scale(0.015625)"/>
       <path id="ArialMT-75" d="M 2597 0 
L 2597 488 
Q 2209 -75 1544 -75 
Q 1250 -75 995 37 
Q 741 150 617 320 
Q 494 491 444 738 
Q 409 903 409 1263 
L 409 3319 
L 972 3319 
L 972 1478 
Q 972 1038 1006 884 
Q 1059 663 1231 536 
Q 1403 409 1656 409 
Q 1909 409 2131 539 
Q 2353 669 2445 892 
Q 2538 1116 2538 1541 
L 2538 3319 
L 3100 3319 
L 3100 0 
L 2597 0 
z
" transform="scale(0.015625)"/>
       <path id="ArialMT-76" d="M 1344 0 
L 81 3319 
L 675 3319 
L 1388 1331 
Q 1503 1009 1600 663 
Q 1675 925 1809 1294 
L 2547 3319 
L 3125 3319 
L 1869 0 
L 1344 0 
z
" transform="scale(0.015625)"/>
      </defs>
      <use xlink:href="#ArialMT-50"/>
      <use xlink:href="#ArialMT-72" transform="translate(66.699219 0)"/>
      <use xlink:href="#ArialMT-65" transform="translate(100 0)"/>
      <use xlink:href="#ArialMT-63" transform="translate(155.615234 0)"/>
      <use xlink:href="#ArialMT-69" transform="translate(205.615234 0)"/>
      <use xlink:href="#ArialMT-73" transform="translate(227.832031 0)"/>
      <use xlink:href="#ArialMT-69" transform="translate(277.832031 0)"/>
      <use xlink:href="#ArialMT-6f" transform="translate(300.048828 0)"/>
      <use xlink:href="#ArialMT-6e" transform="translate(355.664062 0)"/>
      <use xlink:href="#ArialMT-2d" transform="translate(411.279297 0)"/>
      <use xlink:href="#ArialMT-52" transform="translate(444.580078 0)"/>
      <use xlink:href="#ArialMT-65" transform="translate(516.796875 0)"/>
      <use xlink:href="#ArialMT-63" transform="translate(572.412109 0)"/>
      <use xlink:href="#ArialMT-61" transform="translate(622.412109 0)"/>
      <use xlink:href="#ArialMT-6c" transform="translate(678.027344 0)"/>
      <use xlink:href="#ArialMT-6c" transform="translate(700.244141 0)"/>
      <use xlink:href="#ArialMT-20" transform="translate(722.460938 0)"/>
      <use xlink:href="#ArialMT-63" transform="translate(750.244141 0)"/>
      <use xlink:href="#ArialMT-75" transform="translate(800.244141 0)"/>
      <use xlink:href="#ArialMT-72" transform="translate(855.859375 0)"/>
      <use xlink:href="#ArialMT-76" transform="translate(889.160156 0)"/>
      <use xlink:href="#ArialMT-65" transform="translate(939.160156 0)"/>
     </g>
    </g>
   </g>
  </g>
 </g>
 <defs>
  <clipPath id="pa9639c4234">
   <rect x="35.655938" y="19.642031" width="253.543583" height="245.38077"/>
  </clipPath>
 </defs>
</svg>
