<?xml version="1.0" encoding="utf-8" standalone="no"?>
<!DOCTYPE svg PUBLIC "-//W3C//DTD SVG 1.1//EN"
  "http://www.w3.org/Graphics/SVG/1.1/DTD/svg11.dtd">
<svg xmlns:xlink="http://www.w3.org/1999/xlink" width="296.39952pt" height="296.39952pt" viewBox="0 0 296.39952 296.39952" xmlns="http://www.w3.org/2000/svg" version="1.1">
 <metadata>
  <rdf:RDF xmlns:dc="http://purl.org/dc/elements/1.1/" xmlns:cc="http://creativecommons.org/ns#" xmlns:rdf="http://www.w3.org/1999/02/22-rdf-syntax-ns#">
   <cc:Work>
    <dc:type rdf:resource="http://purl.org/dc/dcmitype/StillImage"/>
    <dc:date>2025-12-27T20:45:03.162686</dc:date>
    <dc:format>image/svg+xml</dc:format>
    <dc:creator>
     <cc:Agent>
      <dc:title>Matplotlib v3.10.8, https://matplotlib.org/</dc:title>
     </cc:Agent>
    </dc:creator>
   </cc:Work>
  </rdf:RDF>
 </metadata>
 <defs>
  <style type="text/css">*{stroke-linejoin: round; stroke-linecap: butt}</style>
 </defs>
 <g id="figure_1">
  <g id="patch_1">
   <path d="M 0 296.39952 
L 296.39952 296.39952 
L 296.39952 0 
L 0 0 
z
" style="fill: #ffffff"/>
  </g>
  <g id="axes_1">
   <g id="patch_2">
    <path d="M 35.655938 265.022801 
L 289.19952 265.022801 
L 289.19952 19.642031 
L 35.655938 19.642031 
z
" style="fill: #ffffff"/>
   </g>
   <g id="matplotlib.axis_1">
    <g id="xtick_1">
     <g id="line2d_1">
      <path d="M 42.831699 265.022801 
L 42.831699 19.642031 
" clip-path="url(#pb994e4b8df)" style="fill: none; stroke: #c0c0c0; stroke-width: 0.25; stroke-linecap: round"/>
     </g>
     <g id="line2d_2"/>
     <g id="text_1">
      <!-- 0.0 -->
      <g style="fill: #333333" transform="translate(36.576699 274.964832) scale(0.09 -0.09)">
       <defs>
        <path id="ArialMT-30" d="M 266 2259 
Q 266 3072 433 3567 
Q 600 4063 929 4331 
Q 1259 4600 1759 4600 
Q 2128 4600 2406 4451 
Q 2684 4303 2865 4023 
Q 3047 3744 3150 3342 
Q 3253 2941 3253 2259 
Q 3253 1453 3087 958 
Q 2922 463 2592 192 
Q 2263 -78 1759 -78 
Q 1097 -78 719 397 
Q 266 969 266 2259 
z
M 844 2259 
Q 844 1131 1108 757 
Q 1372 384 1759 384 
Q 2147 384 2411 759 
Q 2675 1134 2675 2259 
Q 2675 3391 2411 3762 
Q 2147 4134 1753 4134 
Q 1366 4134 1134 3806 
Q 844 3388 844 2259 
z
" transform="scale(0.015625)"/>
        <path id="ArialMT-2e" d="M 581 0 
L 581 641 
L 1222 641 
L 1222 0 
L 581 0 
z
" transform="scale(0.015625)"/>
       </defs>
       <use xlink:href="#ArialMT-30"/>
       <use xlink:href="#ArialMT-2e" transform="translate(55.615234 0)"/>
       <use xlink:href="#ArialMT-30" transform="translate(83.398438 0)"/>
      </g>
     </g>
    </g>
    <g id="xtick_2">
     <g id="line2d_3">
      <path d="M 90.670111 265.022801 
L 90.670111 19.642031 
" clip-path="url(#pb994e4b8df)" style="fill: none; stroke: #c0c0c0; stroke-width: 0.25; stroke-linecap: round"/>
     </g>
     <g id="line2d_4"/>
     <g id="text_2">
      <!-- 0.2 -->
      <g style="fill: #333333" transform="translate(84.415111 274.964832) scale(0.09 -0.09)">
       <defs>
        <path id="ArialMT-32" d="M 3222 541 
L 3222 0 
L 194 0 
Q 188 203 259 391 
Q 375 700 629 1000 
Q 884 1300 1366 1694 
Q 2113 2306 2375 2664 
Q 2638 3022 2638 3341 
Q 2638 3675 2398 3904 
Q 2159 4134 1775 4134 
Q 1369 4134 1125 3890 
Q 881 3647 878 3216 
L 300 3275 
Q 359 3922 746 4261 
Q 1134 4600 1788 4600 
Q 2447 4600 2831 4234 
Q 3216 3869 3216 3328 
Q 3216 3053 3103 2787 
Q 2991 2522 2730 2228 
Q 2469 1934 1863 1422 
Q 1356 997 1212 845 
Q 1069 694 975 541 
L 3222 541 
z
" transform="scale(0.015625)"/>
       </defs>
       <use xlink:href="#ArialMT-30"/>
       <use xlink:href="#ArialMT-2e" transform="translate(55.615234 0)"/>
       <use xlink:href="#ArialMT-32" transform="translate(83.398438 0)"/>
      </g>
     </g>
    </g>
    <g id="xtick_3">
     <g id="line2d_5">
      <path d="M 138.508523 265.022801 
L 138.508523 19.642031 
" clip-path="url(#pb994e4b8df)" style="fill: none; stroke: #c0c0c0; stroke-width: 0.25; stroke-linecap: round"/>
     </g>
     <g id="line2d_6"/>
     <g id="text_3">
      <!-- 0.4 -->
      <g style="fill: #333333" transform="translate(132.253523 274.964832) scale(0.09 -0.09)">
       <defs>
        <path id="ArialMT-34" d="M 2069 0 
L 2069 1097 
L 81 1097 
L 81 1613 
L 2172 4581 
L 2631 4581 
L 2631 1613 
L 3250 1613 
L 3250 1097 
L 2631 1097 
L 2631 0 
L 2069 0 
z
M 2069 1613 
L 2069 3678 
L 634 1613 
L 2069 1613 
z
" transform="scale(0.015625)"/>
       </defs>
       <use xlink:href="#ArialMT-30"/>
       <use xlink:href="#ArialMT-2e" transform="translate(55.615234 0)"/>
       <use xlink:href="#ArialMT-34" transform="translate(83.398438 0)"/>
      </g>
     </g>
    </g>
    <g id="xtick_4">
     <g id="line2d_7">
      <path d="M 186.346935 265.022801 
L 186.346935 19.642031 
" clip-path="url(#pb994e4b8df)" style="fill: none; stroke: #c0c0c0; stroke-width: 0.25; stroke-linecap: round"/>
     </g>
     <g id="line2d_8"/>
     <g id="text_4">
      <!-- 0.6 -->
      <g style="fill: #333333" transform="translate(180.091935 274.964832) scale(0.09 -0.09)">
       <defs>
        <path id="ArialMT-36" d="M 3184 3459 
L 2625 3416 
Q 2550 3747 2413 3897 
Q 2184 4138 1850 4138 
Q 1581 4138 1378 3988 
Q 1113 3794 959 3422 
Q 806 3050 800 2363 
Q 1003 2672 1297 2822 
Q 1591 2972 1913 2972 
Q 2475 2972 2870 2558 
Q 3266 2144 3266 1488 
Q 3266 1056 3080 686 
Q 2894 316 2569 119 
Q 2244 -78 1831 -78 
Q 1128 -78 684 439 
Q 241 956 241 2144 
Q 241 3472 731 4075 
Q 1159 4600 1884 4600 
Q 2425 4600 2770 4297 
Q 3116 3994 3184 3459 
z
M 888 1484 
Q 888 1194 1011 928 
Q 1134 663 1356 523 
Q 1578 384 1822 384 
Q 2178 384 2434 671 
Q 2691 959 2691 1453 
Q 2691 1928 2437 2201 
Q 2184 2475 1800 2475 
Q 1419 2475 1153 2201 
Q 888 1928 888 1484 
z
" transform="scale(0.015625)"/>
       </defs>
       <use xlink:href="#ArialMT-30"/>
       <use xlink:href="#ArialMT-2e" transform="translate(55.615234 0)"/>
       <use xlink:href="#ArialMT-36" transform="translate(83.398438 0)"/>
      </g>
     </g>
    </g>
    <g id="xtick_5">
     <g id="line2d_9">
      <path d="M 234.185346 265.022801 
L 234.185346 19.642031 
" clip-path="url(#pb994e4b8df)" style="fill: none; stroke: #c0c0c0; stroke-width: 0.25; stroke-linecap: round"/>
     </g>
     <g id="line2d_10"/>
     <g id="text_5">
      <!-- 0.8 -->
      <g style="fill: #333333" transform="translate(227.930346 274.964832) scale(0.09 -0.09)">
       <defs>
        <path id="ArialMT-38" d="M 1131 2484 
Q 781 2613 612 2850 
Q 444 3088 444 3419 
Q 444 3919 803 4259 
Q 1163 4600 1759 4600 
Q 2359 4600 2725 4251 
Q 3091 3903 3091 3403 
Q 3091 3084 2923 2848 
Q 2756 2613 2416 2484 
Q 2838 2347 3058 2040 
Q 3278 1734 3278 1309 
Q 3278 722 2862 322 
Q 2447 -78 1769 -78 
Q 1091 -78 675 323 
Q 259 725 259 1325 
Q 259 1772 486 2073 
Q 713 2375 1131 2484 
z
M 1019 3438 
Q 1019 3113 1228 2906 
Q 1438 2700 1772 2700 
Q 2097 2700 2305 2904 
Q 2513 3109 2513 3406 
Q 2513 3716 2298 3927 
Q 2084 4138 1766 4138 
Q 1444 4138 1231 3931 
Q 1019 3725 1019 3438 
z
M 838 1322 
Q 838 1081 952 856 
Q 1066 631 1291 507 
Q 1516 384 1775 384 
Q 2178 384 2440 643 
Q 2703 903 2703 1303 
Q 2703 1709 2433 1975 
Q 2163 2241 1756 2241 
Q 1359 2241 1098 1978 
Q 838 1716 838 1322 
z
" transform="scale(0.015625)"/>
       </defs>
       <use xlink:href="#ArialMT-30"/>
       <use xlink:href="#ArialMT-2e" transform="translate(55.615234 0)"/>
       <use xlink:href="#ArialMT-38" transform="translate(83.398438 0)"/>
      </g>
     </g>
    </g>
    <g id="xtick_6">
     <g id="line2d_11">
      <path d="M 282.023758 265.022801 
L 282.023758 19.642031 
" clip-path="url(#pb994e4b8df)" style="fill: none; stroke: #c0c0c0; stroke-width: 0.25; stroke-linecap: round"/>
     </g>
     <g id="line2d_12"/>
     <g id="text_6">
      <!-- 1.0 -->
      <g style="fill: #333333" transform="translate(275.768758 274.964832) scale(0.09 -0.09)">
       <defs>
        <path id="ArialMT-31" d="M 2384 0 
L 1822 0 
L 1822 3584 
Q 1619 3391 1289 3197 
Q 959 3003 697 2906 
L 697 3450 
Q 1169 3672 1522 3987 
Q 1875 4303 2022 4600 
L 2384 4600 
L 2384 0 
z
" transform="scale(0.015625)"/>
       </defs>
       <use xlink:href="#ArialMT-31"/>
       <use xlink:href="#ArialMT-2e" transform="translate(55.615234 0)"/>
       <use xlink:href="#ArialMT-30" transform="translate(83.398438 0)"/>
      </g>
     </g>
    </g>
    <g id="text_7">
     <!-- Recall [TP / (TP + FN)] -->
     <g style="fill: #333333" transform="translate(115.706479 287.305301) scale(0.09 -0.09)">
      <defs>
       <path id="Arial-BoldMT-52" d="M 469 0 
L 469 4581 
L 2416 4581 
Q 3150 4581 3483 4457 
Q 3816 4334 4016 4018 
Q 4216 3703 4216 3297 
Q 4216 2781 3912 2445 
Q 3609 2109 3006 2022 
Q 3306 1847 3501 1637 
Q 3697 1428 4028 894 
L 4588 0 
L 3481 0 
L 2813 997 
Q 2456 1531 2325 1670 
Q 2194 1809 2047 1861 
Q 1900 1913 1581 1913 
L 1394 1913 
L 1394 0 
L 469 0 
z
M 1394 2644 
L 2078 2644 
Q 2744 2644 2909 2700 
Q 3075 2756 3169 2893 
Q 3263 3031 3263 3238 
Q 3263 3469 3139 3611 
Q 3016 3753 2791 3791 
Q 2678 3806 2116 3806 
L 1394 3806 
L 1394 2644 
z
" transform="scale(0.015625)"/>
       <path id="Arial-BoldMT-65" d="M 2381 1056 
L 3256 909 
Q 3088 428 2723 176 
Q 2359 -75 1813 -75 
Q 947 -75 531 491 
Q 203 944 203 1634 
Q 203 2459 634 2926 
Q 1066 3394 1725 3394 
Q 2466 3394 2894 2905 
Q 3322 2416 3303 1406 
L 1103 1406 
Q 1113 1016 1316 798 
Q 1519 581 1822 581 
Q 2028 581 2168 693 
Q 2309 806 2381 1056 
z
M 2431 1944 
Q 2422 2325 2234 2523 
Q 2047 2722 1778 2722 
Q 1491 2722 1303 2513 
Q 1116 2303 1119 1944 
L 2431 1944 
z
" transform="scale(0.015625)"/>
       <path id="Arial-BoldMT-63" d="M 3353 2338 
L 2488 2181 
Q 2444 2441 2289 2572 
Q 2134 2703 1888 2703 
Q 1559 2703 1364 2476 
Q 1169 2250 1169 1719 
Q 1169 1128 1367 884 
Q 1566 641 1900 641 
Q 2150 641 2309 783 
Q 2469 925 2534 1272 
L 3397 1125 
Q 3263 531 2881 228 
Q 2500 -75 1859 -75 
Q 1131 -75 698 384 
Q 266 844 266 1656 
Q 266 2478 700 2936 
Q 1134 3394 1875 3394 
Q 2481 3394 2839 3133 
Q 3197 2872 3353 2338 
z
" transform="scale(0.015625)"/>
       <path id="Arial-BoldMT-61" d="M 1116 2306 
L 319 2450 
Q 453 2931 781 3162 
Q 1109 3394 1756 3394 
Q 2344 3394 2631 3255 
Q 2919 3116 3036 2902 
Q 3153 2688 3153 2116 
L 3144 1091 
Q 3144 653 3186 445 
Q 3228 238 3344 0 
L 2475 0 
Q 2441 88 2391 259 
Q 2369 338 2359 363 
Q 2134 144 1878 34 
Q 1622 -75 1331 -75 
Q 819 -75 523 203 
Q 228 481 228 906 
Q 228 1188 362 1408 
Q 497 1628 739 1745 
Q 981 1863 1438 1950 
Q 2053 2066 2291 2166 
L 2291 2253 
Q 2291 2506 2166 2614 
Q 2041 2722 1694 2722 
Q 1459 2722 1328 2630 
Q 1197 2538 1116 2306 
z
M 2291 1594 
Q 2122 1538 1756 1459 
Q 1391 1381 1278 1306 
Q 1106 1184 1106 997 
Q 1106 813 1243 678 
Q 1381 544 1594 544 
Q 1831 544 2047 700 
Q 2206 819 2256 991 
Q 2291 1103 2291 1419 
L 2291 1594 
z
" transform="scale(0.015625)"/>
       <path id="Arial-BoldMT-6c" d="M 459 0 
L 459 4581 
L 1338 4581 
L 1338 0 
L 459 0 
z
" transform="scale(0.015625)"/>
       <path id="Arial-BoldMT-20" transform="scale(0.015625)"/>
       <path id="Arial-BoldMT-5b" d="M 456 -1291 
L 456 4581 
L 2013 4581 
L 2013 3891 
L 1291 3891 
L 1291 -600 
L 2013 -600 
L 2013 -1291 
L 456 -1291 
z
" transform="scale(0.015625)"/>
       <path id="Arial-BoldMT-54" d="M 1497 0 
L 1497 3806 
L 138 3806 
L 138 4581 
L 3778 4581 
L 3778 3806 
L 2422 3806 
L 2422 0 
L 1497 0 
z
" transform="scale(0.015625)"/>
       <path id="Arial-BoldMT-50" d="M 466 0 
L 466 4581 
L 1950 4581 
Q 2794 4581 3050 4513 
Q 3444 4409 3709 4064 
Q 3975 3719 3975 3172 
Q 3975 2750 3822 2462 
Q 3669 2175 3433 2011 
Q 3197 1847 2953 1794 
Q 2622 1728 1994 1728 
L 1391 1728 
L 1391 0 
L 466 0 
z
M 1391 3806 
L 1391 2506 
L 1897 2506 
Q 2444 2506 2628 2578 
Q 2813 2650 2917 2803 
Q 3022 2956 3022 3159 
Q 3022 3409 2875 3571 
Q 2728 3734 2503 3775 
Q 2338 3806 1838 3806 
L 1391 3806 
z
" transform="scale(0.015625)"/>
       <path id="Arial-BoldMT-2f" d="M -9 -78 
L 1125 4659 
L 1784 4659 
L 638 -78 
L -9 -78 
z
" transform="scale(0.015625)"/>
       <path id="Arial-BoldMT-28" d="M 1916 -1347 
L 1313 -1347 
Q 834 -625 584 153 
Q 334 931 334 1659 
Q 334 2563 644 3369 
Q 913 4069 1325 4659 
L 1925 4659 
Q 1497 3713 1336 3048 
Q 1175 2384 1175 1641 
Q 1175 1128 1270 590 
Q 1366 53 1531 -431 
Q 1641 -750 1916 -1347 
z
" transform="scale(0.015625)"/>
       <path id="Arial-BoldMT-2b" d="M 1466 659 
L 1466 1850 
L 266 1850 
L 266 2672 
L 1466 2672 
L 1466 3863 
L 2266 3863 
L 2266 2672 
L 3469 2672 
L 3469 1850 
L 2266 1850 
L 2266 659 
L 1466 659 
z
" transform="scale(0.015625)"/>
       <path id="Arial-BoldMT-46" d="M 472 0 
L 472 4581 
L 3613 4581 
L 3613 3806 
L 1397 3806 
L 1397 2722 
L 3309 2722 
L 3309 1947 
L 1397 1947 
L 1397 0 
L 472 0 
z
" transform="scale(0.015625)"/>
       <path id="Arial-BoldMT-4e" d="M 475 0 
L 475 4581 
L 1375 4581 
L 3250 1522 
L 3250 4581 
L 4109 4581 
L 4109 0 
L 3181 0 
L 1334 2988 
L 1334 0 
L 475 0 
z
" transform="scale(0.015625)"/>
       <path id="Arial-BoldMT-29" d="M 216 -1347 
Q 475 -791 581 -494 
Q 688 -197 778 190 
Q 869 578 912 926 
Q 956 1275 956 1641 
Q 956 2384 797 3048 
Q 638 3713 209 4659 
L 806 4659 
Q 1278 3988 1539 3234 
Q 1800 2481 1800 1706 
Q 1800 1053 1594 306 
Q 1359 -531 822 -1347 
L 216 -1347 
z
" transform="scale(0.015625)"/>
       <path id="Arial-BoldMT-5d" d="M 1675 4581 
L 1675 -1291 
L 119 -1291 
L 119 -600 
L 841 -600 
L 841 3897 
L 119 3897 
L 119 4581 
L 1675 4581 
z
" transform="scale(0.015625)"/>
      </defs>
      <use xlink:href="#Arial-BoldMT-52"/>
      <use xlink:href="#Arial-BoldMT-65" transform="translate(72.216797 0)"/>
      <use xlink:href="#Arial-BoldMT-63" transform="translate(127.832031 0)"/>
      <use xlink:href="#Arial-BoldMT-61" transform="translate(183.447266 0)"/>
      <use xlink:href="#Arial-BoldMT-6c" transform="translate(239.0625 0)"/>
      <use xlink:href="#Arial-BoldMT-6c" transform="translate(266.845703 0)"/>
      <use xlink:href="#Arial-BoldMT-20" transform="translate(294.628906 0)"/>
      <use xlink:href="#Arial-BoldMT-5b" transform="translate(322.412109 0)"/>
      <use xlink:href="#Arial-BoldMT-54" transform="translate(355.712891 0)"/>
      <use xlink:href="#Arial-BoldMT-50" transform="translate(416.796875 0)"/>
      <use xlink:href="#Arial-BoldMT-20" transform="translate(481.746094 0)"/>
      <use xlink:href="#Arial-BoldMT-2f" transform="translate(509.529297 0)"/>
      <use xlink:href="#Arial-BoldMT-20" transform="translate(537.3125 0)"/>
      <use xlink:href="#Arial-BoldMT-28" transform="translate(565.095703 0)"/>
      <use xlink:href="#Arial-BoldMT-54" transform="translate(598.396484 0)"/>
      <use xlink:href="#Arial-BoldMT-50" transform="translate(659.480469 0)"/>
      <use xlink:href="#Arial-BoldMT-20" transform="translate(724.429688 0)"/>
      <use xlink:href="#Arial-BoldMT-2b" transform="translate(752.212891 0)"/>
      <use xlink:href="#Arial-BoldMT-20" transform="translate(810.611328 0)"/>
      <use xlink:href="#Arial-BoldMT-46" transform="translate(838.394531 0)"/>
      <use xlink:href="#Arial-BoldMT-4e" transform="translate(899.478516 0)"/>
      <use xlink:href="#Arial-BoldMT-29" transform="translate(971.695312 0)"/>
      <use xlink:href="#Arial-BoldMT-5d" transform="translate(1004.996094 0)"/>
     </g>
    </g>
   </g>
   <g id="matplotlib.axis_2">
    <g id="ytick_1">
     <g id="line2d_13">
      <path d="M 35.655938 265.022801 
L 289.19952 265.022801 
" clip-path="url(#pb994e4b8df)" style="fill: none; stroke: #c0c0c0; stroke-width: 0.25; stroke-linecap: round"/>
     </g>
     <g id="line2d_14"/>
     <g id="text_8">
      <!-- 0.0 -->
      <g style="fill: #333333" transform="translate(19.645938 268.243817) scale(0.09 -0.09)">
       <use xlink:href="#ArialMT-30"/>
       <use xlink:href="#ArialMT-2e" transform="translate(55.615234 0)"/>
       <use xlink:href="#ArialMT-30" transform="translate(83.398438 0)"/>
      </g>
     </g>
    </g>
    <g id="ytick_2">
     <g id="line2d_15">
      <path d="M 35.655938 217.37605 
L 289.19952 217.37605 
" clip-path="url(#pb994e4b8df)" style="fill: none; stroke: #c0c0c0; stroke-width: 0.25; stroke-linecap: round"/>
     </g>
     <g id="line2d_16"/>
     <g id="text_9">
      <!-- 0.2 -->
      <g style="fill: #333333" transform="translate(19.645938 220.597065) scale(0.09 -0.09)">
       <use xlink:href="#ArialMT-30"/>
       <use xlink:href="#ArialMT-2e" transform="translate(55.615234 0)"/>
       <use xlink:href="#ArialMT-32" transform="translate(83.398438 0)"/>
      </g>
     </g>
    </g>
    <g id="ytick_3">
     <g id="line2d_17">
      <path d="M 35.655938 169.729298 
L 289.19952 169.729298 
" clip-path="url(#pb994e4b8df)" style="fill: none; stroke: #c0c0c0; stroke-width: 0.25; stroke-linecap: round"/>
     </g>
     <g id="line2d_18"/>
     <g id="text_10">
      <!-- 0.4 -->
      <g style="fill: #333333" transform="translate(19.645938 172.950314) scale(0.09 -0.09)">
       <use xlink:href="#ArialMT-30"/>
       <use xlink:href="#ArialMT-2e" transform="translate(55.615234 0)"/>
       <use xlink:href="#ArialMT-34" transform="translate(83.398438 0)"/>
      </g>
     </g>
    </g>
    <g id="ytick_4">
     <g id="line2d_19">
      <path d="M 35.655938 122.082547 
L 289.19952 122.082547 
" clip-path="url(#pb994e4b8df)" style="fill: none; stroke: #c0c0c0; stroke-width: 0.25; stroke-linecap: round"/>
     </g>
     <g id="line2d_20"/>
     <g id="text_11">
      <!-- 0.6 -->
      <g style="fill: #333333" transform="translate(19.645938 125.303563) scale(0.09 -0.09)">
       <use xlink:href="#ArialMT-30"/>
       <use xlink:href="#ArialMT-2e" transform="translate(55.615234 0)"/>
       <use xlink:href="#ArialMT-36" transform="translate(83.398438 0)"/>
      </g>
     </g>
    </g>
    <g id="ytick_5">
     <g id="line2d_21">
      <path d="M 35.655938 74.435795 
L 289.19952 74.435795 
" clip-path="url(#pb994e4b8df)" style="fill: none; stroke: #c0c0c0; stroke-width: 0.25; stroke-linecap: round"/>
     </g>
     <g id="line2d_22"/>
     <g id="text_12">
      <!-- 0.8 -->
      <g style="fill: #333333" transform="translate(19.645938 77.656811) scale(0.09 -0.09)">
       <use xlink:href="#ArialMT-30"/>
       <use xlink:href="#ArialMT-2e" transform="translate(55.615234 0)"/>
       <use xlink:href="#ArialMT-38" transform="translate(83.398438 0)"/>
      </g>
     </g>
    </g>
    <g id="ytick_6">
     <g id="line2d_23">
      <path d="M 35.655938 26.789044 
L 289.19952 26.789044 
" clip-path="url(#pb994e4b8df)" style="fill: none; stroke: #c0c0c0; stroke-width: 0.25; stroke-linecap: round"/>
     </g>
     <g id="line2d_24"/>
     <g id="text_13">
      <!-- 1.0 -->
      <g style="fill: #333333" transform="translate(19.645938 30.01006) scale(0.09 -0.09)">
       <use xlink:href="#ArialMT-31"/>
       <use xlink:href="#ArialMT-2e" transform="translate(55.615234 0)"/>
       <use xlink:href="#ArialMT-30" transform="translate(83.398438 0)"/>
      </g>
     </g>
    </g>
    <g id="text_14">
     <!-- Precision [TP / (TP + FP)] -->
     <g style="fill: #333333" transform="translate(13.751719 195.805776) rotate(-90) scale(0.09 -0.09)">
      <defs>
       <path id="Arial-BoldMT-72" d="M 1300 0 
L 422 0 
L 422 3319 
L 1238 3319 
L 1238 2847 
Q 1447 3181 1614 3287 
Q 1781 3394 1994 3394 
Q 2294 3394 2572 3228 
L 2300 2463 
Q 2078 2606 1888 2606 
Q 1703 2606 1575 2504 
Q 1447 2403 1373 2137 
Q 1300 1872 1300 1025 
L 1300 0 
z
" transform="scale(0.015625)"/>
       <path id="Arial-BoldMT-69" d="M 459 3769 
L 459 4581 
L 1338 4581 
L 1338 3769 
L 459 3769 
z
M 459 0 
L 459 3319 
L 1338 3319 
L 1338 0 
L 459 0 
z
" transform="scale(0.015625)"/>
       <path id="Arial-BoldMT-73" d="M 150 947 
L 1031 1081 
Q 1088 825 1259 692 
Q 1431 559 1741 559 
Q 2081 559 2253 684 
Q 2369 772 2369 919 
Q 2369 1019 2306 1084 
Q 2241 1147 2013 1200 
Q 950 1434 666 1628 
Q 272 1897 272 2375 
Q 272 2806 612 3100 
Q 953 3394 1669 3394 
Q 2350 3394 2681 3172 
Q 3013 2950 3138 2516 
L 2309 2363 
Q 2256 2556 2107 2659 
Q 1959 2763 1684 2763 
Q 1338 2763 1188 2666 
Q 1088 2597 1088 2488 
Q 1088 2394 1175 2328 
Q 1294 2241 1995 2081 
Q 2697 1922 2975 1691 
Q 3250 1456 3250 1038 
Q 3250 581 2869 253 
Q 2488 -75 1741 -75 
Q 1063 -75 667 200 
Q 272 475 150 947 
z
" transform="scale(0.015625)"/>
       <path id="Arial-BoldMT-6f" d="M 256 1706 
Q 256 2144 472 2553 
Q 688 2963 1083 3178 
Q 1478 3394 1966 3394 
Q 2719 3394 3200 2905 
Q 3681 2416 3681 1669 
Q 3681 916 3195 420 
Q 2709 -75 1972 -75 
Q 1516 -75 1102 131 
Q 688 338 472 736 
Q 256 1134 256 1706 
z
M 1156 1659 
Q 1156 1166 1390 903 
Q 1625 641 1969 641 
Q 2313 641 2545 903 
Q 2778 1166 2778 1666 
Q 2778 2153 2545 2415 
Q 2313 2678 1969 2678 
Q 1625 2678 1390 2415 
Q 1156 2153 1156 1659 
z
" transform="scale(0.015625)"/>
       <path id="Arial-BoldMT-6e" d="M 3478 0 
L 2600 0 
L 2600 1694 
Q 2600 2231 2544 2389 
Q 2488 2547 2361 2634 
Q 2234 2722 2056 2722 
Q 1828 2722 1647 2597 
Q 1466 2472 1398 2265 
Q 1331 2059 1331 1503 
L 1331 0 
L 453 0 
L 453 3319 
L 1269 3319 
L 1269 2831 
Q 1703 3394 2363 3394 
Q 2653 3394 2893 3289 
Q 3134 3184 3257 3021 
Q 3381 2859 3429 2653 
Q 3478 2447 3478 2063 
L 3478 0 
z
" transform="scale(0.015625)"/>
      </defs>
      <use xlink:href="#Arial-BoldMT-50"/>
      <use xlink:href="#Arial-BoldMT-72" transform="translate(66.699219 0)"/>
      <use xlink:href="#Arial-BoldMT-65" transform="translate(105.615234 0)"/>
      <use xlink:href="#Arial-BoldMT-63" transform="translate(161.230469 0)"/>
      <use xlink:href="#Arial-BoldMT-69" transform="translate(216.845703 0)"/>
      <use xlink:href="#Arial-BoldMT-73" transform="translate(244.628906 0)"/>
      <use xlink:href="#Arial-BoldMT-69" transform="translate(300.244141 0)"/>
      <use xlink:href="#Arial-BoldMT-6f" transform="translate(328.027344 0)"/>
      <use xlink:href="#Arial-BoldMT-6e" transform="translate(389.111328 0)"/>
      <use xlink:href="#Arial-BoldMT-20" transform="translate(450.195312 0)"/>
      <use xlink:href="#Arial-BoldMT-5b" transform="translate(477.978516 0)"/>
      <use xlink:href="#Arial-BoldMT-54" transform="translate(511.279297 0)"/>
      <use xlink:href="#Arial-BoldMT-50" transform="translate(572.363281 0)"/>
      <use xlink:href="#Arial-BoldMT-20" transform="translate(637.3125 0)"/>
      <use xlink:href="#Arial-BoldMT-2f" transform="translate(665.095703 0)"/>
      <use xlink:href="#Arial-BoldMT-20" transform="translate(692.878906 0)"/>
      <use xlink:href="#Arial-BoldMT-28" transform="translate(720.662109 0)"/>
      <use xlink:href="#Arial-BoldMT-54" transform="translate(753.962891 0)"/>
      <use xlink:href="#Arial-BoldMT-50" transform="translate(815.046875 0)"/>
      <use xlink:href="#Arial-BoldMT-20" transform="translate(879.996094 0)"/>
      <use xlink:href="#Arial-BoldMT-2b" transform="translate(907.779297 0)"/>
      <use xlink:href="#Arial-BoldMT-20" transform="translate(966.177734 0)"/>
      <use xlink:href="#Arial-BoldMT-46" transform="translate(993.960938 0)"/>
      <use xlink:href="#Arial-BoldMT-50" transform="translate(1055.044922 0)"/>
      <use xlink:href="#Arial-BoldMT-29" transform="translate(1121.744141 0)"/>
      <use xlink:href="#Arial-BoldMT-5d" transform="translate(1155.044922 0)"/>
     </g>
    </g>
   </g>
   <g id="line2d_25">
    <path d="M 42.831699 265.022801 
L 42.942674 243.981941 
L 42.943784 243.886387 
L 43.05425 234.311936 
L 43.056275 234.216382 
L 43.167291 227.107209 
L 43.169194 227.011655 
L 43.28021 221.660665 
L 43.282592 221.565111 
L 43.393231 216.959437 
L 43.395613 216.863884 
L 43.506547 213.079969 
L 43.509763 212.984415 
L 43.62086 209.429828 
L 43.626214 209.334275 
L 43.734848 206.353009 
L 43.740334 206.257455 
L 43.851065 203.715735 
L 43.857416 203.620181 
L 43.966763 201.479785 
L 43.971526 201.384231 
L 44.08244 199.454053 
L 44.082582 199.454053 
L 44.088608 199.358499 
L 44.19825 197.714981 
L 44.208377 197.619427 
L 44.31921 195.555474 
L 44.327006 195.45992 
L 44.438073 193.797291 
L 44.446704 193.701737 
L 44.557587 192.115551 
L 44.56517 192.019997 
L 44.676013 190.261815 
L 44.68837 190.166261 
L 44.794052 188.675628 
L 44.79851 188.675628 
L 44.80593 188.580075 
L 44.915673 187.146774 
L 44.923226 187.05122 
L 45.032134 185.503255 
L 45.04783 185.407702 
L 45.158855 183.993511 
L 45.164932 183.897958 
L 45.276009 182.674874 
L 45.288579 182.579321 
L 45.399269 181.260684 
L 45.399635 181.260684 
L 45.40844 181.16513 
L 45.518142 179.77005 
L 45.518702 179.77005 
L 45.531893 179.674497 
L 45.642339 178.317639 
L 45.650125 178.222085 
L 45.759686 176.96078 
L 45.765304 176.865227 
L 45.875791 175.374594 
L 45.886559 175.27904 
L 45.990878 174.208842 
L 45.996007 174.208842 
L 46.008954 174.113289 
L 46.118077 173.176865 
L 46.131095 173.081312 
L 46.239128 172.144888 
L 46.239149 172.144888 
L 46.249429 172.049335 
L 46.35734 171.093801 
L 46.370898 170.998248 
L 46.481567 169.985381 
L 46.497497 169.889828 
L 46.607861 168.896073 
L 46.627037 168.800519 
L 46.738134 167.749432 
L 46.749676 167.653878 
L 46.859043 166.660123 
L 46.876804 166.564569 
L 46.986823 165.74281 
L 46.99638 165.647257 
L 47.10363 164.672612 
L 47.120638 164.577059 
L 47.23086 163.793521 
L 47.245201 163.697967 
L 47.355759 163.009983 
L 47.365764 162.914429 
L 47.468779 162.016227 
L 47.490989 161.920674 
L 47.592661 161.156247 
L 47.59891 161.156247 
L 47.612081 161.060693 
L 47.722476 160.047827 
L 47.736298 159.952274 
L 47.846958 159.168736 
L 47.870561 159.073182 
L 47.977638 158.327866 
L 47.994585 158.232312 
L 48.103606 157.448774 
L 48.126975 157.353221 
L 48.234958 156.646126 
L 48.236719 156.646126 
L 48.258643 156.550572 
L 48.364671 155.786145 
L 48.369608 155.786145 
L 48.390606 155.690592 
L 48.501051 154.926164 
L 48.518355 154.830611 
L 48.623385 154.066184 
L 48.641004 153.97063 
L 48.74862 153.282646 
L 48.749068 153.282646 
L 48.765068 153.187092 
L 48.867341 152.518218 
L 48.867789 152.518218 
L 48.898283 152.422665 
L 49.009167 151.409799 
L 49.031203 151.314246 
L 49.141893 150.760036 
L 49.15484 150.664482 
L 49.255809 149.957387 
L 49.263189 149.957387 
L 49.28265 149.861834 
L 49.38824 148.92541 
L 49.391345 148.92541 
L 49.414297 148.829857 
L 49.52457 148.218315 
L 49.561619 148.122762 
L 49.653744 147.434777 
L 49.666263 147.434777 
L 49.679546 147.339224 
L 49.790633 146.785014 
L 49.803997 146.689461 
L 49.913862 146.097029 
L 49.930982 146.001476 
L 50.038395 145.332602 
L 50.040024 145.332602 
L 50.06149 145.237049 
L 50.165218 144.70195 
L 50.171325 144.70195 
L 50.187936 144.606396 
L 50.294616 144.033076 
L 50.296916 144.033076 
L 50.316896 143.937522 
L 50.417611 143.364202 
L 50.425062 143.364202 
L 50.443892 143.268649 
L 50.554643 142.676217 
L 50.576537 142.580664 
L 50.684824 142.083786 
L 50.725253 141.988233 
L 50.835444 141.453134 
L 50.863577 141.35758 
L 50.962063 140.822481 
L 50.967203 140.822481 
L 50.996782 140.726928 
L 51.105915 140.115386 
L 51.124897 140.019833 
L 51.230081 139.38918 
L 51.23573 139.38918 
L 51.269461 139.293627 
L 51.374878 138.777638 
L 51.379866 138.777638 
L 51.421506 138.682085 
L 51.528531 138.242539 
L 51.548135 138.146986 
L 51.658336 137.630997 
L 51.70133 137.535444 
L 51.811348 137.038566 
L 51.846077 136.943013 
L 51.951036 136.560799 
L 51.99461 136.465246 
L 52.097798 135.891925 
L 52.128985 135.796372 
L 52.239777 135.146609 
L 52.258251 135.051055 
L 52.366213 134.382182 
L 52.368564 134.382182 
L 52.404718 134.286628 
L 52.505545 133.847082 
L 52.510125 133.847082 
L 52.542614 133.751529 
L 52.643777 133.159098 
L 52.648439 133.159098 
L 52.670017 133.063545 
L 52.780707 132.528445 
L 52.78085 132.528445 
L 52.810988 132.432892 
L 52.919795 132.012457 
L 52.919988 132.012457 
L 52.958076 131.916904 
L 53.0656 131.420026 
L 53.067819 131.420026 
L 53.106507 131.324473 
L 53.210622 130.865816 
L 53.216312 130.865816 
L 53.240485 130.770263 
L 53.348763 130.483603 
L 53.350137 130.483603 
L 53.380062 130.388049 
L 53.479728 129.85295 
L 53.482833 129.85295 
L 53.502986 129.757397 
L 53.610918 129.27963 
L 53.611895 129.27963 
L 53.658023 129.184076 
L 53.766423 128.72542 
L 53.768774 128.72542 
L 53.801172 128.629866 
L 53.895892 128.228542 
L 53.905969 128.228542 
L 53.947181 128.132989 
L 54.057983 127.750775 
L 54.114697 127.655222 
L 54.220878 127.234787 
L 54.221835 127.234787 
L 54.244115 127.139233 
L 54.351752 126.77613 
L 54.354459 126.77613 
L 54.377554 126.680577 
L 54.478656 126.413027 
L 54.487592 126.413027 
L 54.522474 126.317474 
L 54.63184 125.992592 
L 54.687995 125.897039 
L 54.791967 125.591268 
L 54.798868 125.591268 
L 54.854798 125.495715 
L 54.96334 125.07528 
L 54.965661 125.07528 
L 55.005784 124.979726 
L 55.115324 124.540181 
L 55.142796 124.444627 
L 55.251938 124.119746 
L 55.253516 124.119746 
L 55.281079 124.024192 
L 55.388665 123.699311 
L 55.391067 123.699311 
L 55.427088 123.603757 
L 55.527671 123.164211 
L 55.535508 123.164211 
L 55.562725 123.068658 
L 55.670586 122.648223 
L 55.69992 122.55267 
L 55.801917 122.246899 
L 55.802406 122.246899 
L 55.855995 122.151345 
L 55.959285 121.73091 
L 55.959754 121.73091 
L 56.007999 121.635357 
L 56.105763 121.406029 
L 56.116857 121.406029 
L 56.1393 121.310475 
L 56.248616 120.87093 
L 56.249705 120.87093 
L 56.310277 120.775376 
L 56.415328 120.335831 
L 56.417822 120.335831 
L 56.439023 120.240277 
L 56.53638 119.915396 
L 56.566467 119.819842 
L 56.669157 119.533182 
L 56.725586 119.437629 
L 56.833487 118.998083 
L 56.834413 118.998083 
L 56.869081 118.902529 
L 56.97803 118.596759 
L 57.009675 118.501205 
L 57.108548 118.118992 
L 57.118105 118.118992 
L 57.164804 118.023438 
L 57.272878 117.698557 
L 57.275575 117.698557 
L 57.336299 117.603003 
L 57.445401 117.259011 
L 57.481433 117.163457 
L 57.590454 116.876797 
L 57.688818 116.781244 
L 57.799049 116.39903 
L 57.837086 116.303477 
L 57.94056 116.093259 
L 57.944163 116.093259 
L 57.979278 115.997706 
L 58.090162 115.711046 
L 58.107902 115.615492 
L 58.216913 115.233279 
L 58.249677 115.137725 
L 58.357639 114.908397 
L 58.360774 114.908397 
L 58.454843 114.812844 
L 58.557747 114.487962 
L 58.560474 114.487962 
L 58.664223 114.392409 
L 58.772164 114.086638 
L 58.773019 114.086638 
L 58.816135 113.991084 
L 58.910306 113.666203 
L 58.926876 113.666203 
L 58.957442 113.570649 
L 59.066238 113.111993 
L 59.089007 113.01644 
L 59.189489 112.500451 
L 59.198598 112.500451 
L 59.247882 112.404898 
L 59.347681 112.003573 
L 59.357351 112.003573 
L 59.374053 111.90802 
L 59.483634 111.411142 
L 59.528347 111.315589 
L 59.632187 111.009818 
L 59.634661 111.009818 
L 59.685899 110.914265 
L 59.794095 110.646715 
L 59.818411 110.551162 
L 59.927747 110.149837 
L 59.942811 110.054284 
L 60.036911 109.710292 
L 60.050193 109.710292 
L 60.126928 109.614738 
L 60.232895 109.308967 
L 60.232916 109.308967 
L 60.271807 109.213414 
L 60.373571 108.907643 
L 60.380401 108.907643 
L 60.428717 108.81209 
L 60.523438 108.487208 
L 60.539336 108.487208 
L 60.602391 108.391655 
L 60.705834 108.085884 
L 60.712216 108.085884 
L 60.770263 107.99033 
L 60.874551 107.646338 
L 60.92696 107.550785 
L 61.033517 107.283235 
L 61.115138 107.187682 
L 61.226011 106.824579 
L 61.250266 106.729025 
L 61.332467 106.442365 
L 61.354747 106.442365 
L 61.43305 106.346812 
L 61.542701 106.041041 
L 61.569644 105.945487 
L 61.678919 105.697048 
L 61.67956 105.697048 
L 61.715622 105.601495 
L 61.825986 105.276613 
L 61.877458 105.18106 
L 61.986571 104.856178 
L 61.986632 104.856178 
L 62.064496 104.760625 
L 62.170983 104.435743 
L 62.174565 104.435743 
L 62.189823 104.34019 
L 62.298019 104.072641 
L 62.349043 103.977087 
L 62.459784 103.690427 
L 62.501872 103.594873 
L 62.596276 103.403767 
L 62.611096 103.403767 
L 62.668004 103.308213 
L 62.76024 102.964221 
L 62.768576 102.964221 
L 62.852466 102.868668 
L 62.958525 102.65845 
L 62.996745 102.562897 
L 63.100524 102.314458 
L 63.170836 102.218904 
L 63.266401 101.932244 
L 63.277251 101.932244 
L 63.322392 101.836691 
L 63.432747 101.588252 
L 63.495059 101.492698 
L 63.596914 101.378034 
L 63.605637 101.378034 
L 63.677537 101.282481 
L 63.780379 101.014931 
L 63.786924 101.014931 
L 63.813805 100.919378 
L 63.924302 100.670939 
L 63.998858 100.575386 
L 64.103116 100.288726 
L 64.266947 100.193172 
L 64.373016 99.963844 
L 64.377596 99.963844 
L 64.421333 99.868291 
L 64.507381 99.734516 
L 64.529061 99.734516 
L 64.590559 99.638962 
L 64.694042 99.428745 
L 64.700098 99.428745 
L 64.741545 99.333191 
L 64.787734 99.199417 
L 64.852479 99.199417 
L 64.936206 99.103863 
L 65.033593 98.950978 
L 65.041441 98.950978 
L 65.111845 98.855424 
L 65.222769 98.683428 
L 65.297722 98.587875 
L 65.40026 98.377657 
L 65.400789 98.377657 
L 65.443742 98.282104 
L 65.54179 98.014554 
L 65.554533 98.014554 
L 65.592865 97.919001 
L 65.694985 97.727894 
L 65.738487 97.632341 
L 65.8242 97.288349 
L 65.848129 97.288349 
L 65.921566 97.192795 
L 66.032612 96.867914 
L 66.068003 96.77236 
L 66.177787 96.523921 
L 66.201421 96.428368 
L 66.308223 96.256372 
L 66.311632 96.256372 
L 66.36226 96.160818 
L 66.464064 96.027044 
L 66.557084 95.93149 
L 66.659285 95.683051 
L 66.667662 95.683051 
L 66.690177 95.587498 
L 66.797101 95.35817 
L 66.799075 95.35817 
L 66.868543 95.262616 
L 66.969136 95.109731 
L 66.977879 95.109731 
L 67.068426 95.014177 
L 67.129802 94.899513 
L 67.173498 94.899513 
L 67.244044 94.80396 
L 67.352597 94.53641 
L 67.455632 94.440857 
L 67.564918 94.192418 
L 67.646497 94.096865 
L 67.755579 93.886647 
L 67.764781 93.791094 
L 67.856824 93.619098 
L 67.872834 93.619098 
L 67.945671 93.523544 
L 68.042732 93.313327 
L 68.141198 93.217773 
L 68.234371 92.950224 
L 68.250351 92.950224 
L 68.316551 92.85467 
L 68.366374 92.682674 
L 68.421826 92.682674 
L 68.5322 92.587121 
L 68.634402 92.472457 
L 68.64002 92.472457 
L 68.754822 92.376903 
L 68.84597 92.204907 
L 68.864515 92.204907 
L 68.957565 92.109354 
L 69.068062 91.937358 
L 69.119056 91.841804 
L 69.222061 91.650697 
L 69.22997 91.650697 
L 69.346329 91.555144 
L 69.446036 91.364037 
L 69.45594 91.364037 
L 69.501417 91.268484 
L 69.570477 91.077377 
L 69.607517 91.077377 
L 69.680638 90.981824 
L 69.788875 90.809827 
L 69.790941 90.809827 
L 69.919596 90.714274 
L 70.018642 90.504057 
L 70.018825 90.504057 
L 70.088649 90.408503 
L 70.197385 90.102732 
L 70.313551 90.007179 
L 70.421594 89.835183 
L 70.424627 89.835183 
L 70.516548 89.739629 
L 70.620124 89.49119 
L 70.627198 89.49119 
L 70.720493 89.395637 
L 70.824435 89.166309 
L 70.825849 89.166309 
L 70.929842 89.070755 
L 70.986077 88.956091 
L 71.038659 88.956091 
L 71.129786 88.860538 
L 71.220679 88.688542 
L 71.23727 88.688542 
L 71.262858 88.592988 
L 71.353416 88.440103 
L 71.373345 88.440103 
L 71.440227 88.34455 
L 71.542418 88.057889 
L 71.550856 88.057889 
L 71.628344 87.962336 
L 71.724652 87.771229 
L 71.725924 87.771229 
L 71.958276 87.675676 
L 72.064091 87.541901 
L 72.06801 87.541901 
L 72.219037 87.446347 
L 72.315945 87.255241 
L 72.324434 87.255241 
L 72.429169 87.159687 
L 72.517324 86.94947 
L 72.529304 86.94947 
L 72.677481 86.853916 
L 72.788131 86.701031 
L 72.880662 86.605477 
L 72.989042 86.452592 
L 73.083222 86.357039 
L 73.159642 86.242375 
L 73.190574 86.242375 
L 73.304358 86.146821 
L 73.410753 85.84105 
L 73.41458 85.84105 
L 73.524741 85.745497 
L 73.627736 85.611722 
L 73.634433 85.611722 
L 73.698587 85.516169 
L 73.794732 85.305951 
L 73.80598 85.305951 
L 73.898847 85.210398 
L 73.992631 84.923738 
L 74.007278 84.923738 
L 74.100298 84.828184 
L 74.202377 84.598856 
L 74.208677 84.598856 
L 74.265605 84.503303 
L 74.354951 84.350417 
L 74.369475 84.350417 
L 74.533694 84.254864 
L 74.637025 84.15931 
L 74.735897 84.063757 
L 74.823279 83.891761 
L 74.840694 83.891761 
L 74.964097 83.796207 
L 75.06581 83.662433 
L 75.071917 83.662433 
L 75.147919 83.566879 
L 75.192093 83.452215 
L 75.244858 83.452215 
L 75.320514 83.356662 
L 75.419356 83.222887 
L 75.431417 83.222887 
L 75.562291 83.127333 
L 75.657662 82.993559 
L 75.670457 82.993559 
L 75.874482 82.898005 
L 75.965976 82.706898 
L 75.97193 82.706898 
L 76.10312 82.611345 
L 76.18131 82.45846 
L 76.213891 82.45846 
L 76.30057 82.362906 
L 76.388237 82.248242 
L 76.398354 82.248242 
L 76.531416 82.152689 
L 76.642136 82.038025 
L 76.698983 81.942471 
L 76.77471 81.789586 
L 76.807851 81.789586 
L 76.91109 81.694032 
L 77.020599 81.560258 
L 77.110505 81.464704 
L 77.21859 81.330929 
L 77.38806 81.235376 
L 77.476581 81.120712 
L 77.495431 81.120712 
L 77.590925 81.025158 
L 77.688994 80.891384 
L 77.698511 80.891384 
L 77.769882 80.79583 
L 77.87191 80.681166 
L 77.878658 80.681166 
L 78.03171 80.585613 
L 78.131499 80.413617 
L 78.217028 80.318063 
L 78.308298 80.165178 
L 78.318232 80.165178 
L 78.502512 80.069624 
L 78.599756 79.916739 
L 78.607471 79.916739 
L 78.695178 79.821186 
L 78.793033 79.610968 
L 78.800728 79.610968 
L 78.865432 79.515415 
L 78.963725 79.305197 
L 78.975461 79.305197 
L 79.102365 79.209644 
L 79.208872 79.056758 
L 79.339766 78.961205 
L 79.428053 78.846541 
L 79.445631 78.846541 
L 79.571416 78.750987 
L 79.671642 78.578991 
L 79.779187 78.483438 
L 79.880767 78.387884 
L 79.888808 78.387884 
L 79.951507 78.292331 
L 80.054319 78.120335 
L 80.061953 78.120335 
L 80.177213 78.024781 
L 80.287801 77.948339 
L 80.363508 77.852785 
L 80.456925 77.719011 
L 80.472193 77.719011 
L 80.57988 77.623457 
L 80.678519 77.566125 
L 80.688483 77.566125 
L 80.870941 77.470572 
L 80.960277 77.375018 
L 80.969977 77.375018 
L 81.083588 77.279465 
L 81.164455 77.203022 
L 81.183224 77.203022 
L 81.23834 77.107469 
L 81.305385 76.935473 
L 81.34844 76.935473 
L 81.466794 76.839919 
L 81.576772 76.744366 
L 81.698576 76.648812 
L 81.802976 76.534148 
L 81.804839 76.534148 
L 81.902623 76.438595 
L 81.981912 76.343041 
L 82.004905 76.343041 
L 82.161998 76.247488 
L 82.251955 76.132824 
L 82.270083 76.132824 
L 82.402768 76.037271 
L 82.504318 75.922606 
L 82.512552 75.922606 
L 82.686613 75.827053 
L 82.787735 75.635946 
L 82.92779 75.540393 
L 83.037401 75.387507 
L 83.231727 75.291954 
L 83.325765 75.253733 
L 83.34259 75.253733 
L 83.439213 75.158179 
L 83.548987 75.081736 
L 83.641519 74.986183 
L 83.738773 74.852408 
L 83.740616 74.852408 
L 83.885912 74.756855 
L 83.966108 74.642191 
L 83.988704 74.642191 
L 84.110478 74.546637 
L 84.211234 74.374641 
L 84.301516 74.279088 
L 84.392602 74.126202 
L 84.408776 74.126202 
L 84.551457 74.030649 
L 84.614389 73.915985 
L 84.657648 73.915985 
L 84.820166 73.820431 
L 84.926866 73.667546 
L 85.030818 73.571993 
L 85.139727 73.476439 
L 85.293532 73.380886 
L 85.360191 73.304443 
L 85.392008 73.304443 
L 85.585133 73.20889 
L 85.645491 73.113336 
L 85.689075 73.113336 
L 86.032656 73.017783 
L 86.134053 72.922229 
L 86.342089 72.826676 
L 86.416504 72.712012 
L 86.451192 72.712012 
L 86.530013 72.616459 
L 86.616438 72.501794 
L 86.639797 72.501794 
L 86.681142 72.406241 
L 86.746853 72.291577 
L 86.776523 72.291577 
L 86.871844 72.196024 
L 86.949678 72.10047 
L 86.974188 72.10047 
L 87.140482 72.004917 
L 87.240078 71.852031 
L 87.245187 71.852031 
L 87.409426 71.756478 
L 87.515077 71.622703 
L 87.519403 71.622703 
L 87.609289 71.52715 
L 87.686298 71.431596 
L 87.717556 71.431596 
L 88.001869 71.336043 
L 88.106717 71.221379 
L 88.196459 71.125825 
L 88.292798 71.011161 
L 88.299404 71.011161 
L 88.50119 70.915608 
L 88.611626 70.70539 
L 88.735507 70.609837 
L 88.81444 70.456952 
L 88.845739 70.456952 
L 88.894341 70.361398 
L 88.989213 70.208513 
L 89.004868 70.208513 
L 89.174888 70.112959 
L 89.278809 69.960074 
L 89.284336 69.960074 
L 89.404156 69.86452 
L 89.509431 69.768967 
L 89.699329 69.673414 
L 89.804584 69.539639 
L 89.808411 69.539639 
L 90.097854 69.444085 
L 90.194894 69.405864 
L 90.207434 69.405864 
L 90.412814 69.310311 
L 90.451888 69.272089 
L 90.50504 69.272089 
L 90.597867 69.176536 
L 90.695355 69.080982 
L 90.705768 69.080982 
L 90.79604 68.985429 
L 90.886658 68.813433 
L 90.906252 68.813433 
L 90.972829 68.717879 
L 91.032392 68.641437 
L 91.076903 68.641437 
L 91.133586 68.545883 
L 91.226484 68.488551 
L 91.239136 68.488551 
L 91.47559 68.392998 
L 91.571888 68.297444 
L 91.584204 68.297444 
L 91.715037 68.201891 
L 91.805217 68.068116 
L 91.825218 68.068116 
L 91.905851 67.972563 
L 91.968173 67.89612 
L 92.01534 67.89612 
L 92.210734 67.800567 
L 92.258603 67.724124 
L 92.31778 67.724124 
L 92.638959 67.628571 
L 92.74798 67.533017 
L 92.748 67.533017 
L 92.947466 67.437464 
L 93.047744 67.265468 
L 93.050716 67.265468 
L 93.265734 67.169914 
L 93.362694 67.074361 
L 93.36819 67.074361 
L 93.498728 66.978807 
L 93.596746 66.845033 
L 93.689583 66.749479 
L 93.773544 66.653926 
L 93.792812 66.653926 
L 93.952949 66.558372 
L 94.039017 66.424598 
L 94.049786 66.424598 
L 94.207093 66.329044 
L 94.310444 66.252602 
L 94.580619 66.157048 
L 94.643206 66.080605 
L 94.676001 66.080605 
L 94.769327 65.985052 
L 94.877279 65.946831 
L 95.036743 65.851277 
L 95.112104 65.717502 
L 95.129957 65.717502 
L 95.235873 65.621949 
L 95.319743 65.488174 
L 95.417802 65.392621 
L 95.526731 65.316178 
L 95.633024 65.220625 
L 95.70358 65.144182 
L 95.744111 65.144182 
L 95.896491 65.048629 
L 95.896491 65.029518 
L 95.996413 65.029518 
L 96.165394 64.933965 
L 96.246058 64.838411 
L 96.272155 64.838411 
L 96.448873 64.742858 
L 96.544743 64.647304 
L 96.555054 64.647304 
L 96.692482 64.551751 
L 96.751293 64.494419 
L 96.802541 64.494419 
L 97.054548 64.398865 
L 97.143812 64.322423 
L 97.402771 64.226869 
L 97.51112 64.131316 
L 97.779351 64.035762 
L 97.829601 63.97843 
L 97.878112 63.97843 
L 98.309451 63.882877 
L 98.390512 63.806434 
L 98.416782 63.806434 
L 98.663965 63.710881 
L 98.760262 63.653549 
L 98.775052 63.653549 
L 98.940318 63.557995 
L 98.979841 63.500663 
L 99.0306 63.500663 
L 99.277609 63.40511 
L 99.324532 63.347778 
L 99.388696 63.347778 
L 99.594463 63.252225 
L 99.66336 63.214003 
L 99.945312 63.11845 
L 100.051503 63.022896 
L 100.332335 62.927343 
L 100.422505 62.870011 
L 100.440022 62.870011 
L 100.647071 62.774457 
L 100.750799 62.678904 
L 100.757038 62.678904 
L 100.948595 62.583351 
L 101.004271 62.526019 
L 101.044364 62.526019 
L 101.316544 62.430465 
L 101.316544 62.411355 
L 101.416903 62.411355 
L 101.551258 62.315801 
L 101.65408 62.239358 
L 101.858238 62.143805 
L 101.858238 62.124694 
L 101.952836 62.124694 
L 102.155345 62.029141 
L 102.201341 61.933587 
L 102.216945 61.933587 
L 102.464442 61.838034 
L 102.53104 61.799813 
L 102.566074 61.799813 
L 102.798996 61.704259 
L 102.859282 61.666038 
L 102.908841 61.666038 
L 103.069334 61.570485 
L 103.16267 61.45582 
L 103.176685 61.45582 
L 103.404315 61.360267 
L 103.478322 61.283824 
L 103.492572 61.283824 
L 103.702715 61.188271 
L 103.80115 61.092718 
L 103.809852 61.092718 
L 104.097941 60.997164 
L 104.176162 60.920721 
L 104.1994 60.920721 
L 104.35633 60.825168 
L 104.455467 60.767836 
L 104.458134 60.767836 
L 104.820627 60.672283 
L 104.820627 60.653172 
L 104.922085 60.653172 
L 105.126366 60.557618 
L 105.231793 60.462065 
L 105.236455 60.462065 
L 105.364102 60.366512 
L 105.436298 60.290069 
L 105.45414 60.290069 
L 105.758993 60.194515 
L 105.78275 60.156294 
L 105.842517 60.156294 
L 106.387712 60.060741 
L 106.480733 59.984298 
L 106.662386 59.888745 
L 106.720016 59.793191 
L 106.764313 59.793191 
L 107.084453 59.697638 
L 107.185983 59.544752 
L 107.186288 59.544752 
L 107.438051 59.449199 
L 107.537565 59.334535 
L 107.7621 59.238981 
L 107.789205 59.162539 
L 107.832575 59.162539 
L 108.153571 59.066985 
L 108.2317 58.971432 
L 108.249014 58.971432 
L 108.389842 58.875878 
L 108.495667 58.761214 
L 108.498588 58.761214 
L 108.702288 58.665661 
L 108.78401 58.608329 
L 108.801313 58.608329 
L 109.038765 58.512775 
L 109.113118 58.455443 
L 109.145068 58.455443 
L 109.666731 58.35989 
L 109.746183 58.302558 
L 109.773502 58.302558 
L 110.025 58.207005 
L 110.025 58.187894 
L 110.121827 58.187894 
L 110.427901 58.09234 
L 110.476391 58.054119 
L 110.510509 58.054119 
L 110.726108 57.958566 
L 110.817194 57.882123 
L 110.98526 57.78657 
L 111.08227 57.671905 
L 111.376405 57.576352 
L 111.380619 57.538131 
L 111.469893 57.538131 
L 111.931076 57.442577 
L 111.975291 57.385245 
L 111.998284 57.385245 
L 112.242443 57.289692 
L 112.333672 57.175028 
L 112.695117 57.079474 
L 112.777847 57.022142 
L 112.77972 57.022142 
L 113.243732 56.926589 
L 113.276069 56.888368 
L 113.318401 56.888368 
L 113.562336 56.792814 
L 113.644862 56.716371 
L 113.649392 56.716371 
L 113.749537 56.620818 
L 113.803584 56.563486 
L 113.842292 56.563486 
L 114.205926 56.467933 
L 114.313582 56.39149 
L 114.485434 56.295936 
L 114.565324 56.219494 
L 114.591381 56.219494 
L 114.872468 56.12394 
L 114.964684 56.009276 
L 115.234065 55.913723 
L 115.34049 55.799059 
L 115.656214 55.703505 
L 115.753305 55.627063 
L 115.75645 55.627063 
L 115.90533 55.531509 
L 115.94643 55.416845 
L 115.977688 55.416845 
L 116.229124 55.321292 
L 116.331153 55.244849 
L 116.651629 55.149296 
L 116.7601 55.091963 
L 116.761098 55.091963 
L 116.949062 54.99641 
L 117.052953 54.939078 
L 117.057442 54.939078 
L 117.300593 54.843525 
L 117.394591 54.767082 
L 117.632877 54.671528 
L 117.710406 54.518643 
L 118.05245 54.42309 
L 118.135038 54.327536 
L 118.536066 54.231983 
L 118.633667 54.136429 
L 118.635102 54.136429 
L 118.822975 54.040876 
L 118.822975 54.021765 
L 118.889246 54.021765 
L 119.096773 53.926212 
L 119.149385 53.830658 
L 119.194262 53.830658 
L 119.710907 53.735105 
L 119.710907 53.715994 
L 119.809149 53.715994 
L 120.058916 53.620441 
L 120.158735 53.563109 
L 120.276652 53.467556 
L 120.379749 53.333781 
L 120.551051 53.238227 
L 120.551051 53.219117 
L 120.628631 53.219117 
L 121.03766 53.123563 
L 121.132838 53.066231 
L 121.421039 52.970678 
L 121.499209 52.913346 
L 121.51979 52.913346 
L 121.9289 52.817792 
L 122.003436 52.722239 
L 122.033615 52.722239 
L 122.448598 52.626686 
L 122.544947 52.512021 
L 122.55828 52.512021 
L 122.910402 52.416468 
L 122.921812 52.359136 
L 123.013132 52.359136 
L 123.312967 52.263583 
L 123.380867 52.18714 
L 123.414364 52.18714 
L 123.900749 52.091586 
L 123.916881 52.053365 
L 123.966867 52.053365 
L 124.165214 51.957812 
L 124.255058 51.91959 
L 124.546588 51.824037 
L 124.652921 51.785816 
L 125.072403 51.690262 
L 125.178381 51.537377 
L 125.484699 51.441823 
L 125.592926 51.403602 
L 125.947052 51.308049 
L 126.034963 51.231606 
L 126.047422 51.231606 
L 126.235773 51.136052 
L 126.235773 51.116942 
L 126.345913 51.116942 
L 126.716793 51.021388 
L 126.716793 51.002278 
L 126.777894 51.002278 
L 127.189386 50.906724 
L 127.189386 50.887614 
L 127.295709 50.887614 
L 127.539492 50.79206 
L 127.56337 50.753839 
L 127.606883 50.753839 
L 128.147152 50.658285 
L 128.254646 50.562732 
L 128.258229 50.562732 
L 128.504902 50.467179 
L 128.596528 50.409846 
L 128.60924 50.409846 
L 128.999327 50.314293 
L 129.010686 50.256961 
L 129.060184 50.256961 
L 129.355499 50.161408 
L 129.355499 50.142297 
L 129.461477 50.142297 
L 129.706349 50.046744 
L 129.815614 49.970301 
L 130.096924 49.874747 
L 130.141037 49.817415 
L 130.56403 49.721862 
L 130.612948 49.683641 
L 130.668298 49.683641 
L 130.877779 49.588087 
L 130.963939 49.549866 
L 130.987166 49.549866 
L 131.468095 49.454312 
L 131.483373 49.416091 
L 131.555986 49.416091 
L 131.788338 49.320538 
L 131.893399 49.224984 
L 132.485965 49.129431 
L 132.485965 49.11032 
L 132.593275 49.11032 
L 133.028228 49.014767 
L 133.109523 48.938324 
L 133.391373 48.842771 
L 133.463293 48.804549 
L 133.490683 48.804549 
L 133.722944 48.708996 
L 133.771485 48.632553 
L 133.82942 48.632553 
L 134.396183 48.537 
L 134.499972 48.479668 
L 134.901052 48.384114 
L 134.901052 48.365004 
L 134.916258 48.365004 
L 135.508844 48.26945 
L 135.603849 48.193007 
L 135.613865 48.193007 
L 135.77908 48.097454 
L 135.877271 48.040122 
L 136.377478 47.944569 
L 136.377478 47.925458 
L 136.444757 47.925458 
L 136.836045 47.829904 
L 136.890723 47.734351 
L 136.943752 47.734351 
L 137.633308 47.638798 
L 137.704953 47.600576 
L 137.742379 47.600576 
L 138.165393 47.505023 
L 138.165393 47.485912 
L 138.248042 47.485912 
L 138.635329 47.390359 
L 138.635329 47.371248 
L 138.740014 47.371248 
L 139.118762 47.275695 
L 139.218113 47.237473 
L 139.439239 47.14192 
L 139.508106 47.084588 
L 139.542753 47.084588 
L 139.818363 46.989034 
L 139.876126 46.931702 
L 139.904727 46.931702 
L 140.184907 46.836149 
L 140.253062 46.778817 
L 140.292727 46.778817 
L 140.721329 46.683264 
L 140.823795 46.606821 
L 140.824029 46.606821 
L 141.103273 46.511267 
L 141.193718 46.415714 
L 141.207764 46.415714 
L 141.470112 46.320161 
L 141.470112 46.30105 
L 141.580415 46.30105 
L 142.036071 46.205497 
L 142.100958 46.167275 
L 142.428967 46.071722 
L 142.535443 45.976168 
L 143.083387 45.880615 
L 143.138146 45.804172 
L 143.17202 45.804172 
L 143.518971 45.708619 
L 143.560254 45.670397 
L 143.620032 45.670397 
L 144.185279 45.574844 
L 144.206877 45.536623 
L 144.26583 45.536623 
L 144.492778 45.441069 
L 144.523089 45.402848 
L 144.589391 45.402848 
L 145.134088 45.307294 
L 145.134088 45.288184 
L 145.22492 45.288184 
L 145.52505 45.19263 
L 145.606538 45.135298 
L 145.634885 45.135298 
L 145.944582 45.039745 
L 146.009073 45.001524 
L 146.049257 45.001524 
L 146.431628 44.90597 
L 146.534746 44.867749 
L 146.542736 44.867749 
L 146.729316 44.772195 
L 146.749296 44.733974 
L 146.825003 44.733974 
L 147.351724 44.638421 
L 147.418881 44.600199 
L 147.45988 44.600199 
L 148.085362 44.504646 
L 148.085362 44.485535 
L 148.12064 44.485535 
L 148.569589 44.389982 
L 148.599361 44.33265 
L 148.668502 44.33265 
L 149.194338 44.237096 
L 149.194338 44.217986 
L 149.506102 44.122432 
L 149.599194 44.0651 
L 150.146974 43.969547 
L 150.146974 43.950436 
L 150.25112 43.950436 
L 151.109982 43.854883 
L 151.217904 43.77844 
L 151.218351 43.77844 
L 151.503397 43.682887 
L 151.509789 43.644665 
L 151.613517 43.644665 
L 152.148218 43.549112 
L 152.148218 43.530001 
L 152.258338 43.530001 
L 152.646603 43.434448 
L 152.73317 43.396226 
L 152.749955 43.396226 
L 153.537456 43.300673 
L 153.610171 43.262452 
L 153.614853 43.262452 
L 154.097237 43.166898 
L 154.188466 43.109566 
L 154.189647 43.109566 
L 154.734068 43.014013 
L 154.765072 42.975791 
L 154.842438 42.975791 
L 155.290205 42.880238 
L 155.304313 42.842017 
L 155.370716 42.842017 
L 155.876898 42.746463 
L 155.962834 42.689131 
L 155.967709 42.689131 
L 156.747883 42.593578 
L 156.773166 42.555356 
L 156.839427 42.555356 
L 157.39305 42.459803 
L 157.39305 42.440692 
L 158.059592 42.345139 
L 158.153416 42.306917 
L 159.230646 42.211364 
L 159.322384 42.154032 
L 159.571174 42.058479 
L 159.666607 41.982036 
L 159.678108 41.982036 
L 160.036703 41.886482 
L 160.046271 41.848261 
L 160.10155 41.848261 
L 160.742788 41.752708 
L 160.7583 41.695376 
L 161.327028 41.599822 
L 161.327028 41.580712 
L 161.420954 41.580712 
L 161.87546 41.485158 
L 161.87546 41.466047 
L 161.944052 41.466047 
L 162.711329 41.370494 
L 162.73818 41.332273 
L 162.820421 41.332273 
L 163.206447 41.236719 
L 163.250743 41.198498 
L 163.297106 41.198498 
L 163.544308 41.102945 
L 163.544308 41.083834 
L 163.613114 41.083834 
L 164.590972 40.98828 
L 164.683942 40.911838 
L 164.690476 40.911838 
L 165.584688 40.816284 
L 165.584688 40.797174 
L 165.598307 40.797174 
L 166.389188 40.70162 
L 166.389188 40.68251 
L 166.476111 40.68251 
L 167.43345 40.586956 
L 167.507213 40.529624 
L 167.516679 40.529624 
L 167.964202 40.434071 
L 168.074475 40.376739 
L 168.280343 40.281185 
L 168.375928 40.223853 
L 169.381461 40.1283 
L 169.416383 40.051857 
L 169.479448 40.051857 
L 169.832761 39.956304 
L 169.925292 39.879861 
L 169.941242 39.879861 
L 170.411534 39.784307 
L 170.491323 39.746086 
L 170.495017 39.746086 
L 171.195443 39.650533 
L 171.195443 39.631422 
L 171.282509 39.631422 
L 171.636819 39.535869 
L 171.636819 39.516758 
L 171.643109 39.516758 
L 172.067161 39.421205 
L 172.088617 39.382983 
L 172.16412 39.382983 
L 172.497218 39.28743 
L 172.524822 39.249208 
L 172.608254 39.249208 
L 173.458526 39.153655 
L 173.458526 39.134544 
L 173.543455 39.134544 
L 174.606811 39.038991 
L 174.606811 39.01988 
L 174.673164 39.01988 
L 175.455404 38.924327 
L 175.455404 38.905216 
L 175.55615 38.905216 
L 175.7456 38.809663 
L 175.7456 38.790552 
L 175.759107 38.790552 
L 176.918812 38.694999 
L 176.999801 38.656777 
L 177.029258 38.656777 
L 177.643666 38.561224 
L 177.703423 38.503892 
L 177.721765 38.503892 
L 178.425264 38.408338 
L 178.498325 38.351006 
L 178.501042 38.351006 
L 178.8661 38.255453 
L 178.974347 38.198121 
L 179.584328 38.102567 
L 179.587911 38.064346 
L 179.606425 38.064346 
L 180.396482 37.968793 
L 180.485421 37.930571 
L 180.494307 37.930571 
L 181.082913 37.835018 
L 181.183495 37.777686 
L 181.95574 37.682133 
L 181.95574 37.663022 
L 182.049096 37.663022 
L 182.859479 37.567468 
L 182.947573 37.471915 
L 182.952652 37.471915 
L 183.880839 37.376362 
L 183.880839 37.357251 
L 183.891802 37.357251 
L 185.241802 37.261698 
L 185.241802 37.242587 
L 185.330476 37.242587 
L 186.548045 37.147033 
L 186.557776 37.108812 
L 186.638938 37.108812 
L 187.193701 37.013259 
L 187.296533 36.955927 
L 187.296808 36.955927 
L 187.855011 36.860373 
L 187.899562 36.822152 
L 187.95648 36.822152 
L 188.266921 36.726598 
L 188.304825 36.688377 
L 188.377254 36.688377 
L 188.783718 36.592824 
L 188.866468 36.554602 
L 189.53584 36.459049 
L 189.641736 36.401717 
L 190.444892 36.306163 
L 190.444892 36.287053 
L 190.493433 36.287053 
L 191.439168 36.191499 
L 191.497185 36.153278 
L 191.54598 36.153278 
L 192.529324 36.057725 
L 192.633469 36.019503 
L 193.242453 35.92395 
L 193.295808 35.885728 
L 193.320714 35.885728 
L 193.950024 35.790175 
L 193.950024 35.771064 
L 194.04964 35.771064 
L 194.729525 35.675511 
L 194.785578 35.63729 
L 194.82336 35.63729 
L 195.362652 35.541736 
L 195.472578 35.503515 
L 196.823159 35.407961 
L 196.823159 35.388851 
L 196.918795 35.388851 
L 197.597449 35.293297 
L 197.664881 35.235965 
L 198.466429 35.140412 
L 198.529535 35.10219 
L 198.57036 35.10219 
L 199.479708 35.006637 
L 199.479708 34.987526 
L 199.479891 34.987526 
L 200.056955 34.891973 
L 200.1394 34.853752 
L 200.160805 34.853752 
L 200.767722 34.758198 
L 200.767722 34.739088 
L 200.795814 34.739088 
L 201.624773 34.643534 
L 201.653119 34.605313 
L 201.728093 34.605313 
L 202.669431 34.509759 
L 202.669431 34.490649 
L 202.76633 34.490649 
L 203.679871 34.395095 
L 203.679871 34.375985 
L 203.763537 34.375985 
L 204.724183 34.280431 
L 204.796847 34.24221 
L 204.814527 34.24221 
L 205.733869 34.146656 
L 205.843256 34.089324 
L 206.749642 33.993771 
L 206.749642 33.97466 
L 207.835523 33.879107 
L 207.835645 33.840885 
L 207.888115 33.840885 
L 208.589497 33.745332 
L 208.68779 33.688 
L 209.768419 33.592447 
L 209.768419 33.573336 
L 209.877175 33.573336 
L 211.267625 33.477783 
L 211.356625 33.439561 
L 212.189939 33.344008 
L 212.189939 33.324897 
L 212.287214 33.324897 
L 213.592246 33.229344 
L 213.637469 33.191122 
L 213.637968 33.191122 
L 214.55161 33.095569 
L 214.638442 33.057348 
L 215.185704 32.961794 
L 215.185704 32.942683 
L 215.286012 32.942683 
L 216.975095 32.84713 
L 216.975095 32.828019 
L 217.072054 32.828019 
L 218.434706 32.732466 
L 218.434706 32.713355 
L 218.535157 32.713355 
L 220.229482 32.617802 
L 220.229482 32.598691 
L 220.29956 32.598691 
L 221.006591 32.503138 
L 221.055723 32.445806 
L 221.089352 32.445806 
L 222.293241 32.350252 
L 222.316021 32.312031 
L 222.369854 32.312031 
L 223.253053 32.216478 
L 223.352781 32.178256 
L 224.956661 32.082703 
L 224.970443 32.044481 
L 225.048755 32.044481 
L 226.507858 31.948928 
L 226.551268 31.910707 
L 227.509859 31.815153 
L 227.509859 31.796043 
L 227.620834 31.796043 
L 228.020783 31.700489 
L 228.020783 31.681378 
L 228.13187 31.681378 
L 229.310986 31.585825 
L 229.310986 31.566714 
L 229.421574 31.566714 
L 230.202256 31.471161 
L 230.239926 31.43294 
L 230.30063 31.43294 
L 231.463806 31.337386 
L 231.570527 31.260943 
L 232.803659 31.16539 
L 232.90299 31.088947 
L 234.279342 30.993394 
L 234.279342 30.974283 
L 234.35397 30.974283 
L 235.694331 30.87873 
L 235.694331 30.859619 
L 235.767035 30.859619 
L 237.018305 30.764066 
L 237.018305 30.744955 
L 237.071559 30.744955 
L 237.841941 30.649402 
L 237.92352 30.61118 
L 237.948691 30.61118 
L 239.663444 30.515627 
L 239.663444 30.496516 
L 239.765066 30.496516 
L 240.726068 30.400963 
L 240.825328 30.362741 
L 241.174711 30.267188 
L 241.174711 30.248077 
L 241.270958 30.248077 
L 241.958864 30.152524 
L 242.055071 30.095192 
L 242.061239 30.095192 
L 242.80707 29.999638 
L 242.80707 29.980528 
L 242.875876 29.980528 
L 243.645128 29.884974 
L 243.645128 29.865864 
L 243.684152 29.865864 
L 244.611973 29.77031 
L 244.611973 29.7512 
L 244.638895 29.7512 
L 245.412341 29.655646 
L 245.412341 29.636536 
L 245.518583 29.636536 
L 246.760336 29.540982 
L 246.760336 29.521871 
L 246.852247 29.521871 
L 247.805585 29.426318 
L 247.805585 29.407207 
L 247.908773 29.407207 
L 248.25376 29.311654 
L 248.312133 29.273433 
L 249.497925 29.177879 
L 249.497925 29.158768 
L 249.568543 29.158768 
L 250.340563 29.063215 
L 250.340563 29.044104 
L 250.425706 29.044104 
L 251.504391 28.948551 
L 251.504391 28.92944 
L 251.605523 28.92944 
L 253.596274 28.833887 
L 253.663726 28.795666 
L 253.706923 28.795666 
L 254.648607 28.700112 
L 254.648607 28.681001 
L 254.751816 28.681001 
L 256.001946 28.585448 
L 256.019788 28.547227 
L 256.100534 28.547227 
L 257.819083 28.451673 
L 257.819083 28.432563 
L 257.925386 28.432563 
L 260.382907 28.337009 
L 260.382907 28.317898 
L 260.459133 28.317898 
L 262.821751 28.222345 
L 262.821751 28.203234 
L 262.914649 28.203234 
L 264.916209 28.107681 
L 264.916209 28.08857 
L 265.020751 28.08857 
L 266.109105 27.993017 
L 266.109105 27.973906 
L 266.207072 27.973906 
L 267.620677 27.878353 
L 267.620677 27.859242 
L 267.725617 27.859242 
L 269.673536 27.763689 
L 269.673536 27.744578 
L 269.777712 27.744578 
L 271.855528 27.649025 
L 271.855528 27.629914 
L 271.96175 27.629914 
L 274.275216 27.534361 
L 274.359351 27.496139 
L 274.379076 27.496139 
L 276.121891 27.400586 
L 276.121891 27.381475 
L 276.231838 27.381475 
L 277.305577 27.285922 
L 277.390179 27.2477 
L 277.415697 27.2477 
L 277.827677 27.152147 
L 277.827677 27.133036 
L 277.938499 27.133036 
L 279.092576 27.037483 
L 279.092576 27.018372 
L 279.189617 27.018372 
L 280.98026 26.922819 
L 280.98026 26.903708 
L 281.076537 26.903708 
L 281.885434 26.808155 
L 281.885434 26.789044 
L 281.989905 26.789044 
L 282.023758 26.789044 
L 282.023758 26.789044 
" clip-path="url(#pb994e4b8df)" style="fill: none; stroke: #1f77b4; stroke-width: 1.5; stroke-linecap: round"/>
   </g>
   <g id="patch_3">
    <path d="M 35.655938 265.022801 
L 35.655938 19.642031 
" style="fill: none"/>
   </g>
   <g id="patch_4">
    <path d="M 289.19952 265.022801 
L 289.19952 19.642031 
" style="fill: none"/>
   </g>
   <g id="patch_5">
    <path d="M 35.655938 265.022801 
L 289.19952 265.022801 
" style="fill: none"/>
   </g>
   <g id="patch_6">
    <path d="M 35.655938 19.642031 
L 289.19952 19.642031 
" style="fill: none"/>
   </g>
   <g id="text_15">
    <!-- Model 1: Precision-Recall Curve -->
    <g style="fill: #333333" transform="translate(93.910307 13.642031) scale(0.09 -0.09)">
     <defs>
      <path id="Arial-BoldMT-4d" d="M 453 0 
L 453 4581 
L 1838 4581 
L 2669 1456 
L 3491 4581 
L 4878 4581 
L 4878 0 
L 4019 0 
L 4019 3606 
L 3109 0 
L 2219 0 
L 1313 3606 
L 1313 0 
L 453 0 
z
" transform="scale(0.015625)"/>
      <path id="Arial-BoldMT-64" d="M 3503 0 
L 2688 0 
L 2688 488 
Q 2484 203 2207 64 
Q 1931 -75 1650 -75 
Q 1078 -75 670 386 
Q 263 847 263 1672 
Q 263 2516 659 2955 
Q 1056 3394 1663 3394 
Q 2219 3394 2625 2931 
L 2625 4581 
L 3503 4581 
L 3503 0 
z
M 1159 1731 
Q 1159 1200 1306 963 
Q 1519 619 1900 619 
Q 2203 619 2415 876 
Q 2628 1134 2628 1647 
Q 2628 2219 2422 2470 
Q 2216 2722 1894 2722 
Q 1581 2722 1370 2473 
Q 1159 2225 1159 1731 
z
" transform="scale(0.015625)"/>
      <path id="Arial-BoldMT-31" d="M 2519 0 
L 1641 0 
L 1641 3309 
Q 1159 2859 506 2644 
L 506 3441 
Q 850 3553 1253 3867 
Q 1656 4181 1806 4600 
L 2519 4600 
L 2519 0 
z
" transform="scale(0.015625)"/>
      <path id="Arial-BoldMT-3a" d="M 628 2441 
L 628 3319 
L 1506 3319 
L 1506 2441 
L 628 2441 
z
M 628 0 
L 628 878 
L 1506 878 
L 1506 0 
L 628 0 
z
" transform="scale(0.015625)"/>
      <path id="Arial-BoldMT-2d" d="M 359 1222 
L 359 2100 
L 2084 2100 
L 2084 1222 
L 359 1222 
z
" transform="scale(0.015625)"/>
      <path id="Arial-BoldMT-43" d="M 3397 1684 
L 4294 1400 
Q 4088 650 3608 286 
Q 3128 -78 2391 -78 
Q 1478 -78 890 545 
Q 303 1169 303 2250 
Q 303 3394 893 4026 
Q 1484 4659 2447 4659 
Q 3288 4659 3813 4163 
Q 4125 3869 4281 3319 
L 3366 3100 
Q 3284 3456 3026 3662 
Q 2769 3869 2400 3869 
Q 1891 3869 1573 3503 
Q 1256 3138 1256 2319 
Q 1256 1450 1568 1081 
Q 1881 713 2381 713 
Q 2750 713 3015 947 
Q 3281 1181 3397 1684 
z
" transform="scale(0.015625)"/>
      <path id="Arial-BoldMT-75" d="M 2644 0 
L 2644 497 
Q 2463 231 2167 78 
Q 1872 -75 1544 -75 
Q 1209 -75 943 72 
Q 678 219 559 484 
Q 441 750 441 1219 
L 441 3319 
L 1319 3319 
L 1319 1794 
Q 1319 1094 1367 936 
Q 1416 778 1544 686 
Q 1672 594 1869 594 
Q 2094 594 2272 717 
Q 2450 841 2515 1023 
Q 2581 1206 2581 1919 
L 2581 3319 
L 3459 3319 
L 3459 0 
L 2644 0 
z
" transform="scale(0.015625)"/>
      <path id="Arial-BoldMT-76" d="M 1372 0 
L 34 3319 
L 956 3319 
L 1581 1625 
L 1763 1059 
Q 1834 1275 1853 1344 
Q 1897 1484 1947 1625 
L 2578 3319 
L 3481 3319 
L 2163 0 
L 1372 0 
z
" transform="scale(0.015625)"/>
     </defs>
     <use xlink:href="#Arial-BoldMT-4d"/>
     <use xlink:href="#Arial-BoldMT-6f" transform="translate(83.300781 0)"/>
     <use xlink:href="#Arial-BoldMT-64" transform="translate(144.384766 0)"/>
     <use xlink:href="#Arial-BoldMT-65" transform="translate(205.46875 0)"/>
     <use xlink:href="#Arial-BoldMT-6c" transform="translate(261.083984 0)"/>
     <use xlink:href="#Arial-BoldMT-20" transform="translate(288.867188 0)"/>
     <use xlink:href="#Arial-BoldMT-31" transform="translate(316.650391 0)"/>
     <use xlink:href="#Arial-BoldMT-3a" transform="translate(372.265625 0)"/>
     <use xlink:href="#Arial-BoldMT-20" transform="translate(405.566406 0)"/>
     <use xlink:href="#Arial-BoldMT-50" transform="translate(433.349609 0)"/>
     <use xlink:href="#Arial-BoldMT-72" transform="translate(500.048828 0)"/>
     <use xlink:href="#Arial-BoldMT-65" transform="translate(538.964844 0)"/>
     <use xlink:href="#Arial-BoldMT-63" transform="translate(594.580078 0)"/>
     <use xlink:href="#Arial-BoldMT-69" transform="translate(650.195312 0)"/>
     <use xlink:href="#Arial-BoldMT-73" transform="translate(677.978516 0)"/>
     <use xlink:href="#Arial-BoldMT-69" transform="translate(733.59375 0)"/>
     <use xlink:href="#Arial-BoldMT-6f" transform="translate(761.376953 0)"/>
     <use xlink:href="#Arial-BoldMT-6e" transform="translate(822.460938 0)"/>
     <use xlink:href="#Arial-BoldMT-2d" transform="translate(883.544922 0)"/>
     <use xlink:href="#Arial-BoldMT-52" transform="translate(916.845703 0)"/>
     <use xlink:href="#Arial-BoldMT-65" transform="translate(989.0625 0)"/>
     <use xlink:href="#Arial-BoldMT-63" transform="translate(1044.677734 0)"/>
     <use xlink:href="#Arial-BoldMT-61" transform="translate(1100.292969 0)"/>
     <use xlink:href="#Arial-BoldMT-6c" transform="translate(1155.908203 0)"/>
     <use xlink:href="#Arial-BoldMT-6c" transform="translate(1183.691406 0)"/>
     <use xlink:href="#Arial-BoldMT-20" transform="translate(1211.474609 0)"/>
     <use xlink:href="#Arial-BoldMT-43" transform="translate(1239.257812 0)"/>
     <use xlink:href="#Arial-BoldMT-75" transform="translate(1311.474609 0)"/>
     <use xlink:href="#Arial-BoldMT-72" transform="translate(1372.558594 0)"/>
     <use xlink:href="#Arial-BoldMT-76" transform="translate(1411.474609 0)"/>
     <use xlink:href="#Arial-BoldMT-65" transform="translate(1467.089844 0)"/>
    </g>
   </g>
   <g id="legend_1">
    <g id="patch_7">
     <path d="M 164.573426 260.522801 
L 282.89952 260.522801 
Q 284.69952 260.522801 284.69952 258.722801 
L 284.69952 246.89202 
Q 284.69952 245.09202 282.89952 245.09202 
L 164.573426 245.09202 
Q 162.773426 245.09202 162.773426 246.89202 
L 162.773426 258.722801 
Q 162.773426 260.522801 164.573426 260.522801 
z
" style="fill: #ffffff; opacity: 0.8; stroke: #cccccc; stroke-width: 0.75; stroke-linejoin: miter"/>
    </g>
    <g id="line2d_26">
     <path d="M 166.373426 251.984051 
L 175.373426 251.984051 
L 184.373426 251.984051 
" style="fill: none; stroke: #1f77b4; stroke-width: 1.5; stroke-linecap: round"/>
    </g>
    <g id="text_16">
     <!-- Precision-Recall curve -->
     <g style="fill: #333333" transform="translate(191.573426 255.134051) scale(0.09 -0.09)">
      <defs>
       <path id="ArialMT-50" d="M 494 0 
L 494 4581 
L 2222 4581 
Q 2678 4581 2919 4538 
Q 3256 4481 3484 4323 
Q 3713 4166 3852 3881 
Q 3991 3597 3991 3256 
Q 3991 2672 3619 2267 
Q 3247 1863 2275 1863 
L 1100 1863 
L 1100 0 
L 494 0 
z
M 1100 2403 
L 2284 2403 
Q 2872 2403 3119 2622 
Q 3366 2841 3366 3238 
Q 3366 3525 3220 3729 
Q 3075 3934 2838 4000 
Q 2684 4041 2272 4041 
L 1100 4041 
L 1100 2403 
z
" transform="scale(0.015625)"/>
       <path id="ArialMT-72" d="M 416 0 
L 416 3319 
L 922 3319 
L 922 2816 
Q 1116 3169 1280 3281 
Q 1444 3394 1641 3394 
Q 1925 3394 2219 3213 
L 2025 2691 
Q 1819 2813 1613 2813 
Q 1428 2813 1281 2702 
Q 1134 2591 1072 2394 
Q 978 2094 978 1738 
L 978 0 
L 416 0 
z
" transform="scale(0.015625)"/>
       <path id="ArialMT-65" d="M 2694 1069 
L 3275 997 
Q 3138 488 2766 206 
Q 2394 -75 1816 -75 
Q 1088 -75 661 373 
Q 234 822 234 1631 
Q 234 2469 665 2931 
Q 1097 3394 1784 3394 
Q 2450 3394 2872 2941 
Q 3294 2488 3294 1666 
Q 3294 1616 3291 1516 
L 816 1516 
Q 847 969 1125 678 
Q 1403 388 1819 388 
Q 2128 388 2347 550 
Q 2566 713 2694 1069 
z
M 847 1978 
L 2700 1978 
Q 2663 2397 2488 2606 
Q 2219 2931 1791 2931 
Q 1403 2931 1139 2672 
Q 875 2413 847 1978 
z
" transform="scale(0.015625)"/>
       <path id="ArialMT-63" d="M 2588 1216 
L 3141 1144 
Q 3050 572 2676 248 
Q 2303 -75 1759 -75 
Q 1078 -75 664 370 
Q 250 816 250 1647 
Q 250 2184 428 2587 
Q 606 2991 970 3192 
Q 1334 3394 1763 3394 
Q 2303 3394 2647 3120 
Q 2991 2847 3088 2344 
L 2541 2259 
Q 2463 2594 2264 2762 
Q 2066 2931 1784 2931 
Q 1359 2931 1093 2626 
Q 828 2322 828 1663 
Q 828 994 1084 691 
Q 1341 388 1753 388 
Q 2084 388 2306 591 
Q 2528 794 2588 1216 
z
" transform="scale(0.015625)"/>
       <path id="ArialMT-69" d="M 425 3934 
L 425 4581 
L 988 4581 
L 988 3934 
L 425 3934 
z
M 425 0 
L 425 3319 
L 988 3319 
L 988 0 
L 425 0 
z
" transform="scale(0.015625)"/>
       <path id="ArialMT-73" d="M 197 991 
L 753 1078 
Q 800 744 1014 566 
Q 1228 388 1613 388 
Q 2000 388 2187 545 
Q 2375 703 2375 916 
Q 2375 1106 2209 1216 
Q 2094 1291 1634 1406 
Q 1016 1563 777 1677 
Q 538 1791 414 1992 
Q 291 2194 291 2438 
Q 291 2659 392 2848 
Q 494 3038 669 3163 
Q 800 3259 1026 3326 
Q 1253 3394 1513 3394 
Q 1903 3394 2198 3281 
Q 2494 3169 2634 2976 
Q 2775 2784 2828 2463 
L 2278 2388 
Q 2241 2644 2061 2787 
Q 1881 2931 1553 2931 
Q 1166 2931 1000 2803 
Q 834 2675 834 2503 
Q 834 2394 903 2306 
Q 972 2216 1119 2156 
Q 1203 2125 1616 2013 
Q 2213 1853 2448 1751 
Q 2684 1650 2818 1456 
Q 2953 1263 2953 975 
Q 2953 694 2789 445 
Q 2625 197 2315 61 
Q 2006 -75 1616 -75 
Q 969 -75 630 194 
Q 291 463 197 991 
z
" transform="scale(0.015625)"/>
       <path id="ArialMT-6f" d="M 213 1659 
Q 213 2581 725 3025 
Q 1153 3394 1769 3394 
Q 2453 3394 2887 2945 
Q 3322 2497 3322 1706 
Q 3322 1066 3130 698 
Q 2938 331 2570 128 
Q 2203 -75 1769 -75 
Q 1072 -75 642 372 
Q 213 819 213 1659 
z
M 791 1659 
Q 791 1022 1069 705 
Q 1347 388 1769 388 
Q 2188 388 2466 706 
Q 2744 1025 2744 1678 
Q 2744 2294 2464 2611 
Q 2184 2928 1769 2928 
Q 1347 2928 1069 2612 
Q 791 2297 791 1659 
z
" transform="scale(0.015625)"/>
       <path id="ArialMT-6e" d="M 422 0 
L 422 3319 
L 928 3319 
L 928 2847 
Q 1294 3394 1984 3394 
Q 2284 3394 2536 3286 
Q 2788 3178 2913 3003 
Q 3038 2828 3088 2588 
Q 3119 2431 3119 2041 
L 3119 0 
L 2556 0 
L 2556 2019 
Q 2556 2363 2490 2533 
Q 2425 2703 2258 2804 
Q 2091 2906 1866 2906 
Q 1506 2906 1245 2678 
Q 984 2450 984 1813 
L 984 0 
L 422 0 
z
" transform="scale(0.015625)"/>
       <path id="ArialMT-2d" d="M 203 1375 
L 203 1941 
L 1931 1941 
L 1931 1375 
L 203 1375 
z
" transform="scale(0.015625)"/>
       <path id="ArialMT-52" d="M 503 0 
L 503 4581 
L 2534 4581 
Q 3147 4581 3465 4457 
Q 3784 4334 3975 4021 
Q 4166 3709 4166 3331 
Q 4166 2844 3850 2509 
Q 3534 2175 2875 2084 
Q 3116 1969 3241 1856 
Q 3506 1613 3744 1247 
L 4541 0 
L 3778 0 
L 3172 953 
Q 2906 1366 2734 1584 
Q 2563 1803 2427 1890 
Q 2291 1978 2150 2013 
Q 2047 2034 1813 2034 
L 1109 2034 
L 1109 0 
L 503 0 
z
M 1109 2559 
L 2413 2559 
Q 2828 2559 3062 2645 
Q 3297 2731 3419 2920 
Q 3541 3109 3541 3331 
Q 3541 3656 3305 3865 
Q 3069 4075 2559 4075 
L 1109 4075 
L 1109 2559 
z
" transform="scale(0.015625)"/>
       <path id="ArialMT-61" d="M 2588 409 
Q 2275 144 1986 34 
Q 1697 -75 1366 -75 
Q 819 -75 525 192 
Q 231 459 231 875 
Q 231 1119 342 1320 
Q 453 1522 633 1644 
Q 813 1766 1038 1828 
Q 1203 1872 1538 1913 
Q 2219 1994 2541 2106 
Q 2544 2222 2544 2253 
Q 2544 2597 2384 2738 
Q 2169 2928 1744 2928 
Q 1347 2928 1158 2789 
Q 969 2650 878 2297 
L 328 2372 
Q 403 2725 575 2942 
Q 747 3159 1072 3276 
Q 1397 3394 1825 3394 
Q 2250 3394 2515 3294 
Q 2781 3194 2906 3042 
Q 3031 2891 3081 2659 
Q 3109 2516 3109 2141 
L 3109 1391 
Q 3109 606 3145 398 
Q 3181 191 3288 0 
L 2700 0 
Q 2613 175 2588 409 
z
M 2541 1666 
Q 2234 1541 1622 1453 
Q 1275 1403 1131 1340 
Q 988 1278 909 1158 
Q 831 1038 831 891 
Q 831 666 1001 516 
Q 1172 366 1500 366 
Q 1825 366 2078 508 
Q 2331 650 2450 897 
Q 2541 1088 2541 1459 
L 2541 1666 
z
" transform="scale(0.015625)"/>
       <path id="ArialMT-6c" d="M 409 0 
L 409 4581 
L 972 4581 
L 972 0 
L 409 0 
z
" transform="scale(0.015625)"/>
       <path id="ArialMT-20" transform="scale(0.015625)"/>
       <path id="ArialMT-75" d="M 2597 0 
L 2597 488 
Q 2209 -75 1544 -75 
Q 1250 -75 995 37 
Q 741 150 617 320 
Q 494 491 444 738 
Q 409 903 409 1263 
L 409 3319 
L 972 3319 
L 972 1478 
Q 972 1038 1006 884 
Q 1059 663 1231 536 
Q 1403 409 1656 409 
Q 1909 409 2131 539 
Q 2353 669 2445 892 
Q 2538 1116 2538 1541 
L 2538 3319 
L 3100 3319 
L 3100 0 
L 2597 0 
z
" transform="scale(0.015625)"/>
       <path id="ArialMT-76" d="M 1344 0 
L 81 3319 
L 675 3319 
L 1388 1331 
Q 1503 1009 1600 663 
Q 1675 925 1809 1294 
L 2547 3319 
L 3125 3319 
L 1869 0 
L 1344 0 
z
" transform="scale(0.015625)"/>
      </defs>
      <use xlink:href="#ArialMT-50"/>
      <use xlink:href="#ArialMT-72" transform="translate(66.699219 0)"/>
      <use xlink:href="#ArialMT-65" transform="translate(100 0)"/>
      <use xlink:href="#ArialMT-63" transform="translate(155.615234 0)"/>
      <use xlink:href="#ArialMT-69" transform="translate(205.615234 0)"/>
      <use xlink:href="#ArialMT-73" transform="translate(227.832031 0)"/>
      <use xlink:href="#ArialMT-69" transform="translate(277.832031 0)"/>
      <use xlink:href="#ArialMT-6f" transform="translate(300.048828 0)"/>
      <use xlink:href="#ArialMT-6e" transform="translate(355.664062 0)"/>
      <use xlink:href="#ArialMT-2d" transform="translate(411.279297 0)"/>
      <use xlink:href="#ArialMT-52" transform="translate(444.580078 0)"/>
      <use xlink:href="#ArialMT-65" transform="translate(516.796875 0)"/>
      <use xlink:href="#ArialMT-63" transform="translate(572.412109 0)"/>
      <use xlink:href="#ArialMT-61" transform="translate(622.412109 0)"/>
      <use xlink:href="#ArialMT-6c" transform="translate(678.027344 0)"/>
      <use xlink:href="#ArialMT-6c" transform="translate(700.244141 0)"/>
      <use xlink:href="#ArialMT-20" transform="translate(722.460938 0)"/>
      <use xlink:href="#ArialMT-63" transform="translate(750.244141 0)"/>
      <use xlink:href="#ArialMT-75" transform="translate(800.244141 0)"/>
      <use xlink:href="#ArialMT-72" transform="translate(855.859375 0)"/>
      <use xlink:href="#ArialMT-76" transform="translate(889.160156 0)"/>
      <use xlink:href="#ArialMT-65" transform="translate(939.160156 0)"/>
     </g>
    </g>
   </g>
  </g>
 </g>
 <defs>
  <clipPath id="pb994e4b8df">
   <rect x="35.655938" y="19.642031" width="253.543583" height="245.38077"/>
  </clipPath>
 </defs>
</svg>
