<?xml version="1.0" encoding="utf-8" standalone="no"?>
<!DOCTYPE svg PUBLIC "-//W3C//DTD SVG 1.1//EN"
  "http://www.w3.org/Graphics/SVG/1.1/DTD/svg11.dtd">
<svg xmlns:xlink="http://www.w3.org/1999/xlink" width="296.39952pt" height="296.39952pt" viewBox="0 0 296.39952 296.39952" xmlns="http://www.w3.org/2000/svg" version="1.1">
 <metadata>
  <rdf:RDF xmlns:dc="http://purl.org/dc/elements/1.1/" xmlns:cc="http://creativecommons.org/ns#" xmlns:rdf="http://www.w3.org/1999/02/22-rdf-syntax-ns#">
   <cc:Work>
    <dc:type rdf:resource="http://purl.org/dc/dcmitype/StillImage"/>
    <dc:date>2025-12-27T19:10:54.762025</dc:date>
    <dc:format>image/svg+xml</dc:format>
    <dc:creator>
     <cc:Agent>
      <dc:title>Matplotlib v3.10.8, https://matplotlib.org/</dc:title>
     </cc:Agent>
    </dc:creator>
   </cc:Work>
  </rdf:RDF>
 </metadata>
 <defs>
  <style type="text/css">*{stroke-linejoin: round; stroke-linecap: butt}</style>
 </defs>
 <g id="figure_1">
  <g id="patch_1">
   <path d="M 0 296.39952 
L 296.39952 296.39952 
L 296.39952 0 
L 0 0 
z
" style="fill: #ffffff"/>
  </g>
  <g id="axes_1">
   <g id="patch_2">
    <path d="M 35.655938 265.022801 
L 289.19952 265.022801 
L 289.19952 19.751719 
L 35.655938 19.751719 
z
" style="fill: #ffffff"/>
   </g>
   <g id="matplotlib.axis_1">
    <g id="xtick_1">
     <g id="line2d_1">
      <path d="M 42.831699 265.022801 
L 42.831699 19.751719 
" clip-path="url(#pa868684382)" style="fill: none; stroke: #c0c0c0; stroke-width: 0.25; stroke-linecap: round"/>
     </g>
     <g id="line2d_2"/>
     <g id="text_1">
      <!-- 0.0 -->
      <g style="fill: #333333" transform="translate(36.576699 274.964832) scale(0.09 -0.09)">
       <defs>
        <path id="ArialMT-30" d="M 266 2259 
Q 266 3072 433 3567 
Q 600 4063 929 4331 
Q 1259 4600 1759 4600 
Q 2128 4600 2406 4451 
Q 2684 4303 2865 4023 
Q 3047 3744 3150 3342 
Q 3253 2941 3253 2259 
Q 3253 1453 3087 958 
Q 2922 463 2592 192 
Q 2263 -78 1759 -78 
Q 1097 -78 719 397 
Q 266 969 266 2259 
z
M 844 2259 
Q 844 1131 1108 757 
Q 1372 384 1759 384 
Q 2147 384 2411 759 
Q 2675 1134 2675 2259 
Q 2675 3391 2411 3762 
Q 2147 4134 1753 4134 
Q 1366 4134 1134 3806 
Q 844 3388 844 2259 
z
" transform="scale(0.015625)"/>
        <path id="ArialMT-2e" d="M 581 0 
L 581 641 
L 1222 641 
L 1222 0 
L 581 0 
z
" transform="scale(0.015625)"/>
       </defs>
       <use xlink:href="#ArialMT-30"/>
       <use xlink:href="#ArialMT-2e" transform="translate(55.615234 0)"/>
       <use xlink:href="#ArialMT-30" transform="translate(83.398438 0)"/>
      </g>
     </g>
    </g>
    <g id="xtick_2">
     <g id="line2d_3">
      <path d="M 90.670111 265.022801 
L 90.670111 19.751719 
" clip-path="url(#pa868684382)" style="fill: none; stroke: #c0c0c0; stroke-width: 0.25; stroke-linecap: round"/>
     </g>
     <g id="line2d_4"/>
     <g id="text_2">
      <!-- 0.2 -->
      <g style="fill: #333333" transform="translate(84.415111 274.964832) scale(0.09 -0.09)">
       <defs>
        <path id="ArialMT-32" d="M 3222 541 
L 3222 0 
L 194 0 
Q 188 203 259 391 
Q 375 700 629 1000 
Q 884 1300 1366 1694 
Q 2113 2306 2375 2664 
Q 2638 3022 2638 3341 
Q 2638 3675 2398 3904 
Q 2159 4134 1775 4134 
Q 1369 4134 1125 3890 
Q 881 3647 878 3216 
L 300 3275 
Q 359 3922 746 4261 
Q 1134 4600 1788 4600 
Q 2447 4600 2831 4234 
Q 3216 3869 3216 3328 
Q 3216 3053 3103 2787 
Q 2991 2522 2730 2228 
Q 2469 1934 1863 1422 
Q 1356 997 1212 845 
Q 1069 694 975 541 
L 3222 541 
z
" transform="scale(0.015625)"/>
       </defs>
       <use xlink:href="#ArialMT-30"/>
       <use xlink:href="#ArialMT-2e" transform="translate(55.615234 0)"/>
       <use xlink:href="#ArialMT-32" transform="translate(83.398438 0)"/>
      </g>
     </g>
    </g>
    <g id="xtick_3">
     <g id="line2d_5">
      <path d="M 138.508523 265.022801 
L 138.508523 19.751719 
" clip-path="url(#pa868684382)" style="fill: none; stroke: #c0c0c0; stroke-width: 0.25; stroke-linecap: round"/>
     </g>
     <g id="line2d_6"/>
     <g id="text_3">
      <!-- 0.4 -->
      <g style="fill: #333333" transform="translate(132.253523 274.964832) scale(0.09 -0.09)">
       <defs>
        <path id="ArialMT-34" d="M 2069 0 
L 2069 1097 
L 81 1097 
L 81 1613 
L 2172 4581 
L 2631 4581 
L 2631 1613 
L 3250 1613 
L 3250 1097 
L 2631 1097 
L 2631 0 
L 2069 0 
z
M 2069 1613 
L 2069 3678 
L 634 1613 
L 2069 1613 
z
" transform="scale(0.015625)"/>
       </defs>
       <use xlink:href="#ArialMT-30"/>
       <use xlink:href="#ArialMT-2e" transform="translate(55.615234 0)"/>
       <use xlink:href="#ArialMT-34" transform="translate(83.398438 0)"/>
      </g>
     </g>
    </g>
    <g id="xtick_4">
     <g id="line2d_7">
      <path d="M 186.346935 265.022801 
L 186.346935 19.751719 
" clip-path="url(#pa868684382)" style="fill: none; stroke: #c0c0c0; stroke-width: 0.25; stroke-linecap: round"/>
     </g>
     <g id="line2d_8"/>
     <g id="text_4">
      <!-- 0.6 -->
      <g style="fill: #333333" transform="translate(180.091935 274.964832) scale(0.09 -0.09)">
       <defs>
        <path id="ArialMT-36" d="M 3184 3459 
L 2625 3416 
Q 2550 3747 2413 3897 
Q 2184 4138 1850 4138 
Q 1581 4138 1378 3988 
Q 1113 3794 959 3422 
Q 806 3050 800 2363 
Q 1003 2672 1297 2822 
Q 1591 2972 1913 2972 
Q 2475 2972 2870 2558 
Q 3266 2144 3266 1488 
Q 3266 1056 3080 686 
Q 2894 316 2569 119 
Q 2244 -78 1831 -78 
Q 1128 -78 684 439 
Q 241 956 241 2144 
Q 241 3472 731 4075 
Q 1159 4600 1884 4600 
Q 2425 4600 2770 4297 
Q 3116 3994 3184 3459 
z
M 888 1484 
Q 888 1194 1011 928 
Q 1134 663 1356 523 
Q 1578 384 1822 384 
Q 2178 384 2434 671 
Q 2691 959 2691 1453 
Q 2691 1928 2437 2201 
Q 2184 2475 1800 2475 
Q 1419 2475 1153 2201 
Q 888 1928 888 1484 
z
" transform="scale(0.015625)"/>
       </defs>
       <use xlink:href="#ArialMT-30"/>
       <use xlink:href="#ArialMT-2e" transform="translate(55.615234 0)"/>
       <use xlink:href="#ArialMT-36" transform="translate(83.398438 0)"/>
      </g>
     </g>
    </g>
    <g id="xtick_5">
     <g id="line2d_9">
      <path d="M 234.185346 265.022801 
L 234.185346 19.751719 
" clip-path="url(#pa868684382)" style="fill: none; stroke: #c0c0c0; stroke-width: 0.25; stroke-linecap: round"/>
     </g>
     <g id="line2d_10"/>
     <g id="text_5">
      <!-- 0.8 -->
      <g style="fill: #333333" transform="translate(227.930346 274.964832) scale(0.09 -0.09)">
       <defs>
        <path id="ArialMT-38" d="M 1131 2484 
Q 781 2613 612 2850 
Q 444 3088 444 3419 
Q 444 3919 803 4259 
Q 1163 4600 1759 4600 
Q 2359 4600 2725 4251 
Q 3091 3903 3091 3403 
Q 3091 3084 2923 2848 
Q 2756 2613 2416 2484 
Q 2838 2347 3058 2040 
Q 3278 1734 3278 1309 
Q 3278 722 2862 322 
Q 2447 -78 1769 -78 
Q 1091 -78 675 323 
Q 259 725 259 1325 
Q 259 1772 486 2073 
Q 713 2375 1131 2484 
z
M 1019 3438 
Q 1019 3113 1228 2906 
Q 1438 2700 1772 2700 
Q 2097 2700 2305 2904 
Q 2513 3109 2513 3406 
Q 2513 3716 2298 3927 
Q 2084 4138 1766 4138 
Q 1444 4138 1231 3931 
Q 1019 3725 1019 3438 
z
M 838 1322 
Q 838 1081 952 856 
Q 1066 631 1291 507 
Q 1516 384 1775 384 
Q 2178 384 2440 643 
Q 2703 903 2703 1303 
Q 2703 1709 2433 1975 
Q 2163 2241 1756 2241 
Q 1359 2241 1098 1978 
Q 838 1716 838 1322 
z
" transform="scale(0.015625)"/>
       </defs>
       <use xlink:href="#ArialMT-30"/>
       <use xlink:href="#ArialMT-2e" transform="translate(55.615234 0)"/>
       <use xlink:href="#ArialMT-38" transform="translate(83.398438 0)"/>
      </g>
     </g>
    </g>
    <g id="xtick_6">
     <g id="line2d_11">
      <path d="M 282.023758 265.022801 
L 282.023758 19.751719 
" clip-path="url(#pa868684382)" style="fill: none; stroke: #c0c0c0; stroke-width: 0.25; stroke-linecap: round"/>
     </g>
     <g id="line2d_12"/>
     <g id="text_6">
      <!-- 1.0 -->
      <g style="fill: #333333" transform="translate(275.768758 274.964832) scale(0.09 -0.09)">
       <defs>
        <path id="ArialMT-31" d="M 2384 0 
L 1822 0 
L 1822 3584 
Q 1619 3391 1289 3197 
Q 959 3003 697 2906 
L 697 3450 
Q 1169 3672 1522 3987 
Q 1875 4303 2022 4600 
L 2384 4600 
L 2384 0 
z
" transform="scale(0.015625)"/>
       </defs>
       <use xlink:href="#ArialMT-31"/>
       <use xlink:href="#ArialMT-2e" transform="translate(55.615234 0)"/>
       <use xlink:href="#ArialMT-30" transform="translate(83.398438 0)"/>
      </g>
     </g>
    </g>
    <g id="text_7">
     <!-- False Positive Rate (FPR) -->
     <g style="fill: #333333" transform="translate(108.165463 287.305301) scale(0.09 -0.09)">
      <defs>
       <path id="Arial-BoldMT-46" d="M 472 0 
L 472 4581 
L 3613 4581 
L 3613 3806 
L 1397 3806 
L 1397 2722 
L 3309 2722 
L 3309 1947 
L 1397 1947 
L 1397 0 
L 472 0 
z
" transform="scale(0.015625)"/>
       <path id="Arial-BoldMT-61" d="M 1116 2306 
L 319 2450 
Q 453 2931 781 3162 
Q 1109 3394 1756 3394 
Q 2344 3394 2631 3255 
Q 2919 3116 3036 2902 
Q 3153 2688 3153 2116 
L 3144 1091 
Q 3144 653 3186 445 
Q 3228 238 3344 0 
L 2475 0 
Q 2441 88 2391 259 
Q 2369 338 2359 363 
Q 2134 144 1878 34 
Q 1622 -75 1331 -75 
Q 819 -75 523 203 
Q 228 481 228 906 
Q 228 1188 362 1408 
Q 497 1628 739 1745 
Q 981 1863 1438 1950 
Q 2053 2066 2291 2166 
L 2291 2253 
Q 2291 2506 2166 2614 
Q 2041 2722 1694 2722 
Q 1459 2722 1328 2630 
Q 1197 2538 1116 2306 
z
M 2291 1594 
Q 2122 1538 1756 1459 
Q 1391 1381 1278 1306 
Q 1106 1184 1106 997 
Q 1106 813 1243 678 
Q 1381 544 1594 544 
Q 1831 544 2047 700 
Q 2206 819 2256 991 
Q 2291 1103 2291 1419 
L 2291 1594 
z
" transform="scale(0.015625)"/>
       <path id="Arial-BoldMT-6c" d="M 459 0 
L 459 4581 
L 1338 4581 
L 1338 0 
L 459 0 
z
" transform="scale(0.015625)"/>
       <path id="Arial-BoldMT-73" d="M 150 947 
L 1031 1081 
Q 1088 825 1259 692 
Q 1431 559 1741 559 
Q 2081 559 2253 684 
Q 2369 772 2369 919 
Q 2369 1019 2306 1084 
Q 2241 1147 2013 1200 
Q 950 1434 666 1628 
Q 272 1897 272 2375 
Q 272 2806 612 3100 
Q 953 3394 1669 3394 
Q 2350 3394 2681 3172 
Q 3013 2950 3138 2516 
L 2309 2363 
Q 2256 2556 2107 2659 
Q 1959 2763 1684 2763 
Q 1338 2763 1188 2666 
Q 1088 2597 1088 2488 
Q 1088 2394 1175 2328 
Q 1294 2241 1995 2081 
Q 2697 1922 2975 1691 
Q 3250 1456 3250 1038 
Q 3250 581 2869 253 
Q 2488 -75 1741 -75 
Q 1063 -75 667 200 
Q 272 475 150 947 
z
" transform="scale(0.015625)"/>
       <path id="Arial-BoldMT-65" d="M 2381 1056 
L 3256 909 
Q 3088 428 2723 176 
Q 2359 -75 1813 -75 
Q 947 -75 531 491 
Q 203 944 203 1634 
Q 203 2459 634 2926 
Q 1066 3394 1725 3394 
Q 2466 3394 2894 2905 
Q 3322 2416 3303 1406 
L 1103 1406 
Q 1113 1016 1316 798 
Q 1519 581 1822 581 
Q 2028 581 2168 693 
Q 2309 806 2381 1056 
z
M 2431 1944 
Q 2422 2325 2234 2523 
Q 2047 2722 1778 2722 
Q 1491 2722 1303 2513 
Q 1116 2303 1119 1944 
L 2431 1944 
z
" transform="scale(0.015625)"/>
       <path id="Arial-BoldMT-20" transform="scale(0.015625)"/>
       <path id="Arial-BoldMT-50" d="M 466 0 
L 466 4581 
L 1950 4581 
Q 2794 4581 3050 4513 
Q 3444 4409 3709 4064 
Q 3975 3719 3975 3172 
Q 3975 2750 3822 2462 
Q 3669 2175 3433 2011 
Q 3197 1847 2953 1794 
Q 2622 1728 1994 1728 
L 1391 1728 
L 1391 0 
L 466 0 
z
M 1391 3806 
L 1391 2506 
L 1897 2506 
Q 2444 2506 2628 2578 
Q 2813 2650 2917 2803 
Q 3022 2956 3022 3159 
Q 3022 3409 2875 3571 
Q 2728 3734 2503 3775 
Q 2338 3806 1838 3806 
L 1391 3806 
z
" transform="scale(0.015625)"/>
       <path id="Arial-BoldMT-6f" d="M 256 1706 
Q 256 2144 472 2553 
Q 688 2963 1083 3178 
Q 1478 3394 1966 3394 
Q 2719 3394 3200 2905 
Q 3681 2416 3681 1669 
Q 3681 916 3195 420 
Q 2709 -75 1972 -75 
Q 1516 -75 1102 131 
Q 688 338 472 736 
Q 256 1134 256 1706 
z
M 1156 1659 
Q 1156 1166 1390 903 
Q 1625 641 1969 641 
Q 2313 641 2545 903 
Q 2778 1166 2778 1666 
Q 2778 2153 2545 2415 
Q 2313 2678 1969 2678 
Q 1625 2678 1390 2415 
Q 1156 2153 1156 1659 
z
" transform="scale(0.015625)"/>
       <path id="Arial-BoldMT-69" d="M 459 3769 
L 459 4581 
L 1338 4581 
L 1338 3769 
L 459 3769 
z
M 459 0 
L 459 3319 
L 1338 3319 
L 1338 0 
L 459 0 
z
" transform="scale(0.015625)"/>
       <path id="Arial-BoldMT-74" d="M 1981 3319 
L 1981 2619 
L 1381 2619 
L 1381 1281 
Q 1381 875 1398 808 
Q 1416 741 1477 697 
Q 1538 653 1625 653 
Q 1747 653 1978 738 
L 2053 56 
Q 1747 -75 1359 -75 
Q 1122 -75 931 4 
Q 741 84 652 211 
Q 563 338 528 553 
Q 500 706 500 1172 
L 500 2619 
L 97 2619 
L 97 3319 
L 500 3319 
L 500 3978 
L 1381 4491 
L 1381 3319 
L 1981 3319 
z
" transform="scale(0.015625)"/>
       <path id="Arial-BoldMT-76" d="M 1372 0 
L 34 3319 
L 956 3319 
L 1581 1625 
L 1763 1059 
Q 1834 1275 1853 1344 
Q 1897 1484 1947 1625 
L 2578 3319 
L 3481 3319 
L 2163 0 
L 1372 0 
z
" transform="scale(0.015625)"/>
       <path id="Arial-BoldMT-52" d="M 469 0 
L 469 4581 
L 2416 4581 
Q 3150 4581 3483 4457 
Q 3816 4334 4016 4018 
Q 4216 3703 4216 3297 
Q 4216 2781 3912 2445 
Q 3609 2109 3006 2022 
Q 3306 1847 3501 1637 
Q 3697 1428 4028 894 
L 4588 0 
L 3481 0 
L 2813 997 
Q 2456 1531 2325 1670 
Q 2194 1809 2047 1861 
Q 1900 1913 1581 1913 
L 1394 1913 
L 1394 0 
L 469 0 
z
M 1394 2644 
L 2078 2644 
Q 2744 2644 2909 2700 
Q 3075 2756 3169 2893 
Q 3263 3031 3263 3238 
Q 3263 3469 3139 3611 
Q 3016 3753 2791 3791 
Q 2678 3806 2116 3806 
L 1394 3806 
L 1394 2644 
z
" transform="scale(0.015625)"/>
       <path id="Arial-BoldMT-28" d="M 1916 -1347 
L 1313 -1347 
Q 834 -625 584 153 
Q 334 931 334 1659 
Q 334 2563 644 3369 
Q 913 4069 1325 4659 
L 1925 4659 
Q 1497 3713 1336 3048 
Q 1175 2384 1175 1641 
Q 1175 1128 1270 590 
Q 1366 53 1531 -431 
Q 1641 -750 1916 -1347 
z
" transform="scale(0.015625)"/>
       <path id="Arial-BoldMT-29" d="M 216 -1347 
Q 475 -791 581 -494 
Q 688 -197 778 190 
Q 869 578 912 926 
Q 956 1275 956 1641 
Q 956 2384 797 3048 
Q 638 3713 209 4659 
L 806 4659 
Q 1278 3988 1539 3234 
Q 1800 2481 1800 1706 
Q 1800 1053 1594 306 
Q 1359 -531 822 -1347 
L 216 -1347 
z
" transform="scale(0.015625)"/>
      </defs>
      <use xlink:href="#Arial-BoldMT-46"/>
      <use xlink:href="#Arial-BoldMT-61" transform="translate(61.083984 0)"/>
      <use xlink:href="#Arial-BoldMT-6c" transform="translate(116.699219 0)"/>
      <use xlink:href="#Arial-BoldMT-73" transform="translate(144.482422 0)"/>
      <use xlink:href="#Arial-BoldMT-65" transform="translate(200.097656 0)"/>
      <use xlink:href="#Arial-BoldMT-20" transform="translate(255.712891 0)"/>
      <use xlink:href="#Arial-BoldMT-50" transform="translate(283.496094 0)"/>
      <use xlink:href="#Arial-BoldMT-6f" transform="translate(350.195312 0)"/>
      <use xlink:href="#Arial-BoldMT-73" transform="translate(411.279297 0)"/>
      <use xlink:href="#Arial-BoldMT-69" transform="translate(466.894531 0)"/>
      <use xlink:href="#Arial-BoldMT-74" transform="translate(494.677734 0)"/>
      <use xlink:href="#Arial-BoldMT-69" transform="translate(527.978516 0)"/>
      <use xlink:href="#Arial-BoldMT-76" transform="translate(555.761719 0)"/>
      <use xlink:href="#Arial-BoldMT-65" transform="translate(611.376953 0)"/>
      <use xlink:href="#Arial-BoldMT-20" transform="translate(666.992188 0)"/>
      <use xlink:href="#Arial-BoldMT-52" transform="translate(694.775391 0)"/>
      <use xlink:href="#Arial-BoldMT-61" transform="translate(766.992188 0)"/>
      <use xlink:href="#Arial-BoldMT-74" transform="translate(822.607422 0)"/>
      <use xlink:href="#Arial-BoldMT-65" transform="translate(855.908203 0)"/>
      <use xlink:href="#Arial-BoldMT-20" transform="translate(911.523438 0)"/>
      <use xlink:href="#Arial-BoldMT-28" transform="translate(939.306641 0)"/>
      <use xlink:href="#Arial-BoldMT-46" transform="translate(972.607422 0)"/>
      <use xlink:href="#Arial-BoldMT-50" transform="translate(1033.691406 0)"/>
      <use xlink:href="#Arial-BoldMT-52" transform="translate(1100.390625 0)"/>
      <use xlink:href="#Arial-BoldMT-29" transform="translate(1172.607422 0)"/>
     </g>
    </g>
   </g>
   <g id="matplotlib.axis_2">
    <g id="ytick_1">
     <g id="line2d_13">
      <path d="M 35.655938 265.022801 
L 289.19952 265.022801 
" clip-path="url(#pa868684382)" style="fill: none; stroke: #c0c0c0; stroke-width: 0.25; stroke-linecap: round"/>
     </g>
     <g id="line2d_14"/>
     <g id="text_8">
      <!-- 0.0 -->
      <g style="fill: #333333" transform="translate(19.645938 268.243817) scale(0.09 -0.09)">
       <use xlink:href="#ArialMT-30"/>
       <use xlink:href="#ArialMT-2e" transform="translate(55.615234 0)"/>
       <use xlink:href="#ArialMT-30" transform="translate(83.398438 0)"/>
      </g>
     </g>
    </g>
    <g id="ytick_2">
     <g id="line2d_15">
      <path d="M 35.655938 217.397348 
L 289.19952 217.397348 
" clip-path="url(#pa868684382)" style="fill: none; stroke: #c0c0c0; stroke-width: 0.25; stroke-linecap: round"/>
     </g>
     <g id="line2d_16"/>
     <g id="text_9">
      <!-- 0.2 -->
      <g style="fill: #333333" transform="translate(19.645938 220.618364) scale(0.09 -0.09)">
       <use xlink:href="#ArialMT-30"/>
       <use xlink:href="#ArialMT-2e" transform="translate(55.615234 0)"/>
       <use xlink:href="#ArialMT-32" transform="translate(83.398438 0)"/>
      </g>
     </g>
    </g>
    <g id="ytick_3">
     <g id="line2d_17">
      <path d="M 35.655938 169.771895 
L 289.19952 169.771895 
" clip-path="url(#pa868684382)" style="fill: none; stroke: #c0c0c0; stroke-width: 0.25; stroke-linecap: round"/>
     </g>
     <g id="line2d_18"/>
     <g id="text_10">
      <!-- 0.4 -->
      <g style="fill: #333333" transform="translate(19.645938 172.992911) scale(0.09 -0.09)">
       <use xlink:href="#ArialMT-30"/>
       <use xlink:href="#ArialMT-2e" transform="translate(55.615234 0)"/>
       <use xlink:href="#ArialMT-34" transform="translate(83.398438 0)"/>
      </g>
     </g>
    </g>
    <g id="ytick_4">
     <g id="line2d_19">
      <path d="M 35.655938 122.146443 
L 289.19952 122.146443 
" clip-path="url(#pa868684382)" style="fill: none; stroke: #c0c0c0; stroke-width: 0.25; stroke-linecap: round"/>
     </g>
     <g id="line2d_20"/>
     <g id="text_11">
      <!-- 0.6 -->
      <g style="fill: #333333" transform="translate(19.645938 125.367458) scale(0.09 -0.09)">
       <use xlink:href="#ArialMT-30"/>
       <use xlink:href="#ArialMT-2e" transform="translate(55.615234 0)"/>
       <use xlink:href="#ArialMT-36" transform="translate(83.398438 0)"/>
      </g>
     </g>
    </g>
    <g id="ytick_5">
     <g id="line2d_21">
      <path d="M 35.655938 74.52099 
L 289.19952 74.52099 
" clip-path="url(#pa868684382)" style="fill: none; stroke: #c0c0c0; stroke-width: 0.25; stroke-linecap: round"/>
     </g>
     <g id="line2d_22"/>
     <g id="text_12">
      <!-- 0.8 -->
      <g style="fill: #333333" transform="translate(19.645938 77.742005) scale(0.09 -0.09)">
       <use xlink:href="#ArialMT-30"/>
       <use xlink:href="#ArialMT-2e" transform="translate(55.615234 0)"/>
       <use xlink:href="#ArialMT-38" transform="translate(83.398438 0)"/>
      </g>
     </g>
    </g>
    <g id="ytick_6">
     <g id="line2d_23">
      <path d="M 35.655938 26.895537 
L 289.19952 26.895537 
" clip-path="url(#pa868684382)" style="fill: none; stroke: #c0c0c0; stroke-width: 0.25; stroke-linecap: round"/>
     </g>
     <g id="line2d_24"/>
     <g id="text_13">
      <!-- 1.0 -->
      <g style="fill: #333333" transform="translate(19.645938 30.116552) scale(0.09 -0.09)">
       <use xlink:href="#ArialMT-31"/>
       <use xlink:href="#ArialMT-2e" transform="translate(55.615234 0)"/>
       <use xlink:href="#ArialMT-30" transform="translate(83.398438 0)"/>
      </g>
     </g>
    </g>
    <g id="text_14">
     <!-- True Positive Rate (TPR) -->
     <g style="fill: #333333" transform="translate(13.751719 194.647026) rotate(-90) scale(0.09 -0.09)">
      <defs>
       <path id="Arial-BoldMT-54" d="M 1497 0 
L 1497 3806 
L 138 3806 
L 138 4581 
L 3778 4581 
L 3778 3806 
L 2422 3806 
L 2422 0 
L 1497 0 
z
" transform="scale(0.015625)"/>
       <path id="Arial-BoldMT-72" d="M 1300 0 
L 422 0 
L 422 3319 
L 1238 3319 
L 1238 2847 
Q 1447 3181 1614 3287 
Q 1781 3394 1994 3394 
Q 2294 3394 2572 3228 
L 2300 2463 
Q 2078 2606 1888 2606 
Q 1703 2606 1575 2504 
Q 1447 2403 1373 2137 
Q 1300 1872 1300 1025 
L 1300 0 
z
" transform="scale(0.015625)"/>
       <path id="Arial-BoldMT-75" d="M 2644 0 
L 2644 497 
Q 2463 231 2167 78 
Q 1872 -75 1544 -75 
Q 1209 -75 943 72 
Q 678 219 559 484 
Q 441 750 441 1219 
L 441 3319 
L 1319 3319 
L 1319 1794 
Q 1319 1094 1367 936 
Q 1416 778 1544 686 
Q 1672 594 1869 594 
Q 2094 594 2272 717 
Q 2450 841 2515 1023 
Q 2581 1206 2581 1919 
L 2581 3319 
L 3459 3319 
L 3459 0 
L 2644 0 
z
" transform="scale(0.015625)"/>
      </defs>
      <use xlink:href="#Arial-BoldMT-54"/>
      <use xlink:href="#Arial-BoldMT-72" transform="translate(55.583984 0)"/>
      <use xlink:href="#Arial-BoldMT-75" transform="translate(94.5 0)"/>
      <use xlink:href="#Arial-BoldMT-65" transform="translate(155.583984 0)"/>
      <use xlink:href="#Arial-BoldMT-20" transform="translate(211.199219 0)"/>
      <use xlink:href="#Arial-BoldMT-50" transform="translate(238.982422 0)"/>
      <use xlink:href="#Arial-BoldMT-6f" transform="translate(305.681641 0)"/>
      <use xlink:href="#Arial-BoldMT-73" transform="translate(366.765625 0)"/>
      <use xlink:href="#Arial-BoldMT-69" transform="translate(422.380859 0)"/>
      <use xlink:href="#Arial-BoldMT-74" transform="translate(450.164062 0)"/>
      <use xlink:href="#Arial-BoldMT-69" transform="translate(483.464844 0)"/>
      <use xlink:href="#Arial-BoldMT-76" transform="translate(511.248047 0)"/>
      <use xlink:href="#Arial-BoldMT-65" transform="translate(566.863281 0)"/>
      <use xlink:href="#Arial-BoldMT-20" transform="translate(622.478516 0)"/>
      <use xlink:href="#Arial-BoldMT-52" transform="translate(650.261719 0)"/>
      <use xlink:href="#Arial-BoldMT-61" transform="translate(722.478516 0)"/>
      <use xlink:href="#Arial-BoldMT-74" transform="translate(778.09375 0)"/>
      <use xlink:href="#Arial-BoldMT-65" transform="translate(811.394531 0)"/>
      <use xlink:href="#Arial-BoldMT-20" transform="translate(867.009766 0)"/>
      <use xlink:href="#Arial-BoldMT-28" transform="translate(894.792969 0)"/>
      <use xlink:href="#Arial-BoldMT-54" transform="translate(928.09375 0)"/>
      <use xlink:href="#Arial-BoldMT-50" transform="translate(989.177734 0)"/>
      <use xlink:href="#Arial-BoldMT-52" transform="translate(1055.876953 0)"/>
      <use xlink:href="#Arial-BoldMT-29" transform="translate(1128.09375 0)"/>
     </g>
    </g>
   </g>
   <g id="line2d_25">
    <path d="M 42.831699 265.022801 
L 42.94242 244.048653 
L 42.944252 243.953142 
L 43.055359 233.962723 
L 43.056235 233.867213 
L 43.167077 226.990443 
L 43.169662 226.894932 
L 43.280648 221.145188 
L 43.281798 221.049677 
L 43.392763 216.7899 
L 43.395521 216.69439 
L 43.506618 212.835758 
L 43.509763 212.740247 
L 43.620606 209.683905 
L 43.624209 209.588394 
L 43.734909 206.226417 
L 43.739011 206.130907 
L 43.849467 203.800446 
L 43.851889 203.704935 
L 43.962488 201.431781 
L 43.972239 201.33627 
L 44.083336 199.177728 
L 44.088415 199.082217 
L 44.199329 196.923676 
L 44.205242 196.828165 
L 44.311362 194.956155 
L 44.32777 194.860645 
L 44.437981 193.160554 
L 44.446551 193.065044 
L 44.557445 191.42226 
L 44.561486 191.326749 
L 44.672583 189.512046 
L 44.680838 189.416535 
L 44.790805 187.716445 
L 44.802602 187.620934 
L 44.912742 186.169172 
L 44.923999 186.073661 
L 45.034547 184.411775 
L 45.048064 184.316264 
L 45.158978 183.017319 
L 45.16656 182.921808 
L 45.277189 181.527352 
L 45.300366 181.431841 
L 45.410994 180.056487 
L 45.418109 179.960976 
L 45.527659 178.662031 
L 45.531517 178.56652 
L 45.63727 177.210268 
L 45.663897 177.114758 
L 45.773925 175.987731 
L 45.797234 175.892221 
L 45.904036 174.765195 
L 45.919853 174.669684 
L 46.029606 173.485351 
L 46.038441 173.389841 
L 46.149355 172.358325 
L 46.163676 172.262814 
L 46.27118 171.15489 
L 46.271801 171.15489 
L 46.285318 171.05938 
L 46.396385 169.817741 
L 46.413332 169.72223 
L 46.522943 168.786225 
L 46.523584 168.786225 
L 46.541254 168.690714 
L 46.651007 167.907527 
L 46.658916 167.812016 
L 46.769931 166.933318 
L 46.785647 166.837807 
L 46.895024 165.748985 
L 46.904286 165.653474 
L 47.013286 164.793878 
L 47.020686 164.698367 
L 47.131743 163.74326 
L 47.147142 163.64775 
L 47.254891 162.940971 
L 47.28454 162.84546 
L 47.394213 161.928557 
L 47.395556 161.928557 
L 47.408981 161.833046 
L 47.518501 160.801531 
L 47.519224 160.801531 
L 47.534746 160.70602 
L 47.644672 159.750913 
L 47.645008 159.750913 
L 47.656581 159.655403 
L 47.767688 158.929521 
L 47.779475 158.834011 
L 47.888384 157.974414 
L 47.914338 157.878904 
L 48.020153 157.019307 
L 48.040561 156.923797 
L 48.149011 156.178813 
L 48.162722 156.083303 
L 48.272343 155.281013 
L 48.283977 155.185502 
L 48.394697 154.440519 
L 48.410626 154.345008 
L 48.520604 153.638229 
L 48.538365 153.542718 
L 48.649238 152.855041 
L 48.666073 152.75953 
L 48.768641 152.12916 
L 48.79083 152.033649 
L 48.901561 151.097644 
L 48.914131 151.002134 
L 49.015691 150.390865 
L 49.043539 150.295355 
L 49.154463 149.493065 
L 49.194291 149.397554 
L 49.305022 148.767183 
L 49.323781 148.671673 
L 49.434389 148.079506 
L 49.462084 147.983996 
L 49.571309 147.468238 
L 49.571757 147.468238 
L 49.588724 147.372727 
L 49.697256 146.58954 
L 49.720046 146.494029 
L 49.825565 145.901863 
L 49.831 145.901863 
L 49.854492 145.806352 
L 49.963899 145.118675 
L 49.99362 145.023164 
L 50.101399 144.564713 
L 50.102936 144.564713 
L 50.1254 144.469202 
L 50.235591 143.838832 
L 50.257403 143.743321 
L 50.364073 143.28487 
L 50.365508 143.28487 
L 50.388623 143.189359 
L 50.49686 142.57809 
L 50.529451 142.48258 
L 50.637983 141.833107 
L 50.639011 141.833107 
L 50.657445 141.737596 
L 50.768318 141.069021 
L 50.781377 140.973511 
L 50.892321 140.324038 
L 50.92253 140.228527 
L 51.033149 139.617259 
L 51.049984 139.521748 
L 51.158791 138.834071 
L 51.177611 138.73856 
L 51.286805 138.165496 
L 51.287914 138.165496 
L 51.321503 138.069986 
L 51.427348 137.516024 
L 51.432071 137.516024 
L 51.446626 137.420513 
L 51.555138 136.942959 
L 51.578039 136.847449 
L 51.687538 136.408099 
L 51.722236 136.312589 
L 51.819114 136.006955 
L 51.829231 136.006955 
L 51.880643 135.911444 
L 51.988676 135.452993 
L 51.991597 135.452993 
L 52.047314 135.357482 
L 52.14697 134.994541 
L 52.151164 134.994541 
L 52.179531 134.89903 
L 52.282903 134.459681 
L 52.285437 134.459681 
L 52.309204 134.364171 
L 52.416698 133.943924 
L 52.416911 133.943924 
L 52.451711 133.867515 
L 52.5572 133.409064 
L 52.59541 133.313553 
L 52.70441 132.816897 
L 52.730243 132.721387 
L 52.830714 132.12922 
L 52.88644 132.03371 
L 52.996591 131.575258 
L 53.007013 131.479748 
L 53.117276 131.078603 
L 53.118029 131.078603 
L 53.139872 130.983092 
L 53.249371 130.639254 
L 53.272741 130.543743 
L 53.36345 130.066189 
L 53.430322 129.970679 
L 53.530885 129.550432 
L 53.539822 129.550432 
L 53.578774 129.454921 
L 53.689342 129.053776 
L 53.71491 128.958265 
L 53.814506 128.442508 
L 53.825285 128.442508 
L 53.847148 128.346997 
L 53.951782 128.003158 
L 53.98364 127.907648 
L 54.090727 127.506503 
L 54.115257 127.410992 
L 54.214618 127.086256 
L 54.222476 127.086256 
L 54.268696 126.990745 
L 54.363131 126.627804 
L 54.369452 126.627804 
L 54.408893 126.532294 
L 54.506158 126.131149 
L 54.51939 126.131149 
L 54.537344 126.035638 
L 54.647983 125.538982 
L 54.676076 125.443472 
L 54.786603 125.080531 
L 54.808201 124.98502 
L 54.911817 124.564773 
L 54.916092 124.564773 
L 54.956928 124.469263 
L 55.067872 124.010811 
L 55.092789 123.915301 
L 55.199235 123.55236 
L 55.251114 123.456849 
L 55.352389 123.113011 
L 55.361611 123.113011 
L 55.393703 123.0175 
L 55.504108 122.654559 
L 55.525055 122.559049 
L 55.628641 122.21521 
L 55.695553 122.1197 
L 55.803414 121.775861 
L 55.806294 121.775861 
L 55.850499 121.68035 
L 55.959255 121.355614 
L 56.025313 121.260103 
L 56.12215 120.992673 
L 56.130293 120.992673 
L 56.165337 120.897163 
L 56.272495 120.438711 
L 56.287162 120.343201 
L 56.384345 119.961158 
L 56.397465 119.961158 
L 56.427888 119.865647 
L 56.531616 119.598217 
L 56.536522 119.598217 
L 56.548238 119.502706 
L 56.656413 119.120664 
L 56.656698 119.120664 
L 56.670979 119.025153 
L 56.781129 118.662212 
L 56.820794 118.566702 
L 56.929968 118.261067 
L 56.967394 118.165557 
L 57.06358 117.859923 
L 57.068506 117.859923 
L 57.110482 117.764412 
L 57.202494 117.47788 
L 57.215522 117.47788 
L 57.245131 117.382369 
L 57.35574 116.981224 
L 57.390275 116.885713 
L 57.500721 116.580079 
L 57.532325 116.484569 
L 57.636999 116.026117 
L 57.642882 116.026117 
L 57.686161 115.930606 
L 57.791131 115.548564 
L 57.854573 115.453053 
L 57.958148 114.994602 
L 57.964642 114.994602 
L 58.032582 114.899091 
L 58.143618 114.650763 
L 58.185889 114.555252 
L 58.281332 114.211414 
L 58.288559 114.211414 
L 58.34112 114.115903 
L 58.451016 113.733861 
L 58.476492 113.63835 
L 58.587467 113.084388 
L 58.62525 112.988877 
L 58.735339 112.625936 
L 58.774923 112.530426 
L 58.878152 112.148383 
L 58.917471 112.052872 
L 58.988252 111.804544 
L 59.028069 111.804544 
L 59.087267 111.709034 
L 59.190089 111.422502 
L 59.196298 111.422502 
L 59.285379 111.326991 
L 59.39325 111.097765 
L 59.464519 111.002255 
L 59.566883 110.773029 
L 59.569529 110.773029 
L 59.61464 110.677518 
L 59.720098 110.390986 
L 59.746277 110.295475 
L 59.855175 109.760616 
L 59.857069 109.760616 
L 59.89309 109.665105 
L 59.997602 109.321266 
L 60.003668 109.321266 
L 60.025898 109.225756 
L 60.125646 108.977428 
L 60.135224 108.977428 
L 60.189474 108.881917 
L 60.296592 108.480772 
L 60.375098 108.385262 
L 60.464311 108.117832 
L 60.485462 108.117832 
L 60.52241 108.022321 
L 60.630626 107.869504 
L 60.633385 107.869504 
L 60.669375 107.773993 
L 60.749092 107.582972 
L 60.779577 107.582972 
L 60.832728 107.487461 
L 60.934868 107.143623 
L 60.991063 107.048112 
L 61.084195 106.685171 
L 61.101601 106.685171 
L 61.167658 106.589661 
L 61.275508 106.245822 
L 61.275783 106.245822 
L 61.286196 106.150311 
L 61.361078 105.997494 
L 61.388336 105.997494 
L 61.418393 105.901984 
L 61.527546 105.634554 
L 61.573155 105.539043 
L 61.683774 105.405328 
L 61.752997 105.309817 
L 61.863443 105.004183 
L 61.901775 104.908672 
L 61.981878 104.641242 
L 62.001543 104.641242 
L 62.082471 104.545732 
L 62.180103 104.2592 
L 62.19306 104.2592 
L 62.26837 104.163689 
L 62.36371 103.934463 
L 62.373757 103.934463 
L 62.438746 103.838953 
L 62.547654 103.609727 
L 62.597722 103.514216 
L 62.696869 103.304093 
L 62.708442 103.304093 
L 62.750062 103.208582 
L 62.820669 103.036663 
L 62.852273 103.036663 
L 62.905394 102.941152 
L 63.01586 102.750131 
L 63.063994 102.65462 
L 63.17449 102.463599 
L 63.268213 102.368088 
L 63.37929 102.138862 
L 63.418426 102.043351 
L 63.516871 101.871432 
L 63.525604 101.871432 
L 63.615489 101.775922 
L 63.720937 101.470287 
L 63.747249 101.374777 
L 63.852463 101.164653 
L 63.858173 101.164653 
L 63.900026 101.069142 
L 64.009739 100.839917 
L 64.086606 100.744406 
L 64.177703 100.496078 
L 64.193907 100.496078 
L 64.219108 100.400567 
L 64.3276 100.190444 
L 64.32816 100.190444 
L 64.39834 100.094933 
L 64.507422 99.865708 
L 64.556542 99.770197 
L 64.649858 99.560073 
L 64.66479 99.560073 
L 64.705462 99.464563 
L 64.793933 99.235337 
L 64.811979 99.235337 
L 64.845741 99.139826 
L 64.952105 98.795988 
L 64.990732 98.700477 
L 65.074979 98.490354 
L 65.100231 98.490354 
L 65.180142 98.394843 
L 65.279839 98.127413 
L 65.28901 98.127413 
L 65.326649 98.031902 
L 65.432464 97.802677 
L 65.434184 97.802677 
L 65.47674 97.707166 
L 65.581659 97.458838 
L 65.584499 97.458838 
L 65.649426 97.363327 
L 65.75577 97.229612 
L 65.759282 97.229612 
L 65.880079 97.134102 
L 65.984784 96.923978 
L 66.090324 96.828468 
L 66.185135 96.656548 
L 66.199222 96.656548 
L 66.259774 96.561038 
L 66.365364 96.389118 
L 66.368112 96.389118 
L 66.417905 96.293608 
L 66.493093 96.178995 
L 66.515007 96.178995 
L 66.591966 96.083484 
L 66.691836 95.854258 
L 66.70233 95.854258 
L 66.77593 95.758748 
L 66.869713 95.663237 
L 66.883566 95.663237 
L 66.95054 95.567726 
L 67.029901 95.376705 
L 67.057708 95.376705 
L 67.081627 95.281194 
L 67.187839 95.109275 
L 67.189641 95.109275 
L 67.279455 95.013764 
L 67.38531 94.803641 
L 67.387702 94.803641 
L 67.421158 94.70813 
L 67.522403 94.402496 
L 67.531431 94.402496 
L 67.607667 94.306985 
L 67.717166 94.077759 
L 67.718601 94.077759 
L 67.783784 93.982249 
L 67.894127 93.81033 
L 67.936113 93.714819 
L 68.041846 93.390082 
L 68.045124 93.390082 
L 68.129431 93.294572 
L 68.236386 93.122653 
L 68.284285 93.027142 
L 68.388756 92.778814 
L 68.395036 92.778814 
L 68.45287 92.683303 
L 68.542165 92.47318 
L 68.563865 92.47318 
L 68.619246 92.377669 
L 68.721091 92.129341 
L 68.723157 92.129341 
L 68.8049 92.033831 
L 68.903233 91.900116 
L 68.914847 91.900116 
L 68.971866 91.804605 
L 69.080663 91.575379 
L 69.082057 91.575379 
L 69.208463 91.479869 
L 69.266978 91.40346 
L 69.310389 91.40346 
L 69.365322 91.307949 
L 69.472175 91.13603 
L 69.473579 91.13603 
L 69.614377 91.040519 
L 69.695132 90.964111 
L 69.724497 90.964111 
L 69.772325 90.8686 
L 69.878201 90.60117 
L 69.921174 90.50566 
L 70.018907 90.352842 
L 70.023406 90.352842 
L 70.135235 90.257332 
L 70.204092 90.123617 
L 70.24391 90.123617 
L 70.28954 90.028106 
L 70.359913 89.875289 
L 70.397899 89.875289 
L 70.475855 89.779778 
L 70.581252 89.455042 
L 70.582433 89.455042 
L 70.643229 89.359531 
L 70.749491 89.053897 
L 70.749817 89.053897 
L 70.850115 88.958386 
L 70.919562 88.843773 
L 70.938483 88.843773 
L 71.049977 88.748263 
L 71.160555 88.461731 
L 71.160678 88.461731 
L 71.203376 88.36622 
L 71.300315 88.289811 
L 71.31261 88.289811 
L 71.393478 88.194301 
L 71.48546 88.003279 
L 71.499475 88.003279 
L 71.551395 87.907769 
L 71.644701 87.774054 
L 71.661688 87.774054 
L 71.726148 87.678543 
L 71.832634 87.430215 
L 71.837255 87.430215 
L 71.924932 87.334704 
L 72.024975 87.220092 
L 72.035072 87.220092 
L 72.092295 87.124581 
L 72.199484 86.93356 
L 72.202914 86.93356 
L 72.253307 86.838049 
L 72.342053 86.704334 
L 72.361239 86.704334 
L 72.410665 86.608823 
L 72.514525 86.456006 
L 72.518383 86.456006 
L 72.597591 86.360495 
L 72.706286 86.13127 
L 72.809811 86.035759 
L 72.911737 85.825635 
L 73.014824 85.730125 
L 73.11958 85.59641 
L 73.123865 85.59641 
L 73.213699 85.500899 
L 73.323046 85.32898 
L 73.448321 85.233469 
L 73.556436 85.099754 
L 73.609486 85.004243 
L 73.713051 84.927835 
L 73.930889 84.832324 
L 73.959602 84.79412 
L 74.038474 84.79412 
L 74.109672 84.698609 
L 74.212637 84.545792 
L 74.215721 84.545792 
L 74.398301 84.450281 
L 74.509388 84.240158 
L 74.607375 84.144647 
L 74.718299 83.953626 
L 74.786057 83.858115 
L 74.894884 83.743502 
L 74.897164 83.743502 
L 75.052659 83.647992 
L 75.144315 83.552481 
L 75.160916 83.552481 
L 75.25243 83.45697 
L 75.346021 83.304153 
L 75.362031 83.304153 
L 75.492121 83.208642 
L 75.600826 83.055825 
L 75.812262 82.960315 
L 75.922341 82.8266 
L 76.019698 82.731089 
L 76.117715 82.578272 
L 76.125044 82.578272 
L 76.227795 82.482761 
L 76.319756 82.310842 
L 76.338434 82.310842 
L 76.398598 82.215331 
L 76.478997 81.967003 
L 76.502581 81.967003 
L 76.586562 81.871493 
L 76.630268 81.775982 
L 76.694932 81.775982 
L 76.74331 81.680471 
L 76.848666 81.565858 
L 76.979408 81.470348 
L 77.069781 81.393939 
L 77.085232 81.393939 
L 77.199607 81.298429 
L 77.295447 81.22202 
L 77.304505 81.22202 
L 77.487207 81.126509 
L 77.587729 81.030999 
L 77.596533 81.030999 
L 77.714084 80.935488 
L 77.821924 80.782671 
L 78.018275 80.68716 
L 78.125789 80.457934 
L 78.260521 80.362424 
L 78.32155 80.266913 
L 78.369165 80.266913 
L 78.422041 80.171402 
L 78.508598 80.056789 
L 78.531072 80.056789 
L 78.646292 79.961279 
L 78.74663 79.751155 
L 78.753073 79.751155 
L 78.847936 79.655645 
L 78.946646 79.52193 
L 78.955928 79.52193 
L 79.046526 79.426419 
L 79.120075 79.311806 
L 79.138783 79.311806 
L 79.227976 79.216295 
L 79.288487 79.120785 
L 79.330605 79.120785 
L 79.470649 79.025274 
L 79.571578 78.872457 
L 79.577258 78.872457 
L 79.74625 78.776946 
L 79.854476 78.662333 
L 79.956393 78.566823 
L 80.023631 78.490414 
L 80.067184 78.490414 
L 80.166699 78.394903 
L 80.264808 78.280291 
L 80.27636 78.280291 
L 80.343945 78.18478 
L 80.450014 78.108371 
L 80.454747 78.108371 
L 80.580979 78.012861 
L 80.690102 77.898248 
L 80.809983 77.802737 
L 80.889384 77.688124 
L 80.918657 77.688124 
L 81.082204 77.592614 
L 81.170705 77.478001 
L 81.187805 77.478001 
L 81.22634 77.38249 
L 81.318475 77.134162 
L 81.32904 77.134162 
L 81.391199 77.038652 
L 81.485919 76.904937 
L 81.499905 76.904937 
L 81.545422 76.809426 
L 81.653201 76.675711 
L 81.785988 76.5802 
L 81.892709 76.427383 
L 81.975072 76.331872 
L 82.056001 76.198157 
L 82.083869 76.198157 
L 82.164787 76.102647 
L 82.266164 75.968932 
L 82.272241 75.968932 
L 82.357576 75.873421 
L 82.463075 75.758808 
L 82.463106 75.758808 
L 82.562355 75.663298 
L 82.637563 75.491378 
L 82.658439 75.491378 
L 82.775155 75.395868 
L 82.83306 75.319459 
L 82.873122 75.319459 
L 83.042327 75.223948 
L 83.124396 75.090233 
L 83.144528 75.090233 
L 83.244277 74.994723 
L 83.342803 74.765497 
L 83.346732 74.765497 
L 83.459265 74.669986 
L 83.556153 74.61268 
L 83.570372 74.61268 
L 83.694192 74.517169 
L 83.782459 74.383454 
L 83.801554 74.383454 
L 83.953527 74.287944 
L 84.057795 74.154229 
L 84.059861 74.154229 
L 84.197544 74.058718 
L 84.234624 74.020514 
L 84.292366 74.020514 
L 84.40613 73.925003 
L 84.513338 73.772186 
L 84.626624 73.676675 
L 84.715542 73.523858 
L 84.82212 73.428347 
L 84.906072 73.313734 
L 84.932444 73.313734 
L 85.150312 73.218224 
L 85.255781 73.084509 
L 85.26087 73.084509 
L 85.402125 72.988998 
L 85.508174 72.874385 
L 85.678001 72.778875 
L 85.787683 72.664262 
L 86.043914 72.568751 
L 86.125768 72.435036 
L 86.149677 72.435036 
L 86.322547 72.339525 
L 86.409613 72.224912 
L 86.430947 72.224912 
L 86.531224 72.129402 
L 86.630433 72.014789 
L 86.888119 71.919278 
L 86.997578 71.766461 
L 87.128166 71.67095 
L 87.210428 71.537235 
L 87.237045 71.537235 
L 87.356783 71.441725 
L 87.460114 71.403521 
L 87.467056 71.403521 
L 87.592688 71.30801 
L 87.686838 71.193397 
L 87.702299 71.193397 
L 87.762606 71.097886 
L 87.859789 70.925967 
L 87.868939 70.925967 
L 87.961379 70.830456 
L 88.028944 70.77315 
L 88.052384 70.77315 
L 88.250476 70.677639 
L 88.308676 70.620333 
L 88.358123 70.620333 
L 88.530748 70.524822 
L 88.639698 70.467516 
L 88.84353 70.372005 
L 88.919125 70.295596 
L 88.947798 70.295596 
L 89.134296 70.200086 
L 89.220578 70.142779 
L 89.244945 70.142779 
L 89.36161 70.047269 
L 89.467374 69.913554 
L 89.599062 69.818043 
L 89.657445 69.741634 
L 89.709782 69.741634 
L 89.80721 69.646124 
L 89.907416 69.550613 
L 90.003927 69.455102 
L 90.072275 69.397796 
L 90.106271 69.397796 
L 90.236198 69.302285 
L 90.327183 69.264081 
L 90.346206 69.264081 
L 90.397902 69.16857 
L 90.497712 68.996651 
L 90.505987 68.996651 
L 90.592055 68.90114 
L 90.639812 68.843834 
L 90.697646 68.843834 
L 90.818921 68.748323 
L 90.847309 68.671915 
L 90.928512 68.671915 
L 91.02254 68.576404 
L 91.120497 68.519098 
L 91.122817 68.519098 
L 91.32893 68.423587 
L 91.425624 68.347178 
L 91.43391 68.347178 
L 91.581649 68.251668 
L 91.692369 68.175259 
L 91.69241 68.175259 
L 91.828882 68.079748 
L 91.936244 68.022442 
L 92.06273 67.926931 
L 92.137521 67.850523 
L 92.17341 67.850523 
L 92.424755 67.755012 
L 92.523689 67.716808 
L 92.697617 67.621297 
L 92.779523 67.544888 
L 92.79987 67.544888 
L 92.921583 67.449378 
L 93.023702 67.334765 
L 93.330347 67.239254 
L 93.435123 67.124641 
L 93.52282 67.029131 
L 93.611494 66.93362 
L 93.795896 66.838109 
L 93.885252 66.761701 
L 93.886993 66.761701 
L 94.158053 66.66619 
L 94.256366 66.551577 
L 94.380929 66.456067 
L 94.466194 66.39876 
L 94.636814 66.303249 
L 94.733529 66.150432 
L 94.966289 66.054922 
L 95.06737 65.940309 
L 95.069416 65.940309 
L 95.166223 65.844798 
L 95.255996 65.711083 
L 95.257055 65.711083 
L 95.420672 65.615572 
L 95.483646 65.520062 
L 95.530629 65.520062 
L 95.692282 65.424551 
L 95.786433 65.386347 
L 95.787155 65.386347 
L 96.11039 65.290836 
L 96.214332 65.176223 
L 96.219238 65.176223 
L 96.344015 65.080713 
L 96.448669 65.023406 
L 96.546086 64.927895 
L 96.650863 64.813283 
L 97.101735 64.717772 
L 97.211102 64.584057 
L 97.212506 64.584057 
L 97.366393 64.488546 
L 97.36964 64.43124 
L 97.471943 64.43124 
L 97.653179 64.335729 
L 97.762668 64.16381 
L 97.861358 64.068299 
L 97.972048 63.953686 
L 98.233643 63.858176 
L 98.336139 63.686256 
L 98.343691 63.686256 
L 98.674876 63.590746 
L 98.785332 63.514337 
L 98.966039 63.418826 
L 99.00318 63.36152 
L 99.069818 63.36152 
L 99.199897 63.266009 
L 99.277233 63.208703 
L 99.557179 63.113192 
L 99.571958 63.074988 
L 99.667442 63.074988 
L 99.896252 62.979477 
L 99.973363 62.941273 
L 100.005028 62.941273 
L 100.164422 62.845762 
L 100.254887 62.769354 
L 100.554906 62.673843 
L 100.622999 62.616537 
L 100.663163 62.616537 
L 100.841386 62.521026 
L 100.941114 62.444617 
L 100.941511 62.444617 
L 101.28376 62.349107 
L 101.367823 62.253596 
L 101.444273 62.158085 
L 101.53714 62.119881 
L 101.549731 62.119881 
L 101.952358 62.02437 
L 102.044492 61.92886 
L 102.04552 61.92886 
L 102.189412 61.833349 
L 102.24689 61.75694 
L 102.278249 61.75694 
L 102.467567 61.66143 
L 102.564964 61.585021 
L 102.571295 61.585021 
L 102.815576 61.48951 
L 102.908943 61.374898 
L 102.926317 61.374898 
L 103.095431 61.279387 
L 103.190742 61.241183 
L 103.201633 61.241183 
L 103.326542 61.145672 
L 103.431573 61.050161 
L 103.587343 60.95465 
L 103.641654 60.820936 
L 103.688689 60.820936 
L 103.938538 60.725425 
L 104.021339 60.59171 
L 104.325774 60.496199 
L 104.408352 60.419791 
L 104.413359 60.419791 
L 104.78255 60.32428 
L 104.888711 60.228769 
L 105.221147 60.133259 
L 105.318055 60.095054 
L 105.329465 60.095054 
L 105.636283 59.999544 
L 105.723349 59.884931 
L 105.738148 59.884931 
L 105.895893 59.78942 
L 105.943904 59.751216 
L 106.003834 59.751216 
L 106.30883 59.655705 
L 106.336607 59.617501 
L 106.377086 59.617501 
L 106.551656 59.52199 
L 106.592797 59.483786 
L 106.645918 59.483786 
L 106.992095 59.388275 
L 107.033419 59.292764 
L 107.09738 59.292764 
L 107.332938 59.197254 
L 107.413623 59.139947 
L 107.417368 59.139947 
L 107.591062 59.044437 
L 107.698139 58.910722 
L 107.821725 58.815211 
L 107.916781 58.7197 
L 107.921504 58.7197 
L 108.391735 58.62419 
L 108.490913 58.547781 
L 108.491137 58.547781 
L 108.620698 58.45227 
L 108.620698 58.433168 
L 108.726451 58.433168 
L 109.01737 58.337657 
L 109.084293 58.261249 
L 109.123551 58.261249 
L 109.574281 58.165738 
L 109.619025 58.070228 
L 109.676238 58.070228 
L 109.821839 57.974717 
L 109.893444 57.91741 
L 109.897373 57.91741 
L 110.272854 57.8219 
L 110.326331 57.745491 
L 110.377956 57.745491 
L 110.616405 57.64998 
L 110.7228 57.478061 
L 110.724774 57.478061 
L 110.966542 57.382551 
L 111.053302 57.325244 
L 111.277074 57.229733 
L 111.362776 57.134223 
L 111.371377 57.134223 
L 111.611119 57.038712 
L 111.673471 56.924099 
L 111.704159 56.924099 
L 112.011791 56.828588 
L 112.055527 56.771282 
L 112.121972 56.771282 
L 112.476597 56.675771 
L 112.476597 56.656669 
L 112.560111 56.656669 
L 112.910207 56.561159 
L 112.972315 56.503852 
L 113.007593 56.503852 
L 113.368244 56.408341 
L 113.469753 56.312831 
L 113.615935 56.21732 
L 113.699999 56.140911 
L 113.725302 56.140911 
L 114.131929 56.045401 
L 114.241611 55.988094 
L 114.294824 55.892584 
L 114.388841 55.777971 
L 114.403631 55.777971 
L 114.806654 55.68246 
L 114.913079 55.625154 
L 115.167844 55.529643 
L 115.251562 55.472337 
L 115.515976 55.376826 
L 115.607826 55.281315 
L 115.619297 55.281315 
L 115.957514 55.185805 
L 116.039654 55.1476 
L 116.306053 55.05209 
L 116.405373 54.937477 
L 116.411939 54.937477 
L 116.752019 54.841966 
L 116.752019 54.822864 
L 116.820988 54.822864 
L 117.004555 54.727353 
L 117.101361 54.650945 
L 117.380606 54.555434 
L 117.483763 54.479025 
L 117.768433 54.383515 
L 117.831467 54.34531 
L 118.290207 54.2498 
L 118.337089 54.192493 
L 118.397203 54.192493 
L 118.809672 54.096983 
L 118.862986 54.039676 
L 118.863495 54.039676 
L 119.30942 53.944165 
L 119.30942 53.925063 
L 119.402329 53.925063 
L 119.835846 53.829553 
L 119.923401 53.753144 
L 119.943076 53.753144 
L 120.235114 53.657633 
L 120.343412 53.581225 
L 120.64115 53.485714 
L 120.751504 53.390203 
L 120.911173 53.294693 
L 120.94351 53.256488 
L 120.981648 53.256488 
L 121.053619 53.160978 
L 121.156085 53.046365 
L 121.164218 53.046365 
L 121.424764 52.950854 
L 121.516583 52.874446 
L 122.088802 52.778935 
L 122.128406 52.740731 
L 122.191003 52.740731 
L 122.43219 52.64522 
L 122.475489 52.607016 
L 122.726244 52.511505 
L 122.833504 52.396892 
L 122.943817 52.301382 
L 123.052512 52.224973 
L 123.27089 52.129462 
L 123.355889 52.072156 
L 123.374719 52.072156 
L 123.717578 51.976645 
L 123.717578 51.957543 
L 123.822792 51.957543 
L 124.386767 51.862032 
L 124.409281 51.823828 
L 124.475502 51.823828 
L 124.658245 51.728317 
L 124.658245 51.709215 
L 124.706073 51.709215 
L 125.064851 51.613705 
L 125.106776 51.5755 
L 125.125331 51.5755 
L 125.53836 51.47999 
L 125.640561 51.384479 
L 125.641599 51.384479 
L 125.961262 51.288968 
L 126.069 51.193457 
L 126.416989 51.097947 
L 126.508961 51.04064 
L 126.819096 50.94513 
L 126.906376 50.849619 
L 127.578516 50.754108 
L 127.60783 50.715904 
L 127.680279 50.715904 
L 127.974821 50.620393 
L 128.060951 50.543985 
L 128.066763 50.543985 
L 128.476127 50.448474 
L 128.543264 50.333861 
L 128.577677 50.333861 
L 128.93387 50.238351 
L 128.93387 50.219248 
L 129.029832 50.219248 
L 129.30873 50.123738 
L 129.364049 50.085533 
L 129.41256 50.085533 
L 129.598743 49.990023 
L 129.660861 49.932716 
L 129.701351 49.932716 
L 129.869681 49.837206 
L 129.886272 49.799001 
L 129.970498 49.799001 
L 130.409421 49.703491 
L 130.518849 49.588878 
L 130.852374 49.493367 
L 130.852374 49.474265 
L 130.861636 49.474265 
L 131.64351 49.378754 
L 131.644069 49.34055 
L 131.676671 49.34055 
L 132.150424 49.245039 
L 132.150424 49.225937 
L 132.261144 49.225937 
L 132.638467 49.130426 
L 132.681064 49.07312 
L 132.74705 49.07312 
L 132.993663 48.977609 
L 133.079761 48.920303 
L 133.09453 48.920303 
L 133.640519 48.824792 
L 133.705895 48.786588 
L 133.744492 48.786588 
L 134.256923 48.691077 
L 134.341403 48.614669 
L 134.739103 48.519158 
L 134.769842 48.480954 
L 134.834455 48.480954 
L 135.245641 48.385443 
L 135.293266 48.347239 
L 135.800618 48.251728 
L 135.800618 48.232626 
L 135.833982 48.232626 
L 136.11398 48.137115 
L 136.22011 48.060707 
L 136.518652 47.965196 
L 136.618899 47.926992 
L 136.842488 47.831481 
L 136.894357 47.774175 
L 137.173061 47.678664 
L 137.265959 47.621357 
L 137.271283 47.621357 
L 137.754451 47.525847 
L 137.83997 47.46854 
L 137.86225 47.46854 
L 138.275788 47.37303 
L 138.292623 47.334825 
L 138.382223 47.334825 
L 138.920222 47.239315 
L 138.946025 47.182008 
L 139.017355 47.182008 
L 139.284222 47.086498 
L 139.372937 47.029191 
L 139.977869 46.93368 
L 140.054726 46.819068 
L 140.680778 46.723557 
L 140.789697 46.628046 
L 141.132841 46.532536 
L 141.132841 46.513433 
L 141.233648 46.513433 
L 141.476077 46.417923 
L 141.578665 46.379718 
L 142.065385 46.284208 
L 142.173551 46.188697 
L 142.874689 46.093186 
L 142.874689 46.074084 
L 142.978926 46.074084 
L 143.102339 45.978574 
L 143.206077 45.883063 
L 143.613172 45.787552 
L 143.675423 45.730246 
L 144.536687 45.634735 
L 144.536687 45.615633 
L 144.61099 45.615633 
L 144.873511 45.520122 
L 144.932627 45.424612 
L 145.290397 45.329101 
L 145.342704 45.290897 
L 145.375753 45.290897 
L 145.992462 45.195386 
L 146.024727 45.157182 
L 146.049715 45.157182 
L 146.419333 45.061671 
L 146.450967 45.023467 
L 146.850968 44.927956 
L 146.934421 44.889752 
L 146.94751 44.889752 
L 147.221258 44.794241 
L 147.228759 44.756037 
L 147.296242 44.756037 
L 148.169975 44.660526 
L 148.274772 44.584117 
L 148.584612 44.488607 
L 148.622404 44.450402 
L 148.941466 44.354892 
L 148.941466 44.33579 
L 148.989142 44.33579 
L 149.685323 44.240279 
L 149.793153 44.182972 
L 150.187902 44.087462 
L 150.264239 44.011053 
L 150.2945 44.011053 
L 150.750654 43.915543 
L 150.841588 43.858236 
L 151.491499 43.762725 
L 151.491499 43.743623 
L 151.936508 43.648113 
L 151.976529 43.590806 
L 152.021681 43.590806 
L 152.770332 43.495295 
L 152.770332 43.476193 
L 152.83758 43.476193 
L 153.373462 43.380683 
L 153.459551 43.342478 
L 153.478747 43.342478 
L 154.302454 43.246968 
L 154.369723 43.189661 
L 154.402721 43.189661 
L 155.300211 43.094151 
L 155.397313 43.036844 
L 156.117545 42.941333 
L 156.117545 42.922231 
L 156.21993 42.922231 
L 156.842684 42.826721 
L 156.935084 42.788516 
L 157.36052 42.693006 
L 157.36052 42.673903 
L 157.456889 42.673903 
L 158.386502 42.578393 
L 158.478158 42.521086 
L 158.951626 42.425576 
L 159.030305 42.368269 
L 159.051903 42.368269 
L 159.397999 42.272759 
L 159.504404 42.215452 
L 160.321942 42.119941 
L 160.321942 42.100839 
L 160.394921 42.100839 
L 160.6704 42.005329 
L 160.777212 41.948022 
L 161.293276 41.852512 
L 161.293276 41.833409 
L 161.394856 41.833409 
L 161.828435 41.737899 
L 161.835062 41.699694 
L 161.892773 41.699694 
L 162.607632 41.604184 
L 162.686901 41.546877 
L 162.718118 41.546877 
L 163.405851 41.451367 
L 163.459817 41.413162 
L 163.498505 41.413162 
L 164.284592 41.317652 
L 164.284592 41.298549 
L 164.386264 41.298549 
L 164.792189 41.203039 
L 164.811039 41.164835 
L 164.871163 41.164835 
L 165.178357 41.069324 
L 165.178357 41.050222 
L 165.218724 41.050222 
L 165.942784 40.954711 
L 165.942784 40.935609 
L 166.032038 40.935609 
L 166.252411 40.840098 
L 166.252411 40.820996 
L 166.354398 40.820996 
L 167.218828 40.725485 
L 167.218828 40.706383 
L 167.319717 40.706383 
L 167.929962 40.610872 
L 167.944161 40.572668 
L 168.010778 40.572668 
L 168.37376 40.477158 
L 168.472592 40.438953 
L 168.854495 40.343443 
L 168.927261 40.305238 
L 168.954345 40.305238 
L 169.463936 40.209728 
L 169.463936 40.190625 
L 169.543165 40.190625 
L 170.509542 40.095115 
L 170.584516 40.05691 
L 170.878305 39.9614 
L 170.878305 39.942298 
L 170.976679 39.942298 
L 171.834554 39.846787 
L 171.935738 39.770378 
L 172.397093 39.674868 
L 172.402366 39.636663 
L 172.498267 39.636663 
L 173.015288 39.541153 
L 173.015288 39.522051 
L 173.088827 39.522051 
L 173.958804 39.42654 
L 173.958804 39.407438 
L 174.068151 39.407438 
L 174.927705 39.311927 
L 174.999147 39.273723 
L 175.619225 39.178212 
L 175.72051 39.140008 
L 175.72337 39.140008 
L 176.413302 39.044497 
L 176.447614 39.006293 
L 177.18001 38.910782 
L 177.281559 38.853476 
L 177.73976 38.757965 
L 177.771354 38.719761 
L 178.806872 38.62425 
L 178.827748 38.586046 
L 178.863128 38.586046 
L 179.613642 38.490535 
L 179.613642 38.471433 
L 179.670071 38.471433 
L 180.319228 38.375922 
L 180.319228 38.35682 
L 180.380634 38.35682 
L 180.773683 38.261309 
L 180.806111 38.223105 
L 181.117142 38.127594 
L 181.181999 38.08939 
L 181.661483 37.993879 
L 181.661483 37.974777 
L 182.33916 37.879267 
L 182.370723 37.841062 
L 183.45696 37.745552 
L 183.45696 37.726449 
L 184.360852 37.630939 
L 184.397749 37.592735 
L 185.95888 37.497224 
L 186.048256 37.401713 
L 186.064267 37.401713 
L 186.397599 37.306202 
L 186.484145 37.248896 
L 187.163125 37.153385 
L 187.163125 37.134283 
L 188.352246 37.038772 
L 188.41982 37.000568 
L 188.962359 36.905058 
L 189.044834 36.828649 
L 189.766706 36.733138 
L 189.844917 36.65673 
L 190.555643 36.561219 
L 190.65477 36.503913 
L 191.204444 36.408402 
L 191.204444 36.3893 
L 192.729564 36.293789 
L 192.729564 36.274687 
L 193.859039 36.179176 
L 193.935234 36.140972 
L 194.760671 36.045461 
L 194.858597 36.007257 
L 196.255683 35.911746 
L 196.273424 35.85444 
L 197.232584 35.758929 
L 197.330846 35.720725 
L 198.129921 35.625214 
L 198.129921 35.606112 
L 198.177536 35.606112 
L 198.715881 35.510601 
L 198.715881 35.491499 
L 199.405263 35.395989 
L 199.405263 35.376886 
L 200.449189 35.281376 
L 200.449189 35.262274 
L 201.736032 35.166763 
L 201.833816 35.090354 
L 203.095427 34.994844 
L 203.192132 34.956639 
L 203.889505 34.861129 
L 203.927877 34.822924 
L 204.50149 34.727414 
L 204.50149 34.708312 
L 205.711955 34.612801 
L 205.711955 34.593699 
L 206.641435 34.498188 
L 206.641435 34.479086 
L 208.42133 34.383575 
L 208.510391 34.326269 
L 209.456584 34.230758 
L 209.544078 34.192554 
L 210.267191 34.097043 
L 210.312953 34.058839 
L 210.323986 34.058839 
L 211.665732 33.963328 
L 211.76488 33.906022 
L 212.697607 33.810511 
L 212.719643 33.772307 
L 213.32313 33.676796 
L 213.422308 33.638592 
L 214.404085 33.543081 
L 214.404085 33.523979 
L 215.627008 33.428468 
L 215.730492 33.390264 
L 216.225029 33.294753 
L 216.320238 33.237447 
L 216.984724 33.141936 
L 217.094324 33.08463 
L 217.962643 32.989119 
L 218.026695 32.950915 
L 218.644971 32.855404 
L 218.65173 32.8172 
L 218.712322 32.8172 
L 219.653548 32.721689 
L 219.761021 32.664383 
L 220.502089 32.568872 
L 220.502089 32.54977 
L 221.901384 32.454259 
L 221.901384 32.435157 
L 222.859496 32.339646 
L 222.873399 32.301442 
L 224.106684 32.205931 
L 224.106684 32.186829 
L 224.887987 32.091318 
L 224.887987 32.072216 
L 226.843551 31.976706 
L 226.921273 31.900297 
L 227.680856 31.804786 
L 227.76497 31.766582 
L 228.811644 31.671071 
L 228.811644 31.651969 
L 229.778143 31.556459 
L 229.778143 31.537356 
L 231.073913 31.441846 
L 231.137243 31.403641 
L 232.504862 31.308131 
L 232.614076 31.269927 
L 233.248047 31.174416 
L 233.248047 31.155314 
L 233.325505 31.155314 
L 234.377777 31.059803 
L 234.377777 31.040701 
L 234.469118 31.040701 
L 235.95843 30.94519 
L 236.016386 30.887884 
L 237.089401 30.792373 
L 237.089401 30.773271 
L 238.200464 30.67776 
L 238.200464 30.658658 
L 239.684829 30.563147 
L 239.764913 30.524943 
L 241.175861 30.429432 
L 241.175861 30.41033 
L 242.870329 30.31482 
L 242.885515 30.276615 
L 243.936678 30.181105 
L 243.945676 30.1429 
L 245.609333 30.04739 
L 245.609333 30.028287 
L 247.375121 29.932777 
L 247.375121 29.913675 
L 248.357396 29.818164 
L 248.357396 29.799062 
L 249.381434 29.703551 
L 249.381434 29.684449 
L 250.53948 29.588938 
L 250.646393 29.550734 
L 252.216298 29.455223 
L 252.216298 29.436121 
L 253.03746 29.34061 
L 253.03746 29.321508 
L 253.510256 29.225998 
L 253.510256 29.206896 
L 254.217013 29.111385 
L 254.326084 29.073181 
L 256.14142 28.97767 
L 256.14142 28.958568 
L 256.858681 28.863057 
L 256.858681 28.843955 
L 258.190808 28.748444 
L 258.190808 28.729342 
L 259.148401 28.633831 
L 259.148401 28.614729 
L 260.017839 28.519219 
L 260.017839 28.500116 
L 260.119338 28.500116 
L 261.358974 28.404606 
L 261.358974 28.385504 
L 262.629298 28.289993 
L 262.722817 28.251789 
L 264.882996 28.156278 
L 264.882996 28.137176 
L 264.952576 28.137176 
L 267.227049 28.041665 
L 267.303814 28.003461 
L 268.784179 27.90795 
L 268.784179 27.888848 
L 269.565493 27.793337 
L 269.581656 27.755133 
L 271.230585 27.659622 
L 271.286841 27.621418 
L 273.825911 27.525907 
L 273.825911 27.506805 
L 274.988355 27.411294 
L 274.988355 27.392192 
L 277.817977 27.296682 
L 277.854405 27.258477 
L 279.43574 27.162967 
L 279.43574 27.143864 
L 280.235192 27.048354 
L 280.235192 27.029252 
L 281.316085 26.933741 
L 281.316085 26.914639 
L 282.023758 26.895537 
L 282.023758 26.895537 
" clip-path="url(#pa868684382)" style="fill: none; stroke: #1f77b4; stroke-width: 1.5; stroke-linecap: round"/>
   </g>
   <g id="line2d_26">
    <path d="M 42.831699 265.022801 
L 282.023758 26.895537 
" clip-path="url(#pa868684382)" style="fill: none; stroke-dasharray: 5.55,2.4; stroke-dashoffset: 0; stroke: #999999; stroke-width: 1.5"/>
   </g>
   <g id="patch_3">
    <path d="M 35.655938 265.022801 
L 35.655938 19.751719 
" style="fill: none"/>
   </g>
   <g id="patch_4">
    <path d="M 289.19952 265.022801 
L 289.19952 19.751719 
" style="fill: none"/>
   </g>
   <g id="patch_5">
    <path d="M 35.655938 265.022801 
L 289.19952 265.022801 
" style="fill: none"/>
   </g>
   <g id="patch_6">
    <path d="M 35.655938 19.751719 
L 289.19952 19.751719 
" style="fill: none"/>
   </g>
   <g id="text_15">
    <!-- Model 0: Receiver Operating Characteristic (ROC) Curve -->
    <g style="fill: #333333" transform="translate(42.14976 13.751719) scale(0.09 -0.09)">
     <defs>
      <path id="Arial-BoldMT-4d" d="M 453 0 
L 453 4581 
L 1838 4581 
L 2669 1456 
L 3491 4581 
L 4878 4581 
L 4878 0 
L 4019 0 
L 4019 3606 
L 3109 0 
L 2219 0 
L 1313 3606 
L 1313 0 
L 453 0 
z
" transform="scale(0.015625)"/>
      <path id="Arial-BoldMT-64" d="M 3503 0 
L 2688 0 
L 2688 488 
Q 2484 203 2207 64 
Q 1931 -75 1650 -75 
Q 1078 -75 670 386 
Q 263 847 263 1672 
Q 263 2516 659 2955 
Q 1056 3394 1663 3394 
Q 2219 3394 2625 2931 
L 2625 4581 
L 3503 4581 
L 3503 0 
z
M 1159 1731 
Q 1159 1200 1306 963 
Q 1519 619 1900 619 
Q 2203 619 2415 876 
Q 2628 1134 2628 1647 
Q 2628 2219 2422 2470 
Q 2216 2722 1894 2722 
Q 1581 2722 1370 2473 
Q 1159 2225 1159 1731 
z
" transform="scale(0.015625)"/>
      <path id="Arial-BoldMT-30" d="M 1756 4600 
Q 2422 4600 2797 4125 
Q 3244 3563 3244 2259 
Q 3244 959 2794 391 
Q 2422 -78 1756 -78 
Q 1088 -78 678 436 
Q 269 950 269 2269 
Q 269 3563 719 4131 
Q 1091 4600 1756 4600 
z
M 1756 3872 
Q 1597 3872 1472 3770 
Q 1347 3669 1278 3406 
Q 1188 3066 1188 2259 
Q 1188 1453 1269 1151 
Q 1350 850 1473 750 
Q 1597 650 1756 650 
Q 1916 650 2041 751 
Q 2166 853 2234 1116 
Q 2325 1453 2325 2259 
Q 2325 3066 2244 3367 
Q 2163 3669 2039 3770 
Q 1916 3872 1756 3872 
z
" transform="scale(0.015625)"/>
      <path id="Arial-BoldMT-3a" d="M 628 2441 
L 628 3319 
L 1506 3319 
L 1506 2441 
L 628 2441 
z
M 628 0 
L 628 878 
L 1506 878 
L 1506 0 
L 628 0 
z
" transform="scale(0.015625)"/>
      <path id="Arial-BoldMT-63" d="M 3353 2338 
L 2488 2181 
Q 2444 2441 2289 2572 
Q 2134 2703 1888 2703 
Q 1559 2703 1364 2476 
Q 1169 2250 1169 1719 
Q 1169 1128 1367 884 
Q 1566 641 1900 641 
Q 2150 641 2309 783 
Q 2469 925 2534 1272 
L 3397 1125 
Q 3263 531 2881 228 
Q 2500 -75 1859 -75 
Q 1131 -75 698 384 
Q 266 844 266 1656 
Q 266 2478 700 2936 
Q 1134 3394 1875 3394 
Q 2481 3394 2839 3133 
Q 3197 2872 3353 2338 
z
" transform="scale(0.015625)"/>
      <path id="Arial-BoldMT-4f" d="M 278 2263 
Q 278 2963 488 3438 
Q 644 3788 914 4066 
Q 1184 4344 1506 4478 
Q 1934 4659 2494 4659 
Q 3506 4659 4114 4031 
Q 4722 3403 4722 2284 
Q 4722 1175 4119 548 
Q 3516 -78 2506 -78 
Q 1484 -78 881 545 
Q 278 1169 278 2263 
z
M 1231 2294 
Q 1231 1516 1590 1114 
Q 1950 713 2503 713 
Q 3056 713 3411 1111 
Q 3766 1509 3766 2306 
Q 3766 3094 3420 3481 
Q 3075 3869 2503 3869 
Q 1931 3869 1581 3476 
Q 1231 3084 1231 2294 
z
" transform="scale(0.015625)"/>
      <path id="Arial-BoldMT-70" d="M 434 3319 
L 1253 3319 
L 1253 2831 
Q 1413 3081 1684 3237 
Q 1956 3394 2288 3394 
Q 2866 3394 3269 2941 
Q 3672 2488 3672 1678 
Q 3672 847 3265 386 
Q 2859 -75 2281 -75 
Q 2006 -75 1782 34 
Q 1559 144 1313 409 
L 1313 -1263 
L 434 -1263 
L 434 3319 
z
M 1303 1716 
Q 1303 1156 1525 889 
Q 1747 622 2066 622 
Q 2372 622 2575 867 
Q 2778 1113 2778 1672 
Q 2778 2194 2568 2447 
Q 2359 2700 2050 2700 
Q 1728 2700 1515 2451 
Q 1303 2203 1303 1716 
z
" transform="scale(0.015625)"/>
      <path id="Arial-BoldMT-6e" d="M 3478 0 
L 2600 0 
L 2600 1694 
Q 2600 2231 2544 2389 
Q 2488 2547 2361 2634 
Q 2234 2722 2056 2722 
Q 1828 2722 1647 2597 
Q 1466 2472 1398 2265 
Q 1331 2059 1331 1503 
L 1331 0 
L 453 0 
L 453 3319 
L 1269 3319 
L 1269 2831 
Q 1703 3394 2363 3394 
Q 2653 3394 2893 3289 
Q 3134 3184 3257 3021 
Q 3381 2859 3429 2653 
Q 3478 2447 3478 2063 
L 3478 0 
z
" transform="scale(0.015625)"/>
      <path id="Arial-BoldMT-67" d="M 378 -219 
L 1381 -341 
Q 1406 -516 1497 -581 
Q 1622 -675 1891 -675 
Q 2234 -675 2406 -572 
Q 2522 -503 2581 -350 
Q 2622 -241 2622 53 
L 2622 538 
Q 2228 0 1628 0 
Q 959 0 569 566 
Q 263 1013 263 1678 
Q 263 2513 664 2953 
Q 1066 3394 1663 3394 
Q 2278 3394 2678 2853 
L 2678 3319 
L 3500 3319 
L 3500 341 
Q 3500 -247 3403 -537 
Q 3306 -828 3131 -993 
Q 2956 -1159 2664 -1253 
Q 2372 -1347 1925 -1347 
Q 1081 -1347 728 -1058 
Q 375 -769 375 -325 
Q 375 -281 378 -219 
z
M 1163 1728 
Q 1163 1200 1367 954 
Q 1572 709 1872 709 
Q 2194 709 2416 961 
Q 2638 1213 2638 1706 
Q 2638 2222 2425 2472 
Q 2213 2722 1888 2722 
Q 1572 2722 1367 2476 
Q 1163 2231 1163 1728 
z
" transform="scale(0.015625)"/>
      <path id="Arial-BoldMT-43" d="M 3397 1684 
L 4294 1400 
Q 4088 650 3608 286 
Q 3128 -78 2391 -78 
Q 1478 -78 890 545 
Q 303 1169 303 2250 
Q 303 3394 893 4026 
Q 1484 4659 2447 4659 
Q 3288 4659 3813 4163 
Q 4125 3869 4281 3319 
L 3366 3100 
Q 3284 3456 3026 3662 
Q 2769 3869 2400 3869 
Q 1891 3869 1573 3503 
Q 1256 3138 1256 2319 
Q 1256 1450 1568 1081 
Q 1881 713 2381 713 
Q 2750 713 3015 947 
Q 3281 1181 3397 1684 
z
" transform="scale(0.015625)"/>
      <path id="Arial-BoldMT-68" d="M 1334 4581 
L 1334 2897 
Q 1759 3394 2350 3394 
Q 2653 3394 2897 3281 
Q 3141 3169 3264 2994 
Q 3388 2819 3433 2606 
Q 3478 2394 3478 1947 
L 3478 0 
L 2600 0 
L 2600 1753 
Q 2600 2275 2550 2415 
Q 2500 2556 2373 2639 
Q 2247 2722 2056 2722 
Q 1838 2722 1666 2615 
Q 1494 2509 1414 2295 
Q 1334 2081 1334 1663 
L 1334 0 
L 456 0 
L 456 4581 
L 1334 4581 
z
" transform="scale(0.015625)"/>
     </defs>
     <use xlink:href="#Arial-BoldMT-4d"/>
     <use xlink:href="#Arial-BoldMT-6f" transform="translate(83.300781 0)"/>
     <use xlink:href="#Arial-BoldMT-64" transform="translate(144.384766 0)"/>
     <use xlink:href="#Arial-BoldMT-65" transform="translate(205.46875 0)"/>
     <use xlink:href="#Arial-BoldMT-6c" transform="translate(261.083984 0)"/>
     <use xlink:href="#Arial-BoldMT-20" transform="translate(288.867188 0)"/>
     <use xlink:href="#Arial-BoldMT-30" transform="translate(316.650391 0)"/>
     <use xlink:href="#Arial-BoldMT-3a" transform="translate(372.265625 0)"/>
     <use xlink:href="#Arial-BoldMT-20" transform="translate(405.566406 0)"/>
     <use xlink:href="#Arial-BoldMT-52" transform="translate(433.349609 0)"/>
     <use xlink:href="#Arial-BoldMT-65" transform="translate(505.566406 0)"/>
     <use xlink:href="#Arial-BoldMT-63" transform="translate(561.181641 0)"/>
     <use xlink:href="#Arial-BoldMT-65" transform="translate(616.796875 0)"/>
     <use xlink:href="#Arial-BoldMT-69" transform="translate(672.412109 0)"/>
     <use xlink:href="#Arial-BoldMT-76" transform="translate(700.195312 0)"/>
     <use xlink:href="#Arial-BoldMT-65" transform="translate(755.810547 0)"/>
     <use xlink:href="#Arial-BoldMT-72" transform="translate(811.425781 0)"/>
     <use xlink:href="#Arial-BoldMT-20" transform="translate(850.341797 0)"/>
     <use xlink:href="#Arial-BoldMT-4f" transform="translate(878.125 0)"/>
     <use xlink:href="#Arial-BoldMT-70" transform="translate(955.908203 0)"/>
     <use xlink:href="#Arial-BoldMT-65" transform="translate(1016.992188 0)"/>
     <use xlink:href="#Arial-BoldMT-72" transform="translate(1072.607422 0)"/>
     <use xlink:href="#Arial-BoldMT-61" transform="translate(1111.523438 0)"/>
     <use xlink:href="#Arial-BoldMT-74" transform="translate(1167.138672 0)"/>
     <use xlink:href="#Arial-BoldMT-69" transform="translate(1200.439453 0)"/>
     <use xlink:href="#Arial-BoldMT-6e" transform="translate(1228.222656 0)"/>
     <use xlink:href="#Arial-BoldMT-67" transform="translate(1289.306641 0)"/>
     <use xlink:href="#Arial-BoldMT-20" transform="translate(1350.390625 0)"/>
     <use xlink:href="#Arial-BoldMT-43" transform="translate(1378.173828 0)"/>
     <use xlink:href="#Arial-BoldMT-68" transform="translate(1450.390625 0)"/>
     <use xlink:href="#Arial-BoldMT-61" transform="translate(1511.474609 0)"/>
     <use xlink:href="#Arial-BoldMT-72" transform="translate(1567.089844 0)"/>
     <use xlink:href="#Arial-BoldMT-61" transform="translate(1606.005859 0)"/>
     <use xlink:href="#Arial-BoldMT-63" transform="translate(1661.621094 0)"/>
     <use xlink:href="#Arial-BoldMT-74" transform="translate(1717.236328 0)"/>
     <use xlink:href="#Arial-BoldMT-65" transform="translate(1750.537109 0)"/>
     <use xlink:href="#Arial-BoldMT-72" transform="translate(1806.152344 0)"/>
     <use xlink:href="#Arial-BoldMT-69" transform="translate(1845.068359 0)"/>
     <use xlink:href="#Arial-BoldMT-73" transform="translate(1872.851562 0)"/>
     <use xlink:href="#Arial-BoldMT-74" transform="translate(1928.466797 0)"/>
     <use xlink:href="#Arial-BoldMT-69" transform="translate(1961.767578 0)"/>
     <use xlink:href="#Arial-BoldMT-63" transform="translate(1989.550781 0)"/>
     <use xlink:href="#Arial-BoldMT-20" transform="translate(2045.166016 0)"/>
     <use xlink:href="#Arial-BoldMT-28" transform="translate(2072.949219 0)"/>
     <use xlink:href="#Arial-BoldMT-52" transform="translate(2106.25 0)"/>
     <use xlink:href="#Arial-BoldMT-4f" transform="translate(2178.466797 0)"/>
     <use xlink:href="#Arial-BoldMT-43" transform="translate(2256.25 0)"/>
     <use xlink:href="#Arial-BoldMT-29" transform="translate(2328.466797 0)"/>
     <use xlink:href="#Arial-BoldMT-20" transform="translate(2361.767578 0)"/>
     <use xlink:href="#Arial-BoldMT-43" transform="translate(2389.550781 0)"/>
     <use xlink:href="#Arial-BoldMT-75" transform="translate(2461.767578 0)"/>
     <use xlink:href="#Arial-BoldMT-72" transform="translate(2522.851562 0)"/>
     <use xlink:href="#Arial-BoldMT-76" transform="translate(2561.767578 0)"/>
     <use xlink:href="#Arial-BoldMT-65" transform="translate(2617.382812 0)"/>
    </g>
   </g>
   <g id="legend_1">
    <g id="patch_7">
     <path d="M 182.577645 260.522801 
L 282.89952 260.522801 
Q 284.69952 260.522801 284.69952 258.722801 
L 284.69952 234.161239 
Q 284.69952 232.361239 282.89952 232.361239 
L 182.577645 232.361239 
Q 180.777645 232.361239 180.777645 234.161239 
L 180.777645 258.722801 
Q 180.777645 260.522801 182.577645 260.522801 
z
" style="fill: #ffffff; opacity: 0.8; stroke: #cccccc; stroke-width: 0.75; stroke-linejoin: miter"/>
    </g>
    <g id="line2d_27">
     <path d="M 184.377645 239.25327 
L 193.377645 239.25327 
L 202.377645 239.25327 
" style="fill: none; stroke: #1f77b4; stroke-width: 1.5; stroke-linecap: round"/>
    </g>
    <g id="text_16">
     <!-- ROC curve -->
     <g style="fill: #333333" transform="translate(209.577645 242.40327) scale(0.09 -0.09)">
      <defs>
       <path id="ArialMT-52" d="M 503 0 
L 503 4581 
L 2534 4581 
Q 3147 4581 3465 4457 
Q 3784 4334 3975 4021 
Q 4166 3709 4166 3331 
Q 4166 2844 3850 2509 
Q 3534 2175 2875 2084 
Q 3116 1969 3241 1856 
Q 3506 1613 3744 1247 
L 4541 0 
L 3778 0 
L 3172 953 
Q 2906 1366 2734 1584 
Q 2563 1803 2427 1890 
Q 2291 1978 2150 2013 
Q 2047 2034 1813 2034 
L 1109 2034 
L 1109 0 
L 503 0 
z
M 1109 2559 
L 2413 2559 
Q 2828 2559 3062 2645 
Q 3297 2731 3419 2920 
Q 3541 3109 3541 3331 
Q 3541 3656 3305 3865 
Q 3069 4075 2559 4075 
L 1109 4075 
L 1109 2559 
z
" transform="scale(0.015625)"/>
       <path id="ArialMT-4f" d="M 309 2231 
Q 309 3372 921 4017 
Q 1534 4663 2503 4663 
Q 3138 4663 3647 4359 
Q 4156 4056 4423 3514 
Q 4691 2972 4691 2284 
Q 4691 1588 4409 1038 
Q 4128 488 3612 205 
Q 3097 -78 2500 -78 
Q 1853 -78 1343 234 
Q 834 547 571 1087 
Q 309 1628 309 2231 
z
M 934 2222 
Q 934 1394 1379 917 
Q 1825 441 2497 441 
Q 3181 441 3623 922 
Q 4066 1403 4066 2288 
Q 4066 2847 3877 3264 
Q 3688 3681 3323 3911 
Q 2959 4141 2506 4141 
Q 1863 4141 1398 3698 
Q 934 3256 934 2222 
z
" transform="scale(0.015625)"/>
       <path id="ArialMT-43" d="M 3763 1606 
L 4369 1453 
Q 4178 706 3683 314 
Q 3188 -78 2472 -78 
Q 1731 -78 1267 223 
Q 803 525 561 1097 
Q 319 1669 319 2325 
Q 319 3041 592 3573 
Q 866 4106 1370 4382 
Q 1875 4659 2481 4659 
Q 3169 4659 3637 4309 
Q 4106 3959 4291 3325 
L 3694 3184 
Q 3534 3684 3231 3912 
Q 2928 4141 2469 4141 
Q 1941 4141 1586 3887 
Q 1231 3634 1087 3207 
Q 944 2781 944 2328 
Q 944 1744 1114 1308 
Q 1284 872 1643 656 
Q 2003 441 2422 441 
Q 2931 441 3284 734 
Q 3638 1028 3763 1606 
z
" transform="scale(0.015625)"/>
       <path id="ArialMT-20" transform="scale(0.015625)"/>
       <path id="ArialMT-63" d="M 2588 1216 
L 3141 1144 
Q 3050 572 2676 248 
Q 2303 -75 1759 -75 
Q 1078 -75 664 370 
Q 250 816 250 1647 
Q 250 2184 428 2587 
Q 606 2991 970 3192 
Q 1334 3394 1763 3394 
Q 2303 3394 2647 3120 
Q 2991 2847 3088 2344 
L 2541 2259 
Q 2463 2594 2264 2762 
Q 2066 2931 1784 2931 
Q 1359 2931 1093 2626 
Q 828 2322 828 1663 
Q 828 994 1084 691 
Q 1341 388 1753 388 
Q 2084 388 2306 591 
Q 2528 794 2588 1216 
z
" transform="scale(0.015625)"/>
       <path id="ArialMT-75" d="M 2597 0 
L 2597 488 
Q 2209 -75 1544 -75 
Q 1250 -75 995 37 
Q 741 150 617 320 
Q 494 491 444 738 
Q 409 903 409 1263 
L 409 3319 
L 972 3319 
L 972 1478 
Q 972 1038 1006 884 
Q 1059 663 1231 536 
Q 1403 409 1656 409 
Q 1909 409 2131 539 
Q 2353 669 2445 892 
Q 2538 1116 2538 1541 
L 2538 3319 
L 3100 3319 
L 3100 0 
L 2597 0 
z
" transform="scale(0.015625)"/>
       <path id="ArialMT-72" d="M 416 0 
L 416 3319 
L 922 3319 
L 922 2816 
Q 1116 3169 1280 3281 
Q 1444 3394 1641 3394 
Q 1925 3394 2219 3213 
L 2025 2691 
Q 1819 2813 1613 2813 
Q 1428 2813 1281 2702 
Q 1134 2591 1072 2394 
Q 978 2094 978 1738 
L 978 0 
L 416 0 
z
" transform="scale(0.015625)"/>
       <path id="ArialMT-76" d="M 1344 0 
L 81 3319 
L 675 3319 
L 1388 1331 
Q 1503 1009 1600 663 
Q 1675 925 1809 1294 
L 2547 3319 
L 3125 3319 
L 1869 0 
L 1344 0 
z
" transform="scale(0.015625)"/>
       <path id="ArialMT-65" d="M 2694 1069 
L 3275 997 
Q 3138 488 2766 206 
Q 2394 -75 1816 -75 
Q 1088 -75 661 373 
Q 234 822 234 1631 
Q 234 2469 665 2931 
Q 1097 3394 1784 3394 
Q 2450 3394 2872 2941 
Q 3294 2488 3294 1666 
Q 3294 1616 3291 1516 
L 816 1516 
Q 847 969 1125 678 
Q 1403 388 1819 388 
Q 2128 388 2347 550 
Q 2566 713 2694 1069 
z
M 847 1978 
L 2700 1978 
Q 2663 2397 2488 2606 
Q 2219 2931 1791 2931 
Q 1403 2931 1139 2672 
Q 875 2413 847 1978 
z
" transform="scale(0.015625)"/>
      </defs>
      <use xlink:href="#ArialMT-52"/>
      <use xlink:href="#ArialMT-4f" transform="translate(72.216797 0)"/>
      <use xlink:href="#ArialMT-43" transform="translate(150 0)"/>
      <use xlink:href="#ArialMT-20" transform="translate(222.216797 0)"/>
      <use xlink:href="#ArialMT-63" transform="translate(250 0)"/>
      <use xlink:href="#ArialMT-75" transform="translate(300 0)"/>
      <use xlink:href="#ArialMT-72" transform="translate(355.615234 0)"/>
      <use xlink:href="#ArialMT-76" transform="translate(388.916016 0)"/>
      <use xlink:href="#ArialMT-65" transform="translate(438.916016 0)"/>
     </g>
    </g>
    <g id="line2d_28">
     <path d="M 184.377645 251.984051 
L 193.377645 251.984051 
L 202.377645 251.984051 
" style="fill: none; stroke-dasharray: 5.55,2.4; stroke-dashoffset: 0; stroke: #999999; stroke-width: 1.5"/>
    </g>
    <g id="text_17">
     <!-- Random classifier -->
     <g style="fill: #333333" transform="translate(209.577645 255.134051) scale(0.09 -0.09)">
      <defs>
       <path id="ArialMT-61" d="M 2588 409 
Q 2275 144 1986 34 
Q 1697 -75 1366 -75 
Q 819 -75 525 192 
Q 231 459 231 875 
Q 231 1119 342 1320 
Q 453 1522 633 1644 
Q 813 1766 1038 1828 
Q 1203 1872 1538 1913 
Q 2219 1994 2541 2106 
Q 2544 2222 2544 2253 
Q 2544 2597 2384 2738 
Q 2169 2928 1744 2928 
Q 1347 2928 1158 2789 
Q 969 2650 878 2297 
L 328 2372 
Q 403 2725 575 2942 
Q 747 3159 1072 3276 
Q 1397 3394 1825 3394 
Q 2250 3394 2515 3294 
Q 2781 3194 2906 3042 
Q 3031 2891 3081 2659 
Q 3109 2516 3109 2141 
L 3109 1391 
Q 3109 606 3145 398 
Q 3181 191 3288 0 
L 2700 0 
Q 2613 175 2588 409 
z
M 2541 1666 
Q 2234 1541 1622 1453 
Q 1275 1403 1131 1340 
Q 988 1278 909 1158 
Q 831 1038 831 891 
Q 831 666 1001 516 
Q 1172 366 1500 366 
Q 1825 366 2078 508 
Q 2331 650 2450 897 
Q 2541 1088 2541 1459 
L 2541 1666 
z
" transform="scale(0.015625)"/>
       <path id="ArialMT-6e" d="M 422 0 
L 422 3319 
L 928 3319 
L 928 2847 
Q 1294 3394 1984 3394 
Q 2284 3394 2536 3286 
Q 2788 3178 2913 3003 
Q 3038 2828 3088 2588 
Q 3119 2431 3119 2041 
L 3119 0 
L 2556 0 
L 2556 2019 
Q 2556 2363 2490 2533 
Q 2425 2703 2258 2804 
Q 2091 2906 1866 2906 
Q 1506 2906 1245 2678 
Q 984 2450 984 1813 
L 984 0 
L 422 0 
z
" transform="scale(0.015625)"/>
       <path id="ArialMT-64" d="M 2575 0 
L 2575 419 
Q 2259 -75 1647 -75 
Q 1250 -75 917 144 
Q 584 363 401 755 
Q 219 1147 219 1656 
Q 219 2153 384 2558 
Q 550 2963 881 3178 
Q 1213 3394 1622 3394 
Q 1922 3394 2156 3267 
Q 2391 3141 2538 2938 
L 2538 4581 
L 3097 4581 
L 3097 0 
L 2575 0 
z
M 797 1656 
Q 797 1019 1065 703 
Q 1334 388 1700 388 
Q 2069 388 2326 689 
Q 2584 991 2584 1609 
Q 2584 2291 2321 2609 
Q 2059 2928 1675 2928 
Q 1300 2928 1048 2622 
Q 797 2316 797 1656 
z
" transform="scale(0.015625)"/>
       <path id="ArialMT-6f" d="M 213 1659 
Q 213 2581 725 3025 
Q 1153 3394 1769 3394 
Q 2453 3394 2887 2945 
Q 3322 2497 3322 1706 
Q 3322 1066 3130 698 
Q 2938 331 2570 128 
Q 2203 -75 1769 -75 
Q 1072 -75 642 372 
Q 213 819 213 1659 
z
M 791 1659 
Q 791 1022 1069 705 
Q 1347 388 1769 388 
Q 2188 388 2466 706 
Q 2744 1025 2744 1678 
Q 2744 2294 2464 2611 
Q 2184 2928 1769 2928 
Q 1347 2928 1069 2612 
Q 791 2297 791 1659 
z
" transform="scale(0.015625)"/>
       <path id="ArialMT-6d" d="M 422 0 
L 422 3319 
L 925 3319 
L 925 2853 
Q 1081 3097 1340 3245 
Q 1600 3394 1931 3394 
Q 2300 3394 2536 3241 
Q 2772 3088 2869 2813 
Q 3263 3394 3894 3394 
Q 4388 3394 4653 3120 
Q 4919 2847 4919 2278 
L 4919 0 
L 4359 0 
L 4359 2091 
Q 4359 2428 4304 2576 
Q 4250 2725 4106 2815 
Q 3963 2906 3769 2906 
Q 3419 2906 3187 2673 
Q 2956 2441 2956 1928 
L 2956 0 
L 2394 0 
L 2394 2156 
Q 2394 2531 2256 2718 
Q 2119 2906 1806 2906 
Q 1569 2906 1367 2781 
Q 1166 2656 1075 2415 
Q 984 2175 984 1722 
L 984 0 
L 422 0 
z
" transform="scale(0.015625)"/>
       <path id="ArialMT-6c" d="M 409 0 
L 409 4581 
L 972 4581 
L 972 0 
L 409 0 
z
" transform="scale(0.015625)"/>
       <path id="ArialMT-73" d="M 197 991 
L 753 1078 
Q 800 744 1014 566 
Q 1228 388 1613 388 
Q 2000 388 2187 545 
Q 2375 703 2375 916 
Q 2375 1106 2209 1216 
Q 2094 1291 1634 1406 
Q 1016 1563 777 1677 
Q 538 1791 414 1992 
Q 291 2194 291 2438 
Q 291 2659 392 2848 
Q 494 3038 669 3163 
Q 800 3259 1026 3326 
Q 1253 3394 1513 3394 
Q 1903 3394 2198 3281 
Q 2494 3169 2634 2976 
Q 2775 2784 2828 2463 
L 2278 2388 
Q 2241 2644 2061 2787 
Q 1881 2931 1553 2931 
Q 1166 2931 1000 2803 
Q 834 2675 834 2503 
Q 834 2394 903 2306 
Q 972 2216 1119 2156 
Q 1203 2125 1616 2013 
Q 2213 1853 2448 1751 
Q 2684 1650 2818 1456 
Q 2953 1263 2953 975 
Q 2953 694 2789 445 
Q 2625 197 2315 61 
Q 2006 -75 1616 -75 
Q 969 -75 630 194 
Q 291 463 197 991 
z
" transform="scale(0.015625)"/>
       <path id="ArialMT-69" d="M 425 3934 
L 425 4581 
L 988 4581 
L 988 3934 
L 425 3934 
z
M 425 0 
L 425 3319 
L 988 3319 
L 988 0 
L 425 0 
z
" transform="scale(0.015625)"/>
       <path id="ArialMT-66" d="M 556 0 
L 556 2881 
L 59 2881 
L 59 3319 
L 556 3319 
L 556 3672 
Q 556 4006 616 4169 
Q 697 4388 901 4523 
Q 1106 4659 1475 4659 
Q 1713 4659 2000 4603 
L 1916 4113 
Q 1741 4144 1584 4144 
Q 1328 4144 1222 4034 
Q 1116 3925 1116 3625 
L 1116 3319 
L 1763 3319 
L 1763 2881 
L 1116 2881 
L 1116 0 
L 556 0 
z
" transform="scale(0.015625)"/>
      </defs>
      <use xlink:href="#ArialMT-52"/>
      <use xlink:href="#ArialMT-61" transform="translate(72.216797 0)"/>
      <use xlink:href="#ArialMT-6e" transform="translate(127.832031 0)"/>
      <use xlink:href="#ArialMT-64" transform="translate(183.447266 0)"/>
      <use xlink:href="#ArialMT-6f" transform="translate(239.0625 0)"/>
      <use xlink:href="#ArialMT-6d" transform="translate(294.677734 0)"/>
      <use xlink:href="#ArialMT-20" transform="translate(377.978516 0)"/>
      <use xlink:href="#ArialMT-63" transform="translate(405.761719 0)"/>
      <use xlink:href="#ArialMT-6c" transform="translate(455.761719 0)"/>
      <use xlink:href="#ArialMT-61" transform="translate(477.978516 0)"/>
      <use xlink:href="#ArialMT-73" transform="translate(533.59375 0)"/>
      <use xlink:href="#ArialMT-73" transform="translate(583.59375 0)"/>
      <use xlink:href="#ArialMT-69" transform="translate(633.59375 0)"/>
      <use xlink:href="#ArialMT-66" transform="translate(655.810547 0)"/>
      <use xlink:href="#ArialMT-69" transform="translate(683.59375 0)"/>
      <use xlink:href="#ArialMT-65" transform="translate(705.810547 0)"/>
      <use xlink:href="#ArialMT-72" transform="translate(761.425781 0)"/>
     </g>
    </g>
   </g>
  </g>
 </g>
 <defs>
  <clipPath id="pa868684382">
   <rect x="35.655938" y="19.751719" width="253.543583" height="245.271083"/>
  </clipPath>
 </defs>
</svg>
