<?xml version="1.0" encoding="utf-8" standalone="no"?>
<!DOCTYPE svg PUBLIC "-//W3C//DTD SVG 1.1//EN"
  "http://www.w3.org/Graphics/SVG/1.1/DTD/svg11.dtd">
<svg xmlns:xlink="http://www.w3.org/1999/xlink" width="440.39952pt" height="440.39952pt" viewBox="0 0 440.39952 440.39952" xmlns="http://www.w3.org/2000/svg" version="1.1">
 <metadata>
  <rdf:RDF xmlns:dc="http://purl.org/dc/elements/1.1/" xmlns:cc="http://creativecommons.org/ns#" xmlns:rdf="http://www.w3.org/1999/02/22-rdf-syntax-ns#">
   <cc:Work>
    <dc:type rdf:resource="http://purl.org/dc/dcmitype/StillImage"/>
    <dc:date>2025-12-23T16:25:16.457515</dc:date>
    <dc:format>image/svg+xml</dc:format>
    <dc:creator>
     <cc:Agent>
      <dc:title>Matplotlib v3.10.8, https://matplotlib.org/</dc:title>
     </cc:Agent>
    </dc:creator>
   </cc:Work>
  </rdf:RDF>
 </metadata>
 <defs>
  <style type="text/css">*{stroke-linejoin: round; stroke-linecap: butt}</style>
 </defs>
 <g id="figure_1">
  <g id="patch_1">
   <path d="M 0 440.39952 
L 440.39952 440.39952 
L 440.39952 0 
L 0 0 
z
" style="fill: #ffffff"/>
  </g>
  <g id="axes_1">
   <g id="patch_2">
    <path d="M 68.445469 409.132489 
L 433.19952 409.132489 
L 433.19952 19.66875 
L 68.445469 19.66875 
z
" style="fill: #ffffff"/>
   </g>
   <g id="matplotlib.axis_1">
    <g id="xtick_1">
     <g id="line2d_1">
      <path d="M 85.057045 409.132489 
L 85.057045 19.66875 
" clip-path="url(#pf8072566b7)" style="fill: none; stroke: #c0c0c0; stroke-width: 0.25; stroke-linecap: round"/>
     </g>
     <g id="line2d_2"/>
     <g id="text_1">
      <!-- 0.0 -->
      <g style="fill: #333333" transform="translate(78.802045 419.07452) scale(0.09 -0.09)">
       <defs>
        <path id="ArialMT-30" d="M 266 2259 
Q 266 3072 433 3567 
Q 600 4063 929 4331 
Q 1259 4600 1759 4600 
Q 2128 4600 2406 4451 
Q 2684 4303 2865 4023 
Q 3047 3744 3150 3342 
Q 3253 2941 3253 2259 
Q 3253 1453 3087 958 
Q 2922 463 2592 192 
Q 2263 -78 1759 -78 
Q 1097 -78 719 397 
Q 266 969 266 2259 
z
M 844 2259 
Q 844 1131 1108 757 
Q 1372 384 1759 384 
Q 2147 384 2411 759 
Q 2675 1134 2675 2259 
Q 2675 3391 2411 3762 
Q 2147 4134 1753 4134 
Q 1366 4134 1134 3806 
Q 844 3388 844 2259 
z
" transform="scale(0.015625)"/>
        <path id="ArialMT-2e" d="M 581 0 
L 581 641 
L 1222 641 
L 1222 0 
L 581 0 
z
" transform="scale(0.015625)"/>
       </defs>
       <use xlink:href="#ArialMT-30"/>
       <use xlink:href="#ArialMT-2e" transform="translate(55.615234 0)"/>
       <use xlink:href="#ArialMT-30" transform="translate(83.398438 0)"/>
      </g>
     </g>
    </g>
    <g id="xtick_2">
     <g id="line2d_3">
      <path d="M 148.276906 409.132489 
L 148.276906 19.66875 
" clip-path="url(#pf8072566b7)" style="fill: none; stroke: #c0c0c0; stroke-width: 0.25; stroke-linecap: round"/>
     </g>
     <g id="line2d_4"/>
     <g id="text_2">
      <!-- 0.1 -->
      <g style="fill: #333333" transform="translate(142.021906 419.07452) scale(0.09 -0.09)">
       <defs>
        <path id="ArialMT-31" d="M 2384 0 
L 1822 0 
L 1822 3584 
Q 1619 3391 1289 3197 
Q 959 3003 697 2906 
L 697 3450 
Q 1169 3672 1522 3987 
Q 1875 4303 2022 4600 
L 2384 4600 
L 2384 0 
z
" transform="scale(0.015625)"/>
       </defs>
       <use xlink:href="#ArialMT-30"/>
       <use xlink:href="#ArialMT-2e" transform="translate(55.615234 0)"/>
       <use xlink:href="#ArialMT-31" transform="translate(83.398438 0)"/>
      </g>
     </g>
    </g>
    <g id="xtick_3">
     <g id="line2d_5">
      <path d="M 211.496766 409.132489 
L 211.496766 19.66875 
" clip-path="url(#pf8072566b7)" style="fill: none; stroke: #c0c0c0; stroke-width: 0.25; stroke-linecap: round"/>
     </g>
     <g id="line2d_6"/>
     <g id="text_3">
      <!-- 0.2 -->
      <g style="fill: #333333" transform="translate(205.241766 419.07452) scale(0.09 -0.09)">
       <defs>
        <path id="ArialMT-32" d="M 3222 541 
L 3222 0 
L 194 0 
Q 188 203 259 391 
Q 375 700 629 1000 
Q 884 1300 1366 1694 
Q 2113 2306 2375 2664 
Q 2638 3022 2638 3341 
Q 2638 3675 2398 3904 
Q 2159 4134 1775 4134 
Q 1369 4134 1125 3890 
Q 881 3647 878 3216 
L 300 3275 
Q 359 3922 746 4261 
Q 1134 4600 1788 4600 
Q 2447 4600 2831 4234 
Q 3216 3869 3216 3328 
Q 3216 3053 3103 2787 
Q 2991 2522 2730 2228 
Q 2469 1934 1863 1422 
Q 1356 997 1212 845 
Q 1069 694 975 541 
L 3222 541 
z
" transform="scale(0.015625)"/>
       </defs>
       <use xlink:href="#ArialMT-30"/>
       <use xlink:href="#ArialMT-2e" transform="translate(55.615234 0)"/>
       <use xlink:href="#ArialMT-32" transform="translate(83.398438 0)"/>
      </g>
     </g>
    </g>
    <g id="xtick_4">
     <g id="line2d_7">
      <path d="M 274.716626 409.132489 
L 274.716626 19.66875 
" clip-path="url(#pf8072566b7)" style="fill: none; stroke: #c0c0c0; stroke-width: 0.25; stroke-linecap: round"/>
     </g>
     <g id="line2d_8"/>
     <g id="text_4">
      <!-- 0.3 -->
      <g style="fill: #333333" transform="translate(268.461626 419.07452) scale(0.09 -0.09)">
       <defs>
        <path id="ArialMT-33" d="M 269 1209 
L 831 1284 
Q 928 806 1161 595 
Q 1394 384 1728 384 
Q 2125 384 2398 659 
Q 2672 934 2672 1341 
Q 2672 1728 2419 1979 
Q 2166 2231 1775 2231 
Q 1616 2231 1378 2169 
L 1441 2663 
Q 1497 2656 1531 2656 
Q 1891 2656 2178 2843 
Q 2466 3031 2466 3422 
Q 2466 3731 2256 3934 
Q 2047 4138 1716 4138 
Q 1388 4138 1169 3931 
Q 950 3725 888 3313 
L 325 3413 
Q 428 3978 793 4289 
Q 1159 4600 1703 4600 
Q 2078 4600 2393 4439 
Q 2709 4278 2876 4000 
Q 3044 3722 3044 3409 
Q 3044 3113 2884 2869 
Q 2725 2625 2413 2481 
Q 2819 2388 3044 2092 
Q 3269 1797 3269 1353 
Q 3269 753 2831 336 
Q 2394 -81 1725 -81 
Q 1122 -81 723 278 
Q 325 638 269 1209 
z
" transform="scale(0.015625)"/>
       </defs>
       <use xlink:href="#ArialMT-30"/>
       <use xlink:href="#ArialMT-2e" transform="translate(55.615234 0)"/>
       <use xlink:href="#ArialMT-33" transform="translate(83.398438 0)"/>
      </g>
     </g>
    </g>
    <g id="xtick_5">
     <g id="line2d_9">
      <path d="M 337.936486 409.132489 
L 337.936486 19.66875 
" clip-path="url(#pf8072566b7)" style="fill: none; stroke: #c0c0c0; stroke-width: 0.25; stroke-linecap: round"/>
     </g>
     <g id="line2d_10"/>
     <g id="text_5">
      <!-- 0.4 -->
      <g style="fill: #333333" transform="translate(331.681486 419.07452) scale(0.09 -0.09)">
       <defs>
        <path id="ArialMT-34" d="M 2069 0 
L 2069 1097 
L 81 1097 
L 81 1613 
L 2172 4581 
L 2631 4581 
L 2631 1613 
L 3250 1613 
L 3250 1097 
L 2631 1097 
L 2631 0 
L 2069 0 
z
M 2069 1613 
L 2069 3678 
L 634 1613 
L 2069 1613 
z
" transform="scale(0.015625)"/>
       </defs>
       <use xlink:href="#ArialMT-30"/>
       <use xlink:href="#ArialMT-2e" transform="translate(55.615234 0)"/>
       <use xlink:href="#ArialMT-34" transform="translate(83.398438 0)"/>
      </g>
     </g>
    </g>
    <g id="xtick_6">
     <g id="line2d_11">
      <path d="M 401.156347 409.132489 
L 401.156347 19.66875 
" clip-path="url(#pf8072566b7)" style="fill: none; stroke: #c0c0c0; stroke-width: 0.25; stroke-linecap: round"/>
     </g>
     <g id="line2d_12"/>
     <g id="text_6">
      <!-- 0.5 -->
      <g style="fill: #333333" transform="translate(394.901347 419.07452) scale(0.09 -0.09)">
       <defs>
        <path id="ArialMT-35" d="M 266 1200 
L 856 1250 
Q 922 819 1161 601 
Q 1400 384 1738 384 
Q 2144 384 2425 690 
Q 2706 997 2706 1503 
Q 2706 1984 2436 2262 
Q 2166 2541 1728 2541 
Q 1456 2541 1237 2417 
Q 1019 2294 894 2097 
L 366 2166 
L 809 4519 
L 3088 4519 
L 3088 3981 
L 1259 3981 
L 1013 2750 
Q 1425 3038 1878 3038 
Q 2478 3038 2890 2622 
Q 3303 2206 3303 1553 
Q 3303 931 2941 478 
Q 2500 -78 1738 -78 
Q 1113 -78 717 272 
Q 322 622 266 1200 
z
" transform="scale(0.015625)"/>
       </defs>
       <use xlink:href="#ArialMT-30"/>
       <use xlink:href="#ArialMT-2e" transform="translate(55.615234 0)"/>
       <use xlink:href="#ArialMT-35" transform="translate(83.398438 0)"/>
      </g>
     </g>
    </g>
    <g id="text_7">
     <!-- Decrease in accuracy score -->
     <g style="fill: #333333" transform="translate(191.535697 431.305301) scale(0.09 -0.09)">
      <defs>
       <path id="Arial-BoldMT-44" d="M 463 4581 
L 2153 4581 
Q 2725 4581 3025 4494 
Q 3428 4375 3715 4072 
Q 4003 3769 4153 3330 
Q 4303 2891 4303 2247 
Q 4303 1681 4163 1272 
Q 3991 772 3672 463 
Q 3431 228 3022 97 
Q 2716 0 2203 0 
L 463 0 
L 463 4581 
z
M 1388 3806 
L 1388 772 
L 2078 772 
Q 2466 772 2638 816 
Q 2863 872 3011 1006 
Q 3159 1141 3253 1448 
Q 3347 1756 3347 2288 
Q 3347 2819 3253 3103 
Q 3159 3388 2990 3547 
Q 2822 3706 2563 3763 
Q 2369 3806 1803 3806 
L 1388 3806 
z
" transform="scale(0.015625)"/>
       <path id="Arial-BoldMT-65" d="M 2381 1056 
L 3256 909 
Q 3088 428 2723 176 
Q 2359 -75 1813 -75 
Q 947 -75 531 491 
Q 203 944 203 1634 
Q 203 2459 634 2926 
Q 1066 3394 1725 3394 
Q 2466 3394 2894 2905 
Q 3322 2416 3303 1406 
L 1103 1406 
Q 1113 1016 1316 798 
Q 1519 581 1822 581 
Q 2028 581 2168 693 
Q 2309 806 2381 1056 
z
M 2431 1944 
Q 2422 2325 2234 2523 
Q 2047 2722 1778 2722 
Q 1491 2722 1303 2513 
Q 1116 2303 1119 1944 
L 2431 1944 
z
" transform="scale(0.015625)"/>
       <path id="Arial-BoldMT-63" d="M 3353 2338 
L 2488 2181 
Q 2444 2441 2289 2572 
Q 2134 2703 1888 2703 
Q 1559 2703 1364 2476 
Q 1169 2250 1169 1719 
Q 1169 1128 1367 884 
Q 1566 641 1900 641 
Q 2150 641 2309 783 
Q 2469 925 2534 1272 
L 3397 1125 
Q 3263 531 2881 228 
Q 2500 -75 1859 -75 
Q 1131 -75 698 384 
Q 266 844 266 1656 
Q 266 2478 700 2936 
Q 1134 3394 1875 3394 
Q 2481 3394 2839 3133 
Q 3197 2872 3353 2338 
z
" transform="scale(0.015625)"/>
       <path id="Arial-BoldMT-72" d="M 1300 0 
L 422 0 
L 422 3319 
L 1238 3319 
L 1238 2847 
Q 1447 3181 1614 3287 
Q 1781 3394 1994 3394 
Q 2294 3394 2572 3228 
L 2300 2463 
Q 2078 2606 1888 2606 
Q 1703 2606 1575 2504 
Q 1447 2403 1373 2137 
Q 1300 1872 1300 1025 
L 1300 0 
z
" transform="scale(0.015625)"/>
       <path id="Arial-BoldMT-61" d="M 1116 2306 
L 319 2450 
Q 453 2931 781 3162 
Q 1109 3394 1756 3394 
Q 2344 3394 2631 3255 
Q 2919 3116 3036 2902 
Q 3153 2688 3153 2116 
L 3144 1091 
Q 3144 653 3186 445 
Q 3228 238 3344 0 
L 2475 0 
Q 2441 88 2391 259 
Q 2369 338 2359 363 
Q 2134 144 1878 34 
Q 1622 -75 1331 -75 
Q 819 -75 523 203 
Q 228 481 228 906 
Q 228 1188 362 1408 
Q 497 1628 739 1745 
Q 981 1863 1438 1950 
Q 2053 2066 2291 2166 
L 2291 2253 
Q 2291 2506 2166 2614 
Q 2041 2722 1694 2722 
Q 1459 2722 1328 2630 
Q 1197 2538 1116 2306 
z
M 2291 1594 
Q 2122 1538 1756 1459 
Q 1391 1381 1278 1306 
Q 1106 1184 1106 997 
Q 1106 813 1243 678 
Q 1381 544 1594 544 
Q 1831 544 2047 700 
Q 2206 819 2256 991 
Q 2291 1103 2291 1419 
L 2291 1594 
z
" transform="scale(0.015625)"/>
       <path id="Arial-BoldMT-73" d="M 150 947 
L 1031 1081 
Q 1088 825 1259 692 
Q 1431 559 1741 559 
Q 2081 559 2253 684 
Q 2369 772 2369 919 
Q 2369 1019 2306 1084 
Q 2241 1147 2013 1200 
Q 950 1434 666 1628 
Q 272 1897 272 2375 
Q 272 2806 612 3100 
Q 953 3394 1669 3394 
Q 2350 3394 2681 3172 
Q 3013 2950 3138 2516 
L 2309 2363 
Q 2256 2556 2107 2659 
Q 1959 2763 1684 2763 
Q 1338 2763 1188 2666 
Q 1088 2597 1088 2488 
Q 1088 2394 1175 2328 
Q 1294 2241 1995 2081 
Q 2697 1922 2975 1691 
Q 3250 1456 3250 1038 
Q 3250 581 2869 253 
Q 2488 -75 1741 -75 
Q 1063 -75 667 200 
Q 272 475 150 947 
z
" transform="scale(0.015625)"/>
       <path id="Arial-BoldMT-20" transform="scale(0.015625)"/>
       <path id="Arial-BoldMT-69" d="M 459 3769 
L 459 4581 
L 1338 4581 
L 1338 3769 
L 459 3769 
z
M 459 0 
L 459 3319 
L 1338 3319 
L 1338 0 
L 459 0 
z
" transform="scale(0.015625)"/>
       <path id="Arial-BoldMT-6e" d="M 3478 0 
L 2600 0 
L 2600 1694 
Q 2600 2231 2544 2389 
Q 2488 2547 2361 2634 
Q 2234 2722 2056 2722 
Q 1828 2722 1647 2597 
Q 1466 2472 1398 2265 
Q 1331 2059 1331 1503 
L 1331 0 
L 453 0 
L 453 3319 
L 1269 3319 
L 1269 2831 
Q 1703 3394 2363 3394 
Q 2653 3394 2893 3289 
Q 3134 3184 3257 3021 
Q 3381 2859 3429 2653 
Q 3478 2447 3478 2063 
L 3478 0 
z
" transform="scale(0.015625)"/>
       <path id="Arial-BoldMT-75" d="M 2644 0 
L 2644 497 
Q 2463 231 2167 78 
Q 1872 -75 1544 -75 
Q 1209 -75 943 72 
Q 678 219 559 484 
Q 441 750 441 1219 
L 441 3319 
L 1319 3319 
L 1319 1794 
Q 1319 1094 1367 936 
Q 1416 778 1544 686 
Q 1672 594 1869 594 
Q 2094 594 2272 717 
Q 2450 841 2515 1023 
Q 2581 1206 2581 1919 
L 2581 3319 
L 3459 3319 
L 3459 0 
L 2644 0 
z
" transform="scale(0.015625)"/>
       <path id="Arial-BoldMT-79" d="M 44 3319 
L 978 3319 
L 1772 963 
L 2547 3319 
L 3456 3319 
L 2284 125 
L 2075 -453 
Q 1959 -744 1854 -897 
Q 1750 -1050 1614 -1145 
Q 1478 -1241 1279 -1294 
Q 1081 -1347 831 -1347 
Q 578 -1347 334 -1294 
L 256 -606 
Q 463 -647 628 -647 
Q 934 -647 1081 -467 
Q 1228 -288 1306 -9 
L 44 3319 
z
" transform="scale(0.015625)"/>
       <path id="Arial-BoldMT-6f" d="M 256 1706 
Q 256 2144 472 2553 
Q 688 2963 1083 3178 
Q 1478 3394 1966 3394 
Q 2719 3394 3200 2905 
Q 3681 2416 3681 1669 
Q 3681 916 3195 420 
Q 2709 -75 1972 -75 
Q 1516 -75 1102 131 
Q 688 338 472 736 
Q 256 1134 256 1706 
z
M 1156 1659 
Q 1156 1166 1390 903 
Q 1625 641 1969 641 
Q 2313 641 2545 903 
Q 2778 1166 2778 1666 
Q 2778 2153 2545 2415 
Q 2313 2678 1969 2678 
Q 1625 2678 1390 2415 
Q 1156 2153 1156 1659 
z
" transform="scale(0.015625)"/>
      </defs>
      <use xlink:href="#Arial-BoldMT-44"/>
      <use xlink:href="#Arial-BoldMT-65" transform="translate(72.216797 0)"/>
      <use xlink:href="#Arial-BoldMT-63" transform="translate(127.832031 0)"/>
      <use xlink:href="#Arial-BoldMT-72" transform="translate(183.447266 0)"/>
      <use xlink:href="#Arial-BoldMT-65" transform="translate(222.363281 0)"/>
      <use xlink:href="#Arial-BoldMT-61" transform="translate(277.978516 0)"/>
      <use xlink:href="#Arial-BoldMT-73" transform="translate(333.59375 0)"/>
      <use xlink:href="#Arial-BoldMT-65" transform="translate(389.208984 0)"/>
      <use xlink:href="#Arial-BoldMT-20" transform="translate(444.824219 0)"/>
      <use xlink:href="#Arial-BoldMT-69" transform="translate(472.607422 0)"/>
      <use xlink:href="#Arial-BoldMT-6e" transform="translate(500.390625 0)"/>
      <use xlink:href="#Arial-BoldMT-20" transform="translate(561.474609 0)"/>
      <use xlink:href="#Arial-BoldMT-61" transform="translate(589.257812 0)"/>
      <use xlink:href="#Arial-BoldMT-63" transform="translate(644.873047 0)"/>
      <use xlink:href="#Arial-BoldMT-63" transform="translate(700.488281 0)"/>
      <use xlink:href="#Arial-BoldMT-75" transform="translate(756.103516 0)"/>
      <use xlink:href="#Arial-BoldMT-72" transform="translate(817.1875 0)"/>
      <use xlink:href="#Arial-BoldMT-61" transform="translate(856.103516 0)"/>
      <use xlink:href="#Arial-BoldMT-63" transform="translate(911.71875 0)"/>
      <use xlink:href="#Arial-BoldMT-79" transform="translate(967.333984 0)"/>
      <use xlink:href="#Arial-BoldMT-20" transform="translate(1022.949219 0)"/>
      <use xlink:href="#Arial-BoldMT-73" transform="translate(1050.732422 0)"/>
      <use xlink:href="#Arial-BoldMT-63" transform="translate(1106.347656 0)"/>
      <use xlink:href="#Arial-BoldMT-6f" transform="translate(1161.962891 0)"/>
      <use xlink:href="#Arial-BoldMT-72" transform="translate(1223.046875 0)"/>
      <use xlink:href="#Arial-BoldMT-65" transform="translate(1261.962891 0)"/>
     </g>
    </g>
   </g>
   <g id="matplotlib.axis_2">
    <g id="ytick_1">
     <g id="line2d_13">
      <path d="M 68.445469 402.417597 
L 433.19952 402.417597 
" clip-path="url(#pf8072566b7)" style="fill: none; stroke: #c0c0c0; stroke-width: 0.25; stroke-linecap: round"/>
     </g>
     <g id="line2d_14"/>
     <g id="text_8">
      <!-- apgar5 -->
      <g style="fill: #333333" transform="translate(36.924531 405.595019) scale(0.09 -0.09)">
       <defs>
        <path id="ArialMT-61" d="M 2588 409 
Q 2275 144 1986 34 
Q 1697 -75 1366 -75 
Q 819 -75 525 192 
Q 231 459 231 875 
Q 231 1119 342 1320 
Q 453 1522 633 1644 
Q 813 1766 1038 1828 
Q 1203 1872 1538 1913 
Q 2219 1994 2541 2106 
Q 2544 2222 2544 2253 
Q 2544 2597 2384 2738 
Q 2169 2928 1744 2928 
Q 1347 2928 1158 2789 
Q 969 2650 878 2297 
L 328 2372 
Q 403 2725 575 2942 
Q 747 3159 1072 3276 
Q 1397 3394 1825 3394 
Q 2250 3394 2515 3294 
Q 2781 3194 2906 3042 
Q 3031 2891 3081 2659 
Q 3109 2516 3109 2141 
L 3109 1391 
Q 3109 606 3145 398 
Q 3181 191 3288 0 
L 2700 0 
Q 2613 175 2588 409 
z
M 2541 1666 
Q 2234 1541 1622 1453 
Q 1275 1403 1131 1340 
Q 988 1278 909 1158 
Q 831 1038 831 891 
Q 831 666 1001 516 
Q 1172 366 1500 366 
Q 1825 366 2078 508 
Q 2331 650 2450 897 
Q 2541 1088 2541 1459 
L 2541 1666 
z
" transform="scale(0.015625)"/>
        <path id="ArialMT-70" d="M 422 -1272 
L 422 3319 
L 934 3319 
L 934 2888 
Q 1116 3141 1344 3267 
Q 1572 3394 1897 3394 
Q 2322 3394 2647 3175 
Q 2972 2956 3137 2557 
Q 3303 2159 3303 1684 
Q 3303 1175 3120 767 
Q 2938 359 2589 142 
Q 2241 -75 1856 -75 
Q 1575 -75 1351 44 
Q 1128 163 984 344 
L 984 -1272 
L 422 -1272 
z
M 931 1641 
Q 931 1000 1190 694 
Q 1450 388 1819 388 
Q 2194 388 2461 705 
Q 2728 1022 2728 1688 
Q 2728 2322 2467 2637 
Q 2206 2953 1844 2953 
Q 1484 2953 1207 2617 
Q 931 2281 931 1641 
z
" transform="scale(0.015625)"/>
        <path id="ArialMT-67" d="M 319 -275 
L 866 -356 
Q 900 -609 1056 -725 
Q 1266 -881 1628 -881 
Q 2019 -881 2231 -725 
Q 2444 -569 2519 -288 
Q 2563 -116 2559 434 
Q 2191 0 1641 0 
Q 956 0 581 494 
Q 206 988 206 1678 
Q 206 2153 378 2554 
Q 550 2956 876 3175 
Q 1203 3394 1644 3394 
Q 2231 3394 2613 2919 
L 2613 3319 
L 3131 3319 
L 3131 450 
Q 3131 -325 2973 -648 
Q 2816 -972 2473 -1159 
Q 2131 -1347 1631 -1347 
Q 1038 -1347 672 -1080 
Q 306 -813 319 -275 
z
M 784 1719 
Q 784 1066 1043 766 
Q 1303 466 1694 466 
Q 2081 466 2343 764 
Q 2606 1063 2606 1700 
Q 2606 2309 2336 2618 
Q 2066 2928 1684 2928 
Q 1309 2928 1046 2623 
Q 784 2319 784 1719 
z
" transform="scale(0.015625)"/>
        <path id="ArialMT-72" d="M 416 0 
L 416 3319 
L 922 3319 
L 922 2816 
Q 1116 3169 1280 3281 
Q 1444 3394 1641 3394 
Q 1925 3394 2219 3213 
L 2025 2691 
Q 1819 2813 1613 2813 
Q 1428 2813 1281 2702 
Q 1134 2591 1072 2394 
Q 978 2094 978 1738 
L 978 0 
L 416 0 
z
" transform="scale(0.015625)"/>
       </defs>
       <use xlink:href="#ArialMT-61"/>
       <use xlink:href="#ArialMT-70" transform="translate(55.615234 0)"/>
       <use xlink:href="#ArialMT-67" transform="translate(111.230469 0)"/>
       <use xlink:href="#ArialMT-61" transform="translate(166.845703 0)"/>
       <use xlink:href="#ArialMT-72" transform="translate(222.460938 0)"/>
       <use xlink:href="#ArialMT-35" transform="translate(255.761719 0)"/>
      </g>
     </g>
    </g>
    <g id="ytick_2">
     <g id="line2d_15">
      <path d="M 68.445469 388.987813 
L 433.19952 388.987813 
" clip-path="url(#pf8072566b7)" style="fill: none; stroke: #c0c0c0; stroke-width: 0.25; stroke-linecap: round"/>
     </g>
     <g id="line2d_16"/>
     <g id="text_9">
      <!-- bfacil3 -->
      <g style="fill: #333333" transform="translate(38.93125 392.208828) scale(0.09 -0.09)">
       <defs>
        <path id="ArialMT-62" d="M 941 0 
L 419 0 
L 419 4581 
L 981 4581 
L 981 2947 
Q 1338 3394 1891 3394 
Q 2197 3394 2470 3270 
Q 2744 3147 2920 2923 
Q 3097 2700 3197 2384 
Q 3297 2069 3297 1709 
Q 3297 856 2875 390 
Q 2453 -75 1863 -75 
Q 1275 -75 941 416 
L 941 0 
z
M 934 1684 
Q 934 1088 1097 822 
Q 1363 388 1816 388 
Q 2184 388 2453 708 
Q 2722 1028 2722 1663 
Q 2722 2313 2464 2622 
Q 2206 2931 1841 2931 
Q 1472 2931 1203 2611 
Q 934 2291 934 1684 
z
" transform="scale(0.015625)"/>
        <path id="ArialMT-66" d="M 556 0 
L 556 2881 
L 59 2881 
L 59 3319 
L 556 3319 
L 556 3672 
Q 556 4006 616 4169 
Q 697 4388 901 4523 
Q 1106 4659 1475 4659 
Q 1713 4659 2000 4603 
L 1916 4113 
Q 1741 4144 1584 4144 
Q 1328 4144 1222 4034 
Q 1116 3925 1116 3625 
L 1116 3319 
L 1763 3319 
L 1763 2881 
L 1116 2881 
L 1116 0 
L 556 0 
z
" transform="scale(0.015625)"/>
        <path id="ArialMT-63" d="M 2588 1216 
L 3141 1144 
Q 3050 572 2676 248 
Q 2303 -75 1759 -75 
Q 1078 -75 664 370 
Q 250 816 250 1647 
Q 250 2184 428 2587 
Q 606 2991 970 3192 
Q 1334 3394 1763 3394 
Q 2303 3394 2647 3120 
Q 2991 2847 3088 2344 
L 2541 2259 
Q 2463 2594 2264 2762 
Q 2066 2931 1784 2931 
Q 1359 2931 1093 2626 
Q 828 2322 828 1663 
Q 828 994 1084 691 
Q 1341 388 1753 388 
Q 2084 388 2306 591 
Q 2528 794 2588 1216 
z
" transform="scale(0.015625)"/>
        <path id="ArialMT-69" d="M 425 3934 
L 425 4581 
L 988 4581 
L 988 3934 
L 425 3934 
z
M 425 0 
L 425 3319 
L 988 3319 
L 988 0 
L 425 0 
z
" transform="scale(0.015625)"/>
        <path id="ArialMT-6c" d="M 409 0 
L 409 4581 
L 972 4581 
L 972 0 
L 409 0 
z
" transform="scale(0.015625)"/>
       </defs>
       <use xlink:href="#ArialMT-62"/>
       <use xlink:href="#ArialMT-66" transform="translate(55.615234 0)"/>
       <use xlink:href="#ArialMT-61" transform="translate(83.398438 0)"/>
       <use xlink:href="#ArialMT-63" transform="translate(139.013672 0)"/>
       <use xlink:href="#ArialMT-69" transform="translate(189.013672 0)"/>
       <use xlink:href="#ArialMT-6c" transform="translate(211.230469 0)"/>
       <use xlink:href="#ArialMT-33" transform="translate(233.447266 0)"/>
      </g>
     </g>
    </g>
    <g id="ytick_3">
     <g id="line2d_17">
      <path d="M 68.445469 375.558029 
L 433.19952 375.558029 
" clip-path="url(#pf8072566b7)" style="fill: none; stroke: #c0c0c0; stroke-width: 0.25; stroke-linecap: round"/>
     </g>
     <g id="line2d_18"/>
     <g id="text_10">
      <!-- precare -->
      <g style="fill: #333333" transform="translate(34.432656 378.779044) scale(0.09 -0.09)">
       <defs>
        <path id="ArialMT-65" d="M 2694 1069 
L 3275 997 
Q 3138 488 2766 206 
Q 2394 -75 1816 -75 
Q 1088 -75 661 373 
Q 234 822 234 1631 
Q 234 2469 665 2931 
Q 1097 3394 1784 3394 
Q 2450 3394 2872 2941 
Q 3294 2488 3294 1666 
Q 3294 1616 3291 1516 
L 816 1516 
Q 847 969 1125 678 
Q 1403 388 1819 388 
Q 2128 388 2347 550 
Q 2566 713 2694 1069 
z
M 847 1978 
L 2700 1978 
Q 2663 2397 2488 2606 
Q 2219 2931 1791 2931 
Q 1403 2931 1139 2672 
Q 875 2413 847 1978 
z
" transform="scale(0.015625)"/>
       </defs>
       <use xlink:href="#ArialMT-70"/>
       <use xlink:href="#ArialMT-72" transform="translate(55.615234 0)"/>
       <use xlink:href="#ArialMT-65" transform="translate(88.916016 0)"/>
       <use xlink:href="#ArialMT-63" transform="translate(144.53125 0)"/>
       <use xlink:href="#ArialMT-61" transform="translate(194.53125 0)"/>
       <use xlink:href="#ArialMT-72" transform="translate(250.146484 0)"/>
       <use xlink:href="#ArialMT-65" transform="translate(283.447266 0)"/>
      </g>
     </g>
    </g>
    <g id="ytick_4">
     <g id="line2d_19">
      <path d="M 68.445469 362.128244 
L 433.19952 362.128244 
" clip-path="url(#pf8072566b7)" style="fill: none; stroke: #c0c0c0; stroke-width: 0.25; stroke-linecap: round"/>
     </g>
     <g id="line2d_20"/>
     <g id="text_11">
      <!-- bmi -->
      <g style="fill: #333333" transform="translate(50.444219 365.34926) scale(0.09 -0.09)">
       <defs>
        <path id="ArialMT-6d" d="M 422 0 
L 422 3319 
L 925 3319 
L 925 2853 
Q 1081 3097 1340 3245 
Q 1600 3394 1931 3394 
Q 2300 3394 2536 3241 
Q 2772 3088 2869 2813 
Q 3263 3394 3894 3394 
Q 4388 3394 4653 3120 
Q 4919 2847 4919 2278 
L 4919 0 
L 4359 0 
L 4359 2091 
Q 4359 2428 4304 2576 
Q 4250 2725 4106 2815 
Q 3963 2906 3769 2906 
Q 3419 2906 3187 2673 
Q 2956 2441 2956 1928 
L 2956 0 
L 2394 0 
L 2394 2156 
Q 2394 2531 2256 2718 
Q 2119 2906 1806 2906 
Q 1569 2906 1367 2781 
Q 1166 2656 1075 2415 
Q 984 2175 984 1722 
L 984 0 
L 422 0 
z
" transform="scale(0.015625)"/>
       </defs>
       <use xlink:href="#ArialMT-62"/>
       <use xlink:href="#ArialMT-6d" transform="translate(55.615234 0)"/>
       <use xlink:href="#ArialMT-69" transform="translate(138.916016 0)"/>
      </g>
     </g>
    </g>
    <g id="ytick_5">
     <g id="line2d_21">
      <path d="M 68.445469 348.69846 
L 433.19952 348.69846 
" clip-path="url(#pf8072566b7)" style="fill: none; stroke: #c0c0c0; stroke-width: 0.25; stroke-linecap: round"/>
     </g>
     <g id="line2d_22"/>
     <g id="text_12">
      <!-- ab_anti -->
      <g style="fill: #333333" transform="translate(35.42125 351.919476) scale(0.09 -0.09)">
       <defs>
        <path id="ArialMT-5f" d="M -97 -1272 
L -97 -866 
L 3631 -866 
L 3631 -1272 
L -97 -1272 
z
" transform="scale(0.015625)"/>
        <path id="ArialMT-6e" d="M 422 0 
L 422 3319 
L 928 3319 
L 928 2847 
Q 1294 3394 1984 3394 
Q 2284 3394 2536 3286 
Q 2788 3178 2913 3003 
Q 3038 2828 3088 2588 
Q 3119 2431 3119 2041 
L 3119 0 
L 2556 0 
L 2556 2019 
Q 2556 2363 2490 2533 
Q 2425 2703 2258 2804 
Q 2091 2906 1866 2906 
Q 1506 2906 1245 2678 
Q 984 2450 984 1813 
L 984 0 
L 422 0 
z
" transform="scale(0.015625)"/>
        <path id="ArialMT-74" d="M 1650 503 
L 1731 6 
Q 1494 -44 1306 -44 
Q 1000 -44 831 53 
Q 663 150 594 308 
Q 525 466 525 972 
L 525 2881 
L 113 2881 
L 113 3319 
L 525 3319 
L 525 4141 
L 1084 4478 
L 1084 3319 
L 1650 3319 
L 1650 2881 
L 1084 2881 
L 1084 941 
Q 1084 700 1114 631 
Q 1144 563 1211 522 
Q 1278 481 1403 481 
Q 1497 481 1650 503 
z
" transform="scale(0.015625)"/>
       </defs>
       <use xlink:href="#ArialMT-61"/>
       <use xlink:href="#ArialMT-62" transform="translate(55.615234 0)"/>
       <use xlink:href="#ArialMT-5f" transform="translate(111.230469 0)"/>
       <use xlink:href="#ArialMT-61" transform="translate(166.845703 0)"/>
       <use xlink:href="#ArialMT-6e" transform="translate(222.460938 0)"/>
       <use xlink:href="#ArialMT-74" transform="translate(278.076172 0)"/>
       <use xlink:href="#ArialMT-69" transform="translate(305.859375 0)"/>
      </g>
     </g>
    </g>
    <g id="ytick_6">
     <g id="line2d_23">
      <path d="M 68.445469 335.268676 
L 433.19952 335.268676 
" clip-path="url(#pf8072566b7)" style="fill: none; stroke: #c0c0c0; stroke-width: 0.25; stroke-linecap: round"/>
     </g>
     <g id="line2d_24"/>
     <g id="text_13">
      <!-- me_pres -->
      <g style="fill: #333333" transform="translate(29.932656 338.489692) scale(0.09 -0.09)">
       <defs>
        <path id="ArialMT-73" d="M 197 991 
L 753 1078 
Q 800 744 1014 566 
Q 1228 388 1613 388 
Q 2000 388 2187 545 
Q 2375 703 2375 916 
Q 2375 1106 2209 1216 
Q 2094 1291 1634 1406 
Q 1016 1563 777 1677 
Q 538 1791 414 1992 
Q 291 2194 291 2438 
Q 291 2659 392 2848 
Q 494 3038 669 3163 
Q 800 3259 1026 3326 
Q 1253 3394 1513 3394 
Q 1903 3394 2198 3281 
Q 2494 3169 2634 2976 
Q 2775 2784 2828 2463 
L 2278 2388 
Q 2241 2644 2061 2787 
Q 1881 2931 1553 2931 
Q 1166 2931 1000 2803 
Q 834 2675 834 2503 
Q 834 2394 903 2306 
Q 972 2216 1119 2156 
Q 1203 2125 1616 2013 
Q 2213 1853 2448 1751 
Q 2684 1650 2818 1456 
Q 2953 1263 2953 975 
Q 2953 694 2789 445 
Q 2625 197 2315 61 
Q 2006 -75 1616 -75 
Q 969 -75 630 194 
Q 291 463 197 991 
z
" transform="scale(0.015625)"/>
       </defs>
       <use xlink:href="#ArialMT-6d"/>
       <use xlink:href="#ArialMT-65" transform="translate(83.300781 0)"/>
       <use xlink:href="#ArialMT-5f" transform="translate(138.916016 0)"/>
       <use xlink:href="#ArialMT-70" transform="translate(194.53125 0)"/>
       <use xlink:href="#ArialMT-72" transform="translate(250.146484 0)"/>
       <use xlink:href="#ArialMT-65" transform="translate(283.447266 0)"/>
       <use xlink:href="#ArialMT-73" transform="translate(339.0625 0)"/>
      </g>
     </g>
    </g>
    <g id="ytick_7">
     <g id="line2d_25">
      <path d="M 68.445469 321.838892 
L 433.19952 321.838892 
" clip-path="url(#pf8072566b7)" style="fill: none; stroke: #c0c0c0; stroke-width: 0.25; stroke-linecap: round"/>
     </g>
     <g id="line2d_26"/>
     <g id="text_14">
      <!-- mracehisp -->
      <g style="fill: #333333" transform="translate(23.432969 325.059908) scale(0.09 -0.09)">
       <defs>
        <path id="ArialMT-68" d="M 422 0 
L 422 4581 
L 984 4581 
L 984 2938 
Q 1378 3394 1978 3394 
Q 2347 3394 2619 3248 
Q 2891 3103 3008 2847 
Q 3125 2591 3125 2103 
L 3125 0 
L 2563 0 
L 2563 2103 
Q 2563 2525 2380 2717 
Q 2197 2909 1863 2909 
Q 1613 2909 1392 2779 
Q 1172 2650 1078 2428 
Q 984 2206 984 1816 
L 984 0 
L 422 0 
z
" transform="scale(0.015625)"/>
       </defs>
       <use xlink:href="#ArialMT-6d"/>
       <use xlink:href="#ArialMT-72" transform="translate(83.300781 0)"/>
       <use xlink:href="#ArialMT-61" transform="translate(116.601562 0)"/>
       <use xlink:href="#ArialMT-63" transform="translate(172.216797 0)"/>
       <use xlink:href="#ArialMT-65" transform="translate(222.216797 0)"/>
       <use xlink:href="#ArialMT-68" transform="translate(277.832031 0)"/>
       <use xlink:href="#ArialMT-69" transform="translate(333.447266 0)"/>
       <use xlink:href="#ArialMT-73" transform="translate(355.664062 0)"/>
       <use xlink:href="#ArialMT-70" transform="translate(405.664062 0)"/>
      </g>
     </g>
    </g>
    <g id="ytick_8">
     <g id="line2d_27">
      <path d="M 68.445469 308.409108 
L 433.19952 308.409108 
" clip-path="url(#pf8072566b7)" style="fill: none; stroke: #c0c0c0; stroke-width: 0.25; stroke-linecap: round"/>
     </g>
     <g id="line2d_28"/>
     <g id="text_15">
      <!-- meduc -->
      <g style="fill: #333333" transform="translate(37.934219 311.630124) scale(0.09 -0.09)">
       <defs>
        <path id="ArialMT-64" d="M 2575 0 
L 2575 419 
Q 2259 -75 1647 -75 
Q 1250 -75 917 144 
Q 584 363 401 755 
Q 219 1147 219 1656 
Q 219 2153 384 2558 
Q 550 2963 881 3178 
Q 1213 3394 1622 3394 
Q 1922 3394 2156 3267 
Q 2391 3141 2538 2938 
L 2538 4581 
L 3097 4581 
L 3097 0 
L 2575 0 
z
M 797 1656 
Q 797 1019 1065 703 
Q 1334 388 1700 388 
Q 2069 388 2326 689 
Q 2584 991 2584 1609 
Q 2584 2291 2321 2609 
Q 2059 2928 1675 2928 
Q 1300 2928 1048 2622 
Q 797 2316 797 1656 
z
" transform="scale(0.015625)"/>
        <path id="ArialMT-75" d="M 2597 0 
L 2597 488 
Q 2209 -75 1544 -75 
Q 1250 -75 995 37 
Q 741 150 617 320 
Q 494 491 444 738 
Q 409 903 409 1263 
L 409 3319 
L 972 3319 
L 972 1478 
Q 972 1038 1006 884 
Q 1059 663 1231 536 
Q 1403 409 1656 409 
Q 1909 409 2131 539 
Q 2353 669 2445 892 
Q 2538 1116 2538 1541 
L 2538 3319 
L 3100 3319 
L 3100 0 
L 2597 0 
z
" transform="scale(0.015625)"/>
       </defs>
       <use xlink:href="#ArialMT-6d"/>
       <use xlink:href="#ArialMT-65" transform="translate(83.300781 0)"/>
       <use xlink:href="#ArialMT-64" transform="translate(138.916016 0)"/>
       <use xlink:href="#ArialMT-75" transform="translate(194.53125 0)"/>
       <use xlink:href="#ArialMT-63" transform="translate(250.146484 0)"/>
      </g>
     </g>
    </g>
    <g id="ytick_9">
     <g id="line2d_29">
      <path d="M 68.445469 294.979324 
L 433.19952 294.979324 
" clip-path="url(#pf8072566b7)" style="fill: none; stroke: #c0c0c0; stroke-width: 0.25; stroke-linecap: round"/>
     </g>
     <g id="line2d_30"/>
     <g id="text_16">
      <!-- ab_aven1 -->
      <g style="fill: #333333" transform="translate(25.411563 298.213699) scale(0.09 -0.09)">
       <defs>
        <path id="ArialMT-76" d="M 1344 0 
L 81 3319 
L 675 3319 
L 1388 1331 
Q 1503 1009 1600 663 
Q 1675 925 1809 1294 
L 2547 3319 
L 3125 3319 
L 1869 0 
L 1344 0 
z
" transform="scale(0.015625)"/>
       </defs>
       <use xlink:href="#ArialMT-61"/>
       <use xlink:href="#ArialMT-62" transform="translate(55.615234 0)"/>
       <use xlink:href="#ArialMT-5f" transform="translate(111.230469 0)"/>
       <use xlink:href="#ArialMT-61" transform="translate(166.845703 0)"/>
       <use xlink:href="#ArialMT-76" transform="translate(222.460938 0)"/>
       <use xlink:href="#ArialMT-65" transform="translate(272.460938 0)"/>
       <use xlink:href="#ArialMT-6e" transform="translate(328.076172 0)"/>
       <use xlink:href="#ArialMT-31" transform="translate(383.691406 0)"/>
      </g>
     </g>
    </g>
    <g id="ytick_10">
     <g id="line2d_31">
      <path d="M 68.445469 281.54954 
L 433.19952 281.54954 
" clip-path="url(#pf8072566b7)" style="fill: none; stroke: #c0c0c0; stroke-width: 0.25; stroke-linecap: round"/>
     </g>
     <g id="line2d_32"/>
     <g id="text_17">
      <!-- wtgain -->
      <g style="fill: #333333" transform="translate(38.93125 284.770555) scale(0.09 -0.09)">
       <defs>
        <path id="ArialMT-77" d="M 1034 0 
L 19 3319 
L 600 3319 
L 1128 1403 
L 1325 691 
Q 1338 744 1497 1375 
L 2025 3319 
L 2603 3319 
L 3100 1394 
L 3266 759 
L 3456 1400 
L 4025 3319 
L 4572 3319 
L 3534 0 
L 2950 0 
L 2422 1988 
L 2294 2553 
L 1622 0 
L 1034 0 
z
" transform="scale(0.015625)"/>
       </defs>
       <use xlink:href="#ArialMT-77"/>
       <use xlink:href="#ArialMT-74" transform="translate(72.216797 0)"/>
       <use xlink:href="#ArialMT-67" transform="translate(100 0)"/>
       <use xlink:href="#ArialMT-61" transform="translate(155.615234 0)"/>
       <use xlink:href="#ArialMT-69" transform="translate(211.230469 0)"/>
       <use xlink:href="#ArialMT-6e" transform="translate(233.447266 0)"/>
      </g>
     </g>
    </g>
    <g id="ytick_11">
     <g id="line2d_33">
      <path d="M 68.445469 268.119756 
L 433.19952 268.119756 
" clip-path="url(#pf8072566b7)" style="fill: none; stroke: #c0c0c0; stroke-width: 0.25; stroke-linecap: round"/>
     </g>
     <g id="line2d_34"/>
     <g id="text_18">
      <!-- dmeth_rec -->
      <g style="fill: #333333" transform="translate(22.4275 271.340771) scale(0.09 -0.09)">
       <use xlink:href="#ArialMT-64"/>
       <use xlink:href="#ArialMT-6d" transform="translate(55.615234 0)"/>
       <use xlink:href="#ArialMT-65" transform="translate(138.916016 0)"/>
       <use xlink:href="#ArialMT-74" transform="translate(194.53125 0)"/>
       <use xlink:href="#ArialMT-68" transform="translate(222.314453 0)"/>
       <use xlink:href="#ArialMT-5f" transform="translate(277.929688 0)"/>
       <use xlink:href="#ArialMT-72" transform="translate(333.544922 0)"/>
       <use xlink:href="#ArialMT-65" transform="translate(366.845703 0)"/>
       <use xlink:href="#ArialMT-63" transform="translate(422.460938 0)"/>
      </g>
     </g>
    </g>
    <g id="ytick_12">
     <g id="line2d_35">
      <path d="M 68.445469 254.689972 
L 433.19952 254.689972 
" clip-path="url(#pf8072566b7)" style="fill: none; stroke: #c0c0c0; stroke-width: 0.25; stroke-linecap: round"/>
     </g>
     <g id="line2d_36"/>
     <g id="text_19">
      <!-- gestrec10 -->
      <g style="fill: #333333" transform="translate(25.424219 257.924347) scale(0.09 -0.09)">
       <use xlink:href="#ArialMT-67"/>
       <use xlink:href="#ArialMT-65" transform="translate(55.615234 0)"/>
       <use xlink:href="#ArialMT-73" transform="translate(111.230469 0)"/>
       <use xlink:href="#ArialMT-74" transform="translate(161.230469 0)"/>
       <use xlink:href="#ArialMT-72" transform="translate(189.013672 0)"/>
       <use xlink:href="#ArialMT-65" transform="translate(222.314453 0)"/>
       <use xlink:href="#ArialMT-63" transform="translate(277.929688 0)"/>
       <use xlink:href="#ArialMT-31" transform="translate(327.929688 0)"/>
       <use xlink:href="#ArialMT-30" transform="translate(383.544922 0)"/>
      </g>
     </g>
    </g>
    <g id="ytick_13">
     <g id="line2d_37">
      <path d="M 68.445469 241.260188 
L 433.19952 241.260188 
" clip-path="url(#pf8072566b7)" style="fill: none; stroke: #c0c0c0; stroke-width: 0.25; stroke-linecap: round"/>
     </g>
     <g id="line2d_38"/>
     <g id="text_20">
      <!-- no_abnorm -->
      <g style="fill: #333333" transform="translate(19.418125 244.481203) scale(0.09 -0.09)">
       <defs>
        <path id="ArialMT-6f" d="M 213 1659 
Q 213 2581 725 3025 
Q 1153 3394 1769 3394 
Q 2453 3394 2887 2945 
Q 3322 2497 3322 1706 
Q 3322 1066 3130 698 
Q 2938 331 2570 128 
Q 2203 -75 1769 -75 
Q 1072 -75 642 372 
Q 213 819 213 1659 
z
M 791 1659 
Q 791 1022 1069 705 
Q 1347 388 1769 388 
Q 2188 388 2466 706 
Q 2744 1025 2744 1678 
Q 2744 2294 2464 2611 
Q 2184 2928 1769 2928 
Q 1347 2928 1069 2612 
Q 791 2297 791 1659 
z
" transform="scale(0.015625)"/>
       </defs>
       <use xlink:href="#ArialMT-6e"/>
       <use xlink:href="#ArialMT-6f" transform="translate(55.615234 0)"/>
       <use xlink:href="#ArialMT-5f" transform="translate(111.230469 0)"/>
       <use xlink:href="#ArialMT-61" transform="translate(166.845703 0)"/>
       <use xlink:href="#ArialMT-62" transform="translate(222.460938 0)"/>
       <use xlink:href="#ArialMT-6e" transform="translate(278.076172 0)"/>
       <use xlink:href="#ArialMT-6f" transform="translate(333.691406 0)"/>
       <use xlink:href="#ArialMT-72" transform="translate(389.306641 0)"/>
       <use xlink:href="#ArialMT-6d" transform="translate(422.607422 0)"/>
      </g>
     </g>
    </g>
    <g id="ytick_14">
     <g id="line2d_39">
      <path d="M 68.445469 227.830403 
L 433.19952 227.830403 
" clip-path="url(#pf8072566b7)" style="fill: none; stroke: #c0c0c0; stroke-width: 0.25; stroke-linecap: round"/>
     </g>
     <g id="line2d_40"/>
     <g id="text_21">
      <!-- dbwt -->
      <g style="fill: #333333" transform="translate(45.935781 231.051419) scale(0.09 -0.09)">
       <use xlink:href="#ArialMT-64"/>
       <use xlink:href="#ArialMT-62" transform="translate(55.615234 0)"/>
       <use xlink:href="#ArialMT-77" transform="translate(111.230469 0)"/>
       <use xlink:href="#ArialMT-74" transform="translate(183.447266 0)"/>
      </g>
     </g>
    </g>
    <g id="ytick_15">
     <g id="line2d_41">
      <path d="M 68.445469 214.400619 
L 433.19952 214.400619 
" clip-path="url(#pf8072566b7)" style="fill: none; stroke: #c0c0c0; stroke-width: 0.25; stroke-linecap: round"/>
     </g>
     <g id="line2d_42"/>
     <g id="text_22">
      <!-- ab_nicu -->
      <g style="fill: #333333" transform="translate(33.421563 217.621635) scale(0.09 -0.09)">
       <use xlink:href="#ArialMT-61"/>
       <use xlink:href="#ArialMT-62" transform="translate(55.615234 0)"/>
       <use xlink:href="#ArialMT-5f" transform="translate(111.230469 0)"/>
       <use xlink:href="#ArialMT-6e" transform="translate(166.845703 0)"/>
       <use xlink:href="#ArialMT-69" transform="translate(222.460938 0)"/>
       <use xlink:href="#ArialMT-63" transform="translate(244.677734 0)"/>
       <use xlink:href="#ArialMT-75" transform="translate(294.677734 0)"/>
      </g>
     </g>
    </g>
    <g id="ytick_16">
     <g id="line2d_43">
      <path d="M 68.445469 200.970835 
L 433.19952 200.970835 
" clip-path="url(#pf8072566b7)" style="fill: none; stroke: #c0c0c0; stroke-width: 0.25; stroke-linecap: round"/>
     </g>
     <g id="line2d_44"/>
     <g id="text_23">
      <!-- mage_c -->
      <g style="fill: #333333" transform="translate(32.929375 204.139117) scale(0.09 -0.09)">
       <use xlink:href="#ArialMT-6d"/>
       <use xlink:href="#ArialMT-61" transform="translate(83.300781 0)"/>
       <use xlink:href="#ArialMT-67" transform="translate(138.916016 0)"/>
       <use xlink:href="#ArialMT-65" transform="translate(194.53125 0)"/>
       <use xlink:href="#ArialMT-5f" transform="translate(250.146484 0)"/>
       <use xlink:href="#ArialMT-63" transform="translate(305.761719 0)"/>
      </g>
     </g>
    </g>
    <g id="ytick_17">
     <g id="line2d_45">
      <path d="M 68.445469 187.541051 
L 433.19952 187.541051 
" clip-path="url(#pf8072566b7)" style="fill: none; stroke: #c0c0c0; stroke-width: 0.25; stroke-linecap: round"/>
     </g>
     <g id="line2d_46"/>
     <g id="text_24">
      <!-- year -->
      <g style="fill: #333333" transform="translate(47.439063 190.709332) scale(0.09 -0.09)">
       <defs>
        <path id="ArialMT-79" d="M 397 -1278 
L 334 -750 
Q 519 -800 656 -800 
Q 844 -800 956 -737 
Q 1069 -675 1141 -563 
Q 1194 -478 1313 -144 
Q 1328 -97 1363 -6 
L 103 3319 
L 709 3319 
L 1400 1397 
Q 1534 1031 1641 628 
Q 1738 1016 1872 1384 
L 2581 3319 
L 3144 3319 
L 1881 -56 
Q 1678 -603 1566 -809 
Q 1416 -1088 1222 -1217 
Q 1028 -1347 759 -1347 
Q 597 -1347 397 -1278 
z
" transform="scale(0.015625)"/>
       </defs>
       <use xlink:href="#ArialMT-79"/>
       <use xlink:href="#ArialMT-65" transform="translate(50 0)"/>
       <use xlink:href="#ArialMT-61" transform="translate(105.615234 0)"/>
       <use xlink:href="#ArialMT-72" transform="translate(161.230469 0)"/>
      </g>
     </g>
    </g>
    <g id="ytick_18">
     <g id="line2d_47">
      <path d="M 68.445469 174.111267 
L 433.19952 174.111267 
" clip-path="url(#pf8072566b7)" style="fill: none; stroke: #c0c0c0; stroke-width: 0.25; stroke-linecap: round"/>
     </g>
     <g id="line2d_48"/>
     <g id="text_25">
      <!-- ca_anen -->
      <g style="fill: #333333" transform="translate(30.416406 177.332283) scale(0.09 -0.09)">
       <use xlink:href="#ArialMT-63"/>
       <use xlink:href="#ArialMT-61" transform="translate(50 0)"/>
       <use xlink:href="#ArialMT-5f" transform="translate(105.615234 0)"/>
       <use xlink:href="#ArialMT-61" transform="translate(161.230469 0)"/>
       <use xlink:href="#ArialMT-6e" transform="translate(216.845703 0)"/>
       <use xlink:href="#ArialMT-65" transform="translate(272.460938 0)"/>
       <use xlink:href="#ArialMT-6e" transform="translate(328.076172 0)"/>
      </g>
     </g>
    </g>
    <g id="ytick_19">
     <g id="line2d_49">
      <path d="M 68.445469 160.681483 
L 433.19952 160.681483 
" clip-path="url(#pf8072566b7)" style="fill: none; stroke: #c0c0c0; stroke-width: 0.25; stroke-linecap: round"/>
     </g>
     <g id="line2d_50"/>
     <g id="text_26">
      <!-- ca_gast -->
      <g style="fill: #333333" transform="translate(33.425781 163.849764) scale(0.09 -0.09)">
       <use xlink:href="#ArialMT-63"/>
       <use xlink:href="#ArialMT-61" transform="translate(50 0)"/>
       <use xlink:href="#ArialMT-5f" transform="translate(105.615234 0)"/>
       <use xlink:href="#ArialMT-67" transform="translate(161.230469 0)"/>
       <use xlink:href="#ArialMT-61" transform="translate(216.845703 0)"/>
       <use xlink:href="#ArialMT-73" transform="translate(272.460938 0)"/>
       <use xlink:href="#ArialMT-74" transform="translate(322.460938 0)"/>
      </g>
     </g>
    </g>
    <g id="ytick_20">
     <g id="line2d_51">
      <path d="M 68.445469 147.251699 
L 433.19952 147.251699 
" clip-path="url(#pf8072566b7)" style="fill: none; stroke: #c0c0c0; stroke-width: 0.25; stroke-linecap: round"/>
     </g>
     <g id="line2d_52"/>
     <g id="text_27">
      <!-- ca_limb -->
      <g style="fill: #333333" transform="translate(33.934844 150.472715) scale(0.09 -0.09)">
       <use xlink:href="#ArialMT-63"/>
       <use xlink:href="#ArialMT-61" transform="translate(50 0)"/>
       <use xlink:href="#ArialMT-5f" transform="translate(105.615234 0)"/>
       <use xlink:href="#ArialMT-6c" transform="translate(161.230469 0)"/>
       <use xlink:href="#ArialMT-69" transform="translate(183.447266 0)"/>
       <use xlink:href="#ArialMT-6d" transform="translate(205.664062 0)"/>
       <use xlink:href="#ArialMT-62" transform="translate(288.964844 0)"/>
      </g>
     </g>
    </g>
    <g id="ytick_21">
     <g id="line2d_53">
      <path d="M 68.445469 133.821915 
L 433.19952 133.821915 
" clip-path="url(#pf8072566b7)" style="fill: none; stroke: #c0c0c0; stroke-width: 0.25; stroke-linecap: round"/>
     </g>
     <g id="line2d_54"/>
     <g id="text_28">
      <!-- ca_cdh -->
      <g style="fill: #333333" transform="translate(35.926094 137.04293) scale(0.09 -0.09)">
       <use xlink:href="#ArialMT-63"/>
       <use xlink:href="#ArialMT-61" transform="translate(50 0)"/>
       <use xlink:href="#ArialMT-5f" transform="translate(105.615234 0)"/>
       <use xlink:href="#ArialMT-63" transform="translate(161.230469 0)"/>
       <use xlink:href="#ArialMT-64" transform="translate(211.230469 0)"/>
       <use xlink:href="#ArialMT-68" transform="translate(266.845703 0)"/>
      </g>
     </g>
    </g>
    <g id="ytick_22">
     <g id="line2d_55">
      <path d="M 68.445469 120.392131 
L 433.19952 120.392131 
" clip-path="url(#pf8072566b7)" style="fill: none; stroke: #c0c0c0; stroke-width: 0.25; stroke-linecap: round"/>
     </g>
     <g id="line2d_56"/>
     <g id="text_29">
      <!-- ca_mnsb -->
      <g style="fill: #333333" transform="translate(28.429375 123.613146) scale(0.09 -0.09)">
       <use xlink:href="#ArialMT-63"/>
       <use xlink:href="#ArialMT-61" transform="translate(50 0)"/>
       <use xlink:href="#ArialMT-5f" transform="translate(105.615234 0)"/>
       <use xlink:href="#ArialMT-6d" transform="translate(161.230469 0)"/>
       <use xlink:href="#ArialMT-6e" transform="translate(244.53125 0)"/>
       <use xlink:href="#ArialMT-73" transform="translate(300.146484 0)"/>
       <use xlink:href="#ArialMT-62" transform="translate(350.146484 0)"/>
      </g>
     </g>
    </g>
    <g id="ytick_23">
     <g id="line2d_57">
      <path d="M 68.445469 106.962347 
L 433.19952 106.962347 
" clip-path="url(#pf8072566b7)" style="fill: none; stroke: #c0c0c0; stroke-width: 0.25; stroke-linecap: round"/>
     </g>
     <g id="line2d_58"/>
     <g id="text_30">
      <!-- ca_clpal -->
      <g style="fill: #333333" transform="translate(31.926719 110.183362) scale(0.09 -0.09)">
       <use xlink:href="#ArialMT-63"/>
       <use xlink:href="#ArialMT-61" transform="translate(50 0)"/>
       <use xlink:href="#ArialMT-5f" transform="translate(105.615234 0)"/>
       <use xlink:href="#ArialMT-63" transform="translate(161.230469 0)"/>
       <use xlink:href="#ArialMT-6c" transform="translate(211.230469 0)"/>
       <use xlink:href="#ArialMT-70" transform="translate(233.447266 0)"/>
       <use xlink:href="#ArialMT-61" transform="translate(289.0625 0)"/>
       <use xlink:href="#ArialMT-6c" transform="translate(344.677734 0)"/>
      </g>
     </g>
    </g>
    <g id="ytick_24">
     <g id="line2d_59">
      <path d="M 68.445469 93.532563 
L 433.19952 93.532563 
" clip-path="url(#pf8072566b7)" style="fill: none; stroke: #c0c0c0; stroke-width: 0.25; stroke-linecap: round"/>
     </g>
     <g id="line2d_60"/>
     <g id="text_31">
      <!-- ca_omph -->
      <g style="fill: #333333" transform="translate(27.924531 96.753578) scale(0.09 -0.09)">
       <use xlink:href="#ArialMT-63"/>
       <use xlink:href="#ArialMT-61" transform="translate(50 0)"/>
       <use xlink:href="#ArialMT-5f" transform="translate(105.615234 0)"/>
       <use xlink:href="#ArialMT-6f" transform="translate(161.230469 0)"/>
       <use xlink:href="#ArialMT-6d" transform="translate(216.845703 0)"/>
       <use xlink:href="#ArialMT-70" transform="translate(300.146484 0)"/>
       <use xlink:href="#ArialMT-68" transform="translate(355.761719 0)"/>
      </g>
     </g>
    </g>
    <g id="ytick_25">
     <g id="line2d_61">
      <path d="M 68.445469 80.102778 
L 433.19952 80.102778 
" clip-path="url(#pf8072566b7)" style="fill: none; stroke: #c0c0c0; stroke-width: 0.25; stroke-linecap: round"/>
     </g>
     <g id="line2d_62"/>
     <g id="text_32">
      <!-- ca_hypo -->
      <g style="fill: #333333" transform="translate(30.92125 83.323794) scale(0.09 -0.09)">
       <use xlink:href="#ArialMT-63"/>
       <use xlink:href="#ArialMT-61" transform="translate(50 0)"/>
       <use xlink:href="#ArialMT-5f" transform="translate(105.615234 0)"/>
       <use xlink:href="#ArialMT-68" transform="translate(161.230469 0)"/>
       <use xlink:href="#ArialMT-79" transform="translate(216.845703 0)"/>
       <use xlink:href="#ArialMT-70" transform="translate(266.845703 0)"/>
       <use xlink:href="#ArialMT-6f" transform="translate(322.460938 0)"/>
      </g>
     </g>
    </g>
    <g id="ytick_26">
     <g id="line2d_63">
      <path d="M 68.445469 66.672994 
L 433.19952 66.672994 
" clip-path="url(#pf8072566b7)" style="fill: none; stroke: #c0c0c0; stroke-width: 0.25; stroke-linecap: round"/>
     </g>
     <g id="line2d_64"/>
     <g id="text_33">
      <!-- ca_cleft -->
      <g style="fill: #333333" transform="translate(33.930625 69.948854) scale(0.09 -0.09)">
       <use xlink:href="#ArialMT-63"/>
       <use xlink:href="#ArialMT-61" transform="translate(50 0)"/>
       <use xlink:href="#ArialMT-5f" transform="translate(105.615234 0)"/>
       <use xlink:href="#ArialMT-63" transform="translate(161.230469 0)"/>
       <use xlink:href="#ArialMT-6c" transform="translate(211.230469 0)"/>
       <use xlink:href="#ArialMT-65" transform="translate(233.447266 0)"/>
       <use xlink:href="#ArialMT-66" transform="translate(289.0625 0)"/>
       <use xlink:href="#ArialMT-74" transform="translate(316.845703 0)"/>
      </g>
     </g>
    </g>
    <g id="ytick_27">
     <g id="line2d_65">
      <path d="M 68.445469 53.24321 
L 433.19952 53.24321 
" clip-path="url(#pf8072566b7)" style="fill: none; stroke: #c0c0c0; stroke-width: 0.25; stroke-linecap: round"/>
     </g>
     <g id="line2d_66"/>
     <g id="text_34">
      <!-- ca_disor -->
      <g style="fill: #333333" transform="translate(30.929688 56.464226) scale(0.09 -0.09)">
       <use xlink:href="#ArialMT-63"/>
       <use xlink:href="#ArialMT-61" transform="translate(50 0)"/>
       <use xlink:href="#ArialMT-5f" transform="translate(105.615234 0)"/>
       <use xlink:href="#ArialMT-64" transform="translate(161.230469 0)"/>
       <use xlink:href="#ArialMT-69" transform="translate(216.845703 0)"/>
       <use xlink:href="#ArialMT-73" transform="translate(239.0625 0)"/>
       <use xlink:href="#ArialMT-6f" transform="translate(289.0625 0)"/>
       <use xlink:href="#ArialMT-72" transform="translate(344.677734 0)"/>
      </g>
     </g>
    </g>
    <g id="ytick_28">
     <g id="line2d_67">
      <path d="M 68.445469 39.813426 
L 433.19952 39.813426 
" clip-path="url(#pf8072566b7)" style="fill: none; stroke: #c0c0c0; stroke-width: 0.25; stroke-linecap: round"/>
     </g>
     <g id="line2d_68"/>
     <g id="text_35">
      <!-- ca_cchd -->
      <g style="fill: #333333" transform="translate(31.426094 43.034442) scale(0.09 -0.09)">
       <use xlink:href="#ArialMT-63"/>
       <use xlink:href="#ArialMT-61" transform="translate(50 0)"/>
       <use xlink:href="#ArialMT-5f" transform="translate(105.615234 0)"/>
       <use xlink:href="#ArialMT-63" transform="translate(161.230469 0)"/>
       <use xlink:href="#ArialMT-63" transform="translate(211.230469 0)"/>
       <use xlink:href="#ArialMT-68" transform="translate(261.230469 0)"/>
       <use xlink:href="#ArialMT-64" transform="translate(316.845703 0)"/>
      </g>
     </g>
    </g>
    <g id="ytick_29">
     <g id="line2d_69">
      <path d="M 68.445469 26.383642 
L 433.19952 26.383642 
" clip-path="url(#pf8072566b7)" style="fill: none; stroke: #c0c0c0; stroke-width: 0.25; stroke-linecap: round"/>
     </g>
     <g id="line2d_70"/>
     <g id="text_36">
      <!-- no_congen -->
      <g style="fill: #333333" transform="translate(20.406719 29.551923) scale(0.09 -0.09)">
       <use xlink:href="#ArialMT-6e"/>
       <use xlink:href="#ArialMT-6f" transform="translate(55.615234 0)"/>
       <use xlink:href="#ArialMT-5f" transform="translate(111.230469 0)"/>
       <use xlink:href="#ArialMT-63" transform="translate(166.845703 0)"/>
       <use xlink:href="#ArialMT-6f" transform="translate(216.845703 0)"/>
       <use xlink:href="#ArialMT-6e" transform="translate(272.460938 0)"/>
       <use xlink:href="#ArialMT-67" transform="translate(328.076172 0)"/>
       <use xlink:href="#ArialMT-65" transform="translate(383.691406 0)"/>
       <use xlink:href="#ArialMT-6e" transform="translate(439.306641 0)"/>
      </g>
     </g>
    </g>
    <g id="text_37">
     <!-- Predictor variable -->
     <g style="fill: #333333" transform="translate(13.642031 252.415776) rotate(-90) scale(0.09 -0.09)">
      <defs>
       <path id="Arial-BoldMT-50" d="M 466 0 
L 466 4581 
L 1950 4581 
Q 2794 4581 3050 4513 
Q 3444 4409 3709 4064 
Q 3975 3719 3975 3172 
Q 3975 2750 3822 2462 
Q 3669 2175 3433 2011 
Q 3197 1847 2953 1794 
Q 2622 1728 1994 1728 
L 1391 1728 
L 1391 0 
L 466 0 
z
M 1391 3806 
L 1391 2506 
L 1897 2506 
Q 2444 2506 2628 2578 
Q 2813 2650 2917 2803 
Q 3022 2956 3022 3159 
Q 3022 3409 2875 3571 
Q 2728 3734 2503 3775 
Q 2338 3806 1838 3806 
L 1391 3806 
z
" transform="scale(0.015625)"/>
       <path id="Arial-BoldMT-64" d="M 3503 0 
L 2688 0 
L 2688 488 
Q 2484 203 2207 64 
Q 1931 -75 1650 -75 
Q 1078 -75 670 386 
Q 263 847 263 1672 
Q 263 2516 659 2955 
Q 1056 3394 1663 3394 
Q 2219 3394 2625 2931 
L 2625 4581 
L 3503 4581 
L 3503 0 
z
M 1159 1731 
Q 1159 1200 1306 963 
Q 1519 619 1900 619 
Q 2203 619 2415 876 
Q 2628 1134 2628 1647 
Q 2628 2219 2422 2470 
Q 2216 2722 1894 2722 
Q 1581 2722 1370 2473 
Q 1159 2225 1159 1731 
z
" transform="scale(0.015625)"/>
       <path id="Arial-BoldMT-74" d="M 1981 3319 
L 1981 2619 
L 1381 2619 
L 1381 1281 
Q 1381 875 1398 808 
Q 1416 741 1477 697 
Q 1538 653 1625 653 
Q 1747 653 1978 738 
L 2053 56 
Q 1747 -75 1359 -75 
Q 1122 -75 931 4 
Q 741 84 652 211 
Q 563 338 528 553 
Q 500 706 500 1172 
L 500 2619 
L 97 2619 
L 97 3319 
L 500 3319 
L 500 3978 
L 1381 4491 
L 1381 3319 
L 1981 3319 
z
" transform="scale(0.015625)"/>
       <path id="Arial-BoldMT-76" d="M 1372 0 
L 34 3319 
L 956 3319 
L 1581 1625 
L 1763 1059 
Q 1834 1275 1853 1344 
Q 1897 1484 1947 1625 
L 2578 3319 
L 3481 3319 
L 2163 0 
L 1372 0 
z
" transform="scale(0.015625)"/>
       <path id="Arial-BoldMT-62" d="M 422 0 
L 422 4581 
L 1300 4581 
L 1300 2931 
Q 1706 3394 2263 3394 
Q 2869 3394 3266 2955 
Q 3663 2516 3663 1694 
Q 3663 844 3258 384 
Q 2853 -75 2275 -75 
Q 1991 -75 1714 67 
Q 1438 209 1238 488 
L 1238 0 
L 422 0 
z
M 1294 1731 
Q 1294 1216 1456 969 
Q 1684 619 2063 619 
Q 2353 619 2558 867 
Q 2763 1116 2763 1650 
Q 2763 2219 2556 2470 
Q 2350 2722 2028 2722 
Q 1713 2722 1503 2476 
Q 1294 2231 1294 1731 
z
" transform="scale(0.015625)"/>
       <path id="Arial-BoldMT-6c" d="M 459 0 
L 459 4581 
L 1338 4581 
L 1338 0 
L 459 0 
z
" transform="scale(0.015625)"/>
      </defs>
      <use xlink:href="#Arial-BoldMT-50"/>
      <use xlink:href="#Arial-BoldMT-72" transform="translate(66.699219 0)"/>
      <use xlink:href="#Arial-BoldMT-65" transform="translate(105.615234 0)"/>
      <use xlink:href="#Arial-BoldMT-64" transform="translate(161.230469 0)"/>
      <use xlink:href="#Arial-BoldMT-69" transform="translate(222.314453 0)"/>
      <use xlink:href="#Arial-BoldMT-63" transform="translate(250.097656 0)"/>
      <use xlink:href="#Arial-BoldMT-74" transform="translate(305.712891 0)"/>
      <use xlink:href="#Arial-BoldMT-6f" transform="translate(339.013672 0)"/>
      <use xlink:href="#Arial-BoldMT-72" transform="translate(400.097656 0)"/>
      <use xlink:href="#Arial-BoldMT-20" transform="translate(439.013672 0)"/>
      <use xlink:href="#Arial-BoldMT-76" transform="translate(466.796875 0)"/>
      <use xlink:href="#Arial-BoldMT-61" transform="translate(522.412109 0)"/>
      <use xlink:href="#Arial-BoldMT-72" transform="translate(578.027344 0)"/>
      <use xlink:href="#Arial-BoldMT-69" transform="translate(616.943359 0)"/>
      <use xlink:href="#Arial-BoldMT-61" transform="translate(644.726562 0)"/>
      <use xlink:href="#Arial-BoldMT-62" transform="translate(700.341797 0)"/>
      <use xlink:href="#Arial-BoldMT-6c" transform="translate(761.425781 0)"/>
      <use xlink:href="#Arial-BoldMT-65" transform="translate(789.208984 0)"/>
     </g>
    </g>
   </g>
   <g id="line2d_71">
    <path d="M 85.086684 405.775043 
L 85.086684 399.060151 
L 85.169186 399.060151 
L 85.169186 405.775043 
L 85.086684 405.775043 
" clip-path="url(#pf8072566b7)" style="fill: none; stroke: #1f77b4; stroke-linecap: round"/>
   </g>
   <g id="line2d_72">
    <path d="M 85.086684 402.417597 
L 85.025198 402.417597 
" clip-path="url(#pf8072566b7)" style="fill: none; stroke: #1f77b4; stroke-linecap: round"/>
   </g>
   <g id="line2d_73">
    <path d="M 85.169186 402.417597 
L 85.299627 402.417597 
" clip-path="url(#pf8072566b7)" style="fill: none; stroke: #1f77b4; stroke-linecap: round"/>
   </g>
   <g id="line2d_74">
    <path d="M 85.025198 404.09632 
L 85.025198 400.738874 
" clip-path="url(#pf8072566b7)" style="fill: none; stroke: #1f77b4; stroke-linecap: round"/>
   </g>
   <g id="line2d_75">
    <path d="M 85.299627 404.09632 
L 85.299627 400.738874 
" clip-path="url(#pf8072566b7)" style="fill: none; stroke: #1f77b4; stroke-linecap: round"/>
   </g>
   <g id="line2d_76"/>
   <g id="line2d_77">
    <path d="M 85.160405 392.345259 
L 85.160405 385.630367 
L 85.265156 385.630367 
L 85.265156 392.345259 
L 85.160405 392.345259 
" clip-path="url(#pf8072566b7)" style="fill: none; stroke: #1f77b4; stroke-linecap: round"/>
   </g>
   <g id="line2d_78">
    <path d="M 85.160405 388.987813 
L 85.092797 388.987813 
" clip-path="url(#pf8072566b7)" style="fill: none; stroke: #1f77b4; stroke-linecap: round"/>
   </g>
   <g id="line2d_79">
    <path d="M 85.265156 388.987813 
L 85.396682 388.987813 
" clip-path="url(#pf8072566b7)" style="fill: none; stroke: #1f77b4; stroke-linecap: round"/>
   </g>
   <g id="line2d_80">
    <path d="M 85.092797 390.666536 
L 85.092797 387.30909 
" clip-path="url(#pf8072566b7)" style="fill: none; stroke: #1f77b4; stroke-linecap: round"/>
   </g>
   <g id="line2d_81">
    <path d="M 85.396682 390.666536 
L 85.396682 387.30909 
" clip-path="url(#pf8072566b7)" style="fill: none; stroke: #1f77b4; stroke-linecap: round"/>
   </g>
   <g id="line2d_82"/>
   <g id="line2d_83">
    <path d="M 85.201608 378.915475 
L 85.201608 372.200582 
L 85.262359 372.200582 
L 85.262359 378.915475 
L 85.201608 378.915475 
" clip-path="url(#pf8072566b7)" style="fill: none; stroke: #1f77b4; stroke-linecap: round"/>
   </g>
   <g id="line2d_84">
    <path d="M 85.201608 375.558029 
L 85.128042 375.558029 
" clip-path="url(#pf8072566b7)" style="fill: none; stroke: #1f77b4; stroke-linecap: round"/>
   </g>
   <g id="line2d_85">
    <path d="M 85.262359 375.558029 
L 85.376342 375.558029 
" clip-path="url(#pf8072566b7)" style="fill: none; stroke: #1f77b4; stroke-linecap: round"/>
   </g>
   <g id="line2d_86">
    <path d="M 85.128042 377.236752 
L 85.128042 373.879306 
" clip-path="url(#pf8072566b7)" style="fill: none; stroke: #1f77b4; stroke-linecap: round"/>
   </g>
   <g id="line2d_87">
    <path d="M 85.376342 377.236752 
L 85.376342 373.879306 
" clip-path="url(#pf8072566b7)" style="fill: none; stroke: #1f77b4; stroke-linecap: round"/>
   </g>
   <g id="line2d_88"/>
   <g id="line2d_89">
    <path d="M 85.219501 365.48569 
L 85.219501 358.770798 
L 85.319423 358.770798 
L 85.319423 365.48569 
L 85.219501 365.48569 
" clip-path="url(#pf8072566b7)" style="fill: none; stroke: #1f77b4; stroke-linecap: round"/>
   </g>
   <g id="line2d_90">
    <path d="M 85.219501 362.128244 
L 85.106252 362.128244 
" clip-path="url(#pf8072566b7)" style="fill: none; stroke: #1f77b4; stroke-linecap: round"/>
   </g>
   <g id="line2d_91">
    <path d="M 85.319423 362.128244 
L 85.358672 362.128244 
" clip-path="url(#pf8072566b7)" style="fill: none; stroke: #1f77b4; stroke-linecap: round"/>
   </g>
   <g id="line2d_92">
    <path d="M 85.106252 363.806967 
L 85.106252 360.449521 
" clip-path="url(#pf8072566b7)" style="fill: none; stroke: #1f77b4; stroke-linecap: round"/>
   </g>
   <g id="line2d_93">
    <path d="M 85.358672 363.806967 
L 85.358672 360.449521 
" clip-path="url(#pf8072566b7)" style="fill: none; stroke: #1f77b4; stroke-linecap: round"/>
   </g>
   <g id="line2d_94"/>
   <g id="line2d_95">
    <path d="M 85.220436 352.055906 
L 85.220436 345.341014 
L 85.331034 345.341014 
L 85.331034 352.055906 
L 85.220436 352.055906 
" clip-path="url(#pf8072566b7)" style="fill: none; stroke: #1f77b4; stroke-linecap: round"/>
   </g>
   <g id="line2d_96">
    <path d="M 85.220436 348.69846 
L 85.105469 348.69846 
" clip-path="url(#pf8072566b7)" style="fill: none; stroke: #1f77b4; stroke-linecap: round"/>
   </g>
   <g id="line2d_97">
    <path d="M 85.331034 348.69846 
L 85.39958 348.69846 
" clip-path="url(#pf8072566b7)" style="fill: none; stroke: #1f77b4; stroke-linecap: round"/>
   </g>
   <g id="line2d_98">
    <path d="M 85.105469 350.377183 
L 85.105469 347.019737 
" clip-path="url(#pf8072566b7)" style="fill: none; stroke: #1f77b4; stroke-linecap: round"/>
   </g>
   <g id="line2d_99">
    <path d="M 85.39958 350.377183 
L 85.39958 347.019737 
" clip-path="url(#pf8072566b7)" style="fill: none; stroke: #1f77b4; stroke-linecap: round"/>
   </g>
   <g id="line2d_100"/>
   <g id="line2d_101">
    <path d="M 85.28731 338.626122 
L 85.28731 331.91123 
L 85.357203 331.91123 
L 85.357203 338.626122 
L 85.28731 338.626122 
" clip-path="url(#pf8072566b7)" style="fill: none; stroke: #1f77b4; stroke-linecap: round"/>
   </g>
   <g id="line2d_102">
    <path d="M 85.28731 335.268676 
L 85.138464 335.268676 
" clip-path="url(#pf8072566b7)" style="fill: none; stroke: #1f77b4; stroke-linecap: round"/>
   </g>
   <g id="line2d_103">
    <path d="M 85.357203 335.268676 
L 85.431561 335.268676 
" clip-path="url(#pf8072566b7)" style="fill: none; stroke: #1f77b4; stroke-linecap: round"/>
   </g>
   <g id="line2d_104">
    <path d="M 85.138464 336.947399 
L 85.138464 333.589953 
" clip-path="url(#pf8072566b7)" style="fill: none; stroke: #1f77b4; stroke-linecap: round"/>
   </g>
   <g id="line2d_105">
    <path d="M 85.431561 336.947399 
L 85.431561 333.589953 
" clip-path="url(#pf8072566b7)" style="fill: none; stroke: #1f77b4; stroke-linecap: round"/>
   </g>
   <g id="line2d_106"/>
   <g id="line2d_107">
    <path d="M 85.258568 325.196338 
L 85.258568 318.481446 
L 85.39359 318.481446 
L 85.39359 325.196338 
L 85.258568 325.196338 
" clip-path="url(#pf8072566b7)" style="fill: none; stroke: #1f77b4; stroke-linecap: round"/>
   </g>
   <g id="line2d_108">
    <path d="M 85.258568 321.838892 
L 85.045584 321.838892 
" clip-path="url(#pf8072566b7)" style="fill: none; stroke: #1f77b4; stroke-linecap: round"/>
   </g>
   <g id="line2d_109">
    <path d="M 85.39359 321.838892 
L 85.53696 321.838892 
" clip-path="url(#pf8072566b7)" style="fill: none; stroke: #1f77b4; stroke-linecap: round"/>
   </g>
   <g id="line2d_110">
    <path d="M 85.045584 323.517615 
L 85.045584 320.160169 
" clip-path="url(#pf8072566b7)" style="fill: none; stroke: #1f77b4; stroke-linecap: round"/>
   </g>
   <g id="line2d_111">
    <path d="M 85.53696 323.517615 
L 85.53696 320.160169 
" clip-path="url(#pf8072566b7)" style="fill: none; stroke: #1f77b4; stroke-linecap: round"/>
   </g>
   <g id="line2d_112"/>
   <g id="line2d_113">
    <path d="M 85.333587 311.766554 
L 85.333587 305.051662 
L 85.414809 305.051662 
L 85.414809 311.766554 
L 85.333587 311.766554 
" clip-path="url(#pf8072566b7)" style="fill: none; stroke: #1f77b4; stroke-linecap: round"/>
   </g>
   <g id="line2d_114">
    <path d="M 85.333587 308.409108 
L 85.247029 308.409108 
" clip-path="url(#pf8072566b7)" style="fill: none; stroke: #1f77b4; stroke-linecap: round"/>
   </g>
   <g id="line2d_115">
    <path d="M 85.414809 308.409108 
L 85.544076 308.409108 
" clip-path="url(#pf8072566b7)" style="fill: none; stroke: #1f77b4; stroke-linecap: round"/>
   </g>
   <g id="line2d_116">
    <path d="M 85.247029 310.087831 
L 85.247029 306.730385 
" clip-path="url(#pf8072566b7)" style="fill: none; stroke: #1f77b4; stroke-linecap: round"/>
   </g>
   <g id="line2d_117">
    <path d="M 85.544076 310.087831 
L 85.544076 306.730385 
" clip-path="url(#pf8072566b7)" style="fill: none; stroke: #1f77b4; stroke-linecap: round"/>
   </g>
   <g id="line2d_118"/>
   <g id="line2d_119">
    <path d="M 85.342131 298.33677 
L 85.342131 291.621878 
L 85.439722 291.621878 
L 85.439722 298.33677 
L 85.342131 298.33677 
" clip-path="url(#pf8072566b7)" style="fill: none; stroke: #1f77b4; stroke-linecap: round"/>
   </g>
   <g id="line2d_120">
    <path d="M 85.342131 294.979324 
L 85.184823 294.979324 
" clip-path="url(#pf8072566b7)" style="fill: none; stroke: #1f77b4; stroke-linecap: round"/>
   </g>
   <g id="line2d_121">
    <path d="M 85.439722 294.979324 
L 85.539919 294.979324 
" clip-path="url(#pf8072566b7)" style="fill: none; stroke: #1f77b4; stroke-linecap: round"/>
   </g>
   <g id="line2d_122">
    <path d="M 85.184823 296.658047 
L 85.184823 293.300601 
" clip-path="url(#pf8072566b7)" style="fill: none; stroke: #1f77b4; stroke-linecap: round"/>
   </g>
   <g id="line2d_123">
    <path d="M 85.539919 296.658047 
L 85.539919 293.300601 
" clip-path="url(#pf8072566b7)" style="fill: none; stroke: #1f77b4; stroke-linecap: round"/>
   </g>
   <g id="line2d_124"/>
   <g id="line2d_125">
    <path d="M 85.461157 284.906986 
L 85.461157 278.192094 
L 85.711621 278.192094 
L 85.711621 284.906986 
L 85.461157 284.906986 
" clip-path="url(#pf8072566b7)" style="fill: none; stroke: #1f77b4; stroke-linecap: round"/>
   </g>
   <g id="line2d_126">
    <path d="M 85.461157 281.54954 
L 85.42732 281.54954 
" clip-path="url(#pf8072566b7)" style="fill: none; stroke: #1f77b4; stroke-linecap: round"/>
   </g>
   <g id="line2d_127">
    <path d="M 85.711621 281.54954 
L 85.854618 281.54954 
" clip-path="url(#pf8072566b7)" style="fill: none; stroke: #1f77b4; stroke-linecap: round"/>
   </g>
   <g id="line2d_128">
    <path d="M 85.42732 283.228263 
L 85.42732 279.870817 
" clip-path="url(#pf8072566b7)" style="fill: none; stroke: #1f77b4; stroke-linecap: round"/>
   </g>
   <g id="line2d_129">
    <path d="M 85.854618 283.228263 
L 85.854618 279.870817 
" clip-path="url(#pf8072566b7)" style="fill: none; stroke: #1f77b4; stroke-linecap: round"/>
   </g>
   <g id="line2d_130"/>
   <g id="line2d_131">
    <path d="M 85.56366 271.477202 
L 85.56366 264.76231 
L 85.680143 264.76231 
L 85.680143 271.477202 
L 85.56366 271.477202 
" clip-path="url(#pf8072566b7)" style="fill: none; stroke: #1f77b4; stroke-linecap: round"/>
   </g>
   <g id="line2d_132">
    <path d="M 85.56366 268.119756 
L 85.435849 268.119756 
" clip-path="url(#pf8072566b7)" style="fill: none; stroke: #1f77b4; stroke-linecap: round"/>
   </g>
   <g id="line2d_133">
    <path d="M 85.680143 268.119756 
L 85.945264 268.119756 
" clip-path="url(#pf8072566b7)" style="fill: none; stroke: #1f77b4; stroke-linecap: round"/>
   </g>
   <g id="line2d_134">
    <path d="M 85.435849 269.798479 
L 85.435849 266.441033 
" clip-path="url(#pf8072566b7)" style="fill: none; stroke: #1f77b4; stroke-linecap: round"/>
   </g>
   <g id="line2d_135">
    <path d="M 85.945264 269.798479 
L 85.945264 266.441033 
" clip-path="url(#pf8072566b7)" style="fill: none; stroke: #1f77b4; stroke-linecap: round"/>
   </g>
   <g id="line2d_136"/>
   <g id="line2d_137">
    <path d="M 86.383122 258.047418 
L 86.383122 251.332526 
L 86.600227 251.332526 
L 86.600227 258.047418 
L 86.383122 258.047418 
" clip-path="url(#pf8072566b7)" style="fill: none; stroke: #1f77b4; stroke-linecap: round"/>
   </g>
   <g id="line2d_138">
    <path d="M 86.383122 254.689972 
L 86.147496 254.689972 
" clip-path="url(#pf8072566b7)" style="fill: none; stroke: #1f77b4; stroke-linecap: round"/>
   </g>
   <g id="line2d_139">
    <path d="M 86.600227 254.689972 
L 86.705504 254.689972 
" clip-path="url(#pf8072566b7)" style="fill: none; stroke: #1f77b4; stroke-linecap: round"/>
   </g>
   <g id="line2d_140">
    <path d="M 86.147496 256.368695 
L 86.147496 253.011249 
" clip-path="url(#pf8072566b7)" style="fill: none; stroke: #1f77b4; stroke-linecap: round"/>
   </g>
   <g id="line2d_141">
    <path d="M 86.705504 256.368695 
L 86.705504 253.011249 
" clip-path="url(#pf8072566b7)" style="fill: none; stroke: #1f77b4; stroke-linecap: round"/>
   </g>
   <g id="line2d_142"/>
   <g id="line2d_143">
    <path d="M 86.612522 244.617634 
L 86.612522 237.902742 
L 86.815139 237.902742 
L 86.815139 244.617634 
L 86.612522 244.617634 
" clip-path="url(#pf8072566b7)" style="fill: none; stroke: #1f77b4; stroke-linecap: round"/>
   </g>
   <g id="line2d_144">
    <path d="M 86.612522 241.260188 
L 86.35381 241.260188 
" clip-path="url(#pf8072566b7)" style="fill: none; stroke: #1f77b4; stroke-linecap: round"/>
   </g>
   <g id="line2d_145">
    <path d="M 86.815139 241.260188 
L 86.957999 241.260188 
" clip-path="url(#pf8072566b7)" style="fill: none; stroke: #1f77b4; stroke-linecap: round"/>
   </g>
   <g id="line2d_146">
    <path d="M 86.35381 242.938911 
L 86.35381 239.581465 
" clip-path="url(#pf8072566b7)" style="fill: none; stroke: #1f77b4; stroke-linecap: round"/>
   </g>
   <g id="line2d_147">
    <path d="M 86.957999 242.938911 
L 86.957999 239.581465 
" clip-path="url(#pf8072566b7)" style="fill: none; stroke: #1f77b4; stroke-linecap: round"/>
   </g>
   <g id="line2d_148"/>
   <g id="line2d_149">
    <path d="M 86.856798 231.187849 
L 86.856798 224.472957 
L 87.098941 224.472957 
L 87.098941 231.187849 
L 86.856798 231.187849 
" clip-path="url(#pf8072566b7)" style="fill: none; stroke: #1f77b4; stroke-linecap: round"/>
   </g>
   <g id="line2d_150">
    <path d="M 86.856798 227.830403 
L 86.515791 227.830403 
" clip-path="url(#pf8072566b7)" style="fill: none; stroke: #1f77b4; stroke-linecap: round"/>
   </g>
   <g id="line2d_151">
    <path d="M 87.098941 227.830403 
L 87.25039 227.830403 
" clip-path="url(#pf8072566b7)" style="fill: none; stroke: #1f77b4; stroke-linecap: round"/>
   </g>
   <g id="line2d_152">
    <path d="M 86.515791 229.509126 
L 86.515791 226.15168 
" clip-path="url(#pf8072566b7)" style="fill: none; stroke: #1f77b4; stroke-linecap: round"/>
   </g>
   <g id="line2d_153">
    <path d="M 87.25039 229.509126 
L 87.25039 226.15168 
" clip-path="url(#pf8072566b7)" style="fill: none; stroke: #1f77b4; stroke-linecap: round"/>
   </g>
   <g id="line2d_154"/>
   <g id="line2d_155">
    <path d="M 88.415158 217.758065 
L 88.415158 211.043173 
L 88.759673 211.043173 
L 88.759673 217.758065 
L 88.415158 217.758065 
" clip-path="url(#pf8072566b7)" style="fill: none; stroke: #1f77b4; stroke-linecap: round"/>
   </g>
   <g id="line2d_156">
    <path d="M 88.415158 214.400619 
L 88.189674 214.400619 
" clip-path="url(#pf8072566b7)" style="fill: none; stroke: #1f77b4; stroke-linecap: round"/>
   </g>
   <g id="line2d_157">
    <path d="M 88.759673 214.400619 
L 89.349048 214.400619 
" clip-path="url(#pf8072566b7)" style="fill: none; stroke: #1f77b4; stroke-linecap: round"/>
   </g>
   <g id="line2d_158">
    <path d="M 88.189674 216.079342 
L 88.189674 212.721896 
" clip-path="url(#pf8072566b7)" style="fill: none; stroke: #1f77b4; stroke-linecap: round"/>
   </g>
   <g id="line2d_159">
    <path d="M 89.349048 216.079342 
L 89.349048 212.721896 
" clip-path="url(#pf8072566b7)" style="fill: none; stroke: #1f77b4; stroke-linecap: round"/>
   </g>
   <g id="line2d_160"/>
   <g id="line2d_161">
    <path d="M 90.034067 204.328281 
L 90.034067 197.613389 
L 90.468052 197.613389 
L 90.468052 204.328281 
L 90.034067 204.328281 
" clip-path="url(#pf8072566b7)" style="fill: none; stroke: #1f77b4; stroke-linecap: round"/>
   </g>
   <g id="line2d_162">
    <path d="M 90.034067 200.970835 
L 89.600176 200.970835 
" clip-path="url(#pf8072566b7)" style="fill: none; stroke: #1f77b4; stroke-linecap: round"/>
   </g>
   <g id="line2d_163">
    <path d="M 90.468052 200.970835 
L 90.882063 200.970835 
" clip-path="url(#pf8072566b7)" style="fill: none; stroke: #1f77b4; stroke-linecap: round"/>
   </g>
   <g id="line2d_164">
    <path d="M 89.600176 202.649558 
L 89.600176 199.292112 
" clip-path="url(#pf8072566b7)" style="fill: none; stroke: #1f77b4; stroke-linecap: round"/>
   </g>
   <g id="line2d_165">
    <path d="M 90.882063 202.649558 
L 90.882063 199.292112 
" clip-path="url(#pf8072566b7)" style="fill: none; stroke: #1f77b4; stroke-linecap: round"/>
   </g>
   <g id="line2d_166"/>
   <g id="line2d_167">
    <path d="M 101.543333 190.898497 
L 101.543333 184.183605 
L 102.138689 184.183605 
L 102.138689 190.898497 
L 101.543333 190.898497 
" clip-path="url(#pf8072566b7)" style="fill: none; stroke: #1f77b4; stroke-linecap: round"/>
   </g>
   <g id="line2d_168">
    <path d="M 101.543333 187.541051 
L 101.14645 187.541051 
" clip-path="url(#pf8072566b7)" style="fill: none; stroke: #1f77b4; stroke-linecap: round"/>
   </g>
   <g id="line2d_169">
    <path d="M 102.138689 187.541051 
L 102.720118 187.541051 
" clip-path="url(#pf8072566b7)" style="fill: none; stroke: #1f77b4; stroke-linecap: round"/>
   </g>
   <g id="line2d_170">
    <path d="M 101.14645 189.219774 
L 101.14645 185.862328 
" clip-path="url(#pf8072566b7)" style="fill: none; stroke: #1f77b4; stroke-linecap: round"/>
   </g>
   <g id="line2d_171">
    <path d="M 102.720118 189.219774 
L 102.720118 185.862328 
" clip-path="url(#pf8072566b7)" style="fill: none; stroke: #1f77b4; stroke-linecap: round"/>
   </g>
   <g id="line2d_172"/>
   <g id="line2d_173">
    <path d="M 112.302636 177.468713 
L 112.302636 170.753821 
L 112.538306 170.753821 
L 112.538306 177.468713 
L 112.302636 177.468713 
" clip-path="url(#pf8072566b7)" style="fill: none; stroke: #1f77b4; stroke-linecap: round"/>
   </g>
   <g id="line2d_174">
    <path d="M 112.302636 174.111267 
L 111.851039 174.111267 
" clip-path="url(#pf8072566b7)" style="fill: none; stroke: #1f77b4; stroke-linecap: round"/>
   </g>
   <g id="line2d_175">
    <path d="M 112.538306 174.111267 
L 112.915133 174.111267 
" clip-path="url(#pf8072566b7)" style="fill: none; stroke: #1f77b4; stroke-linecap: round"/>
   </g>
   <g id="line2d_176">
    <path d="M 111.851039 175.78999 
L 111.851039 172.432544 
" clip-path="url(#pf8072566b7)" style="fill: none; stroke: #1f77b4; stroke-linecap: round"/>
   </g>
   <g id="line2d_177">
    <path d="M 112.915133 175.78999 
L 112.915133 172.432544 
" clip-path="url(#pf8072566b7)" style="fill: none; stroke: #1f77b4; stroke-linecap: round"/>
   </g>
   <g id="line2d_178"/>
   <g id="line2d_179">
    <path d="M 117.615751 164.038929 
L 117.615751 157.324037 
L 119.132678 157.324037 
L 119.132678 164.038929 
L 117.615751 164.038929 
" clip-path="url(#pf8072566b7)" style="fill: none; stroke: #1f77b4; stroke-linecap: round"/>
   </g>
   <g id="line2d_180">
    <path d="M 117.615751 160.681483 
L 115.383375 160.681483 
" clip-path="url(#pf8072566b7)" style="fill: none; stroke: #1f77b4; stroke-linecap: round"/>
   </g>
   <g id="line2d_181">
    <path d="M 119.132678 160.681483 
L 120.70278 160.681483 
" clip-path="url(#pf8072566b7)" style="fill: none; stroke: #1f77b4; stroke-linecap: round"/>
   </g>
   <g id="line2d_182">
    <path d="M 115.383375 162.360206 
L 115.383375 159.00276 
" clip-path="url(#pf8072566b7)" style="fill: none; stroke: #1f77b4; stroke-linecap: round"/>
   </g>
   <g id="line2d_183">
    <path d="M 120.70278 162.360206 
L 120.70278 159.00276 
" clip-path="url(#pf8072566b7)" style="fill: none; stroke: #1f77b4; stroke-linecap: round"/>
   </g>
   <g id="line2d_184"/>
   <g id="line2d_185">
    <path d="M 118.551477 150.609145 
L 118.551477 143.894253 
L 120.277381 143.894253 
L 120.277381 150.609145 
L 118.551477 150.609145 
" clip-path="url(#pf8072566b7)" style="fill: none; stroke: #1f77b4; stroke-linecap: round"/>
   </g>
   <g id="line2d_186">
    <path d="M 118.551477 147.251699 
L 116.42273 147.251699 
" clip-path="url(#pf8072566b7)" style="fill: none; stroke: #1f77b4; stroke-linecap: round"/>
   </g>
   <g id="line2d_187">
    <path d="M 120.277381 147.251699 
L 121.898635 147.251699 
" clip-path="url(#pf8072566b7)" style="fill: none; stroke: #1f77b4; stroke-linecap: round"/>
   </g>
   <g id="line2d_188">
    <path d="M 116.42273 148.930422 
L 116.42273 145.572976 
" clip-path="url(#pf8072566b7)" style="fill: none; stroke: #1f77b4; stroke-linecap: round"/>
   </g>
   <g id="line2d_189">
    <path d="M 121.898635 148.930422 
L 121.898635 145.572976 
" clip-path="url(#pf8072566b7)" style="fill: none; stroke: #1f77b4; stroke-linecap: round"/>
   </g>
   <g id="line2d_190"/>
   <g id="line2d_191">
    <path d="M 119.859082 137.179361 
L 119.859082 130.464469 
L 121.332586 130.464469 
L 121.332586 137.179361 
L 119.859082 137.179361 
" clip-path="url(#pf8072566b7)" style="fill: none; stroke: #1f77b4; stroke-linecap: round"/>
   </g>
   <g id="line2d_192">
    <path d="M 119.859082 133.821915 
L 117.650422 133.821915 
" clip-path="url(#pf8072566b7)" style="fill: none; stroke: #1f77b4; stroke-linecap: round"/>
   </g>
   <g id="line2d_193">
    <path d="M 121.332586 133.821915 
L 123.012317 133.821915 
" clip-path="url(#pf8072566b7)" style="fill: none; stroke: #1f77b4; stroke-linecap: round"/>
   </g>
   <g id="line2d_194">
    <path d="M 117.650422 135.500638 
L 117.650422 132.143192 
" clip-path="url(#pf8072566b7)" style="fill: none; stroke: #1f77b4; stroke-linecap: round"/>
   </g>
   <g id="line2d_195">
    <path d="M 123.012317 135.500638 
L 123.012317 132.143192 
" clip-path="url(#pf8072566b7)" style="fill: none; stroke: #1f77b4; stroke-linecap: round"/>
   </g>
   <g id="line2d_196"/>
   <g id="line2d_197">
    <path d="M 121.163721 123.749577 
L 121.163721 117.034685 
L 122.312836 117.034685 
L 122.312836 123.749577 
L 121.163721 123.749577 
" clip-path="url(#pf8072566b7)" style="fill: none; stroke: #1f77b4; stroke-linecap: round"/>
   </g>
   <g id="line2d_198">
    <path d="M 121.163721 120.392131 
L 118.623463 120.392131 
" clip-path="url(#pf8072566b7)" style="fill: none; stroke: #1f77b4; stroke-linecap: round"/>
   </g>
   <g id="line2d_199">
    <path d="M 122.312836 120.392131 
L 124.283463 120.392131 
" clip-path="url(#pf8072566b7)" style="fill: none; stroke: #1f77b4; stroke-linecap: round"/>
   </g>
   <g id="line2d_200">
    <path d="M 118.623463 122.070854 
L 118.623463 118.713408 
" clip-path="url(#pf8072566b7)" style="fill: none; stroke: #1f77b4; stroke-linecap: round"/>
   </g>
   <g id="line2d_201">
    <path d="M 124.283463 122.070854 
L 124.283463 118.713408 
" clip-path="url(#pf8072566b7)" style="fill: none; stroke: #1f77b4; stroke-linecap: round"/>
   </g>
   <g id="line2d_202"/>
   <g id="line2d_203">
    <path d="M 123.422696 110.319793 
L 123.422696 103.604901 
L 125.361173 103.604901 
L 125.361173 110.319793 
L 123.422696 110.319793 
" clip-path="url(#pf8072566b7)" style="fill: none; stroke: #1f77b4; stroke-linecap: round"/>
   </g>
   <g id="line2d_204">
    <path d="M 123.422696 106.962347 
L 121.508308 106.962347 
" clip-path="url(#pf8072566b7)" style="fill: none; stroke: #1f77b4; stroke-linecap: round"/>
   </g>
   <g id="line2d_205">
    <path d="M 125.361173 106.962347 
L 127.532261 106.962347 
" clip-path="url(#pf8072566b7)" style="fill: none; stroke: #1f77b4; stroke-linecap: round"/>
   </g>
   <g id="line2d_206">
    <path d="M 121.508308 108.64107 
L 121.508308 105.283624 
" clip-path="url(#pf8072566b7)" style="fill: none; stroke: #1f77b4; stroke-linecap: round"/>
   </g>
   <g id="line2d_207">
    <path d="M 127.532261 108.64107 
L 127.532261 105.283624 
" clip-path="url(#pf8072566b7)" style="fill: none; stroke: #1f77b4; stroke-linecap: round"/>
   </g>
   <g id="line2d_208"/>
   <g id="line2d_209">
    <path d="M 134.860122 96.890009 
L 134.860122 90.175116 
L 135.399214 90.175116 
L 135.399214 96.890009 
L 134.860122 96.890009 
" clip-path="url(#pf8072566b7)" style="fill: none; stroke: #1f77b4; stroke-linecap: round"/>
   </g>
   <g id="line2d_210">
    <path d="M 134.860122 93.532563 
L 134.498291 93.532563 
" clip-path="url(#pf8072566b7)" style="fill: none; stroke: #1f77b4; stroke-linecap: round"/>
   </g>
   <g id="line2d_211">
    <path d="M 135.399214 93.532563 
L 135.934558 93.532563 
" clip-path="url(#pf8072566b7)" style="fill: none; stroke: #1f77b4; stroke-linecap: round"/>
   </g>
   <g id="line2d_212">
    <path d="M 134.498291 95.211286 
L 134.498291 91.85384 
" clip-path="url(#pf8072566b7)" style="fill: none; stroke: #1f77b4; stroke-linecap: round"/>
   </g>
   <g id="line2d_213">
    <path d="M 135.934558 95.211286 
L 135.934558 91.85384 
" clip-path="url(#pf8072566b7)" style="fill: none; stroke: #1f77b4; stroke-linecap: round"/>
   </g>
   <g id="line2d_214"/>
   <g id="line2d_215">
    <path d="M 139.817255 83.460224 
L 139.817255 76.745332 
L 141.862711 76.745332 
L 141.862711 83.460224 
L 139.817255 83.460224 
" clip-path="url(#pf8072566b7)" style="fill: none; stroke: #1f77b4; stroke-linecap: round"/>
   </g>
   <g id="line2d_216">
    <path d="M 139.817255 80.102778 
L 138.639719 80.102778 
" clip-path="url(#pf8072566b7)" style="fill: none; stroke: #1f77b4; stroke-linecap: round"/>
   </g>
   <g id="line2d_217">
    <path d="M 141.862711 80.102778 
L 144.034115 80.102778 
" clip-path="url(#pf8072566b7)" style="fill: none; stroke: #1f77b4; stroke-linecap: round"/>
   </g>
   <g id="line2d_218">
    <path d="M 138.639719 81.781501 
L 138.639719 78.424055 
" clip-path="url(#pf8072566b7)" style="fill: none; stroke: #1f77b4; stroke-linecap: round"/>
   </g>
   <g id="line2d_219">
    <path d="M 144.034115 81.781501 
L 144.034115 78.424055 
" clip-path="url(#pf8072566b7)" style="fill: none; stroke: #1f77b4; stroke-linecap: round"/>
   </g>
   <g id="line2d_220"/>
   <g id="line2d_221">
    <path d="M 152.326839 70.03044 
L 152.326839 63.315548 
L 154.458443 63.315548 
L 154.458443 70.03044 
L 152.326839 70.03044 
" clip-path="url(#pf8072566b7)" style="fill: none; stroke: #1f77b4; stroke-linecap: round"/>
   </g>
   <g id="line2d_222">
    <path d="M 152.326839 66.672994 
L 149.848408 66.672994 
" clip-path="url(#pf8072566b7)" style="fill: none; stroke: #1f77b4; stroke-linecap: round"/>
   </g>
   <g id="line2d_223">
    <path d="M 154.458443 66.672994 
L 155.839753 66.672994 
" clip-path="url(#pf8072566b7)" style="fill: none; stroke: #1f77b4; stroke-linecap: round"/>
   </g>
   <g id="line2d_224">
    <path d="M 149.848408 68.351717 
L 149.848408 64.994271 
" clip-path="url(#pf8072566b7)" style="fill: none; stroke: #1f77b4; stroke-linecap: round"/>
   </g>
   <g id="line2d_225">
    <path d="M 155.839753 68.351717 
L 155.839753 64.994271 
" clip-path="url(#pf8072566b7)" style="fill: none; stroke: #1f77b4; stroke-linecap: round"/>
   </g>
   <g id="line2d_226"/>
   <g id="line2d_227">
    <path d="M 236.128671 56.600656 
L 236.128671 49.885764 
L 238.161972 49.885764 
L 238.161972 56.600656 
L 236.128671 56.600656 
" clip-path="url(#pf8072566b7)" style="fill: none; stroke: #1f77b4; stroke-linecap: round"/>
   </g>
   <g id="line2d_228">
    <path d="M 236.128671 53.24321 
L 234.191843 53.24321 
" clip-path="url(#pf8072566b7)" style="fill: none; stroke: #1f77b4; stroke-linecap: round"/>
   </g>
   <g id="line2d_229">
    <path d="M 238.161972 53.24321 
L 239.504496 53.24321 
" clip-path="url(#pf8072566b7)" style="fill: none; stroke: #1f77b4; stroke-linecap: round"/>
   </g>
   <g id="line2d_230">
    <path d="M 234.191843 54.921933 
L 234.191843 51.564487 
" clip-path="url(#pf8072566b7)" style="fill: none; stroke: #1f77b4; stroke-linecap: round"/>
   </g>
   <g id="line2d_231">
    <path d="M 239.504496 54.921933 
L 239.504496 51.564487 
" clip-path="url(#pf8072566b7)" style="fill: none; stroke: #1f77b4; stroke-linecap: round"/>
   </g>
   <g id="line2d_232"/>
   <g id="line2d_233">
    <path d="M 297.086786 43.170872 
L 297.086786 36.45598 
L 298.959209 36.45598 
L 298.959209 43.170872 
L 297.086786 43.170872 
" clip-path="url(#pf8072566b7)" style="fill: none; stroke: #1f77b4; stroke-linecap: round"/>
   </g>
   <g id="line2d_234">
    <path d="M 297.086786 39.813426 
L 294.690061 39.813426 
" clip-path="url(#pf8072566b7)" style="fill: none; stroke: #1f77b4; stroke-linecap: round"/>
   </g>
   <g id="line2d_235">
    <path d="M 298.959209 39.813426 
L 301.419903 39.813426 
" clip-path="url(#pf8072566b7)" style="fill: none; stroke: #1f77b4; stroke-linecap: round"/>
   </g>
   <g id="line2d_236">
    <path d="M 294.690061 41.492149 
L 294.690061 38.134703 
" clip-path="url(#pf8072566b7)" style="fill: none; stroke: #1f77b4; stroke-linecap: round"/>
   </g>
   <g id="line2d_237">
    <path d="M 301.419903 41.492149 
L 301.419903 38.134703 
" clip-path="url(#pf8072566b7)" style="fill: none; stroke: #1f77b4; stroke-linecap: round"/>
   </g>
   <g id="line2d_238"/>
   <g id="line2d_239">
    <path d="M 415.842414 29.741088 
L 415.842414 23.026196 
L 416.265296 23.026196 
L 416.265296 29.741088 
L 415.842414 29.741088 
" clip-path="url(#pf8072566b7)" style="fill: none; stroke: #1f77b4; stroke-linecap: round"/>
   </g>
   <g id="line2d_240">
    <path d="M 415.842414 26.383642 
L 415.563439 26.383642 
" clip-path="url(#pf8072566b7)" style="fill: none; stroke: #1f77b4; stroke-linecap: round"/>
   </g>
   <g id="line2d_241">
    <path d="M 416.265296 26.383642 
L 416.61979 26.383642 
" clip-path="url(#pf8072566b7)" style="fill: none; stroke: #1f77b4; stroke-linecap: round"/>
   </g>
   <g id="line2d_242">
    <path d="M 415.563439 28.062365 
L 415.563439 24.704919 
" clip-path="url(#pf8072566b7)" style="fill: none; stroke: #1f77b4; stroke-linecap: round"/>
   </g>
   <g id="line2d_243">
    <path d="M 416.61979 28.062365 
L 416.61979 24.704919 
" clip-path="url(#pf8072566b7)" style="fill: none; stroke: #1f77b4; stroke-linecap: round"/>
   </g>
   <g id="line2d_244"/>
   <g id="line2d_245">
    <path d="M 85.057045 409.132489 
L 85.057045 19.66875 
" clip-path="url(#pf8072566b7)" style="fill: none; stroke-dasharray: 5.55,2.4; stroke-dashoffset: 0; stroke: #000000; stroke-width: 1.5"/>
   </g>
   <g id="line2d_246">
    <path d="M 85.10978 405.775043 
L 85.10978 399.060151 
" clip-path="url(#pf8072566b7)" style="fill: none; stroke: #2ca02c"/>
   </g>
   <g id="line2d_247">
    <path d="M 85.213364 392.345259 
L 85.213364 385.630367 
" clip-path="url(#pf8072566b7)" style="fill: none; stroke: #2ca02c"/>
   </g>
   <g id="line2d_248">
    <path d="M 85.235496 378.915475 
L 85.235496 372.200582 
" clip-path="url(#pf8072566b7)" style="fill: none; stroke: #2ca02c"/>
   </g>
   <g id="line2d_249">
    <path d="M 85.25574 365.48569 
L 85.25574 358.770798 
" clip-path="url(#pf8072566b7)" style="fill: none; stroke: #2ca02c"/>
   </g>
   <g id="line2d_250">
    <path d="M 85.284796 352.055906 
L 85.284796 345.341014 
" clip-path="url(#pf8072566b7)" style="fill: none; stroke: #2ca02c"/>
   </g>
   <g id="line2d_251">
    <path d="M 85.337109 338.626122 
L 85.337109 331.91123 
" clip-path="url(#pf8072566b7)" style="fill: none; stroke: #2ca02c"/>
   </g>
   <g id="line2d_252">
    <path d="M 85.361257 325.196338 
L 85.361257 318.481446 
" clip-path="url(#pf8072566b7)" style="fill: none; stroke: #2ca02c"/>
   </g>
   <g id="line2d_253">
    <path d="M 85.350177 311.766554 
L 85.350177 305.051662 
" clip-path="url(#pf8072566b7)" style="fill: none; stroke: #2ca02c"/>
   </g>
   <g id="line2d_254">
    <path d="M 85.397231 298.33677 
L 85.397231 291.621878 
" clip-path="url(#pf8072566b7)" style="fill: none; stroke: #2ca02c"/>
   </g>
   <g id="line2d_255">
    <path d="M 85.586554 284.906986 
L 85.586554 278.192094 
" clip-path="url(#pf8072566b7)" style="fill: none; stroke: #2ca02c"/>
   </g>
   <g id="line2d_256">
    <path d="M 85.628407 271.477202 
L 85.628407 264.76231 
" clip-path="url(#pf8072566b7)" style="fill: none; stroke: #2ca02c"/>
   </g>
   <g id="line2d_257">
    <path d="M 86.530625 258.047418 
L 86.530625 251.332526 
" clip-path="url(#pf8072566b7)" style="fill: none; stroke: #2ca02c"/>
   </g>
   <g id="line2d_258">
    <path d="M 86.725402 244.617634 
L 86.725402 237.902742 
" clip-path="url(#pf8072566b7)" style="fill: none; stroke: #2ca02c"/>
   </g>
   <g id="line2d_259">
    <path d="M 86.942214 231.187849 
L 86.942214 224.472957 
" clip-path="url(#pf8072566b7)" style="fill: none; stroke: #2ca02c"/>
   </g>
   <g id="line2d_260">
    <path d="M 88.700255 217.758065 
L 88.700255 211.043173 
" clip-path="url(#pf8072566b7)" style="fill: none; stroke: #2ca02c"/>
   </g>
   <g id="line2d_261">
    <path d="M 90.310083 204.328281 
L 90.310083 197.613389 
" clip-path="url(#pf8072566b7)" style="fill: none; stroke: #2ca02c"/>
   </g>
   <g id="line2d_262">
    <path d="M 101.719513 190.898497 
L 101.719513 184.183605 
" clip-path="url(#pf8072566b7)" style="fill: none; stroke: #2ca02c"/>
   </g>
   <g id="line2d_263">
    <path d="M 112.386672 177.468713 
L 112.386672 170.753821 
" clip-path="url(#pf8072566b7)" style="fill: none; stroke: #2ca02c"/>
   </g>
   <g id="line2d_264">
    <path d="M 118.436625 164.038929 
L 118.436625 157.324037 
" clip-path="url(#pf8072566b7)" style="fill: none; stroke: #2ca02c"/>
   </g>
   <g id="line2d_265">
    <path d="M 119.606044 150.609145 
L 119.606044 143.894253 
" clip-path="url(#pf8072566b7)" style="fill: none; stroke: #2ca02c"/>
   </g>
   <g id="line2d_266">
    <path d="M 120.723754 137.179361 
L 120.723754 130.464469 
" clip-path="url(#pf8072566b7)" style="fill: none; stroke: #2ca02c"/>
   </g>
   <g id="line2d_267">
    <path d="M 121.627699 123.749577 
L 121.627699 117.034685 
" clip-path="url(#pf8072566b7)" style="fill: none; stroke: #2ca02c"/>
   </g>
   <g id="line2d_268">
    <path d="M 124.349845 110.319793 
L 124.349845 103.604901 
" clip-path="url(#pf8072566b7)" style="fill: none; stroke: #2ca02c"/>
   </g>
   <g id="line2d_269">
    <path d="M 135.16471 96.890009 
L 135.16471 90.175116 
" clip-path="url(#pf8072566b7)" style="fill: none; stroke: #2ca02c"/>
   </g>
   <g id="line2d_270">
    <path d="M 141.209179 83.460224 
L 141.209179 76.745332 
" clip-path="url(#pf8072566b7)" style="fill: none; stroke: #2ca02c"/>
   </g>
   <g id="line2d_271">
    <path d="M 153.554567 70.03044 
L 153.554567 63.315548 
" clip-path="url(#pf8072566b7)" style="fill: none; stroke: #2ca02c"/>
   </g>
   <g id="line2d_272">
    <path d="M 237.775499 56.600656 
L 237.775499 49.885764 
" clip-path="url(#pf8072566b7)" style="fill: none; stroke: #2ca02c"/>
   </g>
   <g id="line2d_273">
    <path d="M 298.370707 43.170872 
L 298.370707 36.45598 
" clip-path="url(#pf8072566b7)" style="fill: none; stroke: #2ca02c"/>
   </g>
   <g id="line2d_274">
    <path d="M 416.000283 29.741088 
L 416.000283 23.026196 
" clip-path="url(#pf8072566b7)" style="fill: none; stroke: #2ca02c"/>
   </g>
   <g id="patch_3">
    <path d="M 68.445469 409.132489 
L 68.445469 19.66875 
" style="fill: none"/>
   </g>
   <g id="patch_4">
    <path d="M 433.19952 409.132489 
L 433.19952 19.66875 
" style="fill: none"/>
   </g>
   <g id="patch_5">
    <path d="M 68.445469 409.132489 
L 433.19952 409.132489 
" style="fill: none"/>
   </g>
   <g id="patch_6">
    <path d="M 68.445469 19.66875 
L 433.19952 19.66875 
" style="fill: none"/>
   </g>
   <g id="text_38">
    <!-- Model 2: Permutation importances -->
    <g style="fill: #333333" transform="translate(177.064682 13.66875) scale(0.09 -0.09)">
     <defs>
      <path id="Arial-BoldMT-4d" d="M 453 0 
L 453 4581 
L 1838 4581 
L 2669 1456 
L 3491 4581 
L 4878 4581 
L 4878 0 
L 4019 0 
L 4019 3606 
L 3109 0 
L 2219 0 
L 1313 3606 
L 1313 0 
L 453 0 
z
" transform="scale(0.015625)"/>
      <path id="Arial-BoldMT-32" d="M 3238 816 
L 3238 0 
L 159 0 
Q 209 463 459 877 
Q 709 1291 1447 1975 
Q 2041 2528 2175 2725 
Q 2356 2997 2356 3263 
Q 2356 3556 2198 3714 
Q 2041 3872 1763 3872 
Q 1488 3872 1325 3706 
Q 1163 3541 1138 3156 
L 263 3244 
Q 341 3969 753 4284 
Q 1166 4600 1784 4600 
Q 2463 4600 2850 4234 
Q 3238 3869 3238 3325 
Q 3238 3016 3127 2736 
Q 3016 2456 2775 2150 
Q 2616 1947 2200 1565 
Q 1784 1184 1673 1059 
Q 1563 934 1494 816 
L 3238 816 
z
" transform="scale(0.015625)"/>
      <path id="Arial-BoldMT-3a" d="M 628 2441 
L 628 3319 
L 1506 3319 
L 1506 2441 
L 628 2441 
z
M 628 0 
L 628 878 
L 1506 878 
L 1506 0 
L 628 0 
z
" transform="scale(0.015625)"/>
      <path id="Arial-BoldMT-6d" d="M 394 3319 
L 1203 3319 
L 1203 2866 
Q 1638 3394 2238 3394 
Q 2556 3394 2790 3262 
Q 3025 3131 3175 2866 
Q 3394 3131 3647 3262 
Q 3900 3394 4188 3394 
Q 4553 3394 4806 3245 
Q 5059 3097 5184 2809 
Q 5275 2597 5275 2122 
L 5275 0 
L 4397 0 
L 4397 1897 
Q 4397 2391 4306 2534 
Q 4184 2722 3931 2722 
Q 3747 2722 3584 2609 
Q 3422 2497 3350 2280 
Q 3278 2063 3278 1594 
L 3278 0 
L 2400 0 
L 2400 1819 
Q 2400 2303 2353 2443 
Q 2306 2584 2207 2653 
Q 2109 2722 1941 2722 
Q 1738 2722 1575 2612 
Q 1413 2503 1342 2297 
Q 1272 2091 1272 1613 
L 1272 0 
L 394 0 
L 394 3319 
z
" transform="scale(0.015625)"/>
      <path id="Arial-BoldMT-70" d="M 434 3319 
L 1253 3319 
L 1253 2831 
Q 1413 3081 1684 3237 
Q 1956 3394 2288 3394 
Q 2866 3394 3269 2941 
Q 3672 2488 3672 1678 
Q 3672 847 3265 386 
Q 2859 -75 2281 -75 
Q 2006 -75 1782 34 
Q 1559 144 1313 409 
L 1313 -1263 
L 434 -1263 
L 434 3319 
z
M 1303 1716 
Q 1303 1156 1525 889 
Q 1747 622 2066 622 
Q 2372 622 2575 867 
Q 2778 1113 2778 1672 
Q 2778 2194 2568 2447 
Q 2359 2700 2050 2700 
Q 1728 2700 1515 2451 
Q 1303 2203 1303 1716 
z
" transform="scale(0.015625)"/>
     </defs>
     <use xlink:href="#Arial-BoldMT-4d"/>
     <use xlink:href="#Arial-BoldMT-6f" transform="translate(83.300781 0)"/>
     <use xlink:href="#Arial-BoldMT-64" transform="translate(144.384766 0)"/>
     <use xlink:href="#Arial-BoldMT-65" transform="translate(205.46875 0)"/>
     <use xlink:href="#Arial-BoldMT-6c" transform="translate(261.083984 0)"/>
     <use xlink:href="#Arial-BoldMT-20" transform="translate(288.867188 0)"/>
     <use xlink:href="#Arial-BoldMT-32" transform="translate(316.650391 0)"/>
     <use xlink:href="#Arial-BoldMT-3a" transform="translate(372.265625 0)"/>
     <use xlink:href="#Arial-BoldMT-20" transform="translate(405.566406 0)"/>
     <use xlink:href="#Arial-BoldMT-50" transform="translate(433.349609 0)"/>
     <use xlink:href="#Arial-BoldMT-65" transform="translate(500.048828 0)"/>
     <use xlink:href="#Arial-BoldMT-72" transform="translate(555.664062 0)"/>
     <use xlink:href="#Arial-BoldMT-6d" transform="translate(594.580078 0)"/>
     <use xlink:href="#Arial-BoldMT-75" transform="translate(683.496094 0)"/>
     <use xlink:href="#Arial-BoldMT-74" transform="translate(744.580078 0)"/>
     <use xlink:href="#Arial-BoldMT-61" transform="translate(777.880859 0)"/>
     <use xlink:href="#Arial-BoldMT-74" transform="translate(833.496094 0)"/>
     <use xlink:href="#Arial-BoldMT-69" transform="translate(866.796875 0)"/>
     <use xlink:href="#Arial-BoldMT-6f" transform="translate(894.580078 0)"/>
     <use xlink:href="#Arial-BoldMT-6e" transform="translate(955.664062 0)"/>
     <use xlink:href="#Arial-BoldMT-20" transform="translate(1016.748047 0)"/>
     <use xlink:href="#Arial-BoldMT-69" transform="translate(1044.53125 0)"/>
     <use xlink:href="#Arial-BoldMT-6d" transform="translate(1072.314453 0)"/>
     <use xlink:href="#Arial-BoldMT-70" transform="translate(1161.230469 0)"/>
     <use xlink:href="#Arial-BoldMT-6f" transform="translate(1222.314453 0)"/>
     <use xlink:href="#Arial-BoldMT-72" transform="translate(1283.398438 0)"/>
     <use xlink:href="#Arial-BoldMT-74" transform="translate(1322.314453 0)"/>
     <use xlink:href="#Arial-BoldMT-61" transform="translate(1355.615234 0)"/>
     <use xlink:href="#Arial-BoldMT-6e" transform="translate(1411.230469 0)"/>
     <use xlink:href="#Arial-BoldMT-63" transform="translate(1472.314453 0)"/>
     <use xlink:href="#Arial-BoldMT-65" transform="translate(1527.929688 0)"/>
     <use xlink:href="#Arial-BoldMT-73" transform="translate(1583.544922 0)"/>
    </g>
   </g>
  </g>
 </g>
 <defs>
  <clipPath id="pf8072566b7">
   <rect x="68.445469" y="19.66875" width="364.754051" height="389.463739"/>
  </clipPath>
 </defs>
</svg>
