<?xml version="1.0" encoding="utf-8" standalone="no"?>
<!DOCTYPE svg PUBLIC "-//W3C//DTD SVG 1.1//EN"
  "http://www.w3.org/Graphics/SVG/1.1/DTD/svg11.dtd">
<svg xmlns:xlink="http://www.w3.org/1999/xlink" width="296.39952pt" height="296.39952pt" viewBox="0 0 296.39952 296.39952" xmlns="http://www.w3.org/2000/svg" version="1.1">
 <metadata>
  <rdf:RDF xmlns:dc="http://purl.org/dc/elements/1.1/" xmlns:cc="http://creativecommons.org/ns#" xmlns:rdf="http://www.w3.org/1999/02/22-rdf-syntax-ns#">
   <cc:Work>
    <dc:type rdf:resource="http://purl.org/dc/dcmitype/StillImage"/>
    <dc:date>2025-12-23T16:09:46.119284</dc:date>
    <dc:format>image/svg+xml</dc:format>
    <dc:creator>
     <cc:Agent>
      <dc:title>Matplotlib v3.10.8, https://matplotlib.org/</dc:title>
     </cc:Agent>
    </dc:creator>
   </cc:Work>
  </rdf:RDF>
 </metadata>
 <defs>
  <style type="text/css">*{stroke-linejoin: round; stroke-linecap: butt}</style>
 </defs>
 <g id="figure_1">
  <g id="patch_1">
   <path d="M 0 296.39952 
L 296.39952 296.39952 
L 296.39952 0 
L 0 0 
z
" style="fill: #ffffff"/>
  </g>
  <g id="axes_1">
   <g id="patch_2">
    <path d="M 35.655938 265.022801 
L 289.19952 265.022801 
L 289.19952 19.642031 
L 35.655938 19.642031 
z
" style="fill: #ffffff"/>
   </g>
   <g id="matplotlib.axis_1">
    <g id="xtick_1">
     <g id="line2d_1">
      <path d="M 42.831699 265.022801 
L 42.831699 19.642031 
" clip-path="url(#p49a51b750b)" style="fill: none; stroke: #c0c0c0; stroke-width: 0.25; stroke-linecap: round"/>
     </g>
     <g id="line2d_2"/>
     <g id="text_1">
      <!-- 0.0 -->
      <g style="fill: #333333" transform="translate(36.576699 274.964832) scale(0.09 -0.09)">
       <defs>
        <path id="ArialMT-30" d="M 266 2259 
Q 266 3072 433 3567 
Q 600 4063 929 4331 
Q 1259 4600 1759 4600 
Q 2128 4600 2406 4451 
Q 2684 4303 2865 4023 
Q 3047 3744 3150 3342 
Q 3253 2941 3253 2259 
Q 3253 1453 3087 958 
Q 2922 463 2592 192 
Q 2263 -78 1759 -78 
Q 1097 -78 719 397 
Q 266 969 266 2259 
z
M 844 2259 
Q 844 1131 1108 757 
Q 1372 384 1759 384 
Q 2147 384 2411 759 
Q 2675 1134 2675 2259 
Q 2675 3391 2411 3762 
Q 2147 4134 1753 4134 
Q 1366 4134 1134 3806 
Q 844 3388 844 2259 
z
" transform="scale(0.015625)"/>
        <path id="ArialMT-2e" d="M 581 0 
L 581 641 
L 1222 641 
L 1222 0 
L 581 0 
z
" transform="scale(0.015625)"/>
       </defs>
       <use xlink:href="#ArialMT-30"/>
       <use xlink:href="#ArialMT-2e" transform="translate(55.615234 0)"/>
       <use xlink:href="#ArialMT-30" transform="translate(83.398438 0)"/>
      </g>
     </g>
    </g>
    <g id="xtick_2">
     <g id="line2d_3">
      <path d="M 90.670111 265.022801 
L 90.670111 19.642031 
" clip-path="url(#p49a51b750b)" style="fill: none; stroke: #c0c0c0; stroke-width: 0.25; stroke-linecap: round"/>
     </g>
     <g id="line2d_4"/>
     <g id="text_2">
      <!-- 0.2 -->
      <g style="fill: #333333" transform="translate(84.415111 274.964832) scale(0.09 -0.09)">
       <defs>
        <path id="ArialMT-32" d="M 3222 541 
L 3222 0 
L 194 0 
Q 188 203 259 391 
Q 375 700 629 1000 
Q 884 1300 1366 1694 
Q 2113 2306 2375 2664 
Q 2638 3022 2638 3341 
Q 2638 3675 2398 3904 
Q 2159 4134 1775 4134 
Q 1369 4134 1125 3890 
Q 881 3647 878 3216 
L 300 3275 
Q 359 3922 746 4261 
Q 1134 4600 1788 4600 
Q 2447 4600 2831 4234 
Q 3216 3869 3216 3328 
Q 3216 3053 3103 2787 
Q 2991 2522 2730 2228 
Q 2469 1934 1863 1422 
Q 1356 997 1212 845 
Q 1069 694 975 541 
L 3222 541 
z
" transform="scale(0.015625)"/>
       </defs>
       <use xlink:href="#ArialMT-30"/>
       <use xlink:href="#ArialMT-2e" transform="translate(55.615234 0)"/>
       <use xlink:href="#ArialMT-32" transform="translate(83.398438 0)"/>
      </g>
     </g>
    </g>
    <g id="xtick_3">
     <g id="line2d_5">
      <path d="M 138.508523 265.022801 
L 138.508523 19.642031 
" clip-path="url(#p49a51b750b)" style="fill: none; stroke: #c0c0c0; stroke-width: 0.25; stroke-linecap: round"/>
     </g>
     <g id="line2d_6"/>
     <g id="text_3">
      <!-- 0.4 -->
      <g style="fill: #333333" transform="translate(132.253523 274.964832) scale(0.09 -0.09)">
       <defs>
        <path id="ArialMT-34" d="M 2069 0 
L 2069 1097 
L 81 1097 
L 81 1613 
L 2172 4581 
L 2631 4581 
L 2631 1613 
L 3250 1613 
L 3250 1097 
L 2631 1097 
L 2631 0 
L 2069 0 
z
M 2069 1613 
L 2069 3678 
L 634 1613 
L 2069 1613 
z
" transform="scale(0.015625)"/>
       </defs>
       <use xlink:href="#ArialMT-30"/>
       <use xlink:href="#ArialMT-2e" transform="translate(55.615234 0)"/>
       <use xlink:href="#ArialMT-34" transform="translate(83.398438 0)"/>
      </g>
     </g>
    </g>
    <g id="xtick_4">
     <g id="line2d_7">
      <path d="M 186.346935 265.022801 
L 186.346935 19.642031 
" clip-path="url(#p49a51b750b)" style="fill: none; stroke: #c0c0c0; stroke-width: 0.25; stroke-linecap: round"/>
     </g>
     <g id="line2d_8"/>
     <g id="text_4">
      <!-- 0.6 -->
      <g style="fill: #333333" transform="translate(180.091935 274.964832) scale(0.09 -0.09)">
       <defs>
        <path id="ArialMT-36" d="M 3184 3459 
L 2625 3416 
Q 2550 3747 2413 3897 
Q 2184 4138 1850 4138 
Q 1581 4138 1378 3988 
Q 1113 3794 959 3422 
Q 806 3050 800 2363 
Q 1003 2672 1297 2822 
Q 1591 2972 1913 2972 
Q 2475 2972 2870 2558 
Q 3266 2144 3266 1488 
Q 3266 1056 3080 686 
Q 2894 316 2569 119 
Q 2244 -78 1831 -78 
Q 1128 -78 684 439 
Q 241 956 241 2144 
Q 241 3472 731 4075 
Q 1159 4600 1884 4600 
Q 2425 4600 2770 4297 
Q 3116 3994 3184 3459 
z
M 888 1484 
Q 888 1194 1011 928 
Q 1134 663 1356 523 
Q 1578 384 1822 384 
Q 2178 384 2434 671 
Q 2691 959 2691 1453 
Q 2691 1928 2437 2201 
Q 2184 2475 1800 2475 
Q 1419 2475 1153 2201 
Q 888 1928 888 1484 
z
" transform="scale(0.015625)"/>
       </defs>
       <use xlink:href="#ArialMT-30"/>
       <use xlink:href="#ArialMT-2e" transform="translate(55.615234 0)"/>
       <use xlink:href="#ArialMT-36" transform="translate(83.398438 0)"/>
      </g>
     </g>
    </g>
    <g id="xtick_5">
     <g id="line2d_9">
      <path d="M 234.185346 265.022801 
L 234.185346 19.642031 
" clip-path="url(#p49a51b750b)" style="fill: none; stroke: #c0c0c0; stroke-width: 0.25; stroke-linecap: round"/>
     </g>
     <g id="line2d_10"/>
     <g id="text_5">
      <!-- 0.8 -->
      <g style="fill: #333333" transform="translate(227.930346 274.964832) scale(0.09 -0.09)">
       <defs>
        <path id="ArialMT-38" d="M 1131 2484 
Q 781 2613 612 2850 
Q 444 3088 444 3419 
Q 444 3919 803 4259 
Q 1163 4600 1759 4600 
Q 2359 4600 2725 4251 
Q 3091 3903 3091 3403 
Q 3091 3084 2923 2848 
Q 2756 2613 2416 2484 
Q 2838 2347 3058 2040 
Q 3278 1734 3278 1309 
Q 3278 722 2862 322 
Q 2447 -78 1769 -78 
Q 1091 -78 675 323 
Q 259 725 259 1325 
Q 259 1772 486 2073 
Q 713 2375 1131 2484 
z
M 1019 3438 
Q 1019 3113 1228 2906 
Q 1438 2700 1772 2700 
Q 2097 2700 2305 2904 
Q 2513 3109 2513 3406 
Q 2513 3716 2298 3927 
Q 2084 4138 1766 4138 
Q 1444 4138 1231 3931 
Q 1019 3725 1019 3438 
z
M 838 1322 
Q 838 1081 952 856 
Q 1066 631 1291 507 
Q 1516 384 1775 384 
Q 2178 384 2440 643 
Q 2703 903 2703 1303 
Q 2703 1709 2433 1975 
Q 2163 2241 1756 2241 
Q 1359 2241 1098 1978 
Q 838 1716 838 1322 
z
" transform="scale(0.015625)"/>
       </defs>
       <use xlink:href="#ArialMT-30"/>
       <use xlink:href="#ArialMT-2e" transform="translate(55.615234 0)"/>
       <use xlink:href="#ArialMT-38" transform="translate(83.398438 0)"/>
      </g>
     </g>
    </g>
    <g id="xtick_6">
     <g id="line2d_11">
      <path d="M 282.023758 265.022801 
L 282.023758 19.642031 
" clip-path="url(#p49a51b750b)" style="fill: none; stroke: #c0c0c0; stroke-width: 0.25; stroke-linecap: round"/>
     </g>
     <g id="line2d_12"/>
     <g id="text_6">
      <!-- 1.0 -->
      <g style="fill: #333333" transform="translate(275.768758 274.964832) scale(0.09 -0.09)">
       <defs>
        <path id="ArialMT-31" d="M 2384 0 
L 1822 0 
L 1822 3584 
Q 1619 3391 1289 3197 
Q 959 3003 697 2906 
L 697 3450 
Q 1169 3672 1522 3987 
Q 1875 4303 2022 4600 
L 2384 4600 
L 2384 0 
z
" transform="scale(0.015625)"/>
       </defs>
       <use xlink:href="#ArialMT-31"/>
       <use xlink:href="#ArialMT-2e" transform="translate(55.615234 0)"/>
       <use xlink:href="#ArialMT-30" transform="translate(83.398438 0)"/>
      </g>
     </g>
    </g>
    <g id="text_7">
     <!-- Recall [TP / (TP + FN)] -->
     <g style="fill: #333333" transform="translate(115.706479 287.305301) scale(0.09 -0.09)">
      <defs>
       <path id="Arial-BoldMT-52" d="M 469 0 
L 469 4581 
L 2416 4581 
Q 3150 4581 3483 4457 
Q 3816 4334 4016 4018 
Q 4216 3703 4216 3297 
Q 4216 2781 3912 2445 
Q 3609 2109 3006 2022 
Q 3306 1847 3501 1637 
Q 3697 1428 4028 894 
L 4588 0 
L 3481 0 
L 2813 997 
Q 2456 1531 2325 1670 
Q 2194 1809 2047 1861 
Q 1900 1913 1581 1913 
L 1394 1913 
L 1394 0 
L 469 0 
z
M 1394 2644 
L 2078 2644 
Q 2744 2644 2909 2700 
Q 3075 2756 3169 2893 
Q 3263 3031 3263 3238 
Q 3263 3469 3139 3611 
Q 3016 3753 2791 3791 
Q 2678 3806 2116 3806 
L 1394 3806 
L 1394 2644 
z
" transform="scale(0.015625)"/>
       <path id="Arial-BoldMT-65" d="M 2381 1056 
L 3256 909 
Q 3088 428 2723 176 
Q 2359 -75 1813 -75 
Q 947 -75 531 491 
Q 203 944 203 1634 
Q 203 2459 634 2926 
Q 1066 3394 1725 3394 
Q 2466 3394 2894 2905 
Q 3322 2416 3303 1406 
L 1103 1406 
Q 1113 1016 1316 798 
Q 1519 581 1822 581 
Q 2028 581 2168 693 
Q 2309 806 2381 1056 
z
M 2431 1944 
Q 2422 2325 2234 2523 
Q 2047 2722 1778 2722 
Q 1491 2722 1303 2513 
Q 1116 2303 1119 1944 
L 2431 1944 
z
" transform="scale(0.015625)"/>
       <path id="Arial-BoldMT-63" d="M 3353 2338 
L 2488 2181 
Q 2444 2441 2289 2572 
Q 2134 2703 1888 2703 
Q 1559 2703 1364 2476 
Q 1169 2250 1169 1719 
Q 1169 1128 1367 884 
Q 1566 641 1900 641 
Q 2150 641 2309 783 
Q 2469 925 2534 1272 
L 3397 1125 
Q 3263 531 2881 228 
Q 2500 -75 1859 -75 
Q 1131 -75 698 384 
Q 266 844 266 1656 
Q 266 2478 700 2936 
Q 1134 3394 1875 3394 
Q 2481 3394 2839 3133 
Q 3197 2872 3353 2338 
z
" transform="scale(0.015625)"/>
       <path id="Arial-BoldMT-61" d="M 1116 2306 
L 319 2450 
Q 453 2931 781 3162 
Q 1109 3394 1756 3394 
Q 2344 3394 2631 3255 
Q 2919 3116 3036 2902 
Q 3153 2688 3153 2116 
L 3144 1091 
Q 3144 653 3186 445 
Q 3228 238 3344 0 
L 2475 0 
Q 2441 88 2391 259 
Q 2369 338 2359 363 
Q 2134 144 1878 34 
Q 1622 -75 1331 -75 
Q 819 -75 523 203 
Q 228 481 228 906 
Q 228 1188 362 1408 
Q 497 1628 739 1745 
Q 981 1863 1438 1950 
Q 2053 2066 2291 2166 
L 2291 2253 
Q 2291 2506 2166 2614 
Q 2041 2722 1694 2722 
Q 1459 2722 1328 2630 
Q 1197 2538 1116 2306 
z
M 2291 1594 
Q 2122 1538 1756 1459 
Q 1391 1381 1278 1306 
Q 1106 1184 1106 997 
Q 1106 813 1243 678 
Q 1381 544 1594 544 
Q 1831 544 2047 700 
Q 2206 819 2256 991 
Q 2291 1103 2291 1419 
L 2291 1594 
z
" transform="scale(0.015625)"/>
       <path id="Arial-BoldMT-6c" d="M 459 0 
L 459 4581 
L 1338 4581 
L 1338 0 
L 459 0 
z
" transform="scale(0.015625)"/>
       <path id="Arial-BoldMT-20" transform="scale(0.015625)"/>
       <path id="Arial-BoldMT-5b" d="M 456 -1291 
L 456 4581 
L 2013 4581 
L 2013 3891 
L 1291 3891 
L 1291 -600 
L 2013 -600 
L 2013 -1291 
L 456 -1291 
z
" transform="scale(0.015625)"/>
       <path id="Arial-BoldMT-54" d="M 1497 0 
L 1497 3806 
L 138 3806 
L 138 4581 
L 3778 4581 
L 3778 3806 
L 2422 3806 
L 2422 0 
L 1497 0 
z
" transform="scale(0.015625)"/>
       <path id="Arial-BoldMT-50" d="M 466 0 
L 466 4581 
L 1950 4581 
Q 2794 4581 3050 4513 
Q 3444 4409 3709 4064 
Q 3975 3719 3975 3172 
Q 3975 2750 3822 2462 
Q 3669 2175 3433 2011 
Q 3197 1847 2953 1794 
Q 2622 1728 1994 1728 
L 1391 1728 
L 1391 0 
L 466 0 
z
M 1391 3806 
L 1391 2506 
L 1897 2506 
Q 2444 2506 2628 2578 
Q 2813 2650 2917 2803 
Q 3022 2956 3022 3159 
Q 3022 3409 2875 3571 
Q 2728 3734 2503 3775 
Q 2338 3806 1838 3806 
L 1391 3806 
z
" transform="scale(0.015625)"/>
       <path id="Arial-BoldMT-2f" d="M -9 -78 
L 1125 4659 
L 1784 4659 
L 638 -78 
L -9 -78 
z
" transform="scale(0.015625)"/>
       <path id="Arial-BoldMT-28" d="M 1916 -1347 
L 1313 -1347 
Q 834 -625 584 153 
Q 334 931 334 1659 
Q 334 2563 644 3369 
Q 913 4069 1325 4659 
L 1925 4659 
Q 1497 3713 1336 3048 
Q 1175 2384 1175 1641 
Q 1175 1128 1270 590 
Q 1366 53 1531 -431 
Q 1641 -750 1916 -1347 
z
" transform="scale(0.015625)"/>
       <path id="Arial-BoldMT-2b" d="M 1466 659 
L 1466 1850 
L 266 1850 
L 266 2672 
L 1466 2672 
L 1466 3863 
L 2266 3863 
L 2266 2672 
L 3469 2672 
L 3469 1850 
L 2266 1850 
L 2266 659 
L 1466 659 
z
" transform="scale(0.015625)"/>
       <path id="Arial-BoldMT-46" d="M 472 0 
L 472 4581 
L 3613 4581 
L 3613 3806 
L 1397 3806 
L 1397 2722 
L 3309 2722 
L 3309 1947 
L 1397 1947 
L 1397 0 
L 472 0 
z
" transform="scale(0.015625)"/>
       <path id="Arial-BoldMT-4e" d="M 475 0 
L 475 4581 
L 1375 4581 
L 3250 1522 
L 3250 4581 
L 4109 4581 
L 4109 0 
L 3181 0 
L 1334 2988 
L 1334 0 
L 475 0 
z
" transform="scale(0.015625)"/>
       <path id="Arial-BoldMT-29" d="M 216 -1347 
Q 475 -791 581 -494 
Q 688 -197 778 190 
Q 869 578 912 926 
Q 956 1275 956 1641 
Q 956 2384 797 3048 
Q 638 3713 209 4659 
L 806 4659 
Q 1278 3988 1539 3234 
Q 1800 2481 1800 1706 
Q 1800 1053 1594 306 
Q 1359 -531 822 -1347 
L 216 -1347 
z
" transform="scale(0.015625)"/>
       <path id="Arial-BoldMT-5d" d="M 1675 4581 
L 1675 -1291 
L 119 -1291 
L 119 -600 
L 841 -600 
L 841 3897 
L 119 3897 
L 119 4581 
L 1675 4581 
z
" transform="scale(0.015625)"/>
      </defs>
      <use xlink:href="#Arial-BoldMT-52"/>
      <use xlink:href="#Arial-BoldMT-65" transform="translate(72.216797 0)"/>
      <use xlink:href="#Arial-BoldMT-63" transform="translate(127.832031 0)"/>
      <use xlink:href="#Arial-BoldMT-61" transform="translate(183.447266 0)"/>
      <use xlink:href="#Arial-BoldMT-6c" transform="translate(239.0625 0)"/>
      <use xlink:href="#Arial-BoldMT-6c" transform="translate(266.845703 0)"/>
      <use xlink:href="#Arial-BoldMT-20" transform="translate(294.628906 0)"/>
      <use xlink:href="#Arial-BoldMT-5b" transform="translate(322.412109 0)"/>
      <use xlink:href="#Arial-BoldMT-54" transform="translate(355.712891 0)"/>
      <use xlink:href="#Arial-BoldMT-50" transform="translate(416.796875 0)"/>
      <use xlink:href="#Arial-BoldMT-20" transform="translate(481.746094 0)"/>
      <use xlink:href="#Arial-BoldMT-2f" transform="translate(509.529297 0)"/>
      <use xlink:href="#Arial-BoldMT-20" transform="translate(537.3125 0)"/>
      <use xlink:href="#Arial-BoldMT-28" transform="translate(565.095703 0)"/>
      <use xlink:href="#Arial-BoldMT-54" transform="translate(598.396484 0)"/>
      <use xlink:href="#Arial-BoldMT-50" transform="translate(659.480469 0)"/>
      <use xlink:href="#Arial-BoldMT-20" transform="translate(724.429688 0)"/>
      <use xlink:href="#Arial-BoldMT-2b" transform="translate(752.212891 0)"/>
      <use xlink:href="#Arial-BoldMT-20" transform="translate(810.611328 0)"/>
      <use xlink:href="#Arial-BoldMT-46" transform="translate(838.394531 0)"/>
      <use xlink:href="#Arial-BoldMT-4e" transform="translate(899.478516 0)"/>
      <use xlink:href="#Arial-BoldMT-29" transform="translate(971.695312 0)"/>
      <use xlink:href="#Arial-BoldMT-5d" transform="translate(1004.996094 0)"/>
     </g>
    </g>
   </g>
   <g id="matplotlib.axis_2">
    <g id="ytick_1">
     <g id="line2d_13">
      <path d="M 35.655938 265.022801 
L 289.19952 265.022801 
" clip-path="url(#p49a51b750b)" style="fill: none; stroke: #c0c0c0; stroke-width: 0.25; stroke-linecap: round"/>
     </g>
     <g id="line2d_14"/>
     <g id="text_8">
      <!-- 0.0 -->
      <g style="fill: #333333" transform="translate(19.645938 268.243817) scale(0.09 -0.09)">
       <use xlink:href="#ArialMT-30"/>
       <use xlink:href="#ArialMT-2e" transform="translate(55.615234 0)"/>
       <use xlink:href="#ArialMT-30" transform="translate(83.398438 0)"/>
      </g>
     </g>
    </g>
    <g id="ytick_2">
     <g id="line2d_15">
      <path d="M 35.655938 217.37605 
L 289.19952 217.37605 
" clip-path="url(#p49a51b750b)" style="fill: none; stroke: #c0c0c0; stroke-width: 0.25; stroke-linecap: round"/>
     </g>
     <g id="line2d_16"/>
     <g id="text_9">
      <!-- 0.2 -->
      <g style="fill: #333333" transform="translate(19.645938 220.597065) scale(0.09 -0.09)">
       <use xlink:href="#ArialMT-30"/>
       <use xlink:href="#ArialMT-2e" transform="translate(55.615234 0)"/>
       <use xlink:href="#ArialMT-32" transform="translate(83.398438 0)"/>
      </g>
     </g>
    </g>
    <g id="ytick_3">
     <g id="line2d_17">
      <path d="M 35.655938 169.729298 
L 289.19952 169.729298 
" clip-path="url(#p49a51b750b)" style="fill: none; stroke: #c0c0c0; stroke-width: 0.25; stroke-linecap: round"/>
     </g>
     <g id="line2d_18"/>
     <g id="text_10">
      <!-- 0.4 -->
      <g style="fill: #333333" transform="translate(19.645938 172.950314) scale(0.09 -0.09)">
       <use xlink:href="#ArialMT-30"/>
       <use xlink:href="#ArialMT-2e" transform="translate(55.615234 0)"/>
       <use xlink:href="#ArialMT-34" transform="translate(83.398438 0)"/>
      </g>
     </g>
    </g>
    <g id="ytick_4">
     <g id="line2d_19">
      <path d="M 35.655938 122.082547 
L 289.19952 122.082547 
" clip-path="url(#p49a51b750b)" style="fill: none; stroke: #c0c0c0; stroke-width: 0.25; stroke-linecap: round"/>
     </g>
     <g id="line2d_20"/>
     <g id="text_11">
      <!-- 0.6 -->
      <g style="fill: #333333" transform="translate(19.645938 125.303563) scale(0.09 -0.09)">
       <use xlink:href="#ArialMT-30"/>
       <use xlink:href="#ArialMT-2e" transform="translate(55.615234 0)"/>
       <use xlink:href="#ArialMT-36" transform="translate(83.398438 0)"/>
      </g>
     </g>
    </g>
    <g id="ytick_5">
     <g id="line2d_21">
      <path d="M 35.655938 74.435795 
L 289.19952 74.435795 
" clip-path="url(#p49a51b750b)" style="fill: none; stroke: #c0c0c0; stroke-width: 0.25; stroke-linecap: round"/>
     </g>
     <g id="line2d_22"/>
     <g id="text_12">
      <!-- 0.8 -->
      <g style="fill: #333333" transform="translate(19.645938 77.656811) scale(0.09 -0.09)">
       <use xlink:href="#ArialMT-30"/>
       <use xlink:href="#ArialMT-2e" transform="translate(55.615234 0)"/>
       <use xlink:href="#ArialMT-38" transform="translate(83.398438 0)"/>
      </g>
     </g>
    </g>
    <g id="ytick_6">
     <g id="line2d_23">
      <path d="M 35.655938 26.789044 
L 289.19952 26.789044 
" clip-path="url(#p49a51b750b)" style="fill: none; stroke: #c0c0c0; stroke-width: 0.25; stroke-linecap: round"/>
     </g>
     <g id="line2d_24"/>
     <g id="text_13">
      <!-- 1.0 -->
      <g style="fill: #333333" transform="translate(19.645938 30.01006) scale(0.09 -0.09)">
       <use xlink:href="#ArialMT-31"/>
       <use xlink:href="#ArialMT-2e" transform="translate(55.615234 0)"/>
       <use xlink:href="#ArialMT-30" transform="translate(83.398438 0)"/>
      </g>
     </g>
    </g>
    <g id="text_14">
     <!-- Precision [TP / (TP + FP)] -->
     <g style="fill: #333333" transform="translate(13.751719 195.805776) rotate(-90) scale(0.09 -0.09)">
      <defs>
       <path id="Arial-BoldMT-72" d="M 1300 0 
L 422 0 
L 422 3319 
L 1238 3319 
L 1238 2847 
Q 1447 3181 1614 3287 
Q 1781 3394 1994 3394 
Q 2294 3394 2572 3228 
L 2300 2463 
Q 2078 2606 1888 2606 
Q 1703 2606 1575 2504 
Q 1447 2403 1373 2137 
Q 1300 1872 1300 1025 
L 1300 0 
z
" transform="scale(0.015625)"/>
       <path id="Arial-BoldMT-69" d="M 459 3769 
L 459 4581 
L 1338 4581 
L 1338 3769 
L 459 3769 
z
M 459 0 
L 459 3319 
L 1338 3319 
L 1338 0 
L 459 0 
z
" transform="scale(0.015625)"/>
       <path id="Arial-BoldMT-73" d="M 150 947 
L 1031 1081 
Q 1088 825 1259 692 
Q 1431 559 1741 559 
Q 2081 559 2253 684 
Q 2369 772 2369 919 
Q 2369 1019 2306 1084 
Q 2241 1147 2013 1200 
Q 950 1434 666 1628 
Q 272 1897 272 2375 
Q 272 2806 612 3100 
Q 953 3394 1669 3394 
Q 2350 3394 2681 3172 
Q 3013 2950 3138 2516 
L 2309 2363 
Q 2256 2556 2107 2659 
Q 1959 2763 1684 2763 
Q 1338 2763 1188 2666 
Q 1088 2597 1088 2488 
Q 1088 2394 1175 2328 
Q 1294 2241 1995 2081 
Q 2697 1922 2975 1691 
Q 3250 1456 3250 1038 
Q 3250 581 2869 253 
Q 2488 -75 1741 -75 
Q 1063 -75 667 200 
Q 272 475 150 947 
z
" transform="scale(0.015625)"/>
       <path id="Arial-BoldMT-6f" d="M 256 1706 
Q 256 2144 472 2553 
Q 688 2963 1083 3178 
Q 1478 3394 1966 3394 
Q 2719 3394 3200 2905 
Q 3681 2416 3681 1669 
Q 3681 916 3195 420 
Q 2709 -75 1972 -75 
Q 1516 -75 1102 131 
Q 688 338 472 736 
Q 256 1134 256 1706 
z
M 1156 1659 
Q 1156 1166 1390 903 
Q 1625 641 1969 641 
Q 2313 641 2545 903 
Q 2778 1166 2778 1666 
Q 2778 2153 2545 2415 
Q 2313 2678 1969 2678 
Q 1625 2678 1390 2415 
Q 1156 2153 1156 1659 
z
" transform="scale(0.015625)"/>
       <path id="Arial-BoldMT-6e" d="M 3478 0 
L 2600 0 
L 2600 1694 
Q 2600 2231 2544 2389 
Q 2488 2547 2361 2634 
Q 2234 2722 2056 2722 
Q 1828 2722 1647 2597 
Q 1466 2472 1398 2265 
Q 1331 2059 1331 1503 
L 1331 0 
L 453 0 
L 453 3319 
L 1269 3319 
L 1269 2831 
Q 1703 3394 2363 3394 
Q 2653 3394 2893 3289 
Q 3134 3184 3257 3021 
Q 3381 2859 3429 2653 
Q 3478 2447 3478 2063 
L 3478 0 
z
" transform="scale(0.015625)"/>
      </defs>
      <use xlink:href="#Arial-BoldMT-50"/>
      <use xlink:href="#Arial-BoldMT-72" transform="translate(66.699219 0)"/>
      <use xlink:href="#Arial-BoldMT-65" transform="translate(105.615234 0)"/>
      <use xlink:href="#Arial-BoldMT-63" transform="translate(161.230469 0)"/>
      <use xlink:href="#Arial-BoldMT-69" transform="translate(216.845703 0)"/>
      <use xlink:href="#Arial-BoldMT-73" transform="translate(244.628906 0)"/>
      <use xlink:href="#Arial-BoldMT-69" transform="translate(300.244141 0)"/>
      <use xlink:href="#Arial-BoldMT-6f" transform="translate(328.027344 0)"/>
      <use xlink:href="#Arial-BoldMT-6e" transform="translate(389.111328 0)"/>
      <use xlink:href="#Arial-BoldMT-20" transform="translate(450.195312 0)"/>
      <use xlink:href="#Arial-BoldMT-5b" transform="translate(477.978516 0)"/>
      <use xlink:href="#Arial-BoldMT-54" transform="translate(511.279297 0)"/>
      <use xlink:href="#Arial-BoldMT-50" transform="translate(572.363281 0)"/>
      <use xlink:href="#Arial-BoldMT-20" transform="translate(637.3125 0)"/>
      <use xlink:href="#Arial-BoldMT-2f" transform="translate(665.095703 0)"/>
      <use xlink:href="#Arial-BoldMT-20" transform="translate(692.878906 0)"/>
      <use xlink:href="#Arial-BoldMT-28" transform="translate(720.662109 0)"/>
      <use xlink:href="#Arial-BoldMT-54" transform="translate(753.962891 0)"/>
      <use xlink:href="#Arial-BoldMT-50" transform="translate(815.046875 0)"/>
      <use xlink:href="#Arial-BoldMT-20" transform="translate(879.996094 0)"/>
      <use xlink:href="#Arial-BoldMT-2b" transform="translate(907.779297 0)"/>
      <use xlink:href="#Arial-BoldMT-20" transform="translate(966.177734 0)"/>
      <use xlink:href="#Arial-BoldMT-46" transform="translate(993.960938 0)"/>
      <use xlink:href="#Arial-BoldMT-50" transform="translate(1055.044922 0)"/>
      <use xlink:href="#Arial-BoldMT-29" transform="translate(1121.744141 0)"/>
      <use xlink:href="#Arial-BoldMT-5d" transform="translate(1155.044922 0)"/>
     </g>
    </g>
   </g>
   <g id="line2d_25">
    <path d="M 42.831699 265.022801 
L 42.942621 132.644068 
L 42.943283 132.548141 
L 43.054229 124.802067 
L 43.057523 124.70614 
L 43.16727 120.437405 
L 43.173246 120.341479 
L 43.282306 117.31979 
L 43.28418 117.31979 
L 43.288246 117.223864 
L 43.399254 114.99357 
L 43.399303 114.99357 
L 43.406051 114.897643 
L 43.516949 112.979111 
L 43.516973 112.979111 
L 43.521529 112.883184 
L 43.631887 111.156505 
L 43.632194 111.156505 
L 43.644269 111.060578 
L 43.755007 109.405844 
L 43.755277 109.405844 
L 43.763323 109.309918 
L 43.873216 107.60722 
L 43.874159 107.60722 
L 43.882549 107.511294 
L 43.991621 106.408137 
L 43.99363 106.408137 
L 43.997206 106.312211 
L 44.103486 105.209055 
L 44.10776 105.209055 
L 44.117325 105.113128 
L 44.225002 103.98599 
L 44.227378 103.98599 
L 44.232473 103.890064 
L 44.342304 102.978761 
L 44.343505 102.978761 
L 44.356756 102.882834 
L 44.467396 101.755696 
L 44.467849 101.755696 
L 44.486649 101.65977 
L 44.597546 100.676522 
L 44.597742 100.676522 
L 44.621587 100.580595 
L 44.731027 99.621329 
L 44.732595 99.621329 
L 44.743972 99.525403 
L 44.8534 98.638081 
L 44.855041 98.638081 
L 44.883748 98.542155 
L 44.991437 97.654833 
L 44.994781 97.654833 
L 45.035833 97.558907 
L 45.138084 96.695567 
L 45.146693 96.695567 
L 45.172792 96.599641 
L 45.282869 95.904173 
L 45.283689 95.904173 
L 45.314638 95.808246 
L 45.426797 95.256668 
L 45.45385 95.160741 
L 45.563193 94.441292 
L 45.564932 94.441292 
L 45.594092 94.345365 
L 45.701695 93.889714 
L 45.704916 93.889714 
L 45.721045 93.793787 
L 45.81972 93.194246 
L 45.83209 93.194246 
L 45.844018 93.098319 
L 45.954965 92.450814 
L 45.977818 92.354888 
L 46.086388 91.9472 
L 46.088923 91.9472 
L 46.115794 91.851273 
L 46.227083 91.179787 
L 46.234982 91.08386 
L 46.342059 90.484319 
L 46.345929 90.484319 
L 46.361433 90.388392 
L 46.471425 90.100612 
L 46.472429 90.100612 
L 46.490714 90.004686 
L 46.601966 89.644961 
L 46.642786 89.549034 
L 46.751393 89.117364 
L 46.753438 89.117364 
L 46.787693 89.021438 
L 46.895798 88.565786 
L 46.898799 88.565786 
L 46.919276 88.46986 
L 47.022813 87.942263 
L 47.030137 87.942263 
L 47.056297 87.846337 
L 47.16848 87.294759 
L 47.195289 87.198832 
L 47.306039 86.647254 
L 47.337429 86.551327 
L 47.446869 85.951786 
L 47.448436 85.951786 
L 47.473175 85.855859 
L 47.585053 85.496135 
L 47.608873 85.400208 
L 47.717064 84.872612 
L 47.719954 84.872612 
L 47.763235 84.776685 
L 47.865952 84.512887 
L 47.87417 84.512887 
L 47.890838 84.41696 
L 48.001919 84.081217 
L 48.029193 83.98529 
L 48.139699 83.601584 
L 48.17197 83.505657 
L 48.262733 83.145932 
L 48.282794 83.145932 
L 48.295776 83.050006 
L 48.405522 82.666299 
L 48.406808 82.666299 
L 48.438381 82.570373 
L 48.54362 82.186666 
L 48.549229 82.186666 
L 48.607623 82.09074 
L 48.719341 81.683051 
L 48.730339 81.587125 
L 48.841592 81.299345 
L 48.86289 81.203418 
L 48.960009 80.79573 
L 48.973554 80.79573 
L 49.030369 80.699804 
L 49.141156 80.316097 
L 49.141266 80.316097 
L 49.16614 80.220171 
L 49.259622 79.980354 
L 49.277221 79.980354 
L 49.326858 79.884427 
L 49.425913 79.500721 
L 49.437878 79.500721 
L 49.469414 79.404794 
L 49.579467 79.164978 
L 49.580434 79.164978 
L 49.609105 79.069051 
L 49.714234 78.685345 
L 49.720149 78.685345 
L 49.779474 78.589418 
L 49.8896 78.229693 
L 49.890261 78.229693 
L 49.949892 78.133767 
L 50.061929 77.702097 
L 50.097421 77.60617 
L 50.208012 77.126537 
L 50.237552 77.03061 
L 50.353397 76.622922 
L 50.394792 76.526996 
L 50.505898 76.287179 
L 50.527624 76.191253 
L 50.638865 75.831528 
L 50.677933 75.735601 
L 50.788879 75.375876 
L 50.846918 75.27995 
L 50.965519 74.968188 
L 51.051616 74.872262 
L 51.160248 74.608463 
L 51.16271 74.608463 
L 51.243014 74.512537 
L 51.352576 74.344665 
L 51.353801 74.344665 
L 51.413934 74.248739 
L 51.466805 74.080867 
L 51.52504 74.080867 
L 51.552241 73.98494 
L 51.661399 73.673179 
L 51.663199 73.673179 
L 51.720626 73.577252 
L 51.823183 73.289472 
L 51.831413 73.289472 
L 51.932966 73.193546 
L 52.044341 72.929748 
L 52.137958 72.833821 
L 52.238041 72.522059 
L 52.249063 72.522059 
L 52.276472 72.426133 
L 52.38737 72.23428 
L 52.464245 72.138353 
L 52.569545 71.80261 
L 52.575301 71.80261 
L 52.653438 71.706683 
L 52.742499 71.586775 
L 52.764225 71.586775 
L 52.844578 71.490848 
L 52.95572 71.346958 
L 53.047586 71.251032 
L 53.154283 71.08316 
L 53.158655 71.08316 
L 53.199536 70.987233 
L 53.305497 70.79538 
L 53.310372 70.79538 
L 53.41239 70.699454 
L 53.474764 70.531582 
L 53.523496 70.531582 
L 53.564903 70.435655 
L 53.6734 70.171857 
L 53.675984 70.171857 
L 53.720931 70.075931 
L 53.828742 69.884077 
L 53.831988 69.884077 
L 53.867884 69.788151 
L 53.963815 69.644261 
L 53.978989 69.644261 
L 54.105882 69.548334 
L 54.212652 69.284536 
L 54.216963 69.284536 
L 54.228965 69.188609 
L 54.326403 69.044719 
L 54.33996 69.044719 
L 54.400865 68.948793 
L 54.496858 68.732958 
L 54.511958 68.732958 
L 54.587008 68.661013 
L 54.707753 68.421196 
L 54.875795 68.32527 
L 54.989056 68.085453 
L 55.048381 67.989527 
L 55.157723 67.773692 
L 55.159438 67.773692 
L 55.21232 67.677765 
L 55.321846 67.413967 
L 55.323242 67.413967 
L 55.416406 67.31804 
L 55.527757 67.150169 
L 55.675652 67.054242 
L 55.771817 66.718499 
L 55.786734 66.718499 
L 55.831693 66.622572 
L 55.940018 66.454701 
L 55.942737 66.454701 
L 55.97747 66.358774 
L 56.082501 66.142939 
L 56.088465 66.142939 
L 56.168941 66.047013 
L 56.280353 65.711269 
L 56.370883 65.615343 
L 56.475008 65.375526 
L 56.48194 65.375526 
L 56.546408 65.2796 
L 56.63798 65.039783 
L 56.657428 65.039783 
L 56.725167 64.943857 
L 56.817988 64.728022 
L 56.835844 64.728022 
L 56.966667 64.632095 
L 57.07792 64.440242 
L 57.171328 64.344315 
L 57.282789 64.176444 
L 57.374116 64.080517 
L 57.484009 63.960609 
L 57.485221 63.960609 
L 57.592089 63.864682 
L 57.660502 63.720792 
L 57.702166 63.720792 
L 57.742472 63.624866 
L 57.853246 63.480976 
L 57.895119 63.385049 
L 57.999795 63.265141 
L 58.006188 63.265141 
L 58.164874 63.169214 
L 58.241222 63.025324 
L 58.275943 63.025324 
L 58.338452 62.929398 
L 58.450525 62.737544 
L 58.506102 62.641618 
L 58.612909 62.521709 
L 58.617098 62.521709 
L 58.677684 62.425783 
L 58.784025 62.305875 
L 58.78879 62.305875 
L 58.881831 62.209948 
L 58.993867 62.09004 
L 59.166759 61.994113 
L 59.275673 61.850223 
L 59.277865 61.850223 
L 59.343117 61.754296 
L 59.444462 61.562443 
L 59.454211 61.562443 
L 59.547289 61.466517 
L 59.647813 61.178737 
L 59.658333 61.178737 
L 59.714951 61.08281 
L 59.812377 61.010865 
L 59.825959 61.010865 
L 59.850367 60.914939 
L 59.963812 60.723085 
L 60.045439 60.627159 
L 60.151205 60.387342 
L 60.156508 60.387342 
L 60.236873 60.291416 
L 60.349191 60.075581 
L 60.479304 59.979654 
L 60.570362 59.811782 
L 60.590214 59.811782 
L 60.667665 59.715856 
L 60.778501 59.547984 
L 60.893121 59.452058 
L 60.974405 59.356131 
L 61.004227 59.356131 
L 61.063295 59.260204 
L 61.174694 59.188259 
L 61.242274 59.092333 
L 61.353404 59.044369 
L 61.407769 58.948443 
L 61.494723 58.780571 
L 61.518838 58.780571 
L 61.567079 58.684645 
L 61.678442 58.6127 
L 61.827746 58.516773 
L 61.938888 58.396865 
L 62.094194 58.300938 
L 62.208337 58.252975 
L 62.353648 58.157048 
L 62.434883 57.941213 
L 62.46446 57.941213 
L 62.621064 57.845287 
L 62.73359 57.701397 
L 62.880898 57.60547 
L 62.992248 57.437599 
L 63.258427 57.341672 
L 63.371063 57.197782 
L 63.428282 57.101855 
L 63.539424 56.933984 
L 63.763962 56.838057 
L 63.836024 56.670186 
L 63.875068 56.670186 
L 63.971722 56.574259 
L 64.061126 56.406387 
L 64.082766 56.406387 
L 64.21817 56.310461 
L 64.354235 56.166571 
L 64.502486 56.070644 
L 64.614792 55.998699 
L 64.749522 55.902773 
L 64.857836 55.782864 
L 64.860603 55.782864 
L 65.040256 55.686938 
L 65.083831 55.56703 
L 65.151349 55.56703 
L 65.3662 55.471103 
L 65.462352 55.327213 
L 65.477146 55.327213 
L 65.661159 55.231286 
L 65.769534 55.087396 
L 65.772228 55.087396 
L 65.964985 54.99147 
L 66.083414 54.919525 
L 66.149585 54.823598 
L 66.166376 54.751653 
L 66.260605 54.751653 
L 66.460759 54.655727 
L 66.571816 54.487855 
L 66.808356 54.391928 
L 66.820812 54.319984 
L 66.919229 54.319984 
L 66.983502 54.224057 
L 67.044921 54.176094 
L 67.094301 54.176094 
L 67.191029 54.080167 
L 67.252742 53.936277 
L 67.302134 53.936277 
L 67.442707 53.84035 
L 67.569721 53.69646 
L 67.652536 53.600534 
L 67.750831 53.456644 
L 67.763605 53.456644 
L 67.894269 53.360717 
L 68.005816 53.216827 
L 68.255154 53.120901 
L 68.366223 53.024974 
L 68.553701 52.929048 
L 68.640043 52.689231 
L 68.664783 52.689231 
L 69.061576 52.593304 
L 69.173808 52.473396 
L 69.330583 52.377469 
L 69.441481 52.23358 
L 69.573039 52.137653 
L 69.649571 52.065708 
L 69.684132 52.065708 
L 69.840307 51.969781 
L 69.940746 51.825891 
L 69.951413 51.825891 
L 70.059788 51.729965 
L 70.135205 51.65802 
L 70.170832 51.65802 
L 70.22276 51.562093 
L 70.32299 51.490148 
L 70.333657 51.490148 
L 70.465828 51.394222 
L 70.57768 51.202368 
L 70.698461 51.106442 
L 70.791563 51.034497 
L 70.809175 51.034497 
L 70.974376 50.93857 
L 71.011827 50.890607 
L 71.085371 50.890607 
L 71.245257 50.79468 
L 71.356399 50.698754 
L 71.559591 50.602827 
L 71.658768 50.5069 
L 71.670525 50.5069 
L 71.791894 50.410974 
L 71.859694 50.339029 
L 71.902987 50.339029 
L 72.062358 50.243102 
L 72.1342 50.147176 
L 72.173427 50.147176 
L 72.391021 50.051249 
L 72.402068 50.003286 
L 72.502078 50.003286 
L 72.678216 49.907359 
L 72.758655 49.835414 
L 72.789297 49.835414 
L 72.93756 49.739487 
L 73.019909 49.643561 
L 73.048653 49.643561 
L 73.176378 49.547634 
L 73.237712 49.451708 
L 73.287361 49.451708 
L 73.387935 49.355781 
L 73.499028 49.283836 
L 73.639845 49.187909 
L 73.737258 49.068001 
L 73.750938 49.068001 
L 73.986756 48.972075 
L 74.050502 48.828185 
L 74.097849 48.828185 
L 74.263675 48.732258 
L 74.263675 48.708276 
L 74.374768 48.708276 
L 74.693915 48.61235 
L 74.753363 48.540405 
L 74.805021 48.540405 
L 75.18386 48.444478 
L 75.266063 48.348551 
L 75.294868 48.348551 
L 75.581976 48.252625 
L 75.581976 48.228643 
L 75.693045 48.228643 
L 75.870665 48.132717 
L 75.976308 48.060772 
L 75.98166 48.060772 
L 76.150891 47.964845 
L 76.24523 47.916882 
L 76.261984 47.916882 
L 76.33249 47.820955 
L 76.443596 47.677065 
L 76.645649 47.581139 
L 76.645649 47.557157 
L 76.756595 47.557157 
L 77.063385 47.46123 
L 77.174368 47.413267 
L 77.251243 47.31734 
L 77.362373 47.245395 
L 77.556208 47.149469 
L 77.667142 47.053542 
L 77.807469 46.957616 
L 77.925604 46.861689 
L 78.172101 46.765762 
L 78.23668 46.645854 
L 78.28317 46.645854 
L 78.609494 46.549927 
L 78.717171 46.358074 
L 78.720563 46.358074 
L 78.996282 46.262148 
L 78.996282 46.238166 
L 79.107363 46.238166 
L 79.288608 46.142239 
L 79.399603 46.070294 
L 79.705952 45.974368 
L 79.705952 45.950386 
L 79.817057 45.950386 
L 80.141875 45.854459 
L 80.141875 45.830478 
L 80.252907 45.830478 
L 80.472203 45.734551 
L 80.583064 45.590661 
L 80.58326 45.590661 
L 80.732295 45.494735 
L 80.845188 45.42279 
L 81.161298 45.326863 
L 81.237365 45.2789 
L 81.272379 45.2789 
L 81.464144 45.182973 
L 81.464144 45.158991 
L 81.575139 45.158991 
L 81.912792 45.063065 
L 81.912792 45.039083 
L 82.023873 45.039083 
L 82.186012 44.943157 
L 82.299077 44.871212 
L 82.491516 44.775285 
L 82.51067 44.727322 
L 82.602462 44.727322 
L 82.979489 44.631395 
L 83.094232 44.583432 
L 83.269341 44.487505 
L 83.380618 44.439542 
L 83.701614 44.343615 
L 83.812695 44.319634 
L 84.030681 44.223707 
L 84.035127 44.175744 
L 84.141701 44.175744 
L 84.299689 44.079817 
L 84.410904 44.055835 
L 84.57951 43.959909 
L 84.691179 43.887964 
L 84.850795 43.792037 
L 84.931626 43.672129 
L 84.961191 43.672129 
L 85.342479 43.576202 
L 85.453659 43.528239 
L 85.660451 43.432312 
L 85.751202 43.360367 
L 85.771556 43.360367 
L 86.043197 43.264441 
L 86.15407 43.240459 
L 86.521152 43.144532 
L 86.591842 43.096569 
L 86.632257 43.096569 
L 86.98261 43.000643 
L 87.023821 42.952679 
L 87.093385 42.952679 
L 87.41481 42.856753 
L 87.41481 42.832771 
L 87.525732 42.832771 
L 87.712096 42.736844 
L 87.820225 42.640918 
L 87.823005 42.640918 
L 88.152844 42.544991 
L 88.247979 42.449064 
L 88.263888 42.449064 
L 88.628374 42.353138 
L 88.662801 42.305175 
L 88.739333 42.305175 
L 89.076752 42.209248 
L 89.18231 42.137303 
L 89.187858 42.137303 
L 89.478408 42.041376 
L 89.553042 41.969431 
L 89.58933 41.969431 
L 89.934134 41.873505 
L 90.023783 41.753596 
L 90.04524 41.753596 
L 90.203019 41.65767 
L 90.270293 41.609707 
L 90.314125 41.609707 
L 90.501395 41.51378 
L 90.571155 41.441835 
L 90.612488 41.441835 
L 90.967617 41.345908 
L 91.078172 41.273963 
L 91.078711 41.273963 
L 91.500941 41.178037 
L 91.612696 41.08211 
L 91.978505 40.986184 
L 91.998051 40.93822 
L 92.089573 40.93822 
L 92.382732 40.842294 
L 92.3964 40.770349 
L 92.493764 40.770349 
L 92.71829 40.674422 
L 92.823982 40.50655 
L 92.82909 40.50655 
L 93.128127 40.410624 
L 93.239257 40.290716 
L 93.894097 40.194789 
L 94.004614 40.170807 
L 94.293229 40.074881 
L 94.393361 39.907009 
L 94.404249 39.907009 
L 94.722012 39.811082 
L 94.77563 39.739137 
L 94.833032 39.739137 
L 95.049046 39.643211 
L 95.136588 39.595248 
L 95.160054 39.595248 
L 95.739072 39.499321 
L 95.739072 39.475339 
L 95.849957 39.475339 
L 96.009439 39.379413 
L 96.110906 39.331449 
L 96.120483 39.331449 
L 96.298176 39.235523 
L 96.409514 39.163578 
L 96.689115 39.067651 
L 96.732384 39.019688 
L 96.800197 39.019688 
L 97.079185 38.923761 
L 97.160114 38.875798 
L 97.188491 38.875798 
L 97.294305 38.779871 
L 97.329173 38.707926 
L 97.405313 38.707926 
L 97.726628 38.612 
L 97.726628 38.588018 
L 97.83755 38.588018 
L 98.122907 38.516073 
L 98.301567 38.372183 
L 98.605014 38.276257 
L 98.605014 38.252275 
L 98.716058 38.252275 
L 99.30273 38.156348 
L 99.41413 38.108385 
L 99.715445 38.012458 
L 99.757967 37.964495 
L 99.826526 37.964495 
L 100.219621 37.868568 
L 100.330825 37.820605 
L 100.534898 37.724678 
L 100.534898 37.700697 
L 100.645955 37.700697 
L 100.923559 37.60477 
L 100.975744 37.556807 
L 101.034641 37.556807 
L 101.491984 37.46088 
L 101.491984 37.436899 
L 101.603065 37.436899 
L 102.383474 37.340972 
L 102.491934 37.245045 
L 102.494408 37.245045 
L 102.71526 37.149119 
L 102.79941 37.029211 
L 102.826366 37.029211 
L 103.33157 36.933284 
L 103.422566 36.885321 
L 103.442651 36.885321 
L 103.804333 36.789394 
L 103.855452 36.741431 
L 103.915438 36.741431 
L 104.330161 36.645504 
L 104.444084 36.573559 
L 104.868274 36.477632 
L 104.868274 36.453651 
L 104.979355 36.453651 
L 105.61275 36.357724 
L 105.697463 36.309761 
L 105.723844 36.309761 
L 106.044889 36.213834 
L 106.075862 36.165871 
L 106.155982 36.165871 
L 106.43322 36.069944 
L 106.524607 36.021981 
L 106.544325 36.021981 
L 106.957701 35.926054 
L 107.0401 35.878091 
L 107.068758 35.878091 
L 107.213751 35.782164 
L 107.324845 35.734201 
L 107.750186 35.638275 
L 107.85703 35.590311 
L 107.861267 35.590311 
L 108.365529 35.494385 
L 108.465037 35.398458 
L 108.476451 35.398458 
L 109.060943 35.302531 
L 109.060943 35.27855 
L 109.172012 35.27855 
L 109.391015 35.182623 
L 109.391015 35.158641 
L 109.501973 35.158641 
L 110.015053 35.062715 
L 110.126195 34.99077 
L 110.269743 34.894843 
L 110.269743 34.870862 
L 110.380825 34.870862 
L 110.907143 34.774935 
L 110.907143 34.750953 
L 111.018212 34.750953 
L 111.62339 34.655027 
L 111.732707 34.607063 
L 111.734483 34.607063 
L 112.328283 34.511137 
L 112.328283 34.487155 
L 112.439352 34.487155 
L 112.907644 34.391228 
L 113.018762 34.343265 
L 113.673945 34.247339 
L 113.743214 34.175394 
L 113.785026 34.175394 
L 114.107761 34.079467 
L 114.20575 34.007522 
L 114.218622 34.007522 
L 114.562937 33.911595 
L 114.621061 33.863632 
L 114.674042 33.863632 
L 114.860921 33.767705 
L 114.935187 33.695761 
L 114.97161 33.695761 
L 115.318656 33.599834 
L 115.387521 33.527889 
L 115.429749 33.527889 
L 115.944335 33.431962 
L 116.055367 33.336036 
L 116.600106 33.240109 
L 116.600106 33.216127 
L 116.711211 33.216127 
L 117.455063 33.120201 
L 117.565972 33.096219 
L 117.923832 33.000293 
L 118.035244 32.976311 
L 118.195277 32.880384 
L 118.201792 32.832421 
L 118.306346 32.832421 
L 118.537963 32.736494 
L 118.586927 32.688531 
L 118.649056 32.688531 
L 119.673538 32.592604 
L 119.781398 32.544641 
L 119.784374 32.544641 
L 120.174272 32.448714 
L 120.285366 32.424733 
L 121.098695 32.328806 
L 121.211846 32.208898 
L 121.422667 32.112971 
L 121.53332 32.08899 
L 122.80022 31.993063 
L 122.912942 31.9451 
L 123.731771 31.849173 
L 123.847114 31.80121 
L 124.026974 31.705283 
L 124.13797 31.633338 
L 124.492976 31.537412 
L 124.604057 31.51343 
L 125.308816 31.417503 
L 125.406817 31.36954 
L 125.419922 31.36954 
L 126.00232 31.273613 
L 126.00232 31.249632 
L 126.113426 31.249632 
L 126.836727 31.153705 
L 126.836727 31.129723 
L 126.94782 31.129723 
L 127.281872 31.033797 
L 127.281872 31.009815 
L 127.392965 31.009815 
L 128.475645 30.913889 
L 128.475645 30.889907 
L 128.586358 30.889907 
L 128.863424 30.79398 
L 128.974518 30.769999 
L 129.508662 30.674072 
L 129.535802 30.626109 
L 129.619707 30.626109 
L 130.020297 30.530182 
L 130.020297 30.5062 
L 130.131366 30.5062 
L 130.748398 30.410274 
L 130.795746 30.338329 
L 130.859504 30.338329 
L 131.786964 30.242402 
L 131.786964 30.218421 
L 131.89807 30.218421 
L 132.868517 30.122494 
L 132.868517 30.098512 
L 132.979549 30.098512 
L 134.311898 30.002586 
L 134.311898 29.978604 
L 134.422869 29.978604 
L 136.231409 29.882677 
L 136.231409 29.858696 
L 136.342502 29.858696 
L 136.834064 29.762769 
L 136.9449 29.738787 
L 137.452334 29.642861 
L 137.452334 29.618879 
L 137.563366 29.618879 
L 139.835054 29.522953 
L 139.946833 29.474989 
L 140.566745 29.379063 
L 140.674752 29.331099 
L 140.677728 29.331099 
L 141.365108 29.235173 
L 141.365108 29.211191 
L 141.475969 29.211191 
L 142.617079 29.115264 
L 142.687659 29.067301 
L 142.728123 29.067301 
L 143.000119 28.971375 
L 143.000119 28.947393 
L 143.111127 28.947393 
L 144.322401 28.851466 
L 144.322401 28.827485 
L 144.433445 28.827485 
L 145.976505 28.731558 
L 145.976505 28.707576 
L 146.087598 28.707576 
L 146.537642 28.61165 
L 146.537642 28.587668 
L 146.64865 28.587668 
L 147.600923 28.491741 
L 147.600923 28.46776 
L 147.712028 28.46776 
L 148.295026 28.371833 
L 148.406328 28.32387 
L 149.485897 28.227943 
L 149.485897 28.203962 
L 149.596292 28.203962 
L 150.251989 28.108035 
L 150.251989 28.084053 
L 150.363034 28.084053 
L 151.980691 27.988127 
L 151.980691 27.964145 
L 152.091772 27.964145 
L 153.112775 27.868218 
L 153.112775 27.844237 
L 153.222521 27.844237 
L 153.95393 27.74831 
L 153.95393 27.724328 
L 154.064558 27.724328 
L 154.941682 27.628402 
L 154.986078 27.580439 
L 155.05269 27.580439 
L 156.048317 27.484512 
L 156.105988 27.004879 
L 156.15919 27.004879 
L 282.015528 26.908952 
L 282.023611 26.789044 
L 282.023758 26.789044 
" clip-path="url(#p49a51b750b)" style="fill: none; stroke: #1f77b4; stroke-width: 1.5; stroke-linecap: round"/>
   </g>
   <g id="patch_3">
    <path d="M 35.655938 265.022801 
L 35.655938 19.642031 
" style="fill: none"/>
   </g>
   <g id="patch_4">
    <path d="M 289.19952 265.022801 
L 289.19952 19.642031 
" style="fill: none"/>
   </g>
   <g id="patch_5">
    <path d="M 35.655938 265.022801 
L 289.19952 265.022801 
" style="fill: none"/>
   </g>
   <g id="patch_6">
    <path d="M 35.655938 19.642031 
L 289.19952 19.642031 
" style="fill: none"/>
   </g>
   <g id="text_15">
    <!-- Model 2: Precision-Recall Curve -->
    <g style="fill: #333333" transform="translate(93.910307 13.642031) scale(0.09 -0.09)">
     <defs>
      <path id="Arial-BoldMT-4d" d="M 453 0 
L 453 4581 
L 1838 4581 
L 2669 1456 
L 3491 4581 
L 4878 4581 
L 4878 0 
L 4019 0 
L 4019 3606 
L 3109 0 
L 2219 0 
L 1313 3606 
L 1313 0 
L 453 0 
z
" transform="scale(0.015625)"/>
      <path id="Arial-BoldMT-64" d="M 3503 0 
L 2688 0 
L 2688 488 
Q 2484 203 2207 64 
Q 1931 -75 1650 -75 
Q 1078 -75 670 386 
Q 263 847 263 1672 
Q 263 2516 659 2955 
Q 1056 3394 1663 3394 
Q 2219 3394 2625 2931 
L 2625 4581 
L 3503 4581 
L 3503 0 
z
M 1159 1731 
Q 1159 1200 1306 963 
Q 1519 619 1900 619 
Q 2203 619 2415 876 
Q 2628 1134 2628 1647 
Q 2628 2219 2422 2470 
Q 2216 2722 1894 2722 
Q 1581 2722 1370 2473 
Q 1159 2225 1159 1731 
z
" transform="scale(0.015625)"/>
      <path id="Arial-BoldMT-32" d="M 3238 816 
L 3238 0 
L 159 0 
Q 209 463 459 877 
Q 709 1291 1447 1975 
Q 2041 2528 2175 2725 
Q 2356 2997 2356 3263 
Q 2356 3556 2198 3714 
Q 2041 3872 1763 3872 
Q 1488 3872 1325 3706 
Q 1163 3541 1138 3156 
L 263 3244 
Q 341 3969 753 4284 
Q 1166 4600 1784 4600 
Q 2463 4600 2850 4234 
Q 3238 3869 3238 3325 
Q 3238 3016 3127 2736 
Q 3016 2456 2775 2150 
Q 2616 1947 2200 1565 
Q 1784 1184 1673 1059 
Q 1563 934 1494 816 
L 3238 816 
z
" transform="scale(0.015625)"/>
      <path id="Arial-BoldMT-3a" d="M 628 2441 
L 628 3319 
L 1506 3319 
L 1506 2441 
L 628 2441 
z
M 628 0 
L 628 878 
L 1506 878 
L 1506 0 
L 628 0 
z
" transform="scale(0.015625)"/>
      <path id="Arial-BoldMT-2d" d="M 359 1222 
L 359 2100 
L 2084 2100 
L 2084 1222 
L 359 1222 
z
" transform="scale(0.015625)"/>
      <path id="Arial-BoldMT-43" d="M 3397 1684 
L 4294 1400 
Q 4088 650 3608 286 
Q 3128 -78 2391 -78 
Q 1478 -78 890 545 
Q 303 1169 303 2250 
Q 303 3394 893 4026 
Q 1484 4659 2447 4659 
Q 3288 4659 3813 4163 
Q 4125 3869 4281 3319 
L 3366 3100 
Q 3284 3456 3026 3662 
Q 2769 3869 2400 3869 
Q 1891 3869 1573 3503 
Q 1256 3138 1256 2319 
Q 1256 1450 1568 1081 
Q 1881 713 2381 713 
Q 2750 713 3015 947 
Q 3281 1181 3397 1684 
z
" transform="scale(0.015625)"/>
      <path id="Arial-BoldMT-75" d="M 2644 0 
L 2644 497 
Q 2463 231 2167 78 
Q 1872 -75 1544 -75 
Q 1209 -75 943 72 
Q 678 219 559 484 
Q 441 750 441 1219 
L 441 3319 
L 1319 3319 
L 1319 1794 
Q 1319 1094 1367 936 
Q 1416 778 1544 686 
Q 1672 594 1869 594 
Q 2094 594 2272 717 
Q 2450 841 2515 1023 
Q 2581 1206 2581 1919 
L 2581 3319 
L 3459 3319 
L 3459 0 
L 2644 0 
z
" transform="scale(0.015625)"/>
      <path id="Arial-BoldMT-76" d="M 1372 0 
L 34 3319 
L 956 3319 
L 1581 1625 
L 1763 1059 
Q 1834 1275 1853 1344 
Q 1897 1484 1947 1625 
L 2578 3319 
L 3481 3319 
L 2163 0 
L 1372 0 
z
" transform="scale(0.015625)"/>
     </defs>
     <use xlink:href="#Arial-BoldMT-4d"/>
     <use xlink:href="#Arial-BoldMT-6f" transform="translate(83.300781 0)"/>
     <use xlink:href="#Arial-BoldMT-64" transform="translate(144.384766 0)"/>
     <use xlink:href="#Arial-BoldMT-65" transform="translate(205.46875 0)"/>
     <use xlink:href="#Arial-BoldMT-6c" transform="translate(261.083984 0)"/>
     <use xlink:href="#Arial-BoldMT-20" transform="translate(288.867188 0)"/>
     <use xlink:href="#Arial-BoldMT-32" transform="translate(316.650391 0)"/>
     <use xlink:href="#Arial-BoldMT-3a" transform="translate(372.265625 0)"/>
     <use xlink:href="#Arial-BoldMT-20" transform="translate(405.566406 0)"/>
     <use xlink:href="#Arial-BoldMT-50" transform="translate(433.349609 0)"/>
     <use xlink:href="#Arial-BoldMT-72" transform="translate(500.048828 0)"/>
     <use xlink:href="#Arial-BoldMT-65" transform="translate(538.964844 0)"/>
     <use xlink:href="#Arial-BoldMT-63" transform="translate(594.580078 0)"/>
     <use xlink:href="#Arial-BoldMT-69" transform="translate(650.195312 0)"/>
     <use xlink:href="#Arial-BoldMT-73" transform="translate(677.978516 0)"/>
     <use xlink:href="#Arial-BoldMT-69" transform="translate(733.59375 0)"/>
     <use xlink:href="#Arial-BoldMT-6f" transform="translate(761.376953 0)"/>
     <use xlink:href="#Arial-BoldMT-6e" transform="translate(822.460938 0)"/>
     <use xlink:href="#Arial-BoldMT-2d" transform="translate(883.544922 0)"/>
     <use xlink:href="#Arial-BoldMT-52" transform="translate(916.845703 0)"/>
     <use xlink:href="#Arial-BoldMT-65" transform="translate(989.0625 0)"/>
     <use xlink:href="#Arial-BoldMT-63" transform="translate(1044.677734 0)"/>
     <use xlink:href="#Arial-BoldMT-61" transform="translate(1100.292969 0)"/>
     <use xlink:href="#Arial-BoldMT-6c" transform="translate(1155.908203 0)"/>
     <use xlink:href="#Arial-BoldMT-6c" transform="translate(1183.691406 0)"/>
     <use xlink:href="#Arial-BoldMT-20" transform="translate(1211.474609 0)"/>
     <use xlink:href="#Arial-BoldMT-43" transform="translate(1239.257812 0)"/>
     <use xlink:href="#Arial-BoldMT-75" transform="translate(1311.474609 0)"/>
     <use xlink:href="#Arial-BoldMT-72" transform="translate(1372.558594 0)"/>
     <use xlink:href="#Arial-BoldMT-76" transform="translate(1411.474609 0)"/>
     <use xlink:href="#Arial-BoldMT-65" transform="translate(1467.089844 0)"/>
    </g>
   </g>
   <g id="legend_1">
    <g id="patch_7">
     <path d="M 164.573426 260.522801 
L 282.89952 260.522801 
Q 284.69952 260.522801 284.69952 258.722801 
L 284.69952 246.89202 
Q 284.69952 245.09202 282.89952 245.09202 
L 164.573426 245.09202 
Q 162.773426 245.09202 162.773426 246.89202 
L 162.773426 258.722801 
Q 162.773426 260.522801 164.573426 260.522801 
z
" style="fill: #ffffff; opacity: 0.8; stroke: #cccccc; stroke-width: 0.75; stroke-linejoin: miter"/>
    </g>
    <g id="line2d_26">
     <path d="M 166.373426 251.984051 
L 175.373426 251.984051 
L 184.373426 251.984051 
" style="fill: none; stroke: #1f77b4; stroke-width: 1.5; stroke-linecap: round"/>
    </g>
    <g id="text_16">
     <!-- Precision-Recall curve -->
     <g style="fill: #333333" transform="translate(191.573426 255.134051) scale(0.09 -0.09)">
      <defs>
       <path id="ArialMT-50" d="M 494 0 
L 494 4581 
L 2222 4581 
Q 2678 4581 2919 4538 
Q 3256 4481 3484 4323 
Q 3713 4166 3852 3881 
Q 3991 3597 3991 3256 
Q 3991 2672 3619 2267 
Q 3247 1863 2275 1863 
L 1100 1863 
L 1100 0 
L 494 0 
z
M 1100 2403 
L 2284 2403 
Q 2872 2403 3119 2622 
Q 3366 2841 3366 3238 
Q 3366 3525 3220 3729 
Q 3075 3934 2838 4000 
Q 2684 4041 2272 4041 
L 1100 4041 
L 1100 2403 
z
" transform="scale(0.015625)"/>
       <path id="ArialMT-72" d="M 416 0 
L 416 3319 
L 922 3319 
L 922 2816 
Q 1116 3169 1280 3281 
Q 1444 3394 1641 3394 
Q 1925 3394 2219 3213 
L 2025 2691 
Q 1819 2813 1613 2813 
Q 1428 2813 1281 2702 
Q 1134 2591 1072 2394 
Q 978 2094 978 1738 
L 978 0 
L 416 0 
z
" transform="scale(0.015625)"/>
       <path id="ArialMT-65" d="M 2694 1069 
L 3275 997 
Q 3138 488 2766 206 
Q 2394 -75 1816 -75 
Q 1088 -75 661 373 
Q 234 822 234 1631 
Q 234 2469 665 2931 
Q 1097 3394 1784 3394 
Q 2450 3394 2872 2941 
Q 3294 2488 3294 1666 
Q 3294 1616 3291 1516 
L 816 1516 
Q 847 969 1125 678 
Q 1403 388 1819 388 
Q 2128 388 2347 550 
Q 2566 713 2694 1069 
z
M 847 1978 
L 2700 1978 
Q 2663 2397 2488 2606 
Q 2219 2931 1791 2931 
Q 1403 2931 1139 2672 
Q 875 2413 847 1978 
z
" transform="scale(0.015625)"/>
       <path id="ArialMT-63" d="M 2588 1216 
L 3141 1144 
Q 3050 572 2676 248 
Q 2303 -75 1759 -75 
Q 1078 -75 664 370 
Q 250 816 250 1647 
Q 250 2184 428 2587 
Q 606 2991 970 3192 
Q 1334 3394 1763 3394 
Q 2303 3394 2647 3120 
Q 2991 2847 3088 2344 
L 2541 2259 
Q 2463 2594 2264 2762 
Q 2066 2931 1784 2931 
Q 1359 2931 1093 2626 
Q 828 2322 828 1663 
Q 828 994 1084 691 
Q 1341 388 1753 388 
Q 2084 388 2306 591 
Q 2528 794 2588 1216 
z
" transform="scale(0.015625)"/>
       <path id="ArialMT-69" d="M 425 3934 
L 425 4581 
L 988 4581 
L 988 3934 
L 425 3934 
z
M 425 0 
L 425 3319 
L 988 3319 
L 988 0 
L 425 0 
z
" transform="scale(0.015625)"/>
       <path id="ArialMT-73" d="M 197 991 
L 753 1078 
Q 800 744 1014 566 
Q 1228 388 1613 388 
Q 2000 388 2187 545 
Q 2375 703 2375 916 
Q 2375 1106 2209 1216 
Q 2094 1291 1634 1406 
Q 1016 1563 777 1677 
Q 538 1791 414 1992 
Q 291 2194 291 2438 
Q 291 2659 392 2848 
Q 494 3038 669 3163 
Q 800 3259 1026 3326 
Q 1253 3394 1513 3394 
Q 1903 3394 2198 3281 
Q 2494 3169 2634 2976 
Q 2775 2784 2828 2463 
L 2278 2388 
Q 2241 2644 2061 2787 
Q 1881 2931 1553 2931 
Q 1166 2931 1000 2803 
Q 834 2675 834 2503 
Q 834 2394 903 2306 
Q 972 2216 1119 2156 
Q 1203 2125 1616 2013 
Q 2213 1853 2448 1751 
Q 2684 1650 2818 1456 
Q 2953 1263 2953 975 
Q 2953 694 2789 445 
Q 2625 197 2315 61 
Q 2006 -75 1616 -75 
Q 969 -75 630 194 
Q 291 463 197 991 
z
" transform="scale(0.015625)"/>
       <path id="ArialMT-6f" d="M 213 1659 
Q 213 2581 725 3025 
Q 1153 3394 1769 3394 
Q 2453 3394 2887 2945 
Q 3322 2497 3322 1706 
Q 3322 1066 3130 698 
Q 2938 331 2570 128 
Q 2203 -75 1769 -75 
Q 1072 -75 642 372 
Q 213 819 213 1659 
z
M 791 1659 
Q 791 1022 1069 705 
Q 1347 388 1769 388 
Q 2188 388 2466 706 
Q 2744 1025 2744 1678 
Q 2744 2294 2464 2611 
Q 2184 2928 1769 2928 
Q 1347 2928 1069 2612 
Q 791 2297 791 1659 
z
" transform="scale(0.015625)"/>
       <path id="ArialMT-6e" d="M 422 0 
L 422 3319 
L 928 3319 
L 928 2847 
Q 1294 3394 1984 3394 
Q 2284 3394 2536 3286 
Q 2788 3178 2913 3003 
Q 3038 2828 3088 2588 
Q 3119 2431 3119 2041 
L 3119 0 
L 2556 0 
L 2556 2019 
Q 2556 2363 2490 2533 
Q 2425 2703 2258 2804 
Q 2091 2906 1866 2906 
Q 1506 2906 1245 2678 
Q 984 2450 984 1813 
L 984 0 
L 422 0 
z
" transform="scale(0.015625)"/>
       <path id="ArialMT-2d" d="M 203 1375 
L 203 1941 
L 1931 1941 
L 1931 1375 
L 203 1375 
z
" transform="scale(0.015625)"/>
       <path id="ArialMT-52" d="M 503 0 
L 503 4581 
L 2534 4581 
Q 3147 4581 3465 4457 
Q 3784 4334 3975 4021 
Q 4166 3709 4166 3331 
Q 4166 2844 3850 2509 
Q 3534 2175 2875 2084 
Q 3116 1969 3241 1856 
Q 3506 1613 3744 1247 
L 4541 0 
L 3778 0 
L 3172 953 
Q 2906 1366 2734 1584 
Q 2563 1803 2427 1890 
Q 2291 1978 2150 2013 
Q 2047 2034 1813 2034 
L 1109 2034 
L 1109 0 
L 503 0 
z
M 1109 2559 
L 2413 2559 
Q 2828 2559 3062 2645 
Q 3297 2731 3419 2920 
Q 3541 3109 3541 3331 
Q 3541 3656 3305 3865 
Q 3069 4075 2559 4075 
L 1109 4075 
L 1109 2559 
z
" transform="scale(0.015625)"/>
       <path id="ArialMT-61" d="M 2588 409 
Q 2275 144 1986 34 
Q 1697 -75 1366 -75 
Q 819 -75 525 192 
Q 231 459 231 875 
Q 231 1119 342 1320 
Q 453 1522 633 1644 
Q 813 1766 1038 1828 
Q 1203 1872 1538 1913 
Q 2219 1994 2541 2106 
Q 2544 2222 2544 2253 
Q 2544 2597 2384 2738 
Q 2169 2928 1744 2928 
Q 1347 2928 1158 2789 
Q 969 2650 878 2297 
L 328 2372 
Q 403 2725 575 2942 
Q 747 3159 1072 3276 
Q 1397 3394 1825 3394 
Q 2250 3394 2515 3294 
Q 2781 3194 2906 3042 
Q 3031 2891 3081 2659 
Q 3109 2516 3109 2141 
L 3109 1391 
Q 3109 606 3145 398 
Q 3181 191 3288 0 
L 2700 0 
Q 2613 175 2588 409 
z
M 2541 1666 
Q 2234 1541 1622 1453 
Q 1275 1403 1131 1340 
Q 988 1278 909 1158 
Q 831 1038 831 891 
Q 831 666 1001 516 
Q 1172 366 1500 366 
Q 1825 366 2078 508 
Q 2331 650 2450 897 
Q 2541 1088 2541 1459 
L 2541 1666 
z
" transform="scale(0.015625)"/>
       <path id="ArialMT-6c" d="M 409 0 
L 409 4581 
L 972 4581 
L 972 0 
L 409 0 
z
" transform="scale(0.015625)"/>
       <path id="ArialMT-20" transform="scale(0.015625)"/>
       <path id="ArialMT-75" d="M 2597 0 
L 2597 488 
Q 2209 -75 1544 -75 
Q 1250 -75 995 37 
Q 741 150 617 320 
Q 494 491 444 738 
Q 409 903 409 1263 
L 409 3319 
L 972 3319 
L 972 1478 
Q 972 1038 1006 884 
Q 1059 663 1231 536 
Q 1403 409 1656 409 
Q 1909 409 2131 539 
Q 2353 669 2445 892 
Q 2538 1116 2538 1541 
L 2538 3319 
L 3100 3319 
L 3100 0 
L 2597 0 
z
" transform="scale(0.015625)"/>
       <path id="ArialMT-76" d="M 1344 0 
L 81 3319 
L 675 3319 
L 1388 1331 
Q 1503 1009 1600 663 
Q 1675 925 1809 1294 
L 2547 3319 
L 3125 3319 
L 1869 0 
L 1344 0 
z
" transform="scale(0.015625)"/>
      </defs>
      <use xlink:href="#ArialMT-50"/>
      <use xlink:href="#ArialMT-72" transform="translate(66.699219 0)"/>
      <use xlink:href="#ArialMT-65" transform="translate(100 0)"/>
      <use xlink:href="#ArialMT-63" transform="translate(155.615234 0)"/>
      <use xlink:href="#ArialMT-69" transform="translate(205.615234 0)"/>
      <use xlink:href="#ArialMT-73" transform="translate(227.832031 0)"/>
      <use xlink:href="#ArialMT-69" transform="translate(277.832031 0)"/>
      <use xlink:href="#ArialMT-6f" transform="translate(300.048828 0)"/>
      <use xlink:href="#ArialMT-6e" transform="translate(355.664062 0)"/>
      <use xlink:href="#ArialMT-2d" transform="translate(411.279297 0)"/>
      <use xlink:href="#ArialMT-52" transform="translate(444.580078 0)"/>
      <use xlink:href="#ArialMT-65" transform="translate(516.796875 0)"/>
      <use xlink:href="#ArialMT-63" transform="translate(572.412109 0)"/>
      <use xlink:href="#ArialMT-61" transform="translate(622.412109 0)"/>
      <use xlink:href="#ArialMT-6c" transform="translate(678.027344 0)"/>
      <use xlink:href="#ArialMT-6c" transform="translate(700.244141 0)"/>
      <use xlink:href="#ArialMT-20" transform="translate(722.460938 0)"/>
      <use xlink:href="#ArialMT-63" transform="translate(750.244141 0)"/>
      <use xlink:href="#ArialMT-75" transform="translate(800.244141 0)"/>
      <use xlink:href="#ArialMT-72" transform="translate(855.859375 0)"/>
      <use xlink:href="#ArialMT-76" transform="translate(889.160156 0)"/>
      <use xlink:href="#ArialMT-65" transform="translate(939.160156 0)"/>
     </g>
    </g>
   </g>
  </g>
 </g>
 <defs>
  <clipPath id="p49a51b750b">
   <rect x="35.655938" y="19.642031" width="253.543583" height="245.38077"/>
  </clipPath>
 </defs>
</svg>
