<?xml version="1.0" encoding="utf-8" standalone="no"?>
<!DOCTYPE svg PUBLIC "-//W3C//DTD SVG 1.1//EN"
  "http://www.w3.org/Graphics/SVG/1.1/DTD/svg11.dtd">
<svg xmlns:xlink="http://www.w3.org/1999/xlink" width="296.39952pt" height="296.39952pt" viewBox="0 0 296.39952 296.39952" xmlns="http://www.w3.org/2000/svg" version="1.1">
 <metadata>
  <rdf:RDF xmlns:dc="http://purl.org/dc/elements/1.1/" xmlns:cc="http://creativecommons.org/ns#" xmlns:rdf="http://www.w3.org/1999/02/22-rdf-syntax-ns#">
   <cc:Work>
    <dc:type rdf:resource="http://purl.org/dc/dcmitype/StillImage"/>
    <dc:date>2025-12-23T13:48:04.682258</dc:date>
    <dc:format>image/svg+xml</dc:format>
    <dc:creator>
     <cc:Agent>
      <dc:title>Matplotlib v3.10.8, https://matplotlib.org/</dc:title>
     </cc:Agent>
    </dc:creator>
   </cc:Work>
  </rdf:RDF>
 </metadata>
 <defs>
  <style type="text/css">*{stroke-linejoin: round; stroke-linecap: butt}</style>
 </defs>
 <g id="figure_1">
  <g id="patch_1">
   <path d="M 0 296.39952 
L 296.39952 296.39952 
L 296.39952 0 
L 0 0 
z
" style="fill: #ffffff"/>
  </g>
  <g id="axes_1">
   <g id="patch_2">
    <path d="M 35.655938 265.022801 
L 289.19952 265.022801 
L 289.19952 19.751719 
L 35.655938 19.751719 
z
" style="fill: #ffffff"/>
   </g>
   <g id="matplotlib.axis_1">
    <g id="xtick_1">
     <g id="line2d_1">
      <path d="M 42.831699 265.022801 
L 42.831699 19.751719 
" clip-path="url(#pc6abddbe60)" style="fill: none; stroke: #c0c0c0; stroke-width: 0.25; stroke-linecap: round"/>
     </g>
     <g id="line2d_2"/>
     <g id="text_1">
      <!-- 0.0 -->
      <g style="fill: #333333" transform="translate(36.576699 274.964832) scale(0.09 -0.09)">
       <defs>
        <path id="ArialMT-30" d="M 266 2259 
Q 266 3072 433 3567 
Q 600 4063 929 4331 
Q 1259 4600 1759 4600 
Q 2128 4600 2406 4451 
Q 2684 4303 2865 4023 
Q 3047 3744 3150 3342 
Q 3253 2941 3253 2259 
Q 3253 1453 3087 958 
Q 2922 463 2592 192 
Q 2263 -78 1759 -78 
Q 1097 -78 719 397 
Q 266 969 266 2259 
z
M 844 2259 
Q 844 1131 1108 757 
Q 1372 384 1759 384 
Q 2147 384 2411 759 
Q 2675 1134 2675 2259 
Q 2675 3391 2411 3762 
Q 2147 4134 1753 4134 
Q 1366 4134 1134 3806 
Q 844 3388 844 2259 
z
" transform="scale(0.015625)"/>
        <path id="ArialMT-2e" d="M 581 0 
L 581 641 
L 1222 641 
L 1222 0 
L 581 0 
z
" transform="scale(0.015625)"/>
       </defs>
       <use xlink:href="#ArialMT-30"/>
       <use xlink:href="#ArialMT-2e" transform="translate(55.615234 0)"/>
       <use xlink:href="#ArialMT-30" transform="translate(83.398438 0)"/>
      </g>
     </g>
    </g>
    <g id="xtick_2">
     <g id="line2d_3">
      <path d="M 90.670111 265.022801 
L 90.670111 19.751719 
" clip-path="url(#pc6abddbe60)" style="fill: none; stroke: #c0c0c0; stroke-width: 0.25; stroke-linecap: round"/>
     </g>
     <g id="line2d_4"/>
     <g id="text_2">
      <!-- 0.2 -->
      <g style="fill: #333333" transform="translate(84.415111 274.964832) scale(0.09 -0.09)">
       <defs>
        <path id="ArialMT-32" d="M 3222 541 
L 3222 0 
L 194 0 
Q 188 203 259 391 
Q 375 700 629 1000 
Q 884 1300 1366 1694 
Q 2113 2306 2375 2664 
Q 2638 3022 2638 3341 
Q 2638 3675 2398 3904 
Q 2159 4134 1775 4134 
Q 1369 4134 1125 3890 
Q 881 3647 878 3216 
L 300 3275 
Q 359 3922 746 4261 
Q 1134 4600 1788 4600 
Q 2447 4600 2831 4234 
Q 3216 3869 3216 3328 
Q 3216 3053 3103 2787 
Q 2991 2522 2730 2228 
Q 2469 1934 1863 1422 
Q 1356 997 1212 845 
Q 1069 694 975 541 
L 3222 541 
z
" transform="scale(0.015625)"/>
       </defs>
       <use xlink:href="#ArialMT-30"/>
       <use xlink:href="#ArialMT-2e" transform="translate(55.615234 0)"/>
       <use xlink:href="#ArialMT-32" transform="translate(83.398438 0)"/>
      </g>
     </g>
    </g>
    <g id="xtick_3">
     <g id="line2d_5">
      <path d="M 138.508523 265.022801 
L 138.508523 19.751719 
" clip-path="url(#pc6abddbe60)" style="fill: none; stroke: #c0c0c0; stroke-width: 0.25; stroke-linecap: round"/>
     </g>
     <g id="line2d_6"/>
     <g id="text_3">
      <!-- 0.4 -->
      <g style="fill: #333333" transform="translate(132.253523 274.964832) scale(0.09 -0.09)">
       <defs>
        <path id="ArialMT-34" d="M 2069 0 
L 2069 1097 
L 81 1097 
L 81 1613 
L 2172 4581 
L 2631 4581 
L 2631 1613 
L 3250 1613 
L 3250 1097 
L 2631 1097 
L 2631 0 
L 2069 0 
z
M 2069 1613 
L 2069 3678 
L 634 1613 
L 2069 1613 
z
" transform="scale(0.015625)"/>
       </defs>
       <use xlink:href="#ArialMT-30"/>
       <use xlink:href="#ArialMT-2e" transform="translate(55.615234 0)"/>
       <use xlink:href="#ArialMT-34" transform="translate(83.398438 0)"/>
      </g>
     </g>
    </g>
    <g id="xtick_4">
     <g id="line2d_7">
      <path d="M 186.346935 265.022801 
L 186.346935 19.751719 
" clip-path="url(#pc6abddbe60)" style="fill: none; stroke: #c0c0c0; stroke-width: 0.25; stroke-linecap: round"/>
     </g>
     <g id="line2d_8"/>
     <g id="text_4">
      <!-- 0.6 -->
      <g style="fill: #333333" transform="translate(180.091935 274.964832) scale(0.09 -0.09)">
       <defs>
        <path id="ArialMT-36" d="M 3184 3459 
L 2625 3416 
Q 2550 3747 2413 3897 
Q 2184 4138 1850 4138 
Q 1581 4138 1378 3988 
Q 1113 3794 959 3422 
Q 806 3050 800 2363 
Q 1003 2672 1297 2822 
Q 1591 2972 1913 2972 
Q 2475 2972 2870 2558 
Q 3266 2144 3266 1488 
Q 3266 1056 3080 686 
Q 2894 316 2569 119 
Q 2244 -78 1831 -78 
Q 1128 -78 684 439 
Q 241 956 241 2144 
Q 241 3472 731 4075 
Q 1159 4600 1884 4600 
Q 2425 4600 2770 4297 
Q 3116 3994 3184 3459 
z
M 888 1484 
Q 888 1194 1011 928 
Q 1134 663 1356 523 
Q 1578 384 1822 384 
Q 2178 384 2434 671 
Q 2691 959 2691 1453 
Q 2691 1928 2437 2201 
Q 2184 2475 1800 2475 
Q 1419 2475 1153 2201 
Q 888 1928 888 1484 
z
" transform="scale(0.015625)"/>
       </defs>
       <use xlink:href="#ArialMT-30"/>
       <use xlink:href="#ArialMT-2e" transform="translate(55.615234 0)"/>
       <use xlink:href="#ArialMT-36" transform="translate(83.398438 0)"/>
      </g>
     </g>
    </g>
    <g id="xtick_5">
     <g id="line2d_9">
      <path d="M 234.185346 265.022801 
L 234.185346 19.751719 
" clip-path="url(#pc6abddbe60)" style="fill: none; stroke: #c0c0c0; stroke-width: 0.25; stroke-linecap: round"/>
     </g>
     <g id="line2d_10"/>
     <g id="text_5">
      <!-- 0.8 -->
      <g style="fill: #333333" transform="translate(227.930346 274.964832) scale(0.09 -0.09)">
       <defs>
        <path id="ArialMT-38" d="M 1131 2484 
Q 781 2613 612 2850 
Q 444 3088 444 3419 
Q 444 3919 803 4259 
Q 1163 4600 1759 4600 
Q 2359 4600 2725 4251 
Q 3091 3903 3091 3403 
Q 3091 3084 2923 2848 
Q 2756 2613 2416 2484 
Q 2838 2347 3058 2040 
Q 3278 1734 3278 1309 
Q 3278 722 2862 322 
Q 2447 -78 1769 -78 
Q 1091 -78 675 323 
Q 259 725 259 1325 
Q 259 1772 486 2073 
Q 713 2375 1131 2484 
z
M 1019 3438 
Q 1019 3113 1228 2906 
Q 1438 2700 1772 2700 
Q 2097 2700 2305 2904 
Q 2513 3109 2513 3406 
Q 2513 3716 2298 3927 
Q 2084 4138 1766 4138 
Q 1444 4138 1231 3931 
Q 1019 3725 1019 3438 
z
M 838 1322 
Q 838 1081 952 856 
Q 1066 631 1291 507 
Q 1516 384 1775 384 
Q 2178 384 2440 643 
Q 2703 903 2703 1303 
Q 2703 1709 2433 1975 
Q 2163 2241 1756 2241 
Q 1359 2241 1098 1978 
Q 838 1716 838 1322 
z
" transform="scale(0.015625)"/>
       </defs>
       <use xlink:href="#ArialMT-30"/>
       <use xlink:href="#ArialMT-2e" transform="translate(55.615234 0)"/>
       <use xlink:href="#ArialMT-38" transform="translate(83.398438 0)"/>
      </g>
     </g>
    </g>
    <g id="xtick_6">
     <g id="line2d_11">
      <path d="M 282.023758 265.022801 
L 282.023758 19.751719 
" clip-path="url(#pc6abddbe60)" style="fill: none; stroke: #c0c0c0; stroke-width: 0.25; stroke-linecap: round"/>
     </g>
     <g id="line2d_12"/>
     <g id="text_6">
      <!-- 1.0 -->
      <g style="fill: #333333" transform="translate(275.768758 274.964832) scale(0.09 -0.09)">
       <defs>
        <path id="ArialMT-31" d="M 2384 0 
L 1822 0 
L 1822 3584 
Q 1619 3391 1289 3197 
Q 959 3003 697 2906 
L 697 3450 
Q 1169 3672 1522 3987 
Q 1875 4303 2022 4600 
L 2384 4600 
L 2384 0 
z
" transform="scale(0.015625)"/>
       </defs>
       <use xlink:href="#ArialMT-31"/>
       <use xlink:href="#ArialMT-2e" transform="translate(55.615234 0)"/>
       <use xlink:href="#ArialMT-30" transform="translate(83.398438 0)"/>
      </g>
     </g>
    </g>
    <g id="text_7">
     <!-- False Positive Rate (FPR) -->
     <g style="fill: #333333" transform="translate(108.165463 287.305301) scale(0.09 -0.09)">
      <defs>
       <path id="Arial-BoldMT-46" d="M 472 0 
L 472 4581 
L 3613 4581 
L 3613 3806 
L 1397 3806 
L 1397 2722 
L 3309 2722 
L 3309 1947 
L 1397 1947 
L 1397 0 
L 472 0 
z
" transform="scale(0.015625)"/>
       <path id="Arial-BoldMT-61" d="M 1116 2306 
L 319 2450 
Q 453 2931 781 3162 
Q 1109 3394 1756 3394 
Q 2344 3394 2631 3255 
Q 2919 3116 3036 2902 
Q 3153 2688 3153 2116 
L 3144 1091 
Q 3144 653 3186 445 
Q 3228 238 3344 0 
L 2475 0 
Q 2441 88 2391 259 
Q 2369 338 2359 363 
Q 2134 144 1878 34 
Q 1622 -75 1331 -75 
Q 819 -75 523 203 
Q 228 481 228 906 
Q 228 1188 362 1408 
Q 497 1628 739 1745 
Q 981 1863 1438 1950 
Q 2053 2066 2291 2166 
L 2291 2253 
Q 2291 2506 2166 2614 
Q 2041 2722 1694 2722 
Q 1459 2722 1328 2630 
Q 1197 2538 1116 2306 
z
M 2291 1594 
Q 2122 1538 1756 1459 
Q 1391 1381 1278 1306 
Q 1106 1184 1106 997 
Q 1106 813 1243 678 
Q 1381 544 1594 544 
Q 1831 544 2047 700 
Q 2206 819 2256 991 
Q 2291 1103 2291 1419 
L 2291 1594 
z
" transform="scale(0.015625)"/>
       <path id="Arial-BoldMT-6c" d="M 459 0 
L 459 4581 
L 1338 4581 
L 1338 0 
L 459 0 
z
" transform="scale(0.015625)"/>
       <path id="Arial-BoldMT-73" d="M 150 947 
L 1031 1081 
Q 1088 825 1259 692 
Q 1431 559 1741 559 
Q 2081 559 2253 684 
Q 2369 772 2369 919 
Q 2369 1019 2306 1084 
Q 2241 1147 2013 1200 
Q 950 1434 666 1628 
Q 272 1897 272 2375 
Q 272 2806 612 3100 
Q 953 3394 1669 3394 
Q 2350 3394 2681 3172 
Q 3013 2950 3138 2516 
L 2309 2363 
Q 2256 2556 2107 2659 
Q 1959 2763 1684 2763 
Q 1338 2763 1188 2666 
Q 1088 2597 1088 2488 
Q 1088 2394 1175 2328 
Q 1294 2241 1995 2081 
Q 2697 1922 2975 1691 
Q 3250 1456 3250 1038 
Q 3250 581 2869 253 
Q 2488 -75 1741 -75 
Q 1063 -75 667 200 
Q 272 475 150 947 
z
" transform="scale(0.015625)"/>
       <path id="Arial-BoldMT-65" d="M 2381 1056 
L 3256 909 
Q 3088 428 2723 176 
Q 2359 -75 1813 -75 
Q 947 -75 531 491 
Q 203 944 203 1634 
Q 203 2459 634 2926 
Q 1066 3394 1725 3394 
Q 2466 3394 2894 2905 
Q 3322 2416 3303 1406 
L 1103 1406 
Q 1113 1016 1316 798 
Q 1519 581 1822 581 
Q 2028 581 2168 693 
Q 2309 806 2381 1056 
z
M 2431 1944 
Q 2422 2325 2234 2523 
Q 2047 2722 1778 2722 
Q 1491 2722 1303 2513 
Q 1116 2303 1119 1944 
L 2431 1944 
z
" transform="scale(0.015625)"/>
       <path id="Arial-BoldMT-20" transform="scale(0.015625)"/>
       <path id="Arial-BoldMT-50" d="M 466 0 
L 466 4581 
L 1950 4581 
Q 2794 4581 3050 4513 
Q 3444 4409 3709 4064 
Q 3975 3719 3975 3172 
Q 3975 2750 3822 2462 
Q 3669 2175 3433 2011 
Q 3197 1847 2953 1794 
Q 2622 1728 1994 1728 
L 1391 1728 
L 1391 0 
L 466 0 
z
M 1391 3806 
L 1391 2506 
L 1897 2506 
Q 2444 2506 2628 2578 
Q 2813 2650 2917 2803 
Q 3022 2956 3022 3159 
Q 3022 3409 2875 3571 
Q 2728 3734 2503 3775 
Q 2338 3806 1838 3806 
L 1391 3806 
z
" transform="scale(0.015625)"/>
       <path id="Arial-BoldMT-6f" d="M 256 1706 
Q 256 2144 472 2553 
Q 688 2963 1083 3178 
Q 1478 3394 1966 3394 
Q 2719 3394 3200 2905 
Q 3681 2416 3681 1669 
Q 3681 916 3195 420 
Q 2709 -75 1972 -75 
Q 1516 -75 1102 131 
Q 688 338 472 736 
Q 256 1134 256 1706 
z
M 1156 1659 
Q 1156 1166 1390 903 
Q 1625 641 1969 641 
Q 2313 641 2545 903 
Q 2778 1166 2778 1666 
Q 2778 2153 2545 2415 
Q 2313 2678 1969 2678 
Q 1625 2678 1390 2415 
Q 1156 2153 1156 1659 
z
" transform="scale(0.015625)"/>
       <path id="Arial-BoldMT-69" d="M 459 3769 
L 459 4581 
L 1338 4581 
L 1338 3769 
L 459 3769 
z
M 459 0 
L 459 3319 
L 1338 3319 
L 1338 0 
L 459 0 
z
" transform="scale(0.015625)"/>
       <path id="Arial-BoldMT-74" d="M 1981 3319 
L 1981 2619 
L 1381 2619 
L 1381 1281 
Q 1381 875 1398 808 
Q 1416 741 1477 697 
Q 1538 653 1625 653 
Q 1747 653 1978 738 
L 2053 56 
Q 1747 -75 1359 -75 
Q 1122 -75 931 4 
Q 741 84 652 211 
Q 563 338 528 553 
Q 500 706 500 1172 
L 500 2619 
L 97 2619 
L 97 3319 
L 500 3319 
L 500 3978 
L 1381 4491 
L 1381 3319 
L 1981 3319 
z
" transform="scale(0.015625)"/>
       <path id="Arial-BoldMT-76" d="M 1372 0 
L 34 3319 
L 956 3319 
L 1581 1625 
L 1763 1059 
Q 1834 1275 1853 1344 
Q 1897 1484 1947 1625 
L 2578 3319 
L 3481 3319 
L 2163 0 
L 1372 0 
z
" transform="scale(0.015625)"/>
       <path id="Arial-BoldMT-52" d="M 469 0 
L 469 4581 
L 2416 4581 
Q 3150 4581 3483 4457 
Q 3816 4334 4016 4018 
Q 4216 3703 4216 3297 
Q 4216 2781 3912 2445 
Q 3609 2109 3006 2022 
Q 3306 1847 3501 1637 
Q 3697 1428 4028 894 
L 4588 0 
L 3481 0 
L 2813 997 
Q 2456 1531 2325 1670 
Q 2194 1809 2047 1861 
Q 1900 1913 1581 1913 
L 1394 1913 
L 1394 0 
L 469 0 
z
M 1394 2644 
L 2078 2644 
Q 2744 2644 2909 2700 
Q 3075 2756 3169 2893 
Q 3263 3031 3263 3238 
Q 3263 3469 3139 3611 
Q 3016 3753 2791 3791 
Q 2678 3806 2116 3806 
L 1394 3806 
L 1394 2644 
z
" transform="scale(0.015625)"/>
       <path id="Arial-BoldMT-28" d="M 1916 -1347 
L 1313 -1347 
Q 834 -625 584 153 
Q 334 931 334 1659 
Q 334 2563 644 3369 
Q 913 4069 1325 4659 
L 1925 4659 
Q 1497 3713 1336 3048 
Q 1175 2384 1175 1641 
Q 1175 1128 1270 590 
Q 1366 53 1531 -431 
Q 1641 -750 1916 -1347 
z
" transform="scale(0.015625)"/>
       <path id="Arial-BoldMT-29" d="M 216 -1347 
Q 475 -791 581 -494 
Q 688 -197 778 190 
Q 869 578 912 926 
Q 956 1275 956 1641 
Q 956 2384 797 3048 
Q 638 3713 209 4659 
L 806 4659 
Q 1278 3988 1539 3234 
Q 1800 2481 1800 1706 
Q 1800 1053 1594 306 
Q 1359 -531 822 -1347 
L 216 -1347 
z
" transform="scale(0.015625)"/>
      </defs>
      <use xlink:href="#Arial-BoldMT-46"/>
      <use xlink:href="#Arial-BoldMT-61" transform="translate(61.083984 0)"/>
      <use xlink:href="#Arial-BoldMT-6c" transform="translate(116.699219 0)"/>
      <use xlink:href="#Arial-BoldMT-73" transform="translate(144.482422 0)"/>
      <use xlink:href="#Arial-BoldMT-65" transform="translate(200.097656 0)"/>
      <use xlink:href="#Arial-BoldMT-20" transform="translate(255.712891 0)"/>
      <use xlink:href="#Arial-BoldMT-50" transform="translate(283.496094 0)"/>
      <use xlink:href="#Arial-BoldMT-6f" transform="translate(350.195312 0)"/>
      <use xlink:href="#Arial-BoldMT-73" transform="translate(411.279297 0)"/>
      <use xlink:href="#Arial-BoldMT-69" transform="translate(466.894531 0)"/>
      <use xlink:href="#Arial-BoldMT-74" transform="translate(494.677734 0)"/>
      <use xlink:href="#Arial-BoldMT-69" transform="translate(527.978516 0)"/>
      <use xlink:href="#Arial-BoldMT-76" transform="translate(555.761719 0)"/>
      <use xlink:href="#Arial-BoldMT-65" transform="translate(611.376953 0)"/>
      <use xlink:href="#Arial-BoldMT-20" transform="translate(666.992188 0)"/>
      <use xlink:href="#Arial-BoldMT-52" transform="translate(694.775391 0)"/>
      <use xlink:href="#Arial-BoldMT-61" transform="translate(766.992188 0)"/>
      <use xlink:href="#Arial-BoldMT-74" transform="translate(822.607422 0)"/>
      <use xlink:href="#Arial-BoldMT-65" transform="translate(855.908203 0)"/>
      <use xlink:href="#Arial-BoldMT-20" transform="translate(911.523438 0)"/>
      <use xlink:href="#Arial-BoldMT-28" transform="translate(939.306641 0)"/>
      <use xlink:href="#Arial-BoldMT-46" transform="translate(972.607422 0)"/>
      <use xlink:href="#Arial-BoldMT-50" transform="translate(1033.691406 0)"/>
      <use xlink:href="#Arial-BoldMT-52" transform="translate(1100.390625 0)"/>
      <use xlink:href="#Arial-BoldMT-29" transform="translate(1172.607422 0)"/>
     </g>
    </g>
   </g>
   <g id="matplotlib.axis_2">
    <g id="ytick_1">
     <g id="line2d_13">
      <path d="M 35.655938 265.022801 
L 289.19952 265.022801 
" clip-path="url(#pc6abddbe60)" style="fill: none; stroke: #c0c0c0; stroke-width: 0.25; stroke-linecap: round"/>
     </g>
     <g id="line2d_14"/>
     <g id="text_8">
      <!-- 0.0 -->
      <g style="fill: #333333" transform="translate(19.645938 268.243817) scale(0.09 -0.09)">
       <use xlink:href="#ArialMT-30"/>
       <use xlink:href="#ArialMT-2e" transform="translate(55.615234 0)"/>
       <use xlink:href="#ArialMT-30" transform="translate(83.398438 0)"/>
      </g>
     </g>
    </g>
    <g id="ytick_2">
     <g id="line2d_15">
      <path d="M 35.655938 217.397348 
L 289.19952 217.397348 
" clip-path="url(#pc6abddbe60)" style="fill: none; stroke: #c0c0c0; stroke-width: 0.25; stroke-linecap: round"/>
     </g>
     <g id="line2d_16"/>
     <g id="text_9">
      <!-- 0.2 -->
      <g style="fill: #333333" transform="translate(19.645938 220.618364) scale(0.09 -0.09)">
       <use xlink:href="#ArialMT-30"/>
       <use xlink:href="#ArialMT-2e" transform="translate(55.615234 0)"/>
       <use xlink:href="#ArialMT-32" transform="translate(83.398438 0)"/>
      </g>
     </g>
    </g>
    <g id="ytick_3">
     <g id="line2d_17">
      <path d="M 35.655938 169.771895 
L 289.19952 169.771895 
" clip-path="url(#pc6abddbe60)" style="fill: none; stroke: #c0c0c0; stroke-width: 0.25; stroke-linecap: round"/>
     </g>
     <g id="line2d_18"/>
     <g id="text_10">
      <!-- 0.4 -->
      <g style="fill: #333333" transform="translate(19.645938 172.992911) scale(0.09 -0.09)">
       <use xlink:href="#ArialMT-30"/>
       <use xlink:href="#ArialMT-2e" transform="translate(55.615234 0)"/>
       <use xlink:href="#ArialMT-34" transform="translate(83.398438 0)"/>
      </g>
     </g>
    </g>
    <g id="ytick_4">
     <g id="line2d_19">
      <path d="M 35.655938 122.146443 
L 289.19952 122.146443 
" clip-path="url(#pc6abddbe60)" style="fill: none; stroke: #c0c0c0; stroke-width: 0.25; stroke-linecap: round"/>
     </g>
     <g id="line2d_20"/>
     <g id="text_11">
      <!-- 0.6 -->
      <g style="fill: #333333" transform="translate(19.645938 125.367458) scale(0.09 -0.09)">
       <use xlink:href="#ArialMT-30"/>
       <use xlink:href="#ArialMT-2e" transform="translate(55.615234 0)"/>
       <use xlink:href="#ArialMT-36" transform="translate(83.398438 0)"/>
      </g>
     </g>
    </g>
    <g id="ytick_5">
     <g id="line2d_21">
      <path d="M 35.655938 74.52099 
L 289.19952 74.52099 
" clip-path="url(#pc6abddbe60)" style="fill: none; stroke: #c0c0c0; stroke-width: 0.25; stroke-linecap: round"/>
     </g>
     <g id="line2d_22"/>
     <g id="text_12">
      <!-- 0.8 -->
      <g style="fill: #333333" transform="translate(19.645938 77.742005) scale(0.09 -0.09)">
       <use xlink:href="#ArialMT-30"/>
       <use xlink:href="#ArialMT-2e" transform="translate(55.615234 0)"/>
       <use xlink:href="#ArialMT-38" transform="translate(83.398438 0)"/>
      </g>
     </g>
    </g>
    <g id="ytick_6">
     <g id="line2d_23">
      <path d="M 35.655938 26.895537 
L 289.19952 26.895537 
" clip-path="url(#pc6abddbe60)" style="fill: none; stroke: #c0c0c0; stroke-width: 0.25; stroke-linecap: round"/>
     </g>
     <g id="line2d_24"/>
     <g id="text_13">
      <!-- 1.0 -->
      <g style="fill: #333333" transform="translate(19.645938 30.116552) scale(0.09 -0.09)">
       <use xlink:href="#ArialMT-31"/>
       <use xlink:href="#ArialMT-2e" transform="translate(55.615234 0)"/>
       <use xlink:href="#ArialMT-30" transform="translate(83.398438 0)"/>
      </g>
     </g>
    </g>
    <g id="text_14">
     <!-- True Positive Rate (TPR) -->
     <g style="fill: #333333" transform="translate(13.751719 194.647026) rotate(-90) scale(0.09 -0.09)">
      <defs>
       <path id="Arial-BoldMT-54" d="M 1497 0 
L 1497 3806 
L 138 3806 
L 138 4581 
L 3778 4581 
L 3778 3806 
L 2422 3806 
L 2422 0 
L 1497 0 
z
" transform="scale(0.015625)"/>
       <path id="Arial-BoldMT-72" d="M 1300 0 
L 422 0 
L 422 3319 
L 1238 3319 
L 1238 2847 
Q 1447 3181 1614 3287 
Q 1781 3394 1994 3394 
Q 2294 3394 2572 3228 
L 2300 2463 
Q 2078 2606 1888 2606 
Q 1703 2606 1575 2504 
Q 1447 2403 1373 2137 
Q 1300 1872 1300 1025 
L 1300 0 
z
" transform="scale(0.015625)"/>
       <path id="Arial-BoldMT-75" d="M 2644 0 
L 2644 497 
Q 2463 231 2167 78 
Q 1872 -75 1544 -75 
Q 1209 -75 943 72 
Q 678 219 559 484 
Q 441 750 441 1219 
L 441 3319 
L 1319 3319 
L 1319 1794 
Q 1319 1094 1367 936 
Q 1416 778 1544 686 
Q 1672 594 1869 594 
Q 2094 594 2272 717 
Q 2450 841 2515 1023 
Q 2581 1206 2581 1919 
L 2581 3319 
L 3459 3319 
L 3459 0 
L 2644 0 
z
" transform="scale(0.015625)"/>
      </defs>
      <use xlink:href="#Arial-BoldMT-54"/>
      <use xlink:href="#Arial-BoldMT-72" transform="translate(55.583984 0)"/>
      <use xlink:href="#Arial-BoldMT-75" transform="translate(94.5 0)"/>
      <use xlink:href="#Arial-BoldMT-65" transform="translate(155.583984 0)"/>
      <use xlink:href="#Arial-BoldMT-20" transform="translate(211.199219 0)"/>
      <use xlink:href="#Arial-BoldMT-50" transform="translate(238.982422 0)"/>
      <use xlink:href="#Arial-BoldMT-6f" transform="translate(305.681641 0)"/>
      <use xlink:href="#Arial-BoldMT-73" transform="translate(366.765625 0)"/>
      <use xlink:href="#Arial-BoldMT-69" transform="translate(422.380859 0)"/>
      <use xlink:href="#Arial-BoldMT-74" transform="translate(450.164062 0)"/>
      <use xlink:href="#Arial-BoldMT-69" transform="translate(483.464844 0)"/>
      <use xlink:href="#Arial-BoldMT-76" transform="translate(511.248047 0)"/>
      <use xlink:href="#Arial-BoldMT-65" transform="translate(566.863281 0)"/>
      <use xlink:href="#Arial-BoldMT-20" transform="translate(622.478516 0)"/>
      <use xlink:href="#Arial-BoldMT-52" transform="translate(650.261719 0)"/>
      <use xlink:href="#Arial-BoldMT-61" transform="translate(722.478516 0)"/>
      <use xlink:href="#Arial-BoldMT-74" transform="translate(778.09375 0)"/>
      <use xlink:href="#Arial-BoldMT-65" transform="translate(811.394531 0)"/>
      <use xlink:href="#Arial-BoldMT-20" transform="translate(867.009766 0)"/>
      <use xlink:href="#Arial-BoldMT-28" transform="translate(894.792969 0)"/>
      <use xlink:href="#Arial-BoldMT-54" transform="translate(928.09375 0)"/>
      <use xlink:href="#Arial-BoldMT-50" transform="translate(989.177734 0)"/>
      <use xlink:href="#Arial-BoldMT-52" transform="translate(1055.876953 0)"/>
      <use xlink:href="#Arial-BoldMT-29" transform="translate(1128.09375 0)"/>
     </g>
    </g>
   </g>
   <g id="line2d_25">
    <path d="M 42.831699 265.022801 
L 42.942413 131.504695 
L 42.943185 131.456754 
L 43.05369 123.905909 
L 43.057254 123.810025 
L 43.167661 119.087751 
L 43.172119 118.991868 
L 43.282956 116.23521 
L 43.288197 116.139326 
L 43.399291 113.718262 
L 43.407864 113.622378 
L 43.517071 111.992355 
L 43.526391 111.896471 
L 43.637215 110.07468 
L 43.643522 109.978796 
L 43.753366 108.444656 
L 43.775093 108.348773 
L 43.885892 106.910516 
L 43.89542 106.814633 
L 44.00595 105.664028 
L 44.028705 105.568144 
L 44.134398 104.609307 
L 44.138537 104.609307 
L 44.146767 104.513423 
L 44.257861 103.362818 
L 44.276538 103.266934 
L 44.382573 102.188242 
L 44.387521 102.188242 
L 44.39433 102.092359 
L 44.503856 101.421172 
L 44.505142 101.421172 
L 44.514339 101.325289 
L 44.622616 100.438364 
L 44.625396 100.438364 
L 44.632132 100.34248 
L 44.739294 99.527469 
L 44.742454 99.527469 
L 44.761498 99.431585 
L 44.871428 98.712457 
L 44.871881 98.712457 
L 44.878899 98.616573 
L 44.988743 97.489939 
L 45.010408 97.394055 
L 45.116725 96.674927 
L 45.120864 96.674927 
L 45.133013 96.579044 
L 45.241866 95.668148 
L 45.256672 95.572264 
L 45.365769 94.901078 
L 45.381225 94.805194 
L 45.488412 93.894299 
L 45.492306 93.894299 
L 45.550541 93.798415 
L 45.657789 93.223113 
L 45.692803 93.127229 
L 45.802439 92.623839 
L 45.823651 92.527956 
L 45.934463 91.784857 
L 45.954561 91.688973 
L 46.063082 91.137641 
L 46.065544 91.137641 
L 46.082898 91.041758 
L 46.188529 90.538368 
L 46.192766 90.538368 
L 46.210415 90.442484 
L 46.321055 89.915124 
L 46.344888 89.81924 
L 46.453483 89.31585 
L 46.454585 89.31585 
L 46.475258 89.219967 
L 46.572794 88.836432 
L 46.585114 88.836432 
L 46.609621 88.740548 
L 46.719759 88.261129 
L 46.751503 88.165246 
L 46.854587 87.661856 
L 46.862462 87.661856 
L 46.879179 87.565972 
L 46.989244 87.014641 
L 47.01364 86.918757 
L 47.118291 86.2236 
L 47.120802 86.2236 
L 47.141879 86.127716 
L 47.251295 85.696239 
L 47.271282 85.600356 
L 47.380085 85.216821 
L 47.381457 85.216821 
L 47.433409 85.120937 
L 47.535415 84.665489 
L 47.542126 84.665489 
L 47.555892 84.569605 
L 47.658694 84.210041 
L 47.663752 84.210041 
L 47.682172 84.114158 
L 47.789126 83.562826 
L 47.791967 83.562826 
L 47.820956 83.466942 
L 47.924909 83.011495 
L 47.931523 83.011495 
L 47.977094 82.915611 
L 48.086522 82.436192 
L 48.087502 82.436192 
L 48.11191 82.340308 
L 48.212655 82.004715 
L 48.222893 82.004715 
L 48.257553 81.908832 
L 48.368474 81.381471 
L 48.398431 81.285587 
L 48.501735 80.997936 
L 48.508679 80.997936 
L 48.523474 80.902052 
L 48.62145 80.470576 
L 48.632448 80.470576 
L 48.643324 80.374692 
L 48.731919 80.206895 
L 48.753805 80.206895 
L 48.801654 80.111012 
L 48.910567 79.655564 
L 48.912674 79.655564 
L 48.959311 79.55968 
L 49.065481 79.128203 
L 49.070049 79.128203 
L 49.12014 79.032319 
L 49.229188 78.52893 
L 49.230645 78.52893 
L 49.242096 78.433046 
L 49.351291 78.193337 
L 49.352932 78.193337 
L 49.423439 78.097453 
L 49.518489 77.809802 
L 49.53392 77.809802 
L 49.61142 77.713918 
L 49.717296 77.186558 
L 49.720884 77.186558 
L 49.750583 77.090674 
L 49.856202 76.803023 
L 49.859803 76.803023 
L 49.902717 76.707139 
L 49.997448 76.419488 
L 50.012769 76.419488 
L 50.045873 76.323604 
L 50.154223 76.035953 
L 50.154333 76.035953 
L 50.175765 75.940069 
L 50.280576 75.628447 
L 50.286357 75.628447 
L 50.329185 75.532563 
L 50.434338 75.19697 
L 50.437302 75.19697 
L 50.469316 75.101086 
L 50.57758 74.669609 
L 50.63028 74.573726 
L 50.735984 74.310045 
L 50.741152 74.310045 
L 50.784605 74.214162 
L 50.893727 73.998423 
L 50.894057 73.998423 
L 50.939653 73.902539 
L 51.049938 73.614888 
L 51.064427 73.519005 
L 51.170682 73.255324 
L 51.174491 73.255324 
L 51.199365 73.159441 
L 51.310422 72.823847 
L 51.346379 72.727964 
L 51.456566 72.464283 
L 51.457473 72.464283 
L 51.527563 72.3684 
L 51.630193 72.104719 
L 51.636758 72.104719 
L 51.691074 72.008836 
L 51.772737 71.841039 
L 51.800195 71.841039 
L 51.840549 71.745155 
L 51.943131 71.505446 
L 51.949953 71.505446 
L 51.992793 71.409562 
L 52.101645 71.193824 
L 52.102453 71.193824 
L 52.19945 71.09794 
L 52.307396 70.810289 
L 52.310495 70.810289 
L 52.441306 70.714405 
L 52.531493 70.594551 
L 52.548554 70.594551 
L 52.593047 70.498667 
L 52.667412 70.211016 
L 52.704141 70.211016 
L 52.803073 70.115132 
L 52.889696 69.899393 
L 52.913578 69.899393 
L 52.947882 69.80351 
L 53.033391 69.635713 
L 53.058229 69.635713 
L 53.102771 69.539829 
L 53.199572 69.419975 
L 53.213681 69.419975 
L 53.255786 69.324091 
L 53.365153 69.108353 
L 53.366108 69.108353 
L 53.493809 69.012469 
L 53.591369 68.868643 
L 53.60304 68.868643 
L 53.63503 68.772759 
L 53.7164 68.628934 
L 53.743196 68.628934 
L 53.854841 68.53305 
L 53.965309 68.317312 
L 54.11699 68.221428 
L 54.224348 68.053631 
L 54.224838 68.053631 
L 54.280415 67.957748 
L 54.367283 67.742009 
L 54.3907 67.742009 
L 54.446032 67.646126 
L 54.552962 67.430387 
L 54.555546 67.430387 
L 54.608906 67.334503 
L 54.714537 67.118765 
L 54.719449 67.118765 
L 54.783035 67.022881 
L 54.889487 66.759201 
L 54.893296 66.759201 
L 54.949718 66.663317 
L 55.031762 66.519492 
L 55.06015 66.519492 
L 55.174465 66.423608 
L 55.284591 66.279782 
L 55.285423 66.279782 
L 55.355281 66.183899 
L 55.464966 66.040073 
L 55.466374 66.040073 
L 55.516906 65.944189 
L 55.618985 65.824335 
L 55.627644 65.824335 
L 55.692737 65.728451 
L 55.797695 65.536683 
L 55.80274 65.536683 
L 55.829133 65.4408 
L 55.931996 65.249032 
L 55.939687 65.249032 
L 55.996489 65.153148 
L 56.095532 65.033294 
L 56.107362 65.033294 
L 56.171892 64.93741 
L 56.2744 64.817555 
L 56.28279 64.817555 
L 56.378158 64.721672 
L 56.470648 64.457991 
L 56.48919 64.457991 
L 56.539562 64.362108 
L 56.644765 64.146369 
L 56.649272 64.146369 
L 56.762888 64.050485 
L 56.818122 63.90666 
L 56.872303 63.90666 
L 56.960642 63.810776 
L 57.047425 63.619009 
L 57.071355 63.619009 
L 57.136792 63.523125 
L 57.207433 63.379299 
L 57.247616 63.379299 
L 57.303842 63.283415 
L 57.391727 63.091648 
L 57.414801 63.091648 
L 57.491088 62.995764 
L 57.601801 62.827968 
L 57.659938 62.732084 
L 57.742447 62.444433 
L 57.77004 62.444433 
L 57.845984 62.348549 
L 57.935547 62.156782 
L 57.956318 62.156782 
L 58.038655 62.060898 
L 58.137685 61.845159 
L 58.149749 61.845159 
L 58.302262 61.749276 
L 58.4021 61.60545 
L 58.412424 61.60545 
L 58.564827 61.509566 
L 58.6636 61.245886 
L 58.675039 61.245886 
L 58.800094 61.150002 
L 58.907366 61.006177 
L 58.910648 61.006177 
L 59.006114 60.910293 
L 59.10463 60.790438 
L 59.116889 60.790438 
L 59.261233 60.694555 
L 59.363643 60.5747 
L 59.371972 60.5747 
L 59.469765 60.478816 
L 59.564006 60.31102 
L 59.580111 60.31102 
L 59.778097 60.215136 
L 59.883986 60.095281 
L 59.888223 60.095281 
L 60.011711 59.999397 
L 60.12082 59.879543 
L 60.12262 59.879543 
L 60.234963 59.783659 
L 60.344991 59.54395 
L 60.345823 59.54395 
L 60.440285 59.448066 
L 60.547264 59.184386 
L 60.550828 59.184386 
L 60.610814 59.088502 
L 60.705116 58.896734 
L 60.721797 58.896734 
L 60.816957 58.800851 
L 60.904487 58.680996 
L 60.926078 58.680996 
L 61.043503 58.585112 
L 61.143011 58.393345 
L 61.153752 58.393345 
L 61.217559 58.297461 
L 61.315242 58.177606 
L 61.32831 58.177606 
L 61.432238 58.081723 
L 61.437211 58.033781 
L 61.543222 58.033781 
L 61.633201 57.937897 
L 61.741441 57.626275 
L 61.848835 57.530391 
L 61.909961 57.386566 
L 61.959806 57.386566 
L 62.051268 57.290682 
L 62.156201 57.170827 
L 62.162312 57.170827 
L 62.294152 57.074943 
L 62.397468 56.859205 
L 62.404376 56.859205 
L 62.563625 56.763321 
L 62.665618 56.595525 
L 62.673824 56.595525 
L 62.842601 56.499641 
L 62.923334 56.355815 
L 62.953609 56.355815 
L 63.101848 56.259932 
L 63.148472 56.140077 
L 63.21277 56.140077 
L 63.397492 56.044193 
L 63.481654 55.924339 
L 63.508402 55.924339 
L 63.6108 55.828455 
L 63.706242 55.684629 
L 63.721122 55.684629 
L 63.849618 55.588745 
L 63.933229 55.516833 
L 63.960467 55.516833 
L 64.014758 55.420949 
L 64.11418 55.301094 
L 64.125864 55.301094 
L 64.224012 55.20521 
L 64.318988 55.013443 
L 64.335093 55.013443 
L 64.483246 54.917559 
L 64.585632 54.773734 
L 64.594352 54.773734 
L 64.690075 54.67785 
L 64.801854 54.510053 
L 64.91454 54.41417 
L 64.993043 54.294315 
L 65.025633 54.294315 
L 65.253576 54.198431 
L 65.344106 54.078577 
L 65.364645 54.078577 
L 65.629586 53.982693 
L 65.715781 53.91078 
L 65.740361 53.91078 
L 65.944312 53.814896 
L 66.002302 53.742983 
L 66.054585 53.742983 
L 66.393743 53.6471 
L 66.491475 53.527245 
L 66.503342 53.527245 
L 66.708102 53.431361 
L 66.816562 53.335478 
L 66.819072 53.335478 
L 66.968107 53.239594 
L 67.058393 53.047826 
L 67.078944 53.047826 
L 67.280641 52.951943 
L 67.369934 52.88003 
L 67.391587 52.88003 
L 67.456521 52.784146 
L 67.522999 52.688262 
L 67.567419 52.688262 
L 67.749888 52.592379 
L 67.82887 52.472524 
L 67.860994 52.472524 
L 68.009318 52.37664 
L 68.088875 52.304727 
L 68.119922 52.304727 
L 68.290487 52.208844 
L 68.392407 52.065018 
L 68.40098 52.065018 
L 68.573199 51.969134 
L 68.643522 51.84928 
L 68.683778 51.84928 
L 68.835911 51.753396 
L 68.945376 51.633541 
L 68.947005 51.633541 
L 69.069708 51.537657 
L 69.174923 51.417803 
L 69.180814 51.417803 
L 69.243151 51.321919 
L 69.345121 51.226035 
L 69.354098 51.226035 
L 69.596345 51.130152 
L 69.672865 51.058239 
L 69.707426 51.058239 
L 69.871635 50.962355 
L 69.927274 50.866471 
L 69.981872 50.866471 
L 70.083216 50.770588 
L 70.193734 50.698675 
L 70.2795 50.602791 
L 70.389871 50.458965 
L 70.547577 50.363082 
L 70.609339 50.267198 
L 70.65818 50.267198 
L 70.858212 50.171314 
L 70.858212 50.147343 
L 70.969183 50.147343 
L 71.073516 50.05146 
L 71.133906 49.979547 
L 71.18434 49.979547 
L 71.337576 49.883663 
L 71.439447 49.81175 
L 71.448497 49.81175 
L 71.651505 49.715866 
L 71.762329 49.596012 
L 71.88867 49.500128 
L 71.921799 49.452186 
L 71.998612 49.452186 
L 72.157947 49.356302 
L 72.240603 49.28439 
L 72.268207 49.28439 
L 72.406465 49.188506 
L 72.495562 49.116593 
L 72.51697 49.116593 
L 72.717896 49.020709 
L 72.804397 48.876884 
L 72.826283 48.876884 
L 73.057043 48.781 
L 73.113832 48.733058 
L 73.167989 48.733058 
L 73.26141 48.637174 
L 73.348915 48.589233 
L 73.371156 48.589233 
L 73.495733 48.493349 
L 73.561782 48.445407 
L 73.606092 48.445407 
L 73.768795 48.349523 
L 73.812088 48.253639 
L 73.877537 48.253639 
L 74.084427 48.157756 
L 74.177431 48.061872 
L 74.19552 48.061872 
L 74.452464 47.965988 
L 74.452464 47.942017 
L 74.563104 47.942017 
L 74.728293 47.846134 
L 74.827164 47.774221 
L 74.839362 47.774221 
L 75.160297 47.678337 
L 75.164853 47.630395 
L 75.271243 47.630395 
L 75.325841 47.534511 
L 75.325841 47.51054 
L 75.436689 47.51054 
L 75.565394 47.414657 
L 75.674062 47.318773 
L 75.676083 47.318773 
L 75.984183 47.222889 
L 76.087745 47.103035 
L 76.091982 47.103035 
L 76.430492 47.007151 
L 76.532926 46.959209 
L 76.538854 46.959209 
L 76.661398 46.863325 
L 76.751512 46.815383 
L 76.770581 46.815383 
L 76.951801 46.7195 
L 76.951801 46.695529 
L 77.062686 46.695529 
L 77.248793 46.599645 
L 77.260795 46.551703 
L 77.35898 46.551703 
L 77.548492 46.455819 
L 77.587046 46.311994 
L 77.659585 46.311994 
L 77.910553 46.21611 
L 78.020838 46.072284 
L 78.021021 46.072284 
L 78.158581 45.976401 
L 78.191636 45.928459 
L 78.269674 45.928459 
L 78.390247 45.832575 
L 78.468653 45.71272 
L 78.50074 45.71272 
L 78.82094 45.616837 
L 78.900473 45.520953 
L 78.931776 45.520953 
L 79.154661 45.425069 
L 79.26573 45.353156 
L 79.40749 45.257273 
L 79.483214 45.137418 
L 79.518241 45.137418 
L 79.860632 45.041534 
L 79.961891 44.92168 
L 79.969362 44.92168 
L 80.270187 44.825796 
L 80.314461 44.777854 
L 80.380803 44.777854 
L 80.521363 44.68197 
L 80.599144 44.514174 
L 80.632322 44.514174 
L 80.884991 44.41829 
L 80.988737 44.370348 
L 80.994529 44.370348 
L 81.484609 44.274464 
L 81.59547 44.226522 
L 81.771779 44.130639 
L 81.776788 44.082697 
L 81.882395 44.082697 
L 82.32983 43.986813 
L 82.392339 43.9149 
L 82.440323 43.9149 
L 82.578642 43.819017 
L 82.652357 43.771075 
L 82.689527 43.771075 
L 82.919821 43.675191 
L 82.95922 43.603278 
L 83.030878 43.603278 
L 83.388456 43.507394 
L 83.477284 43.459453 
L 83.499549 43.459453 
L 83.883165 43.363569 
L 83.883165 43.339598 
L 83.993756 43.339598 
L 84.317533 43.243714 
L 84.325616 43.195772 
L 84.42636 43.195772 
L 84.846607 43.099888 
L 84.94729 43.004005 
L 84.957688 43.004005 
L 85.171963 42.908121 
L 85.270699 42.788266 
L 85.283032 42.788266 
L 85.607004 42.692383 
L 85.698649 42.596499 
L 85.718085 42.596499 
L 85.952299 42.500615 
L 85.952299 42.476644 
L 86.062878 42.476644 
L 86.445501 42.38076 
L 86.525352 42.284877 
L 86.556595 42.284877 
L 86.737129 42.188993 
L 86.737129 42.165022 
L 86.848161 42.165022 
L 87.053165 42.069138 
L 87.09265 41.997226 
L 87.163891 41.997226 
L 87.377468 41.901342 
L 87.48005 41.733545 
L 87.487864 41.733545 
L 87.881179 41.637661 
L 87.96588 41.58972 
L 87.992101 41.58972 
L 88.136629 41.493836 
L 88.244403 41.397952 
L 88.24771 41.397952 
L 88.59723 41.302068 
L 88.63849 41.230156 
L 88.708311 41.230156 
L 89.092771 41.134272 
L 89.092771 41.110301 
L 89.203632 41.110301 
L 89.294432 41.014417 
L 89.395875 40.846621 
L 89.405097 40.846621 
L 89.670454 40.750737 
L 89.716075 40.702795 
L 89.781413 40.702795 
L 89.968108 40.606911 
L 90.052319 40.487057 
L 90.079017 40.487057 
L 90.392029 40.391173 
L 90.484629 40.295289 
L 90.502987 40.295289 
L 90.680374 40.199405 
L 90.768761 40.103522 
L 90.791296 40.103522 
L 91.35367 40.007638 
L 91.35367 39.983667 
L 91.464176 39.983667 
L 91.685909 39.887783 
L 91.710477 39.81587 
L 91.795692 39.81587 
L 92.161954 39.719987 
L 92.224108 39.648074 
L 92.270855 39.648074 
L 92.499777 39.55219 
L 92.582066 39.480277 
L 92.610589 39.480277 
L 93.023818 39.384394 
L 93.116884 39.336452 
L 93.134912 39.336452 
L 93.606866 39.240568 
L 93.662443 39.192626 
L 93.715338 39.192626 
L 93.915541 39.096742 
L 94.018686 39.048801 
L 94.026096 39.048801 
L 94.314294 38.952917 
L 94.424971 38.809091 
L 94.425179 38.809091 
L 94.664708 38.713207 
L 94.771601 38.665266 
L 94.775679 38.665266 
L 95.250131 38.569382 
L 95.339094 38.497469 
L 95.3606 38.497469 
L 95.675056 38.401585 
L 95.676232 38.353643 
L 95.786015 38.353643 
L 96.067331 38.25776 
L 96.142332 38.209818 
L 96.178363 38.209818 
L 96.519824 38.113934 
L 96.630746 38.089963 
L 96.943708 37.994079 
L 96.976065 37.946138 
L 97.054752 37.946138 
L 97.670524 37.850254 
L 97.754845 37.778341 
L 97.781225 37.778341 
L 98.084243 37.682457 
L 98.154578 37.634515 
L 98.195006 37.634515 
L 98.585614 37.538632 
L 98.690915 37.49069 
L 98.696671 37.49069 
L 98.837684 37.394806 
L 98.904504 37.346864 
L 98.948618 37.346864 
L 99.151503 37.25098 
L 99.231477 37.179068 
L 99.262401 37.179068 
L 99.836618 37.083184 
L 99.928643 36.9873 
L 99.94705 36.9873 
L 100.087683 36.891416 
L 100.089606 36.843475 
L 100.198421 36.843475 
L 100.576379 36.747591 
L 100.683945 36.675678 
L 100.687129 36.675678 
L 101.555828 36.579794 
L 101.564548 36.531852 
L 101.666235 36.531852 
L 102.167558 36.435969 
L 102.235639 36.364056 
L 102.278431 36.364056 
L 102.489081 36.268172 
L 102.592826 36.22023 
L 102.599745 36.22023 
L 102.874901 36.124347 
L 102.874901 36.100376 
L 102.985039 36.100376 
L 103.136793 36.004492 
L 103.136793 35.980521 
L 103.246943 35.980521 
L 103.626921 35.884637 
L 103.626921 35.860666 
L 103.737194 35.860666 
L 104.110387 35.764782 
L 104.110387 35.740812 
L 104.219791 35.740812 
L 104.512325 35.644928 
L 104.512325 35.620957 
L 104.623051 35.620957 
L 105.368409 35.525073 
L 105.437727 35.45316 
L 105.478461 35.45316 
L 105.951174 35.357277 
L 105.954603 35.309335 
L 106.061974 35.309335 
L 106.334398 35.213451 
L 106.393233 35.141538 
L 106.445148 35.141538 
L 106.85196 35.045654 
L 106.923373 34.973742 
L 106.962527 34.973742 
L 107.912803 34.877858 
L 107.99465 34.805945 
L 108.0237 34.805945 
L 108.352486 34.710061 
L 108.352486 34.68609 
L 108.459734 34.68609 
L 108.741037 34.590207 
L 108.824832 34.518294 
L 108.852069 34.518294 
L 109.245985 34.42241 
L 109.324023 34.374468 
L 109.35687 34.374468 
L 109.693995 34.278585 
L 109.693995 34.254614 
L 109.804611 34.254614 
L 110.209537 34.15873 
L 110.214742 34.110788 
L 110.319148 34.110788 
L 110.843875 34.014904 
L 110.843875 33.990933 
L 110.953021 33.990933 
L 111.901325 33.89505 
L 111.959254 33.847108 
L 112.011133 33.847108 
L 112.477514 33.751224 
L 112.477514 33.727253 
L 112.588118 33.727253 
L 112.861056 33.631369 
L 112.970619 33.559457 
L 113.808393 33.463573 
L 113.896683 33.415631 
L 113.918948 33.415631 
L 114.796844 33.319747 
L 114.796844 33.295776 
L 114.906896 33.295776 
L 115.16035 33.199892 
L 115.206031 33.151951 
L 115.270806 33.151951 
L 115.420294 33.056067 
L 115.420294 33.032096 
L 115.531314 33.032096 
L 115.993593 32.936212 
L 116.101808 32.88827 
L 116.442363 32.792387 
L 116.442363 32.768416 
L 116.552734 32.768416 
L 116.840406 32.672532 
L 116.933006 32.600619 
L 116.951438 32.600619 
L 117.237995 32.504735 
L 117.237995 32.480764 
L 117.349089 32.480764 
L 118.13087 32.384881 
L 118.237921 32.312968 
L 118.240885 32.312968 
L 118.475429 32.217084 
L 118.526463 32.169142 
L 118.585849 32.169142 
L 119.125113 32.073259 
L 119.202894 32.001346 
L 119.233255 32.001346 
L 119.469979 31.905462 
L 119.469979 31.881491 
L 119.580803 31.881491 
L 119.982777 31.785607 
L 120.088383 31.737665 
L 120.09365 31.737665 
L 120.516027 31.641782 
L 120.568763 31.59384 
L 120.623875 31.59384 
L 121.056357 31.497956 
L 121.105137 31.426043 
L 121.165442 31.426043 
L 122.100213 31.33016 
L 122.100213 31.306189 
L 122.210143 31.306189 
L 122.586251 31.210305 
L 122.606226 31.162363 
L 122.697344 31.162363 
L 123.049608 31.066479 
L 123.116513 31.018537 
L 123.160713 31.018537 
L 123.521684 30.922654 
L 123.52537 30.874712 
L 123.631222 30.874712 
L 124.043667 30.778828 
L 124.043667 30.754857 
L 124.154454 30.754857 
L 124.865447 30.658973 
L 124.915072 30.611032 
L 124.976479 30.611032 
L 125.578509 30.515148 
L 125.578509 30.491177 
L 125.689162 30.491177 
L 126.325753 30.395293 
L 126.325753 30.371322 
L 126.435634 30.371322 
L 127.341319 30.275438 
L 127.396394 30.203526 
L 127.452302 30.203526 
L 128.290615 30.107642 
L 128.382444 30.035729 
L 128.401709 30.035729 
L 128.868213 29.939845 
L 128.868213 29.915874 
L 128.978302 29.915874 
L 129.774081 29.819991 
L 129.774081 29.79602 
L 129.884403 29.79602 
L 130.812855 29.700136 
L 130.812855 29.676165 
L 130.920409 29.676165 
L 132.259726 29.580281 
L 132.259726 29.55631 
L 132.369436 29.55631 
L 133.338915 29.460427 
L 133.371762 29.412485 
L 133.448453 29.412485 
L 134.747772 29.316601 
L 134.771201 29.268659 
L 134.855387 29.268659 
L 135.548021 29.172775 
L 135.548021 29.148805 
L 135.658098 29.148805 
L 136.905697 29.052921 
L 136.987532 28.981008 
L 137.01619 28.981008 
L 138.453766 28.885124 
L 138.453766 28.861153 
L 138.561014 28.861153 
L 140.086757 28.76527 
L 140.086757 28.741299 
L 140.196123 28.741299 
L 141.254847 28.645415 
L 141.254847 28.621444 
L 141.363932 28.621444 
L 142.847214 28.52556 
L 142.847214 28.501589 
L 142.957254 28.501589 
L 143.368756 28.405706 
L 143.475576 28.333793 
L 143.479274 28.333793 
L 144.278336 28.237909 
L 144.295653 28.189967 
L 144.38927 28.189967 
L 145.162367 28.094083 
L 145.226101 28.046142 
L 145.263345 28.046142 
L 146.142943 27.950258 
L 146.243075 27.902316 
L 147.062773 27.806432 
L 147.062773 27.782461 
L 147.168135 27.782461 
L 148.489645 27.686578 
L 148.489645 27.662607 
L 148.59786 27.662607 
L 148.808963 27.566723 
L 148.808963 27.542752 
L 148.894779 27.542752 
L 150.17166 27.446868 
L 150.17166 27.422897 
L 150.233937 27.422897 
L 151.858269 27.327014 
L 151.858269 27.303043 
L 151.964475 27.303043 
L 153.112775 27.207159 
L 153.146565 27.159217 
L 153.182412 27.159217 
L 154.061435 27.063333 
L 154.061435 27.039362 
L 155.266634 26.943479 
L 155.266634 26.919508 
L 155.367722 26.919508 
L 282.023758 26.895537 
L 282.023758 26.895537 
" clip-path="url(#pc6abddbe60)" style="fill: none; stroke: #1f77b4; stroke-width: 1.5; stroke-linecap: round"/>
   </g>
   <g id="line2d_26">
    <path d="M 42.831699 265.022801 
L 282.023758 26.895537 
" clip-path="url(#pc6abddbe60)" style="fill: none; stroke-dasharray: 5.55,2.4; stroke-dashoffset: 0; stroke: #999999; stroke-width: 1.5"/>
   </g>
   <g id="patch_3">
    <path d="M 35.655938 265.022801 
L 35.655938 19.751719 
" style="fill: none"/>
   </g>
   <g id="patch_4">
    <path d="M 289.19952 265.022801 
L 289.19952 19.751719 
" style="fill: none"/>
   </g>
   <g id="patch_5">
    <path d="M 35.655938 265.022801 
L 289.19952 265.022801 
" style="fill: none"/>
   </g>
   <g id="patch_6">
    <path d="M 35.655938 19.751719 
L 289.19952 19.751719 
" style="fill: none"/>
   </g>
   <g id="text_15">
    <!-- Model 0: Receiver Operating Characteristic (ROC) Curve -->
    <g style="fill: #333333" transform="translate(42.14976 13.751719) scale(0.09 -0.09)">
     <defs>
      <path id="Arial-BoldMT-4d" d="M 453 0 
L 453 4581 
L 1838 4581 
L 2669 1456 
L 3491 4581 
L 4878 4581 
L 4878 0 
L 4019 0 
L 4019 3606 
L 3109 0 
L 2219 0 
L 1313 3606 
L 1313 0 
L 453 0 
z
" transform="scale(0.015625)"/>
      <path id="Arial-BoldMT-64" d="M 3503 0 
L 2688 0 
L 2688 488 
Q 2484 203 2207 64 
Q 1931 -75 1650 -75 
Q 1078 -75 670 386 
Q 263 847 263 1672 
Q 263 2516 659 2955 
Q 1056 3394 1663 3394 
Q 2219 3394 2625 2931 
L 2625 4581 
L 3503 4581 
L 3503 0 
z
M 1159 1731 
Q 1159 1200 1306 963 
Q 1519 619 1900 619 
Q 2203 619 2415 876 
Q 2628 1134 2628 1647 
Q 2628 2219 2422 2470 
Q 2216 2722 1894 2722 
Q 1581 2722 1370 2473 
Q 1159 2225 1159 1731 
z
" transform="scale(0.015625)"/>
      <path id="Arial-BoldMT-30" d="M 1756 4600 
Q 2422 4600 2797 4125 
Q 3244 3563 3244 2259 
Q 3244 959 2794 391 
Q 2422 -78 1756 -78 
Q 1088 -78 678 436 
Q 269 950 269 2269 
Q 269 3563 719 4131 
Q 1091 4600 1756 4600 
z
M 1756 3872 
Q 1597 3872 1472 3770 
Q 1347 3669 1278 3406 
Q 1188 3066 1188 2259 
Q 1188 1453 1269 1151 
Q 1350 850 1473 750 
Q 1597 650 1756 650 
Q 1916 650 2041 751 
Q 2166 853 2234 1116 
Q 2325 1453 2325 2259 
Q 2325 3066 2244 3367 
Q 2163 3669 2039 3770 
Q 1916 3872 1756 3872 
z
" transform="scale(0.015625)"/>
      <path id="Arial-BoldMT-3a" d="M 628 2441 
L 628 3319 
L 1506 3319 
L 1506 2441 
L 628 2441 
z
M 628 0 
L 628 878 
L 1506 878 
L 1506 0 
L 628 0 
z
" transform="scale(0.015625)"/>
      <path id="Arial-BoldMT-63" d="M 3353 2338 
L 2488 2181 
Q 2444 2441 2289 2572 
Q 2134 2703 1888 2703 
Q 1559 2703 1364 2476 
Q 1169 2250 1169 1719 
Q 1169 1128 1367 884 
Q 1566 641 1900 641 
Q 2150 641 2309 783 
Q 2469 925 2534 1272 
L 3397 1125 
Q 3263 531 2881 228 
Q 2500 -75 1859 -75 
Q 1131 -75 698 384 
Q 266 844 266 1656 
Q 266 2478 700 2936 
Q 1134 3394 1875 3394 
Q 2481 3394 2839 3133 
Q 3197 2872 3353 2338 
z
" transform="scale(0.015625)"/>
      <path id="Arial-BoldMT-4f" d="M 278 2263 
Q 278 2963 488 3438 
Q 644 3788 914 4066 
Q 1184 4344 1506 4478 
Q 1934 4659 2494 4659 
Q 3506 4659 4114 4031 
Q 4722 3403 4722 2284 
Q 4722 1175 4119 548 
Q 3516 -78 2506 -78 
Q 1484 -78 881 545 
Q 278 1169 278 2263 
z
M 1231 2294 
Q 1231 1516 1590 1114 
Q 1950 713 2503 713 
Q 3056 713 3411 1111 
Q 3766 1509 3766 2306 
Q 3766 3094 3420 3481 
Q 3075 3869 2503 3869 
Q 1931 3869 1581 3476 
Q 1231 3084 1231 2294 
z
" transform="scale(0.015625)"/>
      <path id="Arial-BoldMT-70" d="M 434 3319 
L 1253 3319 
L 1253 2831 
Q 1413 3081 1684 3237 
Q 1956 3394 2288 3394 
Q 2866 3394 3269 2941 
Q 3672 2488 3672 1678 
Q 3672 847 3265 386 
Q 2859 -75 2281 -75 
Q 2006 -75 1782 34 
Q 1559 144 1313 409 
L 1313 -1263 
L 434 -1263 
L 434 3319 
z
M 1303 1716 
Q 1303 1156 1525 889 
Q 1747 622 2066 622 
Q 2372 622 2575 867 
Q 2778 1113 2778 1672 
Q 2778 2194 2568 2447 
Q 2359 2700 2050 2700 
Q 1728 2700 1515 2451 
Q 1303 2203 1303 1716 
z
" transform="scale(0.015625)"/>
      <path id="Arial-BoldMT-6e" d="M 3478 0 
L 2600 0 
L 2600 1694 
Q 2600 2231 2544 2389 
Q 2488 2547 2361 2634 
Q 2234 2722 2056 2722 
Q 1828 2722 1647 2597 
Q 1466 2472 1398 2265 
Q 1331 2059 1331 1503 
L 1331 0 
L 453 0 
L 453 3319 
L 1269 3319 
L 1269 2831 
Q 1703 3394 2363 3394 
Q 2653 3394 2893 3289 
Q 3134 3184 3257 3021 
Q 3381 2859 3429 2653 
Q 3478 2447 3478 2063 
L 3478 0 
z
" transform="scale(0.015625)"/>
      <path id="Arial-BoldMT-67" d="M 378 -219 
L 1381 -341 
Q 1406 -516 1497 -581 
Q 1622 -675 1891 -675 
Q 2234 -675 2406 -572 
Q 2522 -503 2581 -350 
Q 2622 -241 2622 53 
L 2622 538 
Q 2228 0 1628 0 
Q 959 0 569 566 
Q 263 1013 263 1678 
Q 263 2513 664 2953 
Q 1066 3394 1663 3394 
Q 2278 3394 2678 2853 
L 2678 3319 
L 3500 3319 
L 3500 341 
Q 3500 -247 3403 -537 
Q 3306 -828 3131 -993 
Q 2956 -1159 2664 -1253 
Q 2372 -1347 1925 -1347 
Q 1081 -1347 728 -1058 
Q 375 -769 375 -325 
Q 375 -281 378 -219 
z
M 1163 1728 
Q 1163 1200 1367 954 
Q 1572 709 1872 709 
Q 2194 709 2416 961 
Q 2638 1213 2638 1706 
Q 2638 2222 2425 2472 
Q 2213 2722 1888 2722 
Q 1572 2722 1367 2476 
Q 1163 2231 1163 1728 
z
" transform="scale(0.015625)"/>
      <path id="Arial-BoldMT-43" d="M 3397 1684 
L 4294 1400 
Q 4088 650 3608 286 
Q 3128 -78 2391 -78 
Q 1478 -78 890 545 
Q 303 1169 303 2250 
Q 303 3394 893 4026 
Q 1484 4659 2447 4659 
Q 3288 4659 3813 4163 
Q 4125 3869 4281 3319 
L 3366 3100 
Q 3284 3456 3026 3662 
Q 2769 3869 2400 3869 
Q 1891 3869 1573 3503 
Q 1256 3138 1256 2319 
Q 1256 1450 1568 1081 
Q 1881 713 2381 713 
Q 2750 713 3015 947 
Q 3281 1181 3397 1684 
z
" transform="scale(0.015625)"/>
      <path id="Arial-BoldMT-68" d="M 1334 4581 
L 1334 2897 
Q 1759 3394 2350 3394 
Q 2653 3394 2897 3281 
Q 3141 3169 3264 2994 
Q 3388 2819 3433 2606 
Q 3478 2394 3478 1947 
L 3478 0 
L 2600 0 
L 2600 1753 
Q 2600 2275 2550 2415 
Q 2500 2556 2373 2639 
Q 2247 2722 2056 2722 
Q 1838 2722 1666 2615 
Q 1494 2509 1414 2295 
Q 1334 2081 1334 1663 
L 1334 0 
L 456 0 
L 456 4581 
L 1334 4581 
z
" transform="scale(0.015625)"/>
     </defs>
     <use xlink:href="#Arial-BoldMT-4d"/>
     <use xlink:href="#Arial-BoldMT-6f" transform="translate(83.300781 0)"/>
     <use xlink:href="#Arial-BoldMT-64" transform="translate(144.384766 0)"/>
     <use xlink:href="#Arial-BoldMT-65" transform="translate(205.46875 0)"/>
     <use xlink:href="#Arial-BoldMT-6c" transform="translate(261.083984 0)"/>
     <use xlink:href="#Arial-BoldMT-20" transform="translate(288.867188 0)"/>
     <use xlink:href="#Arial-BoldMT-30" transform="translate(316.650391 0)"/>
     <use xlink:href="#Arial-BoldMT-3a" transform="translate(372.265625 0)"/>
     <use xlink:href="#Arial-BoldMT-20" transform="translate(405.566406 0)"/>
     <use xlink:href="#Arial-BoldMT-52" transform="translate(433.349609 0)"/>
     <use xlink:href="#Arial-BoldMT-65" transform="translate(505.566406 0)"/>
     <use xlink:href="#Arial-BoldMT-63" transform="translate(561.181641 0)"/>
     <use xlink:href="#Arial-BoldMT-65" transform="translate(616.796875 0)"/>
     <use xlink:href="#Arial-BoldMT-69" transform="translate(672.412109 0)"/>
     <use xlink:href="#Arial-BoldMT-76" transform="translate(700.195312 0)"/>
     <use xlink:href="#Arial-BoldMT-65" transform="translate(755.810547 0)"/>
     <use xlink:href="#Arial-BoldMT-72" transform="translate(811.425781 0)"/>
     <use xlink:href="#Arial-BoldMT-20" transform="translate(850.341797 0)"/>
     <use xlink:href="#Arial-BoldMT-4f" transform="translate(878.125 0)"/>
     <use xlink:href="#Arial-BoldMT-70" transform="translate(955.908203 0)"/>
     <use xlink:href="#Arial-BoldMT-65" transform="translate(1016.992188 0)"/>
     <use xlink:href="#Arial-BoldMT-72" transform="translate(1072.607422 0)"/>
     <use xlink:href="#Arial-BoldMT-61" transform="translate(1111.523438 0)"/>
     <use xlink:href="#Arial-BoldMT-74" transform="translate(1167.138672 0)"/>
     <use xlink:href="#Arial-BoldMT-69" transform="translate(1200.439453 0)"/>
     <use xlink:href="#Arial-BoldMT-6e" transform="translate(1228.222656 0)"/>
     <use xlink:href="#Arial-BoldMT-67" transform="translate(1289.306641 0)"/>
     <use xlink:href="#Arial-BoldMT-20" transform="translate(1350.390625 0)"/>
     <use xlink:href="#Arial-BoldMT-43" transform="translate(1378.173828 0)"/>
     <use xlink:href="#Arial-BoldMT-68" transform="translate(1450.390625 0)"/>
     <use xlink:href="#Arial-BoldMT-61" transform="translate(1511.474609 0)"/>
     <use xlink:href="#Arial-BoldMT-72" transform="translate(1567.089844 0)"/>
     <use xlink:href="#Arial-BoldMT-61" transform="translate(1606.005859 0)"/>
     <use xlink:href="#Arial-BoldMT-63" transform="translate(1661.621094 0)"/>
     <use xlink:href="#Arial-BoldMT-74" transform="translate(1717.236328 0)"/>
     <use xlink:href="#Arial-BoldMT-65" transform="translate(1750.537109 0)"/>
     <use xlink:href="#Arial-BoldMT-72" transform="translate(1806.152344 0)"/>
     <use xlink:href="#Arial-BoldMT-69" transform="translate(1845.068359 0)"/>
     <use xlink:href="#Arial-BoldMT-73" transform="translate(1872.851562 0)"/>
     <use xlink:href="#Arial-BoldMT-74" transform="translate(1928.466797 0)"/>
     <use xlink:href="#Arial-BoldMT-69" transform="translate(1961.767578 0)"/>
     <use xlink:href="#Arial-BoldMT-63" transform="translate(1989.550781 0)"/>
     <use xlink:href="#Arial-BoldMT-20" transform="translate(2045.166016 0)"/>
     <use xlink:href="#Arial-BoldMT-28" transform="translate(2072.949219 0)"/>
     <use xlink:href="#Arial-BoldMT-52" transform="translate(2106.25 0)"/>
     <use xlink:href="#Arial-BoldMT-4f" transform="translate(2178.466797 0)"/>
     <use xlink:href="#Arial-BoldMT-43" transform="translate(2256.25 0)"/>
     <use xlink:href="#Arial-BoldMT-29" transform="translate(2328.466797 0)"/>
     <use xlink:href="#Arial-BoldMT-20" transform="translate(2361.767578 0)"/>
     <use xlink:href="#Arial-BoldMT-43" transform="translate(2389.550781 0)"/>
     <use xlink:href="#Arial-BoldMT-75" transform="translate(2461.767578 0)"/>
     <use xlink:href="#Arial-BoldMT-72" transform="translate(2522.851562 0)"/>
     <use xlink:href="#Arial-BoldMT-76" transform="translate(2561.767578 0)"/>
     <use xlink:href="#Arial-BoldMT-65" transform="translate(2617.382812 0)"/>
    </g>
   </g>
   <g id="legend_1">
    <g id="patch_7">
     <path d="M 182.577645 260.522801 
L 282.89952 260.522801 
Q 284.69952 260.522801 284.69952 258.722801 
L 284.69952 234.161239 
Q 284.69952 232.361239 282.89952 232.361239 
L 182.577645 232.361239 
Q 180.777645 232.361239 180.777645 234.161239 
L 180.777645 258.722801 
Q 180.777645 260.522801 182.577645 260.522801 
z
" style="fill: #ffffff; opacity: 0.8; stroke: #cccccc; stroke-width: 0.75; stroke-linejoin: miter"/>
    </g>
    <g id="line2d_27">
     <path d="M 184.377645 239.25327 
L 193.377645 239.25327 
L 202.377645 239.25327 
" style="fill: none; stroke: #1f77b4; stroke-width: 1.5; stroke-linecap: round"/>
    </g>
    <g id="text_16">
     <!-- ROC curve -->
     <g style="fill: #333333" transform="translate(209.577645 242.40327) scale(0.09 -0.09)">
      <defs>
       <path id="ArialMT-52" d="M 503 0 
L 503 4581 
L 2534 4581 
Q 3147 4581 3465 4457 
Q 3784 4334 3975 4021 
Q 4166 3709 4166 3331 
Q 4166 2844 3850 2509 
Q 3534 2175 2875 2084 
Q 3116 1969 3241 1856 
Q 3506 1613 3744 1247 
L 4541 0 
L 3778 0 
L 3172 953 
Q 2906 1366 2734 1584 
Q 2563 1803 2427 1890 
Q 2291 1978 2150 2013 
Q 2047 2034 1813 2034 
L 1109 2034 
L 1109 0 
L 503 0 
z
M 1109 2559 
L 2413 2559 
Q 2828 2559 3062 2645 
Q 3297 2731 3419 2920 
Q 3541 3109 3541 3331 
Q 3541 3656 3305 3865 
Q 3069 4075 2559 4075 
L 1109 4075 
L 1109 2559 
z
" transform="scale(0.015625)"/>
       <path id="ArialMT-4f" d="M 309 2231 
Q 309 3372 921 4017 
Q 1534 4663 2503 4663 
Q 3138 4663 3647 4359 
Q 4156 4056 4423 3514 
Q 4691 2972 4691 2284 
Q 4691 1588 4409 1038 
Q 4128 488 3612 205 
Q 3097 -78 2500 -78 
Q 1853 -78 1343 234 
Q 834 547 571 1087 
Q 309 1628 309 2231 
z
M 934 2222 
Q 934 1394 1379 917 
Q 1825 441 2497 441 
Q 3181 441 3623 922 
Q 4066 1403 4066 2288 
Q 4066 2847 3877 3264 
Q 3688 3681 3323 3911 
Q 2959 4141 2506 4141 
Q 1863 4141 1398 3698 
Q 934 3256 934 2222 
z
" transform="scale(0.015625)"/>
       <path id="ArialMT-43" d="M 3763 1606 
L 4369 1453 
Q 4178 706 3683 314 
Q 3188 -78 2472 -78 
Q 1731 -78 1267 223 
Q 803 525 561 1097 
Q 319 1669 319 2325 
Q 319 3041 592 3573 
Q 866 4106 1370 4382 
Q 1875 4659 2481 4659 
Q 3169 4659 3637 4309 
Q 4106 3959 4291 3325 
L 3694 3184 
Q 3534 3684 3231 3912 
Q 2928 4141 2469 4141 
Q 1941 4141 1586 3887 
Q 1231 3634 1087 3207 
Q 944 2781 944 2328 
Q 944 1744 1114 1308 
Q 1284 872 1643 656 
Q 2003 441 2422 441 
Q 2931 441 3284 734 
Q 3638 1028 3763 1606 
z
" transform="scale(0.015625)"/>
       <path id="ArialMT-20" transform="scale(0.015625)"/>
       <path id="ArialMT-63" d="M 2588 1216 
L 3141 1144 
Q 3050 572 2676 248 
Q 2303 -75 1759 -75 
Q 1078 -75 664 370 
Q 250 816 250 1647 
Q 250 2184 428 2587 
Q 606 2991 970 3192 
Q 1334 3394 1763 3394 
Q 2303 3394 2647 3120 
Q 2991 2847 3088 2344 
L 2541 2259 
Q 2463 2594 2264 2762 
Q 2066 2931 1784 2931 
Q 1359 2931 1093 2626 
Q 828 2322 828 1663 
Q 828 994 1084 691 
Q 1341 388 1753 388 
Q 2084 388 2306 591 
Q 2528 794 2588 1216 
z
" transform="scale(0.015625)"/>
       <path id="ArialMT-75" d="M 2597 0 
L 2597 488 
Q 2209 -75 1544 -75 
Q 1250 -75 995 37 
Q 741 150 617 320 
Q 494 491 444 738 
Q 409 903 409 1263 
L 409 3319 
L 972 3319 
L 972 1478 
Q 972 1038 1006 884 
Q 1059 663 1231 536 
Q 1403 409 1656 409 
Q 1909 409 2131 539 
Q 2353 669 2445 892 
Q 2538 1116 2538 1541 
L 2538 3319 
L 3100 3319 
L 3100 0 
L 2597 0 
z
" transform="scale(0.015625)"/>
       <path id="ArialMT-72" d="M 416 0 
L 416 3319 
L 922 3319 
L 922 2816 
Q 1116 3169 1280 3281 
Q 1444 3394 1641 3394 
Q 1925 3394 2219 3213 
L 2025 2691 
Q 1819 2813 1613 2813 
Q 1428 2813 1281 2702 
Q 1134 2591 1072 2394 
Q 978 2094 978 1738 
L 978 0 
L 416 0 
z
" transform="scale(0.015625)"/>
       <path id="ArialMT-76" d="M 1344 0 
L 81 3319 
L 675 3319 
L 1388 1331 
Q 1503 1009 1600 663 
Q 1675 925 1809 1294 
L 2547 3319 
L 3125 3319 
L 1869 0 
L 1344 0 
z
" transform="scale(0.015625)"/>
       <path id="ArialMT-65" d="M 2694 1069 
L 3275 997 
Q 3138 488 2766 206 
Q 2394 -75 1816 -75 
Q 1088 -75 661 373 
Q 234 822 234 1631 
Q 234 2469 665 2931 
Q 1097 3394 1784 3394 
Q 2450 3394 2872 2941 
Q 3294 2488 3294 1666 
Q 3294 1616 3291 1516 
L 816 1516 
Q 847 969 1125 678 
Q 1403 388 1819 388 
Q 2128 388 2347 550 
Q 2566 713 2694 1069 
z
M 847 1978 
L 2700 1978 
Q 2663 2397 2488 2606 
Q 2219 2931 1791 2931 
Q 1403 2931 1139 2672 
Q 875 2413 847 1978 
z
" transform="scale(0.015625)"/>
      </defs>
      <use xlink:href="#ArialMT-52"/>
      <use xlink:href="#ArialMT-4f" transform="translate(72.216797 0)"/>
      <use xlink:href="#ArialMT-43" transform="translate(150 0)"/>
      <use xlink:href="#ArialMT-20" transform="translate(222.216797 0)"/>
      <use xlink:href="#ArialMT-63" transform="translate(250 0)"/>
      <use xlink:href="#ArialMT-75" transform="translate(300 0)"/>
      <use xlink:href="#ArialMT-72" transform="translate(355.615234 0)"/>
      <use xlink:href="#ArialMT-76" transform="translate(388.916016 0)"/>
      <use xlink:href="#ArialMT-65" transform="translate(438.916016 0)"/>
     </g>
    </g>
    <g id="line2d_28">
     <path d="M 184.377645 251.984051 
L 193.377645 251.984051 
L 202.377645 251.984051 
" style="fill: none; stroke-dasharray: 5.55,2.4; stroke-dashoffset: 0; stroke: #999999; stroke-width: 1.5"/>
    </g>
    <g id="text_17">
     <!-- Random classifier -->
     <g style="fill: #333333" transform="translate(209.577645 255.134051) scale(0.09 -0.09)">
      <defs>
       <path id="ArialMT-61" d="M 2588 409 
Q 2275 144 1986 34 
Q 1697 -75 1366 -75 
Q 819 -75 525 192 
Q 231 459 231 875 
Q 231 1119 342 1320 
Q 453 1522 633 1644 
Q 813 1766 1038 1828 
Q 1203 1872 1538 1913 
Q 2219 1994 2541 2106 
Q 2544 2222 2544 2253 
Q 2544 2597 2384 2738 
Q 2169 2928 1744 2928 
Q 1347 2928 1158 2789 
Q 969 2650 878 2297 
L 328 2372 
Q 403 2725 575 2942 
Q 747 3159 1072 3276 
Q 1397 3394 1825 3394 
Q 2250 3394 2515 3294 
Q 2781 3194 2906 3042 
Q 3031 2891 3081 2659 
Q 3109 2516 3109 2141 
L 3109 1391 
Q 3109 606 3145 398 
Q 3181 191 3288 0 
L 2700 0 
Q 2613 175 2588 409 
z
M 2541 1666 
Q 2234 1541 1622 1453 
Q 1275 1403 1131 1340 
Q 988 1278 909 1158 
Q 831 1038 831 891 
Q 831 666 1001 516 
Q 1172 366 1500 366 
Q 1825 366 2078 508 
Q 2331 650 2450 897 
Q 2541 1088 2541 1459 
L 2541 1666 
z
" transform="scale(0.015625)"/>
       <path id="ArialMT-6e" d="M 422 0 
L 422 3319 
L 928 3319 
L 928 2847 
Q 1294 3394 1984 3394 
Q 2284 3394 2536 3286 
Q 2788 3178 2913 3003 
Q 3038 2828 3088 2588 
Q 3119 2431 3119 2041 
L 3119 0 
L 2556 0 
L 2556 2019 
Q 2556 2363 2490 2533 
Q 2425 2703 2258 2804 
Q 2091 2906 1866 2906 
Q 1506 2906 1245 2678 
Q 984 2450 984 1813 
L 984 0 
L 422 0 
z
" transform="scale(0.015625)"/>
       <path id="ArialMT-64" d="M 2575 0 
L 2575 419 
Q 2259 -75 1647 -75 
Q 1250 -75 917 144 
Q 584 363 401 755 
Q 219 1147 219 1656 
Q 219 2153 384 2558 
Q 550 2963 881 3178 
Q 1213 3394 1622 3394 
Q 1922 3394 2156 3267 
Q 2391 3141 2538 2938 
L 2538 4581 
L 3097 4581 
L 3097 0 
L 2575 0 
z
M 797 1656 
Q 797 1019 1065 703 
Q 1334 388 1700 388 
Q 2069 388 2326 689 
Q 2584 991 2584 1609 
Q 2584 2291 2321 2609 
Q 2059 2928 1675 2928 
Q 1300 2928 1048 2622 
Q 797 2316 797 1656 
z
" transform="scale(0.015625)"/>
       <path id="ArialMT-6f" d="M 213 1659 
Q 213 2581 725 3025 
Q 1153 3394 1769 3394 
Q 2453 3394 2887 2945 
Q 3322 2497 3322 1706 
Q 3322 1066 3130 698 
Q 2938 331 2570 128 
Q 2203 -75 1769 -75 
Q 1072 -75 642 372 
Q 213 819 213 1659 
z
M 791 1659 
Q 791 1022 1069 705 
Q 1347 388 1769 388 
Q 2188 388 2466 706 
Q 2744 1025 2744 1678 
Q 2744 2294 2464 2611 
Q 2184 2928 1769 2928 
Q 1347 2928 1069 2612 
Q 791 2297 791 1659 
z
" transform="scale(0.015625)"/>
       <path id="ArialMT-6d" d="M 422 0 
L 422 3319 
L 925 3319 
L 925 2853 
Q 1081 3097 1340 3245 
Q 1600 3394 1931 3394 
Q 2300 3394 2536 3241 
Q 2772 3088 2869 2813 
Q 3263 3394 3894 3394 
Q 4388 3394 4653 3120 
Q 4919 2847 4919 2278 
L 4919 0 
L 4359 0 
L 4359 2091 
Q 4359 2428 4304 2576 
Q 4250 2725 4106 2815 
Q 3963 2906 3769 2906 
Q 3419 2906 3187 2673 
Q 2956 2441 2956 1928 
L 2956 0 
L 2394 0 
L 2394 2156 
Q 2394 2531 2256 2718 
Q 2119 2906 1806 2906 
Q 1569 2906 1367 2781 
Q 1166 2656 1075 2415 
Q 984 2175 984 1722 
L 984 0 
L 422 0 
z
" transform="scale(0.015625)"/>
       <path id="ArialMT-6c" d="M 409 0 
L 409 4581 
L 972 4581 
L 972 0 
L 409 0 
z
" transform="scale(0.015625)"/>
       <path id="ArialMT-73" d="M 197 991 
L 753 1078 
Q 800 744 1014 566 
Q 1228 388 1613 388 
Q 2000 388 2187 545 
Q 2375 703 2375 916 
Q 2375 1106 2209 1216 
Q 2094 1291 1634 1406 
Q 1016 1563 777 1677 
Q 538 1791 414 1992 
Q 291 2194 291 2438 
Q 291 2659 392 2848 
Q 494 3038 669 3163 
Q 800 3259 1026 3326 
Q 1253 3394 1513 3394 
Q 1903 3394 2198 3281 
Q 2494 3169 2634 2976 
Q 2775 2784 2828 2463 
L 2278 2388 
Q 2241 2644 2061 2787 
Q 1881 2931 1553 2931 
Q 1166 2931 1000 2803 
Q 834 2675 834 2503 
Q 834 2394 903 2306 
Q 972 2216 1119 2156 
Q 1203 2125 1616 2013 
Q 2213 1853 2448 1751 
Q 2684 1650 2818 1456 
Q 2953 1263 2953 975 
Q 2953 694 2789 445 
Q 2625 197 2315 61 
Q 2006 -75 1616 -75 
Q 969 -75 630 194 
Q 291 463 197 991 
z
" transform="scale(0.015625)"/>
       <path id="ArialMT-69" d="M 425 3934 
L 425 4581 
L 988 4581 
L 988 3934 
L 425 3934 
z
M 425 0 
L 425 3319 
L 988 3319 
L 988 0 
L 425 0 
z
" transform="scale(0.015625)"/>
       <path id="ArialMT-66" d="M 556 0 
L 556 2881 
L 59 2881 
L 59 3319 
L 556 3319 
L 556 3672 
Q 556 4006 616 4169 
Q 697 4388 901 4523 
Q 1106 4659 1475 4659 
Q 1713 4659 2000 4603 
L 1916 4113 
Q 1741 4144 1584 4144 
Q 1328 4144 1222 4034 
Q 1116 3925 1116 3625 
L 1116 3319 
L 1763 3319 
L 1763 2881 
L 1116 2881 
L 1116 0 
L 556 0 
z
" transform="scale(0.015625)"/>
      </defs>
      <use xlink:href="#ArialMT-52"/>
      <use xlink:href="#ArialMT-61" transform="translate(72.216797 0)"/>
      <use xlink:href="#ArialMT-6e" transform="translate(127.832031 0)"/>
      <use xlink:href="#ArialMT-64" transform="translate(183.447266 0)"/>
      <use xlink:href="#ArialMT-6f" transform="translate(239.0625 0)"/>
      <use xlink:href="#ArialMT-6d" transform="translate(294.677734 0)"/>
      <use xlink:href="#ArialMT-20" transform="translate(377.978516 0)"/>
      <use xlink:href="#ArialMT-63" transform="translate(405.761719 0)"/>
      <use xlink:href="#ArialMT-6c" transform="translate(455.761719 0)"/>
      <use xlink:href="#ArialMT-61" transform="translate(477.978516 0)"/>
      <use xlink:href="#ArialMT-73" transform="translate(533.59375 0)"/>
      <use xlink:href="#ArialMT-73" transform="translate(583.59375 0)"/>
      <use xlink:href="#ArialMT-69" transform="translate(633.59375 0)"/>
      <use xlink:href="#ArialMT-66" transform="translate(655.810547 0)"/>
      <use xlink:href="#ArialMT-69" transform="translate(683.59375 0)"/>
      <use xlink:href="#ArialMT-65" transform="translate(705.810547 0)"/>
      <use xlink:href="#ArialMT-72" transform="translate(761.425781 0)"/>
     </g>
    </g>
   </g>
  </g>
 </g>
 <defs>
  <clipPath id="pc6abddbe60">
   <rect x="35.655938" y="19.751719" width="253.543583" height="245.271083"/>
  </clipPath>
 </defs>
</svg>
