<?xml version="1.0" encoding="utf-8" standalone="no"?>
<!DOCTYPE svg PUBLIC "-//W3C//DTD SVG 1.1//EN"
  "http://www.w3.org/Graphics/SVG/1.1/DTD/svg11.dtd">
<svg xmlns:xlink="http://www.w3.org/1999/xlink" width="296.39952pt" height="296.39952pt" viewBox="0 0 296.39952 296.39952" xmlns="http://www.w3.org/2000/svg" version="1.1">
 <metadata>
  <rdf:RDF xmlns:dc="http://purl.org/dc/elements/1.1/" xmlns:cc="http://creativecommons.org/ns#" xmlns:rdf="http://www.w3.org/1999/02/22-rdf-syntax-ns#">
   <cc:Work>
    <dc:type rdf:resource="http://purl.org/dc/dcmitype/StillImage"/>
    <dc:date>2025-12-23T15:08:23.827236</dc:date>
    <dc:format>image/svg+xml</dc:format>
    <dc:creator>
     <cc:Agent>
      <dc:title>Matplotlib v3.10.8, https://matplotlib.org/</dc:title>
     </cc:Agent>
    </dc:creator>
   </cc:Work>
  </rdf:RDF>
 </metadata>
 <defs>
  <style type="text/css">*{stroke-linejoin: round; stroke-linecap: butt}</style>
 </defs>
 <g id="figure_1">
  <g id="patch_1">
   <path d="M 0 296.39952 
L 296.39952 296.39952 
L 296.39952 0 
L 0 0 
z
" style="fill: #ffffff"/>
  </g>
  <g id="axes_1">
   <g id="patch_2">
    <path d="M 35.655938 265.022801 
L 289.19952 265.022801 
L 289.19952 19.642031 
L 35.655938 19.642031 
z
" style="fill: #ffffff"/>
   </g>
   <g id="matplotlib.axis_1">
    <g id="xtick_1">
     <g id="line2d_1">
      <path d="M 42.831699 265.022801 
L 42.831699 19.642031 
" clip-path="url(#pfa7fdbf644)" style="fill: none; stroke: #c0c0c0; stroke-width: 0.25; stroke-linecap: round"/>
     </g>
     <g id="line2d_2"/>
     <g id="text_1">
      <!-- 0.0 -->
      <g style="fill: #333333" transform="translate(36.576699 274.964832) scale(0.09 -0.09)">
       <defs>
        <path id="ArialMT-30" d="M 266 2259 
Q 266 3072 433 3567 
Q 600 4063 929 4331 
Q 1259 4600 1759 4600 
Q 2128 4600 2406 4451 
Q 2684 4303 2865 4023 
Q 3047 3744 3150 3342 
Q 3253 2941 3253 2259 
Q 3253 1453 3087 958 
Q 2922 463 2592 192 
Q 2263 -78 1759 -78 
Q 1097 -78 719 397 
Q 266 969 266 2259 
z
M 844 2259 
Q 844 1131 1108 757 
Q 1372 384 1759 384 
Q 2147 384 2411 759 
Q 2675 1134 2675 2259 
Q 2675 3391 2411 3762 
Q 2147 4134 1753 4134 
Q 1366 4134 1134 3806 
Q 844 3388 844 2259 
z
" transform="scale(0.015625)"/>
        <path id="ArialMT-2e" d="M 581 0 
L 581 641 
L 1222 641 
L 1222 0 
L 581 0 
z
" transform="scale(0.015625)"/>
       </defs>
       <use xlink:href="#ArialMT-30"/>
       <use xlink:href="#ArialMT-2e" transform="translate(55.615234 0)"/>
       <use xlink:href="#ArialMT-30" transform="translate(83.398438 0)"/>
      </g>
     </g>
    </g>
    <g id="xtick_2">
     <g id="line2d_3">
      <path d="M 90.670111 265.022801 
L 90.670111 19.642031 
" clip-path="url(#pfa7fdbf644)" style="fill: none; stroke: #c0c0c0; stroke-width: 0.25; stroke-linecap: round"/>
     </g>
     <g id="line2d_4"/>
     <g id="text_2">
      <!-- 0.2 -->
      <g style="fill: #333333" transform="translate(84.415111 274.964832) scale(0.09 -0.09)">
       <defs>
        <path id="ArialMT-32" d="M 3222 541 
L 3222 0 
L 194 0 
Q 188 203 259 391 
Q 375 700 629 1000 
Q 884 1300 1366 1694 
Q 2113 2306 2375 2664 
Q 2638 3022 2638 3341 
Q 2638 3675 2398 3904 
Q 2159 4134 1775 4134 
Q 1369 4134 1125 3890 
Q 881 3647 878 3216 
L 300 3275 
Q 359 3922 746 4261 
Q 1134 4600 1788 4600 
Q 2447 4600 2831 4234 
Q 3216 3869 3216 3328 
Q 3216 3053 3103 2787 
Q 2991 2522 2730 2228 
Q 2469 1934 1863 1422 
Q 1356 997 1212 845 
Q 1069 694 975 541 
L 3222 541 
z
" transform="scale(0.015625)"/>
       </defs>
       <use xlink:href="#ArialMT-30"/>
       <use xlink:href="#ArialMT-2e" transform="translate(55.615234 0)"/>
       <use xlink:href="#ArialMT-32" transform="translate(83.398438 0)"/>
      </g>
     </g>
    </g>
    <g id="xtick_3">
     <g id="line2d_5">
      <path d="M 138.508523 265.022801 
L 138.508523 19.642031 
" clip-path="url(#pfa7fdbf644)" style="fill: none; stroke: #c0c0c0; stroke-width: 0.25; stroke-linecap: round"/>
     </g>
     <g id="line2d_6"/>
     <g id="text_3">
      <!-- 0.4 -->
      <g style="fill: #333333" transform="translate(132.253523 274.964832) scale(0.09 -0.09)">
       <defs>
        <path id="ArialMT-34" d="M 2069 0 
L 2069 1097 
L 81 1097 
L 81 1613 
L 2172 4581 
L 2631 4581 
L 2631 1613 
L 3250 1613 
L 3250 1097 
L 2631 1097 
L 2631 0 
L 2069 0 
z
M 2069 1613 
L 2069 3678 
L 634 1613 
L 2069 1613 
z
" transform="scale(0.015625)"/>
       </defs>
       <use xlink:href="#ArialMT-30"/>
       <use xlink:href="#ArialMT-2e" transform="translate(55.615234 0)"/>
       <use xlink:href="#ArialMT-34" transform="translate(83.398438 0)"/>
      </g>
     </g>
    </g>
    <g id="xtick_4">
     <g id="line2d_7">
      <path d="M 186.346935 265.022801 
L 186.346935 19.642031 
" clip-path="url(#pfa7fdbf644)" style="fill: none; stroke: #c0c0c0; stroke-width: 0.25; stroke-linecap: round"/>
     </g>
     <g id="line2d_8"/>
     <g id="text_4">
      <!-- 0.6 -->
      <g style="fill: #333333" transform="translate(180.091935 274.964832) scale(0.09 -0.09)">
       <defs>
        <path id="ArialMT-36" d="M 3184 3459 
L 2625 3416 
Q 2550 3747 2413 3897 
Q 2184 4138 1850 4138 
Q 1581 4138 1378 3988 
Q 1113 3794 959 3422 
Q 806 3050 800 2363 
Q 1003 2672 1297 2822 
Q 1591 2972 1913 2972 
Q 2475 2972 2870 2558 
Q 3266 2144 3266 1488 
Q 3266 1056 3080 686 
Q 2894 316 2569 119 
Q 2244 -78 1831 -78 
Q 1128 -78 684 439 
Q 241 956 241 2144 
Q 241 3472 731 4075 
Q 1159 4600 1884 4600 
Q 2425 4600 2770 4297 
Q 3116 3994 3184 3459 
z
M 888 1484 
Q 888 1194 1011 928 
Q 1134 663 1356 523 
Q 1578 384 1822 384 
Q 2178 384 2434 671 
Q 2691 959 2691 1453 
Q 2691 1928 2437 2201 
Q 2184 2475 1800 2475 
Q 1419 2475 1153 2201 
Q 888 1928 888 1484 
z
" transform="scale(0.015625)"/>
       </defs>
       <use xlink:href="#ArialMT-30"/>
       <use xlink:href="#ArialMT-2e" transform="translate(55.615234 0)"/>
       <use xlink:href="#ArialMT-36" transform="translate(83.398438 0)"/>
      </g>
     </g>
    </g>
    <g id="xtick_5">
     <g id="line2d_9">
      <path d="M 234.185346 265.022801 
L 234.185346 19.642031 
" clip-path="url(#pfa7fdbf644)" style="fill: none; stroke: #c0c0c0; stroke-width: 0.25; stroke-linecap: round"/>
     </g>
     <g id="line2d_10"/>
     <g id="text_5">
      <!-- 0.8 -->
      <g style="fill: #333333" transform="translate(227.930346 274.964832) scale(0.09 -0.09)">
       <defs>
        <path id="ArialMT-38" d="M 1131 2484 
Q 781 2613 612 2850 
Q 444 3088 444 3419 
Q 444 3919 803 4259 
Q 1163 4600 1759 4600 
Q 2359 4600 2725 4251 
Q 3091 3903 3091 3403 
Q 3091 3084 2923 2848 
Q 2756 2613 2416 2484 
Q 2838 2347 3058 2040 
Q 3278 1734 3278 1309 
Q 3278 722 2862 322 
Q 2447 -78 1769 -78 
Q 1091 -78 675 323 
Q 259 725 259 1325 
Q 259 1772 486 2073 
Q 713 2375 1131 2484 
z
M 1019 3438 
Q 1019 3113 1228 2906 
Q 1438 2700 1772 2700 
Q 2097 2700 2305 2904 
Q 2513 3109 2513 3406 
Q 2513 3716 2298 3927 
Q 2084 4138 1766 4138 
Q 1444 4138 1231 3931 
Q 1019 3725 1019 3438 
z
M 838 1322 
Q 838 1081 952 856 
Q 1066 631 1291 507 
Q 1516 384 1775 384 
Q 2178 384 2440 643 
Q 2703 903 2703 1303 
Q 2703 1709 2433 1975 
Q 2163 2241 1756 2241 
Q 1359 2241 1098 1978 
Q 838 1716 838 1322 
z
" transform="scale(0.015625)"/>
       </defs>
       <use xlink:href="#ArialMT-30"/>
       <use xlink:href="#ArialMT-2e" transform="translate(55.615234 0)"/>
       <use xlink:href="#ArialMT-38" transform="translate(83.398438 0)"/>
      </g>
     </g>
    </g>
    <g id="xtick_6">
     <g id="line2d_11">
      <path d="M 282.023758 265.022801 
L 282.023758 19.642031 
" clip-path="url(#pfa7fdbf644)" style="fill: none; stroke: #c0c0c0; stroke-width: 0.25; stroke-linecap: round"/>
     </g>
     <g id="line2d_12"/>
     <g id="text_6">
      <!-- 1.0 -->
      <g style="fill: #333333" transform="translate(275.768758 274.964832) scale(0.09 -0.09)">
       <defs>
        <path id="ArialMT-31" d="M 2384 0 
L 1822 0 
L 1822 3584 
Q 1619 3391 1289 3197 
Q 959 3003 697 2906 
L 697 3450 
Q 1169 3672 1522 3987 
Q 1875 4303 2022 4600 
L 2384 4600 
L 2384 0 
z
" transform="scale(0.015625)"/>
       </defs>
       <use xlink:href="#ArialMT-31"/>
       <use xlink:href="#ArialMT-2e" transform="translate(55.615234 0)"/>
       <use xlink:href="#ArialMT-30" transform="translate(83.398438 0)"/>
      </g>
     </g>
    </g>
    <g id="text_7">
     <!-- Recall [TP / (TP + FN)] -->
     <g style="fill: #333333" transform="translate(115.706479 287.305301) scale(0.09 -0.09)">
      <defs>
       <path id="Arial-BoldMT-52" d="M 469 0 
L 469 4581 
L 2416 4581 
Q 3150 4581 3483 4457 
Q 3816 4334 4016 4018 
Q 4216 3703 4216 3297 
Q 4216 2781 3912 2445 
Q 3609 2109 3006 2022 
Q 3306 1847 3501 1637 
Q 3697 1428 4028 894 
L 4588 0 
L 3481 0 
L 2813 997 
Q 2456 1531 2325 1670 
Q 2194 1809 2047 1861 
Q 1900 1913 1581 1913 
L 1394 1913 
L 1394 0 
L 469 0 
z
M 1394 2644 
L 2078 2644 
Q 2744 2644 2909 2700 
Q 3075 2756 3169 2893 
Q 3263 3031 3263 3238 
Q 3263 3469 3139 3611 
Q 3016 3753 2791 3791 
Q 2678 3806 2116 3806 
L 1394 3806 
L 1394 2644 
z
" transform="scale(0.015625)"/>
       <path id="Arial-BoldMT-65" d="M 2381 1056 
L 3256 909 
Q 3088 428 2723 176 
Q 2359 -75 1813 -75 
Q 947 -75 531 491 
Q 203 944 203 1634 
Q 203 2459 634 2926 
Q 1066 3394 1725 3394 
Q 2466 3394 2894 2905 
Q 3322 2416 3303 1406 
L 1103 1406 
Q 1113 1016 1316 798 
Q 1519 581 1822 581 
Q 2028 581 2168 693 
Q 2309 806 2381 1056 
z
M 2431 1944 
Q 2422 2325 2234 2523 
Q 2047 2722 1778 2722 
Q 1491 2722 1303 2513 
Q 1116 2303 1119 1944 
L 2431 1944 
z
" transform="scale(0.015625)"/>
       <path id="Arial-BoldMT-63" d="M 3353 2338 
L 2488 2181 
Q 2444 2441 2289 2572 
Q 2134 2703 1888 2703 
Q 1559 2703 1364 2476 
Q 1169 2250 1169 1719 
Q 1169 1128 1367 884 
Q 1566 641 1900 641 
Q 2150 641 2309 783 
Q 2469 925 2534 1272 
L 3397 1125 
Q 3263 531 2881 228 
Q 2500 -75 1859 -75 
Q 1131 -75 698 384 
Q 266 844 266 1656 
Q 266 2478 700 2936 
Q 1134 3394 1875 3394 
Q 2481 3394 2839 3133 
Q 3197 2872 3353 2338 
z
" transform="scale(0.015625)"/>
       <path id="Arial-BoldMT-61" d="M 1116 2306 
L 319 2450 
Q 453 2931 781 3162 
Q 1109 3394 1756 3394 
Q 2344 3394 2631 3255 
Q 2919 3116 3036 2902 
Q 3153 2688 3153 2116 
L 3144 1091 
Q 3144 653 3186 445 
Q 3228 238 3344 0 
L 2475 0 
Q 2441 88 2391 259 
Q 2369 338 2359 363 
Q 2134 144 1878 34 
Q 1622 -75 1331 -75 
Q 819 -75 523 203 
Q 228 481 228 906 
Q 228 1188 362 1408 
Q 497 1628 739 1745 
Q 981 1863 1438 1950 
Q 2053 2066 2291 2166 
L 2291 2253 
Q 2291 2506 2166 2614 
Q 2041 2722 1694 2722 
Q 1459 2722 1328 2630 
Q 1197 2538 1116 2306 
z
M 2291 1594 
Q 2122 1538 1756 1459 
Q 1391 1381 1278 1306 
Q 1106 1184 1106 997 
Q 1106 813 1243 678 
Q 1381 544 1594 544 
Q 1831 544 2047 700 
Q 2206 819 2256 991 
Q 2291 1103 2291 1419 
L 2291 1594 
z
" transform="scale(0.015625)"/>
       <path id="Arial-BoldMT-6c" d="M 459 0 
L 459 4581 
L 1338 4581 
L 1338 0 
L 459 0 
z
" transform="scale(0.015625)"/>
       <path id="Arial-BoldMT-20" transform="scale(0.015625)"/>
       <path id="Arial-BoldMT-5b" d="M 456 -1291 
L 456 4581 
L 2013 4581 
L 2013 3891 
L 1291 3891 
L 1291 -600 
L 2013 -600 
L 2013 -1291 
L 456 -1291 
z
" transform="scale(0.015625)"/>
       <path id="Arial-BoldMT-54" d="M 1497 0 
L 1497 3806 
L 138 3806 
L 138 4581 
L 3778 4581 
L 3778 3806 
L 2422 3806 
L 2422 0 
L 1497 0 
z
" transform="scale(0.015625)"/>
       <path id="Arial-BoldMT-50" d="M 466 0 
L 466 4581 
L 1950 4581 
Q 2794 4581 3050 4513 
Q 3444 4409 3709 4064 
Q 3975 3719 3975 3172 
Q 3975 2750 3822 2462 
Q 3669 2175 3433 2011 
Q 3197 1847 2953 1794 
Q 2622 1728 1994 1728 
L 1391 1728 
L 1391 0 
L 466 0 
z
M 1391 3806 
L 1391 2506 
L 1897 2506 
Q 2444 2506 2628 2578 
Q 2813 2650 2917 2803 
Q 3022 2956 3022 3159 
Q 3022 3409 2875 3571 
Q 2728 3734 2503 3775 
Q 2338 3806 1838 3806 
L 1391 3806 
z
" transform="scale(0.015625)"/>
       <path id="Arial-BoldMT-2f" d="M -9 -78 
L 1125 4659 
L 1784 4659 
L 638 -78 
L -9 -78 
z
" transform="scale(0.015625)"/>
       <path id="Arial-BoldMT-28" d="M 1916 -1347 
L 1313 -1347 
Q 834 -625 584 153 
Q 334 931 334 1659 
Q 334 2563 644 3369 
Q 913 4069 1325 4659 
L 1925 4659 
Q 1497 3713 1336 3048 
Q 1175 2384 1175 1641 
Q 1175 1128 1270 590 
Q 1366 53 1531 -431 
Q 1641 -750 1916 -1347 
z
" transform="scale(0.015625)"/>
       <path id="Arial-BoldMT-2b" d="M 1466 659 
L 1466 1850 
L 266 1850 
L 266 2672 
L 1466 2672 
L 1466 3863 
L 2266 3863 
L 2266 2672 
L 3469 2672 
L 3469 1850 
L 2266 1850 
L 2266 659 
L 1466 659 
z
" transform="scale(0.015625)"/>
       <path id="Arial-BoldMT-46" d="M 472 0 
L 472 4581 
L 3613 4581 
L 3613 3806 
L 1397 3806 
L 1397 2722 
L 3309 2722 
L 3309 1947 
L 1397 1947 
L 1397 0 
L 472 0 
z
" transform="scale(0.015625)"/>
       <path id="Arial-BoldMT-4e" d="M 475 0 
L 475 4581 
L 1375 4581 
L 3250 1522 
L 3250 4581 
L 4109 4581 
L 4109 0 
L 3181 0 
L 1334 2988 
L 1334 0 
L 475 0 
z
" transform="scale(0.015625)"/>
       <path id="Arial-BoldMT-29" d="M 216 -1347 
Q 475 -791 581 -494 
Q 688 -197 778 190 
Q 869 578 912 926 
Q 956 1275 956 1641 
Q 956 2384 797 3048 
Q 638 3713 209 4659 
L 806 4659 
Q 1278 3988 1539 3234 
Q 1800 2481 1800 1706 
Q 1800 1053 1594 306 
Q 1359 -531 822 -1347 
L 216 -1347 
z
" transform="scale(0.015625)"/>
       <path id="Arial-BoldMT-5d" d="M 1675 4581 
L 1675 -1291 
L 119 -1291 
L 119 -600 
L 841 -600 
L 841 3897 
L 119 3897 
L 119 4581 
L 1675 4581 
z
" transform="scale(0.015625)"/>
      </defs>
      <use xlink:href="#Arial-BoldMT-52"/>
      <use xlink:href="#Arial-BoldMT-65" transform="translate(72.216797 0)"/>
      <use xlink:href="#Arial-BoldMT-63" transform="translate(127.832031 0)"/>
      <use xlink:href="#Arial-BoldMT-61" transform="translate(183.447266 0)"/>
      <use xlink:href="#Arial-BoldMT-6c" transform="translate(239.0625 0)"/>
      <use xlink:href="#Arial-BoldMT-6c" transform="translate(266.845703 0)"/>
      <use xlink:href="#Arial-BoldMT-20" transform="translate(294.628906 0)"/>
      <use xlink:href="#Arial-BoldMT-5b" transform="translate(322.412109 0)"/>
      <use xlink:href="#Arial-BoldMT-54" transform="translate(355.712891 0)"/>
      <use xlink:href="#Arial-BoldMT-50" transform="translate(416.796875 0)"/>
      <use xlink:href="#Arial-BoldMT-20" transform="translate(481.746094 0)"/>
      <use xlink:href="#Arial-BoldMT-2f" transform="translate(509.529297 0)"/>
      <use xlink:href="#Arial-BoldMT-20" transform="translate(537.3125 0)"/>
      <use xlink:href="#Arial-BoldMT-28" transform="translate(565.095703 0)"/>
      <use xlink:href="#Arial-BoldMT-54" transform="translate(598.396484 0)"/>
      <use xlink:href="#Arial-BoldMT-50" transform="translate(659.480469 0)"/>
      <use xlink:href="#Arial-BoldMT-20" transform="translate(724.429688 0)"/>
      <use xlink:href="#Arial-BoldMT-2b" transform="translate(752.212891 0)"/>
      <use xlink:href="#Arial-BoldMT-20" transform="translate(810.611328 0)"/>
      <use xlink:href="#Arial-BoldMT-46" transform="translate(838.394531 0)"/>
      <use xlink:href="#Arial-BoldMT-4e" transform="translate(899.478516 0)"/>
      <use xlink:href="#Arial-BoldMT-29" transform="translate(971.695312 0)"/>
      <use xlink:href="#Arial-BoldMT-5d" transform="translate(1004.996094 0)"/>
     </g>
    </g>
   </g>
   <g id="matplotlib.axis_2">
    <g id="ytick_1">
     <g id="line2d_13">
      <path d="M 35.655938 265.022801 
L 289.19952 265.022801 
" clip-path="url(#pfa7fdbf644)" style="fill: none; stroke: #c0c0c0; stroke-width: 0.25; stroke-linecap: round"/>
     </g>
     <g id="line2d_14"/>
     <g id="text_8">
      <!-- 0.0 -->
      <g style="fill: #333333" transform="translate(19.645938 268.243817) scale(0.09 -0.09)">
       <use xlink:href="#ArialMT-30"/>
       <use xlink:href="#ArialMT-2e" transform="translate(55.615234 0)"/>
       <use xlink:href="#ArialMT-30" transform="translate(83.398438 0)"/>
      </g>
     </g>
    </g>
    <g id="ytick_2">
     <g id="line2d_15">
      <path d="M 35.655938 217.37605 
L 289.19952 217.37605 
" clip-path="url(#pfa7fdbf644)" style="fill: none; stroke: #c0c0c0; stroke-width: 0.25; stroke-linecap: round"/>
     </g>
     <g id="line2d_16"/>
     <g id="text_9">
      <!-- 0.2 -->
      <g style="fill: #333333" transform="translate(19.645938 220.597065) scale(0.09 -0.09)">
       <use xlink:href="#ArialMT-30"/>
       <use xlink:href="#ArialMT-2e" transform="translate(55.615234 0)"/>
       <use xlink:href="#ArialMT-32" transform="translate(83.398438 0)"/>
      </g>
     </g>
    </g>
    <g id="ytick_3">
     <g id="line2d_17">
      <path d="M 35.655938 169.729298 
L 289.19952 169.729298 
" clip-path="url(#pfa7fdbf644)" style="fill: none; stroke: #c0c0c0; stroke-width: 0.25; stroke-linecap: round"/>
     </g>
     <g id="line2d_18"/>
     <g id="text_10">
      <!-- 0.4 -->
      <g style="fill: #333333" transform="translate(19.645938 172.950314) scale(0.09 -0.09)">
       <use xlink:href="#ArialMT-30"/>
       <use xlink:href="#ArialMT-2e" transform="translate(55.615234 0)"/>
       <use xlink:href="#ArialMT-34" transform="translate(83.398438 0)"/>
      </g>
     </g>
    </g>
    <g id="ytick_4">
     <g id="line2d_19">
      <path d="M 35.655938 122.082547 
L 289.19952 122.082547 
" clip-path="url(#pfa7fdbf644)" style="fill: none; stroke: #c0c0c0; stroke-width: 0.25; stroke-linecap: round"/>
     </g>
     <g id="line2d_20"/>
     <g id="text_11">
      <!-- 0.6 -->
      <g style="fill: #333333" transform="translate(19.645938 125.303563) scale(0.09 -0.09)">
       <use xlink:href="#ArialMT-30"/>
       <use xlink:href="#ArialMT-2e" transform="translate(55.615234 0)"/>
       <use xlink:href="#ArialMT-36" transform="translate(83.398438 0)"/>
      </g>
     </g>
    </g>
    <g id="ytick_5">
     <g id="line2d_21">
      <path d="M 35.655938 74.435795 
L 289.19952 74.435795 
" clip-path="url(#pfa7fdbf644)" style="fill: none; stroke: #c0c0c0; stroke-width: 0.25; stroke-linecap: round"/>
     </g>
     <g id="line2d_22"/>
     <g id="text_12">
      <!-- 0.8 -->
      <g style="fill: #333333" transform="translate(19.645938 77.656811) scale(0.09 -0.09)">
       <use xlink:href="#ArialMT-30"/>
       <use xlink:href="#ArialMT-2e" transform="translate(55.615234 0)"/>
       <use xlink:href="#ArialMT-38" transform="translate(83.398438 0)"/>
      </g>
     </g>
    </g>
    <g id="ytick_6">
     <g id="line2d_23">
      <path d="M 35.655938 26.789044 
L 289.19952 26.789044 
" clip-path="url(#pfa7fdbf644)" style="fill: none; stroke: #c0c0c0; stroke-width: 0.25; stroke-linecap: round"/>
     </g>
     <g id="line2d_24"/>
     <g id="text_13">
      <!-- 1.0 -->
      <g style="fill: #333333" transform="translate(19.645938 30.01006) scale(0.09 -0.09)">
       <use xlink:href="#ArialMT-31"/>
       <use xlink:href="#ArialMT-2e" transform="translate(55.615234 0)"/>
       <use xlink:href="#ArialMT-30" transform="translate(83.398438 0)"/>
      </g>
     </g>
    </g>
    <g id="text_14">
     <!-- Precision [TP / (TP + FP)] -->
     <g style="fill: #333333" transform="translate(13.751719 195.805776) rotate(-90) scale(0.09 -0.09)">
      <defs>
       <path id="Arial-BoldMT-72" d="M 1300 0 
L 422 0 
L 422 3319 
L 1238 3319 
L 1238 2847 
Q 1447 3181 1614 3287 
Q 1781 3394 1994 3394 
Q 2294 3394 2572 3228 
L 2300 2463 
Q 2078 2606 1888 2606 
Q 1703 2606 1575 2504 
Q 1447 2403 1373 2137 
Q 1300 1872 1300 1025 
L 1300 0 
z
" transform="scale(0.015625)"/>
       <path id="Arial-BoldMT-69" d="M 459 3769 
L 459 4581 
L 1338 4581 
L 1338 3769 
L 459 3769 
z
M 459 0 
L 459 3319 
L 1338 3319 
L 1338 0 
L 459 0 
z
" transform="scale(0.015625)"/>
       <path id="Arial-BoldMT-73" d="M 150 947 
L 1031 1081 
Q 1088 825 1259 692 
Q 1431 559 1741 559 
Q 2081 559 2253 684 
Q 2369 772 2369 919 
Q 2369 1019 2306 1084 
Q 2241 1147 2013 1200 
Q 950 1434 666 1628 
Q 272 1897 272 2375 
Q 272 2806 612 3100 
Q 953 3394 1669 3394 
Q 2350 3394 2681 3172 
Q 3013 2950 3138 2516 
L 2309 2363 
Q 2256 2556 2107 2659 
Q 1959 2763 1684 2763 
Q 1338 2763 1188 2666 
Q 1088 2597 1088 2488 
Q 1088 2394 1175 2328 
Q 1294 2241 1995 2081 
Q 2697 1922 2975 1691 
Q 3250 1456 3250 1038 
Q 3250 581 2869 253 
Q 2488 -75 1741 -75 
Q 1063 -75 667 200 
Q 272 475 150 947 
z
" transform="scale(0.015625)"/>
       <path id="Arial-BoldMT-6f" d="M 256 1706 
Q 256 2144 472 2553 
Q 688 2963 1083 3178 
Q 1478 3394 1966 3394 
Q 2719 3394 3200 2905 
Q 3681 2416 3681 1669 
Q 3681 916 3195 420 
Q 2709 -75 1972 -75 
Q 1516 -75 1102 131 
Q 688 338 472 736 
Q 256 1134 256 1706 
z
M 1156 1659 
Q 1156 1166 1390 903 
Q 1625 641 1969 641 
Q 2313 641 2545 903 
Q 2778 1166 2778 1666 
Q 2778 2153 2545 2415 
Q 2313 2678 1969 2678 
Q 1625 2678 1390 2415 
Q 1156 2153 1156 1659 
z
" transform="scale(0.015625)"/>
       <path id="Arial-BoldMT-6e" d="M 3478 0 
L 2600 0 
L 2600 1694 
Q 2600 2231 2544 2389 
Q 2488 2547 2361 2634 
Q 2234 2722 2056 2722 
Q 1828 2722 1647 2597 
Q 1466 2472 1398 2265 
Q 1331 2059 1331 1503 
L 1331 0 
L 453 0 
L 453 3319 
L 1269 3319 
L 1269 2831 
Q 1703 3394 2363 3394 
Q 2653 3394 2893 3289 
Q 3134 3184 3257 3021 
Q 3381 2859 3429 2653 
Q 3478 2447 3478 2063 
L 3478 0 
z
" transform="scale(0.015625)"/>
      </defs>
      <use xlink:href="#Arial-BoldMT-50"/>
      <use xlink:href="#Arial-BoldMT-72" transform="translate(66.699219 0)"/>
      <use xlink:href="#Arial-BoldMT-65" transform="translate(105.615234 0)"/>
      <use xlink:href="#Arial-BoldMT-63" transform="translate(161.230469 0)"/>
      <use xlink:href="#Arial-BoldMT-69" transform="translate(216.845703 0)"/>
      <use xlink:href="#Arial-BoldMT-73" transform="translate(244.628906 0)"/>
      <use xlink:href="#Arial-BoldMT-69" transform="translate(300.244141 0)"/>
      <use xlink:href="#Arial-BoldMT-6f" transform="translate(328.027344 0)"/>
      <use xlink:href="#Arial-BoldMT-6e" transform="translate(389.111328 0)"/>
      <use xlink:href="#Arial-BoldMT-20" transform="translate(450.195312 0)"/>
      <use xlink:href="#Arial-BoldMT-5b" transform="translate(477.978516 0)"/>
      <use xlink:href="#Arial-BoldMT-54" transform="translate(511.279297 0)"/>
      <use xlink:href="#Arial-BoldMT-50" transform="translate(572.363281 0)"/>
      <use xlink:href="#Arial-BoldMT-20" transform="translate(637.3125 0)"/>
      <use xlink:href="#Arial-BoldMT-2f" transform="translate(665.095703 0)"/>
      <use xlink:href="#Arial-BoldMT-20" transform="translate(692.878906 0)"/>
      <use xlink:href="#Arial-BoldMT-28" transform="translate(720.662109 0)"/>
      <use xlink:href="#Arial-BoldMT-54" transform="translate(753.962891 0)"/>
      <use xlink:href="#Arial-BoldMT-50" transform="translate(815.046875 0)"/>
      <use xlink:href="#Arial-BoldMT-20" transform="translate(879.996094 0)"/>
      <use xlink:href="#Arial-BoldMT-2b" transform="translate(907.779297 0)"/>
      <use xlink:href="#Arial-BoldMT-20" transform="translate(966.177734 0)"/>
      <use xlink:href="#Arial-BoldMT-46" transform="translate(993.960938 0)"/>
      <use xlink:href="#Arial-BoldMT-50" transform="translate(1055.044922 0)"/>
      <use xlink:href="#Arial-BoldMT-29" transform="translate(1121.744141 0)"/>
      <use xlink:href="#Arial-BoldMT-5d" transform="translate(1155.044922 0)"/>
     </g>
    </g>
   </g>
   <g id="line2d_25">
    <path d="M 42.831699 265.022801 
L 42.942535 132.835921 
L 42.945609 132.739994 
L 43.056531 124.99392 
L 43.057572 124.897993 
L 43.167661 120.413424 
L 43.172107 120.317497 
L 43.281792 117.367754 
L 43.293745 117.271827 
L 43.402512 114.945606 
L 43.409444 114.84968 
L 43.519067 112.667349 
L 43.532061 112.571423 
L 43.642567 110.79678 
L 43.642763 110.79678 
L 43.652891 110.724835 
L 43.761829 109.285936 
L 43.778326 109.190009 
L 43.887974 107.583238 
L 43.904422 107.487312 
L 44.014046 106.096376 
L 44.039997 106.000449 
L 44.149388 104.873312 
L 44.150527 104.873312 
L 44.157116 104.777385 
L 44.266226 103.770155 
L 44.294394 103.674229 
L 44.400282 102.666999 
L 44.421776 102.571073 
L 44.528068 101.755696 
L 44.552538 101.65977 
L 44.662101 100.748467 
L 44.66226 100.748467 
L 44.672902 100.65254 
L 44.783457 99.789201 
L 44.793659 99.693274 
L 44.903001 98.805953 
L 44.922731 98.710026 
L 45.033543 97.702797 
L 45.054424 97.60687 
L 45.162713 96.815476 
L 45.162933 96.815476 
L 45.180177 96.719549 
L 45.283885 95.952136 
L 45.290548 95.952136 
L 45.310841 95.856209 
L 45.41875 95.400558 
L 45.419644 95.400558 
L 45.438444 95.304631 
L 45.540401 94.729072 
L 45.544736 94.729072 
L 45.561527 94.633145 
L 45.668199 94.105549 
L 45.687868 94.009622 
L 45.798484 93.146282 
L 45.818275 93.050356 
L 45.927458 92.23498 
L 45.927972 92.23498 
L 45.955614 92.139053 
L 46.059298 91.731365 
L 46.066364 91.731365 
L 46.086584 91.635438 
L 46.186312 91.059878 
L 46.196257 91.059878 
L 46.222662 90.963952 
L 46.328562 90.580245 
L 46.333755 90.580245 
L 46.372554 90.484319 
L 46.478467 89.884777 
L 46.482912 89.884777 
L 46.50759 89.788851 
L 46.618341 89.069401 
L 46.618647 89.069401 
L 46.657335 88.973474 
L 46.754639 88.230043 
L 46.767167 88.230043 
L 46.797234 88.134117 
L 46.903012 87.774392 
L 46.936838 87.678465 
L 47.04743 87.390685 
L 47.116442 87.294759 
L 47.226298 86.839107 
L 47.227156 86.839107 
L 47.246874 86.743181 
L 47.35553 86.263547 
L 47.357771 86.263547 
L 47.392749 86.167621 
L 47.50356 85.640024 
L 47.542163 85.544098 
L 47.645982 85.040483 
L 47.652816 85.040483 
L 47.677922 84.944556 
L 47.788048 84.536868 
L 47.818115 84.440942 
L 47.92088 84.153162 
L 47.929061 84.153162 
L 47.956139 84.057235 
L 48.067135 83.673529 
L 48.106754 83.577602 
L 48.216684 83.313804 
L 48.248208 83.217877 
L 48.351745 82.762226 
L 48.356338 82.762226 
L 48.389674 82.666299 
L 48.497583 82.23463 
L 48.499077 82.23463 
L 48.536235 82.138703 
L 48.646483 81.635088 
L 48.681951 81.539162 
L 48.785978 81.08351 
L 48.792383 81.08351 
L 48.825867 80.987583 
L 48.934572 80.50795 
L 48.999812 80.412024 
L 49.093833 80.124244 
L 49.110844 80.124244 
L 49.147426 80.028317 
L 49.247803 79.524703 
L 49.257038 79.524703 
L 49.297392 79.428776 
L 49.38442 79.045069 
L 49.407971 79.045069 
L 49.458625 78.949143 
L 49.559063 78.6134 
L 49.567048 78.6134 
L 49.595462 78.517473 
L 49.705036 78.18173 
L 49.706126 78.18173 
L 49.752041 78.085803 
L 49.861566 77.678115 
L 49.862779 77.678115 
L 49.890935 77.582189 
L 49.99479 77.246445 
L 50.001661 77.246445 
L 50.029131 77.150519 
L 50.135362 76.958665 
L 50.140126 76.958665 
L 50.184277 76.862739 
L 50.290582 76.622922 
L 50.294146 76.622922 
L 50.353642 76.526996 
L 50.464723 76.239216 
L 50.520007 76.143289 
L 50.624242 75.903473 
L 50.631112 75.903473 
L 50.659966 75.807546 
L 50.769688 75.56773 
L 50.76997 75.56773 
L 50.81308 75.471803 
L 50.919262 75.088096 
L 50.92383 75.088096 
L 50.96683 74.99217 
L 51.052069 74.800317 
L 51.077396 74.800317 
L 51.132925 74.70439 
L 51.234551 74.488555 
L 51.242144 74.488555 
L 51.273766 74.392628 
L 51.384872 74.152812 
L 51.428055 74.056885 
L 51.507661 73.865032 
L 51.538903 73.865032 
L 51.593354 73.769105 
L 51.681019 73.577252 
L 51.703615 73.577252 
L 51.753252 73.481326 
L 51.854364 73.241509 
L 51.863868 73.241509 
L 51.918833 73.145582 
L 52.029032 72.881784 
L 52.083287 72.785858 
L 52.184925 72.570023 
L 52.192433 72.570023 
L 52.24888 72.474096 
L 52.353911 72.210298 
L 52.359054 72.210298 
L 52.419408 72.114371 
L 52.526313 71.874555 
L 52.530183 71.874555 
L 52.575509 71.778628 
L 52.673878 71.562793 
L 52.686419 71.562793 
L 52.772871 71.466867 
L 52.868264 71.22705 
L 52.88187 71.22705 
L 52.972536 71.131123 
L 53.075693 70.867325 
L 53.082711 70.867325 
L 53.138814 70.771399 
L 53.243552 70.531582 
L 53.248156 70.531582 
L 53.281493 70.435655 
L 53.36225 70.195839 
L 53.390027 70.195839 
L 53.477789 70.099912 
L 53.585086 69.860096 
L 53.587977 69.860096 
L 53.65574 69.764169 
L 53.75815 69.692224 
L 53.766735 69.692224 
L 53.840842 69.596298 
L 53.938109 69.404444 
L 53.951678 69.404444 
L 54.052472 69.308518 
L 54.134515 69.092683 
L 54.163565 69.092683 
L 54.229002 68.996756 
L 54.332587 68.684995 
L 54.340107 68.684995 
L 54.407503 68.589068 
L 54.505222 68.229343 
L 54.518376 68.229343 
L 54.600076 68.133417 
L 54.703466 67.989527 
L 54.711169 67.989527 
L 54.734733 67.8936 
L 54.817107 67.797673 
L 54.845251 67.797673 
L 54.928629 67.701747 
L 55.027487 67.509894 
L 55.038669 67.509894 
L 55.135531 67.413967 
L 55.244273 67.222114 
L 55.246441 67.222114 
L 55.345838 67.126187 
L 55.446632 66.934334 
L 55.456601 66.934334 
L 55.51655 66.838407 
L 55.624092 66.766462 
L 55.627411 66.766462 
L 55.710385 66.670536 
L 55.821381 66.454701 
L 55.895365 66.358774 
L 55.976637 66.166921 
L 56.005797 66.166921 
L 56.06075 66.070994 
L 56.168904 65.879141 
L 56.171464 65.879141 
L 56.254376 65.783214 
L 56.364 65.711269 
L 56.416099 65.615343 
L 56.5202 65.447471 
L 56.52718 65.447471 
L 56.592139 65.351545 
L 56.647569 65.255618 
L 56.703245 65.255618 
L 56.801025 65.159691 
L 56.911715 64.943857 
L 56.962552 64.84793 
L 57.064742 64.632095 
L 57.072886 64.632095 
L 57.163233 64.536168 
L 57.262422 64.344315 
L 57.274228 64.344315 
L 57.370503 64.248389 
L 57.480531 63.960609 
L 57.481535 63.960609 
L 57.668315 63.864682 
L 57.713409 63.792737 
L 57.779299 63.792737 
L 57.894091 63.69681 
L 58.004425 63.552921 
L 58.004755 63.552921 
L 58.049457 63.456994 
L 58.14605 63.265141 
L 58.159803 63.265141 
L 58.185792 63.169214 
L 58.282336 63.001342 
L 58.296763 63.001342 
L 58.324968 62.905416 
L 58.397446 62.761526 
L 58.435375 62.761526 
L 58.585476 62.665599 
L 58.686796 62.425783 
L 58.696397 62.425783 
L 58.772391 62.329856 
L 58.87131 62.161985 
L 58.882553 62.161985 
L 59.030388 62.066058 
L 59.14093 61.922168 
L 59.141212 61.922168 
L 59.226574 61.826241 
L 59.334067 61.634388 
L 59.336737 61.634388 
L 59.459244 61.538462 
L 59.554796 61.274663 
L 59.569921 61.274663 
L 59.675369 61.178737 
L 59.783866 60.962902 
L 59.786242 60.962902 
L 59.861598 60.866975 
L 59.958068 60.627159 
L 59.97045 60.627159 
L 60.26078 60.531232 
L 60.371787 60.36336 
L 60.498483 60.267434 
L 60.587397 60.195489 
L 60.60894 60.195489 
L 60.730382 60.099562 
L 60.789964 59.979654 
L 60.839957 59.979654 
L 60.902674 59.883727 
L 61.001949 59.763819 
L 61.013768 59.763819 
L 61.206769 59.667892 
L 61.268225 59.500021 
L 61.317777 59.500021 
L 61.372179 59.404094 
L 61.422551 59.356131 
L 61.481986 59.356131 
L 61.591046 59.260204 
L 61.657585 59.164278 
L 61.701674 59.164278 
L 61.911345 59.068351 
L 62.002867 58.924461 
L 62.022438 58.924461 
L 62.125289 58.828535 
L 62.235586 58.636681 
L 62.235844 58.636681 
L 62.327954 58.540755 
L 62.386703 58.492791 
L 62.439047 58.492791 
L 62.543895 58.396865 
L 62.642729 58.157048 
L 62.654902 58.157048 
L 62.764599 58.061122 
L 62.8251 57.89325 
L 62.875387 57.89325 
L 62.985157 57.797323 
L 63.088094 57.677415 
L 63.096079 57.677415 
L 63.253491 57.581489 
L 63.346777 57.437599 
L 63.363617 57.437599 
L 63.418692 57.341672 
L 63.529626 57.149819 
L 63.724196 57.053892 
L 63.797213 56.981947 
L 63.835191 56.981947 
L 63.911491 56.886021 
L 64.005438 56.742131 
L 64.022547 56.742131 
L 64.127554 56.646204 
L 64.234201 56.430369 
L 64.238476 56.430369 
L 64.316588 56.334442 
L 64.409433 56.262498 
L 64.427632 56.262498 
L 64.546282 56.166571 
L 64.657412 56.022681 
L 64.713406 55.926754 
L 64.820788 55.806846 
L 64.824511 55.806846 
L 65.054683 55.710919 
L 65.140302 55.543048 
L 65.165715 55.543048 
L 65.262406 55.447121 
L 65.37323 55.351195 
L 65.502277 55.255268 
L 65.582716 55.159341 
L 65.613212 55.159341 
L 65.710564 55.063415 
L 65.821265 54.895543 
L 65.989932 54.799617 
L 66.097462 54.631745 
L 66.097939 54.631745 
L 66.250048 54.535818 
L 66.360897 54.439892 
L 66.361019 54.439892 
L 66.540929 54.343965 
L 66.626903 54.248039 
L 66.651814 54.248039 
L 66.771786 54.152112 
L 66.858851 54.080167 
L 66.882733 54.080167 
L 67.064063 53.98424 
L 67.165665 53.864332 
L 67.17474 53.864332 
L 67.376866 53.768405 
L 67.462927 53.576552 
L 67.487384 53.576552 
L 67.612733 53.480626 
L 67.712081 53.432662 
L 67.723667 53.432662 
L 67.888733 53.336736 
L 67.9981 53.192846 
L 67.998969 53.192846 
L 68.164832 53.096919 
L 68.266544 53.000992 
L 68.27546 53.000992 
L 68.518258 52.905066 
L 68.518258 52.881084 
L 68.629156 52.881084 
L 68.773476 52.785158 
L 68.841569 52.689231 
L 68.884348 52.689231 
L 69.080902 52.593304 
L 69.16722 52.473396 
L 69.191261 52.473396 
L 69.433545 52.377469 
L 69.463918 52.305525 
L 69.544479 52.305525 
L 69.58934 52.209598 
L 69.694885 52.017745 
L 69.700005 52.017745 
L 69.91537 51.921818 
L 70.002496 51.849873 
L 70.025569 51.849873 
L 70.22723 51.753946 
L 70.326064 51.634038 
L 70.338299 51.634038 
L 70.440145 51.538112 
L 70.540008 51.418203 
L 70.551141 51.418203 
L 70.645039 51.322277 
L 70.734957 51.202368 
L 70.754724 51.202368 
L 70.906172 51.106442 
L 71.013566 51.058478 
L 71.017106 51.058478 
L 71.161769 50.962552 
L 71.259439 50.818662 
L 71.272788 50.818662 
L 71.484198 50.722735 
L 71.553871 50.626809 
L 71.595303 50.626809 
L 71.746898 50.530882 
L 71.747216 50.482919 
L 71.857354 50.482919 
L 71.988864 50.386992 
L 72.064771 50.291066 
L 72.099026 50.291066 
L 72.23187 50.195139 
L 72.318812 50.123194 
L 72.34256 50.123194 
L 72.483303 50.027267 
L 72.494007 49.979304 
L 72.592192 49.979304 
L 72.633293 49.883377 
L 72.73056 49.787451 
L 72.744068 49.787451 
L 73.055781 49.691524 
L 73.163347 49.571616 
L 73.166434 49.571616 
L 73.271881 49.475689 
L 73.335015 49.379763 
L 73.38208 49.379763 
L 73.668785 49.283836 
L 73.748354 49.235873 
L 73.77929 49.235873 
L 74.003816 49.139946 
L 74.042664 48.996056 
L 74.114567 48.996056 
L 74.216989 48.90013 
L 74.249983 48.828185 
L 74.327446 48.828185 
L 74.523607 48.732258 
L 74.615901 48.636331 
L 74.634186 48.636331 
L 74.834843 48.540405 
L 74.930125 48.348551 
L 74.945324 48.348551 
L 75.216793 48.252625 
L 75.325216 48.204662 
L 75.327898 48.204662 
L 75.746492 48.108735 
L 75.746492 48.084753 
L 75.85723 48.084753 
L 76.098314 47.988827 
L 76.194441 47.916882 
L 76.209309 47.916882 
L 76.312026 47.820955 
L 76.41168 47.725028 
L 76.421833 47.725028 
L 76.614847 47.629102 
L 76.678458 47.581139 
L 76.725365 47.581139 
L 76.85091 47.485212 
L 76.925764 47.389285 
L 76.960766 47.389285 
L 77.231427 47.293359 
L 77.293875 47.245395 
L 77.342533 47.245395 
L 77.648624 47.149469 
L 77.749675 47.053542 
L 77.759252 47.053542 
L 78.24202 46.957616 
L 78.340401 46.813726 
L 78.353052 46.813726 
L 78.622476 46.717799 
L 78.720673 46.621872 
L 78.732724 46.621872 
L 78.933503 46.525946 
L 78.997984 46.406037 
L 79.044021 46.406037 
L 79.227593 46.310111 
L 79.227593 46.286129 
L 79.337375 46.286129 
L 79.607314 46.190203 
L 79.697024 46.118258 
L 79.718346 46.118258 
L 79.84427 46.022331 
L 79.930796 45.950386 
L 79.954996 45.950386 
L 80.118323 45.854459 
L 80.200844 45.758533 
L 80.226882 45.758533 
L 80.426289 45.662606 
L 80.536978 45.638625 
L 80.820694 45.542698 
L 80.921426 45.446771 
L 80.93142 45.446771 
L 80.992055 45.350845 
L 81.067461 45.302881 
L 81.103063 45.302881 
L 81.613546 45.206955 
L 81.613546 45.182973 
L 81.724603 45.182973 
L 81.993353 45.087046 
L 82.095151 45.015102 
L 82.104398 45.015102 
L 82.419209 44.919175 
L 82.419209 44.895193 
L 82.52871 44.895193 
L 82.94821 44.799267 
L 83.057099 44.727322 
L 83.420519 44.631395 
L 83.506212 44.55945 
L 83.530975 44.55945 
L 83.666514 44.463523 
L 83.777558 44.391578 
L 83.995704 44.295652 
L 83.995704 44.27167 
L 84.106381 44.27167 
L 84.371616 44.175744 
L 84.466494 44.079817 
L 84.482378 44.079817 
L 84.920665 43.98389 
L 85.027778 43.935927 
L 85.031073 43.935927 
L 85.230259 43.84 
L 85.287245 43.792037 
L 85.341071 43.792037 
L 85.442085 43.69611 
L 85.513657 43.624166 
L 85.552933 43.624166 
L 85.778317 43.528239 
L 85.877334 43.432312 
L 85.888859 43.432312 
L 86.149942 43.336386 
L 86.149942 43.312404 
L 86.260926 43.312404 
L 86.500895 43.216477 
L 86.608498 43.096569 
L 86.610237 43.096569 
L 87.182948 43.000643 
L 87.293686 42.880734 
L 87.434846 42.784808 
L 87.519841 42.664899 
L 87.545241 42.664899 
L 87.823605 42.568973 
L 87.919267 42.449064 
L 87.934527 42.449064 
L 88.074622 42.353138 
L 88.163058 42.281193 
L 88.185176 42.281193 
L 88.558406 42.185266 
L 88.667038 42.065358 
L 88.669255 42.065358 
L 88.846507 41.969431 
L 88.953596 41.897486 
L 88.957613 41.897486 
L 89.277237 41.80156 
L 89.371846 41.681652 
L 89.387534 41.681652 
L 89.517378 41.585725 
L 89.628533 41.465817 
L 90.177349 41.36989 
L 90.177349 41.345908 
L 90.288137 41.345908 
L 90.784768 41.249982 
L 90.872874 41.130073 
L 90.895409 41.130073 
L 91.353217 41.034147 
L 91.44872 40.962202 
L 91.46409 40.962202 
L 91.573065 40.866275 
L 91.621367 40.79433 
L 91.68308 40.79433 
L 92.126621 40.698404 
L 92.182798 40.65044 
L 92.237384 40.65044 
L 92.351857 40.554514 
L 92.417955 40.458587 
L 92.462375 40.458587 
L 92.711444 40.36266 
L 92.74467 40.314697 
L 92.821594 40.314697 
L 93.207329 40.218771 
L 93.25655 40.146826 
L 93.317736 40.146826 
L 93.375567 40.050899 
L 93.429601 40.002936 
L 93.486575 40.002936 
L 93.748307 39.907009 
L 93.799427 39.859046 
L 93.859303 39.859046 
L 94.087343 39.763119 
L 94.157323 39.691174 
L 94.198363 39.691174 
L 94.510995 39.595248 
L 94.5834 39.475339 
L 94.622051 39.475339 
L 94.876448 39.379413 
L 94.949661 39.331449 
L 94.987541 39.331449 
L 95.427506 39.235523 
L 95.510186 39.187559 
L 95.538379 39.187559 
L 95.732875 39.091633 
L 95.817233 38.947743 
L 95.843797 38.947743 
L 96.579357 38.851816 
L 96.607574 38.75589 
L 96.69045 38.75589 
L 96.828451 38.659963 
L 96.902839 38.588018 
L 96.939556 38.588018 
L 97.277809 38.492091 
L 97.388939 38.420146 
L 97.616282 38.32422 
L 97.616282 38.300238 
L 97.727228 38.300238 
L 97.9725 38.204312 
L 97.9725 38.18033 
L 98.083533 38.18033 
L 98.550024 38.084403 
L 98.591187 38.012458 
L 98.660738 38.012458 
L 99.113207 37.916532 
L 99.18364 37.868568 
L 99.224153 37.868568 
L 99.524244 37.772642 
L 99.524244 37.74866 
L 99.635349 37.74866 
L 100.029179 37.652734 
L 100.140872 37.60477 
L 100.700528 37.508844 
L 100.700528 37.484862 
L 100.811621 37.484862 
L 101.525382 37.388935 
L 101.60669 37.31699 
L 101.635814 37.31699 
L 102.111834 37.221064 
L 102.111834 37.197082 
L 102.221739 37.197082 
L 102.554603 37.101155 
L 102.554603 37.077174 
L 102.66512 37.077174 
L 103.364968 36.981247 
L 103.370038 36.933284 
L 103.475768 36.933284 
L 104.122059 36.837357 
L 104.178273 36.789394 
L 104.230715 36.789394 
L 104.701077 36.693467 
L 104.73663 36.621522 
L 104.811607 36.621522 
L 105.164874 36.525596 
L 105.219263 36.429669 
L 105.275331 36.429669 
L 105.605267 36.333743 
L 105.697757 36.285779 
L 105.715846 36.285779 
L 105.887342 36.189853 
L 105.9233 36.141889 
L 105.997505 36.141889 
L 106.277657 36.045963 
L 106.373772 35.997999 
L 106.38875 35.997999 
L 106.756237 35.902073 
L 106.825653 35.830128 
L 106.867024 35.830128 
L 107.235833 35.734201 
L 107.235833 35.710219 
L 107.346926 35.710219 
L 107.872498 35.614293 
L 107.872498 35.590311 
L 107.983591 35.590311 
L 108.47928 35.494385 
L 108.47928 35.470403 
L 108.590361 35.470403 
L 108.716028 35.374476 
L 108.799688 35.302531 
L 108.827097 35.302531 
L 109.119717 35.206605 
L 109.195429 35.13466 
L 109.230541 35.13466 
L 109.483064 35.038733 
L 109.546087 34.942807 
L 109.59352 34.942807 
L 109.964644 34.84688 
L 109.964644 34.822898 
L 110.073692 34.822898 
L 110.571891 34.726972 
L 110.675257 34.655027 
L 110.682176 34.655027 
L 111.156861 34.5591 
L 111.161601 34.511137 
L 111.266828 34.511137 
L 111.83186 34.41521 
L 111.910327 34.367247 
L 111.942917 34.367247 
L 112.36358 34.27132 
L 112.46103 34.223357 
L 112.474281 34.223357 
L 113.131582 34.12743 
L 113.224856 34.079467 
L 113.241721 34.079467 
L 114.329581 33.98354 
L 114.394478 33.911595 
L 114.440417 33.911595 
L 114.812949 33.815669 
L 114.878948 33.767705 
L 114.922475 33.767705 
L 115.569268 33.671779 
L 115.613945 33.599834 
L 115.679357 33.599834 
L 116.203606 33.503907 
L 116.271406 33.431962 
L 116.314528 33.431962 
L 116.543867 33.336036 
L 116.543867 33.312054 
L 116.65496 33.312054 
L 117.195951 33.216127 
L 117.195951 33.192146 
L 117.305379 33.192146 
L 117.575133 33.096219 
L 117.68499 32.952329 
L 117.686141 32.952329 
L 118.343565 32.856403 
L 118.392921 32.808439 
L 118.454609 32.808439 
L 118.560142 32.712513 
L 118.615793 32.640568 
L 118.670954 32.640568 
L 119.069719 32.544641 
L 119.15251 32.496678 
L 119.180604 32.496678 
L 119.520767 32.400751 
L 119.6209 32.352788 
L 119.631481 32.352788 
L 120.177848 32.256861 
L 120.270534 32.208898 
L 120.288795 32.208898 
L 121.277392 32.112971 
L 121.277392 32.08899 
L 121.388363 32.08899 
L 121.999689 31.993063 
L 121.999689 31.969081 
L 122.110611 31.969081 
L 122.737735 31.873155 
L 122.848339 31.849173 
L 123.156733 31.753246 
L 123.260025 31.705283 
L 123.267777 31.705283 
L 124.175715 31.609357 
L 124.274831 31.537412 
L 124.286662 31.537412 
L 124.825448 31.441485 
L 124.825448 31.417503 
L 124.936419 31.417503 
L 125.502994 31.321577 
L 125.502994 31.297595 
L 125.614087 31.297595 
L 126.278529 31.201668 
L 126.278529 31.177687 
L 126.389402 31.177687 
L 126.997653 31.08176 
L 127.052973 31.033797 
L 127.108404 31.033797 
L 127.772147 30.93787 
L 127.772147 30.913889 
L 127.882702 30.913889 
L 128.658285 30.817962 
L 128.749587 30.769999 
L 128.769379 30.769999 
L 129.869082 30.674072 
L 129.869082 30.65009 
L 129.979404 30.65009 
L 130.487266 30.554164 
L 130.487266 30.530182 
L 130.598347 30.530182 
L 131.928883 30.434255 
L 131.928883 30.410274 
L 132.039622 30.410274 
L 133.051905 30.314347 
L 133.077991 30.266384 
L 133.1623 30.266384 
L 133.986505 30.170457 
L 133.986505 30.146476 
L 134.097415 30.146476 
L 135.325149 30.050549 
L 135.325149 30.026567 
L 135.435728 30.026567 
L 135.801842 29.930641 
L 135.801842 29.906659 
L 135.911968 29.906659 
L 136.377076 29.810732 
L 136.40495 29.738787 
L 136.486883 29.738787 
L 137.600279 29.642861 
L 137.68493 29.594898 
L 137.711017 29.594898 
L 138.364191 29.498971 
L 138.364191 29.474989 
L 138.474415 29.474989 
L 139.77726 29.379063 
L 139.77726 29.355081 
L 139.882793 29.355081 
L 141.268895 29.259154 
L 141.268895 29.235173 
L 141.370056 29.235173 
L 142.187071 29.139246 
L 142.288085 29.091283 
L 142.291539 29.091283 
L 143.059701 28.995356 
L 143.155939 28.89943 
L 143.168639 28.89943 
L 144.253413 28.803503 
L 144.30997 28.75554 
L 144.363233 28.75554 
L 145.222158 28.659613 
L 145.222158 28.635631 
L 145.290901 28.635631 
L 145.639355 28.539705 
L 145.639355 28.515723 
L 145.749713 28.515723 
L 147.06003 28.419796 
L 147.143506 28.371833 
L 147.169556 28.371833 
L 148.254685 28.275907 
L 148.254685 28.251925 
L 148.359875 28.251925 
L 149.159794 28.155998 
L 149.159794 28.132017 
L 149.270887 28.132017 
L 150.008786 28.03609 
L 150.008786 28.012108 
L 150.111001 28.012108 
L 150.644484 27.916182 
L 150.644484 27.8922 
L 150.749258 27.8922 
L 152.875071 27.796273 
L 152.966043 27.74831 
L 152.96897 27.74831 
L 154.445626 27.652384 
L 154.5201 27.580439 
L 155.211167 27.484512 
L 155.315475 27.436549 
L 156.023149 27.340622 
L 156.094635 27.028861 
L 156.134255 27.028861 
L 282.0157 26.932934 
L 282.023501 26.789044 
L 282.023758 26.789044 
" clip-path="url(#pfa7fdbf644)" style="fill: none; stroke: #1f77b4; stroke-width: 1.5; stroke-linecap: round"/>
   </g>
   <g id="patch_3">
    <path d="M 35.655938 265.022801 
L 35.655938 19.642031 
" style="fill: none"/>
   </g>
   <g id="patch_4">
    <path d="M 289.19952 265.022801 
L 289.19952 19.642031 
" style="fill: none"/>
   </g>
   <g id="patch_5">
    <path d="M 35.655938 265.022801 
L 289.19952 265.022801 
" style="fill: none"/>
   </g>
   <g id="patch_6">
    <path d="M 35.655938 19.642031 
L 289.19952 19.642031 
" style="fill: none"/>
   </g>
   <g id="text_15">
    <!-- Model 1: Precision-Recall Curve -->
    <g style="fill: #333333" transform="translate(93.910307 13.642031) scale(0.09 -0.09)">
     <defs>
      <path id="Arial-BoldMT-4d" d="M 453 0 
L 453 4581 
L 1838 4581 
L 2669 1456 
L 3491 4581 
L 4878 4581 
L 4878 0 
L 4019 0 
L 4019 3606 
L 3109 0 
L 2219 0 
L 1313 3606 
L 1313 0 
L 453 0 
z
" transform="scale(0.015625)"/>
      <path id="Arial-BoldMT-64" d="M 3503 0 
L 2688 0 
L 2688 488 
Q 2484 203 2207 64 
Q 1931 -75 1650 -75 
Q 1078 -75 670 386 
Q 263 847 263 1672 
Q 263 2516 659 2955 
Q 1056 3394 1663 3394 
Q 2219 3394 2625 2931 
L 2625 4581 
L 3503 4581 
L 3503 0 
z
M 1159 1731 
Q 1159 1200 1306 963 
Q 1519 619 1900 619 
Q 2203 619 2415 876 
Q 2628 1134 2628 1647 
Q 2628 2219 2422 2470 
Q 2216 2722 1894 2722 
Q 1581 2722 1370 2473 
Q 1159 2225 1159 1731 
z
" transform="scale(0.015625)"/>
      <path id="Arial-BoldMT-31" d="M 2519 0 
L 1641 0 
L 1641 3309 
Q 1159 2859 506 2644 
L 506 3441 
Q 850 3553 1253 3867 
Q 1656 4181 1806 4600 
L 2519 4600 
L 2519 0 
z
" transform="scale(0.015625)"/>
      <path id="Arial-BoldMT-3a" d="M 628 2441 
L 628 3319 
L 1506 3319 
L 1506 2441 
L 628 2441 
z
M 628 0 
L 628 878 
L 1506 878 
L 1506 0 
L 628 0 
z
" transform="scale(0.015625)"/>
      <path id="Arial-BoldMT-2d" d="M 359 1222 
L 359 2100 
L 2084 2100 
L 2084 1222 
L 359 1222 
z
" transform="scale(0.015625)"/>
      <path id="Arial-BoldMT-43" d="M 3397 1684 
L 4294 1400 
Q 4088 650 3608 286 
Q 3128 -78 2391 -78 
Q 1478 -78 890 545 
Q 303 1169 303 2250 
Q 303 3394 893 4026 
Q 1484 4659 2447 4659 
Q 3288 4659 3813 4163 
Q 4125 3869 4281 3319 
L 3366 3100 
Q 3284 3456 3026 3662 
Q 2769 3869 2400 3869 
Q 1891 3869 1573 3503 
Q 1256 3138 1256 2319 
Q 1256 1450 1568 1081 
Q 1881 713 2381 713 
Q 2750 713 3015 947 
Q 3281 1181 3397 1684 
z
" transform="scale(0.015625)"/>
      <path id="Arial-BoldMT-75" d="M 2644 0 
L 2644 497 
Q 2463 231 2167 78 
Q 1872 -75 1544 -75 
Q 1209 -75 943 72 
Q 678 219 559 484 
Q 441 750 441 1219 
L 441 3319 
L 1319 3319 
L 1319 1794 
Q 1319 1094 1367 936 
Q 1416 778 1544 686 
Q 1672 594 1869 594 
Q 2094 594 2272 717 
Q 2450 841 2515 1023 
Q 2581 1206 2581 1919 
L 2581 3319 
L 3459 3319 
L 3459 0 
L 2644 0 
z
" transform="scale(0.015625)"/>
      <path id="Arial-BoldMT-76" d="M 1372 0 
L 34 3319 
L 956 3319 
L 1581 1625 
L 1763 1059 
Q 1834 1275 1853 1344 
Q 1897 1484 1947 1625 
L 2578 3319 
L 3481 3319 
L 2163 0 
L 1372 0 
z
" transform="scale(0.015625)"/>
     </defs>
     <use xlink:href="#Arial-BoldMT-4d"/>
     <use xlink:href="#Arial-BoldMT-6f" transform="translate(83.300781 0)"/>
     <use xlink:href="#Arial-BoldMT-64" transform="translate(144.384766 0)"/>
     <use xlink:href="#Arial-BoldMT-65" transform="translate(205.46875 0)"/>
     <use xlink:href="#Arial-BoldMT-6c" transform="translate(261.083984 0)"/>
     <use xlink:href="#Arial-BoldMT-20" transform="translate(288.867188 0)"/>
     <use xlink:href="#Arial-BoldMT-31" transform="translate(316.650391 0)"/>
     <use xlink:href="#Arial-BoldMT-3a" transform="translate(372.265625 0)"/>
     <use xlink:href="#Arial-BoldMT-20" transform="translate(405.566406 0)"/>
     <use xlink:href="#Arial-BoldMT-50" transform="translate(433.349609 0)"/>
     <use xlink:href="#Arial-BoldMT-72" transform="translate(500.048828 0)"/>
     <use xlink:href="#Arial-BoldMT-65" transform="translate(538.964844 0)"/>
     <use xlink:href="#Arial-BoldMT-63" transform="translate(594.580078 0)"/>
     <use xlink:href="#Arial-BoldMT-69" transform="translate(650.195312 0)"/>
     <use xlink:href="#Arial-BoldMT-73" transform="translate(677.978516 0)"/>
     <use xlink:href="#Arial-BoldMT-69" transform="translate(733.59375 0)"/>
     <use xlink:href="#Arial-BoldMT-6f" transform="translate(761.376953 0)"/>
     <use xlink:href="#Arial-BoldMT-6e" transform="translate(822.460938 0)"/>
     <use xlink:href="#Arial-BoldMT-2d" transform="translate(883.544922 0)"/>
     <use xlink:href="#Arial-BoldMT-52" transform="translate(916.845703 0)"/>
     <use xlink:href="#Arial-BoldMT-65" transform="translate(989.0625 0)"/>
     <use xlink:href="#Arial-BoldMT-63" transform="translate(1044.677734 0)"/>
     <use xlink:href="#Arial-BoldMT-61" transform="translate(1100.292969 0)"/>
     <use xlink:href="#Arial-BoldMT-6c" transform="translate(1155.908203 0)"/>
     <use xlink:href="#Arial-BoldMT-6c" transform="translate(1183.691406 0)"/>
     <use xlink:href="#Arial-BoldMT-20" transform="translate(1211.474609 0)"/>
     <use xlink:href="#Arial-BoldMT-43" transform="translate(1239.257812 0)"/>
     <use xlink:href="#Arial-BoldMT-75" transform="translate(1311.474609 0)"/>
     <use xlink:href="#Arial-BoldMT-72" transform="translate(1372.558594 0)"/>
     <use xlink:href="#Arial-BoldMT-76" transform="translate(1411.474609 0)"/>
     <use xlink:href="#Arial-BoldMT-65" transform="translate(1467.089844 0)"/>
    </g>
   </g>
   <g id="legend_1">
    <g id="patch_7">
     <path d="M 164.573426 260.522801 
L 282.89952 260.522801 
Q 284.69952 260.522801 284.69952 258.722801 
L 284.69952 246.89202 
Q 284.69952 245.09202 282.89952 245.09202 
L 164.573426 245.09202 
Q 162.773426 245.09202 162.773426 246.89202 
L 162.773426 258.722801 
Q 162.773426 260.522801 164.573426 260.522801 
z
" style="fill: #ffffff; opacity: 0.8; stroke: #cccccc; stroke-width: 0.75; stroke-linejoin: miter"/>
    </g>
    <g id="line2d_26">
     <path d="M 166.373426 251.984051 
L 175.373426 251.984051 
L 184.373426 251.984051 
" style="fill: none; stroke: #1f77b4; stroke-width: 1.5; stroke-linecap: round"/>
    </g>
    <g id="text_16">
     <!-- Precision-Recall curve -->
     <g style="fill: #333333" transform="translate(191.573426 255.134051) scale(0.09 -0.09)">
      <defs>
       <path id="ArialMT-50" d="M 494 0 
L 494 4581 
L 2222 4581 
Q 2678 4581 2919 4538 
Q 3256 4481 3484 4323 
Q 3713 4166 3852 3881 
Q 3991 3597 3991 3256 
Q 3991 2672 3619 2267 
Q 3247 1863 2275 1863 
L 1100 1863 
L 1100 0 
L 494 0 
z
M 1100 2403 
L 2284 2403 
Q 2872 2403 3119 2622 
Q 3366 2841 3366 3238 
Q 3366 3525 3220 3729 
Q 3075 3934 2838 4000 
Q 2684 4041 2272 4041 
L 1100 4041 
L 1100 2403 
z
" transform="scale(0.015625)"/>
       <path id="ArialMT-72" d="M 416 0 
L 416 3319 
L 922 3319 
L 922 2816 
Q 1116 3169 1280 3281 
Q 1444 3394 1641 3394 
Q 1925 3394 2219 3213 
L 2025 2691 
Q 1819 2813 1613 2813 
Q 1428 2813 1281 2702 
Q 1134 2591 1072 2394 
Q 978 2094 978 1738 
L 978 0 
L 416 0 
z
" transform="scale(0.015625)"/>
       <path id="ArialMT-65" d="M 2694 1069 
L 3275 997 
Q 3138 488 2766 206 
Q 2394 -75 1816 -75 
Q 1088 -75 661 373 
Q 234 822 234 1631 
Q 234 2469 665 2931 
Q 1097 3394 1784 3394 
Q 2450 3394 2872 2941 
Q 3294 2488 3294 1666 
Q 3294 1616 3291 1516 
L 816 1516 
Q 847 969 1125 678 
Q 1403 388 1819 388 
Q 2128 388 2347 550 
Q 2566 713 2694 1069 
z
M 847 1978 
L 2700 1978 
Q 2663 2397 2488 2606 
Q 2219 2931 1791 2931 
Q 1403 2931 1139 2672 
Q 875 2413 847 1978 
z
" transform="scale(0.015625)"/>
       <path id="ArialMT-63" d="M 2588 1216 
L 3141 1144 
Q 3050 572 2676 248 
Q 2303 -75 1759 -75 
Q 1078 -75 664 370 
Q 250 816 250 1647 
Q 250 2184 428 2587 
Q 606 2991 970 3192 
Q 1334 3394 1763 3394 
Q 2303 3394 2647 3120 
Q 2991 2847 3088 2344 
L 2541 2259 
Q 2463 2594 2264 2762 
Q 2066 2931 1784 2931 
Q 1359 2931 1093 2626 
Q 828 2322 828 1663 
Q 828 994 1084 691 
Q 1341 388 1753 388 
Q 2084 388 2306 591 
Q 2528 794 2588 1216 
z
" transform="scale(0.015625)"/>
       <path id="ArialMT-69" d="M 425 3934 
L 425 4581 
L 988 4581 
L 988 3934 
L 425 3934 
z
M 425 0 
L 425 3319 
L 988 3319 
L 988 0 
L 425 0 
z
" transform="scale(0.015625)"/>
       <path id="ArialMT-73" d="M 197 991 
L 753 1078 
Q 800 744 1014 566 
Q 1228 388 1613 388 
Q 2000 388 2187 545 
Q 2375 703 2375 916 
Q 2375 1106 2209 1216 
Q 2094 1291 1634 1406 
Q 1016 1563 777 1677 
Q 538 1791 414 1992 
Q 291 2194 291 2438 
Q 291 2659 392 2848 
Q 494 3038 669 3163 
Q 800 3259 1026 3326 
Q 1253 3394 1513 3394 
Q 1903 3394 2198 3281 
Q 2494 3169 2634 2976 
Q 2775 2784 2828 2463 
L 2278 2388 
Q 2241 2644 2061 2787 
Q 1881 2931 1553 2931 
Q 1166 2931 1000 2803 
Q 834 2675 834 2503 
Q 834 2394 903 2306 
Q 972 2216 1119 2156 
Q 1203 2125 1616 2013 
Q 2213 1853 2448 1751 
Q 2684 1650 2818 1456 
Q 2953 1263 2953 975 
Q 2953 694 2789 445 
Q 2625 197 2315 61 
Q 2006 -75 1616 -75 
Q 969 -75 630 194 
Q 291 463 197 991 
z
" transform="scale(0.015625)"/>
       <path id="ArialMT-6f" d="M 213 1659 
Q 213 2581 725 3025 
Q 1153 3394 1769 3394 
Q 2453 3394 2887 2945 
Q 3322 2497 3322 1706 
Q 3322 1066 3130 698 
Q 2938 331 2570 128 
Q 2203 -75 1769 -75 
Q 1072 -75 642 372 
Q 213 819 213 1659 
z
M 791 1659 
Q 791 1022 1069 705 
Q 1347 388 1769 388 
Q 2188 388 2466 706 
Q 2744 1025 2744 1678 
Q 2744 2294 2464 2611 
Q 2184 2928 1769 2928 
Q 1347 2928 1069 2612 
Q 791 2297 791 1659 
z
" transform="scale(0.015625)"/>
       <path id="ArialMT-6e" d="M 422 0 
L 422 3319 
L 928 3319 
L 928 2847 
Q 1294 3394 1984 3394 
Q 2284 3394 2536 3286 
Q 2788 3178 2913 3003 
Q 3038 2828 3088 2588 
Q 3119 2431 3119 2041 
L 3119 0 
L 2556 0 
L 2556 2019 
Q 2556 2363 2490 2533 
Q 2425 2703 2258 2804 
Q 2091 2906 1866 2906 
Q 1506 2906 1245 2678 
Q 984 2450 984 1813 
L 984 0 
L 422 0 
z
" transform="scale(0.015625)"/>
       <path id="ArialMT-2d" d="M 203 1375 
L 203 1941 
L 1931 1941 
L 1931 1375 
L 203 1375 
z
" transform="scale(0.015625)"/>
       <path id="ArialMT-52" d="M 503 0 
L 503 4581 
L 2534 4581 
Q 3147 4581 3465 4457 
Q 3784 4334 3975 4021 
Q 4166 3709 4166 3331 
Q 4166 2844 3850 2509 
Q 3534 2175 2875 2084 
Q 3116 1969 3241 1856 
Q 3506 1613 3744 1247 
L 4541 0 
L 3778 0 
L 3172 953 
Q 2906 1366 2734 1584 
Q 2563 1803 2427 1890 
Q 2291 1978 2150 2013 
Q 2047 2034 1813 2034 
L 1109 2034 
L 1109 0 
L 503 0 
z
M 1109 2559 
L 2413 2559 
Q 2828 2559 3062 2645 
Q 3297 2731 3419 2920 
Q 3541 3109 3541 3331 
Q 3541 3656 3305 3865 
Q 3069 4075 2559 4075 
L 1109 4075 
L 1109 2559 
z
" transform="scale(0.015625)"/>
       <path id="ArialMT-61" d="M 2588 409 
Q 2275 144 1986 34 
Q 1697 -75 1366 -75 
Q 819 -75 525 192 
Q 231 459 231 875 
Q 231 1119 342 1320 
Q 453 1522 633 1644 
Q 813 1766 1038 1828 
Q 1203 1872 1538 1913 
Q 2219 1994 2541 2106 
Q 2544 2222 2544 2253 
Q 2544 2597 2384 2738 
Q 2169 2928 1744 2928 
Q 1347 2928 1158 2789 
Q 969 2650 878 2297 
L 328 2372 
Q 403 2725 575 2942 
Q 747 3159 1072 3276 
Q 1397 3394 1825 3394 
Q 2250 3394 2515 3294 
Q 2781 3194 2906 3042 
Q 3031 2891 3081 2659 
Q 3109 2516 3109 2141 
L 3109 1391 
Q 3109 606 3145 398 
Q 3181 191 3288 0 
L 2700 0 
Q 2613 175 2588 409 
z
M 2541 1666 
Q 2234 1541 1622 1453 
Q 1275 1403 1131 1340 
Q 988 1278 909 1158 
Q 831 1038 831 891 
Q 831 666 1001 516 
Q 1172 366 1500 366 
Q 1825 366 2078 508 
Q 2331 650 2450 897 
Q 2541 1088 2541 1459 
L 2541 1666 
z
" transform="scale(0.015625)"/>
       <path id="ArialMT-6c" d="M 409 0 
L 409 4581 
L 972 4581 
L 972 0 
L 409 0 
z
" transform="scale(0.015625)"/>
       <path id="ArialMT-20" transform="scale(0.015625)"/>
       <path id="ArialMT-75" d="M 2597 0 
L 2597 488 
Q 2209 -75 1544 -75 
Q 1250 -75 995 37 
Q 741 150 617 320 
Q 494 491 444 738 
Q 409 903 409 1263 
L 409 3319 
L 972 3319 
L 972 1478 
Q 972 1038 1006 884 
Q 1059 663 1231 536 
Q 1403 409 1656 409 
Q 1909 409 2131 539 
Q 2353 669 2445 892 
Q 2538 1116 2538 1541 
L 2538 3319 
L 3100 3319 
L 3100 0 
L 2597 0 
z
" transform="scale(0.015625)"/>
       <path id="ArialMT-76" d="M 1344 0 
L 81 3319 
L 675 3319 
L 1388 1331 
Q 1503 1009 1600 663 
Q 1675 925 1809 1294 
L 2547 3319 
L 3125 3319 
L 1869 0 
L 1344 0 
z
" transform="scale(0.015625)"/>
      </defs>
      <use xlink:href="#ArialMT-50"/>
      <use xlink:href="#ArialMT-72" transform="translate(66.699219 0)"/>
      <use xlink:href="#ArialMT-65" transform="translate(100 0)"/>
      <use xlink:href="#ArialMT-63" transform="translate(155.615234 0)"/>
      <use xlink:href="#ArialMT-69" transform="translate(205.615234 0)"/>
      <use xlink:href="#ArialMT-73" transform="translate(227.832031 0)"/>
      <use xlink:href="#ArialMT-69" transform="translate(277.832031 0)"/>
      <use xlink:href="#ArialMT-6f" transform="translate(300.048828 0)"/>
      <use xlink:href="#ArialMT-6e" transform="translate(355.664062 0)"/>
      <use xlink:href="#ArialMT-2d" transform="translate(411.279297 0)"/>
      <use xlink:href="#ArialMT-52" transform="translate(444.580078 0)"/>
      <use xlink:href="#ArialMT-65" transform="translate(516.796875 0)"/>
      <use xlink:href="#ArialMT-63" transform="translate(572.412109 0)"/>
      <use xlink:href="#ArialMT-61" transform="translate(622.412109 0)"/>
      <use xlink:href="#ArialMT-6c" transform="translate(678.027344 0)"/>
      <use xlink:href="#ArialMT-6c" transform="translate(700.244141 0)"/>
      <use xlink:href="#ArialMT-20" transform="translate(722.460938 0)"/>
      <use xlink:href="#ArialMT-63" transform="translate(750.244141 0)"/>
      <use xlink:href="#ArialMT-75" transform="translate(800.244141 0)"/>
      <use xlink:href="#ArialMT-72" transform="translate(855.859375 0)"/>
      <use xlink:href="#ArialMT-76" transform="translate(889.160156 0)"/>
      <use xlink:href="#ArialMT-65" transform="translate(939.160156 0)"/>
     </g>
    </g>
   </g>
  </g>
 </g>
 <defs>
  <clipPath id="pfa7fdbf644">
   <rect x="35.655938" y="19.642031" width="253.543583" height="245.38077"/>
  </clipPath>
 </defs>
</svg>
