<?xml version="1.0" encoding="utf-8" standalone="no"?>
<!DOCTYPE svg PUBLIC "-//W3C//DTD SVG 1.1//EN"
  "http://www.w3.org/Graphics/SVG/1.1/DTD/svg11.dtd">
<svg xmlns:xlink="http://www.w3.org/1999/xlink" width="296.39952pt" height="296.39952pt" viewBox="0 0 296.39952 296.39952" xmlns="http://www.w3.org/2000/svg" version="1.1">
 <metadata>
  <rdf:RDF xmlns:dc="http://purl.org/dc/elements/1.1/" xmlns:cc="http://creativecommons.org/ns#" xmlns:rdf="http://www.w3.org/1999/02/22-rdf-syntax-ns#">
   <cc:Work>
    <dc:type rdf:resource="http://purl.org/dc/dcmitype/StillImage"/>
    <dc:date>2025-12-23T15:08:23.426050</dc:date>
    <dc:format>image/svg+xml</dc:format>
    <dc:creator>
     <cc:Agent>
      <dc:title>Matplotlib v3.10.8, https://matplotlib.org/</dc:title>
     </cc:Agent>
    </dc:creator>
   </cc:Work>
  </rdf:RDF>
 </metadata>
 <defs>
  <style type="text/css">*{stroke-linejoin: round; stroke-linecap: butt}</style>
 </defs>
 <g id="figure_1">
  <g id="patch_1">
   <path d="M 0 296.39952 
L 296.39952 296.39952 
L 296.39952 0 
L 0 0 
z
" style="fill: #ffffff"/>
  </g>
  <g id="axes_1">
   <g id="patch_2">
    <path d="M 35.655938 265.022801 
L 289.19952 265.022801 
L 289.19952 19.751719 
L 35.655938 19.751719 
z
" style="fill: #ffffff"/>
   </g>
   <g id="matplotlib.axis_1">
    <g id="xtick_1">
     <g id="line2d_1">
      <path d="M 42.831699 265.022801 
L 42.831699 19.751719 
" clip-path="url(#p2eb1142112)" style="fill: none; stroke: #c0c0c0; stroke-width: 0.25; stroke-linecap: round"/>
     </g>
     <g id="line2d_2"/>
     <g id="text_1">
      <!-- 0.0 -->
      <g style="fill: #333333" transform="translate(36.576699 274.964832) scale(0.09 -0.09)">
       <defs>
        <path id="ArialMT-30" d="M 266 2259 
Q 266 3072 433 3567 
Q 600 4063 929 4331 
Q 1259 4600 1759 4600 
Q 2128 4600 2406 4451 
Q 2684 4303 2865 4023 
Q 3047 3744 3150 3342 
Q 3253 2941 3253 2259 
Q 3253 1453 3087 958 
Q 2922 463 2592 192 
Q 2263 -78 1759 -78 
Q 1097 -78 719 397 
Q 266 969 266 2259 
z
M 844 2259 
Q 844 1131 1108 757 
Q 1372 384 1759 384 
Q 2147 384 2411 759 
Q 2675 1134 2675 2259 
Q 2675 3391 2411 3762 
Q 2147 4134 1753 4134 
Q 1366 4134 1134 3806 
Q 844 3388 844 2259 
z
" transform="scale(0.015625)"/>
        <path id="ArialMT-2e" d="M 581 0 
L 581 641 
L 1222 641 
L 1222 0 
L 581 0 
z
" transform="scale(0.015625)"/>
       </defs>
       <use xlink:href="#ArialMT-30"/>
       <use xlink:href="#ArialMT-2e" transform="translate(55.615234 0)"/>
       <use xlink:href="#ArialMT-30" transform="translate(83.398438 0)"/>
      </g>
     </g>
    </g>
    <g id="xtick_2">
     <g id="line2d_3">
      <path d="M 90.670111 265.022801 
L 90.670111 19.751719 
" clip-path="url(#p2eb1142112)" style="fill: none; stroke: #c0c0c0; stroke-width: 0.25; stroke-linecap: round"/>
     </g>
     <g id="line2d_4"/>
     <g id="text_2">
      <!-- 0.2 -->
      <g style="fill: #333333" transform="translate(84.415111 274.964832) scale(0.09 -0.09)">
       <defs>
        <path id="ArialMT-32" d="M 3222 541 
L 3222 0 
L 194 0 
Q 188 203 259 391 
Q 375 700 629 1000 
Q 884 1300 1366 1694 
Q 2113 2306 2375 2664 
Q 2638 3022 2638 3341 
Q 2638 3675 2398 3904 
Q 2159 4134 1775 4134 
Q 1369 4134 1125 3890 
Q 881 3647 878 3216 
L 300 3275 
Q 359 3922 746 4261 
Q 1134 4600 1788 4600 
Q 2447 4600 2831 4234 
Q 3216 3869 3216 3328 
Q 3216 3053 3103 2787 
Q 2991 2522 2730 2228 
Q 2469 1934 1863 1422 
Q 1356 997 1212 845 
Q 1069 694 975 541 
L 3222 541 
z
" transform="scale(0.015625)"/>
       </defs>
       <use xlink:href="#ArialMT-30"/>
       <use xlink:href="#ArialMT-2e" transform="translate(55.615234 0)"/>
       <use xlink:href="#ArialMT-32" transform="translate(83.398438 0)"/>
      </g>
     </g>
    </g>
    <g id="xtick_3">
     <g id="line2d_5">
      <path d="M 138.508523 265.022801 
L 138.508523 19.751719 
" clip-path="url(#p2eb1142112)" style="fill: none; stroke: #c0c0c0; stroke-width: 0.25; stroke-linecap: round"/>
     </g>
     <g id="line2d_6"/>
     <g id="text_3">
      <!-- 0.4 -->
      <g style="fill: #333333" transform="translate(132.253523 274.964832) scale(0.09 -0.09)">
       <defs>
        <path id="ArialMT-34" d="M 2069 0 
L 2069 1097 
L 81 1097 
L 81 1613 
L 2172 4581 
L 2631 4581 
L 2631 1613 
L 3250 1613 
L 3250 1097 
L 2631 1097 
L 2631 0 
L 2069 0 
z
M 2069 1613 
L 2069 3678 
L 634 1613 
L 2069 1613 
z
" transform="scale(0.015625)"/>
       </defs>
       <use xlink:href="#ArialMT-30"/>
       <use xlink:href="#ArialMT-2e" transform="translate(55.615234 0)"/>
       <use xlink:href="#ArialMT-34" transform="translate(83.398438 0)"/>
      </g>
     </g>
    </g>
    <g id="xtick_4">
     <g id="line2d_7">
      <path d="M 186.346935 265.022801 
L 186.346935 19.751719 
" clip-path="url(#p2eb1142112)" style="fill: none; stroke: #c0c0c0; stroke-width: 0.25; stroke-linecap: round"/>
     </g>
     <g id="line2d_8"/>
     <g id="text_4">
      <!-- 0.6 -->
      <g style="fill: #333333" transform="translate(180.091935 274.964832) scale(0.09 -0.09)">
       <defs>
        <path id="ArialMT-36" d="M 3184 3459 
L 2625 3416 
Q 2550 3747 2413 3897 
Q 2184 4138 1850 4138 
Q 1581 4138 1378 3988 
Q 1113 3794 959 3422 
Q 806 3050 800 2363 
Q 1003 2672 1297 2822 
Q 1591 2972 1913 2972 
Q 2475 2972 2870 2558 
Q 3266 2144 3266 1488 
Q 3266 1056 3080 686 
Q 2894 316 2569 119 
Q 2244 -78 1831 -78 
Q 1128 -78 684 439 
Q 241 956 241 2144 
Q 241 3472 731 4075 
Q 1159 4600 1884 4600 
Q 2425 4600 2770 4297 
Q 3116 3994 3184 3459 
z
M 888 1484 
Q 888 1194 1011 928 
Q 1134 663 1356 523 
Q 1578 384 1822 384 
Q 2178 384 2434 671 
Q 2691 959 2691 1453 
Q 2691 1928 2437 2201 
Q 2184 2475 1800 2475 
Q 1419 2475 1153 2201 
Q 888 1928 888 1484 
z
" transform="scale(0.015625)"/>
       </defs>
       <use xlink:href="#ArialMT-30"/>
       <use xlink:href="#ArialMT-2e" transform="translate(55.615234 0)"/>
       <use xlink:href="#ArialMT-36" transform="translate(83.398438 0)"/>
      </g>
     </g>
    </g>
    <g id="xtick_5">
     <g id="line2d_9">
      <path d="M 234.185346 265.022801 
L 234.185346 19.751719 
" clip-path="url(#p2eb1142112)" style="fill: none; stroke: #c0c0c0; stroke-width: 0.25; stroke-linecap: round"/>
     </g>
     <g id="line2d_10"/>
     <g id="text_5">
      <!-- 0.8 -->
      <g style="fill: #333333" transform="translate(227.930346 274.964832) scale(0.09 -0.09)">
       <defs>
        <path id="ArialMT-38" d="M 1131 2484 
Q 781 2613 612 2850 
Q 444 3088 444 3419 
Q 444 3919 803 4259 
Q 1163 4600 1759 4600 
Q 2359 4600 2725 4251 
Q 3091 3903 3091 3403 
Q 3091 3084 2923 2848 
Q 2756 2613 2416 2484 
Q 2838 2347 3058 2040 
Q 3278 1734 3278 1309 
Q 3278 722 2862 322 
Q 2447 -78 1769 -78 
Q 1091 -78 675 323 
Q 259 725 259 1325 
Q 259 1772 486 2073 
Q 713 2375 1131 2484 
z
M 1019 3438 
Q 1019 3113 1228 2906 
Q 1438 2700 1772 2700 
Q 2097 2700 2305 2904 
Q 2513 3109 2513 3406 
Q 2513 3716 2298 3927 
Q 2084 4138 1766 4138 
Q 1444 4138 1231 3931 
Q 1019 3725 1019 3438 
z
M 838 1322 
Q 838 1081 952 856 
Q 1066 631 1291 507 
Q 1516 384 1775 384 
Q 2178 384 2440 643 
Q 2703 903 2703 1303 
Q 2703 1709 2433 1975 
Q 2163 2241 1756 2241 
Q 1359 2241 1098 1978 
Q 838 1716 838 1322 
z
" transform="scale(0.015625)"/>
       </defs>
       <use xlink:href="#ArialMT-30"/>
       <use xlink:href="#ArialMT-2e" transform="translate(55.615234 0)"/>
       <use xlink:href="#ArialMT-38" transform="translate(83.398438 0)"/>
      </g>
     </g>
    </g>
    <g id="xtick_6">
     <g id="line2d_11">
      <path d="M 282.023758 265.022801 
L 282.023758 19.751719 
" clip-path="url(#p2eb1142112)" style="fill: none; stroke: #c0c0c0; stroke-width: 0.25; stroke-linecap: round"/>
     </g>
     <g id="line2d_12"/>
     <g id="text_6">
      <!-- 1.0 -->
      <g style="fill: #333333" transform="translate(275.768758 274.964832) scale(0.09 -0.09)">
       <defs>
        <path id="ArialMT-31" d="M 2384 0 
L 1822 0 
L 1822 3584 
Q 1619 3391 1289 3197 
Q 959 3003 697 2906 
L 697 3450 
Q 1169 3672 1522 3987 
Q 1875 4303 2022 4600 
L 2384 4600 
L 2384 0 
z
" transform="scale(0.015625)"/>
       </defs>
       <use xlink:href="#ArialMT-31"/>
       <use xlink:href="#ArialMT-2e" transform="translate(55.615234 0)"/>
       <use xlink:href="#ArialMT-30" transform="translate(83.398438 0)"/>
      </g>
     </g>
    </g>
    <g id="text_7">
     <!-- False Positive Rate (FPR) -->
     <g style="fill: #333333" transform="translate(108.165463 287.305301) scale(0.09 -0.09)">
      <defs>
       <path id="Arial-BoldMT-46" d="M 472 0 
L 472 4581 
L 3613 4581 
L 3613 3806 
L 1397 3806 
L 1397 2722 
L 3309 2722 
L 3309 1947 
L 1397 1947 
L 1397 0 
L 472 0 
z
" transform="scale(0.015625)"/>
       <path id="Arial-BoldMT-61" d="M 1116 2306 
L 319 2450 
Q 453 2931 781 3162 
Q 1109 3394 1756 3394 
Q 2344 3394 2631 3255 
Q 2919 3116 3036 2902 
Q 3153 2688 3153 2116 
L 3144 1091 
Q 3144 653 3186 445 
Q 3228 238 3344 0 
L 2475 0 
Q 2441 88 2391 259 
Q 2369 338 2359 363 
Q 2134 144 1878 34 
Q 1622 -75 1331 -75 
Q 819 -75 523 203 
Q 228 481 228 906 
Q 228 1188 362 1408 
Q 497 1628 739 1745 
Q 981 1863 1438 1950 
Q 2053 2066 2291 2166 
L 2291 2253 
Q 2291 2506 2166 2614 
Q 2041 2722 1694 2722 
Q 1459 2722 1328 2630 
Q 1197 2538 1116 2306 
z
M 2291 1594 
Q 2122 1538 1756 1459 
Q 1391 1381 1278 1306 
Q 1106 1184 1106 997 
Q 1106 813 1243 678 
Q 1381 544 1594 544 
Q 1831 544 2047 700 
Q 2206 819 2256 991 
Q 2291 1103 2291 1419 
L 2291 1594 
z
" transform="scale(0.015625)"/>
       <path id="Arial-BoldMT-6c" d="M 459 0 
L 459 4581 
L 1338 4581 
L 1338 0 
L 459 0 
z
" transform="scale(0.015625)"/>
       <path id="Arial-BoldMT-73" d="M 150 947 
L 1031 1081 
Q 1088 825 1259 692 
Q 1431 559 1741 559 
Q 2081 559 2253 684 
Q 2369 772 2369 919 
Q 2369 1019 2306 1084 
Q 2241 1147 2013 1200 
Q 950 1434 666 1628 
Q 272 1897 272 2375 
Q 272 2806 612 3100 
Q 953 3394 1669 3394 
Q 2350 3394 2681 3172 
Q 3013 2950 3138 2516 
L 2309 2363 
Q 2256 2556 2107 2659 
Q 1959 2763 1684 2763 
Q 1338 2763 1188 2666 
Q 1088 2597 1088 2488 
Q 1088 2394 1175 2328 
Q 1294 2241 1995 2081 
Q 2697 1922 2975 1691 
Q 3250 1456 3250 1038 
Q 3250 581 2869 253 
Q 2488 -75 1741 -75 
Q 1063 -75 667 200 
Q 272 475 150 947 
z
" transform="scale(0.015625)"/>
       <path id="Arial-BoldMT-65" d="M 2381 1056 
L 3256 909 
Q 3088 428 2723 176 
Q 2359 -75 1813 -75 
Q 947 -75 531 491 
Q 203 944 203 1634 
Q 203 2459 634 2926 
Q 1066 3394 1725 3394 
Q 2466 3394 2894 2905 
Q 3322 2416 3303 1406 
L 1103 1406 
Q 1113 1016 1316 798 
Q 1519 581 1822 581 
Q 2028 581 2168 693 
Q 2309 806 2381 1056 
z
M 2431 1944 
Q 2422 2325 2234 2523 
Q 2047 2722 1778 2722 
Q 1491 2722 1303 2513 
Q 1116 2303 1119 1944 
L 2431 1944 
z
" transform="scale(0.015625)"/>
       <path id="Arial-BoldMT-20" transform="scale(0.015625)"/>
       <path id="Arial-BoldMT-50" d="M 466 0 
L 466 4581 
L 1950 4581 
Q 2794 4581 3050 4513 
Q 3444 4409 3709 4064 
Q 3975 3719 3975 3172 
Q 3975 2750 3822 2462 
Q 3669 2175 3433 2011 
Q 3197 1847 2953 1794 
Q 2622 1728 1994 1728 
L 1391 1728 
L 1391 0 
L 466 0 
z
M 1391 3806 
L 1391 2506 
L 1897 2506 
Q 2444 2506 2628 2578 
Q 2813 2650 2917 2803 
Q 3022 2956 3022 3159 
Q 3022 3409 2875 3571 
Q 2728 3734 2503 3775 
Q 2338 3806 1838 3806 
L 1391 3806 
z
" transform="scale(0.015625)"/>
       <path id="Arial-BoldMT-6f" d="M 256 1706 
Q 256 2144 472 2553 
Q 688 2963 1083 3178 
Q 1478 3394 1966 3394 
Q 2719 3394 3200 2905 
Q 3681 2416 3681 1669 
Q 3681 916 3195 420 
Q 2709 -75 1972 -75 
Q 1516 -75 1102 131 
Q 688 338 472 736 
Q 256 1134 256 1706 
z
M 1156 1659 
Q 1156 1166 1390 903 
Q 1625 641 1969 641 
Q 2313 641 2545 903 
Q 2778 1166 2778 1666 
Q 2778 2153 2545 2415 
Q 2313 2678 1969 2678 
Q 1625 2678 1390 2415 
Q 1156 2153 1156 1659 
z
" transform="scale(0.015625)"/>
       <path id="Arial-BoldMT-69" d="M 459 3769 
L 459 4581 
L 1338 4581 
L 1338 3769 
L 459 3769 
z
M 459 0 
L 459 3319 
L 1338 3319 
L 1338 0 
L 459 0 
z
" transform="scale(0.015625)"/>
       <path id="Arial-BoldMT-74" d="M 1981 3319 
L 1981 2619 
L 1381 2619 
L 1381 1281 
Q 1381 875 1398 808 
Q 1416 741 1477 697 
Q 1538 653 1625 653 
Q 1747 653 1978 738 
L 2053 56 
Q 1747 -75 1359 -75 
Q 1122 -75 931 4 
Q 741 84 652 211 
Q 563 338 528 553 
Q 500 706 500 1172 
L 500 2619 
L 97 2619 
L 97 3319 
L 500 3319 
L 500 3978 
L 1381 4491 
L 1381 3319 
L 1981 3319 
z
" transform="scale(0.015625)"/>
       <path id="Arial-BoldMT-76" d="M 1372 0 
L 34 3319 
L 956 3319 
L 1581 1625 
L 1763 1059 
Q 1834 1275 1853 1344 
Q 1897 1484 1947 1625 
L 2578 3319 
L 3481 3319 
L 2163 0 
L 1372 0 
z
" transform="scale(0.015625)"/>
       <path id="Arial-BoldMT-52" d="M 469 0 
L 469 4581 
L 2416 4581 
Q 3150 4581 3483 4457 
Q 3816 4334 4016 4018 
Q 4216 3703 4216 3297 
Q 4216 2781 3912 2445 
Q 3609 2109 3006 2022 
Q 3306 1847 3501 1637 
Q 3697 1428 4028 894 
L 4588 0 
L 3481 0 
L 2813 997 
Q 2456 1531 2325 1670 
Q 2194 1809 2047 1861 
Q 1900 1913 1581 1913 
L 1394 1913 
L 1394 0 
L 469 0 
z
M 1394 2644 
L 2078 2644 
Q 2744 2644 2909 2700 
Q 3075 2756 3169 2893 
Q 3263 3031 3263 3238 
Q 3263 3469 3139 3611 
Q 3016 3753 2791 3791 
Q 2678 3806 2116 3806 
L 1394 3806 
L 1394 2644 
z
" transform="scale(0.015625)"/>
       <path id="Arial-BoldMT-28" d="M 1916 -1347 
L 1313 -1347 
Q 834 -625 584 153 
Q 334 931 334 1659 
Q 334 2563 644 3369 
Q 913 4069 1325 4659 
L 1925 4659 
Q 1497 3713 1336 3048 
Q 1175 2384 1175 1641 
Q 1175 1128 1270 590 
Q 1366 53 1531 -431 
Q 1641 -750 1916 -1347 
z
" transform="scale(0.015625)"/>
       <path id="Arial-BoldMT-29" d="M 216 -1347 
Q 475 -791 581 -494 
Q 688 -197 778 190 
Q 869 578 912 926 
Q 956 1275 956 1641 
Q 956 2384 797 3048 
Q 638 3713 209 4659 
L 806 4659 
Q 1278 3988 1539 3234 
Q 1800 2481 1800 1706 
Q 1800 1053 1594 306 
Q 1359 -531 822 -1347 
L 216 -1347 
z
" transform="scale(0.015625)"/>
      </defs>
      <use xlink:href="#Arial-BoldMT-46"/>
      <use xlink:href="#Arial-BoldMT-61" transform="translate(61.083984 0)"/>
      <use xlink:href="#Arial-BoldMT-6c" transform="translate(116.699219 0)"/>
      <use xlink:href="#Arial-BoldMT-73" transform="translate(144.482422 0)"/>
      <use xlink:href="#Arial-BoldMT-65" transform="translate(200.097656 0)"/>
      <use xlink:href="#Arial-BoldMT-20" transform="translate(255.712891 0)"/>
      <use xlink:href="#Arial-BoldMT-50" transform="translate(283.496094 0)"/>
      <use xlink:href="#Arial-BoldMT-6f" transform="translate(350.195312 0)"/>
      <use xlink:href="#Arial-BoldMT-73" transform="translate(411.279297 0)"/>
      <use xlink:href="#Arial-BoldMT-69" transform="translate(466.894531 0)"/>
      <use xlink:href="#Arial-BoldMT-74" transform="translate(494.677734 0)"/>
      <use xlink:href="#Arial-BoldMT-69" transform="translate(527.978516 0)"/>
      <use xlink:href="#Arial-BoldMT-76" transform="translate(555.761719 0)"/>
      <use xlink:href="#Arial-BoldMT-65" transform="translate(611.376953 0)"/>
      <use xlink:href="#Arial-BoldMT-20" transform="translate(666.992188 0)"/>
      <use xlink:href="#Arial-BoldMT-52" transform="translate(694.775391 0)"/>
      <use xlink:href="#Arial-BoldMT-61" transform="translate(766.992188 0)"/>
      <use xlink:href="#Arial-BoldMT-74" transform="translate(822.607422 0)"/>
      <use xlink:href="#Arial-BoldMT-65" transform="translate(855.908203 0)"/>
      <use xlink:href="#Arial-BoldMT-20" transform="translate(911.523438 0)"/>
      <use xlink:href="#Arial-BoldMT-28" transform="translate(939.306641 0)"/>
      <use xlink:href="#Arial-BoldMT-46" transform="translate(972.607422 0)"/>
      <use xlink:href="#Arial-BoldMT-50" transform="translate(1033.691406 0)"/>
      <use xlink:href="#Arial-BoldMT-52" transform="translate(1100.390625 0)"/>
      <use xlink:href="#Arial-BoldMT-29" transform="translate(1172.607422 0)"/>
     </g>
    </g>
   </g>
   <g id="matplotlib.axis_2">
    <g id="ytick_1">
     <g id="line2d_13">
      <path d="M 35.655938 265.022801 
L 289.19952 265.022801 
" clip-path="url(#p2eb1142112)" style="fill: none; stroke: #c0c0c0; stroke-width: 0.25; stroke-linecap: round"/>
     </g>
     <g id="line2d_14"/>
     <g id="text_8">
      <!-- 0.0 -->
      <g style="fill: #333333" transform="translate(19.645938 268.243817) scale(0.09 -0.09)">
       <use xlink:href="#ArialMT-30"/>
       <use xlink:href="#ArialMT-2e" transform="translate(55.615234 0)"/>
       <use xlink:href="#ArialMT-30" transform="translate(83.398438 0)"/>
      </g>
     </g>
    </g>
    <g id="ytick_2">
     <g id="line2d_15">
      <path d="M 35.655938 217.397348 
L 289.19952 217.397348 
" clip-path="url(#p2eb1142112)" style="fill: none; stroke: #c0c0c0; stroke-width: 0.25; stroke-linecap: round"/>
     </g>
     <g id="line2d_16"/>
     <g id="text_9">
      <!-- 0.2 -->
      <g style="fill: #333333" transform="translate(19.645938 220.618364) scale(0.09 -0.09)">
       <use xlink:href="#ArialMT-30"/>
       <use xlink:href="#ArialMT-2e" transform="translate(55.615234 0)"/>
       <use xlink:href="#ArialMT-32" transform="translate(83.398438 0)"/>
      </g>
     </g>
    </g>
    <g id="ytick_3">
     <g id="line2d_17">
      <path d="M 35.655938 169.771895 
L 289.19952 169.771895 
" clip-path="url(#p2eb1142112)" style="fill: none; stroke: #c0c0c0; stroke-width: 0.25; stroke-linecap: round"/>
     </g>
     <g id="line2d_18"/>
     <g id="text_10">
      <!-- 0.4 -->
      <g style="fill: #333333" transform="translate(19.645938 172.992911) scale(0.09 -0.09)">
       <use xlink:href="#ArialMT-30"/>
       <use xlink:href="#ArialMT-2e" transform="translate(55.615234 0)"/>
       <use xlink:href="#ArialMT-34" transform="translate(83.398438 0)"/>
      </g>
     </g>
    </g>
    <g id="ytick_4">
     <g id="line2d_19">
      <path d="M 35.655938 122.146443 
L 289.19952 122.146443 
" clip-path="url(#p2eb1142112)" style="fill: none; stroke: #c0c0c0; stroke-width: 0.25; stroke-linecap: round"/>
     </g>
     <g id="line2d_20"/>
     <g id="text_11">
      <!-- 0.6 -->
      <g style="fill: #333333" transform="translate(19.645938 125.367458) scale(0.09 -0.09)">
       <use xlink:href="#ArialMT-30"/>
       <use xlink:href="#ArialMT-2e" transform="translate(55.615234 0)"/>
       <use xlink:href="#ArialMT-36" transform="translate(83.398438 0)"/>
      </g>
     </g>
    </g>
    <g id="ytick_5">
     <g id="line2d_21">
      <path d="M 35.655938 74.52099 
L 289.19952 74.52099 
" clip-path="url(#p2eb1142112)" style="fill: none; stroke: #c0c0c0; stroke-width: 0.25; stroke-linecap: round"/>
     </g>
     <g id="line2d_22"/>
     <g id="text_12">
      <!-- 0.8 -->
      <g style="fill: #333333" transform="translate(19.645938 77.742005) scale(0.09 -0.09)">
       <use xlink:href="#ArialMT-30"/>
       <use xlink:href="#ArialMT-2e" transform="translate(55.615234 0)"/>
       <use xlink:href="#ArialMT-38" transform="translate(83.398438 0)"/>
      </g>
     </g>
    </g>
    <g id="ytick_6">
     <g id="line2d_23">
      <path d="M 35.655938 26.895537 
L 289.19952 26.895537 
" clip-path="url(#p2eb1142112)" style="fill: none; stroke: #c0c0c0; stroke-width: 0.25; stroke-linecap: round"/>
     </g>
     <g id="line2d_24"/>
     <g id="text_13">
      <!-- 1.0 -->
      <g style="fill: #333333" transform="translate(19.645938 30.116552) scale(0.09 -0.09)">
       <use xlink:href="#ArialMT-31"/>
       <use xlink:href="#ArialMT-2e" transform="translate(55.615234 0)"/>
       <use xlink:href="#ArialMT-30" transform="translate(83.398438 0)"/>
      </g>
     </g>
    </g>
    <g id="text_14">
     <!-- True Positive Rate (TPR) -->
     <g style="fill: #333333" transform="translate(13.751719 194.647026) rotate(-90) scale(0.09 -0.09)">
      <defs>
       <path id="Arial-BoldMT-54" d="M 1497 0 
L 1497 3806 
L 138 3806 
L 138 4581 
L 3778 4581 
L 3778 3806 
L 2422 3806 
L 2422 0 
L 1497 0 
z
" transform="scale(0.015625)"/>
       <path id="Arial-BoldMT-72" d="M 1300 0 
L 422 0 
L 422 3319 
L 1238 3319 
L 1238 2847 
Q 1447 3181 1614 3287 
Q 1781 3394 1994 3394 
Q 2294 3394 2572 3228 
L 2300 2463 
Q 2078 2606 1888 2606 
Q 1703 2606 1575 2504 
Q 1447 2403 1373 2137 
Q 1300 1872 1300 1025 
L 1300 0 
z
" transform="scale(0.015625)"/>
       <path id="Arial-BoldMT-75" d="M 2644 0 
L 2644 497 
Q 2463 231 2167 78 
Q 1872 -75 1544 -75 
Q 1209 -75 943 72 
Q 678 219 559 484 
Q 441 750 441 1219 
L 441 3319 
L 1319 3319 
L 1319 1794 
Q 1319 1094 1367 936 
Q 1416 778 1544 686 
Q 1672 594 1869 594 
Q 2094 594 2272 717 
Q 2450 841 2515 1023 
Q 2581 1206 2581 1919 
L 2581 3319 
L 3459 3319 
L 3459 0 
L 2644 0 
z
" transform="scale(0.015625)"/>
      </defs>
      <use xlink:href="#Arial-BoldMT-54"/>
      <use xlink:href="#Arial-BoldMT-72" transform="translate(55.583984 0)"/>
      <use xlink:href="#Arial-BoldMT-75" transform="translate(94.5 0)"/>
      <use xlink:href="#Arial-BoldMT-65" transform="translate(155.583984 0)"/>
      <use xlink:href="#Arial-BoldMT-20" transform="translate(211.199219 0)"/>
      <use xlink:href="#Arial-BoldMT-50" transform="translate(238.982422 0)"/>
      <use xlink:href="#Arial-BoldMT-6f" transform="translate(305.681641 0)"/>
      <use xlink:href="#Arial-BoldMT-73" transform="translate(366.765625 0)"/>
      <use xlink:href="#Arial-BoldMT-69" transform="translate(422.380859 0)"/>
      <use xlink:href="#Arial-BoldMT-74" transform="translate(450.164062 0)"/>
      <use xlink:href="#Arial-BoldMT-69" transform="translate(483.464844 0)"/>
      <use xlink:href="#Arial-BoldMT-76" transform="translate(511.248047 0)"/>
      <use xlink:href="#Arial-BoldMT-65" transform="translate(566.863281 0)"/>
      <use xlink:href="#Arial-BoldMT-20" transform="translate(622.478516 0)"/>
      <use xlink:href="#Arial-BoldMT-52" transform="translate(650.261719 0)"/>
      <use xlink:href="#Arial-BoldMT-61" transform="translate(722.478516 0)"/>
      <use xlink:href="#Arial-BoldMT-74" transform="translate(778.09375 0)"/>
      <use xlink:href="#Arial-BoldMT-65" transform="translate(811.394531 0)"/>
      <use xlink:href="#Arial-BoldMT-20" transform="translate(867.009766 0)"/>
      <use xlink:href="#Arial-BoldMT-28" transform="translate(894.792969 0)"/>
      <use xlink:href="#Arial-BoldMT-54" transform="translate(928.09375 0)"/>
      <use xlink:href="#Arial-BoldMT-50" transform="translate(989.177734 0)"/>
      <use xlink:href="#Arial-BoldMT-52" transform="translate(1055.876953 0)"/>
      <use xlink:href="#Arial-BoldMT-29" transform="translate(1128.09375 0)"/>
     </g>
    </g>
   </g>
   <g id="line2d_25">
    <path d="M 42.831699 265.022801 
L 42.942535 132.89501 
L 42.945609 132.799126 
L 43.056531 125.056514 
L 43.057572 124.96063 
L 43.167661 120.478065 
L 43.172107 120.382182 
L 43.281792 117.433757 
L 43.293745 117.337873 
L 43.402512 115.012692 
L 43.409444 114.916809 
L 43.519067 112.735454 
L 43.532061 112.63957 
L 43.642567 110.865721 
L 43.642763 110.865721 
L 43.652891 110.793808 
L 43.761829 109.355552 
L 43.778326 109.259668 
L 43.887974 107.653615 
L 43.904422 107.557732 
L 44.014046 106.167417 
L 44.039997 106.071534 
L 44.149388 104.9449 
L 44.150527 104.9449 
L 44.157116 104.849016 
L 44.266226 103.842237 
L 44.294394 103.746353 
L 44.400282 102.739574 
L 44.421776 102.64369 
L 44.528068 101.828678 
L 44.552538 101.732795 
L 44.662101 100.821899 
L 44.66226 100.821899 
L 44.672902 100.726015 
L 44.783457 99.863062 
L 44.793659 99.767178 
L 44.903001 98.880253 
L 44.922731 98.78437 
L 45.033543 97.77759 
L 45.054424 97.681707 
L 45.162713 96.890666 
L 45.162933 96.890666 
L 45.180177 96.794782 
L 45.283885 96.027712 
L 45.290548 96.027712 
L 45.310841 95.931828 
L 45.41875 95.476381 
L 45.419644 95.476381 
L 45.438444 95.380497 
L 45.540401 94.805194 
L 45.544736 94.805194 
L 45.561527 94.709311 
L 45.668199 94.18195 
L 45.687868 94.086066 
L 45.798484 93.223113 
L 45.818275 93.127229 
L 45.927458 92.312217 
L 45.927972 92.312217 
L 45.955614 92.216334 
L 46.059298 91.808828 
L 46.066364 91.808828 
L 46.086584 91.712944 
L 46.186312 91.137641 
L 46.196257 91.137641 
L 46.222662 91.041758 
L 46.328562 90.658223 
L 46.333755 90.658223 
L 46.372554 90.562339 
L 46.478467 89.963066 
L 46.482912 89.963066 
L 46.50759 89.867182 
L 46.618341 89.148054 
L 46.618647 89.148054 
L 46.657335 89.05217 
L 46.754639 88.309071 
L 46.767167 88.309071 
L 46.797234 88.213187 
L 46.903012 87.853623 
L 46.936838 87.75774 
L 47.04743 87.470088 
L 47.116442 87.374205 
L 47.226298 86.918757 
L 47.227156 86.918757 
L 47.246874 86.822873 
L 47.35553 86.343455 
L 47.357771 86.343455 
L 47.392749 86.247571 
L 47.50356 85.72021 
L 47.542163 85.624327 
L 47.645982 85.120937 
L 47.652816 85.120937 
L 47.677922 85.025053 
L 47.788048 84.617547 
L 47.818115 84.521664 
L 47.92088 84.234012 
L 47.929061 84.234012 
L 47.956139 84.138129 
L 48.067135 83.754594 
L 48.106754 83.65871 
L 48.216684 83.39503 
L 48.248208 83.299146 
L 48.351745 82.843698 
L 48.356338 82.843698 
L 48.389674 82.747814 
L 48.497583 82.316338 
L 48.499077 82.316338 
L 48.536235 82.220454 
L 48.646483 81.717064 
L 48.681951 81.62118 
L 48.785978 81.165733 
L 48.792383 81.165733 
L 48.825867 81.069849 
L 48.934572 80.59043 
L 48.999812 80.494547 
L 49.093833 80.206895 
L 49.110844 80.206895 
L 49.147426 80.111012 
L 49.247803 79.607622 
L 49.257038 79.607622 
L 49.297392 79.511738 
L 49.38442 79.128203 
L 49.407971 79.128203 
L 49.458625 79.032319 
L 49.559063 78.696726 
L 49.567048 78.696726 
L 49.595462 78.600843 
L 49.705036 78.26525 
L 49.706126 78.26525 
L 49.752041 78.169366 
L 49.861566 77.76186 
L 49.862779 77.76186 
L 49.890935 77.665976 
L 49.99479 77.330383 
L 50.001661 77.330383 
L 50.029131 77.234499 
L 50.135362 77.042732 
L 50.140126 77.042732 
L 50.184277 76.946848 
L 50.290582 76.707139 
L 50.294146 76.707139 
L 50.353642 76.611255 
L 50.464723 76.323604 
L 50.520007 76.22772 
L 50.624242 75.988011 
L 50.631112 75.988011 
L 50.659966 75.892127 
L 50.769688 75.652418 
L 50.76997 75.652418 
L 50.81308 75.556534 
L 50.919262 75.172999 
L 50.92383 75.172999 
L 50.96683 75.077115 
L 51.052069 74.885348 
L 51.077396 74.885348 
L 51.132925 74.789464 
L 51.234551 74.573726 
L 51.242144 74.573726 
L 51.273766 74.477842 
L 51.384872 74.238133 
L 51.428055 74.142249 
L 51.507661 73.950481 
L 51.538903 73.950481 
L 51.593354 73.854598 
L 51.681019 73.66283 
L 51.703615 73.66283 
L 51.753252 73.566946 
L 51.854364 73.327237 
L 51.863868 73.327237 
L 51.918833 73.231353 
L 52.029032 72.967673 
L 52.083287 72.871789 
L 52.184925 72.656051 
L 52.192433 72.656051 
L 52.24888 72.560167 
L 52.353911 72.296487 
L 52.359054 72.296487 
L 52.419408 72.200603 
L 52.526313 71.960894 
L 52.530183 71.960894 
L 52.575509 71.86501 
L 52.673878 71.649272 
L 52.686419 71.649272 
L 52.772871 71.553388 
L 52.868264 71.313679 
L 52.88187 71.313679 
L 52.972536 71.217795 
L 53.075693 70.954115 
L 53.082711 70.954115 
L 53.138814 70.858231 
L 53.243552 70.618521 
L 53.248156 70.618521 
L 53.281493 70.522638 
L 53.36225 70.282928 
L 53.390027 70.282928 
L 53.477789 70.187045 
L 53.585086 69.947335 
L 53.587977 69.947335 
L 53.65574 69.851452 
L 53.75815 69.779539 
L 53.766735 69.779539 
L 53.840842 69.683655 
L 53.938109 69.491888 
L 53.951678 69.491888 
L 54.052472 69.396004 
L 54.134515 69.180265 
L 54.163565 69.180265 
L 54.229002 69.084382 
L 54.332587 68.772759 
L 54.340107 68.772759 
L 54.407503 68.676876 
L 54.505222 68.317312 
L 54.518376 68.317312 
L 54.600076 68.221428 
L 54.703466 68.077602 
L 54.711169 68.077602 
L 54.734733 67.981719 
L 54.817107 67.885835 
L 54.845251 67.885835 
L 54.928629 67.789951 
L 55.027487 67.598184 
L 55.038669 67.598184 
L 55.135531 67.5023 
L 55.244273 67.310532 
L 55.246441 67.310532 
L 55.345838 67.214649 
L 55.446632 67.022881 
L 55.456601 67.022881 
L 55.51655 66.926998 
L 55.624092 66.855085 
L 55.627411 66.855085 
L 55.710385 66.759201 
L 55.821381 66.543463 
L 55.895365 66.447579 
L 55.976637 66.255811 
L 56.005797 66.255811 
L 56.06075 66.159928 
L 56.168904 65.96816 
L 56.171464 65.96816 
L 56.254376 65.872276 
L 56.364 65.800364 
L 56.416099 65.70448 
L 56.5202 65.536683 
L 56.52718 65.536683 
L 56.592139 65.4408 
L 56.647569 65.344916 
L 56.703245 65.344916 
L 56.801025 65.249032 
L 56.911715 65.033294 
L 56.962552 64.93741 
L 57.064742 64.721672 
L 57.072886 64.721672 
L 57.163233 64.625788 
L 57.262422 64.43402 
L 57.274228 64.43402 
L 57.370503 64.338137 
L 57.480531 64.050485 
L 57.481535 64.050485 
L 57.668315 63.954602 
L 57.713409 63.882689 
L 57.779299 63.882689 
L 57.894091 63.786805 
L 58.004425 63.642979 
L 58.004755 63.642979 
L 58.049457 63.547096 
L 58.14605 63.355328 
L 58.159803 63.355328 
L 58.185792 63.259445 
L 58.282336 63.091648 
L 58.296763 63.091648 
L 58.324968 62.995764 
L 58.397446 62.851939 
L 58.435375 62.851939 
L 58.585476 62.756055 
L 58.686796 62.516346 
L 58.696397 62.516346 
L 58.772391 62.420462 
L 58.87131 62.252665 
L 58.882553 62.252665 
L 59.030388 62.156782 
L 59.14093 62.012956 
L 59.141212 62.012956 
L 59.226574 61.917072 
L 59.334067 61.725305 
L 59.336737 61.725305 
L 59.459244 61.629421 
L 59.554796 61.365741 
L 59.569921 61.365741 
L 59.675369 61.269857 
L 59.783866 61.054119 
L 59.786242 61.054119 
L 59.861598 60.958235 
L 59.958068 60.718525 
L 59.97045 60.718525 
L 60.26078 60.622642 
L 60.371787 60.454845 
L 60.498483 60.358961 
L 60.587397 60.287049 
L 60.60894 60.287049 
L 60.730382 60.191165 
L 60.789964 60.07131 
L 60.839957 60.07131 
L 60.902674 59.975426 
L 61.001949 59.855572 
L 61.013768 59.855572 
L 61.206769 59.759688 
L 61.268225 59.591892 
L 61.317777 59.591892 
L 61.372179 59.496008 
L 61.422551 59.448066 
L 61.481986 59.448066 
L 61.591046 59.352182 
L 61.657585 59.256298 
L 61.701674 59.256298 
L 61.911345 59.160415 
L 62.002867 59.016589 
L 62.022438 59.016589 
L 62.125289 58.920705 
L 62.235586 58.728938 
L 62.235844 58.728938 
L 62.327954 58.633054 
L 62.386703 58.585112 
L 62.439047 58.585112 
L 62.543895 58.489229 
L 62.642729 58.249519 
L 62.654902 58.249519 
L 62.764599 58.153635 
L 62.8251 57.985839 
L 62.875387 57.985839 
L 62.985157 57.889955 
L 63.088094 57.7701 
L 63.096079 57.7701 
L 63.253491 57.674217 
L 63.346777 57.530391 
L 63.363617 57.530391 
L 63.418692 57.434507 
L 63.529626 57.24274 
L 63.724196 57.146856 
L 63.797213 57.074943 
L 63.835191 57.074943 
L 63.911491 56.97906 
L 64.005438 56.835234 
L 64.022547 56.835234 
L 64.127554 56.73935 
L 64.234201 56.523612 
L 64.238476 56.523612 
L 64.316588 56.427728 
L 64.409433 56.355815 
L 64.427632 56.355815 
L 64.546282 56.259932 
L 64.657412 56.116106 
L 64.713406 56.020222 
L 64.820788 55.900368 
L 64.824511 55.900368 
L 65.054683 55.804484 
L 65.140302 55.636687 
L 65.165715 55.636687 
L 65.262406 55.540804 
L 65.37323 55.44492 
L 65.502277 55.349036 
L 65.582716 55.253152 
L 65.613212 55.253152 
L 65.710564 55.157269 
L 65.821265 54.989472 
L 65.989932 54.893588 
L 66.097462 54.725792 
L 66.097939 54.725792 
L 66.250048 54.629908 
L 66.360897 54.534024 
L 66.361019 54.534024 
L 66.540929 54.438141 
L 66.626903 54.342257 
L 66.651814 54.342257 
L 66.771786 54.246373 
L 66.858851 54.17446 
L 66.882733 54.17446 
L 67.064063 54.078577 
L 67.165665 53.958722 
L 67.17474 53.958722 
L 67.376866 53.862838 
L 67.462927 53.671071 
L 67.487384 53.671071 
L 67.612733 53.575187 
L 67.712081 53.527245 
L 67.723667 53.527245 
L 67.888733 53.431361 
L 67.9981 53.287536 
L 67.998969 53.287536 
L 68.164832 53.191652 
L 68.266544 53.095768 
L 68.27546 53.095768 
L 68.518258 52.999884 
L 68.518258 52.975914 
L 68.629156 52.975914 
L 68.773476 52.88003 
L 68.841569 52.784146 
L 68.884348 52.784146 
L 69.080902 52.688262 
L 69.16722 52.568408 
L 69.191261 52.568408 
L 69.433545 52.472524 
L 69.463918 52.400611 
L 69.544479 52.400611 
L 69.58934 52.304727 
L 69.694885 52.11296 
L 69.700005 52.11296 
L 69.91537 52.017076 
L 70.002496 51.945163 
L 70.025569 51.945163 
L 70.22723 51.84928 
L 70.326064 51.729425 
L 70.338299 51.729425 
L 70.440145 51.633541 
L 70.540008 51.513687 
L 70.551141 51.513687 
L 70.645039 51.417803 
L 70.734957 51.297948 
L 70.754724 51.297948 
L 70.906172 51.202064 
L 71.013566 51.154123 
L 71.017106 51.154123 
L 71.161769 51.058239 
L 71.259439 50.914413 
L 71.272788 50.914413 
L 71.484198 50.818529 
L 71.553871 50.722646 
L 71.595303 50.722646 
L 71.746898 50.626762 
L 71.747216 50.57882 
L 71.857354 50.57882 
L 71.988864 50.482936 
L 72.064771 50.387053 
L 72.099026 50.387053 
L 72.23187 50.291169 
L 72.318812 50.219256 
L 72.34256 50.219256 
L 72.483303 50.123372 
L 72.494007 50.07543 
L 72.592192 50.07543 
L 72.633293 49.979547 
L 72.73056 49.883663 
L 72.744068 49.883663 
L 73.055781 49.787779 
L 73.163347 49.667925 
L 73.166434 49.667925 
L 73.271881 49.572041 
L 73.335015 49.476157 
L 73.38208 49.476157 
L 73.668785 49.380273 
L 73.748354 49.332331 
L 73.77929 49.332331 
L 74.003816 49.236448 
L 74.042664 49.092622 
L 74.114567 49.092622 
L 74.216989 48.996738 
L 74.249983 48.924826 
L 74.327446 48.924826 
L 74.523607 48.828942 
L 74.615901 48.733058 
L 74.634186 48.733058 
L 74.834843 48.637174 
L 74.930125 48.445407 
L 74.945324 48.445407 
L 75.216793 48.349523 
L 75.325216 48.301581 
L 75.327898 48.301581 
L 75.746492 48.205698 
L 75.746492 48.181727 
L 75.85723 48.181727 
L 76.098314 48.085843 
L 76.194441 48.01393 
L 76.209309 48.01393 
L 76.312026 47.918046 
L 76.41168 47.822163 
L 76.421833 47.822163 
L 76.614847 47.726279 
L 76.678458 47.678337 
L 76.725365 47.678337 
L 76.85091 47.582453 
L 76.925764 47.48657 
L 76.960766 47.48657 
L 77.231427 47.390686 
L 77.293875 47.342744 
L 77.342533 47.342744 
L 77.648624 47.24686 
L 77.749675 47.150976 
L 77.759252 47.150976 
L 78.24202 47.055093 
L 78.340401 46.911267 
L 78.353052 46.911267 
L 78.622476 46.815383 
L 78.720673 46.7195 
L 78.732724 46.7195 
L 78.933503 46.623616 
L 78.997984 46.503761 
L 79.044021 46.503761 
L 79.227593 46.407877 
L 79.227593 46.383907 
L 79.337375 46.383907 
L 79.607314 46.288023 
L 79.697024 46.21611 
L 79.718346 46.21611 
L 79.84427 46.120226 
L 79.930796 46.048313 
L 79.954996 46.048313 
L 80.118323 45.95243 
L 80.200844 45.856546 
L 80.226882 45.856546 
L 80.426289 45.760662 
L 80.536978 45.736691 
L 80.820694 45.640808 
L 80.921426 45.544924 
L 80.93142 45.544924 
L 80.992055 45.44904 
L 81.067461 45.401098 
L 81.103063 45.401098 
L 81.613546 45.305214 
L 81.613546 45.281244 
L 81.724603 45.281244 
L 81.993353 45.18536 
L 82.095151 45.113447 
L 82.104398 45.113447 
L 82.419209 45.017563 
L 82.419209 44.993592 
L 82.52871 44.993592 
L 82.94821 44.897709 
L 83.057099 44.825796 
L 83.420519 44.729912 
L 83.506212 44.657999 
L 83.530975 44.657999 
L 83.666514 44.562116 
L 83.777558 44.490203 
L 83.995704 44.394319 
L 83.995704 44.370348 
L 84.106381 44.370348 
L 84.371616 44.274464 
L 84.466494 44.178581 
L 84.482378 44.178581 
L 84.920665 44.082697 
L 85.027778 44.034755 
L 85.031073 44.034755 
L 85.230259 43.938871 
L 85.287245 43.890929 
L 85.341071 43.890929 
L 85.442085 43.795046 
L 85.513657 43.723133 
L 85.552933 43.723133 
L 85.778317 43.627249 
L 85.877334 43.531365 
L 85.888859 43.531365 
L 86.149942 43.435482 
L 86.149942 43.411511 
L 86.260926 43.411511 
L 86.500895 43.315627 
L 86.608498 43.195772 
L 86.610237 43.195772 
L 87.182948 43.099888 
L 87.293686 42.980034 
L 87.434846 42.88415 
L 87.519841 42.764295 
L 87.545241 42.764295 
L 87.823605 42.668412 
L 87.919267 42.548557 
L 87.934527 42.548557 
L 88.074622 42.452673 
L 88.163058 42.38076 
L 88.185176 42.38076 
L 88.558406 42.284877 
L 88.667038 42.165022 
L 88.669255 42.165022 
L 88.846507 42.069138 
L 88.953596 41.997226 
L 88.957613 41.997226 
L 89.277237 41.901342 
L 89.371846 41.781487 
L 89.387534 41.781487 
L 89.517378 41.685603 
L 89.628533 41.565749 
L 90.177349 41.469865 
L 90.177349 41.445894 
L 90.288137 41.445894 
L 90.784768 41.35001 
L 90.872874 41.230156 
L 90.895409 41.230156 
L 91.353217 41.134272 
L 91.44872 41.062359 
L 91.46409 41.062359 
L 91.573065 40.966475 
L 91.621367 40.894563 
L 91.68308 40.894563 
L 92.126621 40.798679 
L 92.182798 40.750737 
L 92.237384 40.750737 
L 92.351857 40.654853 
L 92.417955 40.558969 
L 92.462375 40.558969 
L 92.711444 40.463086 
L 92.74467 40.415144 
L 92.821594 40.415144 
L 93.207329 40.31926 
L 93.25655 40.247347 
L 93.317736 40.247347 
L 93.375567 40.151464 
L 93.429601 40.103522 
L 93.486575 40.103522 
L 93.748307 40.007638 
L 93.799427 39.959696 
L 93.859303 39.959696 
L 94.087343 39.863812 
L 94.157323 39.7919 
L 94.198363 39.7919 
L 94.510995 39.696016 
L 94.5834 39.576161 
L 94.622051 39.576161 
L 94.876448 39.480277 
L 94.949661 39.432335 
L 94.987541 39.432335 
L 95.427506 39.336452 
L 95.510186 39.28851 
L 95.538379 39.28851 
L 95.732875 39.192626 
L 95.817233 39.048801 
L 95.843797 39.048801 
L 96.579357 38.952917 
L 96.607574 38.857033 
L 96.69045 38.857033 
L 96.828451 38.761149 
L 96.902839 38.689237 
L 96.939556 38.689237 
L 97.277809 38.593353 
L 97.388939 38.52144 
L 97.616282 38.425556 
L 97.616282 38.401585 
L 97.727228 38.401585 
L 97.9725 38.305702 
L 97.9725 38.281731 
L 98.083533 38.281731 
L 98.550024 38.185847 
L 98.591187 38.113934 
L 98.660738 38.113934 
L 99.113207 38.01805 
L 99.18364 37.970108 
L 99.224153 37.970108 
L 99.524244 37.874225 
L 99.524244 37.850254 
L 99.635349 37.850254 
L 100.029179 37.75437 
L 100.140872 37.706428 
L 100.700528 37.610544 
L 100.700528 37.586574 
L 100.811621 37.586574 
L 101.525382 37.49069 
L 101.60669 37.418777 
L 101.635814 37.418777 
L 102.111834 37.322893 
L 102.111834 37.298922 
L 102.221739 37.298922 
L 102.554603 37.203039 
L 102.554603 37.179068 
L 102.66512 37.179068 
L 103.364968 37.083184 
L 103.370038 37.035242 
L 103.475768 37.035242 
L 104.122059 36.939358 
L 104.178273 36.891416 
L 104.230715 36.891416 
L 104.701077 36.795533 
L 104.73663 36.72362 
L 104.811607 36.72362 
L 105.164874 36.627736 
L 105.219263 36.531852 
L 105.275331 36.531852 
L 105.605267 36.435969 
L 105.697757 36.388027 
L 105.715846 36.388027 
L 105.887342 36.292143 
L 105.9233 36.244201 
L 105.997505 36.244201 
L 106.277657 36.148317 
L 106.373772 36.100376 
L 106.38875 36.100376 
L 106.756237 36.004492 
L 106.825653 35.932579 
L 106.867024 35.932579 
L 107.235833 35.836695 
L 107.235833 35.812724 
L 107.346926 35.812724 
L 107.872498 35.716841 
L 107.872498 35.69287 
L 107.983591 35.69287 
L 108.47928 35.596986 
L 108.47928 35.573015 
L 108.590361 35.573015 
L 108.716028 35.477131 
L 108.799688 35.405218 
L 108.827097 35.405218 
L 109.119717 35.309335 
L 109.195429 35.237422 
L 109.230541 35.237422 
L 109.483064 35.141538 
L 109.546087 35.045654 
L 109.59352 35.045654 
L 109.964644 34.949771 
L 109.964644 34.9258 
L 110.073692 34.9258 
L 110.571891 34.829916 
L 110.675257 34.758003 
L 110.682176 34.758003 
L 111.156861 34.66212 
L 111.161601 34.614178 
L 111.266828 34.614178 
L 111.83186 34.518294 
L 111.910327 34.470352 
L 111.942917 34.470352 
L 112.36358 34.374468 
L 112.46103 34.326526 
L 112.474281 34.326526 
L 113.131582 34.230643 
L 113.224856 34.182701 
L 113.241721 34.182701 
L 114.329581 34.086817 
L 114.394478 34.014904 
L 114.440417 34.014904 
L 114.812949 33.919021 
L 114.878948 33.871079 
L 114.922475 33.871079 
L 115.569268 33.775195 
L 115.613945 33.703282 
L 115.679357 33.703282 
L 116.203606 33.607398 
L 116.271406 33.535486 
L 116.314528 33.535486 
L 116.543867 33.439602 
L 116.543867 33.415631 
L 116.65496 33.415631 
L 117.195951 33.319747 
L 117.195951 33.295776 
L 117.305379 33.295776 
L 117.575133 33.199892 
L 117.68499 33.056067 
L 117.686141 33.056067 
L 118.343565 32.960183 
L 118.392921 32.912241 
L 118.454609 32.912241 
L 118.560142 32.816358 
L 118.615793 32.744445 
L 118.670954 32.744445 
L 119.069719 32.648561 
L 119.15251 32.600619 
L 119.180604 32.600619 
L 119.520767 32.504735 
L 119.6209 32.456794 
L 119.631481 32.456794 
L 120.177848 32.36091 
L 120.270534 32.312968 
L 120.288795 32.312968 
L 121.277392 32.217084 
L 121.277392 32.193113 
L 121.388363 32.193113 
L 121.999689 32.09723 
L 121.999689 32.073259 
L 122.110611 32.073259 
L 122.737735 31.977375 
L 122.848339 31.953404 
L 123.156733 31.85752 
L 123.260025 31.809578 
L 123.267777 31.809578 
L 124.175715 31.713695 
L 124.274831 31.641782 
L 124.286662 31.641782 
L 124.825448 31.545898 
L 124.825448 31.521927 
L 124.936419 31.521927 
L 125.502994 31.426043 
L 125.502994 31.402072 
L 125.614087 31.402072 
L 126.278529 31.306189 
L 126.278529 31.282218 
L 126.389402 31.282218 
L 126.997653 31.186334 
L 127.052973 31.138392 
L 127.108404 31.138392 
L 127.772147 31.042508 
L 127.772147 31.018537 
L 127.882702 31.018537 
L 128.658285 30.922654 
L 128.749587 30.874712 
L 128.769379 30.874712 
L 129.869082 30.778828 
L 129.869082 30.754857 
L 129.979404 30.754857 
L 130.487266 30.658973 
L 130.487266 30.635002 
L 130.598347 30.635002 
L 131.928883 30.539119 
L 131.928883 30.515148 
L 132.039622 30.515148 
L 133.051905 30.419264 
L 133.077991 30.371322 
L 133.1623 30.371322 
L 133.986505 30.275438 
L 133.986505 30.251468 
L 134.097415 30.251468 
L 135.325149 30.155584 
L 135.325149 30.131613 
L 135.435728 30.131613 
L 135.801842 30.035729 
L 135.801842 30.011758 
L 135.911968 30.011758 
L 136.377076 29.915874 
L 136.40495 29.843962 
L 136.486883 29.843962 
L 137.600279 29.748078 
L 137.68493 29.700136 
L 137.711017 29.700136 
L 138.364191 29.604252 
L 138.364191 29.580281 
L 138.474415 29.580281 
L 139.77726 29.484398 
L 139.77726 29.460427 
L 139.882793 29.460427 
L 141.268895 29.364543 
L 141.268895 29.340572 
L 141.370056 29.340572 
L 142.187071 29.244688 
L 142.288085 29.196746 
L 142.291539 29.196746 
L 143.059701 29.100863 
L 143.155939 29.004979 
L 143.168639 29.004979 
L 144.253413 28.909095 
L 144.30997 28.861153 
L 144.363233 28.861153 
L 145.222158 28.76527 
L 145.222158 28.741299 
L 145.290901 28.741299 
L 145.639355 28.645415 
L 145.639355 28.621444 
L 145.749713 28.621444 
L 147.06003 28.52556 
L 147.143506 28.477618 
L 147.169556 28.477618 
L 148.254685 28.381735 
L 148.254685 28.357764 
L 148.359875 28.357764 
L 149.159794 28.26188 
L 149.159794 28.237909 
L 149.270887 28.237909 
L 150.008786 28.142025 
L 150.008786 28.118054 
L 150.111001 28.118054 
L 150.644484 28.022171 
L 150.644484 27.9982 
L 150.749258 27.9982 
L 152.875071 27.902316 
L 152.966043 27.854374 
L 152.96897 27.854374 
L 154.445626 27.75849 
L 154.5201 27.686578 
L 155.211167 27.590694 
L 155.315475 27.542752 
L 156.023149 27.446868 
L 156.094635 27.135246 
L 156.134255 27.135246 
L 282.0157 27.039362 
L 282.023501 26.895537 
L 282.023758 26.895537 
" clip-path="url(#p2eb1142112)" style="fill: none; stroke: #1f77b4; stroke-width: 1.5; stroke-linecap: round"/>
   </g>
   <g id="line2d_26">
    <path d="M 42.831699 265.022801 
L 282.023758 26.895537 
" clip-path="url(#p2eb1142112)" style="fill: none; stroke-dasharray: 5.55,2.4; stroke-dashoffset: 0; stroke: #999999; stroke-width: 1.5"/>
   </g>
   <g id="patch_3">
    <path d="M 35.655938 265.022801 
L 35.655938 19.751719 
" style="fill: none"/>
   </g>
   <g id="patch_4">
    <path d="M 289.19952 265.022801 
L 289.19952 19.751719 
" style="fill: none"/>
   </g>
   <g id="patch_5">
    <path d="M 35.655938 265.022801 
L 289.19952 265.022801 
" style="fill: none"/>
   </g>
   <g id="patch_6">
    <path d="M 35.655938 19.751719 
L 289.19952 19.751719 
" style="fill: none"/>
   </g>
   <g id="text_15">
    <!-- Model 1: Receiver Operating Characteristic (ROC) Curve -->
    <g style="fill: #333333" transform="translate(42.14976 13.751719) scale(0.09 -0.09)">
     <defs>
      <path id="Arial-BoldMT-4d" d="M 453 0 
L 453 4581 
L 1838 4581 
L 2669 1456 
L 3491 4581 
L 4878 4581 
L 4878 0 
L 4019 0 
L 4019 3606 
L 3109 0 
L 2219 0 
L 1313 3606 
L 1313 0 
L 453 0 
z
" transform="scale(0.015625)"/>
      <path id="Arial-BoldMT-64" d="M 3503 0 
L 2688 0 
L 2688 488 
Q 2484 203 2207 64 
Q 1931 -75 1650 -75 
Q 1078 -75 670 386 
Q 263 847 263 1672 
Q 263 2516 659 2955 
Q 1056 3394 1663 3394 
Q 2219 3394 2625 2931 
L 2625 4581 
L 3503 4581 
L 3503 0 
z
M 1159 1731 
Q 1159 1200 1306 963 
Q 1519 619 1900 619 
Q 2203 619 2415 876 
Q 2628 1134 2628 1647 
Q 2628 2219 2422 2470 
Q 2216 2722 1894 2722 
Q 1581 2722 1370 2473 
Q 1159 2225 1159 1731 
z
" transform="scale(0.015625)"/>
      <path id="Arial-BoldMT-31" d="M 2519 0 
L 1641 0 
L 1641 3309 
Q 1159 2859 506 2644 
L 506 3441 
Q 850 3553 1253 3867 
Q 1656 4181 1806 4600 
L 2519 4600 
L 2519 0 
z
" transform="scale(0.015625)"/>
      <path id="Arial-BoldMT-3a" d="M 628 2441 
L 628 3319 
L 1506 3319 
L 1506 2441 
L 628 2441 
z
M 628 0 
L 628 878 
L 1506 878 
L 1506 0 
L 628 0 
z
" transform="scale(0.015625)"/>
      <path id="Arial-BoldMT-63" d="M 3353 2338 
L 2488 2181 
Q 2444 2441 2289 2572 
Q 2134 2703 1888 2703 
Q 1559 2703 1364 2476 
Q 1169 2250 1169 1719 
Q 1169 1128 1367 884 
Q 1566 641 1900 641 
Q 2150 641 2309 783 
Q 2469 925 2534 1272 
L 3397 1125 
Q 3263 531 2881 228 
Q 2500 -75 1859 -75 
Q 1131 -75 698 384 
Q 266 844 266 1656 
Q 266 2478 700 2936 
Q 1134 3394 1875 3394 
Q 2481 3394 2839 3133 
Q 3197 2872 3353 2338 
z
" transform="scale(0.015625)"/>
      <path id="Arial-BoldMT-4f" d="M 278 2263 
Q 278 2963 488 3438 
Q 644 3788 914 4066 
Q 1184 4344 1506 4478 
Q 1934 4659 2494 4659 
Q 3506 4659 4114 4031 
Q 4722 3403 4722 2284 
Q 4722 1175 4119 548 
Q 3516 -78 2506 -78 
Q 1484 -78 881 545 
Q 278 1169 278 2263 
z
M 1231 2294 
Q 1231 1516 1590 1114 
Q 1950 713 2503 713 
Q 3056 713 3411 1111 
Q 3766 1509 3766 2306 
Q 3766 3094 3420 3481 
Q 3075 3869 2503 3869 
Q 1931 3869 1581 3476 
Q 1231 3084 1231 2294 
z
" transform="scale(0.015625)"/>
      <path id="Arial-BoldMT-70" d="M 434 3319 
L 1253 3319 
L 1253 2831 
Q 1413 3081 1684 3237 
Q 1956 3394 2288 3394 
Q 2866 3394 3269 2941 
Q 3672 2488 3672 1678 
Q 3672 847 3265 386 
Q 2859 -75 2281 -75 
Q 2006 -75 1782 34 
Q 1559 144 1313 409 
L 1313 -1263 
L 434 -1263 
L 434 3319 
z
M 1303 1716 
Q 1303 1156 1525 889 
Q 1747 622 2066 622 
Q 2372 622 2575 867 
Q 2778 1113 2778 1672 
Q 2778 2194 2568 2447 
Q 2359 2700 2050 2700 
Q 1728 2700 1515 2451 
Q 1303 2203 1303 1716 
z
" transform="scale(0.015625)"/>
      <path id="Arial-BoldMT-6e" d="M 3478 0 
L 2600 0 
L 2600 1694 
Q 2600 2231 2544 2389 
Q 2488 2547 2361 2634 
Q 2234 2722 2056 2722 
Q 1828 2722 1647 2597 
Q 1466 2472 1398 2265 
Q 1331 2059 1331 1503 
L 1331 0 
L 453 0 
L 453 3319 
L 1269 3319 
L 1269 2831 
Q 1703 3394 2363 3394 
Q 2653 3394 2893 3289 
Q 3134 3184 3257 3021 
Q 3381 2859 3429 2653 
Q 3478 2447 3478 2063 
L 3478 0 
z
" transform="scale(0.015625)"/>
      <path id="Arial-BoldMT-67" d="M 378 -219 
L 1381 -341 
Q 1406 -516 1497 -581 
Q 1622 -675 1891 -675 
Q 2234 -675 2406 -572 
Q 2522 -503 2581 -350 
Q 2622 -241 2622 53 
L 2622 538 
Q 2228 0 1628 0 
Q 959 0 569 566 
Q 263 1013 263 1678 
Q 263 2513 664 2953 
Q 1066 3394 1663 3394 
Q 2278 3394 2678 2853 
L 2678 3319 
L 3500 3319 
L 3500 341 
Q 3500 -247 3403 -537 
Q 3306 -828 3131 -993 
Q 2956 -1159 2664 -1253 
Q 2372 -1347 1925 -1347 
Q 1081 -1347 728 -1058 
Q 375 -769 375 -325 
Q 375 -281 378 -219 
z
M 1163 1728 
Q 1163 1200 1367 954 
Q 1572 709 1872 709 
Q 2194 709 2416 961 
Q 2638 1213 2638 1706 
Q 2638 2222 2425 2472 
Q 2213 2722 1888 2722 
Q 1572 2722 1367 2476 
Q 1163 2231 1163 1728 
z
" transform="scale(0.015625)"/>
      <path id="Arial-BoldMT-43" d="M 3397 1684 
L 4294 1400 
Q 4088 650 3608 286 
Q 3128 -78 2391 -78 
Q 1478 -78 890 545 
Q 303 1169 303 2250 
Q 303 3394 893 4026 
Q 1484 4659 2447 4659 
Q 3288 4659 3813 4163 
Q 4125 3869 4281 3319 
L 3366 3100 
Q 3284 3456 3026 3662 
Q 2769 3869 2400 3869 
Q 1891 3869 1573 3503 
Q 1256 3138 1256 2319 
Q 1256 1450 1568 1081 
Q 1881 713 2381 713 
Q 2750 713 3015 947 
Q 3281 1181 3397 1684 
z
" transform="scale(0.015625)"/>
      <path id="Arial-BoldMT-68" d="M 1334 4581 
L 1334 2897 
Q 1759 3394 2350 3394 
Q 2653 3394 2897 3281 
Q 3141 3169 3264 2994 
Q 3388 2819 3433 2606 
Q 3478 2394 3478 1947 
L 3478 0 
L 2600 0 
L 2600 1753 
Q 2600 2275 2550 2415 
Q 2500 2556 2373 2639 
Q 2247 2722 2056 2722 
Q 1838 2722 1666 2615 
Q 1494 2509 1414 2295 
Q 1334 2081 1334 1663 
L 1334 0 
L 456 0 
L 456 4581 
L 1334 4581 
z
" transform="scale(0.015625)"/>
     </defs>
     <use xlink:href="#Arial-BoldMT-4d"/>
     <use xlink:href="#Arial-BoldMT-6f" transform="translate(83.300781 0)"/>
     <use xlink:href="#Arial-BoldMT-64" transform="translate(144.384766 0)"/>
     <use xlink:href="#Arial-BoldMT-65" transform="translate(205.46875 0)"/>
     <use xlink:href="#Arial-BoldMT-6c" transform="translate(261.083984 0)"/>
     <use xlink:href="#Arial-BoldMT-20" transform="translate(288.867188 0)"/>
     <use xlink:href="#Arial-BoldMT-31" transform="translate(316.650391 0)"/>
     <use xlink:href="#Arial-BoldMT-3a" transform="translate(372.265625 0)"/>
     <use xlink:href="#Arial-BoldMT-20" transform="translate(405.566406 0)"/>
     <use xlink:href="#Arial-BoldMT-52" transform="translate(433.349609 0)"/>
     <use xlink:href="#Arial-BoldMT-65" transform="translate(505.566406 0)"/>
     <use xlink:href="#Arial-BoldMT-63" transform="translate(561.181641 0)"/>
     <use xlink:href="#Arial-BoldMT-65" transform="translate(616.796875 0)"/>
     <use xlink:href="#Arial-BoldMT-69" transform="translate(672.412109 0)"/>
     <use xlink:href="#Arial-BoldMT-76" transform="translate(700.195312 0)"/>
     <use xlink:href="#Arial-BoldMT-65" transform="translate(755.810547 0)"/>
     <use xlink:href="#Arial-BoldMT-72" transform="translate(811.425781 0)"/>
     <use xlink:href="#Arial-BoldMT-20" transform="translate(850.341797 0)"/>
     <use xlink:href="#Arial-BoldMT-4f" transform="translate(878.125 0)"/>
     <use xlink:href="#Arial-BoldMT-70" transform="translate(955.908203 0)"/>
     <use xlink:href="#Arial-BoldMT-65" transform="translate(1016.992188 0)"/>
     <use xlink:href="#Arial-BoldMT-72" transform="translate(1072.607422 0)"/>
     <use xlink:href="#Arial-BoldMT-61" transform="translate(1111.523438 0)"/>
     <use xlink:href="#Arial-BoldMT-74" transform="translate(1167.138672 0)"/>
     <use xlink:href="#Arial-BoldMT-69" transform="translate(1200.439453 0)"/>
     <use xlink:href="#Arial-BoldMT-6e" transform="translate(1228.222656 0)"/>
     <use xlink:href="#Arial-BoldMT-67" transform="translate(1289.306641 0)"/>
     <use xlink:href="#Arial-BoldMT-20" transform="translate(1350.390625 0)"/>
     <use xlink:href="#Arial-BoldMT-43" transform="translate(1378.173828 0)"/>
     <use xlink:href="#Arial-BoldMT-68" transform="translate(1450.390625 0)"/>
     <use xlink:href="#Arial-BoldMT-61" transform="translate(1511.474609 0)"/>
     <use xlink:href="#Arial-BoldMT-72" transform="translate(1567.089844 0)"/>
     <use xlink:href="#Arial-BoldMT-61" transform="translate(1606.005859 0)"/>
     <use xlink:href="#Arial-BoldMT-63" transform="translate(1661.621094 0)"/>
     <use xlink:href="#Arial-BoldMT-74" transform="translate(1717.236328 0)"/>
     <use xlink:href="#Arial-BoldMT-65" transform="translate(1750.537109 0)"/>
     <use xlink:href="#Arial-BoldMT-72" transform="translate(1806.152344 0)"/>
     <use xlink:href="#Arial-BoldMT-69" transform="translate(1845.068359 0)"/>
     <use xlink:href="#Arial-BoldMT-73" transform="translate(1872.851562 0)"/>
     <use xlink:href="#Arial-BoldMT-74" transform="translate(1928.466797 0)"/>
     <use xlink:href="#Arial-BoldMT-69" transform="translate(1961.767578 0)"/>
     <use xlink:href="#Arial-BoldMT-63" transform="translate(1989.550781 0)"/>
     <use xlink:href="#Arial-BoldMT-20" transform="translate(2045.166016 0)"/>
     <use xlink:href="#Arial-BoldMT-28" transform="translate(2072.949219 0)"/>
     <use xlink:href="#Arial-BoldMT-52" transform="translate(2106.25 0)"/>
     <use xlink:href="#Arial-BoldMT-4f" transform="translate(2178.466797 0)"/>
     <use xlink:href="#Arial-BoldMT-43" transform="translate(2256.25 0)"/>
     <use xlink:href="#Arial-BoldMT-29" transform="translate(2328.466797 0)"/>
     <use xlink:href="#Arial-BoldMT-20" transform="translate(2361.767578 0)"/>
     <use xlink:href="#Arial-BoldMT-43" transform="translate(2389.550781 0)"/>
     <use xlink:href="#Arial-BoldMT-75" transform="translate(2461.767578 0)"/>
     <use xlink:href="#Arial-BoldMT-72" transform="translate(2522.851562 0)"/>
     <use xlink:href="#Arial-BoldMT-76" transform="translate(2561.767578 0)"/>
     <use xlink:href="#Arial-BoldMT-65" transform="translate(2617.382812 0)"/>
    </g>
   </g>
   <g id="legend_1">
    <g id="patch_7">
     <path d="M 182.577645 260.522801 
L 282.89952 260.522801 
Q 284.69952 260.522801 284.69952 258.722801 
L 284.69952 234.161239 
Q 284.69952 232.361239 282.89952 232.361239 
L 182.577645 232.361239 
Q 180.777645 232.361239 180.777645 234.161239 
L 180.777645 258.722801 
Q 180.777645 260.522801 182.577645 260.522801 
z
" style="fill: #ffffff; opacity: 0.8; stroke: #cccccc; stroke-width: 0.75; stroke-linejoin: miter"/>
    </g>
    <g id="line2d_27">
     <path d="M 184.377645 239.25327 
L 193.377645 239.25327 
L 202.377645 239.25327 
" style="fill: none; stroke: #1f77b4; stroke-width: 1.5; stroke-linecap: round"/>
    </g>
    <g id="text_16">
     <!-- ROC curve -->
     <g style="fill: #333333" transform="translate(209.577645 242.40327) scale(0.09 -0.09)">
      <defs>
       <path id="ArialMT-52" d="M 503 0 
L 503 4581 
L 2534 4581 
Q 3147 4581 3465 4457 
Q 3784 4334 3975 4021 
Q 4166 3709 4166 3331 
Q 4166 2844 3850 2509 
Q 3534 2175 2875 2084 
Q 3116 1969 3241 1856 
Q 3506 1613 3744 1247 
L 4541 0 
L 3778 0 
L 3172 953 
Q 2906 1366 2734 1584 
Q 2563 1803 2427 1890 
Q 2291 1978 2150 2013 
Q 2047 2034 1813 2034 
L 1109 2034 
L 1109 0 
L 503 0 
z
M 1109 2559 
L 2413 2559 
Q 2828 2559 3062 2645 
Q 3297 2731 3419 2920 
Q 3541 3109 3541 3331 
Q 3541 3656 3305 3865 
Q 3069 4075 2559 4075 
L 1109 4075 
L 1109 2559 
z
" transform="scale(0.015625)"/>
       <path id="ArialMT-4f" d="M 309 2231 
Q 309 3372 921 4017 
Q 1534 4663 2503 4663 
Q 3138 4663 3647 4359 
Q 4156 4056 4423 3514 
Q 4691 2972 4691 2284 
Q 4691 1588 4409 1038 
Q 4128 488 3612 205 
Q 3097 -78 2500 -78 
Q 1853 -78 1343 234 
Q 834 547 571 1087 
Q 309 1628 309 2231 
z
M 934 2222 
Q 934 1394 1379 917 
Q 1825 441 2497 441 
Q 3181 441 3623 922 
Q 4066 1403 4066 2288 
Q 4066 2847 3877 3264 
Q 3688 3681 3323 3911 
Q 2959 4141 2506 4141 
Q 1863 4141 1398 3698 
Q 934 3256 934 2222 
z
" transform="scale(0.015625)"/>
       <path id="ArialMT-43" d="M 3763 1606 
L 4369 1453 
Q 4178 706 3683 314 
Q 3188 -78 2472 -78 
Q 1731 -78 1267 223 
Q 803 525 561 1097 
Q 319 1669 319 2325 
Q 319 3041 592 3573 
Q 866 4106 1370 4382 
Q 1875 4659 2481 4659 
Q 3169 4659 3637 4309 
Q 4106 3959 4291 3325 
L 3694 3184 
Q 3534 3684 3231 3912 
Q 2928 4141 2469 4141 
Q 1941 4141 1586 3887 
Q 1231 3634 1087 3207 
Q 944 2781 944 2328 
Q 944 1744 1114 1308 
Q 1284 872 1643 656 
Q 2003 441 2422 441 
Q 2931 441 3284 734 
Q 3638 1028 3763 1606 
z
" transform="scale(0.015625)"/>
       <path id="ArialMT-20" transform="scale(0.015625)"/>
       <path id="ArialMT-63" d="M 2588 1216 
L 3141 1144 
Q 3050 572 2676 248 
Q 2303 -75 1759 -75 
Q 1078 -75 664 370 
Q 250 816 250 1647 
Q 250 2184 428 2587 
Q 606 2991 970 3192 
Q 1334 3394 1763 3394 
Q 2303 3394 2647 3120 
Q 2991 2847 3088 2344 
L 2541 2259 
Q 2463 2594 2264 2762 
Q 2066 2931 1784 2931 
Q 1359 2931 1093 2626 
Q 828 2322 828 1663 
Q 828 994 1084 691 
Q 1341 388 1753 388 
Q 2084 388 2306 591 
Q 2528 794 2588 1216 
z
" transform="scale(0.015625)"/>
       <path id="ArialMT-75" d="M 2597 0 
L 2597 488 
Q 2209 -75 1544 -75 
Q 1250 -75 995 37 
Q 741 150 617 320 
Q 494 491 444 738 
Q 409 903 409 1263 
L 409 3319 
L 972 3319 
L 972 1478 
Q 972 1038 1006 884 
Q 1059 663 1231 536 
Q 1403 409 1656 409 
Q 1909 409 2131 539 
Q 2353 669 2445 892 
Q 2538 1116 2538 1541 
L 2538 3319 
L 3100 3319 
L 3100 0 
L 2597 0 
z
" transform="scale(0.015625)"/>
       <path id="ArialMT-72" d="M 416 0 
L 416 3319 
L 922 3319 
L 922 2816 
Q 1116 3169 1280 3281 
Q 1444 3394 1641 3394 
Q 1925 3394 2219 3213 
L 2025 2691 
Q 1819 2813 1613 2813 
Q 1428 2813 1281 2702 
Q 1134 2591 1072 2394 
Q 978 2094 978 1738 
L 978 0 
L 416 0 
z
" transform="scale(0.015625)"/>
       <path id="ArialMT-76" d="M 1344 0 
L 81 3319 
L 675 3319 
L 1388 1331 
Q 1503 1009 1600 663 
Q 1675 925 1809 1294 
L 2547 3319 
L 3125 3319 
L 1869 0 
L 1344 0 
z
" transform="scale(0.015625)"/>
       <path id="ArialMT-65" d="M 2694 1069 
L 3275 997 
Q 3138 488 2766 206 
Q 2394 -75 1816 -75 
Q 1088 -75 661 373 
Q 234 822 234 1631 
Q 234 2469 665 2931 
Q 1097 3394 1784 3394 
Q 2450 3394 2872 2941 
Q 3294 2488 3294 1666 
Q 3294 1616 3291 1516 
L 816 1516 
Q 847 969 1125 678 
Q 1403 388 1819 388 
Q 2128 388 2347 550 
Q 2566 713 2694 1069 
z
M 847 1978 
L 2700 1978 
Q 2663 2397 2488 2606 
Q 2219 2931 1791 2931 
Q 1403 2931 1139 2672 
Q 875 2413 847 1978 
z
" transform="scale(0.015625)"/>
      </defs>
      <use xlink:href="#ArialMT-52"/>
      <use xlink:href="#ArialMT-4f" transform="translate(72.216797 0)"/>
      <use xlink:href="#ArialMT-43" transform="translate(150 0)"/>
      <use xlink:href="#ArialMT-20" transform="translate(222.216797 0)"/>
      <use xlink:href="#ArialMT-63" transform="translate(250 0)"/>
      <use xlink:href="#ArialMT-75" transform="translate(300 0)"/>
      <use xlink:href="#ArialMT-72" transform="translate(355.615234 0)"/>
      <use xlink:href="#ArialMT-76" transform="translate(388.916016 0)"/>
      <use xlink:href="#ArialMT-65" transform="translate(438.916016 0)"/>
     </g>
    </g>
    <g id="line2d_28">
     <path d="M 184.377645 251.984051 
L 193.377645 251.984051 
L 202.377645 251.984051 
" style="fill: none; stroke-dasharray: 5.55,2.4; stroke-dashoffset: 0; stroke: #999999; stroke-width: 1.5"/>
    </g>
    <g id="text_17">
     <!-- Random classifier -->
     <g style="fill: #333333" transform="translate(209.577645 255.134051) scale(0.09 -0.09)">
      <defs>
       <path id="ArialMT-61" d="M 2588 409 
Q 2275 144 1986 34 
Q 1697 -75 1366 -75 
Q 819 -75 525 192 
Q 231 459 231 875 
Q 231 1119 342 1320 
Q 453 1522 633 1644 
Q 813 1766 1038 1828 
Q 1203 1872 1538 1913 
Q 2219 1994 2541 2106 
Q 2544 2222 2544 2253 
Q 2544 2597 2384 2738 
Q 2169 2928 1744 2928 
Q 1347 2928 1158 2789 
Q 969 2650 878 2297 
L 328 2372 
Q 403 2725 575 2942 
Q 747 3159 1072 3276 
Q 1397 3394 1825 3394 
Q 2250 3394 2515 3294 
Q 2781 3194 2906 3042 
Q 3031 2891 3081 2659 
Q 3109 2516 3109 2141 
L 3109 1391 
Q 3109 606 3145 398 
Q 3181 191 3288 0 
L 2700 0 
Q 2613 175 2588 409 
z
M 2541 1666 
Q 2234 1541 1622 1453 
Q 1275 1403 1131 1340 
Q 988 1278 909 1158 
Q 831 1038 831 891 
Q 831 666 1001 516 
Q 1172 366 1500 366 
Q 1825 366 2078 508 
Q 2331 650 2450 897 
Q 2541 1088 2541 1459 
L 2541 1666 
z
" transform="scale(0.015625)"/>
       <path id="ArialMT-6e" d="M 422 0 
L 422 3319 
L 928 3319 
L 928 2847 
Q 1294 3394 1984 3394 
Q 2284 3394 2536 3286 
Q 2788 3178 2913 3003 
Q 3038 2828 3088 2588 
Q 3119 2431 3119 2041 
L 3119 0 
L 2556 0 
L 2556 2019 
Q 2556 2363 2490 2533 
Q 2425 2703 2258 2804 
Q 2091 2906 1866 2906 
Q 1506 2906 1245 2678 
Q 984 2450 984 1813 
L 984 0 
L 422 0 
z
" transform="scale(0.015625)"/>
       <path id="ArialMT-64" d="M 2575 0 
L 2575 419 
Q 2259 -75 1647 -75 
Q 1250 -75 917 144 
Q 584 363 401 755 
Q 219 1147 219 1656 
Q 219 2153 384 2558 
Q 550 2963 881 3178 
Q 1213 3394 1622 3394 
Q 1922 3394 2156 3267 
Q 2391 3141 2538 2938 
L 2538 4581 
L 3097 4581 
L 3097 0 
L 2575 0 
z
M 797 1656 
Q 797 1019 1065 703 
Q 1334 388 1700 388 
Q 2069 388 2326 689 
Q 2584 991 2584 1609 
Q 2584 2291 2321 2609 
Q 2059 2928 1675 2928 
Q 1300 2928 1048 2622 
Q 797 2316 797 1656 
z
" transform="scale(0.015625)"/>
       <path id="ArialMT-6f" d="M 213 1659 
Q 213 2581 725 3025 
Q 1153 3394 1769 3394 
Q 2453 3394 2887 2945 
Q 3322 2497 3322 1706 
Q 3322 1066 3130 698 
Q 2938 331 2570 128 
Q 2203 -75 1769 -75 
Q 1072 -75 642 372 
Q 213 819 213 1659 
z
M 791 1659 
Q 791 1022 1069 705 
Q 1347 388 1769 388 
Q 2188 388 2466 706 
Q 2744 1025 2744 1678 
Q 2744 2294 2464 2611 
Q 2184 2928 1769 2928 
Q 1347 2928 1069 2612 
Q 791 2297 791 1659 
z
" transform="scale(0.015625)"/>
       <path id="ArialMT-6d" d="M 422 0 
L 422 3319 
L 925 3319 
L 925 2853 
Q 1081 3097 1340 3245 
Q 1600 3394 1931 3394 
Q 2300 3394 2536 3241 
Q 2772 3088 2869 2813 
Q 3263 3394 3894 3394 
Q 4388 3394 4653 3120 
Q 4919 2847 4919 2278 
L 4919 0 
L 4359 0 
L 4359 2091 
Q 4359 2428 4304 2576 
Q 4250 2725 4106 2815 
Q 3963 2906 3769 2906 
Q 3419 2906 3187 2673 
Q 2956 2441 2956 1928 
L 2956 0 
L 2394 0 
L 2394 2156 
Q 2394 2531 2256 2718 
Q 2119 2906 1806 2906 
Q 1569 2906 1367 2781 
Q 1166 2656 1075 2415 
Q 984 2175 984 1722 
L 984 0 
L 422 0 
z
" transform="scale(0.015625)"/>
       <path id="ArialMT-6c" d="M 409 0 
L 409 4581 
L 972 4581 
L 972 0 
L 409 0 
z
" transform="scale(0.015625)"/>
       <path id="ArialMT-73" d="M 197 991 
L 753 1078 
Q 800 744 1014 566 
Q 1228 388 1613 388 
Q 2000 388 2187 545 
Q 2375 703 2375 916 
Q 2375 1106 2209 1216 
Q 2094 1291 1634 1406 
Q 1016 1563 777 1677 
Q 538 1791 414 1992 
Q 291 2194 291 2438 
Q 291 2659 392 2848 
Q 494 3038 669 3163 
Q 800 3259 1026 3326 
Q 1253 3394 1513 3394 
Q 1903 3394 2198 3281 
Q 2494 3169 2634 2976 
Q 2775 2784 2828 2463 
L 2278 2388 
Q 2241 2644 2061 2787 
Q 1881 2931 1553 2931 
Q 1166 2931 1000 2803 
Q 834 2675 834 2503 
Q 834 2394 903 2306 
Q 972 2216 1119 2156 
Q 1203 2125 1616 2013 
Q 2213 1853 2448 1751 
Q 2684 1650 2818 1456 
Q 2953 1263 2953 975 
Q 2953 694 2789 445 
Q 2625 197 2315 61 
Q 2006 -75 1616 -75 
Q 969 -75 630 194 
Q 291 463 197 991 
z
" transform="scale(0.015625)"/>
       <path id="ArialMT-69" d="M 425 3934 
L 425 4581 
L 988 4581 
L 988 3934 
L 425 3934 
z
M 425 0 
L 425 3319 
L 988 3319 
L 988 0 
L 425 0 
z
" transform="scale(0.015625)"/>
       <path id="ArialMT-66" d="M 556 0 
L 556 2881 
L 59 2881 
L 59 3319 
L 556 3319 
L 556 3672 
Q 556 4006 616 4169 
Q 697 4388 901 4523 
Q 1106 4659 1475 4659 
Q 1713 4659 2000 4603 
L 1916 4113 
Q 1741 4144 1584 4144 
Q 1328 4144 1222 4034 
Q 1116 3925 1116 3625 
L 1116 3319 
L 1763 3319 
L 1763 2881 
L 1116 2881 
L 1116 0 
L 556 0 
z
" transform="scale(0.015625)"/>
      </defs>
      <use xlink:href="#ArialMT-52"/>
      <use xlink:href="#ArialMT-61" transform="translate(72.216797 0)"/>
      <use xlink:href="#ArialMT-6e" transform="translate(127.832031 0)"/>
      <use xlink:href="#ArialMT-64" transform="translate(183.447266 0)"/>
      <use xlink:href="#ArialMT-6f" transform="translate(239.0625 0)"/>
      <use xlink:href="#ArialMT-6d" transform="translate(294.677734 0)"/>
      <use xlink:href="#ArialMT-20" transform="translate(377.978516 0)"/>
      <use xlink:href="#ArialMT-63" transform="translate(405.761719 0)"/>
      <use xlink:href="#ArialMT-6c" transform="translate(455.761719 0)"/>
      <use xlink:href="#ArialMT-61" transform="translate(477.978516 0)"/>
      <use xlink:href="#ArialMT-73" transform="translate(533.59375 0)"/>
      <use xlink:href="#ArialMT-73" transform="translate(583.59375 0)"/>
      <use xlink:href="#ArialMT-69" transform="translate(633.59375 0)"/>
      <use xlink:href="#ArialMT-66" transform="translate(655.810547 0)"/>
      <use xlink:href="#ArialMT-69" transform="translate(683.59375 0)"/>
      <use xlink:href="#ArialMT-65" transform="translate(705.810547 0)"/>
      <use xlink:href="#ArialMT-72" transform="translate(761.425781 0)"/>
     </g>
    </g>
   </g>
  </g>
 </g>
 <defs>
  <clipPath id="p2eb1142112">
   <rect x="35.655938" y="19.751719" width="253.543583" height="245.271083"/>
  </clipPath>
 </defs>
</svg>
