<?xml version="1.0" encoding="utf-8" standalone="no"?>
<!DOCTYPE svg PUBLIC "-//W3C//DTD SVG 1.1//EN"
  "http://www.w3.org/Graphics/SVG/1.1/DTD/svg11.dtd">
<svg xmlns:xlink="http://www.w3.org/1999/xlink" width="296.39952pt" height="296.39952pt" viewBox="0 0 296.39952 296.39952" xmlns="http://www.w3.org/2000/svg" version="1.1">
 <metadata>
  <rdf:RDF xmlns:dc="http://purl.org/dc/elements/1.1/" xmlns:cc="http://creativecommons.org/ns#" xmlns:rdf="http://www.w3.org/1999/02/22-rdf-syntax-ns#">
   <cc:Work>
    <dc:type rdf:resource="http://purl.org/dc/dcmitype/StillImage"/>
    <dc:date>2025-12-30T21:06:42.181099</dc:date>
    <dc:format>image/svg+xml</dc:format>
    <dc:creator>
     <cc:Agent>
      <dc:title>Matplotlib v3.10.8, https://matplotlib.org/</dc:title>
     </cc:Agent>
    </dc:creator>
   </cc:Work>
  </rdf:RDF>
 </metadata>
 <defs>
  <style type="text/css">*{stroke-linejoin: round; stroke-linecap: butt}</style>
 </defs>
 <g id="figure_1">
  <g id="patch_1">
   <path d="M 0 296.39952 
L 296.39952 296.39952 
L 296.39952 0 
L 0 0 
z
" style="fill: #ffffff"/>
  </g>
  <g id="axes_1">
   <g id="patch_2">
    <path d="M 35.655938 265.022801 
L 289.19952 265.022801 
L 289.19952 19.751719 
L 35.655938 19.751719 
z
" style="fill: #ffffff"/>
   </g>
   <g id="matplotlib.axis_1">
    <g id="xtick_1">
     <g id="line2d_1">
      <path d="M 42.831699 265.022801 
L 42.831699 19.751719 
" clip-path="url(#p64237a5465)" style="fill: none; stroke: #c0c0c0; stroke-width: 0.25; stroke-linecap: round"/>
     </g>
     <g id="line2d_2"/>
     <g id="text_1">
      <!-- 0.0 -->
      <g style="fill: #333333" transform="translate(36.576699 274.964832) scale(0.09 -0.09)">
       <defs>
        <path id="ArialMT-30" d="M 266 2259 
Q 266 3072 433 3567 
Q 600 4063 929 4331 
Q 1259 4600 1759 4600 
Q 2128 4600 2406 4451 
Q 2684 4303 2865 4023 
Q 3047 3744 3150 3342 
Q 3253 2941 3253 2259 
Q 3253 1453 3087 958 
Q 2922 463 2592 192 
Q 2263 -78 1759 -78 
Q 1097 -78 719 397 
Q 266 969 266 2259 
z
M 844 2259 
Q 844 1131 1108 757 
Q 1372 384 1759 384 
Q 2147 384 2411 759 
Q 2675 1134 2675 2259 
Q 2675 3391 2411 3762 
Q 2147 4134 1753 4134 
Q 1366 4134 1134 3806 
Q 844 3388 844 2259 
z
" transform="scale(0.015625)"/>
        <path id="ArialMT-2e" d="M 581 0 
L 581 641 
L 1222 641 
L 1222 0 
L 581 0 
z
" transform="scale(0.015625)"/>
       </defs>
       <use xlink:href="#ArialMT-30"/>
       <use xlink:href="#ArialMT-2e" transform="translate(55.615234 0)"/>
       <use xlink:href="#ArialMT-30" transform="translate(83.398438 0)"/>
      </g>
     </g>
    </g>
    <g id="xtick_2">
     <g id="line2d_3">
      <path d="M 90.670111 265.022801 
L 90.670111 19.751719 
" clip-path="url(#p64237a5465)" style="fill: none; stroke: #c0c0c0; stroke-width: 0.25; stroke-linecap: round"/>
     </g>
     <g id="line2d_4"/>
     <g id="text_2">
      <!-- 0.2 -->
      <g style="fill: #333333" transform="translate(84.415111 274.964832) scale(0.09 -0.09)">
       <defs>
        <path id="ArialMT-32" d="M 3222 541 
L 3222 0 
L 194 0 
Q 188 203 259 391 
Q 375 700 629 1000 
Q 884 1300 1366 1694 
Q 2113 2306 2375 2664 
Q 2638 3022 2638 3341 
Q 2638 3675 2398 3904 
Q 2159 4134 1775 4134 
Q 1369 4134 1125 3890 
Q 881 3647 878 3216 
L 300 3275 
Q 359 3922 746 4261 
Q 1134 4600 1788 4600 
Q 2447 4600 2831 4234 
Q 3216 3869 3216 3328 
Q 3216 3053 3103 2787 
Q 2991 2522 2730 2228 
Q 2469 1934 1863 1422 
Q 1356 997 1212 845 
Q 1069 694 975 541 
L 3222 541 
z
" transform="scale(0.015625)"/>
       </defs>
       <use xlink:href="#ArialMT-30"/>
       <use xlink:href="#ArialMT-2e" transform="translate(55.615234 0)"/>
       <use xlink:href="#ArialMT-32" transform="translate(83.398438 0)"/>
      </g>
     </g>
    </g>
    <g id="xtick_3">
     <g id="line2d_5">
      <path d="M 138.508523 265.022801 
L 138.508523 19.751719 
" clip-path="url(#p64237a5465)" style="fill: none; stroke: #c0c0c0; stroke-width: 0.25; stroke-linecap: round"/>
     </g>
     <g id="line2d_6"/>
     <g id="text_3">
      <!-- 0.4 -->
      <g style="fill: #333333" transform="translate(132.253523 274.964832) scale(0.09 -0.09)">
       <defs>
        <path id="ArialMT-34" d="M 2069 0 
L 2069 1097 
L 81 1097 
L 81 1613 
L 2172 4581 
L 2631 4581 
L 2631 1613 
L 3250 1613 
L 3250 1097 
L 2631 1097 
L 2631 0 
L 2069 0 
z
M 2069 1613 
L 2069 3678 
L 634 1613 
L 2069 1613 
z
" transform="scale(0.015625)"/>
       </defs>
       <use xlink:href="#ArialMT-30"/>
       <use xlink:href="#ArialMT-2e" transform="translate(55.615234 0)"/>
       <use xlink:href="#ArialMT-34" transform="translate(83.398438 0)"/>
      </g>
     </g>
    </g>
    <g id="xtick_4">
     <g id="line2d_7">
      <path d="M 186.346935 265.022801 
L 186.346935 19.751719 
" clip-path="url(#p64237a5465)" style="fill: none; stroke: #c0c0c0; stroke-width: 0.25; stroke-linecap: round"/>
     </g>
     <g id="line2d_8"/>
     <g id="text_4">
      <!-- 0.6 -->
      <g style="fill: #333333" transform="translate(180.091935 274.964832) scale(0.09 -0.09)">
       <defs>
        <path id="ArialMT-36" d="M 3184 3459 
L 2625 3416 
Q 2550 3747 2413 3897 
Q 2184 4138 1850 4138 
Q 1581 4138 1378 3988 
Q 1113 3794 959 3422 
Q 806 3050 800 2363 
Q 1003 2672 1297 2822 
Q 1591 2972 1913 2972 
Q 2475 2972 2870 2558 
Q 3266 2144 3266 1488 
Q 3266 1056 3080 686 
Q 2894 316 2569 119 
Q 2244 -78 1831 -78 
Q 1128 -78 684 439 
Q 241 956 241 2144 
Q 241 3472 731 4075 
Q 1159 4600 1884 4600 
Q 2425 4600 2770 4297 
Q 3116 3994 3184 3459 
z
M 888 1484 
Q 888 1194 1011 928 
Q 1134 663 1356 523 
Q 1578 384 1822 384 
Q 2178 384 2434 671 
Q 2691 959 2691 1453 
Q 2691 1928 2437 2201 
Q 2184 2475 1800 2475 
Q 1419 2475 1153 2201 
Q 888 1928 888 1484 
z
" transform="scale(0.015625)"/>
       </defs>
       <use xlink:href="#ArialMT-30"/>
       <use xlink:href="#ArialMT-2e" transform="translate(55.615234 0)"/>
       <use xlink:href="#ArialMT-36" transform="translate(83.398438 0)"/>
      </g>
     </g>
    </g>
    <g id="xtick_5">
     <g id="line2d_9">
      <path d="M 234.185346 265.022801 
L 234.185346 19.751719 
" clip-path="url(#p64237a5465)" style="fill: none; stroke: #c0c0c0; stroke-width: 0.25; stroke-linecap: round"/>
     </g>
     <g id="line2d_10"/>
     <g id="text_5">
      <!-- 0.8 -->
      <g style="fill: #333333" transform="translate(227.930346 274.964832) scale(0.09 -0.09)">
       <defs>
        <path id="ArialMT-38" d="M 1131 2484 
Q 781 2613 612 2850 
Q 444 3088 444 3419 
Q 444 3919 803 4259 
Q 1163 4600 1759 4600 
Q 2359 4600 2725 4251 
Q 3091 3903 3091 3403 
Q 3091 3084 2923 2848 
Q 2756 2613 2416 2484 
Q 2838 2347 3058 2040 
Q 3278 1734 3278 1309 
Q 3278 722 2862 322 
Q 2447 -78 1769 -78 
Q 1091 -78 675 323 
Q 259 725 259 1325 
Q 259 1772 486 2073 
Q 713 2375 1131 2484 
z
M 1019 3438 
Q 1019 3113 1228 2906 
Q 1438 2700 1772 2700 
Q 2097 2700 2305 2904 
Q 2513 3109 2513 3406 
Q 2513 3716 2298 3927 
Q 2084 4138 1766 4138 
Q 1444 4138 1231 3931 
Q 1019 3725 1019 3438 
z
M 838 1322 
Q 838 1081 952 856 
Q 1066 631 1291 507 
Q 1516 384 1775 384 
Q 2178 384 2440 643 
Q 2703 903 2703 1303 
Q 2703 1709 2433 1975 
Q 2163 2241 1756 2241 
Q 1359 2241 1098 1978 
Q 838 1716 838 1322 
z
" transform="scale(0.015625)"/>
       </defs>
       <use xlink:href="#ArialMT-30"/>
       <use xlink:href="#ArialMT-2e" transform="translate(55.615234 0)"/>
       <use xlink:href="#ArialMT-38" transform="translate(83.398438 0)"/>
      </g>
     </g>
    </g>
    <g id="xtick_6">
     <g id="line2d_11">
      <path d="M 282.023758 265.022801 
L 282.023758 19.751719 
" clip-path="url(#p64237a5465)" style="fill: none; stroke: #c0c0c0; stroke-width: 0.25; stroke-linecap: round"/>
     </g>
     <g id="line2d_12"/>
     <g id="text_6">
      <!-- 1.0 -->
      <g style="fill: #333333" transform="translate(275.768758 274.964832) scale(0.09 -0.09)">
       <defs>
        <path id="ArialMT-31" d="M 2384 0 
L 1822 0 
L 1822 3584 
Q 1619 3391 1289 3197 
Q 959 3003 697 2906 
L 697 3450 
Q 1169 3672 1522 3987 
Q 1875 4303 2022 4600 
L 2384 4600 
L 2384 0 
z
" transform="scale(0.015625)"/>
       </defs>
       <use xlink:href="#ArialMT-31"/>
       <use xlink:href="#ArialMT-2e" transform="translate(55.615234 0)"/>
       <use xlink:href="#ArialMT-30" transform="translate(83.398438 0)"/>
      </g>
     </g>
    </g>
    <g id="text_7">
     <!-- False Positive Rate (FPR) -->
     <g style="fill: #333333" transform="translate(108.165463 287.305301) scale(0.09 -0.09)">
      <defs>
       <path id="Arial-BoldMT-46" d="M 472 0 
L 472 4581 
L 3613 4581 
L 3613 3806 
L 1397 3806 
L 1397 2722 
L 3309 2722 
L 3309 1947 
L 1397 1947 
L 1397 0 
L 472 0 
z
" transform="scale(0.015625)"/>
       <path id="Arial-BoldMT-61" d="M 1116 2306 
L 319 2450 
Q 453 2931 781 3162 
Q 1109 3394 1756 3394 
Q 2344 3394 2631 3255 
Q 2919 3116 3036 2902 
Q 3153 2688 3153 2116 
L 3144 1091 
Q 3144 653 3186 445 
Q 3228 238 3344 0 
L 2475 0 
Q 2441 88 2391 259 
Q 2369 338 2359 363 
Q 2134 144 1878 34 
Q 1622 -75 1331 -75 
Q 819 -75 523 203 
Q 228 481 228 906 
Q 228 1188 362 1408 
Q 497 1628 739 1745 
Q 981 1863 1438 1950 
Q 2053 2066 2291 2166 
L 2291 2253 
Q 2291 2506 2166 2614 
Q 2041 2722 1694 2722 
Q 1459 2722 1328 2630 
Q 1197 2538 1116 2306 
z
M 2291 1594 
Q 2122 1538 1756 1459 
Q 1391 1381 1278 1306 
Q 1106 1184 1106 997 
Q 1106 813 1243 678 
Q 1381 544 1594 544 
Q 1831 544 2047 700 
Q 2206 819 2256 991 
Q 2291 1103 2291 1419 
L 2291 1594 
z
" transform="scale(0.015625)"/>
       <path id="Arial-BoldMT-6c" d="M 459 0 
L 459 4581 
L 1338 4581 
L 1338 0 
L 459 0 
z
" transform="scale(0.015625)"/>
       <path id="Arial-BoldMT-73" d="M 150 947 
L 1031 1081 
Q 1088 825 1259 692 
Q 1431 559 1741 559 
Q 2081 559 2253 684 
Q 2369 772 2369 919 
Q 2369 1019 2306 1084 
Q 2241 1147 2013 1200 
Q 950 1434 666 1628 
Q 272 1897 272 2375 
Q 272 2806 612 3100 
Q 953 3394 1669 3394 
Q 2350 3394 2681 3172 
Q 3013 2950 3138 2516 
L 2309 2363 
Q 2256 2556 2107 2659 
Q 1959 2763 1684 2763 
Q 1338 2763 1188 2666 
Q 1088 2597 1088 2488 
Q 1088 2394 1175 2328 
Q 1294 2241 1995 2081 
Q 2697 1922 2975 1691 
Q 3250 1456 3250 1038 
Q 3250 581 2869 253 
Q 2488 -75 1741 -75 
Q 1063 -75 667 200 
Q 272 475 150 947 
z
" transform="scale(0.015625)"/>
       <path id="Arial-BoldMT-65" d="M 2381 1056 
L 3256 909 
Q 3088 428 2723 176 
Q 2359 -75 1813 -75 
Q 947 -75 531 491 
Q 203 944 203 1634 
Q 203 2459 634 2926 
Q 1066 3394 1725 3394 
Q 2466 3394 2894 2905 
Q 3322 2416 3303 1406 
L 1103 1406 
Q 1113 1016 1316 798 
Q 1519 581 1822 581 
Q 2028 581 2168 693 
Q 2309 806 2381 1056 
z
M 2431 1944 
Q 2422 2325 2234 2523 
Q 2047 2722 1778 2722 
Q 1491 2722 1303 2513 
Q 1116 2303 1119 1944 
L 2431 1944 
z
" transform="scale(0.015625)"/>
       <path id="Arial-BoldMT-20" transform="scale(0.015625)"/>
       <path id="Arial-BoldMT-50" d="M 466 0 
L 466 4581 
L 1950 4581 
Q 2794 4581 3050 4513 
Q 3444 4409 3709 4064 
Q 3975 3719 3975 3172 
Q 3975 2750 3822 2462 
Q 3669 2175 3433 2011 
Q 3197 1847 2953 1794 
Q 2622 1728 1994 1728 
L 1391 1728 
L 1391 0 
L 466 0 
z
M 1391 3806 
L 1391 2506 
L 1897 2506 
Q 2444 2506 2628 2578 
Q 2813 2650 2917 2803 
Q 3022 2956 3022 3159 
Q 3022 3409 2875 3571 
Q 2728 3734 2503 3775 
Q 2338 3806 1838 3806 
L 1391 3806 
z
" transform="scale(0.015625)"/>
       <path id="Arial-BoldMT-6f" d="M 256 1706 
Q 256 2144 472 2553 
Q 688 2963 1083 3178 
Q 1478 3394 1966 3394 
Q 2719 3394 3200 2905 
Q 3681 2416 3681 1669 
Q 3681 916 3195 420 
Q 2709 -75 1972 -75 
Q 1516 -75 1102 131 
Q 688 338 472 736 
Q 256 1134 256 1706 
z
M 1156 1659 
Q 1156 1166 1390 903 
Q 1625 641 1969 641 
Q 2313 641 2545 903 
Q 2778 1166 2778 1666 
Q 2778 2153 2545 2415 
Q 2313 2678 1969 2678 
Q 1625 2678 1390 2415 
Q 1156 2153 1156 1659 
z
" transform="scale(0.015625)"/>
       <path id="Arial-BoldMT-69" d="M 459 3769 
L 459 4581 
L 1338 4581 
L 1338 3769 
L 459 3769 
z
M 459 0 
L 459 3319 
L 1338 3319 
L 1338 0 
L 459 0 
z
" transform="scale(0.015625)"/>
       <path id="Arial-BoldMT-74" d="M 1981 3319 
L 1981 2619 
L 1381 2619 
L 1381 1281 
Q 1381 875 1398 808 
Q 1416 741 1477 697 
Q 1538 653 1625 653 
Q 1747 653 1978 738 
L 2053 56 
Q 1747 -75 1359 -75 
Q 1122 -75 931 4 
Q 741 84 652 211 
Q 563 338 528 553 
Q 500 706 500 1172 
L 500 2619 
L 97 2619 
L 97 3319 
L 500 3319 
L 500 3978 
L 1381 4491 
L 1381 3319 
L 1981 3319 
z
" transform="scale(0.015625)"/>
       <path id="Arial-BoldMT-76" d="M 1372 0 
L 34 3319 
L 956 3319 
L 1581 1625 
L 1763 1059 
Q 1834 1275 1853 1344 
Q 1897 1484 1947 1625 
L 2578 3319 
L 3481 3319 
L 2163 0 
L 1372 0 
z
" transform="scale(0.015625)"/>
       <path id="Arial-BoldMT-52" d="M 469 0 
L 469 4581 
L 2416 4581 
Q 3150 4581 3483 4457 
Q 3816 4334 4016 4018 
Q 4216 3703 4216 3297 
Q 4216 2781 3912 2445 
Q 3609 2109 3006 2022 
Q 3306 1847 3501 1637 
Q 3697 1428 4028 894 
L 4588 0 
L 3481 0 
L 2813 997 
Q 2456 1531 2325 1670 
Q 2194 1809 2047 1861 
Q 1900 1913 1581 1913 
L 1394 1913 
L 1394 0 
L 469 0 
z
M 1394 2644 
L 2078 2644 
Q 2744 2644 2909 2700 
Q 3075 2756 3169 2893 
Q 3263 3031 3263 3238 
Q 3263 3469 3139 3611 
Q 3016 3753 2791 3791 
Q 2678 3806 2116 3806 
L 1394 3806 
L 1394 2644 
z
" transform="scale(0.015625)"/>
       <path id="Arial-BoldMT-28" d="M 1916 -1347 
L 1313 -1347 
Q 834 -625 584 153 
Q 334 931 334 1659 
Q 334 2563 644 3369 
Q 913 4069 1325 4659 
L 1925 4659 
Q 1497 3713 1336 3048 
Q 1175 2384 1175 1641 
Q 1175 1128 1270 590 
Q 1366 53 1531 -431 
Q 1641 -750 1916 -1347 
z
" transform="scale(0.015625)"/>
       <path id="Arial-BoldMT-29" d="M 216 -1347 
Q 475 -791 581 -494 
Q 688 -197 778 190 
Q 869 578 912 926 
Q 956 1275 956 1641 
Q 956 2384 797 3048 
Q 638 3713 209 4659 
L 806 4659 
Q 1278 3988 1539 3234 
Q 1800 2481 1800 1706 
Q 1800 1053 1594 306 
Q 1359 -531 822 -1347 
L 216 -1347 
z
" transform="scale(0.015625)"/>
      </defs>
      <use xlink:href="#Arial-BoldMT-46"/>
      <use xlink:href="#Arial-BoldMT-61" transform="translate(61.083984 0)"/>
      <use xlink:href="#Arial-BoldMT-6c" transform="translate(116.699219 0)"/>
      <use xlink:href="#Arial-BoldMT-73" transform="translate(144.482422 0)"/>
      <use xlink:href="#Arial-BoldMT-65" transform="translate(200.097656 0)"/>
      <use xlink:href="#Arial-BoldMT-20" transform="translate(255.712891 0)"/>
      <use xlink:href="#Arial-BoldMT-50" transform="translate(283.496094 0)"/>
      <use xlink:href="#Arial-BoldMT-6f" transform="translate(350.195312 0)"/>
      <use xlink:href="#Arial-BoldMT-73" transform="translate(411.279297 0)"/>
      <use xlink:href="#Arial-BoldMT-69" transform="translate(466.894531 0)"/>
      <use xlink:href="#Arial-BoldMT-74" transform="translate(494.677734 0)"/>
      <use xlink:href="#Arial-BoldMT-69" transform="translate(527.978516 0)"/>
      <use xlink:href="#Arial-BoldMT-76" transform="translate(555.761719 0)"/>
      <use xlink:href="#Arial-BoldMT-65" transform="translate(611.376953 0)"/>
      <use xlink:href="#Arial-BoldMT-20" transform="translate(666.992188 0)"/>
      <use xlink:href="#Arial-BoldMT-52" transform="translate(694.775391 0)"/>
      <use xlink:href="#Arial-BoldMT-61" transform="translate(766.992188 0)"/>
      <use xlink:href="#Arial-BoldMT-74" transform="translate(822.607422 0)"/>
      <use xlink:href="#Arial-BoldMT-65" transform="translate(855.908203 0)"/>
      <use xlink:href="#Arial-BoldMT-20" transform="translate(911.523438 0)"/>
      <use xlink:href="#Arial-BoldMT-28" transform="translate(939.306641 0)"/>
      <use xlink:href="#Arial-BoldMT-46" transform="translate(972.607422 0)"/>
      <use xlink:href="#Arial-BoldMT-50" transform="translate(1033.691406 0)"/>
      <use xlink:href="#Arial-BoldMT-52" transform="translate(1100.390625 0)"/>
      <use xlink:href="#Arial-BoldMT-29" transform="translate(1172.607422 0)"/>
     </g>
    </g>
   </g>
   <g id="matplotlib.axis_2">
    <g id="ytick_1">
     <g id="line2d_13">
      <path d="M 35.655938 265.022801 
L 289.19952 265.022801 
" clip-path="url(#p64237a5465)" style="fill: none; stroke: #c0c0c0; stroke-width: 0.25; stroke-linecap: round"/>
     </g>
     <g id="line2d_14"/>
     <g id="text_8">
      <!-- 0.0 -->
      <g style="fill: #333333" transform="translate(19.645938 268.243817) scale(0.09 -0.09)">
       <use xlink:href="#ArialMT-30"/>
       <use xlink:href="#ArialMT-2e" transform="translate(55.615234 0)"/>
       <use xlink:href="#ArialMT-30" transform="translate(83.398438 0)"/>
      </g>
     </g>
    </g>
    <g id="ytick_2">
     <g id="line2d_15">
      <path d="M 35.655938 217.397348 
L 289.19952 217.397348 
" clip-path="url(#p64237a5465)" style="fill: none; stroke: #c0c0c0; stroke-width: 0.25; stroke-linecap: round"/>
     </g>
     <g id="line2d_16"/>
     <g id="text_9">
      <!-- 0.2 -->
      <g style="fill: #333333" transform="translate(19.645938 220.618364) scale(0.09 -0.09)">
       <use xlink:href="#ArialMT-30"/>
       <use xlink:href="#ArialMT-2e" transform="translate(55.615234 0)"/>
       <use xlink:href="#ArialMT-32" transform="translate(83.398438 0)"/>
      </g>
     </g>
    </g>
    <g id="ytick_3">
     <g id="line2d_17">
      <path d="M 35.655938 169.771895 
L 289.19952 169.771895 
" clip-path="url(#p64237a5465)" style="fill: none; stroke: #c0c0c0; stroke-width: 0.25; stroke-linecap: round"/>
     </g>
     <g id="line2d_18"/>
     <g id="text_10">
      <!-- 0.4 -->
      <g style="fill: #333333" transform="translate(19.645938 172.992911) scale(0.09 -0.09)">
       <use xlink:href="#ArialMT-30"/>
       <use xlink:href="#ArialMT-2e" transform="translate(55.615234 0)"/>
       <use xlink:href="#ArialMT-34" transform="translate(83.398438 0)"/>
      </g>
     </g>
    </g>
    <g id="ytick_4">
     <g id="line2d_19">
      <path d="M 35.655938 122.146443 
L 289.19952 122.146443 
" clip-path="url(#p64237a5465)" style="fill: none; stroke: #c0c0c0; stroke-width: 0.25; stroke-linecap: round"/>
     </g>
     <g id="line2d_20"/>
     <g id="text_11">
      <!-- 0.6 -->
      <g style="fill: #333333" transform="translate(19.645938 125.367458) scale(0.09 -0.09)">
       <use xlink:href="#ArialMT-30"/>
       <use xlink:href="#ArialMT-2e" transform="translate(55.615234 0)"/>
       <use xlink:href="#ArialMT-36" transform="translate(83.398438 0)"/>
      </g>
     </g>
    </g>
    <g id="ytick_5">
     <g id="line2d_21">
      <path d="M 35.655938 74.52099 
L 289.19952 74.52099 
" clip-path="url(#p64237a5465)" style="fill: none; stroke: #c0c0c0; stroke-width: 0.25; stroke-linecap: round"/>
     </g>
     <g id="line2d_22"/>
     <g id="text_12">
      <!-- 0.8 -->
      <g style="fill: #333333" transform="translate(19.645938 77.742005) scale(0.09 -0.09)">
       <use xlink:href="#ArialMT-30"/>
       <use xlink:href="#ArialMT-2e" transform="translate(55.615234 0)"/>
       <use xlink:href="#ArialMT-38" transform="translate(83.398438 0)"/>
      </g>
     </g>
    </g>
    <g id="ytick_6">
     <g id="line2d_23">
      <path d="M 35.655938 26.895537 
L 289.19952 26.895537 
" clip-path="url(#p64237a5465)" style="fill: none; stroke: #c0c0c0; stroke-width: 0.25; stroke-linecap: round"/>
     </g>
     <g id="line2d_24"/>
     <g id="text_13">
      <!-- 1.0 -->
      <g style="fill: #333333" transform="translate(19.645938 30.116552) scale(0.09 -0.09)">
       <use xlink:href="#ArialMT-31"/>
       <use xlink:href="#ArialMT-2e" transform="translate(55.615234 0)"/>
       <use xlink:href="#ArialMT-30" transform="translate(83.398438 0)"/>
      </g>
     </g>
    </g>
    <g id="text_14">
     <!-- True Positive Rate (TPR) -->
     <g style="fill: #333333" transform="translate(13.751719 194.647026) rotate(-90) scale(0.09 -0.09)">
      <defs>
       <path id="Arial-BoldMT-54" d="M 1497 0 
L 1497 3806 
L 138 3806 
L 138 4581 
L 3778 4581 
L 3778 3806 
L 2422 3806 
L 2422 0 
L 1497 0 
z
" transform="scale(0.015625)"/>
       <path id="Arial-BoldMT-72" d="M 1300 0 
L 422 0 
L 422 3319 
L 1238 3319 
L 1238 2847 
Q 1447 3181 1614 3287 
Q 1781 3394 1994 3394 
Q 2294 3394 2572 3228 
L 2300 2463 
Q 2078 2606 1888 2606 
Q 1703 2606 1575 2504 
Q 1447 2403 1373 2137 
Q 1300 1872 1300 1025 
L 1300 0 
z
" transform="scale(0.015625)"/>
       <path id="Arial-BoldMT-75" d="M 2644 0 
L 2644 497 
Q 2463 231 2167 78 
Q 1872 -75 1544 -75 
Q 1209 -75 943 72 
Q 678 219 559 484 
Q 441 750 441 1219 
L 441 3319 
L 1319 3319 
L 1319 1794 
Q 1319 1094 1367 936 
Q 1416 778 1544 686 
Q 1672 594 1869 594 
Q 2094 594 2272 717 
Q 2450 841 2515 1023 
Q 2581 1206 2581 1919 
L 2581 3319 
L 3459 3319 
L 3459 0 
L 2644 0 
z
" transform="scale(0.015625)"/>
      </defs>
      <use xlink:href="#Arial-BoldMT-54"/>
      <use xlink:href="#Arial-BoldMT-72" transform="translate(55.583984 0)"/>
      <use xlink:href="#Arial-BoldMT-75" transform="translate(94.5 0)"/>
      <use xlink:href="#Arial-BoldMT-65" transform="translate(155.583984 0)"/>
      <use xlink:href="#Arial-BoldMT-20" transform="translate(211.199219 0)"/>
      <use xlink:href="#Arial-BoldMT-50" transform="translate(238.982422 0)"/>
      <use xlink:href="#Arial-BoldMT-6f" transform="translate(305.681641 0)"/>
      <use xlink:href="#Arial-BoldMT-73" transform="translate(366.765625 0)"/>
      <use xlink:href="#Arial-BoldMT-69" transform="translate(422.380859 0)"/>
      <use xlink:href="#Arial-BoldMT-74" transform="translate(450.164062 0)"/>
      <use xlink:href="#Arial-BoldMT-69" transform="translate(483.464844 0)"/>
      <use xlink:href="#Arial-BoldMT-76" transform="translate(511.248047 0)"/>
      <use xlink:href="#Arial-BoldMT-65" transform="translate(566.863281 0)"/>
      <use xlink:href="#Arial-BoldMT-20" transform="translate(622.478516 0)"/>
      <use xlink:href="#Arial-BoldMT-52" transform="translate(650.261719 0)"/>
      <use xlink:href="#Arial-BoldMT-61" transform="translate(722.478516 0)"/>
      <use xlink:href="#Arial-BoldMT-74" transform="translate(778.09375 0)"/>
      <use xlink:href="#Arial-BoldMT-65" transform="translate(811.394531 0)"/>
      <use xlink:href="#Arial-BoldMT-20" transform="translate(867.009766 0)"/>
      <use xlink:href="#Arial-BoldMT-28" transform="translate(894.792969 0)"/>
      <use xlink:href="#Arial-BoldMT-54" transform="translate(928.09375 0)"/>
      <use xlink:href="#Arial-BoldMT-50" transform="translate(989.177734 0)"/>
      <use xlink:href="#Arial-BoldMT-52" transform="translate(1055.876953 0)"/>
      <use xlink:href="#Arial-BoldMT-29" transform="translate(1128.09375 0)"/>
     </g>
    </g>
   </g>
   <g id="line2d_25">
    <path d="M 42.831699 265.022801 
L 42.942372 242.159375 
L 42.94413 242.070239 
L 43.054304 232.04242 
L 43.05637 231.953284 
L 43.166734 226.025729 
L 43.169632 225.936593 
L 43.278785 220.722127 
L 43.288594 220.632991 
L 43.399623 216.488159 
L 43.409431 216.399023 
L 43.514238 213.546666 
L 43.523049 213.45753 
L 43.632582 210.694309 
L 43.636169 210.605173 
L 43.746224 208.198496 
L 43.755439 208.10936 
L 43.860412 205.301571 
L 43.878153 205.212435 
L 43.989206 202.627486 
L 43.994075 202.53835 
L 44.103893 200.399082 
L 44.108904 200.309946 
L 44.213663 198.081541 
L 44.228127 197.992405 
L 44.337802 196.03141 
L 44.345093 195.942273 
L 44.456194 194.025846 
L 44.465242 193.93671 
L 44.572685 192.109418 
L 44.582066 192.020282 
L 44.688013 190.549535 
L 44.697727 190.460399 
L 44.803104 188.945084 
L 44.821462 188.855948 
L 44.930853 187.073225 
L 44.937241 186.984089 
L 45.044946 184.978525 
L 45.054065 184.889389 
L 45.158279 183.418642 
L 45.173858 183.329506 
L 45.284365 181.769623 
L 45.29377 181.680487 
L 45.392473 180.20974 
L 45.421068 180.120604 
L 45.521623 178.961834 
L 45.569312 178.872698 
L 45.674048 177.713928 
L 45.68578 177.624792 
L 45.792582 176.466021 
L 45.802438 176.376885 
L 45.912731 175.039843 
L 45.925366 174.950707 
L 46.033498 173.7028 
L 46.051785 173.613664 
L 46.161104 172.811439 
L 46.181814 172.722302 
L 46.292914 171.429828 
L 46.303198 171.340692 
L 46.402756 170.404762 
L 46.412731 170.404762 
L 46.42444 170.315626 
L 46.535255 169.825377 
L 46.554658 169.736241 
L 46.665688 168.443767 
L 46.684569 168.35463 
L 46.790634 167.463269 
L 46.791014 167.463269 
L 46.815191 167.374133 
L 46.925318 166.794748 
L 46.947239 166.705611 
L 47.038983 166.03709 
L 47.074323 165.947954 
L 47.185257 164.967456 
L 47.203972 164.87832 
L 47.303625 164.031526 
L 47.310132 164.031526 
L 47.323717 163.94239 
L 47.421375 162.78362 
L 47.433345 162.78362 
L 47.458805 162.694484 
L 47.557437 161.758554 
L 47.592634 161.669418 
L 47.699032 160.68892 
L 47.713851 160.599784 
L 47.824881 159.75299 
L 47.83457 159.663854 
L 47.943343 158.727925 
L 47.968162 158.638788 
L 48.072731 157.702859 
L 48.095863 157.613723 
L 48.204684 156.633225 
L 48.219693 156.544089 
L 48.321769 155.786431 
L 48.358628 155.697295 
L 48.465525 155.028774 
L 48.512146 154.939638 
L 48.621251 154.048276 
L 48.651318 153.95914 
L 48.76059 153.468891 
L 48.776122 153.379755 
L 48.886225 152.443825 
L 48.909072 152.354689 
L 49.006707 151.463327 
L 49.018629 151.463327 
L 49.038412 151.374191 
L 49.148682 150.482829 
L 49.154524 150.393693 
L 49.265102 149.76974 
L 49.288994 149.680604 
L 49.383802 149.145787 
L 49.450278 149.056651 
L 49.557008 148.298993 
L 49.576958 148.209857 
L 49.680411 147.184791 
L 49.683617 147.184791 
L 49.702023 147.095655 
L 49.809419 146.29343 
L 49.823122 146.204293 
L 49.933653 145.535772 
L 49.950135 145.446636 
L 50.05829 144.778115 
L 50.075675 144.688979 
L 50.175518 144.020457 
L 50.201809 143.931321 
L 50.304098 143.173664 
L 50.304882 143.173664 
L 50.322101 143.084528 
L 50.416386 142.638847 
L 50.451892 142.594279 
L 50.558219 141.881189 
L 50.619896 141.792053 
L 50.730023 141.212668 
L 50.742421 141.123532 
L 50.852405 140.499579 
L 50.853521 140.499579 
L 50.880026 140.410443 
L 50.974763 139.920194 
L 50.990532 139.920194 
L 51.005495 139.831058 
L 51.109066 139.207104 
L 51.111228 139.207104 
L 51.140701 139.117968 
L 51.241542 138.494015 
L 51.247241 138.494015 
L 51.286666 138.404879 
L 51.367201 137.91463 
L 51.416053 137.825494 
L 51.51516 137.335245 
L 51.554205 137.246109 
L 51.656423 136.622156 
L 51.664545 136.622156 
L 51.700098 136.53302 
L 51.806283 135.864498 
L 51.826137 135.775362 
L 51.920376 135.285113 
L 51.954171 135.195977 
L 52.056983 134.616592 
L 52.099234 134.527456 
L 52.210215 134.126343 
L 52.225795 134.037207 
L 52.330317 133.72523 
L 52.349839 133.636094 
L 52.457045 132.923005 
L 52.500578 132.833869 
L 52.578167 132.299052 
L 52.639394 132.209916 
L 52.743892 131.764235 
L 52.7632 131.675099 
L 52.861001 131.273986 
L 52.861334 131.273986 
L 52.895082 131.18485 
L 52.997276 130.739169 
L 53.026274 130.650033 
L 53.133052 130.24892 
L 53.197556 130.159784 
L 53.304334 129.624967 
L 53.33566 129.535831 
L 53.429875 129.179286 
L 53.469299 129.09015 
L 53.578903 128.466197 
L 53.620489 128.37706 
L 53.730069 128.020516 
L 53.758331 127.93138 
L 53.866154 127.307426 
L 53.886793 127.21829 
L 53.986683 126.683473 
L 53.992122 126.683473 
L 54.017795 126.594337 
L 54.112081 126.104088 
L 54.145259 126.014952 
L 54.233465 125.524703 
L 54.265432 125.435567 
L 54.357889 125.079022 
L 54.37069 125.079022 
L 54.443601 124.989886 
L 54.539526 124.365933 
L 54.56736 124.276797 
L 54.65616 124.009388 
L 54.674447 124.009388 
L 54.773697 123.920252 
L 54.881805 123.474571 
L 54.914009 123.385435 
L 55.019457 122.939754 
L 55.070733 122.850618 
L 55.165422 122.404937 
L 55.20164 122.315801 
L 55.257808 122.048393 
L 55.386032 121.959257 
L 55.48179 121.513576 
L 55.496396 121.513576 
L 55.582868 121.42444 
L 55.692069 121.023327 
L 55.738832 120.934191 
L 55.842736 120.48851 
L 55.889143 120.399374 
L 55.988202 119.953693 
L 56.016322 119.864557 
L 56.119799 119.240604 
L 56.125807 119.240604 
L 56.163522 119.151467 
L 56.272128 118.661218 
L 56.286948 118.572082 
L 56.394059 118.304674 
L 56.441985 118.215538 
L 56.535345 117.858993 
L 56.545628 117.858993 
L 56.62785 117.769857 
L 56.72812 117.413312 
L 56.736124 117.413312 
L 56.775168 117.324176 
L 56.854563 116.744791 
L 56.876389 116.744791 
L 56.906218 116.655655 
L 56.981124 116.120838 
L 56.991075 116.120838 
L 57.048312 116.031702 
L 57.112246 115.764293 
L 57.154306 115.764293 
L 57.180882 115.675157 
L 57.288349 115.184908 
L 57.314141 115.095772 
L 57.42213 114.783795 
L 57.568 114.694659 
L 57.676678 114.338114 
L 57.677581 114.338114 
L 57.707458 114.248978 
L 57.811338 113.892434 
L 57.818534 113.892434 
L 57.880402 113.803297 
L 57.979366 113.402185 
L 58.010787 113.313049 
L 58.120843 112.956504 
L 58.188125 112.867368 
L 58.294927 112.599959 
L 58.347105 112.510823 
L 58.449014 112.020574 
L 58.547266 111.931438 
L 58.642098 111.574893 
L 58.709191 111.485757 
L 58.80578 111.129213 
L 58.817655 111.129213 
L 58.890994 111.040076 
L 58.994494 110.505259 
L 59.143499 110.416123 
L 59.237832 110.059579 
L 59.338483 109.970442 
L 59.444454 109.658466 
L 59.599776 109.56933 
L 59.677983 109.257353 
L 59.692281 109.257353 
L 59.746643 109.168217 
L 59.855298 108.900808 
L 59.884248 108.811672 
L 59.981147 108.321423 
L 59.992404 108.321423 
L 60.099372 108.232287 
L 60.196056 107.69747 
L 60.209499 107.69747 
L 60.262959 107.608334 
L 60.344278 107.207221 
L 60.356651 107.207221 
L 60.379831 107.118085 
L 60.487867 106.583268 
L 60.544629 106.494132 
L 60.654851 106.093019 
L 60.68544 106.003883 
L 60.771366 105.60277 
L 60.813925 105.513634 
L 60.922746 104.934249 
L 60.98326 104.845113 
L 61.081464 104.577704 
L 61.090014 104.577704 
L 61.183184 104.488568 
L 61.227144 104.399432 
L 61.345393 104.310296 
L 61.443479 103.909183 
L 61.594289 103.820047 
L 61.700307 103.329798 
L 61.86064 103.240662 
L 61.918827 102.973253 
L 62.01696 102.884117 
L 62.117991 102.527573 
L 62.126873 102.527573 
L 62.174301 102.438436 
L 62.252104 102.304732 
L 62.281411 102.304732 
L 62.376291 102.215596 
L 62.485088 101.992756 
L 62.652926 101.903619 
L 62.754455 101.769915 
L 62.812167 101.680779 
L 62.874129 101.547075 
L 62.887073 101.547075 
L 63.124236 101.457939 
L 63.200971 101.235098 
L 63.230041 101.235098 
L 63.319695 101.145962 
L 63.429869 100.923122 
L 63.452954 100.833985 
L 63.452954 100.789417 
L 63.531731 100.789417 
L 63.583885 100.700281 
L 63.67411 100.477441 
L 63.692872 100.477441 
L 63.822189 100.388305 
L 63.89947 100.120896 
L 63.918636 100.120896 
L 63.974233 100.03176 
L 64.083006 99.80892 
L 64.132952 99.719783 
L 64.224126 99.318671 
L 64.251415 99.229535 
L 64.325347 99.09583 
L 64.353158 99.09583 
L 64.408756 99.006694 
L 64.492782 98.739286 
L 64.504086 98.739286 
L 64.567688 98.650149 
L 64.651429 98.382741 
L 64.678788 98.382741 
L 64.785281 98.293605 
L 64.889518 98.115332 
L 64.893793 98.115332 
L 64.974162 98.026196 
L 65.00962 97.892492 
L 65.08056 97.892492 
L 65.123356 97.803356 
L 65.214602 97.580515 
L 65.234006 97.580515 
L 65.263598 97.491379 
L 65.345866 97.268539 
L 65.3495 97.268539 
L 65.494681 97.179403 
L 65.51057 97.090267 
L 65.567687 97.090267 
L 65.722843 97.00113 
L 65.819504 96.733722 
L 65.867098 96.644586 
L 65.964733 96.288041 
L 66.072959 96.198905 
L 66.178312 95.797792 
L 66.228638 95.708656 
L 66.320145 95.352111 
L 66.330333 95.352111 
L 66.390254 95.262975 
L 66.483423 94.995567 
L 66.485181 94.995567 
L 66.557142 94.906431 
L 66.599986 94.728158 
L 66.653898 94.728158 
L 66.712013 94.639022 
L 66.803164 94.371614 
L 66.804185 94.371614 
L 66.883271 94.282477 
L 66.993564 94.104205 
L 67.06752 94.015069 
L 67.155417 93.658524 
L 67.169857 93.658524 
L 67.323398 93.569388 
L 67.40835 93.435684 
L 67.417541 93.435684 
L 67.491213 93.346548 
L 67.554956 93.212843 
L 67.595521 93.212843 
L 67.665606 93.123707 
L 67.751247 92.856299 
L 67.772241 92.856299 
L 67.937111 92.767163 
L 68.005818 92.633458 
L 68.032347 92.633458 
L 68.116824 92.544322 
L 68.224481 92.321482 
L 68.314468 92.232346 
L 68.328527 92.143209 
L 68.407067 92.143209 
L 68.55365 92.054073 
L 68.616254 91.920369 
L 68.663349 91.920369 
L 68.756899 91.831233 
L 68.843537 91.519256 
L 68.846672 91.519256 
L 68.90987 91.43012 
L 69.014296 91.162712 
L 69.120979 91.073575 
L 69.227615 90.806167 
L 69.326342 90.717031 
L 69.409323 90.49419 
L 69.435353 90.49419 
L 69.556879 90.405054 
L 69.663918 90.003941 
L 69.706145 89.914805 
L 69.782856 89.602829 
L 69.811142 89.602829 
L 69.896522 89.513693 
L 69.985203 89.290852 
L 69.985678 89.290852 
L 70.090936 89.201716 
L 70.186742 88.934307 
L 70.327576 88.845171 
L 70.338715 88.756035 
L 70.405784 88.756035 
L 70.477721 88.666899 
L 70.585093 88.444059 
L 70.585948 88.444059 
L 70.675104 88.354922 
L 70.772596 88.087514 
L 70.965442 87.998378 
L 71.069086 87.641833 
L 71.156175 87.552697 
L 71.239489 87.374425 
L 71.264901 87.374425 
L 71.279649 87.285288 
L 71.382437 87.062448 
L 71.448224 86.973312 
L 71.531514 86.705903 
L 71.790004 86.616767 
L 71.882841 86.438495 
L 71.886166 86.438495 
L 71.975654 86.349359 
L 72.05759 86.126518 
L 72.382746 86.037382 
L 72.491851 85.814542 
L 72.633636 85.725406 
L 72.735379 85.591701 
L 73.04619 85.502565 
L 73.149548 85.190589 
L 73.150807 85.190589 
L 73.488526 85.101452 
L 73.536429 84.92318 
L 73.587039 84.92318 
L 73.648883 84.834044 
L 73.723433 84.655772 
L 73.80487 84.566635 
L 73.87201 84.388363 
L 73.905948 84.388363 
L 73.969763 84.299227 
L 74.058444 84.210091 
L 74.15558 84.120955 
L 74.259817 83.808978 
L 74.260624 83.808978 
L 74.372437 83.719842 
L 74.467673 83.452433 
L 74.638884 83.363297 
L 74.716117 83.185025 
L 74.737825 83.185025 
L 74.851276 83.095889 
L 74.889822 82.962184 
L 74.957651 82.962184 
L 75.045548 82.873048 
L 75.13601 82.739344 
L 75.152848 82.739344 
L 75.213148 82.650208 
L 75.294182 82.338231 
L 75.299502 82.338231 
L 75.439553 82.249095 
L 75.512963 82.159959 
L 75.587418 82.070823 
L 75.694505 81.847982 
L 75.824771 81.758846 
L 75.901649 81.536006 
L 75.922596 81.536006 
L 76.074522 81.44687 
L 76.139928 81.313165 
L 76.168214 81.313165 
L 76.215855 81.224029 
L 76.312041 80.912053 
L 76.498428 80.822916 
L 76.577395 80.644644 
L 76.592524 80.644644 
L 76.661682 80.555508 
L 76.737824 80.377236 
L 76.770265 80.377236 
L 76.873766 80.288099 
L 76.977955 80.109827 
L 77.021465 80.020691 
L 77.125844 79.753282 
L 77.286035 79.664146 
L 77.340255 79.530442 
L 77.389227 79.530442 
L 77.411504 79.441306 
L 77.429102 79.35217 
L 77.517166 79.35217 
L 77.637291 79.263034 
L 77.710084 79.084761 
L 77.748059 79.084761 
L 77.897966 78.995625 
L 77.99154 78.861921 
L 78.006811 78.861921 
L 78.035239 78.772785 
L 78.134702 78.549944 
L 78.392884 78.460808 
L 78.493416 78.282536 
L 78.53949 78.1934 
L 78.576397 78.059695 
L 78.634607 78.059695 
L 78.72514 77.970559 
L 78.813655 77.881423 
L 78.832227 77.881423 
L 78.976102 77.792287 
L 79.006264 77.614015 
L 79.063049 77.614015 
L 79.21849 77.524878 
L 79.325031 77.391174 
L 79.428508 77.302038 
L 79.530393 77.034629 
L 79.86702 76.945493 
L 79.86702 76.900925 
L 79.953658 76.900925 
L 80.236278 76.811789 
L 80.293966 76.633517 
L 80.51486 76.544381 
L 80.599314 76.410676 
L 80.617696 76.410676 
L 80.832464 76.32154 
L 80.936344 76.054132 
L 80.938007 76.054132 
L 81.098126 75.964995 
L 81.191795 75.742155 
L 81.341726 75.653019 
L 81.395993 75.563883 
L 81.424849 75.563883 
L 81.486883 75.474747 
L 81.587272 75.296474 
L 81.893096 75.207338 
L 81.980399 75.073634 
L 82.134629 74.984498 
L 82.183387 74.850793 
L 82.218702 74.850793 
L 82.448242 74.761657 
L 82.448242 74.717089 
L 82.510965 74.717089 
L 82.695546 74.627953 
L 82.695546 74.583385 
L 82.799926 74.583385 
L 82.970234 74.494249 
L 83.063665 74.360545 
L 83.148047 74.271408 
L 83.250502 74.093136 
L 83.252426 74.093136 
L 83.383833 74.004 
L 83.485314 73.825728 
L 83.490231 73.825728 
L 83.541648 73.736591 
L 83.632799 73.602887 
L 83.643748 73.602887 
L 83.781495 73.513751 
L 83.805245 73.424615 
L 83.982512 73.335479 
L 84.058368 73.201774 
L 84.08948 73.201774 
L 84.440926 73.112638 
L 84.529844 72.934366 
L 84.839159 72.84523 
L 84.898889 72.666957 
L 84.945201 72.666957 
L 85.119831 72.577821 
L 85.182696 72.488685 
L 85.228889 72.488685 
L 85.372218 72.399549 
L 85.422567 72.265845 
L 85.650682 72.176708 
L 85.650682 72.13214 
L 85.732024 72.13214 
L 86.026044 72.043004 
L 86.112468 71.864732 
L 86.129782 71.864732 
L 86.354904 71.775596 
L 86.416795 71.641891 
L 86.559649 71.552755 
L 86.66714 71.419051 
L 86.770094 71.329915 
L 86.778644 71.240779 
L 86.831558 71.240779 
L 87.242829 71.151643 
L 87.271163 71.062506 
L 87.314316 71.062506 
L 87.525045 70.97337 
L 87.607575 70.75053 
L 87.829444 70.661394 
L 87.829444 70.616826 
L 87.905965 70.616826 
L 88.022148 70.527689 
L 88.130707 70.304849 
L 88.348467 70.215713 
L 88.439926 70.082009 
L 88.555682 69.992872 
L 88.618666 69.859168 
L 88.823743 69.770032 
L 88.823743 69.725464 
L 88.890266 69.725464 
L 89.162768 69.636328 
L 89.218675 69.502624 
L 89.247008 69.502624 
L 89.470135 69.413487 
L 89.581022 69.146079 
L 89.7766 69.056943 
L 89.867608 68.967807 
L 89.883283 68.967807 
L 89.957572 68.87867 
L 90.064468 68.789534 
L 90.131062 68.700398 
L 90.211431 68.43299 
L 90.335807 68.343853 
L 90.400881 68.165581 
L 90.444462 68.165581 
L 90.620303 68.076445 
L 90.706776 67.942741 
L 91.136785 67.853604 
L 91.136785 67.809036 
L 91.221049 67.809036 
L 91.57639 67.7199 
L 91.651249 67.586196 
L 91.652887 67.586196 
L 91.922279 67.49706 
L 92.018393 67.318787 
L 92.032429 67.318787 
L 92.494525 67.229651 
L 92.597455 67.051379 
L 92.669155 66.962243 
L 92.764082 66.739402 
L 92.776788 66.739402 
L 92.98569 66.650266 
L 93.084369 66.56113 
L 93.15063 66.471994 
L 93.215989 66.382858 
L 93.259261 66.382858 
L 93.321509 66.293722 
L 93.430994 66.160017 
L 93.486449 66.070881 
L 93.585414 65.892609 
L 93.739192 65.803473 
L 93.823741 65.669768 
L 93.826947 65.669768 
L 94.224942 65.580632 
L 94.285931 65.491496 
L 94.328253 65.491496 
L 94.370551 65.40236 
L 94.370551 65.357792 
L 94.426529 65.357792 
L 94.646568 65.268656 
L 94.724515 65.090383 
L 94.748882 65.090383 
L 94.895773 65.001247 
L 94.988301 64.822975 
L 95.085936 64.733839 
L 95.152957 64.600134 
L 95.157113 64.600134 
L 95.233824 64.510998 
L 95.252444 64.421862 
L 95.304788 64.421862 
L 95.597834 64.332726 
L 95.597834 64.288158 
L 95.685232 64.288158 
L 95.931278 64.199022 
L 96.034137 64.109886 
L 96.317588 64.020749 
L 96.389906 63.931613 
L 96.485759 63.842477 
L 96.485759 63.797909 
L 96.553635 63.797909 
L 97.086267 63.708773 
L 97.15127 63.575069 
L 97.707865 63.485932 
L 97.707865 63.441364 
L 97.760945 63.441364 
L 97.98184 63.352228 
L 97.98184 63.30766 
L 98.076078 63.30766 
L 98.28315 63.218524 
L 98.28315 63.173956 
L 98.650034 63.08482 
L 98.701689 62.995683 
L 98.702283 62.995683 
L 99.021311 62.906547 
L 99.113293 62.772843 
L 99.240662 62.683707 
L 99.240662 62.639139 
L 99.348627 62.639139 
L 99.51022 62.550003 
L 99.550879 62.460866 
L 99.607308 62.460866 
L 99.854731 62.37173 
L 99.952555 62.193458 
L 100.130202 62.104322 
L 100.212851 62.015186 
L 100.480437 61.926049 
L 100.576932 61.792345 
L 101.021262 61.703209 
L 101.021262 61.658641 
L 101.107141 61.658641 
L 101.22064 61.569505 
L 101.308252 61.480369 
L 101.638039 61.391233 
L 101.666324 61.302096 
L 101.743178 61.302096 
L 102.324378 61.21296 
L 102.414887 61.079256 
L 102.784526 60.99012 
L 102.835302 60.900984 
L 102.870594 60.900984 
L 102.974023 60.811847 
L 103.06876 60.633575 
L 103.215699 60.544439 
L 103.293693 60.410735 
L 103.402323 60.321599 
L 103.402323 60.27703 
L 103.451817 60.27703 
L 103.923864 60.187894 
L 104.012331 60.05419 
L 104.032352 60.05419 
L 104.236289 59.965054 
L 104.236289 59.920486 
L 104.316492 59.920486 
L 104.465544 59.83135 
L 104.521498 59.608509 
L 104.69221 59.519373 
L 104.789298 59.385669 
L 105.175253 59.296533 
L 105.263553 59.162828 
L 105.645922 59.073692 
L 105.684918 58.89542 
L 105.739637 58.89542 
L 105.985754 58.806284 
L 105.985754 58.761716 
L 106.338554 58.672579 
L 106.339148 58.583443 
L 106.346748 58.583443 
L 106.613622 58.494307 
L 106.613622 58.449739 
L 106.708264 58.449739 
L 106.809366 58.360603 
L 106.919231 58.271467 
L 107.044724 58.182331 
L 107.045033 58.093194 
L 107.127254 58.093194 
L 107.312643 58.004058 
L 107.326014 57.914922 
L 107.423435 57.914922 
L 107.70121 57.825786 
L 107.70121 57.781218 
L 107.979483 57.692082 
L 108.026412 57.558377 
L 108.080419 57.558377 
L 108.195747 57.469241 
L 108.195747 57.424673 
L 108.274572 57.424673 
L 108.651834 57.335537 
L 108.651834 57.290969 
L 108.720256 57.290969 
L 108.900207 57.201833 
L 108.976158 57.112697 
L 109.218902 57.02356 
L 109.327176 56.845288 
L 109.39453 56.756152 
L 109.405954 56.667016 
L 109.474163 56.667016 
L 110.209093 56.57788 
L 110.306158 56.444175 
L 110.91645 56.355039 
L 110.91645 56.310471 
L 111.365317 56.221335 
L 111.391964 56.132199 
L 111.454663 56.132199 
L 111.570442 56.043063 
L 111.574551 55.953926 
L 111.601839 55.953926 
L 111.794567 55.86479 
L 111.794567 55.820222 
L 112.106161 55.731086 
L 112.130623 55.552814 
L 112.704366 55.463678 
L 112.704366 55.419109 
L 112.810526 55.419109 
L 113.682278 55.329973 
L 113.682278 55.285405 
L 113.765425 55.285405 
L 114.092362 55.196269 
L 114.189165 55.107133 
L 114.336769 55.017997 
L 114.395121 54.928861 
L 114.445091 54.928861 
L 114.617489 54.839724 
L 114.709803 54.750588 
L 115.52325 54.661452 
L 115.57006 54.572316 
L 115.983612 54.48318 
L 116.061415 54.349475 
L 116.082671 54.349475 
L 116.389231 54.260339 
L 116.495391 54.171203 
L 116.7521 54.082067 
L 116.7521 54.037499 
L 116.817103 54.037499 
L 117.285397 53.948363 
L 117.285397 53.903795 
L 117.290717 53.903795 
L 117.534435 53.814658 
L 117.534435 53.77009 
L 117.589819 53.77009 
L 117.776894 53.680954 
L 117.776894 53.636386 
L 117.845911 53.636386 
L 118.079606 53.54725 
L 118.14069 53.413546 
L 118.15646 53.413546 
L 118.523913 53.32441 
L 118.523913 53.279842 
L 118.557614 53.279842 
L 119.191918 53.190705 
L 119.291143 53.012433 
L 120.011967 52.923297 
L 120.118578 52.834161 
L 120.507216 52.745025 
L 120.560178 52.655888 
L 120.603093 52.655888 
L 121.070295 52.566752 
L 121.180018 52.433048 
L 121.600504 52.343912 
L 121.708968 52.254776 
L 121.839354 52.165639 
L 121.88671 52.076503 
L 121.889275 52.076503 
L 122.385808 51.987367 
L 122.385808 51.942799 
L 122.386188 51.942799 
L 122.800143 51.853663 
L 122.903548 51.764527 
L 123.061055 51.675391 
L 123.061055 51.630822 
L 123.114706 51.630822 
L 123.569201 51.541686 
L 123.649522 51.407982 
L 123.93105 51.318846 
L 124.005576 51.22971 
L 124.020871 51.22971 
L 124.473086 51.140574 
L 124.577632 51.051437 
L 125.177118 50.962301 
L 125.23977 50.873165 
L 125.677593 50.784029 
L 125.739556 50.605757 
L 125.786818 50.605757 
L 125.992774 50.51662 
L 125.992774 50.472052 
L 126.055354 50.472052 
L 126.368801 50.382916 
L 126.376044 50.29378 
L 126.646243 50.204644 
L 126.646243 50.160076 
L 126.718347 50.160076 
L 127.502938 50.07094 
L 127.502938 50.026371 
L 127.603731 50.026371 
L 128.152299 49.937235 
L 128.152299 49.892667 
L 128.231147 49.892667 
L 128.711292 49.803531 
L 128.799451 49.669827 
L 128.821609 49.669827 
L 129.284108 49.580691 
L 129.350868 49.491554 
L 129.366258 49.491554 
L 129.965412 49.402418 
L 129.965412 49.35785 
L 130.063165 49.35785 
L 130.701506 49.268714 
L 130.782825 49.179578 
L 130.801635 49.179578 
L 131.007733 49.090442 
L 131.100476 48.956738 
L 131.110783 48.956738 
L 131.34531 48.867601 
L 131.41929 48.778465 
L 131.799212 48.689329 
L 131.799212 48.644761 
L 131.876184 48.644761 
L 132.067511 48.555625 
L 132.175571 48.377352 
L 133.44501 48.288216 
L 133.44501 48.243648 
L 133.536137 48.243648 
L 133.9941 48.154512 
L 134.079171 48.065376 
L 134.448239 47.97624 
L 134.448239 47.931672 
L 134.54053 47.931672 
L 136.311607 47.842535 
L 136.330321 47.708831 
L 136.418337 47.708831 
L 137.027799 47.619695 
L 137.028678 47.530559 
L 137.131371 47.530559 
L 137.596269 47.441423 
L 137.639232 47.352287 
L 137.681553 47.352287 
L 137.953771 47.26315 
L 138.022597 47.129446 
L 138.054137 47.129446 
L 138.572685 47.04031 
L 138.572685 46.995742 
L 138.680175 46.995742 
L 139.442394 46.906606 
L 139.442394 46.862038 
L 139.544588 46.862038 
L 140.366134 46.772901 
L 140.397032 46.683765 
L 140.473149 46.683765 
L 141.019318 46.594629 
L 141.098119 46.460925 
L 141.117261 46.460925 
L 141.645974 46.371789 
L 141.746649 46.282653 
L 142.220286 46.193516 
L 142.220286 46.148948 
L 142.325877 46.148948 
L 142.992955 46.059812 
L 142.992955 46.015244 
L 143.093416 46.015244 
L 143.526323 45.926108 
L 143.526323 45.88154 
L 143.634122 45.88154 
L 144.398764 45.792404 
L 144.398764 45.747836 
L 144.479916 45.747836 
L 144.854803 45.658699 
L 144.854803 45.614131 
L 144.903252 45.614131 
L 145.220499 45.524995 
L 145.247811 45.435859 
L 145.292056 45.435859 
L 145.792578 45.346723 
L 145.887125 45.16845 
L 146.747525 45.079314 
L 146.755576 44.990178 
L 146.857082 44.990178 
L 147.451581 44.901042 
L 147.477444 44.811906 
L 147.551662 44.811906 
L 147.953623 44.72277 
L 148.026796 44.633634 
L 148.057243 44.633634 
L 148.650127 44.544497 
L 148.650127 44.499929 
L 148.745529 44.499929 
L 149.32186 44.410793 
L 149.413106 44.321657 
L 149.430229 44.321657 
L 150.233368 44.232521 
L 150.237976 44.143385 
L 150.302456 44.143385 
L 150.824519 44.054248 
L 150.91168 43.965112 
L 150.933078 43.965112 
L 151.456163 43.875976 
L 151.456163 43.831408 
L 151.564461 43.831408 
L 152.533467 43.742272 
L 152.636231 43.653136 
L 154.244695 43.564 
L 154.244695 43.519431 
L 154.351259 43.519431 
L 155.007579 43.430295 
L 155.014917 43.341159 
L 155.099347 43.341159 
L 155.300292 43.252023 
L 155.333375 43.162887 
L 155.406999 43.162887 
L 156.050019 43.073751 
L 156.050019 43.029183 
L 156.158174 43.029183 
L 156.895836 42.940046 
L 156.954569 42.85091 
L 157.005606 42.85091 
L 157.515343 42.761774 
L 157.585808 42.672638 
L 157.623618 42.672638 
L 157.999407 42.583502 
L 157.999407 42.538934 
L 158.091532 42.538934 
L 158.659265 42.449797 
L 158.683585 42.360661 
L 158.770295 42.360661 
L 159.314825 42.271525 
L 159.334727 42.182389 
L 159.415072 42.182389 
L 160.368712 42.093253 
L 160.423526 41.91498 
L 160.469102 41.91498 
L 161.421174 41.825844 
L 161.421174 41.781276 
L 161.525649 41.781276 
L 161.947465 41.69214 
L 161.988599 41.603004 
L 162.058565 41.603004 
L 162.477009 41.513868 
L 162.477009 41.4693 
L 162.569466 41.4693 
L 163.697096 41.380163 
L 163.697096 41.335595 
L 163.781716 41.335595 
L 164.458887 41.246459 
L 164.464373 41.157323 
L 164.559728 41.157323 
L 165.324725 41.068187 
L 165.324725 41.023619 
L 165.43509 41.023619 
L 166.038732 40.934483 
L 166.038732 40.889915 
L 166.149833 40.889915 
L 166.406542 40.800778 
L 166.406542 40.75621 
L 166.517595 40.75621 
L 167.061033 40.667074 
L 167.061033 40.622506 
L 167.171587 40.622506 
L 167.950811 40.53337 
L 167.950811 40.488802 
L 168.059204 40.488802 
L 169.308075 40.399666 
L 169.338118 40.31053 
L 169.41813 40.31053 
L 171.162251 40.221393 
L 171.162251 40.176825 
L 171.271357 40.176825 
L 171.688352 40.087689 
L 171.75269 39.953985 
L 171.798075 39.953985 
L 172.599457 39.864849 
L 172.599457 39.820281 
L 172.710557 39.820281 
L 173.272163 39.731144 
L 173.351748 39.642008 
L 173.376947 39.642008 
L 174.224474 39.552872 
L 174.224474 39.508304 
L 174.335527 39.508304 
L 174.552455 39.419168 
L 174.552455 39.3746 
L 174.662392 39.3746 
L 175.827285 39.285464 
L 175.923376 39.196327 
L 175.938124 39.196327 
L 176.572713 39.107191 
L 176.572713 39.062623 
L 176.682246 39.062623 
L 177.411928 38.973487 
L 177.411928 38.928919 
L 177.521556 38.928919 
L 178.067083 38.839783 
L 178.068888 38.750647 
L 178.17759 38.750647 
L 179.312416 38.66151 
L 179.312416 38.616942 
L 179.422899 38.616942 
L 180.75582 38.527806 
L 180.809043 38.43867 
L 180.865875 38.43867 
L 181.430308 38.349534 
L 181.430308 38.304966 
L 181.541337 38.304966 
L 181.69388 38.21583 
L 181.69388 38.171262 
L 181.802986 38.171262 
L 182.74297 38.082125 
L 182.810704 37.992989 
L 182.847492 37.992989 
L 183.264012 37.903853 
L 183.264012 37.859285 
L 183.371645 37.859285 
L 184.29567 37.770149 
L 184.386132 37.681013 
L 184.404324 37.681013 
L 185.111254 37.591876 
L 185.111254 37.547308 
L 185.217296 37.547308 
L 186.79707 37.458172 
L 186.79707 37.413604 
L 186.906484 37.413604 
L 187.692524 37.324468 
L 187.692524 37.2799 
L 187.799135 37.2799 
L 188.465501 37.190764 
L 188.465501 37.146196 
L 188.576459 37.146196 
L 190.060973 37.057059 
L 190.060973 37.012491 
L 190.171979 37.012491 
L 191.258926 36.923355 
L 191.258926 36.878787 
L 191.368934 36.878787 
L 192.710927 36.789651 
L 192.716983 36.655947 
L 192.821909 36.655947 
L 193.139037 36.566811 
L 193.241849 36.433106 
L 193.246812 36.433106 
L 194.169317 36.34397 
L 194.169317 36.299402 
L 194.27942 36.299402 
L 195.430348 36.210266 
L 195.482478 36.12113 
L 195.541235 36.12113 
L 196.420705 36.031994 
L 196.420705 35.987426 
L 196.531212 35.987426 
L 197.417 35.898289 
L 197.436379 35.809153 
L 197.526319 35.809153 
L 198.276996 35.720017 
L 198.339267 35.630881 
L 198.387597 35.630881 
L 199.178624 35.541745 
L 199.178624 35.497177 
L 199.289701 35.497177 
L 200.063035 35.40804 
L 200.063035 35.363472 
L 200.174135 35.363472 
L 201.060469 35.274336 
L 201.171593 35.229768 
L 201.694013 35.140632 
L 201.694013 35.096064 
L 201.804971 35.096064 
L 205.346222 35.006928 
L 205.407923 34.917792 
L 205.452715 34.917792 
L 205.58253 34.828655 
L 205.58253 34.784087 
L 205.693607 34.784087 
L 207.658623 34.694951 
L 207.742791 34.605815 
L 207.768726 34.605815 
L 209.561367 34.516679 
L 209.561367 34.472111 
L 209.671993 34.472111 
L 211.56101 34.382975 
L 211.56101 34.338406 
L 211.671754 34.338406 
L 212.3195 34.24927 
L 212.423998 34.160134 
L 212.429389 34.160134 
L 212.740271 34.070998 
L 212.740271 34.02643 
L 212.851205 34.02643 
L 213.205478 33.937294 
L 213.301141 33.803589 
L 213.316555 33.803589 
L 214.074403 33.714453 
L 214.074403 33.669885 
L 214.185219 33.669885 
L 214.68453 33.580749 
L 214.795607 33.491613 
L 215.711058 33.402477 
L 215.711058 33.357909 
L 215.822158 33.357909 
L 217.032389 33.268772 
L 217.041936 33.179636 
L 217.142017 33.179636 
L 218.79285 33.0905 
L 218.79285 33.045932 
L 218.903689 33.045932 
L 219.203622 32.956796 
L 219.203622 32.912228 
L 219.314699 32.912228 
L 221.660967 32.823092 
L 221.660967 32.778524 
L 221.771806 32.778524 
L 222.943942 32.689387 
L 223.055114 32.600251 
L 223.465697 32.511115 
L 223.465697 32.466547 
L 223.576702 32.466547 
L 223.977334 32.377411 
L 224.088482 32.332843 
L 224.974887 32.243707 
L 224.974887 32.199138 
L 225.08556 32.199138 
L 226.633486 32.110002 
L 226.633486 32.065434 
L 226.744468 32.065434 
L 228.445555 31.976298 
L 228.514666 31.887162 
L 228.556536 31.887162 
L 228.650585 31.798026 
L 228.661391 31.70889 
L 228.761638 31.70889 
L 229.982318 31.619753 
L 229.982318 31.575185 
L 230.093371 31.575185 
L 231.661888 31.486049 
L 231.773178 31.441481 
L 231.977401 31.352345 
L 232.088953 31.307777 
L 232.983837 31.218641 
L 232.983837 31.174073 
L 233.0947 31.174073 
L 234.085152 31.084936 
L 234.196347 31.040368 
L 235.469847 30.951232 
L 235.469847 30.906664 
L 235.580947 30.906664 
L 236.402041 30.817528 
L 236.402041 30.77296 
L 236.512382 30.77296 
L 236.850124 30.683824 
L 236.850124 30.639256 
L 236.960655 30.639256 
L 237.86948 30.550119 
L 237.86948 30.505551 
L 237.98058 30.505551 
L 239.397409 30.416415 
L 239.397409 30.371847 
L 239.508485 30.371847 
L 239.909283 30.282711 
L 239.909283 30.238143 
L 240.020075 30.238143 
L 241.139345 30.149007 
L 241.139345 30.104439 
L 241.250445 30.104439 
L 242.216317 30.015302 
L 242.330457 29.970734 
L 243.856462 29.881598 
L 243.856462 29.83703 
L 243.967467 29.83703 
L 246.092104 29.747894 
L 246.203418 29.703326 
L 246.700592 29.61419 
L 246.817772 29.569622 
L 249.755214 29.480485 
L 249.755214 29.435917 
L 249.866006 29.435917 
L 250.726287 29.346781 
L 250.840879 29.302213 
L 252.570346 29.213077 
L 253.19648 29.034805 
L 254.126751 28.945668 
L 254.23132 28.856532 
L 254.237661 28.856532 
L 255.315108 28.767396 
L 255.482424 28.67826 
L 256.210894 28.633692 
L 256.412528 28.544556 
L 257.607346 28.45542 
L 257.718446 28.410851 
L 258.56614 28.321715 
L 258.67686 28.277147 
L 260.427156 28.188011 
L 260.427156 28.143443 
L 260.537995 28.143443 
L 262.573405 28.054307 
L 262.678877 28.009739 
L 264.351868 27.920603 
L 264.460308 27.876035 
L 266.216304 27.786898 
L 266.326716 27.74233 
L 268.746702 27.653194 
L 269.347614 27.608626 
L 270.562238 27.51949 
L 270.672721 27.474922 
L 275.362217 27.385786 
L 275.484147 27.341218 
L 276.563542 27.252081 
L 276.627879 27.207513 
L 277.125029 27.118377 
L 277.485025 27.029241 
L 277.697892 26.984673 
L 282.023758 26.895537 
L 282.023758 26.895537 
" clip-path="url(#p64237a5465)" style="fill: none; stroke: #1f77b4; stroke-width: 1.5; stroke-linecap: round"/>
   </g>
   <g id="line2d_26">
    <path d="M 42.831699 265.022801 
L 282.023758 26.895537 
" clip-path="url(#p64237a5465)" style="fill: none; stroke-dasharray: 5.55,2.4; stroke-dashoffset: 0; stroke: #999999; stroke-width: 1.5"/>
   </g>
   <g id="patch_3">
    <path d="M 35.655938 265.022801 
L 35.655938 19.751719 
" style="fill: none"/>
   </g>
   <g id="patch_4">
    <path d="M 289.19952 265.022801 
L 289.19952 19.751719 
" style="fill: none"/>
   </g>
   <g id="patch_5">
    <path d="M 35.655938 265.022801 
L 289.19952 265.022801 
" style="fill: none"/>
   </g>
   <g id="patch_6">
    <path d="M 35.655938 19.751719 
L 289.19952 19.751719 
" style="fill: none"/>
   </g>
   <g id="text_15">
    <!-- Model 0: Receiver Operating Characteristic (ROC) Curve -->
    <g style="fill: #333333" transform="translate(42.14976 13.751719) scale(0.09 -0.09)">
     <defs>
      <path id="Arial-BoldMT-4d" d="M 453 0 
L 453 4581 
L 1838 4581 
L 2669 1456 
L 3491 4581 
L 4878 4581 
L 4878 0 
L 4019 0 
L 4019 3606 
L 3109 0 
L 2219 0 
L 1313 3606 
L 1313 0 
L 453 0 
z
" transform="scale(0.015625)"/>
      <path id="Arial-BoldMT-64" d="M 3503 0 
L 2688 0 
L 2688 488 
Q 2484 203 2207 64 
Q 1931 -75 1650 -75 
Q 1078 -75 670 386 
Q 263 847 263 1672 
Q 263 2516 659 2955 
Q 1056 3394 1663 3394 
Q 2219 3394 2625 2931 
L 2625 4581 
L 3503 4581 
L 3503 0 
z
M 1159 1731 
Q 1159 1200 1306 963 
Q 1519 619 1900 619 
Q 2203 619 2415 876 
Q 2628 1134 2628 1647 
Q 2628 2219 2422 2470 
Q 2216 2722 1894 2722 
Q 1581 2722 1370 2473 
Q 1159 2225 1159 1731 
z
" transform="scale(0.015625)"/>
      <path id="Arial-BoldMT-30" d="M 1756 4600 
Q 2422 4600 2797 4125 
Q 3244 3563 3244 2259 
Q 3244 959 2794 391 
Q 2422 -78 1756 -78 
Q 1088 -78 678 436 
Q 269 950 269 2269 
Q 269 3563 719 4131 
Q 1091 4600 1756 4600 
z
M 1756 3872 
Q 1597 3872 1472 3770 
Q 1347 3669 1278 3406 
Q 1188 3066 1188 2259 
Q 1188 1453 1269 1151 
Q 1350 850 1473 750 
Q 1597 650 1756 650 
Q 1916 650 2041 751 
Q 2166 853 2234 1116 
Q 2325 1453 2325 2259 
Q 2325 3066 2244 3367 
Q 2163 3669 2039 3770 
Q 1916 3872 1756 3872 
z
" transform="scale(0.015625)"/>
      <path id="Arial-BoldMT-3a" d="M 628 2441 
L 628 3319 
L 1506 3319 
L 1506 2441 
L 628 2441 
z
M 628 0 
L 628 878 
L 1506 878 
L 1506 0 
L 628 0 
z
" transform="scale(0.015625)"/>
      <path id="Arial-BoldMT-63" d="M 3353 2338 
L 2488 2181 
Q 2444 2441 2289 2572 
Q 2134 2703 1888 2703 
Q 1559 2703 1364 2476 
Q 1169 2250 1169 1719 
Q 1169 1128 1367 884 
Q 1566 641 1900 641 
Q 2150 641 2309 783 
Q 2469 925 2534 1272 
L 3397 1125 
Q 3263 531 2881 228 
Q 2500 -75 1859 -75 
Q 1131 -75 698 384 
Q 266 844 266 1656 
Q 266 2478 700 2936 
Q 1134 3394 1875 3394 
Q 2481 3394 2839 3133 
Q 3197 2872 3353 2338 
z
" transform="scale(0.015625)"/>
      <path id="Arial-BoldMT-4f" d="M 278 2263 
Q 278 2963 488 3438 
Q 644 3788 914 4066 
Q 1184 4344 1506 4478 
Q 1934 4659 2494 4659 
Q 3506 4659 4114 4031 
Q 4722 3403 4722 2284 
Q 4722 1175 4119 548 
Q 3516 -78 2506 -78 
Q 1484 -78 881 545 
Q 278 1169 278 2263 
z
M 1231 2294 
Q 1231 1516 1590 1114 
Q 1950 713 2503 713 
Q 3056 713 3411 1111 
Q 3766 1509 3766 2306 
Q 3766 3094 3420 3481 
Q 3075 3869 2503 3869 
Q 1931 3869 1581 3476 
Q 1231 3084 1231 2294 
z
" transform="scale(0.015625)"/>
      <path id="Arial-BoldMT-70" d="M 434 3319 
L 1253 3319 
L 1253 2831 
Q 1413 3081 1684 3237 
Q 1956 3394 2288 3394 
Q 2866 3394 3269 2941 
Q 3672 2488 3672 1678 
Q 3672 847 3265 386 
Q 2859 -75 2281 -75 
Q 2006 -75 1782 34 
Q 1559 144 1313 409 
L 1313 -1263 
L 434 -1263 
L 434 3319 
z
M 1303 1716 
Q 1303 1156 1525 889 
Q 1747 622 2066 622 
Q 2372 622 2575 867 
Q 2778 1113 2778 1672 
Q 2778 2194 2568 2447 
Q 2359 2700 2050 2700 
Q 1728 2700 1515 2451 
Q 1303 2203 1303 1716 
z
" transform="scale(0.015625)"/>
      <path id="Arial-BoldMT-6e" d="M 3478 0 
L 2600 0 
L 2600 1694 
Q 2600 2231 2544 2389 
Q 2488 2547 2361 2634 
Q 2234 2722 2056 2722 
Q 1828 2722 1647 2597 
Q 1466 2472 1398 2265 
Q 1331 2059 1331 1503 
L 1331 0 
L 453 0 
L 453 3319 
L 1269 3319 
L 1269 2831 
Q 1703 3394 2363 3394 
Q 2653 3394 2893 3289 
Q 3134 3184 3257 3021 
Q 3381 2859 3429 2653 
Q 3478 2447 3478 2063 
L 3478 0 
z
" transform="scale(0.015625)"/>
      <path id="Arial-BoldMT-67" d="M 378 -219 
L 1381 -341 
Q 1406 -516 1497 -581 
Q 1622 -675 1891 -675 
Q 2234 -675 2406 -572 
Q 2522 -503 2581 -350 
Q 2622 -241 2622 53 
L 2622 538 
Q 2228 0 1628 0 
Q 959 0 569 566 
Q 263 1013 263 1678 
Q 263 2513 664 2953 
Q 1066 3394 1663 3394 
Q 2278 3394 2678 2853 
L 2678 3319 
L 3500 3319 
L 3500 341 
Q 3500 -247 3403 -537 
Q 3306 -828 3131 -993 
Q 2956 -1159 2664 -1253 
Q 2372 -1347 1925 -1347 
Q 1081 -1347 728 -1058 
Q 375 -769 375 -325 
Q 375 -281 378 -219 
z
M 1163 1728 
Q 1163 1200 1367 954 
Q 1572 709 1872 709 
Q 2194 709 2416 961 
Q 2638 1213 2638 1706 
Q 2638 2222 2425 2472 
Q 2213 2722 1888 2722 
Q 1572 2722 1367 2476 
Q 1163 2231 1163 1728 
z
" transform="scale(0.015625)"/>
      <path id="Arial-BoldMT-43" d="M 3397 1684 
L 4294 1400 
Q 4088 650 3608 286 
Q 3128 -78 2391 -78 
Q 1478 -78 890 545 
Q 303 1169 303 2250 
Q 303 3394 893 4026 
Q 1484 4659 2447 4659 
Q 3288 4659 3813 4163 
Q 4125 3869 4281 3319 
L 3366 3100 
Q 3284 3456 3026 3662 
Q 2769 3869 2400 3869 
Q 1891 3869 1573 3503 
Q 1256 3138 1256 2319 
Q 1256 1450 1568 1081 
Q 1881 713 2381 713 
Q 2750 713 3015 947 
Q 3281 1181 3397 1684 
z
" transform="scale(0.015625)"/>
      <path id="Arial-BoldMT-68" d="M 1334 4581 
L 1334 2897 
Q 1759 3394 2350 3394 
Q 2653 3394 2897 3281 
Q 3141 3169 3264 2994 
Q 3388 2819 3433 2606 
Q 3478 2394 3478 1947 
L 3478 0 
L 2600 0 
L 2600 1753 
Q 2600 2275 2550 2415 
Q 2500 2556 2373 2639 
Q 2247 2722 2056 2722 
Q 1838 2722 1666 2615 
Q 1494 2509 1414 2295 
Q 1334 2081 1334 1663 
L 1334 0 
L 456 0 
L 456 4581 
L 1334 4581 
z
" transform="scale(0.015625)"/>
     </defs>
     <use xlink:href="#Arial-BoldMT-4d"/>
     <use xlink:href="#Arial-BoldMT-6f" transform="translate(83.300781 0)"/>
     <use xlink:href="#Arial-BoldMT-64" transform="translate(144.384766 0)"/>
     <use xlink:href="#Arial-BoldMT-65" transform="translate(205.46875 0)"/>
     <use xlink:href="#Arial-BoldMT-6c" transform="translate(261.083984 0)"/>
     <use xlink:href="#Arial-BoldMT-20" transform="translate(288.867188 0)"/>
     <use xlink:href="#Arial-BoldMT-30" transform="translate(316.650391 0)"/>
     <use xlink:href="#Arial-BoldMT-3a" transform="translate(372.265625 0)"/>
     <use xlink:href="#Arial-BoldMT-20" transform="translate(405.566406 0)"/>
     <use xlink:href="#Arial-BoldMT-52" transform="translate(433.349609 0)"/>
     <use xlink:href="#Arial-BoldMT-65" transform="translate(505.566406 0)"/>
     <use xlink:href="#Arial-BoldMT-63" transform="translate(561.181641 0)"/>
     <use xlink:href="#Arial-BoldMT-65" transform="translate(616.796875 0)"/>
     <use xlink:href="#Arial-BoldMT-69" transform="translate(672.412109 0)"/>
     <use xlink:href="#Arial-BoldMT-76" transform="translate(700.195312 0)"/>
     <use xlink:href="#Arial-BoldMT-65" transform="translate(755.810547 0)"/>
     <use xlink:href="#Arial-BoldMT-72" transform="translate(811.425781 0)"/>
     <use xlink:href="#Arial-BoldMT-20" transform="translate(850.341797 0)"/>
     <use xlink:href="#Arial-BoldMT-4f" transform="translate(878.125 0)"/>
     <use xlink:href="#Arial-BoldMT-70" transform="translate(955.908203 0)"/>
     <use xlink:href="#Arial-BoldMT-65" transform="translate(1016.992188 0)"/>
     <use xlink:href="#Arial-BoldMT-72" transform="translate(1072.607422 0)"/>
     <use xlink:href="#Arial-BoldMT-61" transform="translate(1111.523438 0)"/>
     <use xlink:href="#Arial-BoldMT-74" transform="translate(1167.138672 0)"/>
     <use xlink:href="#Arial-BoldMT-69" transform="translate(1200.439453 0)"/>
     <use xlink:href="#Arial-BoldMT-6e" transform="translate(1228.222656 0)"/>
     <use xlink:href="#Arial-BoldMT-67" transform="translate(1289.306641 0)"/>
     <use xlink:href="#Arial-BoldMT-20" transform="translate(1350.390625 0)"/>
     <use xlink:href="#Arial-BoldMT-43" transform="translate(1378.173828 0)"/>
     <use xlink:href="#Arial-BoldMT-68" transform="translate(1450.390625 0)"/>
     <use xlink:href="#Arial-BoldMT-61" transform="translate(1511.474609 0)"/>
     <use xlink:href="#Arial-BoldMT-72" transform="translate(1567.089844 0)"/>
     <use xlink:href="#Arial-BoldMT-61" transform="translate(1606.005859 0)"/>
     <use xlink:href="#Arial-BoldMT-63" transform="translate(1661.621094 0)"/>
     <use xlink:href="#Arial-BoldMT-74" transform="translate(1717.236328 0)"/>
     <use xlink:href="#Arial-BoldMT-65" transform="translate(1750.537109 0)"/>
     <use xlink:href="#Arial-BoldMT-72" transform="translate(1806.152344 0)"/>
     <use xlink:href="#Arial-BoldMT-69" transform="translate(1845.068359 0)"/>
     <use xlink:href="#Arial-BoldMT-73" transform="translate(1872.851562 0)"/>
     <use xlink:href="#Arial-BoldMT-74" transform="translate(1928.466797 0)"/>
     <use xlink:href="#Arial-BoldMT-69" transform="translate(1961.767578 0)"/>
     <use xlink:href="#Arial-BoldMT-63" transform="translate(1989.550781 0)"/>
     <use xlink:href="#Arial-BoldMT-20" transform="translate(2045.166016 0)"/>
     <use xlink:href="#Arial-BoldMT-28" transform="translate(2072.949219 0)"/>
     <use xlink:href="#Arial-BoldMT-52" transform="translate(2106.25 0)"/>
     <use xlink:href="#Arial-BoldMT-4f" transform="translate(2178.466797 0)"/>
     <use xlink:href="#Arial-BoldMT-43" transform="translate(2256.25 0)"/>
     <use xlink:href="#Arial-BoldMT-29" transform="translate(2328.466797 0)"/>
     <use xlink:href="#Arial-BoldMT-20" transform="translate(2361.767578 0)"/>
     <use xlink:href="#Arial-BoldMT-43" transform="translate(2389.550781 0)"/>
     <use xlink:href="#Arial-BoldMT-75" transform="translate(2461.767578 0)"/>
     <use xlink:href="#Arial-BoldMT-72" transform="translate(2522.851562 0)"/>
     <use xlink:href="#Arial-BoldMT-76" transform="translate(2561.767578 0)"/>
     <use xlink:href="#Arial-BoldMT-65" transform="translate(2617.382812 0)"/>
    </g>
   </g>
   <g id="legend_1">
    <g id="patch_7">
     <path d="M 182.577645 260.522801 
L 282.89952 260.522801 
Q 284.69952 260.522801 284.69952 258.722801 
L 284.69952 234.161239 
Q 284.69952 232.361239 282.89952 232.361239 
L 182.577645 232.361239 
Q 180.777645 232.361239 180.777645 234.161239 
L 180.777645 258.722801 
Q 180.777645 260.522801 182.577645 260.522801 
z
" style="fill: #ffffff; opacity: 0.8; stroke: #cccccc; stroke-width: 0.75; stroke-linejoin: miter"/>
    </g>
    <g id="line2d_27">
     <path d="M 184.377645 239.25327 
L 193.377645 239.25327 
L 202.377645 239.25327 
" style="fill: none; stroke: #1f77b4; stroke-width: 1.5; stroke-linecap: round"/>
    </g>
    <g id="text_16">
     <!-- ROC curve -->
     <g style="fill: #333333" transform="translate(209.577645 242.40327) scale(0.09 -0.09)">
      <defs>
       <path id="ArialMT-52" d="M 503 0 
L 503 4581 
L 2534 4581 
Q 3147 4581 3465 4457 
Q 3784 4334 3975 4021 
Q 4166 3709 4166 3331 
Q 4166 2844 3850 2509 
Q 3534 2175 2875 2084 
Q 3116 1969 3241 1856 
Q 3506 1613 3744 1247 
L 4541 0 
L 3778 0 
L 3172 953 
Q 2906 1366 2734 1584 
Q 2563 1803 2427 1890 
Q 2291 1978 2150 2013 
Q 2047 2034 1813 2034 
L 1109 2034 
L 1109 0 
L 503 0 
z
M 1109 2559 
L 2413 2559 
Q 2828 2559 3062 2645 
Q 3297 2731 3419 2920 
Q 3541 3109 3541 3331 
Q 3541 3656 3305 3865 
Q 3069 4075 2559 4075 
L 1109 4075 
L 1109 2559 
z
" transform="scale(0.015625)"/>
       <path id="ArialMT-4f" d="M 309 2231 
Q 309 3372 921 4017 
Q 1534 4663 2503 4663 
Q 3138 4663 3647 4359 
Q 4156 4056 4423 3514 
Q 4691 2972 4691 2284 
Q 4691 1588 4409 1038 
Q 4128 488 3612 205 
Q 3097 -78 2500 -78 
Q 1853 -78 1343 234 
Q 834 547 571 1087 
Q 309 1628 309 2231 
z
M 934 2222 
Q 934 1394 1379 917 
Q 1825 441 2497 441 
Q 3181 441 3623 922 
Q 4066 1403 4066 2288 
Q 4066 2847 3877 3264 
Q 3688 3681 3323 3911 
Q 2959 4141 2506 4141 
Q 1863 4141 1398 3698 
Q 934 3256 934 2222 
z
" transform="scale(0.015625)"/>
       <path id="ArialMT-43" d="M 3763 1606 
L 4369 1453 
Q 4178 706 3683 314 
Q 3188 -78 2472 -78 
Q 1731 -78 1267 223 
Q 803 525 561 1097 
Q 319 1669 319 2325 
Q 319 3041 592 3573 
Q 866 4106 1370 4382 
Q 1875 4659 2481 4659 
Q 3169 4659 3637 4309 
Q 4106 3959 4291 3325 
L 3694 3184 
Q 3534 3684 3231 3912 
Q 2928 4141 2469 4141 
Q 1941 4141 1586 3887 
Q 1231 3634 1087 3207 
Q 944 2781 944 2328 
Q 944 1744 1114 1308 
Q 1284 872 1643 656 
Q 2003 441 2422 441 
Q 2931 441 3284 734 
Q 3638 1028 3763 1606 
z
" transform="scale(0.015625)"/>
       <path id="ArialMT-20" transform="scale(0.015625)"/>
       <path id="ArialMT-63" d="M 2588 1216 
L 3141 1144 
Q 3050 572 2676 248 
Q 2303 -75 1759 -75 
Q 1078 -75 664 370 
Q 250 816 250 1647 
Q 250 2184 428 2587 
Q 606 2991 970 3192 
Q 1334 3394 1763 3394 
Q 2303 3394 2647 3120 
Q 2991 2847 3088 2344 
L 2541 2259 
Q 2463 2594 2264 2762 
Q 2066 2931 1784 2931 
Q 1359 2931 1093 2626 
Q 828 2322 828 1663 
Q 828 994 1084 691 
Q 1341 388 1753 388 
Q 2084 388 2306 591 
Q 2528 794 2588 1216 
z
" transform="scale(0.015625)"/>
       <path id="ArialMT-75" d="M 2597 0 
L 2597 488 
Q 2209 -75 1544 -75 
Q 1250 -75 995 37 
Q 741 150 617 320 
Q 494 491 444 738 
Q 409 903 409 1263 
L 409 3319 
L 972 3319 
L 972 1478 
Q 972 1038 1006 884 
Q 1059 663 1231 536 
Q 1403 409 1656 409 
Q 1909 409 2131 539 
Q 2353 669 2445 892 
Q 2538 1116 2538 1541 
L 2538 3319 
L 3100 3319 
L 3100 0 
L 2597 0 
z
" transform="scale(0.015625)"/>
       <path id="ArialMT-72" d="M 416 0 
L 416 3319 
L 922 3319 
L 922 2816 
Q 1116 3169 1280 3281 
Q 1444 3394 1641 3394 
Q 1925 3394 2219 3213 
L 2025 2691 
Q 1819 2813 1613 2813 
Q 1428 2813 1281 2702 
Q 1134 2591 1072 2394 
Q 978 2094 978 1738 
L 978 0 
L 416 0 
z
" transform="scale(0.015625)"/>
       <path id="ArialMT-76" d="M 1344 0 
L 81 3319 
L 675 3319 
L 1388 1331 
Q 1503 1009 1600 663 
Q 1675 925 1809 1294 
L 2547 3319 
L 3125 3319 
L 1869 0 
L 1344 0 
z
" transform="scale(0.015625)"/>
       <path id="ArialMT-65" d="M 2694 1069 
L 3275 997 
Q 3138 488 2766 206 
Q 2394 -75 1816 -75 
Q 1088 -75 661 373 
Q 234 822 234 1631 
Q 234 2469 665 2931 
Q 1097 3394 1784 3394 
Q 2450 3394 2872 2941 
Q 3294 2488 3294 1666 
Q 3294 1616 3291 1516 
L 816 1516 
Q 847 969 1125 678 
Q 1403 388 1819 388 
Q 2128 388 2347 550 
Q 2566 713 2694 1069 
z
M 847 1978 
L 2700 1978 
Q 2663 2397 2488 2606 
Q 2219 2931 1791 2931 
Q 1403 2931 1139 2672 
Q 875 2413 847 1978 
z
" transform="scale(0.015625)"/>
      </defs>
      <use xlink:href="#ArialMT-52"/>
      <use xlink:href="#ArialMT-4f" transform="translate(72.216797 0)"/>
      <use xlink:href="#ArialMT-43" transform="translate(150 0)"/>
      <use xlink:href="#ArialMT-20" transform="translate(222.216797 0)"/>
      <use xlink:href="#ArialMT-63" transform="translate(250 0)"/>
      <use xlink:href="#ArialMT-75" transform="translate(300 0)"/>
      <use xlink:href="#ArialMT-72" transform="translate(355.615234 0)"/>
      <use xlink:href="#ArialMT-76" transform="translate(388.916016 0)"/>
      <use xlink:href="#ArialMT-65" transform="translate(438.916016 0)"/>
     </g>
    </g>
    <g id="line2d_28">
     <path d="M 184.377645 251.984051 
L 193.377645 251.984051 
L 202.377645 251.984051 
" style="fill: none; stroke-dasharray: 5.55,2.4; stroke-dashoffset: 0; stroke: #999999; stroke-width: 1.5"/>
    </g>
    <g id="text_17">
     <!-- Random classifier -->
     <g style="fill: #333333" transform="translate(209.577645 255.134051) scale(0.09 -0.09)">
      <defs>
       <path id="ArialMT-61" d="M 2588 409 
Q 2275 144 1986 34 
Q 1697 -75 1366 -75 
Q 819 -75 525 192 
Q 231 459 231 875 
Q 231 1119 342 1320 
Q 453 1522 633 1644 
Q 813 1766 1038 1828 
Q 1203 1872 1538 1913 
Q 2219 1994 2541 2106 
Q 2544 2222 2544 2253 
Q 2544 2597 2384 2738 
Q 2169 2928 1744 2928 
Q 1347 2928 1158 2789 
Q 969 2650 878 2297 
L 328 2372 
Q 403 2725 575 2942 
Q 747 3159 1072 3276 
Q 1397 3394 1825 3394 
Q 2250 3394 2515 3294 
Q 2781 3194 2906 3042 
Q 3031 2891 3081 2659 
Q 3109 2516 3109 2141 
L 3109 1391 
Q 3109 606 3145 398 
Q 3181 191 3288 0 
L 2700 0 
Q 2613 175 2588 409 
z
M 2541 1666 
Q 2234 1541 1622 1453 
Q 1275 1403 1131 1340 
Q 988 1278 909 1158 
Q 831 1038 831 891 
Q 831 666 1001 516 
Q 1172 366 1500 366 
Q 1825 366 2078 508 
Q 2331 650 2450 897 
Q 2541 1088 2541 1459 
L 2541 1666 
z
" transform="scale(0.015625)"/>
       <path id="ArialMT-6e" d="M 422 0 
L 422 3319 
L 928 3319 
L 928 2847 
Q 1294 3394 1984 3394 
Q 2284 3394 2536 3286 
Q 2788 3178 2913 3003 
Q 3038 2828 3088 2588 
Q 3119 2431 3119 2041 
L 3119 0 
L 2556 0 
L 2556 2019 
Q 2556 2363 2490 2533 
Q 2425 2703 2258 2804 
Q 2091 2906 1866 2906 
Q 1506 2906 1245 2678 
Q 984 2450 984 1813 
L 984 0 
L 422 0 
z
" transform="scale(0.015625)"/>
       <path id="ArialMT-64" d="M 2575 0 
L 2575 419 
Q 2259 -75 1647 -75 
Q 1250 -75 917 144 
Q 584 363 401 755 
Q 219 1147 219 1656 
Q 219 2153 384 2558 
Q 550 2963 881 3178 
Q 1213 3394 1622 3394 
Q 1922 3394 2156 3267 
Q 2391 3141 2538 2938 
L 2538 4581 
L 3097 4581 
L 3097 0 
L 2575 0 
z
M 797 1656 
Q 797 1019 1065 703 
Q 1334 388 1700 388 
Q 2069 388 2326 689 
Q 2584 991 2584 1609 
Q 2584 2291 2321 2609 
Q 2059 2928 1675 2928 
Q 1300 2928 1048 2622 
Q 797 2316 797 1656 
z
" transform="scale(0.015625)"/>
       <path id="ArialMT-6f" d="M 213 1659 
Q 213 2581 725 3025 
Q 1153 3394 1769 3394 
Q 2453 3394 2887 2945 
Q 3322 2497 3322 1706 
Q 3322 1066 3130 698 
Q 2938 331 2570 128 
Q 2203 -75 1769 -75 
Q 1072 -75 642 372 
Q 213 819 213 1659 
z
M 791 1659 
Q 791 1022 1069 705 
Q 1347 388 1769 388 
Q 2188 388 2466 706 
Q 2744 1025 2744 1678 
Q 2744 2294 2464 2611 
Q 2184 2928 1769 2928 
Q 1347 2928 1069 2612 
Q 791 2297 791 1659 
z
" transform="scale(0.015625)"/>
       <path id="ArialMT-6d" d="M 422 0 
L 422 3319 
L 925 3319 
L 925 2853 
Q 1081 3097 1340 3245 
Q 1600 3394 1931 3394 
Q 2300 3394 2536 3241 
Q 2772 3088 2869 2813 
Q 3263 3394 3894 3394 
Q 4388 3394 4653 3120 
Q 4919 2847 4919 2278 
L 4919 0 
L 4359 0 
L 4359 2091 
Q 4359 2428 4304 2576 
Q 4250 2725 4106 2815 
Q 3963 2906 3769 2906 
Q 3419 2906 3187 2673 
Q 2956 2441 2956 1928 
L 2956 0 
L 2394 0 
L 2394 2156 
Q 2394 2531 2256 2718 
Q 2119 2906 1806 2906 
Q 1569 2906 1367 2781 
Q 1166 2656 1075 2415 
Q 984 2175 984 1722 
L 984 0 
L 422 0 
z
" transform="scale(0.015625)"/>
       <path id="ArialMT-6c" d="M 409 0 
L 409 4581 
L 972 4581 
L 972 0 
L 409 0 
z
" transform="scale(0.015625)"/>
       <path id="ArialMT-73" d="M 197 991 
L 753 1078 
Q 800 744 1014 566 
Q 1228 388 1613 388 
Q 2000 388 2187 545 
Q 2375 703 2375 916 
Q 2375 1106 2209 1216 
Q 2094 1291 1634 1406 
Q 1016 1563 777 1677 
Q 538 1791 414 1992 
Q 291 2194 291 2438 
Q 291 2659 392 2848 
Q 494 3038 669 3163 
Q 800 3259 1026 3326 
Q 1253 3394 1513 3394 
Q 1903 3394 2198 3281 
Q 2494 3169 2634 2976 
Q 2775 2784 2828 2463 
L 2278 2388 
Q 2241 2644 2061 2787 
Q 1881 2931 1553 2931 
Q 1166 2931 1000 2803 
Q 834 2675 834 2503 
Q 834 2394 903 2306 
Q 972 2216 1119 2156 
Q 1203 2125 1616 2013 
Q 2213 1853 2448 1751 
Q 2684 1650 2818 1456 
Q 2953 1263 2953 975 
Q 2953 694 2789 445 
Q 2625 197 2315 61 
Q 2006 -75 1616 -75 
Q 969 -75 630 194 
Q 291 463 197 991 
z
" transform="scale(0.015625)"/>
       <path id="ArialMT-69" d="M 425 3934 
L 425 4581 
L 988 4581 
L 988 3934 
L 425 3934 
z
M 425 0 
L 425 3319 
L 988 3319 
L 988 0 
L 425 0 
z
" transform="scale(0.015625)"/>
       <path id="ArialMT-66" d="M 556 0 
L 556 2881 
L 59 2881 
L 59 3319 
L 556 3319 
L 556 3672 
Q 556 4006 616 4169 
Q 697 4388 901 4523 
Q 1106 4659 1475 4659 
Q 1713 4659 2000 4603 
L 1916 4113 
Q 1741 4144 1584 4144 
Q 1328 4144 1222 4034 
Q 1116 3925 1116 3625 
L 1116 3319 
L 1763 3319 
L 1763 2881 
L 1116 2881 
L 1116 0 
L 556 0 
z
" transform="scale(0.015625)"/>
      </defs>
      <use xlink:href="#ArialMT-52"/>
      <use xlink:href="#ArialMT-61" transform="translate(72.216797 0)"/>
      <use xlink:href="#ArialMT-6e" transform="translate(127.832031 0)"/>
      <use xlink:href="#ArialMT-64" transform="translate(183.447266 0)"/>
      <use xlink:href="#ArialMT-6f" transform="translate(239.0625 0)"/>
      <use xlink:href="#ArialMT-6d" transform="translate(294.677734 0)"/>
      <use xlink:href="#ArialMT-20" transform="translate(377.978516 0)"/>
      <use xlink:href="#ArialMT-63" transform="translate(405.761719 0)"/>
      <use xlink:href="#ArialMT-6c" transform="translate(455.761719 0)"/>
      <use xlink:href="#ArialMT-61" transform="translate(477.978516 0)"/>
      <use xlink:href="#ArialMT-73" transform="translate(533.59375 0)"/>
      <use xlink:href="#ArialMT-73" transform="translate(583.59375 0)"/>
      <use xlink:href="#ArialMT-69" transform="translate(633.59375 0)"/>
      <use xlink:href="#ArialMT-66" transform="translate(655.810547 0)"/>
      <use xlink:href="#ArialMT-69" transform="translate(683.59375 0)"/>
      <use xlink:href="#ArialMT-65" transform="translate(705.810547 0)"/>
      <use xlink:href="#ArialMT-72" transform="translate(761.425781 0)"/>
     </g>
    </g>
   </g>
  </g>
 </g>
 <defs>
  <clipPath id="p64237a5465">
   <rect x="35.655938" y="19.751719" width="253.543583" height="245.271083"/>
  </clipPath>
 </defs>
</svg>
