<?xml version="1.0" encoding="utf-8" standalone="no"?>
<!DOCTYPE svg PUBLIC "-//W3C//DTD SVG 1.1//EN"
  "http://www.w3.org/Graphics/SVG/1.1/DTD/svg11.dtd">
<svg xmlns:xlink="http://www.w3.org/1999/xlink" width="296.39952pt" height="296.39952pt" viewBox="0 0 296.39952 296.39952" xmlns="http://www.w3.org/2000/svg" version="1.1">
 <metadata>
  <rdf:RDF xmlns:dc="http://purl.org/dc/elements/1.1/" xmlns:cc="http://creativecommons.org/ns#" xmlns:rdf="http://www.w3.org/1999/02/22-rdf-syntax-ns#">
   <cc:Work>
    <dc:type rdf:resource="http://purl.org/dc/dcmitype/StillImage"/>
    <dc:date>2025-12-30T21:06:42.548587</dc:date>
    <dc:format>image/svg+xml</dc:format>
    <dc:creator>
     <cc:Agent>
      <dc:title>Matplotlib v3.10.8, https://matplotlib.org/</dc:title>
     </cc:Agent>
    </dc:creator>
   </cc:Work>
  </rdf:RDF>
 </metadata>
 <defs>
  <style type="text/css">*{stroke-linejoin: round; stroke-linecap: butt}</style>
 </defs>
 <g id="figure_1">
  <g id="patch_1">
   <path d="M 0 296.39952 
L 296.39952 296.39952 
L 296.39952 0 
L 0 0 
z
" style="fill: #ffffff"/>
  </g>
  <g id="axes_1">
   <g id="patch_2">
    <path d="M 35.655938 265.022801 
L 289.19952 265.022801 
L 289.19952 19.642031 
L 35.655938 19.642031 
z
" style="fill: #ffffff"/>
   </g>
   <g id="matplotlib.axis_1">
    <g id="xtick_1">
     <g id="line2d_1">
      <path d="M 42.831699 265.022801 
L 42.831699 19.642031 
" clip-path="url(#pbba7e936bf)" style="fill: none; stroke: #c0c0c0; stroke-width: 0.25; stroke-linecap: round"/>
     </g>
     <g id="line2d_2"/>
     <g id="text_1">
      <!-- 0.0 -->
      <g style="fill: #333333" transform="translate(36.576699 274.964832) scale(0.09 -0.09)">
       <defs>
        <path id="ArialMT-30" d="M 266 2259 
Q 266 3072 433 3567 
Q 600 4063 929 4331 
Q 1259 4600 1759 4600 
Q 2128 4600 2406 4451 
Q 2684 4303 2865 4023 
Q 3047 3744 3150 3342 
Q 3253 2941 3253 2259 
Q 3253 1453 3087 958 
Q 2922 463 2592 192 
Q 2263 -78 1759 -78 
Q 1097 -78 719 397 
Q 266 969 266 2259 
z
M 844 2259 
Q 844 1131 1108 757 
Q 1372 384 1759 384 
Q 2147 384 2411 759 
Q 2675 1134 2675 2259 
Q 2675 3391 2411 3762 
Q 2147 4134 1753 4134 
Q 1366 4134 1134 3806 
Q 844 3388 844 2259 
z
" transform="scale(0.015625)"/>
        <path id="ArialMT-2e" d="M 581 0 
L 581 641 
L 1222 641 
L 1222 0 
L 581 0 
z
" transform="scale(0.015625)"/>
       </defs>
       <use xlink:href="#ArialMT-30"/>
       <use xlink:href="#ArialMT-2e" transform="translate(55.615234 0)"/>
       <use xlink:href="#ArialMT-30" transform="translate(83.398438 0)"/>
      </g>
     </g>
    </g>
    <g id="xtick_2">
     <g id="line2d_3">
      <path d="M 90.670111 265.022801 
L 90.670111 19.642031 
" clip-path="url(#pbba7e936bf)" style="fill: none; stroke: #c0c0c0; stroke-width: 0.25; stroke-linecap: round"/>
     </g>
     <g id="line2d_4"/>
     <g id="text_2">
      <!-- 0.2 -->
      <g style="fill: #333333" transform="translate(84.415111 274.964832) scale(0.09 -0.09)">
       <defs>
        <path id="ArialMT-32" d="M 3222 541 
L 3222 0 
L 194 0 
Q 188 203 259 391 
Q 375 700 629 1000 
Q 884 1300 1366 1694 
Q 2113 2306 2375 2664 
Q 2638 3022 2638 3341 
Q 2638 3675 2398 3904 
Q 2159 4134 1775 4134 
Q 1369 4134 1125 3890 
Q 881 3647 878 3216 
L 300 3275 
Q 359 3922 746 4261 
Q 1134 4600 1788 4600 
Q 2447 4600 2831 4234 
Q 3216 3869 3216 3328 
Q 3216 3053 3103 2787 
Q 2991 2522 2730 2228 
Q 2469 1934 1863 1422 
Q 1356 997 1212 845 
Q 1069 694 975 541 
L 3222 541 
z
" transform="scale(0.015625)"/>
       </defs>
       <use xlink:href="#ArialMT-30"/>
       <use xlink:href="#ArialMT-2e" transform="translate(55.615234 0)"/>
       <use xlink:href="#ArialMT-32" transform="translate(83.398438 0)"/>
      </g>
     </g>
    </g>
    <g id="xtick_3">
     <g id="line2d_5">
      <path d="M 138.508523 265.022801 
L 138.508523 19.642031 
" clip-path="url(#pbba7e936bf)" style="fill: none; stroke: #c0c0c0; stroke-width: 0.25; stroke-linecap: round"/>
     </g>
     <g id="line2d_6"/>
     <g id="text_3">
      <!-- 0.4 -->
      <g style="fill: #333333" transform="translate(132.253523 274.964832) scale(0.09 -0.09)">
       <defs>
        <path id="ArialMT-34" d="M 2069 0 
L 2069 1097 
L 81 1097 
L 81 1613 
L 2172 4581 
L 2631 4581 
L 2631 1613 
L 3250 1613 
L 3250 1097 
L 2631 1097 
L 2631 0 
L 2069 0 
z
M 2069 1613 
L 2069 3678 
L 634 1613 
L 2069 1613 
z
" transform="scale(0.015625)"/>
       </defs>
       <use xlink:href="#ArialMT-30"/>
       <use xlink:href="#ArialMT-2e" transform="translate(55.615234 0)"/>
       <use xlink:href="#ArialMT-34" transform="translate(83.398438 0)"/>
      </g>
     </g>
    </g>
    <g id="xtick_4">
     <g id="line2d_7">
      <path d="M 186.346935 265.022801 
L 186.346935 19.642031 
" clip-path="url(#pbba7e936bf)" style="fill: none; stroke: #c0c0c0; stroke-width: 0.25; stroke-linecap: round"/>
     </g>
     <g id="line2d_8"/>
     <g id="text_4">
      <!-- 0.6 -->
      <g style="fill: #333333" transform="translate(180.091935 274.964832) scale(0.09 -0.09)">
       <defs>
        <path id="ArialMT-36" d="M 3184 3459 
L 2625 3416 
Q 2550 3747 2413 3897 
Q 2184 4138 1850 4138 
Q 1581 4138 1378 3988 
Q 1113 3794 959 3422 
Q 806 3050 800 2363 
Q 1003 2672 1297 2822 
Q 1591 2972 1913 2972 
Q 2475 2972 2870 2558 
Q 3266 2144 3266 1488 
Q 3266 1056 3080 686 
Q 2894 316 2569 119 
Q 2244 -78 1831 -78 
Q 1128 -78 684 439 
Q 241 956 241 2144 
Q 241 3472 731 4075 
Q 1159 4600 1884 4600 
Q 2425 4600 2770 4297 
Q 3116 3994 3184 3459 
z
M 888 1484 
Q 888 1194 1011 928 
Q 1134 663 1356 523 
Q 1578 384 1822 384 
Q 2178 384 2434 671 
Q 2691 959 2691 1453 
Q 2691 1928 2437 2201 
Q 2184 2475 1800 2475 
Q 1419 2475 1153 2201 
Q 888 1928 888 1484 
z
" transform="scale(0.015625)"/>
       </defs>
       <use xlink:href="#ArialMT-30"/>
       <use xlink:href="#ArialMT-2e" transform="translate(55.615234 0)"/>
       <use xlink:href="#ArialMT-36" transform="translate(83.398438 0)"/>
      </g>
     </g>
    </g>
    <g id="xtick_5">
     <g id="line2d_9">
      <path d="M 234.185346 265.022801 
L 234.185346 19.642031 
" clip-path="url(#pbba7e936bf)" style="fill: none; stroke: #c0c0c0; stroke-width: 0.25; stroke-linecap: round"/>
     </g>
     <g id="line2d_10"/>
     <g id="text_5">
      <!-- 0.8 -->
      <g style="fill: #333333" transform="translate(227.930346 274.964832) scale(0.09 -0.09)">
       <defs>
        <path id="ArialMT-38" d="M 1131 2484 
Q 781 2613 612 2850 
Q 444 3088 444 3419 
Q 444 3919 803 4259 
Q 1163 4600 1759 4600 
Q 2359 4600 2725 4251 
Q 3091 3903 3091 3403 
Q 3091 3084 2923 2848 
Q 2756 2613 2416 2484 
Q 2838 2347 3058 2040 
Q 3278 1734 3278 1309 
Q 3278 722 2862 322 
Q 2447 -78 1769 -78 
Q 1091 -78 675 323 
Q 259 725 259 1325 
Q 259 1772 486 2073 
Q 713 2375 1131 2484 
z
M 1019 3438 
Q 1019 3113 1228 2906 
Q 1438 2700 1772 2700 
Q 2097 2700 2305 2904 
Q 2513 3109 2513 3406 
Q 2513 3716 2298 3927 
Q 2084 4138 1766 4138 
Q 1444 4138 1231 3931 
Q 1019 3725 1019 3438 
z
M 838 1322 
Q 838 1081 952 856 
Q 1066 631 1291 507 
Q 1516 384 1775 384 
Q 2178 384 2440 643 
Q 2703 903 2703 1303 
Q 2703 1709 2433 1975 
Q 2163 2241 1756 2241 
Q 1359 2241 1098 1978 
Q 838 1716 838 1322 
z
" transform="scale(0.015625)"/>
       </defs>
       <use xlink:href="#ArialMT-30"/>
       <use xlink:href="#ArialMT-2e" transform="translate(55.615234 0)"/>
       <use xlink:href="#ArialMT-38" transform="translate(83.398438 0)"/>
      </g>
     </g>
    </g>
    <g id="xtick_6">
     <g id="line2d_11">
      <path d="M 282.023758 265.022801 
L 282.023758 19.642031 
" clip-path="url(#pbba7e936bf)" style="fill: none; stroke: #c0c0c0; stroke-width: 0.25; stroke-linecap: round"/>
     </g>
     <g id="line2d_12"/>
     <g id="text_6">
      <!-- 1.0 -->
      <g style="fill: #333333" transform="translate(275.768758 274.964832) scale(0.09 -0.09)">
       <defs>
        <path id="ArialMT-31" d="M 2384 0 
L 1822 0 
L 1822 3584 
Q 1619 3391 1289 3197 
Q 959 3003 697 2906 
L 697 3450 
Q 1169 3672 1522 3987 
Q 1875 4303 2022 4600 
L 2384 4600 
L 2384 0 
z
" transform="scale(0.015625)"/>
       </defs>
       <use xlink:href="#ArialMT-31"/>
       <use xlink:href="#ArialMT-2e" transform="translate(55.615234 0)"/>
       <use xlink:href="#ArialMT-30" transform="translate(83.398438 0)"/>
      </g>
     </g>
    </g>
    <g id="text_7">
     <!-- Recall [TP / (TP + FN)] -->
     <g style="fill: #333333" transform="translate(115.706479 287.305301) scale(0.09 -0.09)">
      <defs>
       <path id="Arial-BoldMT-52" d="M 469 0 
L 469 4581 
L 2416 4581 
Q 3150 4581 3483 4457 
Q 3816 4334 4016 4018 
Q 4216 3703 4216 3297 
Q 4216 2781 3912 2445 
Q 3609 2109 3006 2022 
Q 3306 1847 3501 1637 
Q 3697 1428 4028 894 
L 4588 0 
L 3481 0 
L 2813 997 
Q 2456 1531 2325 1670 
Q 2194 1809 2047 1861 
Q 1900 1913 1581 1913 
L 1394 1913 
L 1394 0 
L 469 0 
z
M 1394 2644 
L 2078 2644 
Q 2744 2644 2909 2700 
Q 3075 2756 3169 2893 
Q 3263 3031 3263 3238 
Q 3263 3469 3139 3611 
Q 3016 3753 2791 3791 
Q 2678 3806 2116 3806 
L 1394 3806 
L 1394 2644 
z
" transform="scale(0.015625)"/>
       <path id="Arial-BoldMT-65" d="M 2381 1056 
L 3256 909 
Q 3088 428 2723 176 
Q 2359 -75 1813 -75 
Q 947 -75 531 491 
Q 203 944 203 1634 
Q 203 2459 634 2926 
Q 1066 3394 1725 3394 
Q 2466 3394 2894 2905 
Q 3322 2416 3303 1406 
L 1103 1406 
Q 1113 1016 1316 798 
Q 1519 581 1822 581 
Q 2028 581 2168 693 
Q 2309 806 2381 1056 
z
M 2431 1944 
Q 2422 2325 2234 2523 
Q 2047 2722 1778 2722 
Q 1491 2722 1303 2513 
Q 1116 2303 1119 1944 
L 2431 1944 
z
" transform="scale(0.015625)"/>
       <path id="Arial-BoldMT-63" d="M 3353 2338 
L 2488 2181 
Q 2444 2441 2289 2572 
Q 2134 2703 1888 2703 
Q 1559 2703 1364 2476 
Q 1169 2250 1169 1719 
Q 1169 1128 1367 884 
Q 1566 641 1900 641 
Q 2150 641 2309 783 
Q 2469 925 2534 1272 
L 3397 1125 
Q 3263 531 2881 228 
Q 2500 -75 1859 -75 
Q 1131 -75 698 384 
Q 266 844 266 1656 
Q 266 2478 700 2936 
Q 1134 3394 1875 3394 
Q 2481 3394 2839 3133 
Q 3197 2872 3353 2338 
z
" transform="scale(0.015625)"/>
       <path id="Arial-BoldMT-61" d="M 1116 2306 
L 319 2450 
Q 453 2931 781 3162 
Q 1109 3394 1756 3394 
Q 2344 3394 2631 3255 
Q 2919 3116 3036 2902 
Q 3153 2688 3153 2116 
L 3144 1091 
Q 3144 653 3186 445 
Q 3228 238 3344 0 
L 2475 0 
Q 2441 88 2391 259 
Q 2369 338 2359 363 
Q 2134 144 1878 34 
Q 1622 -75 1331 -75 
Q 819 -75 523 203 
Q 228 481 228 906 
Q 228 1188 362 1408 
Q 497 1628 739 1745 
Q 981 1863 1438 1950 
Q 2053 2066 2291 2166 
L 2291 2253 
Q 2291 2506 2166 2614 
Q 2041 2722 1694 2722 
Q 1459 2722 1328 2630 
Q 1197 2538 1116 2306 
z
M 2291 1594 
Q 2122 1538 1756 1459 
Q 1391 1381 1278 1306 
Q 1106 1184 1106 997 
Q 1106 813 1243 678 
Q 1381 544 1594 544 
Q 1831 544 2047 700 
Q 2206 819 2256 991 
Q 2291 1103 2291 1419 
L 2291 1594 
z
" transform="scale(0.015625)"/>
       <path id="Arial-BoldMT-6c" d="M 459 0 
L 459 4581 
L 1338 4581 
L 1338 0 
L 459 0 
z
" transform="scale(0.015625)"/>
       <path id="Arial-BoldMT-20" transform="scale(0.015625)"/>
       <path id="Arial-BoldMT-5b" d="M 456 -1291 
L 456 4581 
L 2013 4581 
L 2013 3891 
L 1291 3891 
L 1291 -600 
L 2013 -600 
L 2013 -1291 
L 456 -1291 
z
" transform="scale(0.015625)"/>
       <path id="Arial-BoldMT-54" d="M 1497 0 
L 1497 3806 
L 138 3806 
L 138 4581 
L 3778 4581 
L 3778 3806 
L 2422 3806 
L 2422 0 
L 1497 0 
z
" transform="scale(0.015625)"/>
       <path id="Arial-BoldMT-50" d="M 466 0 
L 466 4581 
L 1950 4581 
Q 2794 4581 3050 4513 
Q 3444 4409 3709 4064 
Q 3975 3719 3975 3172 
Q 3975 2750 3822 2462 
Q 3669 2175 3433 2011 
Q 3197 1847 2953 1794 
Q 2622 1728 1994 1728 
L 1391 1728 
L 1391 0 
L 466 0 
z
M 1391 3806 
L 1391 2506 
L 1897 2506 
Q 2444 2506 2628 2578 
Q 2813 2650 2917 2803 
Q 3022 2956 3022 3159 
Q 3022 3409 2875 3571 
Q 2728 3734 2503 3775 
Q 2338 3806 1838 3806 
L 1391 3806 
z
" transform="scale(0.015625)"/>
       <path id="Arial-BoldMT-2f" d="M -9 -78 
L 1125 4659 
L 1784 4659 
L 638 -78 
L -9 -78 
z
" transform="scale(0.015625)"/>
       <path id="Arial-BoldMT-28" d="M 1916 -1347 
L 1313 -1347 
Q 834 -625 584 153 
Q 334 931 334 1659 
Q 334 2563 644 3369 
Q 913 4069 1325 4659 
L 1925 4659 
Q 1497 3713 1336 3048 
Q 1175 2384 1175 1641 
Q 1175 1128 1270 590 
Q 1366 53 1531 -431 
Q 1641 -750 1916 -1347 
z
" transform="scale(0.015625)"/>
       <path id="Arial-BoldMT-2b" d="M 1466 659 
L 1466 1850 
L 266 1850 
L 266 2672 
L 1466 2672 
L 1466 3863 
L 2266 3863 
L 2266 2672 
L 3469 2672 
L 3469 1850 
L 2266 1850 
L 2266 659 
L 1466 659 
z
" transform="scale(0.015625)"/>
       <path id="Arial-BoldMT-46" d="M 472 0 
L 472 4581 
L 3613 4581 
L 3613 3806 
L 1397 3806 
L 1397 2722 
L 3309 2722 
L 3309 1947 
L 1397 1947 
L 1397 0 
L 472 0 
z
" transform="scale(0.015625)"/>
       <path id="Arial-BoldMT-4e" d="M 475 0 
L 475 4581 
L 1375 4581 
L 3250 1522 
L 3250 4581 
L 4109 4581 
L 4109 0 
L 3181 0 
L 1334 2988 
L 1334 0 
L 475 0 
z
" transform="scale(0.015625)"/>
       <path id="Arial-BoldMT-29" d="M 216 -1347 
Q 475 -791 581 -494 
Q 688 -197 778 190 
Q 869 578 912 926 
Q 956 1275 956 1641 
Q 956 2384 797 3048 
Q 638 3713 209 4659 
L 806 4659 
Q 1278 3988 1539 3234 
Q 1800 2481 1800 1706 
Q 1800 1053 1594 306 
Q 1359 -531 822 -1347 
L 216 -1347 
z
" transform="scale(0.015625)"/>
       <path id="Arial-BoldMT-5d" d="M 1675 4581 
L 1675 -1291 
L 119 -1291 
L 119 -600 
L 841 -600 
L 841 3897 
L 119 3897 
L 119 4581 
L 1675 4581 
z
" transform="scale(0.015625)"/>
      </defs>
      <use xlink:href="#Arial-BoldMT-52"/>
      <use xlink:href="#Arial-BoldMT-65" transform="translate(72.216797 0)"/>
      <use xlink:href="#Arial-BoldMT-63" transform="translate(127.832031 0)"/>
      <use xlink:href="#Arial-BoldMT-61" transform="translate(183.447266 0)"/>
      <use xlink:href="#Arial-BoldMT-6c" transform="translate(239.0625 0)"/>
      <use xlink:href="#Arial-BoldMT-6c" transform="translate(266.845703 0)"/>
      <use xlink:href="#Arial-BoldMT-20" transform="translate(294.628906 0)"/>
      <use xlink:href="#Arial-BoldMT-5b" transform="translate(322.412109 0)"/>
      <use xlink:href="#Arial-BoldMT-54" transform="translate(355.712891 0)"/>
      <use xlink:href="#Arial-BoldMT-50" transform="translate(416.796875 0)"/>
      <use xlink:href="#Arial-BoldMT-20" transform="translate(481.746094 0)"/>
      <use xlink:href="#Arial-BoldMT-2f" transform="translate(509.529297 0)"/>
      <use xlink:href="#Arial-BoldMT-20" transform="translate(537.3125 0)"/>
      <use xlink:href="#Arial-BoldMT-28" transform="translate(565.095703 0)"/>
      <use xlink:href="#Arial-BoldMT-54" transform="translate(598.396484 0)"/>
      <use xlink:href="#Arial-BoldMT-50" transform="translate(659.480469 0)"/>
      <use xlink:href="#Arial-BoldMT-20" transform="translate(724.429688 0)"/>
      <use xlink:href="#Arial-BoldMT-2b" transform="translate(752.212891 0)"/>
      <use xlink:href="#Arial-BoldMT-20" transform="translate(810.611328 0)"/>
      <use xlink:href="#Arial-BoldMT-46" transform="translate(838.394531 0)"/>
      <use xlink:href="#Arial-BoldMT-4e" transform="translate(899.478516 0)"/>
      <use xlink:href="#Arial-BoldMT-29" transform="translate(971.695312 0)"/>
      <use xlink:href="#Arial-BoldMT-5d" transform="translate(1004.996094 0)"/>
     </g>
    </g>
   </g>
   <g id="matplotlib.axis_2">
    <g id="ytick_1">
     <g id="line2d_13">
      <path d="M 35.655938 265.022801 
L 289.19952 265.022801 
" clip-path="url(#pbba7e936bf)" style="fill: none; stroke: #c0c0c0; stroke-width: 0.25; stroke-linecap: round"/>
     </g>
     <g id="line2d_14"/>
     <g id="text_8">
      <!-- 0.0 -->
      <g style="fill: #333333" transform="translate(19.645938 268.243817) scale(0.09 -0.09)">
       <use xlink:href="#ArialMT-30"/>
       <use xlink:href="#ArialMT-2e" transform="translate(55.615234 0)"/>
       <use xlink:href="#ArialMT-30" transform="translate(83.398438 0)"/>
      </g>
     </g>
    </g>
    <g id="ytick_2">
     <g id="line2d_15">
      <path d="M 35.655938 217.37605 
L 289.19952 217.37605 
" clip-path="url(#pbba7e936bf)" style="fill: none; stroke: #c0c0c0; stroke-width: 0.25; stroke-linecap: round"/>
     </g>
     <g id="line2d_16"/>
     <g id="text_9">
      <!-- 0.2 -->
      <g style="fill: #333333" transform="translate(19.645938 220.597065) scale(0.09 -0.09)">
       <use xlink:href="#ArialMT-30"/>
       <use xlink:href="#ArialMT-2e" transform="translate(55.615234 0)"/>
       <use xlink:href="#ArialMT-32" transform="translate(83.398438 0)"/>
      </g>
     </g>
    </g>
    <g id="ytick_3">
     <g id="line2d_17">
      <path d="M 35.655938 169.729298 
L 289.19952 169.729298 
" clip-path="url(#pbba7e936bf)" style="fill: none; stroke: #c0c0c0; stroke-width: 0.25; stroke-linecap: round"/>
     </g>
     <g id="line2d_18"/>
     <g id="text_10">
      <!-- 0.4 -->
      <g style="fill: #333333" transform="translate(19.645938 172.950314) scale(0.09 -0.09)">
       <use xlink:href="#ArialMT-30"/>
       <use xlink:href="#ArialMT-2e" transform="translate(55.615234 0)"/>
       <use xlink:href="#ArialMT-34" transform="translate(83.398438 0)"/>
      </g>
     </g>
    </g>
    <g id="ytick_4">
     <g id="line2d_19">
      <path d="M 35.655938 122.082547 
L 289.19952 122.082547 
" clip-path="url(#pbba7e936bf)" style="fill: none; stroke: #c0c0c0; stroke-width: 0.25; stroke-linecap: round"/>
     </g>
     <g id="line2d_20"/>
     <g id="text_11">
      <!-- 0.6 -->
      <g style="fill: #333333" transform="translate(19.645938 125.303563) scale(0.09 -0.09)">
       <use xlink:href="#ArialMT-30"/>
       <use xlink:href="#ArialMT-2e" transform="translate(55.615234 0)"/>
       <use xlink:href="#ArialMT-36" transform="translate(83.398438 0)"/>
      </g>
     </g>
    </g>
    <g id="ytick_5">
     <g id="line2d_21">
      <path d="M 35.655938 74.435795 
L 289.19952 74.435795 
" clip-path="url(#pbba7e936bf)" style="fill: none; stroke: #c0c0c0; stroke-width: 0.25; stroke-linecap: round"/>
     </g>
     <g id="line2d_22"/>
     <g id="text_12">
      <!-- 0.8 -->
      <g style="fill: #333333" transform="translate(19.645938 77.656811) scale(0.09 -0.09)">
       <use xlink:href="#ArialMT-30"/>
       <use xlink:href="#ArialMT-2e" transform="translate(55.615234 0)"/>
       <use xlink:href="#ArialMT-38" transform="translate(83.398438 0)"/>
      </g>
     </g>
    </g>
    <g id="ytick_6">
     <g id="line2d_23">
      <path d="M 35.655938 26.789044 
L 289.19952 26.789044 
" clip-path="url(#pbba7e936bf)" style="fill: none; stroke: #c0c0c0; stroke-width: 0.25; stroke-linecap: round"/>
     </g>
     <g id="line2d_24"/>
     <g id="text_13">
      <!-- 1.0 -->
      <g style="fill: #333333" transform="translate(19.645938 30.01006) scale(0.09 -0.09)">
       <use xlink:href="#ArialMT-31"/>
       <use xlink:href="#ArialMT-2e" transform="translate(55.615234 0)"/>
       <use xlink:href="#ArialMT-30" transform="translate(83.398438 0)"/>
      </g>
     </g>
    </g>
    <g id="text_14">
     <!-- Precision [TP / (TP + FP)] -->
     <g style="fill: #333333" transform="translate(13.751719 195.805776) rotate(-90) scale(0.09 -0.09)">
      <defs>
       <path id="Arial-BoldMT-72" d="M 1300 0 
L 422 0 
L 422 3319 
L 1238 3319 
L 1238 2847 
Q 1447 3181 1614 3287 
Q 1781 3394 1994 3394 
Q 2294 3394 2572 3228 
L 2300 2463 
Q 2078 2606 1888 2606 
Q 1703 2606 1575 2504 
Q 1447 2403 1373 2137 
Q 1300 1872 1300 1025 
L 1300 0 
z
" transform="scale(0.015625)"/>
       <path id="Arial-BoldMT-69" d="M 459 3769 
L 459 4581 
L 1338 4581 
L 1338 3769 
L 459 3769 
z
M 459 0 
L 459 3319 
L 1338 3319 
L 1338 0 
L 459 0 
z
" transform="scale(0.015625)"/>
       <path id="Arial-BoldMT-73" d="M 150 947 
L 1031 1081 
Q 1088 825 1259 692 
Q 1431 559 1741 559 
Q 2081 559 2253 684 
Q 2369 772 2369 919 
Q 2369 1019 2306 1084 
Q 2241 1147 2013 1200 
Q 950 1434 666 1628 
Q 272 1897 272 2375 
Q 272 2806 612 3100 
Q 953 3394 1669 3394 
Q 2350 3394 2681 3172 
Q 3013 2950 3138 2516 
L 2309 2363 
Q 2256 2556 2107 2659 
Q 1959 2763 1684 2763 
Q 1338 2763 1188 2666 
Q 1088 2597 1088 2488 
Q 1088 2394 1175 2328 
Q 1294 2241 1995 2081 
Q 2697 1922 2975 1691 
Q 3250 1456 3250 1038 
Q 3250 581 2869 253 
Q 2488 -75 1741 -75 
Q 1063 -75 667 200 
Q 272 475 150 947 
z
" transform="scale(0.015625)"/>
       <path id="Arial-BoldMT-6f" d="M 256 1706 
Q 256 2144 472 2553 
Q 688 2963 1083 3178 
Q 1478 3394 1966 3394 
Q 2719 3394 3200 2905 
Q 3681 2416 3681 1669 
Q 3681 916 3195 420 
Q 2709 -75 1972 -75 
Q 1516 -75 1102 131 
Q 688 338 472 736 
Q 256 1134 256 1706 
z
M 1156 1659 
Q 1156 1166 1390 903 
Q 1625 641 1969 641 
Q 2313 641 2545 903 
Q 2778 1166 2778 1666 
Q 2778 2153 2545 2415 
Q 2313 2678 1969 2678 
Q 1625 2678 1390 2415 
Q 1156 2153 1156 1659 
z
" transform="scale(0.015625)"/>
       <path id="Arial-BoldMT-6e" d="M 3478 0 
L 2600 0 
L 2600 1694 
Q 2600 2231 2544 2389 
Q 2488 2547 2361 2634 
Q 2234 2722 2056 2722 
Q 1828 2722 1647 2597 
Q 1466 2472 1398 2265 
Q 1331 2059 1331 1503 
L 1331 0 
L 453 0 
L 453 3319 
L 1269 3319 
L 1269 2831 
Q 1703 3394 2363 3394 
Q 2653 3394 2893 3289 
Q 3134 3184 3257 3021 
Q 3381 2859 3429 2653 
Q 3478 2447 3478 2063 
L 3478 0 
z
" transform="scale(0.015625)"/>
      </defs>
      <use xlink:href="#Arial-BoldMT-50"/>
      <use xlink:href="#Arial-BoldMT-72" transform="translate(66.699219 0)"/>
      <use xlink:href="#Arial-BoldMT-65" transform="translate(105.615234 0)"/>
      <use xlink:href="#Arial-BoldMT-63" transform="translate(161.230469 0)"/>
      <use xlink:href="#Arial-BoldMT-69" transform="translate(216.845703 0)"/>
      <use xlink:href="#Arial-BoldMT-73" transform="translate(244.628906 0)"/>
      <use xlink:href="#Arial-BoldMT-69" transform="translate(300.244141 0)"/>
      <use xlink:href="#Arial-BoldMT-6f" transform="translate(328.027344 0)"/>
      <use xlink:href="#Arial-BoldMT-6e" transform="translate(389.111328 0)"/>
      <use xlink:href="#Arial-BoldMT-20" transform="translate(450.195312 0)"/>
      <use xlink:href="#Arial-BoldMT-5b" transform="translate(477.978516 0)"/>
      <use xlink:href="#Arial-BoldMT-54" transform="translate(511.279297 0)"/>
      <use xlink:href="#Arial-BoldMT-50" transform="translate(572.363281 0)"/>
      <use xlink:href="#Arial-BoldMT-20" transform="translate(637.3125 0)"/>
      <use xlink:href="#Arial-BoldMT-2f" transform="translate(665.095703 0)"/>
      <use xlink:href="#Arial-BoldMT-20" transform="translate(692.878906 0)"/>
      <use xlink:href="#Arial-BoldMT-28" transform="translate(720.662109 0)"/>
      <use xlink:href="#Arial-BoldMT-54" transform="translate(753.962891 0)"/>
      <use xlink:href="#Arial-BoldMT-50" transform="translate(815.046875 0)"/>
      <use xlink:href="#Arial-BoldMT-20" transform="translate(879.996094 0)"/>
      <use xlink:href="#Arial-BoldMT-2b" transform="translate(907.779297 0)"/>
      <use xlink:href="#Arial-BoldMT-20" transform="translate(966.177734 0)"/>
      <use xlink:href="#Arial-BoldMT-46" transform="translate(993.960938 0)"/>
      <use xlink:href="#Arial-BoldMT-50" transform="translate(1055.044922 0)"/>
      <use xlink:href="#Arial-BoldMT-29" transform="translate(1121.744141 0)"/>
      <use xlink:href="#Arial-BoldMT-5d" transform="translate(1155.044922 0)"/>
     </g>
    </g>
   </g>
   <g id="line2d_25">
    <path d="M 42.831699 265.022801 
L 42.942372 242.14915 
L 42.94413 242.059974 
L 43.054304 232.027671 
L 43.05637 231.938495 
L 43.166734 226.008289 
L 43.169632 225.919113 
L 43.278785 220.702316 
L 43.288594 220.61314 
L 43.399623 216.466454 
L 43.409431 216.377278 
L 43.514238 213.523645 
L 43.523049 213.434469 
L 43.632582 210.670013 
L 43.636169 210.580837 
L 43.746224 208.173084 
L 43.755439 208.083908 
L 43.860412 205.274863 
L 43.878153 205.185687 
L 43.989206 202.599582 
L 43.994075 202.510406 
L 44.103893 200.370181 
L 44.108904 200.281005 
L 44.213663 198.051605 
L 44.228127 197.962429 
L 44.337802 196.000556 
L 44.345093 195.91138 
L 44.456194 193.994095 
L 44.465242 193.904919 
L 44.572685 192.076811 
L 44.582066 191.987635 
L 44.688013 190.51623 
L 44.697727 190.427054 
L 44.803104 188.911062 
L 44.821462 188.821886 
L 44.930853 187.038365 
L 44.937241 186.949189 
L 45.044946 184.942729 
L 45.054065 184.853553 
L 45.158279 183.382148 
L 45.173858 183.292972 
L 45.284365 181.732392 
L 45.29377 181.643216 
L 45.392473 180.171811 
L 45.421068 180.082635 
L 45.521623 178.923347 
L 45.569312 178.834171 
L 45.674048 177.674882 
L 45.68578 177.585706 
L 45.792582 176.426418 
L 45.802438 176.337242 
L 45.912731 174.999602 
L 45.925366 174.910426 
L 46.033498 173.661961 
L 46.051785 173.572785 
L 46.161104 172.770201 
L 46.181814 172.681025 
L 46.292914 171.387972 
L 46.303198 171.298796 
L 46.402756 170.362448 
L 46.412731 170.362448 
L 46.42444 170.273272 
L 46.535255 169.782804 
L 46.554658 169.693628 
L 46.665688 168.400576 
L 46.684569 168.3114 
L 46.790634 167.419639 
L 46.791014 167.419639 
L 46.815191 167.330463 
L 46.925318 166.750819 
L 46.947239 166.661643 
L 47.038983 165.992823 
L 47.074323 165.903647 
L 47.185257 164.92271 
L 47.203972 164.833534 
L 47.303625 163.986362 
L 47.310132 163.986362 
L 47.323717 163.897186 
L 47.421375 162.737898 
L 47.433345 162.737898 
L 47.458805 162.648722 
L 47.557437 161.712373 
L 47.592634 161.623197 
L 47.699032 160.642261 
L 47.713851 160.553085 
L 47.824881 159.705913 
L 47.83457 159.616737 
L 47.943343 158.680389 
L 47.968162 158.591213 
L 48.072731 157.654864 
L 48.095863 157.565688 
L 48.204684 156.584752 
L 48.219693 156.495576 
L 48.321769 155.73758 
L 48.358628 155.648404 
L 48.465525 154.979583 
L 48.512146 154.890407 
L 48.621251 153.998647 
L 48.651318 153.909471 
L 48.76059 153.419003 
L 48.776122 153.329827 
L 48.886225 152.393479 
L 48.909072 152.304303 
L 49.006707 151.412542 
L 49.018629 151.412542 
L 49.038412 151.323366 
L 49.148682 150.431606 
L 49.154524 150.34243 
L 49.265102 149.718198 
L 49.288994 149.629022 
L 49.383802 149.093966 
L 49.450278 149.00479 
L 49.557008 148.246793 
L 49.576958 148.157617 
L 49.680411 147.132093 
L 49.683617 147.132093 
L 49.702023 147.042917 
L 49.809419 146.240333 
L 49.823122 146.151157 
L 49.933653 145.482336 
L 49.950135 145.39316 
L 50.05829 144.72434 
L 50.075675 144.635164 
L 50.175518 143.966344 
L 50.201809 143.877168 
L 50.304098 143.119172 
L 50.304882 143.119172 
L 50.322101 143.029996 
L 50.416386 142.584116 
L 50.451892 142.539528 
L 50.558219 141.826119 
L 50.619896 141.736943 
L 50.730023 141.157299 
L 50.742421 141.068123 
L 50.852405 140.443891 
L 50.853521 140.443891 
L 50.880026 140.354715 
L 50.974763 139.864247 
L 50.990532 139.864247 
L 51.005495 139.775071 
L 51.109066 139.150839 
L 51.111228 139.150839 
L 51.140701 139.061663 
L 51.241542 138.43743 
L 51.247241 138.43743 
L 51.286666 138.348254 
L 51.367201 137.857786 
L 51.416053 137.76861 
L 51.51516 137.278142 
L 51.554205 137.188966 
L 51.656423 136.564734 
L 51.664545 136.564734 
L 51.700098 136.475558 
L 51.806283 135.806738 
L 51.826137 135.717561 
L 51.920376 135.227093 
L 51.954171 135.137917 
L 52.056983 134.558273 
L 52.099234 134.469097 
L 52.210215 134.067805 
L 52.225795 133.978629 
L 52.330317 133.666513 
L 52.349839 133.577337 
L 52.457045 132.863929 
L 52.500578 132.774753 
L 52.578167 132.239696 
L 52.639394 132.15052 
L 52.743892 131.70464 
L 52.7632 131.615464 
L 52.861001 131.214172 
L 52.861334 131.214172 
L 52.895082 131.124996 
L 52.997276 130.679116 
L 53.026274 130.58994 
L 53.133052 130.188648 
L 53.197556 130.099472 
L 53.304334 129.564416 
L 53.33566 129.47524 
L 53.429875 129.118535 
L 53.469299 129.029359 
L 53.578903 128.405127 
L 53.620489 128.315951 
L 53.730069 127.959247 
L 53.758331 127.870071 
L 53.866154 127.245839 
L 53.886793 127.156663 
L 53.986683 126.621607 
L 53.992122 126.621607 
L 54.017795 126.532431 
L 54.112081 126.041962 
L 54.145259 125.952786 
L 54.233465 125.462318 
L 54.265432 125.373142 
L 54.357889 125.016438 
L 54.37069 125.016438 
L 54.443601 124.927262 
L 54.539526 124.30303 
L 54.56736 124.213854 
L 54.65616 123.946326 
L 54.674447 123.946326 
L 54.773697 123.85715 
L 54.881805 123.41127 
L 54.914009 123.322094 
L 55.019457 122.876214 
L 55.070733 122.787037 
L 55.165422 122.341157 
L 55.20164 122.251981 
L 55.257808 121.984453 
L 55.386032 121.895277 
L 55.48179 121.449397 
L 55.496396 121.449397 
L 55.582868 121.360221 
L 55.692069 120.958929 
L 55.738832 120.869753 
L 55.842736 120.423873 
L 55.889143 120.334697 
L 55.988202 119.888817 
L 56.016322 119.799641 
L 56.119799 119.175408 
L 56.125807 119.175408 
L 56.163522 119.086232 
L 56.272128 118.595764 
L 56.286948 118.506588 
L 56.394059 118.23906 
L 56.441985 118.149884 
L 56.535345 117.79318 
L 56.545628 117.79318 
L 56.62785 117.704004 
L 56.72812 117.3473 
L 56.736124 117.3473 
L 56.775168 117.258124 
L 56.854563 116.67848 
L 56.876389 116.67848 
L 56.906218 116.589304 
L 56.981124 116.054247 
L 56.991075 116.054247 
L 57.048312 115.965071 
L 57.112246 115.697543 
L 57.154306 115.697543 
L 57.180882 115.608367 
L 57.288349 115.117899 
L 57.314141 115.028723 
L 57.42213 114.716607 
L 57.568 114.627431 
L 57.676678 114.270727 
L 57.677581 114.270727 
L 57.707458 114.181551 
L 57.811338 113.824847 
L 57.818534 113.824847 
L 57.880402 113.735671 
L 57.979366 113.334379 
L 58.010787 113.245203 
L 58.120843 112.888498 
L 58.188125 112.799322 
L 58.294927 112.531794 
L 58.347105 112.442618 
L 58.449014 111.95215 
L 58.547266 111.862974 
L 58.642098 111.50627 
L 58.709191 111.417094 
L 58.80578 111.06039 
L 58.817655 111.06039 
L 58.890994 110.971214 
L 58.994494 110.436158 
L 59.143499 110.346982 
L 59.237832 109.990278 
L 59.338483 109.901102 
L 59.444454 109.588985 
L 59.599776 109.499809 
L 59.677983 109.187693 
L 59.692281 109.187693 
L 59.746643 109.098517 
L 59.855298 108.830989 
L 59.884248 108.741813 
L 59.981147 108.251345 
L 59.992404 108.251345 
L 60.099372 108.162169 
L 60.196056 107.627113 
L 60.209499 107.627113 
L 60.262959 107.537937 
L 60.344278 107.136645 
L 60.356651 107.136645 
L 60.379831 107.047469 
L 60.487867 106.512412 
L 60.544629 106.423236 
L 60.654851 106.021944 
L 60.68544 105.932768 
L 60.771366 105.531476 
L 60.813925 105.4423 
L 60.922746 104.862656 
L 60.98326 104.77348 
L 61.081464 104.505952 
L 61.090014 104.505952 
L 61.183184 104.416776 
L 61.227144 104.3276 
L 61.345393 104.238424 
L 61.443479 103.837132 
L 61.594289 103.747956 
L 61.700307 103.257487 
L 61.86064 103.168311 
L 61.918827 102.900783 
L 62.01696 102.811607 
L 62.117991 102.454903 
L 62.126873 102.454903 
L 62.174301 102.365727 
L 62.252104 102.231963 
L 62.281411 102.231963 
L 62.376291 102.142787 
L 62.485088 101.919847 
L 62.652926 101.830671 
L 62.754455 101.696907 
L 62.812167 101.607731 
L 62.874129 101.473967 
L 62.887073 101.473967 
L 63.124236 101.384791 
L 63.200971 101.161851 
L 63.230041 101.161851 
L 63.319695 101.072675 
L 63.429869 100.849735 
L 63.452954 100.760559 
L 63.452954 100.715971 
L 63.531731 100.715971 
L 63.583885 100.626795 
L 63.67411 100.403855 
L 63.692872 100.403855 
L 63.822189 100.314679 
L 63.89947 100.047151 
L 63.918636 100.047151 
L 63.974233 99.957974 
L 64.083006 99.735034 
L 64.132952 99.645858 
L 64.224126 99.244566 
L 64.251415 99.15539 
L 64.325347 99.021626 
L 64.353158 99.021626 
L 64.408756 98.93245 
L 64.492782 98.664922 
L 64.504086 98.664922 
L 64.567688 98.575746 
L 64.651429 98.308218 
L 64.678788 98.308218 
L 64.785281 98.219042 
L 64.889518 98.04069 
L 64.893793 98.04069 
L 64.974162 97.951514 
L 65.00962 97.81775 
L 65.08056 97.81775 
L 65.123356 97.728574 
L 65.214602 97.505634 
L 65.234006 97.505634 
L 65.263598 97.416458 
L 65.345866 97.193518 
L 65.3495 97.193518 
L 65.494681 97.104342 
L 65.51057 97.015166 
L 65.567687 97.015166 
L 65.722843 96.92599 
L 65.819504 96.658461 
L 65.867098 96.569285 
L 65.964733 96.212581 
L 66.072959 96.123405 
L 66.178312 95.722113 
L 66.228638 95.632937 
L 66.320145 95.276233 
L 66.330333 95.276233 
L 66.390254 95.187057 
L 66.483423 94.919529 
L 66.485181 94.919529 
L 66.557142 94.830353 
L 66.599986 94.652001 
L 66.653898 94.652001 
L 66.712013 94.562825 
L 66.803164 94.295297 
L 66.804185 94.295297 
L 66.883271 94.206121 
L 66.993564 94.027769 
L 67.06752 93.938593 
L 67.155417 93.581889 
L 67.169857 93.581889 
L 67.323398 93.492712 
L 67.40835 93.358948 
L 67.417541 93.358948 
L 67.491213 93.269772 
L 67.554956 93.136008 
L 67.595521 93.136008 
L 67.665606 93.046832 
L 67.751247 92.779304 
L 67.772241 92.779304 
L 67.937111 92.690128 
L 68.005818 92.556364 
L 68.032347 92.556364 
L 68.116824 92.467188 
L 68.224481 92.244248 
L 68.314468 92.155072 
L 68.328527 92.065896 
L 68.407067 92.065896 
L 68.55365 91.97672 
L 68.616254 91.842956 
L 68.663349 91.842956 
L 68.756899 91.75378 
L 68.843537 91.441664 
L 68.846672 91.441664 
L 68.90987 91.352488 
L 69.014296 91.08496 
L 69.120979 90.995784 
L 69.227615 90.728256 
L 69.326342 90.63908 
L 69.409323 90.41614 
L 69.435353 90.41614 
L 69.556879 90.326964 
L 69.663918 89.925671 
L 69.706145 89.836495 
L 69.782856 89.524379 
L 69.811142 89.524379 
L 69.896522 89.435203 
L 69.985203 89.212263 
L 69.985678 89.212263 
L 70.090936 89.123087 
L 70.186742 88.855559 
L 70.327576 88.766383 
L 70.338715 88.677207 
L 70.405784 88.677207 
L 70.477721 88.588031 
L 70.585093 88.365091 
L 70.585948 88.365091 
L 70.675104 88.275915 
L 70.772596 88.008387 
L 70.965442 87.919211 
L 71.069086 87.562507 
L 71.156175 87.473331 
L 71.239489 87.294979 
L 71.264901 87.294979 
L 71.279649 87.205803 
L 71.382437 86.982862 
L 71.448224 86.893686 
L 71.531514 86.626158 
L 71.790004 86.536982 
L 71.882841 86.35863 
L 71.886166 86.35863 
L 71.975654 86.269454 
L 72.05759 86.046514 
L 72.382746 85.957338 
L 72.491851 85.734398 
L 72.633636 85.645222 
L 72.735379 85.511458 
L 73.04619 85.422282 
L 73.149548 85.110166 
L 73.150807 85.110166 
L 73.488526 85.02099 
L 73.536429 84.842638 
L 73.587039 84.842638 
L 73.648883 84.753462 
L 73.723433 84.57511 
L 73.80487 84.485934 
L 73.87201 84.307582 
L 73.905948 84.307582 
L 73.969763 84.218406 
L 74.058444 84.12923 
L 74.15558 84.040054 
L 74.259817 83.727937 
L 74.260624 83.727937 
L 74.372437 83.638761 
L 74.467673 83.371233 
L 74.638884 83.282057 
L 74.716117 83.103705 
L 74.737825 83.103705 
L 74.851276 83.014529 
L 74.889822 82.880765 
L 74.957651 82.880765 
L 75.045548 82.791589 
L 75.13601 82.657825 
L 75.152848 82.657825 
L 75.213148 82.568649 
L 75.294182 82.256533 
L 75.299502 82.256533 
L 75.439553 82.167357 
L 75.512963 82.078181 
L 75.587418 81.989005 
L 75.694505 81.766065 
L 75.824771 81.676889 
L 75.901649 81.453949 
L 75.922596 81.453949 
L 76.074522 81.364773 
L 76.139928 81.231009 
L 76.168214 81.231009 
L 76.215855 81.141833 
L 76.312041 80.829717 
L 76.498428 80.740541 
L 76.577395 80.562189 
L 76.592524 80.562189 
L 76.661682 80.473012 
L 76.737824 80.29466 
L 76.770265 80.29466 
L 76.873766 80.205484 
L 76.977955 80.027132 
L 77.021465 79.937956 
L 77.125844 79.670428 
L 77.286035 79.581252 
L 77.340255 79.447488 
L 77.389227 79.447488 
L 77.411504 79.358312 
L 77.429102 79.269136 
L 77.517166 79.269136 
L 77.637291 79.17996 
L 77.710084 79.001608 
L 77.748059 79.001608 
L 77.897966 78.912432 
L 77.99154 78.778668 
L 78.006811 78.778668 
L 78.035239 78.689492 
L 78.134702 78.466552 
L 78.392884 78.377376 
L 78.493416 78.199024 
L 78.53949 78.109848 
L 78.576397 77.976084 
L 78.634607 77.976084 
L 78.72514 77.886908 
L 78.813655 77.797732 
L 78.832227 77.797732 
L 78.976102 77.708556 
L 79.006264 77.530204 
L 79.063049 77.530204 
L 79.21849 77.441028 
L 79.325031 77.307264 
L 79.428508 77.218087 
L 79.530393 76.950559 
L 79.86702 76.861383 
L 79.86702 76.816795 
L 79.953658 76.816795 
L 80.236278 76.727619 
L 80.293966 76.549267 
L 80.51486 76.460091 
L 80.599314 76.326327 
L 80.617696 76.326327 
L 80.832464 76.237151 
L 80.936344 75.969623 
L 80.938007 75.969623 
L 81.098126 75.880447 
L 81.191795 75.657507 
L 81.341726 75.568331 
L 81.395993 75.479155 
L 81.424849 75.479155 
L 81.486883 75.389979 
L 81.587272 75.211627 
L 81.893096 75.122451 
L 81.980399 74.988687 
L 82.134629 74.899511 
L 82.183387 74.765747 
L 82.218702 74.765747 
L 82.448242 74.676571 
L 82.448242 74.631983 
L 82.510965 74.631983 
L 82.695546 74.542807 
L 82.695546 74.498219 
L 82.799926 74.498219 
L 82.970234 74.409043 
L 83.063665 74.275279 
L 83.148047 74.186103 
L 83.250502 74.00775 
L 83.252426 74.00775 
L 83.383833 73.918574 
L 83.485314 73.740222 
L 83.490231 73.740222 
L 83.541648 73.651046 
L 83.632799 73.517282 
L 83.643748 73.517282 
L 83.781495 73.428106 
L 83.805245 73.33893 
L 83.982512 73.249754 
L 84.058368 73.11599 
L 84.08948 73.11599 
L 84.440926 73.026814 
L 84.529844 72.848462 
L 84.839159 72.759286 
L 84.898889 72.580934 
L 84.945201 72.580934 
L 85.119831 72.491758 
L 85.182696 72.402582 
L 85.228889 72.402582 
L 85.372218 72.313406 
L 85.422567 72.179642 
L 85.650682 72.090466 
L 85.650682 72.045878 
L 85.732024 72.045878 
L 86.026044 71.956702 
L 86.112468 71.77835 
L 86.129782 71.77835 
L 86.354904 71.689174 
L 86.416795 71.55541 
L 86.559649 71.466234 
L 86.66714 71.33247 
L 86.770094 71.243294 
L 86.778644 71.154118 
L 86.831558 71.154118 
L 87.242829 71.064942 
L 87.271163 70.975766 
L 87.314316 70.975766 
L 87.525045 70.88659 
L 87.607575 70.663649 
L 87.829444 70.574473 
L 87.829444 70.529885 
L 87.905965 70.529885 
L 88.022148 70.440709 
L 88.130707 70.217769 
L 88.348467 70.128593 
L 88.439926 69.994829 
L 88.555682 69.905653 
L 88.618666 69.771889 
L 88.823743 69.682713 
L 88.823743 69.638125 
L 88.890266 69.638125 
L 89.162768 69.548949 
L 89.218675 69.415185 
L 89.247008 69.415185 
L 89.470135 69.326009 
L 89.581022 69.058481 
L 89.7766 68.969305 
L 89.867608 68.880129 
L 89.883283 68.880129 
L 89.957572 68.790953 
L 90.064468 68.701777 
L 90.131062 68.612601 
L 90.211431 68.345073 
L 90.335807 68.255897 
L 90.400881 68.077545 
L 90.444462 68.077545 
L 90.620303 67.988369 
L 90.706776 67.854605 
L 91.136785 67.765429 
L 91.136785 67.720841 
L 91.221049 67.720841 
L 91.57639 67.631665 
L 91.651249 67.4979 
L 91.652887 67.4979 
L 91.922279 67.408724 
L 92.018393 67.230372 
L 92.032429 67.230372 
L 92.494525 67.141196 
L 92.597455 66.962844 
L 92.669155 66.873668 
L 92.764082 66.650728 
L 92.776788 66.650728 
L 92.98569 66.561552 
L 93.084369 66.472376 
L 93.15063 66.3832 
L 93.215989 66.294024 
L 93.259261 66.294024 
L 93.321509 66.204848 
L 93.430994 66.071084 
L 93.486449 65.981908 
L 93.585414 65.803556 
L 93.739192 65.71438 
L 93.823741 65.580616 
L 93.826947 65.580616 
L 94.224942 65.49144 
L 94.285931 65.402264 
L 94.328253 65.402264 
L 94.370551 65.313088 
L 94.370551 65.2685 
L 94.426529 65.2685 
L 94.646568 65.179324 
L 94.724515 65.000972 
L 94.748882 65.000972 
L 94.895773 64.911796 
L 94.988301 64.733444 
L 95.085936 64.644268 
L 95.152957 64.510504 
L 95.157113 64.510504 
L 95.233824 64.421328 
L 95.252444 64.332152 
L 95.304788 64.332152 
L 95.597834 64.242975 
L 95.597834 64.198387 
L 95.685232 64.198387 
L 95.931278 64.109211 
L 96.034137 64.020035 
L 96.317588 63.930859 
L 96.389906 63.841683 
L 96.485759 63.752507 
L 96.485759 63.707919 
L 96.553635 63.707919 
L 97.086267 63.618743 
L 97.15127 63.484979 
L 97.707865 63.395803 
L 97.707865 63.351215 
L 97.760945 63.351215 
L 97.98184 63.262039 
L 97.98184 63.217451 
L 98.076078 63.217451 
L 98.28315 63.128275 
L 98.28315 63.083687 
L 98.650034 62.994511 
L 98.701689 62.905335 
L 98.702283 62.905335 
L 99.021311 62.816159 
L 99.113293 62.682395 
L 99.240662 62.593219 
L 99.240662 62.548631 
L 99.348627 62.548631 
L 99.51022 62.459455 
L 99.550879 62.370279 
L 99.607308 62.370279 
L 99.854731 62.281103 
L 99.952555 62.102751 
L 100.130202 62.013575 
L 100.212851 61.924399 
L 100.480437 61.835223 
L 100.576932 61.701459 
L 101.021262 61.612283 
L 101.021262 61.567695 
L 101.107141 61.567695 
L 101.22064 61.478519 
L 101.308252 61.389343 
L 101.638039 61.300167 
L 101.666324 61.210991 
L 101.743178 61.210991 
L 102.324378 61.121815 
L 102.414887 60.98805 
L 102.784526 60.898874 
L 102.835302 60.809698 
L 102.870594 60.809698 
L 102.974023 60.720522 
L 103.06876 60.54217 
L 103.215699 60.452994 
L 103.293693 60.31923 
L 103.402323 60.230054 
L 103.402323 60.185466 
L 103.451817 60.185466 
L 103.923864 60.09629 
L 104.012331 59.962526 
L 104.032352 59.962526 
L 104.236289 59.87335 
L 104.236289 59.828762 
L 104.316492 59.828762 
L 104.465544 59.739586 
L 104.521498 59.516646 
L 104.69221 59.42747 
L 104.789298 59.293706 
L 105.175253 59.20453 
L 105.263553 59.070766 
L 105.645922 58.98159 
L 105.684918 58.803238 
L 105.739637 58.803238 
L 105.985754 58.714062 
L 105.985754 58.669474 
L 106.338554 58.580298 
L 106.339148 58.491122 
L 106.346748 58.491122 
L 106.613622 58.401946 
L 106.613622 58.357358 
L 106.708264 58.357358 
L 106.809366 58.268182 
L 106.919231 58.179006 
L 107.044724 58.08983 
L 107.045033 58.000654 
L 107.127254 58.000654 
L 107.312643 57.911478 
L 107.326014 57.822302 
L 107.423435 57.822302 
L 107.70121 57.733125 
L 107.70121 57.688537 
L 107.979483 57.599361 
L 108.026412 57.465597 
L 108.080419 57.465597 
L 108.195747 57.376421 
L 108.195747 57.331833 
L 108.274572 57.331833 
L 108.651834 57.242657 
L 108.651834 57.198069 
L 108.720256 57.198069 
L 108.900207 57.108893 
L 108.976158 57.019717 
L 109.218902 56.930541 
L 109.327176 56.752189 
L 109.39453 56.663013 
L 109.405954 56.573837 
L 109.474163 56.573837 
L 110.209093 56.484661 
L 110.306158 56.350897 
L 110.91645 56.261721 
L 110.91645 56.217133 
L 111.365317 56.127957 
L 111.391964 56.038781 
L 111.454663 56.038781 
L 111.570442 55.949605 
L 111.574551 55.860429 
L 111.601839 55.860429 
L 111.794567 55.771253 
L 111.794567 55.726665 
L 112.106161 55.637489 
L 112.130623 55.459137 
L 112.704366 55.369961 
L 112.704366 55.325373 
L 112.810526 55.325373 
L 113.682278 55.236197 
L 113.682278 55.191609 
L 113.765425 55.191609 
L 114.092362 55.102433 
L 114.189165 55.013257 
L 114.336769 54.924081 
L 114.395121 54.834905 
L 114.445091 54.834905 
L 114.617489 54.745729 
L 114.709803 54.656553 
L 115.52325 54.567377 
L 115.57006 54.4782 
L 115.983612 54.389024 
L 116.061415 54.25526 
L 116.082671 54.25526 
L 116.389231 54.166084 
L 116.495391 54.076908 
L 116.7521 53.987732 
L 116.7521 53.943144 
L 116.817103 53.943144 
L 117.285397 53.853968 
L 117.285397 53.80938 
L 117.290717 53.80938 
L 117.534435 53.720204 
L 117.534435 53.675616 
L 117.589819 53.675616 
L 117.776894 53.58644 
L 117.776894 53.541852 
L 117.845911 53.541852 
L 118.079606 53.452676 
L 118.14069 53.318912 
L 118.15646 53.318912 
L 118.523913 53.229736 
L 118.523913 53.185148 
L 118.557614 53.185148 
L 119.191918 53.095972 
L 119.291143 52.91762 
L 120.011967 52.828444 
L 120.118578 52.739268 
L 120.507216 52.650092 
L 120.560178 52.560916 
L 120.603093 52.560916 
L 121.070295 52.47174 
L 121.180018 52.337976 
L 121.600504 52.2488 
L 121.708968 52.159624 
L 121.839354 52.070448 
L 121.88671 51.981272 
L 121.889275 51.981272 
L 122.385808 51.892096 
L 122.385808 51.847508 
L 122.386188 51.847508 
L 122.800143 51.758332 
L 122.903548 51.669156 
L 123.061055 51.57998 
L 123.061055 51.535392 
L 123.114706 51.535392 
L 123.569201 51.446216 
L 123.649522 51.312452 
L 123.93105 51.223275 
L 124.005576 51.134099 
L 124.020871 51.134099 
L 124.473086 51.044923 
L 124.577632 50.955747 
L 125.177118 50.866571 
L 125.23977 50.777395 
L 125.677593 50.688219 
L 125.739556 50.509867 
L 125.786818 50.509867 
L 125.992774 50.420691 
L 125.992774 50.376103 
L 126.055354 50.376103 
L 126.368801 50.286927 
L 126.376044 50.197751 
L 126.646243 50.108575 
L 126.646243 50.063987 
L 126.718347 50.063987 
L 127.502938 49.974811 
L 127.502938 49.930223 
L 127.603731 49.930223 
L 128.152299 49.841047 
L 128.152299 49.796459 
L 128.231147 49.796459 
L 128.711292 49.707283 
L 128.799451 49.573519 
L 128.821609 49.573519 
L 129.284108 49.484343 
L 129.350868 49.395167 
L 129.366258 49.395167 
L 129.965412 49.305991 
L 129.965412 49.261403 
L 130.063165 49.261403 
L 130.701506 49.172227 
L 130.782825 49.083051 
L 130.801635 49.083051 
L 131.007733 48.993875 
L 131.100476 48.860111 
L 131.110783 48.860111 
L 131.34531 48.770935 
L 131.41929 48.681759 
L 131.799212 48.592583 
L 131.799212 48.547995 
L 131.876184 48.547995 
L 132.067511 48.458819 
L 132.175571 48.280467 
L 133.44501 48.191291 
L 133.44501 48.146703 
L 133.536137 48.146703 
L 133.9941 48.057527 
L 134.079171 47.96835 
L 134.448239 47.879174 
L 134.448239 47.834586 
L 134.54053 47.834586 
L 136.311607 47.74541 
L 136.330321 47.611646 
L 136.418337 47.611646 
L 137.027799 47.52247 
L 137.028678 47.433294 
L 137.131371 47.433294 
L 137.596269 47.344118 
L 137.639232 47.254942 
L 137.681553 47.254942 
L 137.953771 47.165766 
L 138.022597 47.032002 
L 138.054137 47.032002 
L 138.572685 46.942826 
L 138.572685 46.898238 
L 138.680175 46.898238 
L 139.442394 46.809062 
L 139.442394 46.764474 
L 139.544588 46.764474 
L 140.366134 46.675298 
L 140.397032 46.586122 
L 140.473149 46.586122 
L 141.019318 46.496946 
L 141.098119 46.363182 
L 141.117261 46.363182 
L 141.645974 46.274006 
L 141.746649 46.18483 
L 142.220286 46.095654 
L 142.220286 46.051066 
L 142.325877 46.051066 
L 142.992955 45.96189 
L 142.992955 45.917302 
L 143.093416 45.917302 
L 143.526323 45.828126 
L 143.526323 45.783538 
L 143.634122 45.783538 
L 144.398764 45.694362 
L 144.398764 45.649774 
L 144.479916 45.649774 
L 144.854803 45.560598 
L 144.854803 45.51601 
L 144.903252 45.51601 
L 145.220499 45.426834 
L 145.247811 45.337658 
L 145.292056 45.337658 
L 145.792578 45.248482 
L 145.887125 45.07013 
L 146.747525 44.980954 
L 146.755576 44.891778 
L 146.857082 44.891778 
L 147.451581 44.802602 
L 147.477444 44.713425 
L 147.551662 44.713425 
L 147.953623 44.624249 
L 148.026796 44.535073 
L 148.057243 44.535073 
L 148.650127 44.445897 
L 148.650127 44.401309 
L 148.745529 44.401309 
L 149.32186 44.312133 
L 149.413106 44.222957 
L 149.430229 44.222957 
L 150.233368 44.133781 
L 150.237976 44.044605 
L 150.302456 44.044605 
L 150.824519 43.955429 
L 150.91168 43.866253 
L 150.933078 43.866253 
L 151.456163 43.777077 
L 151.456163 43.732489 
L 151.564461 43.732489 
L 152.533467 43.643313 
L 152.636231 43.554137 
L 154.244695 43.464961 
L 154.244695 43.420373 
L 154.351259 43.420373 
L 155.007579 43.331197 
L 155.014917 43.242021 
L 155.099347 43.242021 
L 155.300292 43.152845 
L 155.333375 43.063669 
L 155.406999 43.063669 
L 156.050019 42.974493 
L 156.050019 42.929905 
L 156.158174 42.929905 
L 156.895836 42.840729 
L 156.954569 42.751553 
L 157.005606 42.751553 
L 157.515343 42.662377 
L 157.585808 42.573201 
L 157.623618 42.573201 
L 157.999407 42.484025 
L 157.999407 42.439437 
L 158.091532 42.439437 
L 158.659265 42.350261 
L 158.683585 42.261085 
L 158.770295 42.261085 
L 159.314825 42.171909 
L 159.334727 42.082733 
L 159.415072 42.082733 
L 160.368712 41.993557 
L 160.423526 41.815205 
L 160.469102 41.815205 
L 161.421174 41.726029 
L 161.421174 41.681441 
L 161.525649 41.681441 
L 161.947465 41.592265 
L 161.988599 41.503088 
L 162.058565 41.503088 
L 162.477009 41.413912 
L 162.477009 41.369324 
L 162.569466 41.369324 
L 163.697096 41.280148 
L 163.697096 41.23556 
L 163.781716 41.23556 
L 164.458887 41.146384 
L 164.464373 41.057208 
L 164.559728 41.057208 
L 165.324725 40.968032 
L 165.324725 40.923444 
L 165.43509 40.923444 
L 166.038732 40.834268 
L 166.038732 40.78968 
L 166.149833 40.78968 
L 166.406542 40.700504 
L 166.406542 40.655916 
L 166.517595 40.655916 
L 167.061033 40.56674 
L 167.061033 40.522152 
L 167.171587 40.522152 
L 167.950811 40.432976 
L 167.950811 40.388388 
L 168.059204 40.388388 
L 169.308075 40.299212 
L 169.338118 40.210036 
L 169.41813 40.210036 
L 171.162251 40.12086 
L 171.162251 40.076272 
L 171.271357 40.076272 
L 171.688352 39.987096 
L 171.75269 39.853332 
L 171.798075 39.853332 
L 172.599457 39.764156 
L 172.599457 39.719568 
L 172.710557 39.719568 
L 173.272163 39.630392 
L 173.351748 39.541216 
L 173.376947 39.541216 
L 174.224474 39.45204 
L 174.224474 39.407452 
L 174.335527 39.407452 
L 174.552455 39.318276 
L 174.552455 39.273688 
L 174.662392 39.273688 
L 175.827285 39.184512 
L 175.923376 39.095336 
L 175.938124 39.095336 
L 176.572713 39.00616 
L 176.572713 38.961572 
L 176.682246 38.961572 
L 177.411928 38.872396 
L 177.411928 38.827808 
L 177.521556 38.827808 
L 178.067083 38.738632 
L 178.068888 38.649456 
L 178.17759 38.649456 
L 179.312416 38.56028 
L 179.312416 38.515692 
L 179.422899 38.515692 
L 180.75582 38.426516 
L 180.809043 38.33734 
L 180.865875 38.33734 
L 181.430308 38.248163 
L 181.430308 38.203575 
L 181.541337 38.203575 
L 181.69388 38.114399 
L 181.69388 38.069811 
L 181.802986 38.069811 
L 182.74297 37.980635 
L 182.810704 37.891459 
L 182.847492 37.891459 
L 183.264012 37.802283 
L 183.264012 37.757695 
L 183.371645 37.757695 
L 184.29567 37.668519 
L 184.386132 37.579343 
L 184.404324 37.579343 
L 185.111254 37.490167 
L 185.111254 37.445579 
L 185.217296 37.445579 
L 186.79707 37.356403 
L 186.79707 37.311815 
L 186.906484 37.311815 
L 187.692524 37.222639 
L 187.692524 37.178051 
L 187.799135 37.178051 
L 188.465501 37.088875 
L 188.465501 37.044287 
L 188.576459 37.044287 
L 190.060973 36.955111 
L 190.060973 36.910523 
L 190.171979 36.910523 
L 191.258926 36.821347 
L 191.258926 36.776759 
L 191.368934 36.776759 
L 192.710927 36.687583 
L 192.716983 36.553819 
L 192.821909 36.553819 
L 193.139037 36.464643 
L 193.241849 36.330879 
L 193.246812 36.330879 
L 194.169317 36.241703 
L 194.169317 36.197115 
L 194.27942 36.197115 
L 195.430348 36.107939 
L 195.482478 36.018763 
L 195.541235 36.018763 
L 196.420705 35.929587 
L 196.420705 35.884999 
L 196.531212 35.884999 
L 197.417 35.795823 
L 197.436379 35.706647 
L 197.526319 35.706647 
L 198.276996 35.617471 
L 198.339267 35.528295 
L 198.387597 35.528295 
L 199.178624 35.439119 
L 199.178624 35.394531 
L 199.289701 35.394531 
L 200.063035 35.305355 
L 200.063035 35.260767 
L 200.174135 35.260767 
L 201.060469 35.171591 
L 201.171593 35.127003 
L 201.694013 35.037827 
L 201.694013 34.993238 
L 201.804971 34.993238 
L 205.346222 34.904062 
L 205.407923 34.814886 
L 205.452715 34.814886 
L 205.58253 34.72571 
L 205.58253 34.681122 
L 205.693607 34.681122 
L 207.658623 34.591946 
L 207.742791 34.50277 
L 207.768726 34.50277 
L 209.561367 34.413594 
L 209.561367 34.369006 
L 209.671993 34.369006 
L 211.56101 34.27983 
L 211.56101 34.235242 
L 211.671754 34.235242 
L 212.3195 34.146066 
L 212.423998 34.05689 
L 212.429389 34.05689 
L 212.740271 33.967714 
L 212.740271 33.923126 
L 212.851205 33.923126 
L 213.205478 33.83395 
L 213.301141 33.700186 
L 213.316555 33.700186 
L 214.074403 33.61101 
L 214.074403 33.566422 
L 214.185219 33.566422 
L 214.68453 33.477246 
L 214.795607 33.38807 
L 215.711058 33.298894 
L 215.711058 33.254306 
L 215.822158 33.254306 
L 217.032389 33.16513 
L 217.041936 33.075954 
L 217.142017 33.075954 
L 218.79285 32.986778 
L 218.79285 32.94219 
L 218.903689 32.94219 
L 219.203622 32.853014 
L 219.203622 32.808426 
L 219.314699 32.808426 
L 221.660967 32.71925 
L 221.660967 32.674662 
L 221.771806 32.674662 
L 222.943942 32.585486 
L 223.055114 32.49631 
L 223.465697 32.407134 
L 223.465697 32.362546 
L 223.576702 32.362546 
L 223.977334 32.27337 
L 224.088482 32.228782 
L 224.974887 32.139606 
L 224.974887 32.095018 
L 225.08556 32.095018 
L 226.633486 32.005842 
L 226.633486 31.961254 
L 226.744468 31.961254 
L 228.445555 31.872078 
L 228.514666 31.782902 
L 228.556536 31.782902 
L 228.650585 31.693725 
L 228.661391 31.604549 
L 228.761638 31.604549 
L 229.982318 31.515373 
L 229.982318 31.470785 
L 230.093371 31.470785 
L 231.661888 31.381609 
L 231.773178 31.337021 
L 231.977401 31.247845 
L 232.088953 31.203257 
L 232.983837 31.114081 
L 232.983837 31.069493 
L 233.0947 31.069493 
L 234.085152 30.980317 
L 234.196347 30.935729 
L 235.469847 30.846553 
L 235.469847 30.801965 
L 235.580947 30.801965 
L 236.402041 30.712789 
L 236.402041 30.668201 
L 236.512382 30.668201 
L 236.850124 30.579025 
L 236.850124 30.534437 
L 236.960655 30.534437 
L 237.86948 30.445261 
L 237.86948 30.400673 
L 237.98058 30.400673 
L 239.397409 30.311497 
L 239.397409 30.266909 
L 239.508485 30.266909 
L 239.909283 30.177733 
L 239.909283 30.133145 
L 240.020075 30.133145 
L 241.139345 30.043969 
L 241.139345 29.999381 
L 241.250445 29.999381 
L 242.216317 29.910205 
L 242.330457 29.865617 
L 243.856462 29.776441 
L 243.856462 29.731853 
L 243.967467 29.731853 
L 246.092104 29.642677 
L 246.203418 29.598089 
L 246.700592 29.508913 
L 246.817772 29.464325 
L 249.755214 29.375149 
L 249.755214 29.330561 
L 249.866006 29.330561 
L 250.726287 29.241385 
L 250.840879 29.196797 
L 252.570346 29.107621 
L 253.19648 28.929269 
L 254.126751 28.840093 
L 254.23132 28.750917 
L 254.237661 28.750917 
L 255.315108 28.661741 
L 255.482424 28.572565 
L 256.210894 28.527977 
L 256.412528 28.4388 
L 257.607346 28.349624 
L 257.718446 28.305036 
L 258.56614 28.21586 
L 258.67686 28.171272 
L 260.427156 28.082096 
L 260.427156 28.037508 
L 260.537995 28.037508 
L 262.573405 27.948332 
L 262.678877 27.903744 
L 264.351868 27.814568 
L 264.460308 27.76998 
L 266.216304 27.680804 
L 266.326716 27.636216 
L 268.746702 27.54704 
L 269.347329 27.502452 
L 270.562238 27.413276 
L 270.672721 27.368688 
L 275.362217 27.279512 
L 275.484147 27.234924 
L 276.563542 27.145748 
L 276.627879 27.10116 
L 277.125029 27.011984 
L 277.485025 26.922808 
L 277.697892 26.87822 
L 282.023758 26.789044 
L 282.023758 26.789044 
" clip-path="url(#pbba7e936bf)" style="fill: none; stroke: #1f77b4; stroke-width: 1.5; stroke-linecap: round"/>
   </g>
   <g id="patch_3">
    <path d="M 35.655938 265.022801 
L 35.655938 19.642031 
" style="fill: none"/>
   </g>
   <g id="patch_4">
    <path d="M 289.19952 265.022801 
L 289.19952 19.642031 
" style="fill: none"/>
   </g>
   <g id="patch_5">
    <path d="M 35.655938 265.022801 
L 289.19952 265.022801 
" style="fill: none"/>
   </g>
   <g id="patch_6">
    <path d="M 35.655938 19.642031 
L 289.19952 19.642031 
" style="fill: none"/>
   </g>
   <g id="text_15">
    <!-- Model 0: Precision-Recall Curve -->
    <g style="fill: #333333" transform="translate(93.910307 13.642031) scale(0.09 -0.09)">
     <defs>
      <path id="Arial-BoldMT-4d" d="M 453 0 
L 453 4581 
L 1838 4581 
L 2669 1456 
L 3491 4581 
L 4878 4581 
L 4878 0 
L 4019 0 
L 4019 3606 
L 3109 0 
L 2219 0 
L 1313 3606 
L 1313 0 
L 453 0 
z
" transform="scale(0.015625)"/>
      <path id="Arial-BoldMT-64" d="M 3503 0 
L 2688 0 
L 2688 488 
Q 2484 203 2207 64 
Q 1931 -75 1650 -75 
Q 1078 -75 670 386 
Q 263 847 263 1672 
Q 263 2516 659 2955 
Q 1056 3394 1663 3394 
Q 2219 3394 2625 2931 
L 2625 4581 
L 3503 4581 
L 3503 0 
z
M 1159 1731 
Q 1159 1200 1306 963 
Q 1519 619 1900 619 
Q 2203 619 2415 876 
Q 2628 1134 2628 1647 
Q 2628 2219 2422 2470 
Q 2216 2722 1894 2722 
Q 1581 2722 1370 2473 
Q 1159 2225 1159 1731 
z
" transform="scale(0.015625)"/>
      <path id="Arial-BoldMT-30" d="M 1756 4600 
Q 2422 4600 2797 4125 
Q 3244 3563 3244 2259 
Q 3244 959 2794 391 
Q 2422 -78 1756 -78 
Q 1088 -78 678 436 
Q 269 950 269 2269 
Q 269 3563 719 4131 
Q 1091 4600 1756 4600 
z
M 1756 3872 
Q 1597 3872 1472 3770 
Q 1347 3669 1278 3406 
Q 1188 3066 1188 2259 
Q 1188 1453 1269 1151 
Q 1350 850 1473 750 
Q 1597 650 1756 650 
Q 1916 650 2041 751 
Q 2166 853 2234 1116 
Q 2325 1453 2325 2259 
Q 2325 3066 2244 3367 
Q 2163 3669 2039 3770 
Q 1916 3872 1756 3872 
z
" transform="scale(0.015625)"/>
      <path id="Arial-BoldMT-3a" d="M 628 2441 
L 628 3319 
L 1506 3319 
L 1506 2441 
L 628 2441 
z
M 628 0 
L 628 878 
L 1506 878 
L 1506 0 
L 628 0 
z
" transform="scale(0.015625)"/>
      <path id="Arial-BoldMT-2d" d="M 359 1222 
L 359 2100 
L 2084 2100 
L 2084 1222 
L 359 1222 
z
" transform="scale(0.015625)"/>
      <path id="Arial-BoldMT-43" d="M 3397 1684 
L 4294 1400 
Q 4088 650 3608 286 
Q 3128 -78 2391 -78 
Q 1478 -78 890 545 
Q 303 1169 303 2250 
Q 303 3394 893 4026 
Q 1484 4659 2447 4659 
Q 3288 4659 3813 4163 
Q 4125 3869 4281 3319 
L 3366 3100 
Q 3284 3456 3026 3662 
Q 2769 3869 2400 3869 
Q 1891 3869 1573 3503 
Q 1256 3138 1256 2319 
Q 1256 1450 1568 1081 
Q 1881 713 2381 713 
Q 2750 713 3015 947 
Q 3281 1181 3397 1684 
z
" transform="scale(0.015625)"/>
      <path id="Arial-BoldMT-75" d="M 2644 0 
L 2644 497 
Q 2463 231 2167 78 
Q 1872 -75 1544 -75 
Q 1209 -75 943 72 
Q 678 219 559 484 
Q 441 750 441 1219 
L 441 3319 
L 1319 3319 
L 1319 1794 
Q 1319 1094 1367 936 
Q 1416 778 1544 686 
Q 1672 594 1869 594 
Q 2094 594 2272 717 
Q 2450 841 2515 1023 
Q 2581 1206 2581 1919 
L 2581 3319 
L 3459 3319 
L 3459 0 
L 2644 0 
z
" transform="scale(0.015625)"/>
      <path id="Arial-BoldMT-76" d="M 1372 0 
L 34 3319 
L 956 3319 
L 1581 1625 
L 1763 1059 
Q 1834 1275 1853 1344 
Q 1897 1484 1947 1625 
L 2578 3319 
L 3481 3319 
L 2163 0 
L 1372 0 
z
" transform="scale(0.015625)"/>
     </defs>
     <use xlink:href="#Arial-BoldMT-4d"/>
     <use xlink:href="#Arial-BoldMT-6f" transform="translate(83.300781 0)"/>
     <use xlink:href="#Arial-BoldMT-64" transform="translate(144.384766 0)"/>
     <use xlink:href="#Arial-BoldMT-65" transform="translate(205.46875 0)"/>
     <use xlink:href="#Arial-BoldMT-6c" transform="translate(261.083984 0)"/>
     <use xlink:href="#Arial-BoldMT-20" transform="translate(288.867188 0)"/>
     <use xlink:href="#Arial-BoldMT-30" transform="translate(316.650391 0)"/>
     <use xlink:href="#Arial-BoldMT-3a" transform="translate(372.265625 0)"/>
     <use xlink:href="#Arial-BoldMT-20" transform="translate(405.566406 0)"/>
     <use xlink:href="#Arial-BoldMT-50" transform="translate(433.349609 0)"/>
     <use xlink:href="#Arial-BoldMT-72" transform="translate(500.048828 0)"/>
     <use xlink:href="#Arial-BoldMT-65" transform="translate(538.964844 0)"/>
     <use xlink:href="#Arial-BoldMT-63" transform="translate(594.580078 0)"/>
     <use xlink:href="#Arial-BoldMT-69" transform="translate(650.195312 0)"/>
     <use xlink:href="#Arial-BoldMT-73" transform="translate(677.978516 0)"/>
     <use xlink:href="#Arial-BoldMT-69" transform="translate(733.59375 0)"/>
     <use xlink:href="#Arial-BoldMT-6f" transform="translate(761.376953 0)"/>
     <use xlink:href="#Arial-BoldMT-6e" transform="translate(822.460938 0)"/>
     <use xlink:href="#Arial-BoldMT-2d" transform="translate(883.544922 0)"/>
     <use xlink:href="#Arial-BoldMT-52" transform="translate(916.845703 0)"/>
     <use xlink:href="#Arial-BoldMT-65" transform="translate(989.0625 0)"/>
     <use xlink:href="#Arial-BoldMT-63" transform="translate(1044.677734 0)"/>
     <use xlink:href="#Arial-BoldMT-61" transform="translate(1100.292969 0)"/>
     <use xlink:href="#Arial-BoldMT-6c" transform="translate(1155.908203 0)"/>
     <use xlink:href="#Arial-BoldMT-6c" transform="translate(1183.691406 0)"/>
     <use xlink:href="#Arial-BoldMT-20" transform="translate(1211.474609 0)"/>
     <use xlink:href="#Arial-BoldMT-43" transform="translate(1239.257812 0)"/>
     <use xlink:href="#Arial-BoldMT-75" transform="translate(1311.474609 0)"/>
     <use xlink:href="#Arial-BoldMT-72" transform="translate(1372.558594 0)"/>
     <use xlink:href="#Arial-BoldMT-76" transform="translate(1411.474609 0)"/>
     <use xlink:href="#Arial-BoldMT-65" transform="translate(1467.089844 0)"/>
    </g>
   </g>
   <g id="legend_1">
    <g id="patch_7">
     <path d="M 164.573426 260.522801 
L 282.89952 260.522801 
Q 284.69952 260.522801 284.69952 258.722801 
L 284.69952 246.89202 
Q 284.69952 245.09202 282.89952 245.09202 
L 164.573426 245.09202 
Q 162.773426 245.09202 162.773426 246.89202 
L 162.773426 258.722801 
Q 162.773426 260.522801 164.573426 260.522801 
z
" style="fill: #ffffff; opacity: 0.8; stroke: #cccccc; stroke-width: 0.75; stroke-linejoin: miter"/>
    </g>
    <g id="line2d_26">
     <path d="M 166.373426 251.984051 
L 175.373426 251.984051 
L 184.373426 251.984051 
" style="fill: none; stroke: #1f77b4; stroke-width: 1.5; stroke-linecap: round"/>
    </g>
    <g id="text_16">
     <!-- Precision-Recall curve -->
     <g style="fill: #333333" transform="translate(191.573426 255.134051) scale(0.09 -0.09)">
      <defs>
       <path id="ArialMT-50" d="M 494 0 
L 494 4581 
L 2222 4581 
Q 2678 4581 2919 4538 
Q 3256 4481 3484 4323 
Q 3713 4166 3852 3881 
Q 3991 3597 3991 3256 
Q 3991 2672 3619 2267 
Q 3247 1863 2275 1863 
L 1100 1863 
L 1100 0 
L 494 0 
z
M 1100 2403 
L 2284 2403 
Q 2872 2403 3119 2622 
Q 3366 2841 3366 3238 
Q 3366 3525 3220 3729 
Q 3075 3934 2838 4000 
Q 2684 4041 2272 4041 
L 1100 4041 
L 1100 2403 
z
" transform="scale(0.015625)"/>
       <path id="ArialMT-72" d="M 416 0 
L 416 3319 
L 922 3319 
L 922 2816 
Q 1116 3169 1280 3281 
Q 1444 3394 1641 3394 
Q 1925 3394 2219 3213 
L 2025 2691 
Q 1819 2813 1613 2813 
Q 1428 2813 1281 2702 
Q 1134 2591 1072 2394 
Q 978 2094 978 1738 
L 978 0 
L 416 0 
z
" transform="scale(0.015625)"/>
       <path id="ArialMT-65" d="M 2694 1069 
L 3275 997 
Q 3138 488 2766 206 
Q 2394 -75 1816 -75 
Q 1088 -75 661 373 
Q 234 822 234 1631 
Q 234 2469 665 2931 
Q 1097 3394 1784 3394 
Q 2450 3394 2872 2941 
Q 3294 2488 3294 1666 
Q 3294 1616 3291 1516 
L 816 1516 
Q 847 969 1125 678 
Q 1403 388 1819 388 
Q 2128 388 2347 550 
Q 2566 713 2694 1069 
z
M 847 1978 
L 2700 1978 
Q 2663 2397 2488 2606 
Q 2219 2931 1791 2931 
Q 1403 2931 1139 2672 
Q 875 2413 847 1978 
z
" transform="scale(0.015625)"/>
       <path id="ArialMT-63" d="M 2588 1216 
L 3141 1144 
Q 3050 572 2676 248 
Q 2303 -75 1759 -75 
Q 1078 -75 664 370 
Q 250 816 250 1647 
Q 250 2184 428 2587 
Q 606 2991 970 3192 
Q 1334 3394 1763 3394 
Q 2303 3394 2647 3120 
Q 2991 2847 3088 2344 
L 2541 2259 
Q 2463 2594 2264 2762 
Q 2066 2931 1784 2931 
Q 1359 2931 1093 2626 
Q 828 2322 828 1663 
Q 828 994 1084 691 
Q 1341 388 1753 388 
Q 2084 388 2306 591 
Q 2528 794 2588 1216 
z
" transform="scale(0.015625)"/>
       <path id="ArialMT-69" d="M 425 3934 
L 425 4581 
L 988 4581 
L 988 3934 
L 425 3934 
z
M 425 0 
L 425 3319 
L 988 3319 
L 988 0 
L 425 0 
z
" transform="scale(0.015625)"/>
       <path id="ArialMT-73" d="M 197 991 
L 753 1078 
Q 800 744 1014 566 
Q 1228 388 1613 388 
Q 2000 388 2187 545 
Q 2375 703 2375 916 
Q 2375 1106 2209 1216 
Q 2094 1291 1634 1406 
Q 1016 1563 777 1677 
Q 538 1791 414 1992 
Q 291 2194 291 2438 
Q 291 2659 392 2848 
Q 494 3038 669 3163 
Q 800 3259 1026 3326 
Q 1253 3394 1513 3394 
Q 1903 3394 2198 3281 
Q 2494 3169 2634 2976 
Q 2775 2784 2828 2463 
L 2278 2388 
Q 2241 2644 2061 2787 
Q 1881 2931 1553 2931 
Q 1166 2931 1000 2803 
Q 834 2675 834 2503 
Q 834 2394 903 2306 
Q 972 2216 1119 2156 
Q 1203 2125 1616 2013 
Q 2213 1853 2448 1751 
Q 2684 1650 2818 1456 
Q 2953 1263 2953 975 
Q 2953 694 2789 445 
Q 2625 197 2315 61 
Q 2006 -75 1616 -75 
Q 969 -75 630 194 
Q 291 463 197 991 
z
" transform="scale(0.015625)"/>
       <path id="ArialMT-6f" d="M 213 1659 
Q 213 2581 725 3025 
Q 1153 3394 1769 3394 
Q 2453 3394 2887 2945 
Q 3322 2497 3322 1706 
Q 3322 1066 3130 698 
Q 2938 331 2570 128 
Q 2203 -75 1769 -75 
Q 1072 -75 642 372 
Q 213 819 213 1659 
z
M 791 1659 
Q 791 1022 1069 705 
Q 1347 388 1769 388 
Q 2188 388 2466 706 
Q 2744 1025 2744 1678 
Q 2744 2294 2464 2611 
Q 2184 2928 1769 2928 
Q 1347 2928 1069 2612 
Q 791 2297 791 1659 
z
" transform="scale(0.015625)"/>
       <path id="ArialMT-6e" d="M 422 0 
L 422 3319 
L 928 3319 
L 928 2847 
Q 1294 3394 1984 3394 
Q 2284 3394 2536 3286 
Q 2788 3178 2913 3003 
Q 3038 2828 3088 2588 
Q 3119 2431 3119 2041 
L 3119 0 
L 2556 0 
L 2556 2019 
Q 2556 2363 2490 2533 
Q 2425 2703 2258 2804 
Q 2091 2906 1866 2906 
Q 1506 2906 1245 2678 
Q 984 2450 984 1813 
L 984 0 
L 422 0 
z
" transform="scale(0.015625)"/>
       <path id="ArialMT-2d" d="M 203 1375 
L 203 1941 
L 1931 1941 
L 1931 1375 
L 203 1375 
z
" transform="scale(0.015625)"/>
       <path id="ArialMT-52" d="M 503 0 
L 503 4581 
L 2534 4581 
Q 3147 4581 3465 4457 
Q 3784 4334 3975 4021 
Q 4166 3709 4166 3331 
Q 4166 2844 3850 2509 
Q 3534 2175 2875 2084 
Q 3116 1969 3241 1856 
Q 3506 1613 3744 1247 
L 4541 0 
L 3778 0 
L 3172 953 
Q 2906 1366 2734 1584 
Q 2563 1803 2427 1890 
Q 2291 1978 2150 2013 
Q 2047 2034 1813 2034 
L 1109 2034 
L 1109 0 
L 503 0 
z
M 1109 2559 
L 2413 2559 
Q 2828 2559 3062 2645 
Q 3297 2731 3419 2920 
Q 3541 3109 3541 3331 
Q 3541 3656 3305 3865 
Q 3069 4075 2559 4075 
L 1109 4075 
L 1109 2559 
z
" transform="scale(0.015625)"/>
       <path id="ArialMT-61" d="M 2588 409 
Q 2275 144 1986 34 
Q 1697 -75 1366 -75 
Q 819 -75 525 192 
Q 231 459 231 875 
Q 231 1119 342 1320 
Q 453 1522 633 1644 
Q 813 1766 1038 1828 
Q 1203 1872 1538 1913 
Q 2219 1994 2541 2106 
Q 2544 2222 2544 2253 
Q 2544 2597 2384 2738 
Q 2169 2928 1744 2928 
Q 1347 2928 1158 2789 
Q 969 2650 878 2297 
L 328 2372 
Q 403 2725 575 2942 
Q 747 3159 1072 3276 
Q 1397 3394 1825 3394 
Q 2250 3394 2515 3294 
Q 2781 3194 2906 3042 
Q 3031 2891 3081 2659 
Q 3109 2516 3109 2141 
L 3109 1391 
Q 3109 606 3145 398 
Q 3181 191 3288 0 
L 2700 0 
Q 2613 175 2588 409 
z
M 2541 1666 
Q 2234 1541 1622 1453 
Q 1275 1403 1131 1340 
Q 988 1278 909 1158 
Q 831 1038 831 891 
Q 831 666 1001 516 
Q 1172 366 1500 366 
Q 1825 366 2078 508 
Q 2331 650 2450 897 
Q 2541 1088 2541 1459 
L 2541 1666 
z
" transform="scale(0.015625)"/>
       <path id="ArialMT-6c" d="M 409 0 
L 409 4581 
L 972 4581 
L 972 0 
L 409 0 
z
" transform="scale(0.015625)"/>
       <path id="ArialMT-20" transform="scale(0.015625)"/>
       <path id="ArialMT-75" d="M 2597 0 
L 2597 488 
Q 2209 -75 1544 -75 
Q 1250 -75 995 37 
Q 741 150 617 320 
Q 494 491 444 738 
Q 409 903 409 1263 
L 409 3319 
L 972 3319 
L 972 1478 
Q 972 1038 1006 884 
Q 1059 663 1231 536 
Q 1403 409 1656 409 
Q 1909 409 2131 539 
Q 2353 669 2445 892 
Q 2538 1116 2538 1541 
L 2538 3319 
L 3100 3319 
L 3100 0 
L 2597 0 
z
" transform="scale(0.015625)"/>
       <path id="ArialMT-76" d="M 1344 0 
L 81 3319 
L 675 3319 
L 1388 1331 
Q 1503 1009 1600 663 
Q 1675 925 1809 1294 
L 2547 3319 
L 3125 3319 
L 1869 0 
L 1344 0 
z
" transform="scale(0.015625)"/>
      </defs>
      <use xlink:href="#ArialMT-50"/>
      <use xlink:href="#ArialMT-72" transform="translate(66.699219 0)"/>
      <use xlink:href="#ArialMT-65" transform="translate(100 0)"/>
      <use xlink:href="#ArialMT-63" transform="translate(155.615234 0)"/>
      <use xlink:href="#ArialMT-69" transform="translate(205.615234 0)"/>
      <use xlink:href="#ArialMT-73" transform="translate(227.832031 0)"/>
      <use xlink:href="#ArialMT-69" transform="translate(277.832031 0)"/>
      <use xlink:href="#ArialMT-6f" transform="translate(300.048828 0)"/>
      <use xlink:href="#ArialMT-6e" transform="translate(355.664062 0)"/>
      <use xlink:href="#ArialMT-2d" transform="translate(411.279297 0)"/>
      <use xlink:href="#ArialMT-52" transform="translate(444.580078 0)"/>
      <use xlink:href="#ArialMT-65" transform="translate(516.796875 0)"/>
      <use xlink:href="#ArialMT-63" transform="translate(572.412109 0)"/>
      <use xlink:href="#ArialMT-61" transform="translate(622.412109 0)"/>
      <use xlink:href="#ArialMT-6c" transform="translate(678.027344 0)"/>
      <use xlink:href="#ArialMT-6c" transform="translate(700.244141 0)"/>
      <use xlink:href="#ArialMT-20" transform="translate(722.460938 0)"/>
      <use xlink:href="#ArialMT-63" transform="translate(750.244141 0)"/>
      <use xlink:href="#ArialMT-75" transform="translate(800.244141 0)"/>
      <use xlink:href="#ArialMT-72" transform="translate(855.859375 0)"/>
      <use xlink:href="#ArialMT-76" transform="translate(889.160156 0)"/>
      <use xlink:href="#ArialMT-65" transform="translate(939.160156 0)"/>
     </g>
    </g>
   </g>
  </g>
 </g>
 <defs>
  <clipPath id="pbba7e936bf">
   <rect x="35.655938" y="19.642031" width="253.543583" height="245.38077"/>
  </clipPath>
 </defs>
</svg>
