<?xml version="1.0" encoding="utf-8" standalone="no"?>
<!DOCTYPE svg PUBLIC "-//W3C//DTD SVG 1.1//EN"
  "http://www.w3.org/Graphics/SVG/1.1/DTD/svg11.dtd">
<svg xmlns:xlink="http://www.w3.org/1999/xlink" width="296.39952pt" height="296.39952pt" viewBox="0 0 296.39952 296.39952" xmlns="http://www.w3.org/2000/svg" version="1.1">
 <metadata>
  <rdf:RDF xmlns:dc="http://purl.org/dc/elements/1.1/" xmlns:cc="http://creativecommons.org/ns#" xmlns:rdf="http://www.w3.org/1999/02/22-rdf-syntax-ns#">
   <cc:Work>
    <dc:type rdf:resource="http://purl.org/dc/dcmitype/StillImage"/>
    <dc:date>2025-12-31T21:20:17.951161</dc:date>
    <dc:format>image/svg+xml</dc:format>
    <dc:creator>
     <cc:Agent>
      <dc:title>Matplotlib v3.10.8, https://matplotlib.org/</dc:title>
     </cc:Agent>
    </dc:creator>
   </cc:Work>
  </rdf:RDF>
 </metadata>
 <defs>
  <style type="text/css">*{stroke-linejoin: round; stroke-linecap: butt}</style>
 </defs>
 <g id="figure_1">
  <g id="patch_1">
   <path d="M 0 296.39952 
L 296.39952 296.39952 
L 296.39952 0 
L 0 0 
z
" style="fill: #ffffff"/>
  </g>
  <g id="axes_1">
   <g id="patch_2">
    <path d="M 35.655938 265.022801 
L 289.19952 265.022801 
L 289.19952 19.642031 
L 35.655938 19.642031 
z
" style="fill: #ffffff"/>
   </g>
   <g id="matplotlib.axis_1">
    <g id="xtick_1">
     <g id="line2d_1">
      <path d="M 42.831699 265.022801 
L 42.831699 19.642031 
" clip-path="url(#pd8b8643f2a)" style="fill: none; stroke: #c0c0c0; stroke-width: 0.25; stroke-linecap: round"/>
     </g>
     <g id="line2d_2"/>
     <g id="text_1">
      <!-- 0.0 -->
      <g style="fill: #333333" transform="translate(36.576699 274.964832) scale(0.09 -0.09)">
       <defs>
        <path id="ArialMT-30" d="M 266 2259 
Q 266 3072 433 3567 
Q 600 4063 929 4331 
Q 1259 4600 1759 4600 
Q 2128 4600 2406 4451 
Q 2684 4303 2865 4023 
Q 3047 3744 3150 3342 
Q 3253 2941 3253 2259 
Q 3253 1453 3087 958 
Q 2922 463 2592 192 
Q 2263 -78 1759 -78 
Q 1097 -78 719 397 
Q 266 969 266 2259 
z
M 844 2259 
Q 844 1131 1108 757 
Q 1372 384 1759 384 
Q 2147 384 2411 759 
Q 2675 1134 2675 2259 
Q 2675 3391 2411 3762 
Q 2147 4134 1753 4134 
Q 1366 4134 1134 3806 
Q 844 3388 844 2259 
z
" transform="scale(0.015625)"/>
        <path id="ArialMT-2e" d="M 581 0 
L 581 641 
L 1222 641 
L 1222 0 
L 581 0 
z
" transform="scale(0.015625)"/>
       </defs>
       <use xlink:href="#ArialMT-30"/>
       <use xlink:href="#ArialMT-2e" transform="translate(55.615234 0)"/>
       <use xlink:href="#ArialMT-30" transform="translate(83.398438 0)"/>
      </g>
     </g>
    </g>
    <g id="xtick_2">
     <g id="line2d_3">
      <path d="M 90.670111 265.022801 
L 90.670111 19.642031 
" clip-path="url(#pd8b8643f2a)" style="fill: none; stroke: #c0c0c0; stroke-width: 0.25; stroke-linecap: round"/>
     </g>
     <g id="line2d_4"/>
     <g id="text_2">
      <!-- 0.2 -->
      <g style="fill: #333333" transform="translate(84.415111 274.964832) scale(0.09 -0.09)">
       <defs>
        <path id="ArialMT-32" d="M 3222 541 
L 3222 0 
L 194 0 
Q 188 203 259 391 
Q 375 700 629 1000 
Q 884 1300 1366 1694 
Q 2113 2306 2375 2664 
Q 2638 3022 2638 3341 
Q 2638 3675 2398 3904 
Q 2159 4134 1775 4134 
Q 1369 4134 1125 3890 
Q 881 3647 878 3216 
L 300 3275 
Q 359 3922 746 4261 
Q 1134 4600 1788 4600 
Q 2447 4600 2831 4234 
Q 3216 3869 3216 3328 
Q 3216 3053 3103 2787 
Q 2991 2522 2730 2228 
Q 2469 1934 1863 1422 
Q 1356 997 1212 845 
Q 1069 694 975 541 
L 3222 541 
z
" transform="scale(0.015625)"/>
       </defs>
       <use xlink:href="#ArialMT-30"/>
       <use xlink:href="#ArialMT-2e" transform="translate(55.615234 0)"/>
       <use xlink:href="#ArialMT-32" transform="translate(83.398438 0)"/>
      </g>
     </g>
    </g>
    <g id="xtick_3">
     <g id="line2d_5">
      <path d="M 138.508523 265.022801 
L 138.508523 19.642031 
" clip-path="url(#pd8b8643f2a)" style="fill: none; stroke: #c0c0c0; stroke-width: 0.25; stroke-linecap: round"/>
     </g>
     <g id="line2d_6"/>
     <g id="text_3">
      <!-- 0.4 -->
      <g style="fill: #333333" transform="translate(132.253523 274.964832) scale(0.09 -0.09)">
       <defs>
        <path id="ArialMT-34" d="M 2069 0 
L 2069 1097 
L 81 1097 
L 81 1613 
L 2172 4581 
L 2631 4581 
L 2631 1613 
L 3250 1613 
L 3250 1097 
L 2631 1097 
L 2631 0 
L 2069 0 
z
M 2069 1613 
L 2069 3678 
L 634 1613 
L 2069 1613 
z
" transform="scale(0.015625)"/>
       </defs>
       <use xlink:href="#ArialMT-30"/>
       <use xlink:href="#ArialMT-2e" transform="translate(55.615234 0)"/>
       <use xlink:href="#ArialMT-34" transform="translate(83.398438 0)"/>
      </g>
     </g>
    </g>
    <g id="xtick_4">
     <g id="line2d_7">
      <path d="M 186.346935 265.022801 
L 186.346935 19.642031 
" clip-path="url(#pd8b8643f2a)" style="fill: none; stroke: #c0c0c0; stroke-width: 0.25; stroke-linecap: round"/>
     </g>
     <g id="line2d_8"/>
     <g id="text_4">
      <!-- 0.6 -->
      <g style="fill: #333333" transform="translate(180.091935 274.964832) scale(0.09 -0.09)">
       <defs>
        <path id="ArialMT-36" d="M 3184 3459 
L 2625 3416 
Q 2550 3747 2413 3897 
Q 2184 4138 1850 4138 
Q 1581 4138 1378 3988 
Q 1113 3794 959 3422 
Q 806 3050 800 2363 
Q 1003 2672 1297 2822 
Q 1591 2972 1913 2972 
Q 2475 2972 2870 2558 
Q 3266 2144 3266 1488 
Q 3266 1056 3080 686 
Q 2894 316 2569 119 
Q 2244 -78 1831 -78 
Q 1128 -78 684 439 
Q 241 956 241 2144 
Q 241 3472 731 4075 
Q 1159 4600 1884 4600 
Q 2425 4600 2770 4297 
Q 3116 3994 3184 3459 
z
M 888 1484 
Q 888 1194 1011 928 
Q 1134 663 1356 523 
Q 1578 384 1822 384 
Q 2178 384 2434 671 
Q 2691 959 2691 1453 
Q 2691 1928 2437 2201 
Q 2184 2475 1800 2475 
Q 1419 2475 1153 2201 
Q 888 1928 888 1484 
z
" transform="scale(0.015625)"/>
       </defs>
       <use xlink:href="#ArialMT-30"/>
       <use xlink:href="#ArialMT-2e" transform="translate(55.615234 0)"/>
       <use xlink:href="#ArialMT-36" transform="translate(83.398438 0)"/>
      </g>
     </g>
    </g>
    <g id="xtick_5">
     <g id="line2d_9">
      <path d="M 234.185346 265.022801 
L 234.185346 19.642031 
" clip-path="url(#pd8b8643f2a)" style="fill: none; stroke: #c0c0c0; stroke-width: 0.25; stroke-linecap: round"/>
     </g>
     <g id="line2d_10"/>
     <g id="text_5">
      <!-- 0.8 -->
      <g style="fill: #333333" transform="translate(227.930346 274.964832) scale(0.09 -0.09)">
       <defs>
        <path id="ArialMT-38" d="M 1131 2484 
Q 781 2613 612 2850 
Q 444 3088 444 3419 
Q 444 3919 803 4259 
Q 1163 4600 1759 4600 
Q 2359 4600 2725 4251 
Q 3091 3903 3091 3403 
Q 3091 3084 2923 2848 
Q 2756 2613 2416 2484 
Q 2838 2347 3058 2040 
Q 3278 1734 3278 1309 
Q 3278 722 2862 322 
Q 2447 -78 1769 -78 
Q 1091 -78 675 323 
Q 259 725 259 1325 
Q 259 1772 486 2073 
Q 713 2375 1131 2484 
z
M 1019 3438 
Q 1019 3113 1228 2906 
Q 1438 2700 1772 2700 
Q 2097 2700 2305 2904 
Q 2513 3109 2513 3406 
Q 2513 3716 2298 3927 
Q 2084 4138 1766 4138 
Q 1444 4138 1231 3931 
Q 1019 3725 1019 3438 
z
M 838 1322 
Q 838 1081 952 856 
Q 1066 631 1291 507 
Q 1516 384 1775 384 
Q 2178 384 2440 643 
Q 2703 903 2703 1303 
Q 2703 1709 2433 1975 
Q 2163 2241 1756 2241 
Q 1359 2241 1098 1978 
Q 838 1716 838 1322 
z
" transform="scale(0.015625)"/>
       </defs>
       <use xlink:href="#ArialMT-30"/>
       <use xlink:href="#ArialMT-2e" transform="translate(55.615234 0)"/>
       <use xlink:href="#ArialMT-38" transform="translate(83.398438 0)"/>
      </g>
     </g>
    </g>
    <g id="xtick_6">
     <g id="line2d_11">
      <path d="M 282.023758 265.022801 
L 282.023758 19.642031 
" clip-path="url(#pd8b8643f2a)" style="fill: none; stroke: #c0c0c0; stroke-width: 0.25; stroke-linecap: round"/>
     </g>
     <g id="line2d_12"/>
     <g id="text_6">
      <!-- 1.0 -->
      <g style="fill: #333333" transform="translate(275.768758 274.964832) scale(0.09 -0.09)">
       <defs>
        <path id="ArialMT-31" d="M 2384 0 
L 1822 0 
L 1822 3584 
Q 1619 3391 1289 3197 
Q 959 3003 697 2906 
L 697 3450 
Q 1169 3672 1522 3987 
Q 1875 4303 2022 4600 
L 2384 4600 
L 2384 0 
z
" transform="scale(0.015625)"/>
       </defs>
       <use xlink:href="#ArialMT-31"/>
       <use xlink:href="#ArialMT-2e" transform="translate(55.615234 0)"/>
       <use xlink:href="#ArialMT-30" transform="translate(83.398438 0)"/>
      </g>
     </g>
    </g>
    <g id="text_7">
     <!-- Recall [TP / (TP + FN)] -->
     <g style="fill: #333333" transform="translate(115.706479 287.305301) scale(0.09 -0.09)">
      <defs>
       <path id="Arial-BoldMT-52" d="M 469 0 
L 469 4581 
L 2416 4581 
Q 3150 4581 3483 4457 
Q 3816 4334 4016 4018 
Q 4216 3703 4216 3297 
Q 4216 2781 3912 2445 
Q 3609 2109 3006 2022 
Q 3306 1847 3501 1637 
Q 3697 1428 4028 894 
L 4588 0 
L 3481 0 
L 2813 997 
Q 2456 1531 2325 1670 
Q 2194 1809 2047 1861 
Q 1900 1913 1581 1913 
L 1394 1913 
L 1394 0 
L 469 0 
z
M 1394 2644 
L 2078 2644 
Q 2744 2644 2909 2700 
Q 3075 2756 3169 2893 
Q 3263 3031 3263 3238 
Q 3263 3469 3139 3611 
Q 3016 3753 2791 3791 
Q 2678 3806 2116 3806 
L 1394 3806 
L 1394 2644 
z
" transform="scale(0.015625)"/>
       <path id="Arial-BoldMT-65" d="M 2381 1056 
L 3256 909 
Q 3088 428 2723 176 
Q 2359 -75 1813 -75 
Q 947 -75 531 491 
Q 203 944 203 1634 
Q 203 2459 634 2926 
Q 1066 3394 1725 3394 
Q 2466 3394 2894 2905 
Q 3322 2416 3303 1406 
L 1103 1406 
Q 1113 1016 1316 798 
Q 1519 581 1822 581 
Q 2028 581 2168 693 
Q 2309 806 2381 1056 
z
M 2431 1944 
Q 2422 2325 2234 2523 
Q 2047 2722 1778 2722 
Q 1491 2722 1303 2513 
Q 1116 2303 1119 1944 
L 2431 1944 
z
" transform="scale(0.015625)"/>
       <path id="Arial-BoldMT-63" d="M 3353 2338 
L 2488 2181 
Q 2444 2441 2289 2572 
Q 2134 2703 1888 2703 
Q 1559 2703 1364 2476 
Q 1169 2250 1169 1719 
Q 1169 1128 1367 884 
Q 1566 641 1900 641 
Q 2150 641 2309 783 
Q 2469 925 2534 1272 
L 3397 1125 
Q 3263 531 2881 228 
Q 2500 -75 1859 -75 
Q 1131 -75 698 384 
Q 266 844 266 1656 
Q 266 2478 700 2936 
Q 1134 3394 1875 3394 
Q 2481 3394 2839 3133 
Q 3197 2872 3353 2338 
z
" transform="scale(0.015625)"/>
       <path id="Arial-BoldMT-61" d="M 1116 2306 
L 319 2450 
Q 453 2931 781 3162 
Q 1109 3394 1756 3394 
Q 2344 3394 2631 3255 
Q 2919 3116 3036 2902 
Q 3153 2688 3153 2116 
L 3144 1091 
Q 3144 653 3186 445 
Q 3228 238 3344 0 
L 2475 0 
Q 2441 88 2391 259 
Q 2369 338 2359 363 
Q 2134 144 1878 34 
Q 1622 -75 1331 -75 
Q 819 -75 523 203 
Q 228 481 228 906 
Q 228 1188 362 1408 
Q 497 1628 739 1745 
Q 981 1863 1438 1950 
Q 2053 2066 2291 2166 
L 2291 2253 
Q 2291 2506 2166 2614 
Q 2041 2722 1694 2722 
Q 1459 2722 1328 2630 
Q 1197 2538 1116 2306 
z
M 2291 1594 
Q 2122 1538 1756 1459 
Q 1391 1381 1278 1306 
Q 1106 1184 1106 997 
Q 1106 813 1243 678 
Q 1381 544 1594 544 
Q 1831 544 2047 700 
Q 2206 819 2256 991 
Q 2291 1103 2291 1419 
L 2291 1594 
z
" transform="scale(0.015625)"/>
       <path id="Arial-BoldMT-6c" d="M 459 0 
L 459 4581 
L 1338 4581 
L 1338 0 
L 459 0 
z
" transform="scale(0.015625)"/>
       <path id="Arial-BoldMT-20" transform="scale(0.015625)"/>
       <path id="Arial-BoldMT-5b" d="M 456 -1291 
L 456 4581 
L 2013 4581 
L 2013 3891 
L 1291 3891 
L 1291 -600 
L 2013 -600 
L 2013 -1291 
L 456 -1291 
z
" transform="scale(0.015625)"/>
       <path id="Arial-BoldMT-54" d="M 1497 0 
L 1497 3806 
L 138 3806 
L 138 4581 
L 3778 4581 
L 3778 3806 
L 2422 3806 
L 2422 0 
L 1497 0 
z
" transform="scale(0.015625)"/>
       <path id="Arial-BoldMT-50" d="M 466 0 
L 466 4581 
L 1950 4581 
Q 2794 4581 3050 4513 
Q 3444 4409 3709 4064 
Q 3975 3719 3975 3172 
Q 3975 2750 3822 2462 
Q 3669 2175 3433 2011 
Q 3197 1847 2953 1794 
Q 2622 1728 1994 1728 
L 1391 1728 
L 1391 0 
L 466 0 
z
M 1391 3806 
L 1391 2506 
L 1897 2506 
Q 2444 2506 2628 2578 
Q 2813 2650 2917 2803 
Q 3022 2956 3022 3159 
Q 3022 3409 2875 3571 
Q 2728 3734 2503 3775 
Q 2338 3806 1838 3806 
L 1391 3806 
z
" transform="scale(0.015625)"/>
       <path id="Arial-BoldMT-2f" d="M -9 -78 
L 1125 4659 
L 1784 4659 
L 638 -78 
L -9 -78 
z
" transform="scale(0.015625)"/>
       <path id="Arial-BoldMT-28" d="M 1916 -1347 
L 1313 -1347 
Q 834 -625 584 153 
Q 334 931 334 1659 
Q 334 2563 644 3369 
Q 913 4069 1325 4659 
L 1925 4659 
Q 1497 3713 1336 3048 
Q 1175 2384 1175 1641 
Q 1175 1128 1270 590 
Q 1366 53 1531 -431 
Q 1641 -750 1916 -1347 
z
" transform="scale(0.015625)"/>
       <path id="Arial-BoldMT-2b" d="M 1466 659 
L 1466 1850 
L 266 1850 
L 266 2672 
L 1466 2672 
L 1466 3863 
L 2266 3863 
L 2266 2672 
L 3469 2672 
L 3469 1850 
L 2266 1850 
L 2266 659 
L 1466 659 
z
" transform="scale(0.015625)"/>
       <path id="Arial-BoldMT-46" d="M 472 0 
L 472 4581 
L 3613 4581 
L 3613 3806 
L 1397 3806 
L 1397 2722 
L 3309 2722 
L 3309 1947 
L 1397 1947 
L 1397 0 
L 472 0 
z
" transform="scale(0.015625)"/>
       <path id="Arial-BoldMT-4e" d="M 475 0 
L 475 4581 
L 1375 4581 
L 3250 1522 
L 3250 4581 
L 4109 4581 
L 4109 0 
L 3181 0 
L 1334 2988 
L 1334 0 
L 475 0 
z
" transform="scale(0.015625)"/>
       <path id="Arial-BoldMT-29" d="M 216 -1347 
Q 475 -791 581 -494 
Q 688 -197 778 190 
Q 869 578 912 926 
Q 956 1275 956 1641 
Q 956 2384 797 3048 
Q 638 3713 209 4659 
L 806 4659 
Q 1278 3988 1539 3234 
Q 1800 2481 1800 1706 
Q 1800 1053 1594 306 
Q 1359 -531 822 -1347 
L 216 -1347 
z
" transform="scale(0.015625)"/>
       <path id="Arial-BoldMT-5d" d="M 1675 4581 
L 1675 -1291 
L 119 -1291 
L 119 -600 
L 841 -600 
L 841 3897 
L 119 3897 
L 119 4581 
L 1675 4581 
z
" transform="scale(0.015625)"/>
      </defs>
      <use xlink:href="#Arial-BoldMT-52"/>
      <use xlink:href="#Arial-BoldMT-65" transform="translate(72.216797 0)"/>
      <use xlink:href="#Arial-BoldMT-63" transform="translate(127.832031 0)"/>
      <use xlink:href="#Arial-BoldMT-61" transform="translate(183.447266 0)"/>
      <use xlink:href="#Arial-BoldMT-6c" transform="translate(239.0625 0)"/>
      <use xlink:href="#Arial-BoldMT-6c" transform="translate(266.845703 0)"/>
      <use xlink:href="#Arial-BoldMT-20" transform="translate(294.628906 0)"/>
      <use xlink:href="#Arial-BoldMT-5b" transform="translate(322.412109 0)"/>
      <use xlink:href="#Arial-BoldMT-54" transform="translate(355.712891 0)"/>
      <use xlink:href="#Arial-BoldMT-50" transform="translate(416.796875 0)"/>
      <use xlink:href="#Arial-BoldMT-20" transform="translate(481.746094 0)"/>
      <use xlink:href="#Arial-BoldMT-2f" transform="translate(509.529297 0)"/>
      <use xlink:href="#Arial-BoldMT-20" transform="translate(537.3125 0)"/>
      <use xlink:href="#Arial-BoldMT-28" transform="translate(565.095703 0)"/>
      <use xlink:href="#Arial-BoldMT-54" transform="translate(598.396484 0)"/>
      <use xlink:href="#Arial-BoldMT-50" transform="translate(659.480469 0)"/>
      <use xlink:href="#Arial-BoldMT-20" transform="translate(724.429688 0)"/>
      <use xlink:href="#Arial-BoldMT-2b" transform="translate(752.212891 0)"/>
      <use xlink:href="#Arial-BoldMT-20" transform="translate(810.611328 0)"/>
      <use xlink:href="#Arial-BoldMT-46" transform="translate(838.394531 0)"/>
      <use xlink:href="#Arial-BoldMT-4e" transform="translate(899.478516 0)"/>
      <use xlink:href="#Arial-BoldMT-29" transform="translate(971.695312 0)"/>
      <use xlink:href="#Arial-BoldMT-5d" transform="translate(1004.996094 0)"/>
     </g>
    </g>
   </g>
   <g id="matplotlib.axis_2">
    <g id="ytick_1">
     <g id="line2d_13">
      <path d="M 35.655938 265.022801 
L 289.19952 265.022801 
" clip-path="url(#pd8b8643f2a)" style="fill: none; stroke: #c0c0c0; stroke-width: 0.25; stroke-linecap: round"/>
     </g>
     <g id="line2d_14"/>
     <g id="text_8">
      <!-- 0.0 -->
      <g style="fill: #333333" transform="translate(19.645938 268.243817) scale(0.09 -0.09)">
       <use xlink:href="#ArialMT-30"/>
       <use xlink:href="#ArialMT-2e" transform="translate(55.615234 0)"/>
       <use xlink:href="#ArialMT-30" transform="translate(83.398438 0)"/>
      </g>
     </g>
    </g>
    <g id="ytick_2">
     <g id="line2d_15">
      <path d="M 35.655938 217.37605 
L 289.19952 217.37605 
" clip-path="url(#pd8b8643f2a)" style="fill: none; stroke: #c0c0c0; stroke-width: 0.25; stroke-linecap: round"/>
     </g>
     <g id="line2d_16"/>
     <g id="text_9">
      <!-- 0.2 -->
      <g style="fill: #333333" transform="translate(19.645938 220.597065) scale(0.09 -0.09)">
       <use xlink:href="#ArialMT-30"/>
       <use xlink:href="#ArialMT-2e" transform="translate(55.615234 0)"/>
       <use xlink:href="#ArialMT-32" transform="translate(83.398438 0)"/>
      </g>
     </g>
    </g>
    <g id="ytick_3">
     <g id="line2d_17">
      <path d="M 35.655938 169.729298 
L 289.19952 169.729298 
" clip-path="url(#pd8b8643f2a)" style="fill: none; stroke: #c0c0c0; stroke-width: 0.25; stroke-linecap: round"/>
     </g>
     <g id="line2d_18"/>
     <g id="text_10">
      <!-- 0.4 -->
      <g style="fill: #333333" transform="translate(19.645938 172.950314) scale(0.09 -0.09)">
       <use xlink:href="#ArialMT-30"/>
       <use xlink:href="#ArialMT-2e" transform="translate(55.615234 0)"/>
       <use xlink:href="#ArialMT-34" transform="translate(83.398438 0)"/>
      </g>
     </g>
    </g>
    <g id="ytick_4">
     <g id="line2d_19">
      <path d="M 35.655938 122.082547 
L 289.19952 122.082547 
" clip-path="url(#pd8b8643f2a)" style="fill: none; stroke: #c0c0c0; stroke-width: 0.25; stroke-linecap: round"/>
     </g>
     <g id="line2d_20"/>
     <g id="text_11">
      <!-- 0.6 -->
      <g style="fill: #333333" transform="translate(19.645938 125.303563) scale(0.09 -0.09)">
       <use xlink:href="#ArialMT-30"/>
       <use xlink:href="#ArialMT-2e" transform="translate(55.615234 0)"/>
       <use xlink:href="#ArialMT-36" transform="translate(83.398438 0)"/>
      </g>
     </g>
    </g>
    <g id="ytick_5">
     <g id="line2d_21">
      <path d="M 35.655938 74.435795 
L 289.19952 74.435795 
" clip-path="url(#pd8b8643f2a)" style="fill: none; stroke: #c0c0c0; stroke-width: 0.25; stroke-linecap: round"/>
     </g>
     <g id="line2d_22"/>
     <g id="text_12">
      <!-- 0.8 -->
      <g style="fill: #333333" transform="translate(19.645938 77.656811) scale(0.09 -0.09)">
       <use xlink:href="#ArialMT-30"/>
       <use xlink:href="#ArialMT-2e" transform="translate(55.615234 0)"/>
       <use xlink:href="#ArialMT-38" transform="translate(83.398438 0)"/>
      </g>
     </g>
    </g>
    <g id="ytick_6">
     <g id="line2d_23">
      <path d="M 35.655938 26.789044 
L 289.19952 26.789044 
" clip-path="url(#pd8b8643f2a)" style="fill: none; stroke: #c0c0c0; stroke-width: 0.25; stroke-linecap: round"/>
     </g>
     <g id="line2d_24"/>
     <g id="text_13">
      <!-- 1.0 -->
      <g style="fill: #333333" transform="translate(19.645938 30.01006) scale(0.09 -0.09)">
       <use xlink:href="#ArialMT-31"/>
       <use xlink:href="#ArialMT-2e" transform="translate(55.615234 0)"/>
       <use xlink:href="#ArialMT-30" transform="translate(83.398438 0)"/>
      </g>
     </g>
    </g>
    <g id="text_14">
     <!-- Precision [TP / (TP + FP)] -->
     <g style="fill: #333333" transform="translate(13.751719 195.805776) rotate(-90) scale(0.09 -0.09)">
      <defs>
       <path id="Arial-BoldMT-72" d="M 1300 0 
L 422 0 
L 422 3319 
L 1238 3319 
L 1238 2847 
Q 1447 3181 1614 3287 
Q 1781 3394 1994 3394 
Q 2294 3394 2572 3228 
L 2300 2463 
Q 2078 2606 1888 2606 
Q 1703 2606 1575 2504 
Q 1447 2403 1373 2137 
Q 1300 1872 1300 1025 
L 1300 0 
z
" transform="scale(0.015625)"/>
       <path id="Arial-BoldMT-69" d="M 459 3769 
L 459 4581 
L 1338 4581 
L 1338 3769 
L 459 3769 
z
M 459 0 
L 459 3319 
L 1338 3319 
L 1338 0 
L 459 0 
z
" transform="scale(0.015625)"/>
       <path id="Arial-BoldMT-73" d="M 150 947 
L 1031 1081 
Q 1088 825 1259 692 
Q 1431 559 1741 559 
Q 2081 559 2253 684 
Q 2369 772 2369 919 
Q 2369 1019 2306 1084 
Q 2241 1147 2013 1200 
Q 950 1434 666 1628 
Q 272 1897 272 2375 
Q 272 2806 612 3100 
Q 953 3394 1669 3394 
Q 2350 3394 2681 3172 
Q 3013 2950 3138 2516 
L 2309 2363 
Q 2256 2556 2107 2659 
Q 1959 2763 1684 2763 
Q 1338 2763 1188 2666 
Q 1088 2597 1088 2488 
Q 1088 2394 1175 2328 
Q 1294 2241 1995 2081 
Q 2697 1922 2975 1691 
Q 3250 1456 3250 1038 
Q 3250 581 2869 253 
Q 2488 -75 1741 -75 
Q 1063 -75 667 200 
Q 272 475 150 947 
z
" transform="scale(0.015625)"/>
       <path id="Arial-BoldMT-6f" d="M 256 1706 
Q 256 2144 472 2553 
Q 688 2963 1083 3178 
Q 1478 3394 1966 3394 
Q 2719 3394 3200 2905 
Q 3681 2416 3681 1669 
Q 3681 916 3195 420 
Q 2709 -75 1972 -75 
Q 1516 -75 1102 131 
Q 688 338 472 736 
Q 256 1134 256 1706 
z
M 1156 1659 
Q 1156 1166 1390 903 
Q 1625 641 1969 641 
Q 2313 641 2545 903 
Q 2778 1166 2778 1666 
Q 2778 2153 2545 2415 
Q 2313 2678 1969 2678 
Q 1625 2678 1390 2415 
Q 1156 2153 1156 1659 
z
" transform="scale(0.015625)"/>
       <path id="Arial-BoldMT-6e" d="M 3478 0 
L 2600 0 
L 2600 1694 
Q 2600 2231 2544 2389 
Q 2488 2547 2361 2634 
Q 2234 2722 2056 2722 
Q 1828 2722 1647 2597 
Q 1466 2472 1398 2265 
Q 1331 2059 1331 1503 
L 1331 0 
L 453 0 
L 453 3319 
L 1269 3319 
L 1269 2831 
Q 1703 3394 2363 3394 
Q 2653 3394 2893 3289 
Q 3134 3184 3257 3021 
Q 3381 2859 3429 2653 
Q 3478 2447 3478 2063 
L 3478 0 
z
" transform="scale(0.015625)"/>
      </defs>
      <use xlink:href="#Arial-BoldMT-50"/>
      <use xlink:href="#Arial-BoldMT-72" transform="translate(66.699219 0)"/>
      <use xlink:href="#Arial-BoldMT-65" transform="translate(105.615234 0)"/>
      <use xlink:href="#Arial-BoldMT-63" transform="translate(161.230469 0)"/>
      <use xlink:href="#Arial-BoldMT-69" transform="translate(216.845703 0)"/>
      <use xlink:href="#Arial-BoldMT-73" transform="translate(244.628906 0)"/>
      <use xlink:href="#Arial-BoldMT-69" transform="translate(300.244141 0)"/>
      <use xlink:href="#Arial-BoldMT-6f" transform="translate(328.027344 0)"/>
      <use xlink:href="#Arial-BoldMT-6e" transform="translate(389.111328 0)"/>
      <use xlink:href="#Arial-BoldMT-20" transform="translate(450.195312 0)"/>
      <use xlink:href="#Arial-BoldMT-5b" transform="translate(477.978516 0)"/>
      <use xlink:href="#Arial-BoldMT-54" transform="translate(511.279297 0)"/>
      <use xlink:href="#Arial-BoldMT-50" transform="translate(572.363281 0)"/>
      <use xlink:href="#Arial-BoldMT-20" transform="translate(637.3125 0)"/>
      <use xlink:href="#Arial-BoldMT-2f" transform="translate(665.095703 0)"/>
      <use xlink:href="#Arial-BoldMT-20" transform="translate(692.878906 0)"/>
      <use xlink:href="#Arial-BoldMT-28" transform="translate(720.662109 0)"/>
      <use xlink:href="#Arial-BoldMT-54" transform="translate(753.962891 0)"/>
      <use xlink:href="#Arial-BoldMT-50" transform="translate(815.046875 0)"/>
      <use xlink:href="#Arial-BoldMT-20" transform="translate(879.996094 0)"/>
      <use xlink:href="#Arial-BoldMT-2b" transform="translate(907.779297 0)"/>
      <use xlink:href="#Arial-BoldMT-20" transform="translate(966.177734 0)"/>
      <use xlink:href="#Arial-BoldMT-46" transform="translate(993.960938 0)"/>
      <use xlink:href="#Arial-BoldMT-50" transform="translate(1055.044922 0)"/>
      <use xlink:href="#Arial-BoldMT-29" transform="translate(1121.744141 0)"/>
      <use xlink:href="#Arial-BoldMT-5d" transform="translate(1155.044922 0)"/>
     </g>
    </g>
   </g>
   <g id="line2d_25">
    <path d="M 42.831699 265.022801 
L 42.831747 265.022801 
L 42.942159 243.174675 
L 42.944795 243.085499 
L 43.055681 233.4099 
L 43.056988 233.320723 
L 43.166402 225.428645 
L 43.169038 225.339469 
L 43.279806 219.721379 
L 43.28895 219.632203 
L 43.40005 215.574694 
L 43.402401 215.485518 
L 43.511507 211.160481 
L 43.516756 211.071305 
L 43.626122 208.351436 
L 43.630255 208.26226 
L 43.740097 205.274863 
L 43.745654 205.185687 
L 43.853833 202.376642 
L 43.861196 202.287466 
L 43.968734 199.835125 
L 43.978091 199.745949 
L 44.08912 197.650313 
L 44.091685 197.561136 
L 44.202263 196.178908 
L 44.215017 196.089732 
L 44.325262 193.904919 
L 44.334833 193.815743 
L 44.444651 192.299751 
L 44.469114 192.210575 
L 44.579715 190.427054 
L 44.592635 190.337878 
L 44.699271 188.688122 
L 44.715017 188.598946 
L 44.82569 187.082953 
L 44.837042 186.993777 
L 44.94401 185.210257 
L 44.954246 185.121081 
L 45.062283 183.694264 
L 45.064729 183.694264 
L 45.074656 183.605088 
L 45.176423 182.356624 
L 45.19585 182.267448 
L 45.3046 180.662279 
L 45.316095 180.573103 
L 45.424963 179.636755 
L 45.444983 179.547579 
L 45.555538 177.897822 
L 45.560311 177.808646 
L 45.665308 176.82771 
L 45.679249 176.738534 
L 45.785956 175.26713 
L 45.812627 175.177954 
L 45.923134 173.884901 
L 45.940708 173.795725 
L 46.049006 172.636437 
L 46.05473 172.547261 
L 46.157566 171.744677 
L 46.177895 171.655501 
L 46.285433 170.719152 
L 46.312033 170.629976 
L 46.419025 169.604452 
L 46.432277 169.515276 
L 46.534495 168.043871 
L 46.561973 167.954695 
L 46.672195 166.973759 
L 46.683856 166.884583 
L 46.794315 165.948235 
L 46.814455 165.859059 
L 46.923941 165.101063 
L 46.929664 165.011886 
L 47.040408 164.164714 
L 47.060097 164.075538 
L 47.166186 163.13919 
L 47.167587 163.13919 
L 47.179035 163.050014 
L 47.286502 162.113666 
L 47.31436 162.02449 
L 47.420663 161.177317 
L 47.427598 161.088141 
L 47.538318 160.151793 
L 47.55708 160.062617 
L 47.628258 159.661325 
L 47.660747 159.661325 
L 47.67286 159.572149 
L 47.772988 158.769565 
L 47.794291 158.680389 
L 47.896937 157.96698 
L 47.900238 157.96698 
L 47.929759 157.877804 
L 48.035468 156.718516 
L 48.083133 156.62934 
L 48.182359 155.782168 
L 48.191289 155.782168 
L 48.218862 155.692992 
L 48.319822 155.202523 
L 48.366561 155.113347 
L 48.473268 154.087823 
L 48.511956 153.998647 
L 48.616288 152.750183 
L 48.62593 152.661007 
L 48.722662 152.036774 
L 48.759355 151.947598 
L 48.859911 151.278778 
L 48.883684 151.189602 
L 48.99108 150.476194 
L 49.031501 150.387018 
L 49.142293 149.584434 
L 49.15526 149.495258 
L 49.263487 149.049378 
L 49.272631 148.960202 
L 49.380098 148.068441 
L 49.420401 147.979265 
L 49.52573 147.221269 
L 49.574512 147.132093 
L 49.677656 146.641625 
L 49.707082 146.552449 
L 49.815166 145.972805 
L 49.848083 145.883629 
L 49.958233 145.348572 
L 49.978706 145.259396 
L 50.087811 144.635164 
L 50.10275 144.545988 
L 50.20568 143.877168 
L 50.254533 143.787992 
L 50.365064 143.297524 
L 50.408383 143.208348 
L 50.512833 142.271999 
L 50.579997 142.182823 
L 50.658276 141.826119 
L 50.68212 141.826119 
L 50.70226 141.736943 
L 50.796118 141.157299 
L 50.834355 141.068123 
L 50.940278 140.533067 
L 50.944221 140.533067 
L 50.961795 140.443891 
L 51.067315 139.864247 
L 51.112035 139.775071 
L 51.220167 139.240015 
L 51.233087 139.150839 
L 51.328037 138.526606 
L 51.337704 138.526606 
L 51.366227 138.43743 
L 51.442748 137.857786 
L 51.490746 137.76861 
L 51.598331 137.144378 
L 51.652029 137.055202 
L 51.762678 136.386382 
L 51.829628 136.297206 
L 51.939446 135.98509 
L 51.967495 135.895914 
L 52.076695 135.405445 
L 52.115075 135.316269 
L 52.219953 134.781213 
L 52.247312 134.692037 
L 52.355658 134.023217 
L 52.369836 133.934041 
L 52.479393 133.309809 
L 52.502311 133.220633 
L 52.567361 132.774753 
L 52.606216 132.774753 
L 52.64526 132.685577 
L 52.746243 132.462636 
L 52.806116 132.37346 
L 52.911231 131.838404 
L 52.930849 131.749228 
L 53.04126 131.392524 
L 53.068002 131.303348 
L 53.173545 130.634528 
L 53.177678 130.634528 
L 53.197984 130.545352 
L 53.291747 130.099472 
L 53.328535 130.010296 
L 53.428355 129.564416 
L 53.487349 129.47524 
L 53.591562 129.073947 
L 53.615525 128.984771 
L 53.725866 128.583479 
L 53.745031 128.494303 
L 53.855538 127.914659 
L 53.911017 127.825483 
L 54.010884 127.424191 
L 54.111321 127.335015 
L 54.22102 126.933723 
L 54.262843 126.844547 
L 54.370809 126.443255 
L 54.39919 126.354079 
L 54.504875 125.952786 
L 54.526084 125.86361 
L 54.625856 125.41773 
L 54.664662 125.328554 
L 54.764102 125.016438 
L 54.772248 125.016438 
L 54.811957 124.927262 
L 54.911943 124.52597 
L 54.975877 124.436794 
L 55.07553 124.169266 
L 55.085932 124.169266 
L 55.106666 124.08009 
L 55.186274 123.812562 
L 55.256787 123.723386 
L 55.346085 123.41127 
L 55.355609 123.41127 
L 55.447567 123.322094 
L 55.499009 123.099154 
L 55.519956 123.099154 
L 55.677629 123.009978 
L 55.785143 122.341157 
L 55.831265 122.251981 
L 55.92928 121.939865 
L 56.014612 121.850689 
L 56.125404 121.360221 
L 56.144878 121.271045 
L 56.254744 120.914341 
L 56.33991 120.825165 
L 56.440133 120.602225 
L 56.490126 120.513049 
L 56.589993 119.977993 
L 56.616806 119.888817 
L 56.71444 119.487524 
L 56.72033 119.487524 
L 56.796566 119.398348 
L 56.897312 119.175408 
L 56.993474 119.086232 
L 57.104052 118.595764 
L 57.156301 118.506588 
L 57.259398 118.01612 
L 57.344279 117.926944 
L 57.4531 117.391888 
L 57.530167 117.302712 
L 57.629131 116.90142 
L 57.637966 116.90142 
L 57.677486 116.812244 
L 57.775263 116.277187 
L 57.783409 116.277187 
L 57.817537 116.188011 
L 57.925502 115.786719 
L 57.986206 115.697543 
L 58.048644 115.430015 
L 58.095169 115.430015 
L 58.201021 115.340839 
L 58.297112 115.117899 
L 58.33276 115.028723 
L 58.441557 114.716607 
L 58.474687 114.627431 
L 58.544915 114.449079 
L 58.577879 114.449079 
L 58.643024 114.359903 
L 58.741371 113.780259 
L 58.749921 113.780259 
L 58.770275 113.691083 
L 58.860903 113.601907 
L 58.925953 113.512731 
L 59.032019 112.977674 
L 59.101819 112.888498 
L 59.210972 112.487206 
L 59.230233 112.39803 
L 59.33409 112.041326 
L 59.429753 111.95215 
L 59.536792 111.640034 
L 59.540782 111.640034 
L 59.560969 111.550858 
L 59.670953 111.194154 
L 59.693183 111.104978 
L 59.774644 110.971214 
L 59.775547 110.971214 
L 59.81414 110.882038 
L 59.916239 110.569922 
L 59.976302 110.480746 
L 60.080159 110.124042 
L 60.086191 110.124042 
L 60.121625 110.034866 
L 60.206411 109.767337 
L 60.227881 109.767337 
L 60.26721 109.678161 
L 60.371471 109.276869 
L 60.391349 109.187693 
L 60.494209 108.741813 
L 60.589587 108.652637 
L 60.684633 108.251345 
L 60.688575 108.251345 
L 60.725434 108.162169 
L 60.761914 108.072993 
L 60.812738 108.072993 
L 60.899899 107.983817 
L 60.983212 107.716289 
L 60.987606 107.716289 
L 61.039024 107.627113 
L 61.133927 107.225821 
L 61.143712 107.225821 
L 61.214842 107.136645 
L 61.284642 106.913705 
L 61.302787 106.913705 
L 61.386884 106.824529 
L 61.497319 106.512412 
L 61.555173 106.423236 
L 61.611745 106.289472 
L 61.656988 106.289472 
L 61.782599 106.200296 
L 61.880566 105.88818 
L 61.940938 105.799004 
L 62.034725 105.4423 
L 62.114903 105.353124 
L 62.218689 104.907244 
L 62.296302 104.818068 
L 62.299461 104.728892 
L 62.396502 104.728892 
L 62.495823 104.639716 
L 62.543797 104.461364 
L 62.602173 104.461364 
L 62.76557 104.372188 
L 62.852256 104.015484 
L 62.872942 104.015484 
L 62.891015 103.926308 
L 63.00138 103.703368 
L 63.067214 103.614192 
L 63.163661 103.346664 
L 63.198715 103.257487 
L 63.308248 103.034547 
L 63.423101 102.945371 
L 63.483734 102.722431 
L 63.516722 102.722431 
L 63.597565 102.633255 
L 63.684014 102.321139 
L 63.768135 102.231963 
L 63.87876 101.919847 
L 63.906428 101.830671 
L 63.977273 101.696907 
L 64.010832 101.696907 
L 64.173587 101.607731 
L 64.277634 101.384791 
L 64.373036 101.295615 
L 64.455922 100.849735 
L 64.635208 100.760559 
L 64.6781 100.582207 
L 64.745525 100.582207 
L 64.766163 100.493031 
L 64.804447 100.403855 
L 64.844608 100.403855 
L 64.93735 100.314679 
L 65.043154 99.735034 
L 65.045102 99.735034 
L 65.091485 99.645858 
L 65.202585 99.467506 
L 65.270723 99.37833 
L 65.376551 99.021626 
L 65.414217 98.93245 
L 65.480883 98.70951 
L 65.520236 98.70951 
L 65.584906 98.620334 
L 65.659883 98.397394 
L 65.692562 98.397394 
L 65.835891 98.308218 
L 65.926567 97.951514 
L 65.929607 97.951514 
L 66.014678 97.862338 
L 66.115614 97.550222 
L 66.15309 97.461046 
L 66.263455 97.282694 
L 66.357194 97.193518 
L 66.452003 96.881402 
L 66.527574 96.792226 
L 66.578422 96.569285 
L 66.595545 96.569285 
L 66.782905 96.480109 
L 66.892676 96.123405 
L 67.02527 96.034229 
L 67.114901 95.766701 
L 67.145894 95.677525 
L 67.248634 95.409997 
L 67.290814 95.320821 
L 67.384007 95.142469 
L 67.389469 95.142469 
L 67.477438 95.053293 
L 67.573861 94.785765 
L 67.63162 94.696589 
L 67.662613 94.607413 
L 67.739728 94.607413 
L 67.89714 94.518237 
L 67.990737 94.250709 
L 68.003182 94.250709 
L 68.02971 94.161533 
L 68.139077 93.894005 
L 68.306084 93.804829 
L 68.387023 93.626477 
L 68.415475 93.626477 
L 68.49107 93.537301 
L 68.598441 93.269772 
L 68.697976 93.180596 
L 68.805514 93.002244 
L 68.836388 92.913068 
L 68.94604 92.734716 
L 69.013465 92.64554 
L 69.1054 92.467188 
L 69.112002 92.467188 
L 69.211347 92.378012 
L 69.311451 92.110484 
L 69.318386 92.110484 
L 69.361824 92.021308 
L 69.410012 91.842956 
L 69.454946 91.842956 
L 69.562389 91.75378 
L 69.671685 91.3079 
L 69.769343 91.218724 
L 69.8447 90.995784 
L 70.256233 90.906608 
L 70.307389 90.772844 
L 70.351469 90.772844 
L 70.455278 90.683668 
L 70.500806 90.460728 
L 70.560869 90.460728 
L 70.696289 90.371552 
L 70.786276 90.148611 
L 70.898326 90.059435 
L 70.951098 89.925671 
L 70.986675 89.925671 
L 71.068706 89.836495 
L 71.128032 89.658143 
L 71.132901 89.658143 
L 71.224432 89.568967 
L 71.327481 89.212263 
L 71.434805 89.123087 
L 71.472282 88.989323 
L 71.494179 88.989323 
L 71.662326 88.900147 
L 71.748656 88.721795 
L 71.758464 88.721795 
L 71.853178 88.632619 
L 71.942904 88.543443 
L 71.961476 88.543443 
L 72.009521 88.454267 
L 72.079392 88.275915 
L 72.10319 88.275915 
L 72.15152 88.186739 
L 72.226497 87.919211 
L 72.261195 87.919211 
L 72.418821 87.830035 
L 72.504842 87.651683 
L 72.528354 87.651683 
L 72.568254 87.562507 
L 72.647886 87.428743 
L 72.673488 87.428743 
L 72.828786 87.339567 
L 72.895404 87.250391 
L 72.934567 87.250391 
L 72.963352 87.161215 
L 73.059371 86.982862 
L 73.073455 86.982862 
L 73.162634 86.893686 
L 73.17325 86.759922 
L 73.260269 86.759922 
L 73.477292 86.670746 
L 73.477292 86.626158 
L 73.585852 86.626158 
L 73.779078 86.536982 
L 73.876404 86.314042 
L 74.047947 86.224866 
L 74.154084 86.091102 
L 74.157076 86.091102 
L 74.251433 86.001926 
L 74.352915 85.734398 
L 74.457627 85.645222 
L 74.477743 85.556046 
L 74.568395 85.556046 
L 74.664628 85.46687 
L 74.742574 85.288518 
L 74.756159 85.288518 
L 74.923997 85.199342 
L 74.923997 85.154754 
L 75.019067 85.154754 
L 75.101122 85.065578 
L 75.209705 84.976402 
L 75.301806 84.887226 
L 75.336338 84.753462 
L 75.403311 84.753462 
L 75.584283 84.664286 
L 75.692866 84.485934 
L 75.809738 84.396758 
L 75.885238 84.262994 
L 75.899891 84.262994 
L 76.137339 84.173818 
L 76.19688 84.084642 
L 76.247941 84.084642 
L 76.476364 83.995466 
L 76.549537 83.861702 
L 76.553598 83.861702 
L 76.631378 83.772525 
L 76.732907 83.504997 
L 76.827122 83.415821 
L 76.916302 83.237469 
L 76.978644 83.148293 
L 77.061815 83.059117 
L 77.087013 83.059117 
L 77.141424 82.969941 
L 77.177024 82.791589 
L 77.18612 82.791589 
L 77.401482 82.702413 
L 77.503343 82.524061 
L 77.512012 82.524061 
L 77.652823 82.434885 
L 77.652823 82.390297 
L 77.748985 82.390297 
L 77.927938 82.301121 
L 78.02353 82.033593 
L 78.02904 82.033593 
L 78.159473 81.944417 
L 78.159473 81.899829 
L 78.269766 81.899829 
L 78.413142 81.810653 
L 78.519873 81.632301 
L 78.699681 81.543125 
L 78.792684 81.364773 
L 78.796698 81.364773 
L 78.889036 81.275597 
L 78.931405 81.097245 
L 78.991349 81.097245 
L 79.069723 81.008069 
L 79.169803 80.874305 
L 79.172535 80.874305 
L 79.260717 80.785129 
L 79.343342 80.651365 
L 79.513056 80.562189 
L 79.598602 80.29466 
L 79.604587 80.29466 
L 79.862198 80.205484 
L 79.89369 80.07172 
L 80.033765 79.982544 
L 80.098364 79.84878 
L 80.140045 79.84878 
L 80.209417 79.759604 
L 80.310875 79.492076 
L 80.566421 79.4029 
L 80.566421 79.358312 
L 80.647573 79.358312 
L 80.871793 79.269136 
L 80.907868 79.17996 
L 80.982608 79.17996 
L 81.053738 79.090784 
L 81.14078 78.912432 
L 81.15731 78.912432 
L 81.327547 78.823256 
L 81.414233 78.600316 
L 81.431333 78.600316 
L 81.525975 78.51114 
L 81.601712 78.377376 
L 81.782684 78.2882 
L 81.889699 78.020672 
L 81.950071 77.931496 
L 82.020536 77.797732 
L 82.156312 77.708556 
L 82.266795 77.574792 
L 82.267389 77.574792 
L 82.375188 77.485616 
L 82.467194 77.39644 
L 82.589718 77.307264 
L 82.698705 77.084323 
L 82.814555 76.995147 
L 82.917913 76.727619 
L 82.925181 76.727619 
L 83.208418 76.638443 
L 83.212503 76.549267 
L 83.309758 76.549267 
L 83.496881 76.460091 
L 83.502818 76.370915 
L 83.60297 76.370915 
L 83.916654 76.281739 
L 83.933231 76.147975 
L 84.026116 76.147975 
L 84.129712 76.058799 
L 84.129712 76.014211 
L 84.238865 76.014211 
L 84.353053 75.925035 
L 84.353053 75.880447 
L 84.419005 75.880447 
L 84.554164 75.791271 
L 84.655646 75.657507 
L 84.741809 75.568331 
L 84.828472 75.434567 
L 84.838565 75.434567 
L 84.906228 75.345391 
L 84.906228 75.300803 
L 84.968357 75.300803 
L 85.274417 75.211627 
L 85.320919 75.077863 
L 85.367064 75.077863 
L 85.499943 74.988687 
L 85.59829 74.810335 
L 85.711671 74.721159 
L 85.79914 74.587395 
L 85.816667 74.587395 
L 85.908721 74.498219 
L 85.908721 74.453631 
L 85.968475 74.453631 
L 86.253873 74.364455 
L 86.347328 74.186103 
L 86.517375 74.096927 
L 86.601163 73.829398 
L 86.62629 73.829398 
L 86.679917 73.740222 
L 86.748933 73.56187 
L 86.766722 73.56187 
L 86.904137 73.472694 
L 86.980183 73.33893 
L 87.383546 73.249754 
L 87.46009 73.026814 
L 87.478306 73.026814 
L 87.61223 72.937638 
L 87.702099 72.848462 
L 87.718913 72.848462 
L 87.815051 72.759286 
L 87.883189 72.625522 
L 87.883498 72.625522 
L 88.10672 72.536346 
L 88.215968 72.357994 
L 88.596579 72.268818 
L 88.70414 72.00129 
L 88.868583 71.912114 
L 88.957976 71.689174 
L 89.155857 71.599998 
L 89.257767 71.510822 
L 89.338159 71.421646 
L 89.435627 71.33247 
L 89.513478 71.243294 
L 89.513478 71.198706 
L 89.613963 71.198706 
L 89.990702 71.10953 
L 90.054209 70.931178 
L 90.101518 70.931178 
L 90.222997 70.842002 
L 90.222997 70.797414 
L 90.291989 70.797414 
L 90.686399 70.708237 
L 90.769237 70.574473 
L 91.241711 70.485297 
L 91.295646 70.351533 
L 91.46111 70.262357 
L 91.504856 70.173181 
L 91.543877 70.173181 
L 91.759642 70.084005 
L 91.866919 69.816477 
L 91.952251 69.727301 
L 92.015638 69.548949 
L 92.055063 69.548949 
L 92.222307 69.459773 
L 92.255129 69.326009 
L 92.509891 69.236833 
L 92.618972 69.013893 
L 92.769022 68.924717 
L 92.830462 68.835541 
L 93.537962 68.746365 
L 93.618378 68.657189 
L 93.627973 68.657189 
L 93.797046 68.568013 
L 93.845804 68.434249 
L 93.869839 68.434249 
L 94.07095 68.345073 
L 94.179842 68.211309 
L 94.393944 68.122133 
L 94.393944 68.077545 
L 94.464647 68.077545 
L 94.659488 67.988369 
L 94.697393 67.854605 
L 94.770446 67.854605 
L 94.9983 67.765429 
L 95.102275 67.631665 
L 95.195872 67.542489 
L 95.304883 67.453312 
L 95.454149 67.364136 
L 95.502266 67.185784 
L 95.883042 67.096608 
L 95.900878 66.962844 
L 95.981318 66.962844 
L 96.226224 66.873668 
L 96.281893 66.739904 
L 96.307899 66.739904 
L 96.709029 66.650728 
L 96.801391 66.516964 
L 96.809418 66.516964 
L 96.96683 66.427788 
L 97.060142 66.249436 
L 97.0676 66.249436 
L 97.210287 66.16026 
L 97.271941 66.071084 
L 97.302887 66.071084 
L 97.368127 65.981908 
L 97.46208 65.71438 
L 97.797567 65.625204 
L 97.82818 65.49144 
L 97.885583 65.49144 
L 98.048243 65.402264 
L 98.157491 65.2685 
L 98.270349 65.179324 
L 98.337774 65.090148 
L 98.723966 65.000972 
L 98.799086 64.82262 
L 98.803195 64.82262 
L 99.397623 64.733444 
L 99.397623 64.688856 
L 99.498392 64.688856 
L 99.665447 64.59968 
L 99.665447 64.555092 
L 99.679079 64.555092 
L 99.981221 64.465916 
L 100.091965 64.332152 
L 100.246124 64.242975 
L 100.252489 64.153799 
L 100.354137 64.153799 
L 100.40299 64.064623 
L 100.434553 63.886271 
L 100.468444 63.886271 
L 100.795451 63.797095 
L 100.895485 63.663331 
L 101.222967 63.574155 
L 101.302624 63.262039 
L 101.322146 63.262039 
L 101.460653 63.172863 
L 101.474309 63.083687 
L 101.47666 63.083687 
L 101.791461 62.994511 
L 101.791461 62.949923 
L 101.886341 62.949923 
L 101.949158 62.860747 
L 102.036747 62.682395 
L 102.496301 62.593219 
L 102.524705 62.504043 
L 102.566861 62.504043 
L 102.818369 62.414867 
L 102.862234 62.325691 
L 103.36943 62.236515 
L 103.391351 62.147339 
L 103.480079 62.147339 
L 103.609372 62.058163 
L 103.6264 61.968987 
L 103.65813 61.968987 
L 103.860144 61.879811 
L 103.860144 61.835223 
L 103.876578 61.835223 
L 104.333781 61.746047 
L 104.410683 61.612283 
L 105.096166 61.523107 
L 105.096166 61.478519 
L 105.123336 61.478519 
L 105.408355 61.389343 
L 105.408355 61.344755 
L 105.513019 61.344755 
L 105.947541 61.255579 
L 105.947541 61.210991 
L 105.953336 61.210991 
L 106.299177 61.121815 
L 106.346843 60.98805 
L 106.621103 60.898874 
L 106.655492 60.76511 
L 107.106971 60.675934 
L 107.17689 60.54217 
L 107.280795 60.452994 
L 107.280795 60.408406 
L 107.327486 60.408406 
L 107.585502 60.31923 
L 107.694868 60.140878 
L 108.052299 60.051702 
L 108.100772 59.917938 
L 108.161191 59.917938 
L 108.470173 59.828762 
L 108.488508 59.694998 
L 108.5333 59.694998 
L 108.707906 59.605822 
L 108.722156 59.516646 
L 108.765285 59.516646 
L 108.937897 59.42747 
L 108.937897 59.382882 
L 109.028003 59.382882 
L 109.354014 59.293706 
L 109.452123 59.070766 
L 109.587187 58.98159 
L 109.678931 58.803238 
L 109.875008 58.714062 
L 109.875008 58.669474 
L 109.919657 58.669474 
L 110.158958 58.580298 
L 110.221372 58.446534 
L 110.574148 58.357358 
L 110.574148 58.31277 
L 111.124069 58.223594 
L 111.208879 58.08983 
L 111.222986 58.08983 
L 111.383961 58.000654 
L 111.48017 57.86689 
L 111.690924 57.777714 
L 111.780317 57.599361 
L 111.787418 57.599361 
L 112.032277 57.510185 
L 112.032277 57.465597 
L 112.121955 57.465597 
L 112.648245 57.376421 
L 112.672684 57.287245 
L 112.734005 57.287245 
L 112.897307 57.198069 
L 112.957655 57.108893 
L 113.0057 57.108893 
L 113.568256 57.019717 
L 113.568256 56.975129 
L 113.663635 56.975129 
L 114.144302 56.885953 
L 114.144302 56.841365 
L 114.191255 56.841365 
L 114.773333 56.752189 
L 114.782287 56.663013 
L 114.821094 56.663013 
L 115.315797 56.573837 
L 115.315797 56.529249 
L 115.376003 56.529249 
L 115.548947 56.440073 
L 115.548947 56.395485 
L 115.593762 56.395485 
L 116.159287 56.306309 
L 116.174083 56.217133 
L 116.26711 56.217133 
L 116.607157 56.127957 
L 116.607157 56.083369 
L 117.067756 55.994193 
L 117.078752 55.905017 
L 117.157149 55.905017 
L 117.580153 55.815841 
L 117.580153 55.771253 
L 117.602359 55.771253 
L 118.134183 55.682077 
L 118.226497 55.592901 
L 118.84097 55.503725 
L 118.941763 55.369961 
L 119.290597 55.280785 
L 119.346432 55.191609 
L 119.397565 55.191609 
L 119.806176 55.102433 
L 119.806176 55.057845 
L 119.908062 55.057845 
L 120.135393 54.968669 
L 120.164581 54.879493 
L 120.550726 54.790317 
L 120.564928 54.701141 
L 120.975534 54.611965 
L 121.034314 54.522788 
L 121.321613 54.433612 
L 121.41407 54.299848 
L 121.793921 54.210672 
L 121.793921 54.166084 
L 121.861892 54.166084 
L 122.014887 54.076908 
L 122.045904 53.987732 
L 122.103401 53.987732 
L 122.319522 53.898556 
L 122.395117 53.80938 
L 122.681371 53.720204 
L 122.765207 53.58644 
L 123.263663 53.497264 
L 123.322586 53.408088 
L 123.353199 53.408088 
L 123.651398 53.318912 
L 123.732171 53.185148 
L 124.317859 53.095972 
L 124.411052 52.962208 
L 124.712529 52.873032 
L 124.712529 52.828444 
L 124.732503 52.828444 
L 125.470687 52.739268 
L 125.470687 52.69468 
L 125.507974 52.69468 
L 126.202815 52.605504 
L 126.202815 52.560916 
L 126.959025 52.47174 
L 127.069342 52.382564 
L 127.54564 52.293388 
L 127.599219 52.204212 
L 127.603565 52.204212 
L 128.28342 52.115036 
L 128.352413 51.936684 
L 128.507094 51.847508 
L 128.507094 51.80292 
L 128.861722 51.713744 
L 128.950688 51.535392 
L 129.335882 51.446216 
L 129.39775 51.35704 
L 129.73858 51.267863 
L 129.805388 51.089511 
L 130.445296 51.000335 
L 130.513956 50.911159 
L 130.527113 50.911159 
L 131.04844 50.821983 
L 131.04844 50.777395 
L 131.392833 50.688219 
L 131.496286 50.599043 
L 132.016354 50.509867 
L 132.036565 50.420691 
L 132.060338 50.420691 
L 132.875614 50.331515 
L 132.875614 50.286927 
L 132.967691 50.286927 
L 133.168802 50.197751 
L 133.249527 50.063987 
L 134.09722 49.974811 
L 134.169324 49.885635 
L 134.19343 49.885635 
L 134.54452 49.796459 
L 134.54452 49.751871 
L 135.050694 49.662695 
L 135.050694 49.618107 
L 135.09095 49.618107 
L 135.392926 49.528931 
L 135.443061 49.439755 
L 135.485502 49.439755 
L 135.77071 49.350579 
L 135.771803 49.261403 
L 135.843669 49.261403 
L 136.102444 49.172227 
L 136.102444 49.127639 
L 136.543806 49.038463 
L 136.560811 48.949287 
L 136.608666 48.949287 
L 137.070097 48.860111 
L 137.119971 48.681759 
L 137.176685 48.681759 
L 137.42824 48.592583 
L 137.532216 48.414231 
L 138.031574 48.325055 
L 138.051215 48.235879 
L 138.114555 48.235879 
L 138.426625 48.146703 
L 138.53212 48.057527 
L 138.717225 47.96835 
L 138.717225 47.923762 
L 138.775981 47.923762 
L 139.369839 47.834586 
L 139.408005 47.74541 
L 139.479253 47.74541 
L 139.861764 47.656234 
L 139.934034 47.52247 
L 140.429521 47.433294 
L 140.429521 47.388706 
L 141.285242 47.29953 
L 141.285242 47.254942 
L 141.350553 47.254942 
L 141.95707 47.165766 
L 142.008037 46.987414 
L 142.011504 46.987414 
L 143.096669 46.898238 
L 143.143361 46.809062 
L 143.923891 46.719886 
L 143.923891 46.675298 
L 144.033376 46.675298 
L 144.239499 46.586122 
L 144.239499 46.541534 
L 144.330365 46.541534 
L 145.036368 46.452358 
L 145.036368 46.40777 
L 145.116594 46.40777 
L 145.399713 46.318594 
L 145.399713 46.274006 
L 145.445906 46.274006 
L 145.850812 46.18483 
L 145.930302 46.051066 
L 146.104363 45.96189 
L 146.136686 45.872714 
L 146.182048 45.872714 
L 146.542827 45.783538 
L 146.618589 45.694362 
L 147.347107 45.605186 
L 147.347107 45.560598 
L 147.394535 45.560598 
L 147.668771 45.471422 
L 147.737835 45.337658 
L 148.165541 45.248482 
L 148.165541 45.203894 
L 148.236956 45.203894 
L 149.204014 45.114718 
L 149.292102 44.980954 
L 149.312265 44.980954 
L 149.972052 44.891778 
L 150.03278 44.802602 
L 150.073296 44.802602 
L 150.214416 44.713425 
L 150.316017 44.624249 
L 150.324638 44.624249 
L 150.74206 44.535073 
L 150.822904 44.401309 
L 150.851974 44.401309 
L 151.395007 44.312133 
L 151.492713 44.222957 
L 151.849194 44.133781 
L 151.918044 44.044605 
L 151.954357 44.044605 
L 152.548738 43.955429 
L 152.548738 43.910841 
L 152.632883 43.910841 
L 153.468773 43.821665 
L 153.468773 43.777077 
L 153.49599 43.777077 
L 154.146823 43.687901 
L 154.146823 43.643313 
L 154.239327 43.643313 
L 155.56738 43.554137 
L 155.56738 43.509549 
L 155.637014 43.509549 
L 156.888545 43.420373 
L 156.989172 43.286609 
L 156.991855 43.286609 
L 157.358644 43.197433 
L 157.358644 43.152845 
L 157.437397 43.152845 
L 157.752435 43.063669 
L 157.752435 43.019081 
L 157.802428 43.019081 
L 158.572223 42.929905 
L 158.613334 42.840729 
L 158.656297 42.840729 
L 158.981523 42.751553 
L 158.981523 42.706965 
L 159.031777 42.706965 
L 160.583978 42.617789 
L 160.685009 42.528613 
L 161.398042 42.439437 
L 161.398042 42.394849 
L 161.48309 42.394849 
L 162.141974 42.305673 
L 162.141974 42.261085 
L 162.168193 42.261085 
L 163.543769 42.171909 
L 163.543769 42.127321 
L 163.618936 42.127321 
L 165.442381 42.038145 
L 165.444566 41.948969 
L 165.518593 41.948969 
L 165.936799 41.859793 
L 165.975677 41.770617 
L 166.034244 41.770617 
L 166.52681 41.681441 
L 166.562696 41.592265 
L 167.335435 41.503088 
L 167.335435 41.4585 
L 167.441905 41.4585 
L 168.14038 41.369324 
L 168.14038 41.324736 
L 168.231697 41.324736 
L 168.816292 41.23556 
L 168.865264 41.146384 
L 169.167074 41.057208 
L 169.167074 41.01262 
L 169.27701 41.01262 
L 170.047162 40.923444 
L 170.047162 40.878856 
L 170.144131 40.878856 
L 170.419555 40.78968 
L 170.419555 40.745092 
L 170.525525 40.745092 
L 171.768032 40.655916 
L 171.831206 40.56674 
L 171.832821 40.56674 
L 172.783943 40.477564 
L 172.783943 40.432976 
L 172.889344 40.432976 
L 173.363694 40.3438 
L 173.371722 40.254624 
L 173.427058 40.254624 
L 174.208823 40.165448 
L 174.246466 40.076272 
L 174.261856 40.076272 
L 174.957599 39.987096 
L 174.957599 39.942508 
L 175.034049 39.942508 
L 175.276532 39.853332 
L 175.276532 39.808744 
L 175.340965 39.808744 
L 175.853148 39.719568 
L 175.853148 39.67498 
L 175.941829 39.67498 
L 176.930904 39.585804 
L 176.930904 39.541216 
L 177.016948 39.541216 
L 177.146787 39.45204 
L 177.247438 39.362864 
L 177.390125 39.273688 
L 177.390125 39.2291 
L 177.498091 39.2291 
L 178.314031 39.139924 
L 178.314031 39.095336 
L 178.410407 39.095336 
L 178.694191 39.00616 
L 178.694191 38.961572 
L 178.780782 38.961572 
L 179.050054 38.872396 
L 179.125649 38.78322 
L 179.134009 38.78322 
L 179.759692 38.694044 
L 179.759692 38.649456 
L 179.849655 38.649456 
L 180.537846 38.56028 
L 180.570288 38.471104 
L 180.63655 38.471104 
L 181.734278 38.381928 
L 181.794436 38.248163 
L 181.831604 38.248163 
L 182.12864 38.158987 
L 182.181792 38.069811 
L 182.235466 38.069811 
L 182.675854 37.980635 
L 182.675854 37.936047 
L 182.784366 37.936047 
L 183.950755 37.846871 
L 183.950755 37.802283 
L 184.058388 37.802283 
L 185.168965 37.713107 
L 185.168965 37.668519 
L 185.265792 37.668519 
L 185.93116 37.579343 
L 185.93116 37.534755 
L 186.029127 37.534755 
L 186.55651 37.445579 
L 186.55651 37.400991 
L 186.650559 37.400991 
L 187.21644 37.311815 
L 187.21644 37.267227 
L 187.322482 37.267227 
L 187.870289 37.178051 
L 187.870289 37.133463 
L 187.977257 37.133463 
L 189.293886 37.044287 
L 189.293886 36.999699 
L 189.400617 36.999699 
L 190.25002 36.910523 
L 190.349911 36.821347 
L 190.353378 36.821347 
L 191.294004 36.732171 
L 191.294004 36.687583 
L 191.402326 36.687583 
L 192.45341 36.598407 
L 192.45341 36.553819 
L 192.536415 36.553819 
L 192.927666 36.464643 
L 192.927666 36.420055 
L 193.024896 36.420055 
L 193.957186 36.330879 
L 193.957186 36.286291 
L 194.056483 36.286291 
L 195.371069 36.197115 
L 195.371069 36.152527 
L 195.465592 36.152527 
L 196.003164 36.063351 
L 196.090776 35.929587 
L 196.111866 35.929587 
L 197.566907 35.840411 
L 197.566907 35.795823 
L 197.660647 35.795823 
L 200.548595 35.706647 
L 200.548595 35.662059 
L 200.62229 35.662059 
L 201.228925 35.572883 
L 201.228925 35.528295 
L 201.33556 35.528295 
L 202.124616 35.439119 
L 202.124616 35.394531 
L 202.232226 35.394531 
L 203.346745 35.305355 
L 203.346745 35.260767 
L 203.437136 35.260767 
L 203.712608 35.171591 
L 203.756639 35.082415 
L 203.814398 35.082415 
L 205.569349 34.993238 
L 205.569349 34.94865 
L 205.680212 34.94865 
L 207.10217 34.859474 
L 207.109628 34.770298 
L 207.203937 34.770298 
L 207.546857 34.681122 
L 207.575618 34.591946 
L 207.653992 34.591946 
L 208.426114 34.50277 
L 208.426114 34.458182 
L 208.534388 34.458182 
L 209.201371 34.369006 
L 209.261268 34.27983 
L 209.307389 34.27983 
L 209.783521 34.190654 
L 209.783521 34.146066 
L 209.861063 34.146066 
L 211.156863 34.05689 
L 211.156863 34.012302 
L 211.263689 34.012302 
L 211.664297 33.923126 
L 211.664297 33.878538 
L 211.768985 33.878538 
L 212.148076 33.789362 
L 212.148076 33.744774 
L 212.258939 33.744774 
L 213.390748 33.655598 
L 213.390748 33.61101 
L 213.490568 33.61101 
L 214.05899 33.521834 
L 214.145391 33.432658 
L 214.168499 33.432658 
L 215.388871 33.343482 
L 215.388871 33.298894 
L 215.498927 33.298894 
L 216.845599 33.209718 
L 216.90483 33.120542 
L 216.954918 33.120542 
L 218.140164 33.031366 
L 218.140164 32.986778 
L 218.248438 32.986778 
L 218.827097 32.897602 
L 218.827097 32.853014 
L 218.935371 32.853014 
L 219.722337 32.763838 
L 219.722337 32.71925 
L 219.831276 32.71925 
L 223.343363 32.630074 
L 223.365996 32.540898 
L 223.451708 32.540898 
L 223.839515 32.451722 
L 223.839515 32.407134 
L 223.950521 32.407134 
L 225.590524 32.317958 
L 225.590524 32.27337 
L 225.698727 32.27337 
L 226.455792 32.184194 
L 226.455792 32.139606 
L 226.563828 32.139606 
L 227.75183 32.05043 
L 227.75183 32.005842 
L 227.862883 32.005842 
L 229.162958 31.916666 
L 229.162958 31.872078 
L 229.273227 31.872078 
L 230.260544 31.782902 
L 230.260544 31.738313 
L 230.370101 31.738313 
L 231.700552 31.649137 
L 231.700552 31.604549 
L 231.810465 31.604549 
L 232.250996 31.515373 
L 232.325665 31.426197 
L 232.361717 31.426197 
L 232.834547 31.337021 
L 232.834547 31.292433 
L 232.943367 31.292433 
L 234.179081 31.203257 
L 234.179081 31.158669 
L 234.283532 31.158669 
L 235.775243 31.069493 
L 235.781417 30.980317 
L 235.885916 30.980317 
L 237.130251 30.891141 
L 237.130251 30.846553 
L 237.236435 30.846553 
L 237.464312 30.757377 
L 237.464312 30.712789 
L 237.575104 30.712789 
L 237.90983 30.623613 
L 237.90983 30.579025 
L 238.019316 30.579025 
L 238.550926 30.489849 
L 238.550926 30.445261 
L 238.658726 30.445261 
L 239.984712 30.356085 
L 239.984712 30.311497 
L 240.095812 30.311497 
L 242.137658 30.222321 
L 242.137658 30.177733 
L 242.246858 30.177733 
L 242.363255 30.088557 
L 242.363255 30.043969 
L 242.472337 30.043969 
L 244.050425 29.954793 
L 244.050425 29.910205 
L 244.161145 29.910205 
L 244.86836 29.821029 
L 244.86836 29.776441 
L 244.978748 29.776441 
L 245.923245 29.687265 
L 245.923245 29.642677 
L 246.034345 29.642677 
L 246.776733 29.553501 
L 246.844301 29.464325 
L 246.88781 29.464325 
L 248.041113 29.375149 
L 248.041113 29.330561 
L 248.150575 29.330561 
L 248.228069 29.241385 
L 248.228069 29.196797 
L 248.338434 29.196797 
L 249.03337 29.107621 
L 249.03337 29.063033 
L 249.143378 29.063033 
L 251.373748 28.973857 
L 251.482972 28.929269 
L 252.559801 28.840093 
L 252.559801 28.795505 
L 252.670807 28.795505 
L 253.783142 28.706329 
L 253.783142 28.661741 
L 253.894171 28.661741 
L 254.371941 28.572565 
L 254.371941 28.527977 
L 254.482591 28.527977 
L 256.301357 28.4388 
L 256.301357 28.394212 
L 256.412457 28.394212 
L 260.623256 28.305036 
L 260.653371 28.171272 
L 260.732765 28.171272 
L 261.708374 28.082096 
L 261.708374 28.037508 
L 261.81938 28.037508 
L 262.51263 27.948332 
L 262.51263 27.903744 
L 262.623445 27.903744 
L 263.838735 27.814568 
L 263.838735 27.76998 
L 263.949716 27.76998 
L 267.043621 27.680804 
L 267.043621 27.636216 
L 267.154104 27.636216 
L 267.773397 27.54704 
L 267.773397 27.502452 
L 267.884474 27.502452 
L 271.279974 27.413276 
L 271.390624 27.368688 
L 275.061547 27.279512 
L 275.125006 27.190336 
L 275.172482 27.190336 
L 277.848108 27.10116 
L 277.959161 27.056572 
L 280.018534 26.967396 
L 280.132627 26.922808 
L 281.09382 26.833632 
L 281.09382 26.789044 
L 281.204849 26.789044 
L 282.023758 26.789044 
L 282.023758 26.789044 
" clip-path="url(#pd8b8643f2a)" style="fill: none; stroke: #1f77b4; stroke-width: 1.5; stroke-linecap: round"/>
   </g>
   <g id="patch_3">
    <path d="M 35.655938 265.022801 
L 35.655938 19.642031 
" style="fill: none"/>
   </g>
   <g id="patch_4">
    <path d="M 289.19952 265.022801 
L 289.19952 19.642031 
" style="fill: none"/>
   </g>
   <g id="patch_5">
    <path d="M 35.655938 265.022801 
L 289.19952 265.022801 
" style="fill: none"/>
   </g>
   <g id="patch_6">
    <path d="M 35.655938 19.642031 
L 289.19952 19.642031 
" style="fill: none"/>
   </g>
   <g id="text_15">
    <!-- Model 0: Precision-Recall Curve -->
    <g style="fill: #333333" transform="translate(93.910307 13.642031) scale(0.09 -0.09)">
     <defs>
      <path id="Arial-BoldMT-4d" d="M 453 0 
L 453 4581 
L 1838 4581 
L 2669 1456 
L 3491 4581 
L 4878 4581 
L 4878 0 
L 4019 0 
L 4019 3606 
L 3109 0 
L 2219 0 
L 1313 3606 
L 1313 0 
L 453 0 
z
" transform="scale(0.015625)"/>
      <path id="Arial-BoldMT-64" d="M 3503 0 
L 2688 0 
L 2688 488 
Q 2484 203 2207 64 
Q 1931 -75 1650 -75 
Q 1078 -75 670 386 
Q 263 847 263 1672 
Q 263 2516 659 2955 
Q 1056 3394 1663 3394 
Q 2219 3394 2625 2931 
L 2625 4581 
L 3503 4581 
L 3503 0 
z
M 1159 1731 
Q 1159 1200 1306 963 
Q 1519 619 1900 619 
Q 2203 619 2415 876 
Q 2628 1134 2628 1647 
Q 2628 2219 2422 2470 
Q 2216 2722 1894 2722 
Q 1581 2722 1370 2473 
Q 1159 2225 1159 1731 
z
" transform="scale(0.015625)"/>
      <path id="Arial-BoldMT-30" d="M 1756 4600 
Q 2422 4600 2797 4125 
Q 3244 3563 3244 2259 
Q 3244 959 2794 391 
Q 2422 -78 1756 -78 
Q 1088 -78 678 436 
Q 269 950 269 2269 
Q 269 3563 719 4131 
Q 1091 4600 1756 4600 
z
M 1756 3872 
Q 1597 3872 1472 3770 
Q 1347 3669 1278 3406 
Q 1188 3066 1188 2259 
Q 1188 1453 1269 1151 
Q 1350 850 1473 750 
Q 1597 650 1756 650 
Q 1916 650 2041 751 
Q 2166 853 2234 1116 
Q 2325 1453 2325 2259 
Q 2325 3066 2244 3367 
Q 2163 3669 2039 3770 
Q 1916 3872 1756 3872 
z
" transform="scale(0.015625)"/>
      <path id="Arial-BoldMT-3a" d="M 628 2441 
L 628 3319 
L 1506 3319 
L 1506 2441 
L 628 2441 
z
M 628 0 
L 628 878 
L 1506 878 
L 1506 0 
L 628 0 
z
" transform="scale(0.015625)"/>
      <path id="Arial-BoldMT-2d" d="M 359 1222 
L 359 2100 
L 2084 2100 
L 2084 1222 
L 359 1222 
z
" transform="scale(0.015625)"/>
      <path id="Arial-BoldMT-43" d="M 3397 1684 
L 4294 1400 
Q 4088 650 3608 286 
Q 3128 -78 2391 -78 
Q 1478 -78 890 545 
Q 303 1169 303 2250 
Q 303 3394 893 4026 
Q 1484 4659 2447 4659 
Q 3288 4659 3813 4163 
Q 4125 3869 4281 3319 
L 3366 3100 
Q 3284 3456 3026 3662 
Q 2769 3869 2400 3869 
Q 1891 3869 1573 3503 
Q 1256 3138 1256 2319 
Q 1256 1450 1568 1081 
Q 1881 713 2381 713 
Q 2750 713 3015 947 
Q 3281 1181 3397 1684 
z
" transform="scale(0.015625)"/>
      <path id="Arial-BoldMT-75" d="M 2644 0 
L 2644 497 
Q 2463 231 2167 78 
Q 1872 -75 1544 -75 
Q 1209 -75 943 72 
Q 678 219 559 484 
Q 441 750 441 1219 
L 441 3319 
L 1319 3319 
L 1319 1794 
Q 1319 1094 1367 936 
Q 1416 778 1544 686 
Q 1672 594 1869 594 
Q 2094 594 2272 717 
Q 2450 841 2515 1023 
Q 2581 1206 2581 1919 
L 2581 3319 
L 3459 3319 
L 3459 0 
L 2644 0 
z
" transform="scale(0.015625)"/>
      <path id="Arial-BoldMT-76" d="M 1372 0 
L 34 3319 
L 956 3319 
L 1581 1625 
L 1763 1059 
Q 1834 1275 1853 1344 
Q 1897 1484 1947 1625 
L 2578 3319 
L 3481 3319 
L 2163 0 
L 1372 0 
z
" transform="scale(0.015625)"/>
     </defs>
     <use xlink:href="#Arial-BoldMT-4d"/>
     <use xlink:href="#Arial-BoldMT-6f" transform="translate(83.300781 0)"/>
     <use xlink:href="#Arial-BoldMT-64" transform="translate(144.384766 0)"/>
     <use xlink:href="#Arial-BoldMT-65" transform="translate(205.46875 0)"/>
     <use xlink:href="#Arial-BoldMT-6c" transform="translate(261.083984 0)"/>
     <use xlink:href="#Arial-BoldMT-20" transform="translate(288.867188 0)"/>
     <use xlink:href="#Arial-BoldMT-30" transform="translate(316.650391 0)"/>
     <use xlink:href="#Arial-BoldMT-3a" transform="translate(372.265625 0)"/>
     <use xlink:href="#Arial-BoldMT-20" transform="translate(405.566406 0)"/>
     <use xlink:href="#Arial-BoldMT-50" transform="translate(433.349609 0)"/>
     <use xlink:href="#Arial-BoldMT-72" transform="translate(500.048828 0)"/>
     <use xlink:href="#Arial-BoldMT-65" transform="translate(538.964844 0)"/>
     <use xlink:href="#Arial-BoldMT-63" transform="translate(594.580078 0)"/>
     <use xlink:href="#Arial-BoldMT-69" transform="translate(650.195312 0)"/>
     <use xlink:href="#Arial-BoldMT-73" transform="translate(677.978516 0)"/>
     <use xlink:href="#Arial-BoldMT-69" transform="translate(733.59375 0)"/>
     <use xlink:href="#Arial-BoldMT-6f" transform="translate(761.376953 0)"/>
     <use xlink:href="#Arial-BoldMT-6e" transform="translate(822.460938 0)"/>
     <use xlink:href="#Arial-BoldMT-2d" transform="translate(883.544922 0)"/>
     <use xlink:href="#Arial-BoldMT-52" transform="translate(916.845703 0)"/>
     <use xlink:href="#Arial-BoldMT-65" transform="translate(989.0625 0)"/>
     <use xlink:href="#Arial-BoldMT-63" transform="translate(1044.677734 0)"/>
     <use xlink:href="#Arial-BoldMT-61" transform="translate(1100.292969 0)"/>
     <use xlink:href="#Arial-BoldMT-6c" transform="translate(1155.908203 0)"/>
     <use xlink:href="#Arial-BoldMT-6c" transform="translate(1183.691406 0)"/>
     <use xlink:href="#Arial-BoldMT-20" transform="translate(1211.474609 0)"/>
     <use xlink:href="#Arial-BoldMT-43" transform="translate(1239.257812 0)"/>
     <use xlink:href="#Arial-BoldMT-75" transform="translate(1311.474609 0)"/>
     <use xlink:href="#Arial-BoldMT-72" transform="translate(1372.558594 0)"/>
     <use xlink:href="#Arial-BoldMT-76" transform="translate(1411.474609 0)"/>
     <use xlink:href="#Arial-BoldMT-65" transform="translate(1467.089844 0)"/>
    </g>
   </g>
   <g id="legend_1">
    <g id="patch_7">
     <path d="M 164.573426 260.522801 
L 282.89952 260.522801 
Q 284.69952 260.522801 284.69952 258.722801 
L 284.69952 246.89202 
Q 284.69952 245.09202 282.89952 245.09202 
L 164.573426 245.09202 
Q 162.773426 245.09202 162.773426 246.89202 
L 162.773426 258.722801 
Q 162.773426 260.522801 164.573426 260.522801 
z
" style="fill: #ffffff; opacity: 0.8; stroke: #cccccc; stroke-width: 0.75; stroke-linejoin: miter"/>
    </g>
    <g id="line2d_26">
     <path d="M 166.373426 251.984051 
L 175.373426 251.984051 
L 184.373426 251.984051 
" style="fill: none; stroke: #1f77b4; stroke-width: 1.5; stroke-linecap: round"/>
    </g>
    <g id="text_16">
     <!-- Precision-Recall curve -->
     <g style="fill: #333333" transform="translate(191.573426 255.134051) scale(0.09 -0.09)">
      <defs>
       <path id="ArialMT-50" d="M 494 0 
L 494 4581 
L 2222 4581 
Q 2678 4581 2919 4538 
Q 3256 4481 3484 4323 
Q 3713 4166 3852 3881 
Q 3991 3597 3991 3256 
Q 3991 2672 3619 2267 
Q 3247 1863 2275 1863 
L 1100 1863 
L 1100 0 
L 494 0 
z
M 1100 2403 
L 2284 2403 
Q 2872 2403 3119 2622 
Q 3366 2841 3366 3238 
Q 3366 3525 3220 3729 
Q 3075 3934 2838 4000 
Q 2684 4041 2272 4041 
L 1100 4041 
L 1100 2403 
z
" transform="scale(0.015625)"/>
       <path id="ArialMT-72" d="M 416 0 
L 416 3319 
L 922 3319 
L 922 2816 
Q 1116 3169 1280 3281 
Q 1444 3394 1641 3394 
Q 1925 3394 2219 3213 
L 2025 2691 
Q 1819 2813 1613 2813 
Q 1428 2813 1281 2702 
Q 1134 2591 1072 2394 
Q 978 2094 978 1738 
L 978 0 
L 416 0 
z
" transform="scale(0.015625)"/>
       <path id="ArialMT-65" d="M 2694 1069 
L 3275 997 
Q 3138 488 2766 206 
Q 2394 -75 1816 -75 
Q 1088 -75 661 373 
Q 234 822 234 1631 
Q 234 2469 665 2931 
Q 1097 3394 1784 3394 
Q 2450 3394 2872 2941 
Q 3294 2488 3294 1666 
Q 3294 1616 3291 1516 
L 816 1516 
Q 847 969 1125 678 
Q 1403 388 1819 388 
Q 2128 388 2347 550 
Q 2566 713 2694 1069 
z
M 847 1978 
L 2700 1978 
Q 2663 2397 2488 2606 
Q 2219 2931 1791 2931 
Q 1403 2931 1139 2672 
Q 875 2413 847 1978 
z
" transform="scale(0.015625)"/>
       <path id="ArialMT-63" d="M 2588 1216 
L 3141 1144 
Q 3050 572 2676 248 
Q 2303 -75 1759 -75 
Q 1078 -75 664 370 
Q 250 816 250 1647 
Q 250 2184 428 2587 
Q 606 2991 970 3192 
Q 1334 3394 1763 3394 
Q 2303 3394 2647 3120 
Q 2991 2847 3088 2344 
L 2541 2259 
Q 2463 2594 2264 2762 
Q 2066 2931 1784 2931 
Q 1359 2931 1093 2626 
Q 828 2322 828 1663 
Q 828 994 1084 691 
Q 1341 388 1753 388 
Q 2084 388 2306 591 
Q 2528 794 2588 1216 
z
" transform="scale(0.015625)"/>
       <path id="ArialMT-69" d="M 425 3934 
L 425 4581 
L 988 4581 
L 988 3934 
L 425 3934 
z
M 425 0 
L 425 3319 
L 988 3319 
L 988 0 
L 425 0 
z
" transform="scale(0.015625)"/>
       <path id="ArialMT-73" d="M 197 991 
L 753 1078 
Q 800 744 1014 566 
Q 1228 388 1613 388 
Q 2000 388 2187 545 
Q 2375 703 2375 916 
Q 2375 1106 2209 1216 
Q 2094 1291 1634 1406 
Q 1016 1563 777 1677 
Q 538 1791 414 1992 
Q 291 2194 291 2438 
Q 291 2659 392 2848 
Q 494 3038 669 3163 
Q 800 3259 1026 3326 
Q 1253 3394 1513 3394 
Q 1903 3394 2198 3281 
Q 2494 3169 2634 2976 
Q 2775 2784 2828 2463 
L 2278 2388 
Q 2241 2644 2061 2787 
Q 1881 2931 1553 2931 
Q 1166 2931 1000 2803 
Q 834 2675 834 2503 
Q 834 2394 903 2306 
Q 972 2216 1119 2156 
Q 1203 2125 1616 2013 
Q 2213 1853 2448 1751 
Q 2684 1650 2818 1456 
Q 2953 1263 2953 975 
Q 2953 694 2789 445 
Q 2625 197 2315 61 
Q 2006 -75 1616 -75 
Q 969 -75 630 194 
Q 291 463 197 991 
z
" transform="scale(0.015625)"/>
       <path id="ArialMT-6f" d="M 213 1659 
Q 213 2581 725 3025 
Q 1153 3394 1769 3394 
Q 2453 3394 2887 2945 
Q 3322 2497 3322 1706 
Q 3322 1066 3130 698 
Q 2938 331 2570 128 
Q 2203 -75 1769 -75 
Q 1072 -75 642 372 
Q 213 819 213 1659 
z
M 791 1659 
Q 791 1022 1069 705 
Q 1347 388 1769 388 
Q 2188 388 2466 706 
Q 2744 1025 2744 1678 
Q 2744 2294 2464 2611 
Q 2184 2928 1769 2928 
Q 1347 2928 1069 2612 
Q 791 2297 791 1659 
z
" transform="scale(0.015625)"/>
       <path id="ArialMT-6e" d="M 422 0 
L 422 3319 
L 928 3319 
L 928 2847 
Q 1294 3394 1984 3394 
Q 2284 3394 2536 3286 
Q 2788 3178 2913 3003 
Q 3038 2828 3088 2588 
Q 3119 2431 3119 2041 
L 3119 0 
L 2556 0 
L 2556 2019 
Q 2556 2363 2490 2533 
Q 2425 2703 2258 2804 
Q 2091 2906 1866 2906 
Q 1506 2906 1245 2678 
Q 984 2450 984 1813 
L 984 0 
L 422 0 
z
" transform="scale(0.015625)"/>
       <path id="ArialMT-2d" d="M 203 1375 
L 203 1941 
L 1931 1941 
L 1931 1375 
L 203 1375 
z
" transform="scale(0.015625)"/>
       <path id="ArialMT-52" d="M 503 0 
L 503 4581 
L 2534 4581 
Q 3147 4581 3465 4457 
Q 3784 4334 3975 4021 
Q 4166 3709 4166 3331 
Q 4166 2844 3850 2509 
Q 3534 2175 2875 2084 
Q 3116 1969 3241 1856 
Q 3506 1613 3744 1247 
L 4541 0 
L 3778 0 
L 3172 953 
Q 2906 1366 2734 1584 
Q 2563 1803 2427 1890 
Q 2291 1978 2150 2013 
Q 2047 2034 1813 2034 
L 1109 2034 
L 1109 0 
L 503 0 
z
M 1109 2559 
L 2413 2559 
Q 2828 2559 3062 2645 
Q 3297 2731 3419 2920 
Q 3541 3109 3541 3331 
Q 3541 3656 3305 3865 
Q 3069 4075 2559 4075 
L 1109 4075 
L 1109 2559 
z
" transform="scale(0.015625)"/>
       <path id="ArialMT-61" d="M 2588 409 
Q 2275 144 1986 34 
Q 1697 -75 1366 -75 
Q 819 -75 525 192 
Q 231 459 231 875 
Q 231 1119 342 1320 
Q 453 1522 633 1644 
Q 813 1766 1038 1828 
Q 1203 1872 1538 1913 
Q 2219 1994 2541 2106 
Q 2544 2222 2544 2253 
Q 2544 2597 2384 2738 
Q 2169 2928 1744 2928 
Q 1347 2928 1158 2789 
Q 969 2650 878 2297 
L 328 2372 
Q 403 2725 575 2942 
Q 747 3159 1072 3276 
Q 1397 3394 1825 3394 
Q 2250 3394 2515 3294 
Q 2781 3194 2906 3042 
Q 3031 2891 3081 2659 
Q 3109 2516 3109 2141 
L 3109 1391 
Q 3109 606 3145 398 
Q 3181 191 3288 0 
L 2700 0 
Q 2613 175 2588 409 
z
M 2541 1666 
Q 2234 1541 1622 1453 
Q 1275 1403 1131 1340 
Q 988 1278 909 1158 
Q 831 1038 831 891 
Q 831 666 1001 516 
Q 1172 366 1500 366 
Q 1825 366 2078 508 
Q 2331 650 2450 897 
Q 2541 1088 2541 1459 
L 2541 1666 
z
" transform="scale(0.015625)"/>
       <path id="ArialMT-6c" d="M 409 0 
L 409 4581 
L 972 4581 
L 972 0 
L 409 0 
z
" transform="scale(0.015625)"/>
       <path id="ArialMT-20" transform="scale(0.015625)"/>
       <path id="ArialMT-75" d="M 2597 0 
L 2597 488 
Q 2209 -75 1544 -75 
Q 1250 -75 995 37 
Q 741 150 617 320 
Q 494 491 444 738 
Q 409 903 409 1263 
L 409 3319 
L 972 3319 
L 972 1478 
Q 972 1038 1006 884 
Q 1059 663 1231 536 
Q 1403 409 1656 409 
Q 1909 409 2131 539 
Q 2353 669 2445 892 
Q 2538 1116 2538 1541 
L 2538 3319 
L 3100 3319 
L 3100 0 
L 2597 0 
z
" transform="scale(0.015625)"/>
       <path id="ArialMT-76" d="M 1344 0 
L 81 3319 
L 675 3319 
L 1388 1331 
Q 1503 1009 1600 663 
Q 1675 925 1809 1294 
L 2547 3319 
L 3125 3319 
L 1869 0 
L 1344 0 
z
" transform="scale(0.015625)"/>
      </defs>
      <use xlink:href="#ArialMT-50"/>
      <use xlink:href="#ArialMT-72" transform="translate(66.699219 0)"/>
      <use xlink:href="#ArialMT-65" transform="translate(100 0)"/>
      <use xlink:href="#ArialMT-63" transform="translate(155.615234 0)"/>
      <use xlink:href="#ArialMT-69" transform="translate(205.615234 0)"/>
      <use xlink:href="#ArialMT-73" transform="translate(227.832031 0)"/>
      <use xlink:href="#ArialMT-69" transform="translate(277.832031 0)"/>
      <use xlink:href="#ArialMT-6f" transform="translate(300.048828 0)"/>
      <use xlink:href="#ArialMT-6e" transform="translate(355.664062 0)"/>
      <use xlink:href="#ArialMT-2d" transform="translate(411.279297 0)"/>
      <use xlink:href="#ArialMT-52" transform="translate(444.580078 0)"/>
      <use xlink:href="#ArialMT-65" transform="translate(516.796875 0)"/>
      <use xlink:href="#ArialMT-63" transform="translate(572.412109 0)"/>
      <use xlink:href="#ArialMT-61" transform="translate(622.412109 0)"/>
      <use xlink:href="#ArialMT-6c" transform="translate(678.027344 0)"/>
      <use xlink:href="#ArialMT-6c" transform="translate(700.244141 0)"/>
      <use xlink:href="#ArialMT-20" transform="translate(722.460938 0)"/>
      <use xlink:href="#ArialMT-63" transform="translate(750.244141 0)"/>
      <use xlink:href="#ArialMT-75" transform="translate(800.244141 0)"/>
      <use xlink:href="#ArialMT-72" transform="translate(855.859375 0)"/>
      <use xlink:href="#ArialMT-76" transform="translate(889.160156 0)"/>
      <use xlink:href="#ArialMT-65" transform="translate(939.160156 0)"/>
     </g>
    </g>
   </g>
  </g>
 </g>
 <defs>
  <clipPath id="pd8b8643f2a">
   <rect x="35.655938" y="19.642031" width="253.543583" height="245.38077"/>
  </clipPath>
 </defs>
</svg>
