<?xml version="1.0" encoding="utf-8" standalone="no"?>
<!DOCTYPE svg PUBLIC "-//W3C//DTD SVG 1.1//EN"
  "http://www.w3.org/Graphics/SVG/1.1/DTD/svg11.dtd">
<svg xmlns:xlink="http://www.w3.org/1999/xlink" width="296.39952pt" height="296.39952pt" viewBox="0 0 296.39952 296.39952" xmlns="http://www.w3.org/2000/svg" version="1.1">
 <metadata>
  <rdf:RDF xmlns:dc="http://purl.org/dc/elements/1.1/" xmlns:cc="http://creativecommons.org/ns#" xmlns:rdf="http://www.w3.org/1999/02/22-rdf-syntax-ns#">
   <cc:Work>
    <dc:type rdf:resource="http://purl.org/dc/dcmitype/StillImage"/>
    <dc:date>2026-01-01T09:03:03.636472</dc:date>
    <dc:format>image/svg+xml</dc:format>
    <dc:creator>
     <cc:Agent>
      <dc:title>Matplotlib v3.10.8, https://matplotlib.org/</dc:title>
     </cc:Agent>
    </dc:creator>
   </cc:Work>
  </rdf:RDF>
 </metadata>
 <defs>
  <style type="text/css">*{stroke-linejoin: round; stroke-linecap: butt}</style>
 </defs>
 <g id="figure_1">
  <g id="patch_1">
   <path d="M 0 296.39952 
L 296.39952 296.39952 
L 296.39952 0 
L 0 0 
z
" style="fill: #ffffff"/>
  </g>
  <g id="axes_1">
   <g id="patch_2">
    <path d="M 35.655938 265.022801 
L 289.19952 265.022801 
L 289.19952 19.642031 
L 35.655938 19.642031 
z
" style="fill: #ffffff"/>
   </g>
   <g id="matplotlib.axis_1">
    <g id="xtick_1">
     <g id="line2d_1">
      <path d="M 42.831699 265.022801 
L 42.831699 19.642031 
" clip-path="url(#p0794124a3c)" style="fill: none; stroke: #c0c0c0; stroke-width: 0.25; stroke-linecap: round"/>
     </g>
     <g id="line2d_2"/>
     <g id="text_1">
      <!-- 0.0 -->
      <g style="fill: #333333" transform="translate(36.576699 274.964832) scale(0.09 -0.09)">
       <defs>
        <path id="ArialMT-30" d="M 266 2259 
Q 266 3072 433 3567 
Q 600 4063 929 4331 
Q 1259 4600 1759 4600 
Q 2128 4600 2406 4451 
Q 2684 4303 2865 4023 
Q 3047 3744 3150 3342 
Q 3253 2941 3253 2259 
Q 3253 1453 3087 958 
Q 2922 463 2592 192 
Q 2263 -78 1759 -78 
Q 1097 -78 719 397 
Q 266 969 266 2259 
z
M 844 2259 
Q 844 1131 1108 757 
Q 1372 384 1759 384 
Q 2147 384 2411 759 
Q 2675 1134 2675 2259 
Q 2675 3391 2411 3762 
Q 2147 4134 1753 4134 
Q 1366 4134 1134 3806 
Q 844 3388 844 2259 
z
" transform="scale(0.015625)"/>
        <path id="ArialMT-2e" d="M 581 0 
L 581 641 
L 1222 641 
L 1222 0 
L 581 0 
z
" transform="scale(0.015625)"/>
       </defs>
       <use xlink:href="#ArialMT-30"/>
       <use xlink:href="#ArialMT-2e" transform="translate(55.615234 0)"/>
       <use xlink:href="#ArialMT-30" transform="translate(83.398438 0)"/>
      </g>
     </g>
    </g>
    <g id="xtick_2">
     <g id="line2d_3">
      <path d="M 90.670111 265.022801 
L 90.670111 19.642031 
" clip-path="url(#p0794124a3c)" style="fill: none; stroke: #c0c0c0; stroke-width: 0.25; stroke-linecap: round"/>
     </g>
     <g id="line2d_4"/>
     <g id="text_2">
      <!-- 0.2 -->
      <g style="fill: #333333" transform="translate(84.415111 274.964832) scale(0.09 -0.09)">
       <defs>
        <path id="ArialMT-32" d="M 3222 541 
L 3222 0 
L 194 0 
Q 188 203 259 391 
Q 375 700 629 1000 
Q 884 1300 1366 1694 
Q 2113 2306 2375 2664 
Q 2638 3022 2638 3341 
Q 2638 3675 2398 3904 
Q 2159 4134 1775 4134 
Q 1369 4134 1125 3890 
Q 881 3647 878 3216 
L 300 3275 
Q 359 3922 746 4261 
Q 1134 4600 1788 4600 
Q 2447 4600 2831 4234 
Q 3216 3869 3216 3328 
Q 3216 3053 3103 2787 
Q 2991 2522 2730 2228 
Q 2469 1934 1863 1422 
Q 1356 997 1212 845 
Q 1069 694 975 541 
L 3222 541 
z
" transform="scale(0.015625)"/>
       </defs>
       <use xlink:href="#ArialMT-30"/>
       <use xlink:href="#ArialMT-2e" transform="translate(55.615234 0)"/>
       <use xlink:href="#ArialMT-32" transform="translate(83.398438 0)"/>
      </g>
     </g>
    </g>
    <g id="xtick_3">
     <g id="line2d_5">
      <path d="M 138.508523 265.022801 
L 138.508523 19.642031 
" clip-path="url(#p0794124a3c)" style="fill: none; stroke: #c0c0c0; stroke-width: 0.25; stroke-linecap: round"/>
     </g>
     <g id="line2d_6"/>
     <g id="text_3">
      <!-- 0.4 -->
      <g style="fill: #333333" transform="translate(132.253523 274.964832) scale(0.09 -0.09)">
       <defs>
        <path id="ArialMT-34" d="M 2069 0 
L 2069 1097 
L 81 1097 
L 81 1613 
L 2172 4581 
L 2631 4581 
L 2631 1613 
L 3250 1613 
L 3250 1097 
L 2631 1097 
L 2631 0 
L 2069 0 
z
M 2069 1613 
L 2069 3678 
L 634 1613 
L 2069 1613 
z
" transform="scale(0.015625)"/>
       </defs>
       <use xlink:href="#ArialMT-30"/>
       <use xlink:href="#ArialMT-2e" transform="translate(55.615234 0)"/>
       <use xlink:href="#ArialMT-34" transform="translate(83.398438 0)"/>
      </g>
     </g>
    </g>
    <g id="xtick_4">
     <g id="line2d_7">
      <path d="M 186.346935 265.022801 
L 186.346935 19.642031 
" clip-path="url(#p0794124a3c)" style="fill: none; stroke: #c0c0c0; stroke-width: 0.25; stroke-linecap: round"/>
     </g>
     <g id="line2d_8"/>
     <g id="text_4">
      <!-- 0.6 -->
      <g style="fill: #333333" transform="translate(180.091935 274.964832) scale(0.09 -0.09)">
       <defs>
        <path id="ArialMT-36" d="M 3184 3459 
L 2625 3416 
Q 2550 3747 2413 3897 
Q 2184 4138 1850 4138 
Q 1581 4138 1378 3988 
Q 1113 3794 959 3422 
Q 806 3050 800 2363 
Q 1003 2672 1297 2822 
Q 1591 2972 1913 2972 
Q 2475 2972 2870 2558 
Q 3266 2144 3266 1488 
Q 3266 1056 3080 686 
Q 2894 316 2569 119 
Q 2244 -78 1831 -78 
Q 1128 -78 684 439 
Q 241 956 241 2144 
Q 241 3472 731 4075 
Q 1159 4600 1884 4600 
Q 2425 4600 2770 4297 
Q 3116 3994 3184 3459 
z
M 888 1484 
Q 888 1194 1011 928 
Q 1134 663 1356 523 
Q 1578 384 1822 384 
Q 2178 384 2434 671 
Q 2691 959 2691 1453 
Q 2691 1928 2437 2201 
Q 2184 2475 1800 2475 
Q 1419 2475 1153 2201 
Q 888 1928 888 1484 
z
" transform="scale(0.015625)"/>
       </defs>
       <use xlink:href="#ArialMT-30"/>
       <use xlink:href="#ArialMT-2e" transform="translate(55.615234 0)"/>
       <use xlink:href="#ArialMT-36" transform="translate(83.398438 0)"/>
      </g>
     </g>
    </g>
    <g id="xtick_5">
     <g id="line2d_9">
      <path d="M 234.185346 265.022801 
L 234.185346 19.642031 
" clip-path="url(#p0794124a3c)" style="fill: none; stroke: #c0c0c0; stroke-width: 0.25; stroke-linecap: round"/>
     </g>
     <g id="line2d_10"/>
     <g id="text_5">
      <!-- 0.8 -->
      <g style="fill: #333333" transform="translate(227.930346 274.964832) scale(0.09 -0.09)">
       <defs>
        <path id="ArialMT-38" d="M 1131 2484 
Q 781 2613 612 2850 
Q 444 3088 444 3419 
Q 444 3919 803 4259 
Q 1163 4600 1759 4600 
Q 2359 4600 2725 4251 
Q 3091 3903 3091 3403 
Q 3091 3084 2923 2848 
Q 2756 2613 2416 2484 
Q 2838 2347 3058 2040 
Q 3278 1734 3278 1309 
Q 3278 722 2862 322 
Q 2447 -78 1769 -78 
Q 1091 -78 675 323 
Q 259 725 259 1325 
Q 259 1772 486 2073 
Q 713 2375 1131 2484 
z
M 1019 3438 
Q 1019 3113 1228 2906 
Q 1438 2700 1772 2700 
Q 2097 2700 2305 2904 
Q 2513 3109 2513 3406 
Q 2513 3716 2298 3927 
Q 2084 4138 1766 4138 
Q 1444 4138 1231 3931 
Q 1019 3725 1019 3438 
z
M 838 1322 
Q 838 1081 952 856 
Q 1066 631 1291 507 
Q 1516 384 1775 384 
Q 2178 384 2440 643 
Q 2703 903 2703 1303 
Q 2703 1709 2433 1975 
Q 2163 2241 1756 2241 
Q 1359 2241 1098 1978 
Q 838 1716 838 1322 
z
" transform="scale(0.015625)"/>
       </defs>
       <use xlink:href="#ArialMT-30"/>
       <use xlink:href="#ArialMT-2e" transform="translate(55.615234 0)"/>
       <use xlink:href="#ArialMT-38" transform="translate(83.398438 0)"/>
      </g>
     </g>
    </g>
    <g id="xtick_6">
     <g id="line2d_11">
      <path d="M 282.023758 265.022801 
L 282.023758 19.642031 
" clip-path="url(#p0794124a3c)" style="fill: none; stroke: #c0c0c0; stroke-width: 0.25; stroke-linecap: round"/>
     </g>
     <g id="line2d_12"/>
     <g id="text_6">
      <!-- 1.0 -->
      <g style="fill: #333333" transform="translate(275.768758 274.964832) scale(0.09 -0.09)">
       <defs>
        <path id="ArialMT-31" d="M 2384 0 
L 1822 0 
L 1822 3584 
Q 1619 3391 1289 3197 
Q 959 3003 697 2906 
L 697 3450 
Q 1169 3672 1522 3987 
Q 1875 4303 2022 4600 
L 2384 4600 
L 2384 0 
z
" transform="scale(0.015625)"/>
       </defs>
       <use xlink:href="#ArialMT-31"/>
       <use xlink:href="#ArialMT-2e" transform="translate(55.615234 0)"/>
       <use xlink:href="#ArialMT-30" transform="translate(83.398438 0)"/>
      </g>
     </g>
    </g>
    <g id="text_7">
     <!-- Recall [TP / (TP + FN)] -->
     <g style="fill: #333333" transform="translate(115.706479 287.305301) scale(0.09 -0.09)">
      <defs>
       <path id="Arial-BoldMT-52" d="M 469 0 
L 469 4581 
L 2416 4581 
Q 3150 4581 3483 4457 
Q 3816 4334 4016 4018 
Q 4216 3703 4216 3297 
Q 4216 2781 3912 2445 
Q 3609 2109 3006 2022 
Q 3306 1847 3501 1637 
Q 3697 1428 4028 894 
L 4588 0 
L 3481 0 
L 2813 997 
Q 2456 1531 2325 1670 
Q 2194 1809 2047 1861 
Q 1900 1913 1581 1913 
L 1394 1913 
L 1394 0 
L 469 0 
z
M 1394 2644 
L 2078 2644 
Q 2744 2644 2909 2700 
Q 3075 2756 3169 2893 
Q 3263 3031 3263 3238 
Q 3263 3469 3139 3611 
Q 3016 3753 2791 3791 
Q 2678 3806 2116 3806 
L 1394 3806 
L 1394 2644 
z
" transform="scale(0.015625)"/>
       <path id="Arial-BoldMT-65" d="M 2381 1056 
L 3256 909 
Q 3088 428 2723 176 
Q 2359 -75 1813 -75 
Q 947 -75 531 491 
Q 203 944 203 1634 
Q 203 2459 634 2926 
Q 1066 3394 1725 3394 
Q 2466 3394 2894 2905 
Q 3322 2416 3303 1406 
L 1103 1406 
Q 1113 1016 1316 798 
Q 1519 581 1822 581 
Q 2028 581 2168 693 
Q 2309 806 2381 1056 
z
M 2431 1944 
Q 2422 2325 2234 2523 
Q 2047 2722 1778 2722 
Q 1491 2722 1303 2513 
Q 1116 2303 1119 1944 
L 2431 1944 
z
" transform="scale(0.015625)"/>
       <path id="Arial-BoldMT-63" d="M 3353 2338 
L 2488 2181 
Q 2444 2441 2289 2572 
Q 2134 2703 1888 2703 
Q 1559 2703 1364 2476 
Q 1169 2250 1169 1719 
Q 1169 1128 1367 884 
Q 1566 641 1900 641 
Q 2150 641 2309 783 
Q 2469 925 2534 1272 
L 3397 1125 
Q 3263 531 2881 228 
Q 2500 -75 1859 -75 
Q 1131 -75 698 384 
Q 266 844 266 1656 
Q 266 2478 700 2936 
Q 1134 3394 1875 3394 
Q 2481 3394 2839 3133 
Q 3197 2872 3353 2338 
z
" transform="scale(0.015625)"/>
       <path id="Arial-BoldMT-61" d="M 1116 2306 
L 319 2450 
Q 453 2931 781 3162 
Q 1109 3394 1756 3394 
Q 2344 3394 2631 3255 
Q 2919 3116 3036 2902 
Q 3153 2688 3153 2116 
L 3144 1091 
Q 3144 653 3186 445 
Q 3228 238 3344 0 
L 2475 0 
Q 2441 88 2391 259 
Q 2369 338 2359 363 
Q 2134 144 1878 34 
Q 1622 -75 1331 -75 
Q 819 -75 523 203 
Q 228 481 228 906 
Q 228 1188 362 1408 
Q 497 1628 739 1745 
Q 981 1863 1438 1950 
Q 2053 2066 2291 2166 
L 2291 2253 
Q 2291 2506 2166 2614 
Q 2041 2722 1694 2722 
Q 1459 2722 1328 2630 
Q 1197 2538 1116 2306 
z
M 2291 1594 
Q 2122 1538 1756 1459 
Q 1391 1381 1278 1306 
Q 1106 1184 1106 997 
Q 1106 813 1243 678 
Q 1381 544 1594 544 
Q 1831 544 2047 700 
Q 2206 819 2256 991 
Q 2291 1103 2291 1419 
L 2291 1594 
z
" transform="scale(0.015625)"/>
       <path id="Arial-BoldMT-6c" d="M 459 0 
L 459 4581 
L 1338 4581 
L 1338 0 
L 459 0 
z
" transform="scale(0.015625)"/>
       <path id="Arial-BoldMT-20" transform="scale(0.015625)"/>
       <path id="Arial-BoldMT-5b" d="M 456 -1291 
L 456 4581 
L 2013 4581 
L 2013 3891 
L 1291 3891 
L 1291 -600 
L 2013 -600 
L 2013 -1291 
L 456 -1291 
z
" transform="scale(0.015625)"/>
       <path id="Arial-BoldMT-54" d="M 1497 0 
L 1497 3806 
L 138 3806 
L 138 4581 
L 3778 4581 
L 3778 3806 
L 2422 3806 
L 2422 0 
L 1497 0 
z
" transform="scale(0.015625)"/>
       <path id="Arial-BoldMT-50" d="M 466 0 
L 466 4581 
L 1950 4581 
Q 2794 4581 3050 4513 
Q 3444 4409 3709 4064 
Q 3975 3719 3975 3172 
Q 3975 2750 3822 2462 
Q 3669 2175 3433 2011 
Q 3197 1847 2953 1794 
Q 2622 1728 1994 1728 
L 1391 1728 
L 1391 0 
L 466 0 
z
M 1391 3806 
L 1391 2506 
L 1897 2506 
Q 2444 2506 2628 2578 
Q 2813 2650 2917 2803 
Q 3022 2956 3022 3159 
Q 3022 3409 2875 3571 
Q 2728 3734 2503 3775 
Q 2338 3806 1838 3806 
L 1391 3806 
z
" transform="scale(0.015625)"/>
       <path id="Arial-BoldMT-2f" d="M -9 -78 
L 1125 4659 
L 1784 4659 
L 638 -78 
L -9 -78 
z
" transform="scale(0.015625)"/>
       <path id="Arial-BoldMT-28" d="M 1916 -1347 
L 1313 -1347 
Q 834 -625 584 153 
Q 334 931 334 1659 
Q 334 2563 644 3369 
Q 913 4069 1325 4659 
L 1925 4659 
Q 1497 3713 1336 3048 
Q 1175 2384 1175 1641 
Q 1175 1128 1270 590 
Q 1366 53 1531 -431 
Q 1641 -750 1916 -1347 
z
" transform="scale(0.015625)"/>
       <path id="Arial-BoldMT-2b" d="M 1466 659 
L 1466 1850 
L 266 1850 
L 266 2672 
L 1466 2672 
L 1466 3863 
L 2266 3863 
L 2266 2672 
L 3469 2672 
L 3469 1850 
L 2266 1850 
L 2266 659 
L 1466 659 
z
" transform="scale(0.015625)"/>
       <path id="Arial-BoldMT-46" d="M 472 0 
L 472 4581 
L 3613 4581 
L 3613 3806 
L 1397 3806 
L 1397 2722 
L 3309 2722 
L 3309 1947 
L 1397 1947 
L 1397 0 
L 472 0 
z
" transform="scale(0.015625)"/>
       <path id="Arial-BoldMT-4e" d="M 475 0 
L 475 4581 
L 1375 4581 
L 3250 1522 
L 3250 4581 
L 4109 4581 
L 4109 0 
L 3181 0 
L 1334 2988 
L 1334 0 
L 475 0 
z
" transform="scale(0.015625)"/>
       <path id="Arial-BoldMT-29" d="M 216 -1347 
Q 475 -791 581 -494 
Q 688 -197 778 190 
Q 869 578 912 926 
Q 956 1275 956 1641 
Q 956 2384 797 3048 
Q 638 3713 209 4659 
L 806 4659 
Q 1278 3988 1539 3234 
Q 1800 2481 1800 1706 
Q 1800 1053 1594 306 
Q 1359 -531 822 -1347 
L 216 -1347 
z
" transform="scale(0.015625)"/>
       <path id="Arial-BoldMT-5d" d="M 1675 4581 
L 1675 -1291 
L 119 -1291 
L 119 -600 
L 841 -600 
L 841 3897 
L 119 3897 
L 119 4581 
L 1675 4581 
z
" transform="scale(0.015625)"/>
      </defs>
      <use xlink:href="#Arial-BoldMT-52"/>
      <use xlink:href="#Arial-BoldMT-65" transform="translate(72.216797 0)"/>
      <use xlink:href="#Arial-BoldMT-63" transform="translate(127.832031 0)"/>
      <use xlink:href="#Arial-BoldMT-61" transform="translate(183.447266 0)"/>
      <use xlink:href="#Arial-BoldMT-6c" transform="translate(239.0625 0)"/>
      <use xlink:href="#Arial-BoldMT-6c" transform="translate(266.845703 0)"/>
      <use xlink:href="#Arial-BoldMT-20" transform="translate(294.628906 0)"/>
      <use xlink:href="#Arial-BoldMT-5b" transform="translate(322.412109 0)"/>
      <use xlink:href="#Arial-BoldMT-54" transform="translate(355.712891 0)"/>
      <use xlink:href="#Arial-BoldMT-50" transform="translate(416.796875 0)"/>
      <use xlink:href="#Arial-BoldMT-20" transform="translate(481.746094 0)"/>
      <use xlink:href="#Arial-BoldMT-2f" transform="translate(509.529297 0)"/>
      <use xlink:href="#Arial-BoldMT-20" transform="translate(537.3125 0)"/>
      <use xlink:href="#Arial-BoldMT-28" transform="translate(565.095703 0)"/>
      <use xlink:href="#Arial-BoldMT-54" transform="translate(598.396484 0)"/>
      <use xlink:href="#Arial-BoldMT-50" transform="translate(659.480469 0)"/>
      <use xlink:href="#Arial-BoldMT-20" transform="translate(724.429688 0)"/>
      <use xlink:href="#Arial-BoldMT-2b" transform="translate(752.212891 0)"/>
      <use xlink:href="#Arial-BoldMT-20" transform="translate(810.611328 0)"/>
      <use xlink:href="#Arial-BoldMT-46" transform="translate(838.394531 0)"/>
      <use xlink:href="#Arial-BoldMT-4e" transform="translate(899.478516 0)"/>
      <use xlink:href="#Arial-BoldMT-29" transform="translate(971.695312 0)"/>
      <use xlink:href="#Arial-BoldMT-5d" transform="translate(1004.996094 0)"/>
     </g>
    </g>
   </g>
   <g id="matplotlib.axis_2">
    <g id="ytick_1">
     <g id="line2d_13">
      <path d="M 35.655938 265.022801 
L 289.19952 265.022801 
" clip-path="url(#p0794124a3c)" style="fill: none; stroke: #c0c0c0; stroke-width: 0.25; stroke-linecap: round"/>
     </g>
     <g id="line2d_14"/>
     <g id="text_8">
      <!-- 0.0 -->
      <g style="fill: #333333" transform="translate(19.645938 268.243817) scale(0.09 -0.09)">
       <use xlink:href="#ArialMT-30"/>
       <use xlink:href="#ArialMT-2e" transform="translate(55.615234 0)"/>
       <use xlink:href="#ArialMT-30" transform="translate(83.398438 0)"/>
      </g>
     </g>
    </g>
    <g id="ytick_2">
     <g id="line2d_15">
      <path d="M 35.655938 217.37605 
L 289.19952 217.37605 
" clip-path="url(#p0794124a3c)" style="fill: none; stroke: #c0c0c0; stroke-width: 0.25; stroke-linecap: round"/>
     </g>
     <g id="line2d_16"/>
     <g id="text_9">
      <!-- 0.2 -->
      <g style="fill: #333333" transform="translate(19.645938 220.597065) scale(0.09 -0.09)">
       <use xlink:href="#ArialMT-30"/>
       <use xlink:href="#ArialMT-2e" transform="translate(55.615234 0)"/>
       <use xlink:href="#ArialMT-32" transform="translate(83.398438 0)"/>
      </g>
     </g>
    </g>
    <g id="ytick_3">
     <g id="line2d_17">
      <path d="M 35.655938 169.729298 
L 289.19952 169.729298 
" clip-path="url(#p0794124a3c)" style="fill: none; stroke: #c0c0c0; stroke-width: 0.25; stroke-linecap: round"/>
     </g>
     <g id="line2d_18"/>
     <g id="text_10">
      <!-- 0.4 -->
      <g style="fill: #333333" transform="translate(19.645938 172.950314) scale(0.09 -0.09)">
       <use xlink:href="#ArialMT-30"/>
       <use xlink:href="#ArialMT-2e" transform="translate(55.615234 0)"/>
       <use xlink:href="#ArialMT-34" transform="translate(83.398438 0)"/>
      </g>
     </g>
    </g>
    <g id="ytick_4">
     <g id="line2d_19">
      <path d="M 35.655938 122.082547 
L 289.19952 122.082547 
" clip-path="url(#p0794124a3c)" style="fill: none; stroke: #c0c0c0; stroke-width: 0.25; stroke-linecap: round"/>
     </g>
     <g id="line2d_20"/>
     <g id="text_11">
      <!-- 0.6 -->
      <g style="fill: #333333" transform="translate(19.645938 125.303563) scale(0.09 -0.09)">
       <use xlink:href="#ArialMT-30"/>
       <use xlink:href="#ArialMT-2e" transform="translate(55.615234 0)"/>
       <use xlink:href="#ArialMT-36" transform="translate(83.398438 0)"/>
      </g>
     </g>
    </g>
    <g id="ytick_5">
     <g id="line2d_21">
      <path d="M 35.655938 74.435795 
L 289.19952 74.435795 
" clip-path="url(#p0794124a3c)" style="fill: none; stroke: #c0c0c0; stroke-width: 0.25; stroke-linecap: round"/>
     </g>
     <g id="line2d_22"/>
     <g id="text_12">
      <!-- 0.8 -->
      <g style="fill: #333333" transform="translate(19.645938 77.656811) scale(0.09 -0.09)">
       <use xlink:href="#ArialMT-30"/>
       <use xlink:href="#ArialMT-2e" transform="translate(55.615234 0)"/>
       <use xlink:href="#ArialMT-38" transform="translate(83.398438 0)"/>
      </g>
     </g>
    </g>
    <g id="ytick_6">
     <g id="line2d_23">
      <path d="M 35.655938 26.789044 
L 289.19952 26.789044 
" clip-path="url(#p0794124a3c)" style="fill: none; stroke: #c0c0c0; stroke-width: 0.25; stroke-linecap: round"/>
     </g>
     <g id="line2d_24"/>
     <g id="text_13">
      <!-- 1.0 -->
      <g style="fill: #333333" transform="translate(19.645938 30.01006) scale(0.09 -0.09)">
       <use xlink:href="#ArialMT-31"/>
       <use xlink:href="#ArialMT-2e" transform="translate(55.615234 0)"/>
       <use xlink:href="#ArialMT-30" transform="translate(83.398438 0)"/>
      </g>
     </g>
    </g>
    <g id="text_14">
     <!-- Precision [TP / (TP + FP)] -->
     <g style="fill: #333333" transform="translate(13.751719 195.805776) rotate(-90) scale(0.09 -0.09)">
      <defs>
       <path id="Arial-BoldMT-72" d="M 1300 0 
L 422 0 
L 422 3319 
L 1238 3319 
L 1238 2847 
Q 1447 3181 1614 3287 
Q 1781 3394 1994 3394 
Q 2294 3394 2572 3228 
L 2300 2463 
Q 2078 2606 1888 2606 
Q 1703 2606 1575 2504 
Q 1447 2403 1373 2137 
Q 1300 1872 1300 1025 
L 1300 0 
z
" transform="scale(0.015625)"/>
       <path id="Arial-BoldMT-69" d="M 459 3769 
L 459 4581 
L 1338 4581 
L 1338 3769 
L 459 3769 
z
M 459 0 
L 459 3319 
L 1338 3319 
L 1338 0 
L 459 0 
z
" transform="scale(0.015625)"/>
       <path id="Arial-BoldMT-73" d="M 150 947 
L 1031 1081 
Q 1088 825 1259 692 
Q 1431 559 1741 559 
Q 2081 559 2253 684 
Q 2369 772 2369 919 
Q 2369 1019 2306 1084 
Q 2241 1147 2013 1200 
Q 950 1434 666 1628 
Q 272 1897 272 2375 
Q 272 2806 612 3100 
Q 953 3394 1669 3394 
Q 2350 3394 2681 3172 
Q 3013 2950 3138 2516 
L 2309 2363 
Q 2256 2556 2107 2659 
Q 1959 2763 1684 2763 
Q 1338 2763 1188 2666 
Q 1088 2597 1088 2488 
Q 1088 2394 1175 2328 
Q 1294 2241 1995 2081 
Q 2697 1922 2975 1691 
Q 3250 1456 3250 1038 
Q 3250 581 2869 253 
Q 2488 -75 1741 -75 
Q 1063 -75 667 200 
Q 272 475 150 947 
z
" transform="scale(0.015625)"/>
       <path id="Arial-BoldMT-6f" d="M 256 1706 
Q 256 2144 472 2553 
Q 688 2963 1083 3178 
Q 1478 3394 1966 3394 
Q 2719 3394 3200 2905 
Q 3681 2416 3681 1669 
Q 3681 916 3195 420 
Q 2709 -75 1972 -75 
Q 1516 -75 1102 131 
Q 688 338 472 736 
Q 256 1134 256 1706 
z
M 1156 1659 
Q 1156 1166 1390 903 
Q 1625 641 1969 641 
Q 2313 641 2545 903 
Q 2778 1166 2778 1666 
Q 2778 2153 2545 2415 
Q 2313 2678 1969 2678 
Q 1625 2678 1390 2415 
Q 1156 2153 1156 1659 
z
" transform="scale(0.015625)"/>
       <path id="Arial-BoldMT-6e" d="M 3478 0 
L 2600 0 
L 2600 1694 
Q 2600 2231 2544 2389 
Q 2488 2547 2361 2634 
Q 2234 2722 2056 2722 
Q 1828 2722 1647 2597 
Q 1466 2472 1398 2265 
Q 1331 2059 1331 1503 
L 1331 0 
L 453 0 
L 453 3319 
L 1269 3319 
L 1269 2831 
Q 1703 3394 2363 3394 
Q 2653 3394 2893 3289 
Q 3134 3184 3257 3021 
Q 3381 2859 3429 2653 
Q 3478 2447 3478 2063 
L 3478 0 
z
" transform="scale(0.015625)"/>
      </defs>
      <use xlink:href="#Arial-BoldMT-50"/>
      <use xlink:href="#Arial-BoldMT-72" transform="translate(66.699219 0)"/>
      <use xlink:href="#Arial-BoldMT-65" transform="translate(105.615234 0)"/>
      <use xlink:href="#Arial-BoldMT-63" transform="translate(161.230469 0)"/>
      <use xlink:href="#Arial-BoldMT-69" transform="translate(216.845703 0)"/>
      <use xlink:href="#Arial-BoldMT-73" transform="translate(244.628906 0)"/>
      <use xlink:href="#Arial-BoldMT-69" transform="translate(300.244141 0)"/>
      <use xlink:href="#Arial-BoldMT-6f" transform="translate(328.027344 0)"/>
      <use xlink:href="#Arial-BoldMT-6e" transform="translate(389.111328 0)"/>
      <use xlink:href="#Arial-BoldMT-20" transform="translate(450.195312 0)"/>
      <use xlink:href="#Arial-BoldMT-5b" transform="translate(477.978516 0)"/>
      <use xlink:href="#Arial-BoldMT-54" transform="translate(511.279297 0)"/>
      <use xlink:href="#Arial-BoldMT-50" transform="translate(572.363281 0)"/>
      <use xlink:href="#Arial-BoldMT-20" transform="translate(637.3125 0)"/>
      <use xlink:href="#Arial-BoldMT-2f" transform="translate(665.095703 0)"/>
      <use xlink:href="#Arial-BoldMT-20" transform="translate(692.878906 0)"/>
      <use xlink:href="#Arial-BoldMT-28" transform="translate(720.662109 0)"/>
      <use xlink:href="#Arial-BoldMT-54" transform="translate(753.962891 0)"/>
      <use xlink:href="#Arial-BoldMT-50" transform="translate(815.046875 0)"/>
      <use xlink:href="#Arial-BoldMT-20" transform="translate(879.996094 0)"/>
      <use xlink:href="#Arial-BoldMT-2b" transform="translate(907.779297 0)"/>
      <use xlink:href="#Arial-BoldMT-20" transform="translate(966.177734 0)"/>
      <use xlink:href="#Arial-BoldMT-46" transform="translate(993.960938 0)"/>
      <use xlink:href="#Arial-BoldMT-50" transform="translate(1055.044922 0)"/>
      <use xlink:href="#Arial-BoldMT-29" transform="translate(1121.744141 0)"/>
      <use xlink:href="#Arial-BoldMT-5d" transform="translate(1155.044922 0)"/>
     </g>
    </g>
   </g>
   <g id="line2d_25">
    <path d="M 42.831699 265.022801 
L 42.941969 243.575967 
L 42.944581 243.486791 
L 43.054969 233.365312 
L 43.058128 233.276135 
L 43.167186 225.294881 
L 43.170986 225.205705 
L 43.28021 220.122671 
L 43.285102 220.033495 
L 43.395823 215.44093 
L 43.399338 215.351754 
L 43.509987 211.606361 
L 43.517848 211.517185 
L 43.628307 207.860968 
L 43.634364 207.771792 
L 43.744087 205.676155 
L 43.7519 205.586979 
L 43.862906 202.599582 
L 43.863713 202.510406 
L 43.971465 199.879713 
L 43.977972 199.790537 
L 44.082874 198.007017 
L 44.099831 197.917841 
L 44.210718 196.089732 
L 44.214281 196.000556 
L 44.319159 194.529152 
L 44.333171 194.439976 
L 44.442467 192.879395 
L 44.454484 192.790219 
L 44.561713 191.407991 
L 44.578053 191.318815 
L 44.686636 189.535294 
L 44.700719 189.446118 
L 44.811179 187.439657 
L 44.836139 187.350481 
L 44.941825 185.477785 
L 44.953937 185.388609 
L 45.058982 184.00638 
L 45.077791 183.917204 
L 45.186659 182.579564 
L 45.199437 182.490388 
L 45.31049 181.375688 
L 45.318873 181.286511 
L 45.428929 179.993459 
L 45.44952 179.904283 
L 45.558388 178.343703 
L 45.598762 178.254527 
L 45.707891 177.139826 
L 45.71637 177.05065 
L 45.826972 176.025126 
L 45.834381 175.93595 
L 45.938096 174.687485 
L 45.961347 174.598309 
L 46.071046 173.349845 
L 46.0724 173.349845 
L 46.094107 173.260669 
L 46.204994 172.056793 
L 46.207725 171.967617 
L 46.292273 171.43256 
L 46.32918 171.343384 
L 46.439473 170.31786 
L 46.462154 170.228684 
L 46.569882 168.935632 
L 46.588335 168.846456 
L 46.697963 167.330463 
L 46.713282 167.241287 
L 46.810869 165.769883 
L 46.839606 165.680707 
L 46.945149 164.967298 
L 46.96745 164.878122 
L 47.062448 163.941774 
L 47.103084 163.852598 
L 47.20599 162.960838 
L 47.213282 162.960838 
L 47.230334 162.871662 
L 47.338014 161.935314 
L 47.347585 161.846138 
L 47.456976 160.998965 
L 47.48424 160.909789 
L 47.587052 160.463909 
L 47.604865 160.374733 
L 47.70751 159.839677 
L 47.720145 159.750501 
L 47.815927 158.903329 
L 47.838513 158.814153 
L 47.944792 157.877804 
L 47.962889 157.788628 
L 48.071092 157.030632 
L 48.104864 156.941456 
L 48.213804 156.317224 
L 48.233088 156.228048 
L 48.343904 155.559228 
L 48.383756 155.470052 
L 48.494381 154.890407 
L 48.523474 154.801231 
L 48.633625 153.508179 
L 48.655356 153.419003 
L 48.754653 152.928535 
L 48.759925 152.928535 
L 48.779993 152.839359 
L 48.890476 151.858422 
L 48.92508 151.769246 
L 49.032356 151.145014 
L 49.050572 151.055838 
L 49.157303 150.609958 
L 49.19459 150.520782 
L 49.294457 149.985726 
L 49.328015 149.89655 
L 49.424866 149.049378 
L 49.455455 148.960202 
L 49.558884 148.068441 
L 49.592514 147.979265 
L 49.695349 147.087505 
L 49.744179 146.998329 
L 49.840578 146.418685 
L 49.881831 146.329509 
L 49.983455 145.749865 
L 49.990367 145.749865 
L 50.011147 145.660689 
L 50.097738 145.125632 
L 50.125407 145.036456 
L 50.227981 144.367636 
L 50.228385 144.367636 
L 50.251398 144.27846 
L 50.361145 143.787992 
L 50.374492 143.698816 
L 50.484191 142.896232 
L 50.504355 142.807056 
L 50.61194 142.093647 
L 50.650272 142.004471 
L 50.755317 141.380239 
L 50.791772 141.291063 
L 50.872236 140.800595 
L 50.895178 140.800595 
L 50.917407 140.711419 
L 51.025064 139.953423 
L 51.05886 139.864247 
L 51.149488 139.507543 
L 51.182809 139.418367 
L 51.281013 138.927898 
L 51.288471 138.927898 
L 51.323074 138.838722 
L 51.433034 138.080726 
L 51.464289 137.99155 
L 51.574558 137.634846 
L 51.646115 137.54567 
L 51.745816 136.87685 
L 51.778591 136.787674 
L 51.859434 136.118854 
L 51.902397 136.029678 
L 52.001029 135.762149 
L 52.032925 135.672973 
L 52.141745 135.093329 
L 52.143455 135.093329 
L 52.181478 135.004153 
L 52.292484 134.290745 
L 52.338083 134.201569 
L 52.444861 133.889453 
L 52.520551 133.800277 
L 52.627852 133.220633 
L 52.671337 133.131457 
L 52.764317 132.640989 
L 52.808776 132.551813 
L 52.917525 132.016756 
L 52.954479 131.92758 
L 53.054631 131.392524 
L 53.07185 131.303348 
L 53.17744 130.946644 
L 53.224132 130.857468 
L 53.301152 130.456176 
L 53.422417 130.367 
L 53.4992 130.010296 
L 53.594887 129.92112 
L 53.626284 129.609004 
L 53.636686 129.609004 
L 53.730734 129.519828 
L 53.825257 129.163123 
L 53.837251 129.163123 
L 53.869099 129.073947 
L 53.975497 128.717243 
L 53.976281 128.717243 
L 54.017297 128.628067 
L 54.124526 128.137599 
L 54.164734 128.048423 
L 54.223609 127.647131 
L 54.266026 127.647131 
L 54.33357 127.557955 
L 54.434292 127.245839 
L 54.459727 127.156663 
L 54.539407 126.666195 
L 54.592179 126.577019 
L 54.688269 126.175727 
L 54.723371 126.086551 
L 54.815116 125.729846 
L 54.866367 125.64067 
L 54.939611 125.239378 
L 54.974404 125.239378 
L 55.000173 125.150202 
L 55.099707 124.793498 
L 55.191784 124.704322 
L 55.297826 124.30303 
L 55.330244 124.213854 
L 55.423841 123.990914 
L 55.482218 123.901738 
L 55.588829 123.41127 
L 55.608019 123.322094 
L 55.717647 123.143742 
L 55.744793 123.054566 
L 55.844517 122.653273 
L 55.871093 122.564097 
L 55.973454 121.984453 
L 55.975948 121.984453 
L 55.995208 121.895277 
L 56.101345 121.493985 
L 56.187936 121.404809 
L 56.295118 121.003517 
L 56.321718 120.914341 
L 56.407715 120.423873 
L 56.470556 120.334697 
L 56.573012 119.977993 
L 56.612127 119.933405 
L 56.713324 119.665877 
L 56.763887 119.576701 
L 56.865155 119.219996 
L 56.903202 119.13082 
L 57.00504 118.774116 
L 57.057099 118.68494 
L 57.158985 118.328236 
L 57.195868 118.23906 
L 57.293574 117.614828 
L 57.326538 117.525652 
L 57.425503 117.213536 
L 57.506916 117.12436 
L 57.614074 116.723068 
L 57.779205 116.633892 
L 57.883561 116.277187 
L 57.964048 116.188011 
L 58.067715 115.608367 
L 58.070066 115.608367 
L 58.127635 115.519191 
L 58.237192 115.207075 
L 58.278302 115.117899 
L 58.368313 114.850371 
L 58.415789 114.761195 
L 58.513209 114.404491 
L 58.581062 114.315315 
L 58.671334 114.047787 
L 58.689835 114.047787 
L 58.797848 113.958611 
L 58.906858 113.468143 
L 58.969842 113.378967 
L 59.041305 113.200615 
L 59.067833 113.200615 
L 59.113123 113.111439 
L 59.194466 112.710146 
L 59.293383 112.62097 
L 59.403462 112.353442 
L 59.426808 112.264266 
L 59.519099 111.907562 
L 59.561183 111.818386 
L 59.672212 111.417094 
L 59.698954 111.327918 
L 59.807205 111.104978 
L 59.854704 111.015802 
L 59.941817 110.659098 
L 60.011665 110.569922 
L 60.119084 110.079454 
L 60.121127 110.079454 
L 60.224176 109.990278 
L 60.299011 109.678161 
L 60.327819 109.678161 
L 60.373941 109.588985 
L 60.391705 109.410633 
L 60.472549 109.410633 
L 60.53976 109.321457 
L 60.62438 109.143105 
L 60.637656 109.143105 
L 60.705176 109.053929 
L 60.811693 108.697225 
L 60.88705 108.608049 
L 60.989316 108.340521 
L 60.994683 108.340521 
L 61.045436 108.251345 
L 61.154352 107.939229 
L 61.213678 107.850053 
L 61.300554 107.671701 
L 61.371399 107.582525 
L 61.48212 107.225821 
L 61.493994 107.136645 
L 61.597115 106.913705 
L 61.662688 106.824529 
L 61.765951 106.601589 
L 61.805066 106.512412 
L 61.902629 106.33406 
L 61.903698 106.33406 
L 62.034297 106.244884 
L 62.144685 106.11112 
L 62.212324 106.021944 
L 62.31326 105.66524 
L 62.424883 105.576064 
L 62.496416 105.397712 
L 62.587472 105.308536 
L 62.685249 105.085596 
L 62.743246 104.99642 
L 62.785924 104.862656 
L 62.812666 104.862656 
L 62.892725 104.77348 
L 62.974305 104.505952 
L 62.986061 104.505952 
L 63.142048 104.416776 
L 63.241512 103.88172 
L 63.248755 103.88172 
L 63.331641 103.792544 
L 63.436282 103.480428 
L 63.478224 103.391252 
L 63.550066 103.168311 
L 63.600748 103.079135 
L 63.691899 102.900783 
L 63.700543 102.900783 
L 63.790032 102.811607 
L 63.855082 102.677843 
L 63.892392 102.677843 
L 63.989599 102.588667 
L 64.096211 102.276551 
L 64.197931 102.187375 
L 64.30706 101.786083 
L 64.3533 101.696907 
L 64.457418 101.473967 
L 64.699474 101.384791 
L 64.802951 101.161851 
L 64.809292 101.161851 
L 64.860116 101.072675 
L 64.957086 100.715971 
L 64.980479 100.626795 
L 65.079206 100.314679 
L 65.11635 100.225503 
L 65.206266 99.913386 
L 65.285637 99.82421 
L 65.372703 99.60127 
L 65.423219 99.512094 
L 65.517504 99.199978 
L 65.520687 99.199978 
L 65.611339 99.110802 
L 65.714792 98.798686 
L 65.812664 98.70951 
L 65.854155 98.620334 
L 65.911557 98.620334 
L 66.072271 98.531158 
L 66.182682 98.174454 
L 66.265497 98.085278 
L 66.339596 97.862338 
L 66.348502 97.862338 
L 66.412721 97.773162 
L 66.510569 97.59481 
L 66.569777 97.505634 
L 66.670736 97.193518 
L 66.769558 97.104342 
L 66.87883 96.836814 
L 66.893293 96.747637 
L 66.971691 96.524697 
L 66.972142 96.524697 
L 67.138769 96.435521 
L 67.201967 96.257169 
L 67.208545 96.257169 
L 67.320572 96.167993 
L 67.399088 95.632937 
L 67.43115 95.632937 
L 67.452335 95.543761 
L 67.477058 95.454585 
L 67.535981 95.454585 
L 67.652615 95.365409 
L 67.734859 95.187057 
L 67.750914 95.187057 
L 67.79516 95.097881 
L 67.886952 94.696589 
L 67.902436 94.696589 
L 68.04586 94.607413 
L 68.155892 94.384473 
L 68.186529 94.295297 
L 68.28452 94.072357 
L 68.289934 94.072357 
L 68.310905 93.983181 
L 68.418491 93.804829 
L 68.504298 93.715653 
L 68.601339 93.537301 
L 68.65354 93.448124 
L 68.746496 93.31436 
L 68.764332 93.31436 
L 68.864033 93.225184 
L 68.972355 92.913068 
L 69.077043 92.823892 
L 69.145679 92.556364 
L 69.184937 92.556364 
L 69.285897 92.467188 
L 69.387402 92.244248 
L 69.395905 92.244248 
L 69.468792 92.155072 
L 69.566023 92.021308 
L 69.711988 91.932132 
L 69.772098 91.664604 
L 69.811427 91.664604 
L 69.846909 91.575428 
L 69.939841 91.3079 
L 69.944828 91.3079 
L 70.05752 91.218724 
L 70.168074 91.040372 
L 70.267704 90.951196 
L 70.349331 90.683668 
L 70.370753 90.683668 
L 70.412434 90.594492 
L 70.519402 90.371552 
L 70.523415 90.371552 
L 70.735167 90.282375 
L 70.821853 90.059435 
L 71.012229 89.970259 
L 71.103523 89.702731 
L 71.113545 89.702731 
L 71.225975 89.613555 
L 71.287914 89.390615 
L 71.336102 89.390615 
L 71.394811 89.301439 
L 71.471807 89.123087 
L 71.674058 89.033911 
L 71.697737 88.900147 
L 71.784779 88.900147 
L 71.850827 88.810971 
L 71.937204 88.588031 
L 72.015269 88.498855 
L 72.114779 88.275915 
L 72.120717 88.275915 
L 72.148361 88.186739 
L 72.235641 88.052975 
L 72.249653 88.052975 
L 72.343274 87.963799 
L 72.368258 87.874623 
L 72.446846 87.874623 
L 72.472305 87.785447 
L 72.481473 87.696271 
L 72.573906 87.696271 
L 72.604543 87.607095 
L 72.663109 87.384155 
L 72.707996 87.384155 
L 72.876333 87.294979 
L 72.876333 87.250391 
L 72.974585 87.250391 
L 73.108556 87.161215 
L 73.216166 86.938274 
L 73.380774 86.849098 
L 73.448698 86.670746 
L 73.45587 86.670746 
L 73.712223 86.58157 
L 73.752407 86.314042 
L 73.817742 86.314042 
L 74.036975 86.224866 
L 74.036975 86.180278 
L 74.122592 86.180278 
L 74.400082 86.091102 
L 74.506029 85.91275 
L 74.540656 85.823574 
L 74.636295 85.68981 
L 74.649832 85.68981 
L 74.932049 85.600634 
L 74.995745 85.511458 
L 75.030609 85.511458 
L 75.101312 85.422282 
L 75.13696 85.333106 
L 75.182155 85.333106 
L 75.449908 85.24393 
L 75.548635 85.065578 
L 75.5493 85.065578 
L 75.634157 84.976402 
L 75.716093 84.887226 
L 75.738157 84.887226 
L 75.807529 84.79805 
L 75.914521 84.664286 
L 75.994129 84.57511 
L 76.095398 84.35217 
L 76.131734 84.262994 
L 76.138456 84.173818 
L 76.224833 84.173818 
L 76.479998 84.084642 
L 76.552767 83.950878 
L 76.569843 83.950878 
L 76.766299 83.861702 
L 76.866997 83.683349 
L 77.02384 83.594173 
L 77.111666 83.504997 
L 77.12183 83.504997 
L 77.16629 83.415821 
L 77.192747 83.282057 
L 77.275229 83.282057 
L 77.367092 83.192881 
L 77.423711 83.014529 
L 77.464917 83.014529 
L 77.686548 82.925353 
L 77.789716 82.791589 
L 77.79202 82.791589 
L 77.871628 82.702413 
L 77.961615 82.524061 
L 78.10872 82.434885 
L 78.203077 82.256533 
L 78.216401 82.256533 
L 78.339518 82.167357 
L 78.406753 81.989005 
L 78.446415 81.989005 
L 78.612092 81.899829 
L 78.654272 81.676889 
L 78.704003 81.676889 
L 78.8902 81.587713 
L 78.8902 81.543125 
L 78.979023 81.543125 
L 79.070507 81.453949 
L 79.13026 81.275597 
L 79.136625 81.275597 
L 79.342748 81.186421 
L 79.383573 81.097245 
L 79.441784 81.097245 
L 79.616129 81.008069 
L 79.616129 80.963481 
L 79.70215 80.963481 
L 79.767913 80.874305 
L 79.84593 80.785129 
L 79.870962 80.785129 
L 79.934991 80.695953 
L 80.020513 80.5176 
L 80.045806 80.5176 
L 80.07813 80.428424 
L 80.117198 80.250072 
L 80.148286 80.250072 
L 80.375759 80.160896 
L 80.48477 79.937956 
L 80.485102 79.937956 
L 80.527947 79.84878 
L 80.622612 79.670428 
L 80.765323 79.581252 
L 80.848993 79.4029 
L 80.865832 79.4029 
L 80.965889 79.313724 
L 81.025975 79.135372 
L 81.066943 79.135372 
L 81.21989 79.046196 
L 81.317762 78.912432 
L 81.408272 78.823256 
L 81.501133 78.73408 
L 81.513981 78.73408 
L 81.667783 78.644904 
L 81.771949 78.421964 
L 81.846713 78.332788 
L 81.94582 78.109848 
L 82.145055 78.020672 
L 82.162273 77.931496 
L 82.199631 77.931496 
L 82.339825 77.84232 
L 82.368918 77.753144 
L 82.4253 77.753144 
L 82.658378 77.663968 
L 82.732263 77.530204 
L 82.765061 77.530204 
L 82.844979 77.441028 
L 82.893998 77.307264 
L 82.899294 77.307264 
L 83.120854 77.218087 
L 83.205283 76.905971 
L 83.410028 76.816795 
L 83.469212 76.727619 
L 83.50467 76.727619 
L 83.593589 76.638443 
L 83.696139 76.415503 
L 83.701578 76.415503 
L 83.770238 76.326327 
L 83.845572 76.147975 
L 83.878417 76.147975 
L 83.92651 76.058799 
L 84.030343 75.835859 
L 84.310778 75.746683 
L 84.418103 75.568331 
L 84.541339 75.479155 
L 84.541339 75.434567 
L 84.64332 75.434567 
L 84.746488 75.345391 
L 84.824838 75.122451 
L 84.849751 75.122451 
L 85.055422 75.033275 
L 85.121898 74.944099 
L 85.161156 74.944099 
L 85.247556 74.854923 
L 85.355118 74.721159 
L 85.35538 74.721159 
L 85.768717 74.631983 
L 85.838493 74.542807 
L 85.866803 74.542807 
L 85.950093 74.453631 
L 86.009277 74.319867 
L 86.031815 74.319867 
L 86.104512 74.230691 
L 86.172721 74.096927 
L 86.183005 74.096927 
L 86.378274 74.00775 
L 86.378274 73.963162 
L 86.466907 73.963162 
L 86.660015 73.873986 
L 86.727416 73.740222 
L 86.849156 73.651046 
L 86.865377 73.56187 
L 86.955697 73.56187 
L 87.029796 73.472694 
L 87.096793 73.294342 
L 87.116767 73.294342 
L 87.46351 73.205166 
L 87.570383 73.071402 
L 87.573162 73.071402 
L 87.718913 72.982226 
L 87.733163 72.89305 
L 87.827924 72.89305 
L 88.055587 72.803874 
L 88.162128 72.67011 
L 88.230408 72.580934 
L 88.340297 72.491758 
L 88.471561 72.402582 
L 88.478971 72.313406 
L 88.527254 72.313406 
L 88.687872 72.22423 
L 88.790328 71.912114 
L 89.073423 71.822938 
L 89.124199 71.733762 
L 89.156404 71.733762 
L 89.381407 71.644586 
L 89.447146 71.55541 
L 89.481749 71.55541 
L 89.545517 71.466234 
L 89.545517 71.421646 
L 89.602136 71.421646 
L 89.805028 71.33247 
L 89.888864 71.243294 
L 89.89169 71.243294 
L 90.097789 71.154118 
L 90.1256 71.020354 
L 90.196967 71.020354 
L 90.565181 70.931178 
L 90.629946 70.797414 
L 90.631086 70.797414 
L 91.306642 70.708237 
L 91.414584 70.574473 
L 91.5705 70.485297 
L 91.672528 70.306945 
L 91.853524 70.217769 
L 91.915439 70.084005 
L 92.077767 69.994829 
L 92.113582 69.905653 
L 92.163266 69.905653 
L 92.325024 69.816477 
L 92.417909 69.638125 
L 92.653314 69.548949 
L 92.75634 69.415185 
L 92.918977 69.326009 
L 92.918977 69.281421 
L 93.01445 69.281421 
L 93.175306 69.192245 
L 93.285955 69.103069 
L 93.502718 69.013893 
L 93.571449 68.835541 
L 93.707724 68.746365 
L 93.713186 68.657189 
L 93.800181 68.657189 
L 93.966594 68.568013 
L 94.064989 68.389661 
L 94.274294 68.300485 
L 94.340935 68.166721 
L 94.356301 68.166721 
L 95.024662 68.077545 
L 95.069715 67.943781 
L 95.078811 67.943781 
L 95.264129 67.854605 
L 95.329487 67.631665 
L 95.359412 67.631665 
L 95.489559 67.542489 
L 95.557341 67.453312 
L 95.567173 67.453312 
L 95.74653 67.364136 
L 95.74653 67.319548 
L 95.857013 67.319548 
L 96.002123 67.230372 
L 96.102631 67.05202 
L 96.263891 66.962844 
L 96.263891 66.918256 
L 96.335923 66.918256 
L 96.576672 66.82908 
L 96.598095 66.739904 
L 96.674093 66.739904 
L 96.792532 66.650728 
L 96.847845 66.516964 
L 97.006991 66.427788 
L 97.038388 66.294024 
L 97.088951 66.294024 
L 97.145285 66.204848 
L 97.145285 66.16026 
L 97.177632 66.16026 
L 97.455953 66.071084 
L 97.455953 66.026496 
L 97.558527 66.026496 
L 97.705775 65.93732 
L 97.749498 65.848144 
L 97.787853 65.848144 
L 97.903157 65.758968 
L 97.96892 65.536028 
L 98.006563 65.536028 
L 98.559144 65.446852 
L 98.633789 65.357676 
L 98.912229 65.2685 
L 98.946286 65.179324 
L 98.980675 65.179324 
L 99.312243 65.090148 
L 99.417359 64.911796 
L 99.585363 64.82262 
L 99.612746 64.688856 
L 99.687083 64.688856 
L 99.945312 64.59968 
L 99.955904 64.510504 
L 100.056293 64.510504 
L 100.240566 64.421328 
L 100.33984 64.198387 
L 100.748879 64.109211 
L 100.792008 63.975447 
L 100.842024 63.975447 
L 100.95379 63.886271 
L 100.95379 63.841683 
L 101.008651 63.841683 
L 101.44961 63.752507 
L 101.559998 63.574155 
L 101.989722 63.484979 
L 102.04361 63.306627 
L 102.081372 63.306627 
L 102.591537 63.217451 
L 102.613125 63.083687 
L 102.618754 63.083687 
L 103.272104 62.994511 
L 103.272104 62.949923 
L 103.332808 62.949923 
L 103.531758 62.860747 
L 103.540664 62.771571 
L 103.620344 62.771571 
L 103.944265 62.682395 
L 103.944265 62.637807 
L 104.041733 62.637807 
L 104.318653 62.548631 
L 104.405933 62.370279 
L 104.588567 62.281103 
L 104.658818 62.191927 
L 104.806778 62.102751 
L 104.811528 62.013575 
L 104.884297 62.013575 
L 105.065292 61.924399 
L 105.160623 61.790635 
L 105.34302 61.701459 
L 105.34302 61.656871 
L 105.429563 61.656871 
L 105.561563 61.567695 
L 105.641599 61.478519 
L 105.652524 61.478519 
L 106.104953 61.389343 
L 106.199263 61.210991 
L 106.905314 61.121815 
L 106.975351 61.032639 
L 107.073366 60.943462 
L 107.16473 60.76511 
L 107.356461 60.675934 
L 107.356461 60.631346 
L 107.565006 60.54217 
L 107.565006 60.497582 
L 107.653805 60.497582 
L 107.975161 60.408406 
L 108.082034 60.230054 
L 108.43937 60.140878 
L 108.468938 60.007114 
L 108.737285 59.917938 
L 108.737285 59.87335 
L 108.847364 59.87335 
L 109.05826 59.784174 
L 109.136871 59.65041 
L 109.168553 59.65041 
L 109.392915 59.561234 
L 109.490194 59.382882 
L 109.62103 59.293706 
L 109.69919 59.159942 
L 109.722512 59.159942 
L 110.197717 59.070766 
L 110.20052 58.98159 
L 110.308556 58.98159 
L 110.541278 58.892414 
L 110.541278 58.847826 
L 110.7023 58.75865 
L 110.7023 58.714062 
L 110.74486 58.714062 
L 111.219709 58.624886 
L 111.27457 58.53571 
L 111.279463 58.53571 
L 111.808983 58.446534 
L 111.808983 58.401946 
L 111.858976 58.401946 
L 112.082269 58.31277 
L 112.185438 58.179006 
L 112.19147 58.179006 
L 112.264167 58.08983 
L 112.363726 57.86689 
L 112.368119 57.86689 
L 112.570561 57.777714 
L 112.570561 57.733125 
L 112.670855 57.733125 
L 113.049091 57.643949 
L 113.057712 57.554773 
L 113.109367 57.554773 
L 113.487152 57.465597 
L 113.562295 57.376421 
L 114.134209 57.287245 
L 114.134209 57.242657 
L 114.187241 57.242657 
L 114.521184 57.153481 
L 114.577637 56.975129 
L 114.592742 56.975129 
L 114.881869 56.885953 
L 114.935472 56.663013 
L 114.969362 56.663013 
L 115.329287 56.573837 
L 115.329287 56.529249 
L 115.380681 56.529249 
L 115.738801 56.440073 
L 115.831306 56.306309 
L 115.847313 56.306309 
L 116.263999 56.217133 
L 116.279935 56.127957 
L 116.28117 56.127957 
L 116.61326 56.038781 
L 116.62276 55.949605 
L 116.676339 55.949605 
L 117.664654 55.860429 
L 117.750034 55.726665 
L 118.308718 55.637489 
L 118.387021 55.414549 
L 118.608913 55.325373 
L 118.667479 55.191609 
L 118.683463 55.191609 
L 119.095138 55.102433 
L 119.193628 54.968669 
L 119.522678 54.879493 
L 119.547211 54.790317 
L 119.967887 54.701141 
L 119.967887 54.656553 
L 120.357357 54.567377 
L 120.357357 54.522788 
L 120.393432 54.522788 
L 120.820806 54.433612 
L 120.887281 54.299848 
L 121.392767 54.210672 
L 121.396923 54.121496 
L 122.051817 54.03232 
L 122.051817 53.987732 
L 122.15736 53.987732 
L 122.605087 53.898556 
L 122.683318 53.80938 
L 122.688615 53.80938 
L 123.146388 53.720204 
L 123.167691 53.631028 
L 124.299239 53.541852 
L 124.390818 53.452676 
L 124.72913 53.3635 
L 124.72913 53.318912 
L 125.206948 53.229736 
L 125.206948 53.185148 
L 125.279788 53.185148 
L 125.532792 53.095972 
L 125.532792 53.051384 
L 125.616343 53.051384 
L 125.904497 52.962208 
L 125.956627 52.783856 
L 125.994246 52.783856 
L 126.632659 52.69468 
L 126.712125 52.605504 
L 126.722574 52.605504 
L 127.056541 52.516328 
L 127.056541 52.47174 
L 127.155577 52.47174 
L 127.496027 52.382564 
L 127.541317 52.2488 
L 127.570268 52.2488 
L 127.773992 52.159624 
L 127.773992 52.115036 
L 127.862958 52.115036 
L 128.057158 52.02586 
L 128.131114 51.936684 
L 128.361865 51.847508 
L 128.431807 51.758332 
L 128.881957 51.669156 
L 128.93157 51.57998 
L 128.982536 51.57998 
L 129.336476 51.490804 
L 129.336476 51.446216 
L 129.359489 51.446216 
L 129.673957 51.35704 
L 129.718369 51.267863 
L 129.990064 51.178687 
L 130.04343 51.044923 
L 130.053571 51.044923 
L 130.341962 50.955747 
L 130.341962 50.911159 
L 130.41093 50.911159 
L 131.196091 50.821983 
L 131.213761 50.732807 
L 131.295816 50.732807 
L 131.961991 50.643631 
L 131.967097 50.554455 
L 132.020605 50.554455 
L 132.43342 50.465279 
L 132.508659 50.376103 
L 132.719365 50.286927 
L 132.719365 50.242339 
L 132.806645 50.242339 
L 133.02222 50.153163 
L 133.11565 50.063987 
L 133.11793 50.063987 
L 133.402569 49.974811 
L 133.402569 49.930223 
L 133.503861 49.930223 
L 133.887084 49.841047 
L 133.907319 49.751871 
L 133.944701 49.751871 
L 134.505357 49.662695 
L 134.611185 49.528931 
L 134.846092 49.439755 
L 134.907247 49.350579 
L 134.951445 49.350579 
L 135.276838 49.261403 
L 135.349868 49.127639 
L 135.717559 49.038463 
L 135.787929 48.949287 
L 136.133295 48.860111 
L 136.187848 48.770935 
L 136.403518 48.681759 
L 136.403518 48.637171 
L 136.472771 48.637171 
L 137.635455 48.547995 
L 137.635455 48.503407 
L 137.741355 48.503407 
L 138.295361 48.414231 
L 138.394373 48.325055 
L 138.405678 48.325055 
L 138.629042 48.235879 
L 138.629042 48.191291 
L 138.720953 48.191291 
L 139.119875 48.102115 
L 139.226439 48.012938 
L 139.544422 47.923762 
L 139.544422 47.879174 
L 139.601231 47.879174 
L 140.41083 47.789998 
L 140.41083 47.74541 
L 141.552472 47.656234 
L 141.603724 47.52247 
L 141.909713 47.433294 
L 141.909713 47.388706 
L 141.938997 47.388706 
L 142.430708 47.29953 
L 142.50445 47.210354 
L 142.900807 47.121178 
L 142.969111 46.987414 
L 143.308421 46.898238 
L 143.40539 46.764474 
L 143.745983 46.675298 
L 143.745983 46.63071 
L 143.776976 46.63071 
L 144.040454 46.541534 
L 144.040454 46.496946 
L 144.148562 46.496946 
L 144.587549 46.40777 
L 144.656684 46.318594 
L 145.321553 46.229418 
L 145.382898 46.140242 
L 145.413464 46.140242 
L 145.752869 46.051066 
L 145.752869 46.006478 
L 145.856821 46.006478 
L 146.00623 45.917302 
L 146.00623 45.872714 
L 146.116855 45.872714 
L 146.466021 45.783538 
L 146.466021 45.73895 
L 147.02473 45.649774 
L 147.120583 45.560598 
L 147.815401 45.471422 
L 147.815401 45.426834 
L 147.818108 45.426834 
L 148.433175 45.337658 
L 148.481505 45.248482 
L 148.536081 45.248482 
L 149.055983 45.159306 
L 149.055983 45.114718 
L 149.166728 45.114718 
L 149.854681 45.025542 
L 149.854681 44.980954 
L 149.898737 44.980954 
L 150.581537 44.891778 
L 150.581537 44.84719 
L 150.680739 44.84719 
L 151.229473 44.758013 
L 151.229473 44.713425 
L 151.27037 44.713425 
L 151.551755 44.624249 
L 151.626495 44.535073 
L 152.526152 44.445897 
L 152.526152 44.401309 
L 152.541613 44.401309 
L 153.233652 44.312133 
L 153.233652 44.267545 
L 153.328341 44.267545 
L 153.845085 44.178369 
L 153.845085 44.133781 
L 154.504301 44.044605 
L 154.504301 44.000017 
L 154.567784 44.000017 
L 155.168078 43.910841 
L 155.168078 43.866253 
L 155.236026 43.866253 
L 156.610034 43.777077 
L 156.610034 43.732489 
L 156.638201 43.732489 
L 157.302809 43.643313 
L 157.371801 43.554137 
L 157.386146 43.554137 
L 157.938703 43.464961 
L 157.938703 43.420373 
L 158.002376 43.420373 
L 158.550682 43.331197 
L 158.550682 43.286609 
L 158.661189 43.286609 
L 159.896571 43.197433 
L 159.896571 43.152845 
L 159.966774 43.152845 
L 160.526291 43.063669 
L 160.562295 42.929905 
L 160.575832 42.929905 
L 160.870493 42.840729 
L 160.929582 42.751553 
L 161.560038 42.662377 
L 161.560038 42.617789 
L 161.631548 42.617789 
L 162.181897 42.528613 
L 162.181897 42.484025 
L 162.197358 42.484025 
L 162.56702 42.394849 
L 162.56702 42.350261 
L 163.249155 42.261085 
L 163.249155 42.216497 
L 163.360232 42.216497 
L 163.725619 42.127321 
L 163.725619 42.082733 
L 163.734953 42.082733 
L 164.386451 41.993557 
L 164.386451 41.948969 
L 164.43281 41.948969 
L 164.768914 41.859793 
L 164.825414 41.770617 
L 164.828051 41.770617 
L 165.813373 41.681441 
L 165.920341 41.503088 
L 167.147529 41.413912 
L 167.223266 41.324736 
L 167.530419 41.23556 
L 167.530419 41.190972 
L 167.58673 41.190972 
L 167.874408 41.101796 
L 167.874408 41.057208 
L 167.926016 41.057208 
L 168.992538 40.968032 
L 168.992538 40.923444 
L 169.098722 40.923444 
L 169.534408 40.834268 
L 169.546829 40.745092 
L 169.584829 40.745092 
L 170.582453 40.655916 
L 170.67092 40.56674 
L 170.683864 40.56674 
L 171.000398 40.477564 
L 171.000398 40.432976 
L 171.10606 40.432976 
L 172.44708 40.3438 
L 172.44708 40.299212 
L 172.545403 40.299212 
L 173.853719 40.210036 
L 173.853719 40.165448 
L 174.802515 40.076272 
L 174.802515 40.031684 
L 174.873787 40.031684 
L 175.120379 39.942508 
L 175.120379 39.89792 
L 175.179895 39.89792 
L 175.518683 39.808744 
L 175.518683 39.764156 
L 175.551101 39.764156 
L 175.757152 39.67498 
L 175.760477 39.585804 
L 175.821917 39.585804 
L 176.763968 39.496628 
L 176.763968 39.45204 
L 176.820824 39.45204 
L 177.533858 39.362864 
L 177.540817 39.273688 
L 177.614108 39.273688 
L 178.640754 39.184512 
L 178.640754 39.139924 
L 179.340654 39.050748 
L 179.340654 39.00616 
L 179.368631 39.00616 
L 179.911784 38.916984 
L 179.911784 38.872396 
L 179.999895 38.872396 
L 180.885801 38.78322 
L 180.905371 38.694044 
L 180.947051 38.694044 
L 181.330655 38.604868 
L 181.330655 38.56028 
L 181.433989 38.56028 
L 183.132653 38.471104 
L 183.132653 38.426516 
L 183.160583 38.426516 
L 183.996188 38.33734 
L 184.071664 38.158987 
L 184.081971 38.158987 
L 185.083871 38.069811 
L 185.115291 37.980635 
L 185.126216 37.980635 
L 186.127688 37.891459 
L 186.169772 37.802283 
L 186.234015 37.802283 
L 188.296618 37.713107 
L 188.296618 37.668519 
L 188.330176 37.668519 
L 188.865776 37.579343 
L 188.887816 37.490167 
L 188.953412 37.490167 
L 189.652101 37.400991 
L 189.652101 37.356403 
L 189.725392 37.356403 
L 191.077526 37.267227 
L 191.182048 37.178051 
L 191.187297 37.178051 
L 191.401993 37.088875 
L 191.401993 37.044287 
L 191.468706 37.044287 
L 192.203969 36.955111 
L 192.214703 36.865935 
L 192.301746 36.865935 
L 193.079259 36.776759 
L 193.079259 36.732171 
L 193.184208 36.732171 
L 193.701237 36.642995 
L 193.701237 36.598407 
L 193.771274 36.598407 
L 194.724226 36.509231 
L 194.724226 36.464643 
L 194.821741 36.464643 
L 195.341786 36.375467 
L 195.341786 36.330879 
L 195.44778 36.330879 
L 197.05945 36.241703 
L 197.159127 36.152527 
L 197.886743 36.063351 
L 197.886743 36.018763 
L 197.978321 36.018763 
L 198.404934 35.929587 
L 198.404934 35.884999 
L 198.507343 35.884999 
L 199.661596 35.795823 
L 199.661596 35.751235 
L 199.76626 35.751235 
L 200.422817 35.662059 
L 200.422817 35.617471 
L 200.497272 35.617471 
L 201.731228 35.528295 
L 201.731228 35.483707 
L 201.797632 35.483707 
L 202.750774 35.394531 
L 202.763218 35.305355 
L 202.830097 35.305355 
L 204.01741 35.216179 
L 204.01741 35.171591 
L 204.442099 35.082415 
L 204.442099 35.037827 
L 204.550184 35.037827 
L 204.851851 34.94865 
L 204.851851 34.904062 
L 204.953333 34.904062 
L 205.720895 34.814886 
L 205.720895 34.770298 
L 205.81188 34.770298 
L 206.761435 34.681122 
L 206.857383 34.591946 
L 208.464208 34.50277 
L 208.464208 34.458182 
L 208.56569 34.458182 
L 209.00406 34.369006 
L 209.00406 34.324418 
L 209.086352 34.324418 
L 209.708496 34.235242 
L 209.798578 34.101478 
L 209.818718 34.101478 
L 210.164725 34.012302 
L 210.164725 33.967714 
L 210.275351 33.967714 
L 211.494915 33.878538 
L 211.494915 33.83395 
L 211.597608 33.83395 
L 212.980973 33.744774 
L 212.980973 33.700186 
L 213.031963 33.700186 
L 215.614159 33.61101 
L 215.65432 33.432658 
L 215.712815 33.432658 
L 215.880986 33.343482 
L 215.880986 33.298894 
L 215.983252 33.298894 
L 216.21918 33.209718 
L 216.290761 33.120542 
L 216.314534 33.120542 
L 218.696664 33.031366 
L 218.696664 32.986778 
L 218.776961 32.986778 
L 220.427034 32.897602 
L 220.481706 32.808426 
L 220.518446 32.808426 
L 221.90915 32.71925 
L 222.006832 32.585486 
L 222.014883 32.585486 
L 222.840798 32.49631 
L 222.840798 32.451722 
L 222.950877 32.451722 
L 224.143581 32.362546 
L 224.193217 32.27337 
L 224.212787 32.27337 
L 225.861316 32.184194 
L 225.861316 32.139606 
L 225.968474 32.139606 
L 227.070692 32.05043 
L 227.104749 31.961254 
L 227.171604 31.961254 
L 228.623653 31.872078 
L 228.623653 31.82749 
L 228.725633 31.82749 
L 230.087505 31.738313 
L 230.087505 31.693725 
L 230.194901 31.693725 
L 231.179012 31.604549 
L 231.179012 31.559961 
L 231.2875 31.559961 
L 232.010959 31.470785 
L 232.010959 31.426197 
L 232.119803 31.426197 
L 233.446763 31.337021 
L 233.446763 31.292433 
L 233.547105 31.292433 
L 235.929092 31.203257 
L 235.929092 31.158669 
L 236.039932 31.158669 
L 236.258974 31.069493 
L 236.258974 31.024905 
L 236.361002 31.024905 
L 236.549122 30.935729 
L 236.549122 30.891141 
L 236.656732 30.891141 
L 236.91527 30.801965 
L 237.026038 30.712789 
L 237.389026 30.623613 
L 237.389026 30.579025 
L 237.477184 30.579025 
L 239.175588 30.489849 
L 239.175588 30.445261 
L 239.285263 30.445261 
L 241.192544 30.356085 
L 241.192544 30.311497 
L 241.295759 30.311497 
L 242.2475 30.222321 
L 242.268851 30.133145 
L 242.346393 30.133145 
L 242.92194 30.043969 
L 242.98642 29.954793 
L 243.015537 29.954793 
L 244.46495 29.865617 
L 244.46495 29.821029 
L 244.575623 29.821029 
L 245.423649 29.731853 
L 245.472288 29.642677 
L 245.533396 29.642677 
L 245.686723 29.553501 
L 245.686723 29.508913 
L 245.77861 29.508913 
L 247.612576 29.419737 
L 247.612576 29.375149 
L 247.723106 29.375149 
L 249.597042 29.285973 
L 249.628843 29.196797 
L 249.70344 29.196797 
L 252.017646 29.107621 
L 252.017646 29.063033 
L 252.125398 29.063033 
L 253.651688 28.973857 
L 253.651688 28.929269 
L 253.760889 28.929269 
L 254.204649 28.840093 
L 254.236308 28.750917 
L 254.308364 28.750917 
L 254.657506 28.661741 
L 254.765472 28.572565 
L 254.766184 28.572565 
L 256.680043 28.483388 
L 256.680043 28.4388 
L 256.784375 28.4388 
L 259.889774 28.349624 
L 259.889774 28.305036 
L 259.989 28.305036 
L 260.715618 28.21586 
L 260.789028 28.082096 
L 260.826624 28.082096 
L 262.465107 27.99292 
L 262.465107 27.948332 
L 262.573904 27.948332 
L 263.693007 27.859156 
L 263.693007 27.814568 
L 263.801448 27.814568 
L 264.719274 27.725392 
L 264.719274 27.680804 
L 264.82978 27.680804 
L 266.454109 27.591628 
L 266.454109 27.54704 
L 266.564853 27.54704 
L 269.693574 27.457864 
L 269.693574 27.413276 
L 269.804461 27.413276 
L 270.638427 27.3241 
L 270.638427 27.279512 
L 270.749005 27.279512 
L 275.797428 27.190336 
L 275.797428 27.145748 
L 275.907935 27.145748 
L 280.061141 27.056572 
L 280.172123 26.967396 
L 280.762371 26.87822 
L 280.87359 26.833632 
L 282.023758 26.789044 
L 282.023758 26.789044 
" clip-path="url(#p0794124a3c)" style="fill: none; stroke: #1f77b4; stroke-width: 1.5; stroke-linecap: round"/>
   </g>
   <g id="patch_3">
    <path d="M 35.655938 265.022801 
L 35.655938 19.642031 
" style="fill: none"/>
   </g>
   <g id="patch_4">
    <path d="M 289.19952 265.022801 
L 289.19952 19.642031 
" style="fill: none"/>
   </g>
   <g id="patch_5">
    <path d="M 35.655938 265.022801 
L 289.19952 265.022801 
" style="fill: none"/>
   </g>
   <g id="patch_6">
    <path d="M 35.655938 19.642031 
L 289.19952 19.642031 
" style="fill: none"/>
   </g>
   <g id="text_15">
    <!-- Model 1: Precision-Recall Curve -->
    <g style="fill: #333333" transform="translate(93.910307 13.642031) scale(0.09 -0.09)">
     <defs>
      <path id="Arial-BoldMT-4d" d="M 453 0 
L 453 4581 
L 1838 4581 
L 2669 1456 
L 3491 4581 
L 4878 4581 
L 4878 0 
L 4019 0 
L 4019 3606 
L 3109 0 
L 2219 0 
L 1313 3606 
L 1313 0 
L 453 0 
z
" transform="scale(0.015625)"/>
      <path id="Arial-BoldMT-64" d="M 3503 0 
L 2688 0 
L 2688 488 
Q 2484 203 2207 64 
Q 1931 -75 1650 -75 
Q 1078 -75 670 386 
Q 263 847 263 1672 
Q 263 2516 659 2955 
Q 1056 3394 1663 3394 
Q 2219 3394 2625 2931 
L 2625 4581 
L 3503 4581 
L 3503 0 
z
M 1159 1731 
Q 1159 1200 1306 963 
Q 1519 619 1900 619 
Q 2203 619 2415 876 
Q 2628 1134 2628 1647 
Q 2628 2219 2422 2470 
Q 2216 2722 1894 2722 
Q 1581 2722 1370 2473 
Q 1159 2225 1159 1731 
z
" transform="scale(0.015625)"/>
      <path id="Arial-BoldMT-31" d="M 2519 0 
L 1641 0 
L 1641 3309 
Q 1159 2859 506 2644 
L 506 3441 
Q 850 3553 1253 3867 
Q 1656 4181 1806 4600 
L 2519 4600 
L 2519 0 
z
" transform="scale(0.015625)"/>
      <path id="Arial-BoldMT-3a" d="M 628 2441 
L 628 3319 
L 1506 3319 
L 1506 2441 
L 628 2441 
z
M 628 0 
L 628 878 
L 1506 878 
L 1506 0 
L 628 0 
z
" transform="scale(0.015625)"/>
      <path id="Arial-BoldMT-2d" d="M 359 1222 
L 359 2100 
L 2084 2100 
L 2084 1222 
L 359 1222 
z
" transform="scale(0.015625)"/>
      <path id="Arial-BoldMT-43" d="M 3397 1684 
L 4294 1400 
Q 4088 650 3608 286 
Q 3128 -78 2391 -78 
Q 1478 -78 890 545 
Q 303 1169 303 2250 
Q 303 3394 893 4026 
Q 1484 4659 2447 4659 
Q 3288 4659 3813 4163 
Q 4125 3869 4281 3319 
L 3366 3100 
Q 3284 3456 3026 3662 
Q 2769 3869 2400 3869 
Q 1891 3869 1573 3503 
Q 1256 3138 1256 2319 
Q 1256 1450 1568 1081 
Q 1881 713 2381 713 
Q 2750 713 3015 947 
Q 3281 1181 3397 1684 
z
" transform="scale(0.015625)"/>
      <path id="Arial-BoldMT-75" d="M 2644 0 
L 2644 497 
Q 2463 231 2167 78 
Q 1872 -75 1544 -75 
Q 1209 -75 943 72 
Q 678 219 559 484 
Q 441 750 441 1219 
L 441 3319 
L 1319 3319 
L 1319 1794 
Q 1319 1094 1367 936 
Q 1416 778 1544 686 
Q 1672 594 1869 594 
Q 2094 594 2272 717 
Q 2450 841 2515 1023 
Q 2581 1206 2581 1919 
L 2581 3319 
L 3459 3319 
L 3459 0 
L 2644 0 
z
" transform="scale(0.015625)"/>
      <path id="Arial-BoldMT-76" d="M 1372 0 
L 34 3319 
L 956 3319 
L 1581 1625 
L 1763 1059 
Q 1834 1275 1853 1344 
Q 1897 1484 1947 1625 
L 2578 3319 
L 3481 3319 
L 2163 0 
L 1372 0 
z
" transform="scale(0.015625)"/>
     </defs>
     <use xlink:href="#Arial-BoldMT-4d"/>
     <use xlink:href="#Arial-BoldMT-6f" transform="translate(83.300781 0)"/>
     <use xlink:href="#Arial-BoldMT-64" transform="translate(144.384766 0)"/>
     <use xlink:href="#Arial-BoldMT-65" transform="translate(205.46875 0)"/>
     <use xlink:href="#Arial-BoldMT-6c" transform="translate(261.083984 0)"/>
     <use xlink:href="#Arial-BoldMT-20" transform="translate(288.867188 0)"/>
     <use xlink:href="#Arial-BoldMT-31" transform="translate(316.650391 0)"/>
     <use xlink:href="#Arial-BoldMT-3a" transform="translate(372.265625 0)"/>
     <use xlink:href="#Arial-BoldMT-20" transform="translate(405.566406 0)"/>
     <use xlink:href="#Arial-BoldMT-50" transform="translate(433.349609 0)"/>
     <use xlink:href="#Arial-BoldMT-72" transform="translate(500.048828 0)"/>
     <use xlink:href="#Arial-BoldMT-65" transform="translate(538.964844 0)"/>
     <use xlink:href="#Arial-BoldMT-63" transform="translate(594.580078 0)"/>
     <use xlink:href="#Arial-BoldMT-69" transform="translate(650.195312 0)"/>
     <use xlink:href="#Arial-BoldMT-73" transform="translate(677.978516 0)"/>
     <use xlink:href="#Arial-BoldMT-69" transform="translate(733.59375 0)"/>
     <use xlink:href="#Arial-BoldMT-6f" transform="translate(761.376953 0)"/>
     <use xlink:href="#Arial-BoldMT-6e" transform="translate(822.460938 0)"/>
     <use xlink:href="#Arial-BoldMT-2d" transform="translate(883.544922 0)"/>
     <use xlink:href="#Arial-BoldMT-52" transform="translate(916.845703 0)"/>
     <use xlink:href="#Arial-BoldMT-65" transform="translate(989.0625 0)"/>
     <use xlink:href="#Arial-BoldMT-63" transform="translate(1044.677734 0)"/>
     <use xlink:href="#Arial-BoldMT-61" transform="translate(1100.292969 0)"/>
     <use xlink:href="#Arial-BoldMT-6c" transform="translate(1155.908203 0)"/>
     <use xlink:href="#Arial-BoldMT-6c" transform="translate(1183.691406 0)"/>
     <use xlink:href="#Arial-BoldMT-20" transform="translate(1211.474609 0)"/>
     <use xlink:href="#Arial-BoldMT-43" transform="translate(1239.257812 0)"/>
     <use xlink:href="#Arial-BoldMT-75" transform="translate(1311.474609 0)"/>
     <use xlink:href="#Arial-BoldMT-72" transform="translate(1372.558594 0)"/>
     <use xlink:href="#Arial-BoldMT-76" transform="translate(1411.474609 0)"/>
     <use xlink:href="#Arial-BoldMT-65" transform="translate(1467.089844 0)"/>
    </g>
   </g>
   <g id="legend_1">
    <g id="patch_7">
     <path d="M 164.573426 260.522801 
L 282.89952 260.522801 
Q 284.69952 260.522801 284.69952 258.722801 
L 284.69952 246.89202 
Q 284.69952 245.09202 282.89952 245.09202 
L 164.573426 245.09202 
Q 162.773426 245.09202 162.773426 246.89202 
L 162.773426 258.722801 
Q 162.773426 260.522801 164.573426 260.522801 
z
" style="fill: #ffffff; opacity: 0.8; stroke: #cccccc; stroke-width: 0.75; stroke-linejoin: miter"/>
    </g>
    <g id="line2d_26">
     <path d="M 166.373426 251.984051 
L 175.373426 251.984051 
L 184.373426 251.984051 
" style="fill: none; stroke: #1f77b4; stroke-width: 1.5; stroke-linecap: round"/>
    </g>
    <g id="text_16">
     <!-- Precision-Recall curve -->
     <g style="fill: #333333" transform="translate(191.573426 255.134051) scale(0.09 -0.09)">
      <defs>
       <path id="ArialMT-50" d="M 494 0 
L 494 4581 
L 2222 4581 
Q 2678 4581 2919 4538 
Q 3256 4481 3484 4323 
Q 3713 4166 3852 3881 
Q 3991 3597 3991 3256 
Q 3991 2672 3619 2267 
Q 3247 1863 2275 1863 
L 1100 1863 
L 1100 0 
L 494 0 
z
M 1100 2403 
L 2284 2403 
Q 2872 2403 3119 2622 
Q 3366 2841 3366 3238 
Q 3366 3525 3220 3729 
Q 3075 3934 2838 4000 
Q 2684 4041 2272 4041 
L 1100 4041 
L 1100 2403 
z
" transform="scale(0.015625)"/>
       <path id="ArialMT-72" d="M 416 0 
L 416 3319 
L 922 3319 
L 922 2816 
Q 1116 3169 1280 3281 
Q 1444 3394 1641 3394 
Q 1925 3394 2219 3213 
L 2025 2691 
Q 1819 2813 1613 2813 
Q 1428 2813 1281 2702 
Q 1134 2591 1072 2394 
Q 978 2094 978 1738 
L 978 0 
L 416 0 
z
" transform="scale(0.015625)"/>
       <path id="ArialMT-65" d="M 2694 1069 
L 3275 997 
Q 3138 488 2766 206 
Q 2394 -75 1816 -75 
Q 1088 -75 661 373 
Q 234 822 234 1631 
Q 234 2469 665 2931 
Q 1097 3394 1784 3394 
Q 2450 3394 2872 2941 
Q 3294 2488 3294 1666 
Q 3294 1616 3291 1516 
L 816 1516 
Q 847 969 1125 678 
Q 1403 388 1819 388 
Q 2128 388 2347 550 
Q 2566 713 2694 1069 
z
M 847 1978 
L 2700 1978 
Q 2663 2397 2488 2606 
Q 2219 2931 1791 2931 
Q 1403 2931 1139 2672 
Q 875 2413 847 1978 
z
" transform="scale(0.015625)"/>
       <path id="ArialMT-63" d="M 2588 1216 
L 3141 1144 
Q 3050 572 2676 248 
Q 2303 -75 1759 -75 
Q 1078 -75 664 370 
Q 250 816 250 1647 
Q 250 2184 428 2587 
Q 606 2991 970 3192 
Q 1334 3394 1763 3394 
Q 2303 3394 2647 3120 
Q 2991 2847 3088 2344 
L 2541 2259 
Q 2463 2594 2264 2762 
Q 2066 2931 1784 2931 
Q 1359 2931 1093 2626 
Q 828 2322 828 1663 
Q 828 994 1084 691 
Q 1341 388 1753 388 
Q 2084 388 2306 591 
Q 2528 794 2588 1216 
z
" transform="scale(0.015625)"/>
       <path id="ArialMT-69" d="M 425 3934 
L 425 4581 
L 988 4581 
L 988 3934 
L 425 3934 
z
M 425 0 
L 425 3319 
L 988 3319 
L 988 0 
L 425 0 
z
" transform="scale(0.015625)"/>
       <path id="ArialMT-73" d="M 197 991 
L 753 1078 
Q 800 744 1014 566 
Q 1228 388 1613 388 
Q 2000 388 2187 545 
Q 2375 703 2375 916 
Q 2375 1106 2209 1216 
Q 2094 1291 1634 1406 
Q 1016 1563 777 1677 
Q 538 1791 414 1992 
Q 291 2194 291 2438 
Q 291 2659 392 2848 
Q 494 3038 669 3163 
Q 800 3259 1026 3326 
Q 1253 3394 1513 3394 
Q 1903 3394 2198 3281 
Q 2494 3169 2634 2976 
Q 2775 2784 2828 2463 
L 2278 2388 
Q 2241 2644 2061 2787 
Q 1881 2931 1553 2931 
Q 1166 2931 1000 2803 
Q 834 2675 834 2503 
Q 834 2394 903 2306 
Q 972 2216 1119 2156 
Q 1203 2125 1616 2013 
Q 2213 1853 2448 1751 
Q 2684 1650 2818 1456 
Q 2953 1263 2953 975 
Q 2953 694 2789 445 
Q 2625 197 2315 61 
Q 2006 -75 1616 -75 
Q 969 -75 630 194 
Q 291 463 197 991 
z
" transform="scale(0.015625)"/>
       <path id="ArialMT-6f" d="M 213 1659 
Q 213 2581 725 3025 
Q 1153 3394 1769 3394 
Q 2453 3394 2887 2945 
Q 3322 2497 3322 1706 
Q 3322 1066 3130 698 
Q 2938 331 2570 128 
Q 2203 -75 1769 -75 
Q 1072 -75 642 372 
Q 213 819 213 1659 
z
M 791 1659 
Q 791 1022 1069 705 
Q 1347 388 1769 388 
Q 2188 388 2466 706 
Q 2744 1025 2744 1678 
Q 2744 2294 2464 2611 
Q 2184 2928 1769 2928 
Q 1347 2928 1069 2612 
Q 791 2297 791 1659 
z
" transform="scale(0.015625)"/>
       <path id="ArialMT-6e" d="M 422 0 
L 422 3319 
L 928 3319 
L 928 2847 
Q 1294 3394 1984 3394 
Q 2284 3394 2536 3286 
Q 2788 3178 2913 3003 
Q 3038 2828 3088 2588 
Q 3119 2431 3119 2041 
L 3119 0 
L 2556 0 
L 2556 2019 
Q 2556 2363 2490 2533 
Q 2425 2703 2258 2804 
Q 2091 2906 1866 2906 
Q 1506 2906 1245 2678 
Q 984 2450 984 1813 
L 984 0 
L 422 0 
z
" transform="scale(0.015625)"/>
       <path id="ArialMT-2d" d="M 203 1375 
L 203 1941 
L 1931 1941 
L 1931 1375 
L 203 1375 
z
" transform="scale(0.015625)"/>
       <path id="ArialMT-52" d="M 503 0 
L 503 4581 
L 2534 4581 
Q 3147 4581 3465 4457 
Q 3784 4334 3975 4021 
Q 4166 3709 4166 3331 
Q 4166 2844 3850 2509 
Q 3534 2175 2875 2084 
Q 3116 1969 3241 1856 
Q 3506 1613 3744 1247 
L 4541 0 
L 3778 0 
L 3172 953 
Q 2906 1366 2734 1584 
Q 2563 1803 2427 1890 
Q 2291 1978 2150 2013 
Q 2047 2034 1813 2034 
L 1109 2034 
L 1109 0 
L 503 0 
z
M 1109 2559 
L 2413 2559 
Q 2828 2559 3062 2645 
Q 3297 2731 3419 2920 
Q 3541 3109 3541 3331 
Q 3541 3656 3305 3865 
Q 3069 4075 2559 4075 
L 1109 4075 
L 1109 2559 
z
" transform="scale(0.015625)"/>
       <path id="ArialMT-61" d="M 2588 409 
Q 2275 144 1986 34 
Q 1697 -75 1366 -75 
Q 819 -75 525 192 
Q 231 459 231 875 
Q 231 1119 342 1320 
Q 453 1522 633 1644 
Q 813 1766 1038 1828 
Q 1203 1872 1538 1913 
Q 2219 1994 2541 2106 
Q 2544 2222 2544 2253 
Q 2544 2597 2384 2738 
Q 2169 2928 1744 2928 
Q 1347 2928 1158 2789 
Q 969 2650 878 2297 
L 328 2372 
Q 403 2725 575 2942 
Q 747 3159 1072 3276 
Q 1397 3394 1825 3394 
Q 2250 3394 2515 3294 
Q 2781 3194 2906 3042 
Q 3031 2891 3081 2659 
Q 3109 2516 3109 2141 
L 3109 1391 
Q 3109 606 3145 398 
Q 3181 191 3288 0 
L 2700 0 
Q 2613 175 2588 409 
z
M 2541 1666 
Q 2234 1541 1622 1453 
Q 1275 1403 1131 1340 
Q 988 1278 909 1158 
Q 831 1038 831 891 
Q 831 666 1001 516 
Q 1172 366 1500 366 
Q 1825 366 2078 508 
Q 2331 650 2450 897 
Q 2541 1088 2541 1459 
L 2541 1666 
z
" transform="scale(0.015625)"/>
       <path id="ArialMT-6c" d="M 409 0 
L 409 4581 
L 972 4581 
L 972 0 
L 409 0 
z
" transform="scale(0.015625)"/>
       <path id="ArialMT-20" transform="scale(0.015625)"/>
       <path id="ArialMT-75" d="M 2597 0 
L 2597 488 
Q 2209 -75 1544 -75 
Q 1250 -75 995 37 
Q 741 150 617 320 
Q 494 491 444 738 
Q 409 903 409 1263 
L 409 3319 
L 972 3319 
L 972 1478 
Q 972 1038 1006 884 
Q 1059 663 1231 536 
Q 1403 409 1656 409 
Q 1909 409 2131 539 
Q 2353 669 2445 892 
Q 2538 1116 2538 1541 
L 2538 3319 
L 3100 3319 
L 3100 0 
L 2597 0 
z
" transform="scale(0.015625)"/>
       <path id="ArialMT-76" d="M 1344 0 
L 81 3319 
L 675 3319 
L 1388 1331 
Q 1503 1009 1600 663 
Q 1675 925 1809 1294 
L 2547 3319 
L 3125 3319 
L 1869 0 
L 1344 0 
z
" transform="scale(0.015625)"/>
      </defs>
      <use xlink:href="#ArialMT-50"/>
      <use xlink:href="#ArialMT-72" transform="translate(66.699219 0)"/>
      <use xlink:href="#ArialMT-65" transform="translate(100 0)"/>
      <use xlink:href="#ArialMT-63" transform="translate(155.615234 0)"/>
      <use xlink:href="#ArialMT-69" transform="translate(205.615234 0)"/>
      <use xlink:href="#ArialMT-73" transform="translate(227.832031 0)"/>
      <use xlink:href="#ArialMT-69" transform="translate(277.832031 0)"/>
      <use xlink:href="#ArialMT-6f" transform="translate(300.048828 0)"/>
      <use xlink:href="#ArialMT-6e" transform="translate(355.664062 0)"/>
      <use xlink:href="#ArialMT-2d" transform="translate(411.279297 0)"/>
      <use xlink:href="#ArialMT-52" transform="translate(444.580078 0)"/>
      <use xlink:href="#ArialMT-65" transform="translate(516.796875 0)"/>
      <use xlink:href="#ArialMT-63" transform="translate(572.412109 0)"/>
      <use xlink:href="#ArialMT-61" transform="translate(622.412109 0)"/>
      <use xlink:href="#ArialMT-6c" transform="translate(678.027344 0)"/>
      <use xlink:href="#ArialMT-6c" transform="translate(700.244141 0)"/>
      <use xlink:href="#ArialMT-20" transform="translate(722.460938 0)"/>
      <use xlink:href="#ArialMT-63" transform="translate(750.244141 0)"/>
      <use xlink:href="#ArialMT-75" transform="translate(800.244141 0)"/>
      <use xlink:href="#ArialMT-72" transform="translate(855.859375 0)"/>
      <use xlink:href="#ArialMT-76" transform="translate(889.160156 0)"/>
      <use xlink:href="#ArialMT-65" transform="translate(939.160156 0)"/>
     </g>
    </g>
   </g>
  </g>
 </g>
 <defs>
  <clipPath id="p0794124a3c">
   <rect x="35.655938" y="19.642031" width="253.543583" height="245.38077"/>
  </clipPath>
 </defs>
</svg>
