<?xml version="1.0" encoding="utf-8" standalone="no"?>
<!DOCTYPE svg PUBLIC "-//W3C//DTD SVG 1.1//EN"
  "http://www.w3.org/Graphics/SVG/1.1/DTD/svg11.dtd">
<svg xmlns:xlink="http://www.w3.org/1999/xlink" width="296.39952pt" height="296.39952pt" viewBox="0 0 296.39952 296.39952" xmlns="http://www.w3.org/2000/svg" version="1.1">
 <metadata>
  <rdf:RDF xmlns:dc="http://purl.org/dc/elements/1.1/" xmlns:cc="http://creativecommons.org/ns#" xmlns:rdf="http://www.w3.org/1999/02/22-rdf-syntax-ns#">
   <cc:Work>
    <dc:type rdf:resource="http://purl.org/dc/dcmitype/StillImage"/>
    <dc:date>2026-01-02T09:42:01.773127</dc:date>
    <dc:format>image/svg+xml</dc:format>
    <dc:creator>
     <cc:Agent>
      <dc:title>Matplotlib v3.10.8, https://matplotlib.org/</dc:title>
     </cc:Agent>
    </dc:creator>
   </cc:Work>
  </rdf:RDF>
 </metadata>
 <defs>
  <style type="text/css">*{stroke-linejoin: round; stroke-linecap: butt}</style>
 </defs>
 <g id="figure_1">
  <g id="patch_1">
   <path d="M 0 296.39952 
L 296.39952 296.39952 
L 296.39952 0 
L 0 0 
z
" style="fill: #ffffff"/>
  </g>
  <g id="axes_1">
   <g id="patch_2">
    <path d="M 35.655938 265.022801 
L 289.19952 265.022801 
L 289.19952 19.751719 
L 35.655938 19.751719 
z
" style="fill: #ffffff"/>
   </g>
   <g id="matplotlib.axis_1">
    <g id="xtick_1">
     <g id="line2d_1">
      <path d="M 42.831699 265.022801 
L 42.831699 19.751719 
" clip-path="url(#p3efb550308)" style="fill: none; stroke: #c0c0c0; stroke-width: 0.25; stroke-linecap: round"/>
     </g>
     <g id="line2d_2"/>
     <g id="text_1">
      <!-- 0.0 -->
      <g style="fill: #333333" transform="translate(36.576699 274.964832) scale(0.09 -0.09)">
       <defs>
        <path id="ArialMT-30" d="M 266 2259 
Q 266 3072 433 3567 
Q 600 4063 929 4331 
Q 1259 4600 1759 4600 
Q 2128 4600 2406 4451 
Q 2684 4303 2865 4023 
Q 3047 3744 3150 3342 
Q 3253 2941 3253 2259 
Q 3253 1453 3087 958 
Q 2922 463 2592 192 
Q 2263 -78 1759 -78 
Q 1097 -78 719 397 
Q 266 969 266 2259 
z
M 844 2259 
Q 844 1131 1108 757 
Q 1372 384 1759 384 
Q 2147 384 2411 759 
Q 2675 1134 2675 2259 
Q 2675 3391 2411 3762 
Q 2147 4134 1753 4134 
Q 1366 4134 1134 3806 
Q 844 3388 844 2259 
z
" transform="scale(0.015625)"/>
        <path id="ArialMT-2e" d="M 581 0 
L 581 641 
L 1222 641 
L 1222 0 
L 581 0 
z
" transform="scale(0.015625)"/>
       </defs>
       <use xlink:href="#ArialMT-30"/>
       <use xlink:href="#ArialMT-2e" transform="translate(55.615234 0)"/>
       <use xlink:href="#ArialMT-30" transform="translate(83.398438 0)"/>
      </g>
     </g>
    </g>
    <g id="xtick_2">
     <g id="line2d_3">
      <path d="M 90.670111 265.022801 
L 90.670111 19.751719 
" clip-path="url(#p3efb550308)" style="fill: none; stroke: #c0c0c0; stroke-width: 0.25; stroke-linecap: round"/>
     </g>
     <g id="line2d_4"/>
     <g id="text_2">
      <!-- 0.2 -->
      <g style="fill: #333333" transform="translate(84.415111 274.964832) scale(0.09 -0.09)">
       <defs>
        <path id="ArialMT-32" d="M 3222 541 
L 3222 0 
L 194 0 
Q 188 203 259 391 
Q 375 700 629 1000 
Q 884 1300 1366 1694 
Q 2113 2306 2375 2664 
Q 2638 3022 2638 3341 
Q 2638 3675 2398 3904 
Q 2159 4134 1775 4134 
Q 1369 4134 1125 3890 
Q 881 3647 878 3216 
L 300 3275 
Q 359 3922 746 4261 
Q 1134 4600 1788 4600 
Q 2447 4600 2831 4234 
Q 3216 3869 3216 3328 
Q 3216 3053 3103 2787 
Q 2991 2522 2730 2228 
Q 2469 1934 1863 1422 
Q 1356 997 1212 845 
Q 1069 694 975 541 
L 3222 541 
z
" transform="scale(0.015625)"/>
       </defs>
       <use xlink:href="#ArialMT-30"/>
       <use xlink:href="#ArialMT-2e" transform="translate(55.615234 0)"/>
       <use xlink:href="#ArialMT-32" transform="translate(83.398438 0)"/>
      </g>
     </g>
    </g>
    <g id="xtick_3">
     <g id="line2d_5">
      <path d="M 138.508523 265.022801 
L 138.508523 19.751719 
" clip-path="url(#p3efb550308)" style="fill: none; stroke: #c0c0c0; stroke-width: 0.25; stroke-linecap: round"/>
     </g>
     <g id="line2d_6"/>
     <g id="text_3">
      <!-- 0.4 -->
      <g style="fill: #333333" transform="translate(132.253523 274.964832) scale(0.09 -0.09)">
       <defs>
        <path id="ArialMT-34" d="M 2069 0 
L 2069 1097 
L 81 1097 
L 81 1613 
L 2172 4581 
L 2631 4581 
L 2631 1613 
L 3250 1613 
L 3250 1097 
L 2631 1097 
L 2631 0 
L 2069 0 
z
M 2069 1613 
L 2069 3678 
L 634 1613 
L 2069 1613 
z
" transform="scale(0.015625)"/>
       </defs>
       <use xlink:href="#ArialMT-30"/>
       <use xlink:href="#ArialMT-2e" transform="translate(55.615234 0)"/>
       <use xlink:href="#ArialMT-34" transform="translate(83.398438 0)"/>
      </g>
     </g>
    </g>
    <g id="xtick_4">
     <g id="line2d_7">
      <path d="M 186.346935 265.022801 
L 186.346935 19.751719 
" clip-path="url(#p3efb550308)" style="fill: none; stroke: #c0c0c0; stroke-width: 0.25; stroke-linecap: round"/>
     </g>
     <g id="line2d_8"/>
     <g id="text_4">
      <!-- 0.6 -->
      <g style="fill: #333333" transform="translate(180.091935 274.964832) scale(0.09 -0.09)">
       <defs>
        <path id="ArialMT-36" d="M 3184 3459 
L 2625 3416 
Q 2550 3747 2413 3897 
Q 2184 4138 1850 4138 
Q 1581 4138 1378 3988 
Q 1113 3794 959 3422 
Q 806 3050 800 2363 
Q 1003 2672 1297 2822 
Q 1591 2972 1913 2972 
Q 2475 2972 2870 2558 
Q 3266 2144 3266 1488 
Q 3266 1056 3080 686 
Q 2894 316 2569 119 
Q 2244 -78 1831 -78 
Q 1128 -78 684 439 
Q 241 956 241 2144 
Q 241 3472 731 4075 
Q 1159 4600 1884 4600 
Q 2425 4600 2770 4297 
Q 3116 3994 3184 3459 
z
M 888 1484 
Q 888 1194 1011 928 
Q 1134 663 1356 523 
Q 1578 384 1822 384 
Q 2178 384 2434 671 
Q 2691 959 2691 1453 
Q 2691 1928 2437 2201 
Q 2184 2475 1800 2475 
Q 1419 2475 1153 2201 
Q 888 1928 888 1484 
z
" transform="scale(0.015625)"/>
       </defs>
       <use xlink:href="#ArialMT-30"/>
       <use xlink:href="#ArialMT-2e" transform="translate(55.615234 0)"/>
       <use xlink:href="#ArialMT-36" transform="translate(83.398438 0)"/>
      </g>
     </g>
    </g>
    <g id="xtick_5">
     <g id="line2d_9">
      <path d="M 234.185346 265.022801 
L 234.185346 19.751719 
" clip-path="url(#p3efb550308)" style="fill: none; stroke: #c0c0c0; stroke-width: 0.25; stroke-linecap: round"/>
     </g>
     <g id="line2d_10"/>
     <g id="text_5">
      <!-- 0.8 -->
      <g style="fill: #333333" transform="translate(227.930346 274.964832) scale(0.09 -0.09)">
       <defs>
        <path id="ArialMT-38" d="M 1131 2484 
Q 781 2613 612 2850 
Q 444 3088 444 3419 
Q 444 3919 803 4259 
Q 1163 4600 1759 4600 
Q 2359 4600 2725 4251 
Q 3091 3903 3091 3403 
Q 3091 3084 2923 2848 
Q 2756 2613 2416 2484 
Q 2838 2347 3058 2040 
Q 3278 1734 3278 1309 
Q 3278 722 2862 322 
Q 2447 -78 1769 -78 
Q 1091 -78 675 323 
Q 259 725 259 1325 
Q 259 1772 486 2073 
Q 713 2375 1131 2484 
z
M 1019 3438 
Q 1019 3113 1228 2906 
Q 1438 2700 1772 2700 
Q 2097 2700 2305 2904 
Q 2513 3109 2513 3406 
Q 2513 3716 2298 3927 
Q 2084 4138 1766 4138 
Q 1444 4138 1231 3931 
Q 1019 3725 1019 3438 
z
M 838 1322 
Q 838 1081 952 856 
Q 1066 631 1291 507 
Q 1516 384 1775 384 
Q 2178 384 2440 643 
Q 2703 903 2703 1303 
Q 2703 1709 2433 1975 
Q 2163 2241 1756 2241 
Q 1359 2241 1098 1978 
Q 838 1716 838 1322 
z
" transform="scale(0.015625)"/>
       </defs>
       <use xlink:href="#ArialMT-30"/>
       <use xlink:href="#ArialMT-2e" transform="translate(55.615234 0)"/>
       <use xlink:href="#ArialMT-38" transform="translate(83.398438 0)"/>
      </g>
     </g>
    </g>
    <g id="xtick_6">
     <g id="line2d_11">
      <path d="M 282.023758 265.022801 
L 282.023758 19.751719 
" clip-path="url(#p3efb550308)" style="fill: none; stroke: #c0c0c0; stroke-width: 0.25; stroke-linecap: round"/>
     </g>
     <g id="line2d_12"/>
     <g id="text_6">
      <!-- 1.0 -->
      <g style="fill: #333333" transform="translate(275.768758 274.964832) scale(0.09 -0.09)">
       <defs>
        <path id="ArialMT-31" d="M 2384 0 
L 1822 0 
L 1822 3584 
Q 1619 3391 1289 3197 
Q 959 3003 697 2906 
L 697 3450 
Q 1169 3672 1522 3987 
Q 1875 4303 2022 4600 
L 2384 4600 
L 2384 0 
z
" transform="scale(0.015625)"/>
       </defs>
       <use xlink:href="#ArialMT-31"/>
       <use xlink:href="#ArialMT-2e" transform="translate(55.615234 0)"/>
       <use xlink:href="#ArialMT-30" transform="translate(83.398438 0)"/>
      </g>
     </g>
    </g>
    <g id="text_7">
     <!-- False Positive Rate (FPR) -->
     <g style="fill: #333333" transform="translate(108.165463 287.305301) scale(0.09 -0.09)">
      <defs>
       <path id="Arial-BoldMT-46" d="M 472 0 
L 472 4581 
L 3613 4581 
L 3613 3806 
L 1397 3806 
L 1397 2722 
L 3309 2722 
L 3309 1947 
L 1397 1947 
L 1397 0 
L 472 0 
z
" transform="scale(0.015625)"/>
       <path id="Arial-BoldMT-61" d="M 1116 2306 
L 319 2450 
Q 453 2931 781 3162 
Q 1109 3394 1756 3394 
Q 2344 3394 2631 3255 
Q 2919 3116 3036 2902 
Q 3153 2688 3153 2116 
L 3144 1091 
Q 3144 653 3186 445 
Q 3228 238 3344 0 
L 2475 0 
Q 2441 88 2391 259 
Q 2369 338 2359 363 
Q 2134 144 1878 34 
Q 1622 -75 1331 -75 
Q 819 -75 523 203 
Q 228 481 228 906 
Q 228 1188 362 1408 
Q 497 1628 739 1745 
Q 981 1863 1438 1950 
Q 2053 2066 2291 2166 
L 2291 2253 
Q 2291 2506 2166 2614 
Q 2041 2722 1694 2722 
Q 1459 2722 1328 2630 
Q 1197 2538 1116 2306 
z
M 2291 1594 
Q 2122 1538 1756 1459 
Q 1391 1381 1278 1306 
Q 1106 1184 1106 997 
Q 1106 813 1243 678 
Q 1381 544 1594 544 
Q 1831 544 2047 700 
Q 2206 819 2256 991 
Q 2291 1103 2291 1419 
L 2291 1594 
z
" transform="scale(0.015625)"/>
       <path id="Arial-BoldMT-6c" d="M 459 0 
L 459 4581 
L 1338 4581 
L 1338 0 
L 459 0 
z
" transform="scale(0.015625)"/>
       <path id="Arial-BoldMT-73" d="M 150 947 
L 1031 1081 
Q 1088 825 1259 692 
Q 1431 559 1741 559 
Q 2081 559 2253 684 
Q 2369 772 2369 919 
Q 2369 1019 2306 1084 
Q 2241 1147 2013 1200 
Q 950 1434 666 1628 
Q 272 1897 272 2375 
Q 272 2806 612 3100 
Q 953 3394 1669 3394 
Q 2350 3394 2681 3172 
Q 3013 2950 3138 2516 
L 2309 2363 
Q 2256 2556 2107 2659 
Q 1959 2763 1684 2763 
Q 1338 2763 1188 2666 
Q 1088 2597 1088 2488 
Q 1088 2394 1175 2328 
Q 1294 2241 1995 2081 
Q 2697 1922 2975 1691 
Q 3250 1456 3250 1038 
Q 3250 581 2869 253 
Q 2488 -75 1741 -75 
Q 1063 -75 667 200 
Q 272 475 150 947 
z
" transform="scale(0.015625)"/>
       <path id="Arial-BoldMT-65" d="M 2381 1056 
L 3256 909 
Q 3088 428 2723 176 
Q 2359 -75 1813 -75 
Q 947 -75 531 491 
Q 203 944 203 1634 
Q 203 2459 634 2926 
Q 1066 3394 1725 3394 
Q 2466 3394 2894 2905 
Q 3322 2416 3303 1406 
L 1103 1406 
Q 1113 1016 1316 798 
Q 1519 581 1822 581 
Q 2028 581 2168 693 
Q 2309 806 2381 1056 
z
M 2431 1944 
Q 2422 2325 2234 2523 
Q 2047 2722 1778 2722 
Q 1491 2722 1303 2513 
Q 1116 2303 1119 1944 
L 2431 1944 
z
" transform="scale(0.015625)"/>
       <path id="Arial-BoldMT-20" transform="scale(0.015625)"/>
       <path id="Arial-BoldMT-50" d="M 466 0 
L 466 4581 
L 1950 4581 
Q 2794 4581 3050 4513 
Q 3444 4409 3709 4064 
Q 3975 3719 3975 3172 
Q 3975 2750 3822 2462 
Q 3669 2175 3433 2011 
Q 3197 1847 2953 1794 
Q 2622 1728 1994 1728 
L 1391 1728 
L 1391 0 
L 466 0 
z
M 1391 3806 
L 1391 2506 
L 1897 2506 
Q 2444 2506 2628 2578 
Q 2813 2650 2917 2803 
Q 3022 2956 3022 3159 
Q 3022 3409 2875 3571 
Q 2728 3734 2503 3775 
Q 2338 3806 1838 3806 
L 1391 3806 
z
" transform="scale(0.015625)"/>
       <path id="Arial-BoldMT-6f" d="M 256 1706 
Q 256 2144 472 2553 
Q 688 2963 1083 3178 
Q 1478 3394 1966 3394 
Q 2719 3394 3200 2905 
Q 3681 2416 3681 1669 
Q 3681 916 3195 420 
Q 2709 -75 1972 -75 
Q 1516 -75 1102 131 
Q 688 338 472 736 
Q 256 1134 256 1706 
z
M 1156 1659 
Q 1156 1166 1390 903 
Q 1625 641 1969 641 
Q 2313 641 2545 903 
Q 2778 1166 2778 1666 
Q 2778 2153 2545 2415 
Q 2313 2678 1969 2678 
Q 1625 2678 1390 2415 
Q 1156 2153 1156 1659 
z
" transform="scale(0.015625)"/>
       <path id="Arial-BoldMT-69" d="M 459 3769 
L 459 4581 
L 1338 4581 
L 1338 3769 
L 459 3769 
z
M 459 0 
L 459 3319 
L 1338 3319 
L 1338 0 
L 459 0 
z
" transform="scale(0.015625)"/>
       <path id="Arial-BoldMT-74" d="M 1981 3319 
L 1981 2619 
L 1381 2619 
L 1381 1281 
Q 1381 875 1398 808 
Q 1416 741 1477 697 
Q 1538 653 1625 653 
Q 1747 653 1978 738 
L 2053 56 
Q 1747 -75 1359 -75 
Q 1122 -75 931 4 
Q 741 84 652 211 
Q 563 338 528 553 
Q 500 706 500 1172 
L 500 2619 
L 97 2619 
L 97 3319 
L 500 3319 
L 500 3978 
L 1381 4491 
L 1381 3319 
L 1981 3319 
z
" transform="scale(0.015625)"/>
       <path id="Arial-BoldMT-76" d="M 1372 0 
L 34 3319 
L 956 3319 
L 1581 1625 
L 1763 1059 
Q 1834 1275 1853 1344 
Q 1897 1484 1947 1625 
L 2578 3319 
L 3481 3319 
L 2163 0 
L 1372 0 
z
" transform="scale(0.015625)"/>
       <path id="Arial-BoldMT-52" d="M 469 0 
L 469 4581 
L 2416 4581 
Q 3150 4581 3483 4457 
Q 3816 4334 4016 4018 
Q 4216 3703 4216 3297 
Q 4216 2781 3912 2445 
Q 3609 2109 3006 2022 
Q 3306 1847 3501 1637 
Q 3697 1428 4028 894 
L 4588 0 
L 3481 0 
L 2813 997 
Q 2456 1531 2325 1670 
Q 2194 1809 2047 1861 
Q 1900 1913 1581 1913 
L 1394 1913 
L 1394 0 
L 469 0 
z
M 1394 2644 
L 2078 2644 
Q 2744 2644 2909 2700 
Q 3075 2756 3169 2893 
Q 3263 3031 3263 3238 
Q 3263 3469 3139 3611 
Q 3016 3753 2791 3791 
Q 2678 3806 2116 3806 
L 1394 3806 
L 1394 2644 
z
" transform="scale(0.015625)"/>
       <path id="Arial-BoldMT-28" d="M 1916 -1347 
L 1313 -1347 
Q 834 -625 584 153 
Q 334 931 334 1659 
Q 334 2563 644 3369 
Q 913 4069 1325 4659 
L 1925 4659 
Q 1497 3713 1336 3048 
Q 1175 2384 1175 1641 
Q 1175 1128 1270 590 
Q 1366 53 1531 -431 
Q 1641 -750 1916 -1347 
z
" transform="scale(0.015625)"/>
       <path id="Arial-BoldMT-29" d="M 216 -1347 
Q 475 -791 581 -494 
Q 688 -197 778 190 
Q 869 578 912 926 
Q 956 1275 956 1641 
Q 956 2384 797 3048 
Q 638 3713 209 4659 
L 806 4659 
Q 1278 3988 1539 3234 
Q 1800 2481 1800 1706 
Q 1800 1053 1594 306 
Q 1359 -531 822 -1347 
L 216 -1347 
z
" transform="scale(0.015625)"/>
      </defs>
      <use xlink:href="#Arial-BoldMT-46"/>
      <use xlink:href="#Arial-BoldMT-61" transform="translate(61.083984 0)"/>
      <use xlink:href="#Arial-BoldMT-6c" transform="translate(116.699219 0)"/>
      <use xlink:href="#Arial-BoldMT-73" transform="translate(144.482422 0)"/>
      <use xlink:href="#Arial-BoldMT-65" transform="translate(200.097656 0)"/>
      <use xlink:href="#Arial-BoldMT-20" transform="translate(255.712891 0)"/>
      <use xlink:href="#Arial-BoldMT-50" transform="translate(283.496094 0)"/>
      <use xlink:href="#Arial-BoldMT-6f" transform="translate(350.195312 0)"/>
      <use xlink:href="#Arial-BoldMT-73" transform="translate(411.279297 0)"/>
      <use xlink:href="#Arial-BoldMT-69" transform="translate(466.894531 0)"/>
      <use xlink:href="#Arial-BoldMT-74" transform="translate(494.677734 0)"/>
      <use xlink:href="#Arial-BoldMT-69" transform="translate(527.978516 0)"/>
      <use xlink:href="#Arial-BoldMT-76" transform="translate(555.761719 0)"/>
      <use xlink:href="#Arial-BoldMT-65" transform="translate(611.376953 0)"/>
      <use xlink:href="#Arial-BoldMT-20" transform="translate(666.992188 0)"/>
      <use xlink:href="#Arial-BoldMT-52" transform="translate(694.775391 0)"/>
      <use xlink:href="#Arial-BoldMT-61" transform="translate(766.992188 0)"/>
      <use xlink:href="#Arial-BoldMT-74" transform="translate(822.607422 0)"/>
      <use xlink:href="#Arial-BoldMT-65" transform="translate(855.908203 0)"/>
      <use xlink:href="#Arial-BoldMT-20" transform="translate(911.523438 0)"/>
      <use xlink:href="#Arial-BoldMT-28" transform="translate(939.306641 0)"/>
      <use xlink:href="#Arial-BoldMT-46" transform="translate(972.607422 0)"/>
      <use xlink:href="#Arial-BoldMT-50" transform="translate(1033.691406 0)"/>
      <use xlink:href="#Arial-BoldMT-52" transform="translate(1100.390625 0)"/>
      <use xlink:href="#Arial-BoldMT-29" transform="translate(1172.607422 0)"/>
     </g>
    </g>
   </g>
   <g id="matplotlib.axis_2">
    <g id="ytick_1">
     <g id="line2d_13">
      <path d="M 35.655938 265.022801 
L 289.19952 265.022801 
" clip-path="url(#p3efb550308)" style="fill: none; stroke: #c0c0c0; stroke-width: 0.25; stroke-linecap: round"/>
     </g>
     <g id="line2d_14"/>
     <g id="text_8">
      <!-- 0.0 -->
      <g style="fill: #333333" transform="translate(19.645938 268.243817) scale(0.09 -0.09)">
       <use xlink:href="#ArialMT-30"/>
       <use xlink:href="#ArialMT-2e" transform="translate(55.615234 0)"/>
       <use xlink:href="#ArialMT-30" transform="translate(83.398438 0)"/>
      </g>
     </g>
    </g>
    <g id="ytick_2">
     <g id="line2d_15">
      <path d="M 35.655938 217.397348 
L 289.19952 217.397348 
" clip-path="url(#p3efb550308)" style="fill: none; stroke: #c0c0c0; stroke-width: 0.25; stroke-linecap: round"/>
     </g>
     <g id="line2d_16"/>
     <g id="text_9">
      <!-- 0.2 -->
      <g style="fill: #333333" transform="translate(19.645938 220.618364) scale(0.09 -0.09)">
       <use xlink:href="#ArialMT-30"/>
       <use xlink:href="#ArialMT-2e" transform="translate(55.615234 0)"/>
       <use xlink:href="#ArialMT-32" transform="translate(83.398438 0)"/>
      </g>
     </g>
    </g>
    <g id="ytick_3">
     <g id="line2d_17">
      <path d="M 35.655938 169.771895 
L 289.19952 169.771895 
" clip-path="url(#p3efb550308)" style="fill: none; stroke: #c0c0c0; stroke-width: 0.25; stroke-linecap: round"/>
     </g>
     <g id="line2d_18"/>
     <g id="text_10">
      <!-- 0.4 -->
      <g style="fill: #333333" transform="translate(19.645938 172.992911) scale(0.09 -0.09)">
       <use xlink:href="#ArialMT-30"/>
       <use xlink:href="#ArialMT-2e" transform="translate(55.615234 0)"/>
       <use xlink:href="#ArialMT-34" transform="translate(83.398438 0)"/>
      </g>
     </g>
    </g>
    <g id="ytick_4">
     <g id="line2d_19">
      <path d="M 35.655938 122.146443 
L 289.19952 122.146443 
" clip-path="url(#p3efb550308)" style="fill: none; stroke: #c0c0c0; stroke-width: 0.25; stroke-linecap: round"/>
     </g>
     <g id="line2d_20"/>
     <g id="text_11">
      <!-- 0.6 -->
      <g style="fill: #333333" transform="translate(19.645938 125.367458) scale(0.09 -0.09)">
       <use xlink:href="#ArialMT-30"/>
       <use xlink:href="#ArialMT-2e" transform="translate(55.615234 0)"/>
       <use xlink:href="#ArialMT-36" transform="translate(83.398438 0)"/>
      </g>
     </g>
    </g>
    <g id="ytick_5">
     <g id="line2d_21">
      <path d="M 35.655938 74.52099 
L 289.19952 74.52099 
" clip-path="url(#p3efb550308)" style="fill: none; stroke: #c0c0c0; stroke-width: 0.25; stroke-linecap: round"/>
     </g>
     <g id="line2d_22"/>
     <g id="text_12">
      <!-- 0.8 -->
      <g style="fill: #333333" transform="translate(19.645938 77.742005) scale(0.09 -0.09)">
       <use xlink:href="#ArialMT-30"/>
       <use xlink:href="#ArialMT-2e" transform="translate(55.615234 0)"/>
       <use xlink:href="#ArialMT-38" transform="translate(83.398438 0)"/>
      </g>
     </g>
    </g>
    <g id="ytick_6">
     <g id="line2d_23">
      <path d="M 35.655938 26.895537 
L 289.19952 26.895537 
" clip-path="url(#p3efb550308)" style="fill: none; stroke: #c0c0c0; stroke-width: 0.25; stroke-linecap: round"/>
     </g>
     <g id="line2d_24"/>
     <g id="text_13">
      <!-- 1.0 -->
      <g style="fill: #333333" transform="translate(19.645938 30.116552) scale(0.09 -0.09)">
       <use xlink:href="#ArialMT-31"/>
       <use xlink:href="#ArialMT-2e" transform="translate(55.615234 0)"/>
       <use xlink:href="#ArialMT-30" transform="translate(83.398438 0)"/>
      </g>
     </g>
    </g>
    <g id="text_14">
     <!-- True Positive Rate (TPR) -->
     <g style="fill: #333333" transform="translate(13.751719 194.647026) rotate(-90) scale(0.09 -0.09)">
      <defs>
       <path id="Arial-BoldMT-54" d="M 1497 0 
L 1497 3806 
L 138 3806 
L 138 4581 
L 3778 4581 
L 3778 3806 
L 2422 3806 
L 2422 0 
L 1497 0 
z
" transform="scale(0.015625)"/>
       <path id="Arial-BoldMT-72" d="M 1300 0 
L 422 0 
L 422 3319 
L 1238 3319 
L 1238 2847 
Q 1447 3181 1614 3287 
Q 1781 3394 1994 3394 
Q 2294 3394 2572 3228 
L 2300 2463 
Q 2078 2606 1888 2606 
Q 1703 2606 1575 2504 
Q 1447 2403 1373 2137 
Q 1300 1872 1300 1025 
L 1300 0 
z
" transform="scale(0.015625)"/>
       <path id="Arial-BoldMT-75" d="M 2644 0 
L 2644 497 
Q 2463 231 2167 78 
Q 1872 -75 1544 -75 
Q 1209 -75 943 72 
Q 678 219 559 484 
Q 441 750 441 1219 
L 441 3319 
L 1319 3319 
L 1319 1794 
Q 1319 1094 1367 936 
Q 1416 778 1544 686 
Q 1672 594 1869 594 
Q 2094 594 2272 717 
Q 2450 841 2515 1023 
Q 2581 1206 2581 1919 
L 2581 3319 
L 3459 3319 
L 3459 0 
L 2644 0 
z
" transform="scale(0.015625)"/>
      </defs>
      <use xlink:href="#Arial-BoldMT-54"/>
      <use xlink:href="#Arial-BoldMT-72" transform="translate(55.583984 0)"/>
      <use xlink:href="#Arial-BoldMT-75" transform="translate(94.5 0)"/>
      <use xlink:href="#Arial-BoldMT-65" transform="translate(155.583984 0)"/>
      <use xlink:href="#Arial-BoldMT-20" transform="translate(211.199219 0)"/>
      <use xlink:href="#Arial-BoldMT-50" transform="translate(238.982422 0)"/>
      <use xlink:href="#Arial-BoldMT-6f" transform="translate(305.681641 0)"/>
      <use xlink:href="#Arial-BoldMT-73" transform="translate(366.765625 0)"/>
      <use xlink:href="#Arial-BoldMT-69" transform="translate(422.380859 0)"/>
      <use xlink:href="#Arial-BoldMT-74" transform="translate(450.164062 0)"/>
      <use xlink:href="#Arial-BoldMT-69" transform="translate(483.464844 0)"/>
      <use xlink:href="#Arial-BoldMT-76" transform="translate(511.248047 0)"/>
      <use xlink:href="#Arial-BoldMT-65" transform="translate(566.863281 0)"/>
      <use xlink:href="#Arial-BoldMT-20" transform="translate(622.478516 0)"/>
      <use xlink:href="#Arial-BoldMT-52" transform="translate(650.261719 0)"/>
      <use xlink:href="#Arial-BoldMT-61" transform="translate(722.478516 0)"/>
      <use xlink:href="#Arial-BoldMT-74" transform="translate(778.09375 0)"/>
      <use xlink:href="#Arial-BoldMT-65" transform="translate(811.394531 0)"/>
      <use xlink:href="#Arial-BoldMT-20" transform="translate(867.009766 0)"/>
      <use xlink:href="#Arial-BoldMT-28" transform="translate(894.792969 0)"/>
      <use xlink:href="#Arial-BoldMT-54" transform="translate(928.09375 0)"/>
      <use xlink:href="#Arial-BoldMT-50" transform="translate(989.177734 0)"/>
      <use xlink:href="#Arial-BoldMT-52" transform="translate(1055.876953 0)"/>
      <use xlink:href="#Arial-BoldMT-29" transform="translate(1128.09375 0)"/>
     </g>
    </g>
   </g>
   <g id="line2d_25">
    <path d="M 42.831699 265.022801 
L 42.942752 243.407281 
L 42.943109 243.318145 
L 43.054019 233.780575 
L 43.056014 233.691439 
L 43.166592 226.114865 
L 43.168563 226.025729 
L 43.27755 219.919902 
L 43.280305 219.830766 
L 43.391239 215.463094 
L 43.396227 215.373957 
L 43.504596 211.541102 
L 43.506377 211.541102 
L 43.519249 211.451966 
L 43.630231 208.688745 
L 43.637071 208.599609 
L 43.748029 205.836388 
L 43.756745 205.747252 
L 43.867466 203.028599 
L 43.871669 202.939462 
L 43.978352 200.354514 
L 43.97992 200.354514 
L 44.005213 200.265377 
L 44.11515 198.304382 
L 44.119259 198.215246 
L 44.230003 195.942273 
L 44.235679 195.853137 
L 44.346732 193.93671 
L 44.362953 193.847574 
L 44.467095 192.421395 
L 44.486878 192.332259 
L 44.597314 190.460399 
L 44.623248 190.371263 
L 44.728791 188.633108 
L 44.742329 188.543972 
L 44.853097 186.582976 
L 44.857514 186.49384 
L 44.967665 185.156797 
L 44.982437 185.067661 
L 45.087315 183.596915 
L 45.114651 183.507778 
L 45.224112 182.259872 
L 45.234135 182.170736 
L 45.343573 180.744557 
L 45.373972 180.655421 
L 45.476855 179.273811 
L 45.495641 179.184674 
L 45.606623 178.11504 
L 45.621562 178.025904 
L 45.732472 177.000838 
L 45.738908 176.911702 
L 45.83906 175.931204 
L 45.864116 175.842068 
L 45.96859 174.683298 
L 45.971488 174.683298 
L 45.989799 174.594162 
L 46.096078 173.167983 
L 46.104485 173.123415 
L 46.214018 171.830941 
L 46.231973 171.741805 
L 46.341459 170.805875 
L 46.371549 170.716739 
L 46.480465 169.869945 
L 46.493551 169.780809 
L 46.604058 168.666607 
L 46.622321 168.577471 
L 46.732685 167.641541 
L 46.738599 167.552405 
L 46.846469 166.527339 
L 46.85889 166.438203 
L 46.96764 165.457705 
L 46.98208 165.368569 
L 47.078408 164.298935 
L 47.106124 164.209799 
L 47.214825 163.229301 
L 47.237269 163.140165 
L 47.340793 162.248803 
L 47.359959 162.159667 
L 47.467853 161.446578 
L 47.492719 161.357441 
L 47.603202 160.599784 
L 47.624387 160.510648 
L 47.718269 159.75299 
L 47.755223 159.663854 
L 47.858296 158.861629 
L 47.864139 158.861629 
L 47.916483 158.772493 
L 48.025588 157.702859 
L 48.045182 157.613723 
L 48.15215 157.123474 
L 48.18699 157.034337 
L 48.297901 156.365816 
L 48.317874 156.27668 
L 48.393184 155.608159 
L 48.423702 155.608159 
L 48.447832 155.519023 
L 48.554349 154.805933 
L 48.555869 154.805933 
L 48.565487 154.716797 
L 48.671007 153.870004 
L 48.74311 153.780867 
L 48.812222 153.24605 
L 48.891711 153.156914 
L 49.002598 152.577529 
L 49.022667 152.488393 
L 49.132651 151.552463 
L 49.162243 151.463327 
L 49.269045 150.482829 
L 49.292557 150.393693 
L 49.39069 149.903444 
L 49.426362 149.814308 
L 49.527582 149.234923 
L 49.562827 149.145787 
L 49.658823 148.254425 
L 49.665639 148.254425 
L 49.71119 148.165289 
L 49.820225 147.363064 
L 49.846349 147.273927 
L 49.951536 146.73911 
L 49.978563 146.649974 
L 50.088215 145.758613 
L 50.118804 145.669476 
L 50.223754 145.134659 
L 50.235747 145.045523 
L 50.346088 144.42157 
L 50.357131 144.332434 
L 50.458661 143.797617 
L 50.481698 143.708481 
L 50.588903 143.084528 
L 50.618828 142.995391 
L 50.719312 142.237734 
L 50.723326 142.237734 
L 50.752965 142.148598 
L 50.861857 141.658349 
L 50.879432 141.569213 
L 50.977185 140.94526 
L 51.024067 140.856124 
L 51.131937 140.365875 
L 51.134455 140.365875 
L 51.160033 140.276738 
L 51.271015 139.608217 
L 51.297686 139.519081 
L 51.40311 139.0734 
L 51.435314 138.984264 
L 51.538411 138.627719 
L 51.556556 138.538583 
L 51.655853 137.91463 
L 51.68858 137.825494 
L 51.793173 137.156973 
L 51.825377 137.067837 
L 51.926194 136.488451 
L 51.969561 136.399315 
L 52.058147 135.953634 
L 52.141935 135.864498 
L 52.244272 135.329681 
L 52.282129 135.240545 
L 52.36017 134.794864 
L 52.418048 134.705728 
L 52.476496 134.215479 
L 52.491529 134.215479 
L 52.544894 134.126343 
L 52.652551 133.413254 
L 52.676609 133.324118 
L 52.785786 132.833869 
L 52.810343 132.744733 
L 52.917098 132.432756 
L 52.945716 132.34362 
L 53.054774 132.031643 
L 53.056531 132.031643 
L 53.078808 131.942507 
L 53.133884 131.63053 
L 53.173949 131.63053 
L 53.247715 131.541394 
L 53.336016 130.962009 
L 53.369052 130.872873 
L 53.476305 130.293488 
L 53.500435 130.204352 
L 53.611274 129.803239 
L 53.668154 129.714103 
L 53.775645 129.179286 
L 53.776286 129.179286 
L 53.823358 129.09015 
L 53.900425 128.778173 
L 53.919045 128.778173 
L 53.991884 128.689037 
L 54.096668 128.065084 
L 54.187652 127.975948 
L 54.282247 127.663971 
L 54.343544 127.574835 
L 54.449871 127.040018 
L 54.482883 126.950882 
L 54.553633 126.638905 
L 54.556602 126.638905 
L 54.609065 126.549769 
L 54.698909 125.925816 
L 54.702163 125.925816 
L 54.78816 125.83668 
L 54.888122 125.346431 
L 54.899047 125.346431 
L 54.955785 125.257295 
L 55.034182 124.989886 
L 55.042209 124.989886 
L 55.102937 124.90075 
L 55.203754 124.365933 
L 55.2271 124.276797 
L 55.332097 123.831116 
L 55.450179 123.74198 
L 55.555366 123.207163 
L 55.610679 123.118027 
L 55.712351 122.850618 
L 55.739378 122.761482 
L 55.849386 122.137529 
L 55.862068 122.048393 
L 55.951367 121.825552 
L 55.964548 121.825552 
L 55.999032 121.736416 
L 56.10429 121.067895 
L 56.117329 120.978759 
L 56.216982 120.666782 
L 56.313263 120.577646 
L 56.41503 120.131965 
L 56.458396 120.042829 
L 56.519623 119.864557 
L 56.522758 119.864557 
L 56.599041 119.775421 
L 56.68416 119.508012 
L 56.719618 119.418876 
L 56.821314 119.062331 
L 56.824733 119.062331 
L 56.867578 118.973195 
L 56.969463 118.438378 
L 57.017485 118.349242 
L 57.110631 118.126401 
L 57.147918 118.037265 
L 57.252938 117.725289 
L 57.291508 117.636153 
L 57.383418 117.368744 
L 57.398404 117.368744 
L 57.43505 117.279608 
L 57.530927 116.833927 
L 57.537007 116.833927 
L 57.58434 116.744791 
L 57.682901 116.388246 
L 57.692187 116.388246 
L 57.749233 116.29911 
L 57.844516 116.120838 
L 57.867886 116.031702 
L 57.945452 115.719725 
L 58.065245 115.630589 
L 58.152121 115.407748 
L 58.207077 115.318612 
L 58.31756 115.095772 
L 58.350691 115.006636 
L 58.451342 114.783795 
L 58.489721 114.694659 
L 58.59733 114.382683 
L 58.651836 114.293546 
L 58.75536 114.026138 
L 58.81262 113.937002 
L 58.915266 113.580457 
L 58.965567 113.491321 
L 59.056552 113.223912 
L 59.071657 113.223912 
L 59.096784 113.134776 
L 59.193777 112.8228 
L 59.248639 112.733663 
L 59.352875 112.466255 
L 59.473143 112.377119 
L 59.560304 112.198847 
L 59.567358 112.198847 
L 59.626755 112.10971 
L 59.736977 111.485757 
L 59.782648 111.396621 
L 59.891183 111.218349 
L 59.891587 111.218349 
L 59.951412 111.129213 
L 60.051825 110.638964 
L 60.058166 110.638964 
L 60.07263 110.549827 
L 60.177532 110.148715 
L 60.178411 110.148715 
L 60.285925 110.059579 
L 60.387906 109.881306 
L 60.469105 109.79217 
L 60.576406 109.524762 
L 60.614951 109.435625 
L 60.718001 109.123649 
L 60.762413 109.034513 
L 60.837912 108.767104 
L 60.868122 108.767104 
L 60.999457 108.677968 
L 61.078994 108.455128 
L 61.167366 108.365991 
L 61.249018 108.054015 
L 61.333352 107.964879 
L 61.39256 107.608334 
L 61.432792 107.608334 
L 61.489197 107.519198 
L 61.584433 107.251789 
L 61.612718 107.162653 
L 61.69323 106.984381 
L 61.816466 106.895245 
L 61.902083 106.672404 
L 61.93633 106.583268 
L 62.026769 106.31586 
L 62.088351 106.226723 
L 62.177365 105.959315 
L 62.186318 105.959315 
L 62.244647 105.870179 
L 62.271769 105.781043 
L 62.330668 105.781043 
L 62.398853 105.691906 
L 62.493353 105.469066 
L 62.551587 105.37993 
L 62.618109 105.157089 
L 62.642262 105.157089 
L 62.757305 105.067953 
L 62.861518 104.533136 
L 62.864677 104.533136 
L 62.900302 104.444 
L 63.011117 104.176592 
L 63.149886 104.087456 
L 63.256094 103.998319 
L 63.256806 103.998319 
L 63.315753 103.909183 
L 63.315753 103.864615 
L 63.376457 103.864615 
L 63.467821 103.775479 
L 63.530401 103.50807 
L 63.559637 103.50807 
L 63.637797 103.418934 
L 63.669788 103.28523 
L 63.728877 103.28523 
L 63.769892 103.196094 
L 63.87819 102.884117 
L 63.932885 102.794981 
L 64.01152 102.616709 
L 64.038951 102.616709 
L 64.07961 102.527573 
L 64.182517 102.393868 
L 64.270319 102.304732 
L 64.349595 102.081892 
L 64.408518 101.992756 
L 64.51133 101.591643 
L 64.647439 101.502507 
L 64.738043 101.413371 
L 64.756734 101.413371 
L 64.822901 101.324234 
L 64.922601 101.145962 
L 64.991855 101.056826 
L 65.086545 100.833985 
L 65.162828 100.744849 
L 65.263645 100.477441 
L 65.328007 100.388305 
L 65.432006 100.076328 
L 65.467227 99.987192 
L 65.575738 99.675215 
L 65.629887 99.586079 
L 65.723484 99.229535 
L 65.729778 99.229535 
L 65.80998 99.140398 
L 65.901179 98.605581 
L 65.920867 98.605581 
L 65.969957 98.516445 
L 66.055385 98.204469 
L 66.061393 98.204469 
L 66.214174 98.115332 
L 66.289935 97.892492 
L 66.427659 97.803356 
L 66.504869 97.625084 
L 66.533701 97.625084 
L 66.631621 97.535947 
L 66.741035 97.223971 
L 66.824966 97.134835 
L 66.92887 96.867426 
L 66.931886 96.867426 
L 66.952477 96.77829 
L 67.052368 96.510881 
L 67.062177 96.510881 
L 67.079181 96.421745 
L 67.168741 96.109769 
L 67.189617 96.109769 
L 67.245428 96.020633 
L 67.302878 95.84236 
L 67.355864 95.84236 
L 67.400394 95.753224 
L 67.503159 95.485816 
L 67.567662 95.396679 
L 67.659645 95.173839 
L 67.674821 95.173839 
L 67.689949 95.084703 
L 67.797392 94.861862 
L 67.844844 94.772726 
L 67.921294 94.639022 
L 67.950506 94.639022 
L 68.077138 94.549886 
L 68.143115 94.282477 
L 68.165225 94.282477 
L 68.261577 94.193341 
L 68.330119 94.059637 
L 68.457298 93.970501 
L 68.567804 93.658524 
L 68.586947 93.569388 
L 68.68033 93.346548 
L 68.765876 93.257411 
L 68.865529 93.079139 
L 68.868427 93.079139 
L 68.997909 92.990003 
L 69.0978 92.722594 
L 69.100959 92.722594 
L 69.129292 92.633458 
L 69.232792 92.36605 
L 69.239039 92.36605 
L 69.30169 92.276914 
L 69.397282 92.054073 
L 69.410083 92.054073 
L 69.52933 91.964937 
L 69.626893 91.831233 
L 69.670758 91.742097 
L 69.770032 91.519256 
L 69.810762 91.43012 
L 69.917041 91.073575 
L 70.05562 90.984439 
L 70.126156 90.761599 
L 70.14765 90.761599 
L 70.396498 90.672463 
L 70.486366 90.538758 
L 70.643375 90.449622 
L 70.742125 90.226782 
L 70.797034 90.137646 
L 70.797034 90.093078 
L 70.863106 90.093078 
L 70.996602 90.003941 
L 71.053031 89.870237 
L 71.094403 89.870237 
L 71.243692 89.781101 
L 71.338762 89.33542 
L 71.349093 89.33542 
L 71.389277 89.246284 
L 71.447321 89.068012 
L 71.464611 89.068012 
L 71.558089 88.978876 
L 71.586803 88.800603 
L 71.666981 88.800603 
L 71.71125 88.711467 
L 71.763048 88.488627 
L 71.765969 88.488627 
L 71.917468 88.39949 
L 71.985867 88.265786 
L 72.014722 88.265786 
L 72.283425 88.17665 
L 72.283425 88.132082 
L 72.391747 88.132082 
L 72.499902 88.042946 
L 72.602619 87.775537 
L 72.606894 87.775537 
L 72.789006 87.686401 
L 72.862273 87.552697 
L 72.890797 87.552697 
L 73.018427 87.463561 
L 73.087609 87.24072 
L 73.11979 87.24072 
L 73.156839 87.151584 
L 73.248133 86.973312 
L 73.407991 86.884176 
L 73.512513 86.661335 
L 73.558112 86.572199 
L 73.668548 86.483063 
L 73.756943 86.393927 
L 73.756943 86.349359 
L 73.851586 86.349359 
L 73.962734 86.260223 
L 73.962734 86.215654 
L 74.069892 86.215654 
L 74.196643 86.126518 
L 74.274447 85.992814 
L 74.296819 85.992814 
L 74.515481 85.903678 
L 74.515481 85.85911 
L 74.62024 85.85911 
L 74.677429 85.769974 
L 74.773615 85.457997 
L 74.788197 85.457997 
L 74.887328 85.368861 
L 74.959076 85.235157 
L 74.990283 85.235157 
L 75.116915 85.14602 
L 75.179424 85.056884 
L 75.185219 85.056884 
L 75.436869 84.967748 
L 75.443638 84.878612 
L 75.547305 84.878612 
L 75.652397 84.789476 
L 75.703007 84.655772 
L 75.757774 84.655772 
L 75.84313 84.566635 
L 75.949076 84.388363 
L 76.002917 84.299227 
L 76.022534 84.210091 
L 76.107035 84.210091 
L 76.141401 84.120955 
L 76.244355 83.98725 
L 76.380036 83.898114 
L 76.478834 83.719842 
L 76.479879 83.719842 
L 76.596062 83.630706 
L 76.670778 83.497001 
L 76.674958 83.497001 
L 76.761739 83.407865 
L 76.857284 83.318729 
L 77.007334 83.229593 
L 77.116463 83.006752 
L 77.184387 82.917616 
L 77.224714 82.783912 
L 77.263473 82.783912 
L 77.431264 82.694776 
L 77.516453 82.516504 
L 77.705737 82.427367 
L 77.717541 82.293663 
L 77.797791 82.293663 
L 77.98831 82.204527 
L 78.066802 82.115391 
L 78.077513 82.115391 
L 78.264612 82.026255 
L 78.319806 81.89255 
L 78.347783 81.89255 
L 78.554618 81.803414 
L 78.596964 81.625142 
L 78.660066 81.625142 
L 78.889654 81.536006 
L 78.999709 81.357733 
L 79.037471 81.268597 
L 79.112543 81.134893 
L 79.148215 81.134893 
L 79.215593 81.045757 
L 79.326076 80.73378 
L 79.54336 80.644644 
L 79.633965 80.466372 
L 79.692223 80.377236 
L 79.76226 80.288099 
L 79.763115 80.288099 
L 79.884001 80.198963 
L 79.977265 80.065259 
L 79.984366 80.065259 
L 80.185359 79.976123 
L 80.246419 79.797851 
L 80.287791 79.797851 
L 80.394213 79.708714 
L 80.502202 79.57501 
L 80.616247 79.485874 
L 80.672581 79.263034 
L 80.726802 79.263034 
L 80.900744 79.173897 
L 80.930003 79.040193 
L 80.988356 79.040193 
L 81.063404 78.951057 
L 81.104895 78.772785 
L 81.153415 78.772785 
L 81.251905 78.683649 
L 81.291638 78.594512 
L 81.359182 78.594512 
L 81.458787 78.505376 
L 81.458787 78.460808 
L 81.560079 78.460808 
L 81.74041 78.371672 
L 81.830349 78.1934 
L 81.838305 78.1934 
L 81.938861 78.104263 
L 81.940619 78.015127 
L 82.034833 78.015127 
L 82.183339 77.925991 
L 82.274419 77.703151 
L 82.417082 77.614015 
L 82.477881 77.48031 
L 82.493271 77.48031 
L 82.615439 77.391174 
L 82.704072 77.212902 
L 82.726492 77.212902 
L 82.7591 77.123766 
L 82.7591 77.079198 
L 82.858753 77.079198 
L 83.079506 76.990061 
L 83.158164 76.811789 
L 83.251761 76.722653 
L 83.353291 76.588949 
L 83.355832 76.588949 
L 83.483581 76.499812 
L 83.508233 76.410676 
L 83.58093 76.410676 
L 83.703811 76.32154 
L 83.703811 76.276972 
L 83.725304 76.276972 
L 83.87818 76.187836 
L 83.93601 76.054132 
L 83.954986 76.054132 
L 84.263588 75.964995 
L 84.342199 75.742155 
L 84.366685 75.742155 
L 84.49194 75.653019 
L 84.58891 75.474747 
L 84.627384 75.38561 
L 84.70438 75.16277 
L 84.954273 75.073634 
L 85.038323 74.93993 
L 85.054876 74.93993 
L 85.167544 74.850793 
L 85.167544 74.806225 
L 85.242403 74.806225 
L 85.568508 74.717089 
L 85.65289 74.538817 
L 85.667663 74.538817 
L 85.8982 74.449681 
L 85.934845 74.315976 
L 85.992937 74.315976 
L 86.28375 74.22684 
L 86.366731 74.137704 
L 86.385422 74.137704 
L 86.430285 74.048568 
L 86.53362 73.781159 
L 86.538298 73.781159 
L 86.818828 73.692023 
L 86.905965 73.558319 
L 87.113727 73.469183 
L 87.210649 73.335479 
L 87.217821 73.335479 
L 87.443466 73.246342 
L 87.443466 73.201774 
L 87.550814 73.201774 
L 87.829562 73.112638 
L 87.921283 72.934366 
L 87.937671 72.934366 
L 87.991606 72.84523 
L 88.042454 72.666957 
L 88.095344 72.666957 
L 88.181555 72.577821 
L 88.181555 72.533253 
L 88.226489 72.533253 
L 88.544757 72.444117 
L 88.615768 72.354981 
L 88.795244 72.265845 
L 88.80415 72.13214 
L 88.834288 72.13214 
L 89.226774 72.043004 
L 89.295932 71.9093 
L 89.316642 71.9093 
L 89.562046 71.820164 
L 89.562046 71.775596 
L 89.667661 71.775596 
L 89.974576 71.68646 
L 90.05219 71.463619 
L 90.359771 71.374483 
L 90.469779 71.240779 
L 90.578528 71.151643 
L 90.600948 71.062506 
L 90.678727 71.062506 
L 91.047178 70.97337 
L 91.095319 70.839666 
L 91.145359 70.839666 
L 91.316973 70.75053 
L 91.393685 70.572257 
L 91.404253 70.572257 
L 91.535422 70.483121 
L 91.541811 70.393985 
L 91.637046 70.393985 
L 91.725561 70.304849 
L 91.774461 70.215713 
L 91.833622 70.215713 
L 92.131156 70.126577 
L 92.234799 69.903736 
L 92.349011 69.8146 
L 92.441729 69.636328 
L 92.555015 69.547192 
L 92.623224 69.324351 
L 92.819086 69.235215 
L 92.919096 68.923238 
L 92.925461 68.923238 
L 92.981605 68.834102 
L 93.081709 68.700398 
L 93.393446 68.611262 
L 93.393446 68.566694 
L 93.462866 68.566694 
L 93.664809 68.477558 
L 93.692833 68.343853 
L 93.764557 68.343853 
L 94.079025 68.254717 
L 94.182003 68.031877 
L 94.395013 67.942741 
L 94.47113 67.809036 
L 94.489061 67.809036 
L 94.757811 67.7199 
L 94.833098 67.586196 
L 94.864803 67.586196 
L 95.008156 67.49706 
L 95.090757 67.363356 
L 95.111086 67.363356 
L 95.174973 67.274219 
L 95.238028 67.185083 
L 95.265767 67.185083 
L 95.409191 67.095947 
L 95.504237 67.006811 
L 95.80854 66.917675 
L 95.907837 66.78397 
L 96.082919 66.694834 
L 96.08812 66.605698 
L 96.192214 66.605698 
L 96.232802 66.516562 
L 96.297639 66.382858 
L 96.301344 66.382858 
L 96.5206 66.293722 
L 96.625668 66.160017 
L 96.825972 66.070881 
L 96.926266 65.937177 
L 96.93332 65.937177 
L 97.03891 65.848041 
L 97.03891 65.803473 
L 97.322076 65.714337 
L 97.322076 65.669768 
L 97.415769 65.669768 
L 97.547009 65.580632 
L 97.651127 65.491496 
L 97.856062 65.40236 
L 97.950514 65.268656 
L 97.952533 65.268656 
L 98.05221 65.17952 
L 98.160009 65.001247 
L 98.422394 64.912111 
L 98.49768 64.822975 
L 98.701594 64.733839 
L 98.803575 64.510998 
L 99.203708 64.421862 
L 99.203708 64.377294 
L 99.276476 64.377294 
L 99.451487 64.288158 
L 99.453696 64.154454 
L 99.513877 64.154454 
L 99.85941 64.065317 
L 99.949254 63.931613 
L 99.9517 63.931613 
L 100.525775 63.842477 
L 100.6027 63.753341 
L 101.116237 63.664205 
L 101.116237 63.619637 
L 101.203469 63.619637 
L 101.730401 63.5305 
L 101.828962 63.396796 
L 101.970177 63.30766 
L 101.970177 63.263092 
L 102.073653 63.263092 
L 102.163664 63.173956 
L 102.18074 63.08482 
L 102.245268 63.08482 
L 102.472717 62.995683 
L 102.527128 62.861979 
L 103.08263 62.772843 
L 103.099184 62.683707 
L 103.523256 62.594571 
L 103.560424 62.416298 
L 103.837748 62.327162 
L 103.837748 62.282594 
L 103.863492 62.282594 
L 104.076835 62.193458 
L 104.076835 62.14889 
L 104.298822 62.059754 
L 104.298822 62.015186 
L 104.374393 62.015186 
L 104.868574 61.926049 
L 104.930751 61.836913 
L 105.156467 61.747777 
L 105.203966 61.658641 
L 105.378976 61.569505 
L 105.392157 61.480369 
L 105.463786 61.480369 
L 105.566503 61.391233 
L 105.566503 61.346664 
L 105.635614 61.346664 
L 105.98497 61.257528 
L 106.073271 61.079256 
L 106.55876 60.99012 
L 106.55876 60.945552 
L 106.64528 60.945552 
L 106.769751 60.856416 
L 106.866792 60.633575 
L 107.275902 60.544439 
L 107.275902 60.499871 
L 107.374225 60.499871 
L 107.567832 60.410735 
L 107.567832 60.366167 
L 107.652214 60.366167 
L 108.01506 60.27703 
L 108.058973 60.187894 
L 108.083245 60.187894 
L 108.232107 60.098758 
L 108.306729 59.965054 
L 108.577426 59.875918 
L 108.650124 59.742213 
L 108.888189 59.653077 
L 108.93747 59.519373 
L 109.281934 59.430237 
L 109.325015 59.296533 
L 109.714936 59.207396 
L 109.714936 59.162828 
L 110.046337 59.073692 
L 110.15207 58.89542 
L 110.317961 58.806284 
L 110.417353 58.672579 
L 110.706219 58.583443 
L 110.78635 58.494307 
L 111.26469 58.405171 
L 111.314564 58.316035 
L 111.577425 58.226899 
L 111.594358 58.093194 
L 111.6871 58.093194 
L 112.12623 58.004058 
L 112.12623 57.95949 
L 112.488126 57.870354 
L 112.488126 57.825786 
L 113.144184 57.73665 
L 113.237069 57.469241 
L 113.397521 57.380105 
L 113.41348 57.290969 
L 113.498243 57.290969 
L 113.698784 57.201833 
L 113.698784 57.157265 
L 114.318719 57.068129 
L 114.335534 56.978992 
L 114.612644 56.889856 
L 114.612644 56.845288 
L 114.691706 56.845288 
L 115.148054 56.756152 
L 115.155488 56.667016 
L 115.188571 56.667016 
L 115.819573 56.57788 
L 115.901129 56.444175 
L 116.307033 56.355039 
L 116.307033 56.310471 
L 116.328004 56.310471 
L 116.509522 56.221335 
L 116.574145 56.087631 
L 116.736046 55.998495 
L 116.819217 55.909358 
L 116.823848 55.909358 
L 117.187311 55.820222 
L 117.245854 55.731086 
L 117.459291 55.64195 
L 117.523083 55.508246 
L 118.229419 55.419109 
L 118.279554 55.329973 
L 118.612784 55.240837 
L 118.612784 55.196269 
L 118.717235 55.196269 
L 119.147672 55.107133 
L 119.175554 54.928861 
L 119.257775 54.928861 
L 119.622569 54.839724 
L 119.622569 54.795156 
L 119.67534 54.795156 
L 119.964444 54.70602 
L 120.07172 54.527748 
L 120.339022 54.438612 
L 120.339022 54.394044 
L 120.437298 54.394044 
L 120.498904 54.304907 
L 120.585566 54.126635 
L 120.784778 54.037499 
L 120.784778 53.992931 
L 120.803944 53.992931 
L 121.369635 53.903795 
L 121.369635 53.859227 
L 121.805558 53.77009 
L 121.805558 53.725522 
L 121.907111 53.725522 
L 122.027094 53.636386 
L 122.137316 53.54725 
L 122.588605 53.458114 
L 122.588605 53.413546 
L 122.67978 53.413546 
L 122.916302 53.32441 
L 122.916302 53.279842 
L 123.008688 53.279842 
L 123.331587 53.190705 
L 123.331587 53.146137 
L 123.421123 53.146137 
L 123.643276 53.057001 
L 123.743974 52.967865 
L 124.650472 52.878729 
L 124.704075 52.789593 
L 124.724024 52.789593 
L 125.253568 52.700456 
L 125.331277 52.61132 
L 125.331538 52.61132 
L 126.280927 52.522184 
L 126.280927 52.477616 
L 126.376923 52.477616 
L 126.83681 52.38848 
L 126.936653 52.299344 
L 127.198682 52.210208 
L 127.294607 52.076503 
L 128.009089 51.987367 
L 128.009089 51.942799 
L 128.073616 51.942799 
L 128.548157 51.853663 
L 128.626696 51.719959 
L 128.640424 51.719959 
L 129.090312 51.630822 
L 129.090312 51.586254 
L 129.497474 51.497118 
L 129.572476 51.407982 
L 129.60449 51.407982 
L 129.782279 51.318846 
L 129.782279 51.274278 
L 130.438907 51.185142 
L 130.503886 51.051437 
L 130.831155 50.962301 
L 130.831155 50.917733 
L 130.835668 50.917733 
L 131.168827 50.828597 
L 131.168827 50.784029 
L 131.329326 50.694893 
L 131.366233 50.605757 
L 131.426296 50.605757 
L 132.181841 50.51662 
L 132.181841 50.472052 
L 132.844359 50.382916 
L 132.844359 50.338348 
L 133.133368 50.249212 
L 133.133368 50.204644 
L 133.22554 50.204644 
L 133.695758 50.115508 
L 133.783536 50.026371 
L 134.057416 49.937235 
L 134.112729 49.848099 
L 134.350818 49.758963 
L 134.438739 49.669827 
L 134.64365 49.580691 
L 134.739575 49.446986 
L 134.989777 49.35785 
L 135.08734 49.224146 
L 135.260142 49.13501 
L 135.260142 49.090442 
L 135.351483 49.090442 
L 135.887772 49.001306 
L 135.931139 48.912169 
L 135.954484 48.912169 
L 136.13415 48.823033 
L 136.202715 48.689329 
L 137.097694 48.600193 
L 137.132131 48.511057 
L 137.433061 48.421921 
L 137.433061 48.377352 
L 137.494335 48.377352 
L 138.050527 48.288216 
L 138.080475 48.19908 
L 138.497565 48.109944 
L 138.602229 48.020808 
L 138.991627 47.931672 
L 138.991627 47.887104 
L 139.655024 47.797967 
L 139.655024 47.753399 
L 139.670152 47.753399 
L 139.877439 47.664263 
L 139.877439 47.619695 
L 140.080118 47.530559 
L 140.123959 47.441423 
L 140.582896 47.352287 
L 140.582896 47.307718 
L 141.038128 47.218582 
L 141.038128 47.174014 
L 141.128376 47.174014 
L 141.843618 47.084878 
L 141.843618 47.04031 
L 142.643053 46.951174 
L 142.643053 46.906606 
L 142.70796 46.906606 
L 143.673689 46.81747 
L 143.747883 46.728333 
L 144.137637 46.639197 
L 144.188841 46.505493 
L 144.349246 46.416357 
L 144.397125 46.327221 
L 145.114053 46.238084 
L 145.150176 46.148948 
L 145.20461 46.148948 
L 145.560688 46.059812 
L 145.671408 45.926108 
L 146.005446 45.836972 
L 146.100112 45.747836 
L 146.111939 45.747836 
L 146.214822 45.658699 
L 146.246646 45.569563 
L 146.878884 45.480427 
L 146.878884 45.435859 
L 146.958279 45.435859 
L 147.59871 45.346723 
L 147.696178 45.213019 
L 148.585457 45.123882 
L 148.585457 45.079314 
L 148.694919 45.079314 
L 149.021713 44.990178 
L 149.021713 44.94561 
L 149.111415 44.94561 
L 149.926239 44.856474 
L 149.926239 44.811906 
L 150.017841 44.811906 
L 150.219784 44.72277 
L 150.293621 44.589065 
L 150.303952 44.589065 
L 150.425241 44.499929 
L 150.437876 44.410793 
L 150.477063 44.410793 
L 150.933696 44.321657 
L 150.933696 44.277089 
L 151.042706 44.277089 
L 151.96001 44.187953 
L 151.960675 44.098817 
L 153.249992 44.00968 
L 153.249992 43.965112 
L 153.358765 43.965112 
L 154.213607 43.875976 
L 154.296018 43.78684 
L 155.053178 43.697704 
L 155.080775 43.608568 
L 155.114665 43.608568 
L 156.13452 43.519431 
L 156.13452 43.474863 
L 156.189405 43.474863 
L 157.306205 43.385727 
L 157.370804 43.296591 
L 158.181329 43.207455 
L 158.181329 43.162887 
L 158.225907 43.162887 
L 159.59925 43.073751 
L 159.651 42.984614 
L 159.703368 42.984614 
L 159.926828 42.895478 
L 160.027668 42.806342 
L 160.423075 42.717206 
L 160.423075 42.672638 
L 160.530732 42.672638 
L 161.272288 42.583502 
L 161.272288 42.538934 
L 161.370635 42.538934 
L 162.094475 42.449797 
L 162.094475 42.405229 
L 162.193083 42.405229 
L 163.481022 42.316093 
L 163.481022 42.271525 
L 163.517668 42.271525 
L 163.695528 42.182389 
L 163.698236 42.093253 
L 164.48304 42.004117 
L 164.587277 41.91498 
L 164.99805 41.825844 
L 164.99805 41.781276 
L 165.50318 41.69214 
L 165.50318 41.647572 
L 165.588654 41.647572 
L 166.057756 41.558436 
L 166.057756 41.513868 
L 166.077421 41.513868 
L 166.549538 41.424732 
L 166.549538 41.380163 
L 166.563266 41.380163 
L 167.002989 41.291027 
L 167.057019 41.201891 
L 167.088202 41.201891 
L 167.776584 41.112755 
L 167.776584 41.068187 
L 167.825698 41.068187 
L 168.554525 40.979051 
L 168.640617 40.845346 
L 169.842488 40.75621 
L 169.842488 40.711642 
L 169.891768 40.711642 
L 170.32154 40.622506 
L 170.32154 40.577938 
L 170.763544 40.488802 
L 170.763544 40.444234 
L 171.288789 40.355098 
L 171.288789 40.31053 
L 171.385616 40.31053 
L 172.740505 40.221393 
L 172.749744 40.132257 
L 174.140353 40.043121 
L 174.244043 39.953985 
L 174.65104 39.864849 
L 174.65104 39.820281 
L 174.710722 39.820281 
L 175.233403 39.731144 
L 175.233403 39.686576 
L 175.302419 39.686576 
L 176.145838 39.59744 
L 176.145838 39.552872 
L 176.16137 39.552872 
L 177.34474 39.463736 
L 177.34474 39.419168 
L 177.37191 39.419168 
L 177.99783 39.330032 
L 177.99783 39.285464 
L 178.010939 39.285464 
L 178.823103 39.196327 
L 178.823103 39.151759 
L 178.909029 39.151759 
L 179.339348 39.062623 
L 179.339348 39.018055 
L 179.429311 39.018055 
L 180.080216 38.928919 
L 180.080216 38.884351 
L 181.620969 38.795215 
L 181.620969 38.750647 
L 182.273465 38.66151 
L 182.33063 38.572374 
L 182.521411 38.483238 
L 182.525852 38.394102 
L 182.613013 38.394102 
L 183.021339 38.304966 
L 183.021339 38.260398 
L 184.064824 38.171262 
L 184.064824 38.126693 
L 184.374115 38.037557 
L 184.374115 37.992989 
L 185.21067 37.903853 
L 185.21067 37.859285 
L 185.28541 37.859285 
L 185.74646 37.770149 
L 185.74646 37.725581 
L 186.259379 37.636445 
L 186.259379 37.591876 
L 186.62004 37.50274 
L 186.62004 37.458172 
L 187.292035 37.369036 
L 187.292035 37.324468 
L 188.059953 37.235332 
L 188.059953 37.190764 
L 188.66286 37.101628 
L 188.66286 37.057059 
L 190.321198 36.967923 
L 190.321198 36.923355 
L 190.951796 36.834219 
L 190.951796 36.789651 
L 191.029932 36.789651 
L 191.517986 36.700515 
L 191.517986 36.655947 
L 193.106286 36.566811 
L 193.106286 36.522242 
L 193.144475 36.522242 
L 193.967683 36.433106 
L 193.967683 36.388538 
L 194.002476 36.388538 
L 194.940893 36.299402 
L 194.940893 36.254834 
L 194.99053 36.254834 
L 196.047908 36.165698 
L 196.047908 36.12113 
L 196.835895 36.031994 
L 196.835895 35.987426 
L 196.928851 35.987426 
L 197.323735 35.898289 
L 197.323735 35.853721 
L 197.587854 35.764585 
L 197.623384 35.675449 
L 198.405599 35.586313 
L 198.405599 35.541745 
L 199.421701 35.452609 
L 199.479983 35.318904 
L 201.22864 35.229768 
L 201.296017 35.140632 
L 201.843421 35.051496 
L 201.843421 35.006928 
L 204.047477 34.917792 
L 204.063199 34.828655 
L 205.047761 34.739519 
L 205.135088 34.650383 
L 205.999501 34.561247 
L 205.999501 34.516679 
L 206.06885 34.516679 
L 207.349332 34.427543 
L 207.349332 34.382975 
L 207.774022 34.293838 
L 207.829145 34.160134 
L 208.72429 34.070998 
L 208.72429 34.02643 
L 208.802925 34.02643 
L 209.467818 33.937294 
L 209.467818 33.892726 
L 211.835151 33.803589 
L 211.854768 33.714453 
L 213.11333 33.625317 
L 213.11333 33.580749 
L 213.210513 33.580749 
L 214.243595 33.491613 
L 214.243595 33.447045 
L 214.327835 33.447045 
L 215.848188 33.357909 
L 215.848188 33.313341 
L 216.873148 33.224204 
L 216.89419 33.135068 
L 217.581859 33.045932 
L 217.581859 33.001364 
L 218.312752 32.912228 
L 218.312752 32.86766 
L 218.345598 32.86766 
L 219.194597 32.778524 
L 219.194597 32.733955 
L 220.517615 32.644819 
L 220.517615 32.600251 
L 220.599978 32.600251 
L 221.202743 32.511115 
L 221.202743 32.466547 
L 223.658733 32.377411 
L 223.658733 32.332843 
L 223.684668 32.332843 
L 224.713689 32.243707 
L 224.783727 32.15457 
L 224.796409 32.15457 
L 225.243519 32.065434 
L 225.243519 32.020866 
L 227.653981 31.93173 
L 227.653981 31.887162 
L 228.105959 31.798026 
L 228.105959 31.753458 
L 228.172031 31.753458 
L 229.379958 31.664322 
L 229.379958 31.619753 
L 229.424298 31.619753 
L 230.545919 31.530617 
L 230.545919 31.486049 
L 232.674593 31.396913 
L 232.674593 31.352345 
L 232.711405 31.352345 
L 234.500413 31.263209 
L 234.519983 31.174073 
L 236.337276 31.084936 
L 236.337276 31.040368 
L 236.948946 30.951232 
L 236.948946 30.906664 
L 237.572373 30.817528 
L 237.572373 30.77296 
L 238.849767 30.683824 
L 238.924935 30.594688 
L 240.917856 30.505551 
L 241.02556 30.416415 
L 241.028743 30.416415 
L 241.865322 30.327279 
L 241.865322 30.282711 
L 242.427925 30.193575 
L 242.427925 30.149007 
L 243.286757 30.059871 
L 243.286757 30.015302 
L 244.067334 29.926166 
L 244.067334 29.881598 
L 245.254172 29.792462 
L 245.254172 29.747894 
L 246.693681 29.658758 
L 246.693681 29.61419 
L 246.780319 29.61419 
L 247.573341 29.525054 
L 247.674348 29.391349 
L 249.279748 29.302213 
L 249.279748 29.257645 
L 249.354488 29.257645 
L 250.315989 29.168509 
L 250.315989 29.123941 
L 251.112265 29.034805 
L 251.112265 28.990237 
L 251.219542 28.990237 
L 252.481333 28.9011 
L 252.481333 28.856532 
L 255.356931 28.767396 
L 255.356931 28.722828 
L 255.40025 28.722828 
L 257.168501 28.633692 
L 257.168501 28.589124 
L 257.435137 28.499988 
L 257.435137 28.45542 
L 259.129384 28.366283 
L 259.129384 28.321715 
L 259.874575 28.232579 
L 259.874575 28.188011 
L 259.964823 28.188011 
L 261.249129 28.098875 
L 261.249129 28.054307 
L 263.100503 27.965171 
L 263.100503 27.920603 
L 263.156053 27.920603 
L 265.643108 27.831466 
L 265.643108 27.786898 
L 265.726042 27.786898 
L 266.681582 27.697762 
L 266.681582 27.653194 
L 269.617005 27.564058 
L 269.617005 27.51949 
L 269.652677 27.51949 
L 271.902973 27.430354 
L 271.902973 27.385786 
L 271.910335 27.385786 
L 276.789353 27.296649 
L 276.789353 27.252081 
L 276.876395 27.252081 
L 278.365232 27.162945 
L 278.365232 27.118377 
L 279.681742 27.029241 
L 279.681742 26.984673 
L 279.71967 26.984673 
L 282.023758 26.895537 
L 282.023758 26.895537 
" clip-path="url(#p3efb550308)" style="fill: none; stroke: #1f77b4; stroke-width: 1.5; stroke-linecap: round"/>
   </g>
   <g id="line2d_26">
    <path d="M 42.831699 265.022801 
L 282.023758 26.895537 
" clip-path="url(#p3efb550308)" style="fill: none; stroke-dasharray: 5.55,2.4; stroke-dashoffset: 0; stroke: #999999; stroke-width: 1.5"/>
   </g>
   <g id="patch_3">
    <path d="M 35.655938 265.022801 
L 35.655938 19.751719 
" style="fill: none"/>
   </g>
   <g id="patch_4">
    <path d="M 289.19952 265.022801 
L 289.19952 19.751719 
" style="fill: none"/>
   </g>
   <g id="patch_5">
    <path d="M 35.655938 265.022801 
L 289.19952 265.022801 
" style="fill: none"/>
   </g>
   <g id="patch_6">
    <path d="M 35.655938 19.751719 
L 289.19952 19.751719 
" style="fill: none"/>
   </g>
   <g id="text_15">
    <!-- Model 2: Receiver Operating Characteristic (ROC) Curve -->
    <g style="fill: #333333" transform="translate(42.14976 13.751719) scale(0.09 -0.09)">
     <defs>
      <path id="Arial-BoldMT-4d" d="M 453 0 
L 453 4581 
L 1838 4581 
L 2669 1456 
L 3491 4581 
L 4878 4581 
L 4878 0 
L 4019 0 
L 4019 3606 
L 3109 0 
L 2219 0 
L 1313 3606 
L 1313 0 
L 453 0 
z
" transform="scale(0.015625)"/>
      <path id="Arial-BoldMT-64" d="M 3503 0 
L 2688 0 
L 2688 488 
Q 2484 203 2207 64 
Q 1931 -75 1650 -75 
Q 1078 -75 670 386 
Q 263 847 263 1672 
Q 263 2516 659 2955 
Q 1056 3394 1663 3394 
Q 2219 3394 2625 2931 
L 2625 4581 
L 3503 4581 
L 3503 0 
z
M 1159 1731 
Q 1159 1200 1306 963 
Q 1519 619 1900 619 
Q 2203 619 2415 876 
Q 2628 1134 2628 1647 
Q 2628 2219 2422 2470 
Q 2216 2722 1894 2722 
Q 1581 2722 1370 2473 
Q 1159 2225 1159 1731 
z
" transform="scale(0.015625)"/>
      <path id="Arial-BoldMT-32" d="M 3238 816 
L 3238 0 
L 159 0 
Q 209 463 459 877 
Q 709 1291 1447 1975 
Q 2041 2528 2175 2725 
Q 2356 2997 2356 3263 
Q 2356 3556 2198 3714 
Q 2041 3872 1763 3872 
Q 1488 3872 1325 3706 
Q 1163 3541 1138 3156 
L 263 3244 
Q 341 3969 753 4284 
Q 1166 4600 1784 4600 
Q 2463 4600 2850 4234 
Q 3238 3869 3238 3325 
Q 3238 3016 3127 2736 
Q 3016 2456 2775 2150 
Q 2616 1947 2200 1565 
Q 1784 1184 1673 1059 
Q 1563 934 1494 816 
L 3238 816 
z
" transform="scale(0.015625)"/>
      <path id="Arial-BoldMT-3a" d="M 628 2441 
L 628 3319 
L 1506 3319 
L 1506 2441 
L 628 2441 
z
M 628 0 
L 628 878 
L 1506 878 
L 1506 0 
L 628 0 
z
" transform="scale(0.015625)"/>
      <path id="Arial-BoldMT-63" d="M 3353 2338 
L 2488 2181 
Q 2444 2441 2289 2572 
Q 2134 2703 1888 2703 
Q 1559 2703 1364 2476 
Q 1169 2250 1169 1719 
Q 1169 1128 1367 884 
Q 1566 641 1900 641 
Q 2150 641 2309 783 
Q 2469 925 2534 1272 
L 3397 1125 
Q 3263 531 2881 228 
Q 2500 -75 1859 -75 
Q 1131 -75 698 384 
Q 266 844 266 1656 
Q 266 2478 700 2936 
Q 1134 3394 1875 3394 
Q 2481 3394 2839 3133 
Q 3197 2872 3353 2338 
z
" transform="scale(0.015625)"/>
      <path id="Arial-BoldMT-4f" d="M 278 2263 
Q 278 2963 488 3438 
Q 644 3788 914 4066 
Q 1184 4344 1506 4478 
Q 1934 4659 2494 4659 
Q 3506 4659 4114 4031 
Q 4722 3403 4722 2284 
Q 4722 1175 4119 548 
Q 3516 -78 2506 -78 
Q 1484 -78 881 545 
Q 278 1169 278 2263 
z
M 1231 2294 
Q 1231 1516 1590 1114 
Q 1950 713 2503 713 
Q 3056 713 3411 1111 
Q 3766 1509 3766 2306 
Q 3766 3094 3420 3481 
Q 3075 3869 2503 3869 
Q 1931 3869 1581 3476 
Q 1231 3084 1231 2294 
z
" transform="scale(0.015625)"/>
      <path id="Arial-BoldMT-70" d="M 434 3319 
L 1253 3319 
L 1253 2831 
Q 1413 3081 1684 3237 
Q 1956 3394 2288 3394 
Q 2866 3394 3269 2941 
Q 3672 2488 3672 1678 
Q 3672 847 3265 386 
Q 2859 -75 2281 -75 
Q 2006 -75 1782 34 
Q 1559 144 1313 409 
L 1313 -1263 
L 434 -1263 
L 434 3319 
z
M 1303 1716 
Q 1303 1156 1525 889 
Q 1747 622 2066 622 
Q 2372 622 2575 867 
Q 2778 1113 2778 1672 
Q 2778 2194 2568 2447 
Q 2359 2700 2050 2700 
Q 1728 2700 1515 2451 
Q 1303 2203 1303 1716 
z
" transform="scale(0.015625)"/>
      <path id="Arial-BoldMT-6e" d="M 3478 0 
L 2600 0 
L 2600 1694 
Q 2600 2231 2544 2389 
Q 2488 2547 2361 2634 
Q 2234 2722 2056 2722 
Q 1828 2722 1647 2597 
Q 1466 2472 1398 2265 
Q 1331 2059 1331 1503 
L 1331 0 
L 453 0 
L 453 3319 
L 1269 3319 
L 1269 2831 
Q 1703 3394 2363 3394 
Q 2653 3394 2893 3289 
Q 3134 3184 3257 3021 
Q 3381 2859 3429 2653 
Q 3478 2447 3478 2063 
L 3478 0 
z
" transform="scale(0.015625)"/>
      <path id="Arial-BoldMT-67" d="M 378 -219 
L 1381 -341 
Q 1406 -516 1497 -581 
Q 1622 -675 1891 -675 
Q 2234 -675 2406 -572 
Q 2522 -503 2581 -350 
Q 2622 -241 2622 53 
L 2622 538 
Q 2228 0 1628 0 
Q 959 0 569 566 
Q 263 1013 263 1678 
Q 263 2513 664 2953 
Q 1066 3394 1663 3394 
Q 2278 3394 2678 2853 
L 2678 3319 
L 3500 3319 
L 3500 341 
Q 3500 -247 3403 -537 
Q 3306 -828 3131 -993 
Q 2956 -1159 2664 -1253 
Q 2372 -1347 1925 -1347 
Q 1081 -1347 728 -1058 
Q 375 -769 375 -325 
Q 375 -281 378 -219 
z
M 1163 1728 
Q 1163 1200 1367 954 
Q 1572 709 1872 709 
Q 2194 709 2416 961 
Q 2638 1213 2638 1706 
Q 2638 2222 2425 2472 
Q 2213 2722 1888 2722 
Q 1572 2722 1367 2476 
Q 1163 2231 1163 1728 
z
" transform="scale(0.015625)"/>
      <path id="Arial-BoldMT-43" d="M 3397 1684 
L 4294 1400 
Q 4088 650 3608 286 
Q 3128 -78 2391 -78 
Q 1478 -78 890 545 
Q 303 1169 303 2250 
Q 303 3394 893 4026 
Q 1484 4659 2447 4659 
Q 3288 4659 3813 4163 
Q 4125 3869 4281 3319 
L 3366 3100 
Q 3284 3456 3026 3662 
Q 2769 3869 2400 3869 
Q 1891 3869 1573 3503 
Q 1256 3138 1256 2319 
Q 1256 1450 1568 1081 
Q 1881 713 2381 713 
Q 2750 713 3015 947 
Q 3281 1181 3397 1684 
z
" transform="scale(0.015625)"/>
      <path id="Arial-BoldMT-68" d="M 1334 4581 
L 1334 2897 
Q 1759 3394 2350 3394 
Q 2653 3394 2897 3281 
Q 3141 3169 3264 2994 
Q 3388 2819 3433 2606 
Q 3478 2394 3478 1947 
L 3478 0 
L 2600 0 
L 2600 1753 
Q 2600 2275 2550 2415 
Q 2500 2556 2373 2639 
Q 2247 2722 2056 2722 
Q 1838 2722 1666 2615 
Q 1494 2509 1414 2295 
Q 1334 2081 1334 1663 
L 1334 0 
L 456 0 
L 456 4581 
L 1334 4581 
z
" transform="scale(0.015625)"/>
     </defs>
     <use xlink:href="#Arial-BoldMT-4d"/>
     <use xlink:href="#Arial-BoldMT-6f" transform="translate(83.300781 0)"/>
     <use xlink:href="#Arial-BoldMT-64" transform="translate(144.384766 0)"/>
     <use xlink:href="#Arial-BoldMT-65" transform="translate(205.46875 0)"/>
     <use xlink:href="#Arial-BoldMT-6c" transform="translate(261.083984 0)"/>
     <use xlink:href="#Arial-BoldMT-20" transform="translate(288.867188 0)"/>
     <use xlink:href="#Arial-BoldMT-32" transform="translate(316.650391 0)"/>
     <use xlink:href="#Arial-BoldMT-3a" transform="translate(372.265625 0)"/>
     <use xlink:href="#Arial-BoldMT-20" transform="translate(405.566406 0)"/>
     <use xlink:href="#Arial-BoldMT-52" transform="translate(433.349609 0)"/>
     <use xlink:href="#Arial-BoldMT-65" transform="translate(505.566406 0)"/>
     <use xlink:href="#Arial-BoldMT-63" transform="translate(561.181641 0)"/>
     <use xlink:href="#Arial-BoldMT-65" transform="translate(616.796875 0)"/>
     <use xlink:href="#Arial-BoldMT-69" transform="translate(672.412109 0)"/>
     <use xlink:href="#Arial-BoldMT-76" transform="translate(700.195312 0)"/>
     <use xlink:href="#Arial-BoldMT-65" transform="translate(755.810547 0)"/>
     <use xlink:href="#Arial-BoldMT-72" transform="translate(811.425781 0)"/>
     <use xlink:href="#Arial-BoldMT-20" transform="translate(850.341797 0)"/>
     <use xlink:href="#Arial-BoldMT-4f" transform="translate(878.125 0)"/>
     <use xlink:href="#Arial-BoldMT-70" transform="translate(955.908203 0)"/>
     <use xlink:href="#Arial-BoldMT-65" transform="translate(1016.992188 0)"/>
     <use xlink:href="#Arial-BoldMT-72" transform="translate(1072.607422 0)"/>
     <use xlink:href="#Arial-BoldMT-61" transform="translate(1111.523438 0)"/>
     <use xlink:href="#Arial-BoldMT-74" transform="translate(1167.138672 0)"/>
     <use xlink:href="#Arial-BoldMT-69" transform="translate(1200.439453 0)"/>
     <use xlink:href="#Arial-BoldMT-6e" transform="translate(1228.222656 0)"/>
     <use xlink:href="#Arial-BoldMT-67" transform="translate(1289.306641 0)"/>
     <use xlink:href="#Arial-BoldMT-20" transform="translate(1350.390625 0)"/>
     <use xlink:href="#Arial-BoldMT-43" transform="translate(1378.173828 0)"/>
     <use xlink:href="#Arial-BoldMT-68" transform="translate(1450.390625 0)"/>
     <use xlink:href="#Arial-BoldMT-61" transform="translate(1511.474609 0)"/>
     <use xlink:href="#Arial-BoldMT-72" transform="translate(1567.089844 0)"/>
     <use xlink:href="#Arial-BoldMT-61" transform="translate(1606.005859 0)"/>
     <use xlink:href="#Arial-BoldMT-63" transform="translate(1661.621094 0)"/>
     <use xlink:href="#Arial-BoldMT-74" transform="translate(1717.236328 0)"/>
     <use xlink:href="#Arial-BoldMT-65" transform="translate(1750.537109 0)"/>
     <use xlink:href="#Arial-BoldMT-72" transform="translate(1806.152344 0)"/>
     <use xlink:href="#Arial-BoldMT-69" transform="translate(1845.068359 0)"/>
     <use xlink:href="#Arial-BoldMT-73" transform="translate(1872.851562 0)"/>
     <use xlink:href="#Arial-BoldMT-74" transform="translate(1928.466797 0)"/>
     <use xlink:href="#Arial-BoldMT-69" transform="translate(1961.767578 0)"/>
     <use xlink:href="#Arial-BoldMT-63" transform="translate(1989.550781 0)"/>
     <use xlink:href="#Arial-BoldMT-20" transform="translate(2045.166016 0)"/>
     <use xlink:href="#Arial-BoldMT-28" transform="translate(2072.949219 0)"/>
     <use xlink:href="#Arial-BoldMT-52" transform="translate(2106.25 0)"/>
     <use xlink:href="#Arial-BoldMT-4f" transform="translate(2178.466797 0)"/>
     <use xlink:href="#Arial-BoldMT-43" transform="translate(2256.25 0)"/>
     <use xlink:href="#Arial-BoldMT-29" transform="translate(2328.466797 0)"/>
     <use xlink:href="#Arial-BoldMT-20" transform="translate(2361.767578 0)"/>
     <use xlink:href="#Arial-BoldMT-43" transform="translate(2389.550781 0)"/>
     <use xlink:href="#Arial-BoldMT-75" transform="translate(2461.767578 0)"/>
     <use xlink:href="#Arial-BoldMT-72" transform="translate(2522.851562 0)"/>
     <use xlink:href="#Arial-BoldMT-76" transform="translate(2561.767578 0)"/>
     <use xlink:href="#Arial-BoldMT-65" transform="translate(2617.382812 0)"/>
    </g>
   </g>
   <g id="legend_1">
    <g id="patch_7">
     <path d="M 182.577645 260.522801 
L 282.89952 260.522801 
Q 284.69952 260.522801 284.69952 258.722801 
L 284.69952 234.161239 
Q 284.69952 232.361239 282.89952 232.361239 
L 182.577645 232.361239 
Q 180.777645 232.361239 180.777645 234.161239 
L 180.777645 258.722801 
Q 180.777645 260.522801 182.577645 260.522801 
z
" style="fill: #ffffff; opacity: 0.8; stroke: #cccccc; stroke-width: 0.75; stroke-linejoin: miter"/>
    </g>
    <g id="line2d_27">
     <path d="M 184.377645 239.25327 
L 193.377645 239.25327 
L 202.377645 239.25327 
" style="fill: none; stroke: #1f77b4; stroke-width: 1.5; stroke-linecap: round"/>
    </g>
    <g id="text_16">
     <!-- ROC curve -->
     <g style="fill: #333333" transform="translate(209.577645 242.40327) scale(0.09 -0.09)">
      <defs>
       <path id="ArialMT-52" d="M 503 0 
L 503 4581 
L 2534 4581 
Q 3147 4581 3465 4457 
Q 3784 4334 3975 4021 
Q 4166 3709 4166 3331 
Q 4166 2844 3850 2509 
Q 3534 2175 2875 2084 
Q 3116 1969 3241 1856 
Q 3506 1613 3744 1247 
L 4541 0 
L 3778 0 
L 3172 953 
Q 2906 1366 2734 1584 
Q 2563 1803 2427 1890 
Q 2291 1978 2150 2013 
Q 2047 2034 1813 2034 
L 1109 2034 
L 1109 0 
L 503 0 
z
M 1109 2559 
L 2413 2559 
Q 2828 2559 3062 2645 
Q 3297 2731 3419 2920 
Q 3541 3109 3541 3331 
Q 3541 3656 3305 3865 
Q 3069 4075 2559 4075 
L 1109 4075 
L 1109 2559 
z
" transform="scale(0.015625)"/>
       <path id="ArialMT-4f" d="M 309 2231 
Q 309 3372 921 4017 
Q 1534 4663 2503 4663 
Q 3138 4663 3647 4359 
Q 4156 4056 4423 3514 
Q 4691 2972 4691 2284 
Q 4691 1588 4409 1038 
Q 4128 488 3612 205 
Q 3097 -78 2500 -78 
Q 1853 -78 1343 234 
Q 834 547 571 1087 
Q 309 1628 309 2231 
z
M 934 2222 
Q 934 1394 1379 917 
Q 1825 441 2497 441 
Q 3181 441 3623 922 
Q 4066 1403 4066 2288 
Q 4066 2847 3877 3264 
Q 3688 3681 3323 3911 
Q 2959 4141 2506 4141 
Q 1863 4141 1398 3698 
Q 934 3256 934 2222 
z
" transform="scale(0.015625)"/>
       <path id="ArialMT-43" d="M 3763 1606 
L 4369 1453 
Q 4178 706 3683 314 
Q 3188 -78 2472 -78 
Q 1731 -78 1267 223 
Q 803 525 561 1097 
Q 319 1669 319 2325 
Q 319 3041 592 3573 
Q 866 4106 1370 4382 
Q 1875 4659 2481 4659 
Q 3169 4659 3637 4309 
Q 4106 3959 4291 3325 
L 3694 3184 
Q 3534 3684 3231 3912 
Q 2928 4141 2469 4141 
Q 1941 4141 1586 3887 
Q 1231 3634 1087 3207 
Q 944 2781 944 2328 
Q 944 1744 1114 1308 
Q 1284 872 1643 656 
Q 2003 441 2422 441 
Q 2931 441 3284 734 
Q 3638 1028 3763 1606 
z
" transform="scale(0.015625)"/>
       <path id="ArialMT-20" transform="scale(0.015625)"/>
       <path id="ArialMT-63" d="M 2588 1216 
L 3141 1144 
Q 3050 572 2676 248 
Q 2303 -75 1759 -75 
Q 1078 -75 664 370 
Q 250 816 250 1647 
Q 250 2184 428 2587 
Q 606 2991 970 3192 
Q 1334 3394 1763 3394 
Q 2303 3394 2647 3120 
Q 2991 2847 3088 2344 
L 2541 2259 
Q 2463 2594 2264 2762 
Q 2066 2931 1784 2931 
Q 1359 2931 1093 2626 
Q 828 2322 828 1663 
Q 828 994 1084 691 
Q 1341 388 1753 388 
Q 2084 388 2306 591 
Q 2528 794 2588 1216 
z
" transform="scale(0.015625)"/>
       <path id="ArialMT-75" d="M 2597 0 
L 2597 488 
Q 2209 -75 1544 -75 
Q 1250 -75 995 37 
Q 741 150 617 320 
Q 494 491 444 738 
Q 409 903 409 1263 
L 409 3319 
L 972 3319 
L 972 1478 
Q 972 1038 1006 884 
Q 1059 663 1231 536 
Q 1403 409 1656 409 
Q 1909 409 2131 539 
Q 2353 669 2445 892 
Q 2538 1116 2538 1541 
L 2538 3319 
L 3100 3319 
L 3100 0 
L 2597 0 
z
" transform="scale(0.015625)"/>
       <path id="ArialMT-72" d="M 416 0 
L 416 3319 
L 922 3319 
L 922 2816 
Q 1116 3169 1280 3281 
Q 1444 3394 1641 3394 
Q 1925 3394 2219 3213 
L 2025 2691 
Q 1819 2813 1613 2813 
Q 1428 2813 1281 2702 
Q 1134 2591 1072 2394 
Q 978 2094 978 1738 
L 978 0 
L 416 0 
z
" transform="scale(0.015625)"/>
       <path id="ArialMT-76" d="M 1344 0 
L 81 3319 
L 675 3319 
L 1388 1331 
Q 1503 1009 1600 663 
Q 1675 925 1809 1294 
L 2547 3319 
L 3125 3319 
L 1869 0 
L 1344 0 
z
" transform="scale(0.015625)"/>
       <path id="ArialMT-65" d="M 2694 1069 
L 3275 997 
Q 3138 488 2766 206 
Q 2394 -75 1816 -75 
Q 1088 -75 661 373 
Q 234 822 234 1631 
Q 234 2469 665 2931 
Q 1097 3394 1784 3394 
Q 2450 3394 2872 2941 
Q 3294 2488 3294 1666 
Q 3294 1616 3291 1516 
L 816 1516 
Q 847 969 1125 678 
Q 1403 388 1819 388 
Q 2128 388 2347 550 
Q 2566 713 2694 1069 
z
M 847 1978 
L 2700 1978 
Q 2663 2397 2488 2606 
Q 2219 2931 1791 2931 
Q 1403 2931 1139 2672 
Q 875 2413 847 1978 
z
" transform="scale(0.015625)"/>
      </defs>
      <use xlink:href="#ArialMT-52"/>
      <use xlink:href="#ArialMT-4f" transform="translate(72.216797 0)"/>
      <use xlink:href="#ArialMT-43" transform="translate(150 0)"/>
      <use xlink:href="#ArialMT-20" transform="translate(222.216797 0)"/>
      <use xlink:href="#ArialMT-63" transform="translate(250 0)"/>
      <use xlink:href="#ArialMT-75" transform="translate(300 0)"/>
      <use xlink:href="#ArialMT-72" transform="translate(355.615234 0)"/>
      <use xlink:href="#ArialMT-76" transform="translate(388.916016 0)"/>
      <use xlink:href="#ArialMT-65" transform="translate(438.916016 0)"/>
     </g>
    </g>
    <g id="line2d_28">
     <path d="M 184.377645 251.984051 
L 193.377645 251.984051 
L 202.377645 251.984051 
" style="fill: none; stroke-dasharray: 5.55,2.4; stroke-dashoffset: 0; stroke: #999999; stroke-width: 1.5"/>
    </g>
    <g id="text_17">
     <!-- Random classifier -->
     <g style="fill: #333333" transform="translate(209.577645 255.134051) scale(0.09 -0.09)">
      <defs>
       <path id="ArialMT-61" d="M 2588 409 
Q 2275 144 1986 34 
Q 1697 -75 1366 -75 
Q 819 -75 525 192 
Q 231 459 231 875 
Q 231 1119 342 1320 
Q 453 1522 633 1644 
Q 813 1766 1038 1828 
Q 1203 1872 1538 1913 
Q 2219 1994 2541 2106 
Q 2544 2222 2544 2253 
Q 2544 2597 2384 2738 
Q 2169 2928 1744 2928 
Q 1347 2928 1158 2789 
Q 969 2650 878 2297 
L 328 2372 
Q 403 2725 575 2942 
Q 747 3159 1072 3276 
Q 1397 3394 1825 3394 
Q 2250 3394 2515 3294 
Q 2781 3194 2906 3042 
Q 3031 2891 3081 2659 
Q 3109 2516 3109 2141 
L 3109 1391 
Q 3109 606 3145 398 
Q 3181 191 3288 0 
L 2700 0 
Q 2613 175 2588 409 
z
M 2541 1666 
Q 2234 1541 1622 1453 
Q 1275 1403 1131 1340 
Q 988 1278 909 1158 
Q 831 1038 831 891 
Q 831 666 1001 516 
Q 1172 366 1500 366 
Q 1825 366 2078 508 
Q 2331 650 2450 897 
Q 2541 1088 2541 1459 
L 2541 1666 
z
" transform="scale(0.015625)"/>
       <path id="ArialMT-6e" d="M 422 0 
L 422 3319 
L 928 3319 
L 928 2847 
Q 1294 3394 1984 3394 
Q 2284 3394 2536 3286 
Q 2788 3178 2913 3003 
Q 3038 2828 3088 2588 
Q 3119 2431 3119 2041 
L 3119 0 
L 2556 0 
L 2556 2019 
Q 2556 2363 2490 2533 
Q 2425 2703 2258 2804 
Q 2091 2906 1866 2906 
Q 1506 2906 1245 2678 
Q 984 2450 984 1813 
L 984 0 
L 422 0 
z
" transform="scale(0.015625)"/>
       <path id="ArialMT-64" d="M 2575 0 
L 2575 419 
Q 2259 -75 1647 -75 
Q 1250 -75 917 144 
Q 584 363 401 755 
Q 219 1147 219 1656 
Q 219 2153 384 2558 
Q 550 2963 881 3178 
Q 1213 3394 1622 3394 
Q 1922 3394 2156 3267 
Q 2391 3141 2538 2938 
L 2538 4581 
L 3097 4581 
L 3097 0 
L 2575 0 
z
M 797 1656 
Q 797 1019 1065 703 
Q 1334 388 1700 388 
Q 2069 388 2326 689 
Q 2584 991 2584 1609 
Q 2584 2291 2321 2609 
Q 2059 2928 1675 2928 
Q 1300 2928 1048 2622 
Q 797 2316 797 1656 
z
" transform="scale(0.015625)"/>
       <path id="ArialMT-6f" d="M 213 1659 
Q 213 2581 725 3025 
Q 1153 3394 1769 3394 
Q 2453 3394 2887 2945 
Q 3322 2497 3322 1706 
Q 3322 1066 3130 698 
Q 2938 331 2570 128 
Q 2203 -75 1769 -75 
Q 1072 -75 642 372 
Q 213 819 213 1659 
z
M 791 1659 
Q 791 1022 1069 705 
Q 1347 388 1769 388 
Q 2188 388 2466 706 
Q 2744 1025 2744 1678 
Q 2744 2294 2464 2611 
Q 2184 2928 1769 2928 
Q 1347 2928 1069 2612 
Q 791 2297 791 1659 
z
" transform="scale(0.015625)"/>
       <path id="ArialMT-6d" d="M 422 0 
L 422 3319 
L 925 3319 
L 925 2853 
Q 1081 3097 1340 3245 
Q 1600 3394 1931 3394 
Q 2300 3394 2536 3241 
Q 2772 3088 2869 2813 
Q 3263 3394 3894 3394 
Q 4388 3394 4653 3120 
Q 4919 2847 4919 2278 
L 4919 0 
L 4359 0 
L 4359 2091 
Q 4359 2428 4304 2576 
Q 4250 2725 4106 2815 
Q 3963 2906 3769 2906 
Q 3419 2906 3187 2673 
Q 2956 2441 2956 1928 
L 2956 0 
L 2394 0 
L 2394 2156 
Q 2394 2531 2256 2718 
Q 2119 2906 1806 2906 
Q 1569 2906 1367 2781 
Q 1166 2656 1075 2415 
Q 984 2175 984 1722 
L 984 0 
L 422 0 
z
" transform="scale(0.015625)"/>
       <path id="ArialMT-6c" d="M 409 0 
L 409 4581 
L 972 4581 
L 972 0 
L 409 0 
z
" transform="scale(0.015625)"/>
       <path id="ArialMT-73" d="M 197 991 
L 753 1078 
Q 800 744 1014 566 
Q 1228 388 1613 388 
Q 2000 388 2187 545 
Q 2375 703 2375 916 
Q 2375 1106 2209 1216 
Q 2094 1291 1634 1406 
Q 1016 1563 777 1677 
Q 538 1791 414 1992 
Q 291 2194 291 2438 
Q 291 2659 392 2848 
Q 494 3038 669 3163 
Q 800 3259 1026 3326 
Q 1253 3394 1513 3394 
Q 1903 3394 2198 3281 
Q 2494 3169 2634 2976 
Q 2775 2784 2828 2463 
L 2278 2388 
Q 2241 2644 2061 2787 
Q 1881 2931 1553 2931 
Q 1166 2931 1000 2803 
Q 834 2675 834 2503 
Q 834 2394 903 2306 
Q 972 2216 1119 2156 
Q 1203 2125 1616 2013 
Q 2213 1853 2448 1751 
Q 2684 1650 2818 1456 
Q 2953 1263 2953 975 
Q 2953 694 2789 445 
Q 2625 197 2315 61 
Q 2006 -75 1616 -75 
Q 969 -75 630 194 
Q 291 463 197 991 
z
" transform="scale(0.015625)"/>
       <path id="ArialMT-69" d="M 425 3934 
L 425 4581 
L 988 4581 
L 988 3934 
L 425 3934 
z
M 425 0 
L 425 3319 
L 988 3319 
L 988 0 
L 425 0 
z
" transform="scale(0.015625)"/>
       <path id="ArialMT-66" d="M 556 0 
L 556 2881 
L 59 2881 
L 59 3319 
L 556 3319 
L 556 3672 
Q 556 4006 616 4169 
Q 697 4388 901 4523 
Q 1106 4659 1475 4659 
Q 1713 4659 2000 4603 
L 1916 4113 
Q 1741 4144 1584 4144 
Q 1328 4144 1222 4034 
Q 1116 3925 1116 3625 
L 1116 3319 
L 1763 3319 
L 1763 2881 
L 1116 2881 
L 1116 0 
L 556 0 
z
" transform="scale(0.015625)"/>
      </defs>
      <use xlink:href="#ArialMT-52"/>
      <use xlink:href="#ArialMT-61" transform="translate(72.216797 0)"/>
      <use xlink:href="#ArialMT-6e" transform="translate(127.832031 0)"/>
      <use xlink:href="#ArialMT-64" transform="translate(183.447266 0)"/>
      <use xlink:href="#ArialMT-6f" transform="translate(239.0625 0)"/>
      <use xlink:href="#ArialMT-6d" transform="translate(294.677734 0)"/>
      <use xlink:href="#ArialMT-20" transform="translate(377.978516 0)"/>
      <use xlink:href="#ArialMT-63" transform="translate(405.761719 0)"/>
      <use xlink:href="#ArialMT-6c" transform="translate(455.761719 0)"/>
      <use xlink:href="#ArialMT-61" transform="translate(477.978516 0)"/>
      <use xlink:href="#ArialMT-73" transform="translate(533.59375 0)"/>
      <use xlink:href="#ArialMT-73" transform="translate(583.59375 0)"/>
      <use xlink:href="#ArialMT-69" transform="translate(633.59375 0)"/>
      <use xlink:href="#ArialMT-66" transform="translate(655.810547 0)"/>
      <use xlink:href="#ArialMT-69" transform="translate(683.59375 0)"/>
      <use xlink:href="#ArialMT-65" transform="translate(705.810547 0)"/>
      <use xlink:href="#ArialMT-72" transform="translate(761.425781 0)"/>
     </g>
    </g>
   </g>
  </g>
 </g>
 <defs>
  <clipPath id="p3efb550308">
   <rect x="35.655938" y="19.751719" width="253.543583" height="245.271083"/>
  </clipPath>
 </defs>
</svg>
