<?xml version="1.0" encoding="utf-8" standalone="no"?>
<!DOCTYPE svg PUBLIC "-//W3C//DTD SVG 1.1//EN"
  "http://www.w3.org/Graphics/SVG/1.1/DTD/svg11.dtd">
<svg xmlns:xlink="http://www.w3.org/1999/xlink" width="296.39952pt" height="296.39952pt" viewBox="0 0 296.39952 296.39952" xmlns="http://www.w3.org/2000/svg" version="1.1">
 <metadata>
  <rdf:RDF xmlns:dc="http://purl.org/dc/elements/1.1/" xmlns:cc="http://creativecommons.org/ns#" xmlns:rdf="http://www.w3.org/1999/02/22-rdf-syntax-ns#">
   <cc:Work>
    <dc:type rdf:resource="http://purl.org/dc/dcmitype/StillImage"/>
    <dc:date>2025-12-31T21:20:17.594684</dc:date>
    <dc:format>image/svg+xml</dc:format>
    <dc:creator>
     <cc:Agent>
      <dc:title>Matplotlib v3.10.8, https://matplotlib.org/</dc:title>
     </cc:Agent>
    </dc:creator>
   </cc:Work>
  </rdf:RDF>
 </metadata>
 <defs>
  <style type="text/css">*{stroke-linejoin: round; stroke-linecap: butt}</style>
 </defs>
 <g id="figure_1">
  <g id="patch_1">
   <path d="M 0 296.39952 
L 296.39952 296.39952 
L 296.39952 0 
L 0 0 
z
" style="fill: #ffffff"/>
  </g>
  <g id="axes_1">
   <g id="patch_2">
    <path d="M 35.655938 265.022801 
L 289.19952 265.022801 
L 289.19952 19.751719 
L 35.655938 19.751719 
z
" style="fill: #ffffff"/>
   </g>
   <g id="matplotlib.axis_1">
    <g id="xtick_1">
     <g id="line2d_1">
      <path d="M 42.831699 265.022801 
L 42.831699 19.751719 
" clip-path="url(#p69a1fbc1db)" style="fill: none; stroke: #c0c0c0; stroke-width: 0.25; stroke-linecap: round"/>
     </g>
     <g id="line2d_2"/>
     <g id="text_1">
      <!-- 0.0 -->
      <g style="fill: #333333" transform="translate(36.576699 274.964832) scale(0.09 -0.09)">
       <defs>
        <path id="ArialMT-30" d="M 266 2259 
Q 266 3072 433 3567 
Q 600 4063 929 4331 
Q 1259 4600 1759 4600 
Q 2128 4600 2406 4451 
Q 2684 4303 2865 4023 
Q 3047 3744 3150 3342 
Q 3253 2941 3253 2259 
Q 3253 1453 3087 958 
Q 2922 463 2592 192 
Q 2263 -78 1759 -78 
Q 1097 -78 719 397 
Q 266 969 266 2259 
z
M 844 2259 
Q 844 1131 1108 757 
Q 1372 384 1759 384 
Q 2147 384 2411 759 
Q 2675 1134 2675 2259 
Q 2675 3391 2411 3762 
Q 2147 4134 1753 4134 
Q 1366 4134 1134 3806 
Q 844 3388 844 2259 
z
" transform="scale(0.015625)"/>
        <path id="ArialMT-2e" d="M 581 0 
L 581 641 
L 1222 641 
L 1222 0 
L 581 0 
z
" transform="scale(0.015625)"/>
       </defs>
       <use xlink:href="#ArialMT-30"/>
       <use xlink:href="#ArialMT-2e" transform="translate(55.615234 0)"/>
       <use xlink:href="#ArialMT-30" transform="translate(83.398438 0)"/>
      </g>
     </g>
    </g>
    <g id="xtick_2">
     <g id="line2d_3">
      <path d="M 90.670111 265.022801 
L 90.670111 19.751719 
" clip-path="url(#p69a1fbc1db)" style="fill: none; stroke: #c0c0c0; stroke-width: 0.25; stroke-linecap: round"/>
     </g>
     <g id="line2d_4"/>
     <g id="text_2">
      <!-- 0.2 -->
      <g style="fill: #333333" transform="translate(84.415111 274.964832) scale(0.09 -0.09)">
       <defs>
        <path id="ArialMT-32" d="M 3222 541 
L 3222 0 
L 194 0 
Q 188 203 259 391 
Q 375 700 629 1000 
Q 884 1300 1366 1694 
Q 2113 2306 2375 2664 
Q 2638 3022 2638 3341 
Q 2638 3675 2398 3904 
Q 2159 4134 1775 4134 
Q 1369 4134 1125 3890 
Q 881 3647 878 3216 
L 300 3275 
Q 359 3922 746 4261 
Q 1134 4600 1788 4600 
Q 2447 4600 2831 4234 
Q 3216 3869 3216 3328 
Q 3216 3053 3103 2787 
Q 2991 2522 2730 2228 
Q 2469 1934 1863 1422 
Q 1356 997 1212 845 
Q 1069 694 975 541 
L 3222 541 
z
" transform="scale(0.015625)"/>
       </defs>
       <use xlink:href="#ArialMT-30"/>
       <use xlink:href="#ArialMT-2e" transform="translate(55.615234 0)"/>
       <use xlink:href="#ArialMT-32" transform="translate(83.398438 0)"/>
      </g>
     </g>
    </g>
    <g id="xtick_3">
     <g id="line2d_5">
      <path d="M 138.508523 265.022801 
L 138.508523 19.751719 
" clip-path="url(#p69a1fbc1db)" style="fill: none; stroke: #c0c0c0; stroke-width: 0.25; stroke-linecap: round"/>
     </g>
     <g id="line2d_6"/>
     <g id="text_3">
      <!-- 0.4 -->
      <g style="fill: #333333" transform="translate(132.253523 274.964832) scale(0.09 -0.09)">
       <defs>
        <path id="ArialMT-34" d="M 2069 0 
L 2069 1097 
L 81 1097 
L 81 1613 
L 2172 4581 
L 2631 4581 
L 2631 1613 
L 3250 1613 
L 3250 1097 
L 2631 1097 
L 2631 0 
L 2069 0 
z
M 2069 1613 
L 2069 3678 
L 634 1613 
L 2069 1613 
z
" transform="scale(0.015625)"/>
       </defs>
       <use xlink:href="#ArialMT-30"/>
       <use xlink:href="#ArialMT-2e" transform="translate(55.615234 0)"/>
       <use xlink:href="#ArialMT-34" transform="translate(83.398438 0)"/>
      </g>
     </g>
    </g>
    <g id="xtick_4">
     <g id="line2d_7">
      <path d="M 186.346935 265.022801 
L 186.346935 19.751719 
" clip-path="url(#p69a1fbc1db)" style="fill: none; stroke: #c0c0c0; stroke-width: 0.25; stroke-linecap: round"/>
     </g>
     <g id="line2d_8"/>
     <g id="text_4">
      <!-- 0.6 -->
      <g style="fill: #333333" transform="translate(180.091935 274.964832) scale(0.09 -0.09)">
       <defs>
        <path id="ArialMT-36" d="M 3184 3459 
L 2625 3416 
Q 2550 3747 2413 3897 
Q 2184 4138 1850 4138 
Q 1581 4138 1378 3988 
Q 1113 3794 959 3422 
Q 806 3050 800 2363 
Q 1003 2672 1297 2822 
Q 1591 2972 1913 2972 
Q 2475 2972 2870 2558 
Q 3266 2144 3266 1488 
Q 3266 1056 3080 686 
Q 2894 316 2569 119 
Q 2244 -78 1831 -78 
Q 1128 -78 684 439 
Q 241 956 241 2144 
Q 241 3472 731 4075 
Q 1159 4600 1884 4600 
Q 2425 4600 2770 4297 
Q 3116 3994 3184 3459 
z
M 888 1484 
Q 888 1194 1011 928 
Q 1134 663 1356 523 
Q 1578 384 1822 384 
Q 2178 384 2434 671 
Q 2691 959 2691 1453 
Q 2691 1928 2437 2201 
Q 2184 2475 1800 2475 
Q 1419 2475 1153 2201 
Q 888 1928 888 1484 
z
" transform="scale(0.015625)"/>
       </defs>
       <use xlink:href="#ArialMT-30"/>
       <use xlink:href="#ArialMT-2e" transform="translate(55.615234 0)"/>
       <use xlink:href="#ArialMT-36" transform="translate(83.398438 0)"/>
      </g>
     </g>
    </g>
    <g id="xtick_5">
     <g id="line2d_9">
      <path d="M 234.185346 265.022801 
L 234.185346 19.751719 
" clip-path="url(#p69a1fbc1db)" style="fill: none; stroke: #c0c0c0; stroke-width: 0.25; stroke-linecap: round"/>
     </g>
     <g id="line2d_10"/>
     <g id="text_5">
      <!-- 0.8 -->
      <g style="fill: #333333" transform="translate(227.930346 274.964832) scale(0.09 -0.09)">
       <defs>
        <path id="ArialMT-38" d="M 1131 2484 
Q 781 2613 612 2850 
Q 444 3088 444 3419 
Q 444 3919 803 4259 
Q 1163 4600 1759 4600 
Q 2359 4600 2725 4251 
Q 3091 3903 3091 3403 
Q 3091 3084 2923 2848 
Q 2756 2613 2416 2484 
Q 2838 2347 3058 2040 
Q 3278 1734 3278 1309 
Q 3278 722 2862 322 
Q 2447 -78 1769 -78 
Q 1091 -78 675 323 
Q 259 725 259 1325 
Q 259 1772 486 2073 
Q 713 2375 1131 2484 
z
M 1019 3438 
Q 1019 3113 1228 2906 
Q 1438 2700 1772 2700 
Q 2097 2700 2305 2904 
Q 2513 3109 2513 3406 
Q 2513 3716 2298 3927 
Q 2084 4138 1766 4138 
Q 1444 4138 1231 3931 
Q 1019 3725 1019 3438 
z
M 838 1322 
Q 838 1081 952 856 
Q 1066 631 1291 507 
Q 1516 384 1775 384 
Q 2178 384 2440 643 
Q 2703 903 2703 1303 
Q 2703 1709 2433 1975 
Q 2163 2241 1756 2241 
Q 1359 2241 1098 1978 
Q 838 1716 838 1322 
z
" transform="scale(0.015625)"/>
       </defs>
       <use xlink:href="#ArialMT-30"/>
       <use xlink:href="#ArialMT-2e" transform="translate(55.615234 0)"/>
       <use xlink:href="#ArialMT-38" transform="translate(83.398438 0)"/>
      </g>
     </g>
    </g>
    <g id="xtick_6">
     <g id="line2d_11">
      <path d="M 282.023758 265.022801 
L 282.023758 19.751719 
" clip-path="url(#p69a1fbc1db)" style="fill: none; stroke: #c0c0c0; stroke-width: 0.25; stroke-linecap: round"/>
     </g>
     <g id="line2d_12"/>
     <g id="text_6">
      <!-- 1.0 -->
      <g style="fill: #333333" transform="translate(275.768758 274.964832) scale(0.09 -0.09)">
       <defs>
        <path id="ArialMT-31" d="M 2384 0 
L 1822 0 
L 1822 3584 
Q 1619 3391 1289 3197 
Q 959 3003 697 2906 
L 697 3450 
Q 1169 3672 1522 3987 
Q 1875 4303 2022 4600 
L 2384 4600 
L 2384 0 
z
" transform="scale(0.015625)"/>
       </defs>
       <use xlink:href="#ArialMT-31"/>
       <use xlink:href="#ArialMT-2e" transform="translate(55.615234 0)"/>
       <use xlink:href="#ArialMT-30" transform="translate(83.398438 0)"/>
      </g>
     </g>
    </g>
    <g id="text_7">
     <!-- False Positive Rate (FPR) -->
     <g style="fill: #333333" transform="translate(108.165463 287.305301) scale(0.09 -0.09)">
      <defs>
       <path id="Arial-BoldMT-46" d="M 472 0 
L 472 4581 
L 3613 4581 
L 3613 3806 
L 1397 3806 
L 1397 2722 
L 3309 2722 
L 3309 1947 
L 1397 1947 
L 1397 0 
L 472 0 
z
" transform="scale(0.015625)"/>
       <path id="Arial-BoldMT-61" d="M 1116 2306 
L 319 2450 
Q 453 2931 781 3162 
Q 1109 3394 1756 3394 
Q 2344 3394 2631 3255 
Q 2919 3116 3036 2902 
Q 3153 2688 3153 2116 
L 3144 1091 
Q 3144 653 3186 445 
Q 3228 238 3344 0 
L 2475 0 
Q 2441 88 2391 259 
Q 2369 338 2359 363 
Q 2134 144 1878 34 
Q 1622 -75 1331 -75 
Q 819 -75 523 203 
Q 228 481 228 906 
Q 228 1188 362 1408 
Q 497 1628 739 1745 
Q 981 1863 1438 1950 
Q 2053 2066 2291 2166 
L 2291 2253 
Q 2291 2506 2166 2614 
Q 2041 2722 1694 2722 
Q 1459 2722 1328 2630 
Q 1197 2538 1116 2306 
z
M 2291 1594 
Q 2122 1538 1756 1459 
Q 1391 1381 1278 1306 
Q 1106 1184 1106 997 
Q 1106 813 1243 678 
Q 1381 544 1594 544 
Q 1831 544 2047 700 
Q 2206 819 2256 991 
Q 2291 1103 2291 1419 
L 2291 1594 
z
" transform="scale(0.015625)"/>
       <path id="Arial-BoldMT-6c" d="M 459 0 
L 459 4581 
L 1338 4581 
L 1338 0 
L 459 0 
z
" transform="scale(0.015625)"/>
       <path id="Arial-BoldMT-73" d="M 150 947 
L 1031 1081 
Q 1088 825 1259 692 
Q 1431 559 1741 559 
Q 2081 559 2253 684 
Q 2369 772 2369 919 
Q 2369 1019 2306 1084 
Q 2241 1147 2013 1200 
Q 950 1434 666 1628 
Q 272 1897 272 2375 
Q 272 2806 612 3100 
Q 953 3394 1669 3394 
Q 2350 3394 2681 3172 
Q 3013 2950 3138 2516 
L 2309 2363 
Q 2256 2556 2107 2659 
Q 1959 2763 1684 2763 
Q 1338 2763 1188 2666 
Q 1088 2597 1088 2488 
Q 1088 2394 1175 2328 
Q 1294 2241 1995 2081 
Q 2697 1922 2975 1691 
Q 3250 1456 3250 1038 
Q 3250 581 2869 253 
Q 2488 -75 1741 -75 
Q 1063 -75 667 200 
Q 272 475 150 947 
z
" transform="scale(0.015625)"/>
       <path id="Arial-BoldMT-65" d="M 2381 1056 
L 3256 909 
Q 3088 428 2723 176 
Q 2359 -75 1813 -75 
Q 947 -75 531 491 
Q 203 944 203 1634 
Q 203 2459 634 2926 
Q 1066 3394 1725 3394 
Q 2466 3394 2894 2905 
Q 3322 2416 3303 1406 
L 1103 1406 
Q 1113 1016 1316 798 
Q 1519 581 1822 581 
Q 2028 581 2168 693 
Q 2309 806 2381 1056 
z
M 2431 1944 
Q 2422 2325 2234 2523 
Q 2047 2722 1778 2722 
Q 1491 2722 1303 2513 
Q 1116 2303 1119 1944 
L 2431 1944 
z
" transform="scale(0.015625)"/>
       <path id="Arial-BoldMT-20" transform="scale(0.015625)"/>
       <path id="Arial-BoldMT-50" d="M 466 0 
L 466 4581 
L 1950 4581 
Q 2794 4581 3050 4513 
Q 3444 4409 3709 4064 
Q 3975 3719 3975 3172 
Q 3975 2750 3822 2462 
Q 3669 2175 3433 2011 
Q 3197 1847 2953 1794 
Q 2622 1728 1994 1728 
L 1391 1728 
L 1391 0 
L 466 0 
z
M 1391 3806 
L 1391 2506 
L 1897 2506 
Q 2444 2506 2628 2578 
Q 2813 2650 2917 2803 
Q 3022 2956 3022 3159 
Q 3022 3409 2875 3571 
Q 2728 3734 2503 3775 
Q 2338 3806 1838 3806 
L 1391 3806 
z
" transform="scale(0.015625)"/>
       <path id="Arial-BoldMT-6f" d="M 256 1706 
Q 256 2144 472 2553 
Q 688 2963 1083 3178 
Q 1478 3394 1966 3394 
Q 2719 3394 3200 2905 
Q 3681 2416 3681 1669 
Q 3681 916 3195 420 
Q 2709 -75 1972 -75 
Q 1516 -75 1102 131 
Q 688 338 472 736 
Q 256 1134 256 1706 
z
M 1156 1659 
Q 1156 1166 1390 903 
Q 1625 641 1969 641 
Q 2313 641 2545 903 
Q 2778 1166 2778 1666 
Q 2778 2153 2545 2415 
Q 2313 2678 1969 2678 
Q 1625 2678 1390 2415 
Q 1156 2153 1156 1659 
z
" transform="scale(0.015625)"/>
       <path id="Arial-BoldMT-69" d="M 459 3769 
L 459 4581 
L 1338 4581 
L 1338 3769 
L 459 3769 
z
M 459 0 
L 459 3319 
L 1338 3319 
L 1338 0 
L 459 0 
z
" transform="scale(0.015625)"/>
       <path id="Arial-BoldMT-74" d="M 1981 3319 
L 1981 2619 
L 1381 2619 
L 1381 1281 
Q 1381 875 1398 808 
Q 1416 741 1477 697 
Q 1538 653 1625 653 
Q 1747 653 1978 738 
L 2053 56 
Q 1747 -75 1359 -75 
Q 1122 -75 931 4 
Q 741 84 652 211 
Q 563 338 528 553 
Q 500 706 500 1172 
L 500 2619 
L 97 2619 
L 97 3319 
L 500 3319 
L 500 3978 
L 1381 4491 
L 1381 3319 
L 1981 3319 
z
" transform="scale(0.015625)"/>
       <path id="Arial-BoldMT-76" d="M 1372 0 
L 34 3319 
L 956 3319 
L 1581 1625 
L 1763 1059 
Q 1834 1275 1853 1344 
Q 1897 1484 1947 1625 
L 2578 3319 
L 3481 3319 
L 2163 0 
L 1372 0 
z
" transform="scale(0.015625)"/>
       <path id="Arial-BoldMT-52" d="M 469 0 
L 469 4581 
L 2416 4581 
Q 3150 4581 3483 4457 
Q 3816 4334 4016 4018 
Q 4216 3703 4216 3297 
Q 4216 2781 3912 2445 
Q 3609 2109 3006 2022 
Q 3306 1847 3501 1637 
Q 3697 1428 4028 894 
L 4588 0 
L 3481 0 
L 2813 997 
Q 2456 1531 2325 1670 
Q 2194 1809 2047 1861 
Q 1900 1913 1581 1913 
L 1394 1913 
L 1394 0 
L 469 0 
z
M 1394 2644 
L 2078 2644 
Q 2744 2644 2909 2700 
Q 3075 2756 3169 2893 
Q 3263 3031 3263 3238 
Q 3263 3469 3139 3611 
Q 3016 3753 2791 3791 
Q 2678 3806 2116 3806 
L 1394 3806 
L 1394 2644 
z
" transform="scale(0.015625)"/>
       <path id="Arial-BoldMT-28" d="M 1916 -1347 
L 1313 -1347 
Q 834 -625 584 153 
Q 334 931 334 1659 
Q 334 2563 644 3369 
Q 913 4069 1325 4659 
L 1925 4659 
Q 1497 3713 1336 3048 
Q 1175 2384 1175 1641 
Q 1175 1128 1270 590 
Q 1366 53 1531 -431 
Q 1641 -750 1916 -1347 
z
" transform="scale(0.015625)"/>
       <path id="Arial-BoldMT-29" d="M 216 -1347 
Q 475 -791 581 -494 
Q 688 -197 778 190 
Q 869 578 912 926 
Q 956 1275 956 1641 
Q 956 2384 797 3048 
Q 638 3713 209 4659 
L 806 4659 
Q 1278 3988 1539 3234 
Q 1800 2481 1800 1706 
Q 1800 1053 1594 306 
Q 1359 -531 822 -1347 
L 216 -1347 
z
" transform="scale(0.015625)"/>
      </defs>
      <use xlink:href="#Arial-BoldMT-46"/>
      <use xlink:href="#Arial-BoldMT-61" transform="translate(61.083984 0)"/>
      <use xlink:href="#Arial-BoldMT-6c" transform="translate(116.699219 0)"/>
      <use xlink:href="#Arial-BoldMT-73" transform="translate(144.482422 0)"/>
      <use xlink:href="#Arial-BoldMT-65" transform="translate(200.097656 0)"/>
      <use xlink:href="#Arial-BoldMT-20" transform="translate(255.712891 0)"/>
      <use xlink:href="#Arial-BoldMT-50" transform="translate(283.496094 0)"/>
      <use xlink:href="#Arial-BoldMT-6f" transform="translate(350.195312 0)"/>
      <use xlink:href="#Arial-BoldMT-73" transform="translate(411.279297 0)"/>
      <use xlink:href="#Arial-BoldMT-69" transform="translate(466.894531 0)"/>
      <use xlink:href="#Arial-BoldMT-74" transform="translate(494.677734 0)"/>
      <use xlink:href="#Arial-BoldMT-69" transform="translate(527.978516 0)"/>
      <use xlink:href="#Arial-BoldMT-76" transform="translate(555.761719 0)"/>
      <use xlink:href="#Arial-BoldMT-65" transform="translate(611.376953 0)"/>
      <use xlink:href="#Arial-BoldMT-20" transform="translate(666.992188 0)"/>
      <use xlink:href="#Arial-BoldMT-52" transform="translate(694.775391 0)"/>
      <use xlink:href="#Arial-BoldMT-61" transform="translate(766.992188 0)"/>
      <use xlink:href="#Arial-BoldMT-74" transform="translate(822.607422 0)"/>
      <use xlink:href="#Arial-BoldMT-65" transform="translate(855.908203 0)"/>
      <use xlink:href="#Arial-BoldMT-20" transform="translate(911.523438 0)"/>
      <use xlink:href="#Arial-BoldMT-28" transform="translate(939.306641 0)"/>
      <use xlink:href="#Arial-BoldMT-46" transform="translate(972.607422 0)"/>
      <use xlink:href="#Arial-BoldMT-50" transform="translate(1033.691406 0)"/>
      <use xlink:href="#Arial-BoldMT-52" transform="translate(1100.390625 0)"/>
      <use xlink:href="#Arial-BoldMT-29" transform="translate(1172.607422 0)"/>
     </g>
    </g>
   </g>
   <g id="matplotlib.axis_2">
    <g id="ytick_1">
     <g id="line2d_13">
      <path d="M 35.655938 265.022801 
L 289.19952 265.022801 
" clip-path="url(#p69a1fbc1db)" style="fill: none; stroke: #c0c0c0; stroke-width: 0.25; stroke-linecap: round"/>
     </g>
     <g id="line2d_14"/>
     <g id="text_8">
      <!-- 0.0 -->
      <g style="fill: #333333" transform="translate(19.645938 268.243817) scale(0.09 -0.09)">
       <use xlink:href="#ArialMT-30"/>
       <use xlink:href="#ArialMT-2e" transform="translate(55.615234 0)"/>
       <use xlink:href="#ArialMT-30" transform="translate(83.398438 0)"/>
      </g>
     </g>
    </g>
    <g id="ytick_2">
     <g id="line2d_15">
      <path d="M 35.655938 217.397348 
L 289.19952 217.397348 
" clip-path="url(#p69a1fbc1db)" style="fill: none; stroke: #c0c0c0; stroke-width: 0.25; stroke-linecap: round"/>
     </g>
     <g id="line2d_16"/>
     <g id="text_9">
      <!-- 0.2 -->
      <g style="fill: #333333" transform="translate(19.645938 220.618364) scale(0.09 -0.09)">
       <use xlink:href="#ArialMT-30"/>
       <use xlink:href="#ArialMT-2e" transform="translate(55.615234 0)"/>
       <use xlink:href="#ArialMT-32" transform="translate(83.398438 0)"/>
      </g>
     </g>
    </g>
    <g id="ytick_3">
     <g id="line2d_17">
      <path d="M 35.655938 169.771895 
L 289.19952 169.771895 
" clip-path="url(#p69a1fbc1db)" style="fill: none; stroke: #c0c0c0; stroke-width: 0.25; stroke-linecap: round"/>
     </g>
     <g id="line2d_18"/>
     <g id="text_10">
      <!-- 0.4 -->
      <g style="fill: #333333" transform="translate(19.645938 172.992911) scale(0.09 -0.09)">
       <use xlink:href="#ArialMT-30"/>
       <use xlink:href="#ArialMT-2e" transform="translate(55.615234 0)"/>
       <use xlink:href="#ArialMT-34" transform="translate(83.398438 0)"/>
      </g>
     </g>
    </g>
    <g id="ytick_4">
     <g id="line2d_19">
      <path d="M 35.655938 122.146443 
L 289.19952 122.146443 
" clip-path="url(#p69a1fbc1db)" style="fill: none; stroke: #c0c0c0; stroke-width: 0.25; stroke-linecap: round"/>
     </g>
     <g id="line2d_20"/>
     <g id="text_11">
      <!-- 0.6 -->
      <g style="fill: #333333" transform="translate(19.645938 125.367458) scale(0.09 -0.09)">
       <use xlink:href="#ArialMT-30"/>
       <use xlink:href="#ArialMT-2e" transform="translate(55.615234 0)"/>
       <use xlink:href="#ArialMT-36" transform="translate(83.398438 0)"/>
      </g>
     </g>
    </g>
    <g id="ytick_5">
     <g id="line2d_21">
      <path d="M 35.655938 74.52099 
L 289.19952 74.52099 
" clip-path="url(#p69a1fbc1db)" style="fill: none; stroke: #c0c0c0; stroke-width: 0.25; stroke-linecap: round"/>
     </g>
     <g id="line2d_22"/>
     <g id="text_12">
      <!-- 0.8 -->
      <g style="fill: #333333" transform="translate(19.645938 77.742005) scale(0.09 -0.09)">
       <use xlink:href="#ArialMT-30"/>
       <use xlink:href="#ArialMT-2e" transform="translate(55.615234 0)"/>
       <use xlink:href="#ArialMT-38" transform="translate(83.398438 0)"/>
      </g>
     </g>
    </g>
    <g id="ytick_6">
     <g id="line2d_23">
      <path d="M 35.655938 26.895537 
L 289.19952 26.895537 
" clip-path="url(#p69a1fbc1db)" style="fill: none; stroke: #c0c0c0; stroke-width: 0.25; stroke-linecap: round"/>
     </g>
     <g id="line2d_24"/>
     <g id="text_13">
      <!-- 1.0 -->
      <g style="fill: #333333" transform="translate(19.645938 30.116552) scale(0.09 -0.09)">
       <use xlink:href="#ArialMT-31"/>
       <use xlink:href="#ArialMT-2e" transform="translate(55.615234 0)"/>
       <use xlink:href="#ArialMT-30" transform="translate(83.398438 0)"/>
      </g>
     </g>
    </g>
    <g id="text_14">
     <!-- True Positive Rate (TPR) -->
     <g style="fill: #333333" transform="translate(13.751719 194.647026) rotate(-90) scale(0.09 -0.09)">
      <defs>
       <path id="Arial-BoldMT-54" d="M 1497 0 
L 1497 3806 
L 138 3806 
L 138 4581 
L 3778 4581 
L 3778 3806 
L 2422 3806 
L 2422 0 
L 1497 0 
z
" transform="scale(0.015625)"/>
       <path id="Arial-BoldMT-72" d="M 1300 0 
L 422 0 
L 422 3319 
L 1238 3319 
L 1238 2847 
Q 1447 3181 1614 3287 
Q 1781 3394 1994 3394 
Q 2294 3394 2572 3228 
L 2300 2463 
Q 2078 2606 1888 2606 
Q 1703 2606 1575 2504 
Q 1447 2403 1373 2137 
Q 1300 1872 1300 1025 
L 1300 0 
z
" transform="scale(0.015625)"/>
       <path id="Arial-BoldMT-75" d="M 2644 0 
L 2644 497 
Q 2463 231 2167 78 
Q 1872 -75 1544 -75 
Q 1209 -75 943 72 
Q 678 219 559 484 
Q 441 750 441 1219 
L 441 3319 
L 1319 3319 
L 1319 1794 
Q 1319 1094 1367 936 
Q 1416 778 1544 686 
Q 1672 594 1869 594 
Q 2094 594 2272 717 
Q 2450 841 2515 1023 
Q 2581 1206 2581 1919 
L 2581 3319 
L 3459 3319 
L 3459 0 
L 2644 0 
z
" transform="scale(0.015625)"/>
      </defs>
      <use xlink:href="#Arial-BoldMT-54"/>
      <use xlink:href="#Arial-BoldMT-72" transform="translate(55.583984 0)"/>
      <use xlink:href="#Arial-BoldMT-75" transform="translate(94.5 0)"/>
      <use xlink:href="#Arial-BoldMT-65" transform="translate(155.583984 0)"/>
      <use xlink:href="#Arial-BoldMT-20" transform="translate(211.199219 0)"/>
      <use xlink:href="#Arial-BoldMT-50" transform="translate(238.982422 0)"/>
      <use xlink:href="#Arial-BoldMT-6f" transform="translate(305.681641 0)"/>
      <use xlink:href="#Arial-BoldMT-73" transform="translate(366.765625 0)"/>
      <use xlink:href="#Arial-BoldMT-69" transform="translate(422.380859 0)"/>
      <use xlink:href="#Arial-BoldMT-74" transform="translate(450.164062 0)"/>
      <use xlink:href="#Arial-BoldMT-69" transform="translate(483.464844 0)"/>
      <use xlink:href="#Arial-BoldMT-76" transform="translate(511.248047 0)"/>
      <use xlink:href="#Arial-BoldMT-65" transform="translate(566.863281 0)"/>
      <use xlink:href="#Arial-BoldMT-20" transform="translate(622.478516 0)"/>
      <use xlink:href="#Arial-BoldMT-52" transform="translate(650.261719 0)"/>
      <use xlink:href="#Arial-BoldMT-61" transform="translate(722.478516 0)"/>
      <use xlink:href="#Arial-BoldMT-74" transform="translate(778.09375 0)"/>
      <use xlink:href="#Arial-BoldMT-65" transform="translate(811.394531 0)"/>
      <use xlink:href="#Arial-BoldMT-20" transform="translate(867.009766 0)"/>
      <use xlink:href="#Arial-BoldMT-28" transform="translate(894.792969 0)"/>
      <use xlink:href="#Arial-BoldMT-54" transform="translate(928.09375 0)"/>
      <use xlink:href="#Arial-BoldMT-50" transform="translate(989.177734 0)"/>
      <use xlink:href="#Arial-BoldMT-52" transform="translate(1055.876953 0)"/>
      <use xlink:href="#Arial-BoldMT-29" transform="translate(1128.09375 0)"/>
     </g>
    </g>
   </g>
   <g id="line2d_25">
    <path d="M 42.831699 265.022801 
L 42.831747 265.022801 
L 42.942159 243.184441 
L 42.944795 243.095305 
L 43.055681 233.424031 
L 43.056988 233.334895 
L 43.166402 225.446344 
L 43.169038 225.357208 
L 43.279806 219.741629 
L 43.28895 219.652493 
L 43.40005 215.596798 
L 43.402401 215.507662 
L 43.511507 211.184558 
L 43.516756 211.095421 
L 43.626122 208.376768 
L 43.630255 208.287632 
L 43.740097 205.301571 
L 43.745654 205.212435 
L 43.853833 202.404645 
L 43.861196 202.315509 
L 43.968734 199.864265 
L 43.978091 199.775129 
L 44.08912 197.680429 
L 44.091685 197.591292 
L 44.202263 196.209682 
L 44.215017 196.120546 
L 44.325262 193.93671 
L 44.334833 193.847574 
L 44.444651 192.332259 
L 44.469114 192.243123 
L 44.579715 190.460399 
L 44.592635 190.371263 
L 44.699271 188.722244 
L 44.715017 188.633108 
L 44.82569 187.117793 
L 44.837042 187.028657 
L 44.94401 185.245934 
L 44.954246 185.156797 
L 45.062283 183.730619 
L 45.064729 183.730619 
L 45.074656 183.641483 
L 45.176423 182.393576 
L 45.19585 182.30444 
L 45.3046 180.699989 
L 45.316095 180.610853 
L 45.424963 179.674923 
L 45.444983 179.585787 
L 45.555538 177.936768 
L 45.560311 177.847632 
L 45.665308 176.867134 
L 45.679249 176.777998 
L 45.785956 175.307251 
L 45.812627 175.218115 
L 45.923134 173.925641 
L 45.940708 173.836505 
L 46.049006 172.677734 
L 46.05473 172.588598 
L 46.157566 171.786373 
L 46.177895 171.697237 
L 46.285433 170.761307 
L 46.312033 170.672171 
L 46.419025 169.647105 
L 46.432277 169.557969 
L 46.534495 168.087222 
L 46.561973 167.998086 
L 46.672195 167.017588 
L 46.683856 166.928452 
L 46.794315 165.992522 
L 46.814455 165.903386 
L 46.923941 165.145728 
L 46.929664 165.056592 
L 47.040408 164.209799 
L 47.060097 164.120663 
L 47.166186 163.184733 
L 47.167587 163.184733 
L 47.179035 163.095597 
L 47.286502 162.159667 
L 47.31436 162.070531 
L 47.420663 161.223737 
L 47.427598 161.134601 
L 47.538318 160.198671 
L 47.55708 160.109535 
L 47.628258 159.708422 
L 47.660747 159.708422 
L 47.67286 159.619286 
L 47.772988 158.817061 
L 47.794291 158.727925 
L 47.896937 158.014835 
L 47.900238 158.014835 
L 47.929759 157.925699 
L 48.035468 156.766929 
L 48.083133 156.677793 
L 48.182359 155.830999 
L 48.191289 155.830999 
L 48.218862 155.741863 
L 48.319822 155.251614 
L 48.366561 155.162478 
L 48.473268 154.137412 
L 48.511956 154.048276 
L 48.616288 152.80037 
L 48.62593 152.711233 
L 48.722662 152.08728 
L 48.759355 151.998144 
L 48.859911 151.329623 
L 48.883684 151.240487 
L 48.99108 150.527397 
L 49.031501 150.438261 
L 49.142293 149.636036 
L 49.15526 149.5469 
L 49.263487 149.101219 
L 49.272631 149.012083 
L 49.380098 148.120721 
L 49.420401 148.031585 
L 49.52573 147.273927 
L 49.574512 147.184791 
L 49.677656 146.694542 
L 49.707082 146.605406 
L 49.815166 146.026021 
L 49.848083 145.936885 
L 49.958233 145.402068 
L 49.978706 145.312932 
L 50.087811 144.688979 
L 50.10275 144.599842 
L 50.20568 143.931321 
L 50.254533 143.842185 
L 50.365064 143.351936 
L 50.408383 143.2628 
L 50.512833 142.32687 
L 50.579997 142.237734 
L 50.658276 141.881189 
L 50.68212 141.881189 
L 50.70226 141.792053 
L 50.796118 141.212668 
L 50.834355 141.123532 
L 50.940278 140.588715 
L 50.944221 140.588715 
L 50.961795 140.499579 
L 51.067315 139.920194 
L 51.112035 139.831058 
L 51.220167 139.296241 
L 51.233087 139.207104 
L 51.328037 138.583151 
L 51.337704 138.583151 
L 51.366227 138.494015 
L 51.442748 137.91463 
L 51.490746 137.825494 
L 51.598331 137.201541 
L 51.652029 137.112405 
L 51.762678 136.443883 
L 51.829628 136.354747 
L 51.939446 136.042771 
L 51.967495 135.953634 
L 52.076695 135.463386 
L 52.115075 135.374249 
L 52.219953 134.839432 
L 52.247312 134.750296 
L 52.355658 134.081775 
L 52.369836 133.992639 
L 52.479393 133.368686 
L 52.502311 133.27955 
L 52.567361 132.833869 
L 52.606216 132.833869 
L 52.64526 132.744733 
L 52.746243 132.521892 
L 52.806116 132.432756 
L 52.911231 131.897939 
L 52.930849 131.808803 
L 53.04126 131.452258 
L 53.068002 131.363122 
L 53.173545 130.694601 
L 53.177678 130.694601 
L 53.197984 130.605465 
L 53.291747 130.159784 
L 53.328535 130.070648 
L 53.428355 129.624967 
L 53.487349 129.535831 
L 53.591562 129.134718 
L 53.615525 129.045582 
L 53.725866 128.644469 
L 53.745031 128.555333 
L 53.855538 127.975948 
L 53.911017 127.886812 
L 54.010884 127.485699 
L 54.111321 127.396563 
L 54.22102 126.99545 
L 54.262843 126.906314 
L 54.370809 126.505201 
L 54.39919 126.416065 
L 54.504875 126.014952 
L 54.526084 125.925816 
L 54.625856 125.480135 
L 54.664662 125.390999 
L 54.764102 125.079022 
L 54.772248 125.079022 
L 54.811957 124.989886 
L 54.911943 124.588773 
L 54.975877 124.499637 
L 55.07553 124.232229 
L 55.085932 124.232229 
L 55.106666 124.143093 
L 55.186274 123.875684 
L 55.256787 123.786548 
L 55.346085 123.474571 
L 55.355609 123.474571 
L 55.447567 123.385435 
L 55.499009 123.162595 
L 55.519956 123.162595 
L 55.677629 123.073459 
L 55.785143 122.404937 
L 55.831265 122.315801 
L 55.92928 122.003825 
L 56.014612 121.914688 
L 56.125404 121.42444 
L 56.144878 121.335303 
L 56.254744 120.978759 
L 56.33991 120.889623 
L 56.440133 120.666782 
L 56.490126 120.577646 
L 56.589993 120.042829 
L 56.616806 119.953693 
L 56.71444 119.55258 
L 56.72033 119.55258 
L 56.796566 119.463444 
L 56.897312 119.240604 
L 56.993474 119.151467 
L 57.104052 118.661218 
L 57.156301 118.572082 
L 57.259398 118.081833 
L 57.344279 117.992697 
L 57.4531 117.45788 
L 57.530167 117.368744 
L 57.629131 116.967631 
L 57.637966 116.967631 
L 57.677486 116.878495 
L 57.775263 116.343678 
L 57.783409 116.343678 
L 57.817537 116.254542 
L 57.925502 115.853429 
L 57.986206 115.764293 
L 58.048644 115.496885 
L 58.095169 115.496885 
L 58.201021 115.407748 
L 58.297112 115.184908 
L 58.33276 115.095772 
L 58.441557 114.783795 
L 58.474687 114.694659 
L 58.544915 114.516387 
L 58.577879 114.516387 
L 58.643024 114.427251 
L 58.741371 113.847866 
L 58.749921 113.847866 
L 58.770275 113.758729 
L 58.860903 113.669593 
L 58.925953 113.580457 
L 59.032019 113.04564 
L 59.101819 112.956504 
L 59.210972 112.555391 
L 59.230233 112.466255 
L 59.33409 112.10971 
L 59.429753 112.020574 
L 59.536792 111.708598 
L 59.540782 111.708598 
L 59.560969 111.619461 
L 59.670953 111.262917 
L 59.693183 111.173781 
L 59.774644 111.040076 
L 59.775547 111.040076 
L 59.81414 110.95094 
L 59.916239 110.638964 
L 59.976302 110.549827 
L 60.080159 110.193283 
L 60.086191 110.193283 
L 60.121625 110.104147 
L 60.206411 109.836738 
L 60.227881 109.836738 
L 60.26721 109.747602 
L 60.371471 109.346489 
L 60.391349 109.257353 
L 60.494209 108.811672 
L 60.589587 108.722536 
L 60.684633 108.321423 
L 60.688575 108.321423 
L 60.725434 108.232287 
L 60.761914 108.143151 
L 60.812738 108.143151 
L 60.899899 108.054015 
L 60.983212 107.786606 
L 60.987606 107.786606 
L 61.039024 107.69747 
L 61.133927 107.296357 
L 61.143712 107.296357 
L 61.214842 107.207221 
L 61.284642 106.984381 
L 61.302787 106.984381 
L 61.386884 106.895245 
L 61.497319 106.583268 
L 61.555173 106.494132 
L 61.611745 106.360428 
L 61.656988 106.360428 
L 61.782599 106.271292 
L 61.880566 105.959315 
L 61.940938 105.870179 
L 62.034725 105.513634 
L 62.114903 105.424498 
L 62.218689 104.978817 
L 62.296302 104.889681 
L 62.299461 104.800545 
L 62.396502 104.800545 
L 62.495823 104.711409 
L 62.543797 104.533136 
L 62.602173 104.533136 
L 62.76557 104.444 
L 62.852256 104.087456 
L 62.872942 104.087456 
L 62.891015 103.998319 
L 63.00138 103.775479 
L 63.067214 103.686343 
L 63.163661 103.418934 
L 63.198715 103.329798 
L 63.308248 103.106958 
L 63.423101 103.017822 
L 63.483734 102.794981 
L 63.516722 102.794981 
L 63.597565 102.705845 
L 63.684014 102.393868 
L 63.768135 102.304732 
L 63.87876 101.992756 
L 63.906428 101.903619 
L 63.977273 101.769915 
L 64.010832 101.769915 
L 64.173587 101.680779 
L 64.277634 101.457939 
L 64.373036 101.368802 
L 64.455922 100.923122 
L 64.635208 100.833985 
L 64.6781 100.655713 
L 64.745525 100.655713 
L 64.766163 100.566577 
L 64.804447 100.477441 
L 64.844608 100.477441 
L 64.93735 100.388305 
L 65.043154 99.80892 
L 65.045102 99.80892 
L 65.091485 99.719783 
L 65.202585 99.541511 
L 65.270723 99.452375 
L 65.376551 99.09583 
L 65.414217 99.006694 
L 65.480883 98.783854 
L 65.520236 98.783854 
L 65.584906 98.694718 
L 65.659883 98.471877 
L 65.692562 98.471877 
L 65.835891 98.382741 
L 65.926567 98.026196 
L 65.929607 98.026196 
L 66.014678 97.93706 
L 66.115614 97.625084 
L 66.15309 97.535947 
L 66.263455 97.357675 
L 66.357194 97.268539 
L 66.452003 96.956562 
L 66.527574 96.867426 
L 66.578422 96.644586 
L 66.595545 96.644586 
L 66.782905 96.55545 
L 66.892676 96.198905 
L 67.02527 96.109769 
L 67.114901 95.84236 
L 67.145894 95.753224 
L 67.248634 95.485816 
L 67.290814 95.396679 
L 67.384007 95.218407 
L 67.389469 95.218407 
L 67.477438 95.129271 
L 67.573861 94.861862 
L 67.63162 94.772726 
L 67.662613 94.68359 
L 67.739728 94.68359 
L 67.89714 94.594454 
L 67.990737 94.327045 
L 68.003182 94.327045 
L 68.02971 94.237909 
L 68.139077 93.970501 
L 68.306084 93.881365 
L 68.387023 93.703092 
L 68.415475 93.703092 
L 68.49107 93.613956 
L 68.598441 93.346548 
L 68.697976 93.257411 
L 68.805514 93.079139 
L 68.836388 92.990003 
L 68.94604 92.811731 
L 69.013465 92.722594 
L 69.1054 92.544322 
L 69.112002 92.544322 
L 69.211347 92.455186 
L 69.311451 92.187777 
L 69.318386 92.187777 
L 69.361824 92.098641 
L 69.410012 91.920369 
L 69.454946 91.920369 
L 69.562389 91.831233 
L 69.671685 91.385552 
L 69.769343 91.296416 
L 69.8447 91.073575 
L 70.256233 90.984439 
L 70.307389 90.850735 
L 70.351469 90.850735 
L 70.455278 90.761599 
L 70.500806 90.538758 
L 70.560869 90.538758 
L 70.696289 90.449622 
L 70.786276 90.226782 
L 70.898326 90.137646 
L 70.951098 90.003941 
L 70.986675 90.003941 
L 71.068706 89.914805 
L 71.128032 89.736533 
L 71.132901 89.736533 
L 71.224432 89.647397 
L 71.327481 89.290852 
L 71.434805 89.201716 
L 71.472282 89.068012 
L 71.494179 89.068012 
L 71.662326 88.978876 
L 71.748656 88.800603 
L 71.758464 88.800603 
L 71.853178 88.711467 
L 71.942904 88.622331 
L 71.961476 88.622331 
L 72.009521 88.533195 
L 72.079392 88.354922 
L 72.10319 88.354922 
L 72.15152 88.265786 
L 72.226497 87.998378 
L 72.261195 87.998378 
L 72.418821 87.909242 
L 72.504842 87.730969 
L 72.528354 87.730969 
L 72.568254 87.641833 
L 72.647886 87.508129 
L 72.673488 87.508129 
L 72.828786 87.418993 
L 72.895404 87.329856 
L 72.934567 87.329856 
L 72.963352 87.24072 
L 73.059371 87.062448 
L 73.073455 87.062448 
L 73.162634 86.973312 
L 73.17325 86.839608 
L 73.260269 86.839608 
L 73.477292 86.750471 
L 73.477292 86.705903 
L 73.585852 86.705903 
L 73.779078 86.616767 
L 73.876404 86.393927 
L 74.047947 86.304791 
L 74.154084 86.171086 
L 74.157076 86.171086 
L 74.251433 86.08195 
L 74.352915 85.814542 
L 74.457627 85.725406 
L 74.477743 85.636269 
L 74.568395 85.636269 
L 74.664628 85.547133 
L 74.742574 85.368861 
L 74.756159 85.368861 
L 74.923997 85.279725 
L 74.923997 85.235157 
L 75.019067 85.235157 
L 75.101122 85.14602 
L 75.209705 85.056884 
L 75.301806 84.967748 
L 75.336338 84.834044 
L 75.403311 84.834044 
L 75.584283 84.744908 
L 75.692866 84.566635 
L 75.809738 84.477499 
L 75.885238 84.343795 
L 75.899891 84.343795 
L 76.137339 84.254659 
L 76.19688 84.165523 
L 76.247941 84.165523 
L 76.476364 84.076386 
L 76.549537 83.942682 
L 76.553598 83.942682 
L 76.631378 83.853546 
L 76.732907 83.586138 
L 76.827122 83.497001 
L 76.916302 83.318729 
L 76.978644 83.229593 
L 77.061815 83.140457 
L 77.087013 83.140457 
L 77.141424 83.051321 
L 77.177024 82.873048 
L 77.18612 82.873048 
L 77.401482 82.783912 
L 77.503343 82.60564 
L 77.512012 82.60564 
L 77.652823 82.516504 
L 77.652823 82.471936 
L 77.748985 82.471936 
L 77.927938 82.382799 
L 78.02353 82.115391 
L 78.02904 82.115391 
L 78.159473 82.026255 
L 78.159473 81.981687 
L 78.269766 81.981687 
L 78.413142 81.89255 
L 78.519873 81.714278 
L 78.699681 81.625142 
L 78.792684 81.44687 
L 78.796698 81.44687 
L 78.889036 81.357733 
L 78.931405 81.179461 
L 78.991349 81.179461 
L 79.069723 81.090325 
L 79.169803 80.956621 
L 79.172535 80.956621 
L 79.260717 80.867485 
L 79.343342 80.73378 
L 79.513056 80.644644 
L 79.598602 80.377236 
L 79.604587 80.377236 
L 79.862198 80.288099 
L 79.89369 80.154395 
L 80.033765 80.065259 
L 80.098364 79.931555 
L 80.140045 79.931555 
L 80.209417 79.842419 
L 80.310875 79.57501 
L 80.566421 79.485874 
L 80.566421 79.441306 
L 80.647573 79.441306 
L 80.871793 79.35217 
L 80.907868 79.263034 
L 80.982608 79.263034 
L 81.053738 79.173897 
L 81.14078 78.995625 
L 81.15731 78.995625 
L 81.327547 78.906489 
L 81.414233 78.683649 
L 81.431333 78.683649 
L 81.525975 78.594512 
L 81.601712 78.460808 
L 81.782684 78.371672 
L 81.889699 78.104263 
L 81.950071 78.015127 
L 82.020536 77.881423 
L 82.156312 77.792287 
L 82.266795 77.658583 
L 82.267389 77.658583 
L 82.375188 77.569446 
L 82.467194 77.48031 
L 82.589718 77.391174 
L 82.698705 77.168334 
L 82.814555 77.079198 
L 82.917913 76.811789 
L 82.925181 76.811789 
L 83.208418 76.722653 
L 83.212503 76.633517 
L 83.309758 76.633517 
L 83.496881 76.544381 
L 83.502818 76.455244 
L 83.60297 76.455244 
L 83.916654 76.366108 
L 83.933231 76.232404 
L 84.026116 76.232404 
L 84.129712 76.143268 
L 84.129712 76.0987 
L 84.238865 76.0987 
L 84.353053 76.009564 
L 84.353053 75.964995 
L 84.419005 75.964995 
L 84.554164 75.875859 
L 84.655646 75.742155 
L 84.741809 75.653019 
L 84.828472 75.519315 
L 84.838565 75.519315 
L 84.906228 75.430178 
L 84.906228 75.38561 
L 84.968357 75.38561 
L 85.274417 75.296474 
L 85.320919 75.16277 
L 85.367064 75.16277 
L 85.499943 75.073634 
L 85.59829 74.895361 
L 85.711671 74.806225 
L 85.79914 74.672521 
L 85.816667 74.672521 
L 85.908721 74.583385 
L 85.908721 74.538817 
L 85.968475 74.538817 
L 86.253873 74.449681 
L 86.347328 74.271408 
L 86.517375 74.182272 
L 86.601163 73.914864 
L 86.62629 73.914864 
L 86.679917 73.825728 
L 86.748933 73.647455 
L 86.766722 73.647455 
L 86.904137 73.558319 
L 86.980183 73.424615 
L 87.383546 73.335479 
L 87.46009 73.112638 
L 87.478306 73.112638 
L 87.61223 73.023502 
L 87.702099 72.934366 
L 87.718913 72.934366 
L 87.815051 72.84523 
L 87.883189 72.711525 
L 87.883498 72.711525 
L 88.10672 72.622389 
L 88.215968 72.444117 
L 88.596579 72.354981 
L 88.70414 72.087572 
L 88.868583 71.998436 
L 88.957976 71.775596 
L 89.155857 71.68646 
L 89.257767 71.597323 
L 89.338159 71.508187 
L 89.435627 71.419051 
L 89.513478 71.329915 
L 89.513478 71.285347 
L 89.613963 71.285347 
L 89.990702 71.196211 
L 90.054209 71.017938 
L 90.101518 71.017938 
L 90.222997 70.928802 
L 90.222997 70.884234 
L 90.291989 70.884234 
L 90.686399 70.795098 
L 90.769237 70.661394 
L 91.241711 70.572257 
L 91.295646 70.438553 
L 91.46111 70.349417 
L 91.504856 70.260281 
L 91.543877 70.260281 
L 91.759642 70.171145 
L 91.866919 69.903736 
L 91.952251 69.8146 
L 92.015638 69.636328 
L 92.055063 69.636328 
L 92.222307 69.547192 
L 92.255129 69.413487 
L 92.509891 69.324351 
L 92.618972 69.101511 
L 92.769022 69.012375 
L 92.830462 68.923238 
L 93.537962 68.834102 
L 93.618378 68.744966 
L 93.627973 68.744966 
L 93.797046 68.65583 
L 93.845804 68.522126 
L 93.869839 68.522126 
L 94.07095 68.43299 
L 94.179842 68.299285 
L 94.393944 68.210149 
L 94.393944 68.165581 
L 94.464647 68.165581 
L 94.659488 68.076445 
L 94.697393 67.942741 
L 94.770446 67.942741 
L 94.9983 67.853604 
L 95.102275 67.7199 
L 95.195872 67.630764 
L 95.304883 67.541628 
L 95.454149 67.452492 
L 95.502266 67.274219 
L 95.883042 67.185083 
L 95.900878 67.051379 
L 95.981318 67.051379 
L 96.226224 66.962243 
L 96.281893 66.828539 
L 96.307899 66.828539 
L 96.709029 66.739402 
L 96.801391 66.605698 
L 96.809418 66.605698 
L 96.96683 66.516562 
L 97.060142 66.33829 
L 97.0676 66.33829 
L 97.210287 66.249153 
L 97.271941 66.160017 
L 97.302887 66.160017 
L 97.368127 66.070881 
L 97.46208 65.803473 
L 97.797567 65.714337 
L 97.82818 65.580632 
L 97.885583 65.580632 
L 98.048243 65.491496 
L 98.157491 65.357792 
L 98.270349 65.268656 
L 98.337774 65.17952 
L 98.723966 65.090383 
L 98.799086 64.912111 
L 98.803195 64.912111 
L 99.397623 64.822975 
L 99.397623 64.778407 
L 99.498392 64.778407 
L 99.665447 64.689271 
L 99.665447 64.644703 
L 99.679079 64.644703 
L 99.981221 64.555566 
L 100.091965 64.421862 
L 100.246124 64.332726 
L 100.252489 64.24359 
L 100.354137 64.24359 
L 100.40299 64.154454 
L 100.434553 63.976181 
L 100.468444 63.976181 
L 100.795451 63.887045 
L 100.895485 63.753341 
L 101.222967 63.664205 
L 101.302624 63.352228 
L 101.322146 63.352228 
L 101.460653 63.263092 
L 101.474309 63.173956 
L 101.47666 63.173956 
L 101.791461 63.08482 
L 101.791461 63.040252 
L 101.886341 63.040252 
L 101.949158 62.951115 
L 102.036747 62.772843 
L 102.496301 62.683707 
L 102.524705 62.594571 
L 102.566861 62.594571 
L 102.818369 62.505435 
L 102.862234 62.416298 
L 103.36943 62.327162 
L 103.391351 62.238026 
L 103.480079 62.238026 
L 103.609372 62.14889 
L 103.6264 62.059754 
L 103.65813 62.059754 
L 103.860144 61.970618 
L 103.860144 61.926049 
L 103.876578 61.926049 
L 104.333781 61.836913 
L 104.410683 61.703209 
L 105.096166 61.614073 
L 105.096166 61.569505 
L 105.123336 61.569505 
L 105.408355 61.480369 
L 105.408355 61.435801 
L 105.513019 61.435801 
L 105.947541 61.346664 
L 105.947541 61.302096 
L 105.953336 61.302096 
L 106.299177 61.21296 
L 106.346843 61.079256 
L 106.621103 60.99012 
L 106.655492 60.856416 
L 107.106971 60.767279 
L 107.17689 60.633575 
L 107.280795 60.544439 
L 107.280795 60.499871 
L 107.327486 60.499871 
L 107.585502 60.410735 
L 107.694868 60.232462 
L 108.052299 60.143326 
L 108.100772 60.009622 
L 108.161191 60.009622 
L 108.470173 59.920486 
L 108.488508 59.786782 
L 108.5333 59.786782 
L 108.707906 59.697645 
L 108.722156 59.608509 
L 108.765285 59.608509 
L 108.937897 59.519373 
L 108.937897 59.474805 
L 109.028003 59.474805 
L 109.354014 59.385669 
L 109.452123 59.162828 
L 109.587187 59.073692 
L 109.678931 58.89542 
L 109.875008 58.806284 
L 109.875008 58.761716 
L 109.919657 58.761716 
L 110.158958 58.672579 
L 110.221372 58.538875 
L 110.574148 58.449739 
L 110.574148 58.405171 
L 111.124069 58.316035 
L 111.208879 58.182331 
L 111.222986 58.182331 
L 111.383961 58.093194 
L 111.48017 57.95949 
L 111.690924 57.870354 
L 111.780317 57.692082 
L 111.787418 57.692082 
L 112.032277 57.602945 
L 112.032277 57.558377 
L 112.121955 57.558377 
L 112.648245 57.469241 
L 112.672684 57.380105 
L 112.734005 57.380105 
L 112.897307 57.290969 
L 112.957655 57.201833 
L 113.0057 57.201833 
L 113.568256 57.112697 
L 113.568256 57.068129 
L 113.663635 57.068129 
L 114.144302 56.978992 
L 114.144302 56.934424 
L 114.191255 56.934424 
L 114.773333 56.845288 
L 114.782287 56.756152 
L 114.821094 56.756152 
L 115.315797 56.667016 
L 115.315797 56.622448 
L 115.376003 56.622448 
L 115.548947 56.533312 
L 115.548947 56.488743 
L 115.593762 56.488743 
L 116.159287 56.399607 
L 116.174083 56.310471 
L 116.26711 56.310471 
L 116.607157 56.221335 
L 116.607157 56.176767 
L 117.067756 56.087631 
L 117.078752 55.998495 
L 117.157149 55.998495 
L 117.580153 55.909358 
L 117.580153 55.86479 
L 117.602359 55.86479 
L 118.134183 55.775654 
L 118.226497 55.686518 
L 118.84097 55.597382 
L 118.941763 55.463678 
L 119.290597 55.374541 
L 119.346432 55.285405 
L 119.397565 55.285405 
L 119.806176 55.196269 
L 119.806176 55.151701 
L 119.908062 55.151701 
L 120.135393 55.062565 
L 120.164581 54.973429 
L 120.550726 54.884292 
L 120.564928 54.795156 
L 120.975534 54.70602 
L 121.034314 54.616884 
L 121.321613 54.527748 
L 121.41407 54.394044 
L 121.793921 54.304907 
L 121.793921 54.260339 
L 121.861892 54.260339 
L 122.014887 54.171203 
L 122.045904 54.082067 
L 122.103401 54.082067 
L 122.319522 53.992931 
L 122.395117 53.903795 
L 122.681371 53.814658 
L 122.765207 53.680954 
L 123.263663 53.591818 
L 123.322586 53.502682 
L 123.353199 53.502682 
L 123.651398 53.413546 
L 123.732171 53.279842 
L 124.317859 53.190705 
L 124.411052 53.057001 
L 124.712529 52.967865 
L 124.712529 52.923297 
L 124.732503 52.923297 
L 125.470687 52.834161 
L 125.470687 52.789593 
L 125.507974 52.789593 
L 126.202815 52.700456 
L 126.202815 52.655888 
L 126.959025 52.566752 
L 127.069342 52.477616 
L 127.54564 52.38848 
L 127.599219 52.299344 
L 127.603565 52.299344 
L 128.28342 52.210208 
L 128.352413 52.031935 
L 128.507094 51.942799 
L 128.507094 51.898231 
L 128.861722 51.809095 
L 128.950688 51.630822 
L 129.335882 51.541686 
L 129.39775 51.45255 
L 129.73858 51.363414 
L 129.805388 51.185142 
L 130.445296 51.096005 
L 130.513956 51.006869 
L 130.527113 51.006869 
L 131.04844 50.917733 
L 131.04844 50.873165 
L 131.392833 50.784029 
L 131.496286 50.694893 
L 132.016354 50.605757 
L 132.036565 50.51662 
L 132.060338 50.51662 
L 132.875614 50.427484 
L 132.875614 50.382916 
L 132.967691 50.382916 
L 133.168802 50.29378 
L 133.249527 50.160076 
L 134.09722 50.07094 
L 134.169324 49.981803 
L 134.19343 49.981803 
L 134.54452 49.892667 
L 134.54452 49.848099 
L 135.050694 49.758963 
L 135.050694 49.714395 
L 135.09095 49.714395 
L 135.392926 49.625259 
L 135.443061 49.536123 
L 135.485502 49.536123 
L 135.77071 49.446986 
L 135.771803 49.35785 
L 135.843669 49.35785 
L 136.102444 49.268714 
L 136.102444 49.224146 
L 136.543806 49.13501 
L 136.560811 49.045874 
L 136.608666 49.045874 
L 137.070097 48.956738 
L 137.119971 48.778465 
L 137.176685 48.778465 
L 137.42824 48.689329 
L 137.532216 48.511057 
L 138.031574 48.421921 
L 138.051215 48.332784 
L 138.114555 48.332784 
L 138.426625 48.243648 
L 138.53212 48.154512 
L 138.717225 48.065376 
L 138.717225 48.020808 
L 138.775981 48.020808 
L 139.369839 47.931672 
L 139.408005 47.842535 
L 139.479253 47.842535 
L 139.861764 47.753399 
L 139.934034 47.619695 
L 140.429521 47.530559 
L 140.429521 47.485991 
L 141.285242 47.396855 
L 141.285242 47.352287 
L 141.350553 47.352287 
L 141.95707 47.26315 
L 142.008037 47.084878 
L 142.011504 47.084878 
L 143.096669 46.995742 
L 143.143361 46.906606 
L 143.923891 46.81747 
L 143.923891 46.772901 
L 144.033376 46.772901 
L 144.239499 46.683765 
L 144.239499 46.639197 
L 144.330365 46.639197 
L 145.036368 46.550061 
L 145.036368 46.505493 
L 145.116594 46.505493 
L 145.399713 46.416357 
L 145.399713 46.371789 
L 145.445906 46.371789 
L 145.850812 46.282653 
L 145.930302 46.148948 
L 146.104363 46.059812 
L 146.136686 45.970676 
L 146.182048 45.970676 
L 146.542827 45.88154 
L 146.618589 45.792404 
L 147.347107 45.703267 
L 147.347107 45.658699 
L 147.394535 45.658699 
L 147.668771 45.569563 
L 147.737835 45.435859 
L 148.165541 45.346723 
L 148.165541 45.302155 
L 148.236956 45.302155 
L 149.204014 45.213019 
L 149.292102 45.079314 
L 149.312265 45.079314 
L 149.972052 44.990178 
L 150.03278 44.901042 
L 150.073296 44.901042 
L 150.214416 44.811906 
L 150.316017 44.72277 
L 150.324638 44.72277 
L 150.74206 44.633634 
L 150.822904 44.499929 
L 150.851974 44.499929 
L 151.395007 44.410793 
L 151.492713 44.321657 
L 151.849194 44.232521 
L 151.918044 44.143385 
L 151.954357 44.143385 
L 152.548738 44.054248 
L 152.548738 44.00968 
L 152.632883 44.00968 
L 153.468773 43.920544 
L 153.468773 43.875976 
L 153.49599 43.875976 
L 154.146823 43.78684 
L 154.146823 43.742272 
L 154.239327 43.742272 
L 155.56738 43.653136 
L 155.56738 43.608568 
L 155.637014 43.608568 
L 156.888545 43.519431 
L 156.989172 43.385727 
L 156.991855 43.385727 
L 157.358644 43.296591 
L 157.358644 43.252023 
L 157.437397 43.252023 
L 157.752435 43.162887 
L 157.752435 43.118319 
L 157.802428 43.118319 
L 158.572223 43.029183 
L 158.613334 42.940046 
L 158.656297 42.940046 
L 158.981523 42.85091 
L 158.981523 42.806342 
L 159.031777 42.806342 
L 160.583978 42.717206 
L 160.685009 42.62807 
L 161.398042 42.538934 
L 161.398042 42.494366 
L 161.48309 42.494366 
L 162.141974 42.405229 
L 162.141974 42.360661 
L 162.168193 42.360661 
L 163.543769 42.271525 
L 163.543769 42.226957 
L 163.618936 42.226957 
L 165.442381 42.137821 
L 165.444566 42.048685 
L 165.518593 42.048685 
L 165.936799 41.959549 
L 165.975677 41.870412 
L 166.034244 41.870412 
L 166.52681 41.781276 
L 166.562696 41.69214 
L 167.335435 41.603004 
L 167.335435 41.558436 
L 167.441905 41.558436 
L 168.14038 41.4693 
L 168.14038 41.424732 
L 168.231697 41.424732 
L 168.816292 41.335595 
L 168.865264 41.246459 
L 169.167074 41.157323 
L 169.167074 41.112755 
L 169.27701 41.112755 
L 170.047162 41.023619 
L 170.047162 40.979051 
L 170.144131 40.979051 
L 170.419555 40.889915 
L 170.419555 40.845346 
L 170.525525 40.845346 
L 171.768032 40.75621 
L 171.831206 40.667074 
L 171.832821 40.667074 
L 172.783943 40.577938 
L 172.783943 40.53337 
L 172.889344 40.53337 
L 173.363694 40.444234 
L 173.371722 40.355098 
L 173.427058 40.355098 
L 174.208823 40.265961 
L 174.246466 40.176825 
L 174.261856 40.176825 
L 174.957599 40.087689 
L 174.957599 40.043121 
L 175.034049 40.043121 
L 175.276532 39.953985 
L 175.276532 39.909417 
L 175.340965 39.909417 
L 175.853148 39.820281 
L 175.853148 39.775713 
L 175.941829 39.775713 
L 176.930904 39.686576 
L 176.930904 39.642008 
L 177.016948 39.642008 
L 177.146787 39.552872 
L 177.247438 39.463736 
L 177.390125 39.3746 
L 177.390125 39.330032 
L 177.498091 39.330032 
L 178.314031 39.240896 
L 178.314031 39.196327 
L 178.410407 39.196327 
L 178.694191 39.107191 
L 178.694191 39.062623 
L 178.780782 39.062623 
L 179.050054 38.973487 
L 179.125649 38.884351 
L 179.134009 38.884351 
L 179.759692 38.795215 
L 179.759692 38.750647 
L 179.849655 38.750647 
L 180.537846 38.66151 
L 180.570288 38.572374 
L 180.63655 38.572374 
L 181.734278 38.483238 
L 181.794436 38.349534 
L 181.831604 38.349534 
L 182.12864 38.260398 
L 182.181792 38.171262 
L 182.235466 38.171262 
L 182.675854 38.082125 
L 182.675854 38.037557 
L 182.784366 38.037557 
L 183.950755 37.948421 
L 183.950755 37.903853 
L 184.058388 37.903853 
L 185.168965 37.814717 
L 185.168965 37.770149 
L 185.265792 37.770149 
L 185.93116 37.681013 
L 185.93116 37.636445 
L 186.029127 37.636445 
L 186.55651 37.547308 
L 186.55651 37.50274 
L 186.650559 37.50274 
L 187.21644 37.413604 
L 187.21644 37.369036 
L 187.322482 37.369036 
L 187.870289 37.2799 
L 187.870289 37.235332 
L 187.977257 37.235332 
L 189.293886 37.146196 
L 189.293886 37.101628 
L 189.400617 37.101628 
L 190.25002 37.012491 
L 190.349911 36.923355 
L 190.353378 36.923355 
L 191.294004 36.834219 
L 191.294004 36.789651 
L 191.402326 36.789651 
L 192.45341 36.700515 
L 192.45341 36.655947 
L 192.536415 36.655947 
L 192.927666 36.566811 
L 192.927666 36.522242 
L 193.024896 36.522242 
L 193.957186 36.433106 
L 193.957186 36.388538 
L 194.056483 36.388538 
L 195.371069 36.299402 
L 195.371069 36.254834 
L 195.465592 36.254834 
L 196.003164 36.165698 
L 196.090776 36.031994 
L 196.111866 36.031994 
L 197.566907 35.942857 
L 197.566907 35.898289 
L 197.660647 35.898289 
L 200.548595 35.809153 
L 200.548595 35.764585 
L 200.62229 35.764585 
L 201.228925 35.675449 
L 201.228925 35.630881 
L 201.33556 35.630881 
L 202.124616 35.541745 
L 202.124616 35.497177 
L 202.232226 35.497177 
L 203.346745 35.40804 
L 203.346745 35.363472 
L 203.437136 35.363472 
L 203.712608 35.274336 
L 203.756639 35.1852 
L 203.814398 35.1852 
L 205.569349 35.096064 
L 205.569349 35.051496 
L 205.680212 35.051496 
L 207.10217 34.96236 
L 207.109628 34.873223 
L 207.203937 34.873223 
L 207.546857 34.784087 
L 207.575618 34.694951 
L 207.653992 34.694951 
L 208.426114 34.605815 
L 208.426114 34.561247 
L 208.534388 34.561247 
L 209.201371 34.472111 
L 209.261268 34.382975 
L 209.307389 34.382975 
L 209.783521 34.293838 
L 209.783521 34.24927 
L 209.861063 34.24927 
L 211.156863 34.160134 
L 211.156863 34.115566 
L 211.263689 34.115566 
L 211.664297 34.02643 
L 211.664297 33.981862 
L 211.768985 33.981862 
L 212.148076 33.892726 
L 212.148076 33.848158 
L 212.258939 33.848158 
L 213.390748 33.759021 
L 213.390748 33.714453 
L 213.490568 33.714453 
L 214.05899 33.625317 
L 214.145391 33.536181 
L 214.168499 33.536181 
L 215.388871 33.447045 
L 215.388871 33.402477 
L 215.498927 33.402477 
L 216.845599 33.313341 
L 216.90483 33.224204 
L 216.954918 33.224204 
L 218.140164 33.135068 
L 218.140164 33.0905 
L 218.248438 33.0905 
L 218.827097 33.001364 
L 218.827097 32.956796 
L 218.935371 32.956796 
L 219.722337 32.86766 
L 219.722337 32.823092 
L 219.831276 32.823092 
L 223.343363 32.733955 
L 223.365996 32.644819 
L 223.451708 32.644819 
L 223.839515 32.555683 
L 223.839515 32.511115 
L 223.950521 32.511115 
L 225.590524 32.421979 
L 225.590524 32.377411 
L 225.698727 32.377411 
L 226.455792 32.288275 
L 226.455792 32.243707 
L 226.563828 32.243707 
L 227.75183 32.15457 
L 227.75183 32.110002 
L 227.862883 32.110002 
L 229.162958 32.020866 
L 229.162958 31.976298 
L 229.273227 31.976298 
L 230.260544 31.887162 
L 230.260544 31.842594 
L 230.370101 31.842594 
L 231.700552 31.753458 
L 231.700552 31.70889 
L 231.810465 31.70889 
L 232.250996 31.619753 
L 232.325665 31.530617 
L 232.361717 31.530617 
L 232.834547 31.441481 
L 232.834547 31.396913 
L 232.943367 31.396913 
L 234.179081 31.307777 
L 234.179081 31.263209 
L 234.283532 31.263209 
L 235.775243 31.174073 
L 235.781417 31.084936 
L 235.885916 31.084936 
L 237.130251 30.9958 
L 237.130251 30.951232 
L 237.236435 30.951232 
L 237.464312 30.862096 
L 237.464312 30.817528 
L 237.575104 30.817528 
L 237.90983 30.728392 
L 237.90983 30.683824 
L 238.019316 30.683824 
L 238.550926 30.594688 
L 238.550926 30.550119 
L 238.658726 30.550119 
L 239.984712 30.460983 
L 239.984712 30.416415 
L 240.095812 30.416415 
L 242.137658 30.327279 
L 242.137658 30.282711 
L 242.246858 30.282711 
L 242.363255 30.193575 
L 242.363255 30.149007 
L 242.472337 30.149007 
L 244.050425 30.059871 
L 244.050425 30.015302 
L 244.161145 30.015302 
L 244.86836 29.926166 
L 244.86836 29.881598 
L 244.978748 29.881598 
L 245.923245 29.792462 
L 245.923245 29.747894 
L 246.034345 29.747894 
L 246.776733 29.658758 
L 246.844301 29.569622 
L 246.88781 29.569622 
L 248.041113 29.480485 
L 248.041113 29.435917 
L 248.150575 29.435917 
L 248.228069 29.346781 
L 248.228069 29.302213 
L 248.338434 29.302213 
L 249.03337 29.213077 
L 249.03337 29.168509 
L 249.143378 29.168509 
L 251.373748 29.079373 
L 251.482972 29.034805 
L 252.559801 28.945668 
L 252.559801 28.9011 
L 252.670807 28.9011 
L 253.783142 28.811964 
L 253.783142 28.767396 
L 253.894171 28.767396 
L 254.371941 28.67826 
L 254.371941 28.633692 
L 254.482591 28.633692 
L 256.301357 28.544556 
L 256.301357 28.499988 
L 256.412457 28.499988 
L 260.623256 28.410851 
L 260.653371 28.277147 
L 260.732765 28.277147 
L 261.708374 28.188011 
L 261.708374 28.143443 
L 261.81938 28.143443 
L 262.51263 28.054307 
L 262.51263 28.009739 
L 262.623445 28.009739 
L 263.838735 27.920603 
L 263.838735 27.876035 
L 263.949716 27.876035 
L 267.043621 27.786898 
L 267.043621 27.74233 
L 267.154104 27.74233 
L 267.773397 27.653194 
L 267.773397 27.608626 
L 267.884474 27.608626 
L 271.279974 27.51949 
L 271.390624 27.474922 
L 275.061547 27.385786 
L 275.125006 27.296649 
L 275.172482 27.296649 
L 277.848108 27.207513 
L 277.959161 27.162945 
L 280.018534 27.073809 
L 280.132627 27.029241 
L 281.09382 26.940105 
L 281.09382 26.895537 
L 281.204849 26.895537 
L 282.023758 26.895537 
L 282.023758 26.895537 
" clip-path="url(#p69a1fbc1db)" style="fill: none; stroke: #1f77b4; stroke-width: 1.5; stroke-linecap: round"/>
   </g>
   <g id="line2d_26">
    <path d="M 42.831699 265.022801 
L 282.023758 26.895537 
" clip-path="url(#p69a1fbc1db)" style="fill: none; stroke-dasharray: 5.55,2.4; stroke-dashoffset: 0; stroke: #999999; stroke-width: 1.5"/>
   </g>
   <g id="patch_3">
    <path d="M 35.655938 265.022801 
L 35.655938 19.751719 
" style="fill: none"/>
   </g>
   <g id="patch_4">
    <path d="M 289.19952 265.022801 
L 289.19952 19.751719 
" style="fill: none"/>
   </g>
   <g id="patch_5">
    <path d="M 35.655938 265.022801 
L 289.19952 265.022801 
" style="fill: none"/>
   </g>
   <g id="patch_6">
    <path d="M 35.655938 19.751719 
L 289.19952 19.751719 
" style="fill: none"/>
   </g>
   <g id="text_15">
    <!-- Model 0: Receiver Operating Characteristic (ROC) Curve -->
    <g style="fill: #333333" transform="translate(42.14976 13.751719) scale(0.09 -0.09)">
     <defs>
      <path id="Arial-BoldMT-4d" d="M 453 0 
L 453 4581 
L 1838 4581 
L 2669 1456 
L 3491 4581 
L 4878 4581 
L 4878 0 
L 4019 0 
L 4019 3606 
L 3109 0 
L 2219 0 
L 1313 3606 
L 1313 0 
L 453 0 
z
" transform="scale(0.015625)"/>
      <path id="Arial-BoldMT-64" d="M 3503 0 
L 2688 0 
L 2688 488 
Q 2484 203 2207 64 
Q 1931 -75 1650 -75 
Q 1078 -75 670 386 
Q 263 847 263 1672 
Q 263 2516 659 2955 
Q 1056 3394 1663 3394 
Q 2219 3394 2625 2931 
L 2625 4581 
L 3503 4581 
L 3503 0 
z
M 1159 1731 
Q 1159 1200 1306 963 
Q 1519 619 1900 619 
Q 2203 619 2415 876 
Q 2628 1134 2628 1647 
Q 2628 2219 2422 2470 
Q 2216 2722 1894 2722 
Q 1581 2722 1370 2473 
Q 1159 2225 1159 1731 
z
" transform="scale(0.015625)"/>
      <path id="Arial-BoldMT-30" d="M 1756 4600 
Q 2422 4600 2797 4125 
Q 3244 3563 3244 2259 
Q 3244 959 2794 391 
Q 2422 -78 1756 -78 
Q 1088 -78 678 436 
Q 269 950 269 2269 
Q 269 3563 719 4131 
Q 1091 4600 1756 4600 
z
M 1756 3872 
Q 1597 3872 1472 3770 
Q 1347 3669 1278 3406 
Q 1188 3066 1188 2259 
Q 1188 1453 1269 1151 
Q 1350 850 1473 750 
Q 1597 650 1756 650 
Q 1916 650 2041 751 
Q 2166 853 2234 1116 
Q 2325 1453 2325 2259 
Q 2325 3066 2244 3367 
Q 2163 3669 2039 3770 
Q 1916 3872 1756 3872 
z
" transform="scale(0.015625)"/>
      <path id="Arial-BoldMT-3a" d="M 628 2441 
L 628 3319 
L 1506 3319 
L 1506 2441 
L 628 2441 
z
M 628 0 
L 628 878 
L 1506 878 
L 1506 0 
L 628 0 
z
" transform="scale(0.015625)"/>
      <path id="Arial-BoldMT-63" d="M 3353 2338 
L 2488 2181 
Q 2444 2441 2289 2572 
Q 2134 2703 1888 2703 
Q 1559 2703 1364 2476 
Q 1169 2250 1169 1719 
Q 1169 1128 1367 884 
Q 1566 641 1900 641 
Q 2150 641 2309 783 
Q 2469 925 2534 1272 
L 3397 1125 
Q 3263 531 2881 228 
Q 2500 -75 1859 -75 
Q 1131 -75 698 384 
Q 266 844 266 1656 
Q 266 2478 700 2936 
Q 1134 3394 1875 3394 
Q 2481 3394 2839 3133 
Q 3197 2872 3353 2338 
z
" transform="scale(0.015625)"/>
      <path id="Arial-BoldMT-4f" d="M 278 2263 
Q 278 2963 488 3438 
Q 644 3788 914 4066 
Q 1184 4344 1506 4478 
Q 1934 4659 2494 4659 
Q 3506 4659 4114 4031 
Q 4722 3403 4722 2284 
Q 4722 1175 4119 548 
Q 3516 -78 2506 -78 
Q 1484 -78 881 545 
Q 278 1169 278 2263 
z
M 1231 2294 
Q 1231 1516 1590 1114 
Q 1950 713 2503 713 
Q 3056 713 3411 1111 
Q 3766 1509 3766 2306 
Q 3766 3094 3420 3481 
Q 3075 3869 2503 3869 
Q 1931 3869 1581 3476 
Q 1231 3084 1231 2294 
z
" transform="scale(0.015625)"/>
      <path id="Arial-BoldMT-70" d="M 434 3319 
L 1253 3319 
L 1253 2831 
Q 1413 3081 1684 3237 
Q 1956 3394 2288 3394 
Q 2866 3394 3269 2941 
Q 3672 2488 3672 1678 
Q 3672 847 3265 386 
Q 2859 -75 2281 -75 
Q 2006 -75 1782 34 
Q 1559 144 1313 409 
L 1313 -1263 
L 434 -1263 
L 434 3319 
z
M 1303 1716 
Q 1303 1156 1525 889 
Q 1747 622 2066 622 
Q 2372 622 2575 867 
Q 2778 1113 2778 1672 
Q 2778 2194 2568 2447 
Q 2359 2700 2050 2700 
Q 1728 2700 1515 2451 
Q 1303 2203 1303 1716 
z
" transform="scale(0.015625)"/>
      <path id="Arial-BoldMT-6e" d="M 3478 0 
L 2600 0 
L 2600 1694 
Q 2600 2231 2544 2389 
Q 2488 2547 2361 2634 
Q 2234 2722 2056 2722 
Q 1828 2722 1647 2597 
Q 1466 2472 1398 2265 
Q 1331 2059 1331 1503 
L 1331 0 
L 453 0 
L 453 3319 
L 1269 3319 
L 1269 2831 
Q 1703 3394 2363 3394 
Q 2653 3394 2893 3289 
Q 3134 3184 3257 3021 
Q 3381 2859 3429 2653 
Q 3478 2447 3478 2063 
L 3478 0 
z
" transform="scale(0.015625)"/>
      <path id="Arial-BoldMT-67" d="M 378 -219 
L 1381 -341 
Q 1406 -516 1497 -581 
Q 1622 -675 1891 -675 
Q 2234 -675 2406 -572 
Q 2522 -503 2581 -350 
Q 2622 -241 2622 53 
L 2622 538 
Q 2228 0 1628 0 
Q 959 0 569 566 
Q 263 1013 263 1678 
Q 263 2513 664 2953 
Q 1066 3394 1663 3394 
Q 2278 3394 2678 2853 
L 2678 3319 
L 3500 3319 
L 3500 341 
Q 3500 -247 3403 -537 
Q 3306 -828 3131 -993 
Q 2956 -1159 2664 -1253 
Q 2372 -1347 1925 -1347 
Q 1081 -1347 728 -1058 
Q 375 -769 375 -325 
Q 375 -281 378 -219 
z
M 1163 1728 
Q 1163 1200 1367 954 
Q 1572 709 1872 709 
Q 2194 709 2416 961 
Q 2638 1213 2638 1706 
Q 2638 2222 2425 2472 
Q 2213 2722 1888 2722 
Q 1572 2722 1367 2476 
Q 1163 2231 1163 1728 
z
" transform="scale(0.015625)"/>
      <path id="Arial-BoldMT-43" d="M 3397 1684 
L 4294 1400 
Q 4088 650 3608 286 
Q 3128 -78 2391 -78 
Q 1478 -78 890 545 
Q 303 1169 303 2250 
Q 303 3394 893 4026 
Q 1484 4659 2447 4659 
Q 3288 4659 3813 4163 
Q 4125 3869 4281 3319 
L 3366 3100 
Q 3284 3456 3026 3662 
Q 2769 3869 2400 3869 
Q 1891 3869 1573 3503 
Q 1256 3138 1256 2319 
Q 1256 1450 1568 1081 
Q 1881 713 2381 713 
Q 2750 713 3015 947 
Q 3281 1181 3397 1684 
z
" transform="scale(0.015625)"/>
      <path id="Arial-BoldMT-68" d="M 1334 4581 
L 1334 2897 
Q 1759 3394 2350 3394 
Q 2653 3394 2897 3281 
Q 3141 3169 3264 2994 
Q 3388 2819 3433 2606 
Q 3478 2394 3478 1947 
L 3478 0 
L 2600 0 
L 2600 1753 
Q 2600 2275 2550 2415 
Q 2500 2556 2373 2639 
Q 2247 2722 2056 2722 
Q 1838 2722 1666 2615 
Q 1494 2509 1414 2295 
Q 1334 2081 1334 1663 
L 1334 0 
L 456 0 
L 456 4581 
L 1334 4581 
z
" transform="scale(0.015625)"/>
     </defs>
     <use xlink:href="#Arial-BoldMT-4d"/>
     <use xlink:href="#Arial-BoldMT-6f" transform="translate(83.300781 0)"/>
     <use xlink:href="#Arial-BoldMT-64" transform="translate(144.384766 0)"/>
     <use xlink:href="#Arial-BoldMT-65" transform="translate(205.46875 0)"/>
     <use xlink:href="#Arial-BoldMT-6c" transform="translate(261.083984 0)"/>
     <use xlink:href="#Arial-BoldMT-20" transform="translate(288.867188 0)"/>
     <use xlink:href="#Arial-BoldMT-30" transform="translate(316.650391 0)"/>
     <use xlink:href="#Arial-BoldMT-3a" transform="translate(372.265625 0)"/>
     <use xlink:href="#Arial-BoldMT-20" transform="translate(405.566406 0)"/>
     <use xlink:href="#Arial-BoldMT-52" transform="translate(433.349609 0)"/>
     <use xlink:href="#Arial-BoldMT-65" transform="translate(505.566406 0)"/>
     <use xlink:href="#Arial-BoldMT-63" transform="translate(561.181641 0)"/>
     <use xlink:href="#Arial-BoldMT-65" transform="translate(616.796875 0)"/>
     <use xlink:href="#Arial-BoldMT-69" transform="translate(672.412109 0)"/>
     <use xlink:href="#Arial-BoldMT-76" transform="translate(700.195312 0)"/>
     <use xlink:href="#Arial-BoldMT-65" transform="translate(755.810547 0)"/>
     <use xlink:href="#Arial-BoldMT-72" transform="translate(811.425781 0)"/>
     <use xlink:href="#Arial-BoldMT-20" transform="translate(850.341797 0)"/>
     <use xlink:href="#Arial-BoldMT-4f" transform="translate(878.125 0)"/>
     <use xlink:href="#Arial-BoldMT-70" transform="translate(955.908203 0)"/>
     <use xlink:href="#Arial-BoldMT-65" transform="translate(1016.992188 0)"/>
     <use xlink:href="#Arial-BoldMT-72" transform="translate(1072.607422 0)"/>
     <use xlink:href="#Arial-BoldMT-61" transform="translate(1111.523438 0)"/>
     <use xlink:href="#Arial-BoldMT-74" transform="translate(1167.138672 0)"/>
     <use xlink:href="#Arial-BoldMT-69" transform="translate(1200.439453 0)"/>
     <use xlink:href="#Arial-BoldMT-6e" transform="translate(1228.222656 0)"/>
     <use xlink:href="#Arial-BoldMT-67" transform="translate(1289.306641 0)"/>
     <use xlink:href="#Arial-BoldMT-20" transform="translate(1350.390625 0)"/>
     <use xlink:href="#Arial-BoldMT-43" transform="translate(1378.173828 0)"/>
     <use xlink:href="#Arial-BoldMT-68" transform="translate(1450.390625 0)"/>
     <use xlink:href="#Arial-BoldMT-61" transform="translate(1511.474609 0)"/>
     <use xlink:href="#Arial-BoldMT-72" transform="translate(1567.089844 0)"/>
     <use xlink:href="#Arial-BoldMT-61" transform="translate(1606.005859 0)"/>
     <use xlink:href="#Arial-BoldMT-63" transform="translate(1661.621094 0)"/>
     <use xlink:href="#Arial-BoldMT-74" transform="translate(1717.236328 0)"/>
     <use xlink:href="#Arial-BoldMT-65" transform="translate(1750.537109 0)"/>
     <use xlink:href="#Arial-BoldMT-72" transform="translate(1806.152344 0)"/>
     <use xlink:href="#Arial-BoldMT-69" transform="translate(1845.068359 0)"/>
     <use xlink:href="#Arial-BoldMT-73" transform="translate(1872.851562 0)"/>
     <use xlink:href="#Arial-BoldMT-74" transform="translate(1928.466797 0)"/>
     <use xlink:href="#Arial-BoldMT-69" transform="translate(1961.767578 0)"/>
     <use xlink:href="#Arial-BoldMT-63" transform="translate(1989.550781 0)"/>
     <use xlink:href="#Arial-BoldMT-20" transform="translate(2045.166016 0)"/>
     <use xlink:href="#Arial-BoldMT-28" transform="translate(2072.949219 0)"/>
     <use xlink:href="#Arial-BoldMT-52" transform="translate(2106.25 0)"/>
     <use xlink:href="#Arial-BoldMT-4f" transform="translate(2178.466797 0)"/>
     <use xlink:href="#Arial-BoldMT-43" transform="translate(2256.25 0)"/>
     <use xlink:href="#Arial-BoldMT-29" transform="translate(2328.466797 0)"/>
     <use xlink:href="#Arial-BoldMT-20" transform="translate(2361.767578 0)"/>
     <use xlink:href="#Arial-BoldMT-43" transform="translate(2389.550781 0)"/>
     <use xlink:href="#Arial-BoldMT-75" transform="translate(2461.767578 0)"/>
     <use xlink:href="#Arial-BoldMT-72" transform="translate(2522.851562 0)"/>
     <use xlink:href="#Arial-BoldMT-76" transform="translate(2561.767578 0)"/>
     <use xlink:href="#Arial-BoldMT-65" transform="translate(2617.382812 0)"/>
    </g>
   </g>
   <g id="legend_1">
    <g id="patch_7">
     <path d="M 182.577645 260.522801 
L 282.89952 260.522801 
Q 284.69952 260.522801 284.69952 258.722801 
L 284.69952 234.161239 
Q 284.69952 232.361239 282.89952 232.361239 
L 182.577645 232.361239 
Q 180.777645 232.361239 180.777645 234.161239 
L 180.777645 258.722801 
Q 180.777645 260.522801 182.577645 260.522801 
z
" style="fill: #ffffff; opacity: 0.8; stroke: #cccccc; stroke-width: 0.75; stroke-linejoin: miter"/>
    </g>
    <g id="line2d_27">
     <path d="M 184.377645 239.25327 
L 193.377645 239.25327 
L 202.377645 239.25327 
" style="fill: none; stroke: #1f77b4; stroke-width: 1.5; stroke-linecap: round"/>
    </g>
    <g id="text_16">
     <!-- ROC curve -->
     <g style="fill: #333333" transform="translate(209.577645 242.40327) scale(0.09 -0.09)">
      <defs>
       <path id="ArialMT-52" d="M 503 0 
L 503 4581 
L 2534 4581 
Q 3147 4581 3465 4457 
Q 3784 4334 3975 4021 
Q 4166 3709 4166 3331 
Q 4166 2844 3850 2509 
Q 3534 2175 2875 2084 
Q 3116 1969 3241 1856 
Q 3506 1613 3744 1247 
L 4541 0 
L 3778 0 
L 3172 953 
Q 2906 1366 2734 1584 
Q 2563 1803 2427 1890 
Q 2291 1978 2150 2013 
Q 2047 2034 1813 2034 
L 1109 2034 
L 1109 0 
L 503 0 
z
M 1109 2559 
L 2413 2559 
Q 2828 2559 3062 2645 
Q 3297 2731 3419 2920 
Q 3541 3109 3541 3331 
Q 3541 3656 3305 3865 
Q 3069 4075 2559 4075 
L 1109 4075 
L 1109 2559 
z
" transform="scale(0.015625)"/>
       <path id="ArialMT-4f" d="M 309 2231 
Q 309 3372 921 4017 
Q 1534 4663 2503 4663 
Q 3138 4663 3647 4359 
Q 4156 4056 4423 3514 
Q 4691 2972 4691 2284 
Q 4691 1588 4409 1038 
Q 4128 488 3612 205 
Q 3097 -78 2500 -78 
Q 1853 -78 1343 234 
Q 834 547 571 1087 
Q 309 1628 309 2231 
z
M 934 2222 
Q 934 1394 1379 917 
Q 1825 441 2497 441 
Q 3181 441 3623 922 
Q 4066 1403 4066 2288 
Q 4066 2847 3877 3264 
Q 3688 3681 3323 3911 
Q 2959 4141 2506 4141 
Q 1863 4141 1398 3698 
Q 934 3256 934 2222 
z
" transform="scale(0.015625)"/>
       <path id="ArialMT-43" d="M 3763 1606 
L 4369 1453 
Q 4178 706 3683 314 
Q 3188 -78 2472 -78 
Q 1731 -78 1267 223 
Q 803 525 561 1097 
Q 319 1669 319 2325 
Q 319 3041 592 3573 
Q 866 4106 1370 4382 
Q 1875 4659 2481 4659 
Q 3169 4659 3637 4309 
Q 4106 3959 4291 3325 
L 3694 3184 
Q 3534 3684 3231 3912 
Q 2928 4141 2469 4141 
Q 1941 4141 1586 3887 
Q 1231 3634 1087 3207 
Q 944 2781 944 2328 
Q 944 1744 1114 1308 
Q 1284 872 1643 656 
Q 2003 441 2422 441 
Q 2931 441 3284 734 
Q 3638 1028 3763 1606 
z
" transform="scale(0.015625)"/>
       <path id="ArialMT-20" transform="scale(0.015625)"/>
       <path id="ArialMT-63" d="M 2588 1216 
L 3141 1144 
Q 3050 572 2676 248 
Q 2303 -75 1759 -75 
Q 1078 -75 664 370 
Q 250 816 250 1647 
Q 250 2184 428 2587 
Q 606 2991 970 3192 
Q 1334 3394 1763 3394 
Q 2303 3394 2647 3120 
Q 2991 2847 3088 2344 
L 2541 2259 
Q 2463 2594 2264 2762 
Q 2066 2931 1784 2931 
Q 1359 2931 1093 2626 
Q 828 2322 828 1663 
Q 828 994 1084 691 
Q 1341 388 1753 388 
Q 2084 388 2306 591 
Q 2528 794 2588 1216 
z
" transform="scale(0.015625)"/>
       <path id="ArialMT-75" d="M 2597 0 
L 2597 488 
Q 2209 -75 1544 -75 
Q 1250 -75 995 37 
Q 741 150 617 320 
Q 494 491 444 738 
Q 409 903 409 1263 
L 409 3319 
L 972 3319 
L 972 1478 
Q 972 1038 1006 884 
Q 1059 663 1231 536 
Q 1403 409 1656 409 
Q 1909 409 2131 539 
Q 2353 669 2445 892 
Q 2538 1116 2538 1541 
L 2538 3319 
L 3100 3319 
L 3100 0 
L 2597 0 
z
" transform="scale(0.015625)"/>
       <path id="ArialMT-72" d="M 416 0 
L 416 3319 
L 922 3319 
L 922 2816 
Q 1116 3169 1280 3281 
Q 1444 3394 1641 3394 
Q 1925 3394 2219 3213 
L 2025 2691 
Q 1819 2813 1613 2813 
Q 1428 2813 1281 2702 
Q 1134 2591 1072 2394 
Q 978 2094 978 1738 
L 978 0 
L 416 0 
z
" transform="scale(0.015625)"/>
       <path id="ArialMT-76" d="M 1344 0 
L 81 3319 
L 675 3319 
L 1388 1331 
Q 1503 1009 1600 663 
Q 1675 925 1809 1294 
L 2547 3319 
L 3125 3319 
L 1869 0 
L 1344 0 
z
" transform="scale(0.015625)"/>
       <path id="ArialMT-65" d="M 2694 1069 
L 3275 997 
Q 3138 488 2766 206 
Q 2394 -75 1816 -75 
Q 1088 -75 661 373 
Q 234 822 234 1631 
Q 234 2469 665 2931 
Q 1097 3394 1784 3394 
Q 2450 3394 2872 2941 
Q 3294 2488 3294 1666 
Q 3294 1616 3291 1516 
L 816 1516 
Q 847 969 1125 678 
Q 1403 388 1819 388 
Q 2128 388 2347 550 
Q 2566 713 2694 1069 
z
M 847 1978 
L 2700 1978 
Q 2663 2397 2488 2606 
Q 2219 2931 1791 2931 
Q 1403 2931 1139 2672 
Q 875 2413 847 1978 
z
" transform="scale(0.015625)"/>
      </defs>
      <use xlink:href="#ArialMT-52"/>
      <use xlink:href="#ArialMT-4f" transform="translate(72.216797 0)"/>
      <use xlink:href="#ArialMT-43" transform="translate(150 0)"/>
      <use xlink:href="#ArialMT-20" transform="translate(222.216797 0)"/>
      <use xlink:href="#ArialMT-63" transform="translate(250 0)"/>
      <use xlink:href="#ArialMT-75" transform="translate(300 0)"/>
      <use xlink:href="#ArialMT-72" transform="translate(355.615234 0)"/>
      <use xlink:href="#ArialMT-76" transform="translate(388.916016 0)"/>
      <use xlink:href="#ArialMT-65" transform="translate(438.916016 0)"/>
     </g>
    </g>
    <g id="line2d_28">
     <path d="M 184.377645 251.984051 
L 193.377645 251.984051 
L 202.377645 251.984051 
" style="fill: none; stroke-dasharray: 5.55,2.4; stroke-dashoffset: 0; stroke: #999999; stroke-width: 1.5"/>
    </g>
    <g id="text_17">
     <!-- Random classifier -->
     <g style="fill: #333333" transform="translate(209.577645 255.134051) scale(0.09 -0.09)">
      <defs>
       <path id="ArialMT-61" d="M 2588 409 
Q 2275 144 1986 34 
Q 1697 -75 1366 -75 
Q 819 -75 525 192 
Q 231 459 231 875 
Q 231 1119 342 1320 
Q 453 1522 633 1644 
Q 813 1766 1038 1828 
Q 1203 1872 1538 1913 
Q 2219 1994 2541 2106 
Q 2544 2222 2544 2253 
Q 2544 2597 2384 2738 
Q 2169 2928 1744 2928 
Q 1347 2928 1158 2789 
Q 969 2650 878 2297 
L 328 2372 
Q 403 2725 575 2942 
Q 747 3159 1072 3276 
Q 1397 3394 1825 3394 
Q 2250 3394 2515 3294 
Q 2781 3194 2906 3042 
Q 3031 2891 3081 2659 
Q 3109 2516 3109 2141 
L 3109 1391 
Q 3109 606 3145 398 
Q 3181 191 3288 0 
L 2700 0 
Q 2613 175 2588 409 
z
M 2541 1666 
Q 2234 1541 1622 1453 
Q 1275 1403 1131 1340 
Q 988 1278 909 1158 
Q 831 1038 831 891 
Q 831 666 1001 516 
Q 1172 366 1500 366 
Q 1825 366 2078 508 
Q 2331 650 2450 897 
Q 2541 1088 2541 1459 
L 2541 1666 
z
" transform="scale(0.015625)"/>
       <path id="ArialMT-6e" d="M 422 0 
L 422 3319 
L 928 3319 
L 928 2847 
Q 1294 3394 1984 3394 
Q 2284 3394 2536 3286 
Q 2788 3178 2913 3003 
Q 3038 2828 3088 2588 
Q 3119 2431 3119 2041 
L 3119 0 
L 2556 0 
L 2556 2019 
Q 2556 2363 2490 2533 
Q 2425 2703 2258 2804 
Q 2091 2906 1866 2906 
Q 1506 2906 1245 2678 
Q 984 2450 984 1813 
L 984 0 
L 422 0 
z
" transform="scale(0.015625)"/>
       <path id="ArialMT-64" d="M 2575 0 
L 2575 419 
Q 2259 -75 1647 -75 
Q 1250 -75 917 144 
Q 584 363 401 755 
Q 219 1147 219 1656 
Q 219 2153 384 2558 
Q 550 2963 881 3178 
Q 1213 3394 1622 3394 
Q 1922 3394 2156 3267 
Q 2391 3141 2538 2938 
L 2538 4581 
L 3097 4581 
L 3097 0 
L 2575 0 
z
M 797 1656 
Q 797 1019 1065 703 
Q 1334 388 1700 388 
Q 2069 388 2326 689 
Q 2584 991 2584 1609 
Q 2584 2291 2321 2609 
Q 2059 2928 1675 2928 
Q 1300 2928 1048 2622 
Q 797 2316 797 1656 
z
" transform="scale(0.015625)"/>
       <path id="ArialMT-6f" d="M 213 1659 
Q 213 2581 725 3025 
Q 1153 3394 1769 3394 
Q 2453 3394 2887 2945 
Q 3322 2497 3322 1706 
Q 3322 1066 3130 698 
Q 2938 331 2570 128 
Q 2203 -75 1769 -75 
Q 1072 -75 642 372 
Q 213 819 213 1659 
z
M 791 1659 
Q 791 1022 1069 705 
Q 1347 388 1769 388 
Q 2188 388 2466 706 
Q 2744 1025 2744 1678 
Q 2744 2294 2464 2611 
Q 2184 2928 1769 2928 
Q 1347 2928 1069 2612 
Q 791 2297 791 1659 
z
" transform="scale(0.015625)"/>
       <path id="ArialMT-6d" d="M 422 0 
L 422 3319 
L 925 3319 
L 925 2853 
Q 1081 3097 1340 3245 
Q 1600 3394 1931 3394 
Q 2300 3394 2536 3241 
Q 2772 3088 2869 2813 
Q 3263 3394 3894 3394 
Q 4388 3394 4653 3120 
Q 4919 2847 4919 2278 
L 4919 0 
L 4359 0 
L 4359 2091 
Q 4359 2428 4304 2576 
Q 4250 2725 4106 2815 
Q 3963 2906 3769 2906 
Q 3419 2906 3187 2673 
Q 2956 2441 2956 1928 
L 2956 0 
L 2394 0 
L 2394 2156 
Q 2394 2531 2256 2718 
Q 2119 2906 1806 2906 
Q 1569 2906 1367 2781 
Q 1166 2656 1075 2415 
Q 984 2175 984 1722 
L 984 0 
L 422 0 
z
" transform="scale(0.015625)"/>
       <path id="ArialMT-6c" d="M 409 0 
L 409 4581 
L 972 4581 
L 972 0 
L 409 0 
z
" transform="scale(0.015625)"/>
       <path id="ArialMT-73" d="M 197 991 
L 753 1078 
Q 800 744 1014 566 
Q 1228 388 1613 388 
Q 2000 388 2187 545 
Q 2375 703 2375 916 
Q 2375 1106 2209 1216 
Q 2094 1291 1634 1406 
Q 1016 1563 777 1677 
Q 538 1791 414 1992 
Q 291 2194 291 2438 
Q 291 2659 392 2848 
Q 494 3038 669 3163 
Q 800 3259 1026 3326 
Q 1253 3394 1513 3394 
Q 1903 3394 2198 3281 
Q 2494 3169 2634 2976 
Q 2775 2784 2828 2463 
L 2278 2388 
Q 2241 2644 2061 2787 
Q 1881 2931 1553 2931 
Q 1166 2931 1000 2803 
Q 834 2675 834 2503 
Q 834 2394 903 2306 
Q 972 2216 1119 2156 
Q 1203 2125 1616 2013 
Q 2213 1853 2448 1751 
Q 2684 1650 2818 1456 
Q 2953 1263 2953 975 
Q 2953 694 2789 445 
Q 2625 197 2315 61 
Q 2006 -75 1616 -75 
Q 969 -75 630 194 
Q 291 463 197 991 
z
" transform="scale(0.015625)"/>
       <path id="ArialMT-69" d="M 425 3934 
L 425 4581 
L 988 4581 
L 988 3934 
L 425 3934 
z
M 425 0 
L 425 3319 
L 988 3319 
L 988 0 
L 425 0 
z
" transform="scale(0.015625)"/>
       <path id="ArialMT-66" d="M 556 0 
L 556 2881 
L 59 2881 
L 59 3319 
L 556 3319 
L 556 3672 
Q 556 4006 616 4169 
Q 697 4388 901 4523 
Q 1106 4659 1475 4659 
Q 1713 4659 2000 4603 
L 1916 4113 
Q 1741 4144 1584 4144 
Q 1328 4144 1222 4034 
Q 1116 3925 1116 3625 
L 1116 3319 
L 1763 3319 
L 1763 2881 
L 1116 2881 
L 1116 0 
L 556 0 
z
" transform="scale(0.015625)"/>
      </defs>
      <use xlink:href="#ArialMT-52"/>
      <use xlink:href="#ArialMT-61" transform="translate(72.216797 0)"/>
      <use xlink:href="#ArialMT-6e" transform="translate(127.832031 0)"/>
      <use xlink:href="#ArialMT-64" transform="translate(183.447266 0)"/>
      <use xlink:href="#ArialMT-6f" transform="translate(239.0625 0)"/>
      <use xlink:href="#ArialMT-6d" transform="translate(294.677734 0)"/>
      <use xlink:href="#ArialMT-20" transform="translate(377.978516 0)"/>
      <use xlink:href="#ArialMT-63" transform="translate(405.761719 0)"/>
      <use xlink:href="#ArialMT-6c" transform="translate(455.761719 0)"/>
      <use xlink:href="#ArialMT-61" transform="translate(477.978516 0)"/>
      <use xlink:href="#ArialMT-73" transform="translate(533.59375 0)"/>
      <use xlink:href="#ArialMT-73" transform="translate(583.59375 0)"/>
      <use xlink:href="#ArialMT-69" transform="translate(633.59375 0)"/>
      <use xlink:href="#ArialMT-66" transform="translate(655.810547 0)"/>
      <use xlink:href="#ArialMT-69" transform="translate(683.59375 0)"/>
      <use xlink:href="#ArialMT-65" transform="translate(705.810547 0)"/>
      <use xlink:href="#ArialMT-72" transform="translate(761.425781 0)"/>
     </g>
    </g>
   </g>
  </g>
 </g>
 <defs>
  <clipPath id="p69a1fbc1db">
   <rect x="35.655938" y="19.751719" width="253.543583" height="245.271083"/>
  </clipPath>
 </defs>
</svg>
