<?xml version="1.0" encoding="utf-8" standalone="no"?>
<!DOCTYPE svg PUBLIC "-//W3C//DTD SVG 1.1//EN"
  "http://www.w3.org/Graphics/SVG/1.1/DTD/svg11.dtd">
<svg xmlns:xlink="http://www.w3.org/1999/xlink" width="296.39952pt" height="296.39952pt" viewBox="0 0 296.39952 296.39952" xmlns="http://www.w3.org/2000/svg" version="1.1">
 <metadata>
  <rdf:RDF xmlns:dc="http://purl.org/dc/elements/1.1/" xmlns:cc="http://creativecommons.org/ns#" xmlns:rdf="http://www.w3.org/1999/02/22-rdf-syntax-ns#">
   <cc:Work>
    <dc:type rdf:resource="http://purl.org/dc/dcmitype/StillImage"/>
    <dc:date>2026-01-02T09:42:04.995759</dc:date>
    <dc:format>image/svg+xml</dc:format>
    <dc:creator>
     <cc:Agent>
      <dc:title>Matplotlib v3.10.8, https://matplotlib.org/</dc:title>
     </cc:Agent>
    </dc:creator>
   </cc:Work>
  </rdf:RDF>
 </metadata>
 <defs>
  <style type="text/css">*{stroke-linejoin: round; stroke-linecap: butt}</style>
 </defs>
 <g id="figure_1">
  <g id="patch_1">
   <path d="M 0 296.39952 
L 296.39952 296.39952 
L 296.39952 0 
L 0 0 
z
" style="fill: #ffffff"/>
  </g>
  <g id="axes_1">
   <g id="patch_2">
    <path d="M 35.655938 265.022801 
L 289.19952 265.022801 
L 289.19952 19.642031 
L 35.655938 19.642031 
z
" style="fill: #ffffff"/>
   </g>
   <g id="matplotlib.axis_1">
    <g id="xtick_1">
     <g id="line2d_1">
      <path d="M 42.831699 265.022801 
L 42.831699 19.642031 
" clip-path="url(#p64da9dea81)" style="fill: none; stroke: #c0c0c0; stroke-width: 0.25; stroke-linecap: round"/>
     </g>
     <g id="line2d_2"/>
     <g id="text_1">
      <!-- 0.0 -->
      <g style="fill: #333333" transform="translate(36.576699 274.964832) scale(0.09 -0.09)">
       <defs>
        <path id="ArialMT-30" d="M 266 2259 
Q 266 3072 433 3567 
Q 600 4063 929 4331 
Q 1259 4600 1759 4600 
Q 2128 4600 2406 4451 
Q 2684 4303 2865 4023 
Q 3047 3744 3150 3342 
Q 3253 2941 3253 2259 
Q 3253 1453 3087 958 
Q 2922 463 2592 192 
Q 2263 -78 1759 -78 
Q 1097 -78 719 397 
Q 266 969 266 2259 
z
M 844 2259 
Q 844 1131 1108 757 
Q 1372 384 1759 384 
Q 2147 384 2411 759 
Q 2675 1134 2675 2259 
Q 2675 3391 2411 3762 
Q 2147 4134 1753 4134 
Q 1366 4134 1134 3806 
Q 844 3388 844 2259 
z
" transform="scale(0.015625)"/>
        <path id="ArialMT-2e" d="M 581 0 
L 581 641 
L 1222 641 
L 1222 0 
L 581 0 
z
" transform="scale(0.015625)"/>
       </defs>
       <use xlink:href="#ArialMT-30"/>
       <use xlink:href="#ArialMT-2e" transform="translate(55.615234 0)"/>
       <use xlink:href="#ArialMT-30" transform="translate(83.398438 0)"/>
      </g>
     </g>
    </g>
    <g id="xtick_2">
     <g id="line2d_3">
      <path d="M 90.670111 265.022801 
L 90.670111 19.642031 
" clip-path="url(#p64da9dea81)" style="fill: none; stroke: #c0c0c0; stroke-width: 0.25; stroke-linecap: round"/>
     </g>
     <g id="line2d_4"/>
     <g id="text_2">
      <!-- 0.2 -->
      <g style="fill: #333333" transform="translate(84.415111 274.964832) scale(0.09 -0.09)">
       <defs>
        <path id="ArialMT-32" d="M 3222 541 
L 3222 0 
L 194 0 
Q 188 203 259 391 
Q 375 700 629 1000 
Q 884 1300 1366 1694 
Q 2113 2306 2375 2664 
Q 2638 3022 2638 3341 
Q 2638 3675 2398 3904 
Q 2159 4134 1775 4134 
Q 1369 4134 1125 3890 
Q 881 3647 878 3216 
L 300 3275 
Q 359 3922 746 4261 
Q 1134 4600 1788 4600 
Q 2447 4600 2831 4234 
Q 3216 3869 3216 3328 
Q 3216 3053 3103 2787 
Q 2991 2522 2730 2228 
Q 2469 1934 1863 1422 
Q 1356 997 1212 845 
Q 1069 694 975 541 
L 3222 541 
z
" transform="scale(0.015625)"/>
       </defs>
       <use xlink:href="#ArialMT-30"/>
       <use xlink:href="#ArialMT-2e" transform="translate(55.615234 0)"/>
       <use xlink:href="#ArialMT-32" transform="translate(83.398438 0)"/>
      </g>
     </g>
    </g>
    <g id="xtick_3">
     <g id="line2d_5">
      <path d="M 138.508523 265.022801 
L 138.508523 19.642031 
" clip-path="url(#p64da9dea81)" style="fill: none; stroke: #c0c0c0; stroke-width: 0.25; stroke-linecap: round"/>
     </g>
     <g id="line2d_6"/>
     <g id="text_3">
      <!-- 0.4 -->
      <g style="fill: #333333" transform="translate(132.253523 274.964832) scale(0.09 -0.09)">
       <defs>
        <path id="ArialMT-34" d="M 2069 0 
L 2069 1097 
L 81 1097 
L 81 1613 
L 2172 4581 
L 2631 4581 
L 2631 1613 
L 3250 1613 
L 3250 1097 
L 2631 1097 
L 2631 0 
L 2069 0 
z
M 2069 1613 
L 2069 3678 
L 634 1613 
L 2069 1613 
z
" transform="scale(0.015625)"/>
       </defs>
       <use xlink:href="#ArialMT-30"/>
       <use xlink:href="#ArialMT-2e" transform="translate(55.615234 0)"/>
       <use xlink:href="#ArialMT-34" transform="translate(83.398438 0)"/>
      </g>
     </g>
    </g>
    <g id="xtick_4">
     <g id="line2d_7">
      <path d="M 186.346935 265.022801 
L 186.346935 19.642031 
" clip-path="url(#p64da9dea81)" style="fill: none; stroke: #c0c0c0; stroke-width: 0.25; stroke-linecap: round"/>
     </g>
     <g id="line2d_8"/>
     <g id="text_4">
      <!-- 0.6 -->
      <g style="fill: #333333" transform="translate(180.091935 274.964832) scale(0.09 -0.09)">
       <defs>
        <path id="ArialMT-36" d="M 3184 3459 
L 2625 3416 
Q 2550 3747 2413 3897 
Q 2184 4138 1850 4138 
Q 1581 4138 1378 3988 
Q 1113 3794 959 3422 
Q 806 3050 800 2363 
Q 1003 2672 1297 2822 
Q 1591 2972 1913 2972 
Q 2475 2972 2870 2558 
Q 3266 2144 3266 1488 
Q 3266 1056 3080 686 
Q 2894 316 2569 119 
Q 2244 -78 1831 -78 
Q 1128 -78 684 439 
Q 241 956 241 2144 
Q 241 3472 731 4075 
Q 1159 4600 1884 4600 
Q 2425 4600 2770 4297 
Q 3116 3994 3184 3459 
z
M 888 1484 
Q 888 1194 1011 928 
Q 1134 663 1356 523 
Q 1578 384 1822 384 
Q 2178 384 2434 671 
Q 2691 959 2691 1453 
Q 2691 1928 2437 2201 
Q 2184 2475 1800 2475 
Q 1419 2475 1153 2201 
Q 888 1928 888 1484 
z
" transform="scale(0.015625)"/>
       </defs>
       <use xlink:href="#ArialMT-30"/>
       <use xlink:href="#ArialMT-2e" transform="translate(55.615234 0)"/>
       <use xlink:href="#ArialMT-36" transform="translate(83.398438 0)"/>
      </g>
     </g>
    </g>
    <g id="xtick_5">
     <g id="line2d_9">
      <path d="M 234.185346 265.022801 
L 234.185346 19.642031 
" clip-path="url(#p64da9dea81)" style="fill: none; stroke: #c0c0c0; stroke-width: 0.25; stroke-linecap: round"/>
     </g>
     <g id="line2d_10"/>
     <g id="text_5">
      <!-- 0.8 -->
      <g style="fill: #333333" transform="translate(227.930346 274.964832) scale(0.09 -0.09)">
       <defs>
        <path id="ArialMT-38" d="M 1131 2484 
Q 781 2613 612 2850 
Q 444 3088 444 3419 
Q 444 3919 803 4259 
Q 1163 4600 1759 4600 
Q 2359 4600 2725 4251 
Q 3091 3903 3091 3403 
Q 3091 3084 2923 2848 
Q 2756 2613 2416 2484 
Q 2838 2347 3058 2040 
Q 3278 1734 3278 1309 
Q 3278 722 2862 322 
Q 2447 -78 1769 -78 
Q 1091 -78 675 323 
Q 259 725 259 1325 
Q 259 1772 486 2073 
Q 713 2375 1131 2484 
z
M 1019 3438 
Q 1019 3113 1228 2906 
Q 1438 2700 1772 2700 
Q 2097 2700 2305 2904 
Q 2513 3109 2513 3406 
Q 2513 3716 2298 3927 
Q 2084 4138 1766 4138 
Q 1444 4138 1231 3931 
Q 1019 3725 1019 3438 
z
M 838 1322 
Q 838 1081 952 856 
Q 1066 631 1291 507 
Q 1516 384 1775 384 
Q 2178 384 2440 643 
Q 2703 903 2703 1303 
Q 2703 1709 2433 1975 
Q 2163 2241 1756 2241 
Q 1359 2241 1098 1978 
Q 838 1716 838 1322 
z
" transform="scale(0.015625)"/>
       </defs>
       <use xlink:href="#ArialMT-30"/>
       <use xlink:href="#ArialMT-2e" transform="translate(55.615234 0)"/>
       <use xlink:href="#ArialMT-38" transform="translate(83.398438 0)"/>
      </g>
     </g>
    </g>
    <g id="xtick_6">
     <g id="line2d_11">
      <path d="M 282.023758 265.022801 
L 282.023758 19.642031 
" clip-path="url(#p64da9dea81)" style="fill: none; stroke: #c0c0c0; stroke-width: 0.25; stroke-linecap: round"/>
     </g>
     <g id="line2d_12"/>
     <g id="text_6">
      <!-- 1.0 -->
      <g style="fill: #333333" transform="translate(275.768758 274.964832) scale(0.09 -0.09)">
       <defs>
        <path id="ArialMT-31" d="M 2384 0 
L 1822 0 
L 1822 3584 
Q 1619 3391 1289 3197 
Q 959 3003 697 2906 
L 697 3450 
Q 1169 3672 1522 3987 
Q 1875 4303 2022 4600 
L 2384 4600 
L 2384 0 
z
" transform="scale(0.015625)"/>
       </defs>
       <use xlink:href="#ArialMT-31"/>
       <use xlink:href="#ArialMT-2e" transform="translate(55.615234 0)"/>
       <use xlink:href="#ArialMT-30" transform="translate(83.398438 0)"/>
      </g>
     </g>
    </g>
    <g id="text_7">
     <!-- Recall [TP / (TP + FN)] -->
     <g style="fill: #333333" transform="translate(115.706479 287.305301) scale(0.09 -0.09)">
      <defs>
       <path id="Arial-BoldMT-52" d="M 469 0 
L 469 4581 
L 2416 4581 
Q 3150 4581 3483 4457 
Q 3816 4334 4016 4018 
Q 4216 3703 4216 3297 
Q 4216 2781 3912 2445 
Q 3609 2109 3006 2022 
Q 3306 1847 3501 1637 
Q 3697 1428 4028 894 
L 4588 0 
L 3481 0 
L 2813 997 
Q 2456 1531 2325 1670 
Q 2194 1809 2047 1861 
Q 1900 1913 1581 1913 
L 1394 1913 
L 1394 0 
L 469 0 
z
M 1394 2644 
L 2078 2644 
Q 2744 2644 2909 2700 
Q 3075 2756 3169 2893 
Q 3263 3031 3263 3238 
Q 3263 3469 3139 3611 
Q 3016 3753 2791 3791 
Q 2678 3806 2116 3806 
L 1394 3806 
L 1394 2644 
z
" transform="scale(0.015625)"/>
       <path id="Arial-BoldMT-65" d="M 2381 1056 
L 3256 909 
Q 3088 428 2723 176 
Q 2359 -75 1813 -75 
Q 947 -75 531 491 
Q 203 944 203 1634 
Q 203 2459 634 2926 
Q 1066 3394 1725 3394 
Q 2466 3394 2894 2905 
Q 3322 2416 3303 1406 
L 1103 1406 
Q 1113 1016 1316 798 
Q 1519 581 1822 581 
Q 2028 581 2168 693 
Q 2309 806 2381 1056 
z
M 2431 1944 
Q 2422 2325 2234 2523 
Q 2047 2722 1778 2722 
Q 1491 2722 1303 2513 
Q 1116 2303 1119 1944 
L 2431 1944 
z
" transform="scale(0.015625)"/>
       <path id="Arial-BoldMT-63" d="M 3353 2338 
L 2488 2181 
Q 2444 2441 2289 2572 
Q 2134 2703 1888 2703 
Q 1559 2703 1364 2476 
Q 1169 2250 1169 1719 
Q 1169 1128 1367 884 
Q 1566 641 1900 641 
Q 2150 641 2309 783 
Q 2469 925 2534 1272 
L 3397 1125 
Q 3263 531 2881 228 
Q 2500 -75 1859 -75 
Q 1131 -75 698 384 
Q 266 844 266 1656 
Q 266 2478 700 2936 
Q 1134 3394 1875 3394 
Q 2481 3394 2839 3133 
Q 3197 2872 3353 2338 
z
" transform="scale(0.015625)"/>
       <path id="Arial-BoldMT-61" d="M 1116 2306 
L 319 2450 
Q 453 2931 781 3162 
Q 1109 3394 1756 3394 
Q 2344 3394 2631 3255 
Q 2919 3116 3036 2902 
Q 3153 2688 3153 2116 
L 3144 1091 
Q 3144 653 3186 445 
Q 3228 238 3344 0 
L 2475 0 
Q 2441 88 2391 259 
Q 2369 338 2359 363 
Q 2134 144 1878 34 
Q 1622 -75 1331 -75 
Q 819 -75 523 203 
Q 228 481 228 906 
Q 228 1188 362 1408 
Q 497 1628 739 1745 
Q 981 1863 1438 1950 
Q 2053 2066 2291 2166 
L 2291 2253 
Q 2291 2506 2166 2614 
Q 2041 2722 1694 2722 
Q 1459 2722 1328 2630 
Q 1197 2538 1116 2306 
z
M 2291 1594 
Q 2122 1538 1756 1459 
Q 1391 1381 1278 1306 
Q 1106 1184 1106 997 
Q 1106 813 1243 678 
Q 1381 544 1594 544 
Q 1831 544 2047 700 
Q 2206 819 2256 991 
Q 2291 1103 2291 1419 
L 2291 1594 
z
" transform="scale(0.015625)"/>
       <path id="Arial-BoldMT-6c" d="M 459 0 
L 459 4581 
L 1338 4581 
L 1338 0 
L 459 0 
z
" transform="scale(0.015625)"/>
       <path id="Arial-BoldMT-20" transform="scale(0.015625)"/>
       <path id="Arial-BoldMT-5b" d="M 456 -1291 
L 456 4581 
L 2013 4581 
L 2013 3891 
L 1291 3891 
L 1291 -600 
L 2013 -600 
L 2013 -1291 
L 456 -1291 
z
" transform="scale(0.015625)"/>
       <path id="Arial-BoldMT-54" d="M 1497 0 
L 1497 3806 
L 138 3806 
L 138 4581 
L 3778 4581 
L 3778 3806 
L 2422 3806 
L 2422 0 
L 1497 0 
z
" transform="scale(0.015625)"/>
       <path id="Arial-BoldMT-50" d="M 466 0 
L 466 4581 
L 1950 4581 
Q 2794 4581 3050 4513 
Q 3444 4409 3709 4064 
Q 3975 3719 3975 3172 
Q 3975 2750 3822 2462 
Q 3669 2175 3433 2011 
Q 3197 1847 2953 1794 
Q 2622 1728 1994 1728 
L 1391 1728 
L 1391 0 
L 466 0 
z
M 1391 3806 
L 1391 2506 
L 1897 2506 
Q 2444 2506 2628 2578 
Q 2813 2650 2917 2803 
Q 3022 2956 3022 3159 
Q 3022 3409 2875 3571 
Q 2728 3734 2503 3775 
Q 2338 3806 1838 3806 
L 1391 3806 
z
" transform="scale(0.015625)"/>
       <path id="Arial-BoldMT-2f" d="M -9 -78 
L 1125 4659 
L 1784 4659 
L 638 -78 
L -9 -78 
z
" transform="scale(0.015625)"/>
       <path id="Arial-BoldMT-28" d="M 1916 -1347 
L 1313 -1347 
Q 834 -625 584 153 
Q 334 931 334 1659 
Q 334 2563 644 3369 
Q 913 4069 1325 4659 
L 1925 4659 
Q 1497 3713 1336 3048 
Q 1175 2384 1175 1641 
Q 1175 1128 1270 590 
Q 1366 53 1531 -431 
Q 1641 -750 1916 -1347 
z
" transform="scale(0.015625)"/>
       <path id="Arial-BoldMT-2b" d="M 1466 659 
L 1466 1850 
L 266 1850 
L 266 2672 
L 1466 2672 
L 1466 3863 
L 2266 3863 
L 2266 2672 
L 3469 2672 
L 3469 1850 
L 2266 1850 
L 2266 659 
L 1466 659 
z
" transform="scale(0.015625)"/>
       <path id="Arial-BoldMT-46" d="M 472 0 
L 472 4581 
L 3613 4581 
L 3613 3806 
L 1397 3806 
L 1397 2722 
L 3309 2722 
L 3309 1947 
L 1397 1947 
L 1397 0 
L 472 0 
z
" transform="scale(0.015625)"/>
       <path id="Arial-BoldMT-4e" d="M 475 0 
L 475 4581 
L 1375 4581 
L 3250 1522 
L 3250 4581 
L 4109 4581 
L 4109 0 
L 3181 0 
L 1334 2988 
L 1334 0 
L 475 0 
z
" transform="scale(0.015625)"/>
       <path id="Arial-BoldMT-29" d="M 216 -1347 
Q 475 -791 581 -494 
Q 688 -197 778 190 
Q 869 578 912 926 
Q 956 1275 956 1641 
Q 956 2384 797 3048 
Q 638 3713 209 4659 
L 806 4659 
Q 1278 3988 1539 3234 
Q 1800 2481 1800 1706 
Q 1800 1053 1594 306 
Q 1359 -531 822 -1347 
L 216 -1347 
z
" transform="scale(0.015625)"/>
       <path id="Arial-BoldMT-5d" d="M 1675 4581 
L 1675 -1291 
L 119 -1291 
L 119 -600 
L 841 -600 
L 841 3897 
L 119 3897 
L 119 4581 
L 1675 4581 
z
" transform="scale(0.015625)"/>
      </defs>
      <use xlink:href="#Arial-BoldMT-52"/>
      <use xlink:href="#Arial-BoldMT-65" transform="translate(72.216797 0)"/>
      <use xlink:href="#Arial-BoldMT-63" transform="translate(127.832031 0)"/>
      <use xlink:href="#Arial-BoldMT-61" transform="translate(183.447266 0)"/>
      <use xlink:href="#Arial-BoldMT-6c" transform="translate(239.0625 0)"/>
      <use xlink:href="#Arial-BoldMT-6c" transform="translate(266.845703 0)"/>
      <use xlink:href="#Arial-BoldMT-20" transform="translate(294.628906 0)"/>
      <use xlink:href="#Arial-BoldMT-5b" transform="translate(322.412109 0)"/>
      <use xlink:href="#Arial-BoldMT-54" transform="translate(355.712891 0)"/>
      <use xlink:href="#Arial-BoldMT-50" transform="translate(416.796875 0)"/>
      <use xlink:href="#Arial-BoldMT-20" transform="translate(481.746094 0)"/>
      <use xlink:href="#Arial-BoldMT-2f" transform="translate(509.529297 0)"/>
      <use xlink:href="#Arial-BoldMT-20" transform="translate(537.3125 0)"/>
      <use xlink:href="#Arial-BoldMT-28" transform="translate(565.095703 0)"/>
      <use xlink:href="#Arial-BoldMT-54" transform="translate(598.396484 0)"/>
      <use xlink:href="#Arial-BoldMT-50" transform="translate(659.480469 0)"/>
      <use xlink:href="#Arial-BoldMT-20" transform="translate(724.429688 0)"/>
      <use xlink:href="#Arial-BoldMT-2b" transform="translate(752.212891 0)"/>
      <use xlink:href="#Arial-BoldMT-20" transform="translate(810.611328 0)"/>
      <use xlink:href="#Arial-BoldMT-46" transform="translate(838.394531 0)"/>
      <use xlink:href="#Arial-BoldMT-4e" transform="translate(899.478516 0)"/>
      <use xlink:href="#Arial-BoldMT-29" transform="translate(971.695312 0)"/>
      <use xlink:href="#Arial-BoldMT-5d" transform="translate(1004.996094 0)"/>
     </g>
    </g>
   </g>
   <g id="matplotlib.axis_2">
    <g id="ytick_1">
     <g id="line2d_13">
      <path d="M 35.655938 265.022801 
L 289.19952 265.022801 
" clip-path="url(#p64da9dea81)" style="fill: none; stroke: #c0c0c0; stroke-width: 0.25; stroke-linecap: round"/>
     </g>
     <g id="line2d_14"/>
     <g id="text_8">
      <!-- 0.0 -->
      <g style="fill: #333333" transform="translate(19.645938 268.243817) scale(0.09 -0.09)">
       <use xlink:href="#ArialMT-30"/>
       <use xlink:href="#ArialMT-2e" transform="translate(55.615234 0)"/>
       <use xlink:href="#ArialMT-30" transform="translate(83.398438 0)"/>
      </g>
     </g>
    </g>
    <g id="ytick_2">
     <g id="line2d_15">
      <path d="M 35.655938 217.37605 
L 289.19952 217.37605 
" clip-path="url(#p64da9dea81)" style="fill: none; stroke: #c0c0c0; stroke-width: 0.25; stroke-linecap: round"/>
     </g>
     <g id="line2d_16"/>
     <g id="text_9">
      <!-- 0.2 -->
      <g style="fill: #333333" transform="translate(19.645938 220.597065) scale(0.09 -0.09)">
       <use xlink:href="#ArialMT-30"/>
       <use xlink:href="#ArialMT-2e" transform="translate(55.615234 0)"/>
       <use xlink:href="#ArialMT-32" transform="translate(83.398438 0)"/>
      </g>
     </g>
    </g>
    <g id="ytick_3">
     <g id="line2d_17">
      <path d="M 35.655938 169.729298 
L 289.19952 169.729298 
" clip-path="url(#p64da9dea81)" style="fill: none; stroke: #c0c0c0; stroke-width: 0.25; stroke-linecap: round"/>
     </g>
     <g id="line2d_18"/>
     <g id="text_10">
      <!-- 0.4 -->
      <g style="fill: #333333" transform="translate(19.645938 172.950314) scale(0.09 -0.09)">
       <use xlink:href="#ArialMT-30"/>
       <use xlink:href="#ArialMT-2e" transform="translate(55.615234 0)"/>
       <use xlink:href="#ArialMT-34" transform="translate(83.398438 0)"/>
      </g>
     </g>
    </g>
    <g id="ytick_4">
     <g id="line2d_19">
      <path d="M 35.655938 122.082547 
L 289.19952 122.082547 
" clip-path="url(#p64da9dea81)" style="fill: none; stroke: #c0c0c0; stroke-width: 0.25; stroke-linecap: round"/>
     </g>
     <g id="line2d_20"/>
     <g id="text_11">
      <!-- 0.6 -->
      <g style="fill: #333333" transform="translate(19.645938 125.303563) scale(0.09 -0.09)">
       <use xlink:href="#ArialMT-30"/>
       <use xlink:href="#ArialMT-2e" transform="translate(55.615234 0)"/>
       <use xlink:href="#ArialMT-36" transform="translate(83.398438 0)"/>
      </g>
     </g>
    </g>
    <g id="ytick_5">
     <g id="line2d_21">
      <path d="M 35.655938 74.435795 
L 289.19952 74.435795 
" clip-path="url(#p64da9dea81)" style="fill: none; stroke: #c0c0c0; stroke-width: 0.25; stroke-linecap: round"/>
     </g>
     <g id="line2d_22"/>
     <g id="text_12">
      <!-- 0.8 -->
      <g style="fill: #333333" transform="translate(19.645938 77.656811) scale(0.09 -0.09)">
       <use xlink:href="#ArialMT-30"/>
       <use xlink:href="#ArialMT-2e" transform="translate(55.615234 0)"/>
       <use xlink:href="#ArialMT-38" transform="translate(83.398438 0)"/>
      </g>
     </g>
    </g>
    <g id="ytick_6">
     <g id="line2d_23">
      <path d="M 35.655938 26.789044 
L 289.19952 26.789044 
" clip-path="url(#p64da9dea81)" style="fill: none; stroke: #c0c0c0; stroke-width: 0.25; stroke-linecap: round"/>
     </g>
     <g id="line2d_24"/>
     <g id="text_13">
      <!-- 1.0 -->
      <g style="fill: #333333" transform="translate(19.645938 30.01006) scale(0.09 -0.09)">
       <use xlink:href="#ArialMT-31"/>
       <use xlink:href="#ArialMT-2e" transform="translate(55.615234 0)"/>
       <use xlink:href="#ArialMT-30" transform="translate(83.398438 0)"/>
      </g>
     </g>
    </g>
    <g id="text_14">
     <!-- Precision [TP / (TP + FP)] -->
     <g style="fill: #333333" transform="translate(13.751719 195.805776) rotate(-90) scale(0.09 -0.09)">
      <defs>
       <path id="Arial-BoldMT-72" d="M 1300 0 
L 422 0 
L 422 3319 
L 1238 3319 
L 1238 2847 
Q 1447 3181 1614 3287 
Q 1781 3394 1994 3394 
Q 2294 3394 2572 3228 
L 2300 2463 
Q 2078 2606 1888 2606 
Q 1703 2606 1575 2504 
Q 1447 2403 1373 2137 
Q 1300 1872 1300 1025 
L 1300 0 
z
" transform="scale(0.015625)"/>
       <path id="Arial-BoldMT-69" d="M 459 3769 
L 459 4581 
L 1338 4581 
L 1338 3769 
L 459 3769 
z
M 459 0 
L 459 3319 
L 1338 3319 
L 1338 0 
L 459 0 
z
" transform="scale(0.015625)"/>
       <path id="Arial-BoldMT-73" d="M 150 947 
L 1031 1081 
Q 1088 825 1259 692 
Q 1431 559 1741 559 
Q 2081 559 2253 684 
Q 2369 772 2369 919 
Q 2369 1019 2306 1084 
Q 2241 1147 2013 1200 
Q 950 1434 666 1628 
Q 272 1897 272 2375 
Q 272 2806 612 3100 
Q 953 3394 1669 3394 
Q 2350 3394 2681 3172 
Q 3013 2950 3138 2516 
L 2309 2363 
Q 2256 2556 2107 2659 
Q 1959 2763 1684 2763 
Q 1338 2763 1188 2666 
Q 1088 2597 1088 2488 
Q 1088 2394 1175 2328 
Q 1294 2241 1995 2081 
Q 2697 1922 2975 1691 
Q 3250 1456 3250 1038 
Q 3250 581 2869 253 
Q 2488 -75 1741 -75 
Q 1063 -75 667 200 
Q 272 475 150 947 
z
" transform="scale(0.015625)"/>
       <path id="Arial-BoldMT-6f" d="M 256 1706 
Q 256 2144 472 2553 
Q 688 2963 1083 3178 
Q 1478 3394 1966 3394 
Q 2719 3394 3200 2905 
Q 3681 2416 3681 1669 
Q 3681 916 3195 420 
Q 2709 -75 1972 -75 
Q 1516 -75 1102 131 
Q 688 338 472 736 
Q 256 1134 256 1706 
z
M 1156 1659 
Q 1156 1166 1390 903 
Q 1625 641 1969 641 
Q 2313 641 2545 903 
Q 2778 1166 2778 1666 
Q 2778 2153 2545 2415 
Q 2313 2678 1969 2678 
Q 1625 2678 1390 2415 
Q 1156 2153 1156 1659 
z
" transform="scale(0.015625)"/>
       <path id="Arial-BoldMT-6e" d="M 3478 0 
L 2600 0 
L 2600 1694 
Q 2600 2231 2544 2389 
Q 2488 2547 2361 2634 
Q 2234 2722 2056 2722 
Q 1828 2722 1647 2597 
Q 1466 2472 1398 2265 
Q 1331 2059 1331 1503 
L 1331 0 
L 453 0 
L 453 3319 
L 1269 3319 
L 1269 2831 
Q 1703 3394 2363 3394 
Q 2653 3394 2893 3289 
Q 3134 3184 3257 3021 
Q 3381 2859 3429 2653 
Q 3478 2447 3478 2063 
L 3478 0 
z
" transform="scale(0.015625)"/>
      </defs>
      <use xlink:href="#Arial-BoldMT-50"/>
      <use xlink:href="#Arial-BoldMT-72" transform="translate(66.699219 0)"/>
      <use xlink:href="#Arial-BoldMT-65" transform="translate(105.615234 0)"/>
      <use xlink:href="#Arial-BoldMT-63" transform="translate(161.230469 0)"/>
      <use xlink:href="#Arial-BoldMT-69" transform="translate(216.845703 0)"/>
      <use xlink:href="#Arial-BoldMT-73" transform="translate(244.628906 0)"/>
      <use xlink:href="#Arial-BoldMT-69" transform="translate(300.244141 0)"/>
      <use xlink:href="#Arial-BoldMT-6f" transform="translate(328.027344 0)"/>
      <use xlink:href="#Arial-BoldMT-6e" transform="translate(389.111328 0)"/>
      <use xlink:href="#Arial-BoldMT-20" transform="translate(450.195312 0)"/>
      <use xlink:href="#Arial-BoldMT-5b" transform="translate(477.978516 0)"/>
      <use xlink:href="#Arial-BoldMT-54" transform="translate(511.279297 0)"/>
      <use xlink:href="#Arial-BoldMT-50" transform="translate(572.363281 0)"/>
      <use xlink:href="#Arial-BoldMT-20" transform="translate(637.3125 0)"/>
      <use xlink:href="#Arial-BoldMT-2f" transform="translate(665.095703 0)"/>
      <use xlink:href="#Arial-BoldMT-20" transform="translate(692.878906 0)"/>
      <use xlink:href="#Arial-BoldMT-28" transform="translate(720.662109 0)"/>
      <use xlink:href="#Arial-BoldMT-54" transform="translate(753.962891 0)"/>
      <use xlink:href="#Arial-BoldMT-50" transform="translate(815.046875 0)"/>
      <use xlink:href="#Arial-BoldMT-20" transform="translate(879.996094 0)"/>
      <use xlink:href="#Arial-BoldMT-2b" transform="translate(907.779297 0)"/>
      <use xlink:href="#Arial-BoldMT-20" transform="translate(966.177734 0)"/>
      <use xlink:href="#Arial-BoldMT-46" transform="translate(993.960938 0)"/>
      <use xlink:href="#Arial-BoldMT-50" transform="translate(1055.044922 0)"/>
      <use xlink:href="#Arial-BoldMT-29" transform="translate(1121.744141 0)"/>
      <use xlink:href="#Arial-BoldMT-5d" transform="translate(1155.044922 0)"/>
     </g>
    </g>
   </g>
   <g id="line2d_25">
    <path d="M 42.831699 265.022801 
L 42.942752 243.397615 
L 42.943109 243.308439 
L 43.054019 233.766604 
L 43.056014 233.677428 
L 43.166592 226.097465 
L 43.168563 226.008289 
L 43.27755 219.899731 
L 43.280305 219.810555 
L 43.391239 215.44093 
L 43.396227 215.351754 
L 43.504596 211.517185 
L 43.506377 211.517185 
L 43.519249 211.428009 
L 43.630231 208.663552 
L 43.637071 208.574376 
L 43.748029 205.809919 
L 43.756745 205.720743 
L 43.867466 203.000874 
L 43.871669 202.911698 
L 43.978352 200.325593 
L 43.97992 200.325593 
L 44.005213 200.236417 
L 44.11515 198.274545 
L 44.119259 198.185369 
L 44.230003 195.91138 
L 44.235679 195.822204 
L 44.346732 193.904919 
L 44.362953 193.815743 
L 44.467095 192.388927 
L 44.486878 192.299751 
L 44.597314 190.427054 
L 44.623248 190.337878 
L 44.728791 188.598946 
L 44.742329 188.50977 
L 44.853097 186.547897 
L 44.857514 186.458721 
L 44.967665 185.121081 
L 44.982437 185.031905 
L 45.087315 183.5605 
L 45.114651 183.471324 
L 45.224112 182.22286 
L 45.234135 182.133684 
L 45.343573 180.706867 
L 45.373972 180.617691 
L 45.476855 179.235463 
L 45.495641 179.146287 
L 45.606623 178.076175 
L 45.621562 177.986998 
L 45.732472 176.961474 
L 45.738908 176.872298 
L 45.83906 175.891362 
L 45.864116 175.802186 
L 45.96859 174.642897 
L 45.971488 174.642897 
L 45.989799 174.553721 
L 46.096078 173.126905 
L 46.104485 173.082317 
L 46.214018 171.789265 
L 46.231973 171.700089 
L 46.341459 170.76374 
L 46.371549 170.674564 
L 46.480465 169.827392 
L 46.493551 169.738216 
L 46.604058 168.623516 
L 46.622321 168.53434 
L 46.732685 167.597991 
L 46.738599 167.508815 
L 46.846469 166.483291 
L 46.85889 166.394115 
L 46.96764 165.413179 
L 46.98208 165.324003 
L 47.078408 164.25389 
L 47.106124 164.164714 
L 47.214825 163.183778 
L 47.237269 163.094602 
L 47.340793 162.202842 
L 47.359959 162.113666 
L 47.467853 161.400257 
L 47.492719 161.311081 
L 47.603202 160.553085 
L 47.624387 160.463909 
L 47.718269 159.705913 
L 47.755223 159.616737 
L 47.858296 158.814153 
L 47.864139 158.814153 
L 47.916483 158.724977 
L 48.025588 157.654864 
L 48.045182 157.565688 
L 48.15215 157.07522 
L 48.18699 156.986044 
L 48.297901 156.317224 
L 48.317874 156.228048 
L 48.393184 155.559228 
L 48.423702 155.559228 
L 48.447832 155.470052 
L 48.554349 154.756643 
L 48.555869 154.756643 
L 48.565487 154.667467 
L 48.671007 153.820295 
L 48.74311 153.731119 
L 48.812222 153.196063 
L 48.891711 153.106887 
L 49.002598 152.527243 
L 49.022667 152.438067 
L 49.132651 151.501718 
L 49.162243 151.412542 
L 49.269045 150.431606 
L 49.292557 150.34243 
L 49.39069 149.851962 
L 49.426362 149.762786 
L 49.527582 149.183142 
L 49.562827 149.093966 
L 49.658823 148.202205 
L 49.665639 148.202205 
L 49.71119 148.113029 
L 49.820225 147.310445 
L 49.846349 147.221269 
L 49.951536 146.686213 
L 49.978563 146.597037 
L 50.088215 145.705277 
L 50.118804 145.616101 
L 50.223754 145.081044 
L 50.235747 144.991868 
L 50.346088 144.367636 
L 50.357131 144.27846 
L 50.458661 143.743404 
L 50.481698 143.654228 
L 50.588903 143.029996 
L 50.618828 142.94082 
L 50.719312 142.182823 
L 50.723326 142.182823 
L 50.752965 142.093647 
L 50.861857 141.603179 
L 50.879432 141.514003 
L 50.977185 140.889771 
L 51.024067 140.800595 
L 51.131937 140.310127 
L 51.134455 140.310127 
L 51.160033 140.220951 
L 51.271015 139.552131 
L 51.297686 139.462955 
L 51.40311 139.017074 
L 51.435314 138.927898 
L 51.538411 138.571194 
L 51.556556 138.482018 
L 51.655853 137.857786 
L 51.68858 137.76861 
L 51.793173 137.09979 
L 51.825377 137.010614 
L 51.926194 136.43097 
L 51.969561 136.341794 
L 52.058147 135.895914 
L 52.141935 135.806738 
L 52.244272 135.271681 
L 52.282129 135.182505 
L 52.36017 134.736625 
L 52.418048 134.647449 
L 52.476496 134.156981 
L 52.491529 134.156981 
L 52.544894 134.067805 
L 52.652551 133.354397 
L 52.676609 133.265221 
L 52.785786 132.774753 
L 52.810343 132.685577 
L 52.917098 132.37346 
L 52.945716 132.284284 
L 53.054774 131.972168 
L 53.056531 131.972168 
L 53.078808 131.882992 
L 53.133884 131.570876 
L 53.173949 131.570876 
L 53.247715 131.4817 
L 53.336016 130.902056 
L 53.369052 130.81288 
L 53.476305 130.233236 
L 53.500435 130.14406 
L 53.611274 129.742768 
L 53.668154 129.653592 
L 53.775645 129.118535 
L 53.776286 129.118535 
L 53.823358 129.029359 
L 53.900425 128.717243 
L 53.919045 128.717243 
L 53.991884 128.628067 
L 54.096668 128.003835 
L 54.187652 127.914659 
L 54.282247 127.602543 
L 54.343544 127.513367 
L 54.449871 126.978311 
L 54.482883 126.889135 
L 54.553633 126.577019 
L 54.556602 126.577019 
L 54.609065 126.487843 
L 54.698909 125.86361 
L 54.702163 125.86361 
L 54.78816 125.774434 
L 54.888122 125.283966 
L 54.899047 125.283966 
L 54.955785 125.19479 
L 55.034182 124.927262 
L 55.042209 124.927262 
L 55.102937 124.838086 
L 55.203754 124.30303 
L 55.2271 124.213854 
L 55.332097 123.767974 
L 55.450179 123.678798 
L 55.555366 123.143742 
L 55.610679 123.054566 
L 55.712351 122.787037 
L 55.739378 122.697861 
L 55.849386 122.073629 
L 55.862068 121.984453 
L 55.951367 121.761513 
L 55.964548 121.761513 
L 55.999032 121.672337 
L 56.10429 121.003517 
L 56.117329 120.914341 
L 56.216982 120.602225 
L 56.313263 120.513049 
L 56.41503 120.067169 
L 56.458396 119.977993 
L 56.519623 119.799641 
L 56.522758 119.799641 
L 56.599041 119.710465 
L 56.68416 119.442936 
L 56.719618 119.35376 
L 56.821314 118.997056 
L 56.824733 118.997056 
L 56.867578 118.90788 
L 56.969463 118.372824 
L 57.017485 118.283648 
L 57.110631 118.060708 
L 57.147918 117.971532 
L 57.252938 117.659416 
L 57.291508 117.57024 
L 57.383418 117.302712 
L 57.398404 117.302712 
L 57.43505 117.213536 
L 57.530927 116.767656 
L 57.537007 116.767656 
L 57.58434 116.67848 
L 57.682901 116.321776 
L 57.692187 116.321776 
L 57.749233 116.232599 
L 57.844516 116.054247 
L 57.867886 115.965071 
L 57.945452 115.652955 
L 58.065245 115.563779 
L 58.152121 115.340839 
L 58.207077 115.251663 
L 58.31756 115.028723 
L 58.350691 114.939547 
L 58.451342 114.716607 
L 58.489721 114.627431 
L 58.59733 114.315315 
L 58.651836 114.226139 
L 58.75536 113.958611 
L 58.81262 113.869435 
L 58.915266 113.512731 
L 58.965567 113.423555 
L 59.056552 113.156027 
L 59.071657 113.156027 
L 59.096784 113.066851 
L 59.193777 112.754734 
L 59.248639 112.665558 
L 59.352875 112.39803 
L 59.473143 112.308854 
L 59.560304 112.130502 
L 59.567358 112.130502 
L 59.626755 112.041326 
L 59.736977 111.417094 
L 59.782648 111.327918 
L 59.891183 111.149566 
L 59.891587 111.149566 
L 59.951412 111.06039 
L 60.051825 110.569922 
L 60.058166 110.569922 
L 60.07263 110.480746 
L 60.177532 110.079454 
L 60.178411 110.079454 
L 60.285925 109.990278 
L 60.387906 109.811926 
L 60.469105 109.722749 
L 60.576406 109.455221 
L 60.614951 109.366045 
L 60.718001 109.053929 
L 60.762413 108.964753 
L 60.837912 108.697225 
L 60.868122 108.697225 
L 60.999457 108.608049 
L 61.078994 108.385109 
L 61.167366 108.295933 
L 61.249018 107.983817 
L 61.333352 107.894641 
L 61.39256 107.537937 
L 61.432792 107.537937 
L 61.489197 107.448761 
L 61.584433 107.181233 
L 61.612718 107.092057 
L 61.69323 106.913705 
L 61.816466 106.824529 
L 61.902083 106.601589 
L 61.93633 106.512412 
L 62.026769 106.244884 
L 62.088351 106.155708 
L 62.177365 105.88818 
L 62.186318 105.88818 
L 62.244647 105.799004 
L 62.271769 105.709828 
L 62.330668 105.709828 
L 62.398853 105.620652 
L 62.493353 105.397712 
L 62.551587 105.308536 
L 62.618109 105.085596 
L 62.642262 105.085596 
L 62.757305 104.99642 
L 62.861518 104.461364 
L 62.864677 104.461364 
L 62.900302 104.372188 
L 63.011117 104.10466 
L 63.149886 104.015484 
L 63.256094 103.926308 
L 63.256806 103.926308 
L 63.315753 103.837132 
L 63.315753 103.792544 
L 63.376457 103.792544 
L 63.467821 103.703368 
L 63.530401 103.43584 
L 63.559637 103.43584 
L 63.637797 103.346664 
L 63.669788 103.212899 
L 63.728877 103.212899 
L 63.769892 103.123723 
L 63.87819 102.811607 
L 63.932885 102.722431 
L 64.01152 102.544079 
L 64.038951 102.544079 
L 64.07961 102.454903 
L 64.182517 102.321139 
L 64.270319 102.231963 
L 64.349595 102.009023 
L 64.408518 101.919847 
L 64.51133 101.518555 
L 64.647439 101.429379 
L 64.738043 101.340203 
L 64.756734 101.340203 
L 64.822901 101.251027 
L 64.922601 101.072675 
L 64.991855 100.983499 
L 65.086545 100.760559 
L 65.162828 100.671383 
L 65.263645 100.403855 
L 65.328007 100.314679 
L 65.432006 100.002562 
L 65.467227 99.913386 
L 65.575738 99.60127 
L 65.629887 99.512094 
L 65.723484 99.15539 
L 65.729778 99.15539 
L 65.80998 99.066214 
L 65.901179 98.531158 
L 65.920867 98.531158 
L 65.969957 98.441982 
L 66.055385 98.129866 
L 66.061393 98.129866 
L 66.214174 98.04069 
L 66.289935 97.81775 
L 66.427659 97.728574 
L 66.504869 97.550222 
L 66.533701 97.550222 
L 66.631621 97.461046 
L 66.741035 97.14893 
L 66.824966 97.059754 
L 66.92887 96.792226 
L 66.931886 96.792226 
L 66.952477 96.703049 
L 67.052368 96.435521 
L 67.062177 96.435521 
L 67.079181 96.346345 
L 67.168741 96.034229 
L 67.189617 96.034229 
L 67.245428 95.945053 
L 67.302878 95.766701 
L 67.355864 95.766701 
L 67.400394 95.677525 
L 67.503159 95.409997 
L 67.567662 95.320821 
L 67.659645 95.097881 
L 67.674821 95.097881 
L 67.689949 95.008705 
L 67.797392 94.785765 
L 67.844844 94.696589 
L 67.921294 94.562825 
L 67.950506 94.562825 
L 68.077138 94.473649 
L 68.143115 94.206121 
L 68.165225 94.206121 
L 68.261577 94.116945 
L 68.330119 93.983181 
L 68.457298 93.894005 
L 68.567804 93.581889 
L 68.586947 93.492712 
L 68.68033 93.269772 
L 68.765876 93.180596 
L 68.865529 93.002244 
L 68.868427 93.002244 
L 68.997909 92.913068 
L 69.0978 92.64554 
L 69.100959 92.64554 
L 69.129292 92.556364 
L 69.232792 92.288836 
L 69.239039 92.288836 
L 69.30169 92.19966 
L 69.397282 91.97672 
L 69.410083 91.97672 
L 69.52933 91.887544 
L 69.626893 91.75378 
L 69.670758 91.664604 
L 69.770032 91.441664 
L 69.810762 91.352488 
L 69.917041 90.995784 
L 70.05562 90.906608 
L 70.126156 90.683668 
L 70.14765 90.683668 
L 70.396498 90.594492 
L 70.486366 90.460728 
L 70.643375 90.371552 
L 70.742125 90.148611 
L 70.797034 90.059435 
L 70.797034 90.014847 
L 70.863106 90.014847 
L 70.996602 89.925671 
L 71.053031 89.791907 
L 71.094403 89.791907 
L 71.243692 89.702731 
L 71.338762 89.256851 
L 71.349093 89.256851 
L 71.389277 89.167675 
L 71.447321 88.989323 
L 71.464611 88.989323 
L 71.558089 88.900147 
L 71.586803 88.721795 
L 71.666981 88.721795 
L 71.71125 88.632619 
L 71.763048 88.409679 
L 71.765969 88.409679 
L 71.917468 88.320503 
L 71.985867 88.186739 
L 72.014722 88.186739 
L 72.283425 88.097563 
L 72.283425 88.052975 
L 72.391747 88.052975 
L 72.499902 87.963799 
L 72.602619 87.696271 
L 72.606894 87.696271 
L 72.789006 87.607095 
L 72.862273 87.473331 
L 72.890797 87.473331 
L 73.018427 87.384155 
L 73.087609 87.161215 
L 73.11979 87.161215 
L 73.156839 87.072039 
L 73.248133 86.893686 
L 73.407991 86.80451 
L 73.512513 86.58157 
L 73.558112 86.492394 
L 73.668548 86.403218 
L 73.756943 86.314042 
L 73.756943 86.269454 
L 73.851586 86.269454 
L 73.962734 86.180278 
L 73.962734 86.13569 
L 74.069892 86.13569 
L 74.196643 86.046514 
L 74.274447 85.91275 
L 74.296819 85.91275 
L 74.515481 85.823574 
L 74.515481 85.778986 
L 74.62024 85.778986 
L 74.677429 85.68981 
L 74.773615 85.377694 
L 74.788197 85.377694 
L 74.887328 85.288518 
L 74.959076 85.154754 
L 74.990283 85.154754 
L 75.116915 85.065578 
L 75.179424 84.976402 
L 75.185219 84.976402 
L 75.436869 84.887226 
L 75.443638 84.79805 
L 75.547305 84.79805 
L 75.652397 84.708874 
L 75.703007 84.57511 
L 75.757774 84.57511 
L 75.84313 84.485934 
L 75.949076 84.307582 
L 76.002917 84.218406 
L 76.022534 84.12923 
L 76.107035 84.12923 
L 76.141401 84.040054 
L 76.244355 83.90629 
L 76.380036 83.817114 
L 76.478834 83.638761 
L 76.479879 83.638761 
L 76.596062 83.549585 
L 76.670778 83.415821 
L 76.674958 83.415821 
L 76.761739 83.326645 
L 76.857284 83.237469 
L 77.007334 83.148293 
L 77.116463 82.925353 
L 77.184387 82.836177 
L 77.224714 82.702413 
L 77.263473 82.702413 
L 77.431264 82.613237 
L 77.516453 82.434885 
L 77.705737 82.345709 
L 77.717541 82.211945 
L 77.797791 82.211945 
L 77.98831 82.122769 
L 78.066802 82.033593 
L 78.077513 82.033593 
L 78.264612 81.944417 
L 78.319806 81.810653 
L 78.347783 81.810653 
L 78.554618 81.721477 
L 78.596964 81.543125 
L 78.660066 81.543125 
L 78.889654 81.453949 
L 78.999709 81.275597 
L 79.037471 81.186421 
L 79.112543 81.052657 
L 79.148215 81.052657 
L 79.215593 80.963481 
L 79.326076 80.651365 
L 79.54336 80.562189 
L 79.633965 80.383836 
L 79.692223 80.29466 
L 79.76226 80.205484 
L 79.763115 80.205484 
L 79.884001 80.116308 
L 79.977265 79.982544 
L 79.984366 79.982544 
L 80.185359 79.893368 
L 80.246419 79.715016 
L 80.287791 79.715016 
L 80.394213 79.62584 
L 80.502202 79.492076 
L 80.616247 79.4029 
L 80.672581 79.17996 
L 80.726802 79.17996 
L 80.900744 79.090784 
L 80.930003 78.95702 
L 80.988356 78.95702 
L 81.063404 78.867844 
L 81.104895 78.689492 
L 81.153415 78.689492 
L 81.251905 78.600316 
L 81.291638 78.51114 
L 81.359182 78.51114 
L 81.458787 78.421964 
L 81.458787 78.377376 
L 81.560079 78.377376 
L 81.74041 78.2882 
L 81.830349 78.109848 
L 81.838305 78.109848 
L 81.938861 78.020672 
L 81.940619 77.931496 
L 82.034833 77.931496 
L 82.183339 77.84232 
L 82.274419 77.61938 
L 82.417082 77.530204 
L 82.477881 77.39644 
L 82.493271 77.39644 
L 82.615439 77.307264 
L 82.704072 77.128911 
L 82.726492 77.128911 
L 82.7591 77.039735 
L 82.7591 76.995147 
L 82.858753 76.995147 
L 83.079506 76.905971 
L 83.158164 76.727619 
L 83.251761 76.638443 
L 83.353291 76.504679 
L 83.355832 76.504679 
L 83.483581 76.415503 
L 83.508233 76.326327 
L 83.58093 76.326327 
L 83.703811 76.237151 
L 83.703811 76.192563 
L 83.725304 76.192563 
L 83.87818 76.103387 
L 83.93601 75.969623 
L 83.954986 75.969623 
L 84.263588 75.880447 
L 84.342199 75.657507 
L 84.366685 75.657507 
L 84.49194 75.568331 
L 84.58891 75.389979 
L 84.627384 75.300803 
L 84.70438 75.077863 
L 84.954273 74.988687 
L 85.038323 74.854923 
L 85.054876 74.854923 
L 85.167544 74.765747 
L 85.167544 74.721159 
L 85.242403 74.721159 
L 85.568508 74.631983 
L 85.65289 74.453631 
L 85.667663 74.453631 
L 85.8982 74.364455 
L 85.934845 74.230691 
L 85.992937 74.230691 
L 86.28375 74.141515 
L 86.366731 74.052339 
L 86.385422 74.052339 
L 86.430285 73.963162 
L 86.53362 73.695634 
L 86.538298 73.695634 
L 86.818828 73.606458 
L 86.905965 73.472694 
L 87.113727 73.383518 
L 87.210649 73.249754 
L 87.217821 73.249754 
L 87.443466 73.160578 
L 87.443466 73.11599 
L 87.550814 73.11599 
L 87.829562 73.026814 
L 87.921283 72.848462 
L 87.937671 72.848462 
L 87.991606 72.759286 
L 88.042454 72.580934 
L 88.095344 72.580934 
L 88.181555 72.491758 
L 88.181555 72.44717 
L 88.226489 72.44717 
L 88.544757 72.357994 
L 88.615768 72.268818 
L 88.795244 72.179642 
L 88.80415 72.045878 
L 88.834288 72.045878 
L 89.226774 71.956702 
L 89.295932 71.822938 
L 89.316642 71.822938 
L 89.562046 71.733762 
L 89.562046 71.689174 
L 89.667661 71.689174 
L 89.974576 71.599998 
L 90.05219 71.377058 
L 90.359771 71.287882 
L 90.469779 71.154118 
L 90.578528 71.064942 
L 90.600948 70.975766 
L 90.678727 70.975766 
L 91.047178 70.88659 
L 91.095319 70.752825 
L 91.145359 70.752825 
L 91.316973 70.663649 
L 91.393685 70.485297 
L 91.404253 70.485297 
L 91.535422 70.396121 
L 91.541811 70.306945 
L 91.637046 70.306945 
L 91.725561 70.217769 
L 91.774461 70.128593 
L 91.833622 70.128593 
L 92.131156 70.039417 
L 92.234799 69.816477 
L 92.349011 69.727301 
L 92.441729 69.548949 
L 92.555015 69.459773 
L 92.623224 69.236833 
L 92.819086 69.147657 
L 92.919096 68.835541 
L 92.925461 68.835541 
L 92.981605 68.746365 
L 93.081709 68.612601 
L 93.393446 68.523425 
L 93.393446 68.478837 
L 93.462866 68.478837 
L 93.664809 68.389661 
L 93.692833 68.255897 
L 93.764557 68.255897 
L 94.079025 68.166721 
L 94.182003 67.943781 
L 94.395013 67.854605 
L 94.47113 67.720841 
L 94.489061 67.720841 
L 94.757811 67.631665 
L 94.833098 67.4979 
L 94.864803 67.4979 
L 95.008156 67.408724 
L 95.090757 67.27496 
L 95.111086 67.27496 
L 95.174973 67.185784 
L 95.238028 67.096608 
L 95.265767 67.096608 
L 95.409191 67.007432 
L 95.504237 66.918256 
L 95.80854 66.82908 
L 95.907837 66.695316 
L 96.082919 66.60614 
L 96.08812 66.516964 
L 96.192214 66.516964 
L 96.232802 66.427788 
L 96.297639 66.294024 
L 96.301344 66.294024 
L 96.5206 66.204848 
L 96.625668 66.071084 
L 96.825972 65.981908 
L 96.926266 65.848144 
L 96.93332 65.848144 
L 97.03891 65.758968 
L 97.03891 65.71438 
L 97.322076 65.625204 
L 97.322076 65.580616 
L 97.415769 65.580616 
L 97.547009 65.49144 
L 97.651127 65.402264 
L 97.856062 65.313088 
L 97.950514 65.179324 
L 97.952533 65.179324 
L 98.05221 65.090148 
L 98.160009 64.911796 
L 98.422394 64.82262 
L 98.49768 64.733444 
L 98.701594 64.644268 
L 98.803575 64.421328 
L 99.203708 64.332152 
L 99.203708 64.287564 
L 99.276476 64.287564 
L 99.451487 64.198387 
L 99.453696 64.064623 
L 99.513877 64.064623 
L 99.85941 63.975447 
L 99.949254 63.841683 
L 99.9517 63.841683 
L 100.525775 63.752507 
L 100.6027 63.663331 
L 101.116237 63.574155 
L 101.116237 63.529567 
L 101.203469 63.529567 
L 101.730401 63.440391 
L 101.828962 63.306627 
L 101.970177 63.217451 
L 101.970177 63.172863 
L 102.073653 63.172863 
L 102.163664 63.083687 
L 102.18074 62.994511 
L 102.245268 62.994511 
L 102.472717 62.905335 
L 102.527128 62.771571 
L 103.08263 62.682395 
L 103.099184 62.593219 
L 103.523256 62.504043 
L 103.560424 62.325691 
L 103.837748 62.236515 
L 103.837748 62.191927 
L 103.863492 62.191927 
L 104.076835 62.102751 
L 104.076835 62.058163 
L 104.298822 61.968987 
L 104.298822 61.924399 
L 104.374393 61.924399 
L 104.868574 61.835223 
L 104.930751 61.746047 
L 105.156467 61.656871 
L 105.203966 61.567695 
L 105.378976 61.478519 
L 105.392157 61.389343 
L 105.463786 61.389343 
L 105.566503 61.300167 
L 105.566503 61.255579 
L 105.635614 61.255579 
L 105.98497 61.166403 
L 106.073271 60.98805 
L 106.55876 60.898874 
L 106.55876 60.854286 
L 106.64528 60.854286 
L 106.769751 60.76511 
L 106.866792 60.54217 
L 107.275902 60.452994 
L 107.275902 60.408406 
L 107.374225 60.408406 
L 107.567832 60.31923 
L 107.567832 60.274642 
L 107.652214 60.274642 
L 108.01506 60.185466 
L 108.058973 60.09629 
L 108.083245 60.09629 
L 108.232107 60.007114 
L 108.306729 59.87335 
L 108.577426 59.784174 
L 108.650124 59.65041 
L 108.888189 59.561234 
L 108.93747 59.42747 
L 109.281934 59.338294 
L 109.325015 59.20453 
L 109.714936 59.115354 
L 109.714936 59.070766 
L 110.046337 58.98159 
L 110.15207 58.803238 
L 110.317961 58.714062 
L 110.417353 58.580298 
L 110.706219 58.491122 
L 110.78635 58.401946 
L 111.26469 58.31277 
L 111.314564 58.223594 
L 111.577425 58.134418 
L 111.594358 58.000654 
L 111.6871 58.000654 
L 112.12623 57.911478 
L 112.12623 57.86689 
L 112.488126 57.777714 
L 112.488126 57.733125 
L 113.144184 57.643949 
L 113.237069 57.376421 
L 113.397521 57.287245 
L 113.41348 57.198069 
L 113.498243 57.198069 
L 113.698784 57.108893 
L 113.698784 57.064305 
L 114.318719 56.975129 
L 114.335534 56.885953 
L 114.612644 56.796777 
L 114.612644 56.752189 
L 114.691706 56.752189 
L 115.148054 56.663013 
L 115.155488 56.573837 
L 115.188571 56.573837 
L 115.819573 56.484661 
L 115.901129 56.350897 
L 116.307033 56.261721 
L 116.307033 56.217133 
L 116.328004 56.217133 
L 116.509522 56.127957 
L 116.574145 55.994193 
L 116.736046 55.905017 
L 116.819217 55.815841 
L 116.823848 55.815841 
L 117.187311 55.726665 
L 117.245854 55.637489 
L 117.459291 55.548313 
L 117.523083 55.414549 
L 118.229419 55.325373 
L 118.279554 55.236197 
L 118.612784 55.147021 
L 118.612784 55.102433 
L 118.717235 55.102433 
L 119.147672 55.013257 
L 119.175554 54.834905 
L 119.257775 54.834905 
L 119.622569 54.745729 
L 119.622569 54.701141 
L 119.67534 54.701141 
L 119.964444 54.611965 
L 120.07172 54.433612 
L 120.339022 54.344436 
L 120.339022 54.299848 
L 120.437298 54.299848 
L 120.498904 54.210672 
L 120.585566 54.03232 
L 120.784778 53.943144 
L 120.784778 53.898556 
L 120.803944 53.898556 
L 121.369635 53.80938 
L 121.369635 53.764792 
L 121.805558 53.675616 
L 121.805558 53.631028 
L 121.907111 53.631028 
L 122.027094 53.541852 
L 122.137316 53.452676 
L 122.588605 53.3635 
L 122.588605 53.318912 
L 122.67978 53.318912 
L 122.916302 53.229736 
L 122.916302 53.185148 
L 123.008688 53.185148 
L 123.331587 53.095972 
L 123.331587 53.051384 
L 123.421123 53.051384 
L 123.643276 52.962208 
L 123.743974 52.873032 
L 124.650472 52.783856 
L 124.704075 52.69468 
L 124.724024 52.69468 
L 125.253568 52.605504 
L 125.331277 52.516328 
L 125.331538 52.516328 
L 126.280927 52.427152 
L 126.280927 52.382564 
L 126.376923 52.382564 
L 126.83681 52.293388 
L 126.936653 52.204212 
L 127.198682 52.115036 
L 127.294607 51.981272 
L 128.009089 51.892096 
L 128.009089 51.847508 
L 128.073616 51.847508 
L 128.548157 51.758332 
L 128.626696 51.624568 
L 128.640424 51.624568 
L 129.090312 51.535392 
L 129.090312 51.490804 
L 129.497474 51.401628 
L 129.572476 51.312452 
L 129.60449 51.312452 
L 129.782279 51.223275 
L 129.782279 51.178687 
L 130.438907 51.089511 
L 130.503886 50.955747 
L 130.831155 50.866571 
L 130.831155 50.821983 
L 130.835668 50.821983 
L 131.168827 50.732807 
L 131.168827 50.688219 
L 131.329326 50.599043 
L 131.366233 50.509867 
L 131.426296 50.509867 
L 132.181841 50.420691 
L 132.181841 50.376103 
L 132.844359 50.286927 
L 132.844359 50.242339 
L 133.133368 50.153163 
L 133.133368 50.108575 
L 133.22554 50.108575 
L 133.695758 50.019399 
L 133.783536 49.930223 
L 134.057416 49.841047 
L 134.112729 49.751871 
L 134.350818 49.662695 
L 134.438739 49.573519 
L 134.64365 49.484343 
L 134.739575 49.350579 
L 134.989777 49.261403 
L 135.08734 49.127639 
L 135.260142 49.038463 
L 135.260142 48.993875 
L 135.351483 48.993875 
L 135.887772 48.904699 
L 135.931139 48.815523 
L 135.954484 48.815523 
L 136.13415 48.726347 
L 136.202715 48.592583 
L 137.097694 48.503407 
L 137.132131 48.414231 
L 137.433061 48.325055 
L 137.433061 48.280467 
L 137.494335 48.280467 
L 138.050527 48.191291 
L 138.080475 48.102115 
L 138.497565 48.012938 
L 138.602229 47.923762 
L 138.991627 47.834586 
L 138.991627 47.789998 
L 139.655024 47.700822 
L 139.655024 47.656234 
L 139.670152 47.656234 
L 139.877439 47.567058 
L 139.877439 47.52247 
L 140.080118 47.433294 
L 140.123959 47.344118 
L 140.582896 47.254942 
L 140.582896 47.210354 
L 141.038128 47.121178 
L 141.038128 47.07659 
L 141.128376 47.07659 
L 141.843618 46.987414 
L 141.843618 46.942826 
L 142.643053 46.85365 
L 142.643053 46.809062 
L 142.70796 46.809062 
L 143.673689 46.719886 
L 143.747883 46.63071 
L 144.137637 46.541534 
L 144.188841 46.40777 
L 144.349246 46.318594 
L 144.397125 46.229418 
L 145.114053 46.140242 
L 145.150176 46.051066 
L 145.20461 46.051066 
L 145.560688 45.96189 
L 145.671408 45.828126 
L 146.005446 45.73895 
L 146.100112 45.649774 
L 146.111939 45.649774 
L 146.214822 45.560598 
L 146.246646 45.471422 
L 146.878884 45.382246 
L 146.878884 45.337658 
L 146.958279 45.337658 
L 147.59871 45.248482 
L 147.696178 45.114718 
L 148.585457 45.025542 
L 148.585457 44.980954 
L 148.694919 44.980954 
L 149.021713 44.891778 
L 149.021713 44.84719 
L 149.111415 44.84719 
L 149.926239 44.758013 
L 149.926239 44.713425 
L 150.017841 44.713425 
L 150.219784 44.624249 
L 150.293621 44.490485 
L 150.303952 44.490485 
L 150.425241 44.401309 
L 150.437876 44.312133 
L 150.477063 44.312133 
L 150.933696 44.222957 
L 150.933696 44.178369 
L 151.042706 44.178369 
L 151.96001 44.089193 
L 151.960675 44.000017 
L 153.249992 43.910841 
L 153.249992 43.866253 
L 153.358765 43.866253 
L 154.213607 43.777077 
L 154.296018 43.687901 
L 155.053178 43.598725 
L 155.080775 43.509549 
L 155.114665 43.509549 
L 156.13452 43.420373 
L 156.13452 43.375785 
L 156.189405 43.375785 
L 157.306205 43.286609 
L 157.370804 43.197433 
L 158.181329 43.108257 
L 158.181329 43.063669 
L 158.225907 43.063669 
L 159.59925 42.974493 
L 159.651 42.885317 
L 159.703368 42.885317 
L 159.926828 42.796141 
L 160.027668 42.706965 
L 160.423075 42.617789 
L 160.423075 42.573201 
L 160.530732 42.573201 
L 161.272288 42.484025 
L 161.272288 42.439437 
L 161.370635 42.439437 
L 162.094475 42.350261 
L 162.094475 42.305673 
L 162.193083 42.305673 
L 163.481022 42.216497 
L 163.481022 42.171909 
L 163.517668 42.171909 
L 163.695528 42.082733 
L 163.698236 41.993557 
L 164.48304 41.904381 
L 164.587277 41.815205 
L 164.99805 41.726029 
L 164.99805 41.681441 
L 165.50318 41.592265 
L 165.50318 41.547677 
L 165.588654 41.547677 
L 166.057756 41.4585 
L 166.057756 41.413912 
L 166.077421 41.413912 
L 166.549538 41.324736 
L 166.549538 41.280148 
L 166.563266 41.280148 
L 167.002989 41.190972 
L 167.057019 41.101796 
L 167.088202 41.101796 
L 167.776584 41.01262 
L 167.776584 40.968032 
L 167.825698 40.968032 
L 168.554525 40.878856 
L 168.640617 40.745092 
L 169.842488 40.655916 
L 169.842488 40.611328 
L 169.891768 40.611328 
L 170.32154 40.522152 
L 170.32154 40.477564 
L 170.763544 40.388388 
L 170.763544 40.3438 
L 171.288789 40.254624 
L 171.288789 40.210036 
L 171.385616 40.210036 
L 172.740505 40.12086 
L 172.749744 40.031684 
L 174.140353 39.942508 
L 174.244043 39.853332 
L 174.65104 39.764156 
L 174.65104 39.719568 
L 174.710722 39.719568 
L 175.233403 39.630392 
L 175.233403 39.585804 
L 175.302419 39.585804 
L 176.145838 39.496628 
L 176.145838 39.45204 
L 176.16137 39.45204 
L 177.34474 39.362864 
L 177.34474 39.318276 
L 177.37191 39.318276 
L 177.99783 39.2291 
L 177.99783 39.184512 
L 178.010939 39.184512 
L 178.823103 39.095336 
L 178.823103 39.050748 
L 178.909029 39.050748 
L 179.339348 38.961572 
L 179.339348 38.916984 
L 179.429311 38.916984 
L 180.080216 38.827808 
L 180.080216 38.78322 
L 181.620969 38.694044 
L 181.620969 38.649456 
L 182.273465 38.56028 
L 182.33063 38.471104 
L 182.521411 38.381928 
L 182.525852 38.292752 
L 182.613013 38.292752 
L 183.021339 38.203575 
L 183.021339 38.158987 
L 184.064824 38.069811 
L 184.064824 38.025223 
L 184.374115 37.936047 
L 184.374115 37.891459 
L 185.21067 37.802283 
L 185.21067 37.757695 
L 185.28541 37.757695 
L 185.74646 37.668519 
L 185.74646 37.623931 
L 186.259379 37.534755 
L 186.259379 37.490167 
L 186.62004 37.400991 
L 186.62004 37.356403 
L 187.292035 37.267227 
L 187.292035 37.222639 
L 188.059953 37.133463 
L 188.059953 37.088875 
L 188.66286 36.999699 
L 188.66286 36.955111 
L 190.321198 36.865935 
L 190.321198 36.821347 
L 190.951796 36.732171 
L 190.951796 36.687583 
L 191.029932 36.687583 
L 191.517986 36.598407 
L 191.517986 36.553819 
L 193.106286 36.464643 
L 193.106286 36.420055 
L 193.144475 36.420055 
L 193.967683 36.330879 
L 193.967683 36.286291 
L 194.002476 36.286291 
L 194.940893 36.197115 
L 194.940893 36.152527 
L 194.99053 36.152527 
L 196.047908 36.063351 
L 196.047908 36.018763 
L 196.835895 35.929587 
L 196.835895 35.884999 
L 196.928851 35.884999 
L 197.323735 35.795823 
L 197.323735 35.751235 
L 197.587854 35.662059 
L 197.623384 35.572883 
L 198.405599 35.483707 
L 198.405599 35.439119 
L 199.421701 35.349943 
L 199.479983 35.216179 
L 201.22864 35.127003 
L 201.296017 35.037827 
L 201.843421 34.94865 
L 201.843421 34.904062 
L 204.047477 34.814886 
L 204.063199 34.72571 
L 205.047761 34.636534 
L 205.135088 34.547358 
L 205.999501 34.458182 
L 205.999501 34.413594 
L 206.06885 34.413594 
L 207.349332 34.324418 
L 207.349332 34.27983 
L 207.774022 34.190654 
L 207.829145 34.05689 
L 208.72429 33.967714 
L 208.72429 33.923126 
L 208.802925 33.923126 
L 209.467818 33.83395 
L 209.467818 33.789362 
L 211.835151 33.700186 
L 211.854768 33.61101 
L 213.11333 33.521834 
L 213.11333 33.477246 
L 213.210513 33.477246 
L 214.243595 33.38807 
L 214.243595 33.343482 
L 214.327835 33.343482 
L 215.848188 33.254306 
L 215.848188 33.209718 
L 216.873148 33.120542 
L 216.89419 33.031366 
L 217.581859 32.94219 
L 217.581859 32.897602 
L 218.312752 32.808426 
L 218.312752 32.763838 
L 218.345598 32.763838 
L 219.194597 32.674662 
L 219.194597 32.630074 
L 220.517615 32.540898 
L 220.517615 32.49631 
L 220.599978 32.49631 
L 221.202743 32.407134 
L 221.202743 32.362546 
L 223.658733 32.27337 
L 223.658733 32.228782 
L 223.684668 32.228782 
L 224.713689 32.139606 
L 224.783727 32.05043 
L 224.796409 32.05043 
L 225.243519 31.961254 
L 225.243519 31.916666 
L 227.653981 31.82749 
L 227.653981 31.782902 
L 228.105959 31.693725 
L 228.105959 31.649137 
L 228.172031 31.649137 
L 229.379958 31.559961 
L 229.379958 31.515373 
L 229.424298 31.515373 
L 230.545919 31.426197 
L 230.545919 31.381609 
L 232.674593 31.292433 
L 232.674593 31.247845 
L 232.711405 31.247845 
L 234.500413 31.158669 
L 234.519983 31.069493 
L 236.337276 30.980317 
L 236.337276 30.935729 
L 236.948946 30.846553 
L 236.948946 30.801965 
L 237.572373 30.712789 
L 237.572373 30.668201 
L 238.849767 30.579025 
L 238.924935 30.489849 
L 240.917856 30.400673 
L 241.02556 30.311497 
L 241.028743 30.311497 
L 241.865322 30.222321 
L 241.865322 30.177733 
L 242.427925 30.088557 
L 242.427925 30.043969 
L 243.286757 29.954793 
L 243.286757 29.910205 
L 244.067334 29.821029 
L 244.067334 29.776441 
L 245.254172 29.687265 
L 245.254172 29.642677 
L 246.693681 29.553501 
L 246.693681 29.508913 
L 246.780319 29.508913 
L 247.573341 29.419737 
L 247.674348 29.285973 
L 249.279748 29.196797 
L 249.279748 29.152209 
L 249.354488 29.152209 
L 250.315989 29.063033 
L 250.315989 29.018445 
L 251.112265 28.929269 
L 251.112265 28.884681 
L 251.219542 28.884681 
L 252.481333 28.795505 
L 252.481333 28.750917 
L 255.356931 28.661741 
L 255.356931 28.617153 
L 255.40025 28.617153 
L 257.168501 28.527977 
L 257.168501 28.483388 
L 257.435137 28.394212 
L 257.435137 28.349624 
L 259.129384 28.260448 
L 259.129384 28.21586 
L 259.874575 28.126684 
L 259.874575 28.082096 
L 259.964823 28.082096 
L 261.249129 27.99292 
L 261.249129 27.948332 
L 263.100503 27.859156 
L 263.100503 27.814568 
L 263.156053 27.814568 
L 265.643108 27.725392 
L 265.643108 27.680804 
L 265.726042 27.680804 
L 266.681582 27.591628 
L 266.681582 27.54704 
L 269.617005 27.457864 
L 269.617005 27.413276 
L 269.652677 27.413276 
L 271.902973 27.3241 
L 271.902973 27.279512 
L 271.910335 27.279512 
L 276.789353 27.190336 
L 276.789353 27.145748 
L 276.876395 27.145748 
L 278.365232 27.056572 
L 278.365232 27.011984 
L 279.681742 26.922808 
L 279.681742 26.87822 
L 279.71967 26.87822 
L 282.023758 26.789044 
L 282.023758 26.789044 
" clip-path="url(#p64da9dea81)" style="fill: none; stroke: #1f77b4; stroke-width: 1.5; stroke-linecap: round"/>
   </g>
   <g id="patch_3">
    <path d="M 35.655938 265.022801 
L 35.655938 19.642031 
" style="fill: none"/>
   </g>
   <g id="patch_4">
    <path d="M 289.19952 265.022801 
L 289.19952 19.642031 
" style="fill: none"/>
   </g>
   <g id="patch_5">
    <path d="M 35.655938 265.022801 
L 289.19952 265.022801 
" style="fill: none"/>
   </g>
   <g id="patch_6">
    <path d="M 35.655938 19.642031 
L 289.19952 19.642031 
" style="fill: none"/>
   </g>
   <g id="text_15">
    <!-- Model 2: Precision-Recall Curve -->
    <g style="fill: #333333" transform="translate(93.910307 13.642031) scale(0.09 -0.09)">
     <defs>
      <path id="Arial-BoldMT-4d" d="M 453 0 
L 453 4581 
L 1838 4581 
L 2669 1456 
L 3491 4581 
L 4878 4581 
L 4878 0 
L 4019 0 
L 4019 3606 
L 3109 0 
L 2219 0 
L 1313 3606 
L 1313 0 
L 453 0 
z
" transform="scale(0.015625)"/>
      <path id="Arial-BoldMT-64" d="M 3503 0 
L 2688 0 
L 2688 488 
Q 2484 203 2207 64 
Q 1931 -75 1650 -75 
Q 1078 -75 670 386 
Q 263 847 263 1672 
Q 263 2516 659 2955 
Q 1056 3394 1663 3394 
Q 2219 3394 2625 2931 
L 2625 4581 
L 3503 4581 
L 3503 0 
z
M 1159 1731 
Q 1159 1200 1306 963 
Q 1519 619 1900 619 
Q 2203 619 2415 876 
Q 2628 1134 2628 1647 
Q 2628 2219 2422 2470 
Q 2216 2722 1894 2722 
Q 1581 2722 1370 2473 
Q 1159 2225 1159 1731 
z
" transform="scale(0.015625)"/>
      <path id="Arial-BoldMT-32" d="M 3238 816 
L 3238 0 
L 159 0 
Q 209 463 459 877 
Q 709 1291 1447 1975 
Q 2041 2528 2175 2725 
Q 2356 2997 2356 3263 
Q 2356 3556 2198 3714 
Q 2041 3872 1763 3872 
Q 1488 3872 1325 3706 
Q 1163 3541 1138 3156 
L 263 3244 
Q 341 3969 753 4284 
Q 1166 4600 1784 4600 
Q 2463 4600 2850 4234 
Q 3238 3869 3238 3325 
Q 3238 3016 3127 2736 
Q 3016 2456 2775 2150 
Q 2616 1947 2200 1565 
Q 1784 1184 1673 1059 
Q 1563 934 1494 816 
L 3238 816 
z
" transform="scale(0.015625)"/>
      <path id="Arial-BoldMT-3a" d="M 628 2441 
L 628 3319 
L 1506 3319 
L 1506 2441 
L 628 2441 
z
M 628 0 
L 628 878 
L 1506 878 
L 1506 0 
L 628 0 
z
" transform="scale(0.015625)"/>
      <path id="Arial-BoldMT-2d" d="M 359 1222 
L 359 2100 
L 2084 2100 
L 2084 1222 
L 359 1222 
z
" transform="scale(0.015625)"/>
      <path id="Arial-BoldMT-43" d="M 3397 1684 
L 4294 1400 
Q 4088 650 3608 286 
Q 3128 -78 2391 -78 
Q 1478 -78 890 545 
Q 303 1169 303 2250 
Q 303 3394 893 4026 
Q 1484 4659 2447 4659 
Q 3288 4659 3813 4163 
Q 4125 3869 4281 3319 
L 3366 3100 
Q 3284 3456 3026 3662 
Q 2769 3869 2400 3869 
Q 1891 3869 1573 3503 
Q 1256 3138 1256 2319 
Q 1256 1450 1568 1081 
Q 1881 713 2381 713 
Q 2750 713 3015 947 
Q 3281 1181 3397 1684 
z
" transform="scale(0.015625)"/>
      <path id="Arial-BoldMT-75" d="M 2644 0 
L 2644 497 
Q 2463 231 2167 78 
Q 1872 -75 1544 -75 
Q 1209 -75 943 72 
Q 678 219 559 484 
Q 441 750 441 1219 
L 441 3319 
L 1319 3319 
L 1319 1794 
Q 1319 1094 1367 936 
Q 1416 778 1544 686 
Q 1672 594 1869 594 
Q 2094 594 2272 717 
Q 2450 841 2515 1023 
Q 2581 1206 2581 1919 
L 2581 3319 
L 3459 3319 
L 3459 0 
L 2644 0 
z
" transform="scale(0.015625)"/>
      <path id="Arial-BoldMT-76" d="M 1372 0 
L 34 3319 
L 956 3319 
L 1581 1625 
L 1763 1059 
Q 1834 1275 1853 1344 
Q 1897 1484 1947 1625 
L 2578 3319 
L 3481 3319 
L 2163 0 
L 1372 0 
z
" transform="scale(0.015625)"/>
     </defs>
     <use xlink:href="#Arial-BoldMT-4d"/>
     <use xlink:href="#Arial-BoldMT-6f" transform="translate(83.300781 0)"/>
     <use xlink:href="#Arial-BoldMT-64" transform="translate(144.384766 0)"/>
     <use xlink:href="#Arial-BoldMT-65" transform="translate(205.46875 0)"/>
     <use xlink:href="#Arial-BoldMT-6c" transform="translate(261.083984 0)"/>
     <use xlink:href="#Arial-BoldMT-20" transform="translate(288.867188 0)"/>
     <use xlink:href="#Arial-BoldMT-32" transform="translate(316.650391 0)"/>
     <use xlink:href="#Arial-BoldMT-3a" transform="translate(372.265625 0)"/>
     <use xlink:href="#Arial-BoldMT-20" transform="translate(405.566406 0)"/>
     <use xlink:href="#Arial-BoldMT-50" transform="translate(433.349609 0)"/>
     <use xlink:href="#Arial-BoldMT-72" transform="translate(500.048828 0)"/>
     <use xlink:href="#Arial-BoldMT-65" transform="translate(538.964844 0)"/>
     <use xlink:href="#Arial-BoldMT-63" transform="translate(594.580078 0)"/>
     <use xlink:href="#Arial-BoldMT-69" transform="translate(650.195312 0)"/>
     <use xlink:href="#Arial-BoldMT-73" transform="translate(677.978516 0)"/>
     <use xlink:href="#Arial-BoldMT-69" transform="translate(733.59375 0)"/>
     <use xlink:href="#Arial-BoldMT-6f" transform="translate(761.376953 0)"/>
     <use xlink:href="#Arial-BoldMT-6e" transform="translate(822.460938 0)"/>
     <use xlink:href="#Arial-BoldMT-2d" transform="translate(883.544922 0)"/>
     <use xlink:href="#Arial-BoldMT-52" transform="translate(916.845703 0)"/>
     <use xlink:href="#Arial-BoldMT-65" transform="translate(989.0625 0)"/>
     <use xlink:href="#Arial-BoldMT-63" transform="translate(1044.677734 0)"/>
     <use xlink:href="#Arial-BoldMT-61" transform="translate(1100.292969 0)"/>
     <use xlink:href="#Arial-BoldMT-6c" transform="translate(1155.908203 0)"/>
     <use xlink:href="#Arial-BoldMT-6c" transform="translate(1183.691406 0)"/>
     <use xlink:href="#Arial-BoldMT-20" transform="translate(1211.474609 0)"/>
     <use xlink:href="#Arial-BoldMT-43" transform="translate(1239.257812 0)"/>
     <use xlink:href="#Arial-BoldMT-75" transform="translate(1311.474609 0)"/>
     <use xlink:href="#Arial-BoldMT-72" transform="translate(1372.558594 0)"/>
     <use xlink:href="#Arial-BoldMT-76" transform="translate(1411.474609 0)"/>
     <use xlink:href="#Arial-BoldMT-65" transform="translate(1467.089844 0)"/>
    </g>
   </g>
   <g id="legend_1">
    <g id="patch_7">
     <path d="M 164.573426 260.522801 
L 282.89952 260.522801 
Q 284.69952 260.522801 284.69952 258.722801 
L 284.69952 246.89202 
Q 284.69952 245.09202 282.89952 245.09202 
L 164.573426 245.09202 
Q 162.773426 245.09202 162.773426 246.89202 
L 162.773426 258.722801 
Q 162.773426 260.522801 164.573426 260.522801 
z
" style="fill: #ffffff; opacity: 0.8; stroke: #cccccc; stroke-width: 0.75; stroke-linejoin: miter"/>
    </g>
    <g id="line2d_26">
     <path d="M 166.373426 251.984051 
L 175.373426 251.984051 
L 184.373426 251.984051 
" style="fill: none; stroke: #1f77b4; stroke-width: 1.5; stroke-linecap: round"/>
    </g>
    <g id="text_16">
     <!-- Precision-Recall curve -->
     <g style="fill: #333333" transform="translate(191.573426 255.134051) scale(0.09 -0.09)">
      <defs>
       <path id="ArialMT-50" d="M 494 0 
L 494 4581 
L 2222 4581 
Q 2678 4581 2919 4538 
Q 3256 4481 3484 4323 
Q 3713 4166 3852 3881 
Q 3991 3597 3991 3256 
Q 3991 2672 3619 2267 
Q 3247 1863 2275 1863 
L 1100 1863 
L 1100 0 
L 494 0 
z
M 1100 2403 
L 2284 2403 
Q 2872 2403 3119 2622 
Q 3366 2841 3366 3238 
Q 3366 3525 3220 3729 
Q 3075 3934 2838 4000 
Q 2684 4041 2272 4041 
L 1100 4041 
L 1100 2403 
z
" transform="scale(0.015625)"/>
       <path id="ArialMT-72" d="M 416 0 
L 416 3319 
L 922 3319 
L 922 2816 
Q 1116 3169 1280 3281 
Q 1444 3394 1641 3394 
Q 1925 3394 2219 3213 
L 2025 2691 
Q 1819 2813 1613 2813 
Q 1428 2813 1281 2702 
Q 1134 2591 1072 2394 
Q 978 2094 978 1738 
L 978 0 
L 416 0 
z
" transform="scale(0.015625)"/>
       <path id="ArialMT-65" d="M 2694 1069 
L 3275 997 
Q 3138 488 2766 206 
Q 2394 -75 1816 -75 
Q 1088 -75 661 373 
Q 234 822 234 1631 
Q 234 2469 665 2931 
Q 1097 3394 1784 3394 
Q 2450 3394 2872 2941 
Q 3294 2488 3294 1666 
Q 3294 1616 3291 1516 
L 816 1516 
Q 847 969 1125 678 
Q 1403 388 1819 388 
Q 2128 388 2347 550 
Q 2566 713 2694 1069 
z
M 847 1978 
L 2700 1978 
Q 2663 2397 2488 2606 
Q 2219 2931 1791 2931 
Q 1403 2931 1139 2672 
Q 875 2413 847 1978 
z
" transform="scale(0.015625)"/>
       <path id="ArialMT-63" d="M 2588 1216 
L 3141 1144 
Q 3050 572 2676 248 
Q 2303 -75 1759 -75 
Q 1078 -75 664 370 
Q 250 816 250 1647 
Q 250 2184 428 2587 
Q 606 2991 970 3192 
Q 1334 3394 1763 3394 
Q 2303 3394 2647 3120 
Q 2991 2847 3088 2344 
L 2541 2259 
Q 2463 2594 2264 2762 
Q 2066 2931 1784 2931 
Q 1359 2931 1093 2626 
Q 828 2322 828 1663 
Q 828 994 1084 691 
Q 1341 388 1753 388 
Q 2084 388 2306 591 
Q 2528 794 2588 1216 
z
" transform="scale(0.015625)"/>
       <path id="ArialMT-69" d="M 425 3934 
L 425 4581 
L 988 4581 
L 988 3934 
L 425 3934 
z
M 425 0 
L 425 3319 
L 988 3319 
L 988 0 
L 425 0 
z
" transform="scale(0.015625)"/>
       <path id="ArialMT-73" d="M 197 991 
L 753 1078 
Q 800 744 1014 566 
Q 1228 388 1613 388 
Q 2000 388 2187 545 
Q 2375 703 2375 916 
Q 2375 1106 2209 1216 
Q 2094 1291 1634 1406 
Q 1016 1563 777 1677 
Q 538 1791 414 1992 
Q 291 2194 291 2438 
Q 291 2659 392 2848 
Q 494 3038 669 3163 
Q 800 3259 1026 3326 
Q 1253 3394 1513 3394 
Q 1903 3394 2198 3281 
Q 2494 3169 2634 2976 
Q 2775 2784 2828 2463 
L 2278 2388 
Q 2241 2644 2061 2787 
Q 1881 2931 1553 2931 
Q 1166 2931 1000 2803 
Q 834 2675 834 2503 
Q 834 2394 903 2306 
Q 972 2216 1119 2156 
Q 1203 2125 1616 2013 
Q 2213 1853 2448 1751 
Q 2684 1650 2818 1456 
Q 2953 1263 2953 975 
Q 2953 694 2789 445 
Q 2625 197 2315 61 
Q 2006 -75 1616 -75 
Q 969 -75 630 194 
Q 291 463 197 991 
z
" transform="scale(0.015625)"/>
       <path id="ArialMT-6f" d="M 213 1659 
Q 213 2581 725 3025 
Q 1153 3394 1769 3394 
Q 2453 3394 2887 2945 
Q 3322 2497 3322 1706 
Q 3322 1066 3130 698 
Q 2938 331 2570 128 
Q 2203 -75 1769 -75 
Q 1072 -75 642 372 
Q 213 819 213 1659 
z
M 791 1659 
Q 791 1022 1069 705 
Q 1347 388 1769 388 
Q 2188 388 2466 706 
Q 2744 1025 2744 1678 
Q 2744 2294 2464 2611 
Q 2184 2928 1769 2928 
Q 1347 2928 1069 2612 
Q 791 2297 791 1659 
z
" transform="scale(0.015625)"/>
       <path id="ArialMT-6e" d="M 422 0 
L 422 3319 
L 928 3319 
L 928 2847 
Q 1294 3394 1984 3394 
Q 2284 3394 2536 3286 
Q 2788 3178 2913 3003 
Q 3038 2828 3088 2588 
Q 3119 2431 3119 2041 
L 3119 0 
L 2556 0 
L 2556 2019 
Q 2556 2363 2490 2533 
Q 2425 2703 2258 2804 
Q 2091 2906 1866 2906 
Q 1506 2906 1245 2678 
Q 984 2450 984 1813 
L 984 0 
L 422 0 
z
" transform="scale(0.015625)"/>
       <path id="ArialMT-2d" d="M 203 1375 
L 203 1941 
L 1931 1941 
L 1931 1375 
L 203 1375 
z
" transform="scale(0.015625)"/>
       <path id="ArialMT-52" d="M 503 0 
L 503 4581 
L 2534 4581 
Q 3147 4581 3465 4457 
Q 3784 4334 3975 4021 
Q 4166 3709 4166 3331 
Q 4166 2844 3850 2509 
Q 3534 2175 2875 2084 
Q 3116 1969 3241 1856 
Q 3506 1613 3744 1247 
L 4541 0 
L 3778 0 
L 3172 953 
Q 2906 1366 2734 1584 
Q 2563 1803 2427 1890 
Q 2291 1978 2150 2013 
Q 2047 2034 1813 2034 
L 1109 2034 
L 1109 0 
L 503 0 
z
M 1109 2559 
L 2413 2559 
Q 2828 2559 3062 2645 
Q 3297 2731 3419 2920 
Q 3541 3109 3541 3331 
Q 3541 3656 3305 3865 
Q 3069 4075 2559 4075 
L 1109 4075 
L 1109 2559 
z
" transform="scale(0.015625)"/>
       <path id="ArialMT-61" d="M 2588 409 
Q 2275 144 1986 34 
Q 1697 -75 1366 -75 
Q 819 -75 525 192 
Q 231 459 231 875 
Q 231 1119 342 1320 
Q 453 1522 633 1644 
Q 813 1766 1038 1828 
Q 1203 1872 1538 1913 
Q 2219 1994 2541 2106 
Q 2544 2222 2544 2253 
Q 2544 2597 2384 2738 
Q 2169 2928 1744 2928 
Q 1347 2928 1158 2789 
Q 969 2650 878 2297 
L 328 2372 
Q 403 2725 575 2942 
Q 747 3159 1072 3276 
Q 1397 3394 1825 3394 
Q 2250 3394 2515 3294 
Q 2781 3194 2906 3042 
Q 3031 2891 3081 2659 
Q 3109 2516 3109 2141 
L 3109 1391 
Q 3109 606 3145 398 
Q 3181 191 3288 0 
L 2700 0 
Q 2613 175 2588 409 
z
M 2541 1666 
Q 2234 1541 1622 1453 
Q 1275 1403 1131 1340 
Q 988 1278 909 1158 
Q 831 1038 831 891 
Q 831 666 1001 516 
Q 1172 366 1500 366 
Q 1825 366 2078 508 
Q 2331 650 2450 897 
Q 2541 1088 2541 1459 
L 2541 1666 
z
" transform="scale(0.015625)"/>
       <path id="ArialMT-6c" d="M 409 0 
L 409 4581 
L 972 4581 
L 972 0 
L 409 0 
z
" transform="scale(0.015625)"/>
       <path id="ArialMT-20" transform="scale(0.015625)"/>
       <path id="ArialMT-75" d="M 2597 0 
L 2597 488 
Q 2209 -75 1544 -75 
Q 1250 -75 995 37 
Q 741 150 617 320 
Q 494 491 444 738 
Q 409 903 409 1263 
L 409 3319 
L 972 3319 
L 972 1478 
Q 972 1038 1006 884 
Q 1059 663 1231 536 
Q 1403 409 1656 409 
Q 1909 409 2131 539 
Q 2353 669 2445 892 
Q 2538 1116 2538 1541 
L 2538 3319 
L 3100 3319 
L 3100 0 
L 2597 0 
z
" transform="scale(0.015625)"/>
       <path id="ArialMT-76" d="M 1344 0 
L 81 3319 
L 675 3319 
L 1388 1331 
Q 1503 1009 1600 663 
Q 1675 925 1809 1294 
L 2547 3319 
L 3125 3319 
L 1869 0 
L 1344 0 
z
" transform="scale(0.015625)"/>
      </defs>
      <use xlink:href="#ArialMT-50"/>
      <use xlink:href="#ArialMT-72" transform="translate(66.699219 0)"/>
      <use xlink:href="#ArialMT-65" transform="translate(100 0)"/>
      <use xlink:href="#ArialMT-63" transform="translate(155.615234 0)"/>
      <use xlink:href="#ArialMT-69" transform="translate(205.615234 0)"/>
      <use xlink:href="#ArialMT-73" transform="translate(227.832031 0)"/>
      <use xlink:href="#ArialMT-69" transform="translate(277.832031 0)"/>
      <use xlink:href="#ArialMT-6f" transform="translate(300.048828 0)"/>
      <use xlink:href="#ArialMT-6e" transform="translate(355.664062 0)"/>
      <use xlink:href="#ArialMT-2d" transform="translate(411.279297 0)"/>
      <use xlink:href="#ArialMT-52" transform="translate(444.580078 0)"/>
      <use xlink:href="#ArialMT-65" transform="translate(516.796875 0)"/>
      <use xlink:href="#ArialMT-63" transform="translate(572.412109 0)"/>
      <use xlink:href="#ArialMT-61" transform="translate(622.412109 0)"/>
      <use xlink:href="#ArialMT-6c" transform="translate(678.027344 0)"/>
      <use xlink:href="#ArialMT-6c" transform="translate(700.244141 0)"/>
      <use xlink:href="#ArialMT-20" transform="translate(722.460938 0)"/>
      <use xlink:href="#ArialMT-63" transform="translate(750.244141 0)"/>
      <use xlink:href="#ArialMT-75" transform="translate(800.244141 0)"/>
      <use xlink:href="#ArialMT-72" transform="translate(855.859375 0)"/>
      <use xlink:href="#ArialMT-76" transform="translate(889.160156 0)"/>
      <use xlink:href="#ArialMT-65" transform="translate(939.160156 0)"/>
     </g>
    </g>
   </g>
  </g>
 </g>
 <defs>
  <clipPath id="p64da9dea81">
   <rect x="35.655938" y="19.642031" width="253.543583" height="245.38077"/>
  </clipPath>
 </defs>
</svg>
