<?xml version="1.0" encoding="utf-8" standalone="no"?>
<!DOCTYPE svg PUBLIC "-//W3C//DTD SVG 1.1//EN"
  "http://www.w3.org/Graphics/SVG/1.1/DTD/svg11.dtd">
<svg xmlns:xlink="http://www.w3.org/1999/xlink" width="296.39952pt" height="296.39952pt" viewBox="0 0 296.39952 296.39952" xmlns="http://www.w3.org/2000/svg" version="1.1">
 <metadata>
  <rdf:RDF xmlns:dc="http://purl.org/dc/elements/1.1/" xmlns:cc="http://creativecommons.org/ns#" xmlns:rdf="http://www.w3.org/1999/02/22-rdf-syntax-ns#">
   <cc:Work>
    <dc:type rdf:resource="http://purl.org/dc/dcmitype/StillImage"/>
    <dc:date>2026-01-08T23:34:02.880395</dc:date>
    <dc:format>image/svg+xml</dc:format>
    <dc:creator>
     <cc:Agent>
      <dc:title>Matplotlib v3.10.8, https://matplotlib.org/</dc:title>
     </cc:Agent>
    </dc:creator>
   </cc:Work>
  </rdf:RDF>
 </metadata>
 <defs>
  <style type="text/css">*{stroke-linejoin: round; stroke-linecap: butt}</style>
 </defs>
 <g id="figure_1">
  <g id="patch_1">
   <path d="M 0 296.39952 
L 296.39952 296.39952 
L 296.39952 0 
L 0 0 
z
" style="fill: #ffffff"/>
  </g>
  <g id="axes_1">
   <g id="patch_2">
    <path d="M 35.655938 265.022801 
L 289.19952 265.022801 
L 289.19952 19.642031 
L 35.655938 19.642031 
z
" style="fill: #ffffff"/>
   </g>
   <g id="matplotlib.axis_1">
    <g id="xtick_1">
     <g id="line2d_1">
      <path d="M 42.831699 265.022801 
L 42.831699 19.642031 
" clip-path="url(#p726895965c)" style="fill: none; stroke: #c0c0c0; stroke-width: 0.25; stroke-linecap: round"/>
     </g>
     <g id="line2d_2"/>
     <g id="text_1">
      <!-- 0.0 -->
      <g style="fill: #333333" transform="translate(36.576699 274.964832) scale(0.09 -0.09)">
       <defs>
        <path id="ArialMT-30" d="M 266 2259 
Q 266 3072 433 3567 
Q 600 4063 929 4331 
Q 1259 4600 1759 4600 
Q 2128 4600 2406 4451 
Q 2684 4303 2865 4023 
Q 3047 3744 3150 3342 
Q 3253 2941 3253 2259 
Q 3253 1453 3087 958 
Q 2922 463 2592 192 
Q 2263 -78 1759 -78 
Q 1097 -78 719 397 
Q 266 969 266 2259 
z
M 844 2259 
Q 844 1131 1108 757 
Q 1372 384 1759 384 
Q 2147 384 2411 759 
Q 2675 1134 2675 2259 
Q 2675 3391 2411 3762 
Q 2147 4134 1753 4134 
Q 1366 4134 1134 3806 
Q 844 3388 844 2259 
z
" transform="scale(0.015625)"/>
        <path id="ArialMT-2e" d="M 581 0 
L 581 641 
L 1222 641 
L 1222 0 
L 581 0 
z
" transform="scale(0.015625)"/>
       </defs>
       <use xlink:href="#ArialMT-30"/>
       <use xlink:href="#ArialMT-2e" transform="translate(55.615234 0)"/>
       <use xlink:href="#ArialMT-30" transform="translate(83.398438 0)"/>
      </g>
     </g>
    </g>
    <g id="xtick_2">
     <g id="line2d_3">
      <path d="M 90.670111 265.022801 
L 90.670111 19.642031 
" clip-path="url(#p726895965c)" style="fill: none; stroke: #c0c0c0; stroke-width: 0.25; stroke-linecap: round"/>
     </g>
     <g id="line2d_4"/>
     <g id="text_2">
      <!-- 0.2 -->
      <g style="fill: #333333" transform="translate(84.415111 274.964832) scale(0.09 -0.09)">
       <defs>
        <path id="ArialMT-32" d="M 3222 541 
L 3222 0 
L 194 0 
Q 188 203 259 391 
Q 375 700 629 1000 
Q 884 1300 1366 1694 
Q 2113 2306 2375 2664 
Q 2638 3022 2638 3341 
Q 2638 3675 2398 3904 
Q 2159 4134 1775 4134 
Q 1369 4134 1125 3890 
Q 881 3647 878 3216 
L 300 3275 
Q 359 3922 746 4261 
Q 1134 4600 1788 4600 
Q 2447 4600 2831 4234 
Q 3216 3869 3216 3328 
Q 3216 3053 3103 2787 
Q 2991 2522 2730 2228 
Q 2469 1934 1863 1422 
Q 1356 997 1212 845 
Q 1069 694 975 541 
L 3222 541 
z
" transform="scale(0.015625)"/>
       </defs>
       <use xlink:href="#ArialMT-30"/>
       <use xlink:href="#ArialMT-2e" transform="translate(55.615234 0)"/>
       <use xlink:href="#ArialMT-32" transform="translate(83.398438 0)"/>
      </g>
     </g>
    </g>
    <g id="xtick_3">
     <g id="line2d_5">
      <path d="M 138.508523 265.022801 
L 138.508523 19.642031 
" clip-path="url(#p726895965c)" style="fill: none; stroke: #c0c0c0; stroke-width: 0.25; stroke-linecap: round"/>
     </g>
     <g id="line2d_6"/>
     <g id="text_3">
      <!-- 0.4 -->
      <g style="fill: #333333" transform="translate(132.253523 274.964832) scale(0.09 -0.09)">
       <defs>
        <path id="ArialMT-34" d="M 2069 0 
L 2069 1097 
L 81 1097 
L 81 1613 
L 2172 4581 
L 2631 4581 
L 2631 1613 
L 3250 1613 
L 3250 1097 
L 2631 1097 
L 2631 0 
L 2069 0 
z
M 2069 1613 
L 2069 3678 
L 634 1613 
L 2069 1613 
z
" transform="scale(0.015625)"/>
       </defs>
       <use xlink:href="#ArialMT-30"/>
       <use xlink:href="#ArialMT-2e" transform="translate(55.615234 0)"/>
       <use xlink:href="#ArialMT-34" transform="translate(83.398438 0)"/>
      </g>
     </g>
    </g>
    <g id="xtick_4">
     <g id="line2d_7">
      <path d="M 186.346935 265.022801 
L 186.346935 19.642031 
" clip-path="url(#p726895965c)" style="fill: none; stroke: #c0c0c0; stroke-width: 0.25; stroke-linecap: round"/>
     </g>
     <g id="line2d_8"/>
     <g id="text_4">
      <!-- 0.6 -->
      <g style="fill: #333333" transform="translate(180.091935 274.964832) scale(0.09 -0.09)">
       <defs>
        <path id="ArialMT-36" d="M 3184 3459 
L 2625 3416 
Q 2550 3747 2413 3897 
Q 2184 4138 1850 4138 
Q 1581 4138 1378 3988 
Q 1113 3794 959 3422 
Q 806 3050 800 2363 
Q 1003 2672 1297 2822 
Q 1591 2972 1913 2972 
Q 2475 2972 2870 2558 
Q 3266 2144 3266 1488 
Q 3266 1056 3080 686 
Q 2894 316 2569 119 
Q 2244 -78 1831 -78 
Q 1128 -78 684 439 
Q 241 956 241 2144 
Q 241 3472 731 4075 
Q 1159 4600 1884 4600 
Q 2425 4600 2770 4297 
Q 3116 3994 3184 3459 
z
M 888 1484 
Q 888 1194 1011 928 
Q 1134 663 1356 523 
Q 1578 384 1822 384 
Q 2178 384 2434 671 
Q 2691 959 2691 1453 
Q 2691 1928 2437 2201 
Q 2184 2475 1800 2475 
Q 1419 2475 1153 2201 
Q 888 1928 888 1484 
z
" transform="scale(0.015625)"/>
       </defs>
       <use xlink:href="#ArialMT-30"/>
       <use xlink:href="#ArialMT-2e" transform="translate(55.615234 0)"/>
       <use xlink:href="#ArialMT-36" transform="translate(83.398438 0)"/>
      </g>
     </g>
    </g>
    <g id="xtick_5">
     <g id="line2d_9">
      <path d="M 234.185346 265.022801 
L 234.185346 19.642031 
" clip-path="url(#p726895965c)" style="fill: none; stroke: #c0c0c0; stroke-width: 0.25; stroke-linecap: round"/>
     </g>
     <g id="line2d_10"/>
     <g id="text_5">
      <!-- 0.8 -->
      <g style="fill: #333333" transform="translate(227.930346 274.964832) scale(0.09 -0.09)">
       <defs>
        <path id="ArialMT-38" d="M 1131 2484 
Q 781 2613 612 2850 
Q 444 3088 444 3419 
Q 444 3919 803 4259 
Q 1163 4600 1759 4600 
Q 2359 4600 2725 4251 
Q 3091 3903 3091 3403 
Q 3091 3084 2923 2848 
Q 2756 2613 2416 2484 
Q 2838 2347 3058 2040 
Q 3278 1734 3278 1309 
Q 3278 722 2862 322 
Q 2447 -78 1769 -78 
Q 1091 -78 675 323 
Q 259 725 259 1325 
Q 259 1772 486 2073 
Q 713 2375 1131 2484 
z
M 1019 3438 
Q 1019 3113 1228 2906 
Q 1438 2700 1772 2700 
Q 2097 2700 2305 2904 
Q 2513 3109 2513 3406 
Q 2513 3716 2298 3927 
Q 2084 4138 1766 4138 
Q 1444 4138 1231 3931 
Q 1019 3725 1019 3438 
z
M 838 1322 
Q 838 1081 952 856 
Q 1066 631 1291 507 
Q 1516 384 1775 384 
Q 2178 384 2440 643 
Q 2703 903 2703 1303 
Q 2703 1709 2433 1975 
Q 2163 2241 1756 2241 
Q 1359 2241 1098 1978 
Q 838 1716 838 1322 
z
" transform="scale(0.015625)"/>
       </defs>
       <use xlink:href="#ArialMT-30"/>
       <use xlink:href="#ArialMT-2e" transform="translate(55.615234 0)"/>
       <use xlink:href="#ArialMT-38" transform="translate(83.398438 0)"/>
      </g>
     </g>
    </g>
    <g id="xtick_6">
     <g id="line2d_11">
      <path d="M 282.023758 265.022801 
L 282.023758 19.642031 
" clip-path="url(#p726895965c)" style="fill: none; stroke: #c0c0c0; stroke-width: 0.25; stroke-linecap: round"/>
     </g>
     <g id="line2d_12"/>
     <g id="text_6">
      <!-- 1.0 -->
      <g style="fill: #333333" transform="translate(275.768758 274.964832) scale(0.09 -0.09)">
       <defs>
        <path id="ArialMT-31" d="M 2384 0 
L 1822 0 
L 1822 3584 
Q 1619 3391 1289 3197 
Q 959 3003 697 2906 
L 697 3450 
Q 1169 3672 1522 3987 
Q 1875 4303 2022 4600 
L 2384 4600 
L 2384 0 
z
" transform="scale(0.015625)"/>
       </defs>
       <use xlink:href="#ArialMT-31"/>
       <use xlink:href="#ArialMT-2e" transform="translate(55.615234 0)"/>
       <use xlink:href="#ArialMT-30" transform="translate(83.398438 0)"/>
      </g>
     </g>
    </g>
    <g id="text_7">
     <!-- Recall [TP / (TP + FN)] -->
     <g style="fill: #333333" transform="translate(115.706479 287.305301) scale(0.09 -0.09)">
      <defs>
       <path id="Arial-BoldMT-52" d="M 469 0 
L 469 4581 
L 2416 4581 
Q 3150 4581 3483 4457 
Q 3816 4334 4016 4018 
Q 4216 3703 4216 3297 
Q 4216 2781 3912 2445 
Q 3609 2109 3006 2022 
Q 3306 1847 3501 1637 
Q 3697 1428 4028 894 
L 4588 0 
L 3481 0 
L 2813 997 
Q 2456 1531 2325 1670 
Q 2194 1809 2047 1861 
Q 1900 1913 1581 1913 
L 1394 1913 
L 1394 0 
L 469 0 
z
M 1394 2644 
L 2078 2644 
Q 2744 2644 2909 2700 
Q 3075 2756 3169 2893 
Q 3263 3031 3263 3238 
Q 3263 3469 3139 3611 
Q 3016 3753 2791 3791 
Q 2678 3806 2116 3806 
L 1394 3806 
L 1394 2644 
z
" transform="scale(0.015625)"/>
       <path id="Arial-BoldMT-65" d="M 2381 1056 
L 3256 909 
Q 3088 428 2723 176 
Q 2359 -75 1813 -75 
Q 947 -75 531 491 
Q 203 944 203 1634 
Q 203 2459 634 2926 
Q 1066 3394 1725 3394 
Q 2466 3394 2894 2905 
Q 3322 2416 3303 1406 
L 1103 1406 
Q 1113 1016 1316 798 
Q 1519 581 1822 581 
Q 2028 581 2168 693 
Q 2309 806 2381 1056 
z
M 2431 1944 
Q 2422 2325 2234 2523 
Q 2047 2722 1778 2722 
Q 1491 2722 1303 2513 
Q 1116 2303 1119 1944 
L 2431 1944 
z
" transform="scale(0.015625)"/>
       <path id="Arial-BoldMT-63" d="M 3353 2338 
L 2488 2181 
Q 2444 2441 2289 2572 
Q 2134 2703 1888 2703 
Q 1559 2703 1364 2476 
Q 1169 2250 1169 1719 
Q 1169 1128 1367 884 
Q 1566 641 1900 641 
Q 2150 641 2309 783 
Q 2469 925 2534 1272 
L 3397 1125 
Q 3263 531 2881 228 
Q 2500 -75 1859 -75 
Q 1131 -75 698 384 
Q 266 844 266 1656 
Q 266 2478 700 2936 
Q 1134 3394 1875 3394 
Q 2481 3394 2839 3133 
Q 3197 2872 3353 2338 
z
" transform="scale(0.015625)"/>
       <path id="Arial-BoldMT-61" d="M 1116 2306 
L 319 2450 
Q 453 2931 781 3162 
Q 1109 3394 1756 3394 
Q 2344 3394 2631 3255 
Q 2919 3116 3036 2902 
Q 3153 2688 3153 2116 
L 3144 1091 
Q 3144 653 3186 445 
Q 3228 238 3344 0 
L 2475 0 
Q 2441 88 2391 259 
Q 2369 338 2359 363 
Q 2134 144 1878 34 
Q 1622 -75 1331 -75 
Q 819 -75 523 203 
Q 228 481 228 906 
Q 228 1188 362 1408 
Q 497 1628 739 1745 
Q 981 1863 1438 1950 
Q 2053 2066 2291 2166 
L 2291 2253 
Q 2291 2506 2166 2614 
Q 2041 2722 1694 2722 
Q 1459 2722 1328 2630 
Q 1197 2538 1116 2306 
z
M 2291 1594 
Q 2122 1538 1756 1459 
Q 1391 1381 1278 1306 
Q 1106 1184 1106 997 
Q 1106 813 1243 678 
Q 1381 544 1594 544 
Q 1831 544 2047 700 
Q 2206 819 2256 991 
Q 2291 1103 2291 1419 
L 2291 1594 
z
" transform="scale(0.015625)"/>
       <path id="Arial-BoldMT-6c" d="M 459 0 
L 459 4581 
L 1338 4581 
L 1338 0 
L 459 0 
z
" transform="scale(0.015625)"/>
       <path id="Arial-BoldMT-20" transform="scale(0.015625)"/>
       <path id="Arial-BoldMT-5b" d="M 456 -1291 
L 456 4581 
L 2013 4581 
L 2013 3891 
L 1291 3891 
L 1291 -600 
L 2013 -600 
L 2013 -1291 
L 456 -1291 
z
" transform="scale(0.015625)"/>
       <path id="Arial-BoldMT-54" d="M 1497 0 
L 1497 3806 
L 138 3806 
L 138 4581 
L 3778 4581 
L 3778 3806 
L 2422 3806 
L 2422 0 
L 1497 0 
z
" transform="scale(0.015625)"/>
       <path id="Arial-BoldMT-50" d="M 466 0 
L 466 4581 
L 1950 4581 
Q 2794 4581 3050 4513 
Q 3444 4409 3709 4064 
Q 3975 3719 3975 3172 
Q 3975 2750 3822 2462 
Q 3669 2175 3433 2011 
Q 3197 1847 2953 1794 
Q 2622 1728 1994 1728 
L 1391 1728 
L 1391 0 
L 466 0 
z
M 1391 3806 
L 1391 2506 
L 1897 2506 
Q 2444 2506 2628 2578 
Q 2813 2650 2917 2803 
Q 3022 2956 3022 3159 
Q 3022 3409 2875 3571 
Q 2728 3734 2503 3775 
Q 2338 3806 1838 3806 
L 1391 3806 
z
" transform="scale(0.015625)"/>
       <path id="Arial-BoldMT-2f" d="M -9 -78 
L 1125 4659 
L 1784 4659 
L 638 -78 
L -9 -78 
z
" transform="scale(0.015625)"/>
       <path id="Arial-BoldMT-28" d="M 1916 -1347 
L 1313 -1347 
Q 834 -625 584 153 
Q 334 931 334 1659 
Q 334 2563 644 3369 
Q 913 4069 1325 4659 
L 1925 4659 
Q 1497 3713 1336 3048 
Q 1175 2384 1175 1641 
Q 1175 1128 1270 590 
Q 1366 53 1531 -431 
Q 1641 -750 1916 -1347 
z
" transform="scale(0.015625)"/>
       <path id="Arial-BoldMT-2b" d="M 1466 659 
L 1466 1850 
L 266 1850 
L 266 2672 
L 1466 2672 
L 1466 3863 
L 2266 3863 
L 2266 2672 
L 3469 2672 
L 3469 1850 
L 2266 1850 
L 2266 659 
L 1466 659 
z
" transform="scale(0.015625)"/>
       <path id="Arial-BoldMT-46" d="M 472 0 
L 472 4581 
L 3613 4581 
L 3613 3806 
L 1397 3806 
L 1397 2722 
L 3309 2722 
L 3309 1947 
L 1397 1947 
L 1397 0 
L 472 0 
z
" transform="scale(0.015625)"/>
       <path id="Arial-BoldMT-4e" d="M 475 0 
L 475 4581 
L 1375 4581 
L 3250 1522 
L 3250 4581 
L 4109 4581 
L 4109 0 
L 3181 0 
L 1334 2988 
L 1334 0 
L 475 0 
z
" transform="scale(0.015625)"/>
       <path id="Arial-BoldMT-29" d="M 216 -1347 
Q 475 -791 581 -494 
Q 688 -197 778 190 
Q 869 578 912 926 
Q 956 1275 956 1641 
Q 956 2384 797 3048 
Q 638 3713 209 4659 
L 806 4659 
Q 1278 3988 1539 3234 
Q 1800 2481 1800 1706 
Q 1800 1053 1594 306 
Q 1359 -531 822 -1347 
L 216 -1347 
z
" transform="scale(0.015625)"/>
       <path id="Arial-BoldMT-5d" d="M 1675 4581 
L 1675 -1291 
L 119 -1291 
L 119 -600 
L 841 -600 
L 841 3897 
L 119 3897 
L 119 4581 
L 1675 4581 
z
" transform="scale(0.015625)"/>
      </defs>
      <use xlink:href="#Arial-BoldMT-52"/>
      <use xlink:href="#Arial-BoldMT-65" transform="translate(72.216797 0)"/>
      <use xlink:href="#Arial-BoldMT-63" transform="translate(127.832031 0)"/>
      <use xlink:href="#Arial-BoldMT-61" transform="translate(183.447266 0)"/>
      <use xlink:href="#Arial-BoldMT-6c" transform="translate(239.0625 0)"/>
      <use xlink:href="#Arial-BoldMT-6c" transform="translate(266.845703 0)"/>
      <use xlink:href="#Arial-BoldMT-20" transform="translate(294.628906 0)"/>
      <use xlink:href="#Arial-BoldMT-5b" transform="translate(322.412109 0)"/>
      <use xlink:href="#Arial-BoldMT-54" transform="translate(355.712891 0)"/>
      <use xlink:href="#Arial-BoldMT-50" transform="translate(416.796875 0)"/>
      <use xlink:href="#Arial-BoldMT-20" transform="translate(481.746094 0)"/>
      <use xlink:href="#Arial-BoldMT-2f" transform="translate(509.529297 0)"/>
      <use xlink:href="#Arial-BoldMT-20" transform="translate(537.3125 0)"/>
      <use xlink:href="#Arial-BoldMT-28" transform="translate(565.095703 0)"/>
      <use xlink:href="#Arial-BoldMT-54" transform="translate(598.396484 0)"/>
      <use xlink:href="#Arial-BoldMT-50" transform="translate(659.480469 0)"/>
      <use xlink:href="#Arial-BoldMT-20" transform="translate(724.429688 0)"/>
      <use xlink:href="#Arial-BoldMT-2b" transform="translate(752.212891 0)"/>
      <use xlink:href="#Arial-BoldMT-20" transform="translate(810.611328 0)"/>
      <use xlink:href="#Arial-BoldMT-46" transform="translate(838.394531 0)"/>
      <use xlink:href="#Arial-BoldMT-4e" transform="translate(899.478516 0)"/>
      <use xlink:href="#Arial-BoldMT-29" transform="translate(971.695312 0)"/>
      <use xlink:href="#Arial-BoldMT-5d" transform="translate(1004.996094 0)"/>
     </g>
    </g>
   </g>
   <g id="matplotlib.axis_2">
    <g id="ytick_1">
     <g id="line2d_13">
      <path d="M 35.655938 265.022801 
L 289.19952 265.022801 
" clip-path="url(#p726895965c)" style="fill: none; stroke: #c0c0c0; stroke-width: 0.25; stroke-linecap: round"/>
     </g>
     <g id="line2d_14"/>
     <g id="text_8">
      <!-- 0.0 -->
      <g style="fill: #333333" transform="translate(19.645938 268.243817) scale(0.09 -0.09)">
       <use xlink:href="#ArialMT-30"/>
       <use xlink:href="#ArialMT-2e" transform="translate(55.615234 0)"/>
       <use xlink:href="#ArialMT-30" transform="translate(83.398438 0)"/>
      </g>
     </g>
    </g>
    <g id="ytick_2">
     <g id="line2d_15">
      <path d="M 35.655938 217.37605 
L 289.19952 217.37605 
" clip-path="url(#p726895965c)" style="fill: none; stroke: #c0c0c0; stroke-width: 0.25; stroke-linecap: round"/>
     </g>
     <g id="line2d_16"/>
     <g id="text_9">
      <!-- 0.2 -->
      <g style="fill: #333333" transform="translate(19.645938 220.597065) scale(0.09 -0.09)">
       <use xlink:href="#ArialMT-30"/>
       <use xlink:href="#ArialMT-2e" transform="translate(55.615234 0)"/>
       <use xlink:href="#ArialMT-32" transform="translate(83.398438 0)"/>
      </g>
     </g>
    </g>
    <g id="ytick_3">
     <g id="line2d_17">
      <path d="M 35.655938 169.729298 
L 289.19952 169.729298 
" clip-path="url(#p726895965c)" style="fill: none; stroke: #c0c0c0; stroke-width: 0.25; stroke-linecap: round"/>
     </g>
     <g id="line2d_18"/>
     <g id="text_10">
      <!-- 0.4 -->
      <g style="fill: #333333" transform="translate(19.645938 172.950314) scale(0.09 -0.09)">
       <use xlink:href="#ArialMT-30"/>
       <use xlink:href="#ArialMT-2e" transform="translate(55.615234 0)"/>
       <use xlink:href="#ArialMT-34" transform="translate(83.398438 0)"/>
      </g>
     </g>
    </g>
    <g id="ytick_4">
     <g id="line2d_19">
      <path d="M 35.655938 122.082547 
L 289.19952 122.082547 
" clip-path="url(#p726895965c)" style="fill: none; stroke: #c0c0c0; stroke-width: 0.25; stroke-linecap: round"/>
     </g>
     <g id="line2d_20"/>
     <g id="text_11">
      <!-- 0.6 -->
      <g style="fill: #333333" transform="translate(19.645938 125.303563) scale(0.09 -0.09)">
       <use xlink:href="#ArialMT-30"/>
       <use xlink:href="#ArialMT-2e" transform="translate(55.615234 0)"/>
       <use xlink:href="#ArialMT-36" transform="translate(83.398438 0)"/>
      </g>
     </g>
    </g>
    <g id="ytick_5">
     <g id="line2d_21">
      <path d="M 35.655938 74.435795 
L 289.19952 74.435795 
" clip-path="url(#p726895965c)" style="fill: none; stroke: #c0c0c0; stroke-width: 0.25; stroke-linecap: round"/>
     </g>
     <g id="line2d_22"/>
     <g id="text_12">
      <!-- 0.8 -->
      <g style="fill: #333333" transform="translate(19.645938 77.656811) scale(0.09 -0.09)">
       <use xlink:href="#ArialMT-30"/>
       <use xlink:href="#ArialMT-2e" transform="translate(55.615234 0)"/>
       <use xlink:href="#ArialMT-38" transform="translate(83.398438 0)"/>
      </g>
     </g>
    </g>
    <g id="ytick_6">
     <g id="line2d_23">
      <path d="M 35.655938 26.789044 
L 289.19952 26.789044 
" clip-path="url(#p726895965c)" style="fill: none; stroke: #c0c0c0; stroke-width: 0.25; stroke-linecap: round"/>
     </g>
     <g id="line2d_24"/>
     <g id="text_13">
      <!-- 1.0 -->
      <g style="fill: #333333" transform="translate(19.645938 30.01006) scale(0.09 -0.09)">
       <use xlink:href="#ArialMT-31"/>
       <use xlink:href="#ArialMT-2e" transform="translate(55.615234 0)"/>
       <use xlink:href="#ArialMT-30" transform="translate(83.398438 0)"/>
      </g>
     </g>
    </g>
    <g id="text_14">
     <!-- Precision [TP / (TP + FP)] -->
     <g style="fill: #333333" transform="translate(13.751719 195.805776) rotate(-90) scale(0.09 -0.09)">
      <defs>
       <path id="Arial-BoldMT-72" d="M 1300 0 
L 422 0 
L 422 3319 
L 1238 3319 
L 1238 2847 
Q 1447 3181 1614 3287 
Q 1781 3394 1994 3394 
Q 2294 3394 2572 3228 
L 2300 2463 
Q 2078 2606 1888 2606 
Q 1703 2606 1575 2504 
Q 1447 2403 1373 2137 
Q 1300 1872 1300 1025 
L 1300 0 
z
" transform="scale(0.015625)"/>
       <path id="Arial-BoldMT-69" d="M 459 3769 
L 459 4581 
L 1338 4581 
L 1338 3769 
L 459 3769 
z
M 459 0 
L 459 3319 
L 1338 3319 
L 1338 0 
L 459 0 
z
" transform="scale(0.015625)"/>
       <path id="Arial-BoldMT-73" d="M 150 947 
L 1031 1081 
Q 1088 825 1259 692 
Q 1431 559 1741 559 
Q 2081 559 2253 684 
Q 2369 772 2369 919 
Q 2369 1019 2306 1084 
Q 2241 1147 2013 1200 
Q 950 1434 666 1628 
Q 272 1897 272 2375 
Q 272 2806 612 3100 
Q 953 3394 1669 3394 
Q 2350 3394 2681 3172 
Q 3013 2950 3138 2516 
L 2309 2363 
Q 2256 2556 2107 2659 
Q 1959 2763 1684 2763 
Q 1338 2763 1188 2666 
Q 1088 2597 1088 2488 
Q 1088 2394 1175 2328 
Q 1294 2241 1995 2081 
Q 2697 1922 2975 1691 
Q 3250 1456 3250 1038 
Q 3250 581 2869 253 
Q 2488 -75 1741 -75 
Q 1063 -75 667 200 
Q 272 475 150 947 
z
" transform="scale(0.015625)"/>
       <path id="Arial-BoldMT-6f" d="M 256 1706 
Q 256 2144 472 2553 
Q 688 2963 1083 3178 
Q 1478 3394 1966 3394 
Q 2719 3394 3200 2905 
Q 3681 2416 3681 1669 
Q 3681 916 3195 420 
Q 2709 -75 1972 -75 
Q 1516 -75 1102 131 
Q 688 338 472 736 
Q 256 1134 256 1706 
z
M 1156 1659 
Q 1156 1166 1390 903 
Q 1625 641 1969 641 
Q 2313 641 2545 903 
Q 2778 1166 2778 1666 
Q 2778 2153 2545 2415 
Q 2313 2678 1969 2678 
Q 1625 2678 1390 2415 
Q 1156 2153 1156 1659 
z
" transform="scale(0.015625)"/>
       <path id="Arial-BoldMT-6e" d="M 3478 0 
L 2600 0 
L 2600 1694 
Q 2600 2231 2544 2389 
Q 2488 2547 2361 2634 
Q 2234 2722 2056 2722 
Q 1828 2722 1647 2597 
Q 1466 2472 1398 2265 
Q 1331 2059 1331 1503 
L 1331 0 
L 453 0 
L 453 3319 
L 1269 3319 
L 1269 2831 
Q 1703 3394 2363 3394 
Q 2653 3394 2893 3289 
Q 3134 3184 3257 3021 
Q 3381 2859 3429 2653 
Q 3478 2447 3478 2063 
L 3478 0 
z
" transform="scale(0.015625)"/>
      </defs>
      <use xlink:href="#Arial-BoldMT-50"/>
      <use xlink:href="#Arial-BoldMT-72" transform="translate(66.699219 0)"/>
      <use xlink:href="#Arial-BoldMT-65" transform="translate(105.615234 0)"/>
      <use xlink:href="#Arial-BoldMT-63" transform="translate(161.230469 0)"/>
      <use xlink:href="#Arial-BoldMT-69" transform="translate(216.845703 0)"/>
      <use xlink:href="#Arial-BoldMT-73" transform="translate(244.628906 0)"/>
      <use xlink:href="#Arial-BoldMT-69" transform="translate(300.244141 0)"/>
      <use xlink:href="#Arial-BoldMT-6f" transform="translate(328.027344 0)"/>
      <use xlink:href="#Arial-BoldMT-6e" transform="translate(389.111328 0)"/>
      <use xlink:href="#Arial-BoldMT-20" transform="translate(450.195312 0)"/>
      <use xlink:href="#Arial-BoldMT-5b" transform="translate(477.978516 0)"/>
      <use xlink:href="#Arial-BoldMT-54" transform="translate(511.279297 0)"/>
      <use xlink:href="#Arial-BoldMT-50" transform="translate(572.363281 0)"/>
      <use xlink:href="#Arial-BoldMT-20" transform="translate(637.3125 0)"/>
      <use xlink:href="#Arial-BoldMT-2f" transform="translate(665.095703 0)"/>
      <use xlink:href="#Arial-BoldMT-20" transform="translate(692.878906 0)"/>
      <use xlink:href="#Arial-BoldMT-28" transform="translate(720.662109 0)"/>
      <use xlink:href="#Arial-BoldMT-54" transform="translate(753.962891 0)"/>
      <use xlink:href="#Arial-BoldMT-50" transform="translate(815.046875 0)"/>
      <use xlink:href="#Arial-BoldMT-20" transform="translate(879.996094 0)"/>
      <use xlink:href="#Arial-BoldMT-2b" transform="translate(907.779297 0)"/>
      <use xlink:href="#Arial-BoldMT-20" transform="translate(966.177734 0)"/>
      <use xlink:href="#Arial-BoldMT-46" transform="translate(993.960938 0)"/>
      <use xlink:href="#Arial-BoldMT-50" transform="translate(1055.044922 0)"/>
      <use xlink:href="#Arial-BoldMT-29" transform="translate(1121.744141 0)"/>
      <use xlink:href="#Arial-BoldMT-5d" transform="translate(1155.044922 0)"/>
     </g>
    </g>
   </g>
   <g id="line2d_25">
    <path d="M 42.831699 265.022801 
L 42.941992 241.279684 
L 42.944842 241.212802 
L 43.055741 230.244151 
L 43.056952 230.177269 
L 43.165321 223.489066 
L 43.169703 223.422184 
L 43.280744 218.807325 
L 43.281386 218.740443 
L 43.390824 214.727522 
L 43.395989 214.66064 
L 43.50703 211.517185 
L 43.509738 211.450303 
L 43.619461 208.03932 
L 43.621349 207.972438 
L 43.731642 205.430921 
L 43.73467 205.364039 
L 43.84507 202.019938 
L 43.851803 201.953056 
L 43.962381 199.879713 
L 43.966157 199.812831 
L 44.076735 197.338196 
L 44.083789 197.271314 
L 44.193476 195.264854 
L 44.199853 195.197972 
L 44.309683 193.392157 
L 44.318874 193.325275 
L 44.420831 191.385697 
L 44.442846 191.318815 
L 44.551857 189.044826 
L 44.562936 188.977944 
L 44.670771 187.305893 
L 44.675652 187.239011 
L 44.784876 185.500079 
L 44.797986 185.433197 
L 44.908314 183.627382 
L 44.917292 183.5605 
L 45.018073 182.022214 
L 45.037666 181.955332 
L 45.14144 180.350163 
L 45.166448 180.283281 
L 45.268085 178.945641 
L 45.286467 178.878759 
L 45.392592 177.741764 
L 45.39562 177.741764 
L 45.410547 177.674882 
L 45.519664 176.471006 
L 45.530173 176.404124 
L 45.629423 175.133366 
L 45.642105 175.066484 
L 45.740321 173.795725 
L 45.758668 173.728843 
L 45.86465 173.126905 
L 45.893791 173.060023 
L 46.001377 171.923029 
L 46.039495 171.856147 
L 46.147971 171.053562 
L 46.181671 170.98668 
L 46.282203 169.64904 
L 46.317863 169.582158 
L 46.405179 168.846456 
L 46.449958 168.779574 
L 46.550205 167.776343 
L 46.566379 167.709461 
L 46.675104 166.505585 
L 46.717676 166.438703 
L 46.820024 165.301709 
L 46.843608 165.234827 
L 46.952191 164.03095 
L 46.962593 163.964068 
L 47.042534 163.429012 
L 47.086779 163.36213 
L 47.186029 162.626428 
L 47.190446 162.626428 
L 47.214813 162.559546 
L 47.323788 161.489433 
L 47.340354 161.422551 
L 47.444982 160.486203 
L 47.482709 160.419321 
L 47.589938 159.549855 
L 47.618544 159.482973 
L 47.707819 158.947917 
L 47.737173 158.881035 
L 47.835639 158.279096 
L 47.878068 158.212214 
L 47.98829 157.40963 
L 47.994844 157.342748 
L 48.102466 156.473282 
L 48.124446 156.4064 
L 48.234561 155.40317 
L 48.239512 155.336288 
L 48.344497 154.533703 
L 48.362523 154.466821 
L 48.468613 153.798001 
L 48.503489 153.731119 
L 48.607726 153.129181 
L 48.624826 153.062299 
L 48.723291 152.326597 
L 48.747979 152.259715 
L 48.849971 151.323366 
L 48.854496 151.323366 
L 48.88353 151.256484 
L 48.952427 150.654546 
L 48.991222 150.654546 
L 49.001339 150.587664 
L 49.109958 149.851962 
L 49.122997 149.78508 
L 49.208816 148.848732 
L 49.254878 148.781849 
L 49.358331 148.246793 
L 49.438308 148.179911 
L 49.533175 147.912383 
L 49.564525 147.845501 
L 49.666197 147.042917 
L 49.736626 146.976035 
L 49.834771 146.240333 
L 49.8798 146.173451 
L 49.963696 145.571513 
L 49.99875 145.50463 
L 50.107226 144.83581 
L 50.134408 144.768928 
L 50.237326 144.367636 
L 50.261872 144.300754 
L 50.367498 143.631934 
L 50.3696 143.631934 
L 50.408822 143.565052 
L 50.516087 142.82935 
L 50.560903 142.762468 
L 50.66603 141.893001 
L 50.671979 141.893001 
L 50.679532 141.826119 
L 50.778995 141.357945 
L 50.838915 141.291063 
L 50.934816 141.023535 
L 50.987005 140.956653 
L 51.087965 140.354715 
L 51.107202 140.287833 
L 51.214859 139.619013 
L 51.230035 139.552131 
L 51.336516 139.217721 
L 51.380049 139.150839 
L 51.490805 138.147608 
L 51.512928 138.080726 
L 51.613139 137.345024 
L 51.634229 137.278142 
L 51.74527 136.54244 
L 51.770528 136.475558 
L 51.860479 135.87362 
L 51.8919 135.806738 
L 51.977897 135.472327 
L 51.979144 135.472327 
L 52.058123 135.405445 
L 52.167525 135.004153 
L 52.186478 134.937271 
L 52.293351 134.268451 
L 52.362996 134.201569 
L 52.465203 133.265221 
L 52.492811 133.198339 
L 52.601466 132.596401 
L 52.652729 132.529518 
L 52.752157 131.793816 
L 52.882613 131.726934 
L 52.974061 131.392524 
L 53.047162 131.325642 
L 53.133017 130.656822 
L 53.153287 130.656822 
L 53.210037 130.58994 
L 53.310747 130.25553 
L 53.407039 130.188648 
L 53.494355 129.787356 
L 53.510564 129.787356 
L 53.526132 129.720474 
L 53.628445 129.185417 
L 53.631081 129.185417 
L 53.701795 129.118535 
L 53.805712 128.717243 
L 53.853591 128.650361 
L 53.960321 127.981541 
L 53.989355 127.914659 
L 53.989355 127.847777 
L 54.088783 127.847777 
L 54.115715 127.780895 
L 54.171681 127.446485 
L 54.223229 127.446485 
L 54.318417 127.379603 
L 54.386531 126.978311 
L 54.503165 126.911429 
L 54.612603 126.242609 
L 54.622222 126.175727 
L 54.727456 125.506906 
L 54.795534 125.440024 
L 54.892041 124.771204 
L 54.930159 124.704322 
L 55.031581 124.30303 
L 55.033933 124.30303 
L 55.111736 124.236148 
L 55.187865 123.767974 
L 55.27258 123.701092 
L 55.371865 123.366682 
L 55.423378 123.2998 
L 55.523518 122.898508 
L 55.578451 122.831626 
L 55.680586 122.029041 
L 55.725437 121.962159 
L 55.824366 121.627749 
L 55.833272 121.627749 
L 55.882968 121.560867 
L 55.992869 121.092693 
L 56.088984 121.025811 
L 56.188803 120.423873 
L 56.220117 120.356991 
L 56.310282 119.888817 
L 56.361866 119.821935 
L 56.453207 119.219996 
L 56.483986 119.153114 
L 56.565602 118.751822 
L 56.608529 118.68494 
L 56.710166 118.283648 
L 56.734248 118.216766 
L 56.842973 117.882356 
L 56.871366 117.815474 
L 56.979414 117.079772 
L 57.075992 117.01289 
L 57.129144 116.745362 
L 57.170539 116.745362 
L 57.206057 116.67848 
L 57.299749 116.277187 
L 57.371781 116.210305 
L 57.461198 115.942777 
L 57.465509 115.942777 
L 57.497535 115.875895 
L 57.603589 115.407721 
L 57.6955 115.340839 
L 57.80337 114.805783 
L 57.805757 114.805783 
L 57.845692 114.738901 
L 57.950891 114.404491 
L 57.979212 114.337609 
L 58.057871 114.203845 
L 58.129404 114.136963 
L 58.240018 113.869435 
L 58.256156 113.802553 
L 58.329257 113.601907 
L 58.377599 113.535025 
L 58.448599 113.200615 
L 58.48376 113.200615 
L 58.507058 113.133733 
L 58.611509 112.799322 
L 58.672605 112.73244 
L 58.760525 112.130502 
L 58.798252 112.06362 
L 58.908188 111.528564 
L 58.955604 111.461682 
L 59.065434 111.127272 
L 59.085883 111.06039 
L 59.178613 110.659098 
L 59.19443 110.659098 
L 59.248544 110.592216 
L 59.354063 110.257806 
L 59.471303 110.190924 
L 59.551849 109.923396 
L 59.553844 109.923396 
L 59.710342 109.856514 
L 59.810233 109.522103 
L 59.871364 109.455221 
L 59.975245 108.987047 
L 59.97984 108.987047 
L 59.995586 108.920165 
L 60.099146 108.451991 
L 60.191342 108.385109 
L 60.245847 107.983817 
L 60.302419 107.983817 
L 60.322903 107.916935 
L 60.407689 107.582525 
L 60.49276 107.515643 
L 60.600417 107.248115 
L 60.681533 107.181233 
L 60.777969 106.713059 
L 60.803582 106.646177 
L 60.842057 106.378648 
L 60.877432 106.378648 
L 60.922817 106.311766 
L 60.922817 106.244884 
L 60.935393 106.244884 
L 61.052169 106.178002 
L 61.162997 105.77671 
L 61.275819 105.709828 
L 61.377241 105.308536 
L 61.382015 105.308536 
L 61.41055 105.241654 
L 61.520523 104.974126 
L 61.551195 104.907244 
L 61.624475 104.706598 
L 61.774631 104.639716 
L 61.883392 104.171542 
L 61.95546 104.10466 
L 61.997248 103.904014 
L 62.046303 103.904014 
L 62.082176 103.837132 
L 62.095144 103.703368 
L 62.189085 103.703368 
L 62.271912 103.636486 
L 62.375792 103.235193 
L 62.431865 103.168311 
L 62.500192 102.833901 
L 62.687897 102.767019 
L 62.726372 102.566373 
L 62.781874 102.566373 
L 62.868833 102.499491 
L 62.975528 102.231963 
L 63.017031 102.165081 
L 63.12597 101.897553 
L 63.12768 101.897553 
L 63.215779 101.830671 
L 63.320408 101.429379 
L 63.371564 101.362497 
L 63.409255 101.161851 
L 63.409718 101.161851 
L 63.579005 101.094969 
L 63.678611 100.827441 
L 63.69913 100.760559 
L 63.741737 100.493031 
L 63.901726 100.426149 
L 64.008813 100.158621 
L 64.011734 100.158621 
L 64.138058 100.091739 
L 64.235384 99.891092 
L 64.255226 99.82421 
L 64.32448 99.690446 
L 64.331961 99.690446 
L 64.583113 99.623564 
L 64.67823 99.289154 
L 64.771566 99.222272 
L 64.832341 98.954744 
L 64.838041 98.954744 
L 64.945128 98.887862 
L 65.008931 98.553452 
L 65.044235 98.553452 
L 65.143199 98.48657 
L 65.228555 98.15216 
L 65.276719 98.085278 
L 65.370126 97.617104 
L 65.47244 97.550222 
L 65.569088 97.282694 
L 65.750274 97.215812 
L 65.796514 97.082048 
L 65.855116 97.082048 
L 65.871183 97.015166 
L 65.94546 96.747637 
L 65.980443 96.747637 
L 66.132701 96.680755 
L 66.226821 96.145699 
L 66.282324 96.145699 
L 66.312213 95.878171 
L 66.31663 95.878171 
L 66.429452 95.811289 
L 66.496497 95.610643 
L 66.612633 95.543761 
L 66.612633 95.476879 
L 66.660476 95.476879 
L 66.750357 95.409997 
L 66.816796 95.075587 
L 66.852527 95.075587 
L 66.898803 95.008705 
L 66.952988 94.741177 
L 66.99588 94.741177 
L 67.050955 94.674295 
L 67.155085 94.406767 
L 67.172648 94.339885 
L 67.268976 94.005475 
L 67.30802 93.938593 
L 67.400786 93.604183 
L 67.418385 93.604183 
L 67.570394 93.537301 
L 67.615458 93.269772 
L 67.681221 93.269772 
L 67.720728 93.20289 
L 67.779544 92.86848 
L 67.954745 92.801598 
L 68.038035 92.600952 
L 68.064646 92.600952 
L 68.084524 92.53407 
L 68.186944 92.266542 
L 68.286158 92.19966 
L 68.393922 91.731486 
L 68.423704 91.664604 
L 68.49424 91.263312 
L 68.527086 91.263312 
L 68.56556 91.19643 
L 68.661853 90.86202 
L 68.810691 90.795138 
L 68.911971 90.594492 
L 69.195221 90.52761 
L 69.270174 90.260081 
L 69.283569 90.260081 
L 69.430911 90.193199 
L 69.515947 90.059435 
L 69.763714 89.992553 
L 69.866704 89.591261 
L 69.931612 89.524379 
L 70.018179 89.256851 
L 70.115184 89.189969 
L 70.199649 89.056205 
L 70.208947 89.056205 
L 70.241116 88.989323 
L 70.315856 88.788677 
L 70.338121 88.788677 
L 70.374458 88.721795 
L 70.482792 88.253621 
L 70.609793 88.186739 
L 70.609793 88.119857 
L 70.712248 88.119857 
L 70.788021 88.052975 
L 70.867428 87.785447 
L 70.892686 87.785447 
L 71.033295 87.718565 
L 71.138209 87.250391 
L 71.213127 87.183509 
L 71.245687 86.91598 
L 71.31772 86.91598 
L 71.386902 86.849098 
L 71.487114 86.58157 
L 71.595269 86.514688 
L 71.692025 86.113396 
L 71.696549 86.113396 
L 71.751945 86.046514 
L 71.751945 85.979632 
L 71.938581 85.91275 
L 71.999 85.712104 
L 72.163335 85.645222 
L 72.217769 85.377694 
L 72.224075 85.377694 
L 72.464361 85.310812 
L 72.55645 85.043284 
L 72.561829 85.043284 
L 72.704398 84.976402 
L 72.71847 84.842638 
L 72.748857 84.842638 
L 72.84775 84.775756 
L 72.948318 84.441346 
L 72.95384 84.441346 
L 73.029542 84.374464 
L 73.135132 84.106936 
L 73.213577 84.040054 
L 73.27795 83.839408 
L 73.298577 83.839408 
L 73.395617 83.772525 
L 73.4109 83.638761 
L 73.490556 83.638761 
L 73.606015 83.571879 
L 73.693223 83.438115 
L 73.753357 83.371233 
L 73.839533 83.170587 
L 73.855706 83.170587 
L 74.027166 83.103705 
L 74.072124 82.903059 
L 74.135464 82.903059 
L 74.39114 82.836177 
L 74.482374 82.635531 
L 74.655437 82.568649 
L 74.71607 82.434885 
L 74.929638 82.368003 
L 74.929638 82.301121 
L 74.9757 82.301121 
L 75.146947 82.234239 
L 75.194505 82.100475 
L 75.254924 82.100475 
L 75.293398 82.033593 
L 75.400984 81.766065 
L 75.417086 81.699183 
L 75.430374 81.565419 
L 75.666599 81.498537 
L 75.681846 81.364773 
L 75.890748 81.297891 
L 75.991173 80.963481 
L 76.085684 80.896599 
L 76.161742 80.695953 
L 76.307553 80.629071 
L 76.332347 80.428424 
L 76.390914 80.428424 
L 76.583463 80.361542 
L 76.691832 80.160896 
L 76.764257 80.094014 
L 76.860799 79.62584 
L 76.937284 79.558958 
L 77.04145 79.224548 
L 77.331397 79.157666 
L 77.331397 79.090784 
L 77.426834 79.090784 
L 77.857533 79.023902 
L 77.890699 78.823256 
L 78.063691 78.756374 
L 78.081467 78.62261 
L 78.165862 78.62261 
L 78.437782 78.555728 
L 78.437782 78.488846 
L 78.501265 78.488846 
L 78.779776 78.421964 
L 78.839839 78.2882 
L 79.244567 78.221318 
L 79.314961 77.95379 
L 79.567039 77.886908 
L 79.599029 77.753144 
L 80.1003 77.686262 
L 80.180027 77.552498 
L 80.203789 77.552498 
L 80.236171 77.485616 
L 80.296733 77.351852 
L 80.56274 77.28497 
L 80.642823 77.151205 
L 80.80128 77.084323 
L 80.870534 76.950559 
L 81.040498 76.883677 
L 81.145483 76.482385 
L 81.443659 76.415503 
L 81.52677 76.214857 
L 81.685192 76.147975 
L 81.737952 75.947329 
L 81.778314 75.947329 
L 82.003567 75.880447 
L 82.003567 75.813565 
L 82.099824 75.813565 
L 82.163485 75.746683 
L 82.239079 75.479155 
L 82.445879 75.412273 
L 82.528848 75.211627 
L 82.613491 75.144745 
L 82.724034 74.810335 
L 82.811456 74.743453 
L 82.818937 74.609689 
L 83.011059 74.542807 
L 83.122065 74.409043 
L 83.216541 74.342161 
L 83.269656 74.208397 
L 83.279275 74.208397 
L 83.380377 74.141515 
L 83.448883 74.00775 
L 83.566799 73.940868 
L 83.662522 73.67334 
L 83.761486 73.606458 
L 83.807192 73.405812 
L 83.833519 73.405812 
L 84.146657 73.33893 
L 84.192755 73.205166 
L 84.212633 73.205166 
L 84.300875 73.138284 
L 84.300875 73.071402 
L 84.48117 73.00452 
L 84.549711 72.870756 
L 84.575289 72.870756 
L 84.70343 72.803874 
L 84.813011 72.536346 
L 85.027505 72.469464 
L 85.118703 72.201936 
L 85.224223 72.135054 
L 85.224223 72.068172 
L 85.480005 72.00129 
L 85.503482 71.867526 
L 85.591047 71.867526 
L 85.908068 71.800644 
L 85.981668 71.66688 
L 86.07397 71.599998 
L 86.077141 71.466234 
L 86.101508 71.466234 
L 86.22801 71.399352 
L 86.331107 71.198706 
L 86.549235 71.131824 
L 86.560599 70.99806 
L 86.652403 70.99806 
L 86.728604 70.931178 
L 86.828067 70.663649 
L 86.967999 70.596767 
L 86.967999 70.529885 
L 87.066714 70.529885 
L 87.303367 70.463003 
L 87.303367 70.396121 
L 87.315907 70.396121 
L 87.437564 70.329239 
L 87.437564 70.262357 
L 87.528549 70.262357 
L 87.897332 70.195475 
L 87.944071 69.994829 
L 88.003742 69.994829 
L 88.720041 69.927947 
L 88.720041 69.861065 
L 88.970409 69.794183 
L 89.023881 69.526655 
L 89.159147 69.459773 
L 89.224304 69.259127 
L 89.527716 69.192245 
L 89.527716 69.125363 
L 89.822401 69.058481 
L 89.930307 68.857835 
L 90.041241 68.790953 
L 90.12845 68.590307 
L 90.304327 68.523425 
L 90.375398 68.389661 
L 90.507849 68.322779 
L 90.507849 68.255897 
L 90.700791 68.189015 
L 90.709412 68.055251 
L 91.163231 67.988369 
L 91.163231 67.921487 
L 91.260806 67.921487 
L 91.388697 67.854605 
L 91.400168 67.720841 
L 91.410499 67.720841 
L 91.619935 67.653959 
L 91.664786 67.520194 
L 91.878603 67.453312 
L 91.878603 67.38643 
L 92.155476 67.319548 
L 92.155476 67.252666 
L 92.253051 67.252666 
L 92.471036 67.185784 
L 92.533308 66.851374 
L 93.483837 66.784492 
L 93.519675 66.650728 
L 93.866906 66.583846 
L 93.906199 66.450082 
L 94.097253 66.3832 
L 94.1322 66.249436 
L 94.550181 66.182554 
L 94.652601 66.04879 
L 94.864067 65.981908 
L 94.864067 65.915026 
L 94.933071 65.915026 
L 95.47392 65.848144 
L 95.584997 65.71438 
L 95.649513 65.647498 
L 95.649513 65.580616 
L 96.24818 65.513734 
L 96.293673 65.37997 
L 96.462995 65.313088 
L 96.532284 65.179324 
L 97.320937 65.112442 
L 97.324428 64.978678 
L 97.335151 64.978678 
L 97.826126 64.911796 
L 97.826126 64.844914 
L 97.904285 64.844914 
L 98.201357 64.778032 
L 98.304917 64.577386 
L 98.382721 64.510504 
L 98.400925 64.37674 
L 98.793505 64.309858 
L 98.901981 64.109211 
L 99.156731 64.042329 
L 99.209954 63.841683 
L 99.468373 63.774801 
L 99.468373 63.707919 
L 99.75262 63.641037 
L 99.75262 63.574155 
L 99.952152 63.507273 
L 100.032164 63.373509 
L 100.537602 63.306627 
L 100.637208 62.972217 
L 101.006063 62.905335 
L 101.064487 62.704689 
L 101.153476 62.637807 
L 101.153476 62.570925 
L 101.601453 62.504043 
L 101.601453 62.437161 
L 101.840029 62.370279 
L 101.876793 62.236515 
L 101.890224 62.236515 
L 102.128871 62.169633 
L 102.128871 62.102751 
L 102.794405 62.035869 
L 102.846488 61.902105 
L 103.188233 61.835223 
L 103.279324 61.701459 
L 103.412702 61.634577 
L 103.412702 61.567695 
L 103.591109 61.500813 
L 103.591109 61.433931 
L 103.650957 61.433931 
L 103.742761 61.367049 
L 103.742761 61.300167 
L 103.806315 61.300167 
L 103.971577 61.233285 
L 103.971577 61.166403 
L 104.062312 61.166403 
L 104.254007 61.099521 
L 104.254007 61.032639 
L 104.516558 60.965756 
L 104.625533 60.831992 
L 104.916442 60.76511 
L 104.975649 60.564464 
L 105.013732 60.564464 
L 105.072049 60.497582 
L 105.181451 60.363818 
L 105.305816 60.296936 
L 105.305816 60.230054 
L 105.810079 60.163172 
L 105.823794 60.029408 
L 105.98161 59.962526 
L 106.054355 59.828762 
L 106.144591 59.76188 
L 106.144591 59.694998 
L 106.207041 59.694998 
L 106.373905 59.628116 
L 106.464712 59.494352 
L 106.734602 59.42747 
L 106.811836 59.293706 
L 107.029215 59.226824 
L 107.094479 59.09306 
L 107.337045 59.026178 
L 107.414137 58.825532 
L 108.034891 58.75865 
L 108.121743 58.491122 
L 108.518705 58.42424 
L 108.610438 58.156712 
L 108.906904 58.08983 
L 108.906904 58.022948 
L 108.992937 58.022948 
L 109.191258 57.956066 
L 109.191258 57.889184 
L 109.831926 57.822302 
L 109.91315 57.688537 
L 110.11204 57.621655 
L 110.140362 57.487891 
L 110.381503 57.421009 
L 110.419158 57.287245 
L 110.559946 57.220363 
L 110.559946 57.153481 
L 110.617657 57.153481 
L 110.749111 57.086599 
L 110.82093 56.952835 
L 111.324231 56.885953 
L 111.324231 56.819071 
L 111.77381 56.752189 
L 111.877156 56.551543 
L 111.956314 56.484661 
L 112.05909 56.284015 
L 112.299198 56.217133 
L 112.299198 56.150251 
L 112.406356 56.150251 
L 112.66303 56.083369 
L 112.66303 56.016487 
L 112.724731 56.016487 
L 113.433371 55.949605 
L 113.446053 55.815841 
L 113.468176 55.815841 
L 114.192312 55.748959 
L 114.192312 55.682077 
L 114.567009 55.615195 
L 114.629993 55.481431 
L 114.640181 55.481431 
L 115.058269 55.414549 
L 115.138032 55.280785 
L 115.196598 55.213903 
L 115.233469 55.080139 
L 115.269806 55.080139 
L 115.743682 55.013257 
L 115.854438 54.745729 
L 115.952048 54.678847 
L 115.969718 54.545083 
L 116.015638 54.545083 
L 116.268428 54.4782 
L 116.273416 54.344436 
L 116.510959 54.277554 
L 116.510959 54.210672 
L 116.749464 54.14379 
L 116.749464 54.076908 
L 116.780279 54.076908 
L 117.65532 54.010026 
L 117.65532 53.943144 
L 118.004261 53.876262 
L 118.014164 53.742498 
L 119.635678 53.675616 
L 119.635678 53.608734 
L 119.643409 53.608734 
L 119.950348 53.541852 
L 119.950348 53.47497 
L 120.386319 53.408088 
L 120.386319 53.341206 
L 120.557993 53.274324 
L 120.588309 53.14056 
L 121.196417 53.073678 
L 121.196417 53.006796 
L 122.005411 52.939914 
L 122.005411 52.873032 
L 122.052364 52.873032 
L 122.299632 52.80615 
L 122.299632 52.739268 
L 122.690396 52.672386 
L 122.690396 52.605504 
L 123.168938 52.538622 
L 123.175813 52.404858 
L 123.217316 52.404858 
L 123.474666 52.337976 
L 123.474666 52.271094 
L 123.867104 52.204212 
L 123.926312 52.070448 
L 124.537448 52.003566 
L 124.576171 51.869802 
L 124.950583 51.80292 
L 124.950583 51.736038 
L 125.410102 51.669156 
L 125.410102 51.602274 
L 125.544584 51.535392 
L 125.544584 51.46851 
L 125.920599 51.401628 
L 125.920599 51.334746 
L 126.05704 51.267863 
L 126.117637 51.134099 
L 126.231493 51.067217 
L 126.336014 50.933453 
L 126.547516 50.866571 
L 126.561089 50.665925 
L 127.054415 50.599043 
L 127.132575 50.398397 
L 127.45209 50.331515 
L 127.45209 50.264633 
L 128.462041 50.197751 
L 128.509172 50.063987 
L 128.816289 49.997105 
L 128.816289 49.930223 
L 129.351367 49.863341 
L 129.351367 49.796459 
L 129.451365 49.796459 
L 130.118039 49.729577 
L 130.118039 49.662695 
L 130.363384 49.595813 
L 130.406846 49.328285 
L 130.958026 49.261403 
L 130.958026 49.194521 
L 131.323104 49.127639 
L 131.323104 49.060757 
L 132.04154 48.993875 
L 132.110082 48.793229 
L 132.980919 48.726347 
L 133.071156 48.592583 
L 133.298938 48.525701 
L 133.387607 48.391937 
L 134.361755 48.325055 
L 134.361755 48.258173 
L 135.165334 48.191291 
L 135.192978 48.057527 
L 135.439926 47.990644 
L 135.439926 47.923762 
L 136.133069 47.85688 
L 136.232782 47.723116 
L 136.595117 47.656234 
L 136.595117 47.589352 
L 136.69369 47.589352 
L 137.180853 47.52247 
L 137.180853 47.455588 
L 137.269522 47.455588 
L 138.105305 47.388706 
L 138.105305 47.321824 
L 138.396285 47.254942 
L 138.396285 47.18806 
L 138.417303 47.18806 
L 139.027335 47.121178 
L 139.13004 46.987414 
L 139.632877 46.920532 
L 139.632877 46.85365 
L 139.696146 46.85365 
L 140.224776 46.786768 
L 140.326769 46.653004 
L 140.704244 46.586122 
L 140.704244 46.51924 
L 140.713685 46.51924 
L 141.009046 46.452358 
L 141.118021 46.318594 
L 141.270743 46.251712 
L 141.270743 46.18483 
L 141.376191 46.18483 
L 141.650748 46.117948 
L 141.650748 46.051066 
L 142.328893 45.984184 
L 142.352263 45.85042 
L 142.686455 45.783538 
L 142.686455 45.716656 
L 142.893147 45.649774 
L 142.893147 45.582892 
L 143.276751 45.51601 
L 143.276751 45.449128 
L 143.498085 45.382246 
L 143.498085 45.315364 
L 144.715797 45.248482 
L 144.715797 45.1816 
L 145.050844 45.114718 
L 145.050844 45.047836 
L 145.731661 44.980954 
L 145.731661 44.914072 
L 146.735448 44.84719 
L 146.735448 44.780308 
L 147.093402 44.713425 
L 147.093402 44.646543 
L 148.3617 44.579661 
L 148.3617 44.512779 
L 148.735364 44.445897 
L 148.815234 44.312133 
L 149.28031 44.245251 
L 149.28031 44.178369 
L 149.522912 44.111487 
L 149.522912 44.044605 
L 150.362685 43.977723 
L 150.362685 43.910841 
L 150.819033 43.843959 
L 150.819033 43.777077 
L 150.862281 43.777077 
L 151.184076 43.710195 
L 151.184076 43.643313 
L 151.41795 43.576431 
L 151.41795 43.509549 
L 151.454821 43.509549 
L 151.676654 43.442667 
L 151.780677 43.308903 
L 153.184312 43.242021 
L 153.281495 43.108257 
L 153.596522 43.041375 
L 153.596522 42.974493 
L 153.883725 42.907611 
L 153.883725 42.840729 
L 153.894341 42.840729 
L 154.769917 42.773847 
L 154.80522 42.640083 
L 155.676272 42.573201 
L 155.676272 42.506319 
L 156.085952 42.439437 
L 156.085952 42.372555 
L 157.683597 42.305673 
L 157.683597 42.238791 
L 158.212619 42.171909 
L 158.212619 42.105027 
L 159.285732 42.038145 
L 159.285732 41.971263 
L 159.858429 41.904381 
L 159.955897 41.770617 
L 160.873153 41.703735 
L 160.955873 41.436206 
L 161.329145 41.369324 
L 161.329145 41.302442 
L 162.48854 41.23556 
L 162.48854 41.168678 
L 163.380787 41.101796 
L 163.380787 41.034914 
L 164.046357 40.968032 
L 164.10984 40.834268 
L 164.794647 40.767386 
L 164.794647 40.700504 
L 165.747456 40.633622 
L 165.747456 40.56674 
L 166.188557 40.499858 
L 166.188557 40.432976 
L 166.473516 40.366094 
L 166.473516 40.299212 
L 167.391128 40.23233 
L 167.391128 40.165448 
L 168.831314 40.098566 
L 168.831314 40.031684 
L 169.34687 39.964802 
L 169.34687 39.89792 
L 169.410067 39.89792 
L 171.041912 39.831038 
L 171.041912 39.764156 
L 171.938613 39.697274 
L 171.938613 39.630392 
L 172.020478 39.630392 
L 172.526379 39.56351 
L 172.526379 39.496628 
L 172.562609 39.496628 
L 173.398464 39.429746 
L 173.472206 39.295982 
L 173.48471 39.295982 
L 173.952672 39.2291 
L 173.985161 39.095336 
L 174.528931 39.028454 
L 174.60075 38.89469 
L 175.581667 38.827808 
L 175.581667 38.760926 
L 176.403307 38.694044 
L 176.403307 38.627162 
L 176.96635 38.56028 
L 176.96635 38.493398 
L 177.572712 38.426516 
L 177.572712 38.359634 
L 177.860949 38.292752 
L 177.907261 38.158987 
L 177.910182 38.158987 
L 178.396739 38.092105 
L 178.396739 38.025223 
L 178.398307 38.025223 
L 179.612741 37.958341 
L 179.612741 37.891459 
L 181.147545 37.824577 
L 181.210529 37.690813 
L 182.723531 37.623931 
L 182.723531 37.557049 
L 183.823362 37.490167 
L 183.823362 37.423285 
L 185.315096 37.356403 
L 185.323753 37.222639 
L 185.996305 37.155757 
L 185.996305 37.088875 
L 186.833122 37.021993 
L 186.833122 36.955111 
L 187.386404 36.888229 
L 187.386404 36.821347 
L 189.183652 36.754465 
L 189.183652 36.687583 
L 190.058302 36.620701 
L 190.058302 36.553819 
L 190.925042 36.486937 
L 190.925042 36.420055 
L 190.935872 36.420055 
L 191.958149 36.353173 
L 191.958149 36.286291 
L 192.750328 36.219409 
L 192.750328 36.152527 
L 193.886032 36.085645 
L 193.886032 36.018763 
L 194.358375 35.951881 
L 194.358375 35.884999 
L 196.594552 35.818117 
L 196.594552 35.751235 
L 198.398961 35.684353 
L 198.398961 35.617471 
L 198.496002 35.617471 
L 199.54229 35.550589 
L 199.54229 35.483707 
L 200.050827 35.416825 
L 200.050827 35.349943 
L 201.328709 35.283061 
L 201.328709 35.216179 
L 201.988864 35.149297 
L 201.988864 35.082415 
L 202.335631 35.015532 
L 202.335631 34.94865 
L 202.80744 34.881768 
L 202.80744 34.814886 
L 203.656297 34.748004 
L 203.656297 34.681122 
L 204.245061 34.61424 
L 204.245061 34.547358 
L 205.721477 34.480476 
L 205.721477 34.413594 
L 206.298948 34.346712 
L 206.298948 34.27983 
L 206.758288 34.212948 
L 206.807521 34.079184 
L 208.423442 34.012302 
L 208.423442 33.94542 
L 210.346837 33.878538 
L 210.346837 33.811656 
L 211.149917 33.744774 
L 211.149917 33.677892 
L 211.611003 33.61101 
L 211.611003 33.544128 
L 211.976544 33.477246 
L 211.976544 33.410364 
L 214.571458 33.343482 
L 214.571458 33.2766 
L 214.882815 33.209718 
L 214.882815 33.142836 
L 215.561958 33.075954 
L 215.561958 33.009072 
L 216.533149 32.94219 
L 216.533149 32.875308 
L 217.638039 32.808426 
L 217.638039 32.741544 
L 219.562146 32.674662 
L 219.562146 32.60778 
L 219.976778 32.540898 
L 219.976778 32.474016 
L 222.176653 32.407134 
L 222.214451 32.27337 
L 222.846747 32.206488 
L 222.846747 32.139606 
L 223.93696 32.072724 
L 223.93696 32.005842 
L 224.471895 31.93896 
L 224.471895 31.872078 
L 225.644221 31.805196 
L 225.644221 31.738313 
L 226.418267 31.671431 
L 226.418267 31.604549 
L 226.815906 31.537667 
L 226.815906 31.470785 
L 229.584275 31.403903 
L 229.584275 31.337021 
L 230.173146 31.270139 
L 230.173146 31.203257 
L 230.798567 31.136375 
L 230.798567 31.069493 
L 232.121228 31.002611 
L 232.121228 30.935729 
L 233.190778 30.868847 
L 233.190778 30.801965 
L 233.81449 30.735083 
L 233.844058 30.601319 
L 234.260186 30.534437 
L 234.278853 30.400673 
L 234.318468 30.400673 
L 236.274067 30.333791 
L 236.274067 30.266909 
L 237.494201 30.200027 
L 237.494201 30.133145 
L 239.897064 30.066263 
L 239.897064 29.999381 
L 241.709809 29.932499 
L 241.709809 29.865617 
L 241.99687 29.798735 
L 241.99687 29.731853 
L 242.846761 29.664971 
L 242.846761 29.598089 
L 245.672984 29.531207 
L 245.672984 29.464325 
L 248.386099 29.397443 
L 248.386099 29.330561 
L 248.860865 29.263679 
L 248.860865 29.196797 
L 249.264881 29.129915 
L 249.264881 29.063033 
L 251.170107 28.996151 
L 251.170107 28.929269 
L 252.356541 28.862387 
L 252.356541 28.795505 
L 253.326984 28.728623 
L 253.326984 28.661741 
L 254.938701 28.594859 
L 254.938701 28.527977 
L 255.4596 28.461094 
L 255.495082 28.32733 
L 256.557508 28.260448 
L 256.557508 28.193566 
L 258.884455 28.126684 
L 258.884455 28.059802 
L 261.214431 27.99292 
L 261.214431 27.926038 
L 264.319913 27.859156 
L 264.319913 27.792274 
L 265.564806 27.725392 
L 265.594552 27.591628 
L 267.680465 27.524746 
L 267.680465 27.457864 
L 270.711172 27.390982 
L 270.711172 27.3241 
L 271.339479 27.257218 
L 271.339479 27.190336 
L 277.546168 27.123454 
L 277.546168 27.056572 
L 279.790325 26.98969 
L 279.790325 26.922808 
L 281.80449 26.855926 
L 281.80449 26.789044 
L 282.023758 26.789044 
L 282.023758 26.789044 
" clip-path="url(#p726895965c)" style="fill: none; stroke: #1f77b4; stroke-width: 1.5; stroke-linecap: round"/>
   </g>
   <g id="patch_3">
    <path d="M 35.655938 265.022801 
L 35.655938 19.642031 
" style="fill: none"/>
   </g>
   <g id="patch_4">
    <path d="M 289.19952 265.022801 
L 289.19952 19.642031 
" style="fill: none"/>
   </g>
   <g id="patch_5">
    <path d="M 35.655938 265.022801 
L 289.19952 265.022801 
" style="fill: none"/>
   </g>
   <g id="patch_6">
    <path d="M 35.655938 19.642031 
L 289.19952 19.642031 
" style="fill: none"/>
   </g>
   <g id="text_15">
    <!-- Model 1: Precision-Recall Curve -->
    <g style="fill: #333333" transform="translate(93.910307 13.642031) scale(0.09 -0.09)">
     <defs>
      <path id="Arial-BoldMT-4d" d="M 453 0 
L 453 4581 
L 1838 4581 
L 2669 1456 
L 3491 4581 
L 4878 4581 
L 4878 0 
L 4019 0 
L 4019 3606 
L 3109 0 
L 2219 0 
L 1313 3606 
L 1313 0 
L 453 0 
z
" transform="scale(0.015625)"/>
      <path id="Arial-BoldMT-64" d="M 3503 0 
L 2688 0 
L 2688 488 
Q 2484 203 2207 64 
Q 1931 -75 1650 -75 
Q 1078 -75 670 386 
Q 263 847 263 1672 
Q 263 2516 659 2955 
Q 1056 3394 1663 3394 
Q 2219 3394 2625 2931 
L 2625 4581 
L 3503 4581 
L 3503 0 
z
M 1159 1731 
Q 1159 1200 1306 963 
Q 1519 619 1900 619 
Q 2203 619 2415 876 
Q 2628 1134 2628 1647 
Q 2628 2219 2422 2470 
Q 2216 2722 1894 2722 
Q 1581 2722 1370 2473 
Q 1159 2225 1159 1731 
z
" transform="scale(0.015625)"/>
      <path id="Arial-BoldMT-31" d="M 2519 0 
L 1641 0 
L 1641 3309 
Q 1159 2859 506 2644 
L 506 3441 
Q 850 3553 1253 3867 
Q 1656 4181 1806 4600 
L 2519 4600 
L 2519 0 
z
" transform="scale(0.015625)"/>
      <path id="Arial-BoldMT-3a" d="M 628 2441 
L 628 3319 
L 1506 3319 
L 1506 2441 
L 628 2441 
z
M 628 0 
L 628 878 
L 1506 878 
L 1506 0 
L 628 0 
z
" transform="scale(0.015625)"/>
      <path id="Arial-BoldMT-2d" d="M 359 1222 
L 359 2100 
L 2084 2100 
L 2084 1222 
L 359 1222 
z
" transform="scale(0.015625)"/>
      <path id="Arial-BoldMT-43" d="M 3397 1684 
L 4294 1400 
Q 4088 650 3608 286 
Q 3128 -78 2391 -78 
Q 1478 -78 890 545 
Q 303 1169 303 2250 
Q 303 3394 893 4026 
Q 1484 4659 2447 4659 
Q 3288 4659 3813 4163 
Q 4125 3869 4281 3319 
L 3366 3100 
Q 3284 3456 3026 3662 
Q 2769 3869 2400 3869 
Q 1891 3869 1573 3503 
Q 1256 3138 1256 2319 
Q 1256 1450 1568 1081 
Q 1881 713 2381 713 
Q 2750 713 3015 947 
Q 3281 1181 3397 1684 
z
" transform="scale(0.015625)"/>
      <path id="Arial-BoldMT-75" d="M 2644 0 
L 2644 497 
Q 2463 231 2167 78 
Q 1872 -75 1544 -75 
Q 1209 -75 943 72 
Q 678 219 559 484 
Q 441 750 441 1219 
L 441 3319 
L 1319 3319 
L 1319 1794 
Q 1319 1094 1367 936 
Q 1416 778 1544 686 
Q 1672 594 1869 594 
Q 2094 594 2272 717 
Q 2450 841 2515 1023 
Q 2581 1206 2581 1919 
L 2581 3319 
L 3459 3319 
L 3459 0 
L 2644 0 
z
" transform="scale(0.015625)"/>
      <path id="Arial-BoldMT-76" d="M 1372 0 
L 34 3319 
L 956 3319 
L 1581 1625 
L 1763 1059 
Q 1834 1275 1853 1344 
Q 1897 1484 1947 1625 
L 2578 3319 
L 3481 3319 
L 2163 0 
L 1372 0 
z
" transform="scale(0.015625)"/>
     </defs>
     <use xlink:href="#Arial-BoldMT-4d"/>
     <use xlink:href="#Arial-BoldMT-6f" transform="translate(83.300781 0)"/>
     <use xlink:href="#Arial-BoldMT-64" transform="translate(144.384766 0)"/>
     <use xlink:href="#Arial-BoldMT-65" transform="translate(205.46875 0)"/>
     <use xlink:href="#Arial-BoldMT-6c" transform="translate(261.083984 0)"/>
     <use xlink:href="#Arial-BoldMT-20" transform="translate(288.867188 0)"/>
     <use xlink:href="#Arial-BoldMT-31" transform="translate(316.650391 0)"/>
     <use xlink:href="#Arial-BoldMT-3a" transform="translate(372.265625 0)"/>
     <use xlink:href="#Arial-BoldMT-20" transform="translate(405.566406 0)"/>
     <use xlink:href="#Arial-BoldMT-50" transform="translate(433.349609 0)"/>
     <use xlink:href="#Arial-BoldMT-72" transform="translate(500.048828 0)"/>
     <use xlink:href="#Arial-BoldMT-65" transform="translate(538.964844 0)"/>
     <use xlink:href="#Arial-BoldMT-63" transform="translate(594.580078 0)"/>
     <use xlink:href="#Arial-BoldMT-69" transform="translate(650.195312 0)"/>
     <use xlink:href="#Arial-BoldMT-73" transform="translate(677.978516 0)"/>
     <use xlink:href="#Arial-BoldMT-69" transform="translate(733.59375 0)"/>
     <use xlink:href="#Arial-BoldMT-6f" transform="translate(761.376953 0)"/>
     <use xlink:href="#Arial-BoldMT-6e" transform="translate(822.460938 0)"/>
     <use xlink:href="#Arial-BoldMT-2d" transform="translate(883.544922 0)"/>
     <use xlink:href="#Arial-BoldMT-52" transform="translate(916.845703 0)"/>
     <use xlink:href="#Arial-BoldMT-65" transform="translate(989.0625 0)"/>
     <use xlink:href="#Arial-BoldMT-63" transform="translate(1044.677734 0)"/>
     <use xlink:href="#Arial-BoldMT-61" transform="translate(1100.292969 0)"/>
     <use xlink:href="#Arial-BoldMT-6c" transform="translate(1155.908203 0)"/>
     <use xlink:href="#Arial-BoldMT-6c" transform="translate(1183.691406 0)"/>
     <use xlink:href="#Arial-BoldMT-20" transform="translate(1211.474609 0)"/>
     <use xlink:href="#Arial-BoldMT-43" transform="translate(1239.257812 0)"/>
     <use xlink:href="#Arial-BoldMT-75" transform="translate(1311.474609 0)"/>
     <use xlink:href="#Arial-BoldMT-72" transform="translate(1372.558594 0)"/>
     <use xlink:href="#Arial-BoldMT-76" transform="translate(1411.474609 0)"/>
     <use xlink:href="#Arial-BoldMT-65" transform="translate(1467.089844 0)"/>
    </g>
   </g>
   <g id="legend_1">
    <g id="patch_7">
     <path d="M 164.573426 260.522801 
L 282.89952 260.522801 
Q 284.69952 260.522801 284.69952 258.722801 
L 284.69952 246.89202 
Q 284.69952 245.09202 282.89952 245.09202 
L 164.573426 245.09202 
Q 162.773426 245.09202 162.773426 246.89202 
L 162.773426 258.722801 
Q 162.773426 260.522801 164.573426 260.522801 
z
" style="fill: #ffffff; opacity: 0.8; stroke: #cccccc; stroke-width: 0.75; stroke-linejoin: miter"/>
    </g>
    <g id="line2d_26">
     <path d="M 166.373426 251.984051 
L 175.373426 251.984051 
L 184.373426 251.984051 
" style="fill: none; stroke: #1f77b4; stroke-width: 1.5; stroke-linecap: round"/>
    </g>
    <g id="text_16">
     <!-- Precision-Recall curve -->
     <g style="fill: #333333" transform="translate(191.573426 255.134051) scale(0.09 -0.09)">
      <defs>
       <path id="ArialMT-50" d="M 494 0 
L 494 4581 
L 2222 4581 
Q 2678 4581 2919 4538 
Q 3256 4481 3484 4323 
Q 3713 4166 3852 3881 
Q 3991 3597 3991 3256 
Q 3991 2672 3619 2267 
Q 3247 1863 2275 1863 
L 1100 1863 
L 1100 0 
L 494 0 
z
M 1100 2403 
L 2284 2403 
Q 2872 2403 3119 2622 
Q 3366 2841 3366 3238 
Q 3366 3525 3220 3729 
Q 3075 3934 2838 4000 
Q 2684 4041 2272 4041 
L 1100 4041 
L 1100 2403 
z
" transform="scale(0.015625)"/>
       <path id="ArialMT-72" d="M 416 0 
L 416 3319 
L 922 3319 
L 922 2816 
Q 1116 3169 1280 3281 
Q 1444 3394 1641 3394 
Q 1925 3394 2219 3213 
L 2025 2691 
Q 1819 2813 1613 2813 
Q 1428 2813 1281 2702 
Q 1134 2591 1072 2394 
Q 978 2094 978 1738 
L 978 0 
L 416 0 
z
" transform="scale(0.015625)"/>
       <path id="ArialMT-65" d="M 2694 1069 
L 3275 997 
Q 3138 488 2766 206 
Q 2394 -75 1816 -75 
Q 1088 -75 661 373 
Q 234 822 234 1631 
Q 234 2469 665 2931 
Q 1097 3394 1784 3394 
Q 2450 3394 2872 2941 
Q 3294 2488 3294 1666 
Q 3294 1616 3291 1516 
L 816 1516 
Q 847 969 1125 678 
Q 1403 388 1819 388 
Q 2128 388 2347 550 
Q 2566 713 2694 1069 
z
M 847 1978 
L 2700 1978 
Q 2663 2397 2488 2606 
Q 2219 2931 1791 2931 
Q 1403 2931 1139 2672 
Q 875 2413 847 1978 
z
" transform="scale(0.015625)"/>
       <path id="ArialMT-63" d="M 2588 1216 
L 3141 1144 
Q 3050 572 2676 248 
Q 2303 -75 1759 -75 
Q 1078 -75 664 370 
Q 250 816 250 1647 
Q 250 2184 428 2587 
Q 606 2991 970 3192 
Q 1334 3394 1763 3394 
Q 2303 3394 2647 3120 
Q 2991 2847 3088 2344 
L 2541 2259 
Q 2463 2594 2264 2762 
Q 2066 2931 1784 2931 
Q 1359 2931 1093 2626 
Q 828 2322 828 1663 
Q 828 994 1084 691 
Q 1341 388 1753 388 
Q 2084 388 2306 591 
Q 2528 794 2588 1216 
z
" transform="scale(0.015625)"/>
       <path id="ArialMT-69" d="M 425 3934 
L 425 4581 
L 988 4581 
L 988 3934 
L 425 3934 
z
M 425 0 
L 425 3319 
L 988 3319 
L 988 0 
L 425 0 
z
" transform="scale(0.015625)"/>
       <path id="ArialMT-73" d="M 197 991 
L 753 1078 
Q 800 744 1014 566 
Q 1228 388 1613 388 
Q 2000 388 2187 545 
Q 2375 703 2375 916 
Q 2375 1106 2209 1216 
Q 2094 1291 1634 1406 
Q 1016 1563 777 1677 
Q 538 1791 414 1992 
Q 291 2194 291 2438 
Q 291 2659 392 2848 
Q 494 3038 669 3163 
Q 800 3259 1026 3326 
Q 1253 3394 1513 3394 
Q 1903 3394 2198 3281 
Q 2494 3169 2634 2976 
Q 2775 2784 2828 2463 
L 2278 2388 
Q 2241 2644 2061 2787 
Q 1881 2931 1553 2931 
Q 1166 2931 1000 2803 
Q 834 2675 834 2503 
Q 834 2394 903 2306 
Q 972 2216 1119 2156 
Q 1203 2125 1616 2013 
Q 2213 1853 2448 1751 
Q 2684 1650 2818 1456 
Q 2953 1263 2953 975 
Q 2953 694 2789 445 
Q 2625 197 2315 61 
Q 2006 -75 1616 -75 
Q 969 -75 630 194 
Q 291 463 197 991 
z
" transform="scale(0.015625)"/>
       <path id="ArialMT-6f" d="M 213 1659 
Q 213 2581 725 3025 
Q 1153 3394 1769 3394 
Q 2453 3394 2887 2945 
Q 3322 2497 3322 1706 
Q 3322 1066 3130 698 
Q 2938 331 2570 128 
Q 2203 -75 1769 -75 
Q 1072 -75 642 372 
Q 213 819 213 1659 
z
M 791 1659 
Q 791 1022 1069 705 
Q 1347 388 1769 388 
Q 2188 388 2466 706 
Q 2744 1025 2744 1678 
Q 2744 2294 2464 2611 
Q 2184 2928 1769 2928 
Q 1347 2928 1069 2612 
Q 791 2297 791 1659 
z
" transform="scale(0.015625)"/>
       <path id="ArialMT-6e" d="M 422 0 
L 422 3319 
L 928 3319 
L 928 2847 
Q 1294 3394 1984 3394 
Q 2284 3394 2536 3286 
Q 2788 3178 2913 3003 
Q 3038 2828 3088 2588 
Q 3119 2431 3119 2041 
L 3119 0 
L 2556 0 
L 2556 2019 
Q 2556 2363 2490 2533 
Q 2425 2703 2258 2804 
Q 2091 2906 1866 2906 
Q 1506 2906 1245 2678 
Q 984 2450 984 1813 
L 984 0 
L 422 0 
z
" transform="scale(0.015625)"/>
       <path id="ArialMT-2d" d="M 203 1375 
L 203 1941 
L 1931 1941 
L 1931 1375 
L 203 1375 
z
" transform="scale(0.015625)"/>
       <path id="ArialMT-52" d="M 503 0 
L 503 4581 
L 2534 4581 
Q 3147 4581 3465 4457 
Q 3784 4334 3975 4021 
Q 4166 3709 4166 3331 
Q 4166 2844 3850 2509 
Q 3534 2175 2875 2084 
Q 3116 1969 3241 1856 
Q 3506 1613 3744 1247 
L 4541 0 
L 3778 0 
L 3172 953 
Q 2906 1366 2734 1584 
Q 2563 1803 2427 1890 
Q 2291 1978 2150 2013 
Q 2047 2034 1813 2034 
L 1109 2034 
L 1109 0 
L 503 0 
z
M 1109 2559 
L 2413 2559 
Q 2828 2559 3062 2645 
Q 3297 2731 3419 2920 
Q 3541 3109 3541 3331 
Q 3541 3656 3305 3865 
Q 3069 4075 2559 4075 
L 1109 4075 
L 1109 2559 
z
" transform="scale(0.015625)"/>
       <path id="ArialMT-61" d="M 2588 409 
Q 2275 144 1986 34 
Q 1697 -75 1366 -75 
Q 819 -75 525 192 
Q 231 459 231 875 
Q 231 1119 342 1320 
Q 453 1522 633 1644 
Q 813 1766 1038 1828 
Q 1203 1872 1538 1913 
Q 2219 1994 2541 2106 
Q 2544 2222 2544 2253 
Q 2544 2597 2384 2738 
Q 2169 2928 1744 2928 
Q 1347 2928 1158 2789 
Q 969 2650 878 2297 
L 328 2372 
Q 403 2725 575 2942 
Q 747 3159 1072 3276 
Q 1397 3394 1825 3394 
Q 2250 3394 2515 3294 
Q 2781 3194 2906 3042 
Q 3031 2891 3081 2659 
Q 3109 2516 3109 2141 
L 3109 1391 
Q 3109 606 3145 398 
Q 3181 191 3288 0 
L 2700 0 
Q 2613 175 2588 409 
z
M 2541 1666 
Q 2234 1541 1622 1453 
Q 1275 1403 1131 1340 
Q 988 1278 909 1158 
Q 831 1038 831 891 
Q 831 666 1001 516 
Q 1172 366 1500 366 
Q 1825 366 2078 508 
Q 2331 650 2450 897 
Q 2541 1088 2541 1459 
L 2541 1666 
z
" transform="scale(0.015625)"/>
       <path id="ArialMT-6c" d="M 409 0 
L 409 4581 
L 972 4581 
L 972 0 
L 409 0 
z
" transform="scale(0.015625)"/>
       <path id="ArialMT-20" transform="scale(0.015625)"/>
       <path id="ArialMT-75" d="M 2597 0 
L 2597 488 
Q 2209 -75 1544 -75 
Q 1250 -75 995 37 
Q 741 150 617 320 
Q 494 491 444 738 
Q 409 903 409 1263 
L 409 3319 
L 972 3319 
L 972 1478 
Q 972 1038 1006 884 
Q 1059 663 1231 536 
Q 1403 409 1656 409 
Q 1909 409 2131 539 
Q 2353 669 2445 892 
Q 2538 1116 2538 1541 
L 2538 3319 
L 3100 3319 
L 3100 0 
L 2597 0 
z
" transform="scale(0.015625)"/>
       <path id="ArialMT-76" d="M 1344 0 
L 81 3319 
L 675 3319 
L 1388 1331 
Q 1503 1009 1600 663 
Q 1675 925 1809 1294 
L 2547 3319 
L 3125 3319 
L 1869 0 
L 1344 0 
z
" transform="scale(0.015625)"/>
      </defs>
      <use xlink:href="#ArialMT-50"/>
      <use xlink:href="#ArialMT-72" transform="translate(66.699219 0)"/>
      <use xlink:href="#ArialMT-65" transform="translate(100 0)"/>
      <use xlink:href="#ArialMT-63" transform="translate(155.615234 0)"/>
      <use xlink:href="#ArialMT-69" transform="translate(205.615234 0)"/>
      <use xlink:href="#ArialMT-73" transform="translate(227.832031 0)"/>
      <use xlink:href="#ArialMT-69" transform="translate(277.832031 0)"/>
      <use xlink:href="#ArialMT-6f" transform="translate(300.048828 0)"/>
      <use xlink:href="#ArialMT-6e" transform="translate(355.664062 0)"/>
      <use xlink:href="#ArialMT-2d" transform="translate(411.279297 0)"/>
      <use xlink:href="#ArialMT-52" transform="translate(444.580078 0)"/>
      <use xlink:href="#ArialMT-65" transform="translate(516.796875 0)"/>
      <use xlink:href="#ArialMT-63" transform="translate(572.412109 0)"/>
      <use xlink:href="#ArialMT-61" transform="translate(622.412109 0)"/>
      <use xlink:href="#ArialMT-6c" transform="translate(678.027344 0)"/>
      <use xlink:href="#ArialMT-6c" transform="translate(700.244141 0)"/>
      <use xlink:href="#ArialMT-20" transform="translate(722.460938 0)"/>
      <use xlink:href="#ArialMT-63" transform="translate(750.244141 0)"/>
      <use xlink:href="#ArialMT-75" transform="translate(800.244141 0)"/>
      <use xlink:href="#ArialMT-72" transform="translate(855.859375 0)"/>
      <use xlink:href="#ArialMT-76" transform="translate(889.160156 0)"/>
      <use xlink:href="#ArialMT-65" transform="translate(939.160156 0)"/>
     </g>
    </g>
   </g>
  </g>
 </g>
 <defs>
  <clipPath id="p726895965c">
   <rect x="35.655938" y="19.642031" width="253.543583" height="245.38077"/>
  </clipPath>
 </defs>
</svg>
