<?xml version="1.0" encoding="utf-8" standalone="no"?>
<!DOCTYPE svg PUBLIC "-//W3C//DTD SVG 1.1//EN"
  "http://www.w3.org/Graphics/SVG/1.1/DTD/svg11.dtd">
<svg xmlns:xlink="http://www.w3.org/1999/xlink" width="296.39952pt" height="296.39952pt" viewBox="0 0 296.39952 296.39952" xmlns="http://www.w3.org/2000/svg" version="1.1">
 <metadata>
  <rdf:RDF xmlns:dc="http://purl.org/dc/elements/1.1/" xmlns:cc="http://creativecommons.org/ns#" xmlns:rdf="http://www.w3.org/1999/02/22-rdf-syntax-ns#">
   <cc:Work>
    <dc:type rdf:resource="http://purl.org/dc/dcmitype/StillImage"/>
    <dc:date>2026-01-08T23:34:02.627375</dc:date>
    <dc:format>image/svg+xml</dc:format>
    <dc:creator>
     <cc:Agent>
      <dc:title>Matplotlib v3.10.8, https://matplotlib.org/</dc:title>
     </cc:Agent>
    </dc:creator>
   </cc:Work>
  </rdf:RDF>
 </metadata>
 <defs>
  <style type="text/css">*{stroke-linejoin: round; stroke-linecap: butt}</style>
 </defs>
 <g id="figure_1">
  <g id="patch_1">
   <path d="M 0 296.39952 
L 296.39952 296.39952 
L 296.39952 0 
L 0 0 
z
" style="fill: #ffffff"/>
  </g>
  <g id="axes_1">
   <g id="patch_2">
    <path d="M 35.655938 265.022801 
L 289.19952 265.022801 
L 289.19952 19.751719 
L 35.655938 19.751719 
z
" style="fill: #ffffff"/>
   </g>
   <g id="matplotlib.axis_1">
    <g id="xtick_1">
     <g id="line2d_1">
      <path d="M 42.831699 265.022801 
L 42.831699 19.751719 
" clip-path="url(#p7d30a09afe)" style="fill: none; stroke: #c0c0c0; stroke-width: 0.25; stroke-linecap: round"/>
     </g>
     <g id="line2d_2"/>
     <g id="text_1">
      <!-- 0.0 -->
      <g style="fill: #333333" transform="translate(36.576699 274.964832) scale(0.09 -0.09)">
       <defs>
        <path id="ArialMT-30" d="M 266 2259 
Q 266 3072 433 3567 
Q 600 4063 929 4331 
Q 1259 4600 1759 4600 
Q 2128 4600 2406 4451 
Q 2684 4303 2865 4023 
Q 3047 3744 3150 3342 
Q 3253 2941 3253 2259 
Q 3253 1453 3087 958 
Q 2922 463 2592 192 
Q 2263 -78 1759 -78 
Q 1097 -78 719 397 
Q 266 969 266 2259 
z
M 844 2259 
Q 844 1131 1108 757 
Q 1372 384 1759 384 
Q 2147 384 2411 759 
Q 2675 1134 2675 2259 
Q 2675 3391 2411 3762 
Q 2147 4134 1753 4134 
Q 1366 4134 1134 3806 
Q 844 3388 844 2259 
z
" transform="scale(0.015625)"/>
        <path id="ArialMT-2e" d="M 581 0 
L 581 641 
L 1222 641 
L 1222 0 
L 581 0 
z
" transform="scale(0.015625)"/>
       </defs>
       <use xlink:href="#ArialMT-30"/>
       <use xlink:href="#ArialMT-2e" transform="translate(55.615234 0)"/>
       <use xlink:href="#ArialMT-30" transform="translate(83.398438 0)"/>
      </g>
     </g>
    </g>
    <g id="xtick_2">
     <g id="line2d_3">
      <path d="M 90.670111 265.022801 
L 90.670111 19.751719 
" clip-path="url(#p7d30a09afe)" style="fill: none; stroke: #c0c0c0; stroke-width: 0.25; stroke-linecap: round"/>
     </g>
     <g id="line2d_4"/>
     <g id="text_2">
      <!-- 0.2 -->
      <g style="fill: #333333" transform="translate(84.415111 274.964832) scale(0.09 -0.09)">
       <defs>
        <path id="ArialMT-32" d="M 3222 541 
L 3222 0 
L 194 0 
Q 188 203 259 391 
Q 375 700 629 1000 
Q 884 1300 1366 1694 
Q 2113 2306 2375 2664 
Q 2638 3022 2638 3341 
Q 2638 3675 2398 3904 
Q 2159 4134 1775 4134 
Q 1369 4134 1125 3890 
Q 881 3647 878 3216 
L 300 3275 
Q 359 3922 746 4261 
Q 1134 4600 1788 4600 
Q 2447 4600 2831 4234 
Q 3216 3869 3216 3328 
Q 3216 3053 3103 2787 
Q 2991 2522 2730 2228 
Q 2469 1934 1863 1422 
Q 1356 997 1212 845 
Q 1069 694 975 541 
L 3222 541 
z
" transform="scale(0.015625)"/>
       </defs>
       <use xlink:href="#ArialMT-30"/>
       <use xlink:href="#ArialMT-2e" transform="translate(55.615234 0)"/>
       <use xlink:href="#ArialMT-32" transform="translate(83.398438 0)"/>
      </g>
     </g>
    </g>
    <g id="xtick_3">
     <g id="line2d_5">
      <path d="M 138.508523 265.022801 
L 138.508523 19.751719 
" clip-path="url(#p7d30a09afe)" style="fill: none; stroke: #c0c0c0; stroke-width: 0.25; stroke-linecap: round"/>
     </g>
     <g id="line2d_6"/>
     <g id="text_3">
      <!-- 0.4 -->
      <g style="fill: #333333" transform="translate(132.253523 274.964832) scale(0.09 -0.09)">
       <defs>
        <path id="ArialMT-34" d="M 2069 0 
L 2069 1097 
L 81 1097 
L 81 1613 
L 2172 4581 
L 2631 4581 
L 2631 1613 
L 3250 1613 
L 3250 1097 
L 2631 1097 
L 2631 0 
L 2069 0 
z
M 2069 1613 
L 2069 3678 
L 634 1613 
L 2069 1613 
z
" transform="scale(0.015625)"/>
       </defs>
       <use xlink:href="#ArialMT-30"/>
       <use xlink:href="#ArialMT-2e" transform="translate(55.615234 0)"/>
       <use xlink:href="#ArialMT-34" transform="translate(83.398438 0)"/>
      </g>
     </g>
    </g>
    <g id="xtick_4">
     <g id="line2d_7">
      <path d="M 186.346935 265.022801 
L 186.346935 19.751719 
" clip-path="url(#p7d30a09afe)" style="fill: none; stroke: #c0c0c0; stroke-width: 0.25; stroke-linecap: round"/>
     </g>
     <g id="line2d_8"/>
     <g id="text_4">
      <!-- 0.6 -->
      <g style="fill: #333333" transform="translate(180.091935 274.964832) scale(0.09 -0.09)">
       <defs>
        <path id="ArialMT-36" d="M 3184 3459 
L 2625 3416 
Q 2550 3747 2413 3897 
Q 2184 4138 1850 4138 
Q 1581 4138 1378 3988 
Q 1113 3794 959 3422 
Q 806 3050 800 2363 
Q 1003 2672 1297 2822 
Q 1591 2972 1913 2972 
Q 2475 2972 2870 2558 
Q 3266 2144 3266 1488 
Q 3266 1056 3080 686 
Q 2894 316 2569 119 
Q 2244 -78 1831 -78 
Q 1128 -78 684 439 
Q 241 956 241 2144 
Q 241 3472 731 4075 
Q 1159 4600 1884 4600 
Q 2425 4600 2770 4297 
Q 3116 3994 3184 3459 
z
M 888 1484 
Q 888 1194 1011 928 
Q 1134 663 1356 523 
Q 1578 384 1822 384 
Q 2178 384 2434 671 
Q 2691 959 2691 1453 
Q 2691 1928 2437 2201 
Q 2184 2475 1800 2475 
Q 1419 2475 1153 2201 
Q 888 1928 888 1484 
z
" transform="scale(0.015625)"/>
       </defs>
       <use xlink:href="#ArialMT-30"/>
       <use xlink:href="#ArialMT-2e" transform="translate(55.615234 0)"/>
       <use xlink:href="#ArialMT-36" transform="translate(83.398438 0)"/>
      </g>
     </g>
    </g>
    <g id="xtick_5">
     <g id="line2d_9">
      <path d="M 234.185346 265.022801 
L 234.185346 19.751719 
" clip-path="url(#p7d30a09afe)" style="fill: none; stroke: #c0c0c0; stroke-width: 0.25; stroke-linecap: round"/>
     </g>
     <g id="line2d_10"/>
     <g id="text_5">
      <!-- 0.8 -->
      <g style="fill: #333333" transform="translate(227.930346 274.964832) scale(0.09 -0.09)">
       <defs>
        <path id="ArialMT-38" d="M 1131 2484 
Q 781 2613 612 2850 
Q 444 3088 444 3419 
Q 444 3919 803 4259 
Q 1163 4600 1759 4600 
Q 2359 4600 2725 4251 
Q 3091 3903 3091 3403 
Q 3091 3084 2923 2848 
Q 2756 2613 2416 2484 
Q 2838 2347 3058 2040 
Q 3278 1734 3278 1309 
Q 3278 722 2862 322 
Q 2447 -78 1769 -78 
Q 1091 -78 675 323 
Q 259 725 259 1325 
Q 259 1772 486 2073 
Q 713 2375 1131 2484 
z
M 1019 3438 
Q 1019 3113 1228 2906 
Q 1438 2700 1772 2700 
Q 2097 2700 2305 2904 
Q 2513 3109 2513 3406 
Q 2513 3716 2298 3927 
Q 2084 4138 1766 4138 
Q 1444 4138 1231 3931 
Q 1019 3725 1019 3438 
z
M 838 1322 
Q 838 1081 952 856 
Q 1066 631 1291 507 
Q 1516 384 1775 384 
Q 2178 384 2440 643 
Q 2703 903 2703 1303 
Q 2703 1709 2433 1975 
Q 2163 2241 1756 2241 
Q 1359 2241 1098 1978 
Q 838 1716 838 1322 
z
" transform="scale(0.015625)"/>
       </defs>
       <use xlink:href="#ArialMT-30"/>
       <use xlink:href="#ArialMT-2e" transform="translate(55.615234 0)"/>
       <use xlink:href="#ArialMT-38" transform="translate(83.398438 0)"/>
      </g>
     </g>
    </g>
    <g id="xtick_6">
     <g id="line2d_11">
      <path d="M 282.023758 265.022801 
L 282.023758 19.751719 
" clip-path="url(#p7d30a09afe)" style="fill: none; stroke: #c0c0c0; stroke-width: 0.25; stroke-linecap: round"/>
     </g>
     <g id="line2d_12"/>
     <g id="text_6">
      <!-- 1.0 -->
      <g style="fill: #333333" transform="translate(275.768758 274.964832) scale(0.09 -0.09)">
       <defs>
        <path id="ArialMT-31" d="M 2384 0 
L 1822 0 
L 1822 3584 
Q 1619 3391 1289 3197 
Q 959 3003 697 2906 
L 697 3450 
Q 1169 3672 1522 3987 
Q 1875 4303 2022 4600 
L 2384 4600 
L 2384 0 
z
" transform="scale(0.015625)"/>
       </defs>
       <use xlink:href="#ArialMT-31"/>
       <use xlink:href="#ArialMT-2e" transform="translate(55.615234 0)"/>
       <use xlink:href="#ArialMT-30" transform="translate(83.398438 0)"/>
      </g>
     </g>
    </g>
    <g id="text_7">
     <!-- False Positive Rate (FPR) -->
     <g style="fill: #333333" transform="translate(108.165463 287.305301) scale(0.09 -0.09)">
      <defs>
       <path id="Arial-BoldMT-46" d="M 472 0 
L 472 4581 
L 3613 4581 
L 3613 3806 
L 1397 3806 
L 1397 2722 
L 3309 2722 
L 3309 1947 
L 1397 1947 
L 1397 0 
L 472 0 
z
" transform="scale(0.015625)"/>
       <path id="Arial-BoldMT-61" d="M 1116 2306 
L 319 2450 
Q 453 2931 781 3162 
Q 1109 3394 1756 3394 
Q 2344 3394 2631 3255 
Q 2919 3116 3036 2902 
Q 3153 2688 3153 2116 
L 3144 1091 
Q 3144 653 3186 445 
Q 3228 238 3344 0 
L 2475 0 
Q 2441 88 2391 259 
Q 2369 338 2359 363 
Q 2134 144 1878 34 
Q 1622 -75 1331 -75 
Q 819 -75 523 203 
Q 228 481 228 906 
Q 228 1188 362 1408 
Q 497 1628 739 1745 
Q 981 1863 1438 1950 
Q 2053 2066 2291 2166 
L 2291 2253 
Q 2291 2506 2166 2614 
Q 2041 2722 1694 2722 
Q 1459 2722 1328 2630 
Q 1197 2538 1116 2306 
z
M 2291 1594 
Q 2122 1538 1756 1459 
Q 1391 1381 1278 1306 
Q 1106 1184 1106 997 
Q 1106 813 1243 678 
Q 1381 544 1594 544 
Q 1831 544 2047 700 
Q 2206 819 2256 991 
Q 2291 1103 2291 1419 
L 2291 1594 
z
" transform="scale(0.015625)"/>
       <path id="Arial-BoldMT-6c" d="M 459 0 
L 459 4581 
L 1338 4581 
L 1338 0 
L 459 0 
z
" transform="scale(0.015625)"/>
       <path id="Arial-BoldMT-73" d="M 150 947 
L 1031 1081 
Q 1088 825 1259 692 
Q 1431 559 1741 559 
Q 2081 559 2253 684 
Q 2369 772 2369 919 
Q 2369 1019 2306 1084 
Q 2241 1147 2013 1200 
Q 950 1434 666 1628 
Q 272 1897 272 2375 
Q 272 2806 612 3100 
Q 953 3394 1669 3394 
Q 2350 3394 2681 3172 
Q 3013 2950 3138 2516 
L 2309 2363 
Q 2256 2556 2107 2659 
Q 1959 2763 1684 2763 
Q 1338 2763 1188 2666 
Q 1088 2597 1088 2488 
Q 1088 2394 1175 2328 
Q 1294 2241 1995 2081 
Q 2697 1922 2975 1691 
Q 3250 1456 3250 1038 
Q 3250 581 2869 253 
Q 2488 -75 1741 -75 
Q 1063 -75 667 200 
Q 272 475 150 947 
z
" transform="scale(0.015625)"/>
       <path id="Arial-BoldMT-65" d="M 2381 1056 
L 3256 909 
Q 3088 428 2723 176 
Q 2359 -75 1813 -75 
Q 947 -75 531 491 
Q 203 944 203 1634 
Q 203 2459 634 2926 
Q 1066 3394 1725 3394 
Q 2466 3394 2894 2905 
Q 3322 2416 3303 1406 
L 1103 1406 
Q 1113 1016 1316 798 
Q 1519 581 1822 581 
Q 2028 581 2168 693 
Q 2309 806 2381 1056 
z
M 2431 1944 
Q 2422 2325 2234 2523 
Q 2047 2722 1778 2722 
Q 1491 2722 1303 2513 
Q 1116 2303 1119 1944 
L 2431 1944 
z
" transform="scale(0.015625)"/>
       <path id="Arial-BoldMT-20" transform="scale(0.015625)"/>
       <path id="Arial-BoldMT-50" d="M 466 0 
L 466 4581 
L 1950 4581 
Q 2794 4581 3050 4513 
Q 3444 4409 3709 4064 
Q 3975 3719 3975 3172 
Q 3975 2750 3822 2462 
Q 3669 2175 3433 2011 
Q 3197 1847 2953 1794 
Q 2622 1728 1994 1728 
L 1391 1728 
L 1391 0 
L 466 0 
z
M 1391 3806 
L 1391 2506 
L 1897 2506 
Q 2444 2506 2628 2578 
Q 2813 2650 2917 2803 
Q 3022 2956 3022 3159 
Q 3022 3409 2875 3571 
Q 2728 3734 2503 3775 
Q 2338 3806 1838 3806 
L 1391 3806 
z
" transform="scale(0.015625)"/>
       <path id="Arial-BoldMT-6f" d="M 256 1706 
Q 256 2144 472 2553 
Q 688 2963 1083 3178 
Q 1478 3394 1966 3394 
Q 2719 3394 3200 2905 
Q 3681 2416 3681 1669 
Q 3681 916 3195 420 
Q 2709 -75 1972 -75 
Q 1516 -75 1102 131 
Q 688 338 472 736 
Q 256 1134 256 1706 
z
M 1156 1659 
Q 1156 1166 1390 903 
Q 1625 641 1969 641 
Q 2313 641 2545 903 
Q 2778 1166 2778 1666 
Q 2778 2153 2545 2415 
Q 2313 2678 1969 2678 
Q 1625 2678 1390 2415 
Q 1156 2153 1156 1659 
z
" transform="scale(0.015625)"/>
       <path id="Arial-BoldMT-69" d="M 459 3769 
L 459 4581 
L 1338 4581 
L 1338 3769 
L 459 3769 
z
M 459 0 
L 459 3319 
L 1338 3319 
L 1338 0 
L 459 0 
z
" transform="scale(0.015625)"/>
       <path id="Arial-BoldMT-74" d="M 1981 3319 
L 1981 2619 
L 1381 2619 
L 1381 1281 
Q 1381 875 1398 808 
Q 1416 741 1477 697 
Q 1538 653 1625 653 
Q 1747 653 1978 738 
L 2053 56 
Q 1747 -75 1359 -75 
Q 1122 -75 931 4 
Q 741 84 652 211 
Q 563 338 528 553 
Q 500 706 500 1172 
L 500 2619 
L 97 2619 
L 97 3319 
L 500 3319 
L 500 3978 
L 1381 4491 
L 1381 3319 
L 1981 3319 
z
" transform="scale(0.015625)"/>
       <path id="Arial-BoldMT-76" d="M 1372 0 
L 34 3319 
L 956 3319 
L 1581 1625 
L 1763 1059 
Q 1834 1275 1853 1344 
Q 1897 1484 1947 1625 
L 2578 3319 
L 3481 3319 
L 2163 0 
L 1372 0 
z
" transform="scale(0.015625)"/>
       <path id="Arial-BoldMT-52" d="M 469 0 
L 469 4581 
L 2416 4581 
Q 3150 4581 3483 4457 
Q 3816 4334 4016 4018 
Q 4216 3703 4216 3297 
Q 4216 2781 3912 2445 
Q 3609 2109 3006 2022 
Q 3306 1847 3501 1637 
Q 3697 1428 4028 894 
L 4588 0 
L 3481 0 
L 2813 997 
Q 2456 1531 2325 1670 
Q 2194 1809 2047 1861 
Q 1900 1913 1581 1913 
L 1394 1913 
L 1394 0 
L 469 0 
z
M 1394 2644 
L 2078 2644 
Q 2744 2644 2909 2700 
Q 3075 2756 3169 2893 
Q 3263 3031 3263 3238 
Q 3263 3469 3139 3611 
Q 3016 3753 2791 3791 
Q 2678 3806 2116 3806 
L 1394 3806 
L 1394 2644 
z
" transform="scale(0.015625)"/>
       <path id="Arial-BoldMT-28" d="M 1916 -1347 
L 1313 -1347 
Q 834 -625 584 153 
Q 334 931 334 1659 
Q 334 2563 644 3369 
Q 913 4069 1325 4659 
L 1925 4659 
Q 1497 3713 1336 3048 
Q 1175 2384 1175 1641 
Q 1175 1128 1270 590 
Q 1366 53 1531 -431 
Q 1641 -750 1916 -1347 
z
" transform="scale(0.015625)"/>
       <path id="Arial-BoldMT-29" d="M 216 -1347 
Q 475 -791 581 -494 
Q 688 -197 778 190 
Q 869 578 912 926 
Q 956 1275 956 1641 
Q 956 2384 797 3048 
Q 638 3713 209 4659 
L 806 4659 
Q 1278 3988 1539 3234 
Q 1800 2481 1800 1706 
Q 1800 1053 1594 306 
Q 1359 -531 822 -1347 
L 216 -1347 
z
" transform="scale(0.015625)"/>
      </defs>
      <use xlink:href="#Arial-BoldMT-46"/>
      <use xlink:href="#Arial-BoldMT-61" transform="translate(61.083984 0)"/>
      <use xlink:href="#Arial-BoldMT-6c" transform="translate(116.699219 0)"/>
      <use xlink:href="#Arial-BoldMT-73" transform="translate(144.482422 0)"/>
      <use xlink:href="#Arial-BoldMT-65" transform="translate(200.097656 0)"/>
      <use xlink:href="#Arial-BoldMT-20" transform="translate(255.712891 0)"/>
      <use xlink:href="#Arial-BoldMT-50" transform="translate(283.496094 0)"/>
      <use xlink:href="#Arial-BoldMT-6f" transform="translate(350.195312 0)"/>
      <use xlink:href="#Arial-BoldMT-73" transform="translate(411.279297 0)"/>
      <use xlink:href="#Arial-BoldMT-69" transform="translate(466.894531 0)"/>
      <use xlink:href="#Arial-BoldMT-74" transform="translate(494.677734 0)"/>
      <use xlink:href="#Arial-BoldMT-69" transform="translate(527.978516 0)"/>
      <use xlink:href="#Arial-BoldMT-76" transform="translate(555.761719 0)"/>
      <use xlink:href="#Arial-BoldMT-65" transform="translate(611.376953 0)"/>
      <use xlink:href="#Arial-BoldMT-20" transform="translate(666.992188 0)"/>
      <use xlink:href="#Arial-BoldMT-52" transform="translate(694.775391 0)"/>
      <use xlink:href="#Arial-BoldMT-61" transform="translate(766.992188 0)"/>
      <use xlink:href="#Arial-BoldMT-74" transform="translate(822.607422 0)"/>
      <use xlink:href="#Arial-BoldMT-65" transform="translate(855.908203 0)"/>
      <use xlink:href="#Arial-BoldMT-20" transform="translate(911.523438 0)"/>
      <use xlink:href="#Arial-BoldMT-28" transform="translate(939.306641 0)"/>
      <use xlink:href="#Arial-BoldMT-46" transform="translate(972.607422 0)"/>
      <use xlink:href="#Arial-BoldMT-50" transform="translate(1033.691406 0)"/>
      <use xlink:href="#Arial-BoldMT-52" transform="translate(1100.390625 0)"/>
      <use xlink:href="#Arial-BoldMT-29" transform="translate(1172.607422 0)"/>
     </g>
    </g>
   </g>
   <g id="matplotlib.axis_2">
    <g id="ytick_1">
     <g id="line2d_13">
      <path d="M 35.655938 265.022801 
L 289.19952 265.022801 
" clip-path="url(#p7d30a09afe)" style="fill: none; stroke: #c0c0c0; stroke-width: 0.25; stroke-linecap: round"/>
     </g>
     <g id="line2d_14"/>
     <g id="text_8">
      <!-- 0.0 -->
      <g style="fill: #333333" transform="translate(19.645938 268.243817) scale(0.09 -0.09)">
       <use xlink:href="#ArialMT-30"/>
       <use xlink:href="#ArialMT-2e" transform="translate(55.615234 0)"/>
       <use xlink:href="#ArialMT-30" transform="translate(83.398438 0)"/>
      </g>
     </g>
    </g>
    <g id="ytick_2">
     <g id="line2d_15">
      <path d="M 35.655938 217.397348 
L 289.19952 217.397348 
" clip-path="url(#p7d30a09afe)" style="fill: none; stroke: #c0c0c0; stroke-width: 0.25; stroke-linecap: round"/>
     </g>
     <g id="line2d_16"/>
     <g id="text_9">
      <!-- 0.2 -->
      <g style="fill: #333333" transform="translate(19.645938 220.618364) scale(0.09 -0.09)">
       <use xlink:href="#ArialMT-30"/>
       <use xlink:href="#ArialMT-2e" transform="translate(55.615234 0)"/>
       <use xlink:href="#ArialMT-32" transform="translate(83.398438 0)"/>
      </g>
     </g>
    </g>
    <g id="ytick_3">
     <g id="line2d_17">
      <path d="M 35.655938 169.771895 
L 289.19952 169.771895 
" clip-path="url(#p7d30a09afe)" style="fill: none; stroke: #c0c0c0; stroke-width: 0.25; stroke-linecap: round"/>
     </g>
     <g id="line2d_18"/>
     <g id="text_10">
      <!-- 0.4 -->
      <g style="fill: #333333" transform="translate(19.645938 172.992911) scale(0.09 -0.09)">
       <use xlink:href="#ArialMT-30"/>
       <use xlink:href="#ArialMT-2e" transform="translate(55.615234 0)"/>
       <use xlink:href="#ArialMT-34" transform="translate(83.398438 0)"/>
      </g>
     </g>
    </g>
    <g id="ytick_4">
     <g id="line2d_19">
      <path d="M 35.655938 122.146443 
L 289.19952 122.146443 
" clip-path="url(#p7d30a09afe)" style="fill: none; stroke: #c0c0c0; stroke-width: 0.25; stroke-linecap: round"/>
     </g>
     <g id="line2d_20"/>
     <g id="text_11">
      <!-- 0.6 -->
      <g style="fill: #333333" transform="translate(19.645938 125.367458) scale(0.09 -0.09)">
       <use xlink:href="#ArialMT-30"/>
       <use xlink:href="#ArialMT-2e" transform="translate(55.615234 0)"/>
       <use xlink:href="#ArialMT-36" transform="translate(83.398438 0)"/>
      </g>
     </g>
    </g>
    <g id="ytick_5">
     <g id="line2d_21">
      <path d="M 35.655938 74.52099 
L 289.19952 74.52099 
" clip-path="url(#p7d30a09afe)" style="fill: none; stroke: #c0c0c0; stroke-width: 0.25; stroke-linecap: round"/>
     </g>
     <g id="line2d_22"/>
     <g id="text_12">
      <!-- 0.8 -->
      <g style="fill: #333333" transform="translate(19.645938 77.742005) scale(0.09 -0.09)">
       <use xlink:href="#ArialMT-30"/>
       <use xlink:href="#ArialMT-2e" transform="translate(55.615234 0)"/>
       <use xlink:href="#ArialMT-38" transform="translate(83.398438 0)"/>
      </g>
     </g>
    </g>
    <g id="ytick_6">
     <g id="line2d_23">
      <path d="M 35.655938 26.895537 
L 289.19952 26.895537 
" clip-path="url(#p7d30a09afe)" style="fill: none; stroke: #c0c0c0; stroke-width: 0.25; stroke-linecap: round"/>
     </g>
     <g id="line2d_24"/>
     <g id="text_13">
      <!-- 1.0 -->
      <g style="fill: #333333" transform="translate(19.645938 30.116552) scale(0.09 -0.09)">
       <use xlink:href="#ArialMT-31"/>
       <use xlink:href="#ArialMT-2e" transform="translate(55.615234 0)"/>
       <use xlink:href="#ArialMT-30" transform="translate(83.398438 0)"/>
      </g>
     </g>
    </g>
    <g id="text_14">
     <!-- True Positive Rate (TPR) -->
     <g style="fill: #333333" transform="translate(13.751719 194.647026) rotate(-90) scale(0.09 -0.09)">
      <defs>
       <path id="Arial-BoldMT-54" d="M 1497 0 
L 1497 3806 
L 138 3806 
L 138 4581 
L 3778 4581 
L 3778 3806 
L 2422 3806 
L 2422 0 
L 1497 0 
z
" transform="scale(0.015625)"/>
       <path id="Arial-BoldMT-72" d="M 1300 0 
L 422 0 
L 422 3319 
L 1238 3319 
L 1238 2847 
Q 1447 3181 1614 3287 
Q 1781 3394 1994 3394 
Q 2294 3394 2572 3228 
L 2300 2463 
Q 2078 2606 1888 2606 
Q 1703 2606 1575 2504 
Q 1447 2403 1373 2137 
Q 1300 1872 1300 1025 
L 1300 0 
z
" transform="scale(0.015625)"/>
       <path id="Arial-BoldMT-75" d="M 2644 0 
L 2644 497 
Q 2463 231 2167 78 
Q 1872 -75 1544 -75 
Q 1209 -75 943 72 
Q 678 219 559 484 
Q 441 750 441 1219 
L 441 3319 
L 1319 3319 
L 1319 1794 
Q 1319 1094 1367 936 
Q 1416 778 1544 686 
Q 1672 594 1869 594 
Q 2094 594 2272 717 
Q 2450 841 2515 1023 
Q 2581 1206 2581 1919 
L 2581 3319 
L 3459 3319 
L 3459 0 
L 2644 0 
z
" transform="scale(0.015625)"/>
      </defs>
      <use xlink:href="#Arial-BoldMT-54"/>
      <use xlink:href="#Arial-BoldMT-72" transform="translate(55.583984 0)"/>
      <use xlink:href="#Arial-BoldMT-75" transform="translate(94.5 0)"/>
      <use xlink:href="#Arial-BoldMT-65" transform="translate(155.583984 0)"/>
      <use xlink:href="#Arial-BoldMT-20" transform="translate(211.199219 0)"/>
      <use xlink:href="#Arial-BoldMT-50" transform="translate(238.982422 0)"/>
      <use xlink:href="#Arial-BoldMT-6f" transform="translate(305.681641 0)"/>
      <use xlink:href="#Arial-BoldMT-73" transform="translate(366.765625 0)"/>
      <use xlink:href="#Arial-BoldMT-69" transform="translate(422.380859 0)"/>
      <use xlink:href="#Arial-BoldMT-74" transform="translate(450.164062 0)"/>
      <use xlink:href="#Arial-BoldMT-69" transform="translate(483.464844 0)"/>
      <use xlink:href="#Arial-BoldMT-76" transform="translate(511.248047 0)"/>
      <use xlink:href="#Arial-BoldMT-65" transform="translate(566.863281 0)"/>
      <use xlink:href="#Arial-BoldMT-20" transform="translate(622.478516 0)"/>
      <use xlink:href="#Arial-BoldMT-52" transform="translate(650.261719 0)"/>
      <use xlink:href="#Arial-BoldMT-61" transform="translate(722.478516 0)"/>
      <use xlink:href="#Arial-BoldMT-74" transform="translate(778.09375 0)"/>
      <use xlink:href="#Arial-BoldMT-65" transform="translate(811.394531 0)"/>
      <use xlink:href="#Arial-BoldMT-20" transform="translate(867.009766 0)"/>
      <use xlink:href="#Arial-BoldMT-28" transform="translate(894.792969 0)"/>
      <use xlink:href="#Arial-BoldMT-54" transform="translate(928.09375 0)"/>
      <use xlink:href="#Arial-BoldMT-50" transform="translate(989.177734 0)"/>
      <use xlink:href="#Arial-BoldMT-52" transform="translate(1055.876953 0)"/>
      <use xlink:href="#Arial-BoldMT-29" transform="translate(1128.09375 0)"/>
     </g>
    </g>
   </g>
   <g id="line2d_25">
    <path d="M 42.831699 265.022801 
L 42.941992 241.290297 
L 42.944842 241.223445 
L 43.055741 230.259697 
L 43.056952 230.192845 
L 43.165321 223.507632 
L 43.169703 223.44078 
L 43.280744 218.827984 
L 43.281386 218.761132 
L 43.390824 214.750004 
L 43.395989 214.683152 
L 43.50703 211.541102 
L 43.509738 211.47425 
L 43.619461 208.064792 
L 43.621349 207.99794 
L 43.731642 205.457559 
L 43.73467 205.390707 
L 43.84507 202.048101 
L 43.851803 201.981249 
L 43.962381 199.908833 
L 43.966157 199.841981 
L 44.076735 197.368452 
L 44.083789 197.3016 
L 44.193476 195.296036 
L 44.199853 195.229184 
L 44.309683 193.424177 
L 44.318874 193.357325 
L 44.420831 191.418613 
L 44.442846 191.351761 
L 44.551857 189.078789 
L 44.562936 189.011937 
L 44.670771 187.340634 
L 44.675652 187.273781 
L 44.784876 185.535626 
L 44.797986 185.468774 
L 44.908314 183.663767 
L 44.917292 183.596915 
L 45.018073 182.059316 
L 45.037666 181.992464 
L 45.14144 180.388013 
L 45.166448 180.321161 
L 45.268085 178.984118 
L 45.286467 178.917266 
L 45.392592 177.78078 
L 45.39562 177.78078 
L 45.410547 177.713928 
L 45.519664 176.510589 
L 45.530173 176.443737 
L 45.629423 175.173547 
L 45.642105 175.106695 
L 45.740321 173.836505 
L 45.758668 173.769652 
L 45.86465 173.167983 
L 45.893791 173.101131 
L 46.001377 171.964645 
L 46.039495 171.897793 
L 46.147971 171.095567 
L 46.181671 171.028715 
L 46.282203 169.691673 
L 46.317863 169.624821 
L 46.405179 168.889447 
L 46.449958 168.822595 
L 46.550205 167.819813 
L 46.566379 167.752961 
L 46.675104 166.549623 
L 46.717676 166.482771 
L 46.820024 165.346285 
L 46.843608 165.279433 
L 46.952191 164.076094 
L 46.962593 164.009242 
L 47.042534 163.474425 
L 47.086779 163.407573 
L 47.186029 162.6722 
L 47.190446 162.6722 
L 47.214813 162.605348 
L 47.323788 161.535714 
L 47.340354 161.468862 
L 47.444982 160.532932 
L 47.482709 160.46608 
L 47.589938 159.597002 
L 47.618544 159.53015 
L 47.707819 158.995333 
L 47.737173 158.928481 
L 47.835639 158.326812 
L 47.878068 158.25996 
L 47.98829 157.457734 
L 47.994844 157.390882 
L 48.102466 156.521805 
L 48.124446 156.454952 
L 48.234561 155.452171 
L 48.239512 155.385318 
L 48.344497 154.583093 
L 48.362523 154.516241 
L 48.468613 153.84772 
L 48.503489 153.780867 
L 48.607726 153.179198 
L 48.624826 153.112346 
L 48.723291 152.376973 
L 48.747979 152.310121 
L 48.849971 151.374191 
L 48.854496 151.374191 
L 48.88353 151.307339 
L 48.952427 150.70567 
L 48.991222 150.70567 
L 49.001339 150.638818 
L 49.109958 149.903444 
L 49.122997 149.836592 
L 49.208816 148.900662 
L 49.254878 148.83381 
L 49.358331 148.298993 
L 49.438308 148.232141 
L 49.533175 147.964733 
L 49.564525 147.897881 
L 49.666197 147.095655 
L 49.736626 147.028803 
L 49.834771 146.29343 
L 49.8798 146.226577 
L 49.963696 145.624908 
L 49.99875 145.558056 
L 50.107226 144.889535 
L 50.134408 144.822683 
L 50.237326 144.42157 
L 50.261872 144.354718 
L 50.367498 143.686197 
L 50.3696 143.686197 
L 50.408822 143.619345 
L 50.516087 142.883971 
L 50.560903 142.817119 
L 50.66603 141.948042 
L 50.671979 141.948042 
L 50.679532 141.881189 
L 50.778995 141.413225 
L 50.838915 141.346372 
L 50.934816 141.078964 
L 50.987005 141.012112 
L 51.087965 140.410443 
L 51.107202 140.343591 
L 51.214859 139.675069 
L 51.230035 139.608217 
L 51.336516 139.273957 
L 51.380049 139.207104 
L 51.490805 138.204323 
L 51.512928 138.13747 
L 51.613139 137.402097 
L 51.634229 137.335245 
L 51.74527 136.599872 
L 51.770528 136.53302 
L 51.860479 135.93135 
L 51.8919 135.864498 
L 51.977897 135.530238 
L 51.979144 135.530238 
L 52.058123 135.463386 
L 52.167525 135.062273 
L 52.186478 134.995421 
L 52.293351 134.326899 
L 52.362996 134.260047 
L 52.465203 133.324118 
L 52.492811 133.257265 
L 52.601466 132.655596 
L 52.652729 132.588744 
L 52.752157 131.853371 
L 52.882613 131.786519 
L 52.974061 131.452258 
L 53.047162 131.385406 
L 53.133017 130.716885 
L 53.153287 130.716885 
L 53.210037 130.650033 
L 53.310747 130.315772 
L 53.407039 130.24892 
L 53.494355 129.847807 
L 53.510564 129.847807 
L 53.526132 129.780955 
L 53.628445 129.246138 
L 53.631081 129.246138 
L 53.701795 129.179286 
L 53.805712 128.778173 
L 53.853591 128.711321 
L 53.960321 128.0428 
L 53.989355 127.975948 
L 53.989355 127.909096 
L 54.088783 127.909096 
L 54.115715 127.842243 
L 54.171681 127.507983 
L 54.223229 127.507983 
L 54.318417 127.441131 
L 54.386531 127.040018 
L 54.503165 126.973166 
L 54.612603 126.304645 
L 54.622222 126.237792 
L 54.727456 125.569271 
L 54.795534 125.502419 
L 54.892041 124.833898 
L 54.930159 124.767046 
L 55.031581 124.365933 
L 55.033933 124.365933 
L 55.111736 124.299081 
L 55.187865 123.831116 
L 55.27258 123.764264 
L 55.371865 123.430003 
L 55.423378 123.363151 
L 55.523518 122.962038 
L 55.578451 122.895186 
L 55.680586 122.092961 
L 55.725437 122.026109 
L 55.824366 121.691848 
L 55.833272 121.691848 
L 55.882968 121.624996 
L 55.992869 121.157031 
L 56.088984 121.090179 
L 56.188803 120.48851 
L 56.220117 120.421658 
L 56.310282 119.953693 
L 56.361866 119.886841 
L 56.453207 119.285172 
L 56.483986 119.218319 
L 56.565602 118.817207 
L 56.608529 118.750355 
L 56.710166 118.349242 
L 56.734248 118.28239 
L 56.842973 117.948129 
L 56.871366 117.881277 
L 56.979414 117.145904 
L 57.075992 117.079052 
L 57.129144 116.811643 
L 57.170539 116.811643 
L 57.206057 116.744791 
L 57.299749 116.343678 
L 57.371781 116.276826 
L 57.461198 116.009418 
L 57.465509 116.009418 
L 57.497535 115.942565 
L 57.603589 115.474601 
L 57.6955 115.407748 
L 57.80337 114.872931 
L 57.805757 114.872931 
L 57.845692 114.806079 
L 57.950891 114.471819 
L 57.979212 114.404967 
L 58.057871 114.271262 
L 58.129404 114.20441 
L 58.240018 113.937002 
L 58.256156 113.87015 
L 58.329257 113.669593 
L 58.377599 113.602741 
L 58.448599 113.26848 
L 58.48376 113.26848 
L 58.507058 113.201628 
L 58.611509 112.867368 
L 58.672605 112.800516 
L 58.760525 112.198847 
L 58.798252 112.131994 
L 58.908188 111.597177 
L 58.955604 111.530325 
L 59.065434 111.196065 
L 59.085883 111.129213 
L 59.178613 110.7281 
L 59.19443 110.7281 
L 59.248544 110.661248 
L 59.354063 110.326987 
L 59.471303 110.260135 
L 59.551849 109.992726 
L 59.553844 109.992726 
L 59.710342 109.925874 
L 59.810233 109.591614 
L 59.871364 109.524762 
L 59.975245 109.056797 
L 59.97984 109.056797 
L 59.995586 108.989945 
L 60.099146 108.52198 
L 60.191342 108.455128 
L 60.245847 108.054015 
L 60.302419 108.054015 
L 60.322903 107.987163 
L 60.407689 107.652902 
L 60.49276 107.58605 
L 60.600417 107.318641 
L 60.681533 107.251789 
L 60.777969 106.783824 
L 60.803582 106.716972 
L 60.842057 106.449564 
L 60.877432 106.449564 
L 60.922817 106.382712 
L 60.922817 106.31586 
L 60.935393 106.31586 
L 61.052169 106.249008 
L 61.162997 105.847895 
L 61.275819 105.781043 
L 61.377241 105.37993 
L 61.382015 105.37993 
L 61.41055 105.313078 
L 61.520523 105.045669 
L 61.551195 104.978817 
L 61.624475 104.778261 
L 61.774631 104.711409 
L 61.883392 104.243444 
L 61.95546 104.176592 
L 61.997248 103.976035 
L 62.046303 103.976035 
L 62.082176 103.909183 
L 62.095144 103.775479 
L 62.189085 103.775479 
L 62.271912 103.708627 
L 62.375792 103.307514 
L 62.431865 103.240662 
L 62.500192 102.906401 
L 62.687897 102.839549 
L 62.726372 102.638993 
L 62.781874 102.638993 
L 62.868833 102.572141 
L 62.975528 102.304732 
L 63.017031 102.23788 
L 63.12597 101.970472 
L 63.12768 101.970472 
L 63.215779 101.903619 
L 63.320408 101.502507 
L 63.371564 101.435655 
L 63.409255 101.235098 
L 63.409718 101.235098 
L 63.579005 101.168246 
L 63.678611 100.900838 
L 63.69913 100.833985 
L 63.741737 100.566577 
L 63.901726 100.499725 
L 64.008813 100.232316 
L 64.011734 100.232316 
L 64.138058 100.165464 
L 64.235384 99.964908 
L 64.255226 99.898056 
L 64.32448 99.764352 
L 64.331961 99.764352 
L 64.583113 99.697499 
L 64.67823 99.363239 
L 64.771566 99.296387 
L 64.832341 99.028978 
L 64.838041 99.028978 
L 64.945128 98.962126 
L 65.008931 98.627865 
L 65.044235 98.627865 
L 65.143199 98.561013 
L 65.228555 98.226753 
L 65.276719 98.159901 
L 65.370126 97.691936 
L 65.47244 97.625084 
L 65.569088 97.357675 
L 65.750274 97.290823 
L 65.796514 97.157119 
L 65.855116 97.157119 
L 65.871183 97.090267 
L 65.94546 96.822858 
L 65.980443 96.822858 
L 66.132701 96.756006 
L 66.226821 96.221189 
L 66.282324 96.221189 
L 66.312213 95.95378 
L 66.31663 95.95378 
L 66.429452 95.886928 
L 66.496497 95.686372 
L 66.612633 95.61952 
L 66.612633 95.552668 
L 66.660476 95.552668 
L 66.750357 95.485816 
L 66.816796 95.151555 
L 66.852527 95.151555 
L 66.898803 95.084703 
L 66.952988 94.817294 
L 66.99588 94.817294 
L 67.050955 94.750442 
L 67.155085 94.483034 
L 67.172648 94.416182 
L 67.268976 94.081921 
L 67.30802 94.015069 
L 67.400786 93.680808 
L 67.418385 93.680808 
L 67.570394 93.613956 
L 67.615458 93.346548 
L 67.681221 93.346548 
L 67.720728 93.279696 
L 67.779544 92.945435 
L 67.954745 92.878583 
L 68.038035 92.678026 
L 68.064646 92.678026 
L 68.084524 92.611174 
L 68.186944 92.343766 
L 68.286158 92.276914 
L 68.393922 91.808949 
L 68.423704 91.742097 
L 68.49424 91.340984 
L 68.527086 91.340984 
L 68.56556 91.274132 
L 68.661853 90.939871 
L 68.810691 90.873019 
L 68.911971 90.672463 
L 69.195221 90.605611 
L 69.270174 90.338202 
L 69.283569 90.338202 
L 69.430911 90.27135 
L 69.515947 90.137646 
L 69.763714 90.070794 
L 69.866704 89.669681 
L 69.931612 89.602829 
L 70.018179 89.33542 
L 70.115184 89.268568 
L 70.199649 89.134864 
L 70.208947 89.134864 
L 70.241116 89.068012 
L 70.315856 88.867455 
L 70.338121 88.867455 
L 70.374458 88.800603 
L 70.482792 88.332638 
L 70.609793 88.265786 
L 70.609793 88.198934 
L 70.712248 88.198934 
L 70.788021 88.132082 
L 70.867428 87.864673 
L 70.892686 87.864673 
L 71.033295 87.797821 
L 71.138209 87.329856 
L 71.213127 87.263004 
L 71.245687 86.995596 
L 71.31772 86.995596 
L 71.386902 86.928744 
L 71.487114 86.661335 
L 71.595269 86.594483 
L 71.692025 86.19337 
L 71.696549 86.19337 
L 71.751945 86.126518 
L 71.751945 86.059666 
L 71.938581 85.992814 
L 71.999 85.792258 
L 72.163335 85.725406 
L 72.217769 85.457997 
L 72.224075 85.457997 
L 72.464361 85.391145 
L 72.55645 85.123736 
L 72.561829 85.123736 
L 72.704398 85.056884 
L 72.71847 84.92318 
L 72.748857 84.92318 
L 72.84775 84.856328 
L 72.948318 84.522067 
L 72.95384 84.522067 
L 73.029542 84.455215 
L 73.135132 84.187807 
L 73.213577 84.120955 
L 73.27795 83.920398 
L 73.298577 83.920398 
L 73.395617 83.853546 
L 73.4109 83.719842 
L 73.490556 83.719842 
L 73.606015 83.65299 
L 73.693223 83.519285 
L 73.753357 83.452433 
L 73.839533 83.251877 
L 73.855706 83.251877 
L 74.027166 83.185025 
L 74.072124 82.984468 
L 74.135464 82.984468 
L 74.39114 82.917616 
L 74.482374 82.71706 
L 74.655437 82.650208 
L 74.71607 82.516504 
L 74.929638 82.449651 
L 74.929638 82.382799 
L 74.9757 82.382799 
L 75.146947 82.315947 
L 75.194505 82.182243 
L 75.254924 82.182243 
L 75.293398 82.115391 
L 75.400984 81.847982 
L 75.417086 81.78113 
L 75.430374 81.647426 
L 75.666599 81.580574 
L 75.681846 81.44687 
L 75.890748 81.380017 
L 75.991173 81.045757 
L 76.085684 80.978905 
L 76.161742 80.778348 
L 76.307553 80.711496 
L 76.332347 80.51094 
L 76.390914 80.51094 
L 76.583463 80.444088 
L 76.691832 80.243531 
L 76.764257 80.176679 
L 76.860799 79.708714 
L 76.937284 79.641862 
L 77.04145 79.307602 
L 77.331397 79.24075 
L 77.331397 79.173897 
L 77.426834 79.173897 
L 77.857533 79.107045 
L 77.890699 78.906489 
L 78.063691 78.839637 
L 78.081467 78.705933 
L 78.165862 78.705933 
L 78.437782 78.63908 
L 78.437782 78.572228 
L 78.501265 78.572228 
L 78.779776 78.505376 
L 78.839839 78.371672 
L 79.244567 78.30482 
L 79.314961 78.037411 
L 79.567039 77.970559 
L 79.599029 77.836855 
L 80.1003 77.770003 
L 80.180027 77.636299 
L 80.203789 77.636299 
L 80.236171 77.569446 
L 80.296733 77.435742 
L 80.56274 77.36889 
L 80.642823 77.235186 
L 80.80128 77.168334 
L 80.870534 77.034629 
L 81.040498 76.967777 
L 81.145483 76.566665 
L 81.443659 76.499812 
L 81.52677 76.299256 
L 81.685192 76.232404 
L 81.737952 76.031848 
L 81.778314 76.031848 
L 82.003567 75.964995 
L 82.003567 75.898143 
L 82.099824 75.898143 
L 82.163485 75.831291 
L 82.239079 75.563883 
L 82.445879 75.497031 
L 82.528848 75.296474 
L 82.613491 75.229622 
L 82.724034 74.895361 
L 82.811456 74.828509 
L 82.818937 74.694805 
L 83.011059 74.627953 
L 83.122065 74.494249 
L 83.216541 74.427397 
L 83.269656 74.293692 
L 83.279275 74.293692 
L 83.380377 74.22684 
L 83.448883 74.093136 
L 83.566799 74.026284 
L 83.662522 73.758875 
L 83.761486 73.692023 
L 83.807192 73.491467 
L 83.833519 73.491467 
L 84.146657 73.424615 
L 84.192755 73.290911 
L 84.212633 73.290911 
L 84.300875 73.224058 
L 84.300875 73.157206 
L 84.48117 73.090354 
L 84.549711 72.95665 
L 84.575289 72.95665 
L 84.70343 72.889798 
L 84.813011 72.622389 
L 85.027505 72.555537 
L 85.118703 72.288129 
L 85.224223 72.221277 
L 85.224223 72.154424 
L 85.480005 72.087572 
L 85.503482 71.953868 
L 85.591047 71.953868 
L 85.908068 71.887016 
L 85.981668 71.753312 
L 86.07397 71.68646 
L 86.077141 71.552755 
L 86.101508 71.552755 
L 86.22801 71.485903 
L 86.331107 71.285347 
L 86.549235 71.218495 
L 86.560599 71.08479 
L 86.652403 71.08479 
L 86.728604 71.017938 
L 86.828067 70.75053 
L 86.967999 70.683678 
L 86.967999 70.616826 
L 87.066714 70.616826 
L 87.303367 70.549973 
L 87.303367 70.483121 
L 87.315907 70.483121 
L 87.437564 70.416269 
L 87.437564 70.349417 
L 87.528549 70.349417 
L 87.897332 70.282565 
L 87.944071 70.082009 
L 88.003742 70.082009 
L 88.720041 70.015156 
L 88.720041 69.948304 
L 88.970409 69.881452 
L 89.023881 69.614044 
L 89.159147 69.547192 
L 89.224304 69.346635 
L 89.527716 69.279783 
L 89.527716 69.212931 
L 89.822401 69.146079 
L 89.930307 68.945522 
L 90.041241 68.87867 
L 90.12845 68.678114 
L 90.304327 68.611262 
L 90.375398 68.477558 
L 90.507849 68.410705 
L 90.507849 68.343853 
L 90.700791 68.277001 
L 90.709412 68.143297 
L 91.163231 68.076445 
L 91.163231 68.009593 
L 91.260806 68.009593 
L 91.388697 67.942741 
L 91.400168 67.809036 
L 91.410499 67.809036 
L 91.619935 67.742184 
L 91.664786 67.60848 
L 91.878603 67.541628 
L 91.878603 67.474776 
L 92.155476 67.407924 
L 92.155476 67.341072 
L 92.253051 67.341072 
L 92.471036 67.274219 
L 92.533308 66.939959 
L 93.483837 66.873107 
L 93.519675 66.739402 
L 93.866906 66.67255 
L 93.906199 66.538846 
L 94.097253 66.471994 
L 94.1322 66.33829 
L 94.550181 66.271438 
L 94.652601 66.137733 
L 94.864067 66.070881 
L 94.864067 66.004029 
L 94.933071 66.004029 
L 95.47392 65.937177 
L 95.584997 65.803473 
L 95.649513 65.736621 
L 95.649513 65.669768 
L 96.24818 65.602916 
L 96.293673 65.469212 
L 96.462995 65.40236 
L 96.532284 65.268656 
L 97.320937 65.201804 
L 97.324428 65.068099 
L 97.335151 65.068099 
L 97.826126 65.001247 
L 97.826126 64.934395 
L 97.904285 64.934395 
L 98.201357 64.867543 
L 98.304917 64.666987 
L 98.382721 64.600134 
L 98.400925 64.46643 
L 98.793505 64.399578 
L 98.901981 64.199022 
L 99.156731 64.13217 
L 99.209954 63.931613 
L 99.468373 63.864761 
L 99.468373 63.797909 
L 99.75262 63.731057 
L 99.75262 63.664205 
L 99.952152 63.597353 
L 100.032164 63.463648 
L 100.537602 63.396796 
L 100.637208 63.062536 
L 101.006063 62.995683 
L 101.064487 62.795127 
L 101.153476 62.728275 
L 101.153476 62.661423 
L 101.601453 62.594571 
L 101.601453 62.527719 
L 101.840029 62.460866 
L 101.876793 62.327162 
L 101.890224 62.327162 
L 102.128871 62.26031 
L 102.128871 62.193458 
L 102.794405 62.126606 
L 102.846488 61.992902 
L 103.188233 61.926049 
L 103.279324 61.792345 
L 103.412702 61.725493 
L 103.412702 61.658641 
L 103.591109 61.591789 
L 103.591109 61.524937 
L 103.650957 61.524937 
L 103.742761 61.458085 
L 103.742761 61.391233 
L 103.806315 61.391233 
L 103.971577 61.32438 
L 103.971577 61.257528 
L 104.062312 61.257528 
L 104.254007 61.190676 
L 104.254007 61.123824 
L 104.516558 61.056972 
L 104.625533 60.923268 
L 104.916442 60.856416 
L 104.975649 60.655859 
L 105.013732 60.655859 
L 105.072049 60.589007 
L 105.181451 60.455303 
L 105.305816 60.388451 
L 105.305816 60.321599 
L 105.810079 60.254746 
L 105.823794 60.121042 
L 105.98161 60.05419 
L 106.054355 59.920486 
L 106.144591 59.853634 
L 106.144591 59.786782 
L 106.207041 59.786782 
L 106.373905 59.719929 
L 106.464712 59.586225 
L 106.734602 59.519373 
L 106.811836 59.385669 
L 107.029215 59.318817 
L 107.094479 59.185112 
L 107.337045 59.11826 
L 107.414137 58.917704 
L 108.034891 58.850852 
L 108.121743 58.583443 
L 108.518705 58.516591 
L 108.610438 58.249183 
L 108.906904 58.182331 
L 108.906904 58.115478 
L 108.992937 58.115478 
L 109.191258 58.048626 
L 109.191258 57.981774 
L 109.831926 57.914922 
L 109.91315 57.781218 
L 110.11204 57.714366 
L 110.140362 57.580661 
L 110.381503 57.513809 
L 110.419158 57.380105 
L 110.559946 57.313253 
L 110.559946 57.246401 
L 110.617657 57.246401 
L 110.749111 57.179549 
L 110.82093 57.045844 
L 111.324231 56.978992 
L 111.324231 56.91214 
L 111.77381 56.845288 
L 111.877156 56.644732 
L 111.956314 56.57788 
L 112.05909 56.377323 
L 112.299198 56.310471 
L 112.299198 56.243619 
L 112.406356 56.243619 
L 112.66303 56.176767 
L 112.66303 56.109915 
L 112.724731 56.109915 
L 113.433371 56.043063 
L 113.446053 55.909358 
L 113.468176 55.909358 
L 114.192312 55.842506 
L 114.192312 55.775654 
L 114.567009 55.708802 
L 114.629993 55.575098 
L 114.640181 55.575098 
L 115.058269 55.508246 
L 115.138032 55.374541 
L 115.196598 55.307689 
L 115.233469 55.173985 
L 115.269806 55.173985 
L 115.743682 55.107133 
L 115.854438 54.839724 
L 115.952048 54.772872 
L 115.969718 54.639168 
L 116.015638 54.639168 
L 116.268428 54.572316 
L 116.273416 54.438612 
L 116.510959 54.37176 
L 116.510959 54.304907 
L 116.749464 54.238055 
L 116.749464 54.171203 
L 116.780279 54.171203 
L 117.65532 54.104351 
L 117.65532 54.037499 
L 118.004261 53.970647 
L 118.014164 53.836943 
L 119.635678 53.77009 
L 119.635678 53.703238 
L 119.643409 53.703238 
L 119.950348 53.636386 
L 119.950348 53.569534 
L 120.386319 53.502682 
L 120.386319 53.43583 
L 120.557993 53.368978 
L 120.588309 53.235273 
L 121.196417 53.168421 
L 121.196417 53.101569 
L 122.005411 53.034717 
L 122.005411 52.967865 
L 122.052364 52.967865 
L 122.299632 52.901013 
L 122.299632 52.834161 
L 122.690396 52.767309 
L 122.690396 52.700456 
L 123.168938 52.633604 
L 123.175813 52.4999 
L 123.217316 52.4999 
L 123.474666 52.433048 
L 123.474666 52.366196 
L 123.867104 52.299344 
L 123.926312 52.165639 
L 124.537448 52.098787 
L 124.576171 51.965083 
L 124.950583 51.898231 
L 124.950583 51.831379 
L 125.410102 51.764527 
L 125.410102 51.697675 
L 125.544584 51.630822 
L 125.544584 51.56397 
L 125.920599 51.497118 
L 125.920599 51.430266 
L 126.05704 51.363414 
L 126.117637 51.22971 
L 126.231493 51.162858 
L 126.336014 51.029153 
L 126.547516 50.962301 
L 126.561089 50.761745 
L 127.054415 50.694893 
L 127.132575 50.494336 
L 127.45209 50.427484 
L 127.45209 50.360632 
L 128.462041 50.29378 
L 128.509172 50.160076 
L 128.816289 50.093224 
L 128.816289 50.026371 
L 129.351367 49.959519 
L 129.351367 49.892667 
L 129.451365 49.892667 
L 130.118039 49.825815 
L 130.118039 49.758963 
L 130.363384 49.692111 
L 130.406846 49.424702 
L 130.958026 49.35785 
L 130.958026 49.290998 
L 131.323104 49.224146 
L 131.323104 49.157294 
L 132.04154 49.090442 
L 132.110082 48.889885 
L 132.980919 48.823033 
L 133.071156 48.689329 
L 133.298938 48.622477 
L 133.387607 48.488773 
L 134.361755 48.421921 
L 134.361755 48.355068 
L 135.165334 48.288216 
L 135.192978 48.154512 
L 135.439926 48.08766 
L 135.439926 48.020808 
L 136.133069 47.953956 
L 136.232782 47.820251 
L 136.595117 47.753399 
L 136.595117 47.686547 
L 136.69369 47.686547 
L 137.180853 47.619695 
L 137.180853 47.552843 
L 137.269522 47.552843 
L 138.105305 47.485991 
L 138.105305 47.419139 
L 138.396285 47.352287 
L 138.396285 47.285434 
L 138.417303 47.285434 
L 139.027335 47.218582 
L 139.13004 47.084878 
L 139.632877 47.018026 
L 139.632877 46.951174 
L 139.696146 46.951174 
L 140.224776 46.884322 
L 140.326769 46.750617 
L 140.704244 46.683765 
L 140.704244 46.616913 
L 140.713685 46.616913 
L 141.009046 46.550061 
L 141.118021 46.416357 
L 141.270743 46.349505 
L 141.270743 46.282653 
L 141.376191 46.282653 
L 141.650748 46.2158 
L 141.650748 46.148948 
L 142.328893 46.082096 
L 142.352263 45.948392 
L 142.686455 45.88154 
L 142.686455 45.814688 
L 142.893147 45.747836 
L 142.893147 45.680983 
L 143.276751 45.614131 
L 143.276751 45.547279 
L 143.498085 45.480427 
L 143.498085 45.413575 
L 144.715797 45.346723 
L 144.715797 45.279871 
L 145.050844 45.213019 
L 145.050844 45.146166 
L 145.731661 45.079314 
L 145.731661 45.012462 
L 146.735448 44.94561 
L 146.735448 44.878758 
L 147.093402 44.811906 
L 147.093402 44.745054 
L 148.3617 44.678202 
L 148.3617 44.611349 
L 148.735364 44.544497 
L 148.815234 44.410793 
L 149.28031 44.343941 
L 149.28031 44.277089 
L 149.522912 44.210237 
L 149.522912 44.143385 
L 150.362685 44.076532 
L 150.362685 44.00968 
L 150.819033 43.942828 
L 150.819033 43.875976 
L 150.862281 43.875976 
L 151.184076 43.809124 
L 151.184076 43.742272 
L 151.41795 43.67542 
L 151.41795 43.608568 
L 151.454821 43.608568 
L 151.676654 43.541715 
L 151.780677 43.408011 
L 153.184312 43.341159 
L 153.281495 43.207455 
L 153.596522 43.140603 
L 153.596522 43.073751 
L 153.883725 43.006898 
L 153.883725 42.940046 
L 153.894341 42.940046 
L 154.769917 42.873194 
L 154.80522 42.73949 
L 155.676272 42.672638 
L 155.676272 42.605786 
L 156.085952 42.538934 
L 156.085952 42.472082 
L 157.683597 42.405229 
L 157.683597 42.338377 
L 158.212619 42.271525 
L 158.212619 42.204673 
L 159.285732 42.137821 
L 159.285732 42.070969 
L 159.858429 42.004117 
L 159.955897 41.870412 
L 160.873153 41.80356 
L 160.955873 41.536152 
L 161.329145 41.4693 
L 161.329145 41.402448 
L 162.48854 41.335595 
L 162.48854 41.268743 
L 163.380787 41.201891 
L 163.380787 41.135039 
L 164.046357 41.068187 
L 164.10984 40.934483 
L 164.794647 40.867631 
L 164.794647 40.800778 
L 165.747456 40.733926 
L 165.747456 40.667074 
L 166.188557 40.600222 
L 166.188557 40.53337 
L 166.473516 40.466518 
L 166.473516 40.399666 
L 167.391128 40.332814 
L 167.391128 40.265961 
L 168.831314 40.199109 
L 168.831314 40.132257 
L 169.34687 40.065405 
L 169.34687 39.998553 
L 169.410067 39.998553 
L 171.041912 39.931701 
L 171.041912 39.864849 
L 171.938613 39.797997 
L 171.938613 39.731144 
L 172.020478 39.731144 
L 172.526379 39.664292 
L 172.526379 39.59744 
L 172.562609 39.59744 
L 173.398464 39.530588 
L 173.472206 39.396884 
L 173.48471 39.396884 
L 173.952672 39.330032 
L 173.985161 39.196327 
L 174.528931 39.129475 
L 174.60075 38.995771 
L 175.581667 38.928919 
L 175.581667 38.862067 
L 176.403307 38.795215 
L 176.403307 38.728363 
L 176.96635 38.66151 
L 176.96635 38.594658 
L 177.572712 38.527806 
L 177.572712 38.460954 
L 177.860949 38.394102 
L 177.907261 38.260398 
L 177.910182 38.260398 
L 178.396739 38.193546 
L 178.396739 38.126693 
L 178.398307 38.126693 
L 179.612741 38.059841 
L 179.612741 37.992989 
L 181.147545 37.926137 
L 181.210529 37.792433 
L 182.723531 37.725581 
L 182.723531 37.658729 
L 183.823362 37.591876 
L 183.823362 37.525024 
L 185.315096 37.458172 
L 185.323753 37.324468 
L 185.996305 37.257616 
L 185.996305 37.190764 
L 186.833122 37.123912 
L 186.833122 37.057059 
L 187.386404 36.990207 
L 187.386404 36.923355 
L 189.183652 36.856503 
L 189.183652 36.789651 
L 190.058302 36.722799 
L 190.058302 36.655947 
L 190.925042 36.589095 
L 190.925042 36.522242 
L 190.935872 36.522242 
L 191.958149 36.45539 
L 191.958149 36.388538 
L 192.750328 36.321686 
L 192.750328 36.254834 
L 193.886032 36.187982 
L 193.886032 36.12113 
L 194.358375 36.054278 
L 194.358375 35.987426 
L 196.594552 35.920573 
L 196.594552 35.853721 
L 198.398961 35.786869 
L 198.398961 35.720017 
L 198.496002 35.720017 
L 199.54229 35.653165 
L 199.54229 35.586313 
L 200.050827 35.519461 
L 200.050827 35.452609 
L 201.328709 35.385756 
L 201.328709 35.318904 
L 201.988864 35.252052 
L 201.988864 35.1852 
L 202.335631 35.118348 
L 202.335631 35.051496 
L 202.80744 34.984644 
L 202.80744 34.917792 
L 203.656297 34.850939 
L 203.656297 34.784087 
L 204.245061 34.717235 
L 204.245061 34.650383 
L 205.721477 34.583531 
L 205.721477 34.516679 
L 206.298948 34.449827 
L 206.298948 34.382975 
L 206.758288 34.316122 
L 206.807521 34.182418 
L 208.423442 34.115566 
L 208.423442 34.048714 
L 210.346837 33.981862 
L 210.346837 33.91501 
L 211.149917 33.848158 
L 211.149917 33.781305 
L 211.611003 33.714453 
L 211.611003 33.647601 
L 211.976544 33.580749 
L 211.976544 33.513897 
L 214.571458 33.447045 
L 214.571458 33.380193 
L 214.882815 33.313341 
L 214.882815 33.246488 
L 215.561958 33.179636 
L 215.561958 33.112784 
L 216.533149 33.045932 
L 216.533149 32.97908 
L 217.638039 32.912228 
L 217.638039 32.845376 
L 219.562146 32.778524 
L 219.562146 32.711671 
L 219.976778 32.644819 
L 219.976778 32.577967 
L 222.176653 32.511115 
L 222.214451 32.377411 
L 222.846747 32.310559 
L 222.846747 32.243707 
L 223.93696 32.176854 
L 223.93696 32.110002 
L 224.471895 32.04315 
L 224.471895 31.976298 
L 225.644221 31.909446 
L 225.644221 31.842594 
L 226.418267 31.775742 
L 226.418267 31.70889 
L 226.815906 31.642037 
L 226.815906 31.575185 
L 229.584275 31.508333 
L 229.584275 31.441481 
L 230.173146 31.374629 
L 230.173146 31.307777 
L 230.798567 31.240925 
L 230.798567 31.174073 
L 232.121228 31.10722 
L 232.121228 31.040368 
L 233.190778 30.973516 
L 233.190778 30.906664 
L 233.81449 30.839812 
L 233.844058 30.706108 
L 234.260186 30.639256 
L 234.278853 30.505551 
L 234.318468 30.505551 
L 236.274067 30.438699 
L 236.274067 30.371847 
L 237.494201 30.304995 
L 237.494201 30.238143 
L 239.897064 30.171291 
L 239.897064 30.104439 
L 241.709809 30.037587 
L 241.709809 29.970734 
L 241.99687 29.903882 
L 241.99687 29.83703 
L 242.846761 29.770178 
L 242.846761 29.703326 
L 245.672984 29.636474 
L 245.672984 29.569622 
L 248.386099 29.50277 
L 248.386099 29.435917 
L 248.860865 29.369065 
L 248.860865 29.302213 
L 249.264881 29.235361 
L 249.264881 29.168509 
L 251.170107 29.101657 
L 251.170107 29.034805 
L 252.356541 28.967953 
L 252.356541 28.9011 
L 253.326984 28.834248 
L 253.326984 28.767396 
L 254.938701 28.700544 
L 254.938701 28.633692 
L 255.4596 28.56684 
L 255.495082 28.433136 
L 256.557508 28.366283 
L 256.557508 28.299431 
L 258.884455 28.232579 
L 258.884455 28.165727 
L 261.214431 28.098875 
L 261.214431 28.032023 
L 264.319913 27.965171 
L 264.319913 27.898319 
L 265.564806 27.831466 
L 265.594552 27.697762 
L 267.680465 27.63091 
L 267.680465 27.564058 
L 270.711172 27.497206 
L 270.711172 27.430354 
L 271.339479 27.363502 
L 271.339479 27.296649 
L 277.546168 27.229797 
L 277.546168 27.162945 
L 279.790325 27.096093 
L 279.790325 27.029241 
L 281.80449 26.962389 
L 281.80449 26.895537 
L 282.023758 26.895537 
L 282.023758 26.895537 
" clip-path="url(#p7d30a09afe)" style="fill: none; stroke: #1f77b4; stroke-width: 1.5; stroke-linecap: round"/>
   </g>
   <g id="line2d_26">
    <path d="M 42.831699 265.022801 
L 282.023758 26.895537 
" clip-path="url(#p7d30a09afe)" style="fill: none; stroke-dasharray: 5.55,2.4; stroke-dashoffset: 0; stroke: #999999; stroke-width: 1.5"/>
   </g>
   <g id="patch_3">
    <path d="M 35.655938 265.022801 
L 35.655938 19.751719 
" style="fill: none"/>
   </g>
   <g id="patch_4">
    <path d="M 289.19952 265.022801 
L 289.19952 19.751719 
" style="fill: none"/>
   </g>
   <g id="patch_5">
    <path d="M 35.655938 265.022801 
L 289.19952 265.022801 
" style="fill: none"/>
   </g>
   <g id="patch_6">
    <path d="M 35.655938 19.751719 
L 289.19952 19.751719 
" style="fill: none"/>
   </g>
   <g id="text_15">
    <!-- Model 1: Receiver Operating Characteristic (ROC) Curve -->
    <g style="fill: #333333" transform="translate(42.14976 13.751719) scale(0.09 -0.09)">
     <defs>
      <path id="Arial-BoldMT-4d" d="M 453 0 
L 453 4581 
L 1838 4581 
L 2669 1456 
L 3491 4581 
L 4878 4581 
L 4878 0 
L 4019 0 
L 4019 3606 
L 3109 0 
L 2219 0 
L 1313 3606 
L 1313 0 
L 453 0 
z
" transform="scale(0.015625)"/>
      <path id="Arial-BoldMT-64" d="M 3503 0 
L 2688 0 
L 2688 488 
Q 2484 203 2207 64 
Q 1931 -75 1650 -75 
Q 1078 -75 670 386 
Q 263 847 263 1672 
Q 263 2516 659 2955 
Q 1056 3394 1663 3394 
Q 2219 3394 2625 2931 
L 2625 4581 
L 3503 4581 
L 3503 0 
z
M 1159 1731 
Q 1159 1200 1306 963 
Q 1519 619 1900 619 
Q 2203 619 2415 876 
Q 2628 1134 2628 1647 
Q 2628 2219 2422 2470 
Q 2216 2722 1894 2722 
Q 1581 2722 1370 2473 
Q 1159 2225 1159 1731 
z
" transform="scale(0.015625)"/>
      <path id="Arial-BoldMT-31" d="M 2519 0 
L 1641 0 
L 1641 3309 
Q 1159 2859 506 2644 
L 506 3441 
Q 850 3553 1253 3867 
Q 1656 4181 1806 4600 
L 2519 4600 
L 2519 0 
z
" transform="scale(0.015625)"/>
      <path id="Arial-BoldMT-3a" d="M 628 2441 
L 628 3319 
L 1506 3319 
L 1506 2441 
L 628 2441 
z
M 628 0 
L 628 878 
L 1506 878 
L 1506 0 
L 628 0 
z
" transform="scale(0.015625)"/>
      <path id="Arial-BoldMT-63" d="M 3353 2338 
L 2488 2181 
Q 2444 2441 2289 2572 
Q 2134 2703 1888 2703 
Q 1559 2703 1364 2476 
Q 1169 2250 1169 1719 
Q 1169 1128 1367 884 
Q 1566 641 1900 641 
Q 2150 641 2309 783 
Q 2469 925 2534 1272 
L 3397 1125 
Q 3263 531 2881 228 
Q 2500 -75 1859 -75 
Q 1131 -75 698 384 
Q 266 844 266 1656 
Q 266 2478 700 2936 
Q 1134 3394 1875 3394 
Q 2481 3394 2839 3133 
Q 3197 2872 3353 2338 
z
" transform="scale(0.015625)"/>
      <path id="Arial-BoldMT-4f" d="M 278 2263 
Q 278 2963 488 3438 
Q 644 3788 914 4066 
Q 1184 4344 1506 4478 
Q 1934 4659 2494 4659 
Q 3506 4659 4114 4031 
Q 4722 3403 4722 2284 
Q 4722 1175 4119 548 
Q 3516 -78 2506 -78 
Q 1484 -78 881 545 
Q 278 1169 278 2263 
z
M 1231 2294 
Q 1231 1516 1590 1114 
Q 1950 713 2503 713 
Q 3056 713 3411 1111 
Q 3766 1509 3766 2306 
Q 3766 3094 3420 3481 
Q 3075 3869 2503 3869 
Q 1931 3869 1581 3476 
Q 1231 3084 1231 2294 
z
" transform="scale(0.015625)"/>
      <path id="Arial-BoldMT-70" d="M 434 3319 
L 1253 3319 
L 1253 2831 
Q 1413 3081 1684 3237 
Q 1956 3394 2288 3394 
Q 2866 3394 3269 2941 
Q 3672 2488 3672 1678 
Q 3672 847 3265 386 
Q 2859 -75 2281 -75 
Q 2006 -75 1782 34 
Q 1559 144 1313 409 
L 1313 -1263 
L 434 -1263 
L 434 3319 
z
M 1303 1716 
Q 1303 1156 1525 889 
Q 1747 622 2066 622 
Q 2372 622 2575 867 
Q 2778 1113 2778 1672 
Q 2778 2194 2568 2447 
Q 2359 2700 2050 2700 
Q 1728 2700 1515 2451 
Q 1303 2203 1303 1716 
z
" transform="scale(0.015625)"/>
      <path id="Arial-BoldMT-6e" d="M 3478 0 
L 2600 0 
L 2600 1694 
Q 2600 2231 2544 2389 
Q 2488 2547 2361 2634 
Q 2234 2722 2056 2722 
Q 1828 2722 1647 2597 
Q 1466 2472 1398 2265 
Q 1331 2059 1331 1503 
L 1331 0 
L 453 0 
L 453 3319 
L 1269 3319 
L 1269 2831 
Q 1703 3394 2363 3394 
Q 2653 3394 2893 3289 
Q 3134 3184 3257 3021 
Q 3381 2859 3429 2653 
Q 3478 2447 3478 2063 
L 3478 0 
z
" transform="scale(0.015625)"/>
      <path id="Arial-BoldMT-67" d="M 378 -219 
L 1381 -341 
Q 1406 -516 1497 -581 
Q 1622 -675 1891 -675 
Q 2234 -675 2406 -572 
Q 2522 -503 2581 -350 
Q 2622 -241 2622 53 
L 2622 538 
Q 2228 0 1628 0 
Q 959 0 569 566 
Q 263 1013 263 1678 
Q 263 2513 664 2953 
Q 1066 3394 1663 3394 
Q 2278 3394 2678 2853 
L 2678 3319 
L 3500 3319 
L 3500 341 
Q 3500 -247 3403 -537 
Q 3306 -828 3131 -993 
Q 2956 -1159 2664 -1253 
Q 2372 -1347 1925 -1347 
Q 1081 -1347 728 -1058 
Q 375 -769 375 -325 
Q 375 -281 378 -219 
z
M 1163 1728 
Q 1163 1200 1367 954 
Q 1572 709 1872 709 
Q 2194 709 2416 961 
Q 2638 1213 2638 1706 
Q 2638 2222 2425 2472 
Q 2213 2722 1888 2722 
Q 1572 2722 1367 2476 
Q 1163 2231 1163 1728 
z
" transform="scale(0.015625)"/>
      <path id="Arial-BoldMT-43" d="M 3397 1684 
L 4294 1400 
Q 4088 650 3608 286 
Q 3128 -78 2391 -78 
Q 1478 -78 890 545 
Q 303 1169 303 2250 
Q 303 3394 893 4026 
Q 1484 4659 2447 4659 
Q 3288 4659 3813 4163 
Q 4125 3869 4281 3319 
L 3366 3100 
Q 3284 3456 3026 3662 
Q 2769 3869 2400 3869 
Q 1891 3869 1573 3503 
Q 1256 3138 1256 2319 
Q 1256 1450 1568 1081 
Q 1881 713 2381 713 
Q 2750 713 3015 947 
Q 3281 1181 3397 1684 
z
" transform="scale(0.015625)"/>
      <path id="Arial-BoldMT-68" d="M 1334 4581 
L 1334 2897 
Q 1759 3394 2350 3394 
Q 2653 3394 2897 3281 
Q 3141 3169 3264 2994 
Q 3388 2819 3433 2606 
Q 3478 2394 3478 1947 
L 3478 0 
L 2600 0 
L 2600 1753 
Q 2600 2275 2550 2415 
Q 2500 2556 2373 2639 
Q 2247 2722 2056 2722 
Q 1838 2722 1666 2615 
Q 1494 2509 1414 2295 
Q 1334 2081 1334 1663 
L 1334 0 
L 456 0 
L 456 4581 
L 1334 4581 
z
" transform="scale(0.015625)"/>
     </defs>
     <use xlink:href="#Arial-BoldMT-4d"/>
     <use xlink:href="#Arial-BoldMT-6f" transform="translate(83.300781 0)"/>
     <use xlink:href="#Arial-BoldMT-64" transform="translate(144.384766 0)"/>
     <use xlink:href="#Arial-BoldMT-65" transform="translate(205.46875 0)"/>
     <use xlink:href="#Arial-BoldMT-6c" transform="translate(261.083984 0)"/>
     <use xlink:href="#Arial-BoldMT-20" transform="translate(288.867188 0)"/>
     <use xlink:href="#Arial-BoldMT-31" transform="translate(316.650391 0)"/>
     <use xlink:href="#Arial-BoldMT-3a" transform="translate(372.265625 0)"/>
     <use xlink:href="#Arial-BoldMT-20" transform="translate(405.566406 0)"/>
     <use xlink:href="#Arial-BoldMT-52" transform="translate(433.349609 0)"/>
     <use xlink:href="#Arial-BoldMT-65" transform="translate(505.566406 0)"/>
     <use xlink:href="#Arial-BoldMT-63" transform="translate(561.181641 0)"/>
     <use xlink:href="#Arial-BoldMT-65" transform="translate(616.796875 0)"/>
     <use xlink:href="#Arial-BoldMT-69" transform="translate(672.412109 0)"/>
     <use xlink:href="#Arial-BoldMT-76" transform="translate(700.195312 0)"/>
     <use xlink:href="#Arial-BoldMT-65" transform="translate(755.810547 0)"/>
     <use xlink:href="#Arial-BoldMT-72" transform="translate(811.425781 0)"/>
     <use xlink:href="#Arial-BoldMT-20" transform="translate(850.341797 0)"/>
     <use xlink:href="#Arial-BoldMT-4f" transform="translate(878.125 0)"/>
     <use xlink:href="#Arial-BoldMT-70" transform="translate(955.908203 0)"/>
     <use xlink:href="#Arial-BoldMT-65" transform="translate(1016.992188 0)"/>
     <use xlink:href="#Arial-BoldMT-72" transform="translate(1072.607422 0)"/>
     <use xlink:href="#Arial-BoldMT-61" transform="translate(1111.523438 0)"/>
     <use xlink:href="#Arial-BoldMT-74" transform="translate(1167.138672 0)"/>
     <use xlink:href="#Arial-BoldMT-69" transform="translate(1200.439453 0)"/>
     <use xlink:href="#Arial-BoldMT-6e" transform="translate(1228.222656 0)"/>
     <use xlink:href="#Arial-BoldMT-67" transform="translate(1289.306641 0)"/>
     <use xlink:href="#Arial-BoldMT-20" transform="translate(1350.390625 0)"/>
     <use xlink:href="#Arial-BoldMT-43" transform="translate(1378.173828 0)"/>
     <use xlink:href="#Arial-BoldMT-68" transform="translate(1450.390625 0)"/>
     <use xlink:href="#Arial-BoldMT-61" transform="translate(1511.474609 0)"/>
     <use xlink:href="#Arial-BoldMT-72" transform="translate(1567.089844 0)"/>
     <use xlink:href="#Arial-BoldMT-61" transform="translate(1606.005859 0)"/>
     <use xlink:href="#Arial-BoldMT-63" transform="translate(1661.621094 0)"/>
     <use xlink:href="#Arial-BoldMT-74" transform="translate(1717.236328 0)"/>
     <use xlink:href="#Arial-BoldMT-65" transform="translate(1750.537109 0)"/>
     <use xlink:href="#Arial-BoldMT-72" transform="translate(1806.152344 0)"/>
     <use xlink:href="#Arial-BoldMT-69" transform="translate(1845.068359 0)"/>
     <use xlink:href="#Arial-BoldMT-73" transform="translate(1872.851562 0)"/>
     <use xlink:href="#Arial-BoldMT-74" transform="translate(1928.466797 0)"/>
     <use xlink:href="#Arial-BoldMT-69" transform="translate(1961.767578 0)"/>
     <use xlink:href="#Arial-BoldMT-63" transform="translate(1989.550781 0)"/>
     <use xlink:href="#Arial-BoldMT-20" transform="translate(2045.166016 0)"/>
     <use xlink:href="#Arial-BoldMT-28" transform="translate(2072.949219 0)"/>
     <use xlink:href="#Arial-BoldMT-52" transform="translate(2106.25 0)"/>
     <use xlink:href="#Arial-BoldMT-4f" transform="translate(2178.466797 0)"/>
     <use xlink:href="#Arial-BoldMT-43" transform="translate(2256.25 0)"/>
     <use xlink:href="#Arial-BoldMT-29" transform="translate(2328.466797 0)"/>
     <use xlink:href="#Arial-BoldMT-20" transform="translate(2361.767578 0)"/>
     <use xlink:href="#Arial-BoldMT-43" transform="translate(2389.550781 0)"/>
     <use xlink:href="#Arial-BoldMT-75" transform="translate(2461.767578 0)"/>
     <use xlink:href="#Arial-BoldMT-72" transform="translate(2522.851562 0)"/>
     <use xlink:href="#Arial-BoldMT-76" transform="translate(2561.767578 0)"/>
     <use xlink:href="#Arial-BoldMT-65" transform="translate(2617.382812 0)"/>
    </g>
   </g>
   <g id="legend_1">
    <g id="patch_7">
     <path d="M 182.577645 260.522801 
L 282.89952 260.522801 
Q 284.69952 260.522801 284.69952 258.722801 
L 284.69952 234.161239 
Q 284.69952 232.361239 282.89952 232.361239 
L 182.577645 232.361239 
Q 180.777645 232.361239 180.777645 234.161239 
L 180.777645 258.722801 
Q 180.777645 260.522801 182.577645 260.522801 
z
" style="fill: #ffffff; opacity: 0.8; stroke: #cccccc; stroke-width: 0.75; stroke-linejoin: miter"/>
    </g>
    <g id="line2d_27">
     <path d="M 184.377645 239.25327 
L 193.377645 239.25327 
L 202.377645 239.25327 
" style="fill: none; stroke: #1f77b4; stroke-width: 1.5; stroke-linecap: round"/>
    </g>
    <g id="text_16">
     <!-- ROC curve -->
     <g style="fill: #333333" transform="translate(209.577645 242.40327) scale(0.09 -0.09)">
      <defs>
       <path id="ArialMT-52" d="M 503 0 
L 503 4581 
L 2534 4581 
Q 3147 4581 3465 4457 
Q 3784 4334 3975 4021 
Q 4166 3709 4166 3331 
Q 4166 2844 3850 2509 
Q 3534 2175 2875 2084 
Q 3116 1969 3241 1856 
Q 3506 1613 3744 1247 
L 4541 0 
L 3778 0 
L 3172 953 
Q 2906 1366 2734 1584 
Q 2563 1803 2427 1890 
Q 2291 1978 2150 2013 
Q 2047 2034 1813 2034 
L 1109 2034 
L 1109 0 
L 503 0 
z
M 1109 2559 
L 2413 2559 
Q 2828 2559 3062 2645 
Q 3297 2731 3419 2920 
Q 3541 3109 3541 3331 
Q 3541 3656 3305 3865 
Q 3069 4075 2559 4075 
L 1109 4075 
L 1109 2559 
z
" transform="scale(0.015625)"/>
       <path id="ArialMT-4f" d="M 309 2231 
Q 309 3372 921 4017 
Q 1534 4663 2503 4663 
Q 3138 4663 3647 4359 
Q 4156 4056 4423 3514 
Q 4691 2972 4691 2284 
Q 4691 1588 4409 1038 
Q 4128 488 3612 205 
Q 3097 -78 2500 -78 
Q 1853 -78 1343 234 
Q 834 547 571 1087 
Q 309 1628 309 2231 
z
M 934 2222 
Q 934 1394 1379 917 
Q 1825 441 2497 441 
Q 3181 441 3623 922 
Q 4066 1403 4066 2288 
Q 4066 2847 3877 3264 
Q 3688 3681 3323 3911 
Q 2959 4141 2506 4141 
Q 1863 4141 1398 3698 
Q 934 3256 934 2222 
z
" transform="scale(0.015625)"/>
       <path id="ArialMT-43" d="M 3763 1606 
L 4369 1453 
Q 4178 706 3683 314 
Q 3188 -78 2472 -78 
Q 1731 -78 1267 223 
Q 803 525 561 1097 
Q 319 1669 319 2325 
Q 319 3041 592 3573 
Q 866 4106 1370 4382 
Q 1875 4659 2481 4659 
Q 3169 4659 3637 4309 
Q 4106 3959 4291 3325 
L 3694 3184 
Q 3534 3684 3231 3912 
Q 2928 4141 2469 4141 
Q 1941 4141 1586 3887 
Q 1231 3634 1087 3207 
Q 944 2781 944 2328 
Q 944 1744 1114 1308 
Q 1284 872 1643 656 
Q 2003 441 2422 441 
Q 2931 441 3284 734 
Q 3638 1028 3763 1606 
z
" transform="scale(0.015625)"/>
       <path id="ArialMT-20" transform="scale(0.015625)"/>
       <path id="ArialMT-63" d="M 2588 1216 
L 3141 1144 
Q 3050 572 2676 248 
Q 2303 -75 1759 -75 
Q 1078 -75 664 370 
Q 250 816 250 1647 
Q 250 2184 428 2587 
Q 606 2991 970 3192 
Q 1334 3394 1763 3394 
Q 2303 3394 2647 3120 
Q 2991 2847 3088 2344 
L 2541 2259 
Q 2463 2594 2264 2762 
Q 2066 2931 1784 2931 
Q 1359 2931 1093 2626 
Q 828 2322 828 1663 
Q 828 994 1084 691 
Q 1341 388 1753 388 
Q 2084 388 2306 591 
Q 2528 794 2588 1216 
z
" transform="scale(0.015625)"/>
       <path id="ArialMT-75" d="M 2597 0 
L 2597 488 
Q 2209 -75 1544 -75 
Q 1250 -75 995 37 
Q 741 150 617 320 
Q 494 491 444 738 
Q 409 903 409 1263 
L 409 3319 
L 972 3319 
L 972 1478 
Q 972 1038 1006 884 
Q 1059 663 1231 536 
Q 1403 409 1656 409 
Q 1909 409 2131 539 
Q 2353 669 2445 892 
Q 2538 1116 2538 1541 
L 2538 3319 
L 3100 3319 
L 3100 0 
L 2597 0 
z
" transform="scale(0.015625)"/>
       <path id="ArialMT-72" d="M 416 0 
L 416 3319 
L 922 3319 
L 922 2816 
Q 1116 3169 1280 3281 
Q 1444 3394 1641 3394 
Q 1925 3394 2219 3213 
L 2025 2691 
Q 1819 2813 1613 2813 
Q 1428 2813 1281 2702 
Q 1134 2591 1072 2394 
Q 978 2094 978 1738 
L 978 0 
L 416 0 
z
" transform="scale(0.015625)"/>
       <path id="ArialMT-76" d="M 1344 0 
L 81 3319 
L 675 3319 
L 1388 1331 
Q 1503 1009 1600 663 
Q 1675 925 1809 1294 
L 2547 3319 
L 3125 3319 
L 1869 0 
L 1344 0 
z
" transform="scale(0.015625)"/>
       <path id="ArialMT-65" d="M 2694 1069 
L 3275 997 
Q 3138 488 2766 206 
Q 2394 -75 1816 -75 
Q 1088 -75 661 373 
Q 234 822 234 1631 
Q 234 2469 665 2931 
Q 1097 3394 1784 3394 
Q 2450 3394 2872 2941 
Q 3294 2488 3294 1666 
Q 3294 1616 3291 1516 
L 816 1516 
Q 847 969 1125 678 
Q 1403 388 1819 388 
Q 2128 388 2347 550 
Q 2566 713 2694 1069 
z
M 847 1978 
L 2700 1978 
Q 2663 2397 2488 2606 
Q 2219 2931 1791 2931 
Q 1403 2931 1139 2672 
Q 875 2413 847 1978 
z
" transform="scale(0.015625)"/>
      </defs>
      <use xlink:href="#ArialMT-52"/>
      <use xlink:href="#ArialMT-4f" transform="translate(72.216797 0)"/>
      <use xlink:href="#ArialMT-43" transform="translate(150 0)"/>
      <use xlink:href="#ArialMT-20" transform="translate(222.216797 0)"/>
      <use xlink:href="#ArialMT-63" transform="translate(250 0)"/>
      <use xlink:href="#ArialMT-75" transform="translate(300 0)"/>
      <use xlink:href="#ArialMT-72" transform="translate(355.615234 0)"/>
      <use xlink:href="#ArialMT-76" transform="translate(388.916016 0)"/>
      <use xlink:href="#ArialMT-65" transform="translate(438.916016 0)"/>
     </g>
    </g>
    <g id="line2d_28">
     <path d="M 184.377645 251.984051 
L 193.377645 251.984051 
L 202.377645 251.984051 
" style="fill: none; stroke-dasharray: 5.55,2.4; stroke-dashoffset: 0; stroke: #999999; stroke-width: 1.5"/>
    </g>
    <g id="text_17">
     <!-- Random classifier -->
     <g style="fill: #333333" transform="translate(209.577645 255.134051) scale(0.09 -0.09)">
      <defs>
       <path id="ArialMT-61" d="M 2588 409 
Q 2275 144 1986 34 
Q 1697 -75 1366 -75 
Q 819 -75 525 192 
Q 231 459 231 875 
Q 231 1119 342 1320 
Q 453 1522 633 1644 
Q 813 1766 1038 1828 
Q 1203 1872 1538 1913 
Q 2219 1994 2541 2106 
Q 2544 2222 2544 2253 
Q 2544 2597 2384 2738 
Q 2169 2928 1744 2928 
Q 1347 2928 1158 2789 
Q 969 2650 878 2297 
L 328 2372 
Q 403 2725 575 2942 
Q 747 3159 1072 3276 
Q 1397 3394 1825 3394 
Q 2250 3394 2515 3294 
Q 2781 3194 2906 3042 
Q 3031 2891 3081 2659 
Q 3109 2516 3109 2141 
L 3109 1391 
Q 3109 606 3145 398 
Q 3181 191 3288 0 
L 2700 0 
Q 2613 175 2588 409 
z
M 2541 1666 
Q 2234 1541 1622 1453 
Q 1275 1403 1131 1340 
Q 988 1278 909 1158 
Q 831 1038 831 891 
Q 831 666 1001 516 
Q 1172 366 1500 366 
Q 1825 366 2078 508 
Q 2331 650 2450 897 
Q 2541 1088 2541 1459 
L 2541 1666 
z
" transform="scale(0.015625)"/>
       <path id="ArialMT-6e" d="M 422 0 
L 422 3319 
L 928 3319 
L 928 2847 
Q 1294 3394 1984 3394 
Q 2284 3394 2536 3286 
Q 2788 3178 2913 3003 
Q 3038 2828 3088 2588 
Q 3119 2431 3119 2041 
L 3119 0 
L 2556 0 
L 2556 2019 
Q 2556 2363 2490 2533 
Q 2425 2703 2258 2804 
Q 2091 2906 1866 2906 
Q 1506 2906 1245 2678 
Q 984 2450 984 1813 
L 984 0 
L 422 0 
z
" transform="scale(0.015625)"/>
       <path id="ArialMT-64" d="M 2575 0 
L 2575 419 
Q 2259 -75 1647 -75 
Q 1250 -75 917 144 
Q 584 363 401 755 
Q 219 1147 219 1656 
Q 219 2153 384 2558 
Q 550 2963 881 3178 
Q 1213 3394 1622 3394 
Q 1922 3394 2156 3267 
Q 2391 3141 2538 2938 
L 2538 4581 
L 3097 4581 
L 3097 0 
L 2575 0 
z
M 797 1656 
Q 797 1019 1065 703 
Q 1334 388 1700 388 
Q 2069 388 2326 689 
Q 2584 991 2584 1609 
Q 2584 2291 2321 2609 
Q 2059 2928 1675 2928 
Q 1300 2928 1048 2622 
Q 797 2316 797 1656 
z
" transform="scale(0.015625)"/>
       <path id="ArialMT-6f" d="M 213 1659 
Q 213 2581 725 3025 
Q 1153 3394 1769 3394 
Q 2453 3394 2887 2945 
Q 3322 2497 3322 1706 
Q 3322 1066 3130 698 
Q 2938 331 2570 128 
Q 2203 -75 1769 -75 
Q 1072 -75 642 372 
Q 213 819 213 1659 
z
M 791 1659 
Q 791 1022 1069 705 
Q 1347 388 1769 388 
Q 2188 388 2466 706 
Q 2744 1025 2744 1678 
Q 2744 2294 2464 2611 
Q 2184 2928 1769 2928 
Q 1347 2928 1069 2612 
Q 791 2297 791 1659 
z
" transform="scale(0.015625)"/>
       <path id="ArialMT-6d" d="M 422 0 
L 422 3319 
L 925 3319 
L 925 2853 
Q 1081 3097 1340 3245 
Q 1600 3394 1931 3394 
Q 2300 3394 2536 3241 
Q 2772 3088 2869 2813 
Q 3263 3394 3894 3394 
Q 4388 3394 4653 3120 
Q 4919 2847 4919 2278 
L 4919 0 
L 4359 0 
L 4359 2091 
Q 4359 2428 4304 2576 
Q 4250 2725 4106 2815 
Q 3963 2906 3769 2906 
Q 3419 2906 3187 2673 
Q 2956 2441 2956 1928 
L 2956 0 
L 2394 0 
L 2394 2156 
Q 2394 2531 2256 2718 
Q 2119 2906 1806 2906 
Q 1569 2906 1367 2781 
Q 1166 2656 1075 2415 
Q 984 2175 984 1722 
L 984 0 
L 422 0 
z
" transform="scale(0.015625)"/>
       <path id="ArialMT-6c" d="M 409 0 
L 409 4581 
L 972 4581 
L 972 0 
L 409 0 
z
" transform="scale(0.015625)"/>
       <path id="ArialMT-73" d="M 197 991 
L 753 1078 
Q 800 744 1014 566 
Q 1228 388 1613 388 
Q 2000 388 2187 545 
Q 2375 703 2375 916 
Q 2375 1106 2209 1216 
Q 2094 1291 1634 1406 
Q 1016 1563 777 1677 
Q 538 1791 414 1992 
Q 291 2194 291 2438 
Q 291 2659 392 2848 
Q 494 3038 669 3163 
Q 800 3259 1026 3326 
Q 1253 3394 1513 3394 
Q 1903 3394 2198 3281 
Q 2494 3169 2634 2976 
Q 2775 2784 2828 2463 
L 2278 2388 
Q 2241 2644 2061 2787 
Q 1881 2931 1553 2931 
Q 1166 2931 1000 2803 
Q 834 2675 834 2503 
Q 834 2394 903 2306 
Q 972 2216 1119 2156 
Q 1203 2125 1616 2013 
Q 2213 1853 2448 1751 
Q 2684 1650 2818 1456 
Q 2953 1263 2953 975 
Q 2953 694 2789 445 
Q 2625 197 2315 61 
Q 2006 -75 1616 -75 
Q 969 -75 630 194 
Q 291 463 197 991 
z
" transform="scale(0.015625)"/>
       <path id="ArialMT-69" d="M 425 3934 
L 425 4581 
L 988 4581 
L 988 3934 
L 425 3934 
z
M 425 0 
L 425 3319 
L 988 3319 
L 988 0 
L 425 0 
z
" transform="scale(0.015625)"/>
       <path id="ArialMT-66" d="M 556 0 
L 556 2881 
L 59 2881 
L 59 3319 
L 556 3319 
L 556 3672 
Q 556 4006 616 4169 
Q 697 4388 901 4523 
Q 1106 4659 1475 4659 
Q 1713 4659 2000 4603 
L 1916 4113 
Q 1741 4144 1584 4144 
Q 1328 4144 1222 4034 
Q 1116 3925 1116 3625 
L 1116 3319 
L 1763 3319 
L 1763 2881 
L 1116 2881 
L 1116 0 
L 556 0 
z
" transform="scale(0.015625)"/>
      </defs>
      <use xlink:href="#ArialMT-52"/>
      <use xlink:href="#ArialMT-61" transform="translate(72.216797 0)"/>
      <use xlink:href="#ArialMT-6e" transform="translate(127.832031 0)"/>
      <use xlink:href="#ArialMT-64" transform="translate(183.447266 0)"/>
      <use xlink:href="#ArialMT-6f" transform="translate(239.0625 0)"/>
      <use xlink:href="#ArialMT-6d" transform="translate(294.677734 0)"/>
      <use xlink:href="#ArialMT-20" transform="translate(377.978516 0)"/>
      <use xlink:href="#ArialMT-63" transform="translate(405.761719 0)"/>
      <use xlink:href="#ArialMT-6c" transform="translate(455.761719 0)"/>
      <use xlink:href="#ArialMT-61" transform="translate(477.978516 0)"/>
      <use xlink:href="#ArialMT-73" transform="translate(533.59375 0)"/>
      <use xlink:href="#ArialMT-73" transform="translate(583.59375 0)"/>
      <use xlink:href="#ArialMT-69" transform="translate(633.59375 0)"/>
      <use xlink:href="#ArialMT-66" transform="translate(655.810547 0)"/>
      <use xlink:href="#ArialMT-69" transform="translate(683.59375 0)"/>
      <use xlink:href="#ArialMT-65" transform="translate(705.810547 0)"/>
      <use xlink:href="#ArialMT-72" transform="translate(761.425781 0)"/>
     </g>
    </g>
   </g>
  </g>
 </g>
 <defs>
  <clipPath id="p7d30a09afe">
   <rect x="35.655938" y="19.751719" width="253.543583" height="245.271083"/>
  </clipPath>
 </defs>
</svg>
