<?xml version="1.0" encoding="utf-8" standalone="no"?>
<!DOCTYPE svg PUBLIC "-//W3C//DTD SVG 1.1//EN"
  "http://www.w3.org/Graphics/SVG/1.1/DTD/svg11.dtd">
<svg xmlns:xlink="http://www.w3.org/1999/xlink" width="296.39952pt" height="296.39952pt" viewBox="0 0 296.39952 296.39952" xmlns="http://www.w3.org/2000/svg" version="1.1">
 <metadata>
  <rdf:RDF xmlns:dc="http://purl.org/dc/elements/1.1/" xmlns:cc="http://creativecommons.org/ns#" xmlns:rdf="http://www.w3.org/1999/02/22-rdf-syntax-ns#">
   <cc:Work>
    <dc:type rdf:resource="http://purl.org/dc/dcmitype/StillImage"/>
    <dc:date>2026-01-08T22:36:54.413178</dc:date>
    <dc:format>image/svg+xml</dc:format>
    <dc:creator>
     <cc:Agent>
      <dc:title>Matplotlib v3.10.8, https://matplotlib.org/</dc:title>
     </cc:Agent>
    </dc:creator>
   </cc:Work>
  </rdf:RDF>
 </metadata>
 <defs>
  <style type="text/css">*{stroke-linejoin: round; stroke-linecap: butt}</style>
 </defs>
 <g id="figure_1">
  <g id="patch_1">
   <path d="M 0 296.39952 
L 296.39952 296.39952 
L 296.39952 0 
L 0 0 
z
" style="fill: #ffffff"/>
  </g>
  <g id="axes_1">
   <g id="patch_2">
    <path d="M 35.655938 265.022801 
L 289.19952 265.022801 
L 289.19952 19.642031 
L 35.655938 19.642031 
z
" style="fill: #ffffff"/>
   </g>
   <g id="matplotlib.axis_1">
    <g id="xtick_1">
     <g id="line2d_1">
      <path d="M 42.831699 265.022801 
L 42.831699 19.642031 
" clip-path="url(#ped99277bd7)" style="fill: none; stroke: #c0c0c0; stroke-width: 0.25; stroke-linecap: round"/>
     </g>
     <g id="line2d_2"/>
     <g id="text_1">
      <!-- 0.0 -->
      <g style="fill: #333333" transform="translate(36.576699 274.964832) scale(0.09 -0.09)">
       <defs>
        <path id="ArialMT-30" d="M 266 2259 
Q 266 3072 433 3567 
Q 600 4063 929 4331 
Q 1259 4600 1759 4600 
Q 2128 4600 2406 4451 
Q 2684 4303 2865 4023 
Q 3047 3744 3150 3342 
Q 3253 2941 3253 2259 
Q 3253 1453 3087 958 
Q 2922 463 2592 192 
Q 2263 -78 1759 -78 
Q 1097 -78 719 397 
Q 266 969 266 2259 
z
M 844 2259 
Q 844 1131 1108 757 
Q 1372 384 1759 384 
Q 2147 384 2411 759 
Q 2675 1134 2675 2259 
Q 2675 3391 2411 3762 
Q 2147 4134 1753 4134 
Q 1366 4134 1134 3806 
Q 844 3388 844 2259 
z
" transform="scale(0.015625)"/>
        <path id="ArialMT-2e" d="M 581 0 
L 581 641 
L 1222 641 
L 1222 0 
L 581 0 
z
" transform="scale(0.015625)"/>
       </defs>
       <use xlink:href="#ArialMT-30"/>
       <use xlink:href="#ArialMT-2e" transform="translate(55.615234 0)"/>
       <use xlink:href="#ArialMT-30" transform="translate(83.398438 0)"/>
      </g>
     </g>
    </g>
    <g id="xtick_2">
     <g id="line2d_3">
      <path d="M 90.670111 265.022801 
L 90.670111 19.642031 
" clip-path="url(#ped99277bd7)" style="fill: none; stroke: #c0c0c0; stroke-width: 0.25; stroke-linecap: round"/>
     </g>
     <g id="line2d_4"/>
     <g id="text_2">
      <!-- 0.2 -->
      <g style="fill: #333333" transform="translate(84.415111 274.964832) scale(0.09 -0.09)">
       <defs>
        <path id="ArialMT-32" d="M 3222 541 
L 3222 0 
L 194 0 
Q 188 203 259 391 
Q 375 700 629 1000 
Q 884 1300 1366 1694 
Q 2113 2306 2375 2664 
Q 2638 3022 2638 3341 
Q 2638 3675 2398 3904 
Q 2159 4134 1775 4134 
Q 1369 4134 1125 3890 
Q 881 3647 878 3216 
L 300 3275 
Q 359 3922 746 4261 
Q 1134 4600 1788 4600 
Q 2447 4600 2831 4234 
Q 3216 3869 3216 3328 
Q 3216 3053 3103 2787 
Q 2991 2522 2730 2228 
Q 2469 1934 1863 1422 
Q 1356 997 1212 845 
Q 1069 694 975 541 
L 3222 541 
z
" transform="scale(0.015625)"/>
       </defs>
       <use xlink:href="#ArialMT-30"/>
       <use xlink:href="#ArialMT-2e" transform="translate(55.615234 0)"/>
       <use xlink:href="#ArialMT-32" transform="translate(83.398438 0)"/>
      </g>
     </g>
    </g>
    <g id="xtick_3">
     <g id="line2d_5">
      <path d="M 138.508523 265.022801 
L 138.508523 19.642031 
" clip-path="url(#ped99277bd7)" style="fill: none; stroke: #c0c0c0; stroke-width: 0.25; stroke-linecap: round"/>
     </g>
     <g id="line2d_6"/>
     <g id="text_3">
      <!-- 0.4 -->
      <g style="fill: #333333" transform="translate(132.253523 274.964832) scale(0.09 -0.09)">
       <defs>
        <path id="ArialMT-34" d="M 2069 0 
L 2069 1097 
L 81 1097 
L 81 1613 
L 2172 4581 
L 2631 4581 
L 2631 1613 
L 3250 1613 
L 3250 1097 
L 2631 1097 
L 2631 0 
L 2069 0 
z
M 2069 1613 
L 2069 3678 
L 634 1613 
L 2069 1613 
z
" transform="scale(0.015625)"/>
       </defs>
       <use xlink:href="#ArialMT-30"/>
       <use xlink:href="#ArialMT-2e" transform="translate(55.615234 0)"/>
       <use xlink:href="#ArialMT-34" transform="translate(83.398438 0)"/>
      </g>
     </g>
    </g>
    <g id="xtick_4">
     <g id="line2d_7">
      <path d="M 186.346935 265.022801 
L 186.346935 19.642031 
" clip-path="url(#ped99277bd7)" style="fill: none; stroke: #c0c0c0; stroke-width: 0.25; stroke-linecap: round"/>
     </g>
     <g id="line2d_8"/>
     <g id="text_4">
      <!-- 0.6 -->
      <g style="fill: #333333" transform="translate(180.091935 274.964832) scale(0.09 -0.09)">
       <defs>
        <path id="ArialMT-36" d="M 3184 3459 
L 2625 3416 
Q 2550 3747 2413 3897 
Q 2184 4138 1850 4138 
Q 1581 4138 1378 3988 
Q 1113 3794 959 3422 
Q 806 3050 800 2363 
Q 1003 2672 1297 2822 
Q 1591 2972 1913 2972 
Q 2475 2972 2870 2558 
Q 3266 2144 3266 1488 
Q 3266 1056 3080 686 
Q 2894 316 2569 119 
Q 2244 -78 1831 -78 
Q 1128 -78 684 439 
Q 241 956 241 2144 
Q 241 3472 731 4075 
Q 1159 4600 1884 4600 
Q 2425 4600 2770 4297 
Q 3116 3994 3184 3459 
z
M 888 1484 
Q 888 1194 1011 928 
Q 1134 663 1356 523 
Q 1578 384 1822 384 
Q 2178 384 2434 671 
Q 2691 959 2691 1453 
Q 2691 1928 2437 2201 
Q 2184 2475 1800 2475 
Q 1419 2475 1153 2201 
Q 888 1928 888 1484 
z
" transform="scale(0.015625)"/>
       </defs>
       <use xlink:href="#ArialMT-30"/>
       <use xlink:href="#ArialMT-2e" transform="translate(55.615234 0)"/>
       <use xlink:href="#ArialMT-36" transform="translate(83.398438 0)"/>
      </g>
     </g>
    </g>
    <g id="xtick_5">
     <g id="line2d_9">
      <path d="M 234.185346 265.022801 
L 234.185346 19.642031 
" clip-path="url(#ped99277bd7)" style="fill: none; stroke: #c0c0c0; stroke-width: 0.25; stroke-linecap: round"/>
     </g>
     <g id="line2d_10"/>
     <g id="text_5">
      <!-- 0.8 -->
      <g style="fill: #333333" transform="translate(227.930346 274.964832) scale(0.09 -0.09)">
       <defs>
        <path id="ArialMT-38" d="M 1131 2484 
Q 781 2613 612 2850 
Q 444 3088 444 3419 
Q 444 3919 803 4259 
Q 1163 4600 1759 4600 
Q 2359 4600 2725 4251 
Q 3091 3903 3091 3403 
Q 3091 3084 2923 2848 
Q 2756 2613 2416 2484 
Q 2838 2347 3058 2040 
Q 3278 1734 3278 1309 
Q 3278 722 2862 322 
Q 2447 -78 1769 -78 
Q 1091 -78 675 323 
Q 259 725 259 1325 
Q 259 1772 486 2073 
Q 713 2375 1131 2484 
z
M 1019 3438 
Q 1019 3113 1228 2906 
Q 1438 2700 1772 2700 
Q 2097 2700 2305 2904 
Q 2513 3109 2513 3406 
Q 2513 3716 2298 3927 
Q 2084 4138 1766 4138 
Q 1444 4138 1231 3931 
Q 1019 3725 1019 3438 
z
M 838 1322 
Q 838 1081 952 856 
Q 1066 631 1291 507 
Q 1516 384 1775 384 
Q 2178 384 2440 643 
Q 2703 903 2703 1303 
Q 2703 1709 2433 1975 
Q 2163 2241 1756 2241 
Q 1359 2241 1098 1978 
Q 838 1716 838 1322 
z
" transform="scale(0.015625)"/>
       </defs>
       <use xlink:href="#ArialMT-30"/>
       <use xlink:href="#ArialMT-2e" transform="translate(55.615234 0)"/>
       <use xlink:href="#ArialMT-38" transform="translate(83.398438 0)"/>
      </g>
     </g>
    </g>
    <g id="xtick_6">
     <g id="line2d_11">
      <path d="M 282.023758 265.022801 
L 282.023758 19.642031 
" clip-path="url(#ped99277bd7)" style="fill: none; stroke: #c0c0c0; stroke-width: 0.25; stroke-linecap: round"/>
     </g>
     <g id="line2d_12"/>
     <g id="text_6">
      <!-- 1.0 -->
      <g style="fill: #333333" transform="translate(275.768758 274.964832) scale(0.09 -0.09)">
       <defs>
        <path id="ArialMT-31" d="M 2384 0 
L 1822 0 
L 1822 3584 
Q 1619 3391 1289 3197 
Q 959 3003 697 2906 
L 697 3450 
Q 1169 3672 1522 3987 
Q 1875 4303 2022 4600 
L 2384 4600 
L 2384 0 
z
" transform="scale(0.015625)"/>
       </defs>
       <use xlink:href="#ArialMT-31"/>
       <use xlink:href="#ArialMT-2e" transform="translate(55.615234 0)"/>
       <use xlink:href="#ArialMT-30" transform="translate(83.398438 0)"/>
      </g>
     </g>
    </g>
    <g id="text_7">
     <!-- Recall [TP / (TP + FN)] -->
     <g style="fill: #333333" transform="translate(115.706479 287.305301) scale(0.09 -0.09)">
      <defs>
       <path id="Arial-BoldMT-52" d="M 469 0 
L 469 4581 
L 2416 4581 
Q 3150 4581 3483 4457 
Q 3816 4334 4016 4018 
Q 4216 3703 4216 3297 
Q 4216 2781 3912 2445 
Q 3609 2109 3006 2022 
Q 3306 1847 3501 1637 
Q 3697 1428 4028 894 
L 4588 0 
L 3481 0 
L 2813 997 
Q 2456 1531 2325 1670 
Q 2194 1809 2047 1861 
Q 1900 1913 1581 1913 
L 1394 1913 
L 1394 0 
L 469 0 
z
M 1394 2644 
L 2078 2644 
Q 2744 2644 2909 2700 
Q 3075 2756 3169 2893 
Q 3263 3031 3263 3238 
Q 3263 3469 3139 3611 
Q 3016 3753 2791 3791 
Q 2678 3806 2116 3806 
L 1394 3806 
L 1394 2644 
z
" transform="scale(0.015625)"/>
       <path id="Arial-BoldMT-65" d="M 2381 1056 
L 3256 909 
Q 3088 428 2723 176 
Q 2359 -75 1813 -75 
Q 947 -75 531 491 
Q 203 944 203 1634 
Q 203 2459 634 2926 
Q 1066 3394 1725 3394 
Q 2466 3394 2894 2905 
Q 3322 2416 3303 1406 
L 1103 1406 
Q 1113 1016 1316 798 
Q 1519 581 1822 581 
Q 2028 581 2168 693 
Q 2309 806 2381 1056 
z
M 2431 1944 
Q 2422 2325 2234 2523 
Q 2047 2722 1778 2722 
Q 1491 2722 1303 2513 
Q 1116 2303 1119 1944 
L 2431 1944 
z
" transform="scale(0.015625)"/>
       <path id="Arial-BoldMT-63" d="M 3353 2338 
L 2488 2181 
Q 2444 2441 2289 2572 
Q 2134 2703 1888 2703 
Q 1559 2703 1364 2476 
Q 1169 2250 1169 1719 
Q 1169 1128 1367 884 
Q 1566 641 1900 641 
Q 2150 641 2309 783 
Q 2469 925 2534 1272 
L 3397 1125 
Q 3263 531 2881 228 
Q 2500 -75 1859 -75 
Q 1131 -75 698 384 
Q 266 844 266 1656 
Q 266 2478 700 2936 
Q 1134 3394 1875 3394 
Q 2481 3394 2839 3133 
Q 3197 2872 3353 2338 
z
" transform="scale(0.015625)"/>
       <path id="Arial-BoldMT-61" d="M 1116 2306 
L 319 2450 
Q 453 2931 781 3162 
Q 1109 3394 1756 3394 
Q 2344 3394 2631 3255 
Q 2919 3116 3036 2902 
Q 3153 2688 3153 2116 
L 3144 1091 
Q 3144 653 3186 445 
Q 3228 238 3344 0 
L 2475 0 
Q 2441 88 2391 259 
Q 2369 338 2359 363 
Q 2134 144 1878 34 
Q 1622 -75 1331 -75 
Q 819 -75 523 203 
Q 228 481 228 906 
Q 228 1188 362 1408 
Q 497 1628 739 1745 
Q 981 1863 1438 1950 
Q 2053 2066 2291 2166 
L 2291 2253 
Q 2291 2506 2166 2614 
Q 2041 2722 1694 2722 
Q 1459 2722 1328 2630 
Q 1197 2538 1116 2306 
z
M 2291 1594 
Q 2122 1538 1756 1459 
Q 1391 1381 1278 1306 
Q 1106 1184 1106 997 
Q 1106 813 1243 678 
Q 1381 544 1594 544 
Q 1831 544 2047 700 
Q 2206 819 2256 991 
Q 2291 1103 2291 1419 
L 2291 1594 
z
" transform="scale(0.015625)"/>
       <path id="Arial-BoldMT-6c" d="M 459 0 
L 459 4581 
L 1338 4581 
L 1338 0 
L 459 0 
z
" transform="scale(0.015625)"/>
       <path id="Arial-BoldMT-20" transform="scale(0.015625)"/>
       <path id="Arial-BoldMT-5b" d="M 456 -1291 
L 456 4581 
L 2013 4581 
L 2013 3891 
L 1291 3891 
L 1291 -600 
L 2013 -600 
L 2013 -1291 
L 456 -1291 
z
" transform="scale(0.015625)"/>
       <path id="Arial-BoldMT-54" d="M 1497 0 
L 1497 3806 
L 138 3806 
L 138 4581 
L 3778 4581 
L 3778 3806 
L 2422 3806 
L 2422 0 
L 1497 0 
z
" transform="scale(0.015625)"/>
       <path id="Arial-BoldMT-50" d="M 466 0 
L 466 4581 
L 1950 4581 
Q 2794 4581 3050 4513 
Q 3444 4409 3709 4064 
Q 3975 3719 3975 3172 
Q 3975 2750 3822 2462 
Q 3669 2175 3433 2011 
Q 3197 1847 2953 1794 
Q 2622 1728 1994 1728 
L 1391 1728 
L 1391 0 
L 466 0 
z
M 1391 3806 
L 1391 2506 
L 1897 2506 
Q 2444 2506 2628 2578 
Q 2813 2650 2917 2803 
Q 3022 2956 3022 3159 
Q 3022 3409 2875 3571 
Q 2728 3734 2503 3775 
Q 2338 3806 1838 3806 
L 1391 3806 
z
" transform="scale(0.015625)"/>
       <path id="Arial-BoldMT-2f" d="M -9 -78 
L 1125 4659 
L 1784 4659 
L 638 -78 
L -9 -78 
z
" transform="scale(0.015625)"/>
       <path id="Arial-BoldMT-28" d="M 1916 -1347 
L 1313 -1347 
Q 834 -625 584 153 
Q 334 931 334 1659 
Q 334 2563 644 3369 
Q 913 4069 1325 4659 
L 1925 4659 
Q 1497 3713 1336 3048 
Q 1175 2384 1175 1641 
Q 1175 1128 1270 590 
Q 1366 53 1531 -431 
Q 1641 -750 1916 -1347 
z
" transform="scale(0.015625)"/>
       <path id="Arial-BoldMT-2b" d="M 1466 659 
L 1466 1850 
L 266 1850 
L 266 2672 
L 1466 2672 
L 1466 3863 
L 2266 3863 
L 2266 2672 
L 3469 2672 
L 3469 1850 
L 2266 1850 
L 2266 659 
L 1466 659 
z
" transform="scale(0.015625)"/>
       <path id="Arial-BoldMT-46" d="M 472 0 
L 472 4581 
L 3613 4581 
L 3613 3806 
L 1397 3806 
L 1397 2722 
L 3309 2722 
L 3309 1947 
L 1397 1947 
L 1397 0 
L 472 0 
z
" transform="scale(0.015625)"/>
       <path id="Arial-BoldMT-4e" d="M 475 0 
L 475 4581 
L 1375 4581 
L 3250 1522 
L 3250 4581 
L 4109 4581 
L 4109 0 
L 3181 0 
L 1334 2988 
L 1334 0 
L 475 0 
z
" transform="scale(0.015625)"/>
       <path id="Arial-BoldMT-29" d="M 216 -1347 
Q 475 -791 581 -494 
Q 688 -197 778 190 
Q 869 578 912 926 
Q 956 1275 956 1641 
Q 956 2384 797 3048 
Q 638 3713 209 4659 
L 806 4659 
Q 1278 3988 1539 3234 
Q 1800 2481 1800 1706 
Q 1800 1053 1594 306 
Q 1359 -531 822 -1347 
L 216 -1347 
z
" transform="scale(0.015625)"/>
       <path id="Arial-BoldMT-5d" d="M 1675 4581 
L 1675 -1291 
L 119 -1291 
L 119 -600 
L 841 -600 
L 841 3897 
L 119 3897 
L 119 4581 
L 1675 4581 
z
" transform="scale(0.015625)"/>
      </defs>
      <use xlink:href="#Arial-BoldMT-52"/>
      <use xlink:href="#Arial-BoldMT-65" transform="translate(72.216797 0)"/>
      <use xlink:href="#Arial-BoldMT-63" transform="translate(127.832031 0)"/>
      <use xlink:href="#Arial-BoldMT-61" transform="translate(183.447266 0)"/>
      <use xlink:href="#Arial-BoldMT-6c" transform="translate(239.0625 0)"/>
      <use xlink:href="#Arial-BoldMT-6c" transform="translate(266.845703 0)"/>
      <use xlink:href="#Arial-BoldMT-20" transform="translate(294.628906 0)"/>
      <use xlink:href="#Arial-BoldMT-5b" transform="translate(322.412109 0)"/>
      <use xlink:href="#Arial-BoldMT-54" transform="translate(355.712891 0)"/>
      <use xlink:href="#Arial-BoldMT-50" transform="translate(416.796875 0)"/>
      <use xlink:href="#Arial-BoldMT-20" transform="translate(481.746094 0)"/>
      <use xlink:href="#Arial-BoldMT-2f" transform="translate(509.529297 0)"/>
      <use xlink:href="#Arial-BoldMT-20" transform="translate(537.3125 0)"/>
      <use xlink:href="#Arial-BoldMT-28" transform="translate(565.095703 0)"/>
      <use xlink:href="#Arial-BoldMT-54" transform="translate(598.396484 0)"/>
      <use xlink:href="#Arial-BoldMT-50" transform="translate(659.480469 0)"/>
      <use xlink:href="#Arial-BoldMT-20" transform="translate(724.429688 0)"/>
      <use xlink:href="#Arial-BoldMT-2b" transform="translate(752.212891 0)"/>
      <use xlink:href="#Arial-BoldMT-20" transform="translate(810.611328 0)"/>
      <use xlink:href="#Arial-BoldMT-46" transform="translate(838.394531 0)"/>
      <use xlink:href="#Arial-BoldMT-4e" transform="translate(899.478516 0)"/>
      <use xlink:href="#Arial-BoldMT-29" transform="translate(971.695312 0)"/>
      <use xlink:href="#Arial-BoldMT-5d" transform="translate(1004.996094 0)"/>
     </g>
    </g>
   </g>
   <g id="matplotlib.axis_2">
    <g id="ytick_1">
     <g id="line2d_13">
      <path d="M 35.655938 265.022801 
L 289.19952 265.022801 
" clip-path="url(#ped99277bd7)" style="fill: none; stroke: #c0c0c0; stroke-width: 0.25; stroke-linecap: round"/>
     </g>
     <g id="line2d_14"/>
     <g id="text_8">
      <!-- 0.0 -->
      <g style="fill: #333333" transform="translate(19.645938 268.243817) scale(0.09 -0.09)">
       <use xlink:href="#ArialMT-30"/>
       <use xlink:href="#ArialMT-2e" transform="translate(55.615234 0)"/>
       <use xlink:href="#ArialMT-30" transform="translate(83.398438 0)"/>
      </g>
     </g>
    </g>
    <g id="ytick_2">
     <g id="line2d_15">
      <path d="M 35.655938 217.37605 
L 289.19952 217.37605 
" clip-path="url(#ped99277bd7)" style="fill: none; stroke: #c0c0c0; stroke-width: 0.25; stroke-linecap: round"/>
     </g>
     <g id="line2d_16"/>
     <g id="text_9">
      <!-- 0.2 -->
      <g style="fill: #333333" transform="translate(19.645938 220.597065) scale(0.09 -0.09)">
       <use xlink:href="#ArialMT-30"/>
       <use xlink:href="#ArialMT-2e" transform="translate(55.615234 0)"/>
       <use xlink:href="#ArialMT-32" transform="translate(83.398438 0)"/>
      </g>
     </g>
    </g>
    <g id="ytick_3">
     <g id="line2d_17">
      <path d="M 35.655938 169.729298 
L 289.19952 169.729298 
" clip-path="url(#ped99277bd7)" style="fill: none; stroke: #c0c0c0; stroke-width: 0.25; stroke-linecap: round"/>
     </g>
     <g id="line2d_18"/>
     <g id="text_10">
      <!-- 0.4 -->
      <g style="fill: #333333" transform="translate(19.645938 172.950314) scale(0.09 -0.09)">
       <use xlink:href="#ArialMT-30"/>
       <use xlink:href="#ArialMT-2e" transform="translate(55.615234 0)"/>
       <use xlink:href="#ArialMT-34" transform="translate(83.398438 0)"/>
      </g>
     </g>
    </g>
    <g id="ytick_4">
     <g id="line2d_19">
      <path d="M 35.655938 122.082547 
L 289.19952 122.082547 
" clip-path="url(#ped99277bd7)" style="fill: none; stroke: #c0c0c0; stroke-width: 0.25; stroke-linecap: round"/>
     </g>
     <g id="line2d_20"/>
     <g id="text_11">
      <!-- 0.6 -->
      <g style="fill: #333333" transform="translate(19.645938 125.303563) scale(0.09 -0.09)">
       <use xlink:href="#ArialMT-30"/>
       <use xlink:href="#ArialMT-2e" transform="translate(55.615234 0)"/>
       <use xlink:href="#ArialMT-36" transform="translate(83.398438 0)"/>
      </g>
     </g>
    </g>
    <g id="ytick_5">
     <g id="line2d_21">
      <path d="M 35.655938 74.435795 
L 289.19952 74.435795 
" clip-path="url(#ped99277bd7)" style="fill: none; stroke: #c0c0c0; stroke-width: 0.25; stroke-linecap: round"/>
     </g>
     <g id="line2d_22"/>
     <g id="text_12">
      <!-- 0.8 -->
      <g style="fill: #333333" transform="translate(19.645938 77.656811) scale(0.09 -0.09)">
       <use xlink:href="#ArialMT-30"/>
       <use xlink:href="#ArialMT-2e" transform="translate(55.615234 0)"/>
       <use xlink:href="#ArialMT-38" transform="translate(83.398438 0)"/>
      </g>
     </g>
    </g>
    <g id="ytick_6">
     <g id="line2d_23">
      <path d="M 35.655938 26.789044 
L 289.19952 26.789044 
" clip-path="url(#ped99277bd7)" style="fill: none; stroke: #c0c0c0; stroke-width: 0.25; stroke-linecap: round"/>
     </g>
     <g id="line2d_24"/>
     <g id="text_13">
      <!-- 1.0 -->
      <g style="fill: #333333" transform="translate(19.645938 30.01006) scale(0.09 -0.09)">
       <use xlink:href="#ArialMT-31"/>
       <use xlink:href="#ArialMT-2e" transform="translate(55.615234 0)"/>
       <use xlink:href="#ArialMT-30" transform="translate(83.398438 0)"/>
      </g>
     </g>
    </g>
    <g id="text_14">
     <!-- Precision [TP / (TP + FP)] -->
     <g style="fill: #333333" transform="translate(13.751719 195.805776) rotate(-90) scale(0.09 -0.09)">
      <defs>
       <path id="Arial-BoldMT-72" d="M 1300 0 
L 422 0 
L 422 3319 
L 1238 3319 
L 1238 2847 
Q 1447 3181 1614 3287 
Q 1781 3394 1994 3394 
Q 2294 3394 2572 3228 
L 2300 2463 
Q 2078 2606 1888 2606 
Q 1703 2606 1575 2504 
Q 1447 2403 1373 2137 
Q 1300 1872 1300 1025 
L 1300 0 
z
" transform="scale(0.015625)"/>
       <path id="Arial-BoldMT-69" d="M 459 3769 
L 459 4581 
L 1338 4581 
L 1338 3769 
L 459 3769 
z
M 459 0 
L 459 3319 
L 1338 3319 
L 1338 0 
L 459 0 
z
" transform="scale(0.015625)"/>
       <path id="Arial-BoldMT-73" d="M 150 947 
L 1031 1081 
Q 1088 825 1259 692 
Q 1431 559 1741 559 
Q 2081 559 2253 684 
Q 2369 772 2369 919 
Q 2369 1019 2306 1084 
Q 2241 1147 2013 1200 
Q 950 1434 666 1628 
Q 272 1897 272 2375 
Q 272 2806 612 3100 
Q 953 3394 1669 3394 
Q 2350 3394 2681 3172 
Q 3013 2950 3138 2516 
L 2309 2363 
Q 2256 2556 2107 2659 
Q 1959 2763 1684 2763 
Q 1338 2763 1188 2666 
Q 1088 2597 1088 2488 
Q 1088 2394 1175 2328 
Q 1294 2241 1995 2081 
Q 2697 1922 2975 1691 
Q 3250 1456 3250 1038 
Q 3250 581 2869 253 
Q 2488 -75 1741 -75 
Q 1063 -75 667 200 
Q 272 475 150 947 
z
" transform="scale(0.015625)"/>
       <path id="Arial-BoldMT-6f" d="M 256 1706 
Q 256 2144 472 2553 
Q 688 2963 1083 3178 
Q 1478 3394 1966 3394 
Q 2719 3394 3200 2905 
Q 3681 2416 3681 1669 
Q 3681 916 3195 420 
Q 2709 -75 1972 -75 
Q 1516 -75 1102 131 
Q 688 338 472 736 
Q 256 1134 256 1706 
z
M 1156 1659 
Q 1156 1166 1390 903 
Q 1625 641 1969 641 
Q 2313 641 2545 903 
Q 2778 1166 2778 1666 
Q 2778 2153 2545 2415 
Q 2313 2678 1969 2678 
Q 1625 2678 1390 2415 
Q 1156 2153 1156 1659 
z
" transform="scale(0.015625)"/>
       <path id="Arial-BoldMT-6e" d="M 3478 0 
L 2600 0 
L 2600 1694 
Q 2600 2231 2544 2389 
Q 2488 2547 2361 2634 
Q 2234 2722 2056 2722 
Q 1828 2722 1647 2597 
Q 1466 2472 1398 2265 
Q 1331 2059 1331 1503 
L 1331 0 
L 453 0 
L 453 3319 
L 1269 3319 
L 1269 2831 
Q 1703 3394 2363 3394 
Q 2653 3394 2893 3289 
Q 3134 3184 3257 3021 
Q 3381 2859 3429 2653 
Q 3478 2447 3478 2063 
L 3478 0 
z
" transform="scale(0.015625)"/>
      </defs>
      <use xlink:href="#Arial-BoldMT-50"/>
      <use xlink:href="#Arial-BoldMT-72" transform="translate(66.699219 0)"/>
      <use xlink:href="#Arial-BoldMT-65" transform="translate(105.615234 0)"/>
      <use xlink:href="#Arial-BoldMT-63" transform="translate(161.230469 0)"/>
      <use xlink:href="#Arial-BoldMT-69" transform="translate(216.845703 0)"/>
      <use xlink:href="#Arial-BoldMT-73" transform="translate(244.628906 0)"/>
      <use xlink:href="#Arial-BoldMT-69" transform="translate(300.244141 0)"/>
      <use xlink:href="#Arial-BoldMT-6f" transform="translate(328.027344 0)"/>
      <use xlink:href="#Arial-BoldMT-6e" transform="translate(389.111328 0)"/>
      <use xlink:href="#Arial-BoldMT-20" transform="translate(450.195312 0)"/>
      <use xlink:href="#Arial-BoldMT-5b" transform="translate(477.978516 0)"/>
      <use xlink:href="#Arial-BoldMT-54" transform="translate(511.279297 0)"/>
      <use xlink:href="#Arial-BoldMT-50" transform="translate(572.363281 0)"/>
      <use xlink:href="#Arial-BoldMT-20" transform="translate(637.3125 0)"/>
      <use xlink:href="#Arial-BoldMT-2f" transform="translate(665.095703 0)"/>
      <use xlink:href="#Arial-BoldMT-20" transform="translate(692.878906 0)"/>
      <use xlink:href="#Arial-BoldMT-28" transform="translate(720.662109 0)"/>
      <use xlink:href="#Arial-BoldMT-54" transform="translate(753.962891 0)"/>
      <use xlink:href="#Arial-BoldMT-50" transform="translate(815.046875 0)"/>
      <use xlink:href="#Arial-BoldMT-20" transform="translate(879.996094 0)"/>
      <use xlink:href="#Arial-BoldMT-2b" transform="translate(907.779297 0)"/>
      <use xlink:href="#Arial-BoldMT-20" transform="translate(966.177734 0)"/>
      <use xlink:href="#Arial-BoldMT-46" transform="translate(993.960938 0)"/>
      <use xlink:href="#Arial-BoldMT-50" transform="translate(1055.044922 0)"/>
      <use xlink:href="#Arial-BoldMT-29" transform="translate(1121.744141 0)"/>
      <use xlink:href="#Arial-BoldMT-5d" transform="translate(1155.044922 0)"/>
     </g>
    </g>
   </g>
   <g id="line2d_25">
    <path d="M 42.831699 265.022801 
L 42.942349 241.547212 
L 42.943132 241.48033 
L 43.052748 229.775976 
L 43.054494 229.709094 
L 43.164573 223.087774 
L 43.165927 223.020892 
L 43.275935 218.673561 
L 43.279426 218.606679 
L 43.384767 214.058702 
L 43.392676 213.99182 
L 43.502363 210.513954 
L 43.50475 210.447072 
L 43.615613 207.972438 
L 43.617501 207.905556 
L 43.728044 204.628337 
L 43.730965 204.561455 
L 43.840154 201.819292 
L 43.850164 201.75241 
L 43.960101 199.010247 
L 43.967439 198.943365 
L 44.077946 197.13755 
L 44.087992 197.070668 
L 44.193868 195.13109 
L 44.210611 195.064208 
L 44.319871 192.589573 
L 44.333551 192.522691 
L 44.443559 190.315584 
L 44.454959 190.248702 
L 44.55916 187.974714 
L 44.576652 187.907832 
L 44.686196 186.035135 
L 44.691113 185.968253 
L 44.785553 184.697495 
L 44.798235 184.697495 
L 44.81594 184.630613 
L 44.926518 182.691034 
L 44.932361 182.624152 
L 45.043224 180.952101 
L 45.049601 180.885219 
L 45.160072 179.748225 
L 45.178133 179.681343 
L 45.273535 178.811877 
L 45.284294 178.811877 
L 45.296192 178.744995 
L 45.405773 177.541118 
L 45.419524 177.474236 
L 45.52857 176.136596 
L 45.536728 176.069714 
L 45.629031 174.865838 
L 45.661698 174.798955 
L 45.758027 173.728843 
L 45.789768 173.661961 
L 45.891404 172.926259 
L 45.90829 172.859377 
L 46.018904 171.923029 
L 46.03098 171.856147 
L 46.140205 170.31786 
L 46.146261 170.250978 
L 46.255521 168.98022 
L 46.262646 168.913338 
L 46.363783 167.976989 
L 46.384944 167.910107 
L 46.493278 166.706231 
L 46.519426 166.639349 
L 46.61668 166.171175 
L 46.640157 166.104293 
L 46.732602 165.101063 
L 46.769402 165.03418 
L 46.878163 164.298478 
L 46.880194 164.298478 
L 46.895014 164.231596 
L 47.005556 163.094602 
L 47.028997 163.02772 
L 47.134374 161.756961 
L 47.154965 161.690079 
L 47.257883 160.887495 
L 47.268499 160.820613 
L 47.322542 160.218675 
L 47.394538 160.151793 
L 47.503335 158.546624 
L 47.531728 158.479742 
L 47.636998 157.543394 
L 47.64512 157.476512 
L 47.751388 156.607046 
L 47.772121 156.540164 
L 47.871833 155.871344 
L 47.893921 155.804462 
L 48.004142 154.801231 
L 48.021848 154.734349 
L 48.128899 153.864883 
L 48.136309 153.798001 
L 48.2248 153.329827 
L 48.261386 153.262945 
L 48.354152 152.794771 
L 48.375491 152.727889 
L 48.476521 152.125951 
L 48.522227 152.059069 
L 48.62422 151.45713 
L 48.642816 151.390248 
L 48.707759 151.12272 
L 48.767038 151.055838 
L 48.865468 150.11949 
L 48.914915 150.052608 
L 49.018688 149.049378 
L 49.068669 148.982496 
L 49.163858 147.979265 
L 49.186657 147.912383 
L 49.285586 147.109799 
L 49.286726 147.109799 
L 49.30664 147.042917 
L 49.387792 146.440979 
L 49.48551 146.374097 
L 49.556545 145.638395 
L 49.616323 145.571513 
L 49.726081 144.702046 
L 49.819809 144.635164 
L 49.923048 144.367636 
L 49.990236 144.300754 
L 50.070355 143.698816 
L 50.123899 143.631934 
L 50.20213 143.029996 
L 50.2846 142.963114 
L 50.381712 142.695586 
L 50.400522 142.628704 
L 50.461404 141.893001 
L 50.517904 141.826119 
L 50.628375 141.224181 
L 50.63778 141.157299 
L 50.745971 140.354715 
L 50.774435 140.287833 
L 50.841907 139.886541 
L 50.917039 139.819659 
L 51.021668 139.418367 
L 51.057934 139.351485 
L 51.124801 138.88331 
L 51.154761 138.88331 
L 51.211653 138.816428 
L 51.322124 138.281372 
L 51.373174 138.21449 
L 51.476199 137.21126 
L 51.495365 137.144378 
L 51.605658 136.408676 
L 51.612106 136.341794 
L 51.722079 135.472327 
L 51.790085 135.405445 
L 51.895284 134.937271 
L 51.93326 134.870389 
L 52.042413 134.469097 
L 52.087121 134.402215 
L 52.193353 133.800277 
L 52.293137 133.733395 
L 52.40115 133.198339 
L 52.429507 133.131457 
L 52.522095 132.663283 
L 52.582336 132.596401 
L 52.648347 132.061344 
L 52.778269 131.994462 
L 52.879193 131.325642 
L 52.889311 131.325642 
L 52.904985 131.25876 
L 53.015813 130.656822 
L 53.08585 130.58994 
L 53.122828 130.389294 
L 53.190087 130.389294 
L 53.286665 130.322412 
L 53.38912 129.854238 
L 53.396103 129.854238 
L 53.43789 129.787356 
L 53.546473 129.252299 
L 53.573085 129.185417 
L 53.618256 128.851007 
L 53.72944 128.784125 
L 53.830007 128.249069 
L 53.950026 128.182187 
L 54.037555 127.780895 
L 54.057255 127.780895 
L 54.10688 127.714013 
L 54.206984 127.245839 
L 54.235626 127.178957 
L 54.331598 126.777665 
L 54.341609 126.777665 
L 54.358744 126.710783 
L 54.417596 126.510137 
L 54.556744 126.443255 
L 54.662014 125.97508 
L 54.718051 125.908198 
L 54.824889 125.105614 
L 54.861796 125.038732 
L 54.953243 124.704322 
L 55.047755 124.63744 
L 55.152384 124.035502 
L 55.210914 123.96862 
L 55.311803 123.032272 
L 55.342368 122.96539 
L 55.441867 122.363451 
L 55.460962 122.296569 
L 55.559178 121.895277 
L 55.599612 121.828395 
L 55.703457 121.560867 
L 55.751585 121.493985 
L 55.837369 121.025811 
L 55.858636 121.025811 
L 55.887065 120.958929 
L 55.973383 120.290109 
L 56.022972 120.223227 
L 56.117056 119.554407 
L 56.172915 119.487524 
L 56.249186 119.153114 
L 56.446189 119.086232 
L 56.449965 118.952468 
L 56.553703 118.952468 
L 56.578534 118.885586 
L 56.672831 117.882356 
L 56.677997 117.882356 
L 56.737988 117.815474 
L 56.801685 117.414182 
L 56.856404 117.3473 
L 56.945108 116.812244 
L 57.022662 116.745362 
L 57.133668 116.210305 
L 57.219665 116.143423 
L 57.320268 115.675249 
L 57.328818 115.675249 
L 57.392301 115.608367 
L 57.470211 115.273957 
L 57.544061 115.207075 
L 57.588377 115.006429 
L 57.594469 115.006429 
L 57.660517 114.939547 
L 57.762188 114.471373 
L 57.84156 114.404491 
L 57.950036 113.869435 
L 57.964357 113.802553 
L 58.070304 113.468143 
L 58.087688 113.401261 
L 58.19734 112.999968 
L 58.21558 112.933086 
L 58.291531 112.531794 
L 58.320778 112.531794 
L 58.357685 112.464912 
L 58.426796 112.130502 
L 58.465021 112.130502 
L 58.489353 112.06362 
L 58.588602 111.528564 
L 58.665159 111.461682 
L 58.774205 111.127272 
L 58.822191 111.06039 
L 58.915598 110.72598 
L 58.988236 110.659098 
L 59.065577 110.257806 
L 59.137787 110.190924 
L 59.196746 110.05716 
L 59.230909 110.05716 
L 59.368598 109.990278 
L 59.467063 109.321457 
L 59.47312 109.321457 
L 59.535035 109.254575 
L 59.62121 109.053929 
L 59.63261 109.053929 
L 59.693563 108.987047 
L 59.778919 108.585755 
L 59.845287 108.518873 
L 59.943504 108.117581 
L 59.976634 108.050699 
L 60.041577 107.783171 
L 60.076739 107.783171 
L 60.161631 107.716289 
L 60.227145 107.515643 
L 60.349336 107.448761 
L 60.459487 107.181233 
L 60.567357 107.114351 
L 60.567357 107.047469 
L 60.641242 107.047469 
L 60.746192 106.980587 
L 60.844444 106.579295 
L 60.994565 106.512412 
L 61.10183 105.977356 
L 61.160752 105.910474 
L 61.265915 105.509182 
L 61.311408 105.4423 
L 61.341938 105.241654 
L 61.394733 105.241654 
L 61.455188 105.174772 
L 61.533027 104.907244 
L 61.624653 104.840362 
L 61.710507 104.505952 
L 61.764941 104.43907 
L 61.866863 104.238424 
L 61.932661 104.171542 
L 62.009111 103.703368 
L 62.054318 103.636486 
L 62.148829 103.302076 
L 62.306467 103.235193 
L 62.378998 102.767019 
L 62.391182 102.767019 
L 62.569375 102.700137 
L 62.673576 102.298845 
L 62.72231 102.231963 
L 62.822237 101.897553 
L 62.869902 101.830671 
L 62.943787 101.630025 
L 62.964698 101.630025 
L 63.113573 101.563143 
L 63.211647 101.295615 
L 63.293583 101.228733 
L 63.359096 101.028087 
L 63.532159 100.961205 
L 63.619439 100.693677 
L 63.640136 100.693677 
L 63.69685 100.626795 
L 63.782206 100.493031 
L 63.890504 100.426149 
L 63.987759 100.091739 
L 64.091497 100.024856 
L 64.16784 99.82421 
L 64.232748 99.757328 
L 64.284866 99.623564 
L 64.450448 99.556682 
L 64.537621 99.222272 
L 64.604666 99.15539 
L 64.66879 98.887862 
L 64.711646 98.887862 
L 64.748054 98.82098 
L 64.816666 98.687216 
L 64.817094 98.687216 
L 64.961194 98.620334 
L 65.063899 98.219042 
L 65.125316 98.15216 
L 65.204794 97.951514 
L 65.344512 97.884632 
L 65.375399 97.750868 
L 65.414158 97.750868 
L 65.493387 97.683986 
L 65.569694 97.416458 
L 65.74094 97.349576 
L 65.838765 97.015166 
L 65.999146 96.948284 
L 66.104986 96.346345 
L 66.153649 96.279463 
L 66.216241 95.878171 
L 66.256247 95.878171 
L 66.355603 95.811289 
L 66.447443 95.409997 
L 66.460054 95.409997 
L 66.48809 95.343115 
L 66.578576 94.674295 
L 66.628379 94.607413 
L 66.632618 94.473649 
L 66.735287 94.473649 
L 66.752209 94.406767 
L 66.825916 94.139239 
L 66.844619 94.139239 
L 66.914478 94.072357 
L 67.019712 93.871711 
L 67.02071 93.871711 
L 67.081449 93.804829 
L 67.095913 93.604183 
L 67.295195 93.537301 
L 67.40385 93.269772 
L 67.451444 93.20289 
L 67.50399 93.002244 
L 67.61382 92.935362 
L 67.702453 92.600952 
L 67.791407 92.53407 
L 67.819016 92.400306 
L 67.909965 92.333424 
L 67.972842 92.132778 
L 68.011031 92.132778 
L 68.11338 92.065896 
L 68.152211 91.86525 
L 68.287904 91.798368 
L 68.39011 91.463958 
L 68.397164 91.463958 
L 68.412767 91.397076 
L 68.519284 90.995784 
L 68.581698 90.928902 
L 68.668372 90.594492 
L 68.733386 90.52761 
L 68.810869 90.260081 
L 68.883472 90.193199 
L 68.883472 90.126317 
L 68.906165 90.126317 
L 69.126109 90.059435 
L 69.232947 89.925671 
L 69.281681 89.858789 
L 69.377582 89.524379 
L 69.38802 89.524379 
L 69.478292 89.457497 
L 69.586519 89.256851 
L 69.666175 89.189969 
L 69.722212 88.989323 
L 69.804077 88.922441 
L 69.860256 88.721795 
L 70.046465 88.654913 
L 70.146498 88.387385 
L 70.339119 88.320503 
L 70.352157 88.186739 
L 70.446491 88.186739 
L 70.631488 88.119857 
L 70.737185 87.919211 
L 71.008144 87.852329 
L 71.090365 87.584801 
L 71.157375 87.517919 
L 71.261825 87.116627 
L 71.408633 87.049745 
L 71.482198 86.849098 
L 71.518214 86.849098 
L 71.584368 86.782216 
L 71.674925 86.380924 
L 71.683582 86.380924 
L 71.742683 86.314042 
L 71.758429 86.180278 
L 71.981865 86.113396 
L 71.981865 86.046514 
L 72.108937 85.979632 
L 72.110682 85.845868 
L 72.144169 85.845868 
L 72.22867 85.778986 
L 72.335757 85.57834 
L 72.629801 85.511458 
L 72.697665 85.377694 
L 72.731045 85.377694 
L 72.983836 85.310812 
L 73.032712 85.043284 
L 73.061034 85.043284 
L 73.287711 84.976402 
L 73.373281 84.508228 
L 73.486068 84.441346 
L 73.589948 84.2407 
L 73.773093 84.173818 
L 73.838464 83.90629 
L 73.84623 83.90629 
L 73.9344 83.839408 
L 74.041879 83.571879 
L 74.191252 83.504997 
L 74.279565 83.170587 
L 74.284231 83.170587 
L 74.391069 83.103705 
L 74.444719 82.903059 
L 74.496339 82.903059 
L 74.596301 82.836177 
L 74.695265 82.568649 
L 74.721912 82.501767 
L 74.822231 82.368003 
L 74.879799 82.301121 
L 74.91065 82.100475 
L 75.23216 82.033593 
L 75.268782 81.832947 
L 75.301592 81.832947 
L 75.501801 81.766065 
L 75.501801 81.699183 
L 75.707531 81.632301 
L 75.802969 81.364773 
L 75.817611 81.364773 
L 76.070152 81.297891 
L 76.174709 81.164127 
L 76.350124 81.097245 
L 76.376806 80.896599 
L 76.547874 80.829717 
L 76.658631 80.495306 
L 76.696464 80.428424 
L 76.80722 80.027132 
L 76.894214 79.96025 
L 76.9111 79.826486 
L 76.98267 79.826486 
L 77.098627 79.759604 
L 77.156802 79.62584 
L 77.255232 79.558958 
L 77.32648 79.358312 
L 77.35612 79.358312 
L 77.47368 79.29143 
L 77.518781 79.090784 
L 77.695941 79.023902 
L 77.699325 78.890138 
L 77.778803 78.890138 
L 77.899712 78.823256 
L 78.007369 78.62261 
L 78.06704 78.555728 
L 78.142848 78.421964 
L 78.164365 78.421964 
L 78.338462 78.355082 
L 78.38285 78.154436 
L 78.476435 78.087554 
L 78.577893 77.753144 
L 78.679102 77.686262 
L 78.698944 77.552498 
L 78.761893 77.552498 
L 78.887611 77.485616 
L 78.887611 77.418734 
L 78.958432 77.418734 
L 79.107876 77.351852 
L 79.184968 77.151205 
L 79.213182 77.151205 
L 79.357888 77.084323 
L 79.384963 76.950559 
L 79.900091 76.883677 
L 79.900091 76.816795 
L 79.944515 76.816795 
L 80.335955 76.749913 
L 80.395911 76.616149 
L 80.471328 76.549267 
L 80.490493 76.348621 
L 80.517568 76.348621 
L 80.664518 76.281739 
L 80.760847 76.081093 
L 80.772852 76.081093 
L 80.902845 76.014211 
L 80.986919 75.813565 
L 81.116449 75.746683 
L 81.116449 75.679801 
L 81.215022 75.679801 
L 81.536068 75.612919 
L 81.580741 75.479155 
L 81.786899 75.412273 
L 81.844682 75.278509 
L 81.874642 75.278509 
L 81.950095 75.211627 
L 82.006809 75.010981 
L 82.043252 75.010981 
L 82.341108 74.944099 
L 82.363729 74.810335 
L 82.449904 74.810335 
L 82.508863 74.743453 
L 82.553393 74.542807 
L 82.576121 74.542807 
L 82.772554 74.475925 
L 82.869951 74.275279 
L 82.923067 74.208397 
L 82.987725 73.873986 
L 82.999125 73.873986 
L 83.126375 73.807104 
L 83.20222 73.67334 
L 83.290604 73.606458 
L 83.376601 73.472694 
L 83.73744 73.405812 
L 83.763054 73.205166 
L 83.792088 73.205166 
L 83.932127 73.138284 
L 84.014491 72.937638 
L 84.182887 72.870756 
L 84.263932 72.67011 
L 84.293287 72.67011 
L 84.63325 72.603228 
L 84.63325 72.536346 
L 84.671297 72.536346 
L 85.007128 72.469464 
L 85.007128 72.402582 
L 85.110759 72.402582 
L 85.64288 72.3357 
L 85.741025 72.135054 
L 85.744124 72.135054 
L 85.8583 72.068172 
L 85.947967 71.66688 
L 85.990645 71.599998 
L 85.992996 71.399352 
L 86.080276 71.399352 
L 86.134104 71.33247 
L 86.194844 71.198706 
L 86.354619 71.131824 
L 86.41429 70.99806 
L 86.552548 70.931178 
L 86.552548 70.864296 
L 86.611898 70.864296 
L 86.717489 70.797414 
L 86.79515 70.596767 
L 86.904695 70.529885 
L 86.91866 70.396121 
L 86.930986 70.396121 
L 87.148472 70.329239 
L 87.148472 70.262357 
L 87.237711 70.262357 
L 87.423528 70.195475 
L 87.423528 70.128593 
L 87.482094 70.128593 
L 87.812439 70.061711 
L 87.87439 69.794183 
L 87.889138 69.794183 
L 88.20046 69.727301 
L 88.223081 69.392891 
L 88.28806 69.392891 
L 88.979707 69.326009 
L 88.979707 69.259127 
L 89.053877 69.259127 
L 89.361956 69.192245 
L 89.361956 69.125363 
L 89.434701 69.125363 
L 89.660132 69.058481 
L 89.759132 68.857835 
L 89.871313 68.790953 
L 89.871313 68.724071 
L 90.074764 68.657189 
L 90.136679 68.456543 
L 90.276327 68.389661 
L 90.299732 68.255897 
L 90.754797 68.189015 
L 90.754797 68.122133 
L 91.107942 68.055251 
L 91.199247 67.854605 
L 91.342528 67.787723 
L 91.383781 67.587077 
L 91.649824 67.520194 
L 91.747328 67.38643 
L 92.103357 67.319548 
L 92.103357 67.252666 
L 92.201538 67.252666 
L 92.661306 67.185784 
L 92.661306 67.118902 
L 92.915379 67.05202 
L 92.915379 66.985138 
L 93.019046 66.985138 
L 93.035255 66.918256 
L 93.035255 66.851374 
L 93.352525 66.784492 
L 93.352525 66.71761 
L 93.355589 66.71761 
L 93.70884 66.650728 
L 93.803352 66.516964 
L 93.970929 66.450082 
L 93.970929 66.3832 
L 94.067186 66.3832 
L 94.18699 66.316318 
L 94.18699 66.249436 
L 94.433511 66.182554 
L 94.433511 66.115672 
L 94.651568 66.04879 
L 94.651568 65.981908 
L 94.749214 65.981908 
L 95.243751 65.915026 
L 95.243751 65.848144 
L 95.503061 65.781262 
L 95.59255 65.580616 
L 95.674664 65.513734 
L 95.681504 65.37997 
L 95.954208 65.313088 
L 95.981603 65.179324 
L 96.249178 65.112442 
L 96.251173 64.978678 
L 96.332503 64.978678 
L 96.559181 64.911796 
L 96.655723 64.778032 
L 97.131237 64.71115 
L 97.195254 64.577386 
L 97.307934 64.510504 
L 97.307934 64.443622 
L 97.318015 64.443622 
L 97.519435 64.37674 
L 97.625988 64.242975 
L 98.111227 64.176093 
L 98.111227 64.109211 
L 98.268224 64.042329 
L 98.268224 63.975447 
L 98.617663 63.908565 
L 98.617663 63.841683 
L 98.658631 63.841683 
L 98.95898 63.774801 
L 98.980925 63.641037 
L 99.157835 63.574155 
L 99.224239 63.440391 
L 99.263034 63.440391 
L 99.612865 63.373509 
L 99.612865 63.306627 
L 99.646886 63.306627 
L 99.895545 63.239745 
L 99.989023 62.972217 
L 100.258699 62.905335 
L 100.324854 62.771571 
L 100.897373 62.704689 
L 100.897373 62.637807 
L 101.36366 62.570925 
L 101.402099 62.437161 
L 101.431204 62.437161 
L 101.975188 62.370279 
L 102.032294 62.236515 
L 102.300189 62.169633 
L 102.37646 62.035869 
L 102.888846 61.968987 
L 102.917594 61.768341 
L 103.208895 61.701459 
L 103.307895 61.500813 
L 103.704216 61.433931 
L 103.704216 61.367049 
L 103.891315 61.300167 
L 103.982478 61.032639 
L 104.387598 60.965756 
L 104.464368 60.698228 
L 104.487489 60.698228 
L 105.160682 60.631346 
L 105.265703 60.4307 
L 105.507592 60.363818 
L 105.546743 60.230054 
L 105.807514 60.163172 
L 105.900173 59.962526 
L 106.104051 59.895644 
L 106.104051 59.828762 
L 106.354526 59.76188 
L 106.446615 59.628116 
L 106.699797 59.561234 
L 106.699797 59.494352 
L 106.97186 59.42747 
L 107.066015 59.226824 
L 107.340715 59.159942 
L 107.340715 59.09306 
L 107.402986 59.09306 
L 107.76126 59.026178 
L 107.86279 58.825532 
L 107.922461 58.75865 
L 108.000834 58.624886 
L 108.214082 58.558004 
L 108.279559 58.290476 
L 108.658745 58.223594 
L 108.658745 58.156712 
L 109.089016 58.08983 
L 109.089016 58.022948 
L 109.194143 58.022948 
L 109.659291 57.956066 
L 109.659291 57.889184 
L 109.671759 57.889184 
L 110.046029 57.822302 
L 110.046029 57.755419 
L 110.117669 57.755419 
L 110.202989 57.688537 
L 110.281078 57.487891 
L 110.97187 57.421009 
L 110.974114 57.287245 
L 111.580192 57.220363 
L 111.64086 57.019717 
L 111.722083 56.952835 
L 111.722083 56.885953 
L 111.953036 56.819071 
L 111.965718 56.685307 
L 112.184488 56.618425 
L 112.250036 56.484661 
L 112.725158 56.417779 
L 112.725158 56.350897 
L 113.342742 56.284015 
L 113.439641 56.083369 
L 113.441671 56.083369 
L 113.49379 56.016487 
L 113.543877 55.882723 
L 113.866349 55.815841 
L 113.885479 55.682077 
L 113.888294 55.682077 
L 114.086543 55.615195 
L 114.152484 55.481431 
L 114.651652 55.414549 
L 114.651652 55.347667 
L 115.85401 55.280785 
L 115.899966 55.147021 
L 115.988955 55.080139 
L 116.08963 54.879493 
L 116.684271 54.812611 
L 116.684271 54.745729 
L 117.047319 54.678847 
L 117.047319 54.611965 
L 117.202748 54.545083 
L 117.247706 54.344436 
L 117.393659 54.277554 
L 117.393659 54.210672 
L 117.396438 54.210672 
L 117.798495 54.14379 
L 117.858486 54.010026 
L 118.937192 53.943144 
L 118.971925 53.80938 
L 119.000638 53.80938 
L 119.586374 53.742498 
L 119.591326 53.608734 
L 119.885619 53.541852 
L 119.885619 53.47497 
L 120.141437 53.408088 
L 120.198436 53.274324 
L 120.628672 53.207442 
L 120.628672 53.14056 
L 120.670423 53.14056 
L 120.947545 53.073678 
L 120.947545 53.006796 
L 121.049787 53.006796 
L 122.023864 52.939914 
L 122.023864 52.873032 
L 122.134264 52.873032 
L 122.485841 52.80615 
L 122.585019 52.672386 
L 122.985437 52.605504 
L 123.008984 52.47174 
L 123.442105 52.404858 
L 123.446701 52.271094 
L 123.713777 52.204212 
L 123.784384 52.070448 
L 124.552552 52.003566 
L 124.553407 51.869802 
L 124.863589 51.80292 
L 124.932486 51.602274 
L 125.104302 51.535392 
L 125.169281 51.401628 
L 125.185526 51.401628 
L 126.092486 51.334746 
L 126.092486 51.267863 
L 126.397502 51.200981 
L 126.481718 51.067217 
L 126.809712 51.000335 
L 126.863896 50.866571 
L 127.084554 50.799689 
L 127.084554 50.732807 
L 127.724652 50.665925 
L 127.781366 50.532161 
L 127.791982 50.532161 
L 127.85461 50.465279 
L 127.896789 50.331515 
L 128.126281 50.264633 
L 128.134617 50.130869 
L 128.630152 50.063987 
L 128.630152 49.997105 
L 128.944679 49.930223 
L 128.944679 49.863341 
L 129.352756 49.796459 
L 129.352756 49.729577 
L 129.777007 49.662695 
L 129.777007 49.595813 
L 129.916619 49.528931 
L 129.997557 49.395167 
L 130.263422 49.328285 
L 130.331963 49.194521 
L 130.718309 49.127639 
L 130.718309 49.060757 
L 131.569767 48.993875 
L 131.569767 48.926993 
L 131.615438 48.926993 
L 131.929537 48.860111 
L 131.99017 48.726347 
L 132.057999 48.659465 
L 132.13908 48.525701 
L 132.387809 48.458819 
L 132.387809 48.391937 
L 132.842697 48.325055 
L 132.933539 48.191291 
L 133.594371 48.124409 
L 133.594371 48.057527 
L 133.938787 47.990644 
L 133.938787 47.923762 
L 133.991048 47.923762 
L 134.302725 47.85688 
L 134.350961 47.723116 
L 134.51095 47.656234 
L 134.51095 47.589352 
L 135.082934 47.52247 
L 135.082934 47.455588 
L 135.746224 47.388706 
L 135.814516 47.254942 
L 136.541788 47.18806 
L 136.541788 47.121178 
L 136.874341 47.054296 
L 136.98442 46.920532 
L 137.366313 46.85365 
L 137.465955 46.653004 
L 137.67735 46.586122 
L 137.67735 46.51924 
L 137.687823 46.51924 
L 138.063339 46.452358 
L 138.063339 46.385476 
L 138.742055 46.318594 
L 138.742055 46.251712 
L 139.422694 46.18483 
L 139.422694 46.117948 
L 139.639005 46.051066 
L 139.639005 45.984184 
L 140.462141 45.917302 
L 140.462141 45.85042 
L 141.858759 45.783538 
L 141.858759 45.716656 
L 142.56095 45.649774 
L 142.56095 45.582892 
L 143.885393 45.51601 
L 143.990413 45.382246 
L 144.414984 45.315364 
L 144.414984 45.248482 
L 144.960643 45.1816 
L 145.042436 44.980954 
L 145.286962 44.914072 
L 145.286962 44.84719 
L 145.820116 44.780308 
L 145.914057 44.646543 
L 146.836408 44.579661 
L 146.836408 44.512779 
L 147.576112 44.445897 
L 147.669341 44.312133 
L 148.087678 44.245251 
L 148.087678 44.178369 
L 148.257926 44.111487 
L 148.257926 44.044605 
L 149.228512 43.977723 
L 149.228512 43.910841 
L 149.784786 43.843959 
L 149.784786 43.777077 
L 150.37836 43.710195 
L 150.37836 43.643313 
L 150.627231 43.576431 
L 150.651634 43.442667 
L 151.39344 43.375785 
L 151.39344 43.308903 
L 151.648368 43.242021 
L 151.648368 43.175139 
L 152.431071 43.108257 
L 152.431071 43.041375 
L 152.535521 43.041375 
L 152.950509 42.974493 
L 152.950509 42.907611 
L 152.972454 42.907611 
L 153.736383 42.840729 
L 153.744149 42.706965 
L 153.936342 42.640083 
L 153.936342 42.573201 
L 153.942862 42.573201 
L 154.662723 42.506319 
L 154.718903 42.372555 
L 155.037883 42.305673 
L 155.037883 42.238791 
L 155.140374 42.238791 
L 155.289783 42.171909 
L 155.289783 42.105027 
L 155.348243 42.105027 
L 156.440093 42.038145 
L 156.440093 41.971263 
L 156.989279 41.904381 
L 157.090559 41.770617 
L 158.492912 41.703735 
L 158.492912 41.636853 
L 159.951301 41.569971 
L 159.951301 41.503088 
L 160.368676 41.436206 
L 160.368676 41.369324 
L 161.244964 41.302442 
L 161.249952 41.168678 
L 161.948047 41.101796 
L 161.948047 41.034914 
L 164.705087 40.968032 
L 164.705087 40.90115 
L 165.495378 40.834268 
L 165.495378 40.767386 
L 166.912123 40.700504 
L 166.912123 40.633622 
L 167.666611 40.56674 
L 167.666611 40.499858 
L 168.727505 40.432976 
L 168.727505 40.366094 
L 169.279504 40.299212 
L 169.279504 40.23233 
L 169.713302 40.165448 
L 169.757797 40.031684 
L 170.193661 39.964802 
L 170.283185 39.831038 
L 170.42244 39.764156 
L 170.45607 39.630392 
L 171.84574 39.56351 
L 171.955677 39.429746 
L 173.595609 39.362864 
L 173.595609 39.295982 
L 174.456329 39.2291 
L 174.456329 39.162218 
L 174.700285 39.095336 
L 174.700285 39.028454 
L 175.791031 38.961572 
L 175.791031 38.89469 
L 176.817725 38.827808 
L 176.817725 38.760926 
L 177.674669 38.694044 
L 177.674669 38.627162 
L 178.265143 38.56028 
L 178.265143 38.493398 
L 178.783442 38.426516 
L 178.783442 38.359634 
L 179.708357 38.292752 
L 179.708357 38.225869 
L 180.55497 38.158987 
L 180.55497 38.092105 
L 180.647237 38.092105 
L 180.874021 38.025223 
L 180.874021 37.958341 
L 181.313519 37.891459 
L 181.313519 37.824577 
L 181.749775 37.757695 
L 181.749775 37.690813 
L 182.623177 37.623931 
L 182.623177 37.557049 
L 183.724362 37.490167 
L 183.724362 37.423285 
L 183.793402 37.423285 
L 184.807343 37.356403 
L 184.807343 37.289521 
L 185.283035 37.222639 
L 185.283035 37.155757 
L 186.160641 37.088875 
L 186.215965 36.955111 
L 186.24507 36.955111 
L 186.988729 36.888229 
L 186.993324 36.754465 
L 188.035907 36.687583 
L 188.128316 36.486937 
L 189.27396 36.420055 
L 189.27396 36.353173 
L 190.021929 36.286291 
L 190.021929 36.219409 
L 192.869313 36.152527 
L 192.869313 36.085645 
L 194.267747 36.018763 
L 194.267747 35.951881 
L 195.015431 35.884999 
L 195.015431 35.818117 
L 195.985554 35.751235 
L 195.985554 35.684353 
L 196.34821 35.617471 
L 196.34821 35.550589 
L 196.504244 35.483707 
L 196.504244 35.416825 
L 196.94189 35.349943 
L 196.94189 35.283061 
L 197.999149 35.216179 
L 197.999149 35.149297 
L 199.087937 35.082415 
L 199.087937 35.015532 
L 199.642893 34.94865 
L 199.642893 34.881768 
L 200.451886 34.814886 
L 200.451886 34.748004 
L 200.894626 34.681122 
L 200.894626 34.61424 
L 202.632453 34.547358 
L 202.632453 34.480476 
L 205.969066 34.413594 
L 206.001199 34.27983 
L 207.257101 34.212948 
L 207.257101 34.146066 
L 208.901165 34.079184 
L 208.901165 34.012302 
L 211.035135 33.94542 
L 211.121168 33.811656 
L 211.773486 33.744774 
L 211.773486 33.677892 
L 212.481413 33.61101 
L 212.481413 33.544128 
L 213.157563 33.477246 
L 213.157563 33.410364 
L 213.671943 33.343482 
L 213.671943 33.2766 
L 215.467553 33.209718 
L 215.541973 33.075954 
L 216.190478 33.009072 
L 216.190478 32.94219 
L 217.121129 32.875308 
L 217.121129 32.808426 
L 217.179696 32.808426 
L 217.699811 32.741544 
L 217.71431 32.60778 
L 218.888382 32.540898 
L 218.888382 32.474016 
L 218.988024 32.474016 
L 219.963846 32.407134 
L 219.963846 32.340252 
L 221.200759 32.27337 
L 221.284619 32.139606 
L 221.82269 32.072724 
L 221.82269 32.005842 
L 222.300947 31.93896 
L 222.300947 31.872078 
L 223.8614 31.805196 
L 223.8614 31.738313 
L 225.633498 31.671431 
L 225.633498 31.604549 
L 225.932565 31.537667 
L 225.932565 31.470785 
L 226.757197 31.403903 
L 226.796242 31.270139 
L 228.425451 31.203257 
L 228.425451 31.136375 
L 229.884339 31.069493 
L 229.884339 31.002611 
L 230.879541 30.935729 
L 230.879541 30.868847 
L 234.07412 30.801965 
L 234.136356 30.668201 
L 234.999142 30.601319 
L 234.999142 30.534437 
L 235.352108 30.467555 
L 235.352108 30.400673 
L 237.661422 30.333791 
L 237.661422 30.266909 
L 237.68073 30.266909 
L 238.945181 30.200027 
L 238.945181 30.133145 
L 239.321731 30.066263 
L 239.321731 29.999381 
L 239.880249 29.932499 
L 239.880249 29.865617 
L 242.147063 29.798735 
L 242.147063 29.731853 
L 242.992821 29.664971 
L 242.992821 29.598089 
L 245.004029 29.531207 
L 245.063095 29.330561 
L 245.464795 29.263679 
L 245.464795 29.196797 
L 247.026816 29.129915 
L 247.026816 29.063033 
L 248.932684 28.996151 
L 248.932684 28.929269 
L 251.203167 28.862387 
L 251.203167 28.795505 
L 253.068173 28.728623 
L 253.068173 28.661741 
L 253.168883 28.661741 
L 254.00235 28.594859 
L 254.00235 28.527977 
L 254.103737 28.527977 
L 254.678038 28.461094 
L 254.678038 28.394212 
L 254.782595 28.394212 
L 256.520957 28.32733 
L 256.520957 28.260448 
L 259.926076 28.193566 
L 260.010256 28.059802 
L 260.035941 28.059802 
L 260.141746 27.99292 
L 260.141746 27.926038 
L 261.58553 27.859156 
L 261.58553 27.792274 
L 262.927642 27.725392 
L 262.927642 27.65851 
L 262.949266 27.65851 
L 268.019502 27.591628 
L 268.019502 27.524746 
L 271.665869 27.457864 
L 271.665869 27.390982 
L 272.806276 27.3241 
L 272.806276 27.257218 
L 274.43919 27.190336 
L 274.43919 27.123454 
L 274.469898 27.123454 
L 279.142888 27.056572 
L 279.142888 26.98969 
L 280.948116 26.922808 
L 280.948116 26.855926 
L 282.023758 26.789044 
L 282.023758 26.789044 
" clip-path="url(#ped99277bd7)" style="fill: none; stroke: #1f77b4; stroke-width: 1.5; stroke-linecap: round"/>
   </g>
   <g id="patch_3">
    <path d="M 35.655938 265.022801 
L 35.655938 19.642031 
" style="fill: none"/>
   </g>
   <g id="patch_4">
    <path d="M 289.19952 265.022801 
L 289.19952 19.642031 
" style="fill: none"/>
   </g>
   <g id="patch_5">
    <path d="M 35.655938 265.022801 
L 289.19952 265.022801 
" style="fill: none"/>
   </g>
   <g id="patch_6">
    <path d="M 35.655938 19.642031 
L 289.19952 19.642031 
" style="fill: none"/>
   </g>
   <g id="text_15">
    <!-- Model 0: Precision-Recall Curve -->
    <g style="fill: #333333" transform="translate(93.910307 13.642031) scale(0.09 -0.09)">
     <defs>
      <path id="Arial-BoldMT-4d" d="M 453 0 
L 453 4581 
L 1838 4581 
L 2669 1456 
L 3491 4581 
L 4878 4581 
L 4878 0 
L 4019 0 
L 4019 3606 
L 3109 0 
L 2219 0 
L 1313 3606 
L 1313 0 
L 453 0 
z
" transform="scale(0.015625)"/>
      <path id="Arial-BoldMT-64" d="M 3503 0 
L 2688 0 
L 2688 488 
Q 2484 203 2207 64 
Q 1931 -75 1650 -75 
Q 1078 -75 670 386 
Q 263 847 263 1672 
Q 263 2516 659 2955 
Q 1056 3394 1663 3394 
Q 2219 3394 2625 2931 
L 2625 4581 
L 3503 4581 
L 3503 0 
z
M 1159 1731 
Q 1159 1200 1306 963 
Q 1519 619 1900 619 
Q 2203 619 2415 876 
Q 2628 1134 2628 1647 
Q 2628 2219 2422 2470 
Q 2216 2722 1894 2722 
Q 1581 2722 1370 2473 
Q 1159 2225 1159 1731 
z
" transform="scale(0.015625)"/>
      <path id="Arial-BoldMT-30" d="M 1756 4600 
Q 2422 4600 2797 4125 
Q 3244 3563 3244 2259 
Q 3244 959 2794 391 
Q 2422 -78 1756 -78 
Q 1088 -78 678 436 
Q 269 950 269 2269 
Q 269 3563 719 4131 
Q 1091 4600 1756 4600 
z
M 1756 3872 
Q 1597 3872 1472 3770 
Q 1347 3669 1278 3406 
Q 1188 3066 1188 2259 
Q 1188 1453 1269 1151 
Q 1350 850 1473 750 
Q 1597 650 1756 650 
Q 1916 650 2041 751 
Q 2166 853 2234 1116 
Q 2325 1453 2325 2259 
Q 2325 3066 2244 3367 
Q 2163 3669 2039 3770 
Q 1916 3872 1756 3872 
z
" transform="scale(0.015625)"/>
      <path id="Arial-BoldMT-3a" d="M 628 2441 
L 628 3319 
L 1506 3319 
L 1506 2441 
L 628 2441 
z
M 628 0 
L 628 878 
L 1506 878 
L 1506 0 
L 628 0 
z
" transform="scale(0.015625)"/>
      <path id="Arial-BoldMT-2d" d="M 359 1222 
L 359 2100 
L 2084 2100 
L 2084 1222 
L 359 1222 
z
" transform="scale(0.015625)"/>
      <path id="Arial-BoldMT-43" d="M 3397 1684 
L 4294 1400 
Q 4088 650 3608 286 
Q 3128 -78 2391 -78 
Q 1478 -78 890 545 
Q 303 1169 303 2250 
Q 303 3394 893 4026 
Q 1484 4659 2447 4659 
Q 3288 4659 3813 4163 
Q 4125 3869 4281 3319 
L 3366 3100 
Q 3284 3456 3026 3662 
Q 2769 3869 2400 3869 
Q 1891 3869 1573 3503 
Q 1256 3138 1256 2319 
Q 1256 1450 1568 1081 
Q 1881 713 2381 713 
Q 2750 713 3015 947 
Q 3281 1181 3397 1684 
z
" transform="scale(0.015625)"/>
      <path id="Arial-BoldMT-75" d="M 2644 0 
L 2644 497 
Q 2463 231 2167 78 
Q 1872 -75 1544 -75 
Q 1209 -75 943 72 
Q 678 219 559 484 
Q 441 750 441 1219 
L 441 3319 
L 1319 3319 
L 1319 1794 
Q 1319 1094 1367 936 
Q 1416 778 1544 686 
Q 1672 594 1869 594 
Q 2094 594 2272 717 
Q 2450 841 2515 1023 
Q 2581 1206 2581 1919 
L 2581 3319 
L 3459 3319 
L 3459 0 
L 2644 0 
z
" transform="scale(0.015625)"/>
      <path id="Arial-BoldMT-76" d="M 1372 0 
L 34 3319 
L 956 3319 
L 1581 1625 
L 1763 1059 
Q 1834 1275 1853 1344 
Q 1897 1484 1947 1625 
L 2578 3319 
L 3481 3319 
L 2163 0 
L 1372 0 
z
" transform="scale(0.015625)"/>
     </defs>
     <use xlink:href="#Arial-BoldMT-4d"/>
     <use xlink:href="#Arial-BoldMT-6f" transform="translate(83.300781 0)"/>
     <use xlink:href="#Arial-BoldMT-64" transform="translate(144.384766 0)"/>
     <use xlink:href="#Arial-BoldMT-65" transform="translate(205.46875 0)"/>
     <use xlink:href="#Arial-BoldMT-6c" transform="translate(261.083984 0)"/>
     <use xlink:href="#Arial-BoldMT-20" transform="translate(288.867188 0)"/>
     <use xlink:href="#Arial-BoldMT-30" transform="translate(316.650391 0)"/>
     <use xlink:href="#Arial-BoldMT-3a" transform="translate(372.265625 0)"/>
     <use xlink:href="#Arial-BoldMT-20" transform="translate(405.566406 0)"/>
     <use xlink:href="#Arial-BoldMT-50" transform="translate(433.349609 0)"/>
     <use xlink:href="#Arial-BoldMT-72" transform="translate(500.048828 0)"/>
     <use xlink:href="#Arial-BoldMT-65" transform="translate(538.964844 0)"/>
     <use xlink:href="#Arial-BoldMT-63" transform="translate(594.580078 0)"/>
     <use xlink:href="#Arial-BoldMT-69" transform="translate(650.195312 0)"/>
     <use xlink:href="#Arial-BoldMT-73" transform="translate(677.978516 0)"/>
     <use xlink:href="#Arial-BoldMT-69" transform="translate(733.59375 0)"/>
     <use xlink:href="#Arial-BoldMT-6f" transform="translate(761.376953 0)"/>
     <use xlink:href="#Arial-BoldMT-6e" transform="translate(822.460938 0)"/>
     <use xlink:href="#Arial-BoldMT-2d" transform="translate(883.544922 0)"/>
     <use xlink:href="#Arial-BoldMT-52" transform="translate(916.845703 0)"/>
     <use xlink:href="#Arial-BoldMT-65" transform="translate(989.0625 0)"/>
     <use xlink:href="#Arial-BoldMT-63" transform="translate(1044.677734 0)"/>
     <use xlink:href="#Arial-BoldMT-61" transform="translate(1100.292969 0)"/>
     <use xlink:href="#Arial-BoldMT-6c" transform="translate(1155.908203 0)"/>
     <use xlink:href="#Arial-BoldMT-6c" transform="translate(1183.691406 0)"/>
     <use xlink:href="#Arial-BoldMT-20" transform="translate(1211.474609 0)"/>
     <use xlink:href="#Arial-BoldMT-43" transform="translate(1239.257812 0)"/>
     <use xlink:href="#Arial-BoldMT-75" transform="translate(1311.474609 0)"/>
     <use xlink:href="#Arial-BoldMT-72" transform="translate(1372.558594 0)"/>
     <use xlink:href="#Arial-BoldMT-76" transform="translate(1411.474609 0)"/>
     <use xlink:href="#Arial-BoldMT-65" transform="translate(1467.089844 0)"/>
    </g>
   </g>
   <g id="legend_1">
    <g id="patch_7">
     <path d="M 164.573426 260.522801 
L 282.89952 260.522801 
Q 284.69952 260.522801 284.69952 258.722801 
L 284.69952 246.89202 
Q 284.69952 245.09202 282.89952 245.09202 
L 164.573426 245.09202 
Q 162.773426 245.09202 162.773426 246.89202 
L 162.773426 258.722801 
Q 162.773426 260.522801 164.573426 260.522801 
z
" style="fill: #ffffff; opacity: 0.8; stroke: #cccccc; stroke-width: 0.75; stroke-linejoin: miter"/>
    </g>
    <g id="line2d_26">
     <path d="M 166.373426 251.984051 
L 175.373426 251.984051 
L 184.373426 251.984051 
" style="fill: none; stroke: #1f77b4; stroke-width: 1.5; stroke-linecap: round"/>
    </g>
    <g id="text_16">
     <!-- Precision-Recall curve -->
     <g style="fill: #333333" transform="translate(191.573426 255.134051) scale(0.09 -0.09)">
      <defs>
       <path id="ArialMT-50" d="M 494 0 
L 494 4581 
L 2222 4581 
Q 2678 4581 2919 4538 
Q 3256 4481 3484 4323 
Q 3713 4166 3852 3881 
Q 3991 3597 3991 3256 
Q 3991 2672 3619 2267 
Q 3247 1863 2275 1863 
L 1100 1863 
L 1100 0 
L 494 0 
z
M 1100 2403 
L 2284 2403 
Q 2872 2403 3119 2622 
Q 3366 2841 3366 3238 
Q 3366 3525 3220 3729 
Q 3075 3934 2838 4000 
Q 2684 4041 2272 4041 
L 1100 4041 
L 1100 2403 
z
" transform="scale(0.015625)"/>
       <path id="ArialMT-72" d="M 416 0 
L 416 3319 
L 922 3319 
L 922 2816 
Q 1116 3169 1280 3281 
Q 1444 3394 1641 3394 
Q 1925 3394 2219 3213 
L 2025 2691 
Q 1819 2813 1613 2813 
Q 1428 2813 1281 2702 
Q 1134 2591 1072 2394 
Q 978 2094 978 1738 
L 978 0 
L 416 0 
z
" transform="scale(0.015625)"/>
       <path id="ArialMT-65" d="M 2694 1069 
L 3275 997 
Q 3138 488 2766 206 
Q 2394 -75 1816 -75 
Q 1088 -75 661 373 
Q 234 822 234 1631 
Q 234 2469 665 2931 
Q 1097 3394 1784 3394 
Q 2450 3394 2872 2941 
Q 3294 2488 3294 1666 
Q 3294 1616 3291 1516 
L 816 1516 
Q 847 969 1125 678 
Q 1403 388 1819 388 
Q 2128 388 2347 550 
Q 2566 713 2694 1069 
z
M 847 1978 
L 2700 1978 
Q 2663 2397 2488 2606 
Q 2219 2931 1791 2931 
Q 1403 2931 1139 2672 
Q 875 2413 847 1978 
z
" transform="scale(0.015625)"/>
       <path id="ArialMT-63" d="M 2588 1216 
L 3141 1144 
Q 3050 572 2676 248 
Q 2303 -75 1759 -75 
Q 1078 -75 664 370 
Q 250 816 250 1647 
Q 250 2184 428 2587 
Q 606 2991 970 3192 
Q 1334 3394 1763 3394 
Q 2303 3394 2647 3120 
Q 2991 2847 3088 2344 
L 2541 2259 
Q 2463 2594 2264 2762 
Q 2066 2931 1784 2931 
Q 1359 2931 1093 2626 
Q 828 2322 828 1663 
Q 828 994 1084 691 
Q 1341 388 1753 388 
Q 2084 388 2306 591 
Q 2528 794 2588 1216 
z
" transform="scale(0.015625)"/>
       <path id="ArialMT-69" d="M 425 3934 
L 425 4581 
L 988 4581 
L 988 3934 
L 425 3934 
z
M 425 0 
L 425 3319 
L 988 3319 
L 988 0 
L 425 0 
z
" transform="scale(0.015625)"/>
       <path id="ArialMT-73" d="M 197 991 
L 753 1078 
Q 800 744 1014 566 
Q 1228 388 1613 388 
Q 2000 388 2187 545 
Q 2375 703 2375 916 
Q 2375 1106 2209 1216 
Q 2094 1291 1634 1406 
Q 1016 1563 777 1677 
Q 538 1791 414 1992 
Q 291 2194 291 2438 
Q 291 2659 392 2848 
Q 494 3038 669 3163 
Q 800 3259 1026 3326 
Q 1253 3394 1513 3394 
Q 1903 3394 2198 3281 
Q 2494 3169 2634 2976 
Q 2775 2784 2828 2463 
L 2278 2388 
Q 2241 2644 2061 2787 
Q 1881 2931 1553 2931 
Q 1166 2931 1000 2803 
Q 834 2675 834 2503 
Q 834 2394 903 2306 
Q 972 2216 1119 2156 
Q 1203 2125 1616 2013 
Q 2213 1853 2448 1751 
Q 2684 1650 2818 1456 
Q 2953 1263 2953 975 
Q 2953 694 2789 445 
Q 2625 197 2315 61 
Q 2006 -75 1616 -75 
Q 969 -75 630 194 
Q 291 463 197 991 
z
" transform="scale(0.015625)"/>
       <path id="ArialMT-6f" d="M 213 1659 
Q 213 2581 725 3025 
Q 1153 3394 1769 3394 
Q 2453 3394 2887 2945 
Q 3322 2497 3322 1706 
Q 3322 1066 3130 698 
Q 2938 331 2570 128 
Q 2203 -75 1769 -75 
Q 1072 -75 642 372 
Q 213 819 213 1659 
z
M 791 1659 
Q 791 1022 1069 705 
Q 1347 388 1769 388 
Q 2188 388 2466 706 
Q 2744 1025 2744 1678 
Q 2744 2294 2464 2611 
Q 2184 2928 1769 2928 
Q 1347 2928 1069 2612 
Q 791 2297 791 1659 
z
" transform="scale(0.015625)"/>
       <path id="ArialMT-6e" d="M 422 0 
L 422 3319 
L 928 3319 
L 928 2847 
Q 1294 3394 1984 3394 
Q 2284 3394 2536 3286 
Q 2788 3178 2913 3003 
Q 3038 2828 3088 2588 
Q 3119 2431 3119 2041 
L 3119 0 
L 2556 0 
L 2556 2019 
Q 2556 2363 2490 2533 
Q 2425 2703 2258 2804 
Q 2091 2906 1866 2906 
Q 1506 2906 1245 2678 
Q 984 2450 984 1813 
L 984 0 
L 422 0 
z
" transform="scale(0.015625)"/>
       <path id="ArialMT-2d" d="M 203 1375 
L 203 1941 
L 1931 1941 
L 1931 1375 
L 203 1375 
z
" transform="scale(0.015625)"/>
       <path id="ArialMT-52" d="M 503 0 
L 503 4581 
L 2534 4581 
Q 3147 4581 3465 4457 
Q 3784 4334 3975 4021 
Q 4166 3709 4166 3331 
Q 4166 2844 3850 2509 
Q 3534 2175 2875 2084 
Q 3116 1969 3241 1856 
Q 3506 1613 3744 1247 
L 4541 0 
L 3778 0 
L 3172 953 
Q 2906 1366 2734 1584 
Q 2563 1803 2427 1890 
Q 2291 1978 2150 2013 
Q 2047 2034 1813 2034 
L 1109 2034 
L 1109 0 
L 503 0 
z
M 1109 2559 
L 2413 2559 
Q 2828 2559 3062 2645 
Q 3297 2731 3419 2920 
Q 3541 3109 3541 3331 
Q 3541 3656 3305 3865 
Q 3069 4075 2559 4075 
L 1109 4075 
L 1109 2559 
z
" transform="scale(0.015625)"/>
       <path id="ArialMT-61" d="M 2588 409 
Q 2275 144 1986 34 
Q 1697 -75 1366 -75 
Q 819 -75 525 192 
Q 231 459 231 875 
Q 231 1119 342 1320 
Q 453 1522 633 1644 
Q 813 1766 1038 1828 
Q 1203 1872 1538 1913 
Q 2219 1994 2541 2106 
Q 2544 2222 2544 2253 
Q 2544 2597 2384 2738 
Q 2169 2928 1744 2928 
Q 1347 2928 1158 2789 
Q 969 2650 878 2297 
L 328 2372 
Q 403 2725 575 2942 
Q 747 3159 1072 3276 
Q 1397 3394 1825 3394 
Q 2250 3394 2515 3294 
Q 2781 3194 2906 3042 
Q 3031 2891 3081 2659 
Q 3109 2516 3109 2141 
L 3109 1391 
Q 3109 606 3145 398 
Q 3181 191 3288 0 
L 2700 0 
Q 2613 175 2588 409 
z
M 2541 1666 
Q 2234 1541 1622 1453 
Q 1275 1403 1131 1340 
Q 988 1278 909 1158 
Q 831 1038 831 891 
Q 831 666 1001 516 
Q 1172 366 1500 366 
Q 1825 366 2078 508 
Q 2331 650 2450 897 
Q 2541 1088 2541 1459 
L 2541 1666 
z
" transform="scale(0.015625)"/>
       <path id="ArialMT-6c" d="M 409 0 
L 409 4581 
L 972 4581 
L 972 0 
L 409 0 
z
" transform="scale(0.015625)"/>
       <path id="ArialMT-20" transform="scale(0.015625)"/>
       <path id="ArialMT-75" d="M 2597 0 
L 2597 488 
Q 2209 -75 1544 -75 
Q 1250 -75 995 37 
Q 741 150 617 320 
Q 494 491 444 738 
Q 409 903 409 1263 
L 409 3319 
L 972 3319 
L 972 1478 
Q 972 1038 1006 884 
Q 1059 663 1231 536 
Q 1403 409 1656 409 
Q 1909 409 2131 539 
Q 2353 669 2445 892 
Q 2538 1116 2538 1541 
L 2538 3319 
L 3100 3319 
L 3100 0 
L 2597 0 
z
" transform="scale(0.015625)"/>
       <path id="ArialMT-76" d="M 1344 0 
L 81 3319 
L 675 3319 
L 1388 1331 
Q 1503 1009 1600 663 
Q 1675 925 1809 1294 
L 2547 3319 
L 3125 3319 
L 1869 0 
L 1344 0 
z
" transform="scale(0.015625)"/>
      </defs>
      <use xlink:href="#ArialMT-50"/>
      <use xlink:href="#ArialMT-72" transform="translate(66.699219 0)"/>
      <use xlink:href="#ArialMT-65" transform="translate(100 0)"/>
      <use xlink:href="#ArialMT-63" transform="translate(155.615234 0)"/>
      <use xlink:href="#ArialMT-69" transform="translate(205.615234 0)"/>
      <use xlink:href="#ArialMT-73" transform="translate(227.832031 0)"/>
      <use xlink:href="#ArialMT-69" transform="translate(277.832031 0)"/>
      <use xlink:href="#ArialMT-6f" transform="translate(300.048828 0)"/>
      <use xlink:href="#ArialMT-6e" transform="translate(355.664062 0)"/>
      <use xlink:href="#ArialMT-2d" transform="translate(411.279297 0)"/>
      <use xlink:href="#ArialMT-52" transform="translate(444.580078 0)"/>
      <use xlink:href="#ArialMT-65" transform="translate(516.796875 0)"/>
      <use xlink:href="#ArialMT-63" transform="translate(572.412109 0)"/>
      <use xlink:href="#ArialMT-61" transform="translate(622.412109 0)"/>
      <use xlink:href="#ArialMT-6c" transform="translate(678.027344 0)"/>
      <use xlink:href="#ArialMT-6c" transform="translate(700.244141 0)"/>
      <use xlink:href="#ArialMT-20" transform="translate(722.460938 0)"/>
      <use xlink:href="#ArialMT-63" transform="translate(750.244141 0)"/>
      <use xlink:href="#ArialMT-75" transform="translate(800.244141 0)"/>
      <use xlink:href="#ArialMT-72" transform="translate(855.859375 0)"/>
      <use xlink:href="#ArialMT-76" transform="translate(889.160156 0)"/>
      <use xlink:href="#ArialMT-65" transform="translate(939.160156 0)"/>
     </g>
    </g>
   </g>
  </g>
 </g>
 <defs>
  <clipPath id="ped99277bd7">
   <rect x="35.655938" y="19.642031" width="253.543583" height="245.38077"/>
  </clipPath>
 </defs>
</svg>
