<?xml version="1.0" encoding="utf-8" standalone="no"?>
<!DOCTYPE svg PUBLIC "-//W3C//DTD SVG 1.1//EN"
  "http://www.w3.org/Graphics/SVG/1.1/DTD/svg11.dtd">
<svg xmlns:xlink="http://www.w3.org/1999/xlink" width="296.39952pt" height="296.39952pt" viewBox="0 0 296.39952 296.39952" xmlns="http://www.w3.org/2000/svg" version="1.1">
 <metadata>
  <rdf:RDF xmlns:dc="http://purl.org/dc/elements/1.1/" xmlns:cc="http://creativecommons.org/ns#" xmlns:rdf="http://www.w3.org/1999/02/22-rdf-syntax-ns#">
   <cc:Work>
    <dc:type rdf:resource="http://purl.org/dc/dcmitype/StillImage"/>
    <dc:date>2026-01-08T22:36:54.156941</dc:date>
    <dc:format>image/svg+xml</dc:format>
    <dc:creator>
     <cc:Agent>
      <dc:title>Matplotlib v3.10.8, https://matplotlib.org/</dc:title>
     </cc:Agent>
    </dc:creator>
   </cc:Work>
  </rdf:RDF>
 </metadata>
 <defs>
  <style type="text/css">*{stroke-linejoin: round; stroke-linecap: butt}</style>
 </defs>
 <g id="figure_1">
  <g id="patch_1">
   <path d="M 0 296.39952 
L 296.39952 296.39952 
L 296.39952 0 
L 0 0 
z
" style="fill: #ffffff"/>
  </g>
  <g id="axes_1">
   <g id="patch_2">
    <path d="M 35.655938 265.022801 
L 289.19952 265.022801 
L 289.19952 19.751719 
L 35.655938 19.751719 
z
" style="fill: #ffffff"/>
   </g>
   <g id="matplotlib.axis_1">
    <g id="xtick_1">
     <g id="line2d_1">
      <path d="M 42.831699 265.022801 
L 42.831699 19.751719 
" clip-path="url(#p482491acf3)" style="fill: none; stroke: #c0c0c0; stroke-width: 0.25; stroke-linecap: round"/>
     </g>
     <g id="line2d_2"/>
     <g id="text_1">
      <!-- 0.0 -->
      <g style="fill: #333333" transform="translate(36.576699 274.964832) scale(0.09 -0.09)">
       <defs>
        <path id="ArialMT-30" d="M 266 2259 
Q 266 3072 433 3567 
Q 600 4063 929 4331 
Q 1259 4600 1759 4600 
Q 2128 4600 2406 4451 
Q 2684 4303 2865 4023 
Q 3047 3744 3150 3342 
Q 3253 2941 3253 2259 
Q 3253 1453 3087 958 
Q 2922 463 2592 192 
Q 2263 -78 1759 -78 
Q 1097 -78 719 397 
Q 266 969 266 2259 
z
M 844 2259 
Q 844 1131 1108 757 
Q 1372 384 1759 384 
Q 2147 384 2411 759 
Q 2675 1134 2675 2259 
Q 2675 3391 2411 3762 
Q 2147 4134 1753 4134 
Q 1366 4134 1134 3806 
Q 844 3388 844 2259 
z
" transform="scale(0.015625)"/>
        <path id="ArialMT-2e" d="M 581 0 
L 581 641 
L 1222 641 
L 1222 0 
L 581 0 
z
" transform="scale(0.015625)"/>
       </defs>
       <use xlink:href="#ArialMT-30"/>
       <use xlink:href="#ArialMT-2e" transform="translate(55.615234 0)"/>
       <use xlink:href="#ArialMT-30" transform="translate(83.398438 0)"/>
      </g>
     </g>
    </g>
    <g id="xtick_2">
     <g id="line2d_3">
      <path d="M 90.670111 265.022801 
L 90.670111 19.751719 
" clip-path="url(#p482491acf3)" style="fill: none; stroke: #c0c0c0; stroke-width: 0.25; stroke-linecap: round"/>
     </g>
     <g id="line2d_4"/>
     <g id="text_2">
      <!-- 0.2 -->
      <g style="fill: #333333" transform="translate(84.415111 274.964832) scale(0.09 -0.09)">
       <defs>
        <path id="ArialMT-32" d="M 3222 541 
L 3222 0 
L 194 0 
Q 188 203 259 391 
Q 375 700 629 1000 
Q 884 1300 1366 1694 
Q 2113 2306 2375 2664 
Q 2638 3022 2638 3341 
Q 2638 3675 2398 3904 
Q 2159 4134 1775 4134 
Q 1369 4134 1125 3890 
Q 881 3647 878 3216 
L 300 3275 
Q 359 3922 746 4261 
Q 1134 4600 1788 4600 
Q 2447 4600 2831 4234 
Q 3216 3869 3216 3328 
Q 3216 3053 3103 2787 
Q 2991 2522 2730 2228 
Q 2469 1934 1863 1422 
Q 1356 997 1212 845 
Q 1069 694 975 541 
L 3222 541 
z
" transform="scale(0.015625)"/>
       </defs>
       <use xlink:href="#ArialMT-30"/>
       <use xlink:href="#ArialMT-2e" transform="translate(55.615234 0)"/>
       <use xlink:href="#ArialMT-32" transform="translate(83.398438 0)"/>
      </g>
     </g>
    </g>
    <g id="xtick_3">
     <g id="line2d_5">
      <path d="M 138.508523 265.022801 
L 138.508523 19.751719 
" clip-path="url(#p482491acf3)" style="fill: none; stroke: #c0c0c0; stroke-width: 0.25; stroke-linecap: round"/>
     </g>
     <g id="line2d_6"/>
     <g id="text_3">
      <!-- 0.4 -->
      <g style="fill: #333333" transform="translate(132.253523 274.964832) scale(0.09 -0.09)">
       <defs>
        <path id="ArialMT-34" d="M 2069 0 
L 2069 1097 
L 81 1097 
L 81 1613 
L 2172 4581 
L 2631 4581 
L 2631 1613 
L 3250 1613 
L 3250 1097 
L 2631 1097 
L 2631 0 
L 2069 0 
z
M 2069 1613 
L 2069 3678 
L 634 1613 
L 2069 1613 
z
" transform="scale(0.015625)"/>
       </defs>
       <use xlink:href="#ArialMT-30"/>
       <use xlink:href="#ArialMT-2e" transform="translate(55.615234 0)"/>
       <use xlink:href="#ArialMT-34" transform="translate(83.398438 0)"/>
      </g>
     </g>
    </g>
    <g id="xtick_4">
     <g id="line2d_7">
      <path d="M 186.346935 265.022801 
L 186.346935 19.751719 
" clip-path="url(#p482491acf3)" style="fill: none; stroke: #c0c0c0; stroke-width: 0.25; stroke-linecap: round"/>
     </g>
     <g id="line2d_8"/>
     <g id="text_4">
      <!-- 0.6 -->
      <g style="fill: #333333" transform="translate(180.091935 274.964832) scale(0.09 -0.09)">
       <defs>
        <path id="ArialMT-36" d="M 3184 3459 
L 2625 3416 
Q 2550 3747 2413 3897 
Q 2184 4138 1850 4138 
Q 1581 4138 1378 3988 
Q 1113 3794 959 3422 
Q 806 3050 800 2363 
Q 1003 2672 1297 2822 
Q 1591 2972 1913 2972 
Q 2475 2972 2870 2558 
Q 3266 2144 3266 1488 
Q 3266 1056 3080 686 
Q 2894 316 2569 119 
Q 2244 -78 1831 -78 
Q 1128 -78 684 439 
Q 241 956 241 2144 
Q 241 3472 731 4075 
Q 1159 4600 1884 4600 
Q 2425 4600 2770 4297 
Q 3116 3994 3184 3459 
z
M 888 1484 
Q 888 1194 1011 928 
Q 1134 663 1356 523 
Q 1578 384 1822 384 
Q 2178 384 2434 671 
Q 2691 959 2691 1453 
Q 2691 1928 2437 2201 
Q 2184 2475 1800 2475 
Q 1419 2475 1153 2201 
Q 888 1928 888 1484 
z
" transform="scale(0.015625)"/>
       </defs>
       <use xlink:href="#ArialMT-30"/>
       <use xlink:href="#ArialMT-2e" transform="translate(55.615234 0)"/>
       <use xlink:href="#ArialMT-36" transform="translate(83.398438 0)"/>
      </g>
     </g>
    </g>
    <g id="xtick_5">
     <g id="line2d_9">
      <path d="M 234.185346 265.022801 
L 234.185346 19.751719 
" clip-path="url(#p482491acf3)" style="fill: none; stroke: #c0c0c0; stroke-width: 0.25; stroke-linecap: round"/>
     </g>
     <g id="line2d_10"/>
     <g id="text_5">
      <!-- 0.8 -->
      <g style="fill: #333333" transform="translate(227.930346 274.964832) scale(0.09 -0.09)">
       <defs>
        <path id="ArialMT-38" d="M 1131 2484 
Q 781 2613 612 2850 
Q 444 3088 444 3419 
Q 444 3919 803 4259 
Q 1163 4600 1759 4600 
Q 2359 4600 2725 4251 
Q 3091 3903 3091 3403 
Q 3091 3084 2923 2848 
Q 2756 2613 2416 2484 
Q 2838 2347 3058 2040 
Q 3278 1734 3278 1309 
Q 3278 722 2862 322 
Q 2447 -78 1769 -78 
Q 1091 -78 675 323 
Q 259 725 259 1325 
Q 259 1772 486 2073 
Q 713 2375 1131 2484 
z
M 1019 3438 
Q 1019 3113 1228 2906 
Q 1438 2700 1772 2700 
Q 2097 2700 2305 2904 
Q 2513 3109 2513 3406 
Q 2513 3716 2298 3927 
Q 2084 4138 1766 4138 
Q 1444 4138 1231 3931 
Q 1019 3725 1019 3438 
z
M 838 1322 
Q 838 1081 952 856 
Q 1066 631 1291 507 
Q 1516 384 1775 384 
Q 2178 384 2440 643 
Q 2703 903 2703 1303 
Q 2703 1709 2433 1975 
Q 2163 2241 1756 2241 
Q 1359 2241 1098 1978 
Q 838 1716 838 1322 
z
" transform="scale(0.015625)"/>
       </defs>
       <use xlink:href="#ArialMT-30"/>
       <use xlink:href="#ArialMT-2e" transform="translate(55.615234 0)"/>
       <use xlink:href="#ArialMT-38" transform="translate(83.398438 0)"/>
      </g>
     </g>
    </g>
    <g id="xtick_6">
     <g id="line2d_11">
      <path d="M 282.023758 265.022801 
L 282.023758 19.751719 
" clip-path="url(#p482491acf3)" style="fill: none; stroke: #c0c0c0; stroke-width: 0.25; stroke-linecap: round"/>
     </g>
     <g id="line2d_12"/>
     <g id="text_6">
      <!-- 1.0 -->
      <g style="fill: #333333" transform="translate(275.768758 274.964832) scale(0.09 -0.09)">
       <defs>
        <path id="ArialMT-31" d="M 2384 0 
L 1822 0 
L 1822 3584 
Q 1619 3391 1289 3197 
Q 959 3003 697 2906 
L 697 3450 
Q 1169 3672 1522 3987 
Q 1875 4303 2022 4600 
L 2384 4600 
L 2384 0 
z
" transform="scale(0.015625)"/>
       </defs>
       <use xlink:href="#ArialMT-31"/>
       <use xlink:href="#ArialMT-2e" transform="translate(55.615234 0)"/>
       <use xlink:href="#ArialMT-30" transform="translate(83.398438 0)"/>
      </g>
     </g>
    </g>
    <g id="text_7">
     <!-- False Positive Rate (FPR) -->
     <g style="fill: #333333" transform="translate(108.165463 287.305301) scale(0.09 -0.09)">
      <defs>
       <path id="Arial-BoldMT-46" d="M 472 0 
L 472 4581 
L 3613 4581 
L 3613 3806 
L 1397 3806 
L 1397 2722 
L 3309 2722 
L 3309 1947 
L 1397 1947 
L 1397 0 
L 472 0 
z
" transform="scale(0.015625)"/>
       <path id="Arial-BoldMT-61" d="M 1116 2306 
L 319 2450 
Q 453 2931 781 3162 
Q 1109 3394 1756 3394 
Q 2344 3394 2631 3255 
Q 2919 3116 3036 2902 
Q 3153 2688 3153 2116 
L 3144 1091 
Q 3144 653 3186 445 
Q 3228 238 3344 0 
L 2475 0 
Q 2441 88 2391 259 
Q 2369 338 2359 363 
Q 2134 144 1878 34 
Q 1622 -75 1331 -75 
Q 819 -75 523 203 
Q 228 481 228 906 
Q 228 1188 362 1408 
Q 497 1628 739 1745 
Q 981 1863 1438 1950 
Q 2053 2066 2291 2166 
L 2291 2253 
Q 2291 2506 2166 2614 
Q 2041 2722 1694 2722 
Q 1459 2722 1328 2630 
Q 1197 2538 1116 2306 
z
M 2291 1594 
Q 2122 1538 1756 1459 
Q 1391 1381 1278 1306 
Q 1106 1184 1106 997 
Q 1106 813 1243 678 
Q 1381 544 1594 544 
Q 1831 544 2047 700 
Q 2206 819 2256 991 
Q 2291 1103 2291 1419 
L 2291 1594 
z
" transform="scale(0.015625)"/>
       <path id="Arial-BoldMT-6c" d="M 459 0 
L 459 4581 
L 1338 4581 
L 1338 0 
L 459 0 
z
" transform="scale(0.015625)"/>
       <path id="Arial-BoldMT-73" d="M 150 947 
L 1031 1081 
Q 1088 825 1259 692 
Q 1431 559 1741 559 
Q 2081 559 2253 684 
Q 2369 772 2369 919 
Q 2369 1019 2306 1084 
Q 2241 1147 2013 1200 
Q 950 1434 666 1628 
Q 272 1897 272 2375 
Q 272 2806 612 3100 
Q 953 3394 1669 3394 
Q 2350 3394 2681 3172 
Q 3013 2950 3138 2516 
L 2309 2363 
Q 2256 2556 2107 2659 
Q 1959 2763 1684 2763 
Q 1338 2763 1188 2666 
Q 1088 2597 1088 2488 
Q 1088 2394 1175 2328 
Q 1294 2241 1995 2081 
Q 2697 1922 2975 1691 
Q 3250 1456 3250 1038 
Q 3250 581 2869 253 
Q 2488 -75 1741 -75 
Q 1063 -75 667 200 
Q 272 475 150 947 
z
" transform="scale(0.015625)"/>
       <path id="Arial-BoldMT-65" d="M 2381 1056 
L 3256 909 
Q 3088 428 2723 176 
Q 2359 -75 1813 -75 
Q 947 -75 531 491 
Q 203 944 203 1634 
Q 203 2459 634 2926 
Q 1066 3394 1725 3394 
Q 2466 3394 2894 2905 
Q 3322 2416 3303 1406 
L 1103 1406 
Q 1113 1016 1316 798 
Q 1519 581 1822 581 
Q 2028 581 2168 693 
Q 2309 806 2381 1056 
z
M 2431 1944 
Q 2422 2325 2234 2523 
Q 2047 2722 1778 2722 
Q 1491 2722 1303 2513 
Q 1116 2303 1119 1944 
L 2431 1944 
z
" transform="scale(0.015625)"/>
       <path id="Arial-BoldMT-20" transform="scale(0.015625)"/>
       <path id="Arial-BoldMT-50" d="M 466 0 
L 466 4581 
L 1950 4581 
Q 2794 4581 3050 4513 
Q 3444 4409 3709 4064 
Q 3975 3719 3975 3172 
Q 3975 2750 3822 2462 
Q 3669 2175 3433 2011 
Q 3197 1847 2953 1794 
Q 2622 1728 1994 1728 
L 1391 1728 
L 1391 0 
L 466 0 
z
M 1391 3806 
L 1391 2506 
L 1897 2506 
Q 2444 2506 2628 2578 
Q 2813 2650 2917 2803 
Q 3022 2956 3022 3159 
Q 3022 3409 2875 3571 
Q 2728 3734 2503 3775 
Q 2338 3806 1838 3806 
L 1391 3806 
z
" transform="scale(0.015625)"/>
       <path id="Arial-BoldMT-6f" d="M 256 1706 
Q 256 2144 472 2553 
Q 688 2963 1083 3178 
Q 1478 3394 1966 3394 
Q 2719 3394 3200 2905 
Q 3681 2416 3681 1669 
Q 3681 916 3195 420 
Q 2709 -75 1972 -75 
Q 1516 -75 1102 131 
Q 688 338 472 736 
Q 256 1134 256 1706 
z
M 1156 1659 
Q 1156 1166 1390 903 
Q 1625 641 1969 641 
Q 2313 641 2545 903 
Q 2778 1166 2778 1666 
Q 2778 2153 2545 2415 
Q 2313 2678 1969 2678 
Q 1625 2678 1390 2415 
Q 1156 2153 1156 1659 
z
" transform="scale(0.015625)"/>
       <path id="Arial-BoldMT-69" d="M 459 3769 
L 459 4581 
L 1338 4581 
L 1338 3769 
L 459 3769 
z
M 459 0 
L 459 3319 
L 1338 3319 
L 1338 0 
L 459 0 
z
" transform="scale(0.015625)"/>
       <path id="Arial-BoldMT-74" d="M 1981 3319 
L 1981 2619 
L 1381 2619 
L 1381 1281 
Q 1381 875 1398 808 
Q 1416 741 1477 697 
Q 1538 653 1625 653 
Q 1747 653 1978 738 
L 2053 56 
Q 1747 -75 1359 -75 
Q 1122 -75 931 4 
Q 741 84 652 211 
Q 563 338 528 553 
Q 500 706 500 1172 
L 500 2619 
L 97 2619 
L 97 3319 
L 500 3319 
L 500 3978 
L 1381 4491 
L 1381 3319 
L 1981 3319 
z
" transform="scale(0.015625)"/>
       <path id="Arial-BoldMT-76" d="M 1372 0 
L 34 3319 
L 956 3319 
L 1581 1625 
L 1763 1059 
Q 1834 1275 1853 1344 
Q 1897 1484 1947 1625 
L 2578 3319 
L 3481 3319 
L 2163 0 
L 1372 0 
z
" transform="scale(0.015625)"/>
       <path id="Arial-BoldMT-52" d="M 469 0 
L 469 4581 
L 2416 4581 
Q 3150 4581 3483 4457 
Q 3816 4334 4016 4018 
Q 4216 3703 4216 3297 
Q 4216 2781 3912 2445 
Q 3609 2109 3006 2022 
Q 3306 1847 3501 1637 
Q 3697 1428 4028 894 
L 4588 0 
L 3481 0 
L 2813 997 
Q 2456 1531 2325 1670 
Q 2194 1809 2047 1861 
Q 1900 1913 1581 1913 
L 1394 1913 
L 1394 0 
L 469 0 
z
M 1394 2644 
L 2078 2644 
Q 2744 2644 2909 2700 
Q 3075 2756 3169 2893 
Q 3263 3031 3263 3238 
Q 3263 3469 3139 3611 
Q 3016 3753 2791 3791 
Q 2678 3806 2116 3806 
L 1394 3806 
L 1394 2644 
z
" transform="scale(0.015625)"/>
       <path id="Arial-BoldMT-28" d="M 1916 -1347 
L 1313 -1347 
Q 834 -625 584 153 
Q 334 931 334 1659 
Q 334 2563 644 3369 
Q 913 4069 1325 4659 
L 1925 4659 
Q 1497 3713 1336 3048 
Q 1175 2384 1175 1641 
Q 1175 1128 1270 590 
Q 1366 53 1531 -431 
Q 1641 -750 1916 -1347 
z
" transform="scale(0.015625)"/>
       <path id="Arial-BoldMT-29" d="M 216 -1347 
Q 475 -791 581 -494 
Q 688 -197 778 190 
Q 869 578 912 926 
Q 956 1275 956 1641 
Q 956 2384 797 3048 
Q 638 3713 209 4659 
L 806 4659 
Q 1278 3988 1539 3234 
Q 1800 2481 1800 1706 
Q 1800 1053 1594 306 
Q 1359 -531 822 -1347 
L 216 -1347 
z
" transform="scale(0.015625)"/>
      </defs>
      <use xlink:href="#Arial-BoldMT-46"/>
      <use xlink:href="#Arial-BoldMT-61" transform="translate(61.083984 0)"/>
      <use xlink:href="#Arial-BoldMT-6c" transform="translate(116.699219 0)"/>
      <use xlink:href="#Arial-BoldMT-73" transform="translate(144.482422 0)"/>
      <use xlink:href="#Arial-BoldMT-65" transform="translate(200.097656 0)"/>
      <use xlink:href="#Arial-BoldMT-20" transform="translate(255.712891 0)"/>
      <use xlink:href="#Arial-BoldMT-50" transform="translate(283.496094 0)"/>
      <use xlink:href="#Arial-BoldMT-6f" transform="translate(350.195312 0)"/>
      <use xlink:href="#Arial-BoldMT-73" transform="translate(411.279297 0)"/>
      <use xlink:href="#Arial-BoldMT-69" transform="translate(466.894531 0)"/>
      <use xlink:href="#Arial-BoldMT-74" transform="translate(494.677734 0)"/>
      <use xlink:href="#Arial-BoldMT-69" transform="translate(527.978516 0)"/>
      <use xlink:href="#Arial-BoldMT-76" transform="translate(555.761719 0)"/>
      <use xlink:href="#Arial-BoldMT-65" transform="translate(611.376953 0)"/>
      <use xlink:href="#Arial-BoldMT-20" transform="translate(666.992188 0)"/>
      <use xlink:href="#Arial-BoldMT-52" transform="translate(694.775391 0)"/>
      <use xlink:href="#Arial-BoldMT-61" transform="translate(766.992188 0)"/>
      <use xlink:href="#Arial-BoldMT-74" transform="translate(822.607422 0)"/>
      <use xlink:href="#Arial-BoldMT-65" transform="translate(855.908203 0)"/>
      <use xlink:href="#Arial-BoldMT-20" transform="translate(911.523438 0)"/>
      <use xlink:href="#Arial-BoldMT-28" transform="translate(939.306641 0)"/>
      <use xlink:href="#Arial-BoldMT-46" transform="translate(972.607422 0)"/>
      <use xlink:href="#Arial-BoldMT-50" transform="translate(1033.691406 0)"/>
      <use xlink:href="#Arial-BoldMT-52" transform="translate(1100.390625 0)"/>
      <use xlink:href="#Arial-BoldMT-29" transform="translate(1172.607422 0)"/>
     </g>
    </g>
   </g>
   <g id="matplotlib.axis_2">
    <g id="ytick_1">
     <g id="line2d_13">
      <path d="M 35.655938 265.022801 
L 289.19952 265.022801 
" clip-path="url(#p482491acf3)" style="fill: none; stroke: #c0c0c0; stroke-width: 0.25; stroke-linecap: round"/>
     </g>
     <g id="line2d_14"/>
     <g id="text_8">
      <!-- 0.0 -->
      <g style="fill: #333333" transform="translate(19.645938 268.243817) scale(0.09 -0.09)">
       <use xlink:href="#ArialMT-30"/>
       <use xlink:href="#ArialMT-2e" transform="translate(55.615234 0)"/>
       <use xlink:href="#ArialMT-30" transform="translate(83.398438 0)"/>
      </g>
     </g>
    </g>
    <g id="ytick_2">
     <g id="line2d_15">
      <path d="M 35.655938 217.397348 
L 289.19952 217.397348 
" clip-path="url(#p482491acf3)" style="fill: none; stroke: #c0c0c0; stroke-width: 0.25; stroke-linecap: round"/>
     </g>
     <g id="line2d_16"/>
     <g id="text_9">
      <!-- 0.2 -->
      <g style="fill: #333333" transform="translate(19.645938 220.618364) scale(0.09 -0.09)">
       <use xlink:href="#ArialMT-30"/>
       <use xlink:href="#ArialMT-2e" transform="translate(55.615234 0)"/>
       <use xlink:href="#ArialMT-32" transform="translate(83.398438 0)"/>
      </g>
     </g>
    </g>
    <g id="ytick_3">
     <g id="line2d_17">
      <path d="M 35.655938 169.771895 
L 289.19952 169.771895 
" clip-path="url(#p482491acf3)" style="fill: none; stroke: #c0c0c0; stroke-width: 0.25; stroke-linecap: round"/>
     </g>
     <g id="line2d_18"/>
     <g id="text_10">
      <!-- 0.4 -->
      <g style="fill: #333333" transform="translate(19.645938 172.992911) scale(0.09 -0.09)">
       <use xlink:href="#ArialMT-30"/>
       <use xlink:href="#ArialMT-2e" transform="translate(55.615234 0)"/>
       <use xlink:href="#ArialMT-34" transform="translate(83.398438 0)"/>
      </g>
     </g>
    </g>
    <g id="ytick_4">
     <g id="line2d_19">
      <path d="M 35.655938 122.146443 
L 289.19952 122.146443 
" clip-path="url(#p482491acf3)" style="fill: none; stroke: #c0c0c0; stroke-width: 0.25; stroke-linecap: round"/>
     </g>
     <g id="line2d_20"/>
     <g id="text_11">
      <!-- 0.6 -->
      <g style="fill: #333333" transform="translate(19.645938 125.367458) scale(0.09 -0.09)">
       <use xlink:href="#ArialMT-30"/>
       <use xlink:href="#ArialMT-2e" transform="translate(55.615234 0)"/>
       <use xlink:href="#ArialMT-36" transform="translate(83.398438 0)"/>
      </g>
     </g>
    </g>
    <g id="ytick_5">
     <g id="line2d_21">
      <path d="M 35.655938 74.52099 
L 289.19952 74.52099 
" clip-path="url(#p482491acf3)" style="fill: none; stroke: #c0c0c0; stroke-width: 0.25; stroke-linecap: round"/>
     </g>
     <g id="line2d_22"/>
     <g id="text_12">
      <!-- 0.8 -->
      <g style="fill: #333333" transform="translate(19.645938 77.742005) scale(0.09 -0.09)">
       <use xlink:href="#ArialMT-30"/>
       <use xlink:href="#ArialMT-2e" transform="translate(55.615234 0)"/>
       <use xlink:href="#ArialMT-38" transform="translate(83.398438 0)"/>
      </g>
     </g>
    </g>
    <g id="ytick_6">
     <g id="line2d_23">
      <path d="M 35.655938 26.895537 
L 289.19952 26.895537 
" clip-path="url(#p482491acf3)" style="fill: none; stroke: #c0c0c0; stroke-width: 0.25; stroke-linecap: round"/>
     </g>
     <g id="line2d_24"/>
     <g id="text_13">
      <!-- 1.0 -->
      <g style="fill: #333333" transform="translate(19.645938 30.116552) scale(0.09 -0.09)">
       <use xlink:href="#ArialMT-31"/>
       <use xlink:href="#ArialMT-2e" transform="translate(55.615234 0)"/>
       <use xlink:href="#ArialMT-30" transform="translate(83.398438 0)"/>
      </g>
     </g>
    </g>
    <g id="text_14">
     <!-- True Positive Rate (TPR) -->
     <g style="fill: #333333" transform="translate(13.751719 194.647026) rotate(-90) scale(0.09 -0.09)">
      <defs>
       <path id="Arial-BoldMT-54" d="M 1497 0 
L 1497 3806 
L 138 3806 
L 138 4581 
L 3778 4581 
L 3778 3806 
L 2422 3806 
L 2422 0 
L 1497 0 
z
" transform="scale(0.015625)"/>
       <path id="Arial-BoldMT-72" d="M 1300 0 
L 422 0 
L 422 3319 
L 1238 3319 
L 1238 2847 
Q 1447 3181 1614 3287 
Q 1781 3394 1994 3394 
Q 2294 3394 2572 3228 
L 2300 2463 
Q 2078 2606 1888 2606 
Q 1703 2606 1575 2504 
Q 1447 2403 1373 2137 
Q 1300 1872 1300 1025 
L 1300 0 
z
" transform="scale(0.015625)"/>
       <path id="Arial-BoldMT-75" d="M 2644 0 
L 2644 497 
Q 2463 231 2167 78 
Q 1872 -75 1544 -75 
Q 1209 -75 943 72 
Q 678 219 559 484 
Q 441 750 441 1219 
L 441 3319 
L 1319 3319 
L 1319 1794 
Q 1319 1094 1367 936 
Q 1416 778 1544 686 
Q 1672 594 1869 594 
Q 2094 594 2272 717 
Q 2450 841 2515 1023 
Q 2581 1206 2581 1919 
L 2581 3319 
L 3459 3319 
L 3459 0 
L 2644 0 
z
" transform="scale(0.015625)"/>
      </defs>
      <use xlink:href="#Arial-BoldMT-54"/>
      <use xlink:href="#Arial-BoldMT-72" transform="translate(55.583984 0)"/>
      <use xlink:href="#Arial-BoldMT-75" transform="translate(94.5 0)"/>
      <use xlink:href="#Arial-BoldMT-65" transform="translate(155.583984 0)"/>
      <use xlink:href="#Arial-BoldMT-20" transform="translate(211.199219 0)"/>
      <use xlink:href="#Arial-BoldMT-50" transform="translate(238.982422 0)"/>
      <use xlink:href="#Arial-BoldMT-6f" transform="translate(305.681641 0)"/>
      <use xlink:href="#Arial-BoldMT-73" transform="translate(366.765625 0)"/>
      <use xlink:href="#Arial-BoldMT-69" transform="translate(422.380859 0)"/>
      <use xlink:href="#Arial-BoldMT-74" transform="translate(450.164062 0)"/>
      <use xlink:href="#Arial-BoldMT-69" transform="translate(483.464844 0)"/>
      <use xlink:href="#Arial-BoldMT-76" transform="translate(511.248047 0)"/>
      <use xlink:href="#Arial-BoldMT-65" transform="translate(566.863281 0)"/>
      <use xlink:href="#Arial-BoldMT-20" transform="translate(622.478516 0)"/>
      <use xlink:href="#Arial-BoldMT-52" transform="translate(650.261719 0)"/>
      <use xlink:href="#Arial-BoldMT-61" transform="translate(722.478516 0)"/>
      <use xlink:href="#Arial-BoldMT-74" transform="translate(778.09375 0)"/>
      <use xlink:href="#Arial-BoldMT-65" transform="translate(811.394531 0)"/>
      <use xlink:href="#Arial-BoldMT-20" transform="translate(867.009766 0)"/>
      <use xlink:href="#Arial-BoldMT-28" transform="translate(894.792969 0)"/>
      <use xlink:href="#Arial-BoldMT-54" transform="translate(928.09375 0)"/>
      <use xlink:href="#Arial-BoldMT-50" transform="translate(989.177734 0)"/>
      <use xlink:href="#Arial-BoldMT-52" transform="translate(1055.876953 0)"/>
      <use xlink:href="#Arial-BoldMT-29" transform="translate(1128.09375 0)"/>
     </g>
    </g>
   </g>
   <g id="line2d_25">
    <path d="M 42.831699 265.022801 
L 42.942349 241.557706 
L 42.943132 241.490854 
L 43.052748 229.791732 
L 43.054494 229.72488 
L 43.164573 223.10652 
L 43.165927 223.039668 
L 43.275935 218.69428 
L 43.279426 218.627427 
L 43.384767 214.081483 
L 43.392676 214.014631 
L 43.502363 210.53832 
L 43.50475 210.471468 
L 43.615613 207.99794 
L 43.617501 207.931088 
L 43.728044 204.655334 
L 43.730965 204.588481 
L 43.840154 201.847544 
L 43.850164 201.780692 
L 43.960101 199.039755 
L 43.967439 198.972903 
L 44.077946 197.167896 
L 44.087992 197.101044 
L 44.193868 195.162332 
L 44.210611 195.09548 
L 44.319871 192.621951 
L 44.333551 192.555099 
L 44.443559 190.348979 
L 44.454959 190.282127 
L 44.55916 188.009155 
L 44.576652 187.942303 
L 44.686196 186.070443 
L 44.691113 186.003591 
L 44.785553 184.733401 
L 44.798235 184.733401 
L 44.81594 184.666549 
L 44.926518 182.727837 
L 44.932361 182.660985 
L 45.043224 180.989682 
L 45.049601 180.92283 
L 45.160072 179.786344 
L 45.178133 179.719491 
L 45.273535 178.850414 
L 45.284294 178.850414 
L 45.296192 178.783562 
L 45.405773 177.580223 
L 45.419524 177.513371 
L 45.52857 176.176329 
L 45.536728 176.109477 
L 45.629031 174.906139 
L 45.661698 174.839286 
L 45.758027 173.769652 
L 45.789768 173.7028 
L 45.891404 172.967427 
L 45.90829 172.900575 
L 46.018904 171.964645 
L 46.03098 171.897793 
L 46.140205 170.360194 
L 46.146261 170.293342 
L 46.255521 169.023152 
L 46.262646 168.9563 
L 46.363783 168.02037 
L 46.384944 167.953518 
L 46.493278 166.750179 
L 46.519426 166.683327 
L 46.61668 166.215362 
L 46.640157 166.14851 
L 46.732602 165.145728 
L 46.769402 165.078876 
L 46.878163 164.343503 
L 46.880194 164.343503 
L 46.895014 164.276651 
L 47.005556 163.140165 
L 47.028997 163.073313 
L 47.134374 161.803122 
L 47.154965 161.73627 
L 47.257883 160.934045 
L 47.268499 160.867193 
L 47.322542 160.265523 
L 47.394538 160.198671 
L 47.503335 158.59422 
L 47.531728 158.527368 
L 47.636998 157.591438 
L 47.64512 157.524586 
L 47.751388 156.655509 
L 47.772121 156.588657 
L 47.871833 155.920135 
L 47.893921 155.853283 
L 48.004142 154.850501 
L 48.021848 154.783649 
L 48.128899 153.914572 
L 48.136309 153.84772 
L 48.2248 153.379755 
L 48.261386 153.312903 
L 48.354152 152.844938 
L 48.375491 152.778086 
L 48.476521 152.176416 
L 48.522227 152.109564 
L 48.62422 151.507895 
L 48.642816 151.441043 
L 48.707759 151.173635 
L 48.767038 151.106782 
L 48.865468 150.170853 
L 48.914915 150.104001 
L 49.018688 149.101219 
L 49.068669 149.034367 
L 49.163858 148.031585 
L 49.186657 147.964733 
L 49.285586 147.162507 
L 49.286726 147.162507 
L 49.30664 147.095655 
L 49.387792 146.493986 
L 49.48551 146.427134 
L 49.556545 145.69176 
L 49.616323 145.624908 
L 49.726081 144.755831 
L 49.819809 144.688979 
L 49.923048 144.42157 
L 49.990236 144.354718 
L 50.070355 143.753049 
L 50.123899 143.686197 
L 50.20213 143.084528 
L 50.2846 143.017676 
L 50.381712 142.750267 
L 50.400522 142.683415 
L 50.461404 141.948042 
L 50.517904 141.881189 
L 50.628375 141.27952 
L 50.63778 141.212668 
L 50.745971 140.410443 
L 50.774435 140.343591 
L 50.841907 139.942478 
L 50.917039 139.875626 
L 51.021668 139.474513 
L 51.057934 139.407661 
L 51.124801 138.939696 
L 51.154761 138.939696 
L 51.211653 138.872844 
L 51.322124 138.338027 
L 51.373174 138.271175 
L 51.476199 137.268393 
L 51.495365 137.201541 
L 51.605658 136.466167 
L 51.612106 136.399315 
L 51.722079 135.530238 
L 51.790085 135.463386 
L 51.895284 134.995421 
L 51.93326 134.928569 
L 52.042413 134.527456 
L 52.087121 134.460604 
L 52.193353 133.858935 
L 52.293137 133.792082 
L 52.40115 133.257265 
L 52.429507 133.190413 
L 52.522095 132.722448 
L 52.582336 132.655596 
L 52.648347 132.120779 
L 52.778269 132.053927 
L 52.879193 131.385406 
L 52.889311 131.385406 
L 52.904985 131.318554 
L 53.015813 130.716885 
L 53.08585 130.650033 
L 53.122828 130.449476 
L 53.190087 130.449476 
L 53.286665 130.382624 
L 53.38912 129.914659 
L 53.396103 129.914659 
L 53.43789 129.847807 
L 53.546473 129.31299 
L 53.573085 129.246138 
L 53.618256 128.911877 
L 53.72944 128.845025 
L 53.830007 128.310208 
L 53.950026 128.243356 
L 54.037555 127.842243 
L 54.057255 127.842243 
L 54.10688 127.775391 
L 54.206984 127.307426 
L 54.235626 127.240574 
L 54.331598 126.839462 
L 54.341609 126.839462 
L 54.358744 126.772609 
L 54.417596 126.572053 
L 54.556744 126.505201 
L 54.662014 126.037236 
L 54.718051 125.970384 
L 54.824889 125.168159 
L 54.861796 125.101306 
L 54.953243 124.767046 
L 55.047755 124.700194 
L 55.152384 124.098525 
L 55.210914 124.031672 
L 55.311803 123.095743 
L 55.342368 123.028891 
L 55.441867 122.427221 
L 55.460962 122.360369 
L 55.559178 121.959257 
L 55.599612 121.892404 
L 55.703457 121.624996 
L 55.751585 121.558144 
L 55.837369 121.090179 
L 55.858636 121.090179 
L 55.887065 121.023327 
L 55.973383 120.354806 
L 56.022972 120.287953 
L 56.117056 119.619432 
L 56.172915 119.55258 
L 56.249186 119.218319 
L 56.446189 119.151467 
L 56.449965 119.017763 
L 56.553703 119.017763 
L 56.578534 118.950911 
L 56.672831 117.948129 
L 56.677997 117.948129 
L 56.737988 117.881277 
L 56.801685 117.480164 
L 56.856404 117.413312 
L 56.945108 116.878495 
L 57.022662 116.811643 
L 57.133668 116.276826 
L 57.219665 116.209974 
L 57.320268 115.742009 
L 57.328818 115.742009 
L 57.392301 115.675157 
L 57.470211 115.340896 
L 57.544061 115.274044 
L 57.588377 115.073488 
L 57.594469 115.073488 
L 57.660517 115.006636 
L 57.762188 114.538671 
L 57.84156 114.471819 
L 57.950036 113.937002 
L 57.964357 113.87015 
L 58.070304 113.535889 
L 58.087688 113.469037 
L 58.19734 113.067924 
L 58.21558 113.001072 
L 58.291531 112.599959 
L 58.320778 112.599959 
L 58.357685 112.533107 
L 58.426796 112.198847 
L 58.465021 112.198847 
L 58.489353 112.131994 
L 58.588602 111.597177 
L 58.665159 111.530325 
L 58.774205 111.196065 
L 58.822191 111.129213 
L 58.915598 110.794952 
L 58.988236 110.7281 
L 59.065577 110.326987 
L 59.137787 110.260135 
L 59.196746 110.126431 
L 59.230909 110.126431 
L 59.368598 110.059579 
L 59.467063 109.391057 
L 59.47312 109.391057 
L 59.535035 109.324205 
L 59.62121 109.123649 
L 59.63261 109.123649 
L 59.693563 109.056797 
L 59.778919 108.655684 
L 59.845287 108.588832 
L 59.943504 108.187719 
L 59.976634 108.120867 
L 60.041577 107.853458 
L 60.076739 107.853458 
L 60.161631 107.786606 
L 60.227145 107.58605 
L 60.349336 107.519198 
L 60.459487 107.251789 
L 60.567357 107.184937 
L 60.567357 107.118085 
L 60.641242 107.118085 
L 60.746192 107.051233 
L 60.844444 106.65012 
L 60.994565 106.583268 
L 61.10183 106.048451 
L 61.160752 105.981599 
L 61.265915 105.580486 
L 61.311408 105.513634 
L 61.341938 105.313078 
L 61.394733 105.313078 
L 61.455188 105.246226 
L 61.533027 104.978817 
L 61.624653 104.911965 
L 61.710507 104.577704 
L 61.764941 104.510852 
L 61.866863 104.310296 
L 61.932661 104.243444 
L 62.009111 103.775479 
L 62.054318 103.708627 
L 62.148829 103.374366 
L 62.306467 103.307514 
L 62.378998 102.839549 
L 62.391182 102.839549 
L 62.569375 102.772697 
L 62.673576 102.371584 
L 62.72231 102.304732 
L 62.822237 101.970472 
L 62.869902 101.903619 
L 62.943787 101.703063 
L 62.964698 101.703063 
L 63.113573 101.636211 
L 63.211647 101.368802 
L 63.293583 101.30195 
L 63.359096 101.101394 
L 63.532159 101.034542 
L 63.619439 100.767133 
L 63.640136 100.767133 
L 63.69685 100.700281 
L 63.782206 100.566577 
L 63.890504 100.499725 
L 63.987759 100.165464 
L 64.091497 100.098612 
L 64.16784 99.898056 
L 64.232748 99.831204 
L 64.284866 99.697499 
L 64.450448 99.630647 
L 64.537621 99.296387 
L 64.604666 99.229535 
L 64.66879 98.962126 
L 64.711646 98.962126 
L 64.748054 98.895274 
L 64.816666 98.76157 
L 64.817094 98.76157 
L 64.961194 98.694718 
L 65.063899 98.293605 
L 65.125316 98.226753 
L 65.204794 98.026196 
L 65.344512 97.959344 
L 65.375399 97.82564 
L 65.414158 97.82564 
L 65.493387 97.758788 
L 65.569694 97.491379 
L 65.74094 97.424527 
L 65.838765 97.090267 
L 65.999146 97.023414 
L 66.104986 96.421745 
L 66.153649 96.354893 
L 66.216241 95.95378 
L 66.256247 95.95378 
L 66.355603 95.886928 
L 66.447443 95.485816 
L 66.460054 95.485816 
L 66.48809 95.418963 
L 66.578576 94.750442 
L 66.628379 94.68359 
L 66.632618 94.549886 
L 66.735287 94.549886 
L 66.752209 94.483034 
L 66.825916 94.215625 
L 66.844619 94.215625 
L 66.914478 94.148773 
L 67.019712 93.948217 
L 67.02071 93.948217 
L 67.081449 93.881365 
L 67.095913 93.680808 
L 67.295195 93.613956 
L 67.40385 93.346548 
L 67.451444 93.279696 
L 67.50399 93.079139 
L 67.61382 93.012287 
L 67.702453 92.678026 
L 67.791407 92.611174 
L 67.819016 92.47747 
L 67.909965 92.410618 
L 67.972842 92.210062 
L 68.011031 92.210062 
L 68.11338 92.143209 
L 68.152211 91.942653 
L 68.287904 91.875801 
L 68.39011 91.54154 
L 68.397164 91.54154 
L 68.412767 91.474688 
L 68.519284 91.073575 
L 68.581698 91.006723 
L 68.668372 90.672463 
L 68.733386 90.605611 
L 68.810869 90.338202 
L 68.883472 90.27135 
L 68.883472 90.204498 
L 68.906165 90.204498 
L 69.126109 90.137646 
L 69.232947 90.003941 
L 69.281681 89.937089 
L 69.377582 89.602829 
L 69.38802 89.602829 
L 69.478292 89.535977 
L 69.586519 89.33542 
L 69.666175 89.268568 
L 69.722212 89.068012 
L 69.804077 89.00116 
L 69.860256 88.800603 
L 70.046465 88.733751 
L 70.146498 88.466343 
L 70.339119 88.39949 
L 70.352157 88.265786 
L 70.446491 88.265786 
L 70.631488 88.198934 
L 70.737185 87.998378 
L 71.008144 87.931526 
L 71.090365 87.664117 
L 71.157375 87.597265 
L 71.261825 87.196152 
L 71.408633 87.1293 
L 71.482198 86.928744 
L 71.518214 86.928744 
L 71.584368 86.861892 
L 71.674925 86.460779 
L 71.683582 86.460779 
L 71.742683 86.393927 
L 71.758429 86.260223 
L 71.981865 86.19337 
L 71.981865 86.126518 
L 72.108937 86.059666 
L 72.110682 85.925962 
L 72.144169 85.925962 
L 72.22867 85.85911 
L 72.335757 85.658553 
L 72.629801 85.591701 
L 72.697665 85.457997 
L 72.731045 85.457997 
L 72.983836 85.391145 
L 73.032712 85.123736 
L 73.061034 85.123736 
L 73.287711 85.056884 
L 73.373281 84.588919 
L 73.486068 84.522067 
L 73.589948 84.321511 
L 73.773093 84.254659 
L 73.838464 83.98725 
L 73.84623 83.98725 
L 73.9344 83.920398 
L 74.041879 83.65299 
L 74.191252 83.586138 
L 74.279565 83.251877 
L 74.284231 83.251877 
L 74.391069 83.185025 
L 74.444719 82.984468 
L 74.496339 82.984468 
L 74.596301 82.917616 
L 74.695265 82.650208 
L 74.721912 82.583356 
L 74.822231 82.449651 
L 74.879799 82.382799 
L 74.91065 82.182243 
L 75.23216 82.115391 
L 75.268782 81.914834 
L 75.301592 81.914834 
L 75.501801 81.847982 
L 75.501801 81.78113 
L 75.707531 81.714278 
L 75.802969 81.44687 
L 75.817611 81.44687 
L 76.070152 81.380017 
L 76.174709 81.246313 
L 76.350124 81.179461 
L 76.376806 80.978905 
L 76.547874 80.912053 
L 76.658631 80.577792 
L 76.696464 80.51094 
L 76.80722 80.109827 
L 76.894214 80.042975 
L 76.9111 79.909271 
L 76.98267 79.909271 
L 77.098627 79.842419 
L 77.156802 79.708714 
L 77.255232 79.641862 
L 77.32648 79.441306 
L 77.35612 79.441306 
L 77.47368 79.374454 
L 77.518781 79.173897 
L 77.695941 79.107045 
L 77.699325 78.973341 
L 77.778803 78.973341 
L 77.899712 78.906489 
L 78.007369 78.705933 
L 78.06704 78.63908 
L 78.142848 78.505376 
L 78.164365 78.505376 
L 78.338462 78.438524 
L 78.38285 78.237968 
L 78.476435 78.171116 
L 78.577893 77.836855 
L 78.679102 77.770003 
L 78.698944 77.636299 
L 78.761893 77.636299 
L 78.887611 77.569446 
L 78.887611 77.502594 
L 78.958432 77.502594 
L 79.107876 77.435742 
L 79.184968 77.235186 
L 79.213182 77.235186 
L 79.357888 77.168334 
L 79.384963 77.034629 
L 79.900091 76.967777 
L 79.900091 76.900925 
L 79.944515 76.900925 
L 80.335955 76.834073 
L 80.395911 76.700369 
L 80.471328 76.633517 
L 80.490493 76.43296 
L 80.517568 76.43296 
L 80.664518 76.366108 
L 80.760847 76.165552 
L 80.772852 76.165552 
L 80.902845 76.0987 
L 80.986919 75.898143 
L 81.116449 75.831291 
L 81.116449 75.764439 
L 81.215022 75.764439 
L 81.536068 75.697587 
L 81.580741 75.563883 
L 81.786899 75.497031 
L 81.844682 75.363326 
L 81.874642 75.363326 
L 81.950095 75.296474 
L 82.006809 75.095918 
L 82.043252 75.095918 
L 82.341108 75.029066 
L 82.363729 74.895361 
L 82.449904 74.895361 
L 82.508863 74.828509 
L 82.553393 74.627953 
L 82.576121 74.627953 
L 82.772554 74.561101 
L 82.869951 74.360545 
L 82.923067 74.293692 
L 82.987725 73.959432 
L 82.999125 73.959432 
L 83.126375 73.89258 
L 83.20222 73.758875 
L 83.290604 73.692023 
L 83.376601 73.558319 
L 83.73744 73.491467 
L 83.763054 73.290911 
L 83.792088 73.290911 
L 83.932127 73.224058 
L 84.014491 73.023502 
L 84.182887 72.95665 
L 84.263932 72.756094 
L 84.293287 72.756094 
L 84.63325 72.689241 
L 84.63325 72.622389 
L 84.671297 72.622389 
L 85.007128 72.555537 
L 85.007128 72.488685 
L 85.110759 72.488685 
L 85.64288 72.421833 
L 85.741025 72.221277 
L 85.744124 72.221277 
L 85.8583 72.154424 
L 85.947967 71.753312 
L 85.990645 71.68646 
L 85.992996 71.485903 
L 86.080276 71.485903 
L 86.134104 71.419051 
L 86.194844 71.285347 
L 86.354619 71.218495 
L 86.41429 71.08479 
L 86.552548 71.017938 
L 86.552548 70.951086 
L 86.611898 70.951086 
L 86.717489 70.884234 
L 86.79515 70.683678 
L 86.904695 70.616826 
L 86.91866 70.483121 
L 86.930986 70.483121 
L 87.148472 70.416269 
L 87.148472 70.349417 
L 87.237711 70.349417 
L 87.423528 70.282565 
L 87.423528 70.215713 
L 87.482094 70.215713 
L 87.812439 70.148861 
L 87.87439 69.881452 
L 87.889138 69.881452 
L 88.20046 69.8146 
L 88.223081 69.480339 
L 88.28806 69.480339 
L 88.979707 69.413487 
L 88.979707 69.346635 
L 89.053877 69.346635 
L 89.361956 69.279783 
L 89.361956 69.212931 
L 89.434701 69.212931 
L 89.660132 69.146079 
L 89.759132 68.945522 
L 89.871313 68.87867 
L 89.871313 68.811818 
L 90.074764 68.744966 
L 90.136679 68.54441 
L 90.276327 68.477558 
L 90.299732 68.343853 
L 90.754797 68.277001 
L 90.754797 68.210149 
L 91.107942 68.143297 
L 91.199247 67.942741 
L 91.342528 67.875889 
L 91.383781 67.675332 
L 91.649824 67.60848 
L 91.747328 67.474776 
L 92.103357 67.407924 
L 92.103357 67.341072 
L 92.201538 67.341072 
L 92.661306 67.274219 
L 92.661306 67.207367 
L 92.915379 67.140515 
L 92.915379 67.073663 
L 93.019046 67.073663 
L 93.035255 67.006811 
L 93.035255 66.939959 
L 93.352525 66.873107 
L 93.352525 66.806255 
L 93.355589 66.806255 
L 93.70884 66.739402 
L 93.803352 66.605698 
L 93.970929 66.538846 
L 93.970929 66.471994 
L 94.067186 66.471994 
L 94.18699 66.405142 
L 94.18699 66.33829 
L 94.433511 66.271438 
L 94.433511 66.204585 
L 94.651568 66.137733 
L 94.651568 66.070881 
L 94.749214 66.070881 
L 95.243751 66.004029 
L 95.243751 65.937177 
L 95.503061 65.870325 
L 95.59255 65.669768 
L 95.674664 65.602916 
L 95.681504 65.469212 
L 95.954208 65.40236 
L 95.981603 65.268656 
L 96.249178 65.201804 
L 96.251173 65.068099 
L 96.332503 65.068099 
L 96.559181 65.001247 
L 96.655723 64.867543 
L 97.131237 64.800691 
L 97.195254 64.666987 
L 97.307934 64.600134 
L 97.307934 64.533282 
L 97.318015 64.533282 
L 97.519435 64.46643 
L 97.625988 64.332726 
L 98.111227 64.265874 
L 98.111227 64.199022 
L 98.268224 64.13217 
L 98.268224 64.065317 
L 98.617663 63.998465 
L 98.617663 63.931613 
L 98.658631 63.931613 
L 98.95898 63.864761 
L 98.980925 63.731057 
L 99.157835 63.664205 
L 99.224239 63.5305 
L 99.263034 63.5305 
L 99.612865 63.463648 
L 99.612865 63.396796 
L 99.646886 63.396796 
L 99.895545 63.329944 
L 99.989023 63.062536 
L 100.258699 62.995683 
L 100.324854 62.861979 
L 100.897373 62.795127 
L 100.897373 62.728275 
L 101.36366 62.661423 
L 101.402099 62.527719 
L 101.431204 62.527719 
L 101.975188 62.460866 
L 102.032294 62.327162 
L 102.300189 62.26031 
L 102.37646 62.126606 
L 102.888846 62.059754 
L 102.917594 61.859197 
L 103.208895 61.792345 
L 103.307895 61.591789 
L 103.704216 61.524937 
L 103.704216 61.458085 
L 103.891315 61.391233 
L 103.982478 61.123824 
L 104.387598 61.056972 
L 104.464368 60.789563 
L 104.487489 60.789563 
L 105.160682 60.722711 
L 105.265703 60.522155 
L 105.507592 60.455303 
L 105.546743 60.321599 
L 105.807514 60.254746 
L 105.900173 60.05419 
L 106.104051 59.987338 
L 106.104051 59.920486 
L 106.354526 59.853634 
L 106.446615 59.719929 
L 106.699797 59.653077 
L 106.699797 59.586225 
L 106.97186 59.519373 
L 107.066015 59.318817 
L 107.340715 59.251965 
L 107.340715 59.185112 
L 107.402986 59.185112 
L 107.76126 59.11826 
L 107.86279 58.917704 
L 107.922461 58.850852 
L 108.000834 58.717148 
L 108.214082 58.650295 
L 108.279559 58.382887 
L 108.658745 58.316035 
L 108.658745 58.249183 
L 109.089016 58.182331 
L 109.089016 58.115478 
L 109.194143 58.115478 
L 109.659291 58.048626 
L 109.659291 57.981774 
L 109.671759 57.981774 
L 110.046029 57.914922 
L 110.046029 57.84807 
L 110.117669 57.84807 
L 110.202989 57.781218 
L 110.281078 57.580661 
L 110.97187 57.513809 
L 110.974114 57.380105 
L 111.580192 57.313253 
L 111.64086 57.112697 
L 111.722083 57.045844 
L 111.722083 56.978992 
L 111.953036 56.91214 
L 111.965718 56.778436 
L 112.184488 56.711584 
L 112.250036 56.57788 
L 112.725158 56.511027 
L 112.725158 56.444175 
L 113.342742 56.377323 
L 113.439641 56.176767 
L 113.441671 56.176767 
L 113.49379 56.109915 
L 113.543877 55.97621 
L 113.866349 55.909358 
L 113.885479 55.775654 
L 113.888294 55.775654 
L 114.086543 55.708802 
L 114.152484 55.575098 
L 114.651652 55.508246 
L 114.651652 55.441394 
L 115.85401 55.374541 
L 115.899966 55.240837 
L 115.988955 55.173985 
L 116.08963 54.973429 
L 116.684271 54.906577 
L 116.684271 54.839724 
L 117.047319 54.772872 
L 117.047319 54.70602 
L 117.202748 54.639168 
L 117.247706 54.438612 
L 117.393659 54.37176 
L 117.393659 54.304907 
L 117.396438 54.304907 
L 117.798495 54.238055 
L 117.858486 54.104351 
L 118.937192 54.037499 
L 118.971925 53.903795 
L 119.000638 53.903795 
L 119.586374 53.836943 
L 119.591326 53.703238 
L 119.885619 53.636386 
L 119.885619 53.569534 
L 120.141437 53.502682 
L 120.198436 53.368978 
L 120.628672 53.302126 
L 120.628672 53.235273 
L 120.670423 53.235273 
L 120.947545 53.168421 
L 120.947545 53.101569 
L 121.049787 53.101569 
L 122.023864 53.034717 
L 122.023864 52.967865 
L 122.134264 52.967865 
L 122.485841 52.901013 
L 122.585019 52.767309 
L 122.985437 52.700456 
L 123.008984 52.566752 
L 123.442105 52.4999 
L 123.446701 52.366196 
L 123.713777 52.299344 
L 123.784384 52.165639 
L 124.552552 52.098787 
L 124.553407 51.965083 
L 124.863589 51.898231 
L 124.932486 51.697675 
L 125.104302 51.630822 
L 125.169281 51.497118 
L 125.185526 51.497118 
L 126.092486 51.430266 
L 126.092486 51.363414 
L 126.397502 51.296562 
L 126.481718 51.162858 
L 126.809712 51.096005 
L 126.863896 50.962301 
L 127.084554 50.895449 
L 127.084554 50.828597 
L 127.724652 50.761745 
L 127.781366 50.628041 
L 127.791982 50.628041 
L 127.85461 50.561188 
L 127.896789 50.427484 
L 128.126281 50.360632 
L 128.134617 50.226928 
L 128.630152 50.160076 
L 128.630152 50.093224 
L 128.944679 50.026371 
L 128.944679 49.959519 
L 129.352756 49.892667 
L 129.352756 49.825815 
L 129.777007 49.758963 
L 129.777007 49.692111 
L 129.916619 49.625259 
L 129.997557 49.491554 
L 130.263422 49.424702 
L 130.331963 49.290998 
L 130.718309 49.224146 
L 130.718309 49.157294 
L 131.569767 49.090442 
L 131.569767 49.02359 
L 131.615438 49.02359 
L 131.929537 48.956738 
L 131.99017 48.823033 
L 132.057999 48.756181 
L 132.13908 48.622477 
L 132.387809 48.555625 
L 132.387809 48.488773 
L 132.842697 48.421921 
L 132.933539 48.288216 
L 133.594371 48.221364 
L 133.594371 48.154512 
L 133.938787 48.08766 
L 133.938787 48.020808 
L 133.991048 48.020808 
L 134.302725 47.953956 
L 134.350961 47.820251 
L 134.51095 47.753399 
L 134.51095 47.686547 
L 135.082934 47.619695 
L 135.082934 47.552843 
L 135.746224 47.485991 
L 135.814516 47.352287 
L 136.541788 47.285434 
L 136.541788 47.218582 
L 136.874341 47.15173 
L 136.98442 47.018026 
L 137.366313 46.951174 
L 137.465955 46.750617 
L 137.67735 46.683765 
L 137.67735 46.616913 
L 137.687823 46.616913 
L 138.063339 46.550061 
L 138.063339 46.483209 
L 138.742055 46.416357 
L 138.742055 46.349505 
L 139.422694 46.282653 
L 139.422694 46.2158 
L 139.639005 46.148948 
L 139.639005 46.082096 
L 140.462141 46.015244 
L 140.462141 45.948392 
L 141.858759 45.88154 
L 141.858759 45.814688 
L 142.56095 45.747836 
L 142.56095 45.680983 
L 143.885393 45.614131 
L 143.990413 45.480427 
L 144.414984 45.413575 
L 144.414984 45.346723 
L 144.960643 45.279871 
L 145.042436 45.079314 
L 145.286962 45.012462 
L 145.286962 44.94561 
L 145.820116 44.878758 
L 145.914057 44.745054 
L 146.836408 44.678202 
L 146.836408 44.611349 
L 147.576112 44.544497 
L 147.669341 44.410793 
L 148.087678 44.343941 
L 148.087678 44.277089 
L 148.257926 44.210237 
L 148.257926 44.143385 
L 149.228512 44.076532 
L 149.228512 44.00968 
L 149.784786 43.942828 
L 149.784786 43.875976 
L 150.37836 43.809124 
L 150.37836 43.742272 
L 150.627231 43.67542 
L 150.651634 43.541715 
L 151.39344 43.474863 
L 151.39344 43.408011 
L 151.648368 43.341159 
L 151.648368 43.274307 
L 152.431071 43.207455 
L 152.431071 43.140603 
L 152.535521 43.140603 
L 152.950509 43.073751 
L 152.950509 43.006898 
L 152.972454 43.006898 
L 153.736383 42.940046 
L 153.744149 42.806342 
L 153.936342 42.73949 
L 153.936342 42.672638 
L 153.942862 42.672638 
L 154.662723 42.605786 
L 154.718903 42.472082 
L 155.037883 42.405229 
L 155.037883 42.338377 
L 155.140374 42.338377 
L 155.289783 42.271525 
L 155.289783 42.204673 
L 155.348243 42.204673 
L 156.440093 42.137821 
L 156.440093 42.070969 
L 156.989279 42.004117 
L 157.090559 41.870412 
L 158.492912 41.80356 
L 158.492912 41.736708 
L 159.951301 41.669856 
L 159.951301 41.603004 
L 160.368676 41.536152 
L 160.368676 41.4693 
L 161.244964 41.402448 
L 161.249952 41.268743 
L 161.948047 41.201891 
L 161.948047 41.135039 
L 164.705087 41.068187 
L 164.705087 41.001335 
L 165.495378 40.934483 
L 165.495378 40.867631 
L 166.912123 40.800778 
L 166.912123 40.733926 
L 167.666611 40.667074 
L 167.666611 40.600222 
L 168.727505 40.53337 
L 168.727505 40.466518 
L 169.279504 40.399666 
L 169.279504 40.332814 
L 169.713302 40.265961 
L 169.757797 40.132257 
L 170.193661 40.065405 
L 170.283185 39.931701 
L 170.42244 39.864849 
L 170.45607 39.731144 
L 171.84574 39.664292 
L 171.955677 39.530588 
L 173.595609 39.463736 
L 173.595609 39.396884 
L 174.456329 39.330032 
L 174.456329 39.26318 
L 174.700285 39.196327 
L 174.700285 39.129475 
L 175.791031 39.062623 
L 175.791031 38.995771 
L 176.817725 38.928919 
L 176.817725 38.862067 
L 177.674669 38.795215 
L 177.674669 38.728363 
L 178.265143 38.66151 
L 178.265143 38.594658 
L 178.783442 38.527806 
L 178.783442 38.460954 
L 179.708357 38.394102 
L 179.708357 38.32725 
L 180.55497 38.260398 
L 180.55497 38.193546 
L 180.647237 38.193546 
L 180.874021 38.126693 
L 180.874021 38.059841 
L 181.313519 37.992989 
L 181.313519 37.926137 
L 181.749775 37.859285 
L 181.749775 37.792433 
L 182.623177 37.725581 
L 182.623177 37.658729 
L 183.724362 37.591876 
L 183.724362 37.525024 
L 183.793402 37.525024 
L 184.807343 37.458172 
L 184.807343 37.39132 
L 185.283035 37.324468 
L 185.283035 37.257616 
L 186.160641 37.190764 
L 186.215965 37.057059 
L 186.24507 37.057059 
L 186.988729 36.990207 
L 186.993324 36.856503 
L 188.035907 36.789651 
L 188.128316 36.589095 
L 189.27396 36.522242 
L 189.27396 36.45539 
L 190.021929 36.388538 
L 190.021929 36.321686 
L 192.869313 36.254834 
L 192.869313 36.187982 
L 194.267747 36.12113 
L 194.267747 36.054278 
L 195.015431 35.987426 
L 195.015431 35.920573 
L 195.985554 35.853721 
L 195.985554 35.786869 
L 196.34821 35.720017 
L 196.34821 35.653165 
L 196.504244 35.586313 
L 196.504244 35.519461 
L 196.94189 35.452609 
L 196.94189 35.385756 
L 197.999149 35.318904 
L 197.999149 35.252052 
L 199.087937 35.1852 
L 199.087937 35.118348 
L 199.642893 35.051496 
L 199.642893 34.984644 
L 200.451886 34.917792 
L 200.451886 34.850939 
L 200.894626 34.784087 
L 200.894626 34.717235 
L 202.632453 34.650383 
L 202.632453 34.583531 
L 205.969066 34.516679 
L 206.001199 34.382975 
L 207.257101 34.316122 
L 207.257101 34.24927 
L 208.901165 34.182418 
L 208.901165 34.115566 
L 211.035135 34.048714 
L 211.121168 33.91501 
L 211.773486 33.848158 
L 211.773486 33.781305 
L 212.481413 33.714453 
L 212.481413 33.647601 
L 213.157563 33.580749 
L 213.157563 33.513897 
L 213.671943 33.447045 
L 213.671943 33.380193 
L 215.467553 33.313341 
L 215.541973 33.179636 
L 216.190478 33.112784 
L 216.190478 33.045932 
L 217.121129 32.97908 
L 217.121129 32.912228 
L 217.179696 32.912228 
L 217.699811 32.845376 
L 217.71431 32.711671 
L 218.888382 32.644819 
L 218.888382 32.577967 
L 218.988024 32.577967 
L 219.963846 32.511115 
L 219.963846 32.444263 
L 221.200759 32.377411 
L 221.284619 32.243707 
L 221.82269 32.176854 
L 221.82269 32.110002 
L 222.300947 32.04315 
L 222.300947 31.976298 
L 223.8614 31.909446 
L 223.8614 31.842594 
L 225.633498 31.775742 
L 225.633498 31.70889 
L 225.932565 31.642037 
L 225.932565 31.575185 
L 226.757197 31.508333 
L 226.796242 31.374629 
L 228.425451 31.307777 
L 228.425451 31.240925 
L 229.884339 31.174073 
L 229.884339 31.10722 
L 230.879541 31.040368 
L 230.879541 30.973516 
L 234.07412 30.906664 
L 234.136356 30.77296 
L 234.999142 30.706108 
L 234.999142 30.639256 
L 235.352108 30.572403 
L 235.352108 30.505551 
L 237.661422 30.438699 
L 237.661422 30.371847 
L 237.68073 30.371847 
L 238.945181 30.304995 
L 238.945181 30.238143 
L 239.321731 30.171291 
L 239.321731 30.104439 
L 239.880249 30.037587 
L 239.880249 29.970734 
L 242.147063 29.903882 
L 242.147063 29.83703 
L 242.992821 29.770178 
L 242.992821 29.703326 
L 245.004029 29.636474 
L 245.063095 29.435917 
L 245.464795 29.369065 
L 245.464795 29.302213 
L 247.026816 29.235361 
L 247.026816 29.168509 
L 248.932684 29.101657 
L 248.932684 29.034805 
L 251.203167 28.967953 
L 251.203167 28.9011 
L 253.068173 28.834248 
L 253.068173 28.767396 
L 253.168883 28.767396 
L 254.00235 28.700544 
L 254.00235 28.633692 
L 254.103737 28.633692 
L 254.678038 28.56684 
L 254.678038 28.499988 
L 254.782595 28.499988 
L 256.520957 28.433136 
L 256.520957 28.366283 
L 259.926076 28.299431 
L 260.010256 28.165727 
L 260.035941 28.165727 
L 260.141746 28.098875 
L 260.141746 28.032023 
L 261.58553 27.965171 
L 261.58553 27.898319 
L 262.927642 27.831466 
L 262.927642 27.764614 
L 262.949266 27.764614 
L 268.019502 27.697762 
L 268.019502 27.63091 
L 271.665869 27.564058 
L 271.665869 27.497206 
L 272.806276 27.430354 
L 272.806276 27.363502 
L 274.43919 27.296649 
L 274.43919 27.229797 
L 274.469898 27.229797 
L 279.142888 27.162945 
L 279.142888 27.096093 
L 280.948116 27.029241 
L 280.948116 26.962389 
L 282.023758 26.895537 
L 282.023758 26.895537 
" clip-path="url(#p482491acf3)" style="fill: none; stroke: #1f77b4; stroke-width: 1.5; stroke-linecap: round"/>
   </g>
   <g id="line2d_26">
    <path d="M 42.831699 265.022801 
L 282.023758 26.895537 
" clip-path="url(#p482491acf3)" style="fill: none; stroke-dasharray: 5.55,2.4; stroke-dashoffset: 0; stroke: #999999; stroke-width: 1.5"/>
   </g>
   <g id="patch_3">
    <path d="M 35.655938 265.022801 
L 35.655938 19.751719 
" style="fill: none"/>
   </g>
   <g id="patch_4">
    <path d="M 289.19952 265.022801 
L 289.19952 19.751719 
" style="fill: none"/>
   </g>
   <g id="patch_5">
    <path d="M 35.655938 265.022801 
L 289.19952 265.022801 
" style="fill: none"/>
   </g>
   <g id="patch_6">
    <path d="M 35.655938 19.751719 
L 289.19952 19.751719 
" style="fill: none"/>
   </g>
   <g id="text_15">
    <!-- Model 0: Receiver Operating Characteristic (ROC) Curve -->
    <g style="fill: #333333" transform="translate(42.14976 13.751719) scale(0.09 -0.09)">
     <defs>
      <path id="Arial-BoldMT-4d" d="M 453 0 
L 453 4581 
L 1838 4581 
L 2669 1456 
L 3491 4581 
L 4878 4581 
L 4878 0 
L 4019 0 
L 4019 3606 
L 3109 0 
L 2219 0 
L 1313 3606 
L 1313 0 
L 453 0 
z
" transform="scale(0.015625)"/>
      <path id="Arial-BoldMT-64" d="M 3503 0 
L 2688 0 
L 2688 488 
Q 2484 203 2207 64 
Q 1931 -75 1650 -75 
Q 1078 -75 670 386 
Q 263 847 263 1672 
Q 263 2516 659 2955 
Q 1056 3394 1663 3394 
Q 2219 3394 2625 2931 
L 2625 4581 
L 3503 4581 
L 3503 0 
z
M 1159 1731 
Q 1159 1200 1306 963 
Q 1519 619 1900 619 
Q 2203 619 2415 876 
Q 2628 1134 2628 1647 
Q 2628 2219 2422 2470 
Q 2216 2722 1894 2722 
Q 1581 2722 1370 2473 
Q 1159 2225 1159 1731 
z
" transform="scale(0.015625)"/>
      <path id="Arial-BoldMT-30" d="M 1756 4600 
Q 2422 4600 2797 4125 
Q 3244 3563 3244 2259 
Q 3244 959 2794 391 
Q 2422 -78 1756 -78 
Q 1088 -78 678 436 
Q 269 950 269 2269 
Q 269 3563 719 4131 
Q 1091 4600 1756 4600 
z
M 1756 3872 
Q 1597 3872 1472 3770 
Q 1347 3669 1278 3406 
Q 1188 3066 1188 2259 
Q 1188 1453 1269 1151 
Q 1350 850 1473 750 
Q 1597 650 1756 650 
Q 1916 650 2041 751 
Q 2166 853 2234 1116 
Q 2325 1453 2325 2259 
Q 2325 3066 2244 3367 
Q 2163 3669 2039 3770 
Q 1916 3872 1756 3872 
z
" transform="scale(0.015625)"/>
      <path id="Arial-BoldMT-3a" d="M 628 2441 
L 628 3319 
L 1506 3319 
L 1506 2441 
L 628 2441 
z
M 628 0 
L 628 878 
L 1506 878 
L 1506 0 
L 628 0 
z
" transform="scale(0.015625)"/>
      <path id="Arial-BoldMT-63" d="M 3353 2338 
L 2488 2181 
Q 2444 2441 2289 2572 
Q 2134 2703 1888 2703 
Q 1559 2703 1364 2476 
Q 1169 2250 1169 1719 
Q 1169 1128 1367 884 
Q 1566 641 1900 641 
Q 2150 641 2309 783 
Q 2469 925 2534 1272 
L 3397 1125 
Q 3263 531 2881 228 
Q 2500 -75 1859 -75 
Q 1131 -75 698 384 
Q 266 844 266 1656 
Q 266 2478 700 2936 
Q 1134 3394 1875 3394 
Q 2481 3394 2839 3133 
Q 3197 2872 3353 2338 
z
" transform="scale(0.015625)"/>
      <path id="Arial-BoldMT-4f" d="M 278 2263 
Q 278 2963 488 3438 
Q 644 3788 914 4066 
Q 1184 4344 1506 4478 
Q 1934 4659 2494 4659 
Q 3506 4659 4114 4031 
Q 4722 3403 4722 2284 
Q 4722 1175 4119 548 
Q 3516 -78 2506 -78 
Q 1484 -78 881 545 
Q 278 1169 278 2263 
z
M 1231 2294 
Q 1231 1516 1590 1114 
Q 1950 713 2503 713 
Q 3056 713 3411 1111 
Q 3766 1509 3766 2306 
Q 3766 3094 3420 3481 
Q 3075 3869 2503 3869 
Q 1931 3869 1581 3476 
Q 1231 3084 1231 2294 
z
" transform="scale(0.015625)"/>
      <path id="Arial-BoldMT-70" d="M 434 3319 
L 1253 3319 
L 1253 2831 
Q 1413 3081 1684 3237 
Q 1956 3394 2288 3394 
Q 2866 3394 3269 2941 
Q 3672 2488 3672 1678 
Q 3672 847 3265 386 
Q 2859 -75 2281 -75 
Q 2006 -75 1782 34 
Q 1559 144 1313 409 
L 1313 -1263 
L 434 -1263 
L 434 3319 
z
M 1303 1716 
Q 1303 1156 1525 889 
Q 1747 622 2066 622 
Q 2372 622 2575 867 
Q 2778 1113 2778 1672 
Q 2778 2194 2568 2447 
Q 2359 2700 2050 2700 
Q 1728 2700 1515 2451 
Q 1303 2203 1303 1716 
z
" transform="scale(0.015625)"/>
      <path id="Arial-BoldMT-6e" d="M 3478 0 
L 2600 0 
L 2600 1694 
Q 2600 2231 2544 2389 
Q 2488 2547 2361 2634 
Q 2234 2722 2056 2722 
Q 1828 2722 1647 2597 
Q 1466 2472 1398 2265 
Q 1331 2059 1331 1503 
L 1331 0 
L 453 0 
L 453 3319 
L 1269 3319 
L 1269 2831 
Q 1703 3394 2363 3394 
Q 2653 3394 2893 3289 
Q 3134 3184 3257 3021 
Q 3381 2859 3429 2653 
Q 3478 2447 3478 2063 
L 3478 0 
z
" transform="scale(0.015625)"/>
      <path id="Arial-BoldMT-67" d="M 378 -219 
L 1381 -341 
Q 1406 -516 1497 -581 
Q 1622 -675 1891 -675 
Q 2234 -675 2406 -572 
Q 2522 -503 2581 -350 
Q 2622 -241 2622 53 
L 2622 538 
Q 2228 0 1628 0 
Q 959 0 569 566 
Q 263 1013 263 1678 
Q 263 2513 664 2953 
Q 1066 3394 1663 3394 
Q 2278 3394 2678 2853 
L 2678 3319 
L 3500 3319 
L 3500 341 
Q 3500 -247 3403 -537 
Q 3306 -828 3131 -993 
Q 2956 -1159 2664 -1253 
Q 2372 -1347 1925 -1347 
Q 1081 -1347 728 -1058 
Q 375 -769 375 -325 
Q 375 -281 378 -219 
z
M 1163 1728 
Q 1163 1200 1367 954 
Q 1572 709 1872 709 
Q 2194 709 2416 961 
Q 2638 1213 2638 1706 
Q 2638 2222 2425 2472 
Q 2213 2722 1888 2722 
Q 1572 2722 1367 2476 
Q 1163 2231 1163 1728 
z
" transform="scale(0.015625)"/>
      <path id="Arial-BoldMT-43" d="M 3397 1684 
L 4294 1400 
Q 4088 650 3608 286 
Q 3128 -78 2391 -78 
Q 1478 -78 890 545 
Q 303 1169 303 2250 
Q 303 3394 893 4026 
Q 1484 4659 2447 4659 
Q 3288 4659 3813 4163 
Q 4125 3869 4281 3319 
L 3366 3100 
Q 3284 3456 3026 3662 
Q 2769 3869 2400 3869 
Q 1891 3869 1573 3503 
Q 1256 3138 1256 2319 
Q 1256 1450 1568 1081 
Q 1881 713 2381 713 
Q 2750 713 3015 947 
Q 3281 1181 3397 1684 
z
" transform="scale(0.015625)"/>
      <path id="Arial-BoldMT-68" d="M 1334 4581 
L 1334 2897 
Q 1759 3394 2350 3394 
Q 2653 3394 2897 3281 
Q 3141 3169 3264 2994 
Q 3388 2819 3433 2606 
Q 3478 2394 3478 1947 
L 3478 0 
L 2600 0 
L 2600 1753 
Q 2600 2275 2550 2415 
Q 2500 2556 2373 2639 
Q 2247 2722 2056 2722 
Q 1838 2722 1666 2615 
Q 1494 2509 1414 2295 
Q 1334 2081 1334 1663 
L 1334 0 
L 456 0 
L 456 4581 
L 1334 4581 
z
" transform="scale(0.015625)"/>
     </defs>
     <use xlink:href="#Arial-BoldMT-4d"/>
     <use xlink:href="#Arial-BoldMT-6f" transform="translate(83.300781 0)"/>
     <use xlink:href="#Arial-BoldMT-64" transform="translate(144.384766 0)"/>
     <use xlink:href="#Arial-BoldMT-65" transform="translate(205.46875 0)"/>
     <use xlink:href="#Arial-BoldMT-6c" transform="translate(261.083984 0)"/>
     <use xlink:href="#Arial-BoldMT-20" transform="translate(288.867188 0)"/>
     <use xlink:href="#Arial-BoldMT-30" transform="translate(316.650391 0)"/>
     <use xlink:href="#Arial-BoldMT-3a" transform="translate(372.265625 0)"/>
     <use xlink:href="#Arial-BoldMT-20" transform="translate(405.566406 0)"/>
     <use xlink:href="#Arial-BoldMT-52" transform="translate(433.349609 0)"/>
     <use xlink:href="#Arial-BoldMT-65" transform="translate(505.566406 0)"/>
     <use xlink:href="#Arial-BoldMT-63" transform="translate(561.181641 0)"/>
     <use xlink:href="#Arial-BoldMT-65" transform="translate(616.796875 0)"/>
     <use xlink:href="#Arial-BoldMT-69" transform="translate(672.412109 0)"/>
     <use xlink:href="#Arial-BoldMT-76" transform="translate(700.195312 0)"/>
     <use xlink:href="#Arial-BoldMT-65" transform="translate(755.810547 0)"/>
     <use xlink:href="#Arial-BoldMT-72" transform="translate(811.425781 0)"/>
     <use xlink:href="#Arial-BoldMT-20" transform="translate(850.341797 0)"/>
     <use xlink:href="#Arial-BoldMT-4f" transform="translate(878.125 0)"/>
     <use xlink:href="#Arial-BoldMT-70" transform="translate(955.908203 0)"/>
     <use xlink:href="#Arial-BoldMT-65" transform="translate(1016.992188 0)"/>
     <use xlink:href="#Arial-BoldMT-72" transform="translate(1072.607422 0)"/>
     <use xlink:href="#Arial-BoldMT-61" transform="translate(1111.523438 0)"/>
     <use xlink:href="#Arial-BoldMT-74" transform="translate(1167.138672 0)"/>
     <use xlink:href="#Arial-BoldMT-69" transform="translate(1200.439453 0)"/>
     <use xlink:href="#Arial-BoldMT-6e" transform="translate(1228.222656 0)"/>
     <use xlink:href="#Arial-BoldMT-67" transform="translate(1289.306641 0)"/>
     <use xlink:href="#Arial-BoldMT-20" transform="translate(1350.390625 0)"/>
     <use xlink:href="#Arial-BoldMT-43" transform="translate(1378.173828 0)"/>
     <use xlink:href="#Arial-BoldMT-68" transform="translate(1450.390625 0)"/>
     <use xlink:href="#Arial-BoldMT-61" transform="translate(1511.474609 0)"/>
     <use xlink:href="#Arial-BoldMT-72" transform="translate(1567.089844 0)"/>
     <use xlink:href="#Arial-BoldMT-61" transform="translate(1606.005859 0)"/>
     <use xlink:href="#Arial-BoldMT-63" transform="translate(1661.621094 0)"/>
     <use xlink:href="#Arial-BoldMT-74" transform="translate(1717.236328 0)"/>
     <use xlink:href="#Arial-BoldMT-65" transform="translate(1750.537109 0)"/>
     <use xlink:href="#Arial-BoldMT-72" transform="translate(1806.152344 0)"/>
     <use xlink:href="#Arial-BoldMT-69" transform="translate(1845.068359 0)"/>
     <use xlink:href="#Arial-BoldMT-73" transform="translate(1872.851562 0)"/>
     <use xlink:href="#Arial-BoldMT-74" transform="translate(1928.466797 0)"/>
     <use xlink:href="#Arial-BoldMT-69" transform="translate(1961.767578 0)"/>
     <use xlink:href="#Arial-BoldMT-63" transform="translate(1989.550781 0)"/>
     <use xlink:href="#Arial-BoldMT-20" transform="translate(2045.166016 0)"/>
     <use xlink:href="#Arial-BoldMT-28" transform="translate(2072.949219 0)"/>
     <use xlink:href="#Arial-BoldMT-52" transform="translate(2106.25 0)"/>
     <use xlink:href="#Arial-BoldMT-4f" transform="translate(2178.466797 0)"/>
     <use xlink:href="#Arial-BoldMT-43" transform="translate(2256.25 0)"/>
     <use xlink:href="#Arial-BoldMT-29" transform="translate(2328.466797 0)"/>
     <use xlink:href="#Arial-BoldMT-20" transform="translate(2361.767578 0)"/>
     <use xlink:href="#Arial-BoldMT-43" transform="translate(2389.550781 0)"/>
     <use xlink:href="#Arial-BoldMT-75" transform="translate(2461.767578 0)"/>
     <use xlink:href="#Arial-BoldMT-72" transform="translate(2522.851562 0)"/>
     <use xlink:href="#Arial-BoldMT-76" transform="translate(2561.767578 0)"/>
     <use xlink:href="#Arial-BoldMT-65" transform="translate(2617.382812 0)"/>
    </g>
   </g>
   <g id="legend_1">
    <g id="patch_7">
     <path d="M 182.577645 260.522801 
L 282.89952 260.522801 
Q 284.69952 260.522801 284.69952 258.722801 
L 284.69952 234.161239 
Q 284.69952 232.361239 282.89952 232.361239 
L 182.577645 232.361239 
Q 180.777645 232.361239 180.777645 234.161239 
L 180.777645 258.722801 
Q 180.777645 260.522801 182.577645 260.522801 
z
" style="fill: #ffffff; opacity: 0.8; stroke: #cccccc; stroke-width: 0.75; stroke-linejoin: miter"/>
    </g>
    <g id="line2d_27">
     <path d="M 184.377645 239.25327 
L 193.377645 239.25327 
L 202.377645 239.25327 
" style="fill: none; stroke: #1f77b4; stroke-width: 1.5; stroke-linecap: round"/>
    </g>
    <g id="text_16">
     <!-- ROC curve -->
     <g style="fill: #333333" transform="translate(209.577645 242.40327) scale(0.09 -0.09)">
      <defs>
       <path id="ArialMT-52" d="M 503 0 
L 503 4581 
L 2534 4581 
Q 3147 4581 3465 4457 
Q 3784 4334 3975 4021 
Q 4166 3709 4166 3331 
Q 4166 2844 3850 2509 
Q 3534 2175 2875 2084 
Q 3116 1969 3241 1856 
Q 3506 1613 3744 1247 
L 4541 0 
L 3778 0 
L 3172 953 
Q 2906 1366 2734 1584 
Q 2563 1803 2427 1890 
Q 2291 1978 2150 2013 
Q 2047 2034 1813 2034 
L 1109 2034 
L 1109 0 
L 503 0 
z
M 1109 2559 
L 2413 2559 
Q 2828 2559 3062 2645 
Q 3297 2731 3419 2920 
Q 3541 3109 3541 3331 
Q 3541 3656 3305 3865 
Q 3069 4075 2559 4075 
L 1109 4075 
L 1109 2559 
z
" transform="scale(0.015625)"/>
       <path id="ArialMT-4f" d="M 309 2231 
Q 309 3372 921 4017 
Q 1534 4663 2503 4663 
Q 3138 4663 3647 4359 
Q 4156 4056 4423 3514 
Q 4691 2972 4691 2284 
Q 4691 1588 4409 1038 
Q 4128 488 3612 205 
Q 3097 -78 2500 -78 
Q 1853 -78 1343 234 
Q 834 547 571 1087 
Q 309 1628 309 2231 
z
M 934 2222 
Q 934 1394 1379 917 
Q 1825 441 2497 441 
Q 3181 441 3623 922 
Q 4066 1403 4066 2288 
Q 4066 2847 3877 3264 
Q 3688 3681 3323 3911 
Q 2959 4141 2506 4141 
Q 1863 4141 1398 3698 
Q 934 3256 934 2222 
z
" transform="scale(0.015625)"/>
       <path id="ArialMT-43" d="M 3763 1606 
L 4369 1453 
Q 4178 706 3683 314 
Q 3188 -78 2472 -78 
Q 1731 -78 1267 223 
Q 803 525 561 1097 
Q 319 1669 319 2325 
Q 319 3041 592 3573 
Q 866 4106 1370 4382 
Q 1875 4659 2481 4659 
Q 3169 4659 3637 4309 
Q 4106 3959 4291 3325 
L 3694 3184 
Q 3534 3684 3231 3912 
Q 2928 4141 2469 4141 
Q 1941 4141 1586 3887 
Q 1231 3634 1087 3207 
Q 944 2781 944 2328 
Q 944 1744 1114 1308 
Q 1284 872 1643 656 
Q 2003 441 2422 441 
Q 2931 441 3284 734 
Q 3638 1028 3763 1606 
z
" transform="scale(0.015625)"/>
       <path id="ArialMT-20" transform="scale(0.015625)"/>
       <path id="ArialMT-63" d="M 2588 1216 
L 3141 1144 
Q 3050 572 2676 248 
Q 2303 -75 1759 -75 
Q 1078 -75 664 370 
Q 250 816 250 1647 
Q 250 2184 428 2587 
Q 606 2991 970 3192 
Q 1334 3394 1763 3394 
Q 2303 3394 2647 3120 
Q 2991 2847 3088 2344 
L 2541 2259 
Q 2463 2594 2264 2762 
Q 2066 2931 1784 2931 
Q 1359 2931 1093 2626 
Q 828 2322 828 1663 
Q 828 994 1084 691 
Q 1341 388 1753 388 
Q 2084 388 2306 591 
Q 2528 794 2588 1216 
z
" transform="scale(0.015625)"/>
       <path id="ArialMT-75" d="M 2597 0 
L 2597 488 
Q 2209 -75 1544 -75 
Q 1250 -75 995 37 
Q 741 150 617 320 
Q 494 491 444 738 
Q 409 903 409 1263 
L 409 3319 
L 972 3319 
L 972 1478 
Q 972 1038 1006 884 
Q 1059 663 1231 536 
Q 1403 409 1656 409 
Q 1909 409 2131 539 
Q 2353 669 2445 892 
Q 2538 1116 2538 1541 
L 2538 3319 
L 3100 3319 
L 3100 0 
L 2597 0 
z
" transform="scale(0.015625)"/>
       <path id="ArialMT-72" d="M 416 0 
L 416 3319 
L 922 3319 
L 922 2816 
Q 1116 3169 1280 3281 
Q 1444 3394 1641 3394 
Q 1925 3394 2219 3213 
L 2025 2691 
Q 1819 2813 1613 2813 
Q 1428 2813 1281 2702 
Q 1134 2591 1072 2394 
Q 978 2094 978 1738 
L 978 0 
L 416 0 
z
" transform="scale(0.015625)"/>
       <path id="ArialMT-76" d="M 1344 0 
L 81 3319 
L 675 3319 
L 1388 1331 
Q 1503 1009 1600 663 
Q 1675 925 1809 1294 
L 2547 3319 
L 3125 3319 
L 1869 0 
L 1344 0 
z
" transform="scale(0.015625)"/>
       <path id="ArialMT-65" d="M 2694 1069 
L 3275 997 
Q 3138 488 2766 206 
Q 2394 -75 1816 -75 
Q 1088 -75 661 373 
Q 234 822 234 1631 
Q 234 2469 665 2931 
Q 1097 3394 1784 3394 
Q 2450 3394 2872 2941 
Q 3294 2488 3294 1666 
Q 3294 1616 3291 1516 
L 816 1516 
Q 847 969 1125 678 
Q 1403 388 1819 388 
Q 2128 388 2347 550 
Q 2566 713 2694 1069 
z
M 847 1978 
L 2700 1978 
Q 2663 2397 2488 2606 
Q 2219 2931 1791 2931 
Q 1403 2931 1139 2672 
Q 875 2413 847 1978 
z
" transform="scale(0.015625)"/>
      </defs>
      <use xlink:href="#ArialMT-52"/>
      <use xlink:href="#ArialMT-4f" transform="translate(72.216797 0)"/>
      <use xlink:href="#ArialMT-43" transform="translate(150 0)"/>
      <use xlink:href="#ArialMT-20" transform="translate(222.216797 0)"/>
      <use xlink:href="#ArialMT-63" transform="translate(250 0)"/>
      <use xlink:href="#ArialMT-75" transform="translate(300 0)"/>
      <use xlink:href="#ArialMT-72" transform="translate(355.615234 0)"/>
      <use xlink:href="#ArialMT-76" transform="translate(388.916016 0)"/>
      <use xlink:href="#ArialMT-65" transform="translate(438.916016 0)"/>
     </g>
    </g>
    <g id="line2d_28">
     <path d="M 184.377645 251.984051 
L 193.377645 251.984051 
L 202.377645 251.984051 
" style="fill: none; stroke-dasharray: 5.55,2.4; stroke-dashoffset: 0; stroke: #999999; stroke-width: 1.5"/>
    </g>
    <g id="text_17">
     <!-- Random classifier -->
     <g style="fill: #333333" transform="translate(209.577645 255.134051) scale(0.09 -0.09)">
      <defs>
       <path id="ArialMT-61" d="M 2588 409 
Q 2275 144 1986 34 
Q 1697 -75 1366 -75 
Q 819 -75 525 192 
Q 231 459 231 875 
Q 231 1119 342 1320 
Q 453 1522 633 1644 
Q 813 1766 1038 1828 
Q 1203 1872 1538 1913 
Q 2219 1994 2541 2106 
Q 2544 2222 2544 2253 
Q 2544 2597 2384 2738 
Q 2169 2928 1744 2928 
Q 1347 2928 1158 2789 
Q 969 2650 878 2297 
L 328 2372 
Q 403 2725 575 2942 
Q 747 3159 1072 3276 
Q 1397 3394 1825 3394 
Q 2250 3394 2515 3294 
Q 2781 3194 2906 3042 
Q 3031 2891 3081 2659 
Q 3109 2516 3109 2141 
L 3109 1391 
Q 3109 606 3145 398 
Q 3181 191 3288 0 
L 2700 0 
Q 2613 175 2588 409 
z
M 2541 1666 
Q 2234 1541 1622 1453 
Q 1275 1403 1131 1340 
Q 988 1278 909 1158 
Q 831 1038 831 891 
Q 831 666 1001 516 
Q 1172 366 1500 366 
Q 1825 366 2078 508 
Q 2331 650 2450 897 
Q 2541 1088 2541 1459 
L 2541 1666 
z
" transform="scale(0.015625)"/>
       <path id="ArialMT-6e" d="M 422 0 
L 422 3319 
L 928 3319 
L 928 2847 
Q 1294 3394 1984 3394 
Q 2284 3394 2536 3286 
Q 2788 3178 2913 3003 
Q 3038 2828 3088 2588 
Q 3119 2431 3119 2041 
L 3119 0 
L 2556 0 
L 2556 2019 
Q 2556 2363 2490 2533 
Q 2425 2703 2258 2804 
Q 2091 2906 1866 2906 
Q 1506 2906 1245 2678 
Q 984 2450 984 1813 
L 984 0 
L 422 0 
z
" transform="scale(0.015625)"/>
       <path id="ArialMT-64" d="M 2575 0 
L 2575 419 
Q 2259 -75 1647 -75 
Q 1250 -75 917 144 
Q 584 363 401 755 
Q 219 1147 219 1656 
Q 219 2153 384 2558 
Q 550 2963 881 3178 
Q 1213 3394 1622 3394 
Q 1922 3394 2156 3267 
Q 2391 3141 2538 2938 
L 2538 4581 
L 3097 4581 
L 3097 0 
L 2575 0 
z
M 797 1656 
Q 797 1019 1065 703 
Q 1334 388 1700 388 
Q 2069 388 2326 689 
Q 2584 991 2584 1609 
Q 2584 2291 2321 2609 
Q 2059 2928 1675 2928 
Q 1300 2928 1048 2622 
Q 797 2316 797 1656 
z
" transform="scale(0.015625)"/>
       <path id="ArialMT-6f" d="M 213 1659 
Q 213 2581 725 3025 
Q 1153 3394 1769 3394 
Q 2453 3394 2887 2945 
Q 3322 2497 3322 1706 
Q 3322 1066 3130 698 
Q 2938 331 2570 128 
Q 2203 -75 1769 -75 
Q 1072 -75 642 372 
Q 213 819 213 1659 
z
M 791 1659 
Q 791 1022 1069 705 
Q 1347 388 1769 388 
Q 2188 388 2466 706 
Q 2744 1025 2744 1678 
Q 2744 2294 2464 2611 
Q 2184 2928 1769 2928 
Q 1347 2928 1069 2612 
Q 791 2297 791 1659 
z
" transform="scale(0.015625)"/>
       <path id="ArialMT-6d" d="M 422 0 
L 422 3319 
L 925 3319 
L 925 2853 
Q 1081 3097 1340 3245 
Q 1600 3394 1931 3394 
Q 2300 3394 2536 3241 
Q 2772 3088 2869 2813 
Q 3263 3394 3894 3394 
Q 4388 3394 4653 3120 
Q 4919 2847 4919 2278 
L 4919 0 
L 4359 0 
L 4359 2091 
Q 4359 2428 4304 2576 
Q 4250 2725 4106 2815 
Q 3963 2906 3769 2906 
Q 3419 2906 3187 2673 
Q 2956 2441 2956 1928 
L 2956 0 
L 2394 0 
L 2394 2156 
Q 2394 2531 2256 2718 
Q 2119 2906 1806 2906 
Q 1569 2906 1367 2781 
Q 1166 2656 1075 2415 
Q 984 2175 984 1722 
L 984 0 
L 422 0 
z
" transform="scale(0.015625)"/>
       <path id="ArialMT-6c" d="M 409 0 
L 409 4581 
L 972 4581 
L 972 0 
L 409 0 
z
" transform="scale(0.015625)"/>
       <path id="ArialMT-73" d="M 197 991 
L 753 1078 
Q 800 744 1014 566 
Q 1228 388 1613 388 
Q 2000 388 2187 545 
Q 2375 703 2375 916 
Q 2375 1106 2209 1216 
Q 2094 1291 1634 1406 
Q 1016 1563 777 1677 
Q 538 1791 414 1992 
Q 291 2194 291 2438 
Q 291 2659 392 2848 
Q 494 3038 669 3163 
Q 800 3259 1026 3326 
Q 1253 3394 1513 3394 
Q 1903 3394 2198 3281 
Q 2494 3169 2634 2976 
Q 2775 2784 2828 2463 
L 2278 2388 
Q 2241 2644 2061 2787 
Q 1881 2931 1553 2931 
Q 1166 2931 1000 2803 
Q 834 2675 834 2503 
Q 834 2394 903 2306 
Q 972 2216 1119 2156 
Q 1203 2125 1616 2013 
Q 2213 1853 2448 1751 
Q 2684 1650 2818 1456 
Q 2953 1263 2953 975 
Q 2953 694 2789 445 
Q 2625 197 2315 61 
Q 2006 -75 1616 -75 
Q 969 -75 630 194 
Q 291 463 197 991 
z
" transform="scale(0.015625)"/>
       <path id="ArialMT-69" d="M 425 3934 
L 425 4581 
L 988 4581 
L 988 3934 
L 425 3934 
z
M 425 0 
L 425 3319 
L 988 3319 
L 988 0 
L 425 0 
z
" transform="scale(0.015625)"/>
       <path id="ArialMT-66" d="M 556 0 
L 556 2881 
L 59 2881 
L 59 3319 
L 556 3319 
L 556 3672 
Q 556 4006 616 4169 
Q 697 4388 901 4523 
Q 1106 4659 1475 4659 
Q 1713 4659 2000 4603 
L 1916 4113 
Q 1741 4144 1584 4144 
Q 1328 4144 1222 4034 
Q 1116 3925 1116 3625 
L 1116 3319 
L 1763 3319 
L 1763 2881 
L 1116 2881 
L 1116 0 
L 556 0 
z
" transform="scale(0.015625)"/>
      </defs>
      <use xlink:href="#ArialMT-52"/>
      <use xlink:href="#ArialMT-61" transform="translate(72.216797 0)"/>
      <use xlink:href="#ArialMT-6e" transform="translate(127.832031 0)"/>
      <use xlink:href="#ArialMT-64" transform="translate(183.447266 0)"/>
      <use xlink:href="#ArialMT-6f" transform="translate(239.0625 0)"/>
      <use xlink:href="#ArialMT-6d" transform="translate(294.677734 0)"/>
      <use xlink:href="#ArialMT-20" transform="translate(377.978516 0)"/>
      <use xlink:href="#ArialMT-63" transform="translate(405.761719 0)"/>
      <use xlink:href="#ArialMT-6c" transform="translate(455.761719 0)"/>
      <use xlink:href="#ArialMT-61" transform="translate(477.978516 0)"/>
      <use xlink:href="#ArialMT-73" transform="translate(533.59375 0)"/>
      <use xlink:href="#ArialMT-73" transform="translate(583.59375 0)"/>
      <use xlink:href="#ArialMT-69" transform="translate(633.59375 0)"/>
      <use xlink:href="#ArialMT-66" transform="translate(655.810547 0)"/>
      <use xlink:href="#ArialMT-69" transform="translate(683.59375 0)"/>
      <use xlink:href="#ArialMT-65" transform="translate(705.810547 0)"/>
      <use xlink:href="#ArialMT-72" transform="translate(761.425781 0)"/>
     </g>
    </g>
   </g>
  </g>
 </g>
 <defs>
  <clipPath id="p482491acf3">
   <rect x="35.655938" y="19.751719" width="253.543583" height="245.271083"/>
  </clipPath>
 </defs>
</svg>
