<?xml version="1.0" encoding="utf-8" standalone="no"?>
<!DOCTYPE svg PUBLIC "-//W3C//DTD SVG 1.1//EN"
  "http://www.w3.org/Graphics/SVG/1.1/DTD/svg11.dtd">
<svg xmlns:xlink="http://www.w3.org/1999/xlink" width="720pt" height="432pt" viewBox="0 0 720 432" xmlns="http://www.w3.org/2000/svg" version="1.1">
 <metadata>
  <rdf:RDF xmlns:dc="http://purl.org/dc/elements/1.1/" xmlns:cc="http://creativecommons.org/ns#" xmlns:rdf="http://www.w3.org/1999/02/22-rdf-syntax-ns#">
   <cc:Work>
    <dc:type rdf:resource="http://purl.org/dc/dcmitype/StillImage"/>
    <dc:date>2025-12-17T10:38:42.113782</dc:date>
    <dc:format>image/svg+xml</dc:format>
    <dc:creator>
     <cc:Agent>
      <dc:title>Matplotlib v3.10.8, https://matplotlib.org/</dc:title>
     </cc:Agent>
    </dc:creator>
   </cc:Work>
  </rdf:RDF>
 </metadata>
 <defs>
  <style type="text/css">*{stroke-linejoin: round; stroke-linecap: butt}</style>
 </defs>
 <g id="figure_1">
  <g id="patch_1">
   <path d="M 0 432 
L 720 432 
L 720 0 
L 0 0 
z
" style="fill: #ffffff"/>
  </g>
  <g id="axes_1">
   <g id="patch_2">
    <path d="M 55.77 397.98 
L 684.33 397.98 
L 684.33 13.02 
L 55.77 13.02 
z
" style="fill: #ffffff"/>
   </g>
   <g id="matplotlib.axis_1">
    <g id="xtick_1">
     <g id="line2d_1">
      <path d="M 80.581579 397.98 
L 80.581579 13.02 
" clip-path="url(#p68e548545f)" style="fill: none; stroke: #c0c0c0; stroke-width: 0.25; stroke-linecap: round"/>
     </g>
     <g id="line2d_2"/>
     <g id="text_1">
      <!-- 1950 -->
      <g style="fill: #333333" transform="translate(70.571891 407.922031) scale(0.09 -0.09)">
       <defs>
        <path id="ArialMT-31" d="M 2384 0 
L 1822 0 
L 1822 3584 
Q 1619 3391 1289 3197 
Q 959 3003 697 2906 
L 697 3450 
Q 1169 3672 1522 3987 
Q 1875 4303 2022 4600 
L 2384 4600 
L 2384 0 
z
" transform="scale(0.015625)"/>
        <path id="ArialMT-39" d="M 350 1059 
L 891 1109 
Q 959 728 1153 556 
Q 1347 384 1650 384 
Q 1909 384 2104 503 
Q 2300 622 2425 820 
Q 2550 1019 2634 1356 
Q 2719 1694 2719 2044 
Q 2719 2081 2716 2156 
Q 2547 1888 2255 1720 
Q 1963 1553 1622 1553 
Q 1053 1553 659 1965 
Q 266 2378 266 3053 
Q 266 3750 677 4175 
Q 1088 4600 1706 4600 
Q 2153 4600 2523 4359 
Q 2894 4119 3086 3673 
Q 3278 3228 3278 2384 
Q 3278 1506 3087 986 
Q 2897 466 2520 194 
Q 2144 -78 1638 -78 
Q 1100 -78 759 220 
Q 419 519 350 1059 
z
M 2653 3081 
Q 2653 3566 2395 3850 
Q 2138 4134 1775 4134 
Q 1400 4134 1122 3828 
Q 844 3522 844 3034 
Q 844 2597 1108 2323 
Q 1372 2050 1759 2050 
Q 2150 2050 2401 2323 
Q 2653 2597 2653 3081 
z
" transform="scale(0.015625)"/>
        <path id="ArialMT-35" d="M 266 1200 
L 856 1250 
Q 922 819 1161 601 
Q 1400 384 1738 384 
Q 2144 384 2425 690 
Q 2706 997 2706 1503 
Q 2706 1984 2436 2262 
Q 2166 2541 1728 2541 
Q 1456 2541 1237 2417 
Q 1019 2294 894 2097 
L 366 2166 
L 809 4519 
L 3088 4519 
L 3088 3981 
L 1259 3981 
L 1013 2750 
Q 1425 3038 1878 3038 
Q 2478 3038 2890 2622 
Q 3303 2206 3303 1553 
Q 3303 931 2941 478 
Q 2500 -78 1738 -78 
Q 1113 -78 717 272 
Q 322 622 266 1200 
z
" transform="scale(0.015625)"/>
        <path id="ArialMT-30" d="M 266 2259 
Q 266 3072 433 3567 
Q 600 4063 929 4331 
Q 1259 4600 1759 4600 
Q 2128 4600 2406 4451 
Q 2684 4303 2865 4023 
Q 3047 3744 3150 3342 
Q 3253 2941 3253 2259 
Q 3253 1453 3087 958 
Q 2922 463 2592 192 
Q 2263 -78 1759 -78 
Q 1097 -78 719 397 
Q 266 969 266 2259 
z
M 844 2259 
Q 844 1131 1108 757 
Q 1372 384 1759 384 
Q 2147 384 2411 759 
Q 2675 1134 2675 2259 
Q 2675 3391 2411 3762 
Q 2147 4134 1753 4134 
Q 1366 4134 1134 3806 
Q 844 3388 844 2259 
z
" transform="scale(0.015625)"/>
       </defs>
       <use xlink:href="#ArialMT-31"/>
       <use xlink:href="#ArialMT-39" transform="translate(55.615234 0)"/>
       <use xlink:href="#ArialMT-35" transform="translate(111.230469 0)"/>
       <use xlink:href="#ArialMT-30" transform="translate(166.845703 0)"/>
      </g>
     </g>
    </g>
    <g id="xtick_2">
     <g id="line2d_3">
      <path d="M 121.934211 397.98 
L 121.934211 13.02 
" clip-path="url(#p68e548545f)" style="fill: none; stroke: #c0c0c0; stroke-width: 0.25; stroke-linecap: round"/>
     </g>
     <g id="line2d_4"/>
     <g id="text_2">
      <!-- 1955 -->
      <g style="fill: #333333" transform="translate(111.924523 407.922031) scale(0.09 -0.09)">
       <use xlink:href="#ArialMT-31"/>
       <use xlink:href="#ArialMT-39" transform="translate(55.615234 0)"/>
       <use xlink:href="#ArialMT-35" transform="translate(111.230469 0)"/>
       <use xlink:href="#ArialMT-35" transform="translate(166.845703 0)"/>
      </g>
     </g>
    </g>
    <g id="xtick_3">
     <g id="line2d_5">
      <path d="M 163.286842 397.98 
L 163.286842 13.02 
" clip-path="url(#p68e548545f)" style="fill: none; stroke: #c0c0c0; stroke-width: 0.25; stroke-linecap: round"/>
     </g>
     <g id="line2d_6"/>
     <g id="text_3">
      <!-- 1960 -->
      <g style="fill: #333333" transform="translate(153.277155 407.922031) scale(0.09 -0.09)">
       <defs>
        <path id="ArialMT-36" d="M 3184 3459 
L 2625 3416 
Q 2550 3747 2413 3897 
Q 2184 4138 1850 4138 
Q 1581 4138 1378 3988 
Q 1113 3794 959 3422 
Q 806 3050 800 2363 
Q 1003 2672 1297 2822 
Q 1591 2972 1913 2972 
Q 2475 2972 2870 2558 
Q 3266 2144 3266 1488 
Q 3266 1056 3080 686 
Q 2894 316 2569 119 
Q 2244 -78 1831 -78 
Q 1128 -78 684 439 
Q 241 956 241 2144 
Q 241 3472 731 4075 
Q 1159 4600 1884 4600 
Q 2425 4600 2770 4297 
Q 3116 3994 3184 3459 
z
M 888 1484 
Q 888 1194 1011 928 
Q 1134 663 1356 523 
Q 1578 384 1822 384 
Q 2178 384 2434 671 
Q 2691 959 2691 1453 
Q 2691 1928 2437 2201 
Q 2184 2475 1800 2475 
Q 1419 2475 1153 2201 
Q 888 1928 888 1484 
z
" transform="scale(0.015625)"/>
       </defs>
       <use xlink:href="#ArialMT-31"/>
       <use xlink:href="#ArialMT-39" transform="translate(55.615234 0)"/>
       <use xlink:href="#ArialMT-36" transform="translate(111.230469 0)"/>
       <use xlink:href="#ArialMT-30" transform="translate(166.845703 0)"/>
      </g>
     </g>
    </g>
    <g id="xtick_4">
     <g id="line2d_7">
      <path d="M 204.639474 397.98 
L 204.639474 13.02 
" clip-path="url(#p68e548545f)" style="fill: none; stroke: #c0c0c0; stroke-width: 0.25; stroke-linecap: round"/>
     </g>
     <g id="line2d_8"/>
     <g id="text_4">
      <!-- 1965 -->
      <g style="fill: #333333" transform="translate(194.629786 407.922031) scale(0.09 -0.09)">
       <use xlink:href="#ArialMT-31"/>
       <use xlink:href="#ArialMT-39" transform="translate(55.615234 0)"/>
       <use xlink:href="#ArialMT-36" transform="translate(111.230469 0)"/>
       <use xlink:href="#ArialMT-35" transform="translate(166.845703 0)"/>
      </g>
     </g>
    </g>
    <g id="xtick_5">
     <g id="line2d_9">
      <path d="M 245.992105 397.98 
L 245.992105 13.02 
" clip-path="url(#p68e548545f)" style="fill: none; stroke: #c0c0c0; stroke-width: 0.25; stroke-linecap: round"/>
     </g>
     <g id="line2d_10"/>
     <g id="text_5">
      <!-- 1970 -->
      <g style="fill: #333333" transform="translate(235.982418 407.922031) scale(0.09 -0.09)">
       <defs>
        <path id="ArialMT-37" d="M 303 3981 
L 303 4522 
L 3269 4522 
L 3269 4084 
Q 2831 3619 2401 2847 
Q 1972 2075 1738 1259 
Q 1569 684 1522 0 
L 944 0 
Q 953 541 1156 1306 
Q 1359 2072 1739 2783 
Q 2119 3494 2547 3981 
L 303 3981 
z
" transform="scale(0.015625)"/>
       </defs>
       <use xlink:href="#ArialMT-31"/>
       <use xlink:href="#ArialMT-39" transform="translate(55.615234 0)"/>
       <use xlink:href="#ArialMT-37" transform="translate(111.230469 0)"/>
       <use xlink:href="#ArialMT-30" transform="translate(166.845703 0)"/>
      </g>
     </g>
    </g>
    <g id="xtick_6">
     <g id="line2d_11">
      <path d="M 287.344737 397.98 
L 287.344737 13.02 
" clip-path="url(#p68e548545f)" style="fill: none; stroke: #c0c0c0; stroke-width: 0.25; stroke-linecap: round"/>
     </g>
     <g id="line2d_12"/>
     <g id="text_6">
      <!-- 1975 -->
      <g style="fill: #333333" transform="translate(277.335049 407.922031) scale(0.09 -0.09)">
       <use xlink:href="#ArialMT-31"/>
       <use xlink:href="#ArialMT-39" transform="translate(55.615234 0)"/>
       <use xlink:href="#ArialMT-37" transform="translate(111.230469 0)"/>
       <use xlink:href="#ArialMT-35" transform="translate(166.845703 0)"/>
      </g>
     </g>
    </g>
    <g id="xtick_7">
     <g id="line2d_13">
      <path d="M 328.697368 397.98 
L 328.697368 13.02 
" clip-path="url(#p68e548545f)" style="fill: none; stroke: #c0c0c0; stroke-width: 0.25; stroke-linecap: round"/>
     </g>
     <g id="line2d_14"/>
     <g id="text_7">
      <!-- 1980 -->
      <g style="fill: #333333" transform="translate(318.687681 407.922031) scale(0.09 -0.09)">
       <defs>
        <path id="ArialMT-38" d="M 1131 2484 
Q 781 2613 612 2850 
Q 444 3088 444 3419 
Q 444 3919 803 4259 
Q 1163 4600 1759 4600 
Q 2359 4600 2725 4251 
Q 3091 3903 3091 3403 
Q 3091 3084 2923 2848 
Q 2756 2613 2416 2484 
Q 2838 2347 3058 2040 
Q 3278 1734 3278 1309 
Q 3278 722 2862 322 
Q 2447 -78 1769 -78 
Q 1091 -78 675 323 
Q 259 725 259 1325 
Q 259 1772 486 2073 
Q 713 2375 1131 2484 
z
M 1019 3438 
Q 1019 3113 1228 2906 
Q 1438 2700 1772 2700 
Q 2097 2700 2305 2904 
Q 2513 3109 2513 3406 
Q 2513 3716 2298 3927 
Q 2084 4138 1766 4138 
Q 1444 4138 1231 3931 
Q 1019 3725 1019 3438 
z
M 838 1322 
Q 838 1081 952 856 
Q 1066 631 1291 507 
Q 1516 384 1775 384 
Q 2178 384 2440 643 
Q 2703 903 2703 1303 
Q 2703 1709 2433 1975 
Q 2163 2241 1756 2241 
Q 1359 2241 1098 1978 
Q 838 1716 838 1322 
z
" transform="scale(0.015625)"/>
       </defs>
       <use xlink:href="#ArialMT-31"/>
       <use xlink:href="#ArialMT-39" transform="translate(55.615234 0)"/>
       <use xlink:href="#ArialMT-38" transform="translate(111.230469 0)"/>
       <use xlink:href="#ArialMT-30" transform="translate(166.845703 0)"/>
      </g>
     </g>
    </g>
    <g id="xtick_8">
     <g id="line2d_15">
      <path d="M 370.05 397.98 
L 370.05 13.02 
" clip-path="url(#p68e548545f)" style="fill: none; stroke: #c0c0c0; stroke-width: 0.25; stroke-linecap: round"/>
     </g>
     <g id="line2d_16"/>
     <g id="text_8">
      <!-- 1985 -->
      <g style="fill: #333333" transform="translate(360.040313 407.922031) scale(0.09 -0.09)">
       <use xlink:href="#ArialMT-31"/>
       <use xlink:href="#ArialMT-39" transform="translate(55.615234 0)"/>
       <use xlink:href="#ArialMT-38" transform="translate(111.230469 0)"/>
       <use xlink:href="#ArialMT-35" transform="translate(166.845703 0)"/>
      </g>
     </g>
    </g>
    <g id="xtick_9">
     <g id="line2d_17">
      <path d="M 411.402632 397.98 
L 411.402632 13.02 
" clip-path="url(#p68e548545f)" style="fill: none; stroke: #c0c0c0; stroke-width: 0.25; stroke-linecap: round"/>
     </g>
     <g id="line2d_18"/>
     <g id="text_9">
      <!-- 1990 -->
      <g style="fill: #333333" transform="translate(401.392944 407.922031) scale(0.09 -0.09)">
       <use xlink:href="#ArialMT-31"/>
       <use xlink:href="#ArialMT-39" transform="translate(55.615234 0)"/>
       <use xlink:href="#ArialMT-39" transform="translate(111.230469 0)"/>
       <use xlink:href="#ArialMT-30" transform="translate(166.845703 0)"/>
      </g>
     </g>
    </g>
    <g id="xtick_10">
     <g id="line2d_19">
      <path d="M 452.755263 397.98 
L 452.755263 13.02 
" clip-path="url(#p68e548545f)" style="fill: none; stroke: #c0c0c0; stroke-width: 0.25; stroke-linecap: round"/>
     </g>
     <g id="line2d_20"/>
     <g id="text_10">
      <!-- 1995 -->
      <g style="fill: #333333" transform="translate(442.745576 407.922031) scale(0.09 -0.09)">
       <use xlink:href="#ArialMT-31"/>
       <use xlink:href="#ArialMT-39" transform="translate(55.615234 0)"/>
       <use xlink:href="#ArialMT-39" transform="translate(111.230469 0)"/>
       <use xlink:href="#ArialMT-35" transform="translate(166.845703 0)"/>
      </g>
     </g>
    </g>
    <g id="xtick_11">
     <g id="line2d_21">
      <path d="M 494.107895 397.98 
L 494.107895 13.02 
" clip-path="url(#p68e548545f)" style="fill: none; stroke: #c0c0c0; stroke-width: 0.25; stroke-linecap: round"/>
     </g>
     <g id="line2d_22"/>
     <g id="text_11">
      <!-- 2000 -->
      <g style="fill: #333333" transform="translate(484.098207 407.922031) scale(0.09 -0.09)">
       <defs>
        <path id="ArialMT-32" d="M 3222 541 
L 3222 0 
L 194 0 
Q 188 203 259 391 
Q 375 700 629 1000 
Q 884 1300 1366 1694 
Q 2113 2306 2375 2664 
Q 2638 3022 2638 3341 
Q 2638 3675 2398 3904 
Q 2159 4134 1775 4134 
Q 1369 4134 1125 3890 
Q 881 3647 878 3216 
L 300 3275 
Q 359 3922 746 4261 
Q 1134 4600 1788 4600 
Q 2447 4600 2831 4234 
Q 3216 3869 3216 3328 
Q 3216 3053 3103 2787 
Q 2991 2522 2730 2228 
Q 2469 1934 1863 1422 
Q 1356 997 1212 845 
Q 1069 694 975 541 
L 3222 541 
z
" transform="scale(0.015625)"/>
       </defs>
       <use xlink:href="#ArialMT-32"/>
       <use xlink:href="#ArialMT-30" transform="translate(55.615234 0)"/>
       <use xlink:href="#ArialMT-30" transform="translate(111.230469 0)"/>
       <use xlink:href="#ArialMT-30" transform="translate(166.845703 0)"/>
      </g>
     </g>
    </g>
    <g id="xtick_12">
     <g id="line2d_23">
      <path d="M 535.460526 397.98 
L 535.460526 13.02 
" clip-path="url(#p68e548545f)" style="fill: none; stroke: #c0c0c0; stroke-width: 0.25; stroke-linecap: round"/>
     </g>
     <g id="line2d_24"/>
     <g id="text_12">
      <!-- 2005 -->
      <g style="fill: #333333" transform="translate(525.450839 407.922031) scale(0.09 -0.09)">
       <use xlink:href="#ArialMT-32"/>
       <use xlink:href="#ArialMT-30" transform="translate(55.615234 0)"/>
       <use xlink:href="#ArialMT-30" transform="translate(111.230469 0)"/>
       <use xlink:href="#ArialMT-35" transform="translate(166.845703 0)"/>
      </g>
     </g>
    </g>
    <g id="xtick_13">
     <g id="line2d_25">
      <path d="M 576.813158 397.98 
L 576.813158 13.02 
" clip-path="url(#p68e548545f)" style="fill: none; stroke: #c0c0c0; stroke-width: 0.25; stroke-linecap: round"/>
     </g>
     <g id="line2d_26"/>
     <g id="text_13">
      <!-- 2010 -->
      <g style="fill: #333333" transform="translate(566.80347 407.922031) scale(0.09 -0.09)">
       <use xlink:href="#ArialMT-32"/>
       <use xlink:href="#ArialMT-30" transform="translate(55.615234 0)"/>
       <use xlink:href="#ArialMT-31" transform="translate(111.230469 0)"/>
       <use xlink:href="#ArialMT-30" transform="translate(166.845703 0)"/>
      </g>
     </g>
    </g>
    <g id="xtick_14">
     <g id="line2d_27">
      <path d="M 618.165789 397.98 
L 618.165789 13.02 
" clip-path="url(#p68e548545f)" style="fill: none; stroke: #c0c0c0; stroke-width: 0.25; stroke-linecap: round"/>
     </g>
     <g id="line2d_28"/>
     <g id="text_14">
      <!-- 2015 -->
      <g style="fill: #333333" transform="translate(608.156102 407.922031) scale(0.09 -0.09)">
       <use xlink:href="#ArialMT-32"/>
       <use xlink:href="#ArialMT-30" transform="translate(55.615234 0)"/>
       <use xlink:href="#ArialMT-31" transform="translate(111.230469 0)"/>
       <use xlink:href="#ArialMT-35" transform="translate(166.845703 0)"/>
      </g>
     </g>
    </g>
    <g id="xtick_15">
     <g id="line2d_29">
      <path d="M 659.518421 397.98 
L 659.518421 13.02 
" clip-path="url(#p68e548545f)" style="fill: none; stroke: #c0c0c0; stroke-width: 0.25; stroke-linecap: round"/>
     </g>
     <g id="line2d_30"/>
     <g id="text_15">
      <!-- 2020 -->
      <g style="fill: #333333" transform="translate(649.508734 407.922031) scale(0.09 -0.09)">
       <use xlink:href="#ArialMT-32"/>
       <use xlink:href="#ArialMT-30" transform="translate(55.615234 0)"/>
       <use xlink:href="#ArialMT-32" transform="translate(111.230469 0)"/>
       <use xlink:href="#ArialMT-30" transform="translate(166.845703 0)"/>
      </g>
     </g>
    </g>
    <g id="text_16">
     <!-- Year -->
     <g style="fill: #333333" transform="translate(360.539531 420.152812) scale(0.09 -0.09)">
      <defs>
       <path id="Arial-BoldMT-59" d="M 1669 0 
L 1669 1928 
L -9 4581 
L 1075 4581 
L 2153 2769 
L 3209 4581 
L 4275 4581 
L 2591 1922 
L 2591 0 
L 1669 0 
z
" transform="scale(0.015625)"/>
       <path id="Arial-BoldMT-65" d="M 2381 1056 
L 3256 909 
Q 3088 428 2723 176 
Q 2359 -75 1813 -75 
Q 947 -75 531 491 
Q 203 944 203 1634 
Q 203 2459 634 2926 
Q 1066 3394 1725 3394 
Q 2466 3394 2894 2905 
Q 3322 2416 3303 1406 
L 1103 1406 
Q 1113 1016 1316 798 
Q 1519 581 1822 581 
Q 2028 581 2168 693 
Q 2309 806 2381 1056 
z
M 2431 1944 
Q 2422 2325 2234 2523 
Q 2047 2722 1778 2722 
Q 1491 2722 1303 2513 
Q 1116 2303 1119 1944 
L 2431 1944 
z
" transform="scale(0.015625)"/>
       <path id="Arial-BoldMT-61" d="M 1116 2306 
L 319 2450 
Q 453 2931 781 3162 
Q 1109 3394 1756 3394 
Q 2344 3394 2631 3255 
Q 2919 3116 3036 2902 
Q 3153 2688 3153 2116 
L 3144 1091 
Q 3144 653 3186 445 
Q 3228 238 3344 0 
L 2475 0 
Q 2441 88 2391 259 
Q 2369 338 2359 363 
Q 2134 144 1878 34 
Q 1622 -75 1331 -75 
Q 819 -75 523 203 
Q 228 481 228 906 
Q 228 1188 362 1408 
Q 497 1628 739 1745 
Q 981 1863 1438 1950 
Q 2053 2066 2291 2166 
L 2291 2253 
Q 2291 2506 2166 2614 
Q 2041 2722 1694 2722 
Q 1459 2722 1328 2630 
Q 1197 2538 1116 2306 
z
M 2291 1594 
Q 2122 1538 1756 1459 
Q 1391 1381 1278 1306 
Q 1106 1184 1106 997 
Q 1106 813 1243 678 
Q 1381 544 1594 544 
Q 1831 544 2047 700 
Q 2206 819 2256 991 
Q 2291 1103 2291 1419 
L 2291 1594 
z
" transform="scale(0.015625)"/>
       <path id="Arial-BoldMT-72" d="M 1300 0 
L 422 0 
L 422 3319 
L 1238 3319 
L 1238 2847 
Q 1447 3181 1614 3287 
Q 1781 3394 1994 3394 
Q 2294 3394 2572 3228 
L 2300 2463 
Q 2078 2606 1888 2606 
Q 1703 2606 1575 2504 
Q 1447 2403 1373 2137 
Q 1300 1872 1300 1025 
L 1300 0 
z
" transform="scale(0.015625)"/>
      </defs>
      <use xlink:href="#Arial-BoldMT-59"/>
      <use xlink:href="#Arial-BoldMT-65" transform="translate(61.199219 0)"/>
      <use xlink:href="#Arial-BoldMT-61" transform="translate(116.814453 0)"/>
      <use xlink:href="#Arial-BoldMT-72" transform="translate(172.429688 0)"/>
     </g>
    </g>
   </g>
   <g id="matplotlib.axis_2">
    <g id="ytick_1">
     <g id="line2d_31">
      <path d="M 55.77 397.98 
L 684.33 397.98 
" clip-path="url(#p68e548545f)" style="fill: none; stroke-dasharray: 0.8,1.32; stroke-dashoffset: 0; stroke: #c0c0c0; stroke-width: 0.8"/>
     </g>
     <g id="line2d_32"/>
     <g id="text_17">
      <!-- 0 -->
      <g style="fill: #333333" transform="translate(47.265156 401.201016) scale(0.09 -0.09)">
       <use xlink:href="#ArialMT-30"/>
      </g>
     </g>
    </g>
    <g id="ytick_2">
     <g id="line2d_33">
      <path d="M 55.77 334.117774 
L 684.33 334.117774 
" clip-path="url(#p68e548545f)" style="fill: none; stroke-dasharray: 0.8,1.32; stroke-dashoffset: 0; stroke: #c0c0c0; stroke-width: 0.8"/>
     </g>
     <g id="line2d_34"/>
     <g id="text_18">
      <!-- 100000 -->
      <g style="fill: #333333" transform="translate(22.240938 337.338789) scale(0.09 -0.09)">
       <use xlink:href="#ArialMT-31"/>
       <use xlink:href="#ArialMT-30" transform="translate(55.615234 0)"/>
       <use xlink:href="#ArialMT-30" transform="translate(111.230469 0)"/>
       <use xlink:href="#ArialMT-30" transform="translate(166.845703 0)"/>
       <use xlink:href="#ArialMT-30" transform="translate(222.460938 0)"/>
       <use xlink:href="#ArialMT-30" transform="translate(278.076172 0)"/>
      </g>
     </g>
    </g>
    <g id="ytick_3">
     <g id="line2d_35">
      <path d="M 55.77 270.255547 
L 684.33 270.255547 
" clip-path="url(#p68e548545f)" style="fill: none; stroke-dasharray: 0.8,1.32; stroke-dashoffset: 0; stroke: #c0c0c0; stroke-width: 0.8"/>
     </g>
     <g id="line2d_36"/>
     <g id="text_19">
      <!-- 200000 -->
      <g style="fill: #333333" transform="translate(22.240938 273.476563) scale(0.09 -0.09)">
       <use xlink:href="#ArialMT-32"/>
       <use xlink:href="#ArialMT-30" transform="translate(55.615234 0)"/>
       <use xlink:href="#ArialMT-30" transform="translate(111.230469 0)"/>
       <use xlink:href="#ArialMT-30" transform="translate(166.845703 0)"/>
       <use xlink:href="#ArialMT-30" transform="translate(222.460938 0)"/>
       <use xlink:href="#ArialMT-30" transform="translate(278.076172 0)"/>
      </g>
     </g>
    </g>
    <g id="ytick_4">
     <g id="line2d_37">
      <path d="M 55.77 206.393321 
L 684.33 206.393321 
" clip-path="url(#p68e548545f)" style="fill: none; stroke-dasharray: 0.8,1.32; stroke-dashoffset: 0; stroke: #c0c0c0; stroke-width: 0.8"/>
     </g>
     <g id="line2d_38"/>
     <g id="text_20">
      <!-- 300000 -->
      <g style="fill: #333333" transform="translate(22.240938 209.614336) scale(0.09 -0.09)">
       <defs>
        <path id="ArialMT-33" d="M 269 1209 
L 831 1284 
Q 928 806 1161 595 
Q 1394 384 1728 384 
Q 2125 384 2398 659 
Q 2672 934 2672 1341 
Q 2672 1728 2419 1979 
Q 2166 2231 1775 2231 
Q 1616 2231 1378 2169 
L 1441 2663 
Q 1497 2656 1531 2656 
Q 1891 2656 2178 2843 
Q 2466 3031 2466 3422 
Q 2466 3731 2256 3934 
Q 2047 4138 1716 4138 
Q 1388 4138 1169 3931 
Q 950 3725 888 3313 
L 325 3413 
Q 428 3978 793 4289 
Q 1159 4600 1703 4600 
Q 2078 4600 2393 4439 
Q 2709 4278 2876 4000 
Q 3044 3722 3044 3409 
Q 3044 3113 2884 2869 
Q 2725 2625 2413 2481 
Q 2819 2388 3044 2092 
Q 3269 1797 3269 1353 
Q 3269 753 2831 336 
Q 2394 -81 1725 -81 
Q 1122 -81 723 278 
Q 325 638 269 1209 
z
" transform="scale(0.015625)"/>
       </defs>
       <use xlink:href="#ArialMT-33"/>
       <use xlink:href="#ArialMT-30" transform="translate(55.615234 0)"/>
       <use xlink:href="#ArialMT-30" transform="translate(111.230469 0)"/>
       <use xlink:href="#ArialMT-30" transform="translate(166.845703 0)"/>
       <use xlink:href="#ArialMT-30" transform="translate(222.460938 0)"/>
       <use xlink:href="#ArialMT-30" transform="translate(278.076172 0)"/>
      </g>
     </g>
    </g>
    <g id="ytick_5">
     <g id="line2d_39">
      <path d="M 55.77 142.531094 
L 684.33 142.531094 
" clip-path="url(#p68e548545f)" style="fill: none; stroke-dasharray: 0.8,1.32; stroke-dashoffset: 0; stroke: #c0c0c0; stroke-width: 0.8"/>
     </g>
     <g id="line2d_40"/>
     <g id="text_21">
      <!-- 400000 -->
      <g style="fill: #333333" transform="translate(22.240938 145.75211) scale(0.09 -0.09)">
       <defs>
        <path id="ArialMT-34" d="M 2069 0 
L 2069 1097 
L 81 1097 
L 81 1613 
L 2172 4581 
L 2631 4581 
L 2631 1613 
L 3250 1613 
L 3250 1097 
L 2631 1097 
L 2631 0 
L 2069 0 
z
M 2069 1613 
L 2069 3678 
L 634 1613 
L 2069 1613 
z
" transform="scale(0.015625)"/>
       </defs>
       <use xlink:href="#ArialMT-34"/>
       <use xlink:href="#ArialMT-30" transform="translate(55.615234 0)"/>
       <use xlink:href="#ArialMT-30" transform="translate(111.230469 0)"/>
       <use xlink:href="#ArialMT-30" transform="translate(166.845703 0)"/>
       <use xlink:href="#ArialMT-30" transform="translate(222.460938 0)"/>
       <use xlink:href="#ArialMT-30" transform="translate(278.076172 0)"/>
      </g>
     </g>
    </g>
    <g id="ytick_6">
     <g id="line2d_41">
      <path d="M 55.77 78.668868 
L 684.33 78.668868 
" clip-path="url(#p68e548545f)" style="fill: none; stroke-dasharray: 0.8,1.32; stroke-dashoffset: 0; stroke: #c0c0c0; stroke-width: 0.8"/>
     </g>
     <g id="line2d_42"/>
     <g id="text_22">
      <!-- 500000 -->
      <g style="fill: #333333" transform="translate(22.240938 81.889884) scale(0.09 -0.09)">
       <use xlink:href="#ArialMT-35"/>
       <use xlink:href="#ArialMT-30" transform="translate(55.615234 0)"/>
       <use xlink:href="#ArialMT-30" transform="translate(111.230469 0)"/>
       <use xlink:href="#ArialMT-30" transform="translate(166.845703 0)"/>
       <use xlink:href="#ArialMT-30" transform="translate(222.460938 0)"/>
       <use xlink:href="#ArialMT-30" transform="translate(278.076172 0)"/>
      </g>
     </g>
    </g>
    <g id="ytick_7">
     <g id="line2d_43">
      <path d="M 55.77 14.806642 
L 684.33 14.806642 
" clip-path="url(#p68e548545f)" style="fill: none; stroke-dasharray: 0.8,1.32; stroke-dashoffset: 0; stroke: #c0c0c0; stroke-width: 0.8"/>
     </g>
     <g id="line2d_44"/>
     <g id="text_23">
      <!-- 600000 -->
      <g style="fill: #333333" transform="translate(22.240938 18.027657) scale(0.09 -0.09)">
       <use xlink:href="#ArialMT-36"/>
       <use xlink:href="#ArialMT-30" transform="translate(55.615234 0)"/>
       <use xlink:href="#ArialMT-30" transform="translate(111.230469 0)"/>
       <use xlink:href="#ArialMT-30" transform="translate(166.845703 0)"/>
       <use xlink:href="#ArialMT-30" transform="translate(222.460938 0)"/>
       <use xlink:href="#ArialMT-30" transform="translate(278.076172 0)"/>
      </g>
     </g>
    </g>
    <g id="text_24">
     <!-- Population -->
     <g style="fill: #333333" transform="translate(16.464844 228.745313) rotate(-90) scale(0.09 -0.09)">
      <defs>
       <path id="Arial-BoldMT-50" d="M 466 0 
L 466 4581 
L 1950 4581 
Q 2794 4581 3050 4513 
Q 3444 4409 3709 4064 
Q 3975 3719 3975 3172 
Q 3975 2750 3822 2462 
Q 3669 2175 3433 2011 
Q 3197 1847 2953 1794 
Q 2622 1728 1994 1728 
L 1391 1728 
L 1391 0 
L 466 0 
z
M 1391 3806 
L 1391 2506 
L 1897 2506 
Q 2444 2506 2628 2578 
Q 2813 2650 2917 2803 
Q 3022 2956 3022 3159 
Q 3022 3409 2875 3571 
Q 2728 3734 2503 3775 
Q 2338 3806 1838 3806 
L 1391 3806 
z
" transform="scale(0.015625)"/>
       <path id="Arial-BoldMT-6f" d="M 256 1706 
Q 256 2144 472 2553 
Q 688 2963 1083 3178 
Q 1478 3394 1966 3394 
Q 2719 3394 3200 2905 
Q 3681 2416 3681 1669 
Q 3681 916 3195 420 
Q 2709 -75 1972 -75 
Q 1516 -75 1102 131 
Q 688 338 472 736 
Q 256 1134 256 1706 
z
M 1156 1659 
Q 1156 1166 1390 903 
Q 1625 641 1969 641 
Q 2313 641 2545 903 
Q 2778 1166 2778 1666 
Q 2778 2153 2545 2415 
Q 2313 2678 1969 2678 
Q 1625 2678 1390 2415 
Q 1156 2153 1156 1659 
z
" transform="scale(0.015625)"/>
       <path id="Arial-BoldMT-70" d="M 434 3319 
L 1253 3319 
L 1253 2831 
Q 1413 3081 1684 3237 
Q 1956 3394 2288 3394 
Q 2866 3394 3269 2941 
Q 3672 2488 3672 1678 
Q 3672 847 3265 386 
Q 2859 -75 2281 -75 
Q 2006 -75 1782 34 
Q 1559 144 1313 409 
L 1313 -1263 
L 434 -1263 
L 434 3319 
z
M 1303 1716 
Q 1303 1156 1525 889 
Q 1747 622 2066 622 
Q 2372 622 2575 867 
Q 2778 1113 2778 1672 
Q 2778 2194 2568 2447 
Q 2359 2700 2050 2700 
Q 1728 2700 1515 2451 
Q 1303 2203 1303 1716 
z
" transform="scale(0.015625)"/>
       <path id="Arial-BoldMT-75" d="M 2644 0 
L 2644 497 
Q 2463 231 2167 78 
Q 1872 -75 1544 -75 
Q 1209 -75 943 72 
Q 678 219 559 484 
Q 441 750 441 1219 
L 441 3319 
L 1319 3319 
L 1319 1794 
Q 1319 1094 1367 936 
Q 1416 778 1544 686 
Q 1672 594 1869 594 
Q 2094 594 2272 717 
Q 2450 841 2515 1023 
Q 2581 1206 2581 1919 
L 2581 3319 
L 3459 3319 
L 3459 0 
L 2644 0 
z
" transform="scale(0.015625)"/>
       <path id="Arial-BoldMT-6c" d="M 459 0 
L 459 4581 
L 1338 4581 
L 1338 0 
L 459 0 
z
" transform="scale(0.015625)"/>
       <path id="Arial-BoldMT-74" d="M 1981 3319 
L 1981 2619 
L 1381 2619 
L 1381 1281 
Q 1381 875 1398 808 
Q 1416 741 1477 697 
Q 1538 653 1625 653 
Q 1747 653 1978 738 
L 2053 56 
Q 1747 -75 1359 -75 
Q 1122 -75 931 4 
Q 741 84 652 211 
Q 563 338 528 553 
Q 500 706 500 1172 
L 500 2619 
L 97 2619 
L 97 3319 
L 500 3319 
L 500 3978 
L 1381 4491 
L 1381 3319 
L 1981 3319 
z
" transform="scale(0.015625)"/>
       <path id="Arial-BoldMT-69" d="M 459 3769 
L 459 4581 
L 1338 4581 
L 1338 3769 
L 459 3769 
z
M 459 0 
L 459 3319 
L 1338 3319 
L 1338 0 
L 459 0 
z
" transform="scale(0.015625)"/>
       <path id="Arial-BoldMT-6e" d="M 3478 0 
L 2600 0 
L 2600 1694 
Q 2600 2231 2544 2389 
Q 2488 2547 2361 2634 
Q 2234 2722 2056 2722 
Q 1828 2722 1647 2597 
Q 1466 2472 1398 2265 
Q 1331 2059 1331 1503 
L 1331 0 
L 453 0 
L 453 3319 
L 1269 3319 
L 1269 2831 
Q 1703 3394 2363 3394 
Q 2653 3394 2893 3289 
Q 3134 3184 3257 3021 
Q 3381 2859 3429 2653 
Q 3478 2447 3478 2063 
L 3478 0 
z
" transform="scale(0.015625)"/>
      </defs>
      <use xlink:href="#Arial-BoldMT-50"/>
      <use xlink:href="#Arial-BoldMT-6f" transform="translate(66.699219 0)"/>
      <use xlink:href="#Arial-BoldMT-70" transform="translate(127.783203 0)"/>
      <use xlink:href="#Arial-BoldMT-75" transform="translate(188.867188 0)"/>
      <use xlink:href="#Arial-BoldMT-6c" transform="translate(249.951172 0)"/>
      <use xlink:href="#Arial-BoldMT-61" transform="translate(277.734375 0)"/>
      <use xlink:href="#Arial-BoldMT-74" transform="translate(333.349609 0)"/>
      <use xlink:href="#Arial-BoldMT-69" transform="translate(366.650391 0)"/>
      <use xlink:href="#Arial-BoldMT-6f" transform="translate(394.433594 0)"/>
      <use xlink:href="#Arial-BoldMT-6e" transform="translate(455.517578 0)"/>
     </g>
    </g>
   </g>
   <g id="patch_3">
    <path d="M 64.040526 397.98 
L 97.122632 397.98 
L 97.122632 382.255843 
L 64.040526 382.255843 
z
" clip-path="url(#p68e548545f)" style="fill: #3182bd"/>
   </g>
   <g id="patch_4">
    <path d="M 105.393158 397.98 
L 138.475263 397.98 
L 138.475263 377.953444 
L 105.393158 377.953444 
z
" clip-path="url(#p68e548545f)" style="fill: #3182bd"/>
   </g>
   <g id="patch_5">
    <path d="M 146.745789 397.98 
L 179.827895 397.98 
L 179.827895 374.571301 
L 146.745789 374.571301 
z
" clip-path="url(#p68e548545f)" style="fill: #3182bd"/>
   </g>
   <g id="patch_6">
    <path d="M 188.098421 397.98 
L 221.180526 397.98 
L 221.180526 370.694864 
L 188.098421 370.694864 
z
" clip-path="url(#p68e548545f)" style="fill: #3182bd"/>
   </g>
   <g id="patch_7">
    <path d="M 229.451053 397.98 
L 262.533158 397.98 
L 262.533158 367.758479 
L 229.451053 367.758479 
z
" clip-path="url(#p68e548545f)" style="fill: #3182bd"/>
   </g>
   <g id="patch_8">
    <path d="M 270.803684 397.98 
L 303.885789 397.98 
L 303.885789 366.238558 
L 270.803684 366.238558 
z
" clip-path="url(#p68e548545f)" style="fill: #3182bd"/>
   </g>
   <g id="patch_9">
    <path d="M 312.156316 397.98 
L 345.238421 397.98 
L 345.238421 365.270406 
L 312.156316 365.270406 
z
" clip-path="url(#p68e548545f)" style="fill: #3182bd"/>
   </g>
   <g id="patch_10">
    <path d="M 353.508947 397.98 
L 386.591053 397.98 
L 386.591053 364.390385 
L 353.508947 364.390385 
z
" clip-path="url(#p68e548545f)" style="fill: #3182bd"/>
   </g>
   <g id="patch_11">
    <path d="M 394.861579 397.98 
L 427.943684 397.98 
L 427.943684 361.140436 
L 394.861579 361.140436 
z
" clip-path="url(#p68e548545f)" style="fill: #3182bd"/>
   </g>
   <g id="patch_12">
    <path d="M 436.214211 397.98 
L 469.296316 397.98 
L 469.296316 356.092127 
L 436.214211 356.092127 
z
" clip-path="url(#p68e548545f)" style="fill: #3182bd"/>
   </g>
   <g id="patch_13">
    <path d="M 477.566842 397.98 
L 510.648947 397.98 
L 510.648947 354.10218 
L 477.566842 354.10218 
z
" clip-path="url(#p68e548545f)" style="fill: #3182bd"/>
   </g>
   <g id="patch_14">
    <path d="M 518.919474 397.98 
L 552.001579 397.98 
L 552.001579 351.951939 
L 518.919474 351.951939 
z
" clip-path="url(#p68e548545f)" style="fill: #3182bd"/>
   </g>
   <g id="patch_15">
    <path d="M 560.272105 397.98 
L 593.354211 397.98 
L 593.354211 350.918009 
L 560.272105 350.918009 
z
" clip-path="url(#p68e548545f)" style="fill: #3182bd"/>
   </g>
   <g id="patch_16">
    <path d="M 601.624737 397.98 
L 634.706842 397.98 
L 634.706842 349.000865 
L 601.624737 349.000865 
z
" clip-path="url(#p68e548545f)" style="fill: #3182bd"/>
   </g>
   <g id="patch_17">
    <path d="M 642.977368 397.98 
L 676.059474 397.98 
L 676.059474 346.809114 
L 642.977368 346.809114 
z
" clip-path="url(#p68e548545f)" style="fill: #3182bd"/>
   </g>
   <g id="patch_18">
    <path d="M 64.040526 382.255843 
L 97.122632 382.255843 
L 97.122632 376.035662 
L 64.040526 376.035662 
z
" clip-path="url(#p68e548545f)" style="fill: #6baed6"/>
   </g>
   <g id="patch_19">
    <path d="M 105.393158 377.953444 
L 138.475263 377.953444 
L 138.475263 364.233922 
L 105.393158 364.233922 
z
" clip-path="url(#p68e548545f)" style="fill: #6baed6"/>
   </g>
   <g id="patch_20">
    <path d="M 146.745789 374.571301 
L 179.827895 374.571301 
L 179.827895 357.143938 
L 146.745789 357.143938 
z
" clip-path="url(#p68e548545f)" style="fill: #6baed6"/>
   </g>
   <g id="patch_21">
    <path d="M 188.098421 370.694864 
L 221.180526 370.694864 
L 221.180526 350.428825 
L 188.098421 350.428825 
z
" clip-path="url(#p68e548545f)" style="fill: #6baed6"/>
   </g>
   <g id="patch_22">
    <path d="M 229.451053 367.758479 
L 262.533158 367.758479 
L 262.533158 344.337646 
L 229.451053 344.337646 
z
" clip-path="url(#p68e548545f)" style="fill: #6baed6"/>
   </g>
   <g id="patch_23">
    <path d="M 270.803684 366.238558 
L 303.885789 366.238558 
L 303.885789 340.278563 
L 270.803684 340.278563 
z
" clip-path="url(#p68e548545f)" style="fill: #6baed6"/>
   </g>
   <g id="patch_24">
    <path d="M 312.156316 365.270406 
L 345.238421 365.270406 
L 345.238421 338.160891 
L 312.156316 338.160891 
z
" clip-path="url(#p68e548545f)" style="fill: #6baed6"/>
   </g>
   <g id="patch_25">
    <path d="M 353.508947 364.390385 
L 386.591053 364.390385 
L 386.591053 336.563697 
L 353.508947 336.563697 
z
" clip-path="url(#p68e548545f)" style="fill: #6baed6"/>
   </g>
   <g id="patch_26">
    <path d="M 394.861579 361.140436 
L 427.943684 361.140436 
L 427.943684 332.567837 
L 394.861579 332.567837 
z
" clip-path="url(#p68e548545f)" style="fill: #6baed6"/>
   </g>
   <g id="patch_27">
    <path d="M 436.214211 356.092127 
L 469.296316 356.092127 
L 469.296316 324.471384 
L 436.214211 324.471384 
z
" clip-path="url(#p68e548545f)" style="fill: #6baed6"/>
   </g>
   <g id="patch_28">
    <path d="M 477.566842 354.10218 
L 510.648947 354.10218 
L 510.648947 317.139362 
L 477.566842 317.139362 
z
" clip-path="url(#p68e548545f)" style="fill: #6baed6"/>
   </g>
   <g id="patch_29">
    <path d="M 518.919474 351.951939 
L 552.001579 351.951939 
L 552.001579 312.474865 
L 518.919474 312.474865 
z
" clip-path="url(#p68e548545f)" style="fill: #6baed6"/>
   </g>
   <g id="patch_30">
    <path d="M 560.272105 350.918009 
L 593.354211 350.918009 
L 593.354211 308.46304 
L 560.272105 308.46304 
z
" clip-path="url(#p68e548545f)" style="fill: #6baed6"/>
   </g>
   <g id="patch_31">
    <path d="M 601.624737 349.000865 
L 634.706842 349.000865 
L 634.706842 304.858017 
L 601.624737 304.858017 
z
" clip-path="url(#p68e548545f)" style="fill: #6baed6"/>
   </g>
   <g id="patch_32">
    <path d="M 642.977368 346.809114 
L 676.059474 346.809114 
L 676.059474 300.385107 
L 642.977368 300.385107 
z
" clip-path="url(#p68e548545f)" style="fill: #6baed6"/>
   </g>
   <g id="patch_33">
    <path d="M 64.040526 376.035662 
L 97.122632 376.035662 
L 97.122632 372.578799 
L 64.040526 372.578799 
z
" clip-path="url(#p68e548545f)" style="fill: #9ecae1"/>
   </g>
   <g id="patch_34">
    <path d="M 105.393158 364.233922 
L 138.475263 364.233922 
L 138.475263 359.498538 
L 105.393158 359.498538 
z
" clip-path="url(#p68e548545f)" style="fill: #9ecae1"/>
   </g>
   <g id="patch_35">
    <path d="M 146.745789 357.143938 
L 179.827895 357.143938 
L 179.827895 345.794982 
L 146.745789 345.794982 
z
" clip-path="url(#p68e548545f)" style="fill: #9ecae1"/>
   </g>
   <g id="patch_36">
    <path d="M 188.098421 350.428825 
L 221.180526 350.428825 
L 221.180526 336.033002 
L 188.098421 336.033002 
z
" clip-path="url(#p68e548545f)" style="fill: #9ecae1"/>
   </g>
   <g id="patch_37">
    <path d="M 229.451053 344.337646 
L 262.533158 344.337646 
L 262.533158 327.541242 
L 229.451053 327.541242 
z
" clip-path="url(#p68e548545f)" style="fill: #9ecae1"/>
   </g>
   <g id="patch_38">
    <path d="M 270.803684 340.278563 
L 303.885789 340.278563 
L 303.885789 320.78845 
L 270.803684 320.78845 
z
" clip-path="url(#p68e548545f)" style="fill: #9ecae1"/>
   </g>
   <g id="patch_39">
    <path d="M 312.156316 338.160891 
L 345.238421 338.160891 
L 345.238421 316.413249 
L 312.156316 316.413249 
z
" clip-path="url(#p68e548545f)" style="fill: #9ecae1"/>
   </g>
   <g id="patch_40">
    <path d="M 353.508947 336.563697 
L 386.591053 336.563697 
L 386.591053 313.52029 
L 353.508947 313.52029 
z
" clip-path="url(#p68e548545f)" style="fill: #9ecae1"/>
   </g>
   <g id="patch_41">
    <path d="M 394.861579 332.567837 
L 427.943684 332.567837 
L 427.943684 307.575355 
L 394.861579 307.575355 
z
" clip-path="url(#p68e548545f)" style="fill: #9ecae1"/>
   </g>
   <g id="patch_42">
    <path d="M 436.214211 324.471384 
L 469.296316 324.471384 
L 469.296316 297.417429 
L 436.214211 297.417429 
z
" clip-path="url(#p68e548545f)" style="fill: #9ecae1"/>
   </g>
   <g id="patch_43">
    <path d="M 477.566842 317.139362 
L 510.648947 317.139362 
L 510.648947 286.821409 
L 477.566842 286.821409 
z
" clip-path="url(#p68e548545f)" style="fill: #9ecae1"/>
   </g>
   <g id="patch_44">
    <path d="M 518.919474 312.474865 
L 552.001579 312.474865 
L 552.001579 276.703078 
L 518.919474 276.703078 
z
" clip-path="url(#p68e548545f)" style="fill: #9ecae1"/>
   </g>
   <g id="patch_45">
    <path d="M 560.272105 308.46304 
L 593.354211 308.46304 
L 593.354211 270.079287 
L 560.272105 270.079287 
z
" clip-path="url(#p68e548545f)" style="fill: #9ecae1"/>
   </g>
   <g id="patch_46">
    <path d="M 601.624737 304.858017 
L 634.706842 304.858017 
L 634.706842 263.330327 
L 601.624737 263.330327 
z
" clip-path="url(#p68e548545f)" style="fill: #9ecae1"/>
   </g>
   <g id="patch_47">
    <path d="M 642.977368 300.385107 
L 676.059474 300.385107 
L 676.059474 257.034789 
L 642.977368 257.034789 
z
" clip-path="url(#p68e548545f)" style="fill: #9ecae1"/>
   </g>
   <g id="patch_48">
    <path d="M 64.040526 372.578799 
L 97.122632 372.578799 
L 97.122632 369.441887 
L 64.040526 369.441887 
z
" clip-path="url(#p68e548545f)" style="fill: #c6dbef"/>
   </g>
   <g id="patch_49">
    <path d="M 105.393158 359.498538 
L 138.475263 359.498538 
L 138.475263 356.670719 
L 105.393158 356.670719 
z
" clip-path="url(#p68e548545f)" style="fill: #c6dbef"/>
   </g>
   <g id="patch_50">
    <path d="M 146.745789 345.794982 
L 179.827895 345.794982 
L 179.827895 341.914713 
L 146.745789 341.914713 
z
" clip-path="url(#p68e548545f)" style="fill: #c6dbef"/>
   </g>
   <g id="patch_51">
    <path d="M 188.098421 336.033002 
L 221.180526 336.033002 
L 221.180526 326.722528 
L 188.098421 326.722528 
z
" clip-path="url(#p68e548545f)" style="fill: #c6dbef"/>
   </g>
   <g id="patch_52">
    <path d="M 229.451053 327.541242 
L 262.533158 327.541242 
L 262.533158 315.69863 
L 229.451053 315.69863 
z
" clip-path="url(#p68e548545f)" style="fill: #c6dbef"/>
   </g>
   <g id="patch_53">
    <path d="M 270.803684 320.78845 
L 303.885789 320.78845 
L 303.885789 306.929708 
L 270.803684 306.929708 
z
" clip-path="url(#p68e548545f)" style="fill: #c6dbef"/>
   </g>
   <g id="patch_54">
    <path d="M 312.156316 316.413249 
L 345.238421 316.413249 
L 345.238421 300.237585 
L 312.156316 300.237585 
z
" clip-path="url(#p68e548545f)" style="fill: #c6dbef"/>
   </g>
   <g id="patch_55">
    <path d="M 353.508947 313.52029 
L 386.591053 313.52029 
L 386.591053 295.29401 
L 353.508947 295.29401 
z
" clip-path="url(#p68e548545f)" style="fill: #c6dbef"/>
   </g>
   <g id="patch_56">
    <path d="M 394.861579 307.575355 
L 427.943684 307.575355 
L 427.943684 287.333584 
L 394.861579 287.333584 
z
" clip-path="url(#p68e548545f)" style="fill: #c6dbef"/>
   </g>
   <g id="patch_57">
    <path d="M 436.214211 297.417429 
L 469.296316 297.417429 
L 469.296316 273.370747 
L 436.214211 273.370747 
z
" clip-path="url(#p68e548545f)" style="fill: #c6dbef"/>
   </g>
   <g id="patch_58">
    <path d="M 477.566842 286.821409 
L 510.648947 286.821409 
L 510.648947 260.354986 
L 477.566842 260.354986 
z
" clip-path="url(#p68e548545f)" style="fill: #c6dbef"/>
   </g>
   <g id="patch_59">
    <path d="M 518.919474 276.703078 
L 552.001579 276.703078 
L 552.001579 246.951582 
L 518.919474 246.951582 
z
" clip-path="url(#p68e548545f)" style="fill: #c6dbef"/>
   </g>
   <g id="patch_60">
    <path d="M 560.272105 270.079287 
L 593.354211 270.079287 
L 593.354211 234.928241 
L 560.272105 234.928241 
z
" clip-path="url(#p68e548545f)" style="fill: #c6dbef"/>
   </g>
   <g id="patch_61">
    <path d="M 601.624737 263.330327 
L 634.706842 263.330327 
L 634.706842 225.553266 
L 601.624737 225.553266 
z
" clip-path="url(#p68e548545f)" style="fill: #c6dbef"/>
   </g>
   <g id="patch_62">
    <path d="M 642.977368 257.034789 
L 676.059474 257.034789 
L 676.059474 215.998838 
L 642.977368 215.998838 
z
" clip-path="url(#p68e548545f)" style="fill: #c6dbef"/>
   </g>
   <g id="patch_63">
    <path d="M 64.040526 369.441887 
L 97.122632 369.441887 
L 97.122632 367.241833 
L 64.040526 367.241833 
z
" clip-path="url(#p68e548545f)" style="fill: #e6550d"/>
   </g>
   <g id="patch_64">
    <path d="M 105.393158 356.670719 
L 138.475263 356.670719 
L 138.475263 353.894628 
L 105.393158 353.894628 
z
" clip-path="url(#p68e548545f)" style="fill: #e6550d"/>
   </g>
   <g id="patch_65">
    <path d="M 146.745789 341.914713 
L 179.827895 341.914713 
L 179.827895 339.414507 
L 146.745789 339.414507 
z
" clip-path="url(#p68e548545f)" style="fill: #e6550d"/>
   </g>
   <g id="patch_66">
    <path d="M 188.098421 326.722528 
L 221.180526 326.722528 
L 221.180526 323.303344 
L 188.098421 323.303344 
z
" clip-path="url(#p68e548545f)" style="fill: #e6550d"/>
   </g>
   <g id="patch_67">
    <path d="M 229.451053 315.69863 
L 262.533158 315.69863 
L 262.533158 307.484032 
L 229.451053 307.484032 
z
" clip-path="url(#p68e548545f)" style="fill: #e6550d"/>
   </g>
   <g id="patch_68">
    <path d="M 270.803684 306.929708 
L 303.885789 306.929708 
L 303.885789 296.442892 
L 270.803684 296.442892 
z
" clip-path="url(#p68e548545f)" style="fill: #e6550d"/>
   </g>
   <g id="patch_69">
    <path d="M 312.156316 300.237585 
L 345.238421 300.237585 
L 345.238421 287.925587 
L 312.156316 287.925587 
z
" clip-path="url(#p68e548545f)" style="fill: #e6550d"/>
   </g>
   <g id="patch_70">
    <path d="M 353.508947 295.29401 
L 386.591053 295.29401 
L 386.591053 280.834325 
L 353.508947 280.834325 
z
" clip-path="url(#p68e548545f)" style="fill: #e6550d"/>
   </g>
   <g id="patch_71">
    <path d="M 394.861579 287.333584 
L 427.943684 287.333584 
L 427.943684 270.677038 
L 394.861579 270.677038 
z
" clip-path="url(#p68e548545f)" style="fill: #e6550d"/>
   </g>
   <g id="patch_72">
    <path d="M 436.214211 273.370747 
L 469.296316 273.370747 
L 469.296316 253.847425 
L 436.214211 253.847425 
z
" clip-path="url(#p68e548545f)" style="fill: #e6550d"/>
   </g>
   <g id="patch_73">
    <path d="M 477.566842 260.354986 
L 510.648947 260.354986 
L 510.648947 236.904138 
L 477.566842 236.904138 
z
" clip-path="url(#p68e548545f)" style="fill: #e6550d"/>
   </g>
   <g id="patch_74">
    <path d="M 518.919474 246.951582 
L 552.001579 246.951582 
L 552.001579 221.098876 
L 518.919474 221.098876 
z
" clip-path="url(#p68e548545f)" style="fill: #e6550d"/>
   </g>
   <g id="patch_75">
    <path d="M 560.272105 234.928241 
L 593.354211 234.928241 
L 593.354211 205.84666 
L 560.272105 205.84666 
z
" clip-path="url(#p68e548545f)" style="fill: #e6550d"/>
   </g>
   <g id="patch_76">
    <path d="M 601.624737 225.553266 
L 634.706842 225.553266 
L 634.706842 191.114922 
L 601.624737 191.114922 
z
" clip-path="url(#p68e548545f)" style="fill: #e6550d"/>
   </g>
   <g id="patch_77">
    <path d="M 642.977368 215.998838 
L 676.059474 215.998838 
L 676.059474 178.877642 
L 642.977368 178.877642 
z
" clip-path="url(#p68e548545f)" style="fill: #e6550d"/>
   </g>
   <g id="patch_78">
    <path d="M 64.040526 367.241833 
L 97.122632 367.241833 
L 97.122632 365.923078 
L 64.040526 365.923078 
z
" clip-path="url(#p68e548545f)" style="fill: #fd8d3c"/>
   </g>
   <g id="patch_79">
    <path d="M 105.393158 353.894628 
L 138.475263 353.894628 
L 138.475263 351.901488 
L 105.393158 351.901488 
z
" clip-path="url(#p68e548545f)" style="fill: #fd8d3c"/>
   </g>
   <g id="patch_80">
    <path d="M 146.745789 339.414507 
L 179.827895 339.414507 
L 179.827895 336.900251 
L 146.745789 336.900251 
z
" clip-path="url(#p68e548545f)" style="fill: #fd8d3c"/>
   </g>
   <g id="patch_81">
    <path d="M 188.098421 323.303344 
L 221.180526 323.303344 
L 221.180526 321.039428 
L 188.098421 321.039428 
z
" clip-path="url(#p68e548545f)" style="fill: #fd8d3c"/>
   </g>
   <g id="patch_82">
    <path d="M 229.451053 307.484032 
L 262.533158 307.484032 
L 262.533158 304.383521 
L 229.451053 304.383521 
z
" clip-path="url(#p68e548545f)" style="fill: #fd8d3c"/>
   </g>
   <g id="patch_83">
    <path d="M 270.803684 296.442892 
L 303.885789 296.442892 
L 303.885789 288.986977 
L 270.803684 288.986977 
z
" clip-path="url(#p68e548545f)" style="fill: #fd8d3c"/>
   </g>
   <g id="patch_84">
    <path d="M 312.156316 287.925587 
L 345.238421 287.925587 
L 345.238421 278.386486 
L 312.156316 278.386486 
z
" clip-path="url(#p68e548545f)" style="fill: #fd8d3c"/>
   </g>
   <g id="patch_85">
    <path d="M 353.508947 280.834325 
L 386.591053 280.834325 
L 386.591053 269.574776 
L 353.508947 269.574776 
z
" clip-path="url(#p68e548545f)" style="fill: #fd8d3c"/>
   </g>
   <g id="patch_86">
    <path d="M 394.861579 270.677038 
L 427.943684 270.677038 
L 427.943684 257.15485 
L 394.861579 257.15485 
z
" clip-path="url(#p68e548545f)" style="fill: #fd8d3c"/>
   </g>
   <g id="patch_87">
    <path d="M 436.214211 253.847425 
L 469.296316 253.847425 
L 469.296316 237.708164 
L 436.214211 237.708164 
z
" clip-path="url(#p68e548545f)" style="fill: #fd8d3c"/>
   </g>
   <g id="patch_88">
    <path d="M 477.566842 236.904138 
L 510.648947 236.904138 
L 510.648947 217.875749 
L 477.566842 217.875749 
z
" clip-path="url(#p68e548545f)" style="fill: #fd8d3c"/>
   </g>
   <g id="patch_89">
    <path d="M 518.919474 221.098876 
L 552.001579 221.098876 
L 552.001579 198.215124 
L 518.919474 198.215124 
z
" clip-path="url(#p68e548545f)" style="fill: #fd8d3c"/>
   </g>
   <g id="patch_90">
    <path d="M 560.272105 205.84666 
L 593.354211 205.84666 
L 593.354211 180.611501 
L 560.272105 180.611501 
z
" clip-path="url(#p68e548545f)" style="fill: #fd8d3c"/>
   </g>
   <g id="patch_91">
    <path d="M 601.624737 191.114922 
L 634.706842 191.114922 
L 634.706842 162.701979 
L 601.624737 162.701979 
z
" clip-path="url(#p68e548545f)" style="fill: #fd8d3c"/>
   </g>
   <g id="patch_92">
    <path d="M 642.977368 178.877642 
L 676.059474 178.877642 
L 676.059474 145.132203 
L 642.977368 145.132203 
z
" clip-path="url(#p68e548545f)" style="fill: #fd8d3c"/>
   </g>
   <g id="patch_93">
    <path d="M 64.040526 365.923078 
L 97.122632 365.923078 
L 97.122632 364.823371 
L 64.040526 364.823371 
z
" clip-path="url(#p68e548545f)" style="fill: #fdae6b"/>
   </g>
   <g id="patch_94">
    <path d="M 105.393158 351.901488 
L 138.475263 351.901488 
L 138.475263 350.451177 
L 105.393158 350.451177 
z
" clip-path="url(#p68e548545f)" style="fill: #fdae6b"/>
   </g>
   <g id="patch_95">
    <path d="M 146.745789 336.900251 
L 179.827895 336.900251 
L 179.827895 334.718717 
L 146.745789 334.718717 
z
" clip-path="url(#p68e548545f)" style="fill: #fdae6b"/>
   </g>
   <g id="patch_96">
    <path d="M 188.098421 321.039428 
L 221.180526 321.039428 
L 221.180526 318.157965 
L 188.098421 318.157965 
z
" clip-path="url(#p68e548545f)" style="fill: #fdae6b"/>
   </g>
   <g id="patch_97">
    <path d="M 229.451053 304.383521 
L 262.533158 304.383521 
L 262.533158 301.452883 
L 229.451053 301.452883 
z
" clip-path="url(#p68e548545f)" style="fill: #fdae6b"/>
   </g>
   <g id="patch_98">
    <path d="M 270.803684 288.986977 
L 303.885789 288.986977 
L 303.885789 285.426019 
L 270.803684 285.426019 
z
" clip-path="url(#p68e548545f)" style="fill: #fdae6b"/>
   </g>
   <g id="patch_99">
    <path d="M 312.156316 278.386486 
L 345.238421 278.386486 
L 345.238421 270.855852 
L 312.156316 270.855852 
z
" clip-path="url(#p68e548545f)" style="fill: #fdae6b"/>
   </g>
   <g id="patch_100">
    <path d="M 353.508947 269.574776 
L 386.591053 269.574776 
L 386.591053 257.978673 
L 353.508947 257.978673 
z
" clip-path="url(#p68e548545f)" style="fill: #fdae6b"/>
   </g>
   <g id="patch_101">
    <path d="M 394.861579 257.15485 
L 427.943684 257.15485 
L 427.943684 241.361721 
L 394.861579 241.361721 
z
" clip-path="url(#p68e548545f)" style="fill: #fdae6b"/>
   </g>
   <g id="patch_102">
    <path d="M 436.214211 237.708164 
L 469.296316 237.708164 
L 469.296316 215.312958 
L 436.214211 215.312958 
z
" clip-path="url(#p68e548545f)" style="fill: #fdae6b"/>
   </g>
   <g id="patch_103">
    <path d="M 477.566842 217.875749 
L 510.648947 217.875749 
L 510.648947 189.496014 
L 477.566842 189.496014 
z
" clip-path="url(#p68e548545f)" style="fill: #fdae6b"/>
   </g>
   <g id="patch_104">
    <path d="M 518.919474 198.215124 
L 552.001579 198.215124 
L 552.001579 164.386664 
L 518.919474 164.386664 
z
" clip-path="url(#p68e548545f)" style="fill: #fdae6b"/>
   </g>
   <g id="patch_105">
    <path d="M 560.272105 180.611501 
L 593.354211 180.611501 
L 593.354211 140.218005 
L 560.272105 140.218005 
z
" clip-path="url(#p68e548545f)" style="fill: #fdae6b"/>
   </g>
   <g id="patch_106">
    <path d="M 601.624737 162.701979 
L 634.706842 162.701979 
L 634.706842 116.253704 
L 601.624737 116.253704 
z
" clip-path="url(#p68e548545f)" style="fill: #fdae6b"/>
   </g>
   <g id="patch_107">
    <path d="M 642.977368 145.132203 
L 676.059474 145.132203 
L 676.059474 93.1624 
L 642.977368 93.1624 
z
" clip-path="url(#p68e548545f)" style="fill: #fdae6b"/>
   </g>
   <g id="patch_108">
    <path d="M 64.040526 364.823371 
L 97.122632 364.823371 
L 97.122632 364.449777 
L 64.040526 364.449777 
z
" clip-path="url(#p68e548545f)" style="fill: #fdd0a2"/>
   </g>
   <g id="patch_109">
    <path d="M 105.393158 350.451177 
L 138.475263 350.451177 
L 138.475263 350.020745 
L 105.393158 350.020745 
z
" clip-path="url(#p68e548545f)" style="fill: #fdd0a2"/>
   </g>
   <g id="patch_110">
    <path d="M 146.745789 334.718717 
L 179.827895 334.718717 
L 179.827895 334.255716 
L 146.745789 334.255716 
z
" clip-path="url(#p68e548545f)" style="fill: #fdd0a2"/>
   </g>
   <g id="patch_111">
    <path d="M 188.098421 318.157965 
L 221.180526 318.157965 
L 221.180526 317.560853 
L 188.098421 317.560853 
z
" clip-path="url(#p68e548545f)" style="fill: #fdd0a2"/>
   </g>
   <g id="patch_112">
    <path d="M 229.451053 301.452883 
L 262.533158 301.452883 
L 262.533158 300.555619 
L 229.451053 300.555619 
z
" clip-path="url(#p68e548545f)" style="fill: #fdd0a2"/>
   </g>
   <g id="patch_113">
    <path d="M 270.803684 285.426019 
L 303.885789 285.426019 
L 303.885789 284.206251 
L 270.803684 284.206251 
z
" clip-path="url(#p68e548545f)" style="fill: #fdd0a2"/>
   </g>
   <g id="patch_114">
    <path d="M 312.156316 270.855852 
L 345.238421 270.855852 
L 345.238421 269.523686 
L 312.156316 269.523686 
z
" clip-path="url(#p68e548545f)" style="fill: #fdd0a2"/>
   </g>
   <g id="patch_115">
    <path d="M 353.508947 257.978673 
L 386.591053 257.978673 
L 386.591053 256.242259 
L 353.508947 256.242259 
z
" clip-path="url(#p68e548545f)" style="fill: #fdd0a2"/>
   </g>
   <g id="patch_116">
    <path d="M 394.861579 241.361721 
L 427.943684 241.361721 
L 427.943684 237.438026 
L 394.861579 237.438026 
z
" clip-path="url(#p68e548545f)" style="fill: #fdd0a2"/>
   </g>
   <g id="patch_117">
    <path d="M 436.214211 215.312958 
L 469.296316 215.312958 
L 469.296316 207.159668 
L 436.214211 207.159668 
z
" clip-path="url(#p68e548545f)" style="fill: #fdd0a2"/>
   </g>
   <g id="patch_118">
    <path d="M 477.566842 189.496014 
L 510.648947 189.496014 
L 510.648947 175.488474 
L 477.566842 175.488474 
z
" clip-path="url(#p68e548545f)" style="fill: #fdd0a2"/>
   </g>
   <g id="patch_119">
    <path d="M 518.919474 164.386664 
L 552.001579 164.386664 
L 552.001579 143.915627 
L 518.919474 143.915627 
z
" clip-path="url(#p68e548545f)" style="fill: #fdd0a2"/>
   </g>
   <g id="patch_120">
    <path d="M 560.272105 140.218005 
L 593.354211 140.218005 
L 593.354211 114.277168 
L 560.272105 114.277168 
z
" clip-path="url(#p68e548545f)" style="fill: #fdd0a2"/>
   </g>
   <g id="patch_121">
    <path d="M 601.624737 116.253704 
L 634.706842 116.253704 
L 634.706842 85.335446 
L 601.624737 85.335446 
z
" clip-path="url(#p68e548545f)" style="fill: #fdd0a2"/>
   </g>
   <g id="patch_122">
    <path d="M 642.977368 93.1624 
L 676.059474 93.1624 
L 676.059474 56.110814 
L 642.977368 56.110814 
z
" clip-path="url(#p68e548545f)" style="fill: #fdd0a2"/>
   </g>
   <g id="patch_123">
    <path d="M 64.040526 364.449777 
L 97.122632 364.449777 
L 97.122632 364.249249 
L 64.040526 364.249249 
z
" clip-path="url(#p68e548545f)" style="fill: #31a354"/>
   </g>
   <g id="patch_124">
    <path d="M 105.393158 350.020745 
L 138.475263 350.020745 
L 138.475263 349.813832 
L 105.393158 349.813832 
z
" clip-path="url(#p68e548545f)" style="fill: #31a354"/>
   </g>
   <g id="patch_125">
    <path d="M 146.745789 334.255716 
L 179.827895 334.255716 
L 179.827895 334.034753 
L 146.745789 334.034753 
z
" clip-path="url(#p68e548545f)" style="fill: #31a354"/>
   </g>
   <g id="patch_126">
    <path d="M 188.098421 317.560853 
L 221.180526 317.560853 
L 221.180526 317.305404 
L 188.098421 317.305404 
z
" clip-path="url(#p68e548545f)" style="fill: #31a354"/>
   </g>
   <g id="patch_127">
    <path d="M 229.451053 300.555619 
L 262.533158 300.555619 
L 262.533158 300.281012 
L 229.451053 300.281012 
z
" clip-path="url(#p68e548545f)" style="fill: #31a354"/>
   </g>
   <g id="patch_128">
    <path d="M 270.803684 284.206251 
L 303.885789 284.206251 
L 303.885789 283.851177 
L 270.803684 283.851177 
z
" clip-path="url(#p68e548545f)" style="fill: #31a354"/>
   </g>
   <g id="patch_129">
    <path d="M 312.156316 269.523686 
L 345.238421 269.523686 
L 345.238421 268.98405 
L 312.156316 268.98405 
z
" clip-path="url(#p68e548545f)" style="fill: #31a354"/>
   </g>
   <g id="patch_130">
    <path d="M 353.508947 256.242259 
L 386.591053 256.242259 
L 386.591053 255.494432 
L 353.508947 255.494432 
z
" clip-path="url(#p68e548545f)" style="fill: #31a354"/>
   </g>
   <g id="patch_131">
    <path d="M 394.861579 237.438026 
L 427.943684 237.438026 
L 427.943684 236.575248 
L 394.861579 236.575248 
z
" clip-path="url(#p68e548545f)" style="fill: #31a354"/>
   </g>
   <g id="patch_132">
    <path d="M 436.214211 207.159668 
L 469.296316 207.159668 
L 469.296316 205.907968 
L 436.214211 205.907968 
z
" clip-path="url(#p68e548545f)" style="fill: #31a354"/>
   </g>
   <g id="patch_133">
    <path d="M 477.566842 175.488474 
L 510.648947 175.488474 
L 510.648947 172.438414 
L 477.566842 172.438414 
z
" clip-path="url(#p68e548545f)" style="fill: #31a354"/>
   </g>
   <g id="patch_134">
    <path d="M 518.919474 143.915627 
L 552.001579 143.915627 
L 552.001579 137.579217 
L 518.919474 137.579217 
z
" clip-path="url(#p68e548545f)" style="fill: #31a354"/>
   </g>
   <g id="patch_135">
    <path d="M 560.272105 114.277168 
L 593.354211 114.277168 
L 593.354211 103.451244 
L 560.272105 103.451244 
z
" clip-path="url(#p68e548545f)" style="fill: #31a354"/>
   </g>
   <g id="patch_136">
    <path d="M 601.624737 85.335446 
L 634.706842 85.335446 
L 634.706842 69.653437 
L 601.624737 69.653437 
z
" clip-path="url(#p68e548545f)" style="fill: #31a354"/>
   </g>
   <g id="patch_137">
    <path d="M 642.977368 56.110814 
L 676.059474 56.110814 
L 676.059474 36.370361 
L 642.977368 36.370361 
z
" clip-path="url(#p68e548545f)" style="fill: #31a354"/>
   </g>
   <g id="patch_138">
    <path d="M 64.040526 364.249249 
L 97.122632 364.249249 
L 97.122632 364.239031 
L 64.040526 364.239031 
z
" clip-path="url(#p68e548545f)" style="fill: #74c476"/>
   </g>
   <g id="patch_139">
    <path d="M 105.393158 349.813832 
L 138.475263 349.813832 
L 138.475263 349.760826 
L 105.393158 349.760826 
z
" clip-path="url(#p68e548545f)" style="fill: #74c476"/>
   </g>
   <g id="patch_140">
    <path d="M 146.745789 334.034753 
L 179.827895 334.034753 
L 179.827895 333.953648 
L 146.745789 333.953648 
z
" clip-path="url(#p68e548545f)" style="fill: #74c476"/>
   </g>
   <g id="patch_141">
    <path d="M 188.098421 317.305404 
L 221.180526 317.305404 
L 221.180526 317.212804 
L 188.098421 317.212804 
z
" clip-path="url(#p68e548545f)" style="fill: #74c476"/>
   </g>
   <g id="patch_142">
    <path d="M 229.451053 300.281012 
L 262.533158 300.281012 
L 262.533158 300.174362 
L 229.451053 300.174362 
z
" clip-path="url(#p68e548545f)" style="fill: #74c476"/>
   </g>
   <g id="patch_143">
    <path d="M 270.803684 283.851177 
L 303.885789 283.851177 
L 303.885789 283.7292 
L 270.803684 283.7292 
z
" clip-path="url(#p68e548545f)" style="fill: #74c476"/>
   </g>
   <g id="patch_144">
    <path d="M 312.156316 268.98405 
L 345.238421 268.98405 
L 345.238421 268.853133 
L 312.156316 268.853133 
z
" clip-path="url(#p68e548545f)" style="fill: #74c476"/>
   </g>
   <g id="patch_145">
    <path d="M 353.508947 255.494432 
L 386.591053 255.494432 
L 386.591053 255.321366 
L 353.508947 255.321366 
z
" clip-path="url(#p68e548545f)" style="fill: #74c476"/>
   </g>
   <g id="patch_146">
    <path d="M 394.861579 236.575248 
L 427.943684 236.575248 
L 427.943684 236.321715 
L 394.861579 236.321715 
z
" clip-path="url(#p68e548545f)" style="fill: #74c476"/>
   </g>
   <g id="patch_147">
    <path d="M 436.214211 205.907968 
L 469.296316 205.907968 
L 469.296316 205.561835 
L 436.214211 205.561835 
z
" clip-path="url(#p68e548545f)" style="fill: #74c476"/>
   </g>
   <g id="patch_148">
    <path d="M 477.566842 172.438414 
L 510.648947 172.438414 
L 510.648947 172.027141 
L 477.566842 172.027141 
z
" clip-path="url(#p68e548545f)" style="fill: #74c476"/>
   </g>
   <g id="patch_149">
    <path d="M 518.919474 137.579217 
L 552.001579 137.579217 
L 552.001579 136.950174 
L 518.919474 136.950174 
z
" clip-path="url(#p68e548545f)" style="fill: #74c476"/>
   </g>
   <g id="patch_150">
    <path d="M 560.272105 103.451244 
L 593.354211 103.451244 
L 593.354211 101.969001 
L 560.272105 101.969001 
z
" clip-path="url(#p68e548545f)" style="fill: #74c476"/>
   </g>
   <g id="patch_151">
    <path d="M 601.624737 69.653437 
L 634.706842 69.653437 
L 634.706842 66.723439 
L 601.624737 66.723439 
z
" clip-path="url(#p68e548545f)" style="fill: #74c476"/>
   </g>
   <g id="patch_152">
    <path d="M 642.977368 36.370361 
L 676.059474 36.370361 
L 676.059474 31.351429 
L 642.977368 31.351429 
z
" clip-path="url(#p68e548545f)" style="fill: #74c476"/>
   </g>
   <g id="patch_153">
    <path d="M 55.77 397.98 
L 55.77 13.02 
" style="fill: none"/>
   </g>
   <g id="patch_154">
    <path d="M 684.33 397.98 
L 684.33 13.02 
" style="fill: none"/>
   </g>
   <g id="patch_155">
    <path d="M 55.77 397.98 
L 684.33 397.98 
" style="fill: none"/>
   </g>
  </g>
  <g id="axes_2">
   <g id="matplotlib.axis_3">
    <g id="ytick_8">
     <g id="line2d_45">
      <path d="M 55.77 397.98 
L 684.33 397.98 
" clip-path="url(#p68e548545f)" style="fill: none; stroke: #c0c0c0; stroke-width: 0.25; stroke-linecap: round"/>
     </g>
     <g id="line2d_46"/>
     <g id="text_25">
      <!-- 0 -->
      <g style="fill: #333333" transform="translate(687.83 401.201016) scale(0.09 -0.09)">
       <use xlink:href="#ArialMT-30"/>
      </g>
     </g>
    </g>
    <g id="ytick_9">
     <g id="line2d_47">
      <path d="M 55.77 320.988 
L 684.33 320.988 
" clip-path="url(#p68e548545f)" style="fill: none; stroke: #c0c0c0; stroke-width: 0.25; stroke-linecap: round"/>
     </g>
     <g id="line2d_48"/>
     <g id="text_26">
      <!-- 5 -->
      <g style="fill: #333333" transform="translate(687.83 324.209016) scale(0.09 -0.09)">
       <use xlink:href="#ArialMT-35"/>
      </g>
     </g>
    </g>
    <g id="ytick_10">
     <g id="line2d_49">
      <path d="M 55.77 243.996 
L 684.33 243.996 
" clip-path="url(#p68e548545f)" style="fill: none; stroke: #c0c0c0; stroke-width: 0.25; stroke-linecap: round"/>
     </g>
     <g id="line2d_50"/>
     <g id="text_27">
      <!-- 10 -->
      <g style="fill: #333333" transform="translate(687.83 247.217016) scale(0.09 -0.09)">
       <use xlink:href="#ArialMT-31"/>
       <use xlink:href="#ArialMT-30" transform="translate(55.615234 0)"/>
      </g>
     </g>
    </g>
    <g id="ytick_11">
     <g id="line2d_51">
      <path d="M 55.77 167.004 
L 684.33 167.004 
" clip-path="url(#p68e548545f)" style="fill: none; stroke: #c0c0c0; stroke-width: 0.25; stroke-linecap: round"/>
     </g>
     <g id="line2d_52"/>
     <g id="text_28">
      <!-- 15 -->
      <g style="fill: #333333" transform="translate(687.83 170.225016) scale(0.09 -0.09)">
       <use xlink:href="#ArialMT-31"/>
       <use xlink:href="#ArialMT-35" transform="translate(55.615234 0)"/>
      </g>
     </g>
    </g>
    <g id="ytick_12">
     <g id="line2d_53">
      <path d="M 55.77 90.012 
L 684.33 90.012 
" clip-path="url(#p68e548545f)" style="fill: none; stroke: #c0c0c0; stroke-width: 0.25; stroke-linecap: round"/>
     </g>
     <g id="line2d_54"/>
     <g id="text_29">
      <!-- 20 -->
      <g style="fill: #333333" transform="translate(687.83 93.233016) scale(0.09 -0.09)">
       <use xlink:href="#ArialMT-32"/>
       <use xlink:href="#ArialMT-30" transform="translate(55.615234 0)"/>
      </g>
     </g>
    </g>
    <g id="ytick_13">
     <g id="line2d_55">
      <path d="M 55.77 13.02 
L 684.33 13.02 
" clip-path="url(#p68e548545f)" style="fill: none; stroke: #c0c0c0; stroke-width: 0.25; stroke-linecap: round"/>
     </g>
     <g id="line2d_56"/>
     <g id="text_30">
      <!-- 25 -->
      <g style="fill: #333333" transform="translate(687.83 16.241016) scale(0.09 -0.09)">
       <use xlink:href="#ArialMT-32"/>
       <use xlink:href="#ArialMT-35" transform="translate(55.615234 0)"/>
      </g>
     </g>
    </g>
    <g id="text_31">
     <!-- Population prevalence (per 10,000 people) -->
     <g style="fill: #333333" transform="translate(708.391406 295.521094) rotate(-90) scale(0.09 -0.09)">
      <defs>
       <path id="Arial-BoldMT-20" transform="scale(0.015625)"/>
       <path id="Arial-BoldMT-76" d="M 1372 0 
L 34 3319 
L 956 3319 
L 1581 1625 
L 1763 1059 
Q 1834 1275 1853 1344 
Q 1897 1484 1947 1625 
L 2578 3319 
L 3481 3319 
L 2163 0 
L 1372 0 
z
" transform="scale(0.015625)"/>
       <path id="Arial-BoldMT-63" d="M 3353 2338 
L 2488 2181 
Q 2444 2441 2289 2572 
Q 2134 2703 1888 2703 
Q 1559 2703 1364 2476 
Q 1169 2250 1169 1719 
Q 1169 1128 1367 884 
Q 1566 641 1900 641 
Q 2150 641 2309 783 
Q 2469 925 2534 1272 
L 3397 1125 
Q 3263 531 2881 228 
Q 2500 -75 1859 -75 
Q 1131 -75 698 384 
Q 266 844 266 1656 
Q 266 2478 700 2936 
Q 1134 3394 1875 3394 
Q 2481 3394 2839 3133 
Q 3197 2872 3353 2338 
z
" transform="scale(0.015625)"/>
       <path id="Arial-BoldMT-28" d="M 1916 -1347 
L 1313 -1347 
Q 834 -625 584 153 
Q 334 931 334 1659 
Q 334 2563 644 3369 
Q 913 4069 1325 4659 
L 1925 4659 
Q 1497 3713 1336 3048 
Q 1175 2384 1175 1641 
Q 1175 1128 1270 590 
Q 1366 53 1531 -431 
Q 1641 -750 1916 -1347 
z
" transform="scale(0.015625)"/>
       <path id="Arial-BoldMT-31" d="M 2519 0 
L 1641 0 
L 1641 3309 
Q 1159 2859 506 2644 
L 506 3441 
Q 850 3553 1253 3867 
Q 1656 4181 1806 4600 
L 2519 4600 
L 2519 0 
z
" transform="scale(0.015625)"/>
       <path id="Arial-BoldMT-30" d="M 1756 4600 
Q 2422 4600 2797 4125 
Q 3244 3563 3244 2259 
Q 3244 959 2794 391 
Q 2422 -78 1756 -78 
Q 1088 -78 678 436 
Q 269 950 269 2269 
Q 269 3563 719 4131 
Q 1091 4600 1756 4600 
z
M 1756 3872 
Q 1597 3872 1472 3770 
Q 1347 3669 1278 3406 
Q 1188 3066 1188 2259 
Q 1188 1453 1269 1151 
Q 1350 850 1473 750 
Q 1597 650 1756 650 
Q 1916 650 2041 751 
Q 2166 853 2234 1116 
Q 2325 1453 2325 2259 
Q 2325 3066 2244 3367 
Q 2163 3669 2039 3770 
Q 1916 3872 1756 3872 
z
" transform="scale(0.015625)"/>
       <path id="Arial-BoldMT-2c" d="M 438 878 
L 1316 878 
L 1316 250 
Q 1316 -131 1250 -351 
Q 1184 -572 1001 -747 
Q 819 -922 538 -1022 
L 366 -659 
Q 631 -572 743 -419 
Q 856 -266 863 0 
L 438 0 
L 438 878 
z
" transform="scale(0.015625)"/>
       <path id="Arial-BoldMT-29" d="M 216 -1347 
Q 475 -791 581 -494 
Q 688 -197 778 190 
Q 869 578 912 926 
Q 956 1275 956 1641 
Q 956 2384 797 3048 
Q 638 3713 209 4659 
L 806 4659 
Q 1278 3988 1539 3234 
Q 1800 2481 1800 1706 
Q 1800 1053 1594 306 
Q 1359 -531 822 -1347 
L 216 -1347 
z
" transform="scale(0.015625)"/>
      </defs>
      <use xlink:href="#Arial-BoldMT-50"/>
      <use xlink:href="#Arial-BoldMT-6f" transform="translate(66.699219 0)"/>
      <use xlink:href="#Arial-BoldMT-70" transform="translate(127.783203 0)"/>
      <use xlink:href="#Arial-BoldMT-75" transform="translate(188.867188 0)"/>
      <use xlink:href="#Arial-BoldMT-6c" transform="translate(249.951172 0)"/>
      <use xlink:href="#Arial-BoldMT-61" transform="translate(277.734375 0)"/>
      <use xlink:href="#Arial-BoldMT-74" transform="translate(333.349609 0)"/>
      <use xlink:href="#Arial-BoldMT-69" transform="translate(366.650391 0)"/>
      <use xlink:href="#Arial-BoldMT-6f" transform="translate(394.433594 0)"/>
      <use xlink:href="#Arial-BoldMT-6e" transform="translate(455.517578 0)"/>
      <use xlink:href="#Arial-BoldMT-20" transform="translate(516.601562 0)"/>
      <use xlink:href="#Arial-BoldMT-70" transform="translate(544.384766 0)"/>
      <use xlink:href="#Arial-BoldMT-72" transform="translate(605.46875 0)"/>
      <use xlink:href="#Arial-BoldMT-65" transform="translate(644.384766 0)"/>
      <use xlink:href="#Arial-BoldMT-76" transform="translate(700 0)"/>
      <use xlink:href="#Arial-BoldMT-61" transform="translate(755.615234 0)"/>
      <use xlink:href="#Arial-BoldMT-6c" transform="translate(811.230469 0)"/>
      <use xlink:href="#Arial-BoldMT-65" transform="translate(839.013672 0)"/>
      <use xlink:href="#Arial-BoldMT-6e" transform="translate(894.628906 0)"/>
      <use xlink:href="#Arial-BoldMT-63" transform="translate(955.712891 0)"/>
      <use xlink:href="#Arial-BoldMT-65" transform="translate(1011.328125 0)"/>
      <use xlink:href="#Arial-BoldMT-20" transform="translate(1066.943359 0)"/>
      <use xlink:href="#Arial-BoldMT-28" transform="translate(1094.726562 0)"/>
      <use xlink:href="#Arial-BoldMT-70" transform="translate(1128.027344 0)"/>
      <use xlink:href="#Arial-BoldMT-65" transform="translate(1189.111328 0)"/>
      <use xlink:href="#Arial-BoldMT-72" transform="translate(1244.726562 0)"/>
      <use xlink:href="#Arial-BoldMT-20" transform="translate(1283.642578 0)"/>
      <use xlink:href="#Arial-BoldMT-31" transform="translate(1311.425781 0)"/>
      <use xlink:href="#Arial-BoldMT-30" transform="translate(1367.041016 0)"/>
      <use xlink:href="#Arial-BoldMT-2c" transform="translate(1422.65625 0)"/>
      <use xlink:href="#Arial-BoldMT-30" transform="translate(1450.439453 0)"/>
      <use xlink:href="#Arial-BoldMT-30" transform="translate(1506.054688 0)"/>
      <use xlink:href="#Arial-BoldMT-30" transform="translate(1561.669922 0)"/>
      <use xlink:href="#Arial-BoldMT-20" transform="translate(1617.285156 0)"/>
      <use xlink:href="#Arial-BoldMT-70" transform="translate(1645.068359 0)"/>
      <use xlink:href="#Arial-BoldMT-65" transform="translate(1706.152344 0)"/>
      <use xlink:href="#Arial-BoldMT-6f" transform="translate(1761.767578 0)"/>
      <use xlink:href="#Arial-BoldMT-70" transform="translate(1822.851562 0)"/>
      <use xlink:href="#Arial-BoldMT-6c" transform="translate(1883.935547 0)"/>
      <use xlink:href="#Arial-BoldMT-65" transform="translate(1911.71875 0)"/>
      <use xlink:href="#Arial-BoldMT-29" transform="translate(1967.333984 0)"/>
     </g>
    </g>
   </g>
   <g id="line2d_57">
    <path d="M 80.581579 349.651195 
L 121.934211 337.404852 
L 163.286842 327.728576 
L 204.639474 320.728238 
L 245.992105 315.673424 
L 287.344737 312.700849 
L 328.697368 312.049326 
L 370.05 312.402277 
L 411.402632 309.775707 
L 452.755263 301.805671 
L 494.107895 293.379151 
L 535.460526 284.697008 
L 576.813158 276.39347 
L 618.165789 268.810241 
L 659.518421 261.149936 
" clip-path="url(#p68e548545f)" style="fill: none; stroke: #d65b0e; stroke-width: 1.5; stroke-linecap: round"/>
   </g>
   <g id="line2d_58">
    <path d="M 80.581579 349.651195 
L 121.934211 337.404852 
L 163.286842 327.728576 
L 204.639474 320.728274 
L 245.992105 315.67349 
L 287.344737 312.701025 
L 328.697368 312.051326 
L 370.05 312.44848 
L 411.402632 309.90492 
L 452.755263 302.008397 
L 494.107895 293.71173 
L 535.460526 285.178122 
L 576.813158 277.119524 
L 618.165789 269.790008 
L 659.518421 262.361635 
" clip-path="url(#p68e548545f)" style="fill: none; stroke: #154fb1; stroke-width: 1.5; stroke-linecap: round"/>
   </g>
   <g id="patch_156">
    <path d="M 55.77 397.98 
L 55.77 13.02 
" style="fill: none"/>
   </g>
   <g id="patch_157">
    <path d="M 684.33 397.98 
L 684.33 13.02 
" style="fill: none"/>
   </g>
   <g id="patch_158">
    <path d="M 55.77 397.98 
L 684.33 397.98 
" style="fill: none"/>
   </g>
  </g>
  <g id="legend_1">
   <g id="patch_159">
    <path d="M 114.3 191.989687 
L 190.622812 191.989687 
Q 192.422812 191.989687 192.422812 190.189687 
L 192.422812 62.46 
Q 192.422812 60.66 190.622812 60.66 
L 114.3 60.66 
Q 112.5 60.66 112.5 62.46 
L 112.5 190.189687 
Q 112.5 191.989687 114.3 191.989687 
z
" style="fill: #ffffff; opacity: 0.8; stroke: #cccccc; stroke-width: 0.75; stroke-linejoin: miter"/>
   </g>
   <g id="patch_160">
    <path d="M 116.1 70.72875 
L 134.1 70.72875 
L 134.1 64.42875 
L 116.1 64.42875 
z
" style="fill: #3182bd"/>
   </g>
   <g id="text_32">
    <!-- 0-4 years -->
    <g style="fill: #333333" transform="translate(141.3 70.72875) scale(0.09 -0.09)">
     <defs>
      <path id="ArialMT-2d" d="M 203 1375 
L 203 1941 
L 1931 1941 
L 1931 1375 
L 203 1375 
z
" transform="scale(0.015625)"/>
      <path id="ArialMT-20" transform="scale(0.015625)"/>
      <path id="ArialMT-79" d="M 397 -1278 
L 334 -750 
Q 519 -800 656 -800 
Q 844 -800 956 -737 
Q 1069 -675 1141 -563 
Q 1194 -478 1313 -144 
Q 1328 -97 1363 -6 
L 103 3319 
L 709 3319 
L 1400 1397 
Q 1534 1031 1641 628 
Q 1738 1016 1872 1384 
L 2581 3319 
L 3144 3319 
L 1881 -56 
Q 1678 -603 1566 -809 
Q 1416 -1088 1222 -1217 
Q 1028 -1347 759 -1347 
Q 597 -1347 397 -1278 
z
" transform="scale(0.015625)"/>
      <path id="ArialMT-65" d="M 2694 1069 
L 3275 997 
Q 3138 488 2766 206 
Q 2394 -75 1816 -75 
Q 1088 -75 661 373 
Q 234 822 234 1631 
Q 234 2469 665 2931 
Q 1097 3394 1784 3394 
Q 2450 3394 2872 2941 
Q 3294 2488 3294 1666 
Q 3294 1616 3291 1516 
L 816 1516 
Q 847 969 1125 678 
Q 1403 388 1819 388 
Q 2128 388 2347 550 
Q 2566 713 2694 1069 
z
M 847 1978 
L 2700 1978 
Q 2663 2397 2488 2606 
Q 2219 2931 1791 2931 
Q 1403 2931 1139 2672 
Q 875 2413 847 1978 
z
" transform="scale(0.015625)"/>
      <path id="ArialMT-61" d="M 2588 409 
Q 2275 144 1986 34 
Q 1697 -75 1366 -75 
Q 819 -75 525 192 
Q 231 459 231 875 
Q 231 1119 342 1320 
Q 453 1522 633 1644 
Q 813 1766 1038 1828 
Q 1203 1872 1538 1913 
Q 2219 1994 2541 2106 
Q 2544 2222 2544 2253 
Q 2544 2597 2384 2738 
Q 2169 2928 1744 2928 
Q 1347 2928 1158 2789 
Q 969 2650 878 2297 
L 328 2372 
Q 403 2725 575 2942 
Q 747 3159 1072 3276 
Q 1397 3394 1825 3394 
Q 2250 3394 2515 3294 
Q 2781 3194 2906 3042 
Q 3031 2891 3081 2659 
Q 3109 2516 3109 2141 
L 3109 1391 
Q 3109 606 3145 398 
Q 3181 191 3288 0 
L 2700 0 
Q 2613 175 2588 409 
z
M 2541 1666 
Q 2234 1541 1622 1453 
Q 1275 1403 1131 1340 
Q 988 1278 909 1158 
Q 831 1038 831 891 
Q 831 666 1001 516 
Q 1172 366 1500 366 
Q 1825 366 2078 508 
Q 2331 650 2450 897 
Q 2541 1088 2541 1459 
L 2541 1666 
z
" transform="scale(0.015625)"/>
      <path id="ArialMT-72" d="M 416 0 
L 416 3319 
L 922 3319 
L 922 2816 
Q 1116 3169 1280 3281 
Q 1444 3394 1641 3394 
Q 1925 3394 2219 3213 
L 2025 2691 
Q 1819 2813 1613 2813 
Q 1428 2813 1281 2702 
Q 1134 2591 1072 2394 
Q 978 2094 978 1738 
L 978 0 
L 416 0 
z
" transform="scale(0.015625)"/>
      <path id="ArialMT-73" d="M 197 991 
L 753 1078 
Q 800 744 1014 566 
Q 1228 388 1613 388 
Q 2000 388 2187 545 
Q 2375 703 2375 916 
Q 2375 1106 2209 1216 
Q 2094 1291 1634 1406 
Q 1016 1563 777 1677 
Q 538 1791 414 1992 
Q 291 2194 291 2438 
Q 291 2659 392 2848 
Q 494 3038 669 3163 
Q 800 3259 1026 3326 
Q 1253 3394 1513 3394 
Q 1903 3394 2198 3281 
Q 2494 3169 2634 2976 
Q 2775 2784 2828 2463 
L 2278 2388 
Q 2241 2644 2061 2787 
Q 1881 2931 1553 2931 
Q 1166 2931 1000 2803 
Q 834 2675 834 2503 
Q 834 2394 903 2306 
Q 972 2216 1119 2156 
Q 1203 2125 1616 2013 
Q 2213 1853 2448 1751 
Q 2684 1650 2818 1456 
Q 2953 1263 2953 975 
Q 2953 694 2789 445 
Q 2625 197 2315 61 
Q 2006 -75 1616 -75 
Q 969 -75 630 194 
Q 291 463 197 991 
z
" transform="scale(0.015625)"/>
     </defs>
     <use xlink:href="#ArialMT-30"/>
     <use xlink:href="#ArialMT-2d" transform="translate(55.615234 0)"/>
     <use xlink:href="#ArialMT-34" transform="translate(88.916016 0)"/>
     <use xlink:href="#ArialMT-20" transform="translate(144.53125 0)"/>
     <use xlink:href="#ArialMT-79" transform="translate(172.314453 0)"/>
     <use xlink:href="#ArialMT-65" transform="translate(222.314453 0)"/>
     <use xlink:href="#ArialMT-61" transform="translate(277.929688 0)"/>
     <use xlink:href="#ArialMT-72" transform="translate(333.544922 0)"/>
     <use xlink:href="#ArialMT-73" transform="translate(366.845703 0)"/>
    </g>
   </g>
   <g id="patch_161">
    <path d="M 116.1 83.591719 
L 134.1 83.591719 
L 134.1 77.291719 
L 116.1 77.291719 
z
" style="fill: #6baed6"/>
   </g>
   <g id="text_33">
    <!-- 5-9 years -->
    <g style="fill: #333333" transform="translate(141.3 83.591719) scale(0.09 -0.09)">
     <use xlink:href="#ArialMT-35"/>
     <use xlink:href="#ArialMT-2d" transform="translate(55.615234 0)"/>
     <use xlink:href="#ArialMT-39" transform="translate(88.916016 0)"/>
     <use xlink:href="#ArialMT-20" transform="translate(144.53125 0)"/>
     <use xlink:href="#ArialMT-79" transform="translate(172.314453 0)"/>
     <use xlink:href="#ArialMT-65" transform="translate(222.314453 0)"/>
     <use xlink:href="#ArialMT-61" transform="translate(277.929688 0)"/>
     <use xlink:href="#ArialMT-72" transform="translate(333.544922 0)"/>
     <use xlink:href="#ArialMT-73" transform="translate(366.845703 0)"/>
    </g>
   </g>
   <g id="patch_162">
    <path d="M 116.1 96.454687 
L 134.1 96.454687 
L 134.1 90.154687 
L 116.1 90.154687 
z
" style="fill: #9ecae1"/>
   </g>
   <g id="text_34">
    <!-- 10-14 years -->
    <g style="fill: #333333" transform="translate(141.3 96.454687) scale(0.09 -0.09)">
     <use xlink:href="#ArialMT-31"/>
     <use xlink:href="#ArialMT-30" transform="translate(55.615234 0)"/>
     <use xlink:href="#ArialMT-2d" transform="translate(111.230469 0)"/>
     <use xlink:href="#ArialMT-31" transform="translate(144.53125 0)"/>
     <use xlink:href="#ArialMT-34" transform="translate(200.146484 0)"/>
     <use xlink:href="#ArialMT-20" transform="translate(255.761719 0)"/>
     <use xlink:href="#ArialMT-79" transform="translate(283.544922 0)"/>
     <use xlink:href="#ArialMT-65" transform="translate(333.544922 0)"/>
     <use xlink:href="#ArialMT-61" transform="translate(389.160156 0)"/>
     <use xlink:href="#ArialMT-72" transform="translate(444.775391 0)"/>
     <use xlink:href="#ArialMT-73" transform="translate(478.076172 0)"/>
    </g>
   </g>
   <g id="patch_163">
    <path d="M 116.1 109.317656 
L 134.1 109.317656 
L 134.1 103.017656 
L 116.1 103.017656 
z
" style="fill: #c6dbef"/>
   </g>
   <g id="text_35">
    <!-- 15-19 years -->
    <g style="fill: #333333" transform="translate(141.3 109.317656) scale(0.09 -0.09)">
     <use xlink:href="#ArialMT-31"/>
     <use xlink:href="#ArialMT-35" transform="translate(55.615234 0)"/>
     <use xlink:href="#ArialMT-2d" transform="translate(111.230469 0)"/>
     <use xlink:href="#ArialMT-31" transform="translate(144.53125 0)"/>
     <use xlink:href="#ArialMT-39" transform="translate(200.146484 0)"/>
     <use xlink:href="#ArialMT-20" transform="translate(255.761719 0)"/>
     <use xlink:href="#ArialMT-79" transform="translate(283.544922 0)"/>
     <use xlink:href="#ArialMT-65" transform="translate(333.544922 0)"/>
     <use xlink:href="#ArialMT-61" transform="translate(389.160156 0)"/>
     <use xlink:href="#ArialMT-72" transform="translate(444.775391 0)"/>
     <use xlink:href="#ArialMT-73" transform="translate(478.076172 0)"/>
    </g>
   </g>
   <g id="patch_164">
    <path d="M 116.1 122.180625 
L 134.1 122.180625 
L 134.1 115.880625 
L 116.1 115.880625 
z
" style="fill: #e6550d"/>
   </g>
   <g id="text_36">
    <!-- 20-24 years -->
    <g style="fill: #333333" transform="translate(141.3 122.180625) scale(0.09 -0.09)">
     <use xlink:href="#ArialMT-32"/>
     <use xlink:href="#ArialMT-30" transform="translate(55.615234 0)"/>
     <use xlink:href="#ArialMT-2d" transform="translate(111.230469 0)"/>
     <use xlink:href="#ArialMT-32" transform="translate(144.53125 0)"/>
     <use xlink:href="#ArialMT-34" transform="translate(200.146484 0)"/>
     <use xlink:href="#ArialMT-20" transform="translate(255.761719 0)"/>
     <use xlink:href="#ArialMT-79" transform="translate(283.544922 0)"/>
     <use xlink:href="#ArialMT-65" transform="translate(333.544922 0)"/>
     <use xlink:href="#ArialMT-61" transform="translate(389.160156 0)"/>
     <use xlink:href="#ArialMT-72" transform="translate(444.775391 0)"/>
     <use xlink:href="#ArialMT-73" transform="translate(478.076172 0)"/>
    </g>
   </g>
   <g id="patch_165">
    <path d="M 116.1 135.043594 
L 134.1 135.043594 
L 134.1 128.743594 
L 116.1 128.743594 
z
" style="fill: #fd8d3c"/>
   </g>
   <g id="text_37">
    <!-- 25-29 years -->
    <g style="fill: #333333" transform="translate(141.3 135.043594) scale(0.09 -0.09)">
     <use xlink:href="#ArialMT-32"/>
     <use xlink:href="#ArialMT-35" transform="translate(55.615234 0)"/>
     <use xlink:href="#ArialMT-2d" transform="translate(111.230469 0)"/>
     <use xlink:href="#ArialMT-32" transform="translate(144.53125 0)"/>
     <use xlink:href="#ArialMT-39" transform="translate(200.146484 0)"/>
     <use xlink:href="#ArialMT-20" transform="translate(255.761719 0)"/>
     <use xlink:href="#ArialMT-79" transform="translate(283.544922 0)"/>
     <use xlink:href="#ArialMT-65" transform="translate(333.544922 0)"/>
     <use xlink:href="#ArialMT-61" transform="translate(389.160156 0)"/>
     <use xlink:href="#ArialMT-72" transform="translate(444.775391 0)"/>
     <use xlink:href="#ArialMT-73" transform="translate(478.076172 0)"/>
    </g>
   </g>
   <g id="patch_166">
    <path d="M 116.1 147.906562 
L 134.1 147.906562 
L 134.1 141.606562 
L 116.1 141.606562 
z
" style="fill: #fdae6b"/>
   </g>
   <g id="text_38">
    <!-- 30-39 years -->
    <g style="fill: #333333" transform="translate(141.3 147.906562) scale(0.09 -0.09)">
     <use xlink:href="#ArialMT-33"/>
     <use xlink:href="#ArialMT-30" transform="translate(55.615234 0)"/>
     <use xlink:href="#ArialMT-2d" transform="translate(111.230469 0)"/>
     <use xlink:href="#ArialMT-33" transform="translate(144.53125 0)"/>
     <use xlink:href="#ArialMT-39" transform="translate(200.146484 0)"/>
     <use xlink:href="#ArialMT-20" transform="translate(255.761719 0)"/>
     <use xlink:href="#ArialMT-79" transform="translate(283.544922 0)"/>
     <use xlink:href="#ArialMT-65" transform="translate(333.544922 0)"/>
     <use xlink:href="#ArialMT-61" transform="translate(389.160156 0)"/>
     <use xlink:href="#ArialMT-72" transform="translate(444.775391 0)"/>
     <use xlink:href="#ArialMT-73" transform="translate(478.076172 0)"/>
    </g>
   </g>
   <g id="patch_167">
    <path d="M 116.1 160.769531 
L 134.1 160.769531 
L 134.1 154.469531 
L 116.1 154.469531 
z
" style="fill: #fdd0a2"/>
   </g>
   <g id="text_39">
    <!-- 40-49 years -->
    <g style="fill: #333333" transform="translate(141.3 160.769531) scale(0.09 -0.09)">
     <use xlink:href="#ArialMT-34"/>
     <use xlink:href="#ArialMT-30" transform="translate(55.615234 0)"/>
     <use xlink:href="#ArialMT-2d" transform="translate(111.230469 0)"/>
     <use xlink:href="#ArialMT-34" transform="translate(144.53125 0)"/>
     <use xlink:href="#ArialMT-39" transform="translate(200.146484 0)"/>
     <use xlink:href="#ArialMT-20" transform="translate(255.761719 0)"/>
     <use xlink:href="#ArialMT-79" transform="translate(283.544922 0)"/>
     <use xlink:href="#ArialMT-65" transform="translate(333.544922 0)"/>
     <use xlink:href="#ArialMT-61" transform="translate(389.160156 0)"/>
     <use xlink:href="#ArialMT-72" transform="translate(444.775391 0)"/>
     <use xlink:href="#ArialMT-73" transform="translate(478.076172 0)"/>
    </g>
   </g>
   <g id="patch_168">
    <path d="M 116.1 173.6325 
L 134.1 173.6325 
L 134.1 167.3325 
L 116.1 167.3325 
z
" style="fill: #31a354"/>
   </g>
   <g id="text_40">
    <!-- 50-59 years -->
    <g style="fill: #333333" transform="translate(141.3 173.6325) scale(0.09 -0.09)">
     <use xlink:href="#ArialMT-35"/>
     <use xlink:href="#ArialMT-30" transform="translate(55.615234 0)"/>
     <use xlink:href="#ArialMT-2d" transform="translate(111.230469 0)"/>
     <use xlink:href="#ArialMT-35" transform="translate(144.53125 0)"/>
     <use xlink:href="#ArialMT-39" transform="translate(200.146484 0)"/>
     <use xlink:href="#ArialMT-20" transform="translate(255.761719 0)"/>
     <use xlink:href="#ArialMT-79" transform="translate(283.544922 0)"/>
     <use xlink:href="#ArialMT-65" transform="translate(333.544922 0)"/>
     <use xlink:href="#ArialMT-61" transform="translate(389.160156 0)"/>
     <use xlink:href="#ArialMT-72" transform="translate(444.775391 0)"/>
     <use xlink:href="#ArialMT-73" transform="translate(478.076172 0)"/>
    </g>
   </g>
   <g id="patch_169">
    <path d="M 116.1 186.495469 
L 134.1 186.495469 
L 134.1 180.195469 
L 116.1 180.195469 
z
" style="fill: #74c476"/>
   </g>
   <g id="text_41">
    <!-- 60+ years -->
    <g style="fill: #333333" transform="translate(141.3 186.495469) scale(0.09 -0.09)">
     <defs>
      <path id="ArialMT-2b" d="M 1603 741 
L 1603 1997 
L 356 1997 
L 356 2522 
L 1603 2522 
L 1603 3769 
L 2134 3769 
L 2134 2522 
L 3381 2522 
L 3381 1997 
L 2134 1997 
L 2134 741 
L 1603 741 
z
" transform="scale(0.015625)"/>
     </defs>
     <use xlink:href="#ArialMT-36"/>
     <use xlink:href="#ArialMT-30" transform="translate(55.615234 0)"/>
     <use xlink:href="#ArialMT-2b" transform="translate(111.230469 0)"/>
     <use xlink:href="#ArialMT-20" transform="translate(169.628906 0)"/>
     <use xlink:href="#ArialMT-79" transform="translate(197.412109 0)"/>
     <use xlink:href="#ArialMT-65" transform="translate(247.412109 0)"/>
     <use xlink:href="#ArialMT-61" transform="translate(303.027344 0)"/>
     <use xlink:href="#ArialMT-72" transform="translate(358.642578 0)"/>
     <use xlink:href="#ArialMT-73" transform="translate(391.943359 0)"/>
    </g>
   </g>
  </g>
 </g>
 <defs>
  <clipPath id="p68e548545f">
   <rect x="55.77" y="13.02" width="628.56" height="384.96"/>
  </clipPath>
 </defs>
</svg>
