<?xml version="1.0" encoding="utf-8" standalone="no"?>
<!DOCTYPE svg PUBLIC "-//W3C//DTD SVG 1.1//EN"
  "http://www.w3.org/Graphics/SVG/1.1/DTD/svg11.dtd">
<svg xmlns:xlink="http://www.w3.org/1999/xlink" width="296.39952pt" height="296.39952pt" viewBox="0 0 296.39952 296.39952" xmlns="http://www.w3.org/2000/svg" version="1.1">
 <metadata>
  <rdf:RDF xmlns:dc="http://purl.org/dc/elements/1.1/" xmlns:cc="http://creativecommons.org/ns#" xmlns:rdf="http://www.w3.org/1999/02/22-rdf-syntax-ns#">
   <cc:Work>
    <dc:type rdf:resource="http://purl.org/dc/dcmitype/StillImage"/>
    <dc:date>2026-01-03T07:05:42.677794</dc:date>
    <dc:format>image/svg+xml</dc:format>
    <dc:creator>
     <cc:Agent>
      <dc:title>Matplotlib v3.10.8, https://matplotlib.org/</dc:title>
     </cc:Agent>
    </dc:creator>
   </cc:Work>
  </rdf:RDF>
 </metadata>
 <defs>
  <style type="text/css">*{stroke-linejoin: round; stroke-linecap: butt}</style>
 </defs>
 <g id="figure_1">
  <g id="patch_1">
   <path d="M 0 296.39952 
L 296.39952 296.39952 
L 296.39952 0 
L 0 0 
z
" style="fill: #ffffff"/>
  </g>
  <g id="axes_1">
   <g id="patch_2">
    <path d="M 35.655938 265.022801 
L 289.19952 265.022801 
L 289.19952 19.751719 
L 35.655938 19.751719 
z
" style="fill: #ffffff"/>
   </g>
   <g id="matplotlib.axis_1">
    <g id="xtick_1">
     <g id="line2d_1">
      <path d="M 42.831699 265.022801 
L 42.831699 19.751719 
" clip-path="url(#p8e7b5b18c2)" style="fill: none; stroke: #c0c0c0; stroke-width: 0.25; stroke-linecap: round"/>
     </g>
     <g id="line2d_2"/>
     <g id="text_1">
      <!-- 0.0 -->
      <g style="fill: #333333" transform="translate(36.576699 274.964832) scale(0.09 -0.09)">
       <defs>
        <path id="ArialMT-30" d="M 266 2259 
Q 266 3072 433 3567 
Q 600 4063 929 4331 
Q 1259 4600 1759 4600 
Q 2128 4600 2406 4451 
Q 2684 4303 2865 4023 
Q 3047 3744 3150 3342 
Q 3253 2941 3253 2259 
Q 3253 1453 3087 958 
Q 2922 463 2592 192 
Q 2263 -78 1759 -78 
Q 1097 -78 719 397 
Q 266 969 266 2259 
z
M 844 2259 
Q 844 1131 1108 757 
Q 1372 384 1759 384 
Q 2147 384 2411 759 
Q 2675 1134 2675 2259 
Q 2675 3391 2411 3762 
Q 2147 4134 1753 4134 
Q 1366 4134 1134 3806 
Q 844 3388 844 2259 
z
" transform="scale(0.015625)"/>
        <path id="ArialMT-2e" d="M 581 0 
L 581 641 
L 1222 641 
L 1222 0 
L 581 0 
z
" transform="scale(0.015625)"/>
       </defs>
       <use xlink:href="#ArialMT-30"/>
       <use xlink:href="#ArialMT-2e" transform="translate(55.615234 0)"/>
       <use xlink:href="#ArialMT-30" transform="translate(83.398438 0)"/>
      </g>
     </g>
    </g>
    <g id="xtick_2">
     <g id="line2d_3">
      <path d="M 90.670111 265.022801 
L 90.670111 19.751719 
" clip-path="url(#p8e7b5b18c2)" style="fill: none; stroke: #c0c0c0; stroke-width: 0.25; stroke-linecap: round"/>
     </g>
     <g id="line2d_4"/>
     <g id="text_2">
      <!-- 0.2 -->
      <g style="fill: #333333" transform="translate(84.415111 274.964832) scale(0.09 -0.09)">
       <defs>
        <path id="ArialMT-32" d="M 3222 541 
L 3222 0 
L 194 0 
Q 188 203 259 391 
Q 375 700 629 1000 
Q 884 1300 1366 1694 
Q 2113 2306 2375 2664 
Q 2638 3022 2638 3341 
Q 2638 3675 2398 3904 
Q 2159 4134 1775 4134 
Q 1369 4134 1125 3890 
Q 881 3647 878 3216 
L 300 3275 
Q 359 3922 746 4261 
Q 1134 4600 1788 4600 
Q 2447 4600 2831 4234 
Q 3216 3869 3216 3328 
Q 3216 3053 3103 2787 
Q 2991 2522 2730 2228 
Q 2469 1934 1863 1422 
Q 1356 997 1212 845 
Q 1069 694 975 541 
L 3222 541 
z
" transform="scale(0.015625)"/>
       </defs>
       <use xlink:href="#ArialMT-30"/>
       <use xlink:href="#ArialMT-2e" transform="translate(55.615234 0)"/>
       <use xlink:href="#ArialMT-32" transform="translate(83.398438 0)"/>
      </g>
     </g>
    </g>
    <g id="xtick_3">
     <g id="line2d_5">
      <path d="M 138.508523 265.022801 
L 138.508523 19.751719 
" clip-path="url(#p8e7b5b18c2)" style="fill: none; stroke: #c0c0c0; stroke-width: 0.25; stroke-linecap: round"/>
     </g>
     <g id="line2d_6"/>
     <g id="text_3">
      <!-- 0.4 -->
      <g style="fill: #333333" transform="translate(132.253523 274.964832) scale(0.09 -0.09)">
       <defs>
        <path id="ArialMT-34" d="M 2069 0 
L 2069 1097 
L 81 1097 
L 81 1613 
L 2172 4581 
L 2631 4581 
L 2631 1613 
L 3250 1613 
L 3250 1097 
L 2631 1097 
L 2631 0 
L 2069 0 
z
M 2069 1613 
L 2069 3678 
L 634 1613 
L 2069 1613 
z
" transform="scale(0.015625)"/>
       </defs>
       <use xlink:href="#ArialMT-30"/>
       <use xlink:href="#ArialMT-2e" transform="translate(55.615234 0)"/>
       <use xlink:href="#ArialMT-34" transform="translate(83.398438 0)"/>
      </g>
     </g>
    </g>
    <g id="xtick_4">
     <g id="line2d_7">
      <path d="M 186.346935 265.022801 
L 186.346935 19.751719 
" clip-path="url(#p8e7b5b18c2)" style="fill: none; stroke: #c0c0c0; stroke-width: 0.25; stroke-linecap: round"/>
     </g>
     <g id="line2d_8"/>
     <g id="text_4">
      <!-- 0.6 -->
      <g style="fill: #333333" transform="translate(180.091935 274.964832) scale(0.09 -0.09)">
       <defs>
        <path id="ArialMT-36" d="M 3184 3459 
L 2625 3416 
Q 2550 3747 2413 3897 
Q 2184 4138 1850 4138 
Q 1581 4138 1378 3988 
Q 1113 3794 959 3422 
Q 806 3050 800 2363 
Q 1003 2672 1297 2822 
Q 1591 2972 1913 2972 
Q 2475 2972 2870 2558 
Q 3266 2144 3266 1488 
Q 3266 1056 3080 686 
Q 2894 316 2569 119 
Q 2244 -78 1831 -78 
Q 1128 -78 684 439 
Q 241 956 241 2144 
Q 241 3472 731 4075 
Q 1159 4600 1884 4600 
Q 2425 4600 2770 4297 
Q 3116 3994 3184 3459 
z
M 888 1484 
Q 888 1194 1011 928 
Q 1134 663 1356 523 
Q 1578 384 1822 384 
Q 2178 384 2434 671 
Q 2691 959 2691 1453 
Q 2691 1928 2437 2201 
Q 2184 2475 1800 2475 
Q 1419 2475 1153 2201 
Q 888 1928 888 1484 
z
" transform="scale(0.015625)"/>
       </defs>
       <use xlink:href="#ArialMT-30"/>
       <use xlink:href="#ArialMT-2e" transform="translate(55.615234 0)"/>
       <use xlink:href="#ArialMT-36" transform="translate(83.398438 0)"/>
      </g>
     </g>
    </g>
    <g id="xtick_5">
     <g id="line2d_9">
      <path d="M 234.185346 265.022801 
L 234.185346 19.751719 
" clip-path="url(#p8e7b5b18c2)" style="fill: none; stroke: #c0c0c0; stroke-width: 0.25; stroke-linecap: round"/>
     </g>
     <g id="line2d_10"/>
     <g id="text_5">
      <!-- 0.8 -->
      <g style="fill: #333333" transform="translate(227.930346 274.964832) scale(0.09 -0.09)">
       <defs>
        <path id="ArialMT-38" d="M 1131 2484 
Q 781 2613 612 2850 
Q 444 3088 444 3419 
Q 444 3919 803 4259 
Q 1163 4600 1759 4600 
Q 2359 4600 2725 4251 
Q 3091 3903 3091 3403 
Q 3091 3084 2923 2848 
Q 2756 2613 2416 2484 
Q 2838 2347 3058 2040 
Q 3278 1734 3278 1309 
Q 3278 722 2862 322 
Q 2447 -78 1769 -78 
Q 1091 -78 675 323 
Q 259 725 259 1325 
Q 259 1772 486 2073 
Q 713 2375 1131 2484 
z
M 1019 3438 
Q 1019 3113 1228 2906 
Q 1438 2700 1772 2700 
Q 2097 2700 2305 2904 
Q 2513 3109 2513 3406 
Q 2513 3716 2298 3927 
Q 2084 4138 1766 4138 
Q 1444 4138 1231 3931 
Q 1019 3725 1019 3438 
z
M 838 1322 
Q 838 1081 952 856 
Q 1066 631 1291 507 
Q 1516 384 1775 384 
Q 2178 384 2440 643 
Q 2703 903 2703 1303 
Q 2703 1709 2433 1975 
Q 2163 2241 1756 2241 
Q 1359 2241 1098 1978 
Q 838 1716 838 1322 
z
" transform="scale(0.015625)"/>
       </defs>
       <use xlink:href="#ArialMT-30"/>
       <use xlink:href="#ArialMT-2e" transform="translate(55.615234 0)"/>
       <use xlink:href="#ArialMT-38" transform="translate(83.398438 0)"/>
      </g>
     </g>
    </g>
    <g id="xtick_6">
     <g id="line2d_11">
      <path d="M 282.023758 265.022801 
L 282.023758 19.751719 
" clip-path="url(#p8e7b5b18c2)" style="fill: none; stroke: #c0c0c0; stroke-width: 0.25; stroke-linecap: round"/>
     </g>
     <g id="line2d_12"/>
     <g id="text_6">
      <!-- 1.0 -->
      <g style="fill: #333333" transform="translate(275.768758 274.964832) scale(0.09 -0.09)">
       <defs>
        <path id="ArialMT-31" d="M 2384 0 
L 1822 0 
L 1822 3584 
Q 1619 3391 1289 3197 
Q 959 3003 697 2906 
L 697 3450 
Q 1169 3672 1522 3987 
Q 1875 4303 2022 4600 
L 2384 4600 
L 2384 0 
z
" transform="scale(0.015625)"/>
       </defs>
       <use xlink:href="#ArialMT-31"/>
       <use xlink:href="#ArialMT-2e" transform="translate(55.615234 0)"/>
       <use xlink:href="#ArialMT-30" transform="translate(83.398438 0)"/>
      </g>
     </g>
    </g>
    <g id="text_7">
     <!-- False Positive Rate (FPR) -->
     <g style="fill: #333333" transform="translate(108.165463 287.305301) scale(0.09 -0.09)">
      <defs>
       <path id="Arial-BoldMT-46" d="M 472 0 
L 472 4581 
L 3613 4581 
L 3613 3806 
L 1397 3806 
L 1397 2722 
L 3309 2722 
L 3309 1947 
L 1397 1947 
L 1397 0 
L 472 0 
z
" transform="scale(0.015625)"/>
       <path id="Arial-BoldMT-61" d="M 1116 2306 
L 319 2450 
Q 453 2931 781 3162 
Q 1109 3394 1756 3394 
Q 2344 3394 2631 3255 
Q 2919 3116 3036 2902 
Q 3153 2688 3153 2116 
L 3144 1091 
Q 3144 653 3186 445 
Q 3228 238 3344 0 
L 2475 0 
Q 2441 88 2391 259 
Q 2369 338 2359 363 
Q 2134 144 1878 34 
Q 1622 -75 1331 -75 
Q 819 -75 523 203 
Q 228 481 228 906 
Q 228 1188 362 1408 
Q 497 1628 739 1745 
Q 981 1863 1438 1950 
Q 2053 2066 2291 2166 
L 2291 2253 
Q 2291 2506 2166 2614 
Q 2041 2722 1694 2722 
Q 1459 2722 1328 2630 
Q 1197 2538 1116 2306 
z
M 2291 1594 
Q 2122 1538 1756 1459 
Q 1391 1381 1278 1306 
Q 1106 1184 1106 997 
Q 1106 813 1243 678 
Q 1381 544 1594 544 
Q 1831 544 2047 700 
Q 2206 819 2256 991 
Q 2291 1103 2291 1419 
L 2291 1594 
z
" transform="scale(0.015625)"/>
       <path id="Arial-BoldMT-6c" d="M 459 0 
L 459 4581 
L 1338 4581 
L 1338 0 
L 459 0 
z
" transform="scale(0.015625)"/>
       <path id="Arial-BoldMT-73" d="M 150 947 
L 1031 1081 
Q 1088 825 1259 692 
Q 1431 559 1741 559 
Q 2081 559 2253 684 
Q 2369 772 2369 919 
Q 2369 1019 2306 1084 
Q 2241 1147 2013 1200 
Q 950 1434 666 1628 
Q 272 1897 272 2375 
Q 272 2806 612 3100 
Q 953 3394 1669 3394 
Q 2350 3394 2681 3172 
Q 3013 2950 3138 2516 
L 2309 2363 
Q 2256 2556 2107 2659 
Q 1959 2763 1684 2763 
Q 1338 2763 1188 2666 
Q 1088 2597 1088 2488 
Q 1088 2394 1175 2328 
Q 1294 2241 1995 2081 
Q 2697 1922 2975 1691 
Q 3250 1456 3250 1038 
Q 3250 581 2869 253 
Q 2488 -75 1741 -75 
Q 1063 -75 667 200 
Q 272 475 150 947 
z
" transform="scale(0.015625)"/>
       <path id="Arial-BoldMT-65" d="M 2381 1056 
L 3256 909 
Q 3088 428 2723 176 
Q 2359 -75 1813 -75 
Q 947 -75 531 491 
Q 203 944 203 1634 
Q 203 2459 634 2926 
Q 1066 3394 1725 3394 
Q 2466 3394 2894 2905 
Q 3322 2416 3303 1406 
L 1103 1406 
Q 1113 1016 1316 798 
Q 1519 581 1822 581 
Q 2028 581 2168 693 
Q 2309 806 2381 1056 
z
M 2431 1944 
Q 2422 2325 2234 2523 
Q 2047 2722 1778 2722 
Q 1491 2722 1303 2513 
Q 1116 2303 1119 1944 
L 2431 1944 
z
" transform="scale(0.015625)"/>
       <path id="Arial-BoldMT-20" transform="scale(0.015625)"/>
       <path id="Arial-BoldMT-50" d="M 466 0 
L 466 4581 
L 1950 4581 
Q 2794 4581 3050 4513 
Q 3444 4409 3709 4064 
Q 3975 3719 3975 3172 
Q 3975 2750 3822 2462 
Q 3669 2175 3433 2011 
Q 3197 1847 2953 1794 
Q 2622 1728 1994 1728 
L 1391 1728 
L 1391 0 
L 466 0 
z
M 1391 3806 
L 1391 2506 
L 1897 2506 
Q 2444 2506 2628 2578 
Q 2813 2650 2917 2803 
Q 3022 2956 3022 3159 
Q 3022 3409 2875 3571 
Q 2728 3734 2503 3775 
Q 2338 3806 1838 3806 
L 1391 3806 
z
" transform="scale(0.015625)"/>
       <path id="Arial-BoldMT-6f" d="M 256 1706 
Q 256 2144 472 2553 
Q 688 2963 1083 3178 
Q 1478 3394 1966 3394 
Q 2719 3394 3200 2905 
Q 3681 2416 3681 1669 
Q 3681 916 3195 420 
Q 2709 -75 1972 -75 
Q 1516 -75 1102 131 
Q 688 338 472 736 
Q 256 1134 256 1706 
z
M 1156 1659 
Q 1156 1166 1390 903 
Q 1625 641 1969 641 
Q 2313 641 2545 903 
Q 2778 1166 2778 1666 
Q 2778 2153 2545 2415 
Q 2313 2678 1969 2678 
Q 1625 2678 1390 2415 
Q 1156 2153 1156 1659 
z
" transform="scale(0.015625)"/>
       <path id="Arial-BoldMT-69" d="M 459 3769 
L 459 4581 
L 1338 4581 
L 1338 3769 
L 459 3769 
z
M 459 0 
L 459 3319 
L 1338 3319 
L 1338 0 
L 459 0 
z
" transform="scale(0.015625)"/>
       <path id="Arial-BoldMT-74" d="M 1981 3319 
L 1981 2619 
L 1381 2619 
L 1381 1281 
Q 1381 875 1398 808 
Q 1416 741 1477 697 
Q 1538 653 1625 653 
Q 1747 653 1978 738 
L 2053 56 
Q 1747 -75 1359 -75 
Q 1122 -75 931 4 
Q 741 84 652 211 
Q 563 338 528 553 
Q 500 706 500 1172 
L 500 2619 
L 97 2619 
L 97 3319 
L 500 3319 
L 500 3978 
L 1381 4491 
L 1381 3319 
L 1981 3319 
z
" transform="scale(0.015625)"/>
       <path id="Arial-BoldMT-76" d="M 1372 0 
L 34 3319 
L 956 3319 
L 1581 1625 
L 1763 1059 
Q 1834 1275 1853 1344 
Q 1897 1484 1947 1625 
L 2578 3319 
L 3481 3319 
L 2163 0 
L 1372 0 
z
" transform="scale(0.015625)"/>
       <path id="Arial-BoldMT-52" d="M 469 0 
L 469 4581 
L 2416 4581 
Q 3150 4581 3483 4457 
Q 3816 4334 4016 4018 
Q 4216 3703 4216 3297 
Q 4216 2781 3912 2445 
Q 3609 2109 3006 2022 
Q 3306 1847 3501 1637 
Q 3697 1428 4028 894 
L 4588 0 
L 3481 0 
L 2813 997 
Q 2456 1531 2325 1670 
Q 2194 1809 2047 1861 
Q 1900 1913 1581 1913 
L 1394 1913 
L 1394 0 
L 469 0 
z
M 1394 2644 
L 2078 2644 
Q 2744 2644 2909 2700 
Q 3075 2756 3169 2893 
Q 3263 3031 3263 3238 
Q 3263 3469 3139 3611 
Q 3016 3753 2791 3791 
Q 2678 3806 2116 3806 
L 1394 3806 
L 1394 2644 
z
" transform="scale(0.015625)"/>
       <path id="Arial-BoldMT-28" d="M 1916 -1347 
L 1313 -1347 
Q 834 -625 584 153 
Q 334 931 334 1659 
Q 334 2563 644 3369 
Q 913 4069 1325 4659 
L 1925 4659 
Q 1497 3713 1336 3048 
Q 1175 2384 1175 1641 
Q 1175 1128 1270 590 
Q 1366 53 1531 -431 
Q 1641 -750 1916 -1347 
z
" transform="scale(0.015625)"/>
       <path id="Arial-BoldMT-29" d="M 216 -1347 
Q 475 -791 581 -494 
Q 688 -197 778 190 
Q 869 578 912 926 
Q 956 1275 956 1641 
Q 956 2384 797 3048 
Q 638 3713 209 4659 
L 806 4659 
Q 1278 3988 1539 3234 
Q 1800 2481 1800 1706 
Q 1800 1053 1594 306 
Q 1359 -531 822 -1347 
L 216 -1347 
z
" transform="scale(0.015625)"/>
      </defs>
      <use xlink:href="#Arial-BoldMT-46"/>
      <use xlink:href="#Arial-BoldMT-61" transform="translate(61.083984 0)"/>
      <use xlink:href="#Arial-BoldMT-6c" transform="translate(116.699219 0)"/>
      <use xlink:href="#Arial-BoldMT-73" transform="translate(144.482422 0)"/>
      <use xlink:href="#Arial-BoldMT-65" transform="translate(200.097656 0)"/>
      <use xlink:href="#Arial-BoldMT-20" transform="translate(255.712891 0)"/>
      <use xlink:href="#Arial-BoldMT-50" transform="translate(283.496094 0)"/>
      <use xlink:href="#Arial-BoldMT-6f" transform="translate(350.195312 0)"/>
      <use xlink:href="#Arial-BoldMT-73" transform="translate(411.279297 0)"/>
      <use xlink:href="#Arial-BoldMT-69" transform="translate(466.894531 0)"/>
      <use xlink:href="#Arial-BoldMT-74" transform="translate(494.677734 0)"/>
      <use xlink:href="#Arial-BoldMT-69" transform="translate(527.978516 0)"/>
      <use xlink:href="#Arial-BoldMT-76" transform="translate(555.761719 0)"/>
      <use xlink:href="#Arial-BoldMT-65" transform="translate(611.376953 0)"/>
      <use xlink:href="#Arial-BoldMT-20" transform="translate(666.992188 0)"/>
      <use xlink:href="#Arial-BoldMT-52" transform="translate(694.775391 0)"/>
      <use xlink:href="#Arial-BoldMT-61" transform="translate(766.992188 0)"/>
      <use xlink:href="#Arial-BoldMT-74" transform="translate(822.607422 0)"/>
      <use xlink:href="#Arial-BoldMT-65" transform="translate(855.908203 0)"/>
      <use xlink:href="#Arial-BoldMT-20" transform="translate(911.523438 0)"/>
      <use xlink:href="#Arial-BoldMT-28" transform="translate(939.306641 0)"/>
      <use xlink:href="#Arial-BoldMT-46" transform="translate(972.607422 0)"/>
      <use xlink:href="#Arial-BoldMT-50" transform="translate(1033.691406 0)"/>
      <use xlink:href="#Arial-BoldMT-52" transform="translate(1100.390625 0)"/>
      <use xlink:href="#Arial-BoldMT-29" transform="translate(1172.607422 0)"/>
     </g>
    </g>
   </g>
   <g id="matplotlib.axis_2">
    <g id="ytick_1">
     <g id="line2d_13">
      <path d="M 35.655938 265.022801 
L 289.19952 265.022801 
" clip-path="url(#p8e7b5b18c2)" style="fill: none; stroke: #c0c0c0; stroke-width: 0.25; stroke-linecap: round"/>
     </g>
     <g id="line2d_14"/>
     <g id="text_8">
      <!-- 0.0 -->
      <g style="fill: #333333" transform="translate(19.645938 268.243817) scale(0.09 -0.09)">
       <use xlink:href="#ArialMT-30"/>
       <use xlink:href="#ArialMT-2e" transform="translate(55.615234 0)"/>
       <use xlink:href="#ArialMT-30" transform="translate(83.398438 0)"/>
      </g>
     </g>
    </g>
    <g id="ytick_2">
     <g id="line2d_15">
      <path d="M 35.655938 217.397348 
L 289.19952 217.397348 
" clip-path="url(#p8e7b5b18c2)" style="fill: none; stroke: #c0c0c0; stroke-width: 0.25; stroke-linecap: round"/>
     </g>
     <g id="line2d_16"/>
     <g id="text_9">
      <!-- 0.2 -->
      <g style="fill: #333333" transform="translate(19.645938 220.618364) scale(0.09 -0.09)">
       <use xlink:href="#ArialMT-30"/>
       <use xlink:href="#ArialMT-2e" transform="translate(55.615234 0)"/>
       <use xlink:href="#ArialMT-32" transform="translate(83.398438 0)"/>
      </g>
     </g>
    </g>
    <g id="ytick_3">
     <g id="line2d_17">
      <path d="M 35.655938 169.771895 
L 289.19952 169.771895 
" clip-path="url(#p8e7b5b18c2)" style="fill: none; stroke: #c0c0c0; stroke-width: 0.25; stroke-linecap: round"/>
     </g>
     <g id="line2d_18"/>
     <g id="text_10">
      <!-- 0.4 -->
      <g style="fill: #333333" transform="translate(19.645938 172.992911) scale(0.09 -0.09)">
       <use xlink:href="#ArialMT-30"/>
       <use xlink:href="#ArialMT-2e" transform="translate(55.615234 0)"/>
       <use xlink:href="#ArialMT-34" transform="translate(83.398438 0)"/>
      </g>
     </g>
    </g>
    <g id="ytick_4">
     <g id="line2d_19">
      <path d="M 35.655938 122.146443 
L 289.19952 122.146443 
" clip-path="url(#p8e7b5b18c2)" style="fill: none; stroke: #c0c0c0; stroke-width: 0.25; stroke-linecap: round"/>
     </g>
     <g id="line2d_20"/>
     <g id="text_11">
      <!-- 0.6 -->
      <g style="fill: #333333" transform="translate(19.645938 125.367458) scale(0.09 -0.09)">
       <use xlink:href="#ArialMT-30"/>
       <use xlink:href="#ArialMT-2e" transform="translate(55.615234 0)"/>
       <use xlink:href="#ArialMT-36" transform="translate(83.398438 0)"/>
      </g>
     </g>
    </g>
    <g id="ytick_5">
     <g id="line2d_21">
      <path d="M 35.655938 74.52099 
L 289.19952 74.52099 
" clip-path="url(#p8e7b5b18c2)" style="fill: none; stroke: #c0c0c0; stroke-width: 0.25; stroke-linecap: round"/>
     </g>
     <g id="line2d_22"/>
     <g id="text_12">
      <!-- 0.8 -->
      <g style="fill: #333333" transform="translate(19.645938 77.742005) scale(0.09 -0.09)">
       <use xlink:href="#ArialMT-30"/>
       <use xlink:href="#ArialMT-2e" transform="translate(55.615234 0)"/>
       <use xlink:href="#ArialMT-38" transform="translate(83.398438 0)"/>
      </g>
     </g>
    </g>
    <g id="ytick_6">
     <g id="line2d_23">
      <path d="M 35.655938 26.895537 
L 289.19952 26.895537 
" clip-path="url(#p8e7b5b18c2)" style="fill: none; stroke: #c0c0c0; stroke-width: 0.25; stroke-linecap: round"/>
     </g>
     <g id="line2d_24"/>
     <g id="text_13">
      <!-- 1.0 -->
      <g style="fill: #333333" transform="translate(19.645938 30.116552) scale(0.09 -0.09)">
       <use xlink:href="#ArialMT-31"/>
       <use xlink:href="#ArialMT-2e" transform="translate(55.615234 0)"/>
       <use xlink:href="#ArialMT-30" transform="translate(83.398438 0)"/>
      </g>
     </g>
    </g>
    <g id="text_14">
     <!-- True Positive Rate (TPR) -->
     <g style="fill: #333333" transform="translate(13.751719 194.647026) rotate(-90) scale(0.09 -0.09)">
      <defs>
       <path id="Arial-BoldMT-54" d="M 1497 0 
L 1497 3806 
L 138 3806 
L 138 4581 
L 3778 4581 
L 3778 3806 
L 2422 3806 
L 2422 0 
L 1497 0 
z
" transform="scale(0.015625)"/>
       <path id="Arial-BoldMT-72" d="M 1300 0 
L 422 0 
L 422 3319 
L 1238 3319 
L 1238 2847 
Q 1447 3181 1614 3287 
Q 1781 3394 1994 3394 
Q 2294 3394 2572 3228 
L 2300 2463 
Q 2078 2606 1888 2606 
Q 1703 2606 1575 2504 
Q 1447 2403 1373 2137 
Q 1300 1872 1300 1025 
L 1300 0 
z
" transform="scale(0.015625)"/>
       <path id="Arial-BoldMT-75" d="M 2644 0 
L 2644 497 
Q 2463 231 2167 78 
Q 1872 -75 1544 -75 
Q 1209 -75 943 72 
Q 678 219 559 484 
Q 441 750 441 1219 
L 441 3319 
L 1319 3319 
L 1319 1794 
Q 1319 1094 1367 936 
Q 1416 778 1544 686 
Q 1672 594 1869 594 
Q 2094 594 2272 717 
Q 2450 841 2515 1023 
Q 2581 1206 2581 1919 
L 2581 3319 
L 3459 3319 
L 3459 0 
L 2644 0 
z
" transform="scale(0.015625)"/>
      </defs>
      <use xlink:href="#Arial-BoldMT-54"/>
      <use xlink:href="#Arial-BoldMT-72" transform="translate(55.583984 0)"/>
      <use xlink:href="#Arial-BoldMT-75" transform="translate(94.5 0)"/>
      <use xlink:href="#Arial-BoldMT-65" transform="translate(155.583984 0)"/>
      <use xlink:href="#Arial-BoldMT-20" transform="translate(211.199219 0)"/>
      <use xlink:href="#Arial-BoldMT-50" transform="translate(238.982422 0)"/>
      <use xlink:href="#Arial-BoldMT-6f" transform="translate(305.681641 0)"/>
      <use xlink:href="#Arial-BoldMT-73" transform="translate(366.765625 0)"/>
      <use xlink:href="#Arial-BoldMT-69" transform="translate(422.380859 0)"/>
      <use xlink:href="#Arial-BoldMT-74" transform="translate(450.164062 0)"/>
      <use xlink:href="#Arial-BoldMT-69" transform="translate(483.464844 0)"/>
      <use xlink:href="#Arial-BoldMT-76" transform="translate(511.248047 0)"/>
      <use xlink:href="#Arial-BoldMT-65" transform="translate(566.863281 0)"/>
      <use xlink:href="#Arial-BoldMT-20" transform="translate(622.478516 0)"/>
      <use xlink:href="#Arial-BoldMT-52" transform="translate(650.261719 0)"/>
      <use xlink:href="#Arial-BoldMT-61" transform="translate(722.478516 0)"/>
      <use xlink:href="#Arial-BoldMT-74" transform="translate(778.09375 0)"/>
      <use xlink:href="#Arial-BoldMT-65" transform="translate(811.394531 0)"/>
      <use xlink:href="#Arial-BoldMT-20" transform="translate(867.009766 0)"/>
      <use xlink:href="#Arial-BoldMT-28" transform="translate(894.792969 0)"/>
      <use xlink:href="#Arial-BoldMT-54" transform="translate(928.09375 0)"/>
      <use xlink:href="#Arial-BoldMT-50" transform="translate(989.177734 0)"/>
      <use xlink:href="#Arial-BoldMT-52" transform="translate(1055.876953 0)"/>
      <use xlink:href="#Arial-BoldMT-29" transform="translate(1128.09375 0)"/>
     </g>
    </g>
   </g>
   <g id="line2d_25">
    <path d="M 42.831699 265.022801 
L 42.831785 264.915826 
L 42.942819 242.611453 
L 42.943845 242.504477 
L 43.05485 232.555764 
L 43.058327 232.448789 
L 43.169304 225.762825 
L 43.171812 225.65585 
L 43.282846 219.879178 
L 43.287663 219.772202 
L 43.39787 215.225747 
L 43.40243 215.118772 
L 43.513122 212.016485 
L 43.522527 211.90951 
L 43.632791 209.3421 
L 43.639346 209.235124 
L 43.747103 206.346788 
L 43.754513 206.239813 
L 43.8499 204.046817 
L 43.874923 203.939842 
L 43.980599 201.479407 
L 43.994792 201.372432 
L 44.100924 198.965485 
L 44.108248 198.85851 
L 44.216318 196.772489 
L 44.247497 196.665514 
L 44.357391 194.526005 
L 44.365855 194.41903 
L 44.476861 192.600448 
L 44.498121 192.493473 
L 44.605222 190.300477 
L 44.613943 190.193501 
L 44.716684 188.481895 
L 44.735607 188.374919 
L 44.838947 186.663313 
L 44.868786 186.556337 
L 44.976001 184.577292 
L 44.987258 184.470317 
L 45.09795 182.812198 
L 45.110347 182.705223 
L 45.207359 181.528493 
L 45.227281 181.421518 
L 45.333014 180.084325 
L 45.350655 179.97735 
L 45.459722 178.533182 
L 45.461432 178.533182 
L 45.487737 178.426206 
L 45.592217 176.982038 
L 45.602989 176.875063 
L 45.708665 175.805309 
L 45.727903 175.698333 
L 45.824544 174.414628 
L 45.837255 174.414628 
L 45.844893 174.307653 
L 45.944613 173.237899 
L 45.980152 173.130923 
L 46.085999 172.221632 
L 46.093979 172.114657 
L 46.203075 171.205366 
L 46.218293 171.098391 
L 46.327418 169.921661 
L 46.344261 169.814686 
L 46.454184 168.370518 
L 46.468832 168.263542 
L 46.576617 167.247276 
L 46.583885 167.1403 
L 46.692211 165.963571 
L 46.692724 165.963571 
L 46.709624 165.856595 
L 46.820544 164.35894 
L 46.8383 164.251964 
L 46.932747 163.824063 
L 46.965065 163.770575 
L 47.069202 163.021747 
L 47.079719 162.914772 
L 47.188729 162.005481 
L 47.188786 162.005481 
L 47.20885 161.898505 
L 47.318316 161.149677 
L 47.335758 161.042702 
L 47.429122 160.079923 
L 47.458904 159.972948 
L 47.563526 158.796218 
L 47.598666 158.689243 
L 47.709358 157.672976 
L 47.722753 157.566001 
L 47.82498 156.710198 
L 47.85784 156.603222 
L 47.968931 155.96137 
L 47.985717 155.854394 
L 48.092106 154.57069 
L 48.152895 154.463714 
L 48.255636 153.821862 
L 48.272451 153.714886 
L 48.381034 152.912571 
L 48.424524 152.805595 
L 48.531597 152.110255 
L 48.554995 152.00328 
L 48.663834 151.147476 
L 48.664034 151.147476 
L 48.696352 151.040501 
L 48.797041 150.505624 
L 48.806959 150.505624 
L 48.833121 150.398649 
L 48.942559 149.863771 
L 48.981261 149.756796 
L 49.087907 148.794017 
L 49.12088 148.687042 
L 49.209913 148.098677 
L 49.25708 147.991702 
L 49.365834 147.510312 
L 49.398351 147.403337 
L 49.495278 146.814972 
L 49.520557 146.707997 
L 49.626433 146.012657 
L 49.644901 145.905681 
L 49.733676 145.263829 
L 49.790789 145.156853 
L 49.894955 144.140587 
L 49.924253 144.033612 
L 50.032608 143.391759 
L 50.061905 143.284784 
L 50.165472 142.696419 
L 50.206055 142.589444 
L 50.315721 142.001079 
L 50.353711 141.894103 
L 50.4601 141.305739 
L 50.506896 141.198763 
L 50.61109 140.34296 
L 50.630299 140.235984 
L 50.731956 139.487157 
L 50.781004 139.380181 
L 50.889217 138.524378 
L 50.984832 138.417403 
L 51.07301 137.936013 
L 51.167486 137.829038 
L 51.277266 137.026722 
L 51.29941 136.919747 
L 51.397704 136.438357 
L 51.448434 136.331382 
L 51.53909 135.90348 
L 51.641632 135.796505 
L 51.738131 134.780239 
L 51.74879 134.780239 
L 51.791282 134.673263 
L 51.902316 133.924435 
L 51.929505 133.81746 
L 52.035266 132.961657 
L 52.087763 132.854681 
L 52.18201 132.319804 
L 52.245878 132.212829 
L 52.313934 131.891902 
L 52.390057 131.784927 
L 52.500008 131.357025 
L 52.519273 131.25005 
L 52.582485 130.715173 
L 52.692436 130.608198 
L 52.790617 129.805882 
L 52.835247 129.698907 
L 52.89199 129.271005 
L 52.892674 129.271005 
L 52.9898 129.164029 
L 53.097528 128.468689 
L 53.143327 128.361714 
L 53.248376 127.933812 
L 53.248803 127.933812 
L 53.28001 127.826837 
L 53.38409 127.29196 
L 53.453828 127.184984 
L 53.519434 126.864058 
L 53.533769 126.864058 
L 53.608951 126.757083 
L 53.706334 126.275693 
L 53.771683 126.168718 
L 53.864706 125.794304 
L 53.934187 125.687329 
L 54.031656 125.312915 
L 54.069873 125.205939 
L 54.13471 124.885013 
L 54.174238 124.885013 
L 54.195442 124.778038 
L 54.299095 124.457111 
L 54.304538 124.457111 
L 54.344751 124.350136 
L 54.440338 123.815259 
L 54.475307 123.708284 
L 54.568358 123.33387 
L 54.666909 123.226894 
L 54.777972 122.798993 
L 54.885472 122.692017 
L 54.970144 122.210628 
L 55.037659 122.103652 
L 55.147553 121.568775 
L 55.179558 121.4618 
L 55.287343 120.819947 
L 55.329893 120.712972 
L 55.432662 120.124607 
L 55.512175 120.017632 
L 55.554298 119.803681 
L 55.664591 119.696706 
L 55.729598 119.161829 
L 55.771407 119.161829 
L 55.84599 119.054853 
L 55.957081 118.519976 
L 56.030467 118.413001 
L 56.135744 117.931611 
L 56.137568 117.931611 
L 56.190292 117.824636 
L 56.293289 117.610685 
L 56.469046 117.50371 
L 56.579282 117.182783 
L 56.678004 117.075808 
L 56.769487 116.861857 
L 56.782226 116.861857 
L 56.821898 116.754882 
L 56.912811 116.433956 
L 56.920335 116.433956 
L 56.978958 116.32698 
L 57.085205 115.845591 
L 57.135848 115.738615 
L 57.233202 115.203738 
L 57.276351 115.096763 
L 57.373277 114.668861 
L 57.375187 114.668861 
L 57.454586 114.561886 
L 57.539686 114.187472 
L 57.552881 114.187472 
L 57.629089 114.080497 
L 57.727697 113.545619 
L 57.755085 113.438644 
L 57.858681 113.06423 
L 57.968803 112.957255 
L 58.050682 112.475865 
L 58.067981 112.475865 
L 58.142108 112.36889 
L 58.174455 112.261915 
L 58.234646 112.261915 
L 58.308003 112.154939 
L 58.412454 111.834013 
L 58.46743 111.727037 
L 58.552558 111.513087 
L 58.615342 111.406111 
L 58.681005 111.085185 
L 58.696508 111.085185 
L 58.775424 110.97821 
L 58.883237 110.336357 
L 59.008093 110.229382 
L 59.110207 109.908456 
L 59.143181 109.80148 
L 59.243129 109.641017 
L 59.278668 109.534042 
L 59.335381 109.213115 
L 59.352082 109.213115 
L 59.400674 109.10614 
L 59.508744 108.678238 
L 59.586348 108.571263 
L 59.693706 108.196849 
L 59.751189 108.089874 
L 59.86191 107.661972 
L 59.91261 107.554996 
L 59.961259 107.394533 
L 60.015978 107.394533 
L 60.127183 107.287558 
L 60.236877 107.020119 
L 60.302597 106.913144 
L 60.375385 106.592218 
L 60.413688 106.592218 
L 60.569039 106.485242 
L 60.665595 106.110828 
L 60.816699 106.003853 
L 60.881849 105.736414 
L 60.925111 105.736414 
L 60.965866 105.629439 
L 61.061823 105.415488 
L 61.108848 105.308513 
L 61.209764 104.773636 
L 61.343199 104.66666 
L 61.419064 104.506197 
L 61.447307 104.506197 
L 61.660427 104.399222 
L 61.762626 104.131783 
L 61.886428 104.024808 
L 61.984038 103.757369 
L 62.113255 103.650394 
L 62.183677 103.436443 
L 62.277526 103.329468 
L 62.336691 102.901566 
L 62.428431 102.794591 
L 62.506947 102.473664 
L 62.525671 102.473664 
L 62.591761 102.366689 
L 62.62331 102.259714 
L 62.643602 102.259714 
L 62.747312 102.152738 
L 62.838994 101.8853 
L 62.84914 101.8853 
L 62.977331 101.778324 
L 63.034529 101.457398 
L 63.056559 101.457398 
L 63.132112 101.350423 
L 63.21895 101.082984 
L 63.241493 101.082984 
L 63.503089 100.976009 
L 63.596653 100.70857 
L 63.59976 100.70857 
L 63.635327 100.601595 
L 63.727865 100.280669 
L 63.911943 100.173693 
L 63.978632 99.959742 
L 63.984588 99.959742 
L 64.102662 99.852767 
L 64.205459 99.585328 
L 64.213069 99.585328 
L 64.391675 99.478353 
L 64.501113 98.943476 
L 64.533802 98.8365 
L 64.644636 98.515574 
L 64.703374 98.408599 
L 64.804775 98.087673 
L 64.80677 98.087673 
L 64.873915 97.980697 
L 64.923874 97.873722 
L 64.976342 97.873722 
L 65.140556 97.766746 
L 65.229702 97.392332 
L 65.249937 97.392332 
L 65.32224 97.285357 
L 65.431279 97.071406 
L 65.494605 96.964431 
L 65.507914 96.803968 
L 65.584635 96.803968 
L 65.66925 96.696992 
L 65.759878 96.376066 
L 65.826767 96.269091 
L 65.926429 95.680726 
L 65.9268 95.680726 
L 66.018055 95.57375 
L 66.083974 95.306312 
L 66.125185 95.306312 
L 66.270048 95.199337 
L 66.375638 95.038873 
L 66.480488 94.931898 
L 66.585537 94.503996 
L 66.68064 94.397021 
L 66.744165 94.129582 
L 66.768019 94.129582 
L 66.900855 94.022607 
L 67.004308 93.648193 
L 67.170916 93.541218 
L 67.27397 93.273779 
L 67.398827 93.166804 
L 67.48253 93.059828 
L 67.557284 92.952853 
L 67.653128 92.578439 
L 67.664214 92.578439 
L 67.910678 92.471464 
L 68.016895 92.311 
L 68.09638 92.204025 
L 68.192794 91.883099 
L 68.277238 91.776123 
L 68.382031 91.562173 
L 68.38394 91.562173 
L 68.416743 91.455197 
L 68.465677 91.241246 
L 68.521422 91.241246 
L 68.686206 91.134271 
L 68.775209 90.813345 
L 68.864384 90.706369 
L 68.970545 90.385443 
L 69.050685 90.278468 
L 69.157587 90.064517 
L 69.188424 89.957541 
L 69.289939 89.690103 
L 69.503286 89.583127 
L 69.566384 89.476152 
L 69.576188 89.476152 
L 69.679669 89.369177 
L 69.773005 89.155226 
L 69.863263 89.04825 
L 69.940582 88.887787 
L 69.965006 88.887787 
L 70.191206 88.780812 
L 70.258152 88.566861 
L 70.297082 88.566861 
L 70.370383 88.459886 
L 70.471727 88.138959 
L 70.703969 88.031984 
L 70.791719 87.818033 
L 70.915321 87.711058 
L 70.940543 87.550595 
L 71.011165 87.550595 
L 71.110258 87.443619 
L 71.211887 87.229668 
L 71.219354 87.229668 
L 71.386788 87.122693 
L 71.386788 87.069205 
L 71.478101 87.069205 
L 71.603869 86.96223 
L 71.666739 86.855254 
L 71.71402 86.855254 
L 71.889491 86.748279 
L 71.986532 86.427353 
L 71.997931 86.427353 
L 72.081777 86.320377 
L 72.081777 86.26689 
L 72.255339 86.159914 
L 72.35825 85.999451 
L 72.48419 85.892476 
L 72.535118 85.678525 
L 72.573507 85.678525 
L 72.629423 85.57155 
L 72.723101 85.304111 
L 72.906011 85.197136 
L 72.964862 85.09016 
L 73.014679 85.09016 
L 73.091913 84.983185 
L 73.18485 84.769234 
L 73.202291 84.769234 
L 73.302438 84.662259 
L 73.391756 84.555283 
L 73.500481 84.448308 
L 73.590967 84.234357 
L 73.602509 84.234357 
L 73.699579 84.127381 
L 73.788041 83.859943 
L 73.789267 83.859943 
L 73.93658 83.752968 
L 74.013529 83.645992 
L 74.033479 83.645992 
L 74.141007 83.539017 
L 74.189627 83.378554 
L 74.2175 83.378554 
L 74.635046 83.271578 
L 74.719119 83.111115 
L 74.740693 83.111115 
L 74.847253 83.00414 
L 74.93412 82.790189 
L 75.012835 82.683213 
L 75.123755 82.3088 
L 75.253513 82.201824 
L 75.352777 81.82741 
L 75.41616 81.720435 
L 75.41616 81.666947 
L 75.499435 81.666947 
L 75.708394 81.559972 
L 75.780326 81.452996 
L 75.994956 81.346021 
L 76.083447 81.025095 
L 76.087665 81.025095 
L 76.215827 80.918119 
L 76.299558 80.704168 
L 76.411647 80.597193 
L 76.485603 80.490218 
L 76.793882 80.383242 
L 76.888643 80.169291 
L 77.12459 80.062316 
L 77.214876 79.848365 
L 77.342155 79.74139 
L 77.36923 79.580927 
L 77.430019 79.580927 
L 77.657302 79.473951 
L 77.740378 79.26 
L 77.746306 79.26 
L 77.88564 79.153025 
L 77.948453 78.832099 
L 77.964869 78.832099 
L 78.180753 78.725123 
L 78.282752 78.56466 
L 78.353773 78.457685 
L 78.442207 78.190246 
L 78.462527 78.190246 
L 78.717654 78.083271 
L 78.812073 77.86932 
L 78.977285 77.762345 
L 79.024337 77.655369 
L 79.304829 77.548394 
L 79.380837 77.387931 
L 79.39788 77.387931 
L 79.594384 77.280955 
L 79.594384 77.227467 
L 79.608833 77.227467 
L 79.716048 77.120492 
L 79.814001 76.853054 
L 80.031139 76.746078 
L 80.031139 76.69259 
L 80.136102 76.69259 
L 80.36065 76.585615 
L 80.449882 76.264689 
L 80.527372 76.157713 
L 80.613611 75.943763 
L 80.634758 75.943763 
L 80.716694 75.836787 
L 80.782043 75.729812 
L 80.819691 75.729812 
L 80.895072 75.622836 
L 80.895072 75.569349 
L 81.12076 75.462373 
L 81.135009 75.355398 
L 81.216546 75.355398 
L 81.269527 75.248422 
L 81.36842 75.087959 
L 81.38019 75.087959 
L 81.516076 74.980984 
L 81.609811 74.767033 
L 81.735579 74.660058 
L 81.739911 74.553082 
L 81.793347 74.553082 
L 82.07287 74.446107 
L 82.116788 74.339131 
L 82.141554 74.339131 
L 82.705759 74.232156 
L 82.813287 74.071693 
L 83.006001 73.964717 
L 83.006001 73.91123 
L 83.049177 73.91123 
L 83.242489 73.804254 
L 83.325907 73.697279 
L 83.662572 73.590304 
L 83.75377 73.483328 
L 83.970081 73.376353 
L 83.975183 73.269377 
L 84.044522 73.269377 
L 84.163507 73.162402 
L 84.261574 73.055426 
L 84.464234 72.948451 
L 84.478028 72.841476 
L 84.56877 72.841476 
L 84.726401 72.7345 
L 84.798761 72.574037 
L 85.083898 72.467062 
L 85.189745 72.146135 
L 85.394315 72.03916 
L 85.482264 71.878697 
L 85.671273 71.771722 
L 85.760134 71.611258 
L 85.780853 71.611258 
L 85.947775 71.504283 
L 85.947775 71.450795 
L 86.055417 71.450795 
L 86.227269 71.34382 
L 86.320291 71.236844 
L 86.323455 71.236844 
L 86.554557 71.129869 
L 86.554557 71.076381 
L 86.658381 71.076381 
L 86.880477 70.969406 
L 86.954177 70.808943 
L 87.521117 70.701967 
L 87.628845 70.594992 
L 87.729876 70.488017 
L 87.821673 70.327553 
L 87.992299 70.220578 
L 88.039836 70.060115 
L 88.26085 69.95314 
L 88.26085 69.899652 
L 88.532507 69.792676 
L 88.641974 69.578726 
L 88.826194 69.47175 
L 88.921468 69.364775 
L 89.132621 69.257799 
L 89.183293 69.150824 
L 89.185544 69.150824 
L 89.469342 69.043849 
L 89.535062 68.936873 
L 89.559999 68.936873 
L 89.857306 68.829898 
L 89.857306 68.77641 
L 89.895666 68.77641 
L 90.27793 68.669435 
L 90.378533 68.455484 
L 90.567285 68.348508 
L 90.647197 68.134558 
L 90.850256 68.027582 
L 90.850256 67.974094 
L 90.912585 67.974094 
L 91.162867 67.867119 
L 91.16871 67.760144 
L 91.713021 67.653168 
L 91.813425 67.439217 
L 92.183206 67.332242 
L 92.183206 67.278754 
L 92.266253 67.278754 
L 92.509382 67.171779 
L 92.509382 67.118291 
L 92.601949 67.118291 
L 92.86289 67.011316 
L 92.888112 66.90434 
L 93.368955 66.797365 
L 93.368955 66.743877 
L 93.768433 66.636902 
L 93.826344 66.529926 
L 93.831958 66.529926 
L 94.134081 66.422951 
L 94.185922 66.315976 
L 94.24161 66.315976 
L 94.49745 66.209 
L 94.554648 66.102025 
L 94.59221 66.102025 
L 94.968632 65.995049 
L 95.040536 65.888074 
L 95.076502 65.888074 
L 95.394613 65.781099 
L 95.394613 65.727611 
L 95.499321 65.727611 
L 96.27274 65.620635 
L 96.347038 65.460172 
L 96.689459 65.353197 
L 96.689459 65.299709 
L 96.735771 65.299709 
L 96.980011 65.192734 
L 97.080871 65.032271 
L 97.504943 64.925295 
L 97.506539 64.81832 
L 97.540112 64.81832 
L 97.76446 64.711344 
L 97.76446 64.657857 
L 98.21079 64.550881 
L 98.247298 64.443906 
L 98.552214 64.33693 
L 98.552214 64.283443 
L 98.660484 64.283443 
L 98.746951 64.176467 
L 98.806999 64.069492 
L 98.814609 64.069492 
L 99.26359 63.962517 
L 99.26359 63.909029 
L 99.36975 63.909029 
L 99.580504 63.802053 
L 99.675464 63.64159 
L 99.975136 63.534615 
L 99.975136 63.481127 
L 100.084289 63.481127 
L 100.310005 63.374152 
L 100.352812 63.213689 
L 100.708713 63.106713 
L 100.708713 63.053226 
L 100.814019 63.053226 
L 101.060625 62.94625 
L 101.160487 62.839275 
L 101.269498 62.732299 
L 101.325784 62.625324 
L 101.845358 62.518349 
L 101.953827 62.357885 
L 102.422416 62.25091 
L 102.499051 62.090447 
L 102.603701 61.983471 
L 102.708351 61.662545 
L 103.195635 61.55557 
L 103.284098 61.395107 
L 103.288287 61.395107 
L 103.49545 61.288131 
L 103.49545 61.234644 
L 103.86771 61.127668 
L 103.86771 61.07418 
L 103.88538 61.07418 
L 104.75222 60.967205 
L 104.818881 60.806742 
L 105.131378 60.699767 
L 105.23389 60.539303 
L 105.435182 60.432328 
L 105.435182 60.37884 
L 105.522191 60.37884 
L 105.679822 60.271865 
L 105.679822 60.218377 
L 106.157929 60.111402 
L 106.157929 60.057914 
L 106.20672 60.057914 
L 106.373357 59.950939 
L 106.482339 59.736988 
L 106.898517 59.630012 
L 106.987207 59.469549 
L 107.368701 59.362574 
L 107.368701 59.309086 
L 107.843588 59.202111 
L 107.876363 59.095135 
L 108.165319 58.98816 
L 108.263414 58.827697 
L 108.985677 58.720721 
L 108.985677 58.667234 
L 109.636006 58.560258 
L 109.636006 58.506771 
L 110.425414 58.399795 
L 110.446817 58.29282 
L 110.488683 58.29282 
L 110.803003 58.185844 
L 110.803003 58.132357 
L 110.890554 58.132357 
L 111.445581 58.025381 
L 111.445581 57.971894 
L 111.464761 57.971894 
L 112.311054 57.864918 
L 112.311054 57.81143 
L 112.410118 57.81143 
L 113.327659 57.704455 
L 113.41615 57.59748 
L 113.862195 57.490504 
L 113.922928 57.383529 
L 113.957469 57.383529 
L 114.210146 57.276553 
L 114.210146 57.223066 
L 114.277347 57.223066 
L 114.701135 57.11609 
L 114.786804 57.009115 
L 114.877974 56.902139 
L 114.981627 56.795164 
L 115.181522 56.688189 
L 115.229743 56.581213 
L 115.457397 56.474238 
L 115.458765 56.367262 
L 116.200151 56.260287 
L 116.234664 56.153312 
L 117.144339 56.046336 
L 117.144339 55.992848 
L 117.244828 55.992848 
L 117.712134 55.885873 
L 117.760355 55.778898 
L 118.207655 55.671922 
L 118.207655 55.618435 
L 118.530525 55.511459 
L 118.605023 55.297508 
L 118.984551 55.190533 
L 119.095357 55.083557 
L 119.820241 54.976582 
L 119.820241 54.923094 
L 119.841929 54.923094 
L 120.804157 54.816119 
L 120.804157 54.762631 
L 121.806513 54.655656 
L 121.810161 54.54868 
L 122.267948 54.441705 
L 122.348715 54.281242 
L 122.94065 54.174266 
L 123.03219 54.067291 
L 123.333487 53.960316 
L 123.333487 53.906828 
L 123.443381 53.906828 
L 123.626404 53.799853 
L 123.640569 53.692877 
L 123.958081 53.585902 
L 123.958081 53.532414 
L 124.048539 53.532414 
L 124.408031 53.425439 
L 124.408031 53.371951 
L 124.728708 53.264975 
L 124.832731 53.158 
L 125.066198 53.051025 
L 125.169367 52.944049 
L 125.43464 52.837074 
L 125.481436 52.730098 
L 125.748904 52.623123 
L 125.748904 52.569635 
L 125.832949 52.569635 
L 125.99018 52.46266 
L 126.095714 52.355684 
L 126.887515 52.248709 
L 126.887515 52.195221 
L 126.99587 52.195221 
L 127.409911 52.088246 
L 127.410965 51.981271 
L 127.518807 51.981271 
L 128.354127 51.874295 
L 128.433584 51.76732 
L 128.746651 51.660344 
L 128.746651 51.606857 
L 128.83936 51.606857 
L 129.075677 51.499881 
L 129.153766 51.28593 
L 129.184175 51.28593 
L 129.495646 51.178955 
L 129.495646 51.125467 
L 129.540247 51.125467 
L 129.939896 51.018492 
L 130.030154 50.911516 
L 130.030895 50.911516 
L 130.51188 50.804541 
L 130.51188 50.751053 
L 131.018402 50.644078 
L 131.018402 50.59059 
L 131.05699 50.59059 
L 131.393826 50.483615 
L 131.393826 50.430127 
L 131.418535 50.430127 
L 131.901002 50.323152 
L 131.901002 50.269664 
L 132.007505 50.269664 
L 132.059175 50.162689 
L 132.059175 50.109201 
L 132.121075 50.109201 
L 132.518529 50.002225 
L 132.518529 49.948738 
L 133.177152 49.841762 
L 133.177152 49.788275 
L 133.997767 49.681299 
L 134.055336 49.520836 
L 134.291254 49.413861 
L 134.291254 49.360373 
L 134.922575 49.253398 
L 134.922575 49.19991 
L 135.005736 49.19991 
L 135.684594 49.092934 
L 135.684594 49.039447 
L 136.48771 48.932471 
L 136.48771 48.878984 
L 136.521026 48.878984 
L 137.274894 48.772008 
L 137.274894 48.718521 
L 137.357315 48.718521 
L 137.708571 48.611545 
L 137.708571 48.558057 
L 138.564866 48.451082 
L 138.649225 48.344107 
L 139.964932 48.237131 
L 139.964932 48.183643 
L 141.46734 48.076668 
L 141.522885 47.969693 
L 141.834641 47.862717 
L 141.834641 47.80923 
L 142.589877 47.702254 
L 142.632342 47.595279 
L 143.332431 47.488303 
L 143.332431 47.434816 
L 143.84585 47.32784 
L 143.84585 47.274352 
L 144.42342 47.167377 
L 144.532203 47.006914 
L 144.820361 46.899939 
L 144.820361 46.846451 
L 144.908824 46.846451 
L 145.916423 46.739475 
L 145.988014 46.6325 
L 146.559941 46.525525 
L 146.559941 46.472037 
L 146.632216 46.472037 
L 147.048109 46.365061 
L 147.048109 46.311574 
L 147.130102 46.311574 
L 147.67467 46.204598 
L 147.67467 46.151111 
L 148.523641 46.044135 
L 148.564339 45.93716 
L 149.623722 45.830184 
L 149.723983 45.669721 
L 150.645542 45.562746 
L 150.721636 45.402283 
L 151.555474 45.295307 
L 151.650862 45.134844 
L 152.282638 45.027869 
L 152.317009 44.920893 
L 153.109494 44.813918 
L 153.109494 44.76043 
L 153.214058 44.76043 
L 154.094978 44.653455 
L 154.094978 44.599967 
L 154.134449 44.599967 
L 154.722707 44.492992 
L 154.755083 44.386016 
L 155.505731 44.279041 
L 155.605336 44.172066 
L 156.295651 44.06509 
L 156.36271 43.958115 
L 156.999845 43.851139 
L 156.999845 43.797652 
L 157.476755 43.690676 
L 157.572969 43.530213 
L 158.405582 43.423238 
L 158.405582 43.36975 
L 160.128461 43.262775 
L 160.194552 43.155799 
L 160.549057 43.048824 
L 160.573595 42.941848 
L 161.369757 42.834873 
L 161.369757 42.781385 
L 162.328422 42.67441 
L 162.342558 42.567434 
L 162.830669 42.460459 
L 162.830669 42.406971 
L 162.933865 42.406971 
L 163.537114 42.299996 
L 163.640596 42.139533 
L 164.028616 42.032557 
L 164.028616 41.97907 
L 164.112291 41.97907 
L 165.110229 41.872094 
L 165.181563 41.711631 
L 166.009102 41.604656 
L 166.009102 41.551168 
L 166.294439 41.444193 
L 166.330634 41.337217 
L 167.243529 41.230242 
L 167.243529 41.176754 
L 167.87656 41.069779 
L 167.87656 41.016291 
L 169.164908 40.909316 
L 169.164908 40.855828 
L 169.917693 40.748852 
L 170.022201 40.641877 
L 170.541974 40.534902 
L 170.5772 40.427926 
L 171.045446 40.320951 
L 171.124219 40.213975 
L 172.13729 40.107 
L 172.219597 39.946537 
L 173.135342 39.839561 
L 173.135342 39.786074 
L 174.34429 39.679098 
L 174.4368 39.572123 
L 175.200386 39.465147 
L 175.310879 39.304684 
L 175.902414 39.197709 
L 175.902414 39.144221 
L 177.724928 39.037246 
L 177.724928 38.983758 
L 178.167952 38.876783 
L 178.211585 38.71632 
L 179.749987 38.609344 
L 179.81357 38.502369 
L 181.432027 38.395393 
L 181.492874 38.23493 
L 182.175607 38.127955 
L 182.251416 38.020979 
L 183.046865 37.914004 
L 183.046865 37.860516 
L 183.14744 37.860516 
L 183.439132 37.753541 
L 183.439132 37.700053 
L 184.153928 37.593078 
L 184.205911 37.486102 
L 184.927774 37.379127 
L 184.927774 37.325639 
L 184.953395 37.325639 
L 185.539801 37.218664 
L 185.539801 37.165176 
L 185.560719 37.165176 
L 188.525777 37.058201 
L 188.525777 37.004713 
L 190.52989 36.897738 
L 190.5428 36.790762 
L 191.342866 36.683787 
L 191.342866 36.630299 
L 191.718347 36.523324 
L 191.742258 36.416348 
L 192.444428 36.309373 
L 192.446138 36.202397 
L 193.804253 36.095422 
L 193.804253 36.041934 
L 194.592777 35.934959 
L 194.592777 35.881471 
L 195.502879 35.774496 
L 195.603083 35.66752 
L 196.678027 35.560545 
L 196.678027 35.507057 
L 197.367287 35.400082 
L 197.367287 35.346594 
L 198.884372 35.239619 
L 198.884372 35.186131 
L 200.086794 35.079156 
L 200.086794 35.025668 
L 203.519414 34.918693 
L 203.519414 34.865205 
L 205.53789 34.758229 
L 205.53789 34.704742 
L 205.984449 34.597766 
L 205.984449 34.544279 
L 208.705722 34.437303 
L 208.705722 34.383815 
L 210.437693 34.27684 
L 210.466991 34.169865 
L 211.204215 34.062889 
L 211.289714 33.955914 
L 214.091897 33.848938 
L 214.091897 33.795451 
L 215.303667 33.688475 
L 215.303667 33.634988 
L 216.552942 33.528012 
L 216.552942 33.474524 
L 218.978733 33.367549 
L 218.978733 33.314061 
L 220.48228 33.207086 
L 220.48228 33.153598 
L 222.431531 33.046623 
L 222.483343 32.939647 
L 223.716573 32.832672 
L 223.716573 32.779184 
L 225.028946 32.672209 
L 225.120657 32.511746 
L 226.772288 32.40477 
L 226.78916 32.297795 
L 228.398754 32.19082 
L 228.481659 32.083844 
L 230.586317 31.976869 
L 230.586317 31.923381 
L 231.295726 31.816406 
L 231.295726 31.762918 
L 233.012194 31.655942 
L 233.066742 31.548967 
L 234.428561 31.441992 
L 234.428561 31.388504 
L 234.534893 31.388504 
L 235.773281 31.281529 
L 235.773281 31.228041 
L 236.724138 31.121065 
L 236.724138 31.067578 
L 237.852432 30.960602 
L 237.925448 30.853627 
L 239.746252 30.746651 
L 239.746252 30.693164 
L 240.678612 30.586188 
L 240.678612 30.532701 
L 241.230819 30.425725 
L 241.230819 30.372238 
L 241.293033 30.372238 
L 242.871619 30.265262 
L 242.871619 30.211774 
L 244.483009 30.104799 
L 244.483009 30.051311 
L 246.196142 29.944336 
L 246.236297 29.83736 
L 247.676889 29.730385 
L 247.676889 29.676897 
L 248.294644 29.569922 
L 248.294644 29.516434 
L 251.239838 29.409459 
L 251.239838 29.355971 
L 252.739624 29.248996 
L 252.739624 29.195508 
L 253.965501 29.088533 
L 253.965501 29.035045 
L 255.253164 28.928069 
L 255.253164 28.874582 
L 257.053192 28.767606 
L 257.053192 28.714119 
L 259.579073 28.607143 
L 259.579073 28.553656 
L 259.656991 28.553656 
L 261.589598 28.44668 
L 261.589598 28.393192 
L 263.749118 28.286217 
L 263.749118 28.232729 
L 265.897723 28.125754 
L 265.897723 28.072266 
L 268.316018 27.965291 
L 268.316018 27.911803 
L 268.388492 27.911803 
L 270.042631 27.804828 
L 270.042631 27.75134 
L 273.824484 27.644365 
L 273.824484 27.590877 
L 275.660222 27.483901 
L 275.660222 27.430414 
L 275.729447 27.430414 
L 277.698534 27.323438 
L 277.786113 27.216463 
L 280.244393 27.109488 
L 280.244393 27.056 
L 280.302104 27.056 
L 281.399106 26.949024 
L 281.399106 26.895537 
L 281.427976 26.895537 
L 282.023758 26.895537 
L 282.023758 26.895537 
" clip-path="url(#p8e7b5b18c2)" style="fill: none; stroke: #1f77b4; stroke-width: 1.5; stroke-linecap: round"/>
   </g>
   <g id="line2d_26">
    <path d="M 42.831699 265.022801 
L 282.023758 26.895537 
" clip-path="url(#p8e7b5b18c2)" style="fill: none; stroke-dasharray: 5.55,2.4; stroke-dashoffset: 0; stroke: #999999; stroke-width: 1.5"/>
   </g>
   <g id="patch_3">
    <path d="M 35.655938 265.022801 
L 35.655938 19.751719 
" style="fill: none"/>
   </g>
   <g id="patch_4">
    <path d="M 289.19952 265.022801 
L 289.19952 19.751719 
" style="fill: none"/>
   </g>
   <g id="patch_5">
    <path d="M 35.655938 265.022801 
L 289.19952 265.022801 
" style="fill: none"/>
   </g>
   <g id="patch_6">
    <path d="M 35.655938 19.751719 
L 289.19952 19.751719 
" style="fill: none"/>
   </g>
   <g id="text_15">
    <!-- Model 2: Receiver Operating Characteristic (ROC) Curve -->
    <g style="fill: #333333" transform="translate(42.14976 13.751719) scale(0.09 -0.09)">
     <defs>
      <path id="Arial-BoldMT-4d" d="M 453 0 
L 453 4581 
L 1838 4581 
L 2669 1456 
L 3491 4581 
L 4878 4581 
L 4878 0 
L 4019 0 
L 4019 3606 
L 3109 0 
L 2219 0 
L 1313 3606 
L 1313 0 
L 453 0 
z
" transform="scale(0.015625)"/>
      <path id="Arial-BoldMT-64" d="M 3503 0 
L 2688 0 
L 2688 488 
Q 2484 203 2207 64 
Q 1931 -75 1650 -75 
Q 1078 -75 670 386 
Q 263 847 263 1672 
Q 263 2516 659 2955 
Q 1056 3394 1663 3394 
Q 2219 3394 2625 2931 
L 2625 4581 
L 3503 4581 
L 3503 0 
z
M 1159 1731 
Q 1159 1200 1306 963 
Q 1519 619 1900 619 
Q 2203 619 2415 876 
Q 2628 1134 2628 1647 
Q 2628 2219 2422 2470 
Q 2216 2722 1894 2722 
Q 1581 2722 1370 2473 
Q 1159 2225 1159 1731 
z
" transform="scale(0.015625)"/>
      <path id="Arial-BoldMT-32" d="M 3238 816 
L 3238 0 
L 159 0 
Q 209 463 459 877 
Q 709 1291 1447 1975 
Q 2041 2528 2175 2725 
Q 2356 2997 2356 3263 
Q 2356 3556 2198 3714 
Q 2041 3872 1763 3872 
Q 1488 3872 1325 3706 
Q 1163 3541 1138 3156 
L 263 3244 
Q 341 3969 753 4284 
Q 1166 4600 1784 4600 
Q 2463 4600 2850 4234 
Q 3238 3869 3238 3325 
Q 3238 3016 3127 2736 
Q 3016 2456 2775 2150 
Q 2616 1947 2200 1565 
Q 1784 1184 1673 1059 
Q 1563 934 1494 816 
L 3238 816 
z
" transform="scale(0.015625)"/>
      <path id="Arial-BoldMT-3a" d="M 628 2441 
L 628 3319 
L 1506 3319 
L 1506 2441 
L 628 2441 
z
M 628 0 
L 628 878 
L 1506 878 
L 1506 0 
L 628 0 
z
" transform="scale(0.015625)"/>
      <path id="Arial-BoldMT-63" d="M 3353 2338 
L 2488 2181 
Q 2444 2441 2289 2572 
Q 2134 2703 1888 2703 
Q 1559 2703 1364 2476 
Q 1169 2250 1169 1719 
Q 1169 1128 1367 884 
Q 1566 641 1900 641 
Q 2150 641 2309 783 
Q 2469 925 2534 1272 
L 3397 1125 
Q 3263 531 2881 228 
Q 2500 -75 1859 -75 
Q 1131 -75 698 384 
Q 266 844 266 1656 
Q 266 2478 700 2936 
Q 1134 3394 1875 3394 
Q 2481 3394 2839 3133 
Q 3197 2872 3353 2338 
z
" transform="scale(0.015625)"/>
      <path id="Arial-BoldMT-4f" d="M 278 2263 
Q 278 2963 488 3438 
Q 644 3788 914 4066 
Q 1184 4344 1506 4478 
Q 1934 4659 2494 4659 
Q 3506 4659 4114 4031 
Q 4722 3403 4722 2284 
Q 4722 1175 4119 548 
Q 3516 -78 2506 -78 
Q 1484 -78 881 545 
Q 278 1169 278 2263 
z
M 1231 2294 
Q 1231 1516 1590 1114 
Q 1950 713 2503 713 
Q 3056 713 3411 1111 
Q 3766 1509 3766 2306 
Q 3766 3094 3420 3481 
Q 3075 3869 2503 3869 
Q 1931 3869 1581 3476 
Q 1231 3084 1231 2294 
z
" transform="scale(0.015625)"/>
      <path id="Arial-BoldMT-70" d="M 434 3319 
L 1253 3319 
L 1253 2831 
Q 1413 3081 1684 3237 
Q 1956 3394 2288 3394 
Q 2866 3394 3269 2941 
Q 3672 2488 3672 1678 
Q 3672 847 3265 386 
Q 2859 -75 2281 -75 
Q 2006 -75 1782 34 
Q 1559 144 1313 409 
L 1313 -1263 
L 434 -1263 
L 434 3319 
z
M 1303 1716 
Q 1303 1156 1525 889 
Q 1747 622 2066 622 
Q 2372 622 2575 867 
Q 2778 1113 2778 1672 
Q 2778 2194 2568 2447 
Q 2359 2700 2050 2700 
Q 1728 2700 1515 2451 
Q 1303 2203 1303 1716 
z
" transform="scale(0.015625)"/>
      <path id="Arial-BoldMT-6e" d="M 3478 0 
L 2600 0 
L 2600 1694 
Q 2600 2231 2544 2389 
Q 2488 2547 2361 2634 
Q 2234 2722 2056 2722 
Q 1828 2722 1647 2597 
Q 1466 2472 1398 2265 
Q 1331 2059 1331 1503 
L 1331 0 
L 453 0 
L 453 3319 
L 1269 3319 
L 1269 2831 
Q 1703 3394 2363 3394 
Q 2653 3394 2893 3289 
Q 3134 3184 3257 3021 
Q 3381 2859 3429 2653 
Q 3478 2447 3478 2063 
L 3478 0 
z
" transform="scale(0.015625)"/>
      <path id="Arial-BoldMT-67" d="M 378 -219 
L 1381 -341 
Q 1406 -516 1497 -581 
Q 1622 -675 1891 -675 
Q 2234 -675 2406 -572 
Q 2522 -503 2581 -350 
Q 2622 -241 2622 53 
L 2622 538 
Q 2228 0 1628 0 
Q 959 0 569 566 
Q 263 1013 263 1678 
Q 263 2513 664 2953 
Q 1066 3394 1663 3394 
Q 2278 3394 2678 2853 
L 2678 3319 
L 3500 3319 
L 3500 341 
Q 3500 -247 3403 -537 
Q 3306 -828 3131 -993 
Q 2956 -1159 2664 -1253 
Q 2372 -1347 1925 -1347 
Q 1081 -1347 728 -1058 
Q 375 -769 375 -325 
Q 375 -281 378 -219 
z
M 1163 1728 
Q 1163 1200 1367 954 
Q 1572 709 1872 709 
Q 2194 709 2416 961 
Q 2638 1213 2638 1706 
Q 2638 2222 2425 2472 
Q 2213 2722 1888 2722 
Q 1572 2722 1367 2476 
Q 1163 2231 1163 1728 
z
" transform="scale(0.015625)"/>
      <path id="Arial-BoldMT-43" d="M 3397 1684 
L 4294 1400 
Q 4088 650 3608 286 
Q 3128 -78 2391 -78 
Q 1478 -78 890 545 
Q 303 1169 303 2250 
Q 303 3394 893 4026 
Q 1484 4659 2447 4659 
Q 3288 4659 3813 4163 
Q 4125 3869 4281 3319 
L 3366 3100 
Q 3284 3456 3026 3662 
Q 2769 3869 2400 3869 
Q 1891 3869 1573 3503 
Q 1256 3138 1256 2319 
Q 1256 1450 1568 1081 
Q 1881 713 2381 713 
Q 2750 713 3015 947 
Q 3281 1181 3397 1684 
z
" transform="scale(0.015625)"/>
      <path id="Arial-BoldMT-68" d="M 1334 4581 
L 1334 2897 
Q 1759 3394 2350 3394 
Q 2653 3394 2897 3281 
Q 3141 3169 3264 2994 
Q 3388 2819 3433 2606 
Q 3478 2394 3478 1947 
L 3478 0 
L 2600 0 
L 2600 1753 
Q 2600 2275 2550 2415 
Q 2500 2556 2373 2639 
Q 2247 2722 2056 2722 
Q 1838 2722 1666 2615 
Q 1494 2509 1414 2295 
Q 1334 2081 1334 1663 
L 1334 0 
L 456 0 
L 456 4581 
L 1334 4581 
z
" transform="scale(0.015625)"/>
     </defs>
     <use xlink:href="#Arial-BoldMT-4d"/>
     <use xlink:href="#Arial-BoldMT-6f" transform="translate(83.300781 0)"/>
     <use xlink:href="#Arial-BoldMT-64" transform="translate(144.384766 0)"/>
     <use xlink:href="#Arial-BoldMT-65" transform="translate(205.46875 0)"/>
     <use xlink:href="#Arial-BoldMT-6c" transform="translate(261.083984 0)"/>
     <use xlink:href="#Arial-BoldMT-20" transform="translate(288.867188 0)"/>
     <use xlink:href="#Arial-BoldMT-32" transform="translate(316.650391 0)"/>
     <use xlink:href="#Arial-BoldMT-3a" transform="translate(372.265625 0)"/>
     <use xlink:href="#Arial-BoldMT-20" transform="translate(405.566406 0)"/>
     <use xlink:href="#Arial-BoldMT-52" transform="translate(433.349609 0)"/>
     <use xlink:href="#Arial-BoldMT-65" transform="translate(505.566406 0)"/>
     <use xlink:href="#Arial-BoldMT-63" transform="translate(561.181641 0)"/>
     <use xlink:href="#Arial-BoldMT-65" transform="translate(616.796875 0)"/>
     <use xlink:href="#Arial-BoldMT-69" transform="translate(672.412109 0)"/>
     <use xlink:href="#Arial-BoldMT-76" transform="translate(700.195312 0)"/>
     <use xlink:href="#Arial-BoldMT-65" transform="translate(755.810547 0)"/>
     <use xlink:href="#Arial-BoldMT-72" transform="translate(811.425781 0)"/>
     <use xlink:href="#Arial-BoldMT-20" transform="translate(850.341797 0)"/>
     <use xlink:href="#Arial-BoldMT-4f" transform="translate(878.125 0)"/>
     <use xlink:href="#Arial-BoldMT-70" transform="translate(955.908203 0)"/>
     <use xlink:href="#Arial-BoldMT-65" transform="translate(1016.992188 0)"/>
     <use xlink:href="#Arial-BoldMT-72" transform="translate(1072.607422 0)"/>
     <use xlink:href="#Arial-BoldMT-61" transform="translate(1111.523438 0)"/>
     <use xlink:href="#Arial-BoldMT-74" transform="translate(1167.138672 0)"/>
     <use xlink:href="#Arial-BoldMT-69" transform="translate(1200.439453 0)"/>
     <use xlink:href="#Arial-BoldMT-6e" transform="translate(1228.222656 0)"/>
     <use xlink:href="#Arial-BoldMT-67" transform="translate(1289.306641 0)"/>
     <use xlink:href="#Arial-BoldMT-20" transform="translate(1350.390625 0)"/>
     <use xlink:href="#Arial-BoldMT-43" transform="translate(1378.173828 0)"/>
     <use xlink:href="#Arial-BoldMT-68" transform="translate(1450.390625 0)"/>
     <use xlink:href="#Arial-BoldMT-61" transform="translate(1511.474609 0)"/>
     <use xlink:href="#Arial-BoldMT-72" transform="translate(1567.089844 0)"/>
     <use xlink:href="#Arial-BoldMT-61" transform="translate(1606.005859 0)"/>
     <use xlink:href="#Arial-BoldMT-63" transform="translate(1661.621094 0)"/>
     <use xlink:href="#Arial-BoldMT-74" transform="translate(1717.236328 0)"/>
     <use xlink:href="#Arial-BoldMT-65" transform="translate(1750.537109 0)"/>
     <use xlink:href="#Arial-BoldMT-72" transform="translate(1806.152344 0)"/>
     <use xlink:href="#Arial-BoldMT-69" transform="translate(1845.068359 0)"/>
     <use xlink:href="#Arial-BoldMT-73" transform="translate(1872.851562 0)"/>
     <use xlink:href="#Arial-BoldMT-74" transform="translate(1928.466797 0)"/>
     <use xlink:href="#Arial-BoldMT-69" transform="translate(1961.767578 0)"/>
     <use xlink:href="#Arial-BoldMT-63" transform="translate(1989.550781 0)"/>
     <use xlink:href="#Arial-BoldMT-20" transform="translate(2045.166016 0)"/>
     <use xlink:href="#Arial-BoldMT-28" transform="translate(2072.949219 0)"/>
     <use xlink:href="#Arial-BoldMT-52" transform="translate(2106.25 0)"/>
     <use xlink:href="#Arial-BoldMT-4f" transform="translate(2178.466797 0)"/>
     <use xlink:href="#Arial-BoldMT-43" transform="translate(2256.25 0)"/>
     <use xlink:href="#Arial-BoldMT-29" transform="translate(2328.466797 0)"/>
     <use xlink:href="#Arial-BoldMT-20" transform="translate(2361.767578 0)"/>
     <use xlink:href="#Arial-BoldMT-43" transform="translate(2389.550781 0)"/>
     <use xlink:href="#Arial-BoldMT-75" transform="translate(2461.767578 0)"/>
     <use xlink:href="#Arial-BoldMT-72" transform="translate(2522.851562 0)"/>
     <use xlink:href="#Arial-BoldMT-76" transform="translate(2561.767578 0)"/>
     <use xlink:href="#Arial-BoldMT-65" transform="translate(2617.382812 0)"/>
    </g>
   </g>
   <g id="legend_1">
    <g id="patch_7">
     <path d="M 182.577645 260.522801 
L 282.89952 260.522801 
Q 284.69952 260.522801 284.69952 258.722801 
L 284.69952 234.161239 
Q 284.69952 232.361239 282.89952 232.361239 
L 182.577645 232.361239 
Q 180.777645 232.361239 180.777645 234.161239 
L 180.777645 258.722801 
Q 180.777645 260.522801 182.577645 260.522801 
z
" style="fill: #ffffff; opacity: 0.8; stroke: #cccccc; stroke-width: 0.75; stroke-linejoin: miter"/>
    </g>
    <g id="line2d_27">
     <path d="M 184.377645 239.25327 
L 193.377645 239.25327 
L 202.377645 239.25327 
" style="fill: none; stroke: #1f77b4; stroke-width: 1.5; stroke-linecap: round"/>
    </g>
    <g id="text_16">
     <!-- ROC curve -->
     <g style="fill: #333333" transform="translate(209.577645 242.40327) scale(0.09 -0.09)">
      <defs>
       <path id="ArialMT-52" d="M 503 0 
L 503 4581 
L 2534 4581 
Q 3147 4581 3465 4457 
Q 3784 4334 3975 4021 
Q 4166 3709 4166 3331 
Q 4166 2844 3850 2509 
Q 3534 2175 2875 2084 
Q 3116 1969 3241 1856 
Q 3506 1613 3744 1247 
L 4541 0 
L 3778 0 
L 3172 953 
Q 2906 1366 2734 1584 
Q 2563 1803 2427 1890 
Q 2291 1978 2150 2013 
Q 2047 2034 1813 2034 
L 1109 2034 
L 1109 0 
L 503 0 
z
M 1109 2559 
L 2413 2559 
Q 2828 2559 3062 2645 
Q 3297 2731 3419 2920 
Q 3541 3109 3541 3331 
Q 3541 3656 3305 3865 
Q 3069 4075 2559 4075 
L 1109 4075 
L 1109 2559 
z
" transform="scale(0.015625)"/>
       <path id="ArialMT-4f" d="M 309 2231 
Q 309 3372 921 4017 
Q 1534 4663 2503 4663 
Q 3138 4663 3647 4359 
Q 4156 4056 4423 3514 
Q 4691 2972 4691 2284 
Q 4691 1588 4409 1038 
Q 4128 488 3612 205 
Q 3097 -78 2500 -78 
Q 1853 -78 1343 234 
Q 834 547 571 1087 
Q 309 1628 309 2231 
z
M 934 2222 
Q 934 1394 1379 917 
Q 1825 441 2497 441 
Q 3181 441 3623 922 
Q 4066 1403 4066 2288 
Q 4066 2847 3877 3264 
Q 3688 3681 3323 3911 
Q 2959 4141 2506 4141 
Q 1863 4141 1398 3698 
Q 934 3256 934 2222 
z
" transform="scale(0.015625)"/>
       <path id="ArialMT-43" d="M 3763 1606 
L 4369 1453 
Q 4178 706 3683 314 
Q 3188 -78 2472 -78 
Q 1731 -78 1267 223 
Q 803 525 561 1097 
Q 319 1669 319 2325 
Q 319 3041 592 3573 
Q 866 4106 1370 4382 
Q 1875 4659 2481 4659 
Q 3169 4659 3637 4309 
Q 4106 3959 4291 3325 
L 3694 3184 
Q 3534 3684 3231 3912 
Q 2928 4141 2469 4141 
Q 1941 4141 1586 3887 
Q 1231 3634 1087 3207 
Q 944 2781 944 2328 
Q 944 1744 1114 1308 
Q 1284 872 1643 656 
Q 2003 441 2422 441 
Q 2931 441 3284 734 
Q 3638 1028 3763 1606 
z
" transform="scale(0.015625)"/>
       <path id="ArialMT-20" transform="scale(0.015625)"/>
       <path id="ArialMT-63" d="M 2588 1216 
L 3141 1144 
Q 3050 572 2676 248 
Q 2303 -75 1759 -75 
Q 1078 -75 664 370 
Q 250 816 250 1647 
Q 250 2184 428 2587 
Q 606 2991 970 3192 
Q 1334 3394 1763 3394 
Q 2303 3394 2647 3120 
Q 2991 2847 3088 2344 
L 2541 2259 
Q 2463 2594 2264 2762 
Q 2066 2931 1784 2931 
Q 1359 2931 1093 2626 
Q 828 2322 828 1663 
Q 828 994 1084 691 
Q 1341 388 1753 388 
Q 2084 388 2306 591 
Q 2528 794 2588 1216 
z
" transform="scale(0.015625)"/>
       <path id="ArialMT-75" d="M 2597 0 
L 2597 488 
Q 2209 -75 1544 -75 
Q 1250 -75 995 37 
Q 741 150 617 320 
Q 494 491 444 738 
Q 409 903 409 1263 
L 409 3319 
L 972 3319 
L 972 1478 
Q 972 1038 1006 884 
Q 1059 663 1231 536 
Q 1403 409 1656 409 
Q 1909 409 2131 539 
Q 2353 669 2445 892 
Q 2538 1116 2538 1541 
L 2538 3319 
L 3100 3319 
L 3100 0 
L 2597 0 
z
" transform="scale(0.015625)"/>
       <path id="ArialMT-72" d="M 416 0 
L 416 3319 
L 922 3319 
L 922 2816 
Q 1116 3169 1280 3281 
Q 1444 3394 1641 3394 
Q 1925 3394 2219 3213 
L 2025 2691 
Q 1819 2813 1613 2813 
Q 1428 2813 1281 2702 
Q 1134 2591 1072 2394 
Q 978 2094 978 1738 
L 978 0 
L 416 0 
z
" transform="scale(0.015625)"/>
       <path id="ArialMT-76" d="M 1344 0 
L 81 3319 
L 675 3319 
L 1388 1331 
Q 1503 1009 1600 663 
Q 1675 925 1809 1294 
L 2547 3319 
L 3125 3319 
L 1869 0 
L 1344 0 
z
" transform="scale(0.015625)"/>
       <path id="ArialMT-65" d="M 2694 1069 
L 3275 997 
Q 3138 488 2766 206 
Q 2394 -75 1816 -75 
Q 1088 -75 661 373 
Q 234 822 234 1631 
Q 234 2469 665 2931 
Q 1097 3394 1784 3394 
Q 2450 3394 2872 2941 
Q 3294 2488 3294 1666 
Q 3294 1616 3291 1516 
L 816 1516 
Q 847 969 1125 678 
Q 1403 388 1819 388 
Q 2128 388 2347 550 
Q 2566 713 2694 1069 
z
M 847 1978 
L 2700 1978 
Q 2663 2397 2488 2606 
Q 2219 2931 1791 2931 
Q 1403 2931 1139 2672 
Q 875 2413 847 1978 
z
" transform="scale(0.015625)"/>
      </defs>
      <use xlink:href="#ArialMT-52"/>
      <use xlink:href="#ArialMT-4f" transform="translate(72.216797 0)"/>
      <use xlink:href="#ArialMT-43" transform="translate(150 0)"/>
      <use xlink:href="#ArialMT-20" transform="translate(222.216797 0)"/>
      <use xlink:href="#ArialMT-63" transform="translate(250 0)"/>
      <use xlink:href="#ArialMT-75" transform="translate(300 0)"/>
      <use xlink:href="#ArialMT-72" transform="translate(355.615234 0)"/>
      <use xlink:href="#ArialMT-76" transform="translate(388.916016 0)"/>
      <use xlink:href="#ArialMT-65" transform="translate(438.916016 0)"/>
     </g>
    </g>
    <g id="line2d_28">
     <path d="M 184.377645 251.984051 
L 193.377645 251.984051 
L 202.377645 251.984051 
" style="fill: none; stroke-dasharray: 5.55,2.4; stroke-dashoffset: 0; stroke: #999999; stroke-width: 1.5"/>
    </g>
    <g id="text_17">
     <!-- Random classifier -->
     <g style="fill: #333333" transform="translate(209.577645 255.134051) scale(0.09 -0.09)">
      <defs>
       <path id="ArialMT-61" d="M 2588 409 
Q 2275 144 1986 34 
Q 1697 -75 1366 -75 
Q 819 -75 525 192 
Q 231 459 231 875 
Q 231 1119 342 1320 
Q 453 1522 633 1644 
Q 813 1766 1038 1828 
Q 1203 1872 1538 1913 
Q 2219 1994 2541 2106 
Q 2544 2222 2544 2253 
Q 2544 2597 2384 2738 
Q 2169 2928 1744 2928 
Q 1347 2928 1158 2789 
Q 969 2650 878 2297 
L 328 2372 
Q 403 2725 575 2942 
Q 747 3159 1072 3276 
Q 1397 3394 1825 3394 
Q 2250 3394 2515 3294 
Q 2781 3194 2906 3042 
Q 3031 2891 3081 2659 
Q 3109 2516 3109 2141 
L 3109 1391 
Q 3109 606 3145 398 
Q 3181 191 3288 0 
L 2700 0 
Q 2613 175 2588 409 
z
M 2541 1666 
Q 2234 1541 1622 1453 
Q 1275 1403 1131 1340 
Q 988 1278 909 1158 
Q 831 1038 831 891 
Q 831 666 1001 516 
Q 1172 366 1500 366 
Q 1825 366 2078 508 
Q 2331 650 2450 897 
Q 2541 1088 2541 1459 
L 2541 1666 
z
" transform="scale(0.015625)"/>
       <path id="ArialMT-6e" d="M 422 0 
L 422 3319 
L 928 3319 
L 928 2847 
Q 1294 3394 1984 3394 
Q 2284 3394 2536 3286 
Q 2788 3178 2913 3003 
Q 3038 2828 3088 2588 
Q 3119 2431 3119 2041 
L 3119 0 
L 2556 0 
L 2556 2019 
Q 2556 2363 2490 2533 
Q 2425 2703 2258 2804 
Q 2091 2906 1866 2906 
Q 1506 2906 1245 2678 
Q 984 2450 984 1813 
L 984 0 
L 422 0 
z
" transform="scale(0.015625)"/>
       <path id="ArialMT-64" d="M 2575 0 
L 2575 419 
Q 2259 -75 1647 -75 
Q 1250 -75 917 144 
Q 584 363 401 755 
Q 219 1147 219 1656 
Q 219 2153 384 2558 
Q 550 2963 881 3178 
Q 1213 3394 1622 3394 
Q 1922 3394 2156 3267 
Q 2391 3141 2538 2938 
L 2538 4581 
L 3097 4581 
L 3097 0 
L 2575 0 
z
M 797 1656 
Q 797 1019 1065 703 
Q 1334 388 1700 388 
Q 2069 388 2326 689 
Q 2584 991 2584 1609 
Q 2584 2291 2321 2609 
Q 2059 2928 1675 2928 
Q 1300 2928 1048 2622 
Q 797 2316 797 1656 
z
" transform="scale(0.015625)"/>
       <path id="ArialMT-6f" d="M 213 1659 
Q 213 2581 725 3025 
Q 1153 3394 1769 3394 
Q 2453 3394 2887 2945 
Q 3322 2497 3322 1706 
Q 3322 1066 3130 698 
Q 2938 331 2570 128 
Q 2203 -75 1769 -75 
Q 1072 -75 642 372 
Q 213 819 213 1659 
z
M 791 1659 
Q 791 1022 1069 705 
Q 1347 388 1769 388 
Q 2188 388 2466 706 
Q 2744 1025 2744 1678 
Q 2744 2294 2464 2611 
Q 2184 2928 1769 2928 
Q 1347 2928 1069 2612 
Q 791 2297 791 1659 
z
" transform="scale(0.015625)"/>
       <path id="ArialMT-6d" d="M 422 0 
L 422 3319 
L 925 3319 
L 925 2853 
Q 1081 3097 1340 3245 
Q 1600 3394 1931 3394 
Q 2300 3394 2536 3241 
Q 2772 3088 2869 2813 
Q 3263 3394 3894 3394 
Q 4388 3394 4653 3120 
Q 4919 2847 4919 2278 
L 4919 0 
L 4359 0 
L 4359 2091 
Q 4359 2428 4304 2576 
Q 4250 2725 4106 2815 
Q 3963 2906 3769 2906 
Q 3419 2906 3187 2673 
Q 2956 2441 2956 1928 
L 2956 0 
L 2394 0 
L 2394 2156 
Q 2394 2531 2256 2718 
Q 2119 2906 1806 2906 
Q 1569 2906 1367 2781 
Q 1166 2656 1075 2415 
Q 984 2175 984 1722 
L 984 0 
L 422 0 
z
" transform="scale(0.015625)"/>
       <path id="ArialMT-6c" d="M 409 0 
L 409 4581 
L 972 4581 
L 972 0 
L 409 0 
z
" transform="scale(0.015625)"/>
       <path id="ArialMT-73" d="M 197 991 
L 753 1078 
Q 800 744 1014 566 
Q 1228 388 1613 388 
Q 2000 388 2187 545 
Q 2375 703 2375 916 
Q 2375 1106 2209 1216 
Q 2094 1291 1634 1406 
Q 1016 1563 777 1677 
Q 538 1791 414 1992 
Q 291 2194 291 2438 
Q 291 2659 392 2848 
Q 494 3038 669 3163 
Q 800 3259 1026 3326 
Q 1253 3394 1513 3394 
Q 1903 3394 2198 3281 
Q 2494 3169 2634 2976 
Q 2775 2784 2828 2463 
L 2278 2388 
Q 2241 2644 2061 2787 
Q 1881 2931 1553 2931 
Q 1166 2931 1000 2803 
Q 834 2675 834 2503 
Q 834 2394 903 2306 
Q 972 2216 1119 2156 
Q 1203 2125 1616 2013 
Q 2213 1853 2448 1751 
Q 2684 1650 2818 1456 
Q 2953 1263 2953 975 
Q 2953 694 2789 445 
Q 2625 197 2315 61 
Q 2006 -75 1616 -75 
Q 969 -75 630 194 
Q 291 463 197 991 
z
" transform="scale(0.015625)"/>
       <path id="ArialMT-69" d="M 425 3934 
L 425 4581 
L 988 4581 
L 988 3934 
L 425 3934 
z
M 425 0 
L 425 3319 
L 988 3319 
L 988 0 
L 425 0 
z
" transform="scale(0.015625)"/>
       <path id="ArialMT-66" d="M 556 0 
L 556 2881 
L 59 2881 
L 59 3319 
L 556 3319 
L 556 3672 
Q 556 4006 616 4169 
Q 697 4388 901 4523 
Q 1106 4659 1475 4659 
Q 1713 4659 2000 4603 
L 1916 4113 
Q 1741 4144 1584 4144 
Q 1328 4144 1222 4034 
Q 1116 3925 1116 3625 
L 1116 3319 
L 1763 3319 
L 1763 2881 
L 1116 2881 
L 1116 0 
L 556 0 
z
" transform="scale(0.015625)"/>
      </defs>
      <use xlink:href="#ArialMT-52"/>
      <use xlink:href="#ArialMT-61" transform="translate(72.216797 0)"/>
      <use xlink:href="#ArialMT-6e" transform="translate(127.832031 0)"/>
      <use xlink:href="#ArialMT-64" transform="translate(183.447266 0)"/>
      <use xlink:href="#ArialMT-6f" transform="translate(239.0625 0)"/>
      <use xlink:href="#ArialMT-6d" transform="translate(294.677734 0)"/>
      <use xlink:href="#ArialMT-20" transform="translate(377.978516 0)"/>
      <use xlink:href="#ArialMT-63" transform="translate(405.761719 0)"/>
      <use xlink:href="#ArialMT-6c" transform="translate(455.761719 0)"/>
      <use xlink:href="#ArialMT-61" transform="translate(477.978516 0)"/>
      <use xlink:href="#ArialMT-73" transform="translate(533.59375 0)"/>
      <use xlink:href="#ArialMT-73" transform="translate(583.59375 0)"/>
      <use xlink:href="#ArialMT-69" transform="translate(633.59375 0)"/>
      <use xlink:href="#ArialMT-66" transform="translate(655.810547 0)"/>
      <use xlink:href="#ArialMT-69" transform="translate(683.59375 0)"/>
      <use xlink:href="#ArialMT-65" transform="translate(705.810547 0)"/>
      <use xlink:href="#ArialMT-72" transform="translate(761.425781 0)"/>
     </g>
    </g>
   </g>
  </g>
 </g>
 <defs>
  <clipPath id="p8e7b5b18c2">
   <rect x="35.655938" y="19.751719" width="253.543583" height="245.271083"/>
  </clipPath>
 </defs>
</svg>
