<?xml version="1.0" encoding="utf-8" standalone="no"?>
<!DOCTYPE svg PUBLIC "-//W3C//DTD SVG 1.1//EN"
  "http://www.w3.org/Graphics/SVG/1.1/DTD/svg11.dtd">
<svg xmlns:xlink="http://www.w3.org/1999/xlink" width="296.39952pt" height="296.39952pt" viewBox="0 0 296.39952 296.39952" xmlns="http://www.w3.org/2000/svg" version="1.1">
 <metadata>
  <rdf:RDF xmlns:dc="http://purl.org/dc/elements/1.1/" xmlns:cc="http://creativecommons.org/ns#" xmlns:rdf="http://www.w3.org/1999/02/22-rdf-syntax-ns#">
   <cc:Work>
    <dc:type rdf:resource="http://purl.org/dc/dcmitype/StillImage"/>
    <dc:date>2026-01-03T06:08:22.131615</dc:date>
    <dc:format>image/svg+xml</dc:format>
    <dc:creator>
     <cc:Agent>
      <dc:title>Matplotlib v3.10.8, https://matplotlib.org/</dc:title>
     </cc:Agent>
    </dc:creator>
   </cc:Work>
  </rdf:RDF>
 </metadata>
 <defs>
  <style type="text/css">*{stroke-linejoin: round; stroke-linecap: butt}</style>
 </defs>
 <g id="figure_1">
  <g id="patch_1">
   <path d="M 0 296.39952 
L 296.39952 296.39952 
L 296.39952 0 
L 0 0 
z
" style="fill: #ffffff"/>
  </g>
  <g id="axes_1">
   <g id="patch_2">
    <path d="M 35.655938 265.022801 
L 289.19952 265.022801 
L 289.19952 19.642031 
L 35.655938 19.642031 
z
" style="fill: #ffffff"/>
   </g>
   <g id="matplotlib.axis_1">
    <g id="xtick_1">
     <g id="line2d_1">
      <path d="M 42.831699 265.022801 
L 42.831699 19.642031 
" clip-path="url(#pc536212920)" style="fill: none; stroke: #c0c0c0; stroke-width: 0.25; stroke-linecap: round"/>
     </g>
     <g id="line2d_2"/>
     <g id="text_1">
      <!-- 0.0 -->
      <g style="fill: #333333" transform="translate(36.576699 274.964832) scale(0.09 -0.09)">
       <defs>
        <path id="ArialMT-30" d="M 266 2259 
Q 266 3072 433 3567 
Q 600 4063 929 4331 
Q 1259 4600 1759 4600 
Q 2128 4600 2406 4451 
Q 2684 4303 2865 4023 
Q 3047 3744 3150 3342 
Q 3253 2941 3253 2259 
Q 3253 1453 3087 958 
Q 2922 463 2592 192 
Q 2263 -78 1759 -78 
Q 1097 -78 719 397 
Q 266 969 266 2259 
z
M 844 2259 
Q 844 1131 1108 757 
Q 1372 384 1759 384 
Q 2147 384 2411 759 
Q 2675 1134 2675 2259 
Q 2675 3391 2411 3762 
Q 2147 4134 1753 4134 
Q 1366 4134 1134 3806 
Q 844 3388 844 2259 
z
" transform="scale(0.015625)"/>
        <path id="ArialMT-2e" d="M 581 0 
L 581 641 
L 1222 641 
L 1222 0 
L 581 0 
z
" transform="scale(0.015625)"/>
       </defs>
       <use xlink:href="#ArialMT-30"/>
       <use xlink:href="#ArialMT-2e" transform="translate(55.615234 0)"/>
       <use xlink:href="#ArialMT-30" transform="translate(83.398438 0)"/>
      </g>
     </g>
    </g>
    <g id="xtick_2">
     <g id="line2d_3">
      <path d="M 90.670111 265.022801 
L 90.670111 19.642031 
" clip-path="url(#pc536212920)" style="fill: none; stroke: #c0c0c0; stroke-width: 0.25; stroke-linecap: round"/>
     </g>
     <g id="line2d_4"/>
     <g id="text_2">
      <!-- 0.2 -->
      <g style="fill: #333333" transform="translate(84.415111 274.964832) scale(0.09 -0.09)">
       <defs>
        <path id="ArialMT-32" d="M 3222 541 
L 3222 0 
L 194 0 
Q 188 203 259 391 
Q 375 700 629 1000 
Q 884 1300 1366 1694 
Q 2113 2306 2375 2664 
Q 2638 3022 2638 3341 
Q 2638 3675 2398 3904 
Q 2159 4134 1775 4134 
Q 1369 4134 1125 3890 
Q 881 3647 878 3216 
L 300 3275 
Q 359 3922 746 4261 
Q 1134 4600 1788 4600 
Q 2447 4600 2831 4234 
Q 3216 3869 3216 3328 
Q 3216 3053 3103 2787 
Q 2991 2522 2730 2228 
Q 2469 1934 1863 1422 
Q 1356 997 1212 845 
Q 1069 694 975 541 
L 3222 541 
z
" transform="scale(0.015625)"/>
       </defs>
       <use xlink:href="#ArialMT-30"/>
       <use xlink:href="#ArialMT-2e" transform="translate(55.615234 0)"/>
       <use xlink:href="#ArialMT-32" transform="translate(83.398438 0)"/>
      </g>
     </g>
    </g>
    <g id="xtick_3">
     <g id="line2d_5">
      <path d="M 138.508523 265.022801 
L 138.508523 19.642031 
" clip-path="url(#pc536212920)" style="fill: none; stroke: #c0c0c0; stroke-width: 0.25; stroke-linecap: round"/>
     </g>
     <g id="line2d_6"/>
     <g id="text_3">
      <!-- 0.4 -->
      <g style="fill: #333333" transform="translate(132.253523 274.964832) scale(0.09 -0.09)">
       <defs>
        <path id="ArialMT-34" d="M 2069 0 
L 2069 1097 
L 81 1097 
L 81 1613 
L 2172 4581 
L 2631 4581 
L 2631 1613 
L 3250 1613 
L 3250 1097 
L 2631 1097 
L 2631 0 
L 2069 0 
z
M 2069 1613 
L 2069 3678 
L 634 1613 
L 2069 1613 
z
" transform="scale(0.015625)"/>
       </defs>
       <use xlink:href="#ArialMT-30"/>
       <use xlink:href="#ArialMT-2e" transform="translate(55.615234 0)"/>
       <use xlink:href="#ArialMT-34" transform="translate(83.398438 0)"/>
      </g>
     </g>
    </g>
    <g id="xtick_4">
     <g id="line2d_7">
      <path d="M 186.346935 265.022801 
L 186.346935 19.642031 
" clip-path="url(#pc536212920)" style="fill: none; stroke: #c0c0c0; stroke-width: 0.25; stroke-linecap: round"/>
     </g>
     <g id="line2d_8"/>
     <g id="text_4">
      <!-- 0.6 -->
      <g style="fill: #333333" transform="translate(180.091935 274.964832) scale(0.09 -0.09)">
       <defs>
        <path id="ArialMT-36" d="M 3184 3459 
L 2625 3416 
Q 2550 3747 2413 3897 
Q 2184 4138 1850 4138 
Q 1581 4138 1378 3988 
Q 1113 3794 959 3422 
Q 806 3050 800 2363 
Q 1003 2672 1297 2822 
Q 1591 2972 1913 2972 
Q 2475 2972 2870 2558 
Q 3266 2144 3266 1488 
Q 3266 1056 3080 686 
Q 2894 316 2569 119 
Q 2244 -78 1831 -78 
Q 1128 -78 684 439 
Q 241 956 241 2144 
Q 241 3472 731 4075 
Q 1159 4600 1884 4600 
Q 2425 4600 2770 4297 
Q 3116 3994 3184 3459 
z
M 888 1484 
Q 888 1194 1011 928 
Q 1134 663 1356 523 
Q 1578 384 1822 384 
Q 2178 384 2434 671 
Q 2691 959 2691 1453 
Q 2691 1928 2437 2201 
Q 2184 2475 1800 2475 
Q 1419 2475 1153 2201 
Q 888 1928 888 1484 
z
" transform="scale(0.015625)"/>
       </defs>
       <use xlink:href="#ArialMT-30"/>
       <use xlink:href="#ArialMT-2e" transform="translate(55.615234 0)"/>
       <use xlink:href="#ArialMT-36" transform="translate(83.398438 0)"/>
      </g>
     </g>
    </g>
    <g id="xtick_5">
     <g id="line2d_9">
      <path d="M 234.185346 265.022801 
L 234.185346 19.642031 
" clip-path="url(#pc536212920)" style="fill: none; stroke: #c0c0c0; stroke-width: 0.25; stroke-linecap: round"/>
     </g>
     <g id="line2d_10"/>
     <g id="text_5">
      <!-- 0.8 -->
      <g style="fill: #333333" transform="translate(227.930346 274.964832) scale(0.09 -0.09)">
       <defs>
        <path id="ArialMT-38" d="M 1131 2484 
Q 781 2613 612 2850 
Q 444 3088 444 3419 
Q 444 3919 803 4259 
Q 1163 4600 1759 4600 
Q 2359 4600 2725 4251 
Q 3091 3903 3091 3403 
Q 3091 3084 2923 2848 
Q 2756 2613 2416 2484 
Q 2838 2347 3058 2040 
Q 3278 1734 3278 1309 
Q 3278 722 2862 322 
Q 2447 -78 1769 -78 
Q 1091 -78 675 323 
Q 259 725 259 1325 
Q 259 1772 486 2073 
Q 713 2375 1131 2484 
z
M 1019 3438 
Q 1019 3113 1228 2906 
Q 1438 2700 1772 2700 
Q 2097 2700 2305 2904 
Q 2513 3109 2513 3406 
Q 2513 3716 2298 3927 
Q 2084 4138 1766 4138 
Q 1444 4138 1231 3931 
Q 1019 3725 1019 3438 
z
M 838 1322 
Q 838 1081 952 856 
Q 1066 631 1291 507 
Q 1516 384 1775 384 
Q 2178 384 2440 643 
Q 2703 903 2703 1303 
Q 2703 1709 2433 1975 
Q 2163 2241 1756 2241 
Q 1359 2241 1098 1978 
Q 838 1716 838 1322 
z
" transform="scale(0.015625)"/>
       </defs>
       <use xlink:href="#ArialMT-30"/>
       <use xlink:href="#ArialMT-2e" transform="translate(55.615234 0)"/>
       <use xlink:href="#ArialMT-38" transform="translate(83.398438 0)"/>
      </g>
     </g>
    </g>
    <g id="xtick_6">
     <g id="line2d_11">
      <path d="M 282.023758 265.022801 
L 282.023758 19.642031 
" clip-path="url(#pc536212920)" style="fill: none; stroke: #c0c0c0; stroke-width: 0.25; stroke-linecap: round"/>
     </g>
     <g id="line2d_12"/>
     <g id="text_6">
      <!-- 1.0 -->
      <g style="fill: #333333" transform="translate(275.768758 274.964832) scale(0.09 -0.09)">
       <defs>
        <path id="ArialMT-31" d="M 2384 0 
L 1822 0 
L 1822 3584 
Q 1619 3391 1289 3197 
Q 959 3003 697 2906 
L 697 3450 
Q 1169 3672 1522 3987 
Q 1875 4303 2022 4600 
L 2384 4600 
L 2384 0 
z
" transform="scale(0.015625)"/>
       </defs>
       <use xlink:href="#ArialMT-31"/>
       <use xlink:href="#ArialMT-2e" transform="translate(55.615234 0)"/>
       <use xlink:href="#ArialMT-30" transform="translate(83.398438 0)"/>
      </g>
     </g>
    </g>
    <g id="text_7">
     <!-- Recall [TP / (TP + FN)] -->
     <g style="fill: #333333" transform="translate(115.706479 287.305301) scale(0.09 -0.09)">
      <defs>
       <path id="Arial-BoldMT-52" d="M 469 0 
L 469 4581 
L 2416 4581 
Q 3150 4581 3483 4457 
Q 3816 4334 4016 4018 
Q 4216 3703 4216 3297 
Q 4216 2781 3912 2445 
Q 3609 2109 3006 2022 
Q 3306 1847 3501 1637 
Q 3697 1428 4028 894 
L 4588 0 
L 3481 0 
L 2813 997 
Q 2456 1531 2325 1670 
Q 2194 1809 2047 1861 
Q 1900 1913 1581 1913 
L 1394 1913 
L 1394 0 
L 469 0 
z
M 1394 2644 
L 2078 2644 
Q 2744 2644 2909 2700 
Q 3075 2756 3169 2893 
Q 3263 3031 3263 3238 
Q 3263 3469 3139 3611 
Q 3016 3753 2791 3791 
Q 2678 3806 2116 3806 
L 1394 3806 
L 1394 2644 
z
" transform="scale(0.015625)"/>
       <path id="Arial-BoldMT-65" d="M 2381 1056 
L 3256 909 
Q 3088 428 2723 176 
Q 2359 -75 1813 -75 
Q 947 -75 531 491 
Q 203 944 203 1634 
Q 203 2459 634 2926 
Q 1066 3394 1725 3394 
Q 2466 3394 2894 2905 
Q 3322 2416 3303 1406 
L 1103 1406 
Q 1113 1016 1316 798 
Q 1519 581 1822 581 
Q 2028 581 2168 693 
Q 2309 806 2381 1056 
z
M 2431 1944 
Q 2422 2325 2234 2523 
Q 2047 2722 1778 2722 
Q 1491 2722 1303 2513 
Q 1116 2303 1119 1944 
L 2431 1944 
z
" transform="scale(0.015625)"/>
       <path id="Arial-BoldMT-63" d="M 3353 2338 
L 2488 2181 
Q 2444 2441 2289 2572 
Q 2134 2703 1888 2703 
Q 1559 2703 1364 2476 
Q 1169 2250 1169 1719 
Q 1169 1128 1367 884 
Q 1566 641 1900 641 
Q 2150 641 2309 783 
Q 2469 925 2534 1272 
L 3397 1125 
Q 3263 531 2881 228 
Q 2500 -75 1859 -75 
Q 1131 -75 698 384 
Q 266 844 266 1656 
Q 266 2478 700 2936 
Q 1134 3394 1875 3394 
Q 2481 3394 2839 3133 
Q 3197 2872 3353 2338 
z
" transform="scale(0.015625)"/>
       <path id="Arial-BoldMT-61" d="M 1116 2306 
L 319 2450 
Q 453 2931 781 3162 
Q 1109 3394 1756 3394 
Q 2344 3394 2631 3255 
Q 2919 3116 3036 2902 
Q 3153 2688 3153 2116 
L 3144 1091 
Q 3144 653 3186 445 
Q 3228 238 3344 0 
L 2475 0 
Q 2441 88 2391 259 
Q 2369 338 2359 363 
Q 2134 144 1878 34 
Q 1622 -75 1331 -75 
Q 819 -75 523 203 
Q 228 481 228 906 
Q 228 1188 362 1408 
Q 497 1628 739 1745 
Q 981 1863 1438 1950 
Q 2053 2066 2291 2166 
L 2291 2253 
Q 2291 2506 2166 2614 
Q 2041 2722 1694 2722 
Q 1459 2722 1328 2630 
Q 1197 2538 1116 2306 
z
M 2291 1594 
Q 2122 1538 1756 1459 
Q 1391 1381 1278 1306 
Q 1106 1184 1106 997 
Q 1106 813 1243 678 
Q 1381 544 1594 544 
Q 1831 544 2047 700 
Q 2206 819 2256 991 
Q 2291 1103 2291 1419 
L 2291 1594 
z
" transform="scale(0.015625)"/>
       <path id="Arial-BoldMT-6c" d="M 459 0 
L 459 4581 
L 1338 4581 
L 1338 0 
L 459 0 
z
" transform="scale(0.015625)"/>
       <path id="Arial-BoldMT-20" transform="scale(0.015625)"/>
       <path id="Arial-BoldMT-5b" d="M 456 -1291 
L 456 4581 
L 2013 4581 
L 2013 3891 
L 1291 3891 
L 1291 -600 
L 2013 -600 
L 2013 -1291 
L 456 -1291 
z
" transform="scale(0.015625)"/>
       <path id="Arial-BoldMT-54" d="M 1497 0 
L 1497 3806 
L 138 3806 
L 138 4581 
L 3778 4581 
L 3778 3806 
L 2422 3806 
L 2422 0 
L 1497 0 
z
" transform="scale(0.015625)"/>
       <path id="Arial-BoldMT-50" d="M 466 0 
L 466 4581 
L 1950 4581 
Q 2794 4581 3050 4513 
Q 3444 4409 3709 4064 
Q 3975 3719 3975 3172 
Q 3975 2750 3822 2462 
Q 3669 2175 3433 2011 
Q 3197 1847 2953 1794 
Q 2622 1728 1994 1728 
L 1391 1728 
L 1391 0 
L 466 0 
z
M 1391 3806 
L 1391 2506 
L 1897 2506 
Q 2444 2506 2628 2578 
Q 2813 2650 2917 2803 
Q 3022 2956 3022 3159 
Q 3022 3409 2875 3571 
Q 2728 3734 2503 3775 
Q 2338 3806 1838 3806 
L 1391 3806 
z
" transform="scale(0.015625)"/>
       <path id="Arial-BoldMT-2f" d="M -9 -78 
L 1125 4659 
L 1784 4659 
L 638 -78 
L -9 -78 
z
" transform="scale(0.015625)"/>
       <path id="Arial-BoldMT-28" d="M 1916 -1347 
L 1313 -1347 
Q 834 -625 584 153 
Q 334 931 334 1659 
Q 334 2563 644 3369 
Q 913 4069 1325 4659 
L 1925 4659 
Q 1497 3713 1336 3048 
Q 1175 2384 1175 1641 
Q 1175 1128 1270 590 
Q 1366 53 1531 -431 
Q 1641 -750 1916 -1347 
z
" transform="scale(0.015625)"/>
       <path id="Arial-BoldMT-2b" d="M 1466 659 
L 1466 1850 
L 266 1850 
L 266 2672 
L 1466 2672 
L 1466 3863 
L 2266 3863 
L 2266 2672 
L 3469 2672 
L 3469 1850 
L 2266 1850 
L 2266 659 
L 1466 659 
z
" transform="scale(0.015625)"/>
       <path id="Arial-BoldMT-46" d="M 472 0 
L 472 4581 
L 3613 4581 
L 3613 3806 
L 1397 3806 
L 1397 2722 
L 3309 2722 
L 3309 1947 
L 1397 1947 
L 1397 0 
L 472 0 
z
" transform="scale(0.015625)"/>
       <path id="Arial-BoldMT-4e" d="M 475 0 
L 475 4581 
L 1375 4581 
L 3250 1522 
L 3250 4581 
L 4109 4581 
L 4109 0 
L 3181 0 
L 1334 2988 
L 1334 0 
L 475 0 
z
" transform="scale(0.015625)"/>
       <path id="Arial-BoldMT-29" d="M 216 -1347 
Q 475 -791 581 -494 
Q 688 -197 778 190 
Q 869 578 912 926 
Q 956 1275 956 1641 
Q 956 2384 797 3048 
Q 638 3713 209 4659 
L 806 4659 
Q 1278 3988 1539 3234 
Q 1800 2481 1800 1706 
Q 1800 1053 1594 306 
Q 1359 -531 822 -1347 
L 216 -1347 
z
" transform="scale(0.015625)"/>
       <path id="Arial-BoldMT-5d" d="M 1675 4581 
L 1675 -1291 
L 119 -1291 
L 119 -600 
L 841 -600 
L 841 3897 
L 119 3897 
L 119 4581 
L 1675 4581 
z
" transform="scale(0.015625)"/>
      </defs>
      <use xlink:href="#Arial-BoldMT-52"/>
      <use xlink:href="#Arial-BoldMT-65" transform="translate(72.216797 0)"/>
      <use xlink:href="#Arial-BoldMT-63" transform="translate(127.832031 0)"/>
      <use xlink:href="#Arial-BoldMT-61" transform="translate(183.447266 0)"/>
      <use xlink:href="#Arial-BoldMT-6c" transform="translate(239.0625 0)"/>
      <use xlink:href="#Arial-BoldMT-6c" transform="translate(266.845703 0)"/>
      <use xlink:href="#Arial-BoldMT-20" transform="translate(294.628906 0)"/>
      <use xlink:href="#Arial-BoldMT-5b" transform="translate(322.412109 0)"/>
      <use xlink:href="#Arial-BoldMT-54" transform="translate(355.712891 0)"/>
      <use xlink:href="#Arial-BoldMT-50" transform="translate(416.796875 0)"/>
      <use xlink:href="#Arial-BoldMT-20" transform="translate(481.746094 0)"/>
      <use xlink:href="#Arial-BoldMT-2f" transform="translate(509.529297 0)"/>
      <use xlink:href="#Arial-BoldMT-20" transform="translate(537.3125 0)"/>
      <use xlink:href="#Arial-BoldMT-28" transform="translate(565.095703 0)"/>
      <use xlink:href="#Arial-BoldMT-54" transform="translate(598.396484 0)"/>
      <use xlink:href="#Arial-BoldMT-50" transform="translate(659.480469 0)"/>
      <use xlink:href="#Arial-BoldMT-20" transform="translate(724.429688 0)"/>
      <use xlink:href="#Arial-BoldMT-2b" transform="translate(752.212891 0)"/>
      <use xlink:href="#Arial-BoldMT-20" transform="translate(810.611328 0)"/>
      <use xlink:href="#Arial-BoldMT-46" transform="translate(838.394531 0)"/>
      <use xlink:href="#Arial-BoldMT-4e" transform="translate(899.478516 0)"/>
      <use xlink:href="#Arial-BoldMT-29" transform="translate(971.695312 0)"/>
      <use xlink:href="#Arial-BoldMT-5d" transform="translate(1004.996094 0)"/>
     </g>
    </g>
   </g>
   <g id="matplotlib.axis_2">
    <g id="ytick_1">
     <g id="line2d_13">
      <path d="M 35.655938 265.022801 
L 289.19952 265.022801 
" clip-path="url(#pc536212920)" style="fill: none; stroke: #c0c0c0; stroke-width: 0.25; stroke-linecap: round"/>
     </g>
     <g id="line2d_14"/>
     <g id="text_8">
      <!-- 0.0 -->
      <g style="fill: #333333" transform="translate(19.645938 268.243817) scale(0.09 -0.09)">
       <use xlink:href="#ArialMT-30"/>
       <use xlink:href="#ArialMT-2e" transform="translate(55.615234 0)"/>
       <use xlink:href="#ArialMT-30" transform="translate(83.398438 0)"/>
      </g>
     </g>
    </g>
    <g id="ytick_2">
     <g id="line2d_15">
      <path d="M 35.655938 217.37605 
L 289.19952 217.37605 
" clip-path="url(#pc536212920)" style="fill: none; stroke: #c0c0c0; stroke-width: 0.25; stroke-linecap: round"/>
     </g>
     <g id="line2d_16"/>
     <g id="text_9">
      <!-- 0.2 -->
      <g style="fill: #333333" transform="translate(19.645938 220.597065) scale(0.09 -0.09)">
       <use xlink:href="#ArialMT-30"/>
       <use xlink:href="#ArialMT-2e" transform="translate(55.615234 0)"/>
       <use xlink:href="#ArialMT-32" transform="translate(83.398438 0)"/>
      </g>
     </g>
    </g>
    <g id="ytick_3">
     <g id="line2d_17">
      <path d="M 35.655938 169.729298 
L 289.19952 169.729298 
" clip-path="url(#pc536212920)" style="fill: none; stroke: #c0c0c0; stroke-width: 0.25; stroke-linecap: round"/>
     </g>
     <g id="line2d_18"/>
     <g id="text_10">
      <!-- 0.4 -->
      <g style="fill: #333333" transform="translate(19.645938 172.950314) scale(0.09 -0.09)">
       <use xlink:href="#ArialMT-30"/>
       <use xlink:href="#ArialMT-2e" transform="translate(55.615234 0)"/>
       <use xlink:href="#ArialMT-34" transform="translate(83.398438 0)"/>
      </g>
     </g>
    </g>
    <g id="ytick_4">
     <g id="line2d_19">
      <path d="M 35.655938 122.082547 
L 289.19952 122.082547 
" clip-path="url(#pc536212920)" style="fill: none; stroke: #c0c0c0; stroke-width: 0.25; stroke-linecap: round"/>
     </g>
     <g id="line2d_20"/>
     <g id="text_11">
      <!-- 0.6 -->
      <g style="fill: #333333" transform="translate(19.645938 125.303563) scale(0.09 -0.09)">
       <use xlink:href="#ArialMT-30"/>
       <use xlink:href="#ArialMT-2e" transform="translate(55.615234 0)"/>
       <use xlink:href="#ArialMT-36" transform="translate(83.398438 0)"/>
      </g>
     </g>
    </g>
    <g id="ytick_5">
     <g id="line2d_21">
      <path d="M 35.655938 74.435795 
L 289.19952 74.435795 
" clip-path="url(#pc536212920)" style="fill: none; stroke: #c0c0c0; stroke-width: 0.25; stroke-linecap: round"/>
     </g>
     <g id="line2d_22"/>
     <g id="text_12">
      <!-- 0.8 -->
      <g style="fill: #333333" transform="translate(19.645938 77.656811) scale(0.09 -0.09)">
       <use xlink:href="#ArialMT-30"/>
       <use xlink:href="#ArialMT-2e" transform="translate(55.615234 0)"/>
       <use xlink:href="#ArialMT-38" transform="translate(83.398438 0)"/>
      </g>
     </g>
    </g>
    <g id="ytick_6">
     <g id="line2d_23">
      <path d="M 35.655938 26.789044 
L 289.19952 26.789044 
" clip-path="url(#pc536212920)" style="fill: none; stroke: #c0c0c0; stroke-width: 0.25; stroke-linecap: round"/>
     </g>
     <g id="line2d_24"/>
     <g id="text_13">
      <!-- 1.0 -->
      <g style="fill: #333333" transform="translate(19.645938 30.01006) scale(0.09 -0.09)">
       <use xlink:href="#ArialMT-31"/>
       <use xlink:href="#ArialMT-2e" transform="translate(55.615234 0)"/>
       <use xlink:href="#ArialMT-30" transform="translate(83.398438 0)"/>
      </g>
     </g>
    </g>
    <g id="text_14">
     <!-- Precision [TP / (TP + FP)] -->
     <g style="fill: #333333" transform="translate(13.751719 195.805776) rotate(-90) scale(0.09 -0.09)">
      <defs>
       <path id="Arial-BoldMT-72" d="M 1300 0 
L 422 0 
L 422 3319 
L 1238 3319 
L 1238 2847 
Q 1447 3181 1614 3287 
Q 1781 3394 1994 3394 
Q 2294 3394 2572 3228 
L 2300 2463 
Q 2078 2606 1888 2606 
Q 1703 2606 1575 2504 
Q 1447 2403 1373 2137 
Q 1300 1872 1300 1025 
L 1300 0 
z
" transform="scale(0.015625)"/>
       <path id="Arial-BoldMT-69" d="M 459 3769 
L 459 4581 
L 1338 4581 
L 1338 3769 
L 459 3769 
z
M 459 0 
L 459 3319 
L 1338 3319 
L 1338 0 
L 459 0 
z
" transform="scale(0.015625)"/>
       <path id="Arial-BoldMT-73" d="M 150 947 
L 1031 1081 
Q 1088 825 1259 692 
Q 1431 559 1741 559 
Q 2081 559 2253 684 
Q 2369 772 2369 919 
Q 2369 1019 2306 1084 
Q 2241 1147 2013 1200 
Q 950 1434 666 1628 
Q 272 1897 272 2375 
Q 272 2806 612 3100 
Q 953 3394 1669 3394 
Q 2350 3394 2681 3172 
Q 3013 2950 3138 2516 
L 2309 2363 
Q 2256 2556 2107 2659 
Q 1959 2763 1684 2763 
Q 1338 2763 1188 2666 
Q 1088 2597 1088 2488 
Q 1088 2394 1175 2328 
Q 1294 2241 1995 2081 
Q 2697 1922 2975 1691 
Q 3250 1456 3250 1038 
Q 3250 581 2869 253 
Q 2488 -75 1741 -75 
Q 1063 -75 667 200 
Q 272 475 150 947 
z
" transform="scale(0.015625)"/>
       <path id="Arial-BoldMT-6f" d="M 256 1706 
Q 256 2144 472 2553 
Q 688 2963 1083 3178 
Q 1478 3394 1966 3394 
Q 2719 3394 3200 2905 
Q 3681 2416 3681 1669 
Q 3681 916 3195 420 
Q 2709 -75 1972 -75 
Q 1516 -75 1102 131 
Q 688 338 472 736 
Q 256 1134 256 1706 
z
M 1156 1659 
Q 1156 1166 1390 903 
Q 1625 641 1969 641 
Q 2313 641 2545 903 
Q 2778 1166 2778 1666 
Q 2778 2153 2545 2415 
Q 2313 2678 1969 2678 
Q 1625 2678 1390 2415 
Q 1156 2153 1156 1659 
z
" transform="scale(0.015625)"/>
       <path id="Arial-BoldMT-6e" d="M 3478 0 
L 2600 0 
L 2600 1694 
Q 2600 2231 2544 2389 
Q 2488 2547 2361 2634 
Q 2234 2722 2056 2722 
Q 1828 2722 1647 2597 
Q 1466 2472 1398 2265 
Q 1331 2059 1331 1503 
L 1331 0 
L 453 0 
L 453 3319 
L 1269 3319 
L 1269 2831 
Q 1703 3394 2363 3394 
Q 2653 3394 2893 3289 
Q 3134 3184 3257 3021 
Q 3381 2859 3429 2653 
Q 3478 2447 3478 2063 
L 3478 0 
z
" transform="scale(0.015625)"/>
      </defs>
      <use xlink:href="#Arial-BoldMT-50"/>
      <use xlink:href="#Arial-BoldMT-72" transform="translate(66.699219 0)"/>
      <use xlink:href="#Arial-BoldMT-65" transform="translate(105.615234 0)"/>
      <use xlink:href="#Arial-BoldMT-63" transform="translate(161.230469 0)"/>
      <use xlink:href="#Arial-BoldMT-69" transform="translate(216.845703 0)"/>
      <use xlink:href="#Arial-BoldMT-73" transform="translate(244.628906 0)"/>
      <use xlink:href="#Arial-BoldMT-69" transform="translate(300.244141 0)"/>
      <use xlink:href="#Arial-BoldMT-6f" transform="translate(328.027344 0)"/>
      <use xlink:href="#Arial-BoldMT-6e" transform="translate(389.111328 0)"/>
      <use xlink:href="#Arial-BoldMT-20" transform="translate(450.195312 0)"/>
      <use xlink:href="#Arial-BoldMT-5b" transform="translate(477.978516 0)"/>
      <use xlink:href="#Arial-BoldMT-54" transform="translate(511.279297 0)"/>
      <use xlink:href="#Arial-BoldMT-50" transform="translate(572.363281 0)"/>
      <use xlink:href="#Arial-BoldMT-20" transform="translate(637.3125 0)"/>
      <use xlink:href="#Arial-BoldMT-2f" transform="translate(665.095703 0)"/>
      <use xlink:href="#Arial-BoldMT-20" transform="translate(692.878906 0)"/>
      <use xlink:href="#Arial-BoldMT-28" transform="translate(720.662109 0)"/>
      <use xlink:href="#Arial-BoldMT-54" transform="translate(753.962891 0)"/>
      <use xlink:href="#Arial-BoldMT-50" transform="translate(815.046875 0)"/>
      <use xlink:href="#Arial-BoldMT-20" transform="translate(879.996094 0)"/>
      <use xlink:href="#Arial-BoldMT-2b" transform="translate(907.779297 0)"/>
      <use xlink:href="#Arial-BoldMT-20" transform="translate(966.177734 0)"/>
      <use xlink:href="#Arial-BoldMT-46" transform="translate(993.960938 0)"/>
      <use xlink:href="#Arial-BoldMT-50" transform="translate(1055.044922 0)"/>
      <use xlink:href="#Arial-BoldMT-29" transform="translate(1121.744141 0)"/>
      <use xlink:href="#Arial-BoldMT-5d" transform="translate(1155.044922 0)"/>
     </g>
    </g>
   </g>
   <g id="line2d_25">
    <path d="M 42.831699 265.022801 
L 42.831728 265.022801 
L 42.942619 241.959291 
L 42.943104 241.852267 
L 43.054195 232.487733 
L 43.056019 232.38071 
L 43.166511 225.959315 
L 43.168563 225.852291 
L 43.279227 220.019524 
L 43.284271 219.912501 
L 43.395362 215.952641 
L 43.403427 215.845617 
L 43.513464 212.31385 
L 43.521501 212.206827 
L 43.631822 209.210176 
L 43.641712 209.103152 
L 43.752546 206.106501 
L 43.757363 205.999478 
L 43.866459 203.216874 
L 43.87555 203.10985 
L 43.986641 200.755339 
L 43.996844 200.648316 
L 44.102976 198.347316 
L 44.111098 198.240292 
L 44.215435 196.206851 
L 44.229913 196.099827 
L 44.33499 194.119897 
L 44.35038 194.012874 
L 44.455059 191.872409 
L 44.459276 191.872409 
L 44.470904 191.765386 
L 44.578775 189.94599 
L 44.595162 189.838967 
L 44.702263 188.180107 
L 44.71352 188.073084 
L 44.813411 186.146665 
L 44.831622 186.093153 
L 44.933622 184.64834 
L 44.951035 184.541316 
L 45.062126 183.364061 
L 45.074153 183.257037 
L 45.18379 181.38413 
L 45.197641 181.277107 
L 45.304229 179.832293 
L 45.317595 179.72527 
L 45.426093 177.959386 
L 45.453453 177.852363 
L 45.544252 176.514572 
L 45.576342 176.407549 
L 45.686863 174.588154 
L 45.701541 174.481131 
L 45.80659 173.678456 
L 45.83697 173.571433 
L 45.944812 171.859061 
L 45.959518 171.752038 
L 46.062173 170.574782 
L 46.087965 170.467759 
L 46.191646 169.397526 
L 46.227926 169.290503 
L 46.318241 168.701875 
L 46.350274 168.594852 
L 46.460339 167.952712 
L 46.478636 167.845689 
L 46.58417 166.935991 
L 46.612726 166.828968 
L 46.719172 165.277131 
L 46.76668 165.170108 
L 46.876603 163.992852 
L 46.907553 163.885829 
L 46.99935 162.869108 
L 47.041472 162.762085 
L 47.14903 161.745364 
L 47.162139 161.638341 
L 47.272603 160.354062 
L 47.286027 160.247038 
L 47.396833 159.230317 
L 47.412764 159.123294 
L 47.517585 158.267108 
L 47.519551 158.267108 
L 47.571591 158.160085 
L 47.682255 157.410922 
L 47.696533 157.303899 
L 47.807482 156.447713 
L 47.827574 156.34069 
L 47.937981 155.538015 
L 47.959184 155.430992 
L 48.063635 154.521294 
L 48.100143 154.414271 
L 48.207728 153.665108 
L 48.222406 153.558085 
L 48.330077 152.915946 
L 48.338342 152.808922 
L 48.430879 152.327318 
L 48.431449 152.327318 
L 48.480184 152.220294 
L 48.581898 151.685178 
L 48.617437 151.578155 
L 48.72109 150.721969 
L 48.76173 150.614946 
L 48.866437 149.43769 
L 48.886786 149.330667 
L 48.946036 148.635016 
L 48.99363 148.635016 
L 49.034898 148.527992 
L 49.140745 147.885853 
L 49.199482 147.77883 
L 49.308208 146.869132 
L 49.318353 146.762109 
L 49.41357 146.173481 
L 49.452643 146.066457 
L 49.562281 145.47783 
L 49.602835 145.370806 
L 49.707343 144.407597 
L 49.761207 144.300574 
L 49.866541 143.658434 
L 49.904787 143.551411 
L 50.007842 142.909272 
L 50.036654 142.802248 
L 50.141504 142.160109 
L 50.166555 142.053086 
L 50.259207 141.517969 
L 50.30549 141.410946 
L 50.404298 140.715295 
L 50.437699 140.608272 
L 50.548249 140.019644 
L 50.555972 139.912621 
L 50.651559 139.270481 
L 50.694565 139.163458 
L 50.799215 138.467807 
L 50.855587 138.360783 
L 50.966194 137.665132 
L 51.059188 137.558109 
L 51.157625 137.076504 
L 51.245004 136.969481 
L 51.350481 136.380853 
L 51.374506 136.27383 
L 51.477646 135.792225 
L 51.480239 135.792225 
L 51.512244 135.685202 
L 51.60025 135.203597 
L 51.66939 135.096574 
L 51.773983 134.668481 
L 51.797552 134.561458 
L 51.894593 133.97283 
L 51.955069 133.865807 
L 52.04812 133.223667 
L 52.087449 133.116644 
L 52.190703 132.688551 
L 52.216552 132.581528 
L 52.326275 132.260458 
L 52.36056 132.153435 
L 52.457059 131.939388 
L 52.470368 131.939388 
L 52.509013 131.832365 
L 52.615516 131.029691 
L 52.66425 130.922667 
L 52.773546 130.494574 
L 52.819515 130.387551 
L 52.90755 130.01297 
L 52.938187 129.905947 
L 53.045374 129.477854 
L 53.12597 129.37083 
L 53.233869 128.835714 
L 53.263908 128.728691 
L 53.372234 127.818993 
L 53.396829 127.71197 
L 53.472296 127.337389 
L 53.56928 127.230365 
L 53.667974 126.481203 
L 53.722607 126.374179 
L 53.817767 125.839063 
L 53.820474 125.839063 
L 53.914209 125.73204 
L 54.01353 125.196923 
L 54.050009 125.0899 
L 54.156227 124.76883 
L 54.156455 124.76883 
L 54.185524 124.661807 
L 54.290545 124.126691 
L 54.290915 124.126691 
L 54.336144 124.019668 
L 54.427 123.43104 
L 54.510874 123.324017 
L 54.613444 123.002947 
L 54.633536 122.895924 
L 54.723538 122.360807 
L 54.806813 122.253784 
L 54.902714 121.879203 
L 54.958687 121.772179 
L 55.061798 121.076528 
L 55.139317 120.969505 
L 55.243197 120.701947 
L 55.256107 120.594924 
L 55.357053 120.220342 
L 55.366201 120.220342 
L 55.396068 120.113319 
L 55.484103 119.685226 
L 55.53905 119.578203 
L 55.624264 119.203621 
L 55.635664 119.203621 
L 55.713895 119.096598 
L 55.823019 118.561482 
L 55.869901 118.454459 
L 55.935165 118.347435 
L 55.959332 118.347435 
L 56.045458 118.240412 
L 56.131327 117.812319 
L 56.22509 117.705296 
L 56.310987 117.384226 
L 56.381552 117.277203 
L 56.485034 117.009645 
L 56.601084 116.902622 
L 56.705278 116.260482 
L 56.710151 116.260482 
L 56.78918 116.153459 
L 56.881405 115.725366 
L 56.887703 115.725366 
L 56.932191 115.618343 
L 57.017604 115.350784 
L 57.084407 115.243761 
L 57.192021 115.029715 
L 57.194899 115.029715 
L 57.260476 114.922691 
L 57.361621 114.494598 
L 57.434238 114.387575 
L 57.528201 113.90597 
L 57.626438 113.798947 
L 57.736218 112.942761 
L 57.819807 112.835738 
L 57.923061 112.354133 
L 58.03324 112.24711 
L 58.112469 112.033064 
L 58.138261 112.033064 
L 58.216606 111.92604 
L 58.327127 111.658482 
L 58.349271 111.551459 
L 58.451641 111.283901 
L 58.489004 111.176878 
L 58.597216 110.802296 
L 58.597587 110.802296 
L 58.649769 110.695273 
L 58.747494 110.481226 
L 58.90749 110.374203 
L 59.01727 109.999622 
L 59.045969 109.892599 
L 59.132665 109.62504 
L 59.137994 109.62504 
L 59.183821 109.518017 
L 59.257008 109.196947 
L 59.351455 109.089924 
L 59.457302 108.875878 
L 59.510112 108.768854 
L 59.610373 108.60832 
L 59.613821 108.60832 
L 59.68336 108.501296 
L 59.76903 108.28725 
L 59.854386 108.180227 
L 59.96522 107.698622 
L 60.045218 107.591599 
L 60.153345 107.163506 
L 60.198004 107.056482 
L 60.295244 106.788924 
L 60.34831 106.681901 
L 60.388523 106.574878 
L 60.441276 106.574878 
L 60.522499 106.467855 
L 60.603352 106.093273 
L 60.669072 105.98625 
L 60.778595 105.718692 
L 60.977864 105.611669 
L 61.040848 105.397622 
L 61.150172 105.290599 
L 61.252599 104.969529 
L 61.389624 104.862506 
L 61.476833 104.648459 
L 61.497353 104.648459 
L 61.546828 104.541436 
L 61.651392 104.327389 
L 61.713749 104.220366 
L 61.808139 103.899296 
L 61.812329 103.899296 
L 61.837408 103.792273 
L 61.848409 103.68525 
L 61.922565 103.68525 
L 62.047279 103.578227 
L 62.132635 103.203645 
L 62.153097 103.203645 
L 62.190888 103.096622 
L 62.287045 102.936087 
L 62.300468 102.936087 
L 62.363993 102.829064 
L 62.470781 102.400971 
L 62.504638 102.293948 
L 62.518974 102.079901 
L 62.597433 102.079901 
L 62.743407 101.972878 
L 62.845378 101.651808 
L 62.850366 101.651808 
L 62.893058 101.544785 
L 62.995884 101.223715 
L 63.136045 101.116692 
L 63.230036 100.849134 
L 63.241749 100.849134 
L 63.392654 100.742111 
L 63.422977 100.528064 
L 63.447971 100.528064 
L 63.692497 100.421041 
L 63.802391 100.046459 
L 63.892221 99.939436 
L 63.986355 99.618366 
L 64.023604 99.511343 
L 64.09015 99.297297 
L 64.110898 99.297297 
L 64.255533 99.190273 
L 64.362577 98.815692 
L 64.477971 98.708669 
L 64.51371 98.601646 
L 64.581396 98.601646 
L 64.635431 98.494622 
L 64.736319 98.280576 
L 64.820792 98.173553 
L 64.893323 97.905994 
L 65.000367 97.798971 
L 65.104675 97.263855 
L 65.145144 97.156832 
L 65.238053 96.942785 
L 65.312607 96.835762 
L 65.41304 96.621715 
L 65.435355 96.514692 
L 65.524587 96.086599 
L 65.533136 96.086599 
L 65.68672 95.979576 
L 65.778289 95.765529 
L 65.848455 95.658506 
L 65.932728 95.337436 
L 65.981291 95.230413 
L 66.07115 94.962855 
L 66.195407 94.855832 
L 66.252492 94.588274 
L 66.290881 94.588274 
L 66.341952 94.48125 
L 66.421066 94.160181 
L 66.435544 94.160181 
L 66.510327 94.053157 
L 66.585423 93.892623 
L 66.591493 93.892623 
L 66.675196 93.785599 
L 66.698195 93.571553 
L 66.717262 93.571553 
L 66.818036 93.464529 
L 66.893588 93.357506 
L 66.910346 93.357506 
L 66.99023 93.250483 
L 67.091004 92.982925 
L 67.282264 92.875902 
L 67.359868 92.661855 
L 67.562214 92.554832 
L 67.671168 92.126739 
L 67.739225 92.019716 
L 67.846554 91.698646 
L 67.887792 91.591623 
L 67.93057 91.431088 
L 68.102964 91.324064 
L 68.210036 91.056506 
L 68.357293 90.949483 
L 68.434014 90.84246 
L 68.454505 90.84246 
L 68.768541 90.735437 
L 68.84167 90.414367 
L 68.872336 90.414367 
L 68.973594 90.307344 
L 69.049289 90.039785 
L 69.062655 90.039785 
L 69.132023 89.932762 
L 69.222908 89.772227 
L 69.239808 89.772227 
L 69.344515 89.665204 
L 69.444235 89.504669 
L 69.502089 89.397646 
L 69.55544 89.183599 
L 69.60577 89.183599 
L 69.687165 89.076576 
L 69.797087 88.648483 
L 69.934455 88.54146 
L 70.031923 88.22039 
L 70.238117 88.113367 
L 70.316775 87.845809 
L 70.334986 87.845809 
L 70.471128 87.738786 
L 70.577061 87.524739 
L 70.699894 87.417716 
L 70.802406 87.203669 
L 70.88591 87.096646 
L 70.958669 86.8826 
L 70.975769 86.8826 
L 71.152466 86.775576 
L 71.152466 86.722065 
L 71.262274 86.722065 
L 71.304824 86.615041 
L 71.306021 86.508018 
L 71.379293 86.508018 
L 71.545645 86.400995 
L 71.650665 86.186948 
L 71.7389 86.079925 
L 71.750926 85.972902 
L 71.84583 85.972902 
L 72.166677 85.865879 
L 72.255595 85.598321 
L 72.346309 85.491297 
L 72.435513 85.223739 
L 72.607963 85.116716 
L 72.718655 84.849158 
L 72.778418 84.742135 
L 72.819201 84.635111 
L 72.884778 84.635111 
L 73.037165 84.528088 
L 73.145862 84.367553 
L 73.294658 84.26053 
L 73.403213 83.992972 
L 73.47429 83.885949 
L 73.553063 83.725414 
L 73.635198 83.61839 
L 73.717647 83.404344 
L 73.72386 83.404344 
L 73.946926 83.297321 
L 73.994491 83.083274 
L 74.032766 83.083274 
L 74.231465 82.976251 
L 74.233431 82.869228 
L 74.289148 82.869228 
L 74.398016 82.762204 
L 74.434353 82.655181 
L 74.507767 82.655181 
L 74.553851 82.548158 
L 74.56317 82.441135 
L 74.662006 82.441135 
L 74.700452 82.334111 
L 74.770817 82.120065 
L 74.807981 82.120065 
L 74.893793 82.013042 
L 74.893793 81.95953 
L 74.942071 81.95953 
L 75.071231 81.852507 
L 75.136608 81.584949 
L 75.174057 81.584949 
L 75.263545 81.477925 
L 75.372385 81.263879 
L 75.520183 81.156856 
L 75.541558 81.049832 
L 75.89364 80.942809 
L 75.969164 80.782274 
L 76.223265 80.675251 
L 76.27217 80.568228 
L 76.320078 80.568228 
L 76.42584 80.461204 
L 76.533967 80.354181 
L 76.535705 80.354181 
L 76.669824 80.247158 
L 76.780117 80.033111 
L 76.905742 79.926088 
L 77.006802 79.497995 
L 77.251185 79.390972 
L 77.35763 79.230437 
L 77.515917 79.123414 
L 77.607115 78.909367 
L 77.721512 78.802344 
L 77.826846 78.641809 
L 77.964413 78.534786 
L 78.072397 78.320739 
L 78.261549 78.213716 
L 78.328294 78.106693 
L 78.36238 78.106693 
L 78.433628 77.99967 
L 78.448819 77.946158 
L 78.452011 77.946158 
L 78.623207 77.839135 
L 78.663505 77.732112 
L 78.923563 77.625088 
L 79.028783 77.464553 
L 79.156347 77.35753 
L 79.156347 77.304019 
L 79.192057 77.304019 
L 79.42276 77.196995 
L 79.514557 76.982949 
L 79.688888 76.875926 
L 79.768373 76.768902 
L 80.158303 76.661879 
L 80.264265 76.447833 
L 80.559519 76.340809 
L 80.559519 76.287298 
L 80.642937 76.287298 
L 80.714756 76.180274 
L 80.714756 76.126763 
L 80.824393 76.126763 
L 81.079008 76.01974 
L 81.164763 75.752181 
L 81.170833 75.752181 
L 81.316665 75.645158 
L 81.383297 75.538135 
L 81.54392 75.431112 
L 81.60337 75.163554 
L 81.880955 75.05653 
L 81.947216 74.949507 
L 81.976941 74.949507 
L 82.169911 74.842484 
L 82.230017 74.735461 
L 82.365104 74.628437 
L 82.413012 74.521414 
L 82.697807 74.414391 
L 82.776352 74.253856 
L 82.797213 74.253856 
L 83.084374 74.146833 
L 83.154996 74.039809 
L 83.191561 74.039809 
L 83.246878 73.932786 
L 83.246878 73.879275 
L 83.323114 73.879275 
L 83.430415 73.772251 
L 83.539169 73.504693 
L 83.614322 73.39767 
L 83.725214 73.183623 
L 83.890112 73.0766 
L 83.960277 72.969577 
L 83.988862 72.969577 
L 84.137601 72.862554 
L 84.209648 72.648507 
L 84.574299 72.541484 
L 84.574299 72.487972 
L 84.609154 72.487972 
L 84.800585 72.380949 
L 84.904123 72.166902 
L 85.390838 72.059879 
L 85.43789 71.899344 
L 85.887869 71.792321 
L 85.987303 71.685298 
L 85.9887 71.685298 
L 86.073571 71.578275 
L 86.179105 71.471251 
L 86.180786 71.471251 
L 86.284325 71.364228 
L 86.371533 71.150182 
L 86.550938 71.043158 
L 86.656699 70.7756 
L 86.783266 70.668577 
L 86.857364 70.508042 
L 86.88632 70.508042 
L 87.249004 70.401019 
L 87.315693 70.293996 
L 87.622974 70.186972 
L 87.684961 70.026437 
L 87.710468 70.026437 
L 87.824323 69.919414 
L 87.824323 69.865903 
L 87.924984 69.865903 
L 88.464023 69.758879 
L 88.566051 69.491321 
L 88.791311 69.384298 
L 88.876752 69.223763 
L 89.046866 69.11674 
L 89.046866 69.063228 
L 89.098336 69.063228 
L 89.293814 68.956205 
L 89.345939 68.849182 
L 89.702553 68.742158 
L 89.712984 68.635135 
L 89.845535 68.528112 
L 89.87469 68.367577 
L 89.910429 68.367577 
L 90.158032 68.260554 
L 90.158032 68.207042 
L 90.610718 68.100019 
L 90.688807 67.992996 
L 90.836235 67.885972 
L 90.836235 67.832461 
L 90.91495 67.832461 
L 91.124421 67.725438 
L 91.124421 67.671926 
L 91.461713 67.564903 
L 91.461713 67.511391 
L 91.546214 67.511391 
L 91.779995 67.404368 
L 91.889291 67.13681 
L 92.281928 67.029786 
L 92.281928 66.976275 
L 92.369421 66.976275 
L 92.732248 66.869252 
L 92.81769 66.762228 
L 92.838238 66.762228 
L 93.254245 66.655205 
L 93.254245 66.601693 
L 93.333474 66.601693 
L 93.512507 66.49467 
L 93.512507 66.441159 
L 93.601682 66.441159 
L 93.983148 66.334135 
L 94.064485 66.280624 
L 94.064542 66.280624 
L 94.659811 66.1736 
L 94.659811 66.120089 
L 94.758077 66.120089 
L 94.941358 66.013066 
L 95.00417 65.906042 
L 95.289963 65.799019 
L 95.289963 65.745507 
L 95.603401 65.638484 
L 95.603401 65.584973 
L 95.611409 65.584973 
L 95.961554 65.477949 
L 95.961554 65.424438 
L 96.047052 65.424438 
L 96.461036 65.317414 
L 96.563149 65.210391 
L 97.352129 65.103368 
L 97.352129 65.049856 
L 97.681355 64.942833 
L 97.746192 64.83581 
L 97.790879 64.83581 
L 98.049597 64.728787 
L 98.061054 64.621763 
L 98.24422 64.51474 
L 98.24422 64.461228 
L 98.274259 64.461228 
L 98.609612 64.354205 
L 98.609612 64.300694 
L 98.67821 64.300694 
L 98.929205 64.19367 
L 98.952945 64.086647 
L 99.405945 63.979624 
L 99.435442 63.872601 
L 99.455904 63.872601 
L 100.216698 63.765577 
L 100.216698 63.712066 
L 100.52891 63.605042 
L 100.52891 63.551531 
L 100.547321 63.551531 
L 100.861356 63.444508 
L 100.889058 63.337484 
L 100.968002 63.337484 
L 101.074675 63.230461 
L 101.119904 63.123438 
L 101.286426 63.016415 
L 101.386374 62.802368 
L 101.569854 62.695345 
L 101.60488 62.588322 
L 101.801184 62.481298 
L 101.830567 62.320763 
L 101.89147 62.320763 
L 102.024791 62.21374 
L 102.064662 62.106717 
L 102.249595 61.999694 
L 102.329194 61.89267 
L 102.511619 61.785647 
L 102.511619 61.732136 
L 102.920929 61.625112 
L 102.920929 61.571601 
L 103.395702 61.464577 
L 103.395702 61.411066 
L 103.98034 61.304042 
L 104.07607 61.089996 
L 104.564323 60.982973 
L 104.64891 60.822438 
L 104.917802 60.715415 
L 104.979247 60.608391 
L 105.321441 60.501368 
L 105.383199 60.394345 
L 105.428912 60.394345 
L 105.547328 60.287322 
L 105.547328 60.23381 
L 106.160694 60.126787 
L 106.257079 60.019763 
L 106.703153 59.91274 
L 106.703153 59.859229 
L 106.7467 59.859229 
L 107.241109 59.752205 
L 107.337665 59.645182 
L 107.660394 59.538159 
L 107.660394 59.484647 
L 107.94137 59.377624 
L 108.015583 59.217089 
L 108.044111 59.217089 
L 108.91135 59.110066 
L 108.997532 58.949531 
L 109.189049 58.842508 
L 109.189049 58.788996 
L 109.297661 58.788996 
L 109.428616 58.681973 
L 109.52996 58.521438 
L 109.870158 58.414415 
L 109.870158 58.360903 
L 109.920089 58.360903 
L 110.25151 58.25388 
L 110.344874 58.039833 
L 110.93279 57.93281 
L 110.93279 57.879298 
L 110.987652 57.879298 
L 111.885898 57.772275 
L 111.885898 57.718764 
L 111.920896 57.718764 
L 112.139316 57.61174 
L 112.139316 57.558229 
L 112.441154 57.451205 
L 112.448079 57.344182 
L 112.535573 57.344182 
L 112.76183 57.237159 
L 112.76183 57.183647 
L 113.023683 57.076624 
L 113.023683 57.023112 
L 113.106446 57.023112 
L 113.273139 56.916089 
L 113.305486 56.809066 
L 113.38044 56.809066 
L 114.257483 56.702043 
L 114.328561 56.541508 
L 114.612473 56.434485 
L 114.612473 56.380973 
L 114.624699 56.380973 
L 115.01101 56.27395 
L 115.01101 56.220438 
L 115.602203 56.113415 
L 115.668749 56.006392 
L 115.880928 55.899368 
L 115.986006 55.738833 
L 116.415322 55.63181 
L 116.508686 55.524787 
L 117.125558 55.417764 
L 117.125558 55.364252 
L 117.235737 55.364252 
L 117.565533 55.257229 
L 117.595885 55.150206 
L 118.292042 55.043182 
L 118.372211 54.936159 
L 118.818142 54.829136 
L 118.828031 54.775624 
L 118.828088 54.775624 
L 119.529546 54.668601 
L 119.622654 54.561578 
L 120.278627 54.454554 
L 120.302452 54.347531 
L 121.034576 54.240508 
L 121.034576 54.186996 
L 121.061223 54.186996 
L 121.581623 54.079973 
L 121.635373 53.97295 
L 121.911989 53.865927 
L 121.993612 53.758903 
L 122.672726 53.65188 
L 122.746939 53.491345 
L 123.249185 53.384322 
L 123.346682 53.223787 
L 123.843286 53.116764 
L 123.925735 53.009741 
L 123.938901 53.009741 
L 124.452833 52.902717 
L 124.452833 52.849206 
L 124.541722 52.849206 
L 125.028921 52.742182 
L 125.028921 52.688671 
L 125.387901 52.581648 
L 125.387901 52.528136 
L 125.735651 52.421113 
L 125.74232 52.314089 
L 126.089957 52.207066 
L 126.181697 52.046531 
L 126.877027 51.939508 
L 126.877027 51.885996 
L 127.492531 51.778973 
L 127.492531 51.725462 
L 127.885653 51.618438 
L 127.981183 51.404392 
L 128.201598 51.297369 
L 128.306049 51.190345 
L 128.516061 51.083322 
L 128.516061 51.02981 
L 129.425936 50.922787 
L 129.498781 50.815764 
L 130.434333 50.708741 
L 130.434333 50.655229 
L 130.524819 50.655229 
L 130.799782 50.548206 
L 130.799782 50.494694 
L 131.365611 50.387671 
L 131.419589 50.280648 
L 131.659925 50.173624 
L 131.659925 50.120113 
L 131.676284 50.120113 
L 131.923004 50.013089 
L 131.923004 49.959578 
L 132.236071 49.852555 
L 132.2583 49.745531 
L 132.30598 49.745531 
L 132.879789 49.638508 
L 132.879789 49.584996 
L 133.352282 49.477973 
L 133.366731 49.37095 
L 133.455079 49.37095 
L 134.347512 49.263927 
L 134.362902 49.156903 
L 135.203722 49.04988 
L 135.203722 48.996369 
L 135.953145 48.889345 
L 135.953145 48.835834 
L 136.501219 48.72881 
L 136.518603 48.621787 
L 137.614893 48.514764 
L 137.710024 48.300717 
L 138.183201 48.193694 
L 138.200329 48.086671 
L 139.28559 47.979648 
L 139.329679 47.872624 
L 140.191959 47.765601 
L 140.299488 47.658578 
L 141.034375 47.551555 
L 141.034375 47.498043 
L 141.09867 47.498043 
L 142.16951 47.39102 
L 142.18584 47.337508 
L 142.185897 47.337508 
L 142.502783 47.230485 
L 142.552885 47.123462 
L 142.940564 47.016438 
L 142.948885 46.855904 
L 143.451759 46.74888 
L 143.464213 46.641857 
L 143.468146 46.641857 
L 144.369955 46.534834 
L 144.369955 46.481322 
L 145.135565 46.374299 
L 145.230355 46.267276 
L 145.393115 46.160252 
L 145.465419 46.053229 
L 146.161632 45.946206 
L 146.161632 45.892694 
L 146.671631 45.785671 
L 146.671631 45.732159 
L 146.713525 45.732159 
L 147.442143 45.625136 
L 147.442143 45.571625 
L 148.2855 45.464601 
L 148.2855 45.41109 
L 148.626468 45.304066 
L 148.626468 45.250555 
L 149.86135 45.143532 
L 149.86135 45.09002 
L 150.463687 44.982997 
L 150.568166 44.875973 
L 151.035615 44.76895 
L 151.090647 44.661927 
L 152.540901 44.554904 
L 152.562845 44.44788 
L 153.27841 44.340857 
L 153.27841 44.287346 
L 154.28031 44.180322 
L 154.28031 44.126811 
L 155.103745 44.019787 
L 155.197594 43.859253 
L 155.607645 43.752229 
L 155.607645 43.698718 
L 157.443069 43.591694 
L 157.443069 43.538183 
L 158.421086 43.43116 
L 158.421086 43.377648 
L 159.33153 43.270625 
L 159.33153 43.217113 
L 159.732575 43.11009 
L 159.732575 43.056578 
L 160.146388 42.949555 
L 160.146388 42.896043 
L 160.874236 42.78902 
L 160.874236 42.735508 
L 161.892323 42.628485 
L 161.892323 42.574974 
L 162.785925 42.46795 
L 162.840957 42.360927 
L 164.238116 42.253904 
L 164.347554 42.093369 
L 164.796364 41.986346 
L 164.796364 41.932834 
L 165.059756 41.825811 
L 165.135251 41.718788 
L 165.963617 41.611764 
L 165.963617 41.558253 
L 167.000942 41.451229 
L 167.100519 41.344206 
L 167.927944 41.237183 
L 167.962913 41.13016 
L 168.531307 41.023136 
L 168.531307 40.969625 
L 169.508754 40.862602 
L 169.59126 40.702067 
L 170.350885 40.595043 
L 170.437581 40.434509 
L 171.343636 40.327485 
L 171.343636 40.273974 
L 171.610392 40.16695 
L 171.610392 40.113439 
L 171.64556 40.113439 
L 172.285744 40.006415 
L 172.324275 39.899392 
L 172.353573 39.899392 
L 172.804036 39.792369 
L 172.804036 39.738857 
L 173.638102 39.631834 
L 173.721178 39.524811 
L 174.820859 39.417788 
L 174.884783 39.257253 
L 175.877164 39.150229 
L 175.877164 39.096718 
L 176.394173 38.989695 
L 176.394173 38.936183 
L 176.782364 38.82916 
L 176.782364 38.775648 
L 177.289855 38.668625 
L 177.289855 38.615113 
L 177.397497 38.615113 
L 178.166385 38.50809 
L 178.166385 38.454578 
L 178.237548 38.454578 
L 178.937866 38.347555 
L 178.937866 38.294043 
L 180.019279 38.18702 
L 180.019279 38.133509 
L 181.399566 38.026485 
L 181.399566 37.972974 
L 182.333152 37.86595 
L 182.333152 37.812439 
L 182.817615 37.705416 
L 182.82474 37.598392 
L 183.424198 37.491369 
L 183.424198 37.437857 
L 184.812494 37.330834 
L 184.812494 37.277323 
L 185.557955 37.170299 
L 185.557955 37.116788 
L 186.635463 37.009764 
L 186.635463 36.956253 
L 188.835367 36.84923 
L 188.835367 36.795718 
L 189.559368 36.688695 
L 189.5922 36.581671 
L 190.590907 36.474648 
L 190.590907 36.421137 
L 191.192987 36.314113 
L 191.192987 36.260602 
L 191.20738 36.260602 
L 193.134002 36.153578 
L 193.134002 36.100067 
L 193.632201 35.993044 
L 193.632201 35.939532 
L 193.669764 35.939532 
L 195.168153 35.832509 
L 195.168153 35.778997 
L 196.744203 35.671974 
L 196.786211 35.564951 
L 197.58508 35.457927 
L 197.58508 35.404416 
L 198.481817 35.297392 
L 198.502137 35.190369 
L 200.748267 35.083346 
L 200.748267 35.029834 
L 201.714656 34.922811 
L 201.714656 34.869299 
L 203.674651 34.762276 
L 203.674651 34.708765 
L 203.777762 34.708765 
L 204.669027 34.601741 
L 204.669027 34.54823 
L 204.696158 34.54823 
L 206.536512 34.441206 
L 206.536512 34.387695 
L 206.6152 34.387695 
L 207.870573 34.280672 
L 207.870573 34.22716 
L 208.894873 34.120137 
L 208.894873 34.066625 
L 209.776249 33.959602 
L 209.784371 33.852579 
L 212.038623 33.745555 
L 212.038623 33.692044 
L 212.987941 33.58502 
L 213.048132 33.477997 
L 214.841405 33.370974 
L 214.841405 33.317462 
L 216.629748 33.210439 
L 216.629748 33.156927 
L 219.021368 33.049904 
L 219.021368 32.996393 
L 219.767855 32.889369 
L 219.767855 32.835858 
L 221.743183 32.728834 
L 221.821443 32.621811 
L 223.708223 32.514788 
L 223.78178 32.407765 
L 226.097648 32.300741 
L 226.191411 32.193718 
L 230.557761 32.086695 
L 230.557761 32.033183 
L 231.621732 31.92616 
L 231.621732 31.872648 
L 232.791693 31.765625 
L 232.791693 31.712114 
L 233.222406 31.60509 
L 233.222406 31.551579 
L 234.138607 31.444555 
L 234.138607 31.391044 
L 234.659521 31.284021 
L 234.659521 31.230509 
L 235.468992 31.123486 
L 235.505642 31.016462 
L 236.759107 30.909439 
L 236.862446 30.802416 
L 238.320023 30.695393 
L 238.320023 30.641881 
L 239.92899 30.534858 
L 239.92899 30.481346 
L 241.337036 30.374323 
L 241.393237 30.2673 
L 243.220197 30.160276 
L 243.220197 30.106765 
L 244.541347 29.999742 
L 244.541347 29.94623 
L 246.184371 29.839207 
L 246.255877 29.732183 
L 247.927884 29.62516 
L 247.927884 29.571649 
L 248.844143 29.464625 
L 248.844143 29.411114 
L 250.272851 29.30409 
L 250.353134 29.197067 
L 252.601971 29.090044 
L 252.601971 29.036532 
L 255.68553 28.929509 
L 255.68553 28.875997 
L 260.254226 28.768974 
L 260.28016 28.661951 
L 261.276645 28.554928 
L 261.35878 28.447904 
L 262.205272 28.340881 
L 262.205272 28.287369 
L 264.647279 28.180346 
L 264.755007 28.073323 
L 265.741004 27.9663 
L 265.741004 27.912788 
L 268.688278 27.805765 
L 268.688278 27.752253 
L 271.323198 27.64523 
L 271.323198 27.591718 
L 273.288694 27.484695 
L 273.288694 27.431183 
L 276.919386 27.32416 
L 276.919386 27.270649 
L 277.497669 27.163625 
L 277.497669 27.110114 
L 280.507614 27.00309 
L 280.507614 26.949579 
L 281.368926 26.842556 
L 281.368926 26.789044 
L 281.46001 26.789044 
L 282.023758 26.789044 
L 282.023758 26.789044 
" clip-path="url(#pc536212920)" style="fill: none; stroke: #1f77b4; stroke-width: 1.5; stroke-linecap: round"/>
   </g>
   <g id="patch_3">
    <path d="M 35.655938 265.022801 
L 35.655938 19.642031 
" style="fill: none"/>
   </g>
   <g id="patch_4">
    <path d="M 289.19952 265.022801 
L 289.19952 19.642031 
" style="fill: none"/>
   </g>
   <g id="patch_5">
    <path d="M 35.655938 265.022801 
L 289.19952 265.022801 
" style="fill: none"/>
   </g>
   <g id="patch_6">
    <path d="M 35.655938 19.642031 
L 289.19952 19.642031 
" style="fill: none"/>
   </g>
   <g id="text_15">
    <!-- Model 1: Precision-Recall Curve -->
    <g style="fill: #333333" transform="translate(93.910307 13.642031) scale(0.09 -0.09)">
     <defs>
      <path id="Arial-BoldMT-4d" d="M 453 0 
L 453 4581 
L 1838 4581 
L 2669 1456 
L 3491 4581 
L 4878 4581 
L 4878 0 
L 4019 0 
L 4019 3606 
L 3109 0 
L 2219 0 
L 1313 3606 
L 1313 0 
L 453 0 
z
" transform="scale(0.015625)"/>
      <path id="Arial-BoldMT-64" d="M 3503 0 
L 2688 0 
L 2688 488 
Q 2484 203 2207 64 
Q 1931 -75 1650 -75 
Q 1078 -75 670 386 
Q 263 847 263 1672 
Q 263 2516 659 2955 
Q 1056 3394 1663 3394 
Q 2219 3394 2625 2931 
L 2625 4581 
L 3503 4581 
L 3503 0 
z
M 1159 1731 
Q 1159 1200 1306 963 
Q 1519 619 1900 619 
Q 2203 619 2415 876 
Q 2628 1134 2628 1647 
Q 2628 2219 2422 2470 
Q 2216 2722 1894 2722 
Q 1581 2722 1370 2473 
Q 1159 2225 1159 1731 
z
" transform="scale(0.015625)"/>
      <path id="Arial-BoldMT-31" d="M 2519 0 
L 1641 0 
L 1641 3309 
Q 1159 2859 506 2644 
L 506 3441 
Q 850 3553 1253 3867 
Q 1656 4181 1806 4600 
L 2519 4600 
L 2519 0 
z
" transform="scale(0.015625)"/>
      <path id="Arial-BoldMT-3a" d="M 628 2441 
L 628 3319 
L 1506 3319 
L 1506 2441 
L 628 2441 
z
M 628 0 
L 628 878 
L 1506 878 
L 1506 0 
L 628 0 
z
" transform="scale(0.015625)"/>
      <path id="Arial-BoldMT-2d" d="M 359 1222 
L 359 2100 
L 2084 2100 
L 2084 1222 
L 359 1222 
z
" transform="scale(0.015625)"/>
      <path id="Arial-BoldMT-43" d="M 3397 1684 
L 4294 1400 
Q 4088 650 3608 286 
Q 3128 -78 2391 -78 
Q 1478 -78 890 545 
Q 303 1169 303 2250 
Q 303 3394 893 4026 
Q 1484 4659 2447 4659 
Q 3288 4659 3813 4163 
Q 4125 3869 4281 3319 
L 3366 3100 
Q 3284 3456 3026 3662 
Q 2769 3869 2400 3869 
Q 1891 3869 1573 3503 
Q 1256 3138 1256 2319 
Q 1256 1450 1568 1081 
Q 1881 713 2381 713 
Q 2750 713 3015 947 
Q 3281 1181 3397 1684 
z
" transform="scale(0.015625)"/>
      <path id="Arial-BoldMT-75" d="M 2644 0 
L 2644 497 
Q 2463 231 2167 78 
Q 1872 -75 1544 -75 
Q 1209 -75 943 72 
Q 678 219 559 484 
Q 441 750 441 1219 
L 441 3319 
L 1319 3319 
L 1319 1794 
Q 1319 1094 1367 936 
Q 1416 778 1544 686 
Q 1672 594 1869 594 
Q 2094 594 2272 717 
Q 2450 841 2515 1023 
Q 2581 1206 2581 1919 
L 2581 3319 
L 3459 3319 
L 3459 0 
L 2644 0 
z
" transform="scale(0.015625)"/>
      <path id="Arial-BoldMT-76" d="M 1372 0 
L 34 3319 
L 956 3319 
L 1581 1625 
L 1763 1059 
Q 1834 1275 1853 1344 
Q 1897 1484 1947 1625 
L 2578 3319 
L 3481 3319 
L 2163 0 
L 1372 0 
z
" transform="scale(0.015625)"/>
     </defs>
     <use xlink:href="#Arial-BoldMT-4d"/>
     <use xlink:href="#Arial-BoldMT-6f" transform="translate(83.300781 0)"/>
     <use xlink:href="#Arial-BoldMT-64" transform="translate(144.384766 0)"/>
     <use xlink:href="#Arial-BoldMT-65" transform="translate(205.46875 0)"/>
     <use xlink:href="#Arial-BoldMT-6c" transform="translate(261.083984 0)"/>
     <use xlink:href="#Arial-BoldMT-20" transform="translate(288.867188 0)"/>
     <use xlink:href="#Arial-BoldMT-31" transform="translate(316.650391 0)"/>
     <use xlink:href="#Arial-BoldMT-3a" transform="translate(372.265625 0)"/>
     <use xlink:href="#Arial-BoldMT-20" transform="translate(405.566406 0)"/>
     <use xlink:href="#Arial-BoldMT-50" transform="translate(433.349609 0)"/>
     <use xlink:href="#Arial-BoldMT-72" transform="translate(500.048828 0)"/>
     <use xlink:href="#Arial-BoldMT-65" transform="translate(538.964844 0)"/>
     <use xlink:href="#Arial-BoldMT-63" transform="translate(594.580078 0)"/>
     <use xlink:href="#Arial-BoldMT-69" transform="translate(650.195312 0)"/>
     <use xlink:href="#Arial-BoldMT-73" transform="translate(677.978516 0)"/>
     <use xlink:href="#Arial-BoldMT-69" transform="translate(733.59375 0)"/>
     <use xlink:href="#Arial-BoldMT-6f" transform="translate(761.376953 0)"/>
     <use xlink:href="#Arial-BoldMT-6e" transform="translate(822.460938 0)"/>
     <use xlink:href="#Arial-BoldMT-2d" transform="translate(883.544922 0)"/>
     <use xlink:href="#Arial-BoldMT-52" transform="translate(916.845703 0)"/>
     <use xlink:href="#Arial-BoldMT-65" transform="translate(989.0625 0)"/>
     <use xlink:href="#Arial-BoldMT-63" transform="translate(1044.677734 0)"/>
     <use xlink:href="#Arial-BoldMT-61" transform="translate(1100.292969 0)"/>
     <use xlink:href="#Arial-BoldMT-6c" transform="translate(1155.908203 0)"/>
     <use xlink:href="#Arial-BoldMT-6c" transform="translate(1183.691406 0)"/>
     <use xlink:href="#Arial-BoldMT-20" transform="translate(1211.474609 0)"/>
     <use xlink:href="#Arial-BoldMT-43" transform="translate(1239.257812 0)"/>
     <use xlink:href="#Arial-BoldMT-75" transform="translate(1311.474609 0)"/>
     <use xlink:href="#Arial-BoldMT-72" transform="translate(1372.558594 0)"/>
     <use xlink:href="#Arial-BoldMT-76" transform="translate(1411.474609 0)"/>
     <use xlink:href="#Arial-BoldMT-65" transform="translate(1467.089844 0)"/>
    </g>
   </g>
   <g id="legend_1">
    <g id="patch_7">
     <path d="M 164.573426 260.522801 
L 282.89952 260.522801 
Q 284.69952 260.522801 284.69952 258.722801 
L 284.69952 246.89202 
Q 284.69952 245.09202 282.89952 245.09202 
L 164.573426 245.09202 
Q 162.773426 245.09202 162.773426 246.89202 
L 162.773426 258.722801 
Q 162.773426 260.522801 164.573426 260.522801 
z
" style="fill: #ffffff; opacity: 0.8; stroke: #cccccc; stroke-width: 0.75; stroke-linejoin: miter"/>
    </g>
    <g id="line2d_26">
     <path d="M 166.373426 251.984051 
L 175.373426 251.984051 
L 184.373426 251.984051 
" style="fill: none; stroke: #1f77b4; stroke-width: 1.5; stroke-linecap: round"/>
    </g>
    <g id="text_16">
     <!-- Precision-Recall curve -->
     <g style="fill: #333333" transform="translate(191.573426 255.134051) scale(0.09 -0.09)">
      <defs>
       <path id="ArialMT-50" d="M 494 0 
L 494 4581 
L 2222 4581 
Q 2678 4581 2919 4538 
Q 3256 4481 3484 4323 
Q 3713 4166 3852 3881 
Q 3991 3597 3991 3256 
Q 3991 2672 3619 2267 
Q 3247 1863 2275 1863 
L 1100 1863 
L 1100 0 
L 494 0 
z
M 1100 2403 
L 2284 2403 
Q 2872 2403 3119 2622 
Q 3366 2841 3366 3238 
Q 3366 3525 3220 3729 
Q 3075 3934 2838 4000 
Q 2684 4041 2272 4041 
L 1100 4041 
L 1100 2403 
z
" transform="scale(0.015625)"/>
       <path id="ArialMT-72" d="M 416 0 
L 416 3319 
L 922 3319 
L 922 2816 
Q 1116 3169 1280 3281 
Q 1444 3394 1641 3394 
Q 1925 3394 2219 3213 
L 2025 2691 
Q 1819 2813 1613 2813 
Q 1428 2813 1281 2702 
Q 1134 2591 1072 2394 
Q 978 2094 978 1738 
L 978 0 
L 416 0 
z
" transform="scale(0.015625)"/>
       <path id="ArialMT-65" d="M 2694 1069 
L 3275 997 
Q 3138 488 2766 206 
Q 2394 -75 1816 -75 
Q 1088 -75 661 373 
Q 234 822 234 1631 
Q 234 2469 665 2931 
Q 1097 3394 1784 3394 
Q 2450 3394 2872 2941 
Q 3294 2488 3294 1666 
Q 3294 1616 3291 1516 
L 816 1516 
Q 847 969 1125 678 
Q 1403 388 1819 388 
Q 2128 388 2347 550 
Q 2566 713 2694 1069 
z
M 847 1978 
L 2700 1978 
Q 2663 2397 2488 2606 
Q 2219 2931 1791 2931 
Q 1403 2931 1139 2672 
Q 875 2413 847 1978 
z
" transform="scale(0.015625)"/>
       <path id="ArialMT-63" d="M 2588 1216 
L 3141 1144 
Q 3050 572 2676 248 
Q 2303 -75 1759 -75 
Q 1078 -75 664 370 
Q 250 816 250 1647 
Q 250 2184 428 2587 
Q 606 2991 970 3192 
Q 1334 3394 1763 3394 
Q 2303 3394 2647 3120 
Q 2991 2847 3088 2344 
L 2541 2259 
Q 2463 2594 2264 2762 
Q 2066 2931 1784 2931 
Q 1359 2931 1093 2626 
Q 828 2322 828 1663 
Q 828 994 1084 691 
Q 1341 388 1753 388 
Q 2084 388 2306 591 
Q 2528 794 2588 1216 
z
" transform="scale(0.015625)"/>
       <path id="ArialMT-69" d="M 425 3934 
L 425 4581 
L 988 4581 
L 988 3934 
L 425 3934 
z
M 425 0 
L 425 3319 
L 988 3319 
L 988 0 
L 425 0 
z
" transform="scale(0.015625)"/>
       <path id="ArialMT-73" d="M 197 991 
L 753 1078 
Q 800 744 1014 566 
Q 1228 388 1613 388 
Q 2000 388 2187 545 
Q 2375 703 2375 916 
Q 2375 1106 2209 1216 
Q 2094 1291 1634 1406 
Q 1016 1563 777 1677 
Q 538 1791 414 1992 
Q 291 2194 291 2438 
Q 291 2659 392 2848 
Q 494 3038 669 3163 
Q 800 3259 1026 3326 
Q 1253 3394 1513 3394 
Q 1903 3394 2198 3281 
Q 2494 3169 2634 2976 
Q 2775 2784 2828 2463 
L 2278 2388 
Q 2241 2644 2061 2787 
Q 1881 2931 1553 2931 
Q 1166 2931 1000 2803 
Q 834 2675 834 2503 
Q 834 2394 903 2306 
Q 972 2216 1119 2156 
Q 1203 2125 1616 2013 
Q 2213 1853 2448 1751 
Q 2684 1650 2818 1456 
Q 2953 1263 2953 975 
Q 2953 694 2789 445 
Q 2625 197 2315 61 
Q 2006 -75 1616 -75 
Q 969 -75 630 194 
Q 291 463 197 991 
z
" transform="scale(0.015625)"/>
       <path id="ArialMT-6f" d="M 213 1659 
Q 213 2581 725 3025 
Q 1153 3394 1769 3394 
Q 2453 3394 2887 2945 
Q 3322 2497 3322 1706 
Q 3322 1066 3130 698 
Q 2938 331 2570 128 
Q 2203 -75 1769 -75 
Q 1072 -75 642 372 
Q 213 819 213 1659 
z
M 791 1659 
Q 791 1022 1069 705 
Q 1347 388 1769 388 
Q 2188 388 2466 706 
Q 2744 1025 2744 1678 
Q 2744 2294 2464 2611 
Q 2184 2928 1769 2928 
Q 1347 2928 1069 2612 
Q 791 2297 791 1659 
z
" transform="scale(0.015625)"/>
       <path id="ArialMT-6e" d="M 422 0 
L 422 3319 
L 928 3319 
L 928 2847 
Q 1294 3394 1984 3394 
Q 2284 3394 2536 3286 
Q 2788 3178 2913 3003 
Q 3038 2828 3088 2588 
Q 3119 2431 3119 2041 
L 3119 0 
L 2556 0 
L 2556 2019 
Q 2556 2363 2490 2533 
Q 2425 2703 2258 2804 
Q 2091 2906 1866 2906 
Q 1506 2906 1245 2678 
Q 984 2450 984 1813 
L 984 0 
L 422 0 
z
" transform="scale(0.015625)"/>
       <path id="ArialMT-2d" d="M 203 1375 
L 203 1941 
L 1931 1941 
L 1931 1375 
L 203 1375 
z
" transform="scale(0.015625)"/>
       <path id="ArialMT-52" d="M 503 0 
L 503 4581 
L 2534 4581 
Q 3147 4581 3465 4457 
Q 3784 4334 3975 4021 
Q 4166 3709 4166 3331 
Q 4166 2844 3850 2509 
Q 3534 2175 2875 2084 
Q 3116 1969 3241 1856 
Q 3506 1613 3744 1247 
L 4541 0 
L 3778 0 
L 3172 953 
Q 2906 1366 2734 1584 
Q 2563 1803 2427 1890 
Q 2291 1978 2150 2013 
Q 2047 2034 1813 2034 
L 1109 2034 
L 1109 0 
L 503 0 
z
M 1109 2559 
L 2413 2559 
Q 2828 2559 3062 2645 
Q 3297 2731 3419 2920 
Q 3541 3109 3541 3331 
Q 3541 3656 3305 3865 
Q 3069 4075 2559 4075 
L 1109 4075 
L 1109 2559 
z
" transform="scale(0.015625)"/>
       <path id="ArialMT-61" d="M 2588 409 
Q 2275 144 1986 34 
Q 1697 -75 1366 -75 
Q 819 -75 525 192 
Q 231 459 231 875 
Q 231 1119 342 1320 
Q 453 1522 633 1644 
Q 813 1766 1038 1828 
Q 1203 1872 1538 1913 
Q 2219 1994 2541 2106 
Q 2544 2222 2544 2253 
Q 2544 2597 2384 2738 
Q 2169 2928 1744 2928 
Q 1347 2928 1158 2789 
Q 969 2650 878 2297 
L 328 2372 
Q 403 2725 575 2942 
Q 747 3159 1072 3276 
Q 1397 3394 1825 3394 
Q 2250 3394 2515 3294 
Q 2781 3194 2906 3042 
Q 3031 2891 3081 2659 
Q 3109 2516 3109 2141 
L 3109 1391 
Q 3109 606 3145 398 
Q 3181 191 3288 0 
L 2700 0 
Q 2613 175 2588 409 
z
M 2541 1666 
Q 2234 1541 1622 1453 
Q 1275 1403 1131 1340 
Q 988 1278 909 1158 
Q 831 1038 831 891 
Q 831 666 1001 516 
Q 1172 366 1500 366 
Q 1825 366 2078 508 
Q 2331 650 2450 897 
Q 2541 1088 2541 1459 
L 2541 1666 
z
" transform="scale(0.015625)"/>
       <path id="ArialMT-6c" d="M 409 0 
L 409 4581 
L 972 4581 
L 972 0 
L 409 0 
z
" transform="scale(0.015625)"/>
       <path id="ArialMT-20" transform="scale(0.015625)"/>
       <path id="ArialMT-75" d="M 2597 0 
L 2597 488 
Q 2209 -75 1544 -75 
Q 1250 -75 995 37 
Q 741 150 617 320 
Q 494 491 444 738 
Q 409 903 409 1263 
L 409 3319 
L 972 3319 
L 972 1478 
Q 972 1038 1006 884 
Q 1059 663 1231 536 
Q 1403 409 1656 409 
Q 1909 409 2131 539 
Q 2353 669 2445 892 
Q 2538 1116 2538 1541 
L 2538 3319 
L 3100 3319 
L 3100 0 
L 2597 0 
z
" transform="scale(0.015625)"/>
       <path id="ArialMT-76" d="M 1344 0 
L 81 3319 
L 675 3319 
L 1388 1331 
Q 1503 1009 1600 663 
Q 1675 925 1809 1294 
L 2547 3319 
L 3125 3319 
L 1869 0 
L 1344 0 
z
" transform="scale(0.015625)"/>
      </defs>
      <use xlink:href="#ArialMT-50"/>
      <use xlink:href="#ArialMT-72" transform="translate(66.699219 0)"/>
      <use xlink:href="#ArialMT-65" transform="translate(100 0)"/>
      <use xlink:href="#ArialMT-63" transform="translate(155.615234 0)"/>
      <use xlink:href="#ArialMT-69" transform="translate(205.615234 0)"/>
      <use xlink:href="#ArialMT-73" transform="translate(227.832031 0)"/>
      <use xlink:href="#ArialMT-69" transform="translate(277.832031 0)"/>
      <use xlink:href="#ArialMT-6f" transform="translate(300.048828 0)"/>
      <use xlink:href="#ArialMT-6e" transform="translate(355.664062 0)"/>
      <use xlink:href="#ArialMT-2d" transform="translate(411.279297 0)"/>
      <use xlink:href="#ArialMT-52" transform="translate(444.580078 0)"/>
      <use xlink:href="#ArialMT-65" transform="translate(516.796875 0)"/>
      <use xlink:href="#ArialMT-63" transform="translate(572.412109 0)"/>
      <use xlink:href="#ArialMT-61" transform="translate(622.412109 0)"/>
      <use xlink:href="#ArialMT-6c" transform="translate(678.027344 0)"/>
      <use xlink:href="#ArialMT-6c" transform="translate(700.244141 0)"/>
      <use xlink:href="#ArialMT-20" transform="translate(722.460938 0)"/>
      <use xlink:href="#ArialMT-63" transform="translate(750.244141 0)"/>
      <use xlink:href="#ArialMT-75" transform="translate(800.244141 0)"/>
      <use xlink:href="#ArialMT-72" transform="translate(855.859375 0)"/>
      <use xlink:href="#ArialMT-76" transform="translate(889.160156 0)"/>
      <use xlink:href="#ArialMT-65" transform="translate(939.160156 0)"/>
     </g>
    </g>
   </g>
  </g>
 </g>
 <defs>
  <clipPath id="pc536212920">
   <rect x="35.655938" y="19.642031" width="253.543583" height="245.38077"/>
  </clipPath>
 </defs>
</svg>
