<?xml version="1.0" encoding="utf-8" standalone="no"?>
<!DOCTYPE svg PUBLIC "-//W3C//DTD SVG 1.1//EN"
  "http://www.w3.org/Graphics/SVG/1.1/DTD/svg11.dtd">
<svg xmlns:xlink="http://www.w3.org/1999/xlink" width="296.39952pt" height="296.39952pt" viewBox="0 0 296.39952 296.39952" xmlns="http://www.w3.org/2000/svg" version="1.1">
 <metadata>
  <rdf:RDF xmlns:dc="http://purl.org/dc/elements/1.1/" xmlns:cc="http://creativecommons.org/ns#" xmlns:rdf="http://www.w3.org/1999/02/22-rdf-syntax-ns#">
   <cc:Work>
    <dc:type rdf:resource="http://purl.org/dc/dcmitype/StillImage"/>
    <dc:date>2026-01-03T07:05:42.951199</dc:date>
    <dc:format>image/svg+xml</dc:format>
    <dc:creator>
     <cc:Agent>
      <dc:title>Matplotlib v3.10.8, https://matplotlib.org/</dc:title>
     </cc:Agent>
    </dc:creator>
   </cc:Work>
  </rdf:RDF>
 </metadata>
 <defs>
  <style type="text/css">*{stroke-linejoin: round; stroke-linecap: butt}</style>
 </defs>
 <g id="figure_1">
  <g id="patch_1">
   <path d="M 0 296.39952 
L 296.39952 296.39952 
L 296.39952 0 
L 0 0 
z
" style="fill: #ffffff"/>
  </g>
  <g id="axes_1">
   <g id="patch_2">
    <path d="M 35.655938 265.022801 
L 289.19952 265.022801 
L 289.19952 19.642031 
L 35.655938 19.642031 
z
" style="fill: #ffffff"/>
   </g>
   <g id="matplotlib.axis_1">
    <g id="xtick_1">
     <g id="line2d_1">
      <path d="M 42.831699 265.022801 
L 42.831699 19.642031 
" clip-path="url(#p51791724ab)" style="fill: none; stroke: #c0c0c0; stroke-width: 0.25; stroke-linecap: round"/>
     </g>
     <g id="line2d_2"/>
     <g id="text_1">
      <!-- 0.0 -->
      <g style="fill: #333333" transform="translate(36.576699 274.964832) scale(0.09 -0.09)">
       <defs>
        <path id="ArialMT-30" d="M 266 2259 
Q 266 3072 433 3567 
Q 600 4063 929 4331 
Q 1259 4600 1759 4600 
Q 2128 4600 2406 4451 
Q 2684 4303 2865 4023 
Q 3047 3744 3150 3342 
Q 3253 2941 3253 2259 
Q 3253 1453 3087 958 
Q 2922 463 2592 192 
Q 2263 -78 1759 -78 
Q 1097 -78 719 397 
Q 266 969 266 2259 
z
M 844 2259 
Q 844 1131 1108 757 
Q 1372 384 1759 384 
Q 2147 384 2411 759 
Q 2675 1134 2675 2259 
Q 2675 3391 2411 3762 
Q 2147 4134 1753 4134 
Q 1366 4134 1134 3806 
Q 844 3388 844 2259 
z
" transform="scale(0.015625)"/>
        <path id="ArialMT-2e" d="M 581 0 
L 581 641 
L 1222 641 
L 1222 0 
L 581 0 
z
" transform="scale(0.015625)"/>
       </defs>
       <use xlink:href="#ArialMT-30"/>
       <use xlink:href="#ArialMT-2e" transform="translate(55.615234 0)"/>
       <use xlink:href="#ArialMT-30" transform="translate(83.398438 0)"/>
      </g>
     </g>
    </g>
    <g id="xtick_2">
     <g id="line2d_3">
      <path d="M 90.670111 265.022801 
L 90.670111 19.642031 
" clip-path="url(#p51791724ab)" style="fill: none; stroke: #c0c0c0; stroke-width: 0.25; stroke-linecap: round"/>
     </g>
     <g id="line2d_4"/>
     <g id="text_2">
      <!-- 0.2 -->
      <g style="fill: #333333" transform="translate(84.415111 274.964832) scale(0.09 -0.09)">
       <defs>
        <path id="ArialMT-32" d="M 3222 541 
L 3222 0 
L 194 0 
Q 188 203 259 391 
Q 375 700 629 1000 
Q 884 1300 1366 1694 
Q 2113 2306 2375 2664 
Q 2638 3022 2638 3341 
Q 2638 3675 2398 3904 
Q 2159 4134 1775 4134 
Q 1369 4134 1125 3890 
Q 881 3647 878 3216 
L 300 3275 
Q 359 3922 746 4261 
Q 1134 4600 1788 4600 
Q 2447 4600 2831 4234 
Q 3216 3869 3216 3328 
Q 3216 3053 3103 2787 
Q 2991 2522 2730 2228 
Q 2469 1934 1863 1422 
Q 1356 997 1212 845 
Q 1069 694 975 541 
L 3222 541 
z
" transform="scale(0.015625)"/>
       </defs>
       <use xlink:href="#ArialMT-30"/>
       <use xlink:href="#ArialMT-2e" transform="translate(55.615234 0)"/>
       <use xlink:href="#ArialMT-32" transform="translate(83.398438 0)"/>
      </g>
     </g>
    </g>
    <g id="xtick_3">
     <g id="line2d_5">
      <path d="M 138.508523 265.022801 
L 138.508523 19.642031 
" clip-path="url(#p51791724ab)" style="fill: none; stroke: #c0c0c0; stroke-width: 0.25; stroke-linecap: round"/>
     </g>
     <g id="line2d_6"/>
     <g id="text_3">
      <!-- 0.4 -->
      <g style="fill: #333333" transform="translate(132.253523 274.964832) scale(0.09 -0.09)">
       <defs>
        <path id="ArialMT-34" d="M 2069 0 
L 2069 1097 
L 81 1097 
L 81 1613 
L 2172 4581 
L 2631 4581 
L 2631 1613 
L 3250 1613 
L 3250 1097 
L 2631 1097 
L 2631 0 
L 2069 0 
z
M 2069 1613 
L 2069 3678 
L 634 1613 
L 2069 1613 
z
" transform="scale(0.015625)"/>
       </defs>
       <use xlink:href="#ArialMT-30"/>
       <use xlink:href="#ArialMT-2e" transform="translate(55.615234 0)"/>
       <use xlink:href="#ArialMT-34" transform="translate(83.398438 0)"/>
      </g>
     </g>
    </g>
    <g id="xtick_4">
     <g id="line2d_7">
      <path d="M 186.346935 265.022801 
L 186.346935 19.642031 
" clip-path="url(#p51791724ab)" style="fill: none; stroke: #c0c0c0; stroke-width: 0.25; stroke-linecap: round"/>
     </g>
     <g id="line2d_8"/>
     <g id="text_4">
      <!-- 0.6 -->
      <g style="fill: #333333" transform="translate(180.091935 274.964832) scale(0.09 -0.09)">
       <defs>
        <path id="ArialMT-36" d="M 3184 3459 
L 2625 3416 
Q 2550 3747 2413 3897 
Q 2184 4138 1850 4138 
Q 1581 4138 1378 3988 
Q 1113 3794 959 3422 
Q 806 3050 800 2363 
Q 1003 2672 1297 2822 
Q 1591 2972 1913 2972 
Q 2475 2972 2870 2558 
Q 3266 2144 3266 1488 
Q 3266 1056 3080 686 
Q 2894 316 2569 119 
Q 2244 -78 1831 -78 
Q 1128 -78 684 439 
Q 241 956 241 2144 
Q 241 3472 731 4075 
Q 1159 4600 1884 4600 
Q 2425 4600 2770 4297 
Q 3116 3994 3184 3459 
z
M 888 1484 
Q 888 1194 1011 928 
Q 1134 663 1356 523 
Q 1578 384 1822 384 
Q 2178 384 2434 671 
Q 2691 959 2691 1453 
Q 2691 1928 2437 2201 
Q 2184 2475 1800 2475 
Q 1419 2475 1153 2201 
Q 888 1928 888 1484 
z
" transform="scale(0.015625)"/>
       </defs>
       <use xlink:href="#ArialMT-30"/>
       <use xlink:href="#ArialMT-2e" transform="translate(55.615234 0)"/>
       <use xlink:href="#ArialMT-36" transform="translate(83.398438 0)"/>
      </g>
     </g>
    </g>
    <g id="xtick_5">
     <g id="line2d_9">
      <path d="M 234.185346 265.022801 
L 234.185346 19.642031 
" clip-path="url(#p51791724ab)" style="fill: none; stroke: #c0c0c0; stroke-width: 0.25; stroke-linecap: round"/>
     </g>
     <g id="line2d_10"/>
     <g id="text_5">
      <!-- 0.8 -->
      <g style="fill: #333333" transform="translate(227.930346 274.964832) scale(0.09 -0.09)">
       <defs>
        <path id="ArialMT-38" d="M 1131 2484 
Q 781 2613 612 2850 
Q 444 3088 444 3419 
Q 444 3919 803 4259 
Q 1163 4600 1759 4600 
Q 2359 4600 2725 4251 
Q 3091 3903 3091 3403 
Q 3091 3084 2923 2848 
Q 2756 2613 2416 2484 
Q 2838 2347 3058 2040 
Q 3278 1734 3278 1309 
Q 3278 722 2862 322 
Q 2447 -78 1769 -78 
Q 1091 -78 675 323 
Q 259 725 259 1325 
Q 259 1772 486 2073 
Q 713 2375 1131 2484 
z
M 1019 3438 
Q 1019 3113 1228 2906 
Q 1438 2700 1772 2700 
Q 2097 2700 2305 2904 
Q 2513 3109 2513 3406 
Q 2513 3716 2298 3927 
Q 2084 4138 1766 4138 
Q 1444 4138 1231 3931 
Q 1019 3725 1019 3438 
z
M 838 1322 
Q 838 1081 952 856 
Q 1066 631 1291 507 
Q 1516 384 1775 384 
Q 2178 384 2440 643 
Q 2703 903 2703 1303 
Q 2703 1709 2433 1975 
Q 2163 2241 1756 2241 
Q 1359 2241 1098 1978 
Q 838 1716 838 1322 
z
" transform="scale(0.015625)"/>
       </defs>
       <use xlink:href="#ArialMT-30"/>
       <use xlink:href="#ArialMT-2e" transform="translate(55.615234 0)"/>
       <use xlink:href="#ArialMT-38" transform="translate(83.398438 0)"/>
      </g>
     </g>
    </g>
    <g id="xtick_6">
     <g id="line2d_11">
      <path d="M 282.023758 265.022801 
L 282.023758 19.642031 
" clip-path="url(#p51791724ab)" style="fill: none; stroke: #c0c0c0; stroke-width: 0.25; stroke-linecap: round"/>
     </g>
     <g id="line2d_12"/>
     <g id="text_6">
      <!-- 1.0 -->
      <g style="fill: #333333" transform="translate(275.768758 274.964832) scale(0.09 -0.09)">
       <defs>
        <path id="ArialMT-31" d="M 2384 0 
L 1822 0 
L 1822 3584 
Q 1619 3391 1289 3197 
Q 959 3003 697 2906 
L 697 3450 
Q 1169 3672 1522 3987 
Q 1875 4303 2022 4600 
L 2384 4600 
L 2384 0 
z
" transform="scale(0.015625)"/>
       </defs>
       <use xlink:href="#ArialMT-31"/>
       <use xlink:href="#ArialMT-2e" transform="translate(55.615234 0)"/>
       <use xlink:href="#ArialMT-30" transform="translate(83.398438 0)"/>
      </g>
     </g>
    </g>
    <g id="text_7">
     <!-- Recall [TP / (TP + FN)] -->
     <g style="fill: #333333" transform="translate(115.706479 287.305301) scale(0.09 -0.09)">
      <defs>
       <path id="Arial-BoldMT-52" d="M 469 0 
L 469 4581 
L 2416 4581 
Q 3150 4581 3483 4457 
Q 3816 4334 4016 4018 
Q 4216 3703 4216 3297 
Q 4216 2781 3912 2445 
Q 3609 2109 3006 2022 
Q 3306 1847 3501 1637 
Q 3697 1428 4028 894 
L 4588 0 
L 3481 0 
L 2813 997 
Q 2456 1531 2325 1670 
Q 2194 1809 2047 1861 
Q 1900 1913 1581 1913 
L 1394 1913 
L 1394 0 
L 469 0 
z
M 1394 2644 
L 2078 2644 
Q 2744 2644 2909 2700 
Q 3075 2756 3169 2893 
Q 3263 3031 3263 3238 
Q 3263 3469 3139 3611 
Q 3016 3753 2791 3791 
Q 2678 3806 2116 3806 
L 1394 3806 
L 1394 2644 
z
" transform="scale(0.015625)"/>
       <path id="Arial-BoldMT-65" d="M 2381 1056 
L 3256 909 
Q 3088 428 2723 176 
Q 2359 -75 1813 -75 
Q 947 -75 531 491 
Q 203 944 203 1634 
Q 203 2459 634 2926 
Q 1066 3394 1725 3394 
Q 2466 3394 2894 2905 
Q 3322 2416 3303 1406 
L 1103 1406 
Q 1113 1016 1316 798 
Q 1519 581 1822 581 
Q 2028 581 2168 693 
Q 2309 806 2381 1056 
z
M 2431 1944 
Q 2422 2325 2234 2523 
Q 2047 2722 1778 2722 
Q 1491 2722 1303 2513 
Q 1116 2303 1119 1944 
L 2431 1944 
z
" transform="scale(0.015625)"/>
       <path id="Arial-BoldMT-63" d="M 3353 2338 
L 2488 2181 
Q 2444 2441 2289 2572 
Q 2134 2703 1888 2703 
Q 1559 2703 1364 2476 
Q 1169 2250 1169 1719 
Q 1169 1128 1367 884 
Q 1566 641 1900 641 
Q 2150 641 2309 783 
Q 2469 925 2534 1272 
L 3397 1125 
Q 3263 531 2881 228 
Q 2500 -75 1859 -75 
Q 1131 -75 698 384 
Q 266 844 266 1656 
Q 266 2478 700 2936 
Q 1134 3394 1875 3394 
Q 2481 3394 2839 3133 
Q 3197 2872 3353 2338 
z
" transform="scale(0.015625)"/>
       <path id="Arial-BoldMT-61" d="M 1116 2306 
L 319 2450 
Q 453 2931 781 3162 
Q 1109 3394 1756 3394 
Q 2344 3394 2631 3255 
Q 2919 3116 3036 2902 
Q 3153 2688 3153 2116 
L 3144 1091 
Q 3144 653 3186 445 
Q 3228 238 3344 0 
L 2475 0 
Q 2441 88 2391 259 
Q 2369 338 2359 363 
Q 2134 144 1878 34 
Q 1622 -75 1331 -75 
Q 819 -75 523 203 
Q 228 481 228 906 
Q 228 1188 362 1408 
Q 497 1628 739 1745 
Q 981 1863 1438 1950 
Q 2053 2066 2291 2166 
L 2291 2253 
Q 2291 2506 2166 2614 
Q 2041 2722 1694 2722 
Q 1459 2722 1328 2630 
Q 1197 2538 1116 2306 
z
M 2291 1594 
Q 2122 1538 1756 1459 
Q 1391 1381 1278 1306 
Q 1106 1184 1106 997 
Q 1106 813 1243 678 
Q 1381 544 1594 544 
Q 1831 544 2047 700 
Q 2206 819 2256 991 
Q 2291 1103 2291 1419 
L 2291 1594 
z
" transform="scale(0.015625)"/>
       <path id="Arial-BoldMT-6c" d="M 459 0 
L 459 4581 
L 1338 4581 
L 1338 0 
L 459 0 
z
" transform="scale(0.015625)"/>
       <path id="Arial-BoldMT-20" transform="scale(0.015625)"/>
       <path id="Arial-BoldMT-5b" d="M 456 -1291 
L 456 4581 
L 2013 4581 
L 2013 3891 
L 1291 3891 
L 1291 -600 
L 2013 -600 
L 2013 -1291 
L 456 -1291 
z
" transform="scale(0.015625)"/>
       <path id="Arial-BoldMT-54" d="M 1497 0 
L 1497 3806 
L 138 3806 
L 138 4581 
L 3778 4581 
L 3778 3806 
L 2422 3806 
L 2422 0 
L 1497 0 
z
" transform="scale(0.015625)"/>
       <path id="Arial-BoldMT-50" d="M 466 0 
L 466 4581 
L 1950 4581 
Q 2794 4581 3050 4513 
Q 3444 4409 3709 4064 
Q 3975 3719 3975 3172 
Q 3975 2750 3822 2462 
Q 3669 2175 3433 2011 
Q 3197 1847 2953 1794 
Q 2622 1728 1994 1728 
L 1391 1728 
L 1391 0 
L 466 0 
z
M 1391 3806 
L 1391 2506 
L 1897 2506 
Q 2444 2506 2628 2578 
Q 2813 2650 2917 2803 
Q 3022 2956 3022 3159 
Q 3022 3409 2875 3571 
Q 2728 3734 2503 3775 
Q 2338 3806 1838 3806 
L 1391 3806 
z
" transform="scale(0.015625)"/>
       <path id="Arial-BoldMT-2f" d="M -9 -78 
L 1125 4659 
L 1784 4659 
L 638 -78 
L -9 -78 
z
" transform="scale(0.015625)"/>
       <path id="Arial-BoldMT-28" d="M 1916 -1347 
L 1313 -1347 
Q 834 -625 584 153 
Q 334 931 334 1659 
Q 334 2563 644 3369 
Q 913 4069 1325 4659 
L 1925 4659 
Q 1497 3713 1336 3048 
Q 1175 2384 1175 1641 
Q 1175 1128 1270 590 
Q 1366 53 1531 -431 
Q 1641 -750 1916 -1347 
z
" transform="scale(0.015625)"/>
       <path id="Arial-BoldMT-2b" d="M 1466 659 
L 1466 1850 
L 266 1850 
L 266 2672 
L 1466 2672 
L 1466 3863 
L 2266 3863 
L 2266 2672 
L 3469 2672 
L 3469 1850 
L 2266 1850 
L 2266 659 
L 1466 659 
z
" transform="scale(0.015625)"/>
       <path id="Arial-BoldMT-46" d="M 472 0 
L 472 4581 
L 3613 4581 
L 3613 3806 
L 1397 3806 
L 1397 2722 
L 3309 2722 
L 3309 1947 
L 1397 1947 
L 1397 0 
L 472 0 
z
" transform="scale(0.015625)"/>
       <path id="Arial-BoldMT-4e" d="M 475 0 
L 475 4581 
L 1375 4581 
L 3250 1522 
L 3250 4581 
L 4109 4581 
L 4109 0 
L 3181 0 
L 1334 2988 
L 1334 0 
L 475 0 
z
" transform="scale(0.015625)"/>
       <path id="Arial-BoldMT-29" d="M 216 -1347 
Q 475 -791 581 -494 
Q 688 -197 778 190 
Q 869 578 912 926 
Q 956 1275 956 1641 
Q 956 2384 797 3048 
Q 638 3713 209 4659 
L 806 4659 
Q 1278 3988 1539 3234 
Q 1800 2481 1800 1706 
Q 1800 1053 1594 306 
Q 1359 -531 822 -1347 
L 216 -1347 
z
" transform="scale(0.015625)"/>
       <path id="Arial-BoldMT-5d" d="M 1675 4581 
L 1675 -1291 
L 119 -1291 
L 119 -600 
L 841 -600 
L 841 3897 
L 119 3897 
L 119 4581 
L 1675 4581 
z
" transform="scale(0.015625)"/>
      </defs>
      <use xlink:href="#Arial-BoldMT-52"/>
      <use xlink:href="#Arial-BoldMT-65" transform="translate(72.216797 0)"/>
      <use xlink:href="#Arial-BoldMT-63" transform="translate(127.832031 0)"/>
      <use xlink:href="#Arial-BoldMT-61" transform="translate(183.447266 0)"/>
      <use xlink:href="#Arial-BoldMT-6c" transform="translate(239.0625 0)"/>
      <use xlink:href="#Arial-BoldMT-6c" transform="translate(266.845703 0)"/>
      <use xlink:href="#Arial-BoldMT-20" transform="translate(294.628906 0)"/>
      <use xlink:href="#Arial-BoldMT-5b" transform="translate(322.412109 0)"/>
      <use xlink:href="#Arial-BoldMT-54" transform="translate(355.712891 0)"/>
      <use xlink:href="#Arial-BoldMT-50" transform="translate(416.796875 0)"/>
      <use xlink:href="#Arial-BoldMT-20" transform="translate(481.746094 0)"/>
      <use xlink:href="#Arial-BoldMT-2f" transform="translate(509.529297 0)"/>
      <use xlink:href="#Arial-BoldMT-20" transform="translate(537.3125 0)"/>
      <use xlink:href="#Arial-BoldMT-28" transform="translate(565.095703 0)"/>
      <use xlink:href="#Arial-BoldMT-54" transform="translate(598.396484 0)"/>
      <use xlink:href="#Arial-BoldMT-50" transform="translate(659.480469 0)"/>
      <use xlink:href="#Arial-BoldMT-20" transform="translate(724.429688 0)"/>
      <use xlink:href="#Arial-BoldMT-2b" transform="translate(752.212891 0)"/>
      <use xlink:href="#Arial-BoldMT-20" transform="translate(810.611328 0)"/>
      <use xlink:href="#Arial-BoldMT-46" transform="translate(838.394531 0)"/>
      <use xlink:href="#Arial-BoldMT-4e" transform="translate(899.478516 0)"/>
      <use xlink:href="#Arial-BoldMT-29" transform="translate(971.695312 0)"/>
      <use xlink:href="#Arial-BoldMT-5d" transform="translate(1004.996094 0)"/>
     </g>
    </g>
   </g>
   <g id="matplotlib.axis_2">
    <g id="ytick_1">
     <g id="line2d_13">
      <path d="M 35.655938 265.022801 
L 289.19952 265.022801 
" clip-path="url(#p51791724ab)" style="fill: none; stroke: #c0c0c0; stroke-width: 0.25; stroke-linecap: round"/>
     </g>
     <g id="line2d_14"/>
     <g id="text_8">
      <!-- 0.0 -->
      <g style="fill: #333333" transform="translate(19.645938 268.243817) scale(0.09 -0.09)">
       <use xlink:href="#ArialMT-30"/>
       <use xlink:href="#ArialMT-2e" transform="translate(55.615234 0)"/>
       <use xlink:href="#ArialMT-30" transform="translate(83.398438 0)"/>
      </g>
     </g>
    </g>
    <g id="ytick_2">
     <g id="line2d_15">
      <path d="M 35.655938 217.37605 
L 289.19952 217.37605 
" clip-path="url(#p51791724ab)" style="fill: none; stroke: #c0c0c0; stroke-width: 0.25; stroke-linecap: round"/>
     </g>
     <g id="line2d_16"/>
     <g id="text_9">
      <!-- 0.2 -->
      <g style="fill: #333333" transform="translate(19.645938 220.597065) scale(0.09 -0.09)">
       <use xlink:href="#ArialMT-30"/>
       <use xlink:href="#ArialMT-2e" transform="translate(55.615234 0)"/>
       <use xlink:href="#ArialMT-32" transform="translate(83.398438 0)"/>
      </g>
     </g>
    </g>
    <g id="ytick_3">
     <g id="line2d_17">
      <path d="M 35.655938 169.729298 
L 289.19952 169.729298 
" clip-path="url(#p51791724ab)" style="fill: none; stroke: #c0c0c0; stroke-width: 0.25; stroke-linecap: round"/>
     </g>
     <g id="line2d_18"/>
     <g id="text_10">
      <!-- 0.4 -->
      <g style="fill: #333333" transform="translate(19.645938 172.950314) scale(0.09 -0.09)">
       <use xlink:href="#ArialMT-30"/>
       <use xlink:href="#ArialMT-2e" transform="translate(55.615234 0)"/>
       <use xlink:href="#ArialMT-34" transform="translate(83.398438 0)"/>
      </g>
     </g>
    </g>
    <g id="ytick_4">
     <g id="line2d_19">
      <path d="M 35.655938 122.082547 
L 289.19952 122.082547 
" clip-path="url(#p51791724ab)" style="fill: none; stroke: #c0c0c0; stroke-width: 0.25; stroke-linecap: round"/>
     </g>
     <g id="line2d_20"/>
     <g id="text_11">
      <!-- 0.6 -->
      <g style="fill: #333333" transform="translate(19.645938 125.303563) scale(0.09 -0.09)">
       <use xlink:href="#ArialMT-30"/>
       <use xlink:href="#ArialMT-2e" transform="translate(55.615234 0)"/>
       <use xlink:href="#ArialMT-36" transform="translate(83.398438 0)"/>
      </g>
     </g>
    </g>
    <g id="ytick_5">
     <g id="line2d_21">
      <path d="M 35.655938 74.435795 
L 289.19952 74.435795 
" clip-path="url(#p51791724ab)" style="fill: none; stroke: #c0c0c0; stroke-width: 0.25; stroke-linecap: round"/>
     </g>
     <g id="line2d_22"/>
     <g id="text_12">
      <!-- 0.8 -->
      <g style="fill: #333333" transform="translate(19.645938 77.656811) scale(0.09 -0.09)">
       <use xlink:href="#ArialMT-30"/>
       <use xlink:href="#ArialMT-2e" transform="translate(55.615234 0)"/>
       <use xlink:href="#ArialMT-38" transform="translate(83.398438 0)"/>
      </g>
     </g>
    </g>
    <g id="ytick_6">
     <g id="line2d_23">
      <path d="M 35.655938 26.789044 
L 289.19952 26.789044 
" clip-path="url(#p51791724ab)" style="fill: none; stroke: #c0c0c0; stroke-width: 0.25; stroke-linecap: round"/>
     </g>
     <g id="line2d_24"/>
     <g id="text_13">
      <!-- 1.0 -->
      <g style="fill: #333333" transform="translate(19.645938 30.01006) scale(0.09 -0.09)">
       <use xlink:href="#ArialMT-31"/>
       <use xlink:href="#ArialMT-2e" transform="translate(55.615234 0)"/>
       <use xlink:href="#ArialMT-30" transform="translate(83.398438 0)"/>
      </g>
     </g>
    </g>
    <g id="text_14">
     <!-- Precision [TP / (TP + FP)] -->
     <g style="fill: #333333" transform="translate(13.751719 195.805776) rotate(-90) scale(0.09 -0.09)">
      <defs>
       <path id="Arial-BoldMT-72" d="M 1300 0 
L 422 0 
L 422 3319 
L 1238 3319 
L 1238 2847 
Q 1447 3181 1614 3287 
Q 1781 3394 1994 3394 
Q 2294 3394 2572 3228 
L 2300 2463 
Q 2078 2606 1888 2606 
Q 1703 2606 1575 2504 
Q 1447 2403 1373 2137 
Q 1300 1872 1300 1025 
L 1300 0 
z
" transform="scale(0.015625)"/>
       <path id="Arial-BoldMT-69" d="M 459 3769 
L 459 4581 
L 1338 4581 
L 1338 3769 
L 459 3769 
z
M 459 0 
L 459 3319 
L 1338 3319 
L 1338 0 
L 459 0 
z
" transform="scale(0.015625)"/>
       <path id="Arial-BoldMT-73" d="M 150 947 
L 1031 1081 
Q 1088 825 1259 692 
Q 1431 559 1741 559 
Q 2081 559 2253 684 
Q 2369 772 2369 919 
Q 2369 1019 2306 1084 
Q 2241 1147 2013 1200 
Q 950 1434 666 1628 
Q 272 1897 272 2375 
Q 272 2806 612 3100 
Q 953 3394 1669 3394 
Q 2350 3394 2681 3172 
Q 3013 2950 3138 2516 
L 2309 2363 
Q 2256 2556 2107 2659 
Q 1959 2763 1684 2763 
Q 1338 2763 1188 2666 
Q 1088 2597 1088 2488 
Q 1088 2394 1175 2328 
Q 1294 2241 1995 2081 
Q 2697 1922 2975 1691 
Q 3250 1456 3250 1038 
Q 3250 581 2869 253 
Q 2488 -75 1741 -75 
Q 1063 -75 667 200 
Q 272 475 150 947 
z
" transform="scale(0.015625)"/>
       <path id="Arial-BoldMT-6f" d="M 256 1706 
Q 256 2144 472 2553 
Q 688 2963 1083 3178 
Q 1478 3394 1966 3394 
Q 2719 3394 3200 2905 
Q 3681 2416 3681 1669 
Q 3681 916 3195 420 
Q 2709 -75 1972 -75 
Q 1516 -75 1102 131 
Q 688 338 472 736 
Q 256 1134 256 1706 
z
M 1156 1659 
Q 1156 1166 1390 903 
Q 1625 641 1969 641 
Q 2313 641 2545 903 
Q 2778 1166 2778 1666 
Q 2778 2153 2545 2415 
Q 2313 2678 1969 2678 
Q 1625 2678 1390 2415 
Q 1156 2153 1156 1659 
z
" transform="scale(0.015625)"/>
       <path id="Arial-BoldMT-6e" d="M 3478 0 
L 2600 0 
L 2600 1694 
Q 2600 2231 2544 2389 
Q 2488 2547 2361 2634 
Q 2234 2722 2056 2722 
Q 1828 2722 1647 2597 
Q 1466 2472 1398 2265 
Q 1331 2059 1331 1503 
L 1331 0 
L 453 0 
L 453 3319 
L 1269 3319 
L 1269 2831 
Q 1703 3394 2363 3394 
Q 2653 3394 2893 3289 
Q 3134 3184 3257 3021 
Q 3381 2859 3429 2653 
Q 3478 2447 3478 2063 
L 3478 0 
z
" transform="scale(0.015625)"/>
      </defs>
      <use xlink:href="#Arial-BoldMT-50"/>
      <use xlink:href="#Arial-BoldMT-72" transform="translate(66.699219 0)"/>
      <use xlink:href="#Arial-BoldMT-65" transform="translate(105.615234 0)"/>
      <use xlink:href="#Arial-BoldMT-63" transform="translate(161.230469 0)"/>
      <use xlink:href="#Arial-BoldMT-69" transform="translate(216.845703 0)"/>
      <use xlink:href="#Arial-BoldMT-73" transform="translate(244.628906 0)"/>
      <use xlink:href="#Arial-BoldMT-69" transform="translate(300.244141 0)"/>
      <use xlink:href="#Arial-BoldMT-6f" transform="translate(328.027344 0)"/>
      <use xlink:href="#Arial-BoldMT-6e" transform="translate(389.111328 0)"/>
      <use xlink:href="#Arial-BoldMT-20" transform="translate(450.195312 0)"/>
      <use xlink:href="#Arial-BoldMT-5b" transform="translate(477.978516 0)"/>
      <use xlink:href="#Arial-BoldMT-54" transform="translate(511.279297 0)"/>
      <use xlink:href="#Arial-BoldMT-50" transform="translate(572.363281 0)"/>
      <use xlink:href="#Arial-BoldMT-20" transform="translate(637.3125 0)"/>
      <use xlink:href="#Arial-BoldMT-2f" transform="translate(665.095703 0)"/>
      <use xlink:href="#Arial-BoldMT-20" transform="translate(692.878906 0)"/>
      <use xlink:href="#Arial-BoldMT-28" transform="translate(720.662109 0)"/>
      <use xlink:href="#Arial-BoldMT-54" transform="translate(753.962891 0)"/>
      <use xlink:href="#Arial-BoldMT-50" transform="translate(815.046875 0)"/>
      <use xlink:href="#Arial-BoldMT-20" transform="translate(879.996094 0)"/>
      <use xlink:href="#Arial-BoldMT-2b" transform="translate(907.779297 0)"/>
      <use xlink:href="#Arial-BoldMT-20" transform="translate(966.177734 0)"/>
      <use xlink:href="#Arial-BoldMT-46" transform="translate(993.960938 0)"/>
      <use xlink:href="#Arial-BoldMT-50" transform="translate(1055.044922 0)"/>
      <use xlink:href="#Arial-BoldMT-29" transform="translate(1121.744141 0)"/>
      <use xlink:href="#Arial-BoldMT-5d" transform="translate(1155.044922 0)"/>
     </g>
    </g>
   </g>
   <g id="line2d_25">
    <path d="M 42.831699 265.022801 
L 42.831785 264.915778 
L 42.942819 242.60143 
L 42.943845 242.494407 
L 43.05485 232.541244 
L 43.058327 232.434221 
L 43.169304 225.745268 
L 43.171812 225.638245 
L 43.282846 219.858989 
L 43.287663 219.751966 
L 43.39787 215.203478 
L 43.40243 215.096455 
L 43.513122 211.99278 
L 43.522527 211.885757 
L 43.632791 209.317199 
L 43.639346 209.210176 
L 43.747103 206.320548 
L 43.754513 206.213525 
L 43.8499 204.019548 
L 43.874923 203.912525 
L 43.980599 201.45099 
L 43.994792 201.343967 
L 44.100924 198.935944 
L 44.108248 198.82892 
L 44.216318 196.741967 
L 44.247497 196.634944 
L 44.357391 194.494479 
L 44.365855 194.387455 
L 44.476861 192.56806 
L 44.498121 192.461037 
L 44.605222 190.26706 
L 44.613943 190.160037 
L 44.716684 188.447665 
L 44.735607 188.340642 
L 44.838947 186.62827 
L 44.868786 186.521246 
L 44.976001 184.541316 
L 44.987258 184.434293 
L 45.09795 182.775433 
L 45.110347 182.668409 
L 45.207359 181.491154 
L 45.227281 181.38413 
L 45.333014 180.04634 
L 45.350655 179.939317 
L 45.459722 178.494503 
L 45.461432 178.494503 
L 45.487737 178.387479 
L 45.592217 176.942665 
L 45.602989 176.835642 
L 45.708665 175.76541 
L 45.727903 175.658386 
L 45.824544 174.374107 
L 45.837255 174.374107 
L 45.844893 174.267084 
L 45.944613 173.196852 
L 45.980152 173.089828 
L 46.085999 172.180131 
L 46.093979 172.073108 
L 46.203075 171.16341 
L 46.218293 171.056387 
L 46.327418 169.879131 
L 46.344261 169.772108 
L 46.454184 168.327294 
L 46.468832 168.22027 
L 46.576617 167.20355 
L 46.583885 167.096526 
L 46.692211 165.919271 
L 46.692724 165.919271 
L 46.709624 165.812247 
L 46.820544 164.313922 
L 46.8383 164.206899 
L 46.932747 163.778806 
L 46.965065 163.725294 
L 47.069202 162.976131 
L 47.079719 162.869108 
L 47.188729 161.95941 
L 47.188786 161.95941 
L 47.20885 161.852387 
L 47.318316 161.103224 
L 47.335758 160.996201 
L 47.429122 160.032992 
L 47.458904 159.925969 
L 47.563526 158.748713 
L 47.598666 158.64169 
L 47.709358 157.624969 
L 47.722753 157.517945 
L 47.82498 156.661759 
L 47.85784 156.554736 
L 47.968931 155.912597 
L 47.985717 155.805573 
L 48.092106 154.521294 
L 48.152895 154.414271 
L 48.255636 153.772132 
L 48.272451 153.665108 
L 48.381034 152.862434 
L 48.424524 152.755411 
L 48.531597 152.05976 
L 48.554995 151.952736 
L 48.663834 151.09655 
L 48.664034 151.09655 
L 48.696352 150.989527 
L 48.797041 150.454411 
L 48.806959 150.454411 
L 48.833121 150.347388 
L 48.942559 149.812271 
L 48.981261 149.705248 
L 49.087907 148.742039 
L 49.12088 148.635016 
L 49.209913 148.046388 
L 49.25708 147.939364 
L 49.365834 147.45776 
L 49.398351 147.350737 
L 49.495278 146.762109 
L 49.520557 146.655085 
L 49.626433 145.959434 
L 49.644901 145.852411 
L 49.733676 145.210271 
L 49.790789 145.103248 
L 49.894955 144.086527 
L 49.924253 143.979504 
L 50.032608 143.337365 
L 50.061905 143.230341 
L 50.165472 142.641713 
L 50.206055 142.53469 
L 50.315721 141.946062 
L 50.353711 141.839039 
L 50.4601 141.250411 
L 50.506896 141.143388 
L 50.61109 140.287202 
L 50.630299 140.180179 
L 50.731956 139.431016 
L 50.781004 139.323993 
L 50.889217 138.467807 
L 50.984832 138.360783 
L 51.07301 137.879179 
L 51.167486 137.772156 
L 51.277266 136.969481 
L 51.29941 136.862458 
L 51.397704 136.380853 
L 51.448434 136.27383 
L 51.53909 135.845737 
L 51.641632 135.738714 
L 51.738131 134.721993 
L 51.74879 134.721993 
L 51.791282 134.61497 
L 51.902316 133.865807 
L 51.929505 133.758784 
L 52.035266 132.902598 
L 52.087763 132.795574 
L 52.18201 132.260458 
L 52.245878 132.153435 
L 52.313934 131.832365 
L 52.390057 131.725342 
L 52.500008 131.297249 
L 52.519273 131.190226 
L 52.582485 130.655109 
L 52.692436 130.548086 
L 52.790617 129.745412 
L 52.835247 129.638388 
L 52.89199 129.210295 
L 52.892674 129.210295 
L 52.9898 129.103272 
L 53.097528 128.407621 
L 53.143327 128.300598 
L 53.248376 127.872505 
L 53.248803 127.872505 
L 53.28001 127.765482 
L 53.38409 127.230365 
L 53.453828 127.123342 
L 53.519434 126.802272 
L 53.533769 126.802272 
L 53.608951 126.695249 
L 53.706334 126.213644 
L 53.771683 126.106621 
L 53.864706 125.73204 
L 53.934187 125.625016 
L 54.031656 125.250435 
L 54.069873 125.143412 
L 54.13471 124.822342 
L 54.174238 124.822342 
L 54.195442 124.715319 
L 54.299095 124.394249 
L 54.304538 124.394249 
L 54.344751 124.287226 
L 54.440338 123.75211 
L 54.475307 123.645086 
L 54.568358 123.270505 
L 54.666909 123.163482 
L 54.777972 122.735389 
L 54.885472 122.628365 
L 54.970144 122.146761 
L 55.037659 122.039738 
L 55.147553 121.504621 
L 55.179558 121.397598 
L 55.287343 120.755459 
L 55.329893 120.648435 
L 55.432662 120.059807 
L 55.512175 119.952784 
L 55.554298 119.738738 
L 55.664591 119.631714 
L 55.729598 119.096598 
L 55.771407 119.096598 
L 55.84599 118.989575 
L 55.957081 118.454459 
L 56.030467 118.347435 
L 56.135744 117.865831 
L 56.137568 117.865831 
L 56.190292 117.758808 
L 56.293289 117.544761 
L 56.469046 117.437738 
L 56.579282 117.116668 
L 56.678004 117.009645 
L 56.769487 116.795598 
L 56.782226 116.795598 
L 56.821898 116.688575 
L 56.912811 116.367505 
L 56.920335 116.367505 
L 56.978958 116.260482 
L 57.085205 115.778877 
L 57.135848 115.671854 
L 57.233202 115.136738 
L 57.276351 115.029715 
L 57.373277 114.601622 
L 57.375187 114.601622 
L 57.454586 114.494598 
L 57.539686 114.120017 
L 57.552881 114.120017 
L 57.629089 114.012994 
L 57.727697 113.477877 
L 57.755085 113.370854 
L 57.858681 112.996273 
L 57.968803 112.88925 
L 58.050682 112.407645 
L 58.067981 112.407645 
L 58.142108 112.300622 
L 58.174455 112.193598 
L 58.234646 112.193598 
L 58.308003 112.086575 
L 58.412454 111.765505 
L 58.46743 111.658482 
L 58.552558 111.444436 
L 58.615342 111.337412 
L 58.681005 111.016343 
L 58.696508 111.016343 
L 58.775424 110.909319 
L 58.883237 110.26718 
L 59.008093 110.160157 
L 59.110207 109.839087 
L 59.143181 109.732064 
L 59.243129 109.571529 
L 59.278668 109.464506 
L 59.335381 109.143436 
L 59.352082 109.143436 
L 59.400674 109.036413 
L 59.508744 108.60832 
L 59.586348 108.501296 
L 59.693706 108.126715 
L 59.751189 108.019692 
L 59.86191 107.591599 
L 59.91261 107.484575 
L 59.961259 107.324041 
L 60.015978 107.324041 
L 60.127183 107.217017 
L 60.236877 106.949459 
L 60.302597 106.842436 
L 60.375385 106.521366 
L 60.413688 106.521366 
L 60.569039 106.414343 
L 60.665595 106.039762 
L 60.816699 105.932738 
L 60.881849 105.66518 
L 60.925111 105.66518 
L 60.965866 105.558157 
L 61.061823 105.34411 
L 61.108848 105.237087 
L 61.209764 104.701971 
L 61.343199 104.594948 
L 61.419064 104.434413 
L 61.447307 104.434413 
L 61.660427 104.327389 
L 61.762626 104.059831 
L 61.886428 103.952808 
L 61.984038 103.68525 
L 62.113255 103.578227 
L 62.183677 103.36418 
L 62.277526 103.257157 
L 62.336691 102.829064 
L 62.428431 102.722041 
L 62.506947 102.400971 
L 62.525671 102.400971 
L 62.591761 102.293948 
L 62.62331 102.186924 
L 62.643602 102.186924 
L 62.747312 102.079901 
L 62.838994 101.812343 
L 62.84914 101.812343 
L 62.977331 101.70532 
L 63.034529 101.38425 
L 63.056559 101.38425 
L 63.132112 101.277227 
L 63.21895 101.009669 
L 63.241493 101.009669 
L 63.503089 100.902645 
L 63.596653 100.635087 
L 63.59976 100.635087 
L 63.635327 100.528064 
L 63.727865 100.206994 
L 63.911943 100.099971 
L 63.978632 99.885925 
L 63.984588 99.885925 
L 64.102662 99.778901 
L 64.205459 99.511343 
L 64.213069 99.511343 
L 64.391675 99.40432 
L 64.501113 98.869204 
L 64.533802 98.76218 
L 64.644636 98.441111 
L 64.703374 98.334087 
L 64.804775 98.013018 
L 64.80677 98.013018 
L 64.873915 97.905994 
L 64.923874 97.798971 
L 64.976342 97.798971 
L 65.140556 97.691948 
L 65.229702 97.317367 
L 65.249937 97.317367 
L 65.32224 97.210343 
L 65.431279 96.996297 
L 65.494605 96.889274 
L 65.507914 96.728739 
L 65.584635 96.728739 
L 65.66925 96.621715 
L 65.759878 96.300646 
L 65.826767 96.193622 
L 65.926429 95.604995 
L 65.9268 95.604995 
L 66.018055 95.497971 
L 66.083974 95.230413 
L 66.125185 95.230413 
L 66.270048 95.12339 
L 66.375638 94.962855 
L 66.480488 94.855832 
L 66.585537 94.427739 
L 66.68064 94.320716 
L 66.744165 94.053157 
L 66.768019 94.053157 
L 66.900855 93.946134 
L 67.004308 93.571553 
L 67.170916 93.464529 
L 67.27397 93.196971 
L 67.398827 93.089948 
L 67.48253 92.982925 
L 67.557284 92.875902 
L 67.653128 92.50132 
L 67.664214 92.50132 
L 67.910678 92.394297 
L 68.016895 92.233762 
L 68.09638 92.126739 
L 68.192794 91.805669 
L 68.277238 91.698646 
L 68.382031 91.484599 
L 68.38394 91.484599 
L 68.416743 91.377576 
L 68.465677 91.16353 
L 68.521422 91.16353 
L 68.686206 91.056506 
L 68.775209 90.735437 
L 68.864384 90.628413 
L 68.970545 90.307344 
L 69.050685 90.20032 
L 69.157587 89.986274 
L 69.188424 89.879251 
L 69.289939 89.611692 
L 69.503286 89.504669 
L 69.566384 89.397646 
L 69.576188 89.397646 
L 69.679669 89.290623 
L 69.773005 89.076576 
L 69.863263 88.969553 
L 69.940582 88.809018 
L 69.965006 88.809018 
L 70.191206 88.701995 
L 70.258152 88.487948 
L 70.297082 88.487948 
L 70.370383 88.380925 
L 70.471727 88.059855 
L 70.703969 87.952832 
L 70.791719 87.738786 
L 70.915321 87.631762 
L 70.940543 87.471227 
L 71.011165 87.471227 
L 71.110258 87.364204 
L 71.211887 87.150158 
L 71.219354 87.150158 
L 71.386788 87.043134 
L 71.386788 86.989623 
L 71.478101 86.989623 
L 71.603869 86.8826 
L 71.666739 86.775576 
L 71.71402 86.775576 
L 71.889491 86.668553 
L 71.986532 86.347483 
L 71.997931 86.347483 
L 72.081777 86.24046 
L 72.081777 86.186948 
L 72.255339 86.079925 
L 72.35825 85.91939 
L 72.48419 85.812367 
L 72.535118 85.598321 
L 72.573507 85.598321 
L 72.629423 85.491297 
L 72.723101 85.223739 
L 72.906011 85.116716 
L 72.964862 85.009693 
L 73.014679 85.009693 
L 73.091913 84.902669 
L 73.18485 84.688623 
L 73.202291 84.688623 
L 73.302438 84.5816 
L 73.391756 84.474576 
L 73.500481 84.367553 
L 73.590967 84.153507 
L 73.602509 84.153507 
L 73.699579 84.046483 
L 73.788041 83.778925 
L 73.789267 83.778925 
L 73.93658 83.671902 
L 74.013529 83.564879 
L 74.033479 83.564879 
L 74.141007 83.457856 
L 74.189627 83.297321 
L 74.2175 83.297321 
L 74.635046 83.190297 
L 74.719119 83.029763 
L 74.740693 83.029763 
L 74.847253 82.922739 
L 74.93412 82.708693 
L 75.012835 82.601669 
L 75.123755 82.227088 
L 75.253513 82.120065 
L 75.352777 81.745483 
L 75.41616 81.63846 
L 75.41616 81.584949 
L 75.499435 81.584949 
L 75.708394 81.477925 
L 75.780326 81.370902 
L 75.994956 81.263879 
L 76.083447 80.942809 
L 76.087665 80.942809 
L 76.215827 80.835786 
L 76.299558 80.621739 
L 76.411647 80.514716 
L 76.485603 80.407693 
L 76.793882 80.30067 
L 76.888643 80.086623 
L 77.12459 79.9796 
L 77.214876 79.765553 
L 77.342155 79.65853 
L 77.36923 79.497995 
L 77.430019 79.497995 
L 77.657302 79.390972 
L 77.740378 79.176925 
L 77.746306 79.176925 
L 77.88564 79.069902 
L 77.948453 78.748832 
L 77.964869 78.748832 
L 78.180753 78.641809 
L 78.282752 78.481274 
L 78.353773 78.374251 
L 78.442207 78.106693 
L 78.462527 78.106693 
L 78.717654 77.99967 
L 78.812073 77.785623 
L 78.977285 77.6786 
L 79.024337 77.571577 
L 79.304829 77.464553 
L 79.380837 77.304019 
L 79.39788 77.304019 
L 79.594384 77.196995 
L 79.594384 77.143484 
L 79.608833 77.143484 
L 79.716048 77.03646 
L 79.814001 76.768902 
L 80.031139 76.661879 
L 80.031139 76.608367 
L 80.136102 76.608367 
L 80.36065 76.501344 
L 80.449882 76.180274 
L 80.527372 76.073251 
L 80.613611 75.859205 
L 80.634758 75.859205 
L 80.716694 75.752181 
L 80.782043 75.645158 
L 80.819691 75.645158 
L 80.895072 75.538135 
L 80.895072 75.484623 
L 81.12076 75.3776 
L 81.135009 75.270577 
L 81.216546 75.270577 
L 81.269527 75.163554 
L 81.36842 75.003019 
L 81.38019 75.003019 
L 81.516076 74.895995 
L 81.609811 74.681949 
L 81.735579 74.574926 
L 81.739911 74.467902 
L 81.793347 74.467902 
L 82.07287 74.360879 
L 82.116788 74.253856 
L 82.141554 74.253856 
L 82.705759 74.146833 
L 82.813287 73.986298 
L 83.006001 73.879275 
L 83.006001 73.825763 
L 83.049177 73.825763 
L 83.242489 73.71874 
L 83.325907 73.611716 
L 83.662572 73.504693 
L 83.75377 73.39767 
L 83.970081 73.290647 
L 83.975183 73.183623 
L 84.044522 73.183623 
L 84.163507 73.0766 
L 84.261574 72.969577 
L 84.464234 72.862554 
L 84.478028 72.75553 
L 84.56877 72.75553 
L 84.726401 72.648507 
L 84.798761 72.487972 
L 85.083898 72.380949 
L 85.189745 72.059879 
L 85.394315 71.952856 
L 85.482264 71.792321 
L 85.671273 71.685298 
L 85.760134 71.524763 
L 85.780853 71.524763 
L 85.947775 71.41774 
L 85.947775 71.364228 
L 86.055417 71.364228 
L 86.227269 71.257205 
L 86.320291 71.150182 
L 86.323455 71.150182 
L 86.554557 71.043158 
L 86.554557 70.989647 
L 86.658381 70.989647 
L 86.880477 70.882623 
L 86.954177 70.722089 
L 87.521117 70.615065 
L 87.628845 70.508042 
L 87.729876 70.401019 
L 87.821673 70.240484 
L 87.992299 70.133461 
L 88.039836 69.972926 
L 88.26085 69.865903 
L 88.26085 69.812391 
L 88.532507 69.705368 
L 88.641974 69.491321 
L 88.826194 69.384298 
L 88.921468 69.277275 
L 89.132621 69.170251 
L 89.183293 69.063228 
L 89.185544 69.063228 
L 89.469342 68.956205 
L 89.535062 68.849182 
L 89.559999 68.849182 
L 89.857306 68.742158 
L 89.857306 68.688647 
L 89.895666 68.688647 
L 90.27793 68.581624 
L 90.378533 68.367577 
L 90.567285 68.260554 
L 90.647197 68.046507 
L 90.850256 67.939484 
L 90.850256 67.885972 
L 90.912585 67.885972 
L 91.162867 67.778949 
L 91.16871 67.671926 
L 91.713021 67.564903 
L 91.813425 67.350856 
L 92.183206 67.243833 
L 92.183206 67.190321 
L 92.266253 67.190321 
L 92.509382 67.083298 
L 92.509382 67.029786 
L 92.601949 67.029786 
L 92.86289 66.922763 
L 92.888112 66.81574 
L 93.368955 66.708717 
L 93.368955 66.655205 
L 93.768433 66.548182 
L 93.826344 66.441159 
L 93.831958 66.441159 
L 94.134081 66.334135 
L 94.185922 66.227112 
L 94.24161 66.227112 
L 94.49745 66.120089 
L 94.554648 66.013066 
L 94.59221 66.013066 
L 94.968632 65.906042 
L 95.040536 65.799019 
L 95.076502 65.799019 
L 95.394613 65.691996 
L 95.394613 65.638484 
L 95.499321 65.638484 
L 96.27274 65.531461 
L 96.347038 65.370926 
L 96.689459 65.263903 
L 96.689459 65.210391 
L 96.735771 65.210391 
L 96.980011 65.103368 
L 97.080871 64.942833 
L 97.504943 64.83581 
L 97.506539 64.728787 
L 97.540112 64.728787 
L 97.76446 64.621763 
L 97.76446 64.568252 
L 98.21079 64.461228 
L 98.247298 64.354205 
L 98.552214 64.247182 
L 98.552214 64.19367 
L 98.660484 64.19367 
L 98.746951 64.086647 
L 98.806999 63.979624 
L 98.814609 63.979624 
L 99.26359 63.872601 
L 99.26359 63.819089 
L 99.36975 63.819089 
L 99.580504 63.712066 
L 99.675464 63.551531 
L 99.975136 63.444508 
L 99.975136 63.390996 
L 100.084289 63.390996 
L 100.310005 63.283973 
L 100.352812 63.123438 
L 100.708713 63.016415 
L 100.708713 62.962903 
L 100.814019 62.962903 
L 101.060625 62.85588 
L 101.160487 62.748856 
L 101.269498 62.641833 
L 101.325784 62.53481 
L 101.845358 62.427787 
L 101.953827 62.267252 
L 102.422416 62.160229 
L 102.499051 61.999694 
L 102.603701 61.89267 
L 102.708351 61.571601 
L 103.195635 61.464577 
L 103.284098 61.304042 
L 103.288287 61.304042 
L 103.49545 61.197019 
L 103.49545 61.143508 
L 103.86771 61.036484 
L 103.86771 60.982973 
L 103.88538 60.982973 
L 104.75222 60.875949 
L 104.818881 60.715415 
L 105.131378 60.608391 
L 105.23389 60.447856 
L 105.435182 60.340833 
L 105.436778 60.287322 
L 105.522191 60.287322 
L 105.679822 60.180298 
L 105.679822 60.126787 
L 106.157929 60.019763 
L 106.157929 59.966252 
L 106.20672 59.966252 
L 106.373357 59.859229 
L 106.482339 59.645182 
L 106.898517 59.538159 
L 106.987207 59.377624 
L 107.368701 59.270601 
L 107.368701 59.217089 
L 107.843588 59.110066 
L 107.876363 59.003043 
L 108.165319 58.896019 
L 108.263414 58.735484 
L 108.985677 58.628461 
L 108.985677 58.57495 
L 109.636006 58.467926 
L 109.636006 58.414415 
L 110.425414 58.307391 
L 110.446817 58.200368 
L 110.488683 58.200368 
L 110.803003 58.093345 
L 110.803003 58.039833 
L 110.890554 58.039833 
L 111.445581 57.93281 
L 111.445581 57.879298 
L 111.464761 57.879298 
L 112.311054 57.772275 
L 112.311054 57.718764 
L 112.410118 57.718764 
L 113.327659 57.61174 
L 113.41615 57.504717 
L 113.862195 57.397694 
L 113.922928 57.290671 
L 113.957469 57.290671 
L 114.210146 57.183647 
L 114.210146 57.130136 
L 114.277347 57.130136 
L 114.701135 57.023112 
L 114.786804 56.916089 
L 114.877974 56.809066 
L 114.981627 56.702043 
L 115.181522 56.595019 
L 115.229743 56.487996 
L 115.457397 56.380973 
L 115.458765 56.27395 
L 116.200151 56.166926 
L 116.234664 56.059903 
L 117.144339 55.95288 
L 117.144339 55.899368 
L 117.244828 55.899368 
L 117.712134 55.792345 
L 117.760355 55.685322 
L 118.207655 55.578299 
L 118.207655 55.524787 
L 118.530525 55.417764 
L 118.605023 55.203717 
L 118.984551 55.096694 
L 119.095357 54.989671 
L 119.820241 54.882647 
L 119.820241 54.829136 
L 119.841929 54.829136 
L 120.804157 54.722113 
L 120.804157 54.668601 
L 121.806513 54.561578 
L 121.810161 54.454554 
L 122.267948 54.347531 
L 122.348715 54.186996 
L 122.94065 54.079973 
L 123.03219 53.97295 
L 123.333487 53.865927 
L 123.333487 53.812415 
L 123.443381 53.812415 
L 123.626404 53.705392 
L 123.640569 53.598368 
L 123.958081 53.491345 
L 123.958081 53.437834 
L 124.048539 53.437834 
L 124.408031 53.33081 
L 124.408031 53.277299 
L 124.728708 53.170275 
L 124.832731 53.063252 
L 125.066198 52.956229 
L 125.169367 52.849206 
L 125.43464 52.742182 
L 125.481436 52.635159 
L 125.748904 52.528136 
L 125.748904 52.474624 
L 125.832949 52.474624 
L 125.99018 52.367601 
L 126.095714 52.260578 
L 126.887515 52.153555 
L 126.887515 52.100043 
L 126.99587 52.100043 
L 127.409911 51.99302 
L 127.410965 51.885996 
L 127.518807 51.885996 
L 128.354127 51.778973 
L 128.433584 51.67195 
L 128.746651 51.564927 
L 128.746651 51.511415 
L 128.83936 51.511415 
L 129.075677 51.404392 
L 129.153766 51.190345 
L 129.184175 51.190345 
L 129.495646 51.083322 
L 129.495646 51.02981 
L 129.540247 51.02981 
L 129.939896 50.922787 
L 130.030154 50.815764 
L 130.030895 50.815764 
L 130.51188 50.708741 
L 130.51188 50.655229 
L 131.018402 50.548206 
L 131.018402 50.494694 
L 131.05699 50.494694 
L 131.393826 50.387671 
L 131.418421 50.334159 
L 131.418535 50.334159 
L 131.901002 50.227136 
L 131.901002 50.173624 
L 132.007505 50.173624 
L 132.059175 50.066601 
L 132.059175 50.013089 
L 132.121075 50.013089 
L 132.518529 49.906066 
L 132.518529 49.852555 
L 133.177152 49.745531 
L 133.177152 49.69202 
L 133.997767 49.584996 
L 134.055336 49.424462 
L 134.291254 49.317438 
L 134.291254 49.263927 
L 134.922575 49.156903 
L 134.922575 49.103392 
L 135.005736 49.103392 
L 135.684594 48.996369 
L 135.684594 48.942857 
L 136.48771 48.835834 
L 136.48771 48.782322 
L 136.521026 48.782322 
L 137.274894 48.675299 
L 137.274894 48.621787 
L 137.357315 48.621787 
L 137.708571 48.514764 
L 137.708571 48.461252 
L 138.564866 48.354229 
L 138.649225 48.247206 
L 139.964932 48.140183 
L 139.964932 48.086671 
L 141.46734 47.979648 
L 141.522885 47.872624 
L 141.834641 47.765601 
L 141.834641 47.71209 
L 142.589877 47.605066 
L 142.632342 47.498043 
L 143.332431 47.39102 
L 143.332431 47.337508 
L 143.84585 47.230485 
L 143.84585 47.176973 
L 144.42342 47.06995 
L 144.532203 46.909415 
L 144.820361 46.802392 
L 144.820361 46.74888 
L 144.908824 46.74888 
L 145.916423 46.641857 
L 145.988014 46.534834 
L 146.559941 46.427811 
L 146.559941 46.374299 
L 146.632216 46.374299 
L 147.048109 46.267276 
L 147.048109 46.213764 
L 147.130102 46.213764 
L 147.67467 46.106741 
L 147.67467 46.053229 
L 148.523641 45.946206 
L 148.564339 45.839183 
L 149.623722 45.732159 
L 149.723983 45.571625 
L 150.645542 45.464601 
L 150.721636 45.304066 
L 151.555474 45.197043 
L 151.650862 45.036508 
L 152.282638 44.929485 
L 152.317009 44.822462 
L 153.109494 44.715439 
L 153.109494 44.661927 
L 153.214058 44.661927 
L 154.094978 44.554904 
L 154.094978 44.501392 
L 154.134449 44.501392 
L 154.722707 44.394369 
L 154.755083 44.287346 
L 155.505731 44.180322 
L 155.605336 44.073299 
L 156.295651 43.966276 
L 156.36271 43.859253 
L 156.999845 43.752229 
L 156.999845 43.698718 
L 157.476755 43.591694 
L 157.572969 43.43116 
L 158.405582 43.324136 
L 158.405582 43.270625 
L 160.128461 43.163601 
L 160.194552 43.056578 
L 160.549057 42.949555 
L 160.573595 42.842532 
L 161.369757 42.735508 
L 161.369757 42.681997 
L 162.328422 42.574974 
L 162.342558 42.46795 
L 162.830669 42.360927 
L 162.830669 42.307415 
L 162.933865 42.307415 
L 163.537114 42.200392 
L 163.640596 42.039857 
L 164.028616 41.932834 
L 164.028616 41.879322 
L 164.112291 41.879322 
L 165.110229 41.772299 
L 165.181563 41.611764 
L 166.009102 41.504741 
L 166.009102 41.451229 
L 166.294439 41.344206 
L 166.330634 41.237183 
L 167.243529 41.13016 
L 167.243529 41.076648 
L 167.87656 40.969625 
L 167.87656 40.916113 
L 169.164908 40.80909 
L 169.164908 40.755578 
L 169.917693 40.648555 
L 170.022201 40.541532 
L 170.541974 40.434509 
L 170.5772 40.327485 
L 171.045446 40.220462 
L 171.124219 40.113439 
L 172.13729 40.006415 
L 172.219597 39.845881 
L 173.135342 39.738857 
L 173.135342 39.685346 
L 174.34429 39.578322 
L 174.4368 39.471299 
L 175.200386 39.364276 
L 175.310879 39.203741 
L 175.902414 39.096718 
L 175.902414 39.043206 
L 177.724928 38.936183 
L 177.724928 38.882671 
L 178.167952 38.775648 
L 178.211585 38.615113 
L 179.749987 38.50809 
L 179.81357 38.401067 
L 181.432027 38.294043 
L 181.492874 38.133509 
L 182.175607 38.026485 
L 182.251416 37.919462 
L 183.046865 37.812439 
L 183.046865 37.758927 
L 183.14744 37.758927 
L 183.439132 37.651904 
L 183.439132 37.598392 
L 184.153928 37.491369 
L 184.205911 37.384346 
L 184.927774 37.277323 
L 184.927774 37.223811 
L 184.953395 37.223811 
L 185.539801 37.116788 
L 185.539801 37.063276 
L 185.560719 37.063276 
L 188.525777 36.956253 
L 188.525777 36.902741 
L 190.52989 36.795718 
L 190.5428 36.688695 
L 191.342866 36.581671 
L 191.342866 36.52816 
L 191.718347 36.421137 
L 191.742258 36.314113 
L 192.444428 36.20709 
L 192.446138 36.100067 
L 193.804253 35.993044 
L 193.804253 35.939532 
L 194.592777 35.832509 
L 194.592777 35.778997 
L 195.502879 35.671974 
L 195.603083 35.564951 
L 196.678027 35.457927 
L 196.678027 35.404416 
L 197.367287 35.297392 
L 197.367287 35.243881 
L 198.884372 35.136858 
L 198.884372 35.083346 
L 200.086794 34.976323 
L 200.086794 34.922811 
L 203.519414 34.815788 
L 203.519414 34.762276 
L 205.53789 34.655253 
L 205.53789 34.601741 
L 205.984449 34.494718 
L 205.984449 34.441206 
L 208.705722 34.334183 
L 208.705722 34.280672 
L 210.437693 34.173648 
L 210.466991 34.066625 
L 211.204215 33.959602 
L 211.289714 33.852579 
L 214.091897 33.745555 
L 214.091897 33.692044 
L 215.303667 33.58502 
L 215.303667 33.531509 
L 216.552942 33.424486 
L 216.552942 33.370974 
L 218.978733 33.263951 
L 218.978733 33.210439 
L 220.48228 33.103416 
L 220.48228 33.049904 
L 222.431531 32.942881 
L 222.483343 32.835858 
L 223.716573 32.728834 
L 223.716573 32.675323 
L 225.028946 32.5683 
L 225.120657 32.407765 
L 226.772288 32.300741 
L 226.78916 32.193718 
L 228.398754 32.086695 
L 228.481659 31.979672 
L 230.586317 31.872648 
L 230.586317 31.819137 
L 231.295726 31.712114 
L 231.295726 31.658602 
L 233.012194 31.551579 
L 233.066742 31.444555 
L 234.428561 31.337532 
L 234.428561 31.284021 
L 234.534893 31.284021 
L 235.773281 31.176997 
L 235.773281 31.123486 
L 236.724138 31.016462 
L 236.724138 30.962951 
L 237.852432 30.855928 
L 237.925448 30.748904 
L 239.746252 30.641881 
L 239.746252 30.588369 
L 240.678612 30.481346 
L 240.678612 30.427835 
L 241.230819 30.320811 
L 241.230819 30.2673 
L 241.293033 30.2673 
L 242.871619 30.160276 
L 242.871619 30.106765 
L 244.483009 29.999742 
L 244.483009 29.94623 
L 246.196142 29.839207 
L 246.236297 29.732183 
L 247.676889 29.62516 
L 247.676889 29.571649 
L 248.294644 29.464625 
L 248.294644 29.411114 
L 251.239838 29.30409 
L 251.239838 29.250579 
L 252.739624 29.143555 
L 252.739624 29.090044 
L 253.965501 28.983021 
L 253.965501 28.929509 
L 255.253164 28.822486 
L 255.253164 28.768974 
L 257.053192 28.661951 
L 257.053192 28.608439 
L 259.579073 28.501416 
L 259.579073 28.447904 
L 259.656991 28.447904 
L 261.589598 28.340881 
L 261.589598 28.287369 
L 263.749118 28.180346 
L 263.749118 28.126835 
L 265.897723 28.019811 
L 265.897723 27.9663 
L 268.316018 27.859276 
L 268.316018 27.805765 
L 268.388492 27.805765 
L 270.042631 27.698742 
L 270.042631 27.64523 
L 273.824484 27.538207 
L 273.824484 27.484695 
L 275.660222 27.377672 
L 275.660222 27.32416 
L 275.729447 27.32416 
L 277.698534 27.217137 
L 277.786113 27.110114 
L 280.244393 27.00309 
L 280.244393 26.949579 
L 280.302104 26.949579 
L 281.399106 26.842556 
L 281.399106 26.789044 
L 281.427976 26.789044 
L 282.023758 26.789044 
L 282.023758 26.789044 
" clip-path="url(#p51791724ab)" style="fill: none; stroke: #1f77b4; stroke-width: 1.5; stroke-linecap: round"/>
   </g>
   <g id="patch_3">
    <path d="M 35.655938 265.022801 
L 35.655938 19.642031 
" style="fill: none"/>
   </g>
   <g id="patch_4">
    <path d="M 289.19952 265.022801 
L 289.19952 19.642031 
" style="fill: none"/>
   </g>
   <g id="patch_5">
    <path d="M 35.655938 265.022801 
L 289.19952 265.022801 
" style="fill: none"/>
   </g>
   <g id="patch_6">
    <path d="M 35.655938 19.642031 
L 289.19952 19.642031 
" style="fill: none"/>
   </g>
   <g id="text_15">
    <!-- Model 2: Precision-Recall Curve -->
    <g style="fill: #333333" transform="translate(93.910307 13.642031) scale(0.09 -0.09)">
     <defs>
      <path id="Arial-BoldMT-4d" d="M 453 0 
L 453 4581 
L 1838 4581 
L 2669 1456 
L 3491 4581 
L 4878 4581 
L 4878 0 
L 4019 0 
L 4019 3606 
L 3109 0 
L 2219 0 
L 1313 3606 
L 1313 0 
L 453 0 
z
" transform="scale(0.015625)"/>
      <path id="Arial-BoldMT-64" d="M 3503 0 
L 2688 0 
L 2688 488 
Q 2484 203 2207 64 
Q 1931 -75 1650 -75 
Q 1078 -75 670 386 
Q 263 847 263 1672 
Q 263 2516 659 2955 
Q 1056 3394 1663 3394 
Q 2219 3394 2625 2931 
L 2625 4581 
L 3503 4581 
L 3503 0 
z
M 1159 1731 
Q 1159 1200 1306 963 
Q 1519 619 1900 619 
Q 2203 619 2415 876 
Q 2628 1134 2628 1647 
Q 2628 2219 2422 2470 
Q 2216 2722 1894 2722 
Q 1581 2722 1370 2473 
Q 1159 2225 1159 1731 
z
" transform="scale(0.015625)"/>
      <path id="Arial-BoldMT-32" d="M 3238 816 
L 3238 0 
L 159 0 
Q 209 463 459 877 
Q 709 1291 1447 1975 
Q 2041 2528 2175 2725 
Q 2356 2997 2356 3263 
Q 2356 3556 2198 3714 
Q 2041 3872 1763 3872 
Q 1488 3872 1325 3706 
Q 1163 3541 1138 3156 
L 263 3244 
Q 341 3969 753 4284 
Q 1166 4600 1784 4600 
Q 2463 4600 2850 4234 
Q 3238 3869 3238 3325 
Q 3238 3016 3127 2736 
Q 3016 2456 2775 2150 
Q 2616 1947 2200 1565 
Q 1784 1184 1673 1059 
Q 1563 934 1494 816 
L 3238 816 
z
" transform="scale(0.015625)"/>
      <path id="Arial-BoldMT-3a" d="M 628 2441 
L 628 3319 
L 1506 3319 
L 1506 2441 
L 628 2441 
z
M 628 0 
L 628 878 
L 1506 878 
L 1506 0 
L 628 0 
z
" transform="scale(0.015625)"/>
      <path id="Arial-BoldMT-2d" d="M 359 1222 
L 359 2100 
L 2084 2100 
L 2084 1222 
L 359 1222 
z
" transform="scale(0.015625)"/>
      <path id="Arial-BoldMT-43" d="M 3397 1684 
L 4294 1400 
Q 4088 650 3608 286 
Q 3128 -78 2391 -78 
Q 1478 -78 890 545 
Q 303 1169 303 2250 
Q 303 3394 893 4026 
Q 1484 4659 2447 4659 
Q 3288 4659 3813 4163 
Q 4125 3869 4281 3319 
L 3366 3100 
Q 3284 3456 3026 3662 
Q 2769 3869 2400 3869 
Q 1891 3869 1573 3503 
Q 1256 3138 1256 2319 
Q 1256 1450 1568 1081 
Q 1881 713 2381 713 
Q 2750 713 3015 947 
Q 3281 1181 3397 1684 
z
" transform="scale(0.015625)"/>
      <path id="Arial-BoldMT-75" d="M 2644 0 
L 2644 497 
Q 2463 231 2167 78 
Q 1872 -75 1544 -75 
Q 1209 -75 943 72 
Q 678 219 559 484 
Q 441 750 441 1219 
L 441 3319 
L 1319 3319 
L 1319 1794 
Q 1319 1094 1367 936 
Q 1416 778 1544 686 
Q 1672 594 1869 594 
Q 2094 594 2272 717 
Q 2450 841 2515 1023 
Q 2581 1206 2581 1919 
L 2581 3319 
L 3459 3319 
L 3459 0 
L 2644 0 
z
" transform="scale(0.015625)"/>
      <path id="Arial-BoldMT-76" d="M 1372 0 
L 34 3319 
L 956 3319 
L 1581 1625 
L 1763 1059 
Q 1834 1275 1853 1344 
Q 1897 1484 1947 1625 
L 2578 3319 
L 3481 3319 
L 2163 0 
L 1372 0 
z
" transform="scale(0.015625)"/>
     </defs>
     <use xlink:href="#Arial-BoldMT-4d"/>
     <use xlink:href="#Arial-BoldMT-6f" transform="translate(83.300781 0)"/>
     <use xlink:href="#Arial-BoldMT-64" transform="translate(144.384766 0)"/>
     <use xlink:href="#Arial-BoldMT-65" transform="translate(205.46875 0)"/>
     <use xlink:href="#Arial-BoldMT-6c" transform="translate(261.083984 0)"/>
     <use xlink:href="#Arial-BoldMT-20" transform="translate(288.867188 0)"/>
     <use xlink:href="#Arial-BoldMT-32" transform="translate(316.650391 0)"/>
     <use xlink:href="#Arial-BoldMT-3a" transform="translate(372.265625 0)"/>
     <use xlink:href="#Arial-BoldMT-20" transform="translate(405.566406 0)"/>
     <use xlink:href="#Arial-BoldMT-50" transform="translate(433.349609 0)"/>
     <use xlink:href="#Arial-BoldMT-72" transform="translate(500.048828 0)"/>
     <use xlink:href="#Arial-BoldMT-65" transform="translate(538.964844 0)"/>
     <use xlink:href="#Arial-BoldMT-63" transform="translate(594.580078 0)"/>
     <use xlink:href="#Arial-BoldMT-69" transform="translate(650.195312 0)"/>
     <use xlink:href="#Arial-BoldMT-73" transform="translate(677.978516 0)"/>
     <use xlink:href="#Arial-BoldMT-69" transform="translate(733.59375 0)"/>
     <use xlink:href="#Arial-BoldMT-6f" transform="translate(761.376953 0)"/>
     <use xlink:href="#Arial-BoldMT-6e" transform="translate(822.460938 0)"/>
     <use xlink:href="#Arial-BoldMT-2d" transform="translate(883.544922 0)"/>
     <use xlink:href="#Arial-BoldMT-52" transform="translate(916.845703 0)"/>
     <use xlink:href="#Arial-BoldMT-65" transform="translate(989.0625 0)"/>
     <use xlink:href="#Arial-BoldMT-63" transform="translate(1044.677734 0)"/>
     <use xlink:href="#Arial-BoldMT-61" transform="translate(1100.292969 0)"/>
     <use xlink:href="#Arial-BoldMT-6c" transform="translate(1155.908203 0)"/>
     <use xlink:href="#Arial-BoldMT-6c" transform="translate(1183.691406 0)"/>
     <use xlink:href="#Arial-BoldMT-20" transform="translate(1211.474609 0)"/>
     <use xlink:href="#Arial-BoldMT-43" transform="translate(1239.257812 0)"/>
     <use xlink:href="#Arial-BoldMT-75" transform="translate(1311.474609 0)"/>
     <use xlink:href="#Arial-BoldMT-72" transform="translate(1372.558594 0)"/>
     <use xlink:href="#Arial-BoldMT-76" transform="translate(1411.474609 0)"/>
     <use xlink:href="#Arial-BoldMT-65" transform="translate(1467.089844 0)"/>
    </g>
   </g>
   <g id="legend_1">
    <g id="patch_7">
     <path d="M 164.573426 260.522801 
L 282.89952 260.522801 
Q 284.69952 260.522801 284.69952 258.722801 
L 284.69952 246.89202 
Q 284.69952 245.09202 282.89952 245.09202 
L 164.573426 245.09202 
Q 162.773426 245.09202 162.773426 246.89202 
L 162.773426 258.722801 
Q 162.773426 260.522801 164.573426 260.522801 
z
" style="fill: #ffffff; opacity: 0.8; stroke: #cccccc; stroke-width: 0.75; stroke-linejoin: miter"/>
    </g>
    <g id="line2d_26">
     <path d="M 166.373426 251.984051 
L 175.373426 251.984051 
L 184.373426 251.984051 
" style="fill: none; stroke: #1f77b4; stroke-width: 1.5; stroke-linecap: round"/>
    </g>
    <g id="text_16">
     <!-- Precision-Recall curve -->
     <g style="fill: #333333" transform="translate(191.573426 255.134051) scale(0.09 -0.09)">
      <defs>
       <path id="ArialMT-50" d="M 494 0 
L 494 4581 
L 2222 4581 
Q 2678 4581 2919 4538 
Q 3256 4481 3484 4323 
Q 3713 4166 3852 3881 
Q 3991 3597 3991 3256 
Q 3991 2672 3619 2267 
Q 3247 1863 2275 1863 
L 1100 1863 
L 1100 0 
L 494 0 
z
M 1100 2403 
L 2284 2403 
Q 2872 2403 3119 2622 
Q 3366 2841 3366 3238 
Q 3366 3525 3220 3729 
Q 3075 3934 2838 4000 
Q 2684 4041 2272 4041 
L 1100 4041 
L 1100 2403 
z
" transform="scale(0.015625)"/>
       <path id="ArialMT-72" d="M 416 0 
L 416 3319 
L 922 3319 
L 922 2816 
Q 1116 3169 1280 3281 
Q 1444 3394 1641 3394 
Q 1925 3394 2219 3213 
L 2025 2691 
Q 1819 2813 1613 2813 
Q 1428 2813 1281 2702 
Q 1134 2591 1072 2394 
Q 978 2094 978 1738 
L 978 0 
L 416 0 
z
" transform="scale(0.015625)"/>
       <path id="ArialMT-65" d="M 2694 1069 
L 3275 997 
Q 3138 488 2766 206 
Q 2394 -75 1816 -75 
Q 1088 -75 661 373 
Q 234 822 234 1631 
Q 234 2469 665 2931 
Q 1097 3394 1784 3394 
Q 2450 3394 2872 2941 
Q 3294 2488 3294 1666 
Q 3294 1616 3291 1516 
L 816 1516 
Q 847 969 1125 678 
Q 1403 388 1819 388 
Q 2128 388 2347 550 
Q 2566 713 2694 1069 
z
M 847 1978 
L 2700 1978 
Q 2663 2397 2488 2606 
Q 2219 2931 1791 2931 
Q 1403 2931 1139 2672 
Q 875 2413 847 1978 
z
" transform="scale(0.015625)"/>
       <path id="ArialMT-63" d="M 2588 1216 
L 3141 1144 
Q 3050 572 2676 248 
Q 2303 -75 1759 -75 
Q 1078 -75 664 370 
Q 250 816 250 1647 
Q 250 2184 428 2587 
Q 606 2991 970 3192 
Q 1334 3394 1763 3394 
Q 2303 3394 2647 3120 
Q 2991 2847 3088 2344 
L 2541 2259 
Q 2463 2594 2264 2762 
Q 2066 2931 1784 2931 
Q 1359 2931 1093 2626 
Q 828 2322 828 1663 
Q 828 994 1084 691 
Q 1341 388 1753 388 
Q 2084 388 2306 591 
Q 2528 794 2588 1216 
z
" transform="scale(0.015625)"/>
       <path id="ArialMT-69" d="M 425 3934 
L 425 4581 
L 988 4581 
L 988 3934 
L 425 3934 
z
M 425 0 
L 425 3319 
L 988 3319 
L 988 0 
L 425 0 
z
" transform="scale(0.015625)"/>
       <path id="ArialMT-73" d="M 197 991 
L 753 1078 
Q 800 744 1014 566 
Q 1228 388 1613 388 
Q 2000 388 2187 545 
Q 2375 703 2375 916 
Q 2375 1106 2209 1216 
Q 2094 1291 1634 1406 
Q 1016 1563 777 1677 
Q 538 1791 414 1992 
Q 291 2194 291 2438 
Q 291 2659 392 2848 
Q 494 3038 669 3163 
Q 800 3259 1026 3326 
Q 1253 3394 1513 3394 
Q 1903 3394 2198 3281 
Q 2494 3169 2634 2976 
Q 2775 2784 2828 2463 
L 2278 2388 
Q 2241 2644 2061 2787 
Q 1881 2931 1553 2931 
Q 1166 2931 1000 2803 
Q 834 2675 834 2503 
Q 834 2394 903 2306 
Q 972 2216 1119 2156 
Q 1203 2125 1616 2013 
Q 2213 1853 2448 1751 
Q 2684 1650 2818 1456 
Q 2953 1263 2953 975 
Q 2953 694 2789 445 
Q 2625 197 2315 61 
Q 2006 -75 1616 -75 
Q 969 -75 630 194 
Q 291 463 197 991 
z
" transform="scale(0.015625)"/>
       <path id="ArialMT-6f" d="M 213 1659 
Q 213 2581 725 3025 
Q 1153 3394 1769 3394 
Q 2453 3394 2887 2945 
Q 3322 2497 3322 1706 
Q 3322 1066 3130 698 
Q 2938 331 2570 128 
Q 2203 -75 1769 -75 
Q 1072 -75 642 372 
Q 213 819 213 1659 
z
M 791 1659 
Q 791 1022 1069 705 
Q 1347 388 1769 388 
Q 2188 388 2466 706 
Q 2744 1025 2744 1678 
Q 2744 2294 2464 2611 
Q 2184 2928 1769 2928 
Q 1347 2928 1069 2612 
Q 791 2297 791 1659 
z
" transform="scale(0.015625)"/>
       <path id="ArialMT-6e" d="M 422 0 
L 422 3319 
L 928 3319 
L 928 2847 
Q 1294 3394 1984 3394 
Q 2284 3394 2536 3286 
Q 2788 3178 2913 3003 
Q 3038 2828 3088 2588 
Q 3119 2431 3119 2041 
L 3119 0 
L 2556 0 
L 2556 2019 
Q 2556 2363 2490 2533 
Q 2425 2703 2258 2804 
Q 2091 2906 1866 2906 
Q 1506 2906 1245 2678 
Q 984 2450 984 1813 
L 984 0 
L 422 0 
z
" transform="scale(0.015625)"/>
       <path id="ArialMT-2d" d="M 203 1375 
L 203 1941 
L 1931 1941 
L 1931 1375 
L 203 1375 
z
" transform="scale(0.015625)"/>
       <path id="ArialMT-52" d="M 503 0 
L 503 4581 
L 2534 4581 
Q 3147 4581 3465 4457 
Q 3784 4334 3975 4021 
Q 4166 3709 4166 3331 
Q 4166 2844 3850 2509 
Q 3534 2175 2875 2084 
Q 3116 1969 3241 1856 
Q 3506 1613 3744 1247 
L 4541 0 
L 3778 0 
L 3172 953 
Q 2906 1366 2734 1584 
Q 2563 1803 2427 1890 
Q 2291 1978 2150 2013 
Q 2047 2034 1813 2034 
L 1109 2034 
L 1109 0 
L 503 0 
z
M 1109 2559 
L 2413 2559 
Q 2828 2559 3062 2645 
Q 3297 2731 3419 2920 
Q 3541 3109 3541 3331 
Q 3541 3656 3305 3865 
Q 3069 4075 2559 4075 
L 1109 4075 
L 1109 2559 
z
" transform="scale(0.015625)"/>
       <path id="ArialMT-61" d="M 2588 409 
Q 2275 144 1986 34 
Q 1697 -75 1366 -75 
Q 819 -75 525 192 
Q 231 459 231 875 
Q 231 1119 342 1320 
Q 453 1522 633 1644 
Q 813 1766 1038 1828 
Q 1203 1872 1538 1913 
Q 2219 1994 2541 2106 
Q 2544 2222 2544 2253 
Q 2544 2597 2384 2738 
Q 2169 2928 1744 2928 
Q 1347 2928 1158 2789 
Q 969 2650 878 2297 
L 328 2372 
Q 403 2725 575 2942 
Q 747 3159 1072 3276 
Q 1397 3394 1825 3394 
Q 2250 3394 2515 3294 
Q 2781 3194 2906 3042 
Q 3031 2891 3081 2659 
Q 3109 2516 3109 2141 
L 3109 1391 
Q 3109 606 3145 398 
Q 3181 191 3288 0 
L 2700 0 
Q 2613 175 2588 409 
z
M 2541 1666 
Q 2234 1541 1622 1453 
Q 1275 1403 1131 1340 
Q 988 1278 909 1158 
Q 831 1038 831 891 
Q 831 666 1001 516 
Q 1172 366 1500 366 
Q 1825 366 2078 508 
Q 2331 650 2450 897 
Q 2541 1088 2541 1459 
L 2541 1666 
z
" transform="scale(0.015625)"/>
       <path id="ArialMT-6c" d="M 409 0 
L 409 4581 
L 972 4581 
L 972 0 
L 409 0 
z
" transform="scale(0.015625)"/>
       <path id="ArialMT-20" transform="scale(0.015625)"/>
       <path id="ArialMT-75" d="M 2597 0 
L 2597 488 
Q 2209 -75 1544 -75 
Q 1250 -75 995 37 
Q 741 150 617 320 
Q 494 491 444 738 
Q 409 903 409 1263 
L 409 3319 
L 972 3319 
L 972 1478 
Q 972 1038 1006 884 
Q 1059 663 1231 536 
Q 1403 409 1656 409 
Q 1909 409 2131 539 
Q 2353 669 2445 892 
Q 2538 1116 2538 1541 
L 2538 3319 
L 3100 3319 
L 3100 0 
L 2597 0 
z
" transform="scale(0.015625)"/>
       <path id="ArialMT-76" d="M 1344 0 
L 81 3319 
L 675 3319 
L 1388 1331 
Q 1503 1009 1600 663 
Q 1675 925 1809 1294 
L 2547 3319 
L 3125 3319 
L 1869 0 
L 1344 0 
z
" transform="scale(0.015625)"/>
      </defs>
      <use xlink:href="#ArialMT-50"/>
      <use xlink:href="#ArialMT-72" transform="translate(66.699219 0)"/>
      <use xlink:href="#ArialMT-65" transform="translate(100 0)"/>
      <use xlink:href="#ArialMT-63" transform="translate(155.615234 0)"/>
      <use xlink:href="#ArialMT-69" transform="translate(205.615234 0)"/>
      <use xlink:href="#ArialMT-73" transform="translate(227.832031 0)"/>
      <use xlink:href="#ArialMT-69" transform="translate(277.832031 0)"/>
      <use xlink:href="#ArialMT-6f" transform="translate(300.048828 0)"/>
      <use xlink:href="#ArialMT-6e" transform="translate(355.664062 0)"/>
      <use xlink:href="#ArialMT-2d" transform="translate(411.279297 0)"/>
      <use xlink:href="#ArialMT-52" transform="translate(444.580078 0)"/>
      <use xlink:href="#ArialMT-65" transform="translate(516.796875 0)"/>
      <use xlink:href="#ArialMT-63" transform="translate(572.412109 0)"/>
      <use xlink:href="#ArialMT-61" transform="translate(622.412109 0)"/>
      <use xlink:href="#ArialMT-6c" transform="translate(678.027344 0)"/>
      <use xlink:href="#ArialMT-6c" transform="translate(700.244141 0)"/>
      <use xlink:href="#ArialMT-20" transform="translate(722.460938 0)"/>
      <use xlink:href="#ArialMT-63" transform="translate(750.244141 0)"/>
      <use xlink:href="#ArialMT-75" transform="translate(800.244141 0)"/>
      <use xlink:href="#ArialMT-72" transform="translate(855.859375 0)"/>
      <use xlink:href="#ArialMT-76" transform="translate(889.160156 0)"/>
      <use xlink:href="#ArialMT-65" transform="translate(939.160156 0)"/>
     </g>
    </g>
   </g>
  </g>
 </g>
 <defs>
  <clipPath id="p51791724ab">
   <rect x="35.655938" y="19.642031" width="253.543583" height="245.38077"/>
  </clipPath>
 </defs>
</svg>
