<?xml version="1.0" encoding="utf-8" standalone="no"?>
<!DOCTYPE svg PUBLIC "-//W3C//DTD SVG 1.1//EN"
  "http://www.w3.org/Graphics/SVG/1.1/DTD/svg11.dtd">
<svg xmlns:xlink="http://www.w3.org/1999/xlink" width="296.39952pt" height="296.39952pt" viewBox="0 0 296.39952 296.39952" xmlns="http://www.w3.org/2000/svg" version="1.1">
 <metadata>
  <rdf:RDF xmlns:dc="http://purl.org/dc/elements/1.1/" xmlns:cc="http://creativecommons.org/ns#" xmlns:rdf="http://www.w3.org/1999/02/22-rdf-syntax-ns#">
   <cc:Work>
    <dc:type rdf:resource="http://purl.org/dc/dcmitype/StillImage"/>
    <dc:date>2026-01-03T05:08:38.994780</dc:date>
    <dc:format>image/svg+xml</dc:format>
    <dc:creator>
     <cc:Agent>
      <dc:title>Matplotlib v3.10.8, https://matplotlib.org/</dc:title>
     </cc:Agent>
    </dc:creator>
   </cc:Work>
  </rdf:RDF>
 </metadata>
 <defs>
  <style type="text/css">*{stroke-linejoin: round; stroke-linecap: butt}</style>
 </defs>
 <g id="figure_1">
  <g id="patch_1">
   <path d="M 0 296.39952 
L 296.39952 296.39952 
L 296.39952 0 
L 0 0 
z
" style="fill: #ffffff"/>
  </g>
  <g id="axes_1">
   <g id="patch_2">
    <path d="M 35.655938 265.022801 
L 289.19952 265.022801 
L 289.19952 19.642031 
L 35.655938 19.642031 
z
" style="fill: #ffffff"/>
   </g>
   <g id="matplotlib.axis_1">
    <g id="xtick_1">
     <g id="line2d_1">
      <path d="M 42.831699 265.022801 
L 42.831699 19.642031 
" clip-path="url(#p4d1723f807)" style="fill: none; stroke: #c0c0c0; stroke-width: 0.25; stroke-linecap: round"/>
     </g>
     <g id="line2d_2"/>
     <g id="text_1">
      <!-- 0.0 -->
      <g style="fill: #333333" transform="translate(36.576699 274.964832) scale(0.09 -0.09)">
       <defs>
        <path id="ArialMT-30" d="M 266 2259 
Q 266 3072 433 3567 
Q 600 4063 929 4331 
Q 1259 4600 1759 4600 
Q 2128 4600 2406 4451 
Q 2684 4303 2865 4023 
Q 3047 3744 3150 3342 
Q 3253 2941 3253 2259 
Q 3253 1453 3087 958 
Q 2922 463 2592 192 
Q 2263 -78 1759 -78 
Q 1097 -78 719 397 
Q 266 969 266 2259 
z
M 844 2259 
Q 844 1131 1108 757 
Q 1372 384 1759 384 
Q 2147 384 2411 759 
Q 2675 1134 2675 2259 
Q 2675 3391 2411 3762 
Q 2147 4134 1753 4134 
Q 1366 4134 1134 3806 
Q 844 3388 844 2259 
z
" transform="scale(0.015625)"/>
        <path id="ArialMT-2e" d="M 581 0 
L 581 641 
L 1222 641 
L 1222 0 
L 581 0 
z
" transform="scale(0.015625)"/>
       </defs>
       <use xlink:href="#ArialMT-30"/>
       <use xlink:href="#ArialMT-2e" transform="translate(55.615234 0)"/>
       <use xlink:href="#ArialMT-30" transform="translate(83.398438 0)"/>
      </g>
     </g>
    </g>
    <g id="xtick_2">
     <g id="line2d_3">
      <path d="M 90.670111 265.022801 
L 90.670111 19.642031 
" clip-path="url(#p4d1723f807)" style="fill: none; stroke: #c0c0c0; stroke-width: 0.25; stroke-linecap: round"/>
     </g>
     <g id="line2d_4"/>
     <g id="text_2">
      <!-- 0.2 -->
      <g style="fill: #333333" transform="translate(84.415111 274.964832) scale(0.09 -0.09)">
       <defs>
        <path id="ArialMT-32" d="M 3222 541 
L 3222 0 
L 194 0 
Q 188 203 259 391 
Q 375 700 629 1000 
Q 884 1300 1366 1694 
Q 2113 2306 2375 2664 
Q 2638 3022 2638 3341 
Q 2638 3675 2398 3904 
Q 2159 4134 1775 4134 
Q 1369 4134 1125 3890 
Q 881 3647 878 3216 
L 300 3275 
Q 359 3922 746 4261 
Q 1134 4600 1788 4600 
Q 2447 4600 2831 4234 
Q 3216 3869 3216 3328 
Q 3216 3053 3103 2787 
Q 2991 2522 2730 2228 
Q 2469 1934 1863 1422 
Q 1356 997 1212 845 
Q 1069 694 975 541 
L 3222 541 
z
" transform="scale(0.015625)"/>
       </defs>
       <use xlink:href="#ArialMT-30"/>
       <use xlink:href="#ArialMT-2e" transform="translate(55.615234 0)"/>
       <use xlink:href="#ArialMT-32" transform="translate(83.398438 0)"/>
      </g>
     </g>
    </g>
    <g id="xtick_3">
     <g id="line2d_5">
      <path d="M 138.508523 265.022801 
L 138.508523 19.642031 
" clip-path="url(#p4d1723f807)" style="fill: none; stroke: #c0c0c0; stroke-width: 0.25; stroke-linecap: round"/>
     </g>
     <g id="line2d_6"/>
     <g id="text_3">
      <!-- 0.4 -->
      <g style="fill: #333333" transform="translate(132.253523 274.964832) scale(0.09 -0.09)">
       <defs>
        <path id="ArialMT-34" d="M 2069 0 
L 2069 1097 
L 81 1097 
L 81 1613 
L 2172 4581 
L 2631 4581 
L 2631 1613 
L 3250 1613 
L 3250 1097 
L 2631 1097 
L 2631 0 
L 2069 0 
z
M 2069 1613 
L 2069 3678 
L 634 1613 
L 2069 1613 
z
" transform="scale(0.015625)"/>
       </defs>
       <use xlink:href="#ArialMT-30"/>
       <use xlink:href="#ArialMT-2e" transform="translate(55.615234 0)"/>
       <use xlink:href="#ArialMT-34" transform="translate(83.398438 0)"/>
      </g>
     </g>
    </g>
    <g id="xtick_4">
     <g id="line2d_7">
      <path d="M 186.346935 265.022801 
L 186.346935 19.642031 
" clip-path="url(#p4d1723f807)" style="fill: none; stroke: #c0c0c0; stroke-width: 0.25; stroke-linecap: round"/>
     </g>
     <g id="line2d_8"/>
     <g id="text_4">
      <!-- 0.6 -->
      <g style="fill: #333333" transform="translate(180.091935 274.964832) scale(0.09 -0.09)">
       <defs>
        <path id="ArialMT-36" d="M 3184 3459 
L 2625 3416 
Q 2550 3747 2413 3897 
Q 2184 4138 1850 4138 
Q 1581 4138 1378 3988 
Q 1113 3794 959 3422 
Q 806 3050 800 2363 
Q 1003 2672 1297 2822 
Q 1591 2972 1913 2972 
Q 2475 2972 2870 2558 
Q 3266 2144 3266 1488 
Q 3266 1056 3080 686 
Q 2894 316 2569 119 
Q 2244 -78 1831 -78 
Q 1128 -78 684 439 
Q 241 956 241 2144 
Q 241 3472 731 4075 
Q 1159 4600 1884 4600 
Q 2425 4600 2770 4297 
Q 3116 3994 3184 3459 
z
M 888 1484 
Q 888 1194 1011 928 
Q 1134 663 1356 523 
Q 1578 384 1822 384 
Q 2178 384 2434 671 
Q 2691 959 2691 1453 
Q 2691 1928 2437 2201 
Q 2184 2475 1800 2475 
Q 1419 2475 1153 2201 
Q 888 1928 888 1484 
z
" transform="scale(0.015625)"/>
       </defs>
       <use xlink:href="#ArialMT-30"/>
       <use xlink:href="#ArialMT-2e" transform="translate(55.615234 0)"/>
       <use xlink:href="#ArialMT-36" transform="translate(83.398438 0)"/>
      </g>
     </g>
    </g>
    <g id="xtick_5">
     <g id="line2d_9">
      <path d="M 234.185346 265.022801 
L 234.185346 19.642031 
" clip-path="url(#p4d1723f807)" style="fill: none; stroke: #c0c0c0; stroke-width: 0.25; stroke-linecap: round"/>
     </g>
     <g id="line2d_10"/>
     <g id="text_5">
      <!-- 0.8 -->
      <g style="fill: #333333" transform="translate(227.930346 274.964832) scale(0.09 -0.09)">
       <defs>
        <path id="ArialMT-38" d="M 1131 2484 
Q 781 2613 612 2850 
Q 444 3088 444 3419 
Q 444 3919 803 4259 
Q 1163 4600 1759 4600 
Q 2359 4600 2725 4251 
Q 3091 3903 3091 3403 
Q 3091 3084 2923 2848 
Q 2756 2613 2416 2484 
Q 2838 2347 3058 2040 
Q 3278 1734 3278 1309 
Q 3278 722 2862 322 
Q 2447 -78 1769 -78 
Q 1091 -78 675 323 
Q 259 725 259 1325 
Q 259 1772 486 2073 
Q 713 2375 1131 2484 
z
M 1019 3438 
Q 1019 3113 1228 2906 
Q 1438 2700 1772 2700 
Q 2097 2700 2305 2904 
Q 2513 3109 2513 3406 
Q 2513 3716 2298 3927 
Q 2084 4138 1766 4138 
Q 1444 4138 1231 3931 
Q 1019 3725 1019 3438 
z
M 838 1322 
Q 838 1081 952 856 
Q 1066 631 1291 507 
Q 1516 384 1775 384 
Q 2178 384 2440 643 
Q 2703 903 2703 1303 
Q 2703 1709 2433 1975 
Q 2163 2241 1756 2241 
Q 1359 2241 1098 1978 
Q 838 1716 838 1322 
z
" transform="scale(0.015625)"/>
       </defs>
       <use xlink:href="#ArialMT-30"/>
       <use xlink:href="#ArialMT-2e" transform="translate(55.615234 0)"/>
       <use xlink:href="#ArialMT-38" transform="translate(83.398438 0)"/>
      </g>
     </g>
    </g>
    <g id="xtick_6">
     <g id="line2d_11">
      <path d="M 282.023758 265.022801 
L 282.023758 19.642031 
" clip-path="url(#p4d1723f807)" style="fill: none; stroke: #c0c0c0; stroke-width: 0.25; stroke-linecap: round"/>
     </g>
     <g id="line2d_12"/>
     <g id="text_6">
      <!-- 1.0 -->
      <g style="fill: #333333" transform="translate(275.768758 274.964832) scale(0.09 -0.09)">
       <defs>
        <path id="ArialMT-31" d="M 2384 0 
L 1822 0 
L 1822 3584 
Q 1619 3391 1289 3197 
Q 959 3003 697 2906 
L 697 3450 
Q 1169 3672 1522 3987 
Q 1875 4303 2022 4600 
L 2384 4600 
L 2384 0 
z
" transform="scale(0.015625)"/>
       </defs>
       <use xlink:href="#ArialMT-31"/>
       <use xlink:href="#ArialMT-2e" transform="translate(55.615234 0)"/>
       <use xlink:href="#ArialMT-30" transform="translate(83.398438 0)"/>
      </g>
     </g>
    </g>
    <g id="text_7">
     <!-- Recall [TP / (TP + FN)] -->
     <g style="fill: #333333" transform="translate(115.706479 287.305301) scale(0.09 -0.09)">
      <defs>
       <path id="Arial-BoldMT-52" d="M 469 0 
L 469 4581 
L 2416 4581 
Q 3150 4581 3483 4457 
Q 3816 4334 4016 4018 
Q 4216 3703 4216 3297 
Q 4216 2781 3912 2445 
Q 3609 2109 3006 2022 
Q 3306 1847 3501 1637 
Q 3697 1428 4028 894 
L 4588 0 
L 3481 0 
L 2813 997 
Q 2456 1531 2325 1670 
Q 2194 1809 2047 1861 
Q 1900 1913 1581 1913 
L 1394 1913 
L 1394 0 
L 469 0 
z
M 1394 2644 
L 2078 2644 
Q 2744 2644 2909 2700 
Q 3075 2756 3169 2893 
Q 3263 3031 3263 3238 
Q 3263 3469 3139 3611 
Q 3016 3753 2791 3791 
Q 2678 3806 2116 3806 
L 1394 3806 
L 1394 2644 
z
" transform="scale(0.015625)"/>
       <path id="Arial-BoldMT-65" d="M 2381 1056 
L 3256 909 
Q 3088 428 2723 176 
Q 2359 -75 1813 -75 
Q 947 -75 531 491 
Q 203 944 203 1634 
Q 203 2459 634 2926 
Q 1066 3394 1725 3394 
Q 2466 3394 2894 2905 
Q 3322 2416 3303 1406 
L 1103 1406 
Q 1113 1016 1316 798 
Q 1519 581 1822 581 
Q 2028 581 2168 693 
Q 2309 806 2381 1056 
z
M 2431 1944 
Q 2422 2325 2234 2523 
Q 2047 2722 1778 2722 
Q 1491 2722 1303 2513 
Q 1116 2303 1119 1944 
L 2431 1944 
z
" transform="scale(0.015625)"/>
       <path id="Arial-BoldMT-63" d="M 3353 2338 
L 2488 2181 
Q 2444 2441 2289 2572 
Q 2134 2703 1888 2703 
Q 1559 2703 1364 2476 
Q 1169 2250 1169 1719 
Q 1169 1128 1367 884 
Q 1566 641 1900 641 
Q 2150 641 2309 783 
Q 2469 925 2534 1272 
L 3397 1125 
Q 3263 531 2881 228 
Q 2500 -75 1859 -75 
Q 1131 -75 698 384 
Q 266 844 266 1656 
Q 266 2478 700 2936 
Q 1134 3394 1875 3394 
Q 2481 3394 2839 3133 
Q 3197 2872 3353 2338 
z
" transform="scale(0.015625)"/>
       <path id="Arial-BoldMT-61" d="M 1116 2306 
L 319 2450 
Q 453 2931 781 3162 
Q 1109 3394 1756 3394 
Q 2344 3394 2631 3255 
Q 2919 3116 3036 2902 
Q 3153 2688 3153 2116 
L 3144 1091 
Q 3144 653 3186 445 
Q 3228 238 3344 0 
L 2475 0 
Q 2441 88 2391 259 
Q 2369 338 2359 363 
Q 2134 144 1878 34 
Q 1622 -75 1331 -75 
Q 819 -75 523 203 
Q 228 481 228 906 
Q 228 1188 362 1408 
Q 497 1628 739 1745 
Q 981 1863 1438 1950 
Q 2053 2066 2291 2166 
L 2291 2253 
Q 2291 2506 2166 2614 
Q 2041 2722 1694 2722 
Q 1459 2722 1328 2630 
Q 1197 2538 1116 2306 
z
M 2291 1594 
Q 2122 1538 1756 1459 
Q 1391 1381 1278 1306 
Q 1106 1184 1106 997 
Q 1106 813 1243 678 
Q 1381 544 1594 544 
Q 1831 544 2047 700 
Q 2206 819 2256 991 
Q 2291 1103 2291 1419 
L 2291 1594 
z
" transform="scale(0.015625)"/>
       <path id="Arial-BoldMT-6c" d="M 459 0 
L 459 4581 
L 1338 4581 
L 1338 0 
L 459 0 
z
" transform="scale(0.015625)"/>
       <path id="Arial-BoldMT-20" transform="scale(0.015625)"/>
       <path id="Arial-BoldMT-5b" d="M 456 -1291 
L 456 4581 
L 2013 4581 
L 2013 3891 
L 1291 3891 
L 1291 -600 
L 2013 -600 
L 2013 -1291 
L 456 -1291 
z
" transform="scale(0.015625)"/>
       <path id="Arial-BoldMT-54" d="M 1497 0 
L 1497 3806 
L 138 3806 
L 138 4581 
L 3778 4581 
L 3778 3806 
L 2422 3806 
L 2422 0 
L 1497 0 
z
" transform="scale(0.015625)"/>
       <path id="Arial-BoldMT-50" d="M 466 0 
L 466 4581 
L 1950 4581 
Q 2794 4581 3050 4513 
Q 3444 4409 3709 4064 
Q 3975 3719 3975 3172 
Q 3975 2750 3822 2462 
Q 3669 2175 3433 2011 
Q 3197 1847 2953 1794 
Q 2622 1728 1994 1728 
L 1391 1728 
L 1391 0 
L 466 0 
z
M 1391 3806 
L 1391 2506 
L 1897 2506 
Q 2444 2506 2628 2578 
Q 2813 2650 2917 2803 
Q 3022 2956 3022 3159 
Q 3022 3409 2875 3571 
Q 2728 3734 2503 3775 
Q 2338 3806 1838 3806 
L 1391 3806 
z
" transform="scale(0.015625)"/>
       <path id="Arial-BoldMT-2f" d="M -9 -78 
L 1125 4659 
L 1784 4659 
L 638 -78 
L -9 -78 
z
" transform="scale(0.015625)"/>
       <path id="Arial-BoldMT-28" d="M 1916 -1347 
L 1313 -1347 
Q 834 -625 584 153 
Q 334 931 334 1659 
Q 334 2563 644 3369 
Q 913 4069 1325 4659 
L 1925 4659 
Q 1497 3713 1336 3048 
Q 1175 2384 1175 1641 
Q 1175 1128 1270 590 
Q 1366 53 1531 -431 
Q 1641 -750 1916 -1347 
z
" transform="scale(0.015625)"/>
       <path id="Arial-BoldMT-2b" d="M 1466 659 
L 1466 1850 
L 266 1850 
L 266 2672 
L 1466 2672 
L 1466 3863 
L 2266 3863 
L 2266 2672 
L 3469 2672 
L 3469 1850 
L 2266 1850 
L 2266 659 
L 1466 659 
z
" transform="scale(0.015625)"/>
       <path id="Arial-BoldMT-46" d="M 472 0 
L 472 4581 
L 3613 4581 
L 3613 3806 
L 1397 3806 
L 1397 2722 
L 3309 2722 
L 3309 1947 
L 1397 1947 
L 1397 0 
L 472 0 
z
" transform="scale(0.015625)"/>
       <path id="Arial-BoldMT-4e" d="M 475 0 
L 475 4581 
L 1375 4581 
L 3250 1522 
L 3250 4581 
L 4109 4581 
L 4109 0 
L 3181 0 
L 1334 2988 
L 1334 0 
L 475 0 
z
" transform="scale(0.015625)"/>
       <path id="Arial-BoldMT-29" d="M 216 -1347 
Q 475 -791 581 -494 
Q 688 -197 778 190 
Q 869 578 912 926 
Q 956 1275 956 1641 
Q 956 2384 797 3048 
Q 638 3713 209 4659 
L 806 4659 
Q 1278 3988 1539 3234 
Q 1800 2481 1800 1706 
Q 1800 1053 1594 306 
Q 1359 -531 822 -1347 
L 216 -1347 
z
" transform="scale(0.015625)"/>
       <path id="Arial-BoldMT-5d" d="M 1675 4581 
L 1675 -1291 
L 119 -1291 
L 119 -600 
L 841 -600 
L 841 3897 
L 119 3897 
L 119 4581 
L 1675 4581 
z
" transform="scale(0.015625)"/>
      </defs>
      <use xlink:href="#Arial-BoldMT-52"/>
      <use xlink:href="#Arial-BoldMT-65" transform="translate(72.216797 0)"/>
      <use xlink:href="#Arial-BoldMT-63" transform="translate(127.832031 0)"/>
      <use xlink:href="#Arial-BoldMT-61" transform="translate(183.447266 0)"/>
      <use xlink:href="#Arial-BoldMT-6c" transform="translate(239.0625 0)"/>
      <use xlink:href="#Arial-BoldMT-6c" transform="translate(266.845703 0)"/>
      <use xlink:href="#Arial-BoldMT-20" transform="translate(294.628906 0)"/>
      <use xlink:href="#Arial-BoldMT-5b" transform="translate(322.412109 0)"/>
      <use xlink:href="#Arial-BoldMT-54" transform="translate(355.712891 0)"/>
      <use xlink:href="#Arial-BoldMT-50" transform="translate(416.796875 0)"/>
      <use xlink:href="#Arial-BoldMT-20" transform="translate(481.746094 0)"/>
      <use xlink:href="#Arial-BoldMT-2f" transform="translate(509.529297 0)"/>
      <use xlink:href="#Arial-BoldMT-20" transform="translate(537.3125 0)"/>
      <use xlink:href="#Arial-BoldMT-28" transform="translate(565.095703 0)"/>
      <use xlink:href="#Arial-BoldMT-54" transform="translate(598.396484 0)"/>
      <use xlink:href="#Arial-BoldMT-50" transform="translate(659.480469 0)"/>
      <use xlink:href="#Arial-BoldMT-20" transform="translate(724.429688 0)"/>
      <use xlink:href="#Arial-BoldMT-2b" transform="translate(752.212891 0)"/>
      <use xlink:href="#Arial-BoldMT-20" transform="translate(810.611328 0)"/>
      <use xlink:href="#Arial-BoldMT-46" transform="translate(838.394531 0)"/>
      <use xlink:href="#Arial-BoldMT-4e" transform="translate(899.478516 0)"/>
      <use xlink:href="#Arial-BoldMT-29" transform="translate(971.695312 0)"/>
      <use xlink:href="#Arial-BoldMT-5d" transform="translate(1004.996094 0)"/>
     </g>
    </g>
   </g>
   <g id="matplotlib.axis_2">
    <g id="ytick_1">
     <g id="line2d_13">
      <path d="M 35.655938 265.022801 
L 289.19952 265.022801 
" clip-path="url(#p4d1723f807)" style="fill: none; stroke: #c0c0c0; stroke-width: 0.25; stroke-linecap: round"/>
     </g>
     <g id="line2d_14"/>
     <g id="text_8">
      <!-- 0.0 -->
      <g style="fill: #333333" transform="translate(19.645938 268.243817) scale(0.09 -0.09)">
       <use xlink:href="#ArialMT-30"/>
       <use xlink:href="#ArialMT-2e" transform="translate(55.615234 0)"/>
       <use xlink:href="#ArialMT-30" transform="translate(83.398438 0)"/>
      </g>
     </g>
    </g>
    <g id="ytick_2">
     <g id="line2d_15">
      <path d="M 35.655938 217.37605 
L 289.19952 217.37605 
" clip-path="url(#p4d1723f807)" style="fill: none; stroke: #c0c0c0; stroke-width: 0.25; stroke-linecap: round"/>
     </g>
     <g id="line2d_16"/>
     <g id="text_9">
      <!-- 0.2 -->
      <g style="fill: #333333" transform="translate(19.645938 220.597065) scale(0.09 -0.09)">
       <use xlink:href="#ArialMT-30"/>
       <use xlink:href="#ArialMT-2e" transform="translate(55.615234 0)"/>
       <use xlink:href="#ArialMT-32" transform="translate(83.398438 0)"/>
      </g>
     </g>
    </g>
    <g id="ytick_3">
     <g id="line2d_17">
      <path d="M 35.655938 169.729298 
L 289.19952 169.729298 
" clip-path="url(#p4d1723f807)" style="fill: none; stroke: #c0c0c0; stroke-width: 0.25; stroke-linecap: round"/>
     </g>
     <g id="line2d_18"/>
     <g id="text_10">
      <!-- 0.4 -->
      <g style="fill: #333333" transform="translate(19.645938 172.950314) scale(0.09 -0.09)">
       <use xlink:href="#ArialMT-30"/>
       <use xlink:href="#ArialMT-2e" transform="translate(55.615234 0)"/>
       <use xlink:href="#ArialMT-34" transform="translate(83.398438 0)"/>
      </g>
     </g>
    </g>
    <g id="ytick_4">
     <g id="line2d_19">
      <path d="M 35.655938 122.082547 
L 289.19952 122.082547 
" clip-path="url(#p4d1723f807)" style="fill: none; stroke: #c0c0c0; stroke-width: 0.25; stroke-linecap: round"/>
     </g>
     <g id="line2d_20"/>
     <g id="text_11">
      <!-- 0.6 -->
      <g style="fill: #333333" transform="translate(19.645938 125.303563) scale(0.09 -0.09)">
       <use xlink:href="#ArialMT-30"/>
       <use xlink:href="#ArialMT-2e" transform="translate(55.615234 0)"/>
       <use xlink:href="#ArialMT-36" transform="translate(83.398438 0)"/>
      </g>
     </g>
    </g>
    <g id="ytick_5">
     <g id="line2d_21">
      <path d="M 35.655938 74.435795 
L 289.19952 74.435795 
" clip-path="url(#p4d1723f807)" style="fill: none; stroke: #c0c0c0; stroke-width: 0.25; stroke-linecap: round"/>
     </g>
     <g id="line2d_22"/>
     <g id="text_12">
      <!-- 0.8 -->
      <g style="fill: #333333" transform="translate(19.645938 77.656811) scale(0.09 -0.09)">
       <use xlink:href="#ArialMT-30"/>
       <use xlink:href="#ArialMT-2e" transform="translate(55.615234 0)"/>
       <use xlink:href="#ArialMT-38" transform="translate(83.398438 0)"/>
      </g>
     </g>
    </g>
    <g id="ytick_6">
     <g id="line2d_23">
      <path d="M 35.655938 26.789044 
L 289.19952 26.789044 
" clip-path="url(#p4d1723f807)" style="fill: none; stroke: #c0c0c0; stroke-width: 0.25; stroke-linecap: round"/>
     </g>
     <g id="line2d_24"/>
     <g id="text_13">
      <!-- 1.0 -->
      <g style="fill: #333333" transform="translate(19.645938 30.01006) scale(0.09 -0.09)">
       <use xlink:href="#ArialMT-31"/>
       <use xlink:href="#ArialMT-2e" transform="translate(55.615234 0)"/>
       <use xlink:href="#ArialMT-30" transform="translate(83.398438 0)"/>
      </g>
     </g>
    </g>
    <g id="text_14">
     <!-- Precision [TP / (TP + FP)] -->
     <g style="fill: #333333" transform="translate(13.751719 195.805776) rotate(-90) scale(0.09 -0.09)">
      <defs>
       <path id="Arial-BoldMT-72" d="M 1300 0 
L 422 0 
L 422 3319 
L 1238 3319 
L 1238 2847 
Q 1447 3181 1614 3287 
Q 1781 3394 1994 3394 
Q 2294 3394 2572 3228 
L 2300 2463 
Q 2078 2606 1888 2606 
Q 1703 2606 1575 2504 
Q 1447 2403 1373 2137 
Q 1300 1872 1300 1025 
L 1300 0 
z
" transform="scale(0.015625)"/>
       <path id="Arial-BoldMT-69" d="M 459 3769 
L 459 4581 
L 1338 4581 
L 1338 3769 
L 459 3769 
z
M 459 0 
L 459 3319 
L 1338 3319 
L 1338 0 
L 459 0 
z
" transform="scale(0.015625)"/>
       <path id="Arial-BoldMT-73" d="M 150 947 
L 1031 1081 
Q 1088 825 1259 692 
Q 1431 559 1741 559 
Q 2081 559 2253 684 
Q 2369 772 2369 919 
Q 2369 1019 2306 1084 
Q 2241 1147 2013 1200 
Q 950 1434 666 1628 
Q 272 1897 272 2375 
Q 272 2806 612 3100 
Q 953 3394 1669 3394 
Q 2350 3394 2681 3172 
Q 3013 2950 3138 2516 
L 2309 2363 
Q 2256 2556 2107 2659 
Q 1959 2763 1684 2763 
Q 1338 2763 1188 2666 
Q 1088 2597 1088 2488 
Q 1088 2394 1175 2328 
Q 1294 2241 1995 2081 
Q 2697 1922 2975 1691 
Q 3250 1456 3250 1038 
Q 3250 581 2869 253 
Q 2488 -75 1741 -75 
Q 1063 -75 667 200 
Q 272 475 150 947 
z
" transform="scale(0.015625)"/>
       <path id="Arial-BoldMT-6f" d="M 256 1706 
Q 256 2144 472 2553 
Q 688 2963 1083 3178 
Q 1478 3394 1966 3394 
Q 2719 3394 3200 2905 
Q 3681 2416 3681 1669 
Q 3681 916 3195 420 
Q 2709 -75 1972 -75 
Q 1516 -75 1102 131 
Q 688 338 472 736 
Q 256 1134 256 1706 
z
M 1156 1659 
Q 1156 1166 1390 903 
Q 1625 641 1969 641 
Q 2313 641 2545 903 
Q 2778 1166 2778 1666 
Q 2778 2153 2545 2415 
Q 2313 2678 1969 2678 
Q 1625 2678 1390 2415 
Q 1156 2153 1156 1659 
z
" transform="scale(0.015625)"/>
       <path id="Arial-BoldMT-6e" d="M 3478 0 
L 2600 0 
L 2600 1694 
Q 2600 2231 2544 2389 
Q 2488 2547 2361 2634 
Q 2234 2722 2056 2722 
Q 1828 2722 1647 2597 
Q 1466 2472 1398 2265 
Q 1331 2059 1331 1503 
L 1331 0 
L 453 0 
L 453 3319 
L 1269 3319 
L 1269 2831 
Q 1703 3394 2363 3394 
Q 2653 3394 2893 3289 
Q 3134 3184 3257 3021 
Q 3381 2859 3429 2653 
Q 3478 2447 3478 2063 
L 3478 0 
z
" transform="scale(0.015625)"/>
      </defs>
      <use xlink:href="#Arial-BoldMT-50"/>
      <use xlink:href="#Arial-BoldMT-72" transform="translate(66.699219 0)"/>
      <use xlink:href="#Arial-BoldMT-65" transform="translate(105.615234 0)"/>
      <use xlink:href="#Arial-BoldMT-63" transform="translate(161.230469 0)"/>
      <use xlink:href="#Arial-BoldMT-69" transform="translate(216.845703 0)"/>
      <use xlink:href="#Arial-BoldMT-73" transform="translate(244.628906 0)"/>
      <use xlink:href="#Arial-BoldMT-69" transform="translate(300.244141 0)"/>
      <use xlink:href="#Arial-BoldMT-6f" transform="translate(328.027344 0)"/>
      <use xlink:href="#Arial-BoldMT-6e" transform="translate(389.111328 0)"/>
      <use xlink:href="#Arial-BoldMT-20" transform="translate(450.195312 0)"/>
      <use xlink:href="#Arial-BoldMT-5b" transform="translate(477.978516 0)"/>
      <use xlink:href="#Arial-BoldMT-54" transform="translate(511.279297 0)"/>
      <use xlink:href="#Arial-BoldMT-50" transform="translate(572.363281 0)"/>
      <use xlink:href="#Arial-BoldMT-20" transform="translate(637.3125 0)"/>
      <use xlink:href="#Arial-BoldMT-2f" transform="translate(665.095703 0)"/>
      <use xlink:href="#Arial-BoldMT-20" transform="translate(692.878906 0)"/>
      <use xlink:href="#Arial-BoldMT-28" transform="translate(720.662109 0)"/>
      <use xlink:href="#Arial-BoldMT-54" transform="translate(753.962891 0)"/>
      <use xlink:href="#Arial-BoldMT-50" transform="translate(815.046875 0)"/>
      <use xlink:href="#Arial-BoldMT-20" transform="translate(879.996094 0)"/>
      <use xlink:href="#Arial-BoldMT-2b" transform="translate(907.779297 0)"/>
      <use xlink:href="#Arial-BoldMT-20" transform="translate(966.177734 0)"/>
      <use xlink:href="#Arial-BoldMT-46" transform="translate(993.960938 0)"/>
      <use xlink:href="#Arial-BoldMT-50" transform="translate(1055.044922 0)"/>
      <use xlink:href="#Arial-BoldMT-29" transform="translate(1121.744141 0)"/>
      <use xlink:href="#Arial-BoldMT-5d" transform="translate(1155.044922 0)"/>
     </g>
    </g>
   </g>
   <g id="line2d_25">
    <path d="M 42.831699 265.022801 
L 42.942733 242.226849 
L 42.945099 242.119825 
L 43.055591 232.38071 
L 43.058869 232.273686 
L 43.1654 225.584733 
L 43.171499 225.47771 
L 43.28239 220.019524 
L 43.28467 219.912501 
L 43.393567 215.524548 
L 43.399523 215.417524 
L 43.5105 211.778734 
L 43.515088 211.671711 
L 43.624754 208.621548 
L 43.629001 208.514525 
L 43.736187 205.892455 
L 43.748642 205.785432 
L 43.857852 202.895804 
L 43.860958 202.788781 
L 43.96196 200.648316 
L 43.981825 200.541292 
L 44.089154 197.919223 
L 44.10537 197.812199 
L 44.214181 196.099827 
L 44.221933 195.992804 
L 44.326982 194.226921 
L 44.343626 194.119897 
L 44.449872 192.086456 
L 44.463095 191.979432 
L 44.570396 190.374084 
L 44.583677 190.26706 
L 44.693884 188.715223 
L 44.701807 188.6082 
L 44.811616 186.895828 
L 44.81666 186.788805 
L 44.922051 184.755363 
L 44.943768 184.64834 
L 45.053291 182.935968 
L 45.056426 182.828944 
L 45.165893 181.758712 
L 45.177635 181.651689 
L 45.288412 180.260386 
L 45.294283 180.153363 
L 45.404661 178.173433 
L 45.418427 178.06641 
L 45.519343 176.675107 
L 45.522393 176.675107 
L 45.534619 176.568084 
L 45.62103 175.390828 
L 45.634966 175.390828 
L 45.666201 175.283805 
L 45.776266 174.213573 
L 45.785415 174.106549 
L 45.894112 173.089828 
L 45.912893 172.982805 
L 46.021248 171.645015 
L 46.046612 171.537991 
L 46.153371 170.735317 
L 46.167935 170.628294 
L 46.27552 169.825619 
L 46.294786 169.718596 
L 46.405335 168.648363 
L 46.414683 168.54134 
L 46.496961 167.364084 
L 46.510242 167.364084 
L 46.541107 167.257061 
L 46.6514 165.812247 
L 46.663854 165.705224 
L 46.774632 164.795526 
L 46.83203 164.688503 
L 46.943035 163.618271 
L 46.965464 163.511247 
L 47.0757 162.494527 
L 47.096448 162.387503 
L 47.18605 161.531317 
L 47.23051 161.424294 
L 47.332652 160.193527 
L 47.366823 160.086503 
L 47.471131 159.337341 
L 47.48786 159.230317 
L 47.573387 158.374131 
L 47.61246 158.267108 
L 47.722439 157.35741 
L 47.760571 157.250387 
L 47.863027 156.34069 
L 47.889161 156.233666 
L 47.998685 155.323969 
L 48.033511 155.216945 
L 48.137876 154.521294 
L 48.162728 154.414271 
L 48.273106 153.558085 
L 48.28653 153.451062 
L 48.395996 152.755411 
L 48.438603 152.648387 
L 48.545333 151.845713 
L 48.585717 151.73869 
L 48.695896 151.150062 
L 48.72374 151.043039 
L 48.823517 150.347388 
L 48.854097 150.240364 
L 48.956438 149.491202 
L 48.981945 149.384178 
L 49.086624 148.581504 
L 49.12202 148.474481 
L 49.231829 147.618295 
L 49.241291 147.511271 
L 49.334028 146.976155 
L 49.392338 146.869132 
L 49.502403 145.905923 
L 49.523578 145.798899 
L 49.63199 144.942713 
L 49.67018 144.83569 
L 49.777879 144.300574 
L 49.783294 144.193551 
L 49.888799 143.604923 
L 49.901054 143.497899 
L 49.998066 142.802248 
L 50.058542 142.695225 
L 50.169633 142.106597 
L 50.209903 141.999574 
L 50.320167 141.303923 
L 50.349493 141.1969 
L 50.456338 140.87583 
L 50.507979 140.768807 
L 50.614596 140.23369 
L 50.677522 140.126667 
L 50.785478 139.538039 
L 50.812354 139.431016 
L 50.923331 138.949411 
L 50.949835 138.842388 
L 51.060214 138.200249 
L 51.096778 138.093225 
L 51.180339 137.451086 
L 51.19704 137.451086 
L 51.226195 137.344063 
L 51.329591 136.808946 
L 51.365244 136.701923 
L 51.468611 135.95276 
L 51.523672 135.845737 
L 51.61812 135.310621 
L 51.663149 135.203597 
L 51.770107 134.561458 
L 51.834231 134.454435 
L 51.922808 134.186877 
L 51.965585 134.079853 
L 52.074482 133.170156 
L 52.109023 133.063132 
L 52.214956 132.635039 
L 52.267224 132.528016 
L 52.372586 131.9929 
L 52.416105 131.885877 
L 52.523007 131.297249 
L 52.526284 131.297249 
L 52.587302 131.190226 
L 52.689985 130.494574 
L 52.704634 130.387551 
L 52.808828 129.852435 
L 52.866369 129.745412 
L 52.960787 129.263807 
L 52.986009 129.156784 
L 53.068715 128.354109 
L 53.119558 128.247086 
L 53.218736 127.818993 
L 53.238914 127.71197 
L 53.342509 127.3909 
L 53.387111 127.283877 
L 53.487429 126.962807 
L 53.542889 126.855784 
L 53.648907 126.267156 
L 53.701147 126.160133 
L 53.812152 125.625016 
L 53.844699 125.517993 
L 53.945901 125.196923 
L 53.969498 125.0899 
L 54.07013 124.447761 
L 54.207697 124.340737 
L 54.314313 123.591575 
L 54.355182 123.484551 
L 54.457979 122.895924 
L 54.493404 122.7889 
L 54.59643 122.414319 
L 54.644166 122.307296 
L 54.750783 121.932714 
L 54.831807 121.825691 
L 54.940789 121.397598 
L 54.941587 121.397598 
L 55.042589 121.290575 
L 55.144532 120.969505 
L 55.219685 120.862482 
L 55.300339 120.380877 
L 55.327955 120.380877 
L 55.360729 120.273854 
L 55.462016 119.952784 
L 55.57496 119.845761 
L 55.597588 119.631714 
L 55.674537 119.631714 
L 55.725266 119.524691 
L 55.834277 118.82904 
L 55.864059 118.722017 
L 55.941064 118.50797 
L 55.968224 118.50797 
L 55.995042 118.400947 
L 56.073729 118.079877 
L 56.111862 117.972854 
L 56.214574 117.812319 
L 56.297051 117.705296 
L 56.39526 117.223691 
L 56.396571 117.223691 
L 56.516412 117.116668 
L 56.625964 116.688575 
L 56.6568 116.581552 
L 56.717504 116.260482 
L 56.759826 116.260482 
L 56.914065 116.153459 
L 57.017205 115.671854 
L 57.108546 115.564831 
L 57.21445 115.136738 
L 57.349024 115.029715 
L 57.445581 114.494598 
L 57.459517 114.494598 
L 57.538118 114.387575 
L 57.642113 113.90597 
L 57.720601 113.798947 
L 57.812454 113.477877 
L 57.828614 113.477877 
L 57.872474 113.370854 
L 57.9755 112.728715 
L 58.082145 112.621691 
L 58.154591 112.300622 
L 58.187964 112.300622 
L 58.255764 112.193598 
L 58.359702 111.658482 
L 58.364347 111.658482 
L 58.520439 111.551459 
L 58.59297 111.176878 
L 58.599582 111.176878 
L 58.669833 111.069854 
L 58.764907 110.802296 
L 58.900479 110.695273 
L 59.008549 110.320692 
L 59.010658 110.320692 
L 59.073243 110.213668 
L 59.161905 109.785575 
L 59.171395 109.785575 
L 59.216368 109.678552 
L 59.326433 109.410994 
L 59.365477 109.303971 
L 59.473519 109.036413 
L 59.517493 108.929389 
L 59.576801 108.661831 
L 59.622115 108.661831 
L 59.682933 108.554808 
L 59.787526 107.96618 
L 59.870459 107.859157 
L 59.941452 107.698622 
L 59.977275 107.698622 
L 60.085402 107.591599 
L 60.189654 107.324041 
L 60.384191 107.217017 
L 60.49343 106.788924 
L 60.527202 106.681901 
L 60.63359 106.467855 
L 60.6467 106.360831 
L 60.739665 105.825715 
L 60.753687 105.825715 
L 60.790736 105.718692 
L 60.899519 105.504645 
L 60.939418 105.397622 
L 61.038226 105.130064 
L 61.103404 105.023041 
L 61.171005 104.755483 
L 61.199761 104.755483 
L 61.226607 104.648459 
L 61.315526 104.487924 
L 61.399457 104.380901 
L 61.506643 104.166855 
L 61.510149 104.166855 
L 61.521663 104.059831 
L 61.624375 103.738762 
L 61.729053 103.631738 
L 61.826009 103.417692 
L 61.891956 103.310669 
L 61.966226 103.096622 
L 62.047706 102.989599 
L 62.152955 102.775552 
L 62.210267 102.668529 
L 62.302891 102.454483 
L 62.320275 102.454483 
L 62.423928 102.347459 
L 62.534249 102.133413 
L 62.660787 102.02639 
L 62.7405 101.651808 
L 62.768544 101.651808 
L 62.815169 101.544785 
L 62.911355 101.277227 
L 63.021933 101.170204 
L 63.124901 100.902645 
L 63.181786 100.795622 
L 63.278798 100.474552 
L 63.346342 100.367529 
L 63.435517 100.153483 
L 63.453728 100.153483 
L 63.557295 100.046459 
L 63.661547 99.671878 
L 63.739122 99.564855 
L 63.809886 99.350808 
L 63.841464 99.350808 
L 63.941098 99.243785 
L 63.952127 99.136762 
L 64.050251 99.136762 
L 64.103659 99.029739 
L 64.192293 98.76218 
L 64.27477 98.655157 
L 64.287196 98.494622 
L 64.35796 98.494622 
L 64.441977 98.387599 
L 64.524255 98.120041 
L 64.607074 98.013018 
L 64.704685 97.691948 
L 64.709957 97.691948 
L 64.757922 97.584925 
L 64.864339 97.049808 
L 64.971981 96.942785 
L 65.074751 96.728739 
L 65.077316 96.728739 
L 65.171677 96.621715 
L 65.249937 96.461181 
L 65.268376 96.461181 
L 65.317424 96.354157 
L 65.410788 96.033088 
L 65.501673 95.926064 
L 65.569929 95.658506 
L 65.592159 95.658506 
L 65.68407 95.551483 
L 65.791598 95.390948 
L 65.917566 95.283925 
L 65.981319 95.12339 
L 66.009106 95.12339 
L 66.108256 95.016367 
L 66.186715 94.855832 
L 66.203701 94.855832 
L 66.244142 94.748809 
L 66.353979 94.534762 
L 66.453413 94.427739 
L 66.485589 94.106669 
L 66.52281 94.106669 
L 66.582972 93.999646 
L 66.679044 93.839111 
L 66.747015 93.732088 
L 66.853033 93.518041 
L 67.027877 93.411018 
L 67.123522 92.982925 
L 67.246696 92.875902 
L 67.354396 92.608343 
L 67.38945 92.50132 
L 67.495383 92.287274 
L 67.498318 92.287274 
L 67.650221 92.18025 
L 67.743899 91.805669 
L 67.754301 91.805669 
L 67.80731 91.698646 
L 67.892951 91.538111 
L 67.900247 91.538111 
L 67.961749 91.431088 
L 68.060357 91.324064 
L 68.119892 91.217041 
L 68.182135 91.110018 
L 68.335234 91.002995 
L 68.442364 90.735437 
L 68.541314 90.628413 
L 68.627668 90.253832 
L 68.650211 90.253832 
L 68.821379 90.146809 
L 68.867434 89.879251 
L 68.91403 89.879251 
L 69.033101 89.772227 
L 69.071348 89.558181 
L 69.135557 89.558181 
L 69.209855 89.451158 
L 69.293558 89.237111 
L 69.320889 89.237111 
L 69.519417 89.130088 
L 69.541247 89.023065 
L 69.612496 89.023065 
L 69.690271 88.916041 
L 69.785801 88.809018 
L 69.907409 88.701995 
L 69.959249 88.594972 
L 69.962299 88.594972 
L 70.166868 88.487948 
L 70.22646 88.327413 
L 70.268782 88.327413 
L 70.355677 88.22039 
L 70.422337 87.89932 
L 70.444766 87.89932 
L 70.509318 87.792297 
L 70.61183 87.631762 
L 70.694536 87.524739 
L 70.791605 87.203669 
L 70.914552 87.096646 
L 70.94231 86.989623 
L 70.983806 86.989623 
L 71.167713 86.8826 
L 71.25096 86.615041 
L 71.268744 86.615041 
L 71.462369 86.508018 
L 71.50318 86.400995 
L 71.560635 86.400995 
L 71.63063 86.293972 
L 71.706097 86.133437 
L 71.729808 86.133437 
L 71.779682 86.026414 
L 71.845687 85.812367 
L 71.875184 85.812367 
L 72.078642 85.705344 
L 72.144105 85.384274 
L 72.183976 85.384274 
L 72.259129 85.277251 
L 72.370192 85.116716 
L 72.43859 85.009693 
L 72.538139 84.795646 
L 72.703721 84.688623 
L 72.77249 84.474576 
L 72.796231 84.474576 
L 73.145862 84.367553 
L 73.238429 84.153507 
L 73.362572 84.046483 
L 73.464572 83.725414 
L 73.532344 83.61839 
L 73.596183 83.457856 
L 73.639986 83.457856 
L 73.707388 83.350832 
L 73.779292 83.083274 
L 73.794425 83.083274 
L 74.00307 82.976251 
L 74.094211 82.869228 
L 74.266263 82.762204 
L 74.266263 82.708693 
L 74.447747 82.601669 
L 74.535611 82.494646 
L 74.646332 82.387623 
L 74.729066 82.227088 
L 74.744341 82.227088 
L 74.931868 82.120065 
L 75.030562 81.906018 
L 75.1343 81.798995 
L 75.192211 81.584949 
L 75.370618 81.477925 
L 75.478374 81.263879 
L 75.626173 81.156856 
L 75.712725 81.049832 
L 75.920458 80.942809 
L 76.010061 80.568228 
L 76.137254 80.461204 
L 76.246806 80.30067 
L 76.390985 80.193646 
L 76.496034 79.872577 
L 76.500394 79.872577 
L 76.899387 79.765553 
L 77.00227 79.551507 
L 77.060381 79.444484 
L 77.124049 79.230437 
L 77.145851 79.230437 
L 77.251783 79.123414 
L 77.353213 79.016391 
L 77.667534 78.909367 
L 77.731287 78.695321 
L 77.988609 78.588298 
L 78.034123 78.481274 
L 78.092718 78.481274 
L 78.214182 78.374251 
L 78.271865 78.160205 
L 78.314928 78.160205 
L 78.427758 78.053181 
L 78.510634 77.839135 
L 78.532037 77.839135 
L 78.614315 77.732112 
L 78.614315 77.6786 
L 78.683198 77.6786 
L 78.795999 77.571577 
L 78.807513 77.464553 
L 78.843508 77.464553 
L 79.130213 77.35753 
L 79.130213 77.304019 
L 79.467761 77.196995 
L 79.53559 76.929437 
L 79.607579 76.822414 
L 79.626617 76.661879 
L 79.655116 76.661879 
L 80.013669 76.554856 
L 80.032364 76.447833 
L 80.04536 76.447833 
L 80.341897 76.340809 
L 80.398925 76.233786 
L 80.442073 76.233786 
L 80.539085 76.126763 
L 80.630198 75.912716 
L 80.643422 75.912716 
L 80.835508 75.805693 
L 80.911288 75.645158 
L 80.937422 75.645158 
L 81.04991 75.538135 
L 81.137603 75.431112 
L 81.31467 75.324088 
L 81.371299 75.163554 
L 81.410286 75.163554 
L 81.637626 75.05653 
L 81.741193 74.949507 
L 81.746865 74.949507 
L 81.863257 74.842484 
L 81.937783 74.735461 
L 81.965541 74.735461 
L 82.092649 74.628437 
L 82.192967 74.360879 
L 82.560183 74.253856 
L 82.663551 74.093321 
L 82.812033 73.986298 
L 82.915144 73.879275 
L 83.058497 73.772251 
L 83.167906 73.665228 
L 83.16916 73.665228 
L 83.208774 73.558205 
L 83.208774 73.504693 
L 83.280992 73.504693 
L 83.546465 73.39767 
L 83.656501 73.237135 
L 83.80239 73.130112 
L 83.887148 72.75553 
L 84.077382 72.648507 
L 84.141677 72.541484 
L 84.144698 72.541484 
L 84.352316 72.434461 
L 84.352316 72.380949 
L 84.434993 72.380949 
L 84.561588 72.273926 
L 84.624002 72.113391 
L 84.672109 72.113391 
L 85.022881 72.006368 
L 85.079538 71.845833 
L 85.202998 71.738809 
L 85.216193 71.631786 
L 85.308731 71.631786 
L 85.603415 71.524763 
L 85.712426 71.364228 
L 85.791797 71.257205 
L 85.84321 71.150182 
L 85.886529 71.150182 
L 85.944127 71.043158 
L 86.005657 70.936135 
L 86.049746 70.936135 
L 86.341353 70.829112 
L 86.341353 70.7756 
L 86.412858 70.7756 
L 86.492941 70.668577 
L 86.580007 70.561554 
L 86.753655 70.45453 
L 86.833425 70.347507 
L 86.967116 70.240484 
L 87.071509 70.133461 
L 87.592167 70.026437 
L 87.592167 69.972926 
L 87.694508 69.972926 
L 87.928717 69.865903 
L 87.99418 69.705368 
L 88.361453 69.598344 
L 88.454219 69.491321 
L 88.456983 69.491321 
L 88.868744 69.384298 
L 88.944667 69.223763 
L 89.04242 69.11674 
L 89.118457 68.956205 
L 89.123244 68.956205 
L 89.42494 68.849182 
L 89.453154 68.742158 
L 89.493937 68.742158 
L 89.68819 68.635135 
L 89.68819 68.581624 
L 89.724641 68.581624 
L 89.967969 68.4746 
L 89.967969 68.421089 
L 90.052784 68.421089 
L 90.198872 68.314065 
L 90.295742 68.207042 
L 90.520432 68.100019 
L 90.615478 67.992996 
L 90.855728 67.885972 
L 90.951486 67.778949 
L 91.157367 67.671926 
L 91.157367 67.618414 
L 91.24144 67.618414 
L 91.417767 67.511391 
L 91.52179 67.297345 
L 91.850218 67.190321 
L 91.850218 67.13681 
L 91.873758 67.13681 
L 92.046579 67.029786 
L 92.123015 66.869252 
L 92.615372 66.762228 
L 92.670633 66.655205 
L 92.720336 66.655205 
L 92.869986 66.548182 
L 92.869986 66.49467 
L 93.292833 66.387647 
L 93.336637 66.227112 
L 93.808817 66.120089 
L 93.913381 66.013066 
L 94.090733 65.906042 
L 94.090733 65.852531 
L 94.158363 65.852531 
L 95.102408 65.745507 
L 95.102408 65.691996 
L 95.165734 65.691996 
L 95.743903 65.584973 
L 95.782377 65.424438 
L 95.805947 65.424438 
L 96.312667 65.317414 
L 96.312667 65.263903 
L 96.566997 65.15688 
L 96.636906 65.049856 
L 97.344377 64.942833 
L 97.402003 64.782298 
L 97.839356 64.675275 
L 97.940359 64.568252 
L 98.307717 64.461228 
L 98.364032 64.300694 
L 98.735295 64.19367 
L 98.735295 64.140159 
L 98.803523 64.140159 
L 99.26758 64.033135 
L 99.364307 63.872601 
L 99.762331 63.765577 
L 99.820213 63.658554 
L 99.851221 63.658554 
L 99.964164 63.551531 
L 100.035584 63.498019 
L 100.035641 63.498019 
L 100.297922 63.390996 
L 100.297922 63.337484 
L 100.404253 63.337484 
L 100.607426 63.230461 
L 100.682323 63.016415 
L 100.909977 62.909391 
L 101.015396 62.802368 
L 101.222359 62.695345 
L 101.222359 62.641833 
L 101.320455 62.641833 
L 101.71788 62.53481 
L 101.798534 62.374275 
L 101.933365 62.267252 
L 102.029151 62.160229 
L 102.405972 62.053205 
L 102.488278 61.89267 
L 102.869345 61.785647 
L 102.951765 61.678624 
L 103.154682 61.571601 
L 103.213989 61.411066 
L 103.234879 61.411066 
L 103.45689 61.304042 
L 103.45689 61.250531 
L 103.528338 61.250531 
L 103.772123 61.143508 
L 103.87589 60.929461 
L 104.303752 60.822438 
L 104.339918 60.768926 
L 104.339975 60.768926 
L 104.583218 60.661903 
L 104.583218 60.608391 
L 104.841994 60.501368 
L 104.841994 60.447856 
L 105.197069 60.340833 
L 105.297986 60.180298 
L 105.30283 60.180298 
L 105.612563 60.073275 
L 105.654999 60.019763 
L 105.722286 60.019763 
L 105.830755 59.91274 
L 105.830755 59.859229 
L 105.902004 59.859229 
L 106.17349 59.752205 
L 106.275404 59.645182 
L 106.277798 59.645182 
L 106.913735 59.538159 
L 106.913735 59.484647 
L 107.568796 59.377624 
L 107.657886 59.163577 
L 108.0088 59.056554 
L 108.0088 59.003043 
L 108.707408 58.896019 
L 108.707408 58.842508 
L 109.022184 58.735484 
L 109.058778 58.628461 
L 109.114352 58.628461 
L 109.392193 58.521438 
L 109.450161 58.360903 
L 109.50166 58.360903 
L 110.106276 58.25388 
L 110.106276 58.200368 
L 110.206367 58.200368 
L 110.794169 58.093345 
L 110.893233 57.93281 
L 111.539003 57.825787 
L 111.539003 57.772275 
L 111.625499 57.772275 
L 111.866091 57.665252 
L 111.930614 57.504717 
L 112.257902 57.397694 
L 112.258729 57.290671 
L 112.958819 57.183647 
L 112.993616 57.076624 
L 113.166409 56.969601 
L 113.229649 56.862578 
L 114.210687 56.755554 
L 114.275238 56.595019 
L 114.515318 56.487996 
L 114.539457 56.380973 
L 114.87293 56.27395 
L 114.87293 56.220438 
L 115.328237 56.113415 
L 115.328237 56.059903 
L 115.998032 55.95288 
L 116.062783 55.845857 
L 116.296308 55.738833 
L 116.296308 55.685322 
L 116.365248 55.685322 
L 116.957981 55.578299 
L 117.057672 55.471275 
L 117.299832 55.364252 
L 117.299832 55.31074 
L 118.017021 55.203717 
L 118.123952 55.096694 
L 118.584275 54.989671 
L 118.602942 54.882647 
L 119.135199 54.775624 
L 119.135199 54.722113 
L 119.684754 54.615089 
L 119.684754 54.561578 
L 120.156307 54.454554 
L 120.173578 54.347531 
L 120.211225 54.347531 
L 120.736813 54.240508 
L 120.736813 54.186996 
L 121.388055 54.079973 
L 121.433768 53.919438 
L 121.446792 53.919438 
L 122.619917 53.812415 
L 122.619917 53.758903 
L 123.072032 53.65188 
L 123.144934 53.544857 
L 123.826129 53.437834 
L 123.890367 53.33081 
L 124.555773 53.223787 
L 124.627876 53.116764 
L 125.064289 53.009741 
L 125.099714 52.902717 
L 125.171333 52.902717 
L 125.389981 52.795694 
L 125.472687 52.688671 
L 125.941532 52.581648 
L 125.941532 52.528136 
L 126.373669 52.421113 
L 126.475812 52.153555 
L 126.768302 52.046531 
L 126.829091 51.939508 
L 127.0462 51.832485 
L 127.0462 51.778973 
L 127.891495 51.67195 
L 127.944761 51.564927 
L 128.139469 51.457903 
L 128.139469 51.404392 
L 128.852783 51.297369 
L 128.867802 51.190345 
L 128.894535 51.190345 
L 129.172975 51.083322 
L 129.172975 51.02981 
L 129.706371 50.922787 
L 129.808798 50.815764 
L 130.108983 50.708741 
L 130.108983 50.655229 
L 130.644517 50.548206 
L 130.644517 50.494694 
L 130.649419 50.494694 
L 130.985998 50.387671 
L 130.985998 50.334159 
L 131.591184 50.227136 
L 131.684891 50.066601 
L 132.023778 49.959578 
L 132.134727 49.745531 
L 132.35138 49.638508 
L 132.462157 49.477973 
L 133.125055 49.37095 
L 133.182881 49.263927 
L 133.193027 49.263927 
L 134.142174 49.156903 
L 134.22183 49.04988 
L 134.645474 48.942857 
L 134.645474 48.889345 
L 134.68164 48.889345 
L 135.126175 48.782322 
L 135.126175 48.72881 
L 136.035394 48.621787 
L 136.145345 48.514764 
L 136.816879 48.407741 
L 136.888299 48.300717 
L 137.597907 48.193694 
L 137.598848 48.086671 
L 138.464178 47.979648 
L 138.498434 47.872624 
L 138.534742 47.872624 
L 138.927152 47.765601 
L 138.970813 47.605066 
L 140.604119 47.498043 
L 140.604119 47.444531 
L 142.872393 47.337508 
L 142.872393 47.283997 
L 143.776539 47.176973 
L 143.776539 47.123462 
L 143.823877 47.123462 
L 144.157064 47.016438 
L 144.157064 46.962927 
L 144.373033 46.855904 
L 144.373033 46.802392 
L 144.771314 46.695369 
L 144.771314 46.641857 
L 145.454845 46.534834 
L 145.454845 46.481322 
L 145.562744 46.481322 
L 146.619021 46.374299 
L 146.633897 46.267276 
L 147.443995 46.160252 
L 147.552037 46.053229 
L 148.315424 45.946206 
L 148.315424 45.892694 
L 149.039055 45.785671 
L 149.039055 45.732159 
L 149.689726 45.625136 
L 149.689726 45.571625 
L 149.920943 45.464601 
L 149.920943 45.41109 
L 149.970703 45.41109 
L 150.426695 45.304066 
L 150.426695 45.250555 
L 150.469957 45.250555 
L 150.924353 45.143532 
L 150.975737 44.982997 
L 151.582776 44.875973 
L 151.664028 44.76895 
L 152.527021 44.661927 
L 152.527021 44.608415 
L 153.041836 44.501392 
L 153.041836 44.44788 
L 153.4693 44.340857 
L 153.4693 44.287346 
L 154.155254 44.180322 
L 154.21174 44.073299 
L 154.703299 43.966276 
L 154.703299 43.912764 
L 154.789653 43.912764 
L 154.939759 43.805741 
L 154.939759 43.752229 
L 155.743958 43.645206 
L 155.743958 43.591694 
L 155.81287 43.591694 
L 156.208158 43.484671 
L 156.208158 43.43116 
L 156.316997 43.43116 
L 156.977843 43.324136 
L 156.981263 43.217113 
L 157.049405 43.217113 
L 157.893959 43.11009 
L 157.893959 43.056578 
L 157.982707 43.056578 
L 160.207946 42.949555 
L 160.207946 42.896043 
L 160.287175 42.896043 
L 160.766251 42.78902 
L 160.766251 42.735508 
L 160.812563 42.735508 
L 161.329971 42.628485 
L 161.329971 42.574974 
L 161.428864 42.574974 
L 161.701263 42.46795 
L 161.701263 42.414439 
L 161.730161 42.414439 
L 162.306934 42.307415 
L 162.306934 42.253904 
L 162.388927 42.253904 
L 163.113298 42.146881 
L 163.113298 42.093369 
L 163.293187 41.986346 
L 163.364664 41.879322 
L 164.410538 41.772299 
L 164.410538 41.718788 
L 165.170021 41.611764 
L 165.19396 41.504741 
L 165.961195 41.397718 
L 165.961195 41.344206 
L 166.384498 41.237183 
L 166.384498 41.183671 
L 168.167169 41.076648 
L 168.203506 40.969625 
L 169.467886 40.862602 
L 169.566836 40.755578 
L 169.89344 40.648555 
L 169.993473 40.48802 
L 170.758912 40.380997 
L 170.826257 40.273974 
L 171.045988 40.16695 
L 171.045988 40.113439 
L 171.060437 40.113439 
L 172.526337 40.006415 
L 172.526337 39.952904 
L 174.209887 39.845881 
L 174.209887 39.792369 
L 175.041787 39.685346 
L 175.149914 39.524811 
L 175.808052 39.417788 
L 175.808052 39.364276 
L 175.850659 39.364276 
L 176.149077 39.257253 
L 176.256036 39.150229 
L 177.847704 39.043206 
L 177.939643 38.882671 
L 178.926039 38.775648 
L 178.926039 38.722136 
L 179.48594 38.615113 
L 179.48594 38.561602 
L 180.246905 38.454578 
L 180.246905 38.401067 
L 180.773575 38.294043 
L 180.773575 38.240532 
L 180.814842 38.240532 
L 181.590456 38.133509 
L 181.590456 38.079997 
L 182.240444 37.972974 
L 182.240444 37.919462 
L 183.816551 37.812439 
L 183.816551 37.758927 
L 184.875364 37.651904 
L 184.882916 37.544881 
L 185.603127 37.437857 
L 185.61541 37.330834 
L 186.756729 37.223811 
L 186.756729 37.170299 
L 186.772973 37.170299 
L 188.032565 37.063276 
L 188.032565 37.009764 
L 188.972364 36.902741 
L 189.070716 36.84923 
L 189.070773 36.84923 
L 190.913236 36.742206 
L 191.013099 36.635183 
L 191.876063 36.52816 
L 191.876063 36.474648 
L 192.243279 36.367625 
L 192.297428 36.260602 
L 192.948442 36.153578 
L 193.029266 36.046555 
L 194.571972 35.939532 
L 194.571972 35.88602 
L 195.304665 35.778997 
L 195.304665 35.725485 
L 196.118725 35.618462 
L 196.160818 35.511439 
L 197.091241 35.404416 
L 197.091241 35.350904 
L 199.516177 35.243881 
L 199.516177 35.190369 
L 199.53188 35.190369 
L 199.846172 35.083346 
L 199.955554 34.976323 
L 202.991746 34.869299 
L 202.991746 34.815788 
L 204.062529 34.708765 
L 204.11437 34.601741 
L 205.112137 34.494718 
L 205.112137 34.441206 
L 208.986898 34.334183 
L 209.093173 34.22716 
L 210.829533 34.120137 
L 210.829533 34.066625 
L 212.094026 33.959602 
L 212.094026 33.90609 
L 214.311486 33.799067 
L 214.311486 33.745555 
L 215.576407 33.638532 
L 215.576407 33.58502 
L 216.163668 33.477997 
L 216.163668 33.424486 
L 217.723159 33.317462 
L 217.723159 33.263951 
L 218.394721 33.156927 
L 218.394721 33.103416 
L 219.503864 32.996393 
L 219.603242 32.889369 
L 222.285842 32.782346 
L 222.285842 32.728834 
L 224.478193 32.621811 
L 224.478193 32.5683 
L 224.954876 32.461276 
L 224.982492 32.354253 
L 226.689212 32.24723 
L 226.798593 32.140207 
L 227.797899 32.033183 
L 227.801917 31.92616 
L 229.182775 31.819137 
L 229.268786 31.712114 
L 231.54712 31.60509 
L 231.599674 31.444555 
L 233.619974 31.337532 
L 233.619974 31.284021 
L 233.71918 31.284021 
L 234.7186 31.176997 
L 234.7186 31.123486 
L 236.116842 31.016462 
L 236.116842 30.962951 
L 237.441897 30.855928 
L 237.441897 30.802416 
L 238.522341 30.695393 
L 238.522341 30.641881 
L 242.397645 30.534858 
L 242.397645 30.481346 
L 243.424339 30.374323 
L 243.424339 30.320811 
L 244.717474 30.213788 
L 244.717474 30.160276 
L 244.769856 30.160276 
L 245.232203 30.053253 
L 245.232203 29.999742 
L 245.80453 29.892718 
L 245.80453 29.839207 
L 247.205707 29.732183 
L 247.205707 29.678672 
L 248.554246 29.571649 
L 248.554246 29.518137 
L 248.596197 29.518137 
L 250.497199 29.411114 
L 250.497199 29.357602 
L 251.972931 29.250579 
L 251.972931 29.197067 
L 254.700958 29.090044 
L 254.700958 29.036532 
L 255.690546 28.929509 
L 255.787872 28.822486 
L 260.123214 28.715462 
L 260.123214 28.661951 
L 261.24199 28.554928 
L 261.295939 28.394393 
L 261.31244 28.394393 
L 263.476406 28.287369 
L 263.476406 28.233858 
L 263.494105 28.233858 
L 264.519972 28.126835 
L 264.519972 28.073323 
L 268.289514 27.9663 
L 268.289514 27.912788 
L 270.137335 27.805765 
L 270.137335 27.752253 
L 272.258894 27.64523 
L 272.272146 27.538207 
L 272.367847 27.538207 
L 275.53756 27.431183 
L 275.648623 27.32416 
L 277.382446 27.217137 
L 277.382446 27.163625 
L 277.391224 27.163625 
L 278.673102 27.056602 
L 278.673102 27.00309 
L 278.756634 27.00309 
L 281.413214 26.896067 
L 281.413214 26.842556 
L 281.520999 26.842556 
L 282.023758 26.789044 
L 282.023758 26.789044 
" clip-path="url(#p4d1723f807)" style="fill: none; stroke: #1f77b4; stroke-width: 1.5; stroke-linecap: round"/>
   </g>
   <g id="patch_3">
    <path d="M 35.655938 265.022801 
L 35.655938 19.642031 
" style="fill: none"/>
   </g>
   <g id="patch_4">
    <path d="M 289.19952 265.022801 
L 289.19952 19.642031 
" style="fill: none"/>
   </g>
   <g id="patch_5">
    <path d="M 35.655938 265.022801 
L 289.19952 265.022801 
" style="fill: none"/>
   </g>
   <g id="patch_6">
    <path d="M 35.655938 19.642031 
L 289.19952 19.642031 
" style="fill: none"/>
   </g>
   <g id="text_15">
    <!-- Model 0: Precision-Recall Curve -->
    <g style="fill: #333333" transform="translate(93.910307 13.642031) scale(0.09 -0.09)">
     <defs>
      <path id="Arial-BoldMT-4d" d="M 453 0 
L 453 4581 
L 1838 4581 
L 2669 1456 
L 3491 4581 
L 4878 4581 
L 4878 0 
L 4019 0 
L 4019 3606 
L 3109 0 
L 2219 0 
L 1313 3606 
L 1313 0 
L 453 0 
z
" transform="scale(0.015625)"/>
      <path id="Arial-BoldMT-64" d="M 3503 0 
L 2688 0 
L 2688 488 
Q 2484 203 2207 64 
Q 1931 -75 1650 -75 
Q 1078 -75 670 386 
Q 263 847 263 1672 
Q 263 2516 659 2955 
Q 1056 3394 1663 3394 
Q 2219 3394 2625 2931 
L 2625 4581 
L 3503 4581 
L 3503 0 
z
M 1159 1731 
Q 1159 1200 1306 963 
Q 1519 619 1900 619 
Q 2203 619 2415 876 
Q 2628 1134 2628 1647 
Q 2628 2219 2422 2470 
Q 2216 2722 1894 2722 
Q 1581 2722 1370 2473 
Q 1159 2225 1159 1731 
z
" transform="scale(0.015625)"/>
      <path id="Arial-BoldMT-30" d="M 1756 4600 
Q 2422 4600 2797 4125 
Q 3244 3563 3244 2259 
Q 3244 959 2794 391 
Q 2422 -78 1756 -78 
Q 1088 -78 678 436 
Q 269 950 269 2269 
Q 269 3563 719 4131 
Q 1091 4600 1756 4600 
z
M 1756 3872 
Q 1597 3872 1472 3770 
Q 1347 3669 1278 3406 
Q 1188 3066 1188 2259 
Q 1188 1453 1269 1151 
Q 1350 850 1473 750 
Q 1597 650 1756 650 
Q 1916 650 2041 751 
Q 2166 853 2234 1116 
Q 2325 1453 2325 2259 
Q 2325 3066 2244 3367 
Q 2163 3669 2039 3770 
Q 1916 3872 1756 3872 
z
" transform="scale(0.015625)"/>
      <path id="Arial-BoldMT-3a" d="M 628 2441 
L 628 3319 
L 1506 3319 
L 1506 2441 
L 628 2441 
z
M 628 0 
L 628 878 
L 1506 878 
L 1506 0 
L 628 0 
z
" transform="scale(0.015625)"/>
      <path id="Arial-BoldMT-2d" d="M 359 1222 
L 359 2100 
L 2084 2100 
L 2084 1222 
L 359 1222 
z
" transform="scale(0.015625)"/>
      <path id="Arial-BoldMT-43" d="M 3397 1684 
L 4294 1400 
Q 4088 650 3608 286 
Q 3128 -78 2391 -78 
Q 1478 -78 890 545 
Q 303 1169 303 2250 
Q 303 3394 893 4026 
Q 1484 4659 2447 4659 
Q 3288 4659 3813 4163 
Q 4125 3869 4281 3319 
L 3366 3100 
Q 3284 3456 3026 3662 
Q 2769 3869 2400 3869 
Q 1891 3869 1573 3503 
Q 1256 3138 1256 2319 
Q 1256 1450 1568 1081 
Q 1881 713 2381 713 
Q 2750 713 3015 947 
Q 3281 1181 3397 1684 
z
" transform="scale(0.015625)"/>
      <path id="Arial-BoldMT-75" d="M 2644 0 
L 2644 497 
Q 2463 231 2167 78 
Q 1872 -75 1544 -75 
Q 1209 -75 943 72 
Q 678 219 559 484 
Q 441 750 441 1219 
L 441 3319 
L 1319 3319 
L 1319 1794 
Q 1319 1094 1367 936 
Q 1416 778 1544 686 
Q 1672 594 1869 594 
Q 2094 594 2272 717 
Q 2450 841 2515 1023 
Q 2581 1206 2581 1919 
L 2581 3319 
L 3459 3319 
L 3459 0 
L 2644 0 
z
" transform="scale(0.015625)"/>
      <path id="Arial-BoldMT-76" d="M 1372 0 
L 34 3319 
L 956 3319 
L 1581 1625 
L 1763 1059 
Q 1834 1275 1853 1344 
Q 1897 1484 1947 1625 
L 2578 3319 
L 3481 3319 
L 2163 0 
L 1372 0 
z
" transform="scale(0.015625)"/>
     </defs>
     <use xlink:href="#Arial-BoldMT-4d"/>
     <use xlink:href="#Arial-BoldMT-6f" transform="translate(83.300781 0)"/>
     <use xlink:href="#Arial-BoldMT-64" transform="translate(144.384766 0)"/>
     <use xlink:href="#Arial-BoldMT-65" transform="translate(205.46875 0)"/>
     <use xlink:href="#Arial-BoldMT-6c" transform="translate(261.083984 0)"/>
     <use xlink:href="#Arial-BoldMT-20" transform="translate(288.867188 0)"/>
     <use xlink:href="#Arial-BoldMT-30" transform="translate(316.650391 0)"/>
     <use xlink:href="#Arial-BoldMT-3a" transform="translate(372.265625 0)"/>
     <use xlink:href="#Arial-BoldMT-20" transform="translate(405.566406 0)"/>
     <use xlink:href="#Arial-BoldMT-50" transform="translate(433.349609 0)"/>
     <use xlink:href="#Arial-BoldMT-72" transform="translate(500.048828 0)"/>
     <use xlink:href="#Arial-BoldMT-65" transform="translate(538.964844 0)"/>
     <use xlink:href="#Arial-BoldMT-63" transform="translate(594.580078 0)"/>
     <use xlink:href="#Arial-BoldMT-69" transform="translate(650.195312 0)"/>
     <use xlink:href="#Arial-BoldMT-73" transform="translate(677.978516 0)"/>
     <use xlink:href="#Arial-BoldMT-69" transform="translate(733.59375 0)"/>
     <use xlink:href="#Arial-BoldMT-6f" transform="translate(761.376953 0)"/>
     <use xlink:href="#Arial-BoldMT-6e" transform="translate(822.460938 0)"/>
     <use xlink:href="#Arial-BoldMT-2d" transform="translate(883.544922 0)"/>
     <use xlink:href="#Arial-BoldMT-52" transform="translate(916.845703 0)"/>
     <use xlink:href="#Arial-BoldMT-65" transform="translate(989.0625 0)"/>
     <use xlink:href="#Arial-BoldMT-63" transform="translate(1044.677734 0)"/>
     <use xlink:href="#Arial-BoldMT-61" transform="translate(1100.292969 0)"/>
     <use xlink:href="#Arial-BoldMT-6c" transform="translate(1155.908203 0)"/>
     <use xlink:href="#Arial-BoldMT-6c" transform="translate(1183.691406 0)"/>
     <use xlink:href="#Arial-BoldMT-20" transform="translate(1211.474609 0)"/>
     <use xlink:href="#Arial-BoldMT-43" transform="translate(1239.257812 0)"/>
     <use xlink:href="#Arial-BoldMT-75" transform="translate(1311.474609 0)"/>
     <use xlink:href="#Arial-BoldMT-72" transform="translate(1372.558594 0)"/>
     <use xlink:href="#Arial-BoldMT-76" transform="translate(1411.474609 0)"/>
     <use xlink:href="#Arial-BoldMT-65" transform="translate(1467.089844 0)"/>
    </g>
   </g>
   <g id="legend_1">
    <g id="patch_7">
     <path d="M 164.573426 260.522801 
L 282.89952 260.522801 
Q 284.69952 260.522801 284.69952 258.722801 
L 284.69952 246.89202 
Q 284.69952 245.09202 282.89952 245.09202 
L 164.573426 245.09202 
Q 162.773426 245.09202 162.773426 246.89202 
L 162.773426 258.722801 
Q 162.773426 260.522801 164.573426 260.522801 
z
" style="fill: #ffffff; opacity: 0.8; stroke: #cccccc; stroke-width: 0.75; stroke-linejoin: miter"/>
    </g>
    <g id="line2d_26">
     <path d="M 166.373426 251.984051 
L 175.373426 251.984051 
L 184.373426 251.984051 
" style="fill: none; stroke: #1f77b4; stroke-width: 1.5; stroke-linecap: round"/>
    </g>
    <g id="text_16">
     <!-- Precision-Recall curve -->
     <g style="fill: #333333" transform="translate(191.573426 255.134051) scale(0.09 -0.09)">
      <defs>
       <path id="ArialMT-50" d="M 494 0 
L 494 4581 
L 2222 4581 
Q 2678 4581 2919 4538 
Q 3256 4481 3484 4323 
Q 3713 4166 3852 3881 
Q 3991 3597 3991 3256 
Q 3991 2672 3619 2267 
Q 3247 1863 2275 1863 
L 1100 1863 
L 1100 0 
L 494 0 
z
M 1100 2403 
L 2284 2403 
Q 2872 2403 3119 2622 
Q 3366 2841 3366 3238 
Q 3366 3525 3220 3729 
Q 3075 3934 2838 4000 
Q 2684 4041 2272 4041 
L 1100 4041 
L 1100 2403 
z
" transform="scale(0.015625)"/>
       <path id="ArialMT-72" d="M 416 0 
L 416 3319 
L 922 3319 
L 922 2816 
Q 1116 3169 1280 3281 
Q 1444 3394 1641 3394 
Q 1925 3394 2219 3213 
L 2025 2691 
Q 1819 2813 1613 2813 
Q 1428 2813 1281 2702 
Q 1134 2591 1072 2394 
Q 978 2094 978 1738 
L 978 0 
L 416 0 
z
" transform="scale(0.015625)"/>
       <path id="ArialMT-65" d="M 2694 1069 
L 3275 997 
Q 3138 488 2766 206 
Q 2394 -75 1816 -75 
Q 1088 -75 661 373 
Q 234 822 234 1631 
Q 234 2469 665 2931 
Q 1097 3394 1784 3394 
Q 2450 3394 2872 2941 
Q 3294 2488 3294 1666 
Q 3294 1616 3291 1516 
L 816 1516 
Q 847 969 1125 678 
Q 1403 388 1819 388 
Q 2128 388 2347 550 
Q 2566 713 2694 1069 
z
M 847 1978 
L 2700 1978 
Q 2663 2397 2488 2606 
Q 2219 2931 1791 2931 
Q 1403 2931 1139 2672 
Q 875 2413 847 1978 
z
" transform="scale(0.015625)"/>
       <path id="ArialMT-63" d="M 2588 1216 
L 3141 1144 
Q 3050 572 2676 248 
Q 2303 -75 1759 -75 
Q 1078 -75 664 370 
Q 250 816 250 1647 
Q 250 2184 428 2587 
Q 606 2991 970 3192 
Q 1334 3394 1763 3394 
Q 2303 3394 2647 3120 
Q 2991 2847 3088 2344 
L 2541 2259 
Q 2463 2594 2264 2762 
Q 2066 2931 1784 2931 
Q 1359 2931 1093 2626 
Q 828 2322 828 1663 
Q 828 994 1084 691 
Q 1341 388 1753 388 
Q 2084 388 2306 591 
Q 2528 794 2588 1216 
z
" transform="scale(0.015625)"/>
       <path id="ArialMT-69" d="M 425 3934 
L 425 4581 
L 988 4581 
L 988 3934 
L 425 3934 
z
M 425 0 
L 425 3319 
L 988 3319 
L 988 0 
L 425 0 
z
" transform="scale(0.015625)"/>
       <path id="ArialMT-73" d="M 197 991 
L 753 1078 
Q 800 744 1014 566 
Q 1228 388 1613 388 
Q 2000 388 2187 545 
Q 2375 703 2375 916 
Q 2375 1106 2209 1216 
Q 2094 1291 1634 1406 
Q 1016 1563 777 1677 
Q 538 1791 414 1992 
Q 291 2194 291 2438 
Q 291 2659 392 2848 
Q 494 3038 669 3163 
Q 800 3259 1026 3326 
Q 1253 3394 1513 3394 
Q 1903 3394 2198 3281 
Q 2494 3169 2634 2976 
Q 2775 2784 2828 2463 
L 2278 2388 
Q 2241 2644 2061 2787 
Q 1881 2931 1553 2931 
Q 1166 2931 1000 2803 
Q 834 2675 834 2503 
Q 834 2394 903 2306 
Q 972 2216 1119 2156 
Q 1203 2125 1616 2013 
Q 2213 1853 2448 1751 
Q 2684 1650 2818 1456 
Q 2953 1263 2953 975 
Q 2953 694 2789 445 
Q 2625 197 2315 61 
Q 2006 -75 1616 -75 
Q 969 -75 630 194 
Q 291 463 197 991 
z
" transform="scale(0.015625)"/>
       <path id="ArialMT-6f" d="M 213 1659 
Q 213 2581 725 3025 
Q 1153 3394 1769 3394 
Q 2453 3394 2887 2945 
Q 3322 2497 3322 1706 
Q 3322 1066 3130 698 
Q 2938 331 2570 128 
Q 2203 -75 1769 -75 
Q 1072 -75 642 372 
Q 213 819 213 1659 
z
M 791 1659 
Q 791 1022 1069 705 
Q 1347 388 1769 388 
Q 2188 388 2466 706 
Q 2744 1025 2744 1678 
Q 2744 2294 2464 2611 
Q 2184 2928 1769 2928 
Q 1347 2928 1069 2612 
Q 791 2297 791 1659 
z
" transform="scale(0.015625)"/>
       <path id="ArialMT-6e" d="M 422 0 
L 422 3319 
L 928 3319 
L 928 2847 
Q 1294 3394 1984 3394 
Q 2284 3394 2536 3286 
Q 2788 3178 2913 3003 
Q 3038 2828 3088 2588 
Q 3119 2431 3119 2041 
L 3119 0 
L 2556 0 
L 2556 2019 
Q 2556 2363 2490 2533 
Q 2425 2703 2258 2804 
Q 2091 2906 1866 2906 
Q 1506 2906 1245 2678 
Q 984 2450 984 1813 
L 984 0 
L 422 0 
z
" transform="scale(0.015625)"/>
       <path id="ArialMT-2d" d="M 203 1375 
L 203 1941 
L 1931 1941 
L 1931 1375 
L 203 1375 
z
" transform="scale(0.015625)"/>
       <path id="ArialMT-52" d="M 503 0 
L 503 4581 
L 2534 4581 
Q 3147 4581 3465 4457 
Q 3784 4334 3975 4021 
Q 4166 3709 4166 3331 
Q 4166 2844 3850 2509 
Q 3534 2175 2875 2084 
Q 3116 1969 3241 1856 
Q 3506 1613 3744 1247 
L 4541 0 
L 3778 0 
L 3172 953 
Q 2906 1366 2734 1584 
Q 2563 1803 2427 1890 
Q 2291 1978 2150 2013 
Q 2047 2034 1813 2034 
L 1109 2034 
L 1109 0 
L 503 0 
z
M 1109 2559 
L 2413 2559 
Q 2828 2559 3062 2645 
Q 3297 2731 3419 2920 
Q 3541 3109 3541 3331 
Q 3541 3656 3305 3865 
Q 3069 4075 2559 4075 
L 1109 4075 
L 1109 2559 
z
" transform="scale(0.015625)"/>
       <path id="ArialMT-61" d="M 2588 409 
Q 2275 144 1986 34 
Q 1697 -75 1366 -75 
Q 819 -75 525 192 
Q 231 459 231 875 
Q 231 1119 342 1320 
Q 453 1522 633 1644 
Q 813 1766 1038 1828 
Q 1203 1872 1538 1913 
Q 2219 1994 2541 2106 
Q 2544 2222 2544 2253 
Q 2544 2597 2384 2738 
Q 2169 2928 1744 2928 
Q 1347 2928 1158 2789 
Q 969 2650 878 2297 
L 328 2372 
Q 403 2725 575 2942 
Q 747 3159 1072 3276 
Q 1397 3394 1825 3394 
Q 2250 3394 2515 3294 
Q 2781 3194 2906 3042 
Q 3031 2891 3081 2659 
Q 3109 2516 3109 2141 
L 3109 1391 
Q 3109 606 3145 398 
Q 3181 191 3288 0 
L 2700 0 
Q 2613 175 2588 409 
z
M 2541 1666 
Q 2234 1541 1622 1453 
Q 1275 1403 1131 1340 
Q 988 1278 909 1158 
Q 831 1038 831 891 
Q 831 666 1001 516 
Q 1172 366 1500 366 
Q 1825 366 2078 508 
Q 2331 650 2450 897 
Q 2541 1088 2541 1459 
L 2541 1666 
z
" transform="scale(0.015625)"/>
       <path id="ArialMT-6c" d="M 409 0 
L 409 4581 
L 972 4581 
L 972 0 
L 409 0 
z
" transform="scale(0.015625)"/>
       <path id="ArialMT-20" transform="scale(0.015625)"/>
       <path id="ArialMT-75" d="M 2597 0 
L 2597 488 
Q 2209 -75 1544 -75 
Q 1250 -75 995 37 
Q 741 150 617 320 
Q 494 491 444 738 
Q 409 903 409 1263 
L 409 3319 
L 972 3319 
L 972 1478 
Q 972 1038 1006 884 
Q 1059 663 1231 536 
Q 1403 409 1656 409 
Q 1909 409 2131 539 
Q 2353 669 2445 892 
Q 2538 1116 2538 1541 
L 2538 3319 
L 3100 3319 
L 3100 0 
L 2597 0 
z
" transform="scale(0.015625)"/>
       <path id="ArialMT-76" d="M 1344 0 
L 81 3319 
L 675 3319 
L 1388 1331 
Q 1503 1009 1600 663 
Q 1675 925 1809 1294 
L 2547 3319 
L 3125 3319 
L 1869 0 
L 1344 0 
z
" transform="scale(0.015625)"/>
      </defs>
      <use xlink:href="#ArialMT-50"/>
      <use xlink:href="#ArialMT-72" transform="translate(66.699219 0)"/>
      <use xlink:href="#ArialMT-65" transform="translate(100 0)"/>
      <use xlink:href="#ArialMT-63" transform="translate(155.615234 0)"/>
      <use xlink:href="#ArialMT-69" transform="translate(205.615234 0)"/>
      <use xlink:href="#ArialMT-73" transform="translate(227.832031 0)"/>
      <use xlink:href="#ArialMT-69" transform="translate(277.832031 0)"/>
      <use xlink:href="#ArialMT-6f" transform="translate(300.048828 0)"/>
      <use xlink:href="#ArialMT-6e" transform="translate(355.664062 0)"/>
      <use xlink:href="#ArialMT-2d" transform="translate(411.279297 0)"/>
      <use xlink:href="#ArialMT-52" transform="translate(444.580078 0)"/>
      <use xlink:href="#ArialMT-65" transform="translate(516.796875 0)"/>
      <use xlink:href="#ArialMT-63" transform="translate(572.412109 0)"/>
      <use xlink:href="#ArialMT-61" transform="translate(622.412109 0)"/>
      <use xlink:href="#ArialMT-6c" transform="translate(678.027344 0)"/>
      <use xlink:href="#ArialMT-6c" transform="translate(700.244141 0)"/>
      <use xlink:href="#ArialMT-20" transform="translate(722.460938 0)"/>
      <use xlink:href="#ArialMT-63" transform="translate(750.244141 0)"/>
      <use xlink:href="#ArialMT-75" transform="translate(800.244141 0)"/>
      <use xlink:href="#ArialMT-72" transform="translate(855.859375 0)"/>
      <use xlink:href="#ArialMT-76" transform="translate(889.160156 0)"/>
      <use xlink:href="#ArialMT-65" transform="translate(939.160156 0)"/>
     </g>
    </g>
   </g>
  </g>
 </g>
 <defs>
  <clipPath id="p4d1723f807">
   <rect x="35.655938" y="19.642031" width="253.543583" height="245.38077"/>
  </clipPath>
 </defs>
</svg>
