<?xml version="1.0" encoding="utf-8" standalone="no"?>
<!DOCTYPE svg PUBLIC "-//W3C//DTD SVG 1.1//EN"
  "http://www.w3.org/Graphics/SVG/1.1/DTD/svg11.dtd">
<svg xmlns:xlink="http://www.w3.org/1999/xlink" width="296.39952pt" height="296.39952pt" viewBox="0 0 296.39952 296.39952" xmlns="http://www.w3.org/2000/svg" version="1.1">
 <metadata>
  <rdf:RDF xmlns:dc="http://purl.org/dc/elements/1.1/" xmlns:cc="http://creativecommons.org/ns#" xmlns:rdf="http://www.w3.org/1999/02/22-rdf-syntax-ns#">
   <cc:Work>
    <dc:type rdf:resource="http://purl.org/dc/dcmitype/StillImage"/>
    <dc:date>2026-01-03T06:08:21.868474</dc:date>
    <dc:format>image/svg+xml</dc:format>
    <dc:creator>
     <cc:Agent>
      <dc:title>Matplotlib v3.10.8, https://matplotlib.org/</dc:title>
     </cc:Agent>
    </dc:creator>
   </cc:Work>
  </rdf:RDF>
 </metadata>
 <defs>
  <style type="text/css">*{stroke-linejoin: round; stroke-linecap: butt}</style>
 </defs>
 <g id="figure_1">
  <g id="patch_1">
   <path d="M 0 296.39952 
L 296.39952 296.39952 
L 296.39952 0 
L 0 0 
z
" style="fill: #ffffff"/>
  </g>
  <g id="axes_1">
   <g id="patch_2">
    <path d="M 35.655938 265.022801 
L 289.19952 265.022801 
L 289.19952 19.751719 
L 35.655938 19.751719 
z
" style="fill: #ffffff"/>
   </g>
   <g id="matplotlib.axis_1">
    <g id="xtick_1">
     <g id="line2d_1">
      <path d="M 42.831699 265.022801 
L 42.831699 19.751719 
" clip-path="url(#pefbd0a9ce1)" style="fill: none; stroke: #c0c0c0; stroke-width: 0.25; stroke-linecap: round"/>
     </g>
     <g id="line2d_2"/>
     <g id="text_1">
      <!-- 0.0 -->
      <g style="fill: #333333" transform="translate(36.576699 274.964832) scale(0.09 -0.09)">
       <defs>
        <path id="ArialMT-30" d="M 266 2259 
Q 266 3072 433 3567 
Q 600 4063 929 4331 
Q 1259 4600 1759 4600 
Q 2128 4600 2406 4451 
Q 2684 4303 2865 4023 
Q 3047 3744 3150 3342 
Q 3253 2941 3253 2259 
Q 3253 1453 3087 958 
Q 2922 463 2592 192 
Q 2263 -78 1759 -78 
Q 1097 -78 719 397 
Q 266 969 266 2259 
z
M 844 2259 
Q 844 1131 1108 757 
Q 1372 384 1759 384 
Q 2147 384 2411 759 
Q 2675 1134 2675 2259 
Q 2675 3391 2411 3762 
Q 2147 4134 1753 4134 
Q 1366 4134 1134 3806 
Q 844 3388 844 2259 
z
" transform="scale(0.015625)"/>
        <path id="ArialMT-2e" d="M 581 0 
L 581 641 
L 1222 641 
L 1222 0 
L 581 0 
z
" transform="scale(0.015625)"/>
       </defs>
       <use xlink:href="#ArialMT-30"/>
       <use xlink:href="#ArialMT-2e" transform="translate(55.615234 0)"/>
       <use xlink:href="#ArialMT-30" transform="translate(83.398438 0)"/>
      </g>
     </g>
    </g>
    <g id="xtick_2">
     <g id="line2d_3">
      <path d="M 90.670111 265.022801 
L 90.670111 19.751719 
" clip-path="url(#pefbd0a9ce1)" style="fill: none; stroke: #c0c0c0; stroke-width: 0.25; stroke-linecap: round"/>
     </g>
     <g id="line2d_4"/>
     <g id="text_2">
      <!-- 0.2 -->
      <g style="fill: #333333" transform="translate(84.415111 274.964832) scale(0.09 -0.09)">
       <defs>
        <path id="ArialMT-32" d="M 3222 541 
L 3222 0 
L 194 0 
Q 188 203 259 391 
Q 375 700 629 1000 
Q 884 1300 1366 1694 
Q 2113 2306 2375 2664 
Q 2638 3022 2638 3341 
Q 2638 3675 2398 3904 
Q 2159 4134 1775 4134 
Q 1369 4134 1125 3890 
Q 881 3647 878 3216 
L 300 3275 
Q 359 3922 746 4261 
Q 1134 4600 1788 4600 
Q 2447 4600 2831 4234 
Q 3216 3869 3216 3328 
Q 3216 3053 3103 2787 
Q 2991 2522 2730 2228 
Q 2469 1934 1863 1422 
Q 1356 997 1212 845 
Q 1069 694 975 541 
L 3222 541 
z
" transform="scale(0.015625)"/>
       </defs>
       <use xlink:href="#ArialMT-30"/>
       <use xlink:href="#ArialMT-2e" transform="translate(55.615234 0)"/>
       <use xlink:href="#ArialMT-32" transform="translate(83.398438 0)"/>
      </g>
     </g>
    </g>
    <g id="xtick_3">
     <g id="line2d_5">
      <path d="M 138.508523 265.022801 
L 138.508523 19.751719 
" clip-path="url(#pefbd0a9ce1)" style="fill: none; stroke: #c0c0c0; stroke-width: 0.25; stroke-linecap: round"/>
     </g>
     <g id="line2d_6"/>
     <g id="text_3">
      <!-- 0.4 -->
      <g style="fill: #333333" transform="translate(132.253523 274.964832) scale(0.09 -0.09)">
       <defs>
        <path id="ArialMT-34" d="M 2069 0 
L 2069 1097 
L 81 1097 
L 81 1613 
L 2172 4581 
L 2631 4581 
L 2631 1613 
L 3250 1613 
L 3250 1097 
L 2631 1097 
L 2631 0 
L 2069 0 
z
M 2069 1613 
L 2069 3678 
L 634 1613 
L 2069 1613 
z
" transform="scale(0.015625)"/>
       </defs>
       <use xlink:href="#ArialMT-30"/>
       <use xlink:href="#ArialMT-2e" transform="translate(55.615234 0)"/>
       <use xlink:href="#ArialMT-34" transform="translate(83.398438 0)"/>
      </g>
     </g>
    </g>
    <g id="xtick_4">
     <g id="line2d_7">
      <path d="M 186.346935 265.022801 
L 186.346935 19.751719 
" clip-path="url(#pefbd0a9ce1)" style="fill: none; stroke: #c0c0c0; stroke-width: 0.25; stroke-linecap: round"/>
     </g>
     <g id="line2d_8"/>
     <g id="text_4">
      <!-- 0.6 -->
      <g style="fill: #333333" transform="translate(180.091935 274.964832) scale(0.09 -0.09)">
       <defs>
        <path id="ArialMT-36" d="M 3184 3459 
L 2625 3416 
Q 2550 3747 2413 3897 
Q 2184 4138 1850 4138 
Q 1581 4138 1378 3988 
Q 1113 3794 959 3422 
Q 806 3050 800 2363 
Q 1003 2672 1297 2822 
Q 1591 2972 1913 2972 
Q 2475 2972 2870 2558 
Q 3266 2144 3266 1488 
Q 3266 1056 3080 686 
Q 2894 316 2569 119 
Q 2244 -78 1831 -78 
Q 1128 -78 684 439 
Q 241 956 241 2144 
Q 241 3472 731 4075 
Q 1159 4600 1884 4600 
Q 2425 4600 2770 4297 
Q 3116 3994 3184 3459 
z
M 888 1484 
Q 888 1194 1011 928 
Q 1134 663 1356 523 
Q 1578 384 1822 384 
Q 2178 384 2434 671 
Q 2691 959 2691 1453 
Q 2691 1928 2437 2201 
Q 2184 2475 1800 2475 
Q 1419 2475 1153 2201 
Q 888 1928 888 1484 
z
" transform="scale(0.015625)"/>
       </defs>
       <use xlink:href="#ArialMT-30"/>
       <use xlink:href="#ArialMT-2e" transform="translate(55.615234 0)"/>
       <use xlink:href="#ArialMT-36" transform="translate(83.398438 0)"/>
      </g>
     </g>
    </g>
    <g id="xtick_5">
     <g id="line2d_9">
      <path d="M 234.185346 265.022801 
L 234.185346 19.751719 
" clip-path="url(#pefbd0a9ce1)" style="fill: none; stroke: #c0c0c0; stroke-width: 0.25; stroke-linecap: round"/>
     </g>
     <g id="line2d_10"/>
     <g id="text_5">
      <!-- 0.8 -->
      <g style="fill: #333333" transform="translate(227.930346 274.964832) scale(0.09 -0.09)">
       <defs>
        <path id="ArialMT-38" d="M 1131 2484 
Q 781 2613 612 2850 
Q 444 3088 444 3419 
Q 444 3919 803 4259 
Q 1163 4600 1759 4600 
Q 2359 4600 2725 4251 
Q 3091 3903 3091 3403 
Q 3091 3084 2923 2848 
Q 2756 2613 2416 2484 
Q 2838 2347 3058 2040 
Q 3278 1734 3278 1309 
Q 3278 722 2862 322 
Q 2447 -78 1769 -78 
Q 1091 -78 675 323 
Q 259 725 259 1325 
Q 259 1772 486 2073 
Q 713 2375 1131 2484 
z
M 1019 3438 
Q 1019 3113 1228 2906 
Q 1438 2700 1772 2700 
Q 2097 2700 2305 2904 
Q 2513 3109 2513 3406 
Q 2513 3716 2298 3927 
Q 2084 4138 1766 4138 
Q 1444 4138 1231 3931 
Q 1019 3725 1019 3438 
z
M 838 1322 
Q 838 1081 952 856 
Q 1066 631 1291 507 
Q 1516 384 1775 384 
Q 2178 384 2440 643 
Q 2703 903 2703 1303 
Q 2703 1709 2433 1975 
Q 2163 2241 1756 2241 
Q 1359 2241 1098 1978 
Q 838 1716 838 1322 
z
" transform="scale(0.015625)"/>
       </defs>
       <use xlink:href="#ArialMT-30"/>
       <use xlink:href="#ArialMT-2e" transform="translate(55.615234 0)"/>
       <use xlink:href="#ArialMT-38" transform="translate(83.398438 0)"/>
      </g>
     </g>
    </g>
    <g id="xtick_6">
     <g id="line2d_11">
      <path d="M 282.023758 265.022801 
L 282.023758 19.751719 
" clip-path="url(#pefbd0a9ce1)" style="fill: none; stroke: #c0c0c0; stroke-width: 0.25; stroke-linecap: round"/>
     </g>
     <g id="line2d_12"/>
     <g id="text_6">
      <!-- 1.0 -->
      <g style="fill: #333333" transform="translate(275.768758 274.964832) scale(0.09 -0.09)">
       <defs>
        <path id="ArialMT-31" d="M 2384 0 
L 1822 0 
L 1822 3584 
Q 1619 3391 1289 3197 
Q 959 3003 697 2906 
L 697 3450 
Q 1169 3672 1522 3987 
Q 1875 4303 2022 4600 
L 2384 4600 
L 2384 0 
z
" transform="scale(0.015625)"/>
       </defs>
       <use xlink:href="#ArialMT-31"/>
       <use xlink:href="#ArialMT-2e" transform="translate(55.615234 0)"/>
       <use xlink:href="#ArialMT-30" transform="translate(83.398438 0)"/>
      </g>
     </g>
    </g>
    <g id="text_7">
     <!-- False Positive Rate (FPR) -->
     <g style="fill: #333333" transform="translate(108.165463 287.305301) scale(0.09 -0.09)">
      <defs>
       <path id="Arial-BoldMT-46" d="M 472 0 
L 472 4581 
L 3613 4581 
L 3613 3806 
L 1397 3806 
L 1397 2722 
L 3309 2722 
L 3309 1947 
L 1397 1947 
L 1397 0 
L 472 0 
z
" transform="scale(0.015625)"/>
       <path id="Arial-BoldMT-61" d="M 1116 2306 
L 319 2450 
Q 453 2931 781 3162 
Q 1109 3394 1756 3394 
Q 2344 3394 2631 3255 
Q 2919 3116 3036 2902 
Q 3153 2688 3153 2116 
L 3144 1091 
Q 3144 653 3186 445 
Q 3228 238 3344 0 
L 2475 0 
Q 2441 88 2391 259 
Q 2369 338 2359 363 
Q 2134 144 1878 34 
Q 1622 -75 1331 -75 
Q 819 -75 523 203 
Q 228 481 228 906 
Q 228 1188 362 1408 
Q 497 1628 739 1745 
Q 981 1863 1438 1950 
Q 2053 2066 2291 2166 
L 2291 2253 
Q 2291 2506 2166 2614 
Q 2041 2722 1694 2722 
Q 1459 2722 1328 2630 
Q 1197 2538 1116 2306 
z
M 2291 1594 
Q 2122 1538 1756 1459 
Q 1391 1381 1278 1306 
Q 1106 1184 1106 997 
Q 1106 813 1243 678 
Q 1381 544 1594 544 
Q 1831 544 2047 700 
Q 2206 819 2256 991 
Q 2291 1103 2291 1419 
L 2291 1594 
z
" transform="scale(0.015625)"/>
       <path id="Arial-BoldMT-6c" d="M 459 0 
L 459 4581 
L 1338 4581 
L 1338 0 
L 459 0 
z
" transform="scale(0.015625)"/>
       <path id="Arial-BoldMT-73" d="M 150 947 
L 1031 1081 
Q 1088 825 1259 692 
Q 1431 559 1741 559 
Q 2081 559 2253 684 
Q 2369 772 2369 919 
Q 2369 1019 2306 1084 
Q 2241 1147 2013 1200 
Q 950 1434 666 1628 
Q 272 1897 272 2375 
Q 272 2806 612 3100 
Q 953 3394 1669 3394 
Q 2350 3394 2681 3172 
Q 3013 2950 3138 2516 
L 2309 2363 
Q 2256 2556 2107 2659 
Q 1959 2763 1684 2763 
Q 1338 2763 1188 2666 
Q 1088 2597 1088 2488 
Q 1088 2394 1175 2328 
Q 1294 2241 1995 2081 
Q 2697 1922 2975 1691 
Q 3250 1456 3250 1038 
Q 3250 581 2869 253 
Q 2488 -75 1741 -75 
Q 1063 -75 667 200 
Q 272 475 150 947 
z
" transform="scale(0.015625)"/>
       <path id="Arial-BoldMT-65" d="M 2381 1056 
L 3256 909 
Q 3088 428 2723 176 
Q 2359 -75 1813 -75 
Q 947 -75 531 491 
Q 203 944 203 1634 
Q 203 2459 634 2926 
Q 1066 3394 1725 3394 
Q 2466 3394 2894 2905 
Q 3322 2416 3303 1406 
L 1103 1406 
Q 1113 1016 1316 798 
Q 1519 581 1822 581 
Q 2028 581 2168 693 
Q 2309 806 2381 1056 
z
M 2431 1944 
Q 2422 2325 2234 2523 
Q 2047 2722 1778 2722 
Q 1491 2722 1303 2513 
Q 1116 2303 1119 1944 
L 2431 1944 
z
" transform="scale(0.015625)"/>
       <path id="Arial-BoldMT-20" transform="scale(0.015625)"/>
       <path id="Arial-BoldMT-50" d="M 466 0 
L 466 4581 
L 1950 4581 
Q 2794 4581 3050 4513 
Q 3444 4409 3709 4064 
Q 3975 3719 3975 3172 
Q 3975 2750 3822 2462 
Q 3669 2175 3433 2011 
Q 3197 1847 2953 1794 
Q 2622 1728 1994 1728 
L 1391 1728 
L 1391 0 
L 466 0 
z
M 1391 3806 
L 1391 2506 
L 1897 2506 
Q 2444 2506 2628 2578 
Q 2813 2650 2917 2803 
Q 3022 2956 3022 3159 
Q 3022 3409 2875 3571 
Q 2728 3734 2503 3775 
Q 2338 3806 1838 3806 
L 1391 3806 
z
" transform="scale(0.015625)"/>
       <path id="Arial-BoldMT-6f" d="M 256 1706 
Q 256 2144 472 2553 
Q 688 2963 1083 3178 
Q 1478 3394 1966 3394 
Q 2719 3394 3200 2905 
Q 3681 2416 3681 1669 
Q 3681 916 3195 420 
Q 2709 -75 1972 -75 
Q 1516 -75 1102 131 
Q 688 338 472 736 
Q 256 1134 256 1706 
z
M 1156 1659 
Q 1156 1166 1390 903 
Q 1625 641 1969 641 
Q 2313 641 2545 903 
Q 2778 1166 2778 1666 
Q 2778 2153 2545 2415 
Q 2313 2678 1969 2678 
Q 1625 2678 1390 2415 
Q 1156 2153 1156 1659 
z
" transform="scale(0.015625)"/>
       <path id="Arial-BoldMT-69" d="M 459 3769 
L 459 4581 
L 1338 4581 
L 1338 3769 
L 459 3769 
z
M 459 0 
L 459 3319 
L 1338 3319 
L 1338 0 
L 459 0 
z
" transform="scale(0.015625)"/>
       <path id="Arial-BoldMT-74" d="M 1981 3319 
L 1981 2619 
L 1381 2619 
L 1381 1281 
Q 1381 875 1398 808 
Q 1416 741 1477 697 
Q 1538 653 1625 653 
Q 1747 653 1978 738 
L 2053 56 
Q 1747 -75 1359 -75 
Q 1122 -75 931 4 
Q 741 84 652 211 
Q 563 338 528 553 
Q 500 706 500 1172 
L 500 2619 
L 97 2619 
L 97 3319 
L 500 3319 
L 500 3978 
L 1381 4491 
L 1381 3319 
L 1981 3319 
z
" transform="scale(0.015625)"/>
       <path id="Arial-BoldMT-76" d="M 1372 0 
L 34 3319 
L 956 3319 
L 1581 1625 
L 1763 1059 
Q 1834 1275 1853 1344 
Q 1897 1484 1947 1625 
L 2578 3319 
L 3481 3319 
L 2163 0 
L 1372 0 
z
" transform="scale(0.015625)"/>
       <path id="Arial-BoldMT-52" d="M 469 0 
L 469 4581 
L 2416 4581 
Q 3150 4581 3483 4457 
Q 3816 4334 4016 4018 
Q 4216 3703 4216 3297 
Q 4216 2781 3912 2445 
Q 3609 2109 3006 2022 
Q 3306 1847 3501 1637 
Q 3697 1428 4028 894 
L 4588 0 
L 3481 0 
L 2813 997 
Q 2456 1531 2325 1670 
Q 2194 1809 2047 1861 
Q 1900 1913 1581 1913 
L 1394 1913 
L 1394 0 
L 469 0 
z
M 1394 2644 
L 2078 2644 
Q 2744 2644 2909 2700 
Q 3075 2756 3169 2893 
Q 3263 3031 3263 3238 
Q 3263 3469 3139 3611 
Q 3016 3753 2791 3791 
Q 2678 3806 2116 3806 
L 1394 3806 
L 1394 2644 
z
" transform="scale(0.015625)"/>
       <path id="Arial-BoldMT-28" d="M 1916 -1347 
L 1313 -1347 
Q 834 -625 584 153 
Q 334 931 334 1659 
Q 334 2563 644 3369 
Q 913 4069 1325 4659 
L 1925 4659 
Q 1497 3713 1336 3048 
Q 1175 2384 1175 1641 
Q 1175 1128 1270 590 
Q 1366 53 1531 -431 
Q 1641 -750 1916 -1347 
z
" transform="scale(0.015625)"/>
       <path id="Arial-BoldMT-29" d="M 216 -1347 
Q 475 -791 581 -494 
Q 688 -197 778 190 
Q 869 578 912 926 
Q 956 1275 956 1641 
Q 956 2384 797 3048 
Q 638 3713 209 4659 
L 806 4659 
Q 1278 3988 1539 3234 
Q 1800 2481 1800 1706 
Q 1800 1053 1594 306 
Q 1359 -531 822 -1347 
L 216 -1347 
z
" transform="scale(0.015625)"/>
      </defs>
      <use xlink:href="#Arial-BoldMT-46"/>
      <use xlink:href="#Arial-BoldMT-61" transform="translate(61.083984 0)"/>
      <use xlink:href="#Arial-BoldMT-6c" transform="translate(116.699219 0)"/>
      <use xlink:href="#Arial-BoldMT-73" transform="translate(144.482422 0)"/>
      <use xlink:href="#Arial-BoldMT-65" transform="translate(200.097656 0)"/>
      <use xlink:href="#Arial-BoldMT-20" transform="translate(255.712891 0)"/>
      <use xlink:href="#Arial-BoldMT-50" transform="translate(283.496094 0)"/>
      <use xlink:href="#Arial-BoldMT-6f" transform="translate(350.195312 0)"/>
      <use xlink:href="#Arial-BoldMT-73" transform="translate(411.279297 0)"/>
      <use xlink:href="#Arial-BoldMT-69" transform="translate(466.894531 0)"/>
      <use xlink:href="#Arial-BoldMT-74" transform="translate(494.677734 0)"/>
      <use xlink:href="#Arial-BoldMT-69" transform="translate(527.978516 0)"/>
      <use xlink:href="#Arial-BoldMT-76" transform="translate(555.761719 0)"/>
      <use xlink:href="#Arial-BoldMT-65" transform="translate(611.376953 0)"/>
      <use xlink:href="#Arial-BoldMT-20" transform="translate(666.992188 0)"/>
      <use xlink:href="#Arial-BoldMT-52" transform="translate(694.775391 0)"/>
      <use xlink:href="#Arial-BoldMT-61" transform="translate(766.992188 0)"/>
      <use xlink:href="#Arial-BoldMT-74" transform="translate(822.607422 0)"/>
      <use xlink:href="#Arial-BoldMT-65" transform="translate(855.908203 0)"/>
      <use xlink:href="#Arial-BoldMT-20" transform="translate(911.523438 0)"/>
      <use xlink:href="#Arial-BoldMT-28" transform="translate(939.306641 0)"/>
      <use xlink:href="#Arial-BoldMT-46" transform="translate(972.607422 0)"/>
      <use xlink:href="#Arial-BoldMT-50" transform="translate(1033.691406 0)"/>
      <use xlink:href="#Arial-BoldMT-52" transform="translate(1100.390625 0)"/>
      <use xlink:href="#Arial-BoldMT-29" transform="translate(1172.607422 0)"/>
     </g>
    </g>
   </g>
   <g id="matplotlib.axis_2">
    <g id="ytick_1">
     <g id="line2d_13">
      <path d="M 35.655938 265.022801 
L 289.19952 265.022801 
" clip-path="url(#pefbd0a9ce1)" style="fill: none; stroke: #c0c0c0; stroke-width: 0.25; stroke-linecap: round"/>
     </g>
     <g id="line2d_14"/>
     <g id="text_8">
      <!-- 0.0 -->
      <g style="fill: #333333" transform="translate(19.645938 268.243817) scale(0.09 -0.09)">
       <use xlink:href="#ArialMT-30"/>
       <use xlink:href="#ArialMT-2e" transform="translate(55.615234 0)"/>
       <use xlink:href="#ArialMT-30" transform="translate(83.398438 0)"/>
      </g>
     </g>
    </g>
    <g id="ytick_2">
     <g id="line2d_15">
      <path d="M 35.655938 217.397348 
L 289.19952 217.397348 
" clip-path="url(#pefbd0a9ce1)" style="fill: none; stroke: #c0c0c0; stroke-width: 0.25; stroke-linecap: round"/>
     </g>
     <g id="line2d_16"/>
     <g id="text_9">
      <!-- 0.2 -->
      <g style="fill: #333333" transform="translate(19.645938 220.618364) scale(0.09 -0.09)">
       <use xlink:href="#ArialMT-30"/>
       <use xlink:href="#ArialMT-2e" transform="translate(55.615234 0)"/>
       <use xlink:href="#ArialMT-32" transform="translate(83.398438 0)"/>
      </g>
     </g>
    </g>
    <g id="ytick_3">
     <g id="line2d_17">
      <path d="M 35.655938 169.771895 
L 289.19952 169.771895 
" clip-path="url(#pefbd0a9ce1)" style="fill: none; stroke: #c0c0c0; stroke-width: 0.25; stroke-linecap: round"/>
     </g>
     <g id="line2d_18"/>
     <g id="text_10">
      <!-- 0.4 -->
      <g style="fill: #333333" transform="translate(19.645938 172.992911) scale(0.09 -0.09)">
       <use xlink:href="#ArialMT-30"/>
       <use xlink:href="#ArialMT-2e" transform="translate(55.615234 0)"/>
       <use xlink:href="#ArialMT-34" transform="translate(83.398438 0)"/>
      </g>
     </g>
    </g>
    <g id="ytick_4">
     <g id="line2d_19">
      <path d="M 35.655938 122.146443 
L 289.19952 122.146443 
" clip-path="url(#pefbd0a9ce1)" style="fill: none; stroke: #c0c0c0; stroke-width: 0.25; stroke-linecap: round"/>
     </g>
     <g id="line2d_20"/>
     <g id="text_11">
      <!-- 0.6 -->
      <g style="fill: #333333" transform="translate(19.645938 125.367458) scale(0.09 -0.09)">
       <use xlink:href="#ArialMT-30"/>
       <use xlink:href="#ArialMT-2e" transform="translate(55.615234 0)"/>
       <use xlink:href="#ArialMT-36" transform="translate(83.398438 0)"/>
      </g>
     </g>
    </g>
    <g id="ytick_5">
     <g id="line2d_21">
      <path d="M 35.655938 74.52099 
L 289.19952 74.52099 
" clip-path="url(#pefbd0a9ce1)" style="fill: none; stroke: #c0c0c0; stroke-width: 0.25; stroke-linecap: round"/>
     </g>
     <g id="line2d_22"/>
     <g id="text_12">
      <!-- 0.8 -->
      <g style="fill: #333333" transform="translate(19.645938 77.742005) scale(0.09 -0.09)">
       <use xlink:href="#ArialMT-30"/>
       <use xlink:href="#ArialMT-2e" transform="translate(55.615234 0)"/>
       <use xlink:href="#ArialMT-38" transform="translate(83.398438 0)"/>
      </g>
     </g>
    </g>
    <g id="ytick_6">
     <g id="line2d_23">
      <path d="M 35.655938 26.895537 
L 289.19952 26.895537 
" clip-path="url(#pefbd0a9ce1)" style="fill: none; stroke: #c0c0c0; stroke-width: 0.25; stroke-linecap: round"/>
     </g>
     <g id="line2d_24"/>
     <g id="text_13">
      <!-- 1.0 -->
      <g style="fill: #333333" transform="translate(19.645938 30.116552) scale(0.09 -0.09)">
       <use xlink:href="#ArialMT-31"/>
       <use xlink:href="#ArialMT-2e" transform="translate(55.615234 0)"/>
       <use xlink:href="#ArialMT-30" transform="translate(83.398438 0)"/>
      </g>
     </g>
    </g>
    <g id="text_14">
     <!-- True Positive Rate (TPR) -->
     <g style="fill: #333333" transform="translate(13.751719 194.647026) rotate(-90) scale(0.09 -0.09)">
      <defs>
       <path id="Arial-BoldMT-54" d="M 1497 0 
L 1497 3806 
L 138 3806 
L 138 4581 
L 3778 4581 
L 3778 3806 
L 2422 3806 
L 2422 0 
L 1497 0 
z
" transform="scale(0.015625)"/>
       <path id="Arial-BoldMT-72" d="M 1300 0 
L 422 0 
L 422 3319 
L 1238 3319 
L 1238 2847 
Q 1447 3181 1614 3287 
Q 1781 3394 1994 3394 
Q 2294 3394 2572 3228 
L 2300 2463 
Q 2078 2606 1888 2606 
Q 1703 2606 1575 2504 
Q 1447 2403 1373 2137 
Q 1300 1872 1300 1025 
L 1300 0 
z
" transform="scale(0.015625)"/>
       <path id="Arial-BoldMT-75" d="M 2644 0 
L 2644 497 
Q 2463 231 2167 78 
Q 1872 -75 1544 -75 
Q 1209 -75 943 72 
Q 678 219 559 484 
Q 441 750 441 1219 
L 441 3319 
L 1319 3319 
L 1319 1794 
Q 1319 1094 1367 936 
Q 1416 778 1544 686 
Q 1672 594 1869 594 
Q 2094 594 2272 717 
Q 2450 841 2515 1023 
Q 2581 1206 2581 1919 
L 2581 3319 
L 3459 3319 
L 3459 0 
L 2644 0 
z
" transform="scale(0.015625)"/>
      </defs>
      <use xlink:href="#Arial-BoldMT-54"/>
      <use xlink:href="#Arial-BoldMT-72" transform="translate(55.583984 0)"/>
      <use xlink:href="#Arial-BoldMT-75" transform="translate(94.5 0)"/>
      <use xlink:href="#Arial-BoldMT-65" transform="translate(155.583984 0)"/>
      <use xlink:href="#Arial-BoldMT-20" transform="translate(211.199219 0)"/>
      <use xlink:href="#Arial-BoldMT-50" transform="translate(238.982422 0)"/>
      <use xlink:href="#Arial-BoldMT-6f" transform="translate(305.681641 0)"/>
      <use xlink:href="#Arial-BoldMT-73" transform="translate(366.765625 0)"/>
      <use xlink:href="#Arial-BoldMT-69" transform="translate(422.380859 0)"/>
      <use xlink:href="#Arial-BoldMT-74" transform="translate(450.164062 0)"/>
      <use xlink:href="#Arial-BoldMT-69" transform="translate(483.464844 0)"/>
      <use xlink:href="#Arial-BoldMT-76" transform="translate(511.248047 0)"/>
      <use xlink:href="#Arial-BoldMT-65" transform="translate(566.863281 0)"/>
      <use xlink:href="#Arial-BoldMT-20" transform="translate(622.478516 0)"/>
      <use xlink:href="#Arial-BoldMT-52" transform="translate(650.261719 0)"/>
      <use xlink:href="#Arial-BoldMT-61" transform="translate(722.478516 0)"/>
      <use xlink:href="#Arial-BoldMT-74" transform="translate(778.09375 0)"/>
      <use xlink:href="#Arial-BoldMT-65" transform="translate(811.394531 0)"/>
      <use xlink:href="#Arial-BoldMT-20" transform="translate(867.009766 0)"/>
      <use xlink:href="#Arial-BoldMT-28" transform="translate(894.792969 0)"/>
      <use xlink:href="#Arial-BoldMT-54" transform="translate(928.09375 0)"/>
      <use xlink:href="#Arial-BoldMT-50" transform="translate(989.177734 0)"/>
      <use xlink:href="#Arial-BoldMT-52" transform="translate(1055.876953 0)"/>
      <use xlink:href="#Arial-BoldMT-29" transform="translate(1128.09375 0)"/>
     </g>
    </g>
   </g>
   <g id="line2d_25">
    <path d="M 42.831699 265.022801 
L 42.831728 265.022801 
L 42.942619 241.9696 
L 42.943104 241.862625 
L 43.054195 232.502276 
L 43.056019 232.395301 
L 43.166511 225.976776 
L 43.168563 225.869801 
L 43.279227 220.039641 
L 43.284271 219.932666 
L 43.395362 215.974575 
L 43.403427 215.8676 
L 43.513464 212.337411 
L 43.521501 212.230436 
L 43.631822 209.235124 
L 43.641712 209.128149 
L 43.752546 206.132838 
L 43.757363 206.025862 
L 43.866459 203.244501 
L 43.87555 203.137526 
L 43.986641 200.784067 
L 43.996844 200.677092 
L 44.102976 198.37712 
L 44.111098 198.270145 
L 44.215435 196.237612 
L 44.229913 196.130637 
L 44.33499 194.151592 
L 44.35038 194.044616 
L 44.455059 191.905108 
L 44.459276 191.905108 
L 44.470904 191.798133 
L 44.578775 189.979551 
L 44.595162 189.872575 
L 44.702263 188.214456 
L 44.71352 188.107481 
L 44.813411 186.181923 
L 44.831622 186.128436 
L 44.933622 184.684268 
L 44.951035 184.577292 
L 45.062126 183.400563 
L 45.074153 183.293587 
L 45.18379 181.421518 
L 45.197641 181.314542 
L 45.304229 179.870374 
L 45.317595 179.763399 
L 45.426093 177.998305 
L 45.453453 177.891329 
L 45.544252 176.554136 
L 45.576342 176.447161 
L 45.686863 174.628579 
L 45.701541 174.521604 
L 45.80659 173.719288 
L 45.83697 173.612313 
L 45.944812 171.900706 
L 45.959518 171.793731 
L 46.062173 170.617001 
L 46.087965 170.510026 
L 46.191646 169.440272 
L 46.227926 169.333296 
L 46.318241 168.744931 
L 46.350274 168.637956 
L 46.460339 167.996104 
L 46.478636 167.889128 
L 46.58417 166.979837 
L 46.612726 166.872862 
L 46.719172 165.321718 
L 46.76668 165.214743 
L 46.876603 164.038013 
L 46.907553 163.931038 
L 46.99935 162.914772 
L 47.041472 162.807796 
L 47.14903 161.79153 
L 47.162139 161.684554 
L 47.272603 160.400849 
L 47.286027 160.293874 
L 47.396833 159.277608 
L 47.412764 159.170632 
L 47.517585 158.314829 
L 47.519551 158.314829 
L 47.571591 158.207854 
L 47.682255 157.459026 
L 47.696533 157.35205 
L 47.807482 156.496247 
L 47.827574 156.389272 
L 47.937981 155.586956 
L 47.959184 155.479981 
L 48.063635 154.57069 
L 48.100143 154.463714 
L 48.207728 153.714886 
L 48.222406 153.607911 
L 48.330077 152.966058 
L 48.338342 152.859083 
L 48.430879 152.377694 
L 48.431449 152.377694 
L 48.480184 152.270718 
L 48.581898 151.735841 
L 48.617437 151.628866 
L 48.72109 150.773062 
L 48.76173 150.666087 
L 48.866437 149.489358 
L 48.886786 149.382382 
L 48.946036 148.687042 
L 48.99363 148.687042 
L 49.034898 148.580067 
L 49.140745 147.938214 
L 49.199482 147.831239 
L 49.308208 146.921948 
L 49.318353 146.814972 
L 49.41357 146.226607 
L 49.452643 146.119632 
L 49.562281 145.531267 
L 49.602835 145.424292 
L 49.707343 144.461513 
L 49.761207 144.354538 
L 49.866541 143.712685 
L 49.904787 143.60571 
L 50.007842 142.963857 
L 50.036654 142.856882 
L 50.141504 142.21503 
L 50.166555 142.108054 
L 50.259207 141.573177 
L 50.30549 141.466202 
L 50.404298 140.770862 
L 50.437699 140.663886 
L 50.548249 140.075521 
L 50.555972 139.968546 
L 50.651559 139.326693 
L 50.694565 139.219718 
L 50.799215 138.524378 
L 50.855587 138.417403 
L 50.966194 137.722062 
L 51.059188 137.615087 
L 51.157625 137.133698 
L 51.245004 137.026722 
L 51.350481 136.438357 
L 51.374506 136.331382 
L 51.477646 135.849993 
L 51.480239 135.849993 
L 51.512244 135.743017 
L 51.60025 135.261628 
L 51.66939 135.154652 
L 51.773983 134.726751 
L 51.797552 134.619775 
L 51.894593 134.031411 
L 51.955069 133.924435 
L 52.04812 133.282583 
L 52.087449 133.175607 
L 52.190703 132.747706 
L 52.216552 132.64073 
L 52.326275 132.319804 
L 52.36056 132.212829 
L 52.457059 131.998878 
L 52.470368 131.998878 
L 52.509013 131.891902 
L 52.615516 131.089587 
L 52.66425 130.982611 
L 52.773546 130.55471 
L 52.819515 130.447734 
L 52.90755 130.07332 
L 52.938187 129.966345 
L 53.045374 129.538443 
L 53.12597 129.431468 
L 53.233869 128.896591 
L 53.263908 128.789616 
L 53.372234 127.880325 
L 53.396829 127.773349 
L 53.472296 127.398935 
L 53.56928 127.29196 
L 53.667974 126.543132 
L 53.722607 126.436156 
L 53.817767 125.901279 
L 53.820474 125.901279 
L 53.914209 125.794304 
L 54.01353 125.259427 
L 54.050009 125.152452 
L 54.156227 124.831525 
L 54.156455 124.831525 
L 54.185524 124.72455 
L 54.290545 124.189673 
L 54.290915 124.189673 
L 54.336144 124.082697 
L 54.427 123.494333 
L 54.510874 123.387357 
L 54.613444 123.066431 
L 54.633536 122.959456 
L 54.723538 122.424579 
L 54.806813 122.317603 
L 54.902714 121.943189 
L 54.958687 121.836214 
L 55.061798 121.140874 
L 55.139317 121.033898 
L 55.243197 120.76646 
L 55.256107 120.659484 
L 55.357053 120.28507 
L 55.366201 120.28507 
L 55.396068 120.178095 
L 55.484103 119.750193 
L 55.53905 119.643218 
L 55.624264 119.268804 
L 55.635664 119.268804 
L 55.713895 119.161829 
L 55.823019 118.626951 
L 55.869901 118.519976 
L 55.935165 118.413001 
L 55.959332 118.413001 
L 56.045458 118.306025 
L 56.131327 117.878124 
L 56.22509 117.771148 
L 56.310987 117.450222 
L 56.381552 117.343247 
L 56.485034 117.075808 
L 56.601084 116.968833 
L 56.705278 116.32698 
L 56.710151 116.32698 
L 56.78918 116.220005 
L 56.881405 115.792103 
L 56.887703 115.792103 
L 56.932191 115.685128 
L 57.017604 115.417689 
L 57.084407 115.310714 
L 57.192021 115.096763 
L 57.194899 115.096763 
L 57.260476 114.989788 
L 57.361621 114.561886 
L 57.434238 114.45491 
L 57.528201 113.973521 
L 57.626438 113.866546 
L 57.736218 113.010742 
L 57.819807 112.903767 
L 57.923061 112.422378 
L 58.03324 112.315402 
L 58.112469 112.101451 
L 58.138261 112.101451 
L 58.216606 111.994476 
L 58.327127 111.727037 
L 58.349271 111.620062 
L 58.451641 111.352624 
L 58.489004 111.245648 
L 58.597216 110.871234 
L 58.597587 110.871234 
L 58.649769 110.764259 
L 58.747494 110.550308 
L 58.90749 110.443333 
L 59.01727 110.068919 
L 59.045969 109.961943 
L 59.132665 109.694505 
L 59.137994 109.694505 
L 59.183821 109.587529 
L 59.257008 109.266603 
L 59.351455 109.159628 
L 59.457302 108.945677 
L 59.510112 108.838701 
L 59.610373 108.678238 
L 59.613821 108.678238 
L 59.68336 108.571263 
L 59.76903 108.357312 
L 59.854386 108.250337 
L 59.96522 107.768947 
L 60.045218 107.661972 
L 60.153345 107.23407 
L 60.198004 107.127095 
L 60.295244 106.859656 
L 60.34831 106.752681 
L 60.388523 106.645705 
L 60.441276 106.645705 
L 60.522499 106.53873 
L 60.603352 106.164316 
L 60.669072 106.057341 
L 60.778595 105.789902 
L 60.977864 105.682927 
L 61.040848 105.468976 
L 61.150172 105.362001 
L 61.252599 105.041074 
L 61.389624 104.934099 
L 61.476833 104.720148 
L 61.497353 104.720148 
L 61.546828 104.613173 
L 61.651392 104.399222 
L 61.713749 104.292246 
L 61.808139 103.97132 
L 61.812329 103.97132 
L 61.837408 103.864345 
L 61.848409 103.757369 
L 61.922565 103.757369 
L 62.047279 103.650394 
L 62.132635 103.27598 
L 62.153097 103.27598 
L 62.190888 103.169005 
L 62.287045 103.008542 
L 62.300468 103.008542 
L 62.363993 102.901566 
L 62.470781 102.473664 
L 62.504638 102.366689 
L 62.518974 102.152738 
L 62.597433 102.152738 
L 62.743407 102.045763 
L 62.845378 101.724837 
L 62.850366 101.724837 
L 62.893058 101.617861 
L 62.995884 101.296935 
L 63.136045 101.18996 
L 63.230036 100.922521 
L 63.241749 100.922521 
L 63.392654 100.815546 
L 63.422977 100.601595 
L 63.447971 100.601595 
L 63.692497 100.494619 
L 63.802391 100.120205 
L 63.892221 100.01323 
L 63.986355 99.692304 
L 64.023604 99.585328 
L 64.09015 99.371378 
L 64.110898 99.371378 
L 64.255533 99.264402 
L 64.362577 98.889988 
L 64.477971 98.783013 
L 64.51371 98.676037 
L 64.581396 98.676037 
L 64.635431 98.569062 
L 64.736319 98.355111 
L 64.820792 98.248136 
L 64.893323 97.980697 
L 65.000367 97.873722 
L 65.104675 97.338845 
L 65.145144 97.231869 
L 65.238053 97.017919 
L 65.312607 96.910943 
L 65.41304 96.696992 
L 65.435355 96.590017 
L 65.524587 96.162115 
L 65.533136 96.162115 
L 65.68672 96.05514 
L 65.778289 95.841189 
L 65.848455 95.734214 
L 65.932728 95.413287 
L 65.981291 95.306312 
L 66.07115 95.038873 
L 66.195407 94.931898 
L 66.252492 94.664459 
L 66.290881 94.664459 
L 66.341952 94.557484 
L 66.421066 94.236558 
L 66.435544 94.236558 
L 66.510327 94.129582 
L 66.585423 93.969119 
L 66.591493 93.969119 
L 66.675196 93.862144 
L 66.698195 93.648193 
L 66.717262 93.648193 
L 66.818036 93.541218 
L 66.893588 93.434242 
L 66.910346 93.434242 
L 66.99023 93.327267 
L 67.091004 93.059828 
L 67.282264 92.952853 
L 67.359868 92.738902 
L 67.562214 92.631927 
L 67.671168 92.204025 
L 67.739225 92.09705 
L 67.846554 91.776123 
L 67.887792 91.669148 
L 67.93057 91.508685 
L 68.102964 91.401709 
L 68.210036 91.134271 
L 68.357293 91.027295 
L 68.434014 90.92032 
L 68.454505 90.92032 
L 68.768541 90.813345 
L 68.84167 90.492418 
L 68.872336 90.492418 
L 68.973594 90.385443 
L 69.049289 90.118005 
L 69.062655 90.118005 
L 69.132023 90.011029 
L 69.222908 89.850566 
L 69.239808 89.850566 
L 69.344515 89.743591 
L 69.444235 89.583127 
L 69.502089 89.476152 
L 69.55544 89.262201 
L 69.60577 89.262201 
L 69.687165 89.155226 
L 69.797087 88.727324 
L 69.934455 88.620349 
L 70.031923 88.299423 
L 70.238117 88.192447 
L 70.316775 87.925009 
L 70.334986 87.925009 
L 70.471128 87.818033 
L 70.577061 87.604082 
L 70.699894 87.497107 
L 70.802406 87.283156 
L 70.88591 87.176181 
L 70.958669 86.96223 
L 70.975769 86.96223 
L 71.152466 86.855254 
L 71.152466 86.801767 
L 71.262274 86.801767 
L 71.304824 86.694791 
L 71.306021 86.587816 
L 71.379293 86.587816 
L 71.545645 86.480841 
L 71.650665 86.26689 
L 71.7389 86.159914 
L 71.750926 86.052939 
L 71.84583 86.052939 
L 72.166677 85.945963 
L 72.255595 85.678525 
L 72.346309 85.57155 
L 72.435513 85.304111 
L 72.607963 85.197136 
L 72.718655 84.929697 
L 72.778418 84.822722 
L 72.819201 84.715746 
L 72.884778 84.715746 
L 73.037165 84.608771 
L 73.145862 84.448308 
L 73.294658 84.341332 
L 73.403213 84.073894 
L 73.47429 83.966918 
L 73.553063 83.806455 
L 73.635198 83.69948 
L 73.717647 83.485529 
L 73.72386 83.485529 
L 73.946926 83.378554 
L 73.994491 83.164603 
L 74.032766 83.164603 
L 74.231465 83.057627 
L 74.233431 82.950652 
L 74.289148 82.950652 
L 74.398016 82.843677 
L 74.434353 82.736701 
L 74.507767 82.736701 
L 74.553851 82.629726 
L 74.56317 82.52275 
L 74.662006 82.52275 
L 74.700452 82.415775 
L 74.770817 82.201824 
L 74.807981 82.201824 
L 74.893793 82.094849 
L 74.893793 82.041361 
L 74.942071 82.041361 
L 75.071231 81.934386 
L 75.136608 81.666947 
L 75.174057 81.666947 
L 75.263545 81.559972 
L 75.372385 81.346021 
L 75.520183 81.239045 
L 75.541558 81.13207 
L 75.89364 81.025095 
L 75.969164 80.864631 
L 76.223265 80.757656 
L 76.27217 80.650681 
L 76.320078 80.650681 
L 76.42584 80.543705 
L 76.533967 80.43673 
L 76.535705 80.43673 
L 76.669824 80.329754 
L 76.780117 80.115804 
L 76.905742 80.008828 
L 77.006802 79.580927 
L 77.251185 79.473951 
L 77.35763 79.313488 
L 77.515917 79.206513 
L 77.607115 78.992562 
L 77.721512 78.885586 
L 77.826846 78.725123 
L 77.964413 78.618148 
L 78.072397 78.404197 
L 78.261549 78.297222 
L 78.328294 78.190246 
L 78.36238 78.190246 
L 78.433628 78.083271 
L 78.433628 78.029783 
L 78.452011 78.029783 
L 78.623207 77.922808 
L 78.663505 77.815832 
L 78.923563 77.708857 
L 79.028783 77.548394 
L 79.156347 77.441418 
L 79.156347 77.387931 
L 79.192057 77.387931 
L 79.42276 77.280955 
L 79.514557 77.067004 
L 79.688888 76.960029 
L 79.768373 76.853054 
L 80.158303 76.746078 
L 80.264265 76.532127 
L 80.559519 76.425152 
L 80.559519 76.371664 
L 80.642937 76.371664 
L 80.714756 76.264689 
L 80.714756 76.211201 
L 80.824393 76.211201 
L 81.079008 76.104226 
L 81.164763 75.836787 
L 81.170833 75.836787 
L 81.316665 75.729812 
L 81.383297 75.622836 
L 81.54392 75.515861 
L 81.60337 75.248422 
L 81.880955 75.141447 
L 81.947216 75.034472 
L 81.976941 75.034472 
L 82.169911 74.927496 
L 82.230017 74.820521 
L 82.365104 74.713545 
L 82.413012 74.60657 
L 82.697807 74.499595 
L 82.776352 74.339131 
L 82.797213 74.339131 
L 83.084374 74.232156 
L 83.154996 74.125181 
L 83.191561 74.125181 
L 83.246878 74.018205 
L 83.246878 73.964717 
L 83.323114 73.964717 
L 83.430415 73.857742 
L 83.539169 73.590304 
L 83.614322 73.483328 
L 83.725214 73.269377 
L 83.890112 73.162402 
L 83.960277 73.055426 
L 83.988862 73.055426 
L 84.137601 72.948451 
L 84.209648 72.7345 
L 84.574299 72.627525 
L 84.574299 72.574037 
L 84.609154 72.574037 
L 84.800585 72.467062 
L 84.904123 72.253111 
L 85.390838 72.146135 
L 85.43789 71.985672 
L 85.887869 71.878697 
L 85.987303 71.771722 
L 85.9887 71.771722 
L 86.073571 71.664746 
L 86.179105 71.557771 
L 86.180786 71.557771 
L 86.284325 71.450795 
L 86.371533 71.236844 
L 86.550938 71.129869 
L 86.656699 70.862431 
L 86.783266 70.755455 
L 86.857364 70.594992 
L 86.88632 70.594992 
L 87.249004 70.488017 
L 87.315693 70.381041 
L 87.622974 70.274066 
L 87.684961 70.113603 
L 87.710468 70.113603 
L 87.824323 70.006627 
L 87.824323 69.95314 
L 87.924984 69.95314 
L 88.464023 69.846164 
L 88.566051 69.578726 
L 88.791311 69.47175 
L 88.876752 69.311287 
L 89.046866 69.204312 
L 89.046866 69.150824 
L 89.098336 69.150824 
L 89.293814 69.043849 
L 89.345939 68.936873 
L 89.702553 68.829898 
L 89.712984 68.722922 
L 89.845535 68.615947 
L 89.87469 68.455484 
L 89.910429 68.455484 
L 90.158032 68.348508 
L 90.158032 68.295021 
L 90.610718 68.188045 
L 90.688807 68.08107 
L 90.836235 67.974094 
L 90.836235 67.920607 
L 90.91495 67.920607 
L 91.124421 67.813631 
L 91.124421 67.760144 
L 91.461713 67.653168 
L 91.461713 67.599681 
L 91.546214 67.599681 
L 91.779995 67.492705 
L 91.889291 67.225267 
L 92.281928 67.118291 
L 92.281928 67.064803 
L 92.369421 67.064803 
L 92.732248 66.957828 
L 92.81769 66.850853 
L 92.838238 66.850853 
L 93.254245 66.743877 
L 93.254245 66.69039 
L 93.333474 66.69039 
L 93.512507 66.583414 
L 93.512507 66.529926 
L 93.601682 66.529926 
L 93.983148 66.422951 
L 93.983148 66.369463 
L 94.064542 66.369463 
L 94.659811 66.262488 
L 94.659811 66.209 
L 94.758077 66.209 
L 94.941358 66.102025 
L 95.00417 65.995049 
L 95.289963 65.888074 
L 95.289963 65.834586 
L 95.603401 65.727611 
L 95.603401 65.674123 
L 95.611409 65.674123 
L 95.961554 65.567148 
L 95.961554 65.51366 
L 96.047052 65.51366 
L 96.461036 65.406685 
L 96.563149 65.299709 
L 97.352129 65.192734 
L 97.352129 65.139246 
L 97.681355 65.032271 
L 97.746192 64.925295 
L 97.790879 64.925295 
L 98.049597 64.81832 
L 98.061054 64.711344 
L 98.24422 64.604369 
L 98.24422 64.550881 
L 98.274259 64.550881 
L 98.609612 64.443906 
L 98.609612 64.390418 
L 98.67821 64.390418 
L 98.929205 64.283443 
L 98.952945 64.176467 
L 99.405945 64.069492 
L 99.435442 63.962517 
L 99.455904 63.962517 
L 100.216698 63.855541 
L 100.216698 63.802053 
L 100.52891 63.695078 
L 100.52891 63.64159 
L 100.547321 63.64159 
L 100.861356 63.534615 
L 100.889058 63.427639 
L 100.968002 63.427639 
L 101.074675 63.320664 
L 101.119904 63.213689 
L 101.286426 63.106713 
L 101.386374 62.892762 
L 101.569854 62.785787 
L 101.60488 62.678812 
L 101.801184 62.571836 
L 101.830567 62.411373 
L 101.89147 62.411373 
L 102.024791 62.304398 
L 102.064662 62.197422 
L 102.249595 62.090447 
L 102.329194 61.983471 
L 102.511619 61.876496 
L 102.511619 61.823008 
L 102.920929 61.716033 
L 102.920929 61.662545 
L 103.395702 61.55557 
L 103.395702 61.502082 
L 103.98034 61.395107 
L 104.07607 61.181156 
L 104.564323 61.07418 
L 104.64891 60.913717 
L 104.917802 60.806742 
L 104.979247 60.699767 
L 105.321441 60.592791 
L 105.383199 60.485816 
L 105.428912 60.485816 
L 105.547328 60.37884 
L 105.547328 60.325353 
L 106.160694 60.218377 
L 106.257079 60.111402 
L 106.703153 60.004426 
L 106.703153 59.950939 
L 106.7467 59.950939 
L 107.241109 59.843963 
L 107.337665 59.736988 
L 107.660394 59.630012 
L 107.660394 59.576525 
L 107.94137 59.469549 
L 108.015583 59.309086 
L 108.044111 59.309086 
L 108.91135 59.202111 
L 108.997532 59.041648 
L 109.189049 58.934672 
L 109.189049 58.881185 
L 109.297661 58.881185 
L 109.428616 58.774209 
L 109.52996 58.613746 
L 109.870158 58.506771 
L 109.870158 58.453283 
L 109.920089 58.453283 
L 110.25151 58.346307 
L 110.344874 58.132357 
L 110.93279 58.025381 
L 110.93279 57.971894 
L 110.987652 57.971894 
L 111.885898 57.864918 
L 111.885898 57.81143 
L 111.920896 57.81143 
L 112.139316 57.704455 
L 112.139316 57.650967 
L 112.441154 57.543992 
L 112.448079 57.437016 
L 112.535573 57.437016 
L 112.76183 57.330041 
L 112.76183 57.276553 
L 113.023683 57.169578 
L 113.023683 57.11609 
L 113.106446 57.11609 
L 113.273139 57.009115 
L 113.305486 56.902139 
L 113.38044 56.902139 
L 114.257483 56.795164 
L 114.328561 56.634701 
L 114.612473 56.527725 
L 114.612473 56.474238 
L 114.624699 56.474238 
L 115.01101 56.367262 
L 115.01101 56.313775 
L 115.602203 56.206799 
L 115.668749 56.099824 
L 115.880928 55.992848 
L 115.986006 55.832385 
L 116.415322 55.72541 
L 116.508686 55.618435 
L 117.125558 55.511459 
L 117.125558 55.457971 
L 117.235737 55.457971 
L 117.565533 55.350996 
L 117.595885 55.244021 
L 118.292042 55.137045 
L 118.372211 55.03007 
L 118.818142 54.923094 
L 118.818142 54.869607 
L 118.828088 54.869607 
L 119.529546 54.762631 
L 119.622654 54.655656 
L 120.278627 54.54868 
L 120.302452 54.441705 
L 121.034576 54.33473 
L 121.034576 54.281242 
L 121.061223 54.281242 
L 121.581623 54.174266 
L 121.635373 54.067291 
L 121.911989 53.960316 
L 121.993612 53.85334 
L 122.672726 53.746365 
L 122.746939 53.585902 
L 123.249185 53.478926 
L 123.346682 53.318463 
L 123.843286 53.211488 
L 123.925735 53.104512 
L 123.938901 53.104512 
L 124.452833 52.997537 
L 124.452833 52.944049 
L 124.541722 52.944049 
L 125.028921 52.837074 
L 125.028921 52.783586 
L 125.387901 52.676611 
L 125.387901 52.623123 
L 125.735651 52.516148 
L 125.74232 52.409172 
L 126.089957 52.302197 
L 126.181697 52.141734 
L 126.877027 52.034758 
L 126.877027 51.981271 
L 127.492531 51.874295 
L 127.492531 51.820807 
L 127.885653 51.713832 
L 127.981183 51.499881 
L 128.201598 51.392906 
L 128.306049 51.28593 
L 128.516061 51.178955 
L 128.516061 51.125467 
L 129.425936 51.018492 
L 129.498781 50.911516 
L 130.434333 50.804541 
L 130.434333 50.751053 
L 130.524819 50.751053 
L 130.799782 50.644078 
L 130.799782 50.59059 
L 131.365611 50.483615 
L 131.419589 50.376639 
L 131.659925 50.269664 
L 131.659925 50.216176 
L 131.676284 50.216176 
L 131.923004 50.109201 
L 131.923004 50.055713 
L 132.236071 49.948738 
L 132.2583 49.841762 
L 132.30598 49.841762 
L 132.879789 49.734787 
L 132.879789 49.681299 
L 133.352282 49.574324 
L 133.366731 49.467348 
L 133.455079 49.467348 
L 134.347512 49.360373 
L 134.362902 49.253398 
L 135.203722 49.146422 
L 135.203722 49.092934 
L 135.953145 48.985959 
L 135.953145 48.932471 
L 136.501219 48.825496 
L 136.518603 48.718521 
L 137.614893 48.611545 
L 137.710024 48.397594 
L 138.183201 48.290619 
L 138.200329 48.183643 
L 139.28559 48.076668 
L 139.329679 47.969693 
L 140.191959 47.862717 
L 140.299488 47.755742 
L 141.034375 47.648766 
L 141.034375 47.595279 
L 141.09867 47.595279 
L 142.16951 47.488303 
L 142.16951 47.434816 
L 142.185897 47.434816 
L 142.502783 47.32784 
L 142.552885 47.220865 
L 142.940564 47.113889 
L 142.948885 46.953426 
L 143.451759 46.846451 
L 143.464213 46.739475 
L 143.468146 46.739475 
L 144.369955 46.6325 
L 144.369955 46.579012 
L 145.135565 46.472037 
L 145.230355 46.365061 
L 145.393115 46.258086 
L 145.465419 46.151111 
L 146.161632 46.044135 
L 146.161632 45.990648 
L 146.671631 45.883672 
L 146.671631 45.830184 
L 146.713525 45.830184 
L 147.442143 45.723209 
L 147.442143 45.669721 
L 148.2855 45.562746 
L 148.2855 45.509258 
L 148.626468 45.402283 
L 148.626468 45.348795 
L 149.86135 45.24182 
L 149.86135 45.188332 
L 150.463687 45.081357 
L 150.568166 44.974381 
L 151.035615 44.867406 
L 151.090647 44.76043 
L 152.540901 44.653455 
L 152.562845 44.546479 
L 153.27841 44.439504 
L 153.27841 44.386016 
L 154.28031 44.279041 
L 154.28031 44.225553 
L 155.103745 44.118578 
L 155.197594 43.958115 
L 155.607645 43.851139 
L 155.607645 43.797652 
L 157.443069 43.690676 
L 157.443069 43.637188 
L 158.421086 43.530213 
L 158.421086 43.476725 
L 159.33153 43.36975 
L 159.33153 43.316262 
L 159.732575 43.209287 
L 159.732575 43.155799 
L 160.146388 43.048824 
L 160.146388 42.995336 
L 160.874236 42.888361 
L 160.874236 42.834873 
L 161.892323 42.727897 
L 161.892323 42.67441 
L 162.785925 42.567434 
L 162.840957 42.460459 
L 164.238116 42.353484 
L 164.347554 42.19302 
L 164.796364 42.086045 
L 164.796364 42.032557 
L 165.059756 41.925582 
L 165.135251 41.818607 
L 165.963617 41.711631 
L 165.963617 41.658143 
L 167.000942 41.551168 
L 167.100519 41.444193 
L 167.927944 41.337217 
L 167.962913 41.230242 
L 168.531307 41.123266 
L 168.531307 41.069779 
L 169.508754 40.962803 
L 169.59126 40.80234 
L 170.350885 40.695365 
L 170.437581 40.534902 
L 171.343636 40.427926 
L 171.343636 40.374438 
L 171.610392 40.267463 
L 171.610392 40.213975 
L 171.64556 40.213975 
L 172.285744 40.107 
L 172.324275 40.000025 
L 172.353573 40.000025 
L 172.804036 39.893049 
L 172.804036 39.839561 
L 173.638102 39.732586 
L 173.721178 39.625611 
L 174.820859 39.518635 
L 174.884783 39.358172 
L 175.877164 39.251197 
L 175.877164 39.197709 
L 176.394173 39.090734 
L 176.394173 39.037246 
L 176.782364 38.93027 
L 176.782364 38.876783 
L 177.289855 38.769807 
L 177.289855 38.71632 
L 177.397497 38.71632 
L 178.166385 38.609344 
L 178.166385 38.555856 
L 178.237548 38.555856 
L 178.937866 38.448881 
L 178.937866 38.395393 
L 180.019279 38.288418 
L 180.019279 38.23493 
L 181.399566 38.127955 
L 181.399566 38.074467 
L 182.333152 37.967492 
L 182.333152 37.914004 
L 182.817615 37.807029 
L 182.82474 37.700053 
L 183.424198 37.593078 
L 183.424198 37.53959 
L 184.812494 37.432615 
L 184.812494 37.379127 
L 185.557955 37.272152 
L 185.557955 37.218664 
L 186.635463 37.111688 
L 186.635463 37.058201 
L 188.835367 36.951225 
L 188.835367 36.897738 
L 189.559368 36.790762 
L 189.5922 36.683787 
L 190.590907 36.576811 
L 190.590907 36.523324 
L 191.192987 36.416348 
L 191.192987 36.362861 
L 191.20738 36.362861 
L 193.134002 36.255885 
L 193.134002 36.202397 
L 193.632201 36.095422 
L 193.632201 36.041934 
L 193.669764 36.041934 
L 195.168153 35.934959 
L 195.168153 35.881471 
L 196.744203 35.774496 
L 196.786211 35.66752 
L 197.58508 35.560545 
L 197.58508 35.507057 
L 198.481817 35.400082 
L 198.502137 35.293106 
L 200.748267 35.186131 
L 200.748267 35.132643 
L 201.714656 35.025668 
L 201.714656 34.97218 
L 203.674651 34.865205 
L 203.674651 34.811717 
L 203.777762 34.811717 
L 204.669027 34.704742 
L 204.669027 34.651254 
L 204.696158 34.651254 
L 206.536512 34.544279 
L 206.536512 34.490791 
L 206.6152 34.490791 
L 207.870573 34.383815 
L 207.870573 34.330328 
L 208.894873 34.223352 
L 208.894873 34.169865 
L 209.776249 34.062889 
L 209.784371 33.955914 
L 212.038623 33.848938 
L 212.038623 33.795451 
L 212.987941 33.688475 
L 213.048132 33.5815 
L 214.841405 33.474524 
L 214.841405 33.421037 
L 216.629748 33.314061 
L 216.629748 33.260574 
L 219.021368 33.153598 
L 219.021368 33.100111 
L 219.767855 32.993135 
L 219.767855 32.939647 
L 221.743183 32.832672 
L 221.821443 32.725697 
L 223.708223 32.618721 
L 223.78178 32.511746 
L 226.097648 32.40477 
L 226.191411 32.297795 
L 230.557761 32.19082 
L 230.557761 32.137332 
L 231.621732 32.030356 
L 231.621732 31.976869 
L 232.791693 31.869893 
L 232.791693 31.816406 
L 233.222406 31.70943 
L 233.222406 31.655942 
L 234.138607 31.548967 
L 234.138607 31.495479 
L 234.659521 31.388504 
L 234.659521 31.335016 
L 235.468992 31.228041 
L 235.505642 31.121065 
L 236.759107 31.01409 
L 236.862446 30.907115 
L 238.320023 30.800139 
L 238.320023 30.746651 
L 239.92899 30.639676 
L 239.92899 30.586188 
L 241.337036 30.479213 
L 241.393237 30.372238 
L 243.220197 30.265262 
L 243.220197 30.211774 
L 244.541347 30.104799 
L 244.541347 30.051311 
L 246.184371 29.944336 
L 246.255877 29.83736 
L 247.927884 29.730385 
L 247.927884 29.676897 
L 248.844143 29.569922 
L 248.844143 29.516434 
L 250.272851 29.409459 
L 250.353134 29.302483 
L 252.601971 29.195508 
L 252.601971 29.14202 
L 255.68553 29.035045 
L 255.68553 28.981557 
L 260.254226 28.874582 
L 260.28016 28.767606 
L 261.276645 28.660631 
L 261.35878 28.553656 
L 262.205272 28.44668 
L 262.205272 28.393192 
L 264.647279 28.286217 
L 264.755007 28.179242 
L 265.741004 28.072266 
L 265.741004 28.018779 
L 268.688278 27.911803 
L 268.688278 27.858315 
L 271.323198 27.75134 
L 271.323198 27.697852 
L 273.288694 27.590877 
L 273.288694 27.537389 
L 276.919386 27.430414 
L 276.919386 27.376926 
L 277.497669 27.269951 
L 277.497669 27.216463 
L 280.507614 27.109488 
L 280.507614 27.056 
L 281.368926 26.949024 
L 281.368926 26.895537 
L 281.46001 26.895537 
L 282.023758 26.895537 
L 282.023758 26.895537 
" clip-path="url(#pefbd0a9ce1)" style="fill: none; stroke: #1f77b4; stroke-width: 1.5; stroke-linecap: round"/>
   </g>
   <g id="line2d_26">
    <path d="M 42.831699 265.022801 
L 282.023758 26.895537 
" clip-path="url(#pefbd0a9ce1)" style="fill: none; stroke-dasharray: 5.55,2.4; stroke-dashoffset: 0; stroke: #999999; stroke-width: 1.5"/>
   </g>
   <g id="patch_3">
    <path d="M 35.655938 265.022801 
L 35.655938 19.751719 
" style="fill: none"/>
   </g>
   <g id="patch_4">
    <path d="M 289.19952 265.022801 
L 289.19952 19.751719 
" style="fill: none"/>
   </g>
   <g id="patch_5">
    <path d="M 35.655938 265.022801 
L 289.19952 265.022801 
" style="fill: none"/>
   </g>
   <g id="patch_6">
    <path d="M 35.655938 19.751719 
L 289.19952 19.751719 
" style="fill: none"/>
   </g>
   <g id="text_15">
    <!-- Model 1: Receiver Operating Characteristic (ROC) Curve -->
    <g style="fill: #333333" transform="translate(42.14976 13.751719) scale(0.09 -0.09)">
     <defs>
      <path id="Arial-BoldMT-4d" d="M 453 0 
L 453 4581 
L 1838 4581 
L 2669 1456 
L 3491 4581 
L 4878 4581 
L 4878 0 
L 4019 0 
L 4019 3606 
L 3109 0 
L 2219 0 
L 1313 3606 
L 1313 0 
L 453 0 
z
" transform="scale(0.015625)"/>
      <path id="Arial-BoldMT-64" d="M 3503 0 
L 2688 0 
L 2688 488 
Q 2484 203 2207 64 
Q 1931 -75 1650 -75 
Q 1078 -75 670 386 
Q 263 847 263 1672 
Q 263 2516 659 2955 
Q 1056 3394 1663 3394 
Q 2219 3394 2625 2931 
L 2625 4581 
L 3503 4581 
L 3503 0 
z
M 1159 1731 
Q 1159 1200 1306 963 
Q 1519 619 1900 619 
Q 2203 619 2415 876 
Q 2628 1134 2628 1647 
Q 2628 2219 2422 2470 
Q 2216 2722 1894 2722 
Q 1581 2722 1370 2473 
Q 1159 2225 1159 1731 
z
" transform="scale(0.015625)"/>
      <path id="Arial-BoldMT-31" d="M 2519 0 
L 1641 0 
L 1641 3309 
Q 1159 2859 506 2644 
L 506 3441 
Q 850 3553 1253 3867 
Q 1656 4181 1806 4600 
L 2519 4600 
L 2519 0 
z
" transform="scale(0.015625)"/>
      <path id="Arial-BoldMT-3a" d="M 628 2441 
L 628 3319 
L 1506 3319 
L 1506 2441 
L 628 2441 
z
M 628 0 
L 628 878 
L 1506 878 
L 1506 0 
L 628 0 
z
" transform="scale(0.015625)"/>
      <path id="Arial-BoldMT-63" d="M 3353 2338 
L 2488 2181 
Q 2444 2441 2289 2572 
Q 2134 2703 1888 2703 
Q 1559 2703 1364 2476 
Q 1169 2250 1169 1719 
Q 1169 1128 1367 884 
Q 1566 641 1900 641 
Q 2150 641 2309 783 
Q 2469 925 2534 1272 
L 3397 1125 
Q 3263 531 2881 228 
Q 2500 -75 1859 -75 
Q 1131 -75 698 384 
Q 266 844 266 1656 
Q 266 2478 700 2936 
Q 1134 3394 1875 3394 
Q 2481 3394 2839 3133 
Q 3197 2872 3353 2338 
z
" transform="scale(0.015625)"/>
      <path id="Arial-BoldMT-4f" d="M 278 2263 
Q 278 2963 488 3438 
Q 644 3788 914 4066 
Q 1184 4344 1506 4478 
Q 1934 4659 2494 4659 
Q 3506 4659 4114 4031 
Q 4722 3403 4722 2284 
Q 4722 1175 4119 548 
Q 3516 -78 2506 -78 
Q 1484 -78 881 545 
Q 278 1169 278 2263 
z
M 1231 2294 
Q 1231 1516 1590 1114 
Q 1950 713 2503 713 
Q 3056 713 3411 1111 
Q 3766 1509 3766 2306 
Q 3766 3094 3420 3481 
Q 3075 3869 2503 3869 
Q 1931 3869 1581 3476 
Q 1231 3084 1231 2294 
z
" transform="scale(0.015625)"/>
      <path id="Arial-BoldMT-70" d="M 434 3319 
L 1253 3319 
L 1253 2831 
Q 1413 3081 1684 3237 
Q 1956 3394 2288 3394 
Q 2866 3394 3269 2941 
Q 3672 2488 3672 1678 
Q 3672 847 3265 386 
Q 2859 -75 2281 -75 
Q 2006 -75 1782 34 
Q 1559 144 1313 409 
L 1313 -1263 
L 434 -1263 
L 434 3319 
z
M 1303 1716 
Q 1303 1156 1525 889 
Q 1747 622 2066 622 
Q 2372 622 2575 867 
Q 2778 1113 2778 1672 
Q 2778 2194 2568 2447 
Q 2359 2700 2050 2700 
Q 1728 2700 1515 2451 
Q 1303 2203 1303 1716 
z
" transform="scale(0.015625)"/>
      <path id="Arial-BoldMT-6e" d="M 3478 0 
L 2600 0 
L 2600 1694 
Q 2600 2231 2544 2389 
Q 2488 2547 2361 2634 
Q 2234 2722 2056 2722 
Q 1828 2722 1647 2597 
Q 1466 2472 1398 2265 
Q 1331 2059 1331 1503 
L 1331 0 
L 453 0 
L 453 3319 
L 1269 3319 
L 1269 2831 
Q 1703 3394 2363 3394 
Q 2653 3394 2893 3289 
Q 3134 3184 3257 3021 
Q 3381 2859 3429 2653 
Q 3478 2447 3478 2063 
L 3478 0 
z
" transform="scale(0.015625)"/>
      <path id="Arial-BoldMT-67" d="M 378 -219 
L 1381 -341 
Q 1406 -516 1497 -581 
Q 1622 -675 1891 -675 
Q 2234 -675 2406 -572 
Q 2522 -503 2581 -350 
Q 2622 -241 2622 53 
L 2622 538 
Q 2228 0 1628 0 
Q 959 0 569 566 
Q 263 1013 263 1678 
Q 263 2513 664 2953 
Q 1066 3394 1663 3394 
Q 2278 3394 2678 2853 
L 2678 3319 
L 3500 3319 
L 3500 341 
Q 3500 -247 3403 -537 
Q 3306 -828 3131 -993 
Q 2956 -1159 2664 -1253 
Q 2372 -1347 1925 -1347 
Q 1081 -1347 728 -1058 
Q 375 -769 375 -325 
Q 375 -281 378 -219 
z
M 1163 1728 
Q 1163 1200 1367 954 
Q 1572 709 1872 709 
Q 2194 709 2416 961 
Q 2638 1213 2638 1706 
Q 2638 2222 2425 2472 
Q 2213 2722 1888 2722 
Q 1572 2722 1367 2476 
Q 1163 2231 1163 1728 
z
" transform="scale(0.015625)"/>
      <path id="Arial-BoldMT-43" d="M 3397 1684 
L 4294 1400 
Q 4088 650 3608 286 
Q 3128 -78 2391 -78 
Q 1478 -78 890 545 
Q 303 1169 303 2250 
Q 303 3394 893 4026 
Q 1484 4659 2447 4659 
Q 3288 4659 3813 4163 
Q 4125 3869 4281 3319 
L 3366 3100 
Q 3284 3456 3026 3662 
Q 2769 3869 2400 3869 
Q 1891 3869 1573 3503 
Q 1256 3138 1256 2319 
Q 1256 1450 1568 1081 
Q 1881 713 2381 713 
Q 2750 713 3015 947 
Q 3281 1181 3397 1684 
z
" transform="scale(0.015625)"/>
      <path id="Arial-BoldMT-68" d="M 1334 4581 
L 1334 2897 
Q 1759 3394 2350 3394 
Q 2653 3394 2897 3281 
Q 3141 3169 3264 2994 
Q 3388 2819 3433 2606 
Q 3478 2394 3478 1947 
L 3478 0 
L 2600 0 
L 2600 1753 
Q 2600 2275 2550 2415 
Q 2500 2556 2373 2639 
Q 2247 2722 2056 2722 
Q 1838 2722 1666 2615 
Q 1494 2509 1414 2295 
Q 1334 2081 1334 1663 
L 1334 0 
L 456 0 
L 456 4581 
L 1334 4581 
z
" transform="scale(0.015625)"/>
     </defs>
     <use xlink:href="#Arial-BoldMT-4d"/>
     <use xlink:href="#Arial-BoldMT-6f" transform="translate(83.300781 0)"/>
     <use xlink:href="#Arial-BoldMT-64" transform="translate(144.384766 0)"/>
     <use xlink:href="#Arial-BoldMT-65" transform="translate(205.46875 0)"/>
     <use xlink:href="#Arial-BoldMT-6c" transform="translate(261.083984 0)"/>
     <use xlink:href="#Arial-BoldMT-20" transform="translate(288.867188 0)"/>
     <use xlink:href="#Arial-BoldMT-31" transform="translate(316.650391 0)"/>
     <use xlink:href="#Arial-BoldMT-3a" transform="translate(372.265625 0)"/>
     <use xlink:href="#Arial-BoldMT-20" transform="translate(405.566406 0)"/>
     <use xlink:href="#Arial-BoldMT-52" transform="translate(433.349609 0)"/>
     <use xlink:href="#Arial-BoldMT-65" transform="translate(505.566406 0)"/>
     <use xlink:href="#Arial-BoldMT-63" transform="translate(561.181641 0)"/>
     <use xlink:href="#Arial-BoldMT-65" transform="translate(616.796875 0)"/>
     <use xlink:href="#Arial-BoldMT-69" transform="translate(672.412109 0)"/>
     <use xlink:href="#Arial-BoldMT-76" transform="translate(700.195312 0)"/>
     <use xlink:href="#Arial-BoldMT-65" transform="translate(755.810547 0)"/>
     <use xlink:href="#Arial-BoldMT-72" transform="translate(811.425781 0)"/>
     <use xlink:href="#Arial-BoldMT-20" transform="translate(850.341797 0)"/>
     <use xlink:href="#Arial-BoldMT-4f" transform="translate(878.125 0)"/>
     <use xlink:href="#Arial-BoldMT-70" transform="translate(955.908203 0)"/>
     <use xlink:href="#Arial-BoldMT-65" transform="translate(1016.992188 0)"/>
     <use xlink:href="#Arial-BoldMT-72" transform="translate(1072.607422 0)"/>
     <use xlink:href="#Arial-BoldMT-61" transform="translate(1111.523438 0)"/>
     <use xlink:href="#Arial-BoldMT-74" transform="translate(1167.138672 0)"/>
     <use xlink:href="#Arial-BoldMT-69" transform="translate(1200.439453 0)"/>
     <use xlink:href="#Arial-BoldMT-6e" transform="translate(1228.222656 0)"/>
     <use xlink:href="#Arial-BoldMT-67" transform="translate(1289.306641 0)"/>
     <use xlink:href="#Arial-BoldMT-20" transform="translate(1350.390625 0)"/>
     <use xlink:href="#Arial-BoldMT-43" transform="translate(1378.173828 0)"/>
     <use xlink:href="#Arial-BoldMT-68" transform="translate(1450.390625 0)"/>
     <use xlink:href="#Arial-BoldMT-61" transform="translate(1511.474609 0)"/>
     <use xlink:href="#Arial-BoldMT-72" transform="translate(1567.089844 0)"/>
     <use xlink:href="#Arial-BoldMT-61" transform="translate(1606.005859 0)"/>
     <use xlink:href="#Arial-BoldMT-63" transform="translate(1661.621094 0)"/>
     <use xlink:href="#Arial-BoldMT-74" transform="translate(1717.236328 0)"/>
     <use xlink:href="#Arial-BoldMT-65" transform="translate(1750.537109 0)"/>
     <use xlink:href="#Arial-BoldMT-72" transform="translate(1806.152344 0)"/>
     <use xlink:href="#Arial-BoldMT-69" transform="translate(1845.068359 0)"/>
     <use xlink:href="#Arial-BoldMT-73" transform="translate(1872.851562 0)"/>
     <use xlink:href="#Arial-BoldMT-74" transform="translate(1928.466797 0)"/>
     <use xlink:href="#Arial-BoldMT-69" transform="translate(1961.767578 0)"/>
     <use xlink:href="#Arial-BoldMT-63" transform="translate(1989.550781 0)"/>
     <use xlink:href="#Arial-BoldMT-20" transform="translate(2045.166016 0)"/>
     <use xlink:href="#Arial-BoldMT-28" transform="translate(2072.949219 0)"/>
     <use xlink:href="#Arial-BoldMT-52" transform="translate(2106.25 0)"/>
     <use xlink:href="#Arial-BoldMT-4f" transform="translate(2178.466797 0)"/>
     <use xlink:href="#Arial-BoldMT-43" transform="translate(2256.25 0)"/>
     <use xlink:href="#Arial-BoldMT-29" transform="translate(2328.466797 0)"/>
     <use xlink:href="#Arial-BoldMT-20" transform="translate(2361.767578 0)"/>
     <use xlink:href="#Arial-BoldMT-43" transform="translate(2389.550781 0)"/>
     <use xlink:href="#Arial-BoldMT-75" transform="translate(2461.767578 0)"/>
     <use xlink:href="#Arial-BoldMT-72" transform="translate(2522.851562 0)"/>
     <use xlink:href="#Arial-BoldMT-76" transform="translate(2561.767578 0)"/>
     <use xlink:href="#Arial-BoldMT-65" transform="translate(2617.382812 0)"/>
    </g>
   </g>
   <g id="legend_1">
    <g id="patch_7">
     <path d="M 182.577645 260.522801 
L 282.89952 260.522801 
Q 284.69952 260.522801 284.69952 258.722801 
L 284.69952 234.161239 
Q 284.69952 232.361239 282.89952 232.361239 
L 182.577645 232.361239 
Q 180.777645 232.361239 180.777645 234.161239 
L 180.777645 258.722801 
Q 180.777645 260.522801 182.577645 260.522801 
z
" style="fill: #ffffff; opacity: 0.8; stroke: #cccccc; stroke-width: 0.75; stroke-linejoin: miter"/>
    </g>
    <g id="line2d_27">
     <path d="M 184.377645 239.25327 
L 193.377645 239.25327 
L 202.377645 239.25327 
" style="fill: none; stroke: #1f77b4; stroke-width: 1.5; stroke-linecap: round"/>
    </g>
    <g id="text_16">
     <!-- ROC curve -->
     <g style="fill: #333333" transform="translate(209.577645 242.40327) scale(0.09 -0.09)">
      <defs>
       <path id="ArialMT-52" d="M 503 0 
L 503 4581 
L 2534 4581 
Q 3147 4581 3465 4457 
Q 3784 4334 3975 4021 
Q 4166 3709 4166 3331 
Q 4166 2844 3850 2509 
Q 3534 2175 2875 2084 
Q 3116 1969 3241 1856 
Q 3506 1613 3744 1247 
L 4541 0 
L 3778 0 
L 3172 953 
Q 2906 1366 2734 1584 
Q 2563 1803 2427 1890 
Q 2291 1978 2150 2013 
Q 2047 2034 1813 2034 
L 1109 2034 
L 1109 0 
L 503 0 
z
M 1109 2559 
L 2413 2559 
Q 2828 2559 3062 2645 
Q 3297 2731 3419 2920 
Q 3541 3109 3541 3331 
Q 3541 3656 3305 3865 
Q 3069 4075 2559 4075 
L 1109 4075 
L 1109 2559 
z
" transform="scale(0.015625)"/>
       <path id="ArialMT-4f" d="M 309 2231 
Q 309 3372 921 4017 
Q 1534 4663 2503 4663 
Q 3138 4663 3647 4359 
Q 4156 4056 4423 3514 
Q 4691 2972 4691 2284 
Q 4691 1588 4409 1038 
Q 4128 488 3612 205 
Q 3097 -78 2500 -78 
Q 1853 -78 1343 234 
Q 834 547 571 1087 
Q 309 1628 309 2231 
z
M 934 2222 
Q 934 1394 1379 917 
Q 1825 441 2497 441 
Q 3181 441 3623 922 
Q 4066 1403 4066 2288 
Q 4066 2847 3877 3264 
Q 3688 3681 3323 3911 
Q 2959 4141 2506 4141 
Q 1863 4141 1398 3698 
Q 934 3256 934 2222 
z
" transform="scale(0.015625)"/>
       <path id="ArialMT-43" d="M 3763 1606 
L 4369 1453 
Q 4178 706 3683 314 
Q 3188 -78 2472 -78 
Q 1731 -78 1267 223 
Q 803 525 561 1097 
Q 319 1669 319 2325 
Q 319 3041 592 3573 
Q 866 4106 1370 4382 
Q 1875 4659 2481 4659 
Q 3169 4659 3637 4309 
Q 4106 3959 4291 3325 
L 3694 3184 
Q 3534 3684 3231 3912 
Q 2928 4141 2469 4141 
Q 1941 4141 1586 3887 
Q 1231 3634 1087 3207 
Q 944 2781 944 2328 
Q 944 1744 1114 1308 
Q 1284 872 1643 656 
Q 2003 441 2422 441 
Q 2931 441 3284 734 
Q 3638 1028 3763 1606 
z
" transform="scale(0.015625)"/>
       <path id="ArialMT-20" transform="scale(0.015625)"/>
       <path id="ArialMT-63" d="M 2588 1216 
L 3141 1144 
Q 3050 572 2676 248 
Q 2303 -75 1759 -75 
Q 1078 -75 664 370 
Q 250 816 250 1647 
Q 250 2184 428 2587 
Q 606 2991 970 3192 
Q 1334 3394 1763 3394 
Q 2303 3394 2647 3120 
Q 2991 2847 3088 2344 
L 2541 2259 
Q 2463 2594 2264 2762 
Q 2066 2931 1784 2931 
Q 1359 2931 1093 2626 
Q 828 2322 828 1663 
Q 828 994 1084 691 
Q 1341 388 1753 388 
Q 2084 388 2306 591 
Q 2528 794 2588 1216 
z
" transform="scale(0.015625)"/>
       <path id="ArialMT-75" d="M 2597 0 
L 2597 488 
Q 2209 -75 1544 -75 
Q 1250 -75 995 37 
Q 741 150 617 320 
Q 494 491 444 738 
Q 409 903 409 1263 
L 409 3319 
L 972 3319 
L 972 1478 
Q 972 1038 1006 884 
Q 1059 663 1231 536 
Q 1403 409 1656 409 
Q 1909 409 2131 539 
Q 2353 669 2445 892 
Q 2538 1116 2538 1541 
L 2538 3319 
L 3100 3319 
L 3100 0 
L 2597 0 
z
" transform="scale(0.015625)"/>
       <path id="ArialMT-72" d="M 416 0 
L 416 3319 
L 922 3319 
L 922 2816 
Q 1116 3169 1280 3281 
Q 1444 3394 1641 3394 
Q 1925 3394 2219 3213 
L 2025 2691 
Q 1819 2813 1613 2813 
Q 1428 2813 1281 2702 
Q 1134 2591 1072 2394 
Q 978 2094 978 1738 
L 978 0 
L 416 0 
z
" transform="scale(0.015625)"/>
       <path id="ArialMT-76" d="M 1344 0 
L 81 3319 
L 675 3319 
L 1388 1331 
Q 1503 1009 1600 663 
Q 1675 925 1809 1294 
L 2547 3319 
L 3125 3319 
L 1869 0 
L 1344 0 
z
" transform="scale(0.015625)"/>
       <path id="ArialMT-65" d="M 2694 1069 
L 3275 997 
Q 3138 488 2766 206 
Q 2394 -75 1816 -75 
Q 1088 -75 661 373 
Q 234 822 234 1631 
Q 234 2469 665 2931 
Q 1097 3394 1784 3394 
Q 2450 3394 2872 2941 
Q 3294 2488 3294 1666 
Q 3294 1616 3291 1516 
L 816 1516 
Q 847 969 1125 678 
Q 1403 388 1819 388 
Q 2128 388 2347 550 
Q 2566 713 2694 1069 
z
M 847 1978 
L 2700 1978 
Q 2663 2397 2488 2606 
Q 2219 2931 1791 2931 
Q 1403 2931 1139 2672 
Q 875 2413 847 1978 
z
" transform="scale(0.015625)"/>
      </defs>
      <use xlink:href="#ArialMT-52"/>
      <use xlink:href="#ArialMT-4f" transform="translate(72.216797 0)"/>
      <use xlink:href="#ArialMT-43" transform="translate(150 0)"/>
      <use xlink:href="#ArialMT-20" transform="translate(222.216797 0)"/>
      <use xlink:href="#ArialMT-63" transform="translate(250 0)"/>
      <use xlink:href="#ArialMT-75" transform="translate(300 0)"/>
      <use xlink:href="#ArialMT-72" transform="translate(355.615234 0)"/>
      <use xlink:href="#ArialMT-76" transform="translate(388.916016 0)"/>
      <use xlink:href="#ArialMT-65" transform="translate(438.916016 0)"/>
     </g>
    </g>
    <g id="line2d_28">
     <path d="M 184.377645 251.984051 
L 193.377645 251.984051 
L 202.377645 251.984051 
" style="fill: none; stroke-dasharray: 5.55,2.4; stroke-dashoffset: 0; stroke: #999999; stroke-width: 1.5"/>
    </g>
    <g id="text_17">
     <!-- Random classifier -->
     <g style="fill: #333333" transform="translate(209.577645 255.134051) scale(0.09 -0.09)">
      <defs>
       <path id="ArialMT-61" d="M 2588 409 
Q 2275 144 1986 34 
Q 1697 -75 1366 -75 
Q 819 -75 525 192 
Q 231 459 231 875 
Q 231 1119 342 1320 
Q 453 1522 633 1644 
Q 813 1766 1038 1828 
Q 1203 1872 1538 1913 
Q 2219 1994 2541 2106 
Q 2544 2222 2544 2253 
Q 2544 2597 2384 2738 
Q 2169 2928 1744 2928 
Q 1347 2928 1158 2789 
Q 969 2650 878 2297 
L 328 2372 
Q 403 2725 575 2942 
Q 747 3159 1072 3276 
Q 1397 3394 1825 3394 
Q 2250 3394 2515 3294 
Q 2781 3194 2906 3042 
Q 3031 2891 3081 2659 
Q 3109 2516 3109 2141 
L 3109 1391 
Q 3109 606 3145 398 
Q 3181 191 3288 0 
L 2700 0 
Q 2613 175 2588 409 
z
M 2541 1666 
Q 2234 1541 1622 1453 
Q 1275 1403 1131 1340 
Q 988 1278 909 1158 
Q 831 1038 831 891 
Q 831 666 1001 516 
Q 1172 366 1500 366 
Q 1825 366 2078 508 
Q 2331 650 2450 897 
Q 2541 1088 2541 1459 
L 2541 1666 
z
" transform="scale(0.015625)"/>
       <path id="ArialMT-6e" d="M 422 0 
L 422 3319 
L 928 3319 
L 928 2847 
Q 1294 3394 1984 3394 
Q 2284 3394 2536 3286 
Q 2788 3178 2913 3003 
Q 3038 2828 3088 2588 
Q 3119 2431 3119 2041 
L 3119 0 
L 2556 0 
L 2556 2019 
Q 2556 2363 2490 2533 
Q 2425 2703 2258 2804 
Q 2091 2906 1866 2906 
Q 1506 2906 1245 2678 
Q 984 2450 984 1813 
L 984 0 
L 422 0 
z
" transform="scale(0.015625)"/>
       <path id="ArialMT-64" d="M 2575 0 
L 2575 419 
Q 2259 -75 1647 -75 
Q 1250 -75 917 144 
Q 584 363 401 755 
Q 219 1147 219 1656 
Q 219 2153 384 2558 
Q 550 2963 881 3178 
Q 1213 3394 1622 3394 
Q 1922 3394 2156 3267 
Q 2391 3141 2538 2938 
L 2538 4581 
L 3097 4581 
L 3097 0 
L 2575 0 
z
M 797 1656 
Q 797 1019 1065 703 
Q 1334 388 1700 388 
Q 2069 388 2326 689 
Q 2584 991 2584 1609 
Q 2584 2291 2321 2609 
Q 2059 2928 1675 2928 
Q 1300 2928 1048 2622 
Q 797 2316 797 1656 
z
" transform="scale(0.015625)"/>
       <path id="ArialMT-6f" d="M 213 1659 
Q 213 2581 725 3025 
Q 1153 3394 1769 3394 
Q 2453 3394 2887 2945 
Q 3322 2497 3322 1706 
Q 3322 1066 3130 698 
Q 2938 331 2570 128 
Q 2203 -75 1769 -75 
Q 1072 -75 642 372 
Q 213 819 213 1659 
z
M 791 1659 
Q 791 1022 1069 705 
Q 1347 388 1769 388 
Q 2188 388 2466 706 
Q 2744 1025 2744 1678 
Q 2744 2294 2464 2611 
Q 2184 2928 1769 2928 
Q 1347 2928 1069 2612 
Q 791 2297 791 1659 
z
" transform="scale(0.015625)"/>
       <path id="ArialMT-6d" d="M 422 0 
L 422 3319 
L 925 3319 
L 925 2853 
Q 1081 3097 1340 3245 
Q 1600 3394 1931 3394 
Q 2300 3394 2536 3241 
Q 2772 3088 2869 2813 
Q 3263 3394 3894 3394 
Q 4388 3394 4653 3120 
Q 4919 2847 4919 2278 
L 4919 0 
L 4359 0 
L 4359 2091 
Q 4359 2428 4304 2576 
Q 4250 2725 4106 2815 
Q 3963 2906 3769 2906 
Q 3419 2906 3187 2673 
Q 2956 2441 2956 1928 
L 2956 0 
L 2394 0 
L 2394 2156 
Q 2394 2531 2256 2718 
Q 2119 2906 1806 2906 
Q 1569 2906 1367 2781 
Q 1166 2656 1075 2415 
Q 984 2175 984 1722 
L 984 0 
L 422 0 
z
" transform="scale(0.015625)"/>
       <path id="ArialMT-6c" d="M 409 0 
L 409 4581 
L 972 4581 
L 972 0 
L 409 0 
z
" transform="scale(0.015625)"/>
       <path id="ArialMT-73" d="M 197 991 
L 753 1078 
Q 800 744 1014 566 
Q 1228 388 1613 388 
Q 2000 388 2187 545 
Q 2375 703 2375 916 
Q 2375 1106 2209 1216 
Q 2094 1291 1634 1406 
Q 1016 1563 777 1677 
Q 538 1791 414 1992 
Q 291 2194 291 2438 
Q 291 2659 392 2848 
Q 494 3038 669 3163 
Q 800 3259 1026 3326 
Q 1253 3394 1513 3394 
Q 1903 3394 2198 3281 
Q 2494 3169 2634 2976 
Q 2775 2784 2828 2463 
L 2278 2388 
Q 2241 2644 2061 2787 
Q 1881 2931 1553 2931 
Q 1166 2931 1000 2803 
Q 834 2675 834 2503 
Q 834 2394 903 2306 
Q 972 2216 1119 2156 
Q 1203 2125 1616 2013 
Q 2213 1853 2448 1751 
Q 2684 1650 2818 1456 
Q 2953 1263 2953 975 
Q 2953 694 2789 445 
Q 2625 197 2315 61 
Q 2006 -75 1616 -75 
Q 969 -75 630 194 
Q 291 463 197 991 
z
" transform="scale(0.015625)"/>
       <path id="ArialMT-69" d="M 425 3934 
L 425 4581 
L 988 4581 
L 988 3934 
L 425 3934 
z
M 425 0 
L 425 3319 
L 988 3319 
L 988 0 
L 425 0 
z
" transform="scale(0.015625)"/>
       <path id="ArialMT-66" d="M 556 0 
L 556 2881 
L 59 2881 
L 59 3319 
L 556 3319 
L 556 3672 
Q 556 4006 616 4169 
Q 697 4388 901 4523 
Q 1106 4659 1475 4659 
Q 1713 4659 2000 4603 
L 1916 4113 
Q 1741 4144 1584 4144 
Q 1328 4144 1222 4034 
Q 1116 3925 1116 3625 
L 1116 3319 
L 1763 3319 
L 1763 2881 
L 1116 2881 
L 1116 0 
L 556 0 
z
" transform="scale(0.015625)"/>
      </defs>
      <use xlink:href="#ArialMT-52"/>
      <use xlink:href="#ArialMT-61" transform="translate(72.216797 0)"/>
      <use xlink:href="#ArialMT-6e" transform="translate(127.832031 0)"/>
      <use xlink:href="#ArialMT-64" transform="translate(183.447266 0)"/>
      <use xlink:href="#ArialMT-6f" transform="translate(239.0625 0)"/>
      <use xlink:href="#ArialMT-6d" transform="translate(294.677734 0)"/>
      <use xlink:href="#ArialMT-20" transform="translate(377.978516 0)"/>
      <use xlink:href="#ArialMT-63" transform="translate(405.761719 0)"/>
      <use xlink:href="#ArialMT-6c" transform="translate(455.761719 0)"/>
      <use xlink:href="#ArialMT-61" transform="translate(477.978516 0)"/>
      <use xlink:href="#ArialMT-73" transform="translate(533.59375 0)"/>
      <use xlink:href="#ArialMT-73" transform="translate(583.59375 0)"/>
      <use xlink:href="#ArialMT-69" transform="translate(633.59375 0)"/>
      <use xlink:href="#ArialMT-66" transform="translate(655.810547 0)"/>
      <use xlink:href="#ArialMT-69" transform="translate(683.59375 0)"/>
      <use xlink:href="#ArialMT-65" transform="translate(705.810547 0)"/>
      <use xlink:href="#ArialMT-72" transform="translate(761.425781 0)"/>
     </g>
    </g>
   </g>
  </g>
 </g>
 <defs>
  <clipPath id="pefbd0a9ce1">
   <rect x="35.655938" y="19.751719" width="253.543583" height="245.271083"/>
  </clipPath>
 </defs>
</svg>
