<?xml version="1.0" encoding="utf-8" standalone="no"?>
<!DOCTYPE svg PUBLIC "-//W3C//DTD SVG 1.1//EN"
  "http://www.w3.org/Graphics/SVG/1.1/DTD/svg11.dtd">
<svg xmlns:xlink="http://www.w3.org/1999/xlink" width="296.39952pt" height="296.39952pt" viewBox="0 0 296.39952 296.39952" xmlns="http://www.w3.org/2000/svg" version="1.1">
 <metadata>
  <rdf:RDF xmlns:dc="http://purl.org/dc/elements/1.1/" xmlns:cc="http://creativecommons.org/ns#" xmlns:rdf="http://www.w3.org/1999/02/22-rdf-syntax-ns#">
   <cc:Work>
    <dc:type rdf:resource="http://purl.org/dc/dcmitype/StillImage"/>
    <dc:date>2026-01-03T05:08:38.729863</dc:date>
    <dc:format>image/svg+xml</dc:format>
    <dc:creator>
     <cc:Agent>
      <dc:title>Matplotlib v3.10.8, https://matplotlib.org/</dc:title>
     </cc:Agent>
    </dc:creator>
   </cc:Work>
  </rdf:RDF>
 </metadata>
 <defs>
  <style type="text/css">*{stroke-linejoin: round; stroke-linecap: butt}</style>
 </defs>
 <g id="figure_1">
  <g id="patch_1">
   <path d="M 0 296.39952 
L 296.39952 296.39952 
L 296.39952 0 
L 0 0 
z
" style="fill: #ffffff"/>
  </g>
  <g id="axes_1">
   <g id="patch_2">
    <path d="M 35.655938 265.022801 
L 289.19952 265.022801 
L 289.19952 19.751719 
L 35.655938 19.751719 
z
" style="fill: #ffffff"/>
   </g>
   <g id="matplotlib.axis_1">
    <g id="xtick_1">
     <g id="line2d_1">
      <path d="M 42.831699 265.022801 
L 42.831699 19.751719 
" clip-path="url(#p23bba4f300)" style="fill: none; stroke: #c0c0c0; stroke-width: 0.25; stroke-linecap: round"/>
     </g>
     <g id="line2d_2"/>
     <g id="text_1">
      <!-- 0.0 -->
      <g style="fill: #333333" transform="translate(36.576699 274.964832) scale(0.09 -0.09)">
       <defs>
        <path id="ArialMT-30" d="M 266 2259 
Q 266 3072 433 3567 
Q 600 4063 929 4331 
Q 1259 4600 1759 4600 
Q 2128 4600 2406 4451 
Q 2684 4303 2865 4023 
Q 3047 3744 3150 3342 
Q 3253 2941 3253 2259 
Q 3253 1453 3087 958 
Q 2922 463 2592 192 
Q 2263 -78 1759 -78 
Q 1097 -78 719 397 
Q 266 969 266 2259 
z
M 844 2259 
Q 844 1131 1108 757 
Q 1372 384 1759 384 
Q 2147 384 2411 759 
Q 2675 1134 2675 2259 
Q 2675 3391 2411 3762 
Q 2147 4134 1753 4134 
Q 1366 4134 1134 3806 
Q 844 3388 844 2259 
z
" transform="scale(0.015625)"/>
        <path id="ArialMT-2e" d="M 581 0 
L 581 641 
L 1222 641 
L 1222 0 
L 581 0 
z
" transform="scale(0.015625)"/>
       </defs>
       <use xlink:href="#ArialMT-30"/>
       <use xlink:href="#ArialMT-2e" transform="translate(55.615234 0)"/>
       <use xlink:href="#ArialMT-30" transform="translate(83.398438 0)"/>
      </g>
     </g>
    </g>
    <g id="xtick_2">
     <g id="line2d_3">
      <path d="M 90.670111 265.022801 
L 90.670111 19.751719 
" clip-path="url(#p23bba4f300)" style="fill: none; stroke: #c0c0c0; stroke-width: 0.25; stroke-linecap: round"/>
     </g>
     <g id="line2d_4"/>
     <g id="text_2">
      <!-- 0.2 -->
      <g style="fill: #333333" transform="translate(84.415111 274.964832) scale(0.09 -0.09)">
       <defs>
        <path id="ArialMT-32" d="M 3222 541 
L 3222 0 
L 194 0 
Q 188 203 259 391 
Q 375 700 629 1000 
Q 884 1300 1366 1694 
Q 2113 2306 2375 2664 
Q 2638 3022 2638 3341 
Q 2638 3675 2398 3904 
Q 2159 4134 1775 4134 
Q 1369 4134 1125 3890 
Q 881 3647 878 3216 
L 300 3275 
Q 359 3922 746 4261 
Q 1134 4600 1788 4600 
Q 2447 4600 2831 4234 
Q 3216 3869 3216 3328 
Q 3216 3053 3103 2787 
Q 2991 2522 2730 2228 
Q 2469 1934 1863 1422 
Q 1356 997 1212 845 
Q 1069 694 975 541 
L 3222 541 
z
" transform="scale(0.015625)"/>
       </defs>
       <use xlink:href="#ArialMT-30"/>
       <use xlink:href="#ArialMT-2e" transform="translate(55.615234 0)"/>
       <use xlink:href="#ArialMT-32" transform="translate(83.398438 0)"/>
      </g>
     </g>
    </g>
    <g id="xtick_3">
     <g id="line2d_5">
      <path d="M 138.508523 265.022801 
L 138.508523 19.751719 
" clip-path="url(#p23bba4f300)" style="fill: none; stroke: #c0c0c0; stroke-width: 0.25; stroke-linecap: round"/>
     </g>
     <g id="line2d_6"/>
     <g id="text_3">
      <!-- 0.4 -->
      <g style="fill: #333333" transform="translate(132.253523 274.964832) scale(0.09 -0.09)">
       <defs>
        <path id="ArialMT-34" d="M 2069 0 
L 2069 1097 
L 81 1097 
L 81 1613 
L 2172 4581 
L 2631 4581 
L 2631 1613 
L 3250 1613 
L 3250 1097 
L 2631 1097 
L 2631 0 
L 2069 0 
z
M 2069 1613 
L 2069 3678 
L 634 1613 
L 2069 1613 
z
" transform="scale(0.015625)"/>
       </defs>
       <use xlink:href="#ArialMT-30"/>
       <use xlink:href="#ArialMT-2e" transform="translate(55.615234 0)"/>
       <use xlink:href="#ArialMT-34" transform="translate(83.398438 0)"/>
      </g>
     </g>
    </g>
    <g id="xtick_4">
     <g id="line2d_7">
      <path d="M 186.346935 265.022801 
L 186.346935 19.751719 
" clip-path="url(#p23bba4f300)" style="fill: none; stroke: #c0c0c0; stroke-width: 0.25; stroke-linecap: round"/>
     </g>
     <g id="line2d_8"/>
     <g id="text_4">
      <!-- 0.6 -->
      <g style="fill: #333333" transform="translate(180.091935 274.964832) scale(0.09 -0.09)">
       <defs>
        <path id="ArialMT-36" d="M 3184 3459 
L 2625 3416 
Q 2550 3747 2413 3897 
Q 2184 4138 1850 4138 
Q 1581 4138 1378 3988 
Q 1113 3794 959 3422 
Q 806 3050 800 2363 
Q 1003 2672 1297 2822 
Q 1591 2972 1913 2972 
Q 2475 2972 2870 2558 
Q 3266 2144 3266 1488 
Q 3266 1056 3080 686 
Q 2894 316 2569 119 
Q 2244 -78 1831 -78 
Q 1128 -78 684 439 
Q 241 956 241 2144 
Q 241 3472 731 4075 
Q 1159 4600 1884 4600 
Q 2425 4600 2770 4297 
Q 3116 3994 3184 3459 
z
M 888 1484 
Q 888 1194 1011 928 
Q 1134 663 1356 523 
Q 1578 384 1822 384 
Q 2178 384 2434 671 
Q 2691 959 2691 1453 
Q 2691 1928 2437 2201 
Q 2184 2475 1800 2475 
Q 1419 2475 1153 2201 
Q 888 1928 888 1484 
z
" transform="scale(0.015625)"/>
       </defs>
       <use xlink:href="#ArialMT-30"/>
       <use xlink:href="#ArialMT-2e" transform="translate(55.615234 0)"/>
       <use xlink:href="#ArialMT-36" transform="translate(83.398438 0)"/>
      </g>
     </g>
    </g>
    <g id="xtick_5">
     <g id="line2d_9">
      <path d="M 234.185346 265.022801 
L 234.185346 19.751719 
" clip-path="url(#p23bba4f300)" style="fill: none; stroke: #c0c0c0; stroke-width: 0.25; stroke-linecap: round"/>
     </g>
     <g id="line2d_10"/>
     <g id="text_5">
      <!-- 0.8 -->
      <g style="fill: #333333" transform="translate(227.930346 274.964832) scale(0.09 -0.09)">
       <defs>
        <path id="ArialMT-38" d="M 1131 2484 
Q 781 2613 612 2850 
Q 444 3088 444 3419 
Q 444 3919 803 4259 
Q 1163 4600 1759 4600 
Q 2359 4600 2725 4251 
Q 3091 3903 3091 3403 
Q 3091 3084 2923 2848 
Q 2756 2613 2416 2484 
Q 2838 2347 3058 2040 
Q 3278 1734 3278 1309 
Q 3278 722 2862 322 
Q 2447 -78 1769 -78 
Q 1091 -78 675 323 
Q 259 725 259 1325 
Q 259 1772 486 2073 
Q 713 2375 1131 2484 
z
M 1019 3438 
Q 1019 3113 1228 2906 
Q 1438 2700 1772 2700 
Q 2097 2700 2305 2904 
Q 2513 3109 2513 3406 
Q 2513 3716 2298 3927 
Q 2084 4138 1766 4138 
Q 1444 4138 1231 3931 
Q 1019 3725 1019 3438 
z
M 838 1322 
Q 838 1081 952 856 
Q 1066 631 1291 507 
Q 1516 384 1775 384 
Q 2178 384 2440 643 
Q 2703 903 2703 1303 
Q 2703 1709 2433 1975 
Q 2163 2241 1756 2241 
Q 1359 2241 1098 1978 
Q 838 1716 838 1322 
z
" transform="scale(0.015625)"/>
       </defs>
       <use xlink:href="#ArialMT-30"/>
       <use xlink:href="#ArialMT-2e" transform="translate(55.615234 0)"/>
       <use xlink:href="#ArialMT-38" transform="translate(83.398438 0)"/>
      </g>
     </g>
    </g>
    <g id="xtick_6">
     <g id="line2d_11">
      <path d="M 282.023758 265.022801 
L 282.023758 19.751719 
" clip-path="url(#p23bba4f300)" style="fill: none; stroke: #c0c0c0; stroke-width: 0.25; stroke-linecap: round"/>
     </g>
     <g id="line2d_12"/>
     <g id="text_6">
      <!-- 1.0 -->
      <g style="fill: #333333" transform="translate(275.768758 274.964832) scale(0.09 -0.09)">
       <defs>
        <path id="ArialMT-31" d="M 2384 0 
L 1822 0 
L 1822 3584 
Q 1619 3391 1289 3197 
Q 959 3003 697 2906 
L 697 3450 
Q 1169 3672 1522 3987 
Q 1875 4303 2022 4600 
L 2384 4600 
L 2384 0 
z
" transform="scale(0.015625)"/>
       </defs>
       <use xlink:href="#ArialMT-31"/>
       <use xlink:href="#ArialMT-2e" transform="translate(55.615234 0)"/>
       <use xlink:href="#ArialMT-30" transform="translate(83.398438 0)"/>
      </g>
     </g>
    </g>
    <g id="text_7">
     <!-- False Positive Rate (FPR) -->
     <g style="fill: #333333" transform="translate(108.165463 287.305301) scale(0.09 -0.09)">
      <defs>
       <path id="Arial-BoldMT-46" d="M 472 0 
L 472 4581 
L 3613 4581 
L 3613 3806 
L 1397 3806 
L 1397 2722 
L 3309 2722 
L 3309 1947 
L 1397 1947 
L 1397 0 
L 472 0 
z
" transform="scale(0.015625)"/>
       <path id="Arial-BoldMT-61" d="M 1116 2306 
L 319 2450 
Q 453 2931 781 3162 
Q 1109 3394 1756 3394 
Q 2344 3394 2631 3255 
Q 2919 3116 3036 2902 
Q 3153 2688 3153 2116 
L 3144 1091 
Q 3144 653 3186 445 
Q 3228 238 3344 0 
L 2475 0 
Q 2441 88 2391 259 
Q 2369 338 2359 363 
Q 2134 144 1878 34 
Q 1622 -75 1331 -75 
Q 819 -75 523 203 
Q 228 481 228 906 
Q 228 1188 362 1408 
Q 497 1628 739 1745 
Q 981 1863 1438 1950 
Q 2053 2066 2291 2166 
L 2291 2253 
Q 2291 2506 2166 2614 
Q 2041 2722 1694 2722 
Q 1459 2722 1328 2630 
Q 1197 2538 1116 2306 
z
M 2291 1594 
Q 2122 1538 1756 1459 
Q 1391 1381 1278 1306 
Q 1106 1184 1106 997 
Q 1106 813 1243 678 
Q 1381 544 1594 544 
Q 1831 544 2047 700 
Q 2206 819 2256 991 
Q 2291 1103 2291 1419 
L 2291 1594 
z
" transform="scale(0.015625)"/>
       <path id="Arial-BoldMT-6c" d="M 459 0 
L 459 4581 
L 1338 4581 
L 1338 0 
L 459 0 
z
" transform="scale(0.015625)"/>
       <path id="Arial-BoldMT-73" d="M 150 947 
L 1031 1081 
Q 1088 825 1259 692 
Q 1431 559 1741 559 
Q 2081 559 2253 684 
Q 2369 772 2369 919 
Q 2369 1019 2306 1084 
Q 2241 1147 2013 1200 
Q 950 1434 666 1628 
Q 272 1897 272 2375 
Q 272 2806 612 3100 
Q 953 3394 1669 3394 
Q 2350 3394 2681 3172 
Q 3013 2950 3138 2516 
L 2309 2363 
Q 2256 2556 2107 2659 
Q 1959 2763 1684 2763 
Q 1338 2763 1188 2666 
Q 1088 2597 1088 2488 
Q 1088 2394 1175 2328 
Q 1294 2241 1995 2081 
Q 2697 1922 2975 1691 
Q 3250 1456 3250 1038 
Q 3250 581 2869 253 
Q 2488 -75 1741 -75 
Q 1063 -75 667 200 
Q 272 475 150 947 
z
" transform="scale(0.015625)"/>
       <path id="Arial-BoldMT-65" d="M 2381 1056 
L 3256 909 
Q 3088 428 2723 176 
Q 2359 -75 1813 -75 
Q 947 -75 531 491 
Q 203 944 203 1634 
Q 203 2459 634 2926 
Q 1066 3394 1725 3394 
Q 2466 3394 2894 2905 
Q 3322 2416 3303 1406 
L 1103 1406 
Q 1113 1016 1316 798 
Q 1519 581 1822 581 
Q 2028 581 2168 693 
Q 2309 806 2381 1056 
z
M 2431 1944 
Q 2422 2325 2234 2523 
Q 2047 2722 1778 2722 
Q 1491 2722 1303 2513 
Q 1116 2303 1119 1944 
L 2431 1944 
z
" transform="scale(0.015625)"/>
       <path id="Arial-BoldMT-20" transform="scale(0.015625)"/>
       <path id="Arial-BoldMT-50" d="M 466 0 
L 466 4581 
L 1950 4581 
Q 2794 4581 3050 4513 
Q 3444 4409 3709 4064 
Q 3975 3719 3975 3172 
Q 3975 2750 3822 2462 
Q 3669 2175 3433 2011 
Q 3197 1847 2953 1794 
Q 2622 1728 1994 1728 
L 1391 1728 
L 1391 0 
L 466 0 
z
M 1391 3806 
L 1391 2506 
L 1897 2506 
Q 2444 2506 2628 2578 
Q 2813 2650 2917 2803 
Q 3022 2956 3022 3159 
Q 3022 3409 2875 3571 
Q 2728 3734 2503 3775 
Q 2338 3806 1838 3806 
L 1391 3806 
z
" transform="scale(0.015625)"/>
       <path id="Arial-BoldMT-6f" d="M 256 1706 
Q 256 2144 472 2553 
Q 688 2963 1083 3178 
Q 1478 3394 1966 3394 
Q 2719 3394 3200 2905 
Q 3681 2416 3681 1669 
Q 3681 916 3195 420 
Q 2709 -75 1972 -75 
Q 1516 -75 1102 131 
Q 688 338 472 736 
Q 256 1134 256 1706 
z
M 1156 1659 
Q 1156 1166 1390 903 
Q 1625 641 1969 641 
Q 2313 641 2545 903 
Q 2778 1166 2778 1666 
Q 2778 2153 2545 2415 
Q 2313 2678 1969 2678 
Q 1625 2678 1390 2415 
Q 1156 2153 1156 1659 
z
" transform="scale(0.015625)"/>
       <path id="Arial-BoldMT-69" d="M 459 3769 
L 459 4581 
L 1338 4581 
L 1338 3769 
L 459 3769 
z
M 459 0 
L 459 3319 
L 1338 3319 
L 1338 0 
L 459 0 
z
" transform="scale(0.015625)"/>
       <path id="Arial-BoldMT-74" d="M 1981 3319 
L 1981 2619 
L 1381 2619 
L 1381 1281 
Q 1381 875 1398 808 
Q 1416 741 1477 697 
Q 1538 653 1625 653 
Q 1747 653 1978 738 
L 2053 56 
Q 1747 -75 1359 -75 
Q 1122 -75 931 4 
Q 741 84 652 211 
Q 563 338 528 553 
Q 500 706 500 1172 
L 500 2619 
L 97 2619 
L 97 3319 
L 500 3319 
L 500 3978 
L 1381 4491 
L 1381 3319 
L 1981 3319 
z
" transform="scale(0.015625)"/>
       <path id="Arial-BoldMT-76" d="M 1372 0 
L 34 3319 
L 956 3319 
L 1581 1625 
L 1763 1059 
Q 1834 1275 1853 1344 
Q 1897 1484 1947 1625 
L 2578 3319 
L 3481 3319 
L 2163 0 
L 1372 0 
z
" transform="scale(0.015625)"/>
       <path id="Arial-BoldMT-52" d="M 469 0 
L 469 4581 
L 2416 4581 
Q 3150 4581 3483 4457 
Q 3816 4334 4016 4018 
Q 4216 3703 4216 3297 
Q 4216 2781 3912 2445 
Q 3609 2109 3006 2022 
Q 3306 1847 3501 1637 
Q 3697 1428 4028 894 
L 4588 0 
L 3481 0 
L 2813 997 
Q 2456 1531 2325 1670 
Q 2194 1809 2047 1861 
Q 1900 1913 1581 1913 
L 1394 1913 
L 1394 0 
L 469 0 
z
M 1394 2644 
L 2078 2644 
Q 2744 2644 2909 2700 
Q 3075 2756 3169 2893 
Q 3263 3031 3263 3238 
Q 3263 3469 3139 3611 
Q 3016 3753 2791 3791 
Q 2678 3806 2116 3806 
L 1394 3806 
L 1394 2644 
z
" transform="scale(0.015625)"/>
       <path id="Arial-BoldMT-28" d="M 1916 -1347 
L 1313 -1347 
Q 834 -625 584 153 
Q 334 931 334 1659 
Q 334 2563 644 3369 
Q 913 4069 1325 4659 
L 1925 4659 
Q 1497 3713 1336 3048 
Q 1175 2384 1175 1641 
Q 1175 1128 1270 590 
Q 1366 53 1531 -431 
Q 1641 -750 1916 -1347 
z
" transform="scale(0.015625)"/>
       <path id="Arial-BoldMT-29" d="M 216 -1347 
Q 475 -791 581 -494 
Q 688 -197 778 190 
Q 869 578 912 926 
Q 956 1275 956 1641 
Q 956 2384 797 3048 
Q 638 3713 209 4659 
L 806 4659 
Q 1278 3988 1539 3234 
Q 1800 2481 1800 1706 
Q 1800 1053 1594 306 
Q 1359 -531 822 -1347 
L 216 -1347 
z
" transform="scale(0.015625)"/>
      </defs>
      <use xlink:href="#Arial-BoldMT-46"/>
      <use xlink:href="#Arial-BoldMT-61" transform="translate(61.083984 0)"/>
      <use xlink:href="#Arial-BoldMT-6c" transform="translate(116.699219 0)"/>
      <use xlink:href="#Arial-BoldMT-73" transform="translate(144.482422 0)"/>
      <use xlink:href="#Arial-BoldMT-65" transform="translate(200.097656 0)"/>
      <use xlink:href="#Arial-BoldMT-20" transform="translate(255.712891 0)"/>
      <use xlink:href="#Arial-BoldMT-50" transform="translate(283.496094 0)"/>
      <use xlink:href="#Arial-BoldMT-6f" transform="translate(350.195312 0)"/>
      <use xlink:href="#Arial-BoldMT-73" transform="translate(411.279297 0)"/>
      <use xlink:href="#Arial-BoldMT-69" transform="translate(466.894531 0)"/>
      <use xlink:href="#Arial-BoldMT-74" transform="translate(494.677734 0)"/>
      <use xlink:href="#Arial-BoldMT-69" transform="translate(527.978516 0)"/>
      <use xlink:href="#Arial-BoldMT-76" transform="translate(555.761719 0)"/>
      <use xlink:href="#Arial-BoldMT-65" transform="translate(611.376953 0)"/>
      <use xlink:href="#Arial-BoldMT-20" transform="translate(666.992188 0)"/>
      <use xlink:href="#Arial-BoldMT-52" transform="translate(694.775391 0)"/>
      <use xlink:href="#Arial-BoldMT-61" transform="translate(766.992188 0)"/>
      <use xlink:href="#Arial-BoldMT-74" transform="translate(822.607422 0)"/>
      <use xlink:href="#Arial-BoldMT-65" transform="translate(855.908203 0)"/>
      <use xlink:href="#Arial-BoldMT-20" transform="translate(911.523438 0)"/>
      <use xlink:href="#Arial-BoldMT-28" transform="translate(939.306641 0)"/>
      <use xlink:href="#Arial-BoldMT-46" transform="translate(972.607422 0)"/>
      <use xlink:href="#Arial-BoldMT-50" transform="translate(1033.691406 0)"/>
      <use xlink:href="#Arial-BoldMT-52" transform="translate(1100.390625 0)"/>
      <use xlink:href="#Arial-BoldMT-29" transform="translate(1172.607422 0)"/>
     </g>
    </g>
   </g>
   <g id="matplotlib.axis_2">
    <g id="ytick_1">
     <g id="line2d_13">
      <path d="M 35.655938 265.022801 
L 289.19952 265.022801 
" clip-path="url(#p23bba4f300)" style="fill: none; stroke: #c0c0c0; stroke-width: 0.25; stroke-linecap: round"/>
     </g>
     <g id="line2d_14"/>
     <g id="text_8">
      <!-- 0.0 -->
      <g style="fill: #333333" transform="translate(19.645938 268.243817) scale(0.09 -0.09)">
       <use xlink:href="#ArialMT-30"/>
       <use xlink:href="#ArialMT-2e" transform="translate(55.615234 0)"/>
       <use xlink:href="#ArialMT-30" transform="translate(83.398438 0)"/>
      </g>
     </g>
    </g>
    <g id="ytick_2">
     <g id="line2d_15">
      <path d="M 35.655938 217.397348 
L 289.19952 217.397348 
" clip-path="url(#p23bba4f300)" style="fill: none; stroke: #c0c0c0; stroke-width: 0.25; stroke-linecap: round"/>
     </g>
     <g id="line2d_16"/>
     <g id="text_9">
      <!-- 0.2 -->
      <g style="fill: #333333" transform="translate(19.645938 220.618364) scale(0.09 -0.09)">
       <use xlink:href="#ArialMT-30"/>
       <use xlink:href="#ArialMT-2e" transform="translate(55.615234 0)"/>
       <use xlink:href="#ArialMT-32" transform="translate(83.398438 0)"/>
      </g>
     </g>
    </g>
    <g id="ytick_3">
     <g id="line2d_17">
      <path d="M 35.655938 169.771895 
L 289.19952 169.771895 
" clip-path="url(#p23bba4f300)" style="fill: none; stroke: #c0c0c0; stroke-width: 0.25; stroke-linecap: round"/>
     </g>
     <g id="line2d_18"/>
     <g id="text_10">
      <!-- 0.4 -->
      <g style="fill: #333333" transform="translate(19.645938 172.992911) scale(0.09 -0.09)">
       <use xlink:href="#ArialMT-30"/>
       <use xlink:href="#ArialMT-2e" transform="translate(55.615234 0)"/>
       <use xlink:href="#ArialMT-34" transform="translate(83.398438 0)"/>
      </g>
     </g>
    </g>
    <g id="ytick_4">
     <g id="line2d_19">
      <path d="M 35.655938 122.146443 
L 289.19952 122.146443 
" clip-path="url(#p23bba4f300)" style="fill: none; stroke: #c0c0c0; stroke-width: 0.25; stroke-linecap: round"/>
     </g>
     <g id="line2d_20"/>
     <g id="text_11">
      <!-- 0.6 -->
      <g style="fill: #333333" transform="translate(19.645938 125.367458) scale(0.09 -0.09)">
       <use xlink:href="#ArialMT-30"/>
       <use xlink:href="#ArialMT-2e" transform="translate(55.615234 0)"/>
       <use xlink:href="#ArialMT-36" transform="translate(83.398438 0)"/>
      </g>
     </g>
    </g>
    <g id="ytick_5">
     <g id="line2d_21">
      <path d="M 35.655938 74.52099 
L 289.19952 74.52099 
" clip-path="url(#p23bba4f300)" style="fill: none; stroke: #c0c0c0; stroke-width: 0.25; stroke-linecap: round"/>
     </g>
     <g id="line2d_22"/>
     <g id="text_12">
      <!-- 0.8 -->
      <g style="fill: #333333" transform="translate(19.645938 77.742005) scale(0.09 -0.09)">
       <use xlink:href="#ArialMT-30"/>
       <use xlink:href="#ArialMT-2e" transform="translate(55.615234 0)"/>
       <use xlink:href="#ArialMT-38" transform="translate(83.398438 0)"/>
      </g>
     </g>
    </g>
    <g id="ytick_6">
     <g id="line2d_23">
      <path d="M 35.655938 26.895537 
L 289.19952 26.895537 
" clip-path="url(#p23bba4f300)" style="fill: none; stroke: #c0c0c0; stroke-width: 0.25; stroke-linecap: round"/>
     </g>
     <g id="line2d_24"/>
     <g id="text_13">
      <!-- 1.0 -->
      <g style="fill: #333333" transform="translate(19.645938 30.116552) scale(0.09 -0.09)">
       <use xlink:href="#ArialMT-31"/>
       <use xlink:href="#ArialMT-2e" transform="translate(55.615234 0)"/>
       <use xlink:href="#ArialMT-30" transform="translate(83.398438 0)"/>
      </g>
     </g>
    </g>
    <g id="text_14">
     <!-- True Positive Rate (TPR) -->
     <g style="fill: #333333" transform="translate(13.751719 194.647026) rotate(-90) scale(0.09 -0.09)">
      <defs>
       <path id="Arial-BoldMT-54" d="M 1497 0 
L 1497 3806 
L 138 3806 
L 138 4581 
L 3778 4581 
L 3778 3806 
L 2422 3806 
L 2422 0 
L 1497 0 
z
" transform="scale(0.015625)"/>
       <path id="Arial-BoldMT-72" d="M 1300 0 
L 422 0 
L 422 3319 
L 1238 3319 
L 1238 2847 
Q 1447 3181 1614 3287 
Q 1781 3394 1994 3394 
Q 2294 3394 2572 3228 
L 2300 2463 
Q 2078 2606 1888 2606 
Q 1703 2606 1575 2504 
Q 1447 2403 1373 2137 
Q 1300 1872 1300 1025 
L 1300 0 
z
" transform="scale(0.015625)"/>
       <path id="Arial-BoldMT-75" d="M 2644 0 
L 2644 497 
Q 2463 231 2167 78 
Q 1872 -75 1544 -75 
Q 1209 -75 943 72 
Q 678 219 559 484 
Q 441 750 441 1219 
L 441 3319 
L 1319 3319 
L 1319 1794 
Q 1319 1094 1367 936 
Q 1416 778 1544 686 
Q 1672 594 1869 594 
Q 2094 594 2272 717 
Q 2450 841 2515 1023 
Q 2581 1206 2581 1919 
L 2581 3319 
L 3459 3319 
L 3459 0 
L 2644 0 
z
" transform="scale(0.015625)"/>
      </defs>
      <use xlink:href="#Arial-BoldMT-54"/>
      <use xlink:href="#Arial-BoldMT-72" transform="translate(55.583984 0)"/>
      <use xlink:href="#Arial-BoldMT-75" transform="translate(94.5 0)"/>
      <use xlink:href="#Arial-BoldMT-65" transform="translate(155.583984 0)"/>
      <use xlink:href="#Arial-BoldMT-20" transform="translate(211.199219 0)"/>
      <use xlink:href="#Arial-BoldMT-50" transform="translate(238.982422 0)"/>
      <use xlink:href="#Arial-BoldMT-6f" transform="translate(305.681641 0)"/>
      <use xlink:href="#Arial-BoldMT-73" transform="translate(366.765625 0)"/>
      <use xlink:href="#Arial-BoldMT-69" transform="translate(422.380859 0)"/>
      <use xlink:href="#Arial-BoldMT-74" transform="translate(450.164062 0)"/>
      <use xlink:href="#Arial-BoldMT-69" transform="translate(483.464844 0)"/>
      <use xlink:href="#Arial-BoldMT-76" transform="translate(511.248047 0)"/>
      <use xlink:href="#Arial-BoldMT-65" transform="translate(566.863281 0)"/>
      <use xlink:href="#Arial-BoldMT-20" transform="translate(622.478516 0)"/>
      <use xlink:href="#Arial-BoldMT-52" transform="translate(650.261719 0)"/>
      <use xlink:href="#Arial-BoldMT-61" transform="translate(722.478516 0)"/>
      <use xlink:href="#Arial-BoldMT-74" transform="translate(778.09375 0)"/>
      <use xlink:href="#Arial-BoldMT-65" transform="translate(811.394531 0)"/>
      <use xlink:href="#Arial-BoldMT-20" transform="translate(867.009766 0)"/>
      <use xlink:href="#Arial-BoldMT-28" transform="translate(894.792969 0)"/>
      <use xlink:href="#Arial-BoldMT-54" transform="translate(928.09375 0)"/>
      <use xlink:href="#Arial-BoldMT-50" transform="translate(989.177734 0)"/>
      <use xlink:href="#Arial-BoldMT-52" transform="translate(1055.876953 0)"/>
      <use xlink:href="#Arial-BoldMT-29" transform="translate(1128.09375 0)"/>
     </g>
    </g>
   </g>
   <g id="line2d_25">
    <path d="M 42.831699 265.022801 
L 42.942733 242.237039 
L 42.945099 242.130063 
L 43.055591 232.395301 
L 43.058869 232.288326 
L 43.1654 225.602362 
L 43.171499 225.495387 
L 43.28239 220.039641 
L 43.28467 219.932666 
L 43.393567 215.546674 
L 43.399523 215.439698 
L 43.5105 211.802534 
L 43.515088 211.695559 
L 43.624754 208.64676 
L 43.629001 208.539784 
L 43.736187 205.918887 
L 43.748642 205.811911 
L 43.857852 202.923575 
L 43.860958 202.8166 
L 43.96196 200.677092 
L 43.981825 200.570116 
L 44.089154 197.949219 
L 44.10537 197.842243 
L 44.214181 196.130637 
L 44.221933 196.023661 
L 44.326982 194.258567 
L 44.343626 194.151592 
L 44.449872 192.119059 
L 44.463095 192.012083 
L 44.570396 190.407452 
L 44.583677 190.300477 
L 44.693884 188.749333 
L 44.701807 188.642358 
L 44.811616 186.930751 
L 44.81666 186.823776 
L 44.922051 184.791243 
L 44.943768 184.684268 
L 45.053291 182.972661 
L 45.056426 182.865686 
L 45.165893 181.795932 
L 45.177635 181.688956 
L 45.288412 180.298276 
L 45.294283 180.1913 
L 45.404661 178.212255 
L 45.418427 178.10528 
L 45.519343 176.7146 
L 45.522393 176.7146 
L 45.534619 176.607624 
L 45.62103 175.430895 
L 45.634966 175.430895 
L 45.666201 175.323919 
L 45.776266 174.254165 
L 45.785415 174.14719 
L 45.894112 173.130923 
L 45.912893 173.023948 
L 46.021248 171.686755 
L 46.046612 171.57978 
L 46.153371 170.777464 
L 46.167935 170.670489 
L 46.27552 169.868173 
L 46.294786 169.761198 
L 46.405335 168.691444 
L 46.414683 168.584468 
L 46.496961 167.407739 
L 46.510242 167.407739 
L 46.541107 167.300763 
L 46.6514 165.856595 
L 46.663854 165.74962 
L 46.774632 164.840329 
L 46.83203 164.733354 
L 46.943035 163.663599 
L 46.965464 163.556624 
L 47.0757 162.540358 
L 47.096448 162.433382 
L 47.18605 161.577579 
L 47.23051 161.470604 
L 47.332652 160.240386 
L 47.366823 160.133411 
L 47.471131 159.384583 
L 47.48786 159.277608 
L 47.573387 158.421804 
L 47.61246 158.314829 
L 47.722439 157.405538 
L 47.760571 157.298563 
L 47.863027 156.389272 
L 47.889161 156.282296 
L 47.998685 155.373005 
L 48.033511 155.26603 
L 48.137876 154.57069 
L 48.162728 154.463714 
L 48.273106 153.607911 
L 48.28653 153.500935 
L 48.395996 152.805595 
L 48.438603 152.69862 
L 48.545333 151.896304 
L 48.585717 151.789329 
L 48.695896 151.200964 
L 48.72374 151.093989 
L 48.823517 150.398649 
L 48.854097 150.291673 
L 48.956438 149.542845 
L 48.981945 149.43587 
L 49.086624 148.633554 
L 49.12202 148.526579 
L 49.231829 147.670776 
L 49.241291 147.5638 
L 49.334028 147.028923 
L 49.392338 146.921948 
L 49.502403 145.959169 
L 49.523578 145.852194 
L 49.63199 144.99639 
L 49.67018 144.889415 
L 49.777879 144.354538 
L 49.783294 144.247562 
L 49.888799 143.659198 
L 49.901054 143.552222 
L 49.998066 142.856882 
L 50.058542 142.749907 
L 50.169633 142.161542 
L 50.209903 142.054566 
L 50.320167 141.359226 
L 50.349493 141.252251 
L 50.456338 140.931325 
L 50.507979 140.824349 
L 50.614596 140.289472 
L 50.677522 140.182497 
L 50.785478 139.594132 
L 50.812354 139.487157 
L 50.923331 139.005767 
L 50.949835 138.898792 
L 51.060214 138.256939 
L 51.096778 138.149964 
L 51.180339 137.508112 
L 51.19704 137.508112 
L 51.226195 137.401136 
L 51.329591 136.866259 
L 51.365244 136.759284 
L 51.468611 136.010456 
L 51.523672 135.90348 
L 51.61812 135.368603 
L 51.663149 135.261628 
L 51.770107 134.619775 
L 51.834231 134.5128 
L 51.922808 134.245361 
L 51.965585 134.138386 
L 52.074482 133.229095 
L 52.109023 133.12212 
L 52.214956 132.694218 
L 52.267224 132.587243 
L 52.372586 132.052366 
L 52.416105 131.94539 
L 52.523007 131.357025 
L 52.526284 131.357025 
L 52.587302 131.25005 
L 52.689985 130.55471 
L 52.704634 130.447734 
L 52.808828 129.912857 
L 52.866369 129.805882 
L 52.960787 129.324493 
L 52.986009 129.217517 
L 53.068715 128.415202 
L 53.119558 128.308226 
L 53.218736 127.880325 
L 53.238914 127.773349 
L 53.342509 127.452423 
L 53.387111 127.345447 
L 53.487429 127.024521 
L 53.542889 126.917546 
L 53.648907 126.329181 
L 53.701147 126.222206 
L 53.812152 125.687329 
L 53.844699 125.580353 
L 53.945901 125.259427 
L 53.969498 125.152452 
L 54.07013 124.510599 
L 54.207697 124.403624 
L 54.314313 123.654796 
L 54.355182 123.54782 
L 54.457979 122.959456 
L 54.493404 122.85248 
L 54.59643 122.478066 
L 54.644166 122.371091 
L 54.750783 121.996677 
L 54.831807 121.889702 
L 54.940789 121.4618 
L 54.941587 121.4618 
L 55.042589 121.354824 
L 55.144532 121.033898 
L 55.219685 120.926923 
L 55.300339 120.445533 
L 55.327955 120.445533 
L 55.360729 120.338558 
L 55.462016 120.017632 
L 55.57496 119.910656 
L 55.597588 119.696706 
L 55.674537 119.696706 
L 55.725266 119.58973 
L 55.834277 118.89439 
L 55.864059 118.787415 
L 55.941064 118.573464 
L 55.968224 118.573464 
L 55.995042 118.466488 
L 56.073729 118.145562 
L 56.111862 118.038587 
L 56.214574 117.878124 
L 56.297051 117.771148 
L 56.39526 117.289759 
L 56.396571 117.289759 
L 56.516412 117.182783 
L 56.625964 116.754882 
L 56.6568 116.647906 
L 56.717504 116.32698 
L 56.759826 116.32698 
L 56.914065 116.220005 
L 57.017205 115.738615 
L 57.108546 115.63164 
L 57.21445 115.203738 
L 57.349024 115.096763 
L 57.445581 114.561886 
L 57.459517 114.561886 
L 57.538118 114.45491 
L 57.642113 113.973521 
L 57.720601 113.866546 
L 57.812454 113.545619 
L 57.828614 113.545619 
L 57.872474 113.438644 
L 57.9755 112.796792 
L 58.082145 112.689816 
L 58.154591 112.36889 
L 58.187964 112.36889 
L 58.255764 112.261915 
L 58.359702 111.727037 
L 58.364347 111.727037 
L 58.520439 111.620062 
L 58.59297 111.245648 
L 58.599582 111.245648 
L 58.669833 111.138673 
L 58.764907 110.871234 
L 58.900479 110.764259 
L 59.008549 110.389845 
L 59.010658 110.389845 
L 59.073243 110.282869 
L 59.161905 109.854968 
L 59.171395 109.854968 
L 59.216368 109.747992 
L 59.326433 109.480554 
L 59.365477 109.373578 
L 59.473519 109.10614 
L 59.517493 108.999165 
L 59.576801 108.731726 
L 59.622115 108.731726 
L 59.682933 108.624751 
L 59.787526 108.036386 
L 59.870459 107.92941 
L 59.941452 107.768947 
L 59.977275 107.768947 
L 60.085402 107.661972 
L 60.189654 107.394533 
L 60.384191 107.287558 
L 60.49343 106.859656 
L 60.527202 106.752681 
L 60.63359 106.53873 
L 60.6467 106.431755 
L 60.739665 105.896878 
L 60.753687 105.896878 
L 60.790736 105.789902 
L 60.899519 105.575951 
L 60.939418 105.468976 
L 61.038226 105.201537 
L 61.103404 105.094562 
L 61.171005 104.827123 
L 61.199761 104.827123 
L 61.226607 104.720148 
L 61.315526 104.559685 
L 61.399457 104.45271 
L 61.506643 104.238759 
L 61.510149 104.238759 
L 61.521663 104.131783 
L 61.624375 103.810857 
L 61.729053 103.703882 
L 61.826009 103.489931 
L 61.891956 103.382955 
L 61.966226 103.169005 
L 62.047706 103.062029 
L 62.152955 102.848078 
L 62.210267 102.741103 
L 62.302891 102.527152 
L 62.320275 102.527152 
L 62.423928 102.420177 
L 62.534249 102.206226 
L 62.660787 102.099251 
L 62.7405 101.724837 
L 62.768544 101.724837 
L 62.815169 101.617861 
L 62.911355 101.350423 
L 63.021933 101.243447 
L 63.124901 100.976009 
L 63.181786 100.869033 
L 63.278798 100.548107 
L 63.346342 100.441132 
L 63.435517 100.227181 
L 63.453728 100.227181 
L 63.557295 100.120205 
L 63.661547 99.745791 
L 63.739122 99.638816 
L 63.809886 99.424865 
L 63.841464 99.424865 
L 63.941098 99.31789 
L 63.952127 99.210914 
L 64.050251 99.210914 
L 64.103659 99.103939 
L 64.192293 98.8365 
L 64.27477 98.729525 
L 64.287196 98.569062 
L 64.35796 98.569062 
L 64.441977 98.462087 
L 64.524255 98.194648 
L 64.607074 98.087673 
L 64.704685 97.766746 
L 64.709957 97.766746 
L 64.757922 97.659771 
L 64.864339 97.124894 
L 64.971981 97.017919 
L 65.074751 96.803968 
L 65.077316 96.803968 
L 65.171677 96.696992 
L 65.249937 96.536529 
L 65.268376 96.536529 
L 65.317424 96.429554 
L 65.410788 96.108628 
L 65.501673 96.001652 
L 65.569929 95.734214 
L 65.592159 95.734214 
L 65.68407 95.627238 
L 65.791598 95.466775 
L 65.917566 95.3598 
L 65.981319 95.199337 
L 66.009106 95.199337 
L 66.108256 95.092361 
L 66.186715 94.931898 
L 66.203701 94.931898 
L 66.244142 94.824923 
L 66.353979 94.610972 
L 66.453413 94.503996 
L 66.485589 94.18307 
L 66.52281 94.18307 
L 66.582972 94.076095 
L 66.679044 93.915632 
L 66.747015 93.808656 
L 66.853033 93.594705 
L 67.027877 93.48773 
L 67.123522 93.059828 
L 67.246696 92.952853 
L 67.354396 92.685414 
L 67.38945 92.578439 
L 67.495383 92.364488 
L 67.498318 92.364488 
L 67.650221 92.257513 
L 67.743899 91.883099 
L 67.754301 91.883099 
L 67.80731 91.776123 
L 67.892951 91.61566 
L 67.900247 91.61566 
L 67.961749 91.508685 
L 68.060357 91.401709 
L 68.119892 91.294734 
L 68.182135 91.187759 
L 68.335234 91.080783 
L 68.442364 90.813345 
L 68.541314 90.706369 
L 68.627668 90.331955 
L 68.650211 90.331955 
L 68.821379 90.22498 
L 68.867434 89.957541 
L 68.91403 89.957541 
L 69.033101 89.850566 
L 69.071348 89.636615 
L 69.135557 89.636615 
L 69.209855 89.52964 
L 69.293558 89.315689 
L 69.320889 89.315689 
L 69.519417 89.208714 
L 69.541247 89.101738 
L 69.612496 89.101738 
L 69.690271 88.994763 
L 69.785801 88.887787 
L 69.907409 88.780812 
L 69.959249 88.673836 
L 69.962299 88.673836 
L 70.166868 88.566861 
L 70.22646 88.406398 
L 70.268782 88.406398 
L 70.355677 88.299423 
L 70.422337 87.978496 
L 70.444766 87.978496 
L 70.509318 87.871521 
L 70.61183 87.711058 
L 70.694536 87.604082 
L 70.791605 87.283156 
L 70.914552 87.176181 
L 70.94231 87.069205 
L 70.983806 87.069205 
L 71.167713 86.96223 
L 71.25096 86.694791 
L 71.268744 86.694791 
L 71.462369 86.587816 
L 71.50318 86.480841 
L 71.560635 86.480841 
L 71.63063 86.373865 
L 71.706097 86.213402 
L 71.729808 86.213402 
L 71.779682 86.106427 
L 71.845687 85.892476 
L 71.875184 85.892476 
L 72.078642 85.7855 
L 72.144105 85.464574 
L 72.183976 85.464574 
L 72.259129 85.357599 
L 72.370192 85.197136 
L 72.43859 85.09016 
L 72.538139 84.876209 
L 72.703721 84.769234 
L 72.77249 84.555283 
L 72.796231 84.555283 
L 73.145862 84.448308 
L 73.238429 84.234357 
L 73.362572 84.127381 
L 73.464572 83.806455 
L 73.532344 83.69948 
L 73.596183 83.539017 
L 73.639986 83.539017 
L 73.707388 83.432041 
L 73.779292 83.164603 
L 73.794425 83.164603 
L 74.00307 83.057627 
L 74.094211 82.950652 
L 74.266263 82.843677 
L 74.266263 82.790189 
L 74.447747 82.683213 
L 74.535611 82.576238 
L 74.646332 82.469263 
L 74.729066 82.3088 
L 74.744341 82.3088 
L 74.931868 82.201824 
L 75.030562 81.987873 
L 75.1343 81.880898 
L 75.192211 81.666947 
L 75.370618 81.559972 
L 75.478374 81.346021 
L 75.626173 81.239045 
L 75.712725 81.13207 
L 75.920458 81.025095 
L 76.010061 80.650681 
L 76.137254 80.543705 
L 76.246806 80.383242 
L 76.390985 80.276267 
L 76.496034 79.95534 
L 76.500394 79.95534 
L 76.899387 79.848365 
L 77.00227 79.634414 
L 77.060381 79.527439 
L 77.124049 79.313488 
L 77.145851 79.313488 
L 77.251783 79.206513 
L 77.353213 79.099537 
L 77.667534 78.992562 
L 77.731287 78.778611 
L 77.988609 78.671636 
L 78.034123 78.56466 
L 78.092718 78.56466 
L 78.214182 78.457685 
L 78.271865 78.243734 
L 78.314928 78.243734 
L 78.427758 78.136758 
L 78.510634 77.922808 
L 78.532037 77.922808 
L 78.614315 77.815832 
L 78.614315 77.762345 
L 78.683198 77.762345 
L 78.795999 77.655369 
L 78.807513 77.548394 
L 78.843508 77.548394 
L 79.130213 77.441418 
L 79.130213 77.387931 
L 79.467761 77.280955 
L 79.53559 77.013517 
L 79.607579 76.906541 
L 79.626617 76.746078 
L 79.655116 76.746078 
L 80.013669 76.639103 
L 80.032364 76.532127 
L 80.04536 76.532127 
L 80.341897 76.425152 
L 80.398925 76.318177 
L 80.442073 76.318177 
L 80.539085 76.211201 
L 80.630198 75.99725 
L 80.643422 75.99725 
L 80.835508 75.890275 
L 80.911288 75.729812 
L 80.937422 75.729812 
L 81.04991 75.622836 
L 81.137603 75.515861 
L 81.31467 75.408886 
L 81.371299 75.248422 
L 81.410286 75.248422 
L 81.637626 75.141447 
L 81.741193 75.034472 
L 81.746865 75.034472 
L 81.863257 74.927496 
L 81.937783 74.820521 
L 81.965541 74.820521 
L 82.092649 74.713545 
L 82.192967 74.446107 
L 82.560183 74.339131 
L 82.663551 74.178668 
L 82.812033 74.071693 
L 82.915144 73.964717 
L 83.058497 73.857742 
L 83.167906 73.750767 
L 83.16916 73.750767 
L 83.208774 73.643791 
L 83.208774 73.590304 
L 83.280992 73.590304 
L 83.546465 73.483328 
L 83.656501 73.322865 
L 83.80239 73.21589 
L 83.887148 72.841476 
L 84.077382 72.7345 
L 84.141677 72.627525 
L 84.144698 72.627525 
L 84.352316 72.520549 
L 84.352316 72.467062 
L 84.434993 72.467062 
L 84.561588 72.360086 
L 84.624002 72.199623 
L 84.672109 72.199623 
L 85.022881 72.092648 
L 85.079538 71.932185 
L 85.202998 71.825209 
L 85.216193 71.718234 
L 85.308731 71.718234 
L 85.603415 71.611258 
L 85.712426 71.450795 
L 85.791797 71.34382 
L 85.84321 71.236844 
L 85.886529 71.236844 
L 85.944127 71.129869 
L 86.005657 71.022894 
L 86.049746 71.022894 
L 86.341353 70.915918 
L 86.341353 70.862431 
L 86.412858 70.862431 
L 86.492941 70.755455 
L 86.580007 70.64848 
L 86.753655 70.541504 
L 86.833425 70.434529 
L 86.967116 70.327553 
L 87.071509 70.220578 
L 87.592167 70.113603 
L 87.592167 70.060115 
L 87.694508 70.060115 
L 87.928717 69.95314 
L 87.99418 69.792676 
L 88.361453 69.685701 
L 88.454219 69.578726 
L 88.456983 69.578726 
L 88.868744 69.47175 
L 88.944667 69.311287 
L 89.04242 69.204312 
L 89.118457 69.043849 
L 89.123244 69.043849 
L 89.42494 68.936873 
L 89.453154 68.829898 
L 89.493937 68.829898 
L 89.68819 68.722922 
L 89.68819 68.669435 
L 89.724641 68.669435 
L 89.967969 68.562459 
L 89.967969 68.508972 
L 90.052784 68.508972 
L 90.198872 68.401996 
L 90.295742 68.295021 
L 90.520432 68.188045 
L 90.615478 68.08107 
L 90.855728 67.974094 
L 90.951486 67.867119 
L 91.157367 67.760144 
L 91.157367 67.706656 
L 91.24144 67.706656 
L 91.417767 67.599681 
L 91.52179 67.38573 
L 91.850218 67.278754 
L 91.850218 67.225267 
L 91.873758 67.225267 
L 92.046579 67.118291 
L 92.123015 66.957828 
L 92.615372 66.850853 
L 92.670633 66.743877 
L 92.720336 66.743877 
L 92.869986 66.636902 
L 92.869986 66.583414 
L 93.292833 66.476439 
L 93.336637 66.315976 
L 93.808817 66.209 
L 93.913381 66.102025 
L 94.090733 65.995049 
L 94.090733 65.941562 
L 94.158363 65.941562 
L 95.102408 65.834586 
L 95.102408 65.781099 
L 95.165734 65.781099 
L 95.743903 65.674123 
L 95.782377 65.51366 
L 95.805947 65.51366 
L 96.312667 65.406685 
L 96.312667 65.353197 
L 96.566997 65.246221 
L 96.636906 65.139246 
L 97.344377 65.032271 
L 97.402003 64.871808 
L 97.839356 64.764832 
L 97.940359 64.657857 
L 98.307717 64.550881 
L 98.364032 64.390418 
L 98.735295 64.283443 
L 98.735295 64.229955 
L 98.803523 64.229955 
L 99.26758 64.12298 
L 99.364307 63.962517 
L 99.762331 63.855541 
L 99.820213 63.748566 
L 99.851221 63.748566 
L 99.964164 63.64159 
L 99.964164 63.588103 
L 100.035641 63.588103 
L 100.297922 63.481127 
L 100.297922 63.427639 
L 100.404253 63.427639 
L 100.607426 63.320664 
L 100.682323 63.106713 
L 100.909977 62.999738 
L 101.015396 62.892762 
L 101.222359 62.785787 
L 101.222359 62.732299 
L 101.320455 62.732299 
L 101.71788 62.625324 
L 101.798534 62.464861 
L 101.933365 62.357885 
L 102.029151 62.25091 
L 102.405972 62.143935 
L 102.488278 61.983471 
L 102.869345 61.876496 
L 102.951765 61.769521 
L 103.154682 61.662545 
L 103.213989 61.502082 
L 103.234879 61.502082 
L 103.45689 61.395107 
L 103.45689 61.341619 
L 103.528338 61.341619 
L 103.772123 61.234644 
L 103.87589 61.020693 
L 104.303752 60.913717 
L 104.303752 60.86023 
L 104.339975 60.86023 
L 104.583218 60.753254 
L 104.583218 60.699767 
L 104.841994 60.592791 
L 104.841994 60.539303 
L 105.197069 60.432328 
L 105.297986 60.271865 
L 105.30283 60.271865 
L 105.612563 60.164889 
L 105.612563 60.111402 
L 105.722286 60.111402 
L 105.830755 60.004426 
L 105.830755 59.950939 
L 105.902004 59.950939 
L 106.17349 59.843963 
L 106.275404 59.736988 
L 106.277798 59.736988 
L 106.913735 59.630012 
L 106.913735 59.576525 
L 107.568796 59.469549 
L 107.657886 59.255598 
L 108.0088 59.148623 
L 108.0088 59.095135 
L 108.707408 58.98816 
L 108.707408 58.934672 
L 109.022184 58.827697 
L 109.058778 58.720721 
L 109.114352 58.720721 
L 109.392193 58.613746 
L 109.450161 58.453283 
L 109.50166 58.453283 
L 110.106276 58.346307 
L 110.106276 58.29282 
L 110.206367 58.29282 
L 110.794169 58.185844 
L 110.893233 58.025381 
L 111.539003 57.918406 
L 111.539003 57.864918 
L 111.625499 57.864918 
L 111.866091 57.757943 
L 111.930614 57.59748 
L 112.257902 57.490504 
L 112.258729 57.383529 
L 112.958819 57.276553 
L 112.993616 57.169578 
L 113.166409 57.062603 
L 113.229649 56.955627 
L 114.210687 56.848652 
L 114.275238 56.688189 
L 114.515318 56.581213 
L 114.539457 56.474238 
L 114.87293 56.367262 
L 114.87293 56.313775 
L 115.328237 56.206799 
L 115.328237 56.153312 
L 115.998032 56.046336 
L 116.062783 55.939361 
L 116.296308 55.832385 
L 116.296308 55.778898 
L 116.365248 55.778898 
L 116.957981 55.671922 
L 117.057672 55.564947 
L 117.299832 55.457971 
L 117.299832 55.404484 
L 118.017021 55.297508 
L 118.123952 55.190533 
L 118.584275 55.083557 
L 118.602942 54.976582 
L 119.135199 54.869607 
L 119.135199 54.816119 
L 119.684754 54.709144 
L 119.684754 54.655656 
L 120.156307 54.54868 
L 120.173578 54.441705 
L 120.211225 54.441705 
L 120.736813 54.33473 
L 120.736813 54.281242 
L 121.388055 54.174266 
L 121.433768 54.013803 
L 121.446792 54.013803 
L 122.619917 53.906828 
L 122.619917 53.85334 
L 123.072032 53.746365 
L 123.144934 53.639389 
L 123.826129 53.532414 
L 123.890367 53.425439 
L 124.555773 53.318463 
L 124.627876 53.211488 
L 125.064289 53.104512 
L 125.099714 52.997537 
L 125.171333 52.997537 
L 125.389981 52.890562 
L 125.472687 52.783586 
L 125.941532 52.676611 
L 125.941532 52.623123 
L 126.373669 52.516148 
L 126.475812 52.248709 
L 126.768302 52.141734 
L 126.829091 52.034758 
L 127.0462 51.927783 
L 127.0462 51.874295 
L 127.891495 51.76732 
L 127.944761 51.660344 
L 128.139469 51.553369 
L 128.139469 51.499881 
L 128.852783 51.392906 
L 128.867802 51.28593 
L 128.894535 51.28593 
L 129.172975 51.178955 
L 129.172975 51.125467 
L 129.706371 51.018492 
L 129.808798 50.911516 
L 130.108983 50.804541 
L 130.108983 50.751053 
L 130.644517 50.644078 
L 130.644517 50.59059 
L 130.649419 50.59059 
L 130.985998 50.483615 
L 130.985998 50.430127 
L 131.591184 50.323152 
L 131.684891 50.162689 
L 132.023778 50.055713 
L 132.134727 49.841762 
L 132.35138 49.734787 
L 132.462157 49.574324 
L 133.125055 49.467348 
L 133.182881 49.360373 
L 133.193027 49.360373 
L 134.142174 49.253398 
L 134.22183 49.146422 
L 134.645474 49.039447 
L 134.645474 48.985959 
L 134.68164 48.985959 
L 135.126175 48.878984 
L 135.126175 48.825496 
L 136.035394 48.718521 
L 136.145345 48.611545 
L 136.816879 48.50457 
L 136.888299 48.397594 
L 137.597907 48.290619 
L 137.598848 48.183643 
L 138.464178 48.076668 
L 138.498434 47.969693 
L 138.534742 47.969693 
L 138.927152 47.862717 
L 138.970813 47.702254 
L 140.604119 47.595279 
L 140.604119 47.541791 
L 142.872393 47.434816 
L 142.872393 47.381328 
L 143.776539 47.274352 
L 143.776539 47.220865 
L 143.823877 47.220865 
L 144.157064 47.113889 
L 144.157064 47.060402 
L 144.373033 46.953426 
L 144.373033 46.899939 
L 144.771314 46.792963 
L 144.771314 46.739475 
L 145.454845 46.6325 
L 145.454845 46.579012 
L 145.562744 46.579012 
L 146.619021 46.472037 
L 146.633897 46.365061 
L 147.443995 46.258086 
L 147.552037 46.151111 
L 148.315424 46.044135 
L 148.315424 45.990648 
L 149.039055 45.883672 
L 149.039055 45.830184 
L 149.689726 45.723209 
L 149.689726 45.669721 
L 149.920943 45.562746 
L 149.920943 45.509258 
L 149.970703 45.509258 
L 150.426695 45.402283 
L 150.426695 45.348795 
L 150.469957 45.348795 
L 150.924353 45.24182 
L 150.975737 45.081357 
L 151.582776 44.974381 
L 151.664028 44.867406 
L 152.527021 44.76043 
L 152.527021 44.706943 
L 153.041836 44.599967 
L 153.041836 44.546479 
L 153.4693 44.439504 
L 153.4693 44.386016 
L 154.155254 44.279041 
L 154.21174 44.172066 
L 154.703299 44.06509 
L 154.703299 44.011602 
L 154.789653 44.011602 
L 154.939759 43.904627 
L 154.939759 43.851139 
L 155.743958 43.744164 
L 155.743958 43.690676 
L 155.81287 43.690676 
L 156.208158 43.583701 
L 156.208158 43.530213 
L 156.316997 43.530213 
L 156.977843 43.423238 
L 156.981263 43.316262 
L 157.049405 43.316262 
L 157.893959 43.209287 
L 157.893959 43.155799 
L 157.982707 43.155799 
L 160.207946 43.048824 
L 160.207946 42.995336 
L 160.287175 42.995336 
L 160.766251 42.888361 
L 160.766251 42.834873 
L 160.812563 42.834873 
L 161.329971 42.727897 
L 161.329971 42.67441 
L 161.428864 42.67441 
L 161.701263 42.567434 
L 161.701263 42.513947 
L 161.730161 42.513947 
L 162.306934 42.406971 
L 162.306934 42.353484 
L 162.388927 42.353484 
L 163.113298 42.246508 
L 163.113298 42.19302 
L 163.293187 42.086045 
L 163.364664 41.97907 
L 164.410538 41.872094 
L 164.410538 41.818607 
L 165.170021 41.711631 
L 165.19396 41.604656 
L 165.961195 41.49768 
L 165.961195 41.444193 
L 166.384498 41.337217 
L 166.384498 41.283729 
L 168.167169 41.176754 
L 168.203506 41.069779 
L 169.467886 40.962803 
L 169.566836 40.855828 
L 169.89344 40.748852 
L 169.993473 40.588389 
L 170.758912 40.481414 
L 170.826257 40.374438 
L 171.045988 40.267463 
L 171.045988 40.213975 
L 171.060437 40.213975 
L 172.526337 40.107 
L 172.526337 40.053512 
L 174.209887 39.946537 
L 174.209887 39.893049 
L 175.041787 39.786074 
L 175.149914 39.625611 
L 175.808052 39.518635 
L 175.808052 39.465147 
L 175.850659 39.465147 
L 176.149077 39.358172 
L 176.256036 39.251197 
L 177.847704 39.144221 
L 177.939643 38.983758 
L 178.926039 38.876783 
L 178.926039 38.823295 
L 179.48594 38.71632 
L 179.48594 38.662832 
L 180.246905 38.555856 
L 180.246905 38.502369 
L 180.773575 38.395393 
L 180.773575 38.341906 
L 180.814842 38.341906 
L 181.590456 38.23493 
L 181.590456 38.181443 
L 182.240444 38.074467 
L 182.240444 38.020979 
L 183.816551 37.914004 
L 183.816551 37.860516 
L 184.875364 37.753541 
L 184.882916 37.646565 
L 185.603127 37.53959 
L 185.61541 37.432615 
L 186.756729 37.325639 
L 186.756729 37.272152 
L 186.772973 37.272152 
L 188.032565 37.165176 
L 188.032565 37.111688 
L 188.972364 37.004713 
L 188.972364 36.951225 
L 189.070773 36.951225 
L 190.913236 36.84425 
L 191.013099 36.737274 
L 191.876063 36.630299 
L 191.876063 36.576811 
L 192.243279 36.469836 
L 192.297428 36.362861 
L 192.948442 36.255885 
L 193.029266 36.14891 
L 194.571972 36.041934 
L 194.571972 35.988447 
L 195.304665 35.881471 
L 195.304665 35.827983 
L 196.118725 35.721008 
L 196.160818 35.614033 
L 197.091241 35.507057 
L 197.091241 35.45357 
L 199.516177 35.346594 
L 199.516177 35.293106 
L 199.53188 35.293106 
L 199.846172 35.186131 
L 199.955554 35.079156 
L 202.991746 34.97218 
L 202.991746 34.918693 
L 204.062529 34.811717 
L 204.11437 34.704742 
L 205.112137 34.597766 
L 205.112137 34.544279 
L 208.986898 34.437303 
L 209.093173 34.330328 
L 210.829533 34.223352 
L 210.829533 34.169865 
L 212.094026 34.062889 
L 212.094026 34.009402 
L 214.311486 33.902426 
L 214.311486 33.848938 
L 215.576407 33.741963 
L 215.576407 33.688475 
L 216.163668 33.5815 
L 216.163668 33.528012 
L 217.723159 33.421037 
L 217.723159 33.367549 
L 218.394721 33.260574 
L 218.394721 33.207086 
L 219.503864 33.100111 
L 219.603242 32.993135 
L 222.285842 32.88616 
L 222.285842 32.832672 
L 224.478193 32.725697 
L 224.478193 32.672209 
L 224.954876 32.565233 
L 224.982492 32.458258 
L 226.689212 32.351283 
L 226.798593 32.244307 
L 227.797899 32.137332 
L 227.801917 32.030356 
L 229.182775 31.923381 
L 229.268786 31.816406 
L 231.54712 31.70943 
L 231.599674 31.548967 
L 233.619974 31.441992 
L 233.619974 31.388504 
L 233.71918 31.388504 
L 234.7186 31.281529 
L 234.7186 31.228041 
L 236.116842 31.121065 
L 236.116842 31.067578 
L 237.441897 30.960602 
L 237.441897 30.907115 
L 238.522341 30.800139 
L 238.522341 30.746651 
L 242.397645 30.639676 
L 242.397645 30.586188 
L 243.424339 30.479213 
L 243.424339 30.425725 
L 244.717474 30.31875 
L 244.717474 30.265262 
L 244.769856 30.265262 
L 245.232203 30.158287 
L 245.232203 30.104799 
L 245.80453 29.997824 
L 245.80453 29.944336 
L 247.205707 29.83736 
L 247.205707 29.783873 
L 248.554246 29.676897 
L 248.554246 29.62341 
L 248.596197 29.62341 
L 250.497199 29.516434 
L 250.497199 29.462947 
L 251.972931 29.355971 
L 251.972931 29.302483 
L 254.700958 29.195508 
L 254.700958 29.14202 
L 255.690546 29.035045 
L 255.787872 28.928069 
L 260.123214 28.821094 
L 260.123214 28.767606 
L 261.24199 28.660631 
L 261.295939 28.500168 
L 261.31244 28.500168 
L 263.476406 28.393192 
L 263.476406 28.339705 
L 263.494105 28.339705 
L 264.519972 28.232729 
L 264.519972 28.179242 
L 268.289514 28.072266 
L 268.289514 28.018779 
L 270.137335 27.911803 
L 270.137335 27.858315 
L 272.258894 27.75134 
L 272.272146 27.644365 
L 272.367847 27.644365 
L 275.53756 27.537389 
L 275.648623 27.430414 
L 277.382446 27.323438 
L 277.382446 27.269951 
L 277.391224 27.269951 
L 278.673102 27.162975 
L 278.673102 27.109488 
L 278.756634 27.109488 
L 281.413214 27.002512 
L 281.413214 26.949024 
L 281.520999 26.949024 
L 282.023758 26.895537 
L 282.023758 26.895537 
" clip-path="url(#p23bba4f300)" style="fill: none; stroke: #1f77b4; stroke-width: 1.5; stroke-linecap: round"/>
   </g>
   <g id="line2d_26">
    <path d="M 42.831699 265.022801 
L 282.023758 26.895537 
" clip-path="url(#p23bba4f300)" style="fill: none; stroke-dasharray: 5.55,2.4; stroke-dashoffset: 0; stroke: #999999; stroke-width: 1.5"/>
   </g>
   <g id="patch_3">
    <path d="M 35.655938 265.022801 
L 35.655938 19.751719 
" style="fill: none"/>
   </g>
   <g id="patch_4">
    <path d="M 289.19952 265.022801 
L 289.19952 19.751719 
" style="fill: none"/>
   </g>
   <g id="patch_5">
    <path d="M 35.655938 265.022801 
L 289.19952 265.022801 
" style="fill: none"/>
   </g>
   <g id="patch_6">
    <path d="M 35.655938 19.751719 
L 289.19952 19.751719 
" style="fill: none"/>
   </g>
   <g id="text_15">
    <!-- Model 0: Receiver Operating Characteristic (ROC) Curve -->
    <g style="fill: #333333" transform="translate(42.14976 13.751719) scale(0.09 -0.09)">
     <defs>
      <path id="Arial-BoldMT-4d" d="M 453 0 
L 453 4581 
L 1838 4581 
L 2669 1456 
L 3491 4581 
L 4878 4581 
L 4878 0 
L 4019 0 
L 4019 3606 
L 3109 0 
L 2219 0 
L 1313 3606 
L 1313 0 
L 453 0 
z
" transform="scale(0.015625)"/>
      <path id="Arial-BoldMT-64" d="M 3503 0 
L 2688 0 
L 2688 488 
Q 2484 203 2207 64 
Q 1931 -75 1650 -75 
Q 1078 -75 670 386 
Q 263 847 263 1672 
Q 263 2516 659 2955 
Q 1056 3394 1663 3394 
Q 2219 3394 2625 2931 
L 2625 4581 
L 3503 4581 
L 3503 0 
z
M 1159 1731 
Q 1159 1200 1306 963 
Q 1519 619 1900 619 
Q 2203 619 2415 876 
Q 2628 1134 2628 1647 
Q 2628 2219 2422 2470 
Q 2216 2722 1894 2722 
Q 1581 2722 1370 2473 
Q 1159 2225 1159 1731 
z
" transform="scale(0.015625)"/>
      <path id="Arial-BoldMT-30" d="M 1756 4600 
Q 2422 4600 2797 4125 
Q 3244 3563 3244 2259 
Q 3244 959 2794 391 
Q 2422 -78 1756 -78 
Q 1088 -78 678 436 
Q 269 950 269 2269 
Q 269 3563 719 4131 
Q 1091 4600 1756 4600 
z
M 1756 3872 
Q 1597 3872 1472 3770 
Q 1347 3669 1278 3406 
Q 1188 3066 1188 2259 
Q 1188 1453 1269 1151 
Q 1350 850 1473 750 
Q 1597 650 1756 650 
Q 1916 650 2041 751 
Q 2166 853 2234 1116 
Q 2325 1453 2325 2259 
Q 2325 3066 2244 3367 
Q 2163 3669 2039 3770 
Q 1916 3872 1756 3872 
z
" transform="scale(0.015625)"/>
      <path id="Arial-BoldMT-3a" d="M 628 2441 
L 628 3319 
L 1506 3319 
L 1506 2441 
L 628 2441 
z
M 628 0 
L 628 878 
L 1506 878 
L 1506 0 
L 628 0 
z
" transform="scale(0.015625)"/>
      <path id="Arial-BoldMT-63" d="M 3353 2338 
L 2488 2181 
Q 2444 2441 2289 2572 
Q 2134 2703 1888 2703 
Q 1559 2703 1364 2476 
Q 1169 2250 1169 1719 
Q 1169 1128 1367 884 
Q 1566 641 1900 641 
Q 2150 641 2309 783 
Q 2469 925 2534 1272 
L 3397 1125 
Q 3263 531 2881 228 
Q 2500 -75 1859 -75 
Q 1131 -75 698 384 
Q 266 844 266 1656 
Q 266 2478 700 2936 
Q 1134 3394 1875 3394 
Q 2481 3394 2839 3133 
Q 3197 2872 3353 2338 
z
" transform="scale(0.015625)"/>
      <path id="Arial-BoldMT-4f" d="M 278 2263 
Q 278 2963 488 3438 
Q 644 3788 914 4066 
Q 1184 4344 1506 4478 
Q 1934 4659 2494 4659 
Q 3506 4659 4114 4031 
Q 4722 3403 4722 2284 
Q 4722 1175 4119 548 
Q 3516 -78 2506 -78 
Q 1484 -78 881 545 
Q 278 1169 278 2263 
z
M 1231 2294 
Q 1231 1516 1590 1114 
Q 1950 713 2503 713 
Q 3056 713 3411 1111 
Q 3766 1509 3766 2306 
Q 3766 3094 3420 3481 
Q 3075 3869 2503 3869 
Q 1931 3869 1581 3476 
Q 1231 3084 1231 2294 
z
" transform="scale(0.015625)"/>
      <path id="Arial-BoldMT-70" d="M 434 3319 
L 1253 3319 
L 1253 2831 
Q 1413 3081 1684 3237 
Q 1956 3394 2288 3394 
Q 2866 3394 3269 2941 
Q 3672 2488 3672 1678 
Q 3672 847 3265 386 
Q 2859 -75 2281 -75 
Q 2006 -75 1782 34 
Q 1559 144 1313 409 
L 1313 -1263 
L 434 -1263 
L 434 3319 
z
M 1303 1716 
Q 1303 1156 1525 889 
Q 1747 622 2066 622 
Q 2372 622 2575 867 
Q 2778 1113 2778 1672 
Q 2778 2194 2568 2447 
Q 2359 2700 2050 2700 
Q 1728 2700 1515 2451 
Q 1303 2203 1303 1716 
z
" transform="scale(0.015625)"/>
      <path id="Arial-BoldMT-6e" d="M 3478 0 
L 2600 0 
L 2600 1694 
Q 2600 2231 2544 2389 
Q 2488 2547 2361 2634 
Q 2234 2722 2056 2722 
Q 1828 2722 1647 2597 
Q 1466 2472 1398 2265 
Q 1331 2059 1331 1503 
L 1331 0 
L 453 0 
L 453 3319 
L 1269 3319 
L 1269 2831 
Q 1703 3394 2363 3394 
Q 2653 3394 2893 3289 
Q 3134 3184 3257 3021 
Q 3381 2859 3429 2653 
Q 3478 2447 3478 2063 
L 3478 0 
z
" transform="scale(0.015625)"/>
      <path id="Arial-BoldMT-67" d="M 378 -219 
L 1381 -341 
Q 1406 -516 1497 -581 
Q 1622 -675 1891 -675 
Q 2234 -675 2406 -572 
Q 2522 -503 2581 -350 
Q 2622 -241 2622 53 
L 2622 538 
Q 2228 0 1628 0 
Q 959 0 569 566 
Q 263 1013 263 1678 
Q 263 2513 664 2953 
Q 1066 3394 1663 3394 
Q 2278 3394 2678 2853 
L 2678 3319 
L 3500 3319 
L 3500 341 
Q 3500 -247 3403 -537 
Q 3306 -828 3131 -993 
Q 2956 -1159 2664 -1253 
Q 2372 -1347 1925 -1347 
Q 1081 -1347 728 -1058 
Q 375 -769 375 -325 
Q 375 -281 378 -219 
z
M 1163 1728 
Q 1163 1200 1367 954 
Q 1572 709 1872 709 
Q 2194 709 2416 961 
Q 2638 1213 2638 1706 
Q 2638 2222 2425 2472 
Q 2213 2722 1888 2722 
Q 1572 2722 1367 2476 
Q 1163 2231 1163 1728 
z
" transform="scale(0.015625)"/>
      <path id="Arial-BoldMT-43" d="M 3397 1684 
L 4294 1400 
Q 4088 650 3608 286 
Q 3128 -78 2391 -78 
Q 1478 -78 890 545 
Q 303 1169 303 2250 
Q 303 3394 893 4026 
Q 1484 4659 2447 4659 
Q 3288 4659 3813 4163 
Q 4125 3869 4281 3319 
L 3366 3100 
Q 3284 3456 3026 3662 
Q 2769 3869 2400 3869 
Q 1891 3869 1573 3503 
Q 1256 3138 1256 2319 
Q 1256 1450 1568 1081 
Q 1881 713 2381 713 
Q 2750 713 3015 947 
Q 3281 1181 3397 1684 
z
" transform="scale(0.015625)"/>
      <path id="Arial-BoldMT-68" d="M 1334 4581 
L 1334 2897 
Q 1759 3394 2350 3394 
Q 2653 3394 2897 3281 
Q 3141 3169 3264 2994 
Q 3388 2819 3433 2606 
Q 3478 2394 3478 1947 
L 3478 0 
L 2600 0 
L 2600 1753 
Q 2600 2275 2550 2415 
Q 2500 2556 2373 2639 
Q 2247 2722 2056 2722 
Q 1838 2722 1666 2615 
Q 1494 2509 1414 2295 
Q 1334 2081 1334 1663 
L 1334 0 
L 456 0 
L 456 4581 
L 1334 4581 
z
" transform="scale(0.015625)"/>
     </defs>
     <use xlink:href="#Arial-BoldMT-4d"/>
     <use xlink:href="#Arial-BoldMT-6f" transform="translate(83.300781 0)"/>
     <use xlink:href="#Arial-BoldMT-64" transform="translate(144.384766 0)"/>
     <use xlink:href="#Arial-BoldMT-65" transform="translate(205.46875 0)"/>
     <use xlink:href="#Arial-BoldMT-6c" transform="translate(261.083984 0)"/>
     <use xlink:href="#Arial-BoldMT-20" transform="translate(288.867188 0)"/>
     <use xlink:href="#Arial-BoldMT-30" transform="translate(316.650391 0)"/>
     <use xlink:href="#Arial-BoldMT-3a" transform="translate(372.265625 0)"/>
     <use xlink:href="#Arial-BoldMT-20" transform="translate(405.566406 0)"/>
     <use xlink:href="#Arial-BoldMT-52" transform="translate(433.349609 0)"/>
     <use xlink:href="#Arial-BoldMT-65" transform="translate(505.566406 0)"/>
     <use xlink:href="#Arial-BoldMT-63" transform="translate(561.181641 0)"/>
     <use xlink:href="#Arial-BoldMT-65" transform="translate(616.796875 0)"/>
     <use xlink:href="#Arial-BoldMT-69" transform="translate(672.412109 0)"/>
     <use xlink:href="#Arial-BoldMT-76" transform="translate(700.195312 0)"/>
     <use xlink:href="#Arial-BoldMT-65" transform="translate(755.810547 0)"/>
     <use xlink:href="#Arial-BoldMT-72" transform="translate(811.425781 0)"/>
     <use xlink:href="#Arial-BoldMT-20" transform="translate(850.341797 0)"/>
     <use xlink:href="#Arial-BoldMT-4f" transform="translate(878.125 0)"/>
     <use xlink:href="#Arial-BoldMT-70" transform="translate(955.908203 0)"/>
     <use xlink:href="#Arial-BoldMT-65" transform="translate(1016.992188 0)"/>
     <use xlink:href="#Arial-BoldMT-72" transform="translate(1072.607422 0)"/>
     <use xlink:href="#Arial-BoldMT-61" transform="translate(1111.523438 0)"/>
     <use xlink:href="#Arial-BoldMT-74" transform="translate(1167.138672 0)"/>
     <use xlink:href="#Arial-BoldMT-69" transform="translate(1200.439453 0)"/>
     <use xlink:href="#Arial-BoldMT-6e" transform="translate(1228.222656 0)"/>
     <use xlink:href="#Arial-BoldMT-67" transform="translate(1289.306641 0)"/>
     <use xlink:href="#Arial-BoldMT-20" transform="translate(1350.390625 0)"/>
     <use xlink:href="#Arial-BoldMT-43" transform="translate(1378.173828 0)"/>
     <use xlink:href="#Arial-BoldMT-68" transform="translate(1450.390625 0)"/>
     <use xlink:href="#Arial-BoldMT-61" transform="translate(1511.474609 0)"/>
     <use xlink:href="#Arial-BoldMT-72" transform="translate(1567.089844 0)"/>
     <use xlink:href="#Arial-BoldMT-61" transform="translate(1606.005859 0)"/>
     <use xlink:href="#Arial-BoldMT-63" transform="translate(1661.621094 0)"/>
     <use xlink:href="#Arial-BoldMT-74" transform="translate(1717.236328 0)"/>
     <use xlink:href="#Arial-BoldMT-65" transform="translate(1750.537109 0)"/>
     <use xlink:href="#Arial-BoldMT-72" transform="translate(1806.152344 0)"/>
     <use xlink:href="#Arial-BoldMT-69" transform="translate(1845.068359 0)"/>
     <use xlink:href="#Arial-BoldMT-73" transform="translate(1872.851562 0)"/>
     <use xlink:href="#Arial-BoldMT-74" transform="translate(1928.466797 0)"/>
     <use xlink:href="#Arial-BoldMT-69" transform="translate(1961.767578 0)"/>
     <use xlink:href="#Arial-BoldMT-63" transform="translate(1989.550781 0)"/>
     <use xlink:href="#Arial-BoldMT-20" transform="translate(2045.166016 0)"/>
     <use xlink:href="#Arial-BoldMT-28" transform="translate(2072.949219 0)"/>
     <use xlink:href="#Arial-BoldMT-52" transform="translate(2106.25 0)"/>
     <use xlink:href="#Arial-BoldMT-4f" transform="translate(2178.466797 0)"/>
     <use xlink:href="#Arial-BoldMT-43" transform="translate(2256.25 0)"/>
     <use xlink:href="#Arial-BoldMT-29" transform="translate(2328.466797 0)"/>
     <use xlink:href="#Arial-BoldMT-20" transform="translate(2361.767578 0)"/>
     <use xlink:href="#Arial-BoldMT-43" transform="translate(2389.550781 0)"/>
     <use xlink:href="#Arial-BoldMT-75" transform="translate(2461.767578 0)"/>
     <use xlink:href="#Arial-BoldMT-72" transform="translate(2522.851562 0)"/>
     <use xlink:href="#Arial-BoldMT-76" transform="translate(2561.767578 0)"/>
     <use xlink:href="#Arial-BoldMT-65" transform="translate(2617.382812 0)"/>
    </g>
   </g>
   <g id="legend_1">
    <g id="patch_7">
     <path d="M 182.577645 260.522801 
L 282.89952 260.522801 
Q 284.69952 260.522801 284.69952 258.722801 
L 284.69952 234.161239 
Q 284.69952 232.361239 282.89952 232.361239 
L 182.577645 232.361239 
Q 180.777645 232.361239 180.777645 234.161239 
L 180.777645 258.722801 
Q 180.777645 260.522801 182.577645 260.522801 
z
" style="fill: #ffffff; opacity: 0.8; stroke: #cccccc; stroke-width: 0.75; stroke-linejoin: miter"/>
    </g>
    <g id="line2d_27">
     <path d="M 184.377645 239.25327 
L 193.377645 239.25327 
L 202.377645 239.25327 
" style="fill: none; stroke: #1f77b4; stroke-width: 1.5; stroke-linecap: round"/>
    </g>
    <g id="text_16">
     <!-- ROC curve -->
     <g style="fill: #333333" transform="translate(209.577645 242.40327) scale(0.09 -0.09)">
      <defs>
       <path id="ArialMT-52" d="M 503 0 
L 503 4581 
L 2534 4581 
Q 3147 4581 3465 4457 
Q 3784 4334 3975 4021 
Q 4166 3709 4166 3331 
Q 4166 2844 3850 2509 
Q 3534 2175 2875 2084 
Q 3116 1969 3241 1856 
Q 3506 1613 3744 1247 
L 4541 0 
L 3778 0 
L 3172 953 
Q 2906 1366 2734 1584 
Q 2563 1803 2427 1890 
Q 2291 1978 2150 2013 
Q 2047 2034 1813 2034 
L 1109 2034 
L 1109 0 
L 503 0 
z
M 1109 2559 
L 2413 2559 
Q 2828 2559 3062 2645 
Q 3297 2731 3419 2920 
Q 3541 3109 3541 3331 
Q 3541 3656 3305 3865 
Q 3069 4075 2559 4075 
L 1109 4075 
L 1109 2559 
z
" transform="scale(0.015625)"/>
       <path id="ArialMT-4f" d="M 309 2231 
Q 309 3372 921 4017 
Q 1534 4663 2503 4663 
Q 3138 4663 3647 4359 
Q 4156 4056 4423 3514 
Q 4691 2972 4691 2284 
Q 4691 1588 4409 1038 
Q 4128 488 3612 205 
Q 3097 -78 2500 -78 
Q 1853 -78 1343 234 
Q 834 547 571 1087 
Q 309 1628 309 2231 
z
M 934 2222 
Q 934 1394 1379 917 
Q 1825 441 2497 441 
Q 3181 441 3623 922 
Q 4066 1403 4066 2288 
Q 4066 2847 3877 3264 
Q 3688 3681 3323 3911 
Q 2959 4141 2506 4141 
Q 1863 4141 1398 3698 
Q 934 3256 934 2222 
z
" transform="scale(0.015625)"/>
       <path id="ArialMT-43" d="M 3763 1606 
L 4369 1453 
Q 4178 706 3683 314 
Q 3188 -78 2472 -78 
Q 1731 -78 1267 223 
Q 803 525 561 1097 
Q 319 1669 319 2325 
Q 319 3041 592 3573 
Q 866 4106 1370 4382 
Q 1875 4659 2481 4659 
Q 3169 4659 3637 4309 
Q 4106 3959 4291 3325 
L 3694 3184 
Q 3534 3684 3231 3912 
Q 2928 4141 2469 4141 
Q 1941 4141 1586 3887 
Q 1231 3634 1087 3207 
Q 944 2781 944 2328 
Q 944 1744 1114 1308 
Q 1284 872 1643 656 
Q 2003 441 2422 441 
Q 2931 441 3284 734 
Q 3638 1028 3763 1606 
z
" transform="scale(0.015625)"/>
       <path id="ArialMT-20" transform="scale(0.015625)"/>
       <path id="ArialMT-63" d="M 2588 1216 
L 3141 1144 
Q 3050 572 2676 248 
Q 2303 -75 1759 -75 
Q 1078 -75 664 370 
Q 250 816 250 1647 
Q 250 2184 428 2587 
Q 606 2991 970 3192 
Q 1334 3394 1763 3394 
Q 2303 3394 2647 3120 
Q 2991 2847 3088 2344 
L 2541 2259 
Q 2463 2594 2264 2762 
Q 2066 2931 1784 2931 
Q 1359 2931 1093 2626 
Q 828 2322 828 1663 
Q 828 994 1084 691 
Q 1341 388 1753 388 
Q 2084 388 2306 591 
Q 2528 794 2588 1216 
z
" transform="scale(0.015625)"/>
       <path id="ArialMT-75" d="M 2597 0 
L 2597 488 
Q 2209 -75 1544 -75 
Q 1250 -75 995 37 
Q 741 150 617 320 
Q 494 491 444 738 
Q 409 903 409 1263 
L 409 3319 
L 972 3319 
L 972 1478 
Q 972 1038 1006 884 
Q 1059 663 1231 536 
Q 1403 409 1656 409 
Q 1909 409 2131 539 
Q 2353 669 2445 892 
Q 2538 1116 2538 1541 
L 2538 3319 
L 3100 3319 
L 3100 0 
L 2597 0 
z
" transform="scale(0.015625)"/>
       <path id="ArialMT-72" d="M 416 0 
L 416 3319 
L 922 3319 
L 922 2816 
Q 1116 3169 1280 3281 
Q 1444 3394 1641 3394 
Q 1925 3394 2219 3213 
L 2025 2691 
Q 1819 2813 1613 2813 
Q 1428 2813 1281 2702 
Q 1134 2591 1072 2394 
Q 978 2094 978 1738 
L 978 0 
L 416 0 
z
" transform="scale(0.015625)"/>
       <path id="ArialMT-76" d="M 1344 0 
L 81 3319 
L 675 3319 
L 1388 1331 
Q 1503 1009 1600 663 
Q 1675 925 1809 1294 
L 2547 3319 
L 3125 3319 
L 1869 0 
L 1344 0 
z
" transform="scale(0.015625)"/>
       <path id="ArialMT-65" d="M 2694 1069 
L 3275 997 
Q 3138 488 2766 206 
Q 2394 -75 1816 -75 
Q 1088 -75 661 373 
Q 234 822 234 1631 
Q 234 2469 665 2931 
Q 1097 3394 1784 3394 
Q 2450 3394 2872 2941 
Q 3294 2488 3294 1666 
Q 3294 1616 3291 1516 
L 816 1516 
Q 847 969 1125 678 
Q 1403 388 1819 388 
Q 2128 388 2347 550 
Q 2566 713 2694 1069 
z
M 847 1978 
L 2700 1978 
Q 2663 2397 2488 2606 
Q 2219 2931 1791 2931 
Q 1403 2931 1139 2672 
Q 875 2413 847 1978 
z
" transform="scale(0.015625)"/>
      </defs>
      <use xlink:href="#ArialMT-52"/>
      <use xlink:href="#ArialMT-4f" transform="translate(72.216797 0)"/>
      <use xlink:href="#ArialMT-43" transform="translate(150 0)"/>
      <use xlink:href="#ArialMT-20" transform="translate(222.216797 0)"/>
      <use xlink:href="#ArialMT-63" transform="translate(250 0)"/>
      <use xlink:href="#ArialMT-75" transform="translate(300 0)"/>
      <use xlink:href="#ArialMT-72" transform="translate(355.615234 0)"/>
      <use xlink:href="#ArialMT-76" transform="translate(388.916016 0)"/>
      <use xlink:href="#ArialMT-65" transform="translate(438.916016 0)"/>
     </g>
    </g>
    <g id="line2d_28">
     <path d="M 184.377645 251.984051 
L 193.377645 251.984051 
L 202.377645 251.984051 
" style="fill: none; stroke-dasharray: 5.55,2.4; stroke-dashoffset: 0; stroke: #999999; stroke-width: 1.5"/>
    </g>
    <g id="text_17">
     <!-- Random classifier -->
     <g style="fill: #333333" transform="translate(209.577645 255.134051) scale(0.09 -0.09)">
      <defs>
       <path id="ArialMT-61" d="M 2588 409 
Q 2275 144 1986 34 
Q 1697 -75 1366 -75 
Q 819 -75 525 192 
Q 231 459 231 875 
Q 231 1119 342 1320 
Q 453 1522 633 1644 
Q 813 1766 1038 1828 
Q 1203 1872 1538 1913 
Q 2219 1994 2541 2106 
Q 2544 2222 2544 2253 
Q 2544 2597 2384 2738 
Q 2169 2928 1744 2928 
Q 1347 2928 1158 2789 
Q 969 2650 878 2297 
L 328 2372 
Q 403 2725 575 2942 
Q 747 3159 1072 3276 
Q 1397 3394 1825 3394 
Q 2250 3394 2515 3294 
Q 2781 3194 2906 3042 
Q 3031 2891 3081 2659 
Q 3109 2516 3109 2141 
L 3109 1391 
Q 3109 606 3145 398 
Q 3181 191 3288 0 
L 2700 0 
Q 2613 175 2588 409 
z
M 2541 1666 
Q 2234 1541 1622 1453 
Q 1275 1403 1131 1340 
Q 988 1278 909 1158 
Q 831 1038 831 891 
Q 831 666 1001 516 
Q 1172 366 1500 366 
Q 1825 366 2078 508 
Q 2331 650 2450 897 
Q 2541 1088 2541 1459 
L 2541 1666 
z
" transform="scale(0.015625)"/>
       <path id="ArialMT-6e" d="M 422 0 
L 422 3319 
L 928 3319 
L 928 2847 
Q 1294 3394 1984 3394 
Q 2284 3394 2536 3286 
Q 2788 3178 2913 3003 
Q 3038 2828 3088 2588 
Q 3119 2431 3119 2041 
L 3119 0 
L 2556 0 
L 2556 2019 
Q 2556 2363 2490 2533 
Q 2425 2703 2258 2804 
Q 2091 2906 1866 2906 
Q 1506 2906 1245 2678 
Q 984 2450 984 1813 
L 984 0 
L 422 0 
z
" transform="scale(0.015625)"/>
       <path id="ArialMT-64" d="M 2575 0 
L 2575 419 
Q 2259 -75 1647 -75 
Q 1250 -75 917 144 
Q 584 363 401 755 
Q 219 1147 219 1656 
Q 219 2153 384 2558 
Q 550 2963 881 3178 
Q 1213 3394 1622 3394 
Q 1922 3394 2156 3267 
Q 2391 3141 2538 2938 
L 2538 4581 
L 3097 4581 
L 3097 0 
L 2575 0 
z
M 797 1656 
Q 797 1019 1065 703 
Q 1334 388 1700 388 
Q 2069 388 2326 689 
Q 2584 991 2584 1609 
Q 2584 2291 2321 2609 
Q 2059 2928 1675 2928 
Q 1300 2928 1048 2622 
Q 797 2316 797 1656 
z
" transform="scale(0.015625)"/>
       <path id="ArialMT-6f" d="M 213 1659 
Q 213 2581 725 3025 
Q 1153 3394 1769 3394 
Q 2453 3394 2887 2945 
Q 3322 2497 3322 1706 
Q 3322 1066 3130 698 
Q 2938 331 2570 128 
Q 2203 -75 1769 -75 
Q 1072 -75 642 372 
Q 213 819 213 1659 
z
M 791 1659 
Q 791 1022 1069 705 
Q 1347 388 1769 388 
Q 2188 388 2466 706 
Q 2744 1025 2744 1678 
Q 2744 2294 2464 2611 
Q 2184 2928 1769 2928 
Q 1347 2928 1069 2612 
Q 791 2297 791 1659 
z
" transform="scale(0.015625)"/>
       <path id="ArialMT-6d" d="M 422 0 
L 422 3319 
L 925 3319 
L 925 2853 
Q 1081 3097 1340 3245 
Q 1600 3394 1931 3394 
Q 2300 3394 2536 3241 
Q 2772 3088 2869 2813 
Q 3263 3394 3894 3394 
Q 4388 3394 4653 3120 
Q 4919 2847 4919 2278 
L 4919 0 
L 4359 0 
L 4359 2091 
Q 4359 2428 4304 2576 
Q 4250 2725 4106 2815 
Q 3963 2906 3769 2906 
Q 3419 2906 3187 2673 
Q 2956 2441 2956 1928 
L 2956 0 
L 2394 0 
L 2394 2156 
Q 2394 2531 2256 2718 
Q 2119 2906 1806 2906 
Q 1569 2906 1367 2781 
Q 1166 2656 1075 2415 
Q 984 2175 984 1722 
L 984 0 
L 422 0 
z
" transform="scale(0.015625)"/>
       <path id="ArialMT-6c" d="M 409 0 
L 409 4581 
L 972 4581 
L 972 0 
L 409 0 
z
" transform="scale(0.015625)"/>
       <path id="ArialMT-73" d="M 197 991 
L 753 1078 
Q 800 744 1014 566 
Q 1228 388 1613 388 
Q 2000 388 2187 545 
Q 2375 703 2375 916 
Q 2375 1106 2209 1216 
Q 2094 1291 1634 1406 
Q 1016 1563 777 1677 
Q 538 1791 414 1992 
Q 291 2194 291 2438 
Q 291 2659 392 2848 
Q 494 3038 669 3163 
Q 800 3259 1026 3326 
Q 1253 3394 1513 3394 
Q 1903 3394 2198 3281 
Q 2494 3169 2634 2976 
Q 2775 2784 2828 2463 
L 2278 2388 
Q 2241 2644 2061 2787 
Q 1881 2931 1553 2931 
Q 1166 2931 1000 2803 
Q 834 2675 834 2503 
Q 834 2394 903 2306 
Q 972 2216 1119 2156 
Q 1203 2125 1616 2013 
Q 2213 1853 2448 1751 
Q 2684 1650 2818 1456 
Q 2953 1263 2953 975 
Q 2953 694 2789 445 
Q 2625 197 2315 61 
Q 2006 -75 1616 -75 
Q 969 -75 630 194 
Q 291 463 197 991 
z
" transform="scale(0.015625)"/>
       <path id="ArialMT-69" d="M 425 3934 
L 425 4581 
L 988 4581 
L 988 3934 
L 425 3934 
z
M 425 0 
L 425 3319 
L 988 3319 
L 988 0 
L 425 0 
z
" transform="scale(0.015625)"/>
       <path id="ArialMT-66" d="M 556 0 
L 556 2881 
L 59 2881 
L 59 3319 
L 556 3319 
L 556 3672 
Q 556 4006 616 4169 
Q 697 4388 901 4523 
Q 1106 4659 1475 4659 
Q 1713 4659 2000 4603 
L 1916 4113 
Q 1741 4144 1584 4144 
Q 1328 4144 1222 4034 
Q 1116 3925 1116 3625 
L 1116 3319 
L 1763 3319 
L 1763 2881 
L 1116 2881 
L 1116 0 
L 556 0 
z
" transform="scale(0.015625)"/>
      </defs>
      <use xlink:href="#ArialMT-52"/>
      <use xlink:href="#ArialMT-61" transform="translate(72.216797 0)"/>
      <use xlink:href="#ArialMT-6e" transform="translate(127.832031 0)"/>
      <use xlink:href="#ArialMT-64" transform="translate(183.447266 0)"/>
      <use xlink:href="#ArialMT-6f" transform="translate(239.0625 0)"/>
      <use xlink:href="#ArialMT-6d" transform="translate(294.677734 0)"/>
      <use xlink:href="#ArialMT-20" transform="translate(377.978516 0)"/>
      <use xlink:href="#ArialMT-63" transform="translate(405.761719 0)"/>
      <use xlink:href="#ArialMT-6c" transform="translate(455.761719 0)"/>
      <use xlink:href="#ArialMT-61" transform="translate(477.978516 0)"/>
      <use xlink:href="#ArialMT-73" transform="translate(533.59375 0)"/>
      <use xlink:href="#ArialMT-73" transform="translate(583.59375 0)"/>
      <use xlink:href="#ArialMT-69" transform="translate(633.59375 0)"/>
      <use xlink:href="#ArialMT-66" transform="translate(655.810547 0)"/>
      <use xlink:href="#ArialMT-69" transform="translate(683.59375 0)"/>
      <use xlink:href="#ArialMT-65" transform="translate(705.810547 0)"/>
      <use xlink:href="#ArialMT-72" transform="translate(761.425781 0)"/>
     </g>
    </g>
   </g>
  </g>
 </g>
 <defs>
  <clipPath id="p23bba4f300">
   <rect x="35.655938" y="19.751719" width="253.543583" height="245.271083"/>
  </clipPath>
 </defs>
</svg>
