<?xml version="1.0" encoding="utf-8" standalone="no"?>
<!DOCTYPE svg PUBLIC "-//W3C//DTD SVG 1.1//EN"
  "http://www.w3.org/Graphics/SVG/1.1/DTD/svg11.dtd">
<svg xmlns:xlink="http://www.w3.org/1999/xlink" width="296.39952pt" height="296.39952pt" viewBox="0 0 296.39952 296.39952" xmlns="http://www.w3.org/2000/svg" version="1.1">
 <metadata>
  <rdf:RDF xmlns:dc="http://purl.org/dc/elements/1.1/" xmlns:cc="http://creativecommons.org/ns#" xmlns:rdf="http://www.w3.org/1999/02/22-rdf-syntax-ns#">
   <cc:Work>
    <dc:type rdf:resource="http://purl.org/dc/dcmitype/StillImage"/>
    <dc:date>2025-12-27T08:43:42.633395</dc:date>
    <dc:format>image/svg+xml</dc:format>
    <dc:creator>
     <cc:Agent>
      <dc:title>Matplotlib v3.10.8, https://matplotlib.org/</dc:title>
     </cc:Agent>
    </dc:creator>
   </cc:Work>
  </rdf:RDF>
 </metadata>
 <defs>
  <style type="text/css">*{stroke-linejoin: round; stroke-linecap: butt}</style>
 </defs>
 <g id="figure_1">
  <g id="patch_1">
   <path d="M 0 296.39952 
L 296.39952 296.39952 
L 296.39952 0 
L 0 0 
z
" style="fill: #ffffff"/>
  </g>
  <g id="axes_1">
   <g id="patch_2">
    <path d="M 35.655938 265.022801 
L 289.19952 265.022801 
L 289.19952 19.751719 
L 35.655938 19.751719 
z
" style="fill: #ffffff"/>
   </g>
   <g id="matplotlib.axis_1">
    <g id="xtick_1">
     <g id="line2d_1">
      <path d="M 42.831699 265.022801 
L 42.831699 19.751719 
" clip-path="url(#pbcb10726b7)" style="fill: none; stroke: #c0c0c0; stroke-width: 0.25; stroke-linecap: round"/>
     </g>
     <g id="line2d_2"/>
     <g id="text_1">
      <!-- 0.0 -->
      <g style="fill: #333333" transform="translate(36.576699 274.964832) scale(0.09 -0.09)">
       <defs>
        <path id="ArialMT-30" d="M 266 2259 
Q 266 3072 433 3567 
Q 600 4063 929 4331 
Q 1259 4600 1759 4600 
Q 2128 4600 2406 4451 
Q 2684 4303 2865 4023 
Q 3047 3744 3150 3342 
Q 3253 2941 3253 2259 
Q 3253 1453 3087 958 
Q 2922 463 2592 192 
Q 2263 -78 1759 -78 
Q 1097 -78 719 397 
Q 266 969 266 2259 
z
M 844 2259 
Q 844 1131 1108 757 
Q 1372 384 1759 384 
Q 2147 384 2411 759 
Q 2675 1134 2675 2259 
Q 2675 3391 2411 3762 
Q 2147 4134 1753 4134 
Q 1366 4134 1134 3806 
Q 844 3388 844 2259 
z
" transform="scale(0.015625)"/>
        <path id="ArialMT-2e" d="M 581 0 
L 581 641 
L 1222 641 
L 1222 0 
L 581 0 
z
" transform="scale(0.015625)"/>
       </defs>
       <use xlink:href="#ArialMT-30"/>
       <use xlink:href="#ArialMT-2e" transform="translate(55.615234 0)"/>
       <use xlink:href="#ArialMT-30" transform="translate(83.398438 0)"/>
      </g>
     </g>
    </g>
    <g id="xtick_2">
     <g id="line2d_3">
      <path d="M 90.670111 265.022801 
L 90.670111 19.751719 
" clip-path="url(#pbcb10726b7)" style="fill: none; stroke: #c0c0c0; stroke-width: 0.25; stroke-linecap: round"/>
     </g>
     <g id="line2d_4"/>
     <g id="text_2">
      <!-- 0.2 -->
      <g style="fill: #333333" transform="translate(84.415111 274.964832) scale(0.09 -0.09)">
       <defs>
        <path id="ArialMT-32" d="M 3222 541 
L 3222 0 
L 194 0 
Q 188 203 259 391 
Q 375 700 629 1000 
Q 884 1300 1366 1694 
Q 2113 2306 2375 2664 
Q 2638 3022 2638 3341 
Q 2638 3675 2398 3904 
Q 2159 4134 1775 4134 
Q 1369 4134 1125 3890 
Q 881 3647 878 3216 
L 300 3275 
Q 359 3922 746 4261 
Q 1134 4600 1788 4600 
Q 2447 4600 2831 4234 
Q 3216 3869 3216 3328 
Q 3216 3053 3103 2787 
Q 2991 2522 2730 2228 
Q 2469 1934 1863 1422 
Q 1356 997 1212 845 
Q 1069 694 975 541 
L 3222 541 
z
" transform="scale(0.015625)"/>
       </defs>
       <use xlink:href="#ArialMT-30"/>
       <use xlink:href="#ArialMT-2e" transform="translate(55.615234 0)"/>
       <use xlink:href="#ArialMT-32" transform="translate(83.398438 0)"/>
      </g>
     </g>
    </g>
    <g id="xtick_3">
     <g id="line2d_5">
      <path d="M 138.508523 265.022801 
L 138.508523 19.751719 
" clip-path="url(#pbcb10726b7)" style="fill: none; stroke: #c0c0c0; stroke-width: 0.25; stroke-linecap: round"/>
     </g>
     <g id="line2d_6"/>
     <g id="text_3">
      <!-- 0.4 -->
      <g style="fill: #333333" transform="translate(132.253523 274.964832) scale(0.09 -0.09)">
       <defs>
        <path id="ArialMT-34" d="M 2069 0 
L 2069 1097 
L 81 1097 
L 81 1613 
L 2172 4581 
L 2631 4581 
L 2631 1613 
L 3250 1613 
L 3250 1097 
L 2631 1097 
L 2631 0 
L 2069 0 
z
M 2069 1613 
L 2069 3678 
L 634 1613 
L 2069 1613 
z
" transform="scale(0.015625)"/>
       </defs>
       <use xlink:href="#ArialMT-30"/>
       <use xlink:href="#ArialMT-2e" transform="translate(55.615234 0)"/>
       <use xlink:href="#ArialMT-34" transform="translate(83.398438 0)"/>
      </g>
     </g>
    </g>
    <g id="xtick_4">
     <g id="line2d_7">
      <path d="M 186.346935 265.022801 
L 186.346935 19.751719 
" clip-path="url(#pbcb10726b7)" style="fill: none; stroke: #c0c0c0; stroke-width: 0.25; stroke-linecap: round"/>
     </g>
     <g id="line2d_8"/>
     <g id="text_4">
      <!-- 0.6 -->
      <g style="fill: #333333" transform="translate(180.091935 274.964832) scale(0.09 -0.09)">
       <defs>
        <path id="ArialMT-36" d="M 3184 3459 
L 2625 3416 
Q 2550 3747 2413 3897 
Q 2184 4138 1850 4138 
Q 1581 4138 1378 3988 
Q 1113 3794 959 3422 
Q 806 3050 800 2363 
Q 1003 2672 1297 2822 
Q 1591 2972 1913 2972 
Q 2475 2972 2870 2558 
Q 3266 2144 3266 1488 
Q 3266 1056 3080 686 
Q 2894 316 2569 119 
Q 2244 -78 1831 -78 
Q 1128 -78 684 439 
Q 241 956 241 2144 
Q 241 3472 731 4075 
Q 1159 4600 1884 4600 
Q 2425 4600 2770 4297 
Q 3116 3994 3184 3459 
z
M 888 1484 
Q 888 1194 1011 928 
Q 1134 663 1356 523 
Q 1578 384 1822 384 
Q 2178 384 2434 671 
Q 2691 959 2691 1453 
Q 2691 1928 2437 2201 
Q 2184 2475 1800 2475 
Q 1419 2475 1153 2201 
Q 888 1928 888 1484 
z
" transform="scale(0.015625)"/>
       </defs>
       <use xlink:href="#ArialMT-30"/>
       <use xlink:href="#ArialMT-2e" transform="translate(55.615234 0)"/>
       <use xlink:href="#ArialMT-36" transform="translate(83.398438 0)"/>
      </g>
     </g>
    </g>
    <g id="xtick_5">
     <g id="line2d_9">
      <path d="M 234.185346 265.022801 
L 234.185346 19.751719 
" clip-path="url(#pbcb10726b7)" style="fill: none; stroke: #c0c0c0; stroke-width: 0.25; stroke-linecap: round"/>
     </g>
     <g id="line2d_10"/>
     <g id="text_5">
      <!-- 0.8 -->
      <g style="fill: #333333" transform="translate(227.930346 274.964832) scale(0.09 -0.09)">
       <defs>
        <path id="ArialMT-38" d="M 1131 2484 
Q 781 2613 612 2850 
Q 444 3088 444 3419 
Q 444 3919 803 4259 
Q 1163 4600 1759 4600 
Q 2359 4600 2725 4251 
Q 3091 3903 3091 3403 
Q 3091 3084 2923 2848 
Q 2756 2613 2416 2484 
Q 2838 2347 3058 2040 
Q 3278 1734 3278 1309 
Q 3278 722 2862 322 
Q 2447 -78 1769 -78 
Q 1091 -78 675 323 
Q 259 725 259 1325 
Q 259 1772 486 2073 
Q 713 2375 1131 2484 
z
M 1019 3438 
Q 1019 3113 1228 2906 
Q 1438 2700 1772 2700 
Q 2097 2700 2305 2904 
Q 2513 3109 2513 3406 
Q 2513 3716 2298 3927 
Q 2084 4138 1766 4138 
Q 1444 4138 1231 3931 
Q 1019 3725 1019 3438 
z
M 838 1322 
Q 838 1081 952 856 
Q 1066 631 1291 507 
Q 1516 384 1775 384 
Q 2178 384 2440 643 
Q 2703 903 2703 1303 
Q 2703 1709 2433 1975 
Q 2163 2241 1756 2241 
Q 1359 2241 1098 1978 
Q 838 1716 838 1322 
z
" transform="scale(0.015625)"/>
       </defs>
       <use xlink:href="#ArialMT-30"/>
       <use xlink:href="#ArialMT-2e" transform="translate(55.615234 0)"/>
       <use xlink:href="#ArialMT-38" transform="translate(83.398438 0)"/>
      </g>
     </g>
    </g>
    <g id="xtick_6">
     <g id="line2d_11">
      <path d="M 282.023758 265.022801 
L 282.023758 19.751719 
" clip-path="url(#pbcb10726b7)" style="fill: none; stroke: #c0c0c0; stroke-width: 0.25; stroke-linecap: round"/>
     </g>
     <g id="line2d_12"/>
     <g id="text_6">
      <!-- 1.0 -->
      <g style="fill: #333333" transform="translate(275.768758 274.964832) scale(0.09 -0.09)">
       <defs>
        <path id="ArialMT-31" d="M 2384 0 
L 1822 0 
L 1822 3584 
Q 1619 3391 1289 3197 
Q 959 3003 697 2906 
L 697 3450 
Q 1169 3672 1522 3987 
Q 1875 4303 2022 4600 
L 2384 4600 
L 2384 0 
z
" transform="scale(0.015625)"/>
       </defs>
       <use xlink:href="#ArialMT-31"/>
       <use xlink:href="#ArialMT-2e" transform="translate(55.615234 0)"/>
       <use xlink:href="#ArialMT-30" transform="translate(83.398438 0)"/>
      </g>
     </g>
    </g>
    <g id="text_7">
     <!-- False Positive Rate (FPR) -->
     <g style="fill: #333333" transform="translate(108.165463 287.305301) scale(0.09 -0.09)">
      <defs>
       <path id="Arial-BoldMT-46" d="M 472 0 
L 472 4581 
L 3613 4581 
L 3613 3806 
L 1397 3806 
L 1397 2722 
L 3309 2722 
L 3309 1947 
L 1397 1947 
L 1397 0 
L 472 0 
z
" transform="scale(0.015625)"/>
       <path id="Arial-BoldMT-61" d="M 1116 2306 
L 319 2450 
Q 453 2931 781 3162 
Q 1109 3394 1756 3394 
Q 2344 3394 2631 3255 
Q 2919 3116 3036 2902 
Q 3153 2688 3153 2116 
L 3144 1091 
Q 3144 653 3186 445 
Q 3228 238 3344 0 
L 2475 0 
Q 2441 88 2391 259 
Q 2369 338 2359 363 
Q 2134 144 1878 34 
Q 1622 -75 1331 -75 
Q 819 -75 523 203 
Q 228 481 228 906 
Q 228 1188 362 1408 
Q 497 1628 739 1745 
Q 981 1863 1438 1950 
Q 2053 2066 2291 2166 
L 2291 2253 
Q 2291 2506 2166 2614 
Q 2041 2722 1694 2722 
Q 1459 2722 1328 2630 
Q 1197 2538 1116 2306 
z
M 2291 1594 
Q 2122 1538 1756 1459 
Q 1391 1381 1278 1306 
Q 1106 1184 1106 997 
Q 1106 813 1243 678 
Q 1381 544 1594 544 
Q 1831 544 2047 700 
Q 2206 819 2256 991 
Q 2291 1103 2291 1419 
L 2291 1594 
z
" transform="scale(0.015625)"/>
       <path id="Arial-BoldMT-6c" d="M 459 0 
L 459 4581 
L 1338 4581 
L 1338 0 
L 459 0 
z
" transform="scale(0.015625)"/>
       <path id="Arial-BoldMT-73" d="M 150 947 
L 1031 1081 
Q 1088 825 1259 692 
Q 1431 559 1741 559 
Q 2081 559 2253 684 
Q 2369 772 2369 919 
Q 2369 1019 2306 1084 
Q 2241 1147 2013 1200 
Q 950 1434 666 1628 
Q 272 1897 272 2375 
Q 272 2806 612 3100 
Q 953 3394 1669 3394 
Q 2350 3394 2681 3172 
Q 3013 2950 3138 2516 
L 2309 2363 
Q 2256 2556 2107 2659 
Q 1959 2763 1684 2763 
Q 1338 2763 1188 2666 
Q 1088 2597 1088 2488 
Q 1088 2394 1175 2328 
Q 1294 2241 1995 2081 
Q 2697 1922 2975 1691 
Q 3250 1456 3250 1038 
Q 3250 581 2869 253 
Q 2488 -75 1741 -75 
Q 1063 -75 667 200 
Q 272 475 150 947 
z
" transform="scale(0.015625)"/>
       <path id="Arial-BoldMT-65" d="M 2381 1056 
L 3256 909 
Q 3088 428 2723 176 
Q 2359 -75 1813 -75 
Q 947 -75 531 491 
Q 203 944 203 1634 
Q 203 2459 634 2926 
Q 1066 3394 1725 3394 
Q 2466 3394 2894 2905 
Q 3322 2416 3303 1406 
L 1103 1406 
Q 1113 1016 1316 798 
Q 1519 581 1822 581 
Q 2028 581 2168 693 
Q 2309 806 2381 1056 
z
M 2431 1944 
Q 2422 2325 2234 2523 
Q 2047 2722 1778 2722 
Q 1491 2722 1303 2513 
Q 1116 2303 1119 1944 
L 2431 1944 
z
" transform="scale(0.015625)"/>
       <path id="Arial-BoldMT-20" transform="scale(0.015625)"/>
       <path id="Arial-BoldMT-50" d="M 466 0 
L 466 4581 
L 1950 4581 
Q 2794 4581 3050 4513 
Q 3444 4409 3709 4064 
Q 3975 3719 3975 3172 
Q 3975 2750 3822 2462 
Q 3669 2175 3433 2011 
Q 3197 1847 2953 1794 
Q 2622 1728 1994 1728 
L 1391 1728 
L 1391 0 
L 466 0 
z
M 1391 3806 
L 1391 2506 
L 1897 2506 
Q 2444 2506 2628 2578 
Q 2813 2650 2917 2803 
Q 3022 2956 3022 3159 
Q 3022 3409 2875 3571 
Q 2728 3734 2503 3775 
Q 2338 3806 1838 3806 
L 1391 3806 
z
" transform="scale(0.015625)"/>
       <path id="Arial-BoldMT-6f" d="M 256 1706 
Q 256 2144 472 2553 
Q 688 2963 1083 3178 
Q 1478 3394 1966 3394 
Q 2719 3394 3200 2905 
Q 3681 2416 3681 1669 
Q 3681 916 3195 420 
Q 2709 -75 1972 -75 
Q 1516 -75 1102 131 
Q 688 338 472 736 
Q 256 1134 256 1706 
z
M 1156 1659 
Q 1156 1166 1390 903 
Q 1625 641 1969 641 
Q 2313 641 2545 903 
Q 2778 1166 2778 1666 
Q 2778 2153 2545 2415 
Q 2313 2678 1969 2678 
Q 1625 2678 1390 2415 
Q 1156 2153 1156 1659 
z
" transform="scale(0.015625)"/>
       <path id="Arial-BoldMT-69" d="M 459 3769 
L 459 4581 
L 1338 4581 
L 1338 3769 
L 459 3769 
z
M 459 0 
L 459 3319 
L 1338 3319 
L 1338 0 
L 459 0 
z
" transform="scale(0.015625)"/>
       <path id="Arial-BoldMT-74" d="M 1981 3319 
L 1981 2619 
L 1381 2619 
L 1381 1281 
Q 1381 875 1398 808 
Q 1416 741 1477 697 
Q 1538 653 1625 653 
Q 1747 653 1978 738 
L 2053 56 
Q 1747 -75 1359 -75 
Q 1122 -75 931 4 
Q 741 84 652 211 
Q 563 338 528 553 
Q 500 706 500 1172 
L 500 2619 
L 97 2619 
L 97 3319 
L 500 3319 
L 500 3978 
L 1381 4491 
L 1381 3319 
L 1981 3319 
z
" transform="scale(0.015625)"/>
       <path id="Arial-BoldMT-76" d="M 1372 0 
L 34 3319 
L 956 3319 
L 1581 1625 
L 1763 1059 
Q 1834 1275 1853 1344 
Q 1897 1484 1947 1625 
L 2578 3319 
L 3481 3319 
L 2163 0 
L 1372 0 
z
" transform="scale(0.015625)"/>
       <path id="Arial-BoldMT-52" d="M 469 0 
L 469 4581 
L 2416 4581 
Q 3150 4581 3483 4457 
Q 3816 4334 4016 4018 
Q 4216 3703 4216 3297 
Q 4216 2781 3912 2445 
Q 3609 2109 3006 2022 
Q 3306 1847 3501 1637 
Q 3697 1428 4028 894 
L 4588 0 
L 3481 0 
L 2813 997 
Q 2456 1531 2325 1670 
Q 2194 1809 2047 1861 
Q 1900 1913 1581 1913 
L 1394 1913 
L 1394 0 
L 469 0 
z
M 1394 2644 
L 2078 2644 
Q 2744 2644 2909 2700 
Q 3075 2756 3169 2893 
Q 3263 3031 3263 3238 
Q 3263 3469 3139 3611 
Q 3016 3753 2791 3791 
Q 2678 3806 2116 3806 
L 1394 3806 
L 1394 2644 
z
" transform="scale(0.015625)"/>
       <path id="Arial-BoldMT-28" d="M 1916 -1347 
L 1313 -1347 
Q 834 -625 584 153 
Q 334 931 334 1659 
Q 334 2563 644 3369 
Q 913 4069 1325 4659 
L 1925 4659 
Q 1497 3713 1336 3048 
Q 1175 2384 1175 1641 
Q 1175 1128 1270 590 
Q 1366 53 1531 -431 
Q 1641 -750 1916 -1347 
z
" transform="scale(0.015625)"/>
       <path id="Arial-BoldMT-29" d="M 216 -1347 
Q 475 -791 581 -494 
Q 688 -197 778 190 
Q 869 578 912 926 
Q 956 1275 956 1641 
Q 956 2384 797 3048 
Q 638 3713 209 4659 
L 806 4659 
Q 1278 3988 1539 3234 
Q 1800 2481 1800 1706 
Q 1800 1053 1594 306 
Q 1359 -531 822 -1347 
L 216 -1347 
z
" transform="scale(0.015625)"/>
      </defs>
      <use xlink:href="#Arial-BoldMT-46"/>
      <use xlink:href="#Arial-BoldMT-61" transform="translate(61.083984 0)"/>
      <use xlink:href="#Arial-BoldMT-6c" transform="translate(116.699219 0)"/>
      <use xlink:href="#Arial-BoldMT-73" transform="translate(144.482422 0)"/>
      <use xlink:href="#Arial-BoldMT-65" transform="translate(200.097656 0)"/>
      <use xlink:href="#Arial-BoldMT-20" transform="translate(255.712891 0)"/>
      <use xlink:href="#Arial-BoldMT-50" transform="translate(283.496094 0)"/>
      <use xlink:href="#Arial-BoldMT-6f" transform="translate(350.195312 0)"/>
      <use xlink:href="#Arial-BoldMT-73" transform="translate(411.279297 0)"/>
      <use xlink:href="#Arial-BoldMT-69" transform="translate(466.894531 0)"/>
      <use xlink:href="#Arial-BoldMT-74" transform="translate(494.677734 0)"/>
      <use xlink:href="#Arial-BoldMT-69" transform="translate(527.978516 0)"/>
      <use xlink:href="#Arial-BoldMT-76" transform="translate(555.761719 0)"/>
      <use xlink:href="#Arial-BoldMT-65" transform="translate(611.376953 0)"/>
      <use xlink:href="#Arial-BoldMT-20" transform="translate(666.992188 0)"/>
      <use xlink:href="#Arial-BoldMT-52" transform="translate(694.775391 0)"/>
      <use xlink:href="#Arial-BoldMT-61" transform="translate(766.992188 0)"/>
      <use xlink:href="#Arial-BoldMT-74" transform="translate(822.607422 0)"/>
      <use xlink:href="#Arial-BoldMT-65" transform="translate(855.908203 0)"/>
      <use xlink:href="#Arial-BoldMT-20" transform="translate(911.523438 0)"/>
      <use xlink:href="#Arial-BoldMT-28" transform="translate(939.306641 0)"/>
      <use xlink:href="#Arial-BoldMT-46" transform="translate(972.607422 0)"/>
      <use xlink:href="#Arial-BoldMT-50" transform="translate(1033.691406 0)"/>
      <use xlink:href="#Arial-BoldMT-52" transform="translate(1100.390625 0)"/>
      <use xlink:href="#Arial-BoldMT-29" transform="translate(1172.607422 0)"/>
     </g>
    </g>
   </g>
   <g id="matplotlib.axis_2">
    <g id="ytick_1">
     <g id="line2d_13">
      <path d="M 35.655938 265.022801 
L 289.19952 265.022801 
" clip-path="url(#pbcb10726b7)" style="fill: none; stroke: #c0c0c0; stroke-width: 0.25; stroke-linecap: round"/>
     </g>
     <g id="line2d_14"/>
     <g id="text_8">
      <!-- 0.0 -->
      <g style="fill: #333333" transform="translate(19.645938 268.243817) scale(0.09 -0.09)">
       <use xlink:href="#ArialMT-30"/>
       <use xlink:href="#ArialMT-2e" transform="translate(55.615234 0)"/>
       <use xlink:href="#ArialMT-30" transform="translate(83.398438 0)"/>
      </g>
     </g>
    </g>
    <g id="ytick_2">
     <g id="line2d_15">
      <path d="M 35.655938 217.397348 
L 289.19952 217.397348 
" clip-path="url(#pbcb10726b7)" style="fill: none; stroke: #c0c0c0; stroke-width: 0.25; stroke-linecap: round"/>
     </g>
     <g id="line2d_16"/>
     <g id="text_9">
      <!-- 0.2 -->
      <g style="fill: #333333" transform="translate(19.645938 220.618364) scale(0.09 -0.09)">
       <use xlink:href="#ArialMT-30"/>
       <use xlink:href="#ArialMT-2e" transform="translate(55.615234 0)"/>
       <use xlink:href="#ArialMT-32" transform="translate(83.398438 0)"/>
      </g>
     </g>
    </g>
    <g id="ytick_3">
     <g id="line2d_17">
      <path d="M 35.655938 169.771895 
L 289.19952 169.771895 
" clip-path="url(#pbcb10726b7)" style="fill: none; stroke: #c0c0c0; stroke-width: 0.25; stroke-linecap: round"/>
     </g>
     <g id="line2d_18"/>
     <g id="text_10">
      <!-- 0.4 -->
      <g style="fill: #333333" transform="translate(19.645938 172.992911) scale(0.09 -0.09)">
       <use xlink:href="#ArialMT-30"/>
       <use xlink:href="#ArialMT-2e" transform="translate(55.615234 0)"/>
       <use xlink:href="#ArialMT-34" transform="translate(83.398438 0)"/>
      </g>
     </g>
    </g>
    <g id="ytick_4">
     <g id="line2d_19">
      <path d="M 35.655938 122.146443 
L 289.19952 122.146443 
" clip-path="url(#pbcb10726b7)" style="fill: none; stroke: #c0c0c0; stroke-width: 0.25; stroke-linecap: round"/>
     </g>
     <g id="line2d_20"/>
     <g id="text_11">
      <!-- 0.6 -->
      <g style="fill: #333333" transform="translate(19.645938 125.367458) scale(0.09 -0.09)">
       <use xlink:href="#ArialMT-30"/>
       <use xlink:href="#ArialMT-2e" transform="translate(55.615234 0)"/>
       <use xlink:href="#ArialMT-36" transform="translate(83.398438 0)"/>
      </g>
     </g>
    </g>
    <g id="ytick_5">
     <g id="line2d_21">
      <path d="M 35.655938 74.52099 
L 289.19952 74.52099 
" clip-path="url(#pbcb10726b7)" style="fill: none; stroke: #c0c0c0; stroke-width: 0.25; stroke-linecap: round"/>
     </g>
     <g id="line2d_22"/>
     <g id="text_12">
      <!-- 0.8 -->
      <g style="fill: #333333" transform="translate(19.645938 77.742005) scale(0.09 -0.09)">
       <use xlink:href="#ArialMT-30"/>
       <use xlink:href="#ArialMT-2e" transform="translate(55.615234 0)"/>
       <use xlink:href="#ArialMT-38" transform="translate(83.398438 0)"/>
      </g>
     </g>
    </g>
    <g id="ytick_6">
     <g id="line2d_23">
      <path d="M 35.655938 26.895537 
L 289.19952 26.895537 
" clip-path="url(#pbcb10726b7)" style="fill: none; stroke: #c0c0c0; stroke-width: 0.25; stroke-linecap: round"/>
     </g>
     <g id="line2d_24"/>
     <g id="text_13">
      <!-- 1.0 -->
      <g style="fill: #333333" transform="translate(19.645938 30.116552) scale(0.09 -0.09)">
       <use xlink:href="#ArialMT-31"/>
       <use xlink:href="#ArialMT-2e" transform="translate(55.615234 0)"/>
       <use xlink:href="#ArialMT-30" transform="translate(83.398438 0)"/>
      </g>
     </g>
    </g>
    <g id="text_14">
     <!-- True Positive Rate (TPR) -->
     <g style="fill: #333333" transform="translate(13.751719 194.647026) rotate(-90) scale(0.09 -0.09)">
      <defs>
       <path id="Arial-BoldMT-54" d="M 1497 0 
L 1497 3806 
L 138 3806 
L 138 4581 
L 3778 4581 
L 3778 3806 
L 2422 3806 
L 2422 0 
L 1497 0 
z
" transform="scale(0.015625)"/>
       <path id="Arial-BoldMT-72" d="M 1300 0 
L 422 0 
L 422 3319 
L 1238 3319 
L 1238 2847 
Q 1447 3181 1614 3287 
Q 1781 3394 1994 3394 
Q 2294 3394 2572 3228 
L 2300 2463 
Q 2078 2606 1888 2606 
Q 1703 2606 1575 2504 
Q 1447 2403 1373 2137 
Q 1300 1872 1300 1025 
L 1300 0 
z
" transform="scale(0.015625)"/>
       <path id="Arial-BoldMT-75" d="M 2644 0 
L 2644 497 
Q 2463 231 2167 78 
Q 1872 -75 1544 -75 
Q 1209 -75 943 72 
Q 678 219 559 484 
Q 441 750 441 1219 
L 441 3319 
L 1319 3319 
L 1319 1794 
Q 1319 1094 1367 936 
Q 1416 778 1544 686 
Q 1672 594 1869 594 
Q 2094 594 2272 717 
Q 2450 841 2515 1023 
Q 2581 1206 2581 1919 
L 2581 3319 
L 3459 3319 
L 3459 0 
L 2644 0 
z
" transform="scale(0.015625)"/>
      </defs>
      <use xlink:href="#Arial-BoldMT-54"/>
      <use xlink:href="#Arial-BoldMT-72" transform="translate(55.583984 0)"/>
      <use xlink:href="#Arial-BoldMT-75" transform="translate(94.5 0)"/>
      <use xlink:href="#Arial-BoldMT-65" transform="translate(155.583984 0)"/>
      <use xlink:href="#Arial-BoldMT-20" transform="translate(211.199219 0)"/>
      <use xlink:href="#Arial-BoldMT-50" transform="translate(238.982422 0)"/>
      <use xlink:href="#Arial-BoldMT-6f" transform="translate(305.681641 0)"/>
      <use xlink:href="#Arial-BoldMT-73" transform="translate(366.765625 0)"/>
      <use xlink:href="#Arial-BoldMT-69" transform="translate(422.380859 0)"/>
      <use xlink:href="#Arial-BoldMT-74" transform="translate(450.164062 0)"/>
      <use xlink:href="#Arial-BoldMT-69" transform="translate(483.464844 0)"/>
      <use xlink:href="#Arial-BoldMT-76" transform="translate(511.248047 0)"/>
      <use xlink:href="#Arial-BoldMT-65" transform="translate(566.863281 0)"/>
      <use xlink:href="#Arial-BoldMT-20" transform="translate(622.478516 0)"/>
      <use xlink:href="#Arial-BoldMT-52" transform="translate(650.261719 0)"/>
      <use xlink:href="#Arial-BoldMT-61" transform="translate(722.478516 0)"/>
      <use xlink:href="#Arial-BoldMT-74" transform="translate(778.09375 0)"/>
      <use xlink:href="#Arial-BoldMT-65" transform="translate(811.394531 0)"/>
      <use xlink:href="#Arial-BoldMT-20" transform="translate(867.009766 0)"/>
      <use xlink:href="#Arial-BoldMT-28" transform="translate(894.792969 0)"/>
      <use xlink:href="#Arial-BoldMT-54" transform="translate(928.09375 0)"/>
      <use xlink:href="#Arial-BoldMT-50" transform="translate(989.177734 0)"/>
      <use xlink:href="#Arial-BoldMT-52" transform="translate(1055.876953 0)"/>
      <use xlink:href="#Arial-BoldMT-29" transform="translate(1128.09375 0)"/>
     </g>
    </g>
   </g>
   <g id="line2d_25">
    <path d="M 42.831699 265.022801 
L 42.942758 241.989011 
L 42.944771 241.888719 
L 43.055866 231.993216 
L 43.056934 231.892924 
L 43.16753 225.240203 
L 43.170469 225.139911 
L 43.280816 220.192159 
L 43.283096 220.091867 
L 43.394119 215.578715 
L 43.396915 215.478423 
L 43.507511 211.834471 
L 43.512214 211.734179 
L 43.622792 208.524826 
L 43.626764 208.424534 
L 43.737003 205.58292 
L 43.746283 205.482627 
L 43.857182 203.042182 
L 43.860495 202.94189 
L 43.970165 200.70203 
L 43.975918 200.601737 
L 44.08646 198.863338 
L 44.090682 198.763046 
L 44.200779 196.991216 
L 44.207156 196.890924 
L 44.316238 194.617632 
L 44.326711 194.51734 
L 44.430805 193.012956 
L 44.432747 193.012956 
L 44.453569 192.912664 
L 44.56217 190.873388 
L 44.572199 190.773095 
L 44.68112 189.302142 
L 44.688174 189.20185 
L 44.799072 187.363158 
L 44.805004 187.262866 
L 44.915564 185.557898 
L 44.936262 185.457605 
L 45.04415 183.786068 
L 45.057669 183.685775 
L 45.160018 182.281684 
L 45.161265 182.281684 
L 45.18207 182.181392 
L 45.29304 180.911023 
L 45.326491 180.810731 
L 45.435377 179.974962 
L 45.450945 179.874669 
L 45.561843 178.504009 
L 45.578925 178.403716 
L 45.689307 177.23364 
L 45.710058 177.133348 
L 45.820458 175.528671 
L 45.830843 175.428379 
L 45.940174 174.425456 
L 45.982638 174.325164 
L 46.093359 173.088226 
L 46.10996 172.987934 
L 46.218382 171.985011 
L 46.243337 171.884719 
L 46.354289 170.447197 
L 46.371086 170.346904 
L 46.473132 169.410843 
L 46.47958 169.410843 
L 46.489591 169.310551 
L 46.596125 168.37449 
L 46.599278 168.37449 
L 46.637645 168.274198 
L 46.747653 167.271275 
L 46.762455 167.170983 
L 46.87143 166.101199 
L 46.891326 166.000906 
L 46.998609 165.332291 
L 47.026396 165.231999 
L 47.134587 164.529953 
L 47.154519 164.429661 
L 47.264474 163.460169 
L 47.286864 163.359877 
L 47.394467 162.691262 
L 47.410338 162.590969 
L 47.520898 161.588047 
L 47.528041 161.487754 
L 47.637479 160.317678 
L 47.660759 160.217386 
L 47.771836 159.214463 
L 47.781152 159.114171 
L 47.882984 158.311833 
L 47.905445 158.211541 
L 47.999778 157.643218 
L 48.014438 157.643218 
L 48.030308 157.542925 
L 48.131499 156.87431 
L 48.140619 156.87431 
L 48.155973 156.774018 
L 48.26705 156.305987 
L 48.293163 156.205695 
L 48.404097 155.470219 
L 48.424919 155.369926 
L 48.535925 154.601019 
L 48.56918 154.500727 
L 48.671814 153.898973 
L 48.676819 153.898973 
L 48.707242 153.798681 
L 48.814935 153.096635 
L 48.825854 152.996343 
L 48.932513 152.42802 
L 48.935755 152.42802 
L 48.950788 152.327728 
L 49.046565 151.759405 
L 49.050216 151.759405 
L 49.075545 151.659113 
L 49.184431 150.823344 
L 49.185589 150.823344 
L 49.213091 150.723051 
L 49.323865 149.920713 
L 49.350048 149.820421 
L 49.457794 149.252098 
L 49.459041 149.252098 
L 49.485314 149.151806 
L 49.58264 148.550052 
L 49.622183 148.44976 
L 49.724781 147.914868 
L 49.729198 147.914868 
L 49.763754 147.814576 
L 49.872747 146.945376 
L 49.878108 146.845084 
L 49.987956 146.176469 
L 50.007389 146.076177 
L 50.099977 145.641577 
L 50.116239 145.641577 
L 50.163192 145.541285 
L 50.272167 145.006392 
L 50.293809 144.9061 
L 50.400219 144.43807 
L 50.410906 144.337777 
L 50.517441 143.602301 
L 50.542004 143.502009 
L 50.643872 142.933686 
L 50.650284 142.933686 
L 50.690486 142.833393 
L 50.796308 142.198209 
L 50.799835 142.198209 
L 50.82723 142.097917 
L 50.921385 141.730179 
L 50.922935 141.730179 
L 50.955638 141.629886 
L 51.06089 141.028133 
L 51.066394 141.028133 
L 51.09566 140.92784 
L 51.204332 140.326087 
L 51.205329 140.326087 
L 51.257929 140.225795 
L 51.367937 139.690902 
L 51.402956 139.59061 
L 51.509401 139.15601 
L 51.530509 139.055718 
L 51.638771 138.453965 
L 51.641372 138.453965 
L 51.676462 138.353672 
L 51.787218 137.718488 
L 51.8367 137.618196 
L 51.946316 137.016442 
L 51.972322 136.91615 
L 52.072444 136.615273 
L 52.082116 136.615273 
L 52.128731 136.514981 
L 52.238258 135.980089 
L 52.269625 135.879796 
L 52.374645 135.278043 
L 52.374948 135.278043 
L 52.442065 135.177751 
L 52.549454 134.776582 
L 52.568959 134.676289 
L 52.665322 134.174828 
L 52.674549 134.174828 
L 52.698702 134.074536 
L 52.786855 133.606505 
L 52.808069 133.606505 
L 52.833469 133.506213 
L 52.936388 133.038182 
L 52.936816 133.038182 
L 52.967417 132.93789 
L 53.074664 132.369567 
L 53.124984 132.269275 
L 53.221846 131.834675 
L 53.234707 131.834675 
L 53.272415 131.734383 
L 53.363489 131.232922 
L 53.378932 131.232922 
L 53.419348 131.132629 
L 53.525081 130.73146 
L 53.545155 130.631168 
L 53.652758 130.196568 
L 53.671568 130.096276 
L 53.777444 129.461092 
L 53.805658 129.360799 
L 53.915702 128.759046 
L 53.943168 128.658753 
L 54.039176 128.424738 
L 54.095587 128.324446 
L 54.172732 127.889846 
L 54.20148 127.889846 
L 54.254133 127.789554 
L 54.360597 127.288093 
L 54.410578 127.1878 
L 54.514262 126.886924 
L 54.562409 126.786631 
L 54.672221 126.552616 
L 54.713206 126.452324 
L 54.798634 126.051155 
L 54.835238 125.950862 
L 54.943322 125.41597 
L 54.97232 125.315678 
L 55.071142 124.94794 
L 55.076094 124.94794 
L 55.095456 124.847647 
L 55.194688 124.51334 
L 55.231434 124.413048 
L 55.323719 124.112171 
L 55.326444 124.112171 
L 55.393382 124.011879 
L 55.499187 123.61071 
L 55.566446 123.510417 
L 55.668171 123.209541 
L 55.742341 123.109248 
L 55.847326 122.908664 
L 55.892747 122.808371 
L 55.9962 122.574356 
L 56.002969 122.574356 
L 56.039697 122.474064 
L 56.122132 122.139756 
L 56.149777 122.139756 
L 56.192098 122.039464 
L 56.301269 121.437711 
L 56.361029 121.337418 
L 56.470325 120.96968 
L 56.514303 120.869388 
L 56.613339 120.367926 
L 56.652436 120.267634 
L 56.756531 119.933327 
L 56.787595 119.833034 
L 56.875373 119.431865 
L 56.875908 119.431865 
L 56.941296 119.331573 
L 57.044447 118.963835 
L 57.104474 118.863542 
L 57.141131 118.696389 
L 57.204008 118.696389 
L 57.258015 118.596096 
L 57.359455 118.228358 
L 57.360506 118.228358 
L 57.422581 118.128066 
L 57.490642 117.927481 
L 57.516541 117.927481 
L 57.563868 117.827189 
L 57.67327 117.42602 
L 57.709268 117.325728 
L 57.816818 116.924559 
L 57.848773 116.824266 
L 57.955005 116.456528 
L 57.956288 116.456528 
L 57.985589 116.356236 
L 58.090378 115.988498 
L 58.092337 115.988498 
L 58.15639 115.888205 
L 58.257082 115.587328 
L 58.284602 115.487036 
L 58.395696 115.085867 
L 58.460693 114.985575 
L 58.547242 114.484114 
L 58.562312 114.484114 
L 58.634665 114.383821 
L 58.722853 114.082945 
L 58.7451 114.082945 
L 58.80486 113.982652 
L 58.914049 113.481191 
L 58.936403 113.380899 
L 59.002041 113.080022 
L 59.042047 113.080022 
L 59.100934 112.97973 
L 59.198634 112.779145 
L 59.234775 112.678853 
L 59.345086 112.311115 
L 59.354722 112.210822 
L 59.451104 111.843084 
L 59.486496 111.742792 
L 59.596487 111.408484 
L 59.655463 111.308192 
L 59.761463 111.107607 
L 59.765115 111.107607 
L 59.841369 111.007315 
L 59.948206 110.739869 
L 59.95216 110.739869 
L 59.987963 110.639577 
L 60.077077 110.271839 
L 60.093322 110.271839 
L 60.145298 110.171546 
L 60.252723 109.803808 
L 60.269128 109.703516 
L 60.368894 109.43607 
L 60.377604 109.43607 
L 60.415704 109.335777 
L 60.485564 109.202054 
L 60.50758 109.202054 
L 60.548815 109.101762 
L 60.643059 108.667162 
L 60.65665 108.667162 
L 60.720204 108.56687 
L 60.809834 108.031978 
L 60.862095 107.931686 
L 60.964836 107.463655 
L 61.021087 107.363363 
L 61.130258 107.029055 
L 61.233283 106.928763 
L 61.340905 106.561025 
L 61.411316 106.460732 
L 61.518991 106.159856 
L 61.520576 106.159856 
L 61.586766 106.059563 
L 61.693675 105.825548 
L 61.787385 105.725256 
L 61.898319 105.558102 
L 62.008523 105.45781 
L 62.107042 104.989779 
L 62.107772 104.989779 
L 62.150504 104.889487 
L 62.258517 104.755764 
L 62.380797 104.655472 
L 62.46439 104.354595 
L 62.489915 104.354595 
L 62.579991 104.254303 
L 62.688859 103.919995 
L 62.689465 103.919995 
L 62.787628 103.819703 
L 62.880358 103.68598 
L 62.895463 103.68598 
L 62.95777 103.585688 
L 63.066014 103.318242 
L 63.068223 103.318242 
L 63.153989 103.217949 
L 63.256355 103.084226 
L 63.260612 103.084226 
L 63.331184 102.983934 
L 63.392547 102.850211 
L 63.420726 102.850211 
L 63.4566 102.749919 
L 63.563241 102.415611 
L 63.565681 102.415611 
L 63.595535 102.315319 
L 63.706309 102.047873 
L 63.736482 101.947581 
L 63.845689 101.646704 
L 63.862878 101.546412 
L 63.970392 101.04495 
L 64.058847 100.944658 
L 64.161659 100.710643 
L 64.169016 100.710643 
L 64.203874 100.61035 
L 64.302126 100.342904 
L 64.376492 100.242612 
L 64.466906 99.908305 
L 64.486678 99.908305 
L 64.526666 99.808012 
L 64.604434 99.607428 
L 64.637529 99.607428 
L 64.678818 99.507136 
L 64.762606 99.206259 
L 64.762713 99.206259 
L 64.813977 99.105966 
L 64.916575 98.905382 
L 64.924875 98.905382 
L 64.954515 98.80509 
L 65.06365 98.537644 
L 65.162989 98.437351 
L 65.23568 98.236767 
L 65.273335 98.236767 
L 65.431204 98.136475 
L 65.531149 97.969321 
L 65.534088 97.969321 
L 65.606761 97.869029 
L 65.708326 97.601583 
L 65.713349 97.601583 
L 65.825049 97.50129 
L 65.878753 97.200413 
L 65.928663 97.200413 
L 66.083896 97.100121 
L 66.183876 96.899537 
L 66.184428 96.899537 
L 66.342956 96.799244 
L 66.450916 96.565229 
L 66.507577 96.464937 
L 66.609231 96.130629 
L 66.613595 96.130629 
L 66.718597 96.030337 
L 66.821481 95.72946 
L 66.88222 95.629168 
L 66.968253 95.395153 
L 66.989182 95.395153 
L 67.091691 95.29486 
L 67.18134 94.960553 
L 67.18517 94.960553 
L 67.289407 94.860261 
L 67.396689 94.525953 
L 67.400252 94.525953 
L 67.436161 94.425661 
L 67.491806 94.225076 
L 67.543943 94.225076 
L 67.577732 94.124784 
L 67.660684 93.890769 
L 67.6726 93.890769 
L 67.769498 93.790477 
L 67.85407 93.556461 
L 67.878188 93.556461 
L 67.969903 93.456169 
L 68.0419 93.188723 
L 68.069527 93.188723 
L 68.179962 93.088431 
L 68.284751 92.887846 
L 68.290807 92.887846 
L 68.328444 92.787554 
L 68.430473 92.687262 
L 68.473204 92.586969 
L 68.571527 92.520108 
L 68.665932 92.419816 
L 68.75941 92.219231 
L 68.920967 92.118939 
L 69.003205 91.951785 
L 69.03028 91.951785 
L 69.076004 91.851493 
L 69.165154 91.650908 
L 69.182841 91.650908 
L 69.228423 91.550616 
L 69.282928 91.416893 
L 69.338074 91.416893 
L 69.398618 91.316601 
L 69.474605 91.082585 
L 69.506916 91.082585 
L 69.566195 90.982293 
L 69.664714 90.84857 
L 69.672551 90.84857 
L 69.818219 90.748278 
L 69.928797 90.41397 
L 70.064206 90.313678 
L 70.160872 90.146524 
L 70.168229 90.146524 
L 70.20266 90.046232 
L 70.271148 89.94594 
L 70.308749 89.94594 
L 70.397935 89.845647 
L 70.442287 89.778786 
L 70.507871 89.778786 
L 70.576858 89.678494 
L 70.630829 89.51134 
L 70.663496 89.51134 
L 70.757117 89.411048 
L 70.866359 89.243894 
L 70.947743 89.143602 
L 70.967479 89.009879 
L 71.055774 89.009879 
L 71.135003 88.909586 
L 71.241787 88.709002 
L 71.346576 88.60871 
L 71.428797 88.408125 
L 71.443759 88.408125 
L 71.504196 88.307833 
L 71.57165 88.240971 
L 71.609359 88.240971 
L 71.749291 88.140679 
L 71.859816 87.973525 
L 71.925667 87.873233 
L 71.968363 87.772941 
L 72.036014 87.772941 
L 72.129831 87.672648 
L 72.129831 87.639218 
L 72.233729 87.639218 
L 72.313866 87.538925 
L 72.41992 87.338341 
L 72.422841 87.338341 
L 72.526383 87.238049 
L 72.526383 87.204618 
L 72.637068 87.204618 
L 72.750923 87.104326 
L 72.834837 87.004033 
L 72.859115 87.004033 
L 72.900225 86.903741 
L 73.008844 86.703157 
L 73.135506 86.602864 
L 73.18652 86.469141 
L 73.246191 86.469141 
L 73.420252 86.368849 
L 73.515618 86.034541 
L 73.527089 86.034541 
L 73.641336 85.934249 
L 73.731929 85.833957 
L 73.905384 85.733665 
L 73.990028 85.53308 
L 74.011848 85.53308 
L 74.124064 85.432788 
L 74.217489 85.265634 
L 74.231347 85.265634 
L 74.259188 85.165342 
L 74.362106 84.964757 
L 74.524625 84.864465 
L 74.611815 84.697311 
L 74.630126 84.697311 
L 74.834022 84.597019 
L 74.942659 84.463296 
L 75.088273 84.363004 
L 75.163316 84.229281 
L 75.193614 84.229281 
L 75.255334 84.128988 
L 75.30747 84.028696 
L 75.355046 84.028696 
L 75.443092 83.928404 
L 75.539456 83.828112 
L 75.54439 83.828112 
L 75.697646 83.727819 
L 75.786831 83.527235 
L 75.799888 83.527235 
L 75.966431 83.426943 
L 76.074623 83.32665 
L 76.191666 83.226358 
L 76.298486 83.059204 
L 76.301211 83.059204 
L 76.473099 82.958912 
L 76.53749 82.825189 
L 76.567984 82.825189 
L 76.698174 82.724897 
L 76.77115 82.591174 
L 76.808823 82.591174 
L 76.915838 82.490881 
L 76.977397 82.290297 
L 77.016905 82.290297 
L 77.20721 82.190005 
L 77.301793 81.955989 
L 77.315757 81.955989 
L 77.418908 81.855697 
L 77.517195 81.655113 
L 77.527829 81.655113 
L 77.590582 81.55482 
L 77.669294 81.354236 
L 77.694533 81.354236 
L 77.840362 81.253944 
L 77.925112 81.08679 
L 77.933894 81.08679 
L 78.012873 80.986498 
L 78.10701 80.819344 
L 78.174198 80.719051 
L 78.239622 80.585328 
L 78.285007 80.585328 
L 78.494122 80.485036 
L 78.596186 80.284452 
L 78.872257 80.184159 
L 78.951094 80.083867 
L 78.973395 80.083867 
L 79.112668 79.983575 
L 79.189171 79.78299 
L 79.215035 79.78299 
L 79.431007 79.682698 
L 79.514297 79.548975 
L 79.527638 79.548975 
L 79.630005 79.448683 
L 79.698279 79.348391 
L 79.722539 79.348391 
L 79.82047 79.248098 
L 79.926346 79.080945 
L 79.927629 79.080945 
L 80.064497 78.980652 
L 80.17064 78.846929 
L 80.175022 78.846929 
L 80.242673 78.746637 
L 80.326016 78.646345 
L 80.337042 78.646345 
L 80.424677 78.546052 
L 80.522413 78.345468 
L 80.535131 78.345468 
L 80.689527 78.245176 
L 80.689527 78.211745 
L 80.768844 78.211745 
L 80.999067 78.111453 
L 81.036561 77.97773 
L 81.109556 77.97773 
L 81.395477 77.877437 
L 81.501424 77.710284 
L 81.66143 77.609991 
L 81.753466 77.409407 
L 81.761268 77.409407 
L 81.935435 77.309115 
L 82.002552 77.141961 
L 82.037731 77.141961 
L 82.218168 77.041668 
L 82.310346 76.807653 
L 82.323883 76.807653 
L 82.466523 76.707361 
L 82.466523 76.67393 
L 82.567785 76.67393 
L 82.692595 76.573638 
L 82.794018 76.473346 
L 82.794499 76.473346 
L 82.926202 76.373053 
L 82.961025 76.306192 
L 83.029388 76.306192 
L 83.130668 76.2059 
L 83.225714 76.072177 
L 83.241104 76.072177 
L 83.333495 75.971884 
L 83.428755 75.871592 
L 83.539244 75.7713 
L 83.647293 75.537285 
L 83.745705 75.436992 
L 83.855339 75.269839 
L 83.937774 75.169546 
L 84.046214 74.968962 
L 84.048601 74.968962 
L 84.331334 74.868669 
L 84.384717 74.801808 
L 84.439988 74.801808 
L 84.717911 74.701516 
L 84.792954 74.601223 
L 84.821685 74.601223 
L 84.955989 74.500931 
L 85.055737 74.367208 
L 85.063183 74.367208 
L 85.218505 74.266916 
L 85.269091 74.166624 
L 85.32276 74.166624 
L 85.481448 74.066331 
L 85.516485 73.932608 
L 85.589568 73.932608 
L 85.702355 73.832316 
L 85.702355 73.798885 
L 85.808729 73.798885 
L 85.958369 73.698593 
L 86.057227 73.56487 
L 86.063141 73.56487 
L 86.350451 73.464578 
L 86.438497 73.330855 
L 86.60757 73.230562 
L 86.698733 73.063409 
L 86.706801 73.063409 
L 86.918321 72.963116 
L 86.994628 72.829393 
L 87.028507 72.829393 
L 87.173089 72.729101 
L 87.181122 72.66224 
L 87.283204 72.66224 
L 87.495329 72.561947 
L 87.576552 72.428224 
L 87.601329 72.428224 
L 87.743061 72.327932 
L 87.834116 72.093917 
L 87.848402 72.093917 
L 87.959247 71.993625 
L 88.0119 71.893332 
L 88.059013 71.893332 
L 88.303165 71.79304 
L 88.380933 71.659317 
L 88.408025 71.659317 
L 88.607984 71.559025 
L 88.715819 71.458732 
L 88.992585 71.35844 
L 89.056246 71.224717 
L 89.103377 71.224717 
L 89.22222 71.124425 
L 89.324372 71.024133 
L 89.324836 71.024133 
L 89.533256 70.92384 
L 89.608067 70.823548 
L 89.632398 70.823548 
L 89.875178 70.723256 
L 89.982354 70.622964 
L 89.983904 70.622964 
L 90.067746 70.522671 
L 90.175296 70.355518 
L 90.504981 70.255225 
L 90.582162 70.054641 
L 90.610412 70.054641 
L 90.826545 69.954349 
L 90.893038 69.787195 
L 90.929268 69.787195 
L 91.220817 69.686902 
L 91.311321 69.519749 
L 91.330077 69.519749 
L 91.479183 69.419456 
L 91.518014 69.319164 
L 91.587766 69.319164 
L 91.617851 69.218872 
L 91.617851 69.185441 
L 91.71963 69.185441 
L 91.984034 69.085149 
L 91.984034 69.051718 
L 92.084281 69.051718 
L 92.456733 68.951426 
L 92.550764 68.851134 
L 92.656123 68.750841 
L 92.762052 68.68398 
L 92.763049 68.68398 
L 92.903961 68.583688 
L 92.993681 68.383103 
L 93.011636 68.383103 
L 93.234662 68.282811 
L 93.334161 68.215949 
L 93.343673 68.215949 
L 93.449727 68.115657 
L 93.560144 68.048796 
L 93.790776 67.948503 
L 93.899217 67.81478 
L 93.934841 67.714488 
L 94.007372 67.614196 
L 94.041287 67.614196 
L 94.195238 67.513903 
L 94.301523 67.447042 
L 94.3048 67.447042 
L 94.651211 67.34675 
L 94.759812 67.112734 
L 95.035794 67.012442 
L 95.142952 66.945581 
L 95.358444 66.845288 
L 95.416013 66.711565 
L 95.468648 66.711565 
L 95.726925 66.611273 
L 95.779435 66.544412 
L 95.837004 66.544412 
L 96.054473 66.444119 
L 96.126006 66.343827 
L 96.154381 66.343827 
L 96.356639 66.243535 
L 96.356639 66.210104 
L 96.459931 66.210104 
L 96.629717 66.109812 
L 96.696014 66.009519 
L 96.733491 66.009519 
L 96.791915 65.909227 
L 96.791915 65.875796 
L 96.899447 65.875796 
L 97.128048 65.775504 
L 97.15067 65.675212 
L 97.236293 65.675212 
L 97.351858 65.57492 
L 97.420863 65.474627 
L 97.451375 65.474627 
L 97.611524 65.374335 
L 97.675791 65.240612 
L 97.71984 65.240612 
L 97.797537 65.14032 
L 97.802845 65.073458 
L 97.891852 65.073458 
L 98.484838 64.973166 
L 98.58366 64.872874 
L 98.594347 64.872874 
L 98.750115 64.772582 
L 98.758985 64.70572 
L 98.861013 64.70572 
L 99.13785 64.605428 
L 99.229137 64.438274 
L 99.248945 64.438274 
L 99.391139 64.337982 
L 99.391139 64.304551 
L 99.489409 64.304551 
L 99.683491 64.204259 
L 99.742413 64.137397 
L 99.785839 64.137397 
L 99.970213 64.037105 
L 99.996308 63.970243 
L 100.079313 63.970243 
L 100.327258 63.869951 
L 100.407467 63.80309 
L 100.437017 63.80309 
L 100.590879 63.702797 
L 100.669074 63.569074 
L 100.689807 63.569074 
L 101.055082 63.468782 
L 101.055082 63.435351 
L 101.157395 63.435351 
L 101.309493 63.335059 
L 101.346952 63.234767 
L 101.411254 63.234767 
L 101.64609 63.134475 
L 101.748171 63.034182 
L 101.754513 63.034182 
L 101.947882 62.93389 
L 102.044976 62.867029 
L 102.057355 62.867029 
L 102.306957 62.766736 
L 102.397265 62.633013 
L 102.416128 62.633013 
L 102.643412 62.532721 
L 102.753455 62.432429 
L 103.063102 62.332136 
L 103.063102 62.298706 
L 103.169904 62.298706 
L 103.581864 62.198413 
L 103.630117 62.098121 
L 103.684373 62.098121 
L 103.898921 61.997829 
L 103.992257 61.830675 
L 104.007771 61.830675 
L 104.126471 61.730383 
L 104.181582 61.59666 
L 104.232418 61.59666 
L 104.48129 61.496368 
L 104.504873 61.429506 
L 104.592349 61.429506 
L 104.974955 61.329214 
L 105.079298 61.228922 
L 105.250224 61.128629 
L 105.300739 61.028337 
L 105.347906 61.028337 
L 105.457807 60.928045 
L 105.566907 60.69403 
L 105.568385 60.69403 
L 105.660795 60.593737 
L 105.767418 60.493445 
L 105.767792 60.493445 
L 105.947215 60.393153 
L 106.032606 60.29286 
L 106.038858 60.29286 
L 106.379213 60.192568 
L 106.379213 60.159137 
L 106.465745 60.159137 
L 107.023355 60.058845 
L 107.098344 59.991984 
L 107.133755 59.991984 
L 107.410164 59.891691 
L 107.444845 59.791399 
L 107.520297 59.791399 
L 107.742059 59.691107 
L 107.778396 59.590815 
L 107.839313 59.590815 
L 108.183694 59.490522 
L 108.183694 59.457092 
L 108.291867 59.457092 
L 108.836653 59.356799 
L 108.922276 59.256507 
L 108.932429 59.256507 
L 109.141455 59.156215 
L 109.149274 59.055923 
L 109.250483 59.055923 
L 109.496327 58.95563 
L 109.541819 58.888769 
L 109.601187 58.888769 
L 109.773146 58.788477 
L 109.860087 58.721615 
L 109.883083 58.721615 
L 110.046705 58.621323 
L 110.046705 58.587892 
L 110.157266 58.587892 
L 110.298481 58.4876 
L 110.400473 58.320446 
L 110.409575 58.320446 
L 110.639673 58.220154 
L 110.639673 58.186723 
L 110.749414 58.186723 
L 110.946274 58.086431 
L 111.038719 57.952708 
L 111.053717 57.952708 
L 111.525847 57.852415 
L 111.609689 57.718692 
L 111.627625 57.718692 
L 111.97254 57.6184 
L 112.004976 57.551539 
L 112.083314 57.551539 
L 112.309084 57.451246 
L 112.309084 57.417816 
L 112.405822 57.417816 
L 112.624466 57.317523 
L 112.706954 57.217231 
L 112.723431 57.217231 
L 113.178977 57.116939 
L 113.249086 57.050077 
L 113.28626 57.050077 
L 113.394184 56.949785 
L 113.48996 56.882924 
L 113.50168 56.882924 
L 113.649201 56.782631 
L 113.656896 56.71577 
L 113.759155 56.71577 
L 113.922742 56.615477 
L 114.027247 56.414893 
L 114.031094 56.414893 
L 114.306987 56.314601 
L 114.343288 56.247739 
L 114.414109 56.247739 
L 114.606873 56.147447 
L 114.606873 56.114016 
L 114.716863 56.114016 
L 115.069241 56.013724 
L 115.084007 55.946862 
L 115.168259 55.946862 
L 115.259511 55.84657 
L 115.335444 55.779709 
L 115.362483 55.779709 
L 115.52762 55.679416 
L 115.52762 55.645986 
L 115.623467 55.645986 
L 116.459001 55.545693 
L 116.482727 55.478832 
L 116.564182 55.478832 
L 116.727715 55.37854 
L 116.82041 55.278247 
L 116.83213 55.278247 
L 117.547093 55.177955 
L 117.547093 55.144524 
L 117.645149 55.144524 
L 118.008411 55.044232 
L 118.082652 54.94394 
L 118.113343 54.94394 
L 118.429135 54.843647 
L 118.435796 54.776786 
L 118.537219 54.776786 
L 119.133731 54.676494 
L 119.224324 54.542771 
L 119.242902 54.542771 
L 119.538157 54.442478 
L 119.538157 54.409048 
L 119.645974 54.409048 
L 119.683379 54.308755 
L 119.736442 54.241894 
L 119.793263 54.241894 
L 120.003856 54.141602 
L 120.003856 54.108171 
L 120.109162 54.108171 
L 120.625323 54.007879 
L 120.690106 53.941017 
L 120.721598 53.941017 
L 120.9427 53.840725 
L 120.9427 53.807294 
L 121.046973 53.807294 
L 121.573893 53.707002 
L 121.659961 53.573279 
L 121.680249 53.573279 
L 121.883842 53.472987 
L 121.960524 53.339264 
L 121.986975 53.339264 
L 122.239374 53.238971 
L 122.29949 53.17211 
L 122.350254 53.17211 
L 122.776945 53.071817 
L 122.776945 53.038387 
L 122.886045 53.038387 
L 123.130962 52.938094 
L 123.130962 52.904664 
L 123.242039 52.904664 
L 123.638217 52.804371 
L 123.661124 52.73751 
L 123.745376 52.73751 
L 124.137867 52.637218 
L 124.193387 52.570356 
L 124.247073 52.570356 
L 124.430343 52.470064 
L 124.536984 52.403202 
L 124.540066 52.403202 
L 124.900584 52.30291 
L 124.900584 52.269479 
L 125.002969 52.269479 
L 125.508728 52.169187 
L 125.56692 52.102326 
L 125.618451 52.102326 
L 126.348269 52.002033 
L 126.440643 51.935172 
L 126.457921 51.935172 
L 127.241336 51.83488 
L 127.241336 51.801449 
L 127.349064 51.801449 
L 127.669256 51.701157 
L 127.679854 51.634295 
L 127.779157 51.634295 
L 128.117428 51.534003 
L 128.117428 51.500572 
L 128.217479 51.500572 
L 128.555002 51.40028 
L 128.555002 51.366849 
L 128.663835 51.366849 
L 128.891795 51.266557 
L 128.891795 51.233126 
L 129.001233 51.233126 
L 129.480149 51.132834 
L 129.523718 51.032541 
L 129.590513 51.032541 
L 129.969699 50.932249 
L 130.03995 50.765095 
L 130.078977 50.765095 
L 130.451233 50.664803 
L 130.535343 50.564511 
L 130.561722 50.564511 
L 130.924717 50.464219 
L 130.934852 50.397357 
L 131.028972 50.397357 
L 131.640001 50.297065 
L 131.640001 50.263634 
L 131.741904 50.263634 
L 131.967673 50.163342 
L 131.967673 50.129911 
L 132.07175 50.129911 
L 132.192712 50.029619 
L 132.192712 49.996188 
L 132.297982 49.996188 
L 132.483336 49.895896 
L 132.499723 49.795604 
L 132.589514 49.795604 
L 132.868667 49.695311 
L 132.868667 49.661881 
L 132.973848 49.661881 
L 133.213279 49.561588 
L 133.237593 49.461296 
L 133.321328 49.461296 
L 133.489671 49.361004 
L 133.489671 49.327573 
L 133.595511 49.327573 
L 134.150182 49.227281 
L 134.150182 49.19385 
L 134.259014 49.19385 
L 134.606886 49.093558 
L 134.606886 49.060127 
L 134.706563 49.060127 
L 135.484599 48.959835 
L 135.497673 48.892973 
L 135.593521 48.892973 
L 135.751515 48.792681 
L 135.751515 48.75925 
L 135.855662 48.75925 
L 136.055373 48.658958 
L 136.060075 48.558666 
L 136.16107 48.558666 
L 136.567882 48.458373 
L 136.57205 48.391512 
L 136.6783 48.391512 
L 136.964845 48.29122 
L 136.971524 48.224358 
L 137.075725 48.224358 
L 137.746354 48.124066 
L 137.746354 48.090635 
L 137.856415 48.090635 
L 138.634915 47.990343 
L 138.742358 47.85662 
L 138.743978 47.85662 
L 138.904876 47.756328 
L 139.011927 47.656035 
L 139.37697 47.555743 
L 139.37697 47.522312 
L 139.487103 47.522312 
L 140.085574 47.42202 
L 140.085574 47.388589 
L 140.19503 47.388589 
L 140.793875 47.288297 
L 140.8194 47.221435 
L 140.903456 47.221435 
L 141.715371 47.121143 
L 141.745455 47.054282 
L 141.825877 47.054282 
L 142.280907 46.953989 
L 142.336374 46.853697 
L 142.391147 46.853697 
L 143.290217 46.753405 
L 143.384051 46.686543 
L 143.399334 46.686543 
L 143.856911 46.586251 
L 143.856911 46.55282 
L 143.965601 46.55282 
L 144.779475 46.452528 
L 144.846787 46.385667 
L 144.890017 46.385667 
L 145.242966 46.285374 
L 145.305112 46.218513 
L 145.352012 46.218513 
L 145.621866 46.118221 
L 145.621866 46.08479 
L 145.728027 46.08479 
L 145.906986 45.984498 
L 145.989848 45.917636 
L 146.017243 45.917636 
L 146.671574 45.817344 
L 146.672518 45.750482 
L 146.782081 45.750482 
L 147.243363 45.65019 
L 147.243363 45.616759 
L 147.353887 45.616759 
L 147.691072 45.516467 
L 147.691072 45.483036 
L 147.800082 45.483036 
L 148.358832 45.382744 
L 148.358832 45.349313 
L 148.469856 45.349313 
L 149.047095 45.249021 
L 149.047095 45.21559 
L 149.158154 45.21559 
L 149.573071 45.115298 
L 149.573071 45.081867 
L 149.682705 45.081867 
L 150.125836 44.981575 
L 150.227241 44.881283 
L 150.235969 44.881283 
L 150.649318 44.78099 
L 150.741995 44.680698 
L 150.760413 44.680698 
L 151.177984 44.580406 
L 151.177984 44.546975 
L 151.285961 44.546975 
L 151.461019 44.446683 
L 151.461019 44.413252 
L 151.570475 44.413252 
L 151.801214 44.31296 
L 151.841915 44.246098 
L 151.909655 44.246098 
L 152.35186 44.145806 
L 152.453229 44.045514 
L 152.46242 44.045514 
L 153.198437 43.945222 
L 153.307751 43.87836 
L 153.308695 43.87836 
L 153.639128 43.778068 
L 153.730202 43.677775 
L 153.749582 43.677775 
L 154.215441 43.577483 
L 154.215441 43.544052 
L 154.326447 43.544052 
L 155.024186 43.44376 
L 155.049995 43.343468 
L 155.127567 43.343468 
L 155.538744 43.243176 
L 155.58591 43.176314 
L 155.646846 43.176314 
L 156.210494 43.076022 
L 156.268188 42.97573 
L 156.319327 42.97573 
L 157.150479 42.875437 
L 157.150479 42.842007 
L 157.257548 42.842007 
L 157.495287 42.741714 
L 157.565699 42.641422 
L 157.606292 42.641422 
L 158.126622 42.54113 
L 158.223627 42.440838 
L 158.233709 42.440838 
L 158.888591 42.340545 
L 158.888591 42.307115 
L 158.998207 42.307115 
L 160.198428 42.206822 
L 160.198428 42.173392 
L 160.309184 42.173392 
L 160.779425 42.073099 
L 160.779425 42.039668 
L 160.886281 42.039668 
L 161.327666 41.939376 
L 161.381334 41.872515 
L 161.437657 41.872515 
L 161.77607 41.772222 
L 161.8605 41.638499 
L 161.883531 41.638499 
L 162.598565 41.538207 
L 162.674071 41.471346 
L 162.708057 41.471346 
L 163.411887 41.371053 
L 163.471469 41.304192 
L 163.522911 41.304192 
L 165.105612 41.2039 
L 165.116192 41.137038 
L 165.216386 41.137038 
L 166.092656 41.036746 
L 166.167752 40.969884 
L 166.200936 40.969884 
L 167.753962 40.869592 
L 167.753962 40.836161 
L 167.864861 40.836161 
L 168.812576 40.735869 
L 168.812576 40.702438 
L 168.919591 40.702438 
L 169.315538 40.602146 
L 169.416159 40.535285 
L 169.425261 40.535285 
L 169.78252 40.434992 
L 169.78252 40.401562 
L 169.893472 40.401562 
L 170.632642 40.301269 
L 170.679684 40.200977 
L 170.743291 40.200977 
L 171.301863 40.100685 
L 171.301863 40.067254 
L 171.412281 40.067254 
L 171.764802 39.966962 
L 171.764802 39.933531 
L 171.874685 39.933531 
L 172.969724 39.833239 
L 172.969724 39.799808 
L 173.080445 39.799808 
L 173.789566 39.699516 
L 173.825172 39.632654 
L 173.900429 39.632654 
L 174.949709 39.532362 
L 174.949709 39.498931 
L 175.058541 39.498931 
L 175.630009 39.398639 
L 175.685423 39.298347 
L 175.740819 39.298347 
L 176.222371 39.198054 
L 176.222371 39.164624 
L 176.332717 39.164624 
L 178.148099 39.064331 
L 178.215215 38.99747 
L 178.258356 38.99747 
L 178.841777 38.897178 
L 178.858716 38.830316 
L 178.952515 38.830316 
L 179.564078 38.730024 
L 179.667567 38.629732 
L 179.674995 38.629732 
L 179.896685 38.529439 
L 179.896685 38.496009 
L 180.006711 38.496009 
L 181.213931 38.395716 
L 181.213931 38.362285 
L 181.322817 38.362285 
L 181.815342 38.261993 
L 181.880855 38.195132 
L 181.926027 38.195132 
L 182.41563 38.094839 
L 182.468799 37.994547 
L 182.526707 37.994547 
L 184.02024 37.894255 
L 184.02024 37.860824 
L 184.13121 37.860824 
L 185.069164 37.760532 
L 185.154092 37.69367 
L 185.180134 37.69367 
L 185.621038 37.593378 
L 185.645085 37.526517 
L 185.731474 37.526517 
L 187.290948 37.426224 
L 187.323188 37.359363 
L 187.401651 37.359363 
L 188.756534 37.259071 
L 188.756534 37.22564 
L 188.86713 37.22564 
L 190.143444 37.125348 
L 190.215957 36.991625 
L 190.252401 36.991625 
L 190.799823 36.891332 
L 190.799823 36.857902 
L 190.910686 36.857902 
L 191.743886 36.757609 
L 191.743886 36.724179 
L 191.854232 36.724179 
L 192.987497 36.623886 
L 192.987497 36.590456 
L 193.098431 36.590456 
L 194.015598 36.490163 
L 194.015598 36.456732 
L 194.126033 36.456732 
L 194.837808 36.35644 
L 194.903891 36.289579 
L 194.948261 36.289579 
L 196.848732 36.189286 
L 196.848732 36.155856 
L 196.959524 36.155856 
L 198.246151 36.055563 
L 198.246151 36.022133 
L 198.356568 36.022133 
L 199.040022 35.92184 
L 199.137615 35.854979 
L 199.147109 35.854979 
L 200.798636 35.754687 
L 200.798636 35.721256 
L 200.907557 35.721256 
L 202.570271 35.620964 
L 202.570271 35.587533 
L 202.68133 35.587533 
L 202.870638 35.487241 
L 202.870638 35.45381 
L 202.981625 35.45381 
L 204.215422 35.353518 
L 204.290518 35.286656 
L 204.325323 35.286656 
L 205.204959 35.186364 
L 205.204959 35.152933 
L 205.315413 35.152933 
L 205.841602 35.052641 
L 205.841602 35.01921 
L 205.952537 35.01921 
L 207.217486 34.918918 
L 207.217486 34.885487 
L 207.32769 34.885487 
L 208.122256 34.785195 
L 208.223536 34.684902 
L 208.233066 34.684902 
L 209.523219 34.58461 
L 209.523219 34.551179 
L 209.633263 34.551179 
L 210.741893 34.450887 
L 210.852453 34.350595 
L 211.202605 34.250303 
L 211.307733 34.15001 
L 211.3137 34.15001 
L 212.345274 34.049718 
L 212.362801 33.982857 
L 212.456137 33.982857 
L 213.539634 33.882564 
L 213.539634 33.849134 
L 213.650604 33.849134 
L 214.243073 33.748841 
L 214.243073 33.715411 
L 214.3539 33.715411 
L 214.824961 33.615118 
L 214.92519 33.548257 
L 214.935984 33.548257 
L 215.404498 33.447965 
L 215.404498 33.414534 
L 215.515343 33.414534 
L 217.37823 33.314242 
L 217.37823 33.280811 
L 217.48765 33.280811 
L 218.21485 33.180519 
L 218.31613 33.113657 
L 218.32566 33.113657 
L 219.527109 33.013365 
L 219.527109 32.979934 
L 219.637812 32.979934 
L 220.827505 32.879642 
L 220.873104 32.81278 
L 220.93762 32.81278 
L 222.879468 32.712488 
L 222.918904 32.645626 
L 222.989512 32.645626 
L 223.462782 32.545334 
L 223.462782 32.511903 
L 223.573858 32.511903 
L 225.203512 32.411611 
L 225.215714 32.34475 
L 225.313538 32.34475 
L 225.976757 32.244457 
L 225.976757 32.211027 
L 226.087798 32.211027 
L 226.932202 32.110734 
L 226.932202 32.077304 
L 227.04294 32.077304 
L 228.271001 31.977011 
L 228.271001 31.943581 
L 228.381722 31.943581 
L 229.844137 31.843288 
L 229.844137 31.809858 
L 229.955214 31.809858 
L 231.209904 31.709565 
L 231.304558 31.609273 
L 231.32082 31.609273 
L 232.095134 31.508981 
L 232.095134 31.47555 
L 232.205783 31.47555 
L 233.908716 31.375258 
L 233.908716 31.341827 
L 234.019579 31.341827 
L 234.543489 31.241535 
L 234.543489 31.208104 
L 234.654566 31.208104 
L 235.340762 31.107812 
L 235.36032 31.04095 
L 235.451376 31.04095 
L 236.832389 30.940658 
L 236.832389 30.907227 
L 236.943306 30.907227 
L 237.65818 30.806935 
L 237.727309 30.706643 
L 237.768419 30.706643 
L 238.868553 30.60635 
L 238.979559 30.57292 
L 240.272402 30.472627 
L 240.272402 30.439197 
L 240.38323 30.439197 
L 242.341358 30.338904 
L 242.342676 30.272043 
L 242.452221 30.272043 
L 243.180187 30.171751 
L 243.180187 30.13832 
L 243.291282 30.13832 
L 243.990534 30.038028 
L 243.990534 30.004597 
L 244.101059 30.004597 
L 245.503251 29.904305 
L 245.503251 29.870874 
L 245.614328 29.870874 
L 247.908626 29.770582 
L 247.908626 29.737151 
L 248.019275 29.737151 
L 249.468207 29.636859 
L 249.468207 29.603428 
L 249.579301 29.603428 
L 250.508919 29.503136 
L 250.508919 29.469705 
L 250.619871 29.469705 
L 251.942372 29.369413 
L 251.942372 29.335982 
L 252.05295 29.335982 
L 253.078255 29.23569 
L 253.189385 29.202259 
L 254.829744 29.101966 
L 254.928762 29.001674 
L 254.9405 29.001674 
L 256.478457 28.901382 
L 256.503234 28.80109 
L 256.589427 28.80109 
L 258.361258 28.700797 
L 258.376523 28.633936 
L 258.472281 28.633936 
L 259.300316 28.533644 
L 259.300316 28.500213 
L 259.411393 28.500213 
L 261.236749 28.399921 
L 261.280532 28.333059 
L 261.347844 28.333059 
L 262.418819 28.232767 
L 262.418819 28.199336 
L 262.529717 28.199336 
L 263.40898 28.099044 
L 263.520306 28.065613 
L 264.811867 27.965321 
L 264.811867 27.93189 
L 264.922908 27.93189 
L 267.344225 27.831598 
L 267.344225 27.798167 
L 267.455266 27.798167 
L 270.224561 27.697875 
L 270.224561 27.664444 
L 270.33562 27.664444 
L 272.569143 27.564152 
L 272.680362 27.530721 
L 275.153565 27.430429 
L 275.153565 27.396998 
L 275.264392 27.396998 
L 276.788652 27.296706 
L 276.788652 27.263275 
L 276.899729 27.263275 
L 278.677562 27.162983 
L 278.793377 27.129552 
L 279.775843 27.02926 
L 279.775843 26.995829 
L 279.88651 26.995829 
L 282.023758 26.895537 
L 282.023758 26.895537 
" clip-path="url(#pbcb10726b7)" style="fill: none; stroke: #1f77b4; stroke-width: 1.5; stroke-linecap: round"/>
   </g>
   <g id="line2d_26">
    <path d="M 42.831699 265.022801 
L 282.023758 26.895537 
" clip-path="url(#pbcb10726b7)" style="fill: none; stroke-dasharray: 5.55,2.4; stroke-dashoffset: 0; stroke: #999999; stroke-width: 1.5"/>
   </g>
   <g id="patch_3">
    <path d="M 35.655938 265.022801 
L 35.655938 19.751719 
" style="fill: none"/>
   </g>
   <g id="patch_4">
    <path d="M 289.19952 265.022801 
L 289.19952 19.751719 
" style="fill: none"/>
   </g>
   <g id="patch_5">
    <path d="M 35.655938 265.022801 
L 289.19952 265.022801 
" style="fill: none"/>
   </g>
   <g id="patch_6">
    <path d="M 35.655938 19.751719 
L 289.19952 19.751719 
" style="fill: none"/>
   </g>
   <g id="text_15">
    <!-- Model 2: Receiver Operating Characteristic (ROC) Curve -->
    <g style="fill: #333333" transform="translate(42.14976 13.751719) scale(0.09 -0.09)">
     <defs>
      <path id="Arial-BoldMT-4d" d="M 453 0 
L 453 4581 
L 1838 4581 
L 2669 1456 
L 3491 4581 
L 4878 4581 
L 4878 0 
L 4019 0 
L 4019 3606 
L 3109 0 
L 2219 0 
L 1313 3606 
L 1313 0 
L 453 0 
z
" transform="scale(0.015625)"/>
      <path id="Arial-BoldMT-64" d="M 3503 0 
L 2688 0 
L 2688 488 
Q 2484 203 2207 64 
Q 1931 -75 1650 -75 
Q 1078 -75 670 386 
Q 263 847 263 1672 
Q 263 2516 659 2955 
Q 1056 3394 1663 3394 
Q 2219 3394 2625 2931 
L 2625 4581 
L 3503 4581 
L 3503 0 
z
M 1159 1731 
Q 1159 1200 1306 963 
Q 1519 619 1900 619 
Q 2203 619 2415 876 
Q 2628 1134 2628 1647 
Q 2628 2219 2422 2470 
Q 2216 2722 1894 2722 
Q 1581 2722 1370 2473 
Q 1159 2225 1159 1731 
z
" transform="scale(0.015625)"/>
      <path id="Arial-BoldMT-32" d="M 3238 816 
L 3238 0 
L 159 0 
Q 209 463 459 877 
Q 709 1291 1447 1975 
Q 2041 2528 2175 2725 
Q 2356 2997 2356 3263 
Q 2356 3556 2198 3714 
Q 2041 3872 1763 3872 
Q 1488 3872 1325 3706 
Q 1163 3541 1138 3156 
L 263 3244 
Q 341 3969 753 4284 
Q 1166 4600 1784 4600 
Q 2463 4600 2850 4234 
Q 3238 3869 3238 3325 
Q 3238 3016 3127 2736 
Q 3016 2456 2775 2150 
Q 2616 1947 2200 1565 
Q 1784 1184 1673 1059 
Q 1563 934 1494 816 
L 3238 816 
z
" transform="scale(0.015625)"/>
      <path id="Arial-BoldMT-3a" d="M 628 2441 
L 628 3319 
L 1506 3319 
L 1506 2441 
L 628 2441 
z
M 628 0 
L 628 878 
L 1506 878 
L 1506 0 
L 628 0 
z
" transform="scale(0.015625)"/>
      <path id="Arial-BoldMT-63" d="M 3353 2338 
L 2488 2181 
Q 2444 2441 2289 2572 
Q 2134 2703 1888 2703 
Q 1559 2703 1364 2476 
Q 1169 2250 1169 1719 
Q 1169 1128 1367 884 
Q 1566 641 1900 641 
Q 2150 641 2309 783 
Q 2469 925 2534 1272 
L 3397 1125 
Q 3263 531 2881 228 
Q 2500 -75 1859 -75 
Q 1131 -75 698 384 
Q 266 844 266 1656 
Q 266 2478 700 2936 
Q 1134 3394 1875 3394 
Q 2481 3394 2839 3133 
Q 3197 2872 3353 2338 
z
" transform="scale(0.015625)"/>
      <path id="Arial-BoldMT-4f" d="M 278 2263 
Q 278 2963 488 3438 
Q 644 3788 914 4066 
Q 1184 4344 1506 4478 
Q 1934 4659 2494 4659 
Q 3506 4659 4114 4031 
Q 4722 3403 4722 2284 
Q 4722 1175 4119 548 
Q 3516 -78 2506 -78 
Q 1484 -78 881 545 
Q 278 1169 278 2263 
z
M 1231 2294 
Q 1231 1516 1590 1114 
Q 1950 713 2503 713 
Q 3056 713 3411 1111 
Q 3766 1509 3766 2306 
Q 3766 3094 3420 3481 
Q 3075 3869 2503 3869 
Q 1931 3869 1581 3476 
Q 1231 3084 1231 2294 
z
" transform="scale(0.015625)"/>
      <path id="Arial-BoldMT-70" d="M 434 3319 
L 1253 3319 
L 1253 2831 
Q 1413 3081 1684 3237 
Q 1956 3394 2288 3394 
Q 2866 3394 3269 2941 
Q 3672 2488 3672 1678 
Q 3672 847 3265 386 
Q 2859 -75 2281 -75 
Q 2006 -75 1782 34 
Q 1559 144 1313 409 
L 1313 -1263 
L 434 -1263 
L 434 3319 
z
M 1303 1716 
Q 1303 1156 1525 889 
Q 1747 622 2066 622 
Q 2372 622 2575 867 
Q 2778 1113 2778 1672 
Q 2778 2194 2568 2447 
Q 2359 2700 2050 2700 
Q 1728 2700 1515 2451 
Q 1303 2203 1303 1716 
z
" transform="scale(0.015625)"/>
      <path id="Arial-BoldMT-6e" d="M 3478 0 
L 2600 0 
L 2600 1694 
Q 2600 2231 2544 2389 
Q 2488 2547 2361 2634 
Q 2234 2722 2056 2722 
Q 1828 2722 1647 2597 
Q 1466 2472 1398 2265 
Q 1331 2059 1331 1503 
L 1331 0 
L 453 0 
L 453 3319 
L 1269 3319 
L 1269 2831 
Q 1703 3394 2363 3394 
Q 2653 3394 2893 3289 
Q 3134 3184 3257 3021 
Q 3381 2859 3429 2653 
Q 3478 2447 3478 2063 
L 3478 0 
z
" transform="scale(0.015625)"/>
      <path id="Arial-BoldMT-67" d="M 378 -219 
L 1381 -341 
Q 1406 -516 1497 -581 
Q 1622 -675 1891 -675 
Q 2234 -675 2406 -572 
Q 2522 -503 2581 -350 
Q 2622 -241 2622 53 
L 2622 538 
Q 2228 0 1628 0 
Q 959 0 569 566 
Q 263 1013 263 1678 
Q 263 2513 664 2953 
Q 1066 3394 1663 3394 
Q 2278 3394 2678 2853 
L 2678 3319 
L 3500 3319 
L 3500 341 
Q 3500 -247 3403 -537 
Q 3306 -828 3131 -993 
Q 2956 -1159 2664 -1253 
Q 2372 -1347 1925 -1347 
Q 1081 -1347 728 -1058 
Q 375 -769 375 -325 
Q 375 -281 378 -219 
z
M 1163 1728 
Q 1163 1200 1367 954 
Q 1572 709 1872 709 
Q 2194 709 2416 961 
Q 2638 1213 2638 1706 
Q 2638 2222 2425 2472 
Q 2213 2722 1888 2722 
Q 1572 2722 1367 2476 
Q 1163 2231 1163 1728 
z
" transform="scale(0.015625)"/>
      <path id="Arial-BoldMT-43" d="M 3397 1684 
L 4294 1400 
Q 4088 650 3608 286 
Q 3128 -78 2391 -78 
Q 1478 -78 890 545 
Q 303 1169 303 2250 
Q 303 3394 893 4026 
Q 1484 4659 2447 4659 
Q 3288 4659 3813 4163 
Q 4125 3869 4281 3319 
L 3366 3100 
Q 3284 3456 3026 3662 
Q 2769 3869 2400 3869 
Q 1891 3869 1573 3503 
Q 1256 3138 1256 2319 
Q 1256 1450 1568 1081 
Q 1881 713 2381 713 
Q 2750 713 3015 947 
Q 3281 1181 3397 1684 
z
" transform="scale(0.015625)"/>
      <path id="Arial-BoldMT-68" d="M 1334 4581 
L 1334 2897 
Q 1759 3394 2350 3394 
Q 2653 3394 2897 3281 
Q 3141 3169 3264 2994 
Q 3388 2819 3433 2606 
Q 3478 2394 3478 1947 
L 3478 0 
L 2600 0 
L 2600 1753 
Q 2600 2275 2550 2415 
Q 2500 2556 2373 2639 
Q 2247 2722 2056 2722 
Q 1838 2722 1666 2615 
Q 1494 2509 1414 2295 
Q 1334 2081 1334 1663 
L 1334 0 
L 456 0 
L 456 4581 
L 1334 4581 
z
" transform="scale(0.015625)"/>
     </defs>
     <use xlink:href="#Arial-BoldMT-4d"/>
     <use xlink:href="#Arial-BoldMT-6f" transform="translate(83.300781 0)"/>
     <use xlink:href="#Arial-BoldMT-64" transform="translate(144.384766 0)"/>
     <use xlink:href="#Arial-BoldMT-65" transform="translate(205.46875 0)"/>
     <use xlink:href="#Arial-BoldMT-6c" transform="translate(261.083984 0)"/>
     <use xlink:href="#Arial-BoldMT-20" transform="translate(288.867188 0)"/>
     <use xlink:href="#Arial-BoldMT-32" transform="translate(316.650391 0)"/>
     <use xlink:href="#Arial-BoldMT-3a" transform="translate(372.265625 0)"/>
     <use xlink:href="#Arial-BoldMT-20" transform="translate(405.566406 0)"/>
     <use xlink:href="#Arial-BoldMT-52" transform="translate(433.349609 0)"/>
     <use xlink:href="#Arial-BoldMT-65" transform="translate(505.566406 0)"/>
     <use xlink:href="#Arial-BoldMT-63" transform="translate(561.181641 0)"/>
     <use xlink:href="#Arial-BoldMT-65" transform="translate(616.796875 0)"/>
     <use xlink:href="#Arial-BoldMT-69" transform="translate(672.412109 0)"/>
     <use xlink:href="#Arial-BoldMT-76" transform="translate(700.195312 0)"/>
     <use xlink:href="#Arial-BoldMT-65" transform="translate(755.810547 0)"/>
     <use xlink:href="#Arial-BoldMT-72" transform="translate(811.425781 0)"/>
     <use xlink:href="#Arial-BoldMT-20" transform="translate(850.341797 0)"/>
     <use xlink:href="#Arial-BoldMT-4f" transform="translate(878.125 0)"/>
     <use xlink:href="#Arial-BoldMT-70" transform="translate(955.908203 0)"/>
     <use xlink:href="#Arial-BoldMT-65" transform="translate(1016.992188 0)"/>
     <use xlink:href="#Arial-BoldMT-72" transform="translate(1072.607422 0)"/>
     <use xlink:href="#Arial-BoldMT-61" transform="translate(1111.523438 0)"/>
     <use xlink:href="#Arial-BoldMT-74" transform="translate(1167.138672 0)"/>
     <use xlink:href="#Arial-BoldMT-69" transform="translate(1200.439453 0)"/>
     <use xlink:href="#Arial-BoldMT-6e" transform="translate(1228.222656 0)"/>
     <use xlink:href="#Arial-BoldMT-67" transform="translate(1289.306641 0)"/>
     <use xlink:href="#Arial-BoldMT-20" transform="translate(1350.390625 0)"/>
     <use xlink:href="#Arial-BoldMT-43" transform="translate(1378.173828 0)"/>
     <use xlink:href="#Arial-BoldMT-68" transform="translate(1450.390625 0)"/>
     <use xlink:href="#Arial-BoldMT-61" transform="translate(1511.474609 0)"/>
     <use xlink:href="#Arial-BoldMT-72" transform="translate(1567.089844 0)"/>
     <use xlink:href="#Arial-BoldMT-61" transform="translate(1606.005859 0)"/>
     <use xlink:href="#Arial-BoldMT-63" transform="translate(1661.621094 0)"/>
     <use xlink:href="#Arial-BoldMT-74" transform="translate(1717.236328 0)"/>
     <use xlink:href="#Arial-BoldMT-65" transform="translate(1750.537109 0)"/>
     <use xlink:href="#Arial-BoldMT-72" transform="translate(1806.152344 0)"/>
     <use xlink:href="#Arial-BoldMT-69" transform="translate(1845.068359 0)"/>
     <use xlink:href="#Arial-BoldMT-73" transform="translate(1872.851562 0)"/>
     <use xlink:href="#Arial-BoldMT-74" transform="translate(1928.466797 0)"/>
     <use xlink:href="#Arial-BoldMT-69" transform="translate(1961.767578 0)"/>
     <use xlink:href="#Arial-BoldMT-63" transform="translate(1989.550781 0)"/>
     <use xlink:href="#Arial-BoldMT-20" transform="translate(2045.166016 0)"/>
     <use xlink:href="#Arial-BoldMT-28" transform="translate(2072.949219 0)"/>
     <use xlink:href="#Arial-BoldMT-52" transform="translate(2106.25 0)"/>
     <use xlink:href="#Arial-BoldMT-4f" transform="translate(2178.466797 0)"/>
     <use xlink:href="#Arial-BoldMT-43" transform="translate(2256.25 0)"/>
     <use xlink:href="#Arial-BoldMT-29" transform="translate(2328.466797 0)"/>
     <use xlink:href="#Arial-BoldMT-20" transform="translate(2361.767578 0)"/>
     <use xlink:href="#Arial-BoldMT-43" transform="translate(2389.550781 0)"/>
     <use xlink:href="#Arial-BoldMT-75" transform="translate(2461.767578 0)"/>
     <use xlink:href="#Arial-BoldMT-72" transform="translate(2522.851562 0)"/>
     <use xlink:href="#Arial-BoldMT-76" transform="translate(2561.767578 0)"/>
     <use xlink:href="#Arial-BoldMT-65" transform="translate(2617.382812 0)"/>
    </g>
   </g>
   <g id="legend_1">
    <g id="patch_7">
     <path d="M 182.577645 260.522801 
L 282.89952 260.522801 
Q 284.69952 260.522801 284.69952 258.722801 
L 284.69952 234.161239 
Q 284.69952 232.361239 282.89952 232.361239 
L 182.577645 232.361239 
Q 180.777645 232.361239 180.777645 234.161239 
L 180.777645 258.722801 
Q 180.777645 260.522801 182.577645 260.522801 
z
" style="fill: #ffffff; opacity: 0.8; stroke: #cccccc; stroke-width: 0.75; stroke-linejoin: miter"/>
    </g>
    <g id="line2d_27">
     <path d="M 184.377645 239.25327 
L 193.377645 239.25327 
L 202.377645 239.25327 
" style="fill: none; stroke: #1f77b4; stroke-width: 1.5; stroke-linecap: round"/>
    </g>
    <g id="text_16">
     <!-- ROC curve -->
     <g style="fill: #333333" transform="translate(209.577645 242.40327) scale(0.09 -0.09)">
      <defs>
       <path id="ArialMT-52" d="M 503 0 
L 503 4581 
L 2534 4581 
Q 3147 4581 3465 4457 
Q 3784 4334 3975 4021 
Q 4166 3709 4166 3331 
Q 4166 2844 3850 2509 
Q 3534 2175 2875 2084 
Q 3116 1969 3241 1856 
Q 3506 1613 3744 1247 
L 4541 0 
L 3778 0 
L 3172 953 
Q 2906 1366 2734 1584 
Q 2563 1803 2427 1890 
Q 2291 1978 2150 2013 
Q 2047 2034 1813 2034 
L 1109 2034 
L 1109 0 
L 503 0 
z
M 1109 2559 
L 2413 2559 
Q 2828 2559 3062 2645 
Q 3297 2731 3419 2920 
Q 3541 3109 3541 3331 
Q 3541 3656 3305 3865 
Q 3069 4075 2559 4075 
L 1109 4075 
L 1109 2559 
z
" transform="scale(0.015625)"/>
       <path id="ArialMT-4f" d="M 309 2231 
Q 309 3372 921 4017 
Q 1534 4663 2503 4663 
Q 3138 4663 3647 4359 
Q 4156 4056 4423 3514 
Q 4691 2972 4691 2284 
Q 4691 1588 4409 1038 
Q 4128 488 3612 205 
Q 3097 -78 2500 -78 
Q 1853 -78 1343 234 
Q 834 547 571 1087 
Q 309 1628 309 2231 
z
M 934 2222 
Q 934 1394 1379 917 
Q 1825 441 2497 441 
Q 3181 441 3623 922 
Q 4066 1403 4066 2288 
Q 4066 2847 3877 3264 
Q 3688 3681 3323 3911 
Q 2959 4141 2506 4141 
Q 1863 4141 1398 3698 
Q 934 3256 934 2222 
z
" transform="scale(0.015625)"/>
       <path id="ArialMT-43" d="M 3763 1606 
L 4369 1453 
Q 4178 706 3683 314 
Q 3188 -78 2472 -78 
Q 1731 -78 1267 223 
Q 803 525 561 1097 
Q 319 1669 319 2325 
Q 319 3041 592 3573 
Q 866 4106 1370 4382 
Q 1875 4659 2481 4659 
Q 3169 4659 3637 4309 
Q 4106 3959 4291 3325 
L 3694 3184 
Q 3534 3684 3231 3912 
Q 2928 4141 2469 4141 
Q 1941 4141 1586 3887 
Q 1231 3634 1087 3207 
Q 944 2781 944 2328 
Q 944 1744 1114 1308 
Q 1284 872 1643 656 
Q 2003 441 2422 441 
Q 2931 441 3284 734 
Q 3638 1028 3763 1606 
z
" transform="scale(0.015625)"/>
       <path id="ArialMT-20" transform="scale(0.015625)"/>
       <path id="ArialMT-63" d="M 2588 1216 
L 3141 1144 
Q 3050 572 2676 248 
Q 2303 -75 1759 -75 
Q 1078 -75 664 370 
Q 250 816 250 1647 
Q 250 2184 428 2587 
Q 606 2991 970 3192 
Q 1334 3394 1763 3394 
Q 2303 3394 2647 3120 
Q 2991 2847 3088 2344 
L 2541 2259 
Q 2463 2594 2264 2762 
Q 2066 2931 1784 2931 
Q 1359 2931 1093 2626 
Q 828 2322 828 1663 
Q 828 994 1084 691 
Q 1341 388 1753 388 
Q 2084 388 2306 591 
Q 2528 794 2588 1216 
z
" transform="scale(0.015625)"/>
       <path id="ArialMT-75" d="M 2597 0 
L 2597 488 
Q 2209 -75 1544 -75 
Q 1250 -75 995 37 
Q 741 150 617 320 
Q 494 491 444 738 
Q 409 903 409 1263 
L 409 3319 
L 972 3319 
L 972 1478 
Q 972 1038 1006 884 
Q 1059 663 1231 536 
Q 1403 409 1656 409 
Q 1909 409 2131 539 
Q 2353 669 2445 892 
Q 2538 1116 2538 1541 
L 2538 3319 
L 3100 3319 
L 3100 0 
L 2597 0 
z
" transform="scale(0.015625)"/>
       <path id="ArialMT-72" d="M 416 0 
L 416 3319 
L 922 3319 
L 922 2816 
Q 1116 3169 1280 3281 
Q 1444 3394 1641 3394 
Q 1925 3394 2219 3213 
L 2025 2691 
Q 1819 2813 1613 2813 
Q 1428 2813 1281 2702 
Q 1134 2591 1072 2394 
Q 978 2094 978 1738 
L 978 0 
L 416 0 
z
" transform="scale(0.015625)"/>
       <path id="ArialMT-76" d="M 1344 0 
L 81 3319 
L 675 3319 
L 1388 1331 
Q 1503 1009 1600 663 
Q 1675 925 1809 1294 
L 2547 3319 
L 3125 3319 
L 1869 0 
L 1344 0 
z
" transform="scale(0.015625)"/>
       <path id="ArialMT-65" d="M 2694 1069 
L 3275 997 
Q 3138 488 2766 206 
Q 2394 -75 1816 -75 
Q 1088 -75 661 373 
Q 234 822 234 1631 
Q 234 2469 665 2931 
Q 1097 3394 1784 3394 
Q 2450 3394 2872 2941 
Q 3294 2488 3294 1666 
Q 3294 1616 3291 1516 
L 816 1516 
Q 847 969 1125 678 
Q 1403 388 1819 388 
Q 2128 388 2347 550 
Q 2566 713 2694 1069 
z
M 847 1978 
L 2700 1978 
Q 2663 2397 2488 2606 
Q 2219 2931 1791 2931 
Q 1403 2931 1139 2672 
Q 875 2413 847 1978 
z
" transform="scale(0.015625)"/>
      </defs>
      <use xlink:href="#ArialMT-52"/>
      <use xlink:href="#ArialMT-4f" transform="translate(72.216797 0)"/>
      <use xlink:href="#ArialMT-43" transform="translate(150 0)"/>
      <use xlink:href="#ArialMT-20" transform="translate(222.216797 0)"/>
      <use xlink:href="#ArialMT-63" transform="translate(250 0)"/>
      <use xlink:href="#ArialMT-75" transform="translate(300 0)"/>
      <use xlink:href="#ArialMT-72" transform="translate(355.615234 0)"/>
      <use xlink:href="#ArialMT-76" transform="translate(388.916016 0)"/>
      <use xlink:href="#ArialMT-65" transform="translate(438.916016 0)"/>
     </g>
    </g>
    <g id="line2d_28">
     <path d="M 184.377645 251.984051 
L 193.377645 251.984051 
L 202.377645 251.984051 
" style="fill: none; stroke-dasharray: 5.55,2.4; stroke-dashoffset: 0; stroke: #999999; stroke-width: 1.5"/>
    </g>
    <g id="text_17">
     <!-- Random classifier -->
     <g style="fill: #333333" transform="translate(209.577645 255.134051) scale(0.09 -0.09)">
      <defs>
       <path id="ArialMT-61" d="M 2588 409 
Q 2275 144 1986 34 
Q 1697 -75 1366 -75 
Q 819 -75 525 192 
Q 231 459 231 875 
Q 231 1119 342 1320 
Q 453 1522 633 1644 
Q 813 1766 1038 1828 
Q 1203 1872 1538 1913 
Q 2219 1994 2541 2106 
Q 2544 2222 2544 2253 
Q 2544 2597 2384 2738 
Q 2169 2928 1744 2928 
Q 1347 2928 1158 2789 
Q 969 2650 878 2297 
L 328 2372 
Q 403 2725 575 2942 
Q 747 3159 1072 3276 
Q 1397 3394 1825 3394 
Q 2250 3394 2515 3294 
Q 2781 3194 2906 3042 
Q 3031 2891 3081 2659 
Q 3109 2516 3109 2141 
L 3109 1391 
Q 3109 606 3145 398 
Q 3181 191 3288 0 
L 2700 0 
Q 2613 175 2588 409 
z
M 2541 1666 
Q 2234 1541 1622 1453 
Q 1275 1403 1131 1340 
Q 988 1278 909 1158 
Q 831 1038 831 891 
Q 831 666 1001 516 
Q 1172 366 1500 366 
Q 1825 366 2078 508 
Q 2331 650 2450 897 
Q 2541 1088 2541 1459 
L 2541 1666 
z
" transform="scale(0.015625)"/>
       <path id="ArialMT-6e" d="M 422 0 
L 422 3319 
L 928 3319 
L 928 2847 
Q 1294 3394 1984 3394 
Q 2284 3394 2536 3286 
Q 2788 3178 2913 3003 
Q 3038 2828 3088 2588 
Q 3119 2431 3119 2041 
L 3119 0 
L 2556 0 
L 2556 2019 
Q 2556 2363 2490 2533 
Q 2425 2703 2258 2804 
Q 2091 2906 1866 2906 
Q 1506 2906 1245 2678 
Q 984 2450 984 1813 
L 984 0 
L 422 0 
z
" transform="scale(0.015625)"/>
       <path id="ArialMT-64" d="M 2575 0 
L 2575 419 
Q 2259 -75 1647 -75 
Q 1250 -75 917 144 
Q 584 363 401 755 
Q 219 1147 219 1656 
Q 219 2153 384 2558 
Q 550 2963 881 3178 
Q 1213 3394 1622 3394 
Q 1922 3394 2156 3267 
Q 2391 3141 2538 2938 
L 2538 4581 
L 3097 4581 
L 3097 0 
L 2575 0 
z
M 797 1656 
Q 797 1019 1065 703 
Q 1334 388 1700 388 
Q 2069 388 2326 689 
Q 2584 991 2584 1609 
Q 2584 2291 2321 2609 
Q 2059 2928 1675 2928 
Q 1300 2928 1048 2622 
Q 797 2316 797 1656 
z
" transform="scale(0.015625)"/>
       <path id="ArialMT-6f" d="M 213 1659 
Q 213 2581 725 3025 
Q 1153 3394 1769 3394 
Q 2453 3394 2887 2945 
Q 3322 2497 3322 1706 
Q 3322 1066 3130 698 
Q 2938 331 2570 128 
Q 2203 -75 1769 -75 
Q 1072 -75 642 372 
Q 213 819 213 1659 
z
M 791 1659 
Q 791 1022 1069 705 
Q 1347 388 1769 388 
Q 2188 388 2466 706 
Q 2744 1025 2744 1678 
Q 2744 2294 2464 2611 
Q 2184 2928 1769 2928 
Q 1347 2928 1069 2612 
Q 791 2297 791 1659 
z
" transform="scale(0.015625)"/>
       <path id="ArialMT-6d" d="M 422 0 
L 422 3319 
L 925 3319 
L 925 2853 
Q 1081 3097 1340 3245 
Q 1600 3394 1931 3394 
Q 2300 3394 2536 3241 
Q 2772 3088 2869 2813 
Q 3263 3394 3894 3394 
Q 4388 3394 4653 3120 
Q 4919 2847 4919 2278 
L 4919 0 
L 4359 0 
L 4359 2091 
Q 4359 2428 4304 2576 
Q 4250 2725 4106 2815 
Q 3963 2906 3769 2906 
Q 3419 2906 3187 2673 
Q 2956 2441 2956 1928 
L 2956 0 
L 2394 0 
L 2394 2156 
Q 2394 2531 2256 2718 
Q 2119 2906 1806 2906 
Q 1569 2906 1367 2781 
Q 1166 2656 1075 2415 
Q 984 2175 984 1722 
L 984 0 
L 422 0 
z
" transform="scale(0.015625)"/>
       <path id="ArialMT-6c" d="M 409 0 
L 409 4581 
L 972 4581 
L 972 0 
L 409 0 
z
" transform="scale(0.015625)"/>
       <path id="ArialMT-73" d="M 197 991 
L 753 1078 
Q 800 744 1014 566 
Q 1228 388 1613 388 
Q 2000 388 2187 545 
Q 2375 703 2375 916 
Q 2375 1106 2209 1216 
Q 2094 1291 1634 1406 
Q 1016 1563 777 1677 
Q 538 1791 414 1992 
Q 291 2194 291 2438 
Q 291 2659 392 2848 
Q 494 3038 669 3163 
Q 800 3259 1026 3326 
Q 1253 3394 1513 3394 
Q 1903 3394 2198 3281 
Q 2494 3169 2634 2976 
Q 2775 2784 2828 2463 
L 2278 2388 
Q 2241 2644 2061 2787 
Q 1881 2931 1553 2931 
Q 1166 2931 1000 2803 
Q 834 2675 834 2503 
Q 834 2394 903 2306 
Q 972 2216 1119 2156 
Q 1203 2125 1616 2013 
Q 2213 1853 2448 1751 
Q 2684 1650 2818 1456 
Q 2953 1263 2953 975 
Q 2953 694 2789 445 
Q 2625 197 2315 61 
Q 2006 -75 1616 -75 
Q 969 -75 630 194 
Q 291 463 197 991 
z
" transform="scale(0.015625)"/>
       <path id="ArialMT-69" d="M 425 3934 
L 425 4581 
L 988 4581 
L 988 3934 
L 425 3934 
z
M 425 0 
L 425 3319 
L 988 3319 
L 988 0 
L 425 0 
z
" transform="scale(0.015625)"/>
       <path id="ArialMT-66" d="M 556 0 
L 556 2881 
L 59 2881 
L 59 3319 
L 556 3319 
L 556 3672 
Q 556 4006 616 4169 
Q 697 4388 901 4523 
Q 1106 4659 1475 4659 
Q 1713 4659 2000 4603 
L 1916 4113 
Q 1741 4144 1584 4144 
Q 1328 4144 1222 4034 
Q 1116 3925 1116 3625 
L 1116 3319 
L 1763 3319 
L 1763 2881 
L 1116 2881 
L 1116 0 
L 556 0 
z
" transform="scale(0.015625)"/>
      </defs>
      <use xlink:href="#ArialMT-52"/>
      <use xlink:href="#ArialMT-61" transform="translate(72.216797 0)"/>
      <use xlink:href="#ArialMT-6e" transform="translate(127.832031 0)"/>
      <use xlink:href="#ArialMT-64" transform="translate(183.447266 0)"/>
      <use xlink:href="#ArialMT-6f" transform="translate(239.0625 0)"/>
      <use xlink:href="#ArialMT-6d" transform="translate(294.677734 0)"/>
      <use xlink:href="#ArialMT-20" transform="translate(377.978516 0)"/>
      <use xlink:href="#ArialMT-63" transform="translate(405.761719 0)"/>
      <use xlink:href="#ArialMT-6c" transform="translate(455.761719 0)"/>
      <use xlink:href="#ArialMT-61" transform="translate(477.978516 0)"/>
      <use xlink:href="#ArialMT-73" transform="translate(533.59375 0)"/>
      <use xlink:href="#ArialMT-73" transform="translate(583.59375 0)"/>
      <use xlink:href="#ArialMT-69" transform="translate(633.59375 0)"/>
      <use xlink:href="#ArialMT-66" transform="translate(655.810547 0)"/>
      <use xlink:href="#ArialMT-69" transform="translate(683.59375 0)"/>
      <use xlink:href="#ArialMT-65" transform="translate(705.810547 0)"/>
      <use xlink:href="#ArialMT-72" transform="translate(761.425781 0)"/>
     </g>
    </g>
   </g>
  </g>
 </g>
 <defs>
  <clipPath id="pbcb10726b7">
   <rect x="35.655938" y="19.751719" width="253.543583" height="245.271083"/>
  </clipPath>
 </defs>
</svg>
