<?xml version="1.0" encoding="utf-8" standalone="no"?>
<!DOCTYPE svg PUBLIC "-//W3C//DTD SVG 1.1//EN"
  "http://www.w3.org/Graphics/SVG/1.1/DTD/svg11.dtd">
<svg xmlns:xlink="http://www.w3.org/1999/xlink" width="296.39952pt" height="296.39952pt" viewBox="0 0 296.39952 296.39952" xmlns="http://www.w3.org/2000/svg" version="1.1">
 <metadata>
  <rdf:RDF xmlns:dc="http://purl.org/dc/elements/1.1/" xmlns:cc="http://creativecommons.org/ns#" xmlns:rdf="http://www.w3.org/1999/02/22-rdf-syntax-ns#">
   <cc:Work>
    <dc:type rdf:resource="http://purl.org/dc/dcmitype/StillImage"/>
    <dc:date>2025-12-26T22:06:59.809835</dc:date>
    <dc:format>image/svg+xml</dc:format>
    <dc:creator>
     <cc:Agent>
      <dc:title>Matplotlib v3.10.8, https://matplotlib.org/</dc:title>
     </cc:Agent>
    </dc:creator>
   </cc:Work>
  </rdf:RDF>
 </metadata>
 <defs>
  <style type="text/css">*{stroke-linejoin: round; stroke-linecap: butt}</style>
 </defs>
 <g id="figure_1">
  <g id="patch_1">
   <path d="M 0 296.39952 
L 296.39952 296.39952 
L 296.39952 0 
L 0 0 
z
" style="fill: #ffffff"/>
  </g>
  <g id="axes_1">
   <g id="patch_2">
    <path d="M 35.655938 265.022801 
L 289.19952 265.022801 
L 289.19952 19.751719 
L 35.655938 19.751719 
z
" style="fill: #ffffff"/>
   </g>
   <g id="matplotlib.axis_1">
    <g id="xtick_1">
     <g id="line2d_1">
      <path d="M 42.831699 265.022801 
L 42.831699 19.751719 
" clip-path="url(#p95681a8bb9)" style="fill: none; stroke: #c0c0c0; stroke-width: 0.25; stroke-linecap: round"/>
     </g>
     <g id="line2d_2"/>
     <g id="text_1">
      <!-- 0.0 -->
      <g style="fill: #333333" transform="translate(36.576699 274.964832) scale(0.09 -0.09)">
       <defs>
        <path id="ArialMT-30" d="M 266 2259 
Q 266 3072 433 3567 
Q 600 4063 929 4331 
Q 1259 4600 1759 4600 
Q 2128 4600 2406 4451 
Q 2684 4303 2865 4023 
Q 3047 3744 3150 3342 
Q 3253 2941 3253 2259 
Q 3253 1453 3087 958 
Q 2922 463 2592 192 
Q 2263 -78 1759 -78 
Q 1097 -78 719 397 
Q 266 969 266 2259 
z
M 844 2259 
Q 844 1131 1108 757 
Q 1372 384 1759 384 
Q 2147 384 2411 759 
Q 2675 1134 2675 2259 
Q 2675 3391 2411 3762 
Q 2147 4134 1753 4134 
Q 1366 4134 1134 3806 
Q 844 3388 844 2259 
z
" transform="scale(0.015625)"/>
        <path id="ArialMT-2e" d="M 581 0 
L 581 641 
L 1222 641 
L 1222 0 
L 581 0 
z
" transform="scale(0.015625)"/>
       </defs>
       <use xlink:href="#ArialMT-30"/>
       <use xlink:href="#ArialMT-2e" transform="translate(55.615234 0)"/>
       <use xlink:href="#ArialMT-30" transform="translate(83.398438 0)"/>
      </g>
     </g>
    </g>
    <g id="xtick_2">
     <g id="line2d_3">
      <path d="M 90.670111 265.022801 
L 90.670111 19.751719 
" clip-path="url(#p95681a8bb9)" style="fill: none; stroke: #c0c0c0; stroke-width: 0.25; stroke-linecap: round"/>
     </g>
     <g id="line2d_4"/>
     <g id="text_2">
      <!-- 0.2 -->
      <g style="fill: #333333" transform="translate(84.415111 274.964832) scale(0.09 -0.09)">
       <defs>
        <path id="ArialMT-32" d="M 3222 541 
L 3222 0 
L 194 0 
Q 188 203 259 391 
Q 375 700 629 1000 
Q 884 1300 1366 1694 
Q 2113 2306 2375 2664 
Q 2638 3022 2638 3341 
Q 2638 3675 2398 3904 
Q 2159 4134 1775 4134 
Q 1369 4134 1125 3890 
Q 881 3647 878 3216 
L 300 3275 
Q 359 3922 746 4261 
Q 1134 4600 1788 4600 
Q 2447 4600 2831 4234 
Q 3216 3869 3216 3328 
Q 3216 3053 3103 2787 
Q 2991 2522 2730 2228 
Q 2469 1934 1863 1422 
Q 1356 997 1212 845 
Q 1069 694 975 541 
L 3222 541 
z
" transform="scale(0.015625)"/>
       </defs>
       <use xlink:href="#ArialMT-30"/>
       <use xlink:href="#ArialMT-2e" transform="translate(55.615234 0)"/>
       <use xlink:href="#ArialMT-32" transform="translate(83.398438 0)"/>
      </g>
     </g>
    </g>
    <g id="xtick_3">
     <g id="line2d_5">
      <path d="M 138.508523 265.022801 
L 138.508523 19.751719 
" clip-path="url(#p95681a8bb9)" style="fill: none; stroke: #c0c0c0; stroke-width: 0.25; stroke-linecap: round"/>
     </g>
     <g id="line2d_6"/>
     <g id="text_3">
      <!-- 0.4 -->
      <g style="fill: #333333" transform="translate(132.253523 274.964832) scale(0.09 -0.09)">
       <defs>
        <path id="ArialMT-34" d="M 2069 0 
L 2069 1097 
L 81 1097 
L 81 1613 
L 2172 4581 
L 2631 4581 
L 2631 1613 
L 3250 1613 
L 3250 1097 
L 2631 1097 
L 2631 0 
L 2069 0 
z
M 2069 1613 
L 2069 3678 
L 634 1613 
L 2069 1613 
z
" transform="scale(0.015625)"/>
       </defs>
       <use xlink:href="#ArialMT-30"/>
       <use xlink:href="#ArialMT-2e" transform="translate(55.615234 0)"/>
       <use xlink:href="#ArialMT-34" transform="translate(83.398438 0)"/>
      </g>
     </g>
    </g>
    <g id="xtick_4">
     <g id="line2d_7">
      <path d="M 186.346935 265.022801 
L 186.346935 19.751719 
" clip-path="url(#p95681a8bb9)" style="fill: none; stroke: #c0c0c0; stroke-width: 0.25; stroke-linecap: round"/>
     </g>
     <g id="line2d_8"/>
     <g id="text_4">
      <!-- 0.6 -->
      <g style="fill: #333333" transform="translate(180.091935 274.964832) scale(0.09 -0.09)">
       <defs>
        <path id="ArialMT-36" d="M 3184 3459 
L 2625 3416 
Q 2550 3747 2413 3897 
Q 2184 4138 1850 4138 
Q 1581 4138 1378 3988 
Q 1113 3794 959 3422 
Q 806 3050 800 2363 
Q 1003 2672 1297 2822 
Q 1591 2972 1913 2972 
Q 2475 2972 2870 2558 
Q 3266 2144 3266 1488 
Q 3266 1056 3080 686 
Q 2894 316 2569 119 
Q 2244 -78 1831 -78 
Q 1128 -78 684 439 
Q 241 956 241 2144 
Q 241 3472 731 4075 
Q 1159 4600 1884 4600 
Q 2425 4600 2770 4297 
Q 3116 3994 3184 3459 
z
M 888 1484 
Q 888 1194 1011 928 
Q 1134 663 1356 523 
Q 1578 384 1822 384 
Q 2178 384 2434 671 
Q 2691 959 2691 1453 
Q 2691 1928 2437 2201 
Q 2184 2475 1800 2475 
Q 1419 2475 1153 2201 
Q 888 1928 888 1484 
z
" transform="scale(0.015625)"/>
       </defs>
       <use xlink:href="#ArialMT-30"/>
       <use xlink:href="#ArialMT-2e" transform="translate(55.615234 0)"/>
       <use xlink:href="#ArialMT-36" transform="translate(83.398438 0)"/>
      </g>
     </g>
    </g>
    <g id="xtick_5">
     <g id="line2d_9">
      <path d="M 234.185346 265.022801 
L 234.185346 19.751719 
" clip-path="url(#p95681a8bb9)" style="fill: none; stroke: #c0c0c0; stroke-width: 0.25; stroke-linecap: round"/>
     </g>
     <g id="line2d_10"/>
     <g id="text_5">
      <!-- 0.8 -->
      <g style="fill: #333333" transform="translate(227.930346 274.964832) scale(0.09 -0.09)">
       <defs>
        <path id="ArialMT-38" d="M 1131 2484 
Q 781 2613 612 2850 
Q 444 3088 444 3419 
Q 444 3919 803 4259 
Q 1163 4600 1759 4600 
Q 2359 4600 2725 4251 
Q 3091 3903 3091 3403 
Q 3091 3084 2923 2848 
Q 2756 2613 2416 2484 
Q 2838 2347 3058 2040 
Q 3278 1734 3278 1309 
Q 3278 722 2862 322 
Q 2447 -78 1769 -78 
Q 1091 -78 675 323 
Q 259 725 259 1325 
Q 259 1772 486 2073 
Q 713 2375 1131 2484 
z
M 1019 3438 
Q 1019 3113 1228 2906 
Q 1438 2700 1772 2700 
Q 2097 2700 2305 2904 
Q 2513 3109 2513 3406 
Q 2513 3716 2298 3927 
Q 2084 4138 1766 4138 
Q 1444 4138 1231 3931 
Q 1019 3725 1019 3438 
z
M 838 1322 
Q 838 1081 952 856 
Q 1066 631 1291 507 
Q 1516 384 1775 384 
Q 2178 384 2440 643 
Q 2703 903 2703 1303 
Q 2703 1709 2433 1975 
Q 2163 2241 1756 2241 
Q 1359 2241 1098 1978 
Q 838 1716 838 1322 
z
" transform="scale(0.015625)"/>
       </defs>
       <use xlink:href="#ArialMT-30"/>
       <use xlink:href="#ArialMT-2e" transform="translate(55.615234 0)"/>
       <use xlink:href="#ArialMT-38" transform="translate(83.398438 0)"/>
      </g>
     </g>
    </g>
    <g id="xtick_6">
     <g id="line2d_11">
      <path d="M 282.023758 265.022801 
L 282.023758 19.751719 
" clip-path="url(#p95681a8bb9)" style="fill: none; stroke: #c0c0c0; stroke-width: 0.25; stroke-linecap: round"/>
     </g>
     <g id="line2d_12"/>
     <g id="text_6">
      <!-- 1.0 -->
      <g style="fill: #333333" transform="translate(275.768758 274.964832) scale(0.09 -0.09)">
       <defs>
        <path id="ArialMT-31" d="M 2384 0 
L 1822 0 
L 1822 3584 
Q 1619 3391 1289 3197 
Q 959 3003 697 2906 
L 697 3450 
Q 1169 3672 1522 3987 
Q 1875 4303 2022 4600 
L 2384 4600 
L 2384 0 
z
" transform="scale(0.015625)"/>
       </defs>
       <use xlink:href="#ArialMT-31"/>
       <use xlink:href="#ArialMT-2e" transform="translate(55.615234 0)"/>
       <use xlink:href="#ArialMT-30" transform="translate(83.398438 0)"/>
      </g>
     </g>
    </g>
    <g id="text_7">
     <!-- False Positive Rate (FPR) -->
     <g style="fill: #333333" transform="translate(108.165463 287.305301) scale(0.09 -0.09)">
      <defs>
       <path id="Arial-BoldMT-46" d="M 472 0 
L 472 4581 
L 3613 4581 
L 3613 3806 
L 1397 3806 
L 1397 2722 
L 3309 2722 
L 3309 1947 
L 1397 1947 
L 1397 0 
L 472 0 
z
" transform="scale(0.015625)"/>
       <path id="Arial-BoldMT-61" d="M 1116 2306 
L 319 2450 
Q 453 2931 781 3162 
Q 1109 3394 1756 3394 
Q 2344 3394 2631 3255 
Q 2919 3116 3036 2902 
Q 3153 2688 3153 2116 
L 3144 1091 
Q 3144 653 3186 445 
Q 3228 238 3344 0 
L 2475 0 
Q 2441 88 2391 259 
Q 2369 338 2359 363 
Q 2134 144 1878 34 
Q 1622 -75 1331 -75 
Q 819 -75 523 203 
Q 228 481 228 906 
Q 228 1188 362 1408 
Q 497 1628 739 1745 
Q 981 1863 1438 1950 
Q 2053 2066 2291 2166 
L 2291 2253 
Q 2291 2506 2166 2614 
Q 2041 2722 1694 2722 
Q 1459 2722 1328 2630 
Q 1197 2538 1116 2306 
z
M 2291 1594 
Q 2122 1538 1756 1459 
Q 1391 1381 1278 1306 
Q 1106 1184 1106 997 
Q 1106 813 1243 678 
Q 1381 544 1594 544 
Q 1831 544 2047 700 
Q 2206 819 2256 991 
Q 2291 1103 2291 1419 
L 2291 1594 
z
" transform="scale(0.015625)"/>
       <path id="Arial-BoldMT-6c" d="M 459 0 
L 459 4581 
L 1338 4581 
L 1338 0 
L 459 0 
z
" transform="scale(0.015625)"/>
       <path id="Arial-BoldMT-73" d="M 150 947 
L 1031 1081 
Q 1088 825 1259 692 
Q 1431 559 1741 559 
Q 2081 559 2253 684 
Q 2369 772 2369 919 
Q 2369 1019 2306 1084 
Q 2241 1147 2013 1200 
Q 950 1434 666 1628 
Q 272 1897 272 2375 
Q 272 2806 612 3100 
Q 953 3394 1669 3394 
Q 2350 3394 2681 3172 
Q 3013 2950 3138 2516 
L 2309 2363 
Q 2256 2556 2107 2659 
Q 1959 2763 1684 2763 
Q 1338 2763 1188 2666 
Q 1088 2597 1088 2488 
Q 1088 2394 1175 2328 
Q 1294 2241 1995 2081 
Q 2697 1922 2975 1691 
Q 3250 1456 3250 1038 
Q 3250 581 2869 253 
Q 2488 -75 1741 -75 
Q 1063 -75 667 200 
Q 272 475 150 947 
z
" transform="scale(0.015625)"/>
       <path id="Arial-BoldMT-65" d="M 2381 1056 
L 3256 909 
Q 3088 428 2723 176 
Q 2359 -75 1813 -75 
Q 947 -75 531 491 
Q 203 944 203 1634 
Q 203 2459 634 2926 
Q 1066 3394 1725 3394 
Q 2466 3394 2894 2905 
Q 3322 2416 3303 1406 
L 1103 1406 
Q 1113 1016 1316 798 
Q 1519 581 1822 581 
Q 2028 581 2168 693 
Q 2309 806 2381 1056 
z
M 2431 1944 
Q 2422 2325 2234 2523 
Q 2047 2722 1778 2722 
Q 1491 2722 1303 2513 
Q 1116 2303 1119 1944 
L 2431 1944 
z
" transform="scale(0.015625)"/>
       <path id="Arial-BoldMT-20" transform="scale(0.015625)"/>
       <path id="Arial-BoldMT-50" d="M 466 0 
L 466 4581 
L 1950 4581 
Q 2794 4581 3050 4513 
Q 3444 4409 3709 4064 
Q 3975 3719 3975 3172 
Q 3975 2750 3822 2462 
Q 3669 2175 3433 2011 
Q 3197 1847 2953 1794 
Q 2622 1728 1994 1728 
L 1391 1728 
L 1391 0 
L 466 0 
z
M 1391 3806 
L 1391 2506 
L 1897 2506 
Q 2444 2506 2628 2578 
Q 2813 2650 2917 2803 
Q 3022 2956 3022 3159 
Q 3022 3409 2875 3571 
Q 2728 3734 2503 3775 
Q 2338 3806 1838 3806 
L 1391 3806 
z
" transform="scale(0.015625)"/>
       <path id="Arial-BoldMT-6f" d="M 256 1706 
Q 256 2144 472 2553 
Q 688 2963 1083 3178 
Q 1478 3394 1966 3394 
Q 2719 3394 3200 2905 
Q 3681 2416 3681 1669 
Q 3681 916 3195 420 
Q 2709 -75 1972 -75 
Q 1516 -75 1102 131 
Q 688 338 472 736 
Q 256 1134 256 1706 
z
M 1156 1659 
Q 1156 1166 1390 903 
Q 1625 641 1969 641 
Q 2313 641 2545 903 
Q 2778 1166 2778 1666 
Q 2778 2153 2545 2415 
Q 2313 2678 1969 2678 
Q 1625 2678 1390 2415 
Q 1156 2153 1156 1659 
z
" transform="scale(0.015625)"/>
       <path id="Arial-BoldMT-69" d="M 459 3769 
L 459 4581 
L 1338 4581 
L 1338 3769 
L 459 3769 
z
M 459 0 
L 459 3319 
L 1338 3319 
L 1338 0 
L 459 0 
z
" transform="scale(0.015625)"/>
       <path id="Arial-BoldMT-74" d="M 1981 3319 
L 1981 2619 
L 1381 2619 
L 1381 1281 
Q 1381 875 1398 808 
Q 1416 741 1477 697 
Q 1538 653 1625 653 
Q 1747 653 1978 738 
L 2053 56 
Q 1747 -75 1359 -75 
Q 1122 -75 931 4 
Q 741 84 652 211 
Q 563 338 528 553 
Q 500 706 500 1172 
L 500 2619 
L 97 2619 
L 97 3319 
L 500 3319 
L 500 3978 
L 1381 4491 
L 1381 3319 
L 1981 3319 
z
" transform="scale(0.015625)"/>
       <path id="Arial-BoldMT-76" d="M 1372 0 
L 34 3319 
L 956 3319 
L 1581 1625 
L 1763 1059 
Q 1834 1275 1853 1344 
Q 1897 1484 1947 1625 
L 2578 3319 
L 3481 3319 
L 2163 0 
L 1372 0 
z
" transform="scale(0.015625)"/>
       <path id="Arial-BoldMT-52" d="M 469 0 
L 469 4581 
L 2416 4581 
Q 3150 4581 3483 4457 
Q 3816 4334 4016 4018 
Q 4216 3703 4216 3297 
Q 4216 2781 3912 2445 
Q 3609 2109 3006 2022 
Q 3306 1847 3501 1637 
Q 3697 1428 4028 894 
L 4588 0 
L 3481 0 
L 2813 997 
Q 2456 1531 2325 1670 
Q 2194 1809 2047 1861 
Q 1900 1913 1581 1913 
L 1394 1913 
L 1394 0 
L 469 0 
z
M 1394 2644 
L 2078 2644 
Q 2744 2644 2909 2700 
Q 3075 2756 3169 2893 
Q 3263 3031 3263 3238 
Q 3263 3469 3139 3611 
Q 3016 3753 2791 3791 
Q 2678 3806 2116 3806 
L 1394 3806 
L 1394 2644 
z
" transform="scale(0.015625)"/>
       <path id="Arial-BoldMT-28" d="M 1916 -1347 
L 1313 -1347 
Q 834 -625 584 153 
Q 334 931 334 1659 
Q 334 2563 644 3369 
Q 913 4069 1325 4659 
L 1925 4659 
Q 1497 3713 1336 3048 
Q 1175 2384 1175 1641 
Q 1175 1128 1270 590 
Q 1366 53 1531 -431 
Q 1641 -750 1916 -1347 
z
" transform="scale(0.015625)"/>
       <path id="Arial-BoldMT-29" d="M 216 -1347 
Q 475 -791 581 -494 
Q 688 -197 778 190 
Q 869 578 912 926 
Q 956 1275 956 1641 
Q 956 2384 797 3048 
Q 638 3713 209 4659 
L 806 4659 
Q 1278 3988 1539 3234 
Q 1800 2481 1800 1706 
Q 1800 1053 1594 306 
Q 1359 -531 822 -1347 
L 216 -1347 
z
" transform="scale(0.015625)"/>
      </defs>
      <use xlink:href="#Arial-BoldMT-46"/>
      <use xlink:href="#Arial-BoldMT-61" transform="translate(61.083984 0)"/>
      <use xlink:href="#Arial-BoldMT-6c" transform="translate(116.699219 0)"/>
      <use xlink:href="#Arial-BoldMT-73" transform="translate(144.482422 0)"/>
      <use xlink:href="#Arial-BoldMT-65" transform="translate(200.097656 0)"/>
      <use xlink:href="#Arial-BoldMT-20" transform="translate(255.712891 0)"/>
      <use xlink:href="#Arial-BoldMT-50" transform="translate(283.496094 0)"/>
      <use xlink:href="#Arial-BoldMT-6f" transform="translate(350.195312 0)"/>
      <use xlink:href="#Arial-BoldMT-73" transform="translate(411.279297 0)"/>
      <use xlink:href="#Arial-BoldMT-69" transform="translate(466.894531 0)"/>
      <use xlink:href="#Arial-BoldMT-74" transform="translate(494.677734 0)"/>
      <use xlink:href="#Arial-BoldMT-69" transform="translate(527.978516 0)"/>
      <use xlink:href="#Arial-BoldMT-76" transform="translate(555.761719 0)"/>
      <use xlink:href="#Arial-BoldMT-65" transform="translate(611.376953 0)"/>
      <use xlink:href="#Arial-BoldMT-20" transform="translate(666.992188 0)"/>
      <use xlink:href="#Arial-BoldMT-52" transform="translate(694.775391 0)"/>
      <use xlink:href="#Arial-BoldMT-61" transform="translate(766.992188 0)"/>
      <use xlink:href="#Arial-BoldMT-74" transform="translate(822.607422 0)"/>
      <use xlink:href="#Arial-BoldMT-65" transform="translate(855.908203 0)"/>
      <use xlink:href="#Arial-BoldMT-20" transform="translate(911.523438 0)"/>
      <use xlink:href="#Arial-BoldMT-28" transform="translate(939.306641 0)"/>
      <use xlink:href="#Arial-BoldMT-46" transform="translate(972.607422 0)"/>
      <use xlink:href="#Arial-BoldMT-50" transform="translate(1033.691406 0)"/>
      <use xlink:href="#Arial-BoldMT-52" transform="translate(1100.390625 0)"/>
      <use xlink:href="#Arial-BoldMT-29" transform="translate(1172.607422 0)"/>
     </g>
    </g>
   </g>
   <g id="matplotlib.axis_2">
    <g id="ytick_1">
     <g id="line2d_13">
      <path d="M 35.655938 265.022801 
L 289.19952 265.022801 
" clip-path="url(#p95681a8bb9)" style="fill: none; stroke: #c0c0c0; stroke-width: 0.25; stroke-linecap: round"/>
     </g>
     <g id="line2d_14"/>
     <g id="text_8">
      <!-- 0.0 -->
      <g style="fill: #333333" transform="translate(19.645938 268.243817) scale(0.09 -0.09)">
       <use xlink:href="#ArialMT-30"/>
       <use xlink:href="#ArialMT-2e" transform="translate(55.615234 0)"/>
       <use xlink:href="#ArialMT-30" transform="translate(83.398438 0)"/>
      </g>
     </g>
    </g>
    <g id="ytick_2">
     <g id="line2d_15">
      <path d="M 35.655938 217.397348 
L 289.19952 217.397348 
" clip-path="url(#p95681a8bb9)" style="fill: none; stroke: #c0c0c0; stroke-width: 0.25; stroke-linecap: round"/>
     </g>
     <g id="line2d_16"/>
     <g id="text_9">
      <!-- 0.2 -->
      <g style="fill: #333333" transform="translate(19.645938 220.618364) scale(0.09 -0.09)">
       <use xlink:href="#ArialMT-30"/>
       <use xlink:href="#ArialMT-2e" transform="translate(55.615234 0)"/>
       <use xlink:href="#ArialMT-32" transform="translate(83.398438 0)"/>
      </g>
     </g>
    </g>
    <g id="ytick_3">
     <g id="line2d_17">
      <path d="M 35.655938 169.771895 
L 289.19952 169.771895 
" clip-path="url(#p95681a8bb9)" style="fill: none; stroke: #c0c0c0; stroke-width: 0.25; stroke-linecap: round"/>
     </g>
     <g id="line2d_18"/>
     <g id="text_10">
      <!-- 0.4 -->
      <g style="fill: #333333" transform="translate(19.645938 172.992911) scale(0.09 -0.09)">
       <use xlink:href="#ArialMT-30"/>
       <use xlink:href="#ArialMT-2e" transform="translate(55.615234 0)"/>
       <use xlink:href="#ArialMT-34" transform="translate(83.398438 0)"/>
      </g>
     </g>
    </g>
    <g id="ytick_4">
     <g id="line2d_19">
      <path d="M 35.655938 122.146443 
L 289.19952 122.146443 
" clip-path="url(#p95681a8bb9)" style="fill: none; stroke: #c0c0c0; stroke-width: 0.25; stroke-linecap: round"/>
     </g>
     <g id="line2d_20"/>
     <g id="text_11">
      <!-- 0.6 -->
      <g style="fill: #333333" transform="translate(19.645938 125.367458) scale(0.09 -0.09)">
       <use xlink:href="#ArialMT-30"/>
       <use xlink:href="#ArialMT-2e" transform="translate(55.615234 0)"/>
       <use xlink:href="#ArialMT-36" transform="translate(83.398438 0)"/>
      </g>
     </g>
    </g>
    <g id="ytick_5">
     <g id="line2d_21">
      <path d="M 35.655938 74.52099 
L 289.19952 74.52099 
" clip-path="url(#p95681a8bb9)" style="fill: none; stroke: #c0c0c0; stroke-width: 0.25; stroke-linecap: round"/>
     </g>
     <g id="line2d_22"/>
     <g id="text_12">
      <!-- 0.8 -->
      <g style="fill: #333333" transform="translate(19.645938 77.742005) scale(0.09 -0.09)">
       <use xlink:href="#ArialMT-30"/>
       <use xlink:href="#ArialMT-2e" transform="translate(55.615234 0)"/>
       <use xlink:href="#ArialMT-38" transform="translate(83.398438 0)"/>
      </g>
     </g>
    </g>
    <g id="ytick_6">
     <g id="line2d_23">
      <path d="M 35.655938 26.895537 
L 289.19952 26.895537 
" clip-path="url(#p95681a8bb9)" style="fill: none; stroke: #c0c0c0; stroke-width: 0.25; stroke-linecap: round"/>
     </g>
     <g id="line2d_24"/>
     <g id="text_13">
      <!-- 1.0 -->
      <g style="fill: #333333" transform="translate(19.645938 30.116552) scale(0.09 -0.09)">
       <use xlink:href="#ArialMT-31"/>
       <use xlink:href="#ArialMT-2e" transform="translate(55.615234 0)"/>
       <use xlink:href="#ArialMT-30" transform="translate(83.398438 0)"/>
      </g>
     </g>
    </g>
    <g id="text_14">
     <!-- True Positive Rate (TPR) -->
     <g style="fill: #333333" transform="translate(13.751719 194.647026) rotate(-90) scale(0.09 -0.09)">
      <defs>
       <path id="Arial-BoldMT-54" d="M 1497 0 
L 1497 3806 
L 138 3806 
L 138 4581 
L 3778 4581 
L 3778 3806 
L 2422 3806 
L 2422 0 
L 1497 0 
z
" transform="scale(0.015625)"/>
       <path id="Arial-BoldMT-72" d="M 1300 0 
L 422 0 
L 422 3319 
L 1238 3319 
L 1238 2847 
Q 1447 3181 1614 3287 
Q 1781 3394 1994 3394 
Q 2294 3394 2572 3228 
L 2300 2463 
Q 2078 2606 1888 2606 
Q 1703 2606 1575 2504 
Q 1447 2403 1373 2137 
Q 1300 1872 1300 1025 
L 1300 0 
z
" transform="scale(0.015625)"/>
       <path id="Arial-BoldMT-75" d="M 2644 0 
L 2644 497 
Q 2463 231 2167 78 
Q 1872 -75 1544 -75 
Q 1209 -75 943 72 
Q 678 219 559 484 
Q 441 750 441 1219 
L 441 3319 
L 1319 3319 
L 1319 1794 
Q 1319 1094 1367 936 
Q 1416 778 1544 686 
Q 1672 594 1869 594 
Q 2094 594 2272 717 
Q 2450 841 2515 1023 
Q 2581 1206 2581 1919 
L 2581 3319 
L 3459 3319 
L 3459 0 
L 2644 0 
z
" transform="scale(0.015625)"/>
      </defs>
      <use xlink:href="#Arial-BoldMT-54"/>
      <use xlink:href="#Arial-BoldMT-72" transform="translate(55.583984 0)"/>
      <use xlink:href="#Arial-BoldMT-75" transform="translate(94.5 0)"/>
      <use xlink:href="#Arial-BoldMT-65" transform="translate(155.583984 0)"/>
      <use xlink:href="#Arial-BoldMT-20" transform="translate(211.199219 0)"/>
      <use xlink:href="#Arial-BoldMT-50" transform="translate(238.982422 0)"/>
      <use xlink:href="#Arial-BoldMT-6f" transform="translate(305.681641 0)"/>
      <use xlink:href="#Arial-BoldMT-73" transform="translate(366.765625 0)"/>
      <use xlink:href="#Arial-BoldMT-69" transform="translate(422.380859 0)"/>
      <use xlink:href="#Arial-BoldMT-74" transform="translate(450.164062 0)"/>
      <use xlink:href="#Arial-BoldMT-69" transform="translate(483.464844 0)"/>
      <use xlink:href="#Arial-BoldMT-76" transform="translate(511.248047 0)"/>
      <use xlink:href="#Arial-BoldMT-65" transform="translate(566.863281 0)"/>
      <use xlink:href="#Arial-BoldMT-20" transform="translate(622.478516 0)"/>
      <use xlink:href="#Arial-BoldMT-52" transform="translate(650.261719 0)"/>
      <use xlink:href="#Arial-BoldMT-61" transform="translate(722.478516 0)"/>
      <use xlink:href="#Arial-BoldMT-74" transform="translate(778.09375 0)"/>
      <use xlink:href="#Arial-BoldMT-65" transform="translate(811.394531 0)"/>
      <use xlink:href="#Arial-BoldMT-20" transform="translate(867.009766 0)"/>
      <use xlink:href="#Arial-BoldMT-28" transform="translate(894.792969 0)"/>
      <use xlink:href="#Arial-BoldMT-54" transform="translate(928.09375 0)"/>
      <use xlink:href="#Arial-BoldMT-50" transform="translate(989.177734 0)"/>
      <use xlink:href="#Arial-BoldMT-52" transform="translate(1055.876953 0)"/>
      <use xlink:href="#Arial-BoldMT-29" transform="translate(1128.09375 0)"/>
     </g>
    </g>
   </g>
   <g id="line2d_25">
    <path d="M 42.831699 265.022801 
L 42.83186 264.922509 
L 42.942758 242.256457 
L 42.943809 242.156165 
L 43.054494 232.16037 
L 43.056026 232.060077 
L 43.166105 225.07305 
L 43.168207 224.972757 
L 43.279052 219.590406 
L 43.28078 219.490114 
L 43.391483 215.812731 
L 43.396773 215.712438 
L 43.505231 212.068486 
L 43.509755 211.968194 
L 43.618428 207.956503 
L 43.629542 207.856211 
L 43.740014 205.048028 
L 43.746693 204.947735 
L 43.856131 202.50729 
L 43.864823 202.406998 
L 43.972569 200.30086 
L 43.983969 200.200568 
L 44.088366 197.760123 
L 44.093835 197.760123 
L 44.102723 197.659831 
L 44.212268 196.021724 
L 44.213746 196.021724 
L 44.222884 195.921432 
L 44.332821 193.882156 
L 44.344719 193.781863 
L 44.45576 192.143756 
L 44.464987 192.043464 
L 44.575048 190.405357 
L 44.587125 190.305065 
L 44.698131 188.399512 
L 44.703955 188.29922 
L 44.811648 186.594251 
L 44.821355 186.493959 
L 44.929226 185.357313 
L 44.953807 185.257021 
L 45.055425 183.685775 
L 45.070868 183.585483 
L 45.180948 182.214822 
L 45.18964 182.11453 
L 45.297671 180.911023 
L 45.3103 180.810731 
L 45.419684 179.306347 
L 45.427165 179.206054 
L 45.533255 177.868824 
L 45.544886 177.768532 
L 45.646594 176.264148 
L 45.652062 176.264148 
L 45.670355 176.163856 
L 45.769426 175.094072 
L 45.793936 174.993779 
L 45.897015 174.057718 
L 45.909501 173.957426 
L 46.018904 172.854211 
L 46.031889 172.753919 
L 46.142075 171.650704 
L 46.156895 171.550412 
L 46.26774 170.346904 
L 46.270109 170.246612 
L 46.370694 169.745151 
L 46.402026 169.644859 
L 46.506672 168.942813 
L 46.537648 168.84252 
L 46.647496 167.672444 
L 46.658076 167.572152 
L 46.76559 166.402075 
L 46.765768 166.402075 
L 46.813968 166.301783 
L 46.923656 165.165137 
L 46.929462 165.064845 
L 47.038758 164.329369 
L 47.053952 164.229076 
L 47.16428 163.259584 
L 47.194508 163.159292 
L 47.304587 161.989216 
L 47.323129 161.888924 
L 47.433868 160.752278 
L 47.445659 160.651986 
L 47.555044 159.916509 
L 47.564752 159.816217 
L 47.675597 158.846725 
L 47.688136 158.746433 
L 47.797325 157.944094 
L 47.815351 157.843802 
L 47.918323 157.041464 
L 47.944703 156.941172 
L 48.051647 155.97168 
L 48.078188 155.871388 
L 48.175709 155.269634 
L 48.177081 155.269634 
L 48.209161 155.169342 
L 48.317494 154.734742 
L 48.388939 154.63445 
L 48.496507 153.798681 
L 48.525451 153.698389 
L 48.623116 153.029774 
L 48.667789 152.929481 
L 48.77272 152.194005 
L 48.778794 152.194005 
L 48.796945 152.093712 
L 48.901716 151.257944 
L 48.906347 151.257944 
L 48.922645 151.157651 
L 49.033526 150.522467 
L 49.055791 150.422175 
L 49.166476 149.853852 
L 49.187263 149.75356 
L 49.293032 149.018083 
L 49.294261 149.018083 
L 49.316722 148.917791 
L 49.421386 148.44976 
L 49.421885 148.44976 
L 49.459415 148.349468 
L 49.538947 147.881437 
L 49.570439 147.881437 
L 49.604852 147.781145 
L 49.715697 147.346545 
L 49.727952 147.246253 
L 49.833809 146.510776 
L 49.834094 146.510776 
L 49.851301 146.410484 
L 49.958566 146.009315 
L 49.990877 145.909023 
L 50.098053 145.240408 
L 50.146003 145.140115 
L 50.251309 144.939531 
L 50.280058 144.839239 
L 50.389353 144.337777 
L 50.430838 144.237485 
L 50.520914 143.836316 
L 50.556093 143.736024 
L 50.658478 143.13427 
L 50.667188 143.13427 
L 50.684947 143.033978 
L 50.791909 142.499086 
L 50.83204 142.398794 
L 50.941228 141.763609 
L 50.98795 141.663317 
L 51.093006 141.061563 
L 51.12505 140.961271 
L 51.235646 140.392948 
L 51.262328 140.292656 
L 51.370502 139.657472 
L 51.403525 139.557179 
L 51.511645 138.955426 
L 51.556781 138.855134 
L 51.665454 138.353672 
L 51.687416 138.25338 
L 51.796302 137.852211 
L 51.796462 137.852211 
L 51.837715 137.751919 
L 51.945799 137.049873 
L 51.947046 137.049873 
L 51.995068 136.949581 
L 52.103847 136.615273 
L 52.130779 136.514981 
L 52.22855 135.946658 
L 52.30003 135.846366 
L 52.404802 135.445197 
L 52.43013 135.344904 
L 52.515789 134.810012 
L 52.526334 134.810012 
L 52.581178 134.70972 
L 52.691578 134.174828 
L 52.714431 134.074536 
L 52.817225 133.706797 
L 52.821001 133.706797 
L 52.843694 133.606505 
L 52.94834 133.071613 
L 52.953595 133.071613 
L 52.986814 132.971321 
L 53.086295 132.402998 
L 53.094667 132.402998 
L 53.113976 132.302706 
L 53.214294 131.834675 
L 53.220867 131.834675 
L 53.252465 131.734383 
L 53.363204 131.199491 
L 53.395925 131.099199 
L 53.492449 130.831753 
L 53.502263 130.831753 
L 53.590095 130.73146 
L 53.69964 130.363722 
L 53.729048 130.26343 
L 53.822722 129.895691 
L 53.827193 129.895691 
L 53.872988 129.795399 
L 53.980182 129.260507 
L 54.002554 129.160215 
L 54.104885 128.792477 
L 54.183365 128.692184 
L 54.294264 128.424738 
L 54.313252 128.324446 
L 54.422868 127.689262 
L 54.499247 127.588969 
L 54.600117 127.288093 
L 54.603644 127.288093 
L 54.66588 127.1878 
L 54.772753 126.586047 
L 54.81242 126.485754 
L 54.915018 126.051155 
L 54.915731 126.051155 
L 54.940917 125.950862 
L 55.046063 125.616555 
L 55.074028 125.516263 
L 55.183501 125.282247 
L 55.300492 125.181955 
L 55.410714 124.847647 
L 55.460926 124.747355 
L 55.563346 124.279325 
L 55.61021 124.179032 
L 55.719025 123.777863 
L 55.774688 123.677571 
L 55.853453 123.510417 
L 55.885675 123.510417 
L 55.927587 123.410125 
L 55.999958 123.008956 
L 56.011269 123.008956 
L 56.059914 122.908664 
L 56.167713 122.440633 
L 56.233423 122.340341 
L 56.335201 122.039464 
L 56.336965 122.039464 
L 56.357253 121.939172 
L 56.447774 121.705157 
L 56.467261 121.705157 
L 56.498628 121.604864 
L 56.608333 121.036541 
L 56.636672 120.936249 
L 56.744525 120.367926 
L 56.784068 120.267634 
L 56.886114 119.933327 
L 56.892954 119.933327 
L 56.949098 119.833034 
L 57.048882 119.431865 
L 57.089654 119.331573 
L 57.200107 119.030696 
L 57.232508 118.930404 
L 57.337849 118.696389 
L 57.354165 118.596096 
L 57.457297 118.428943 
L 57.464298 118.428943 
L 57.505925 118.32865 
L 57.600026 118.061204 
L 57.615434 118.061204 
L 57.650506 117.960912 
L 57.7533 117.559743 
L 57.758573 117.559743 
L 57.788533 117.459451 
L 57.889777 117.091712 
L 57.928198 116.99142 
L 58.032453 116.690543 
L 58.074418 116.590251 
L 58.167647 116.389667 
L 58.180792 116.389667 
L 58.233125 116.289374 
L 58.337932 115.854775 
L 58.396249 115.754482 
L 58.473197 115.386744 
L 58.506542 115.386744 
L 58.557787 115.286452 
L 58.650535 114.75156 
L 58.667083 114.75156 
L 58.696758 114.651267 
L 58.79387 114.082945 
L 58.803168 114.082945 
L 58.871549 113.982652 
L 58.942423 113.614914 
L 59.008578 113.514622 
L 59.105832 113.080022 
L 59.119512 113.080022 
L 59.173216 112.97973 
L 59.277435 112.745714 
L 59.341933 112.645422 
L 59.425454 112.377976 
L 59.440862 112.377976 
L 59.53703 112.277684 
L 59.622243 112.043668 
L 59.643742 112.043668 
L 59.67429 111.943376 
L 59.766985 111.441915 
L 59.847977 111.341623 
L 59.952606 111.007315 
L 59.958216 111.007315 
L 59.98693 110.907023 
L 60.090276 110.472423 
L 60.09049 110.472423 
L 60.144567 110.372131 
L 60.251832 110.037823 
L 60.293103 109.937531 
L 60.399139 109.603223 
L 60.438255 109.502931 
L 60.542064 109.335777 
L 60.547123 109.335777 
L 60.588625 109.235485 
L 60.677722 108.934608 
L 60.692523 108.934608 
L 60.719135 108.834316 
L 60.826988 108.433147 
L 60.827433 108.433147 
L 60.927715 108.332855 
L 61.034553 107.998547 
L 61.070836 107.898255 
L 61.176231 107.597378 
L 61.176748 107.597378 
L 61.223041 107.497086 
L 61.314543 107.095917 
L 61.320438 107.095917 
L 61.370562 106.995625 
L 61.478717 106.728179 
L 61.607357 106.627886 
L 61.698413 106.393871 
L 61.708227 106.393871 
L 61.755946 106.293579 
L 61.851544 105.825548 
L 61.857476 105.825548 
L 61.906174 105.725256 
L 61.998192 105.424379 
L 62.013154 105.424379 
L 62.075889 105.324087 
L 62.159552 104.989779 
L 62.184454 104.989779 
L 62.245746 104.889487 
L 62.351977 104.488318 
L 62.353919 104.488318 
L 62.448929 104.388026 
L 62.509882 104.15401 
L 62.557494 104.15401 
L 62.708844 104.053718 
L 62.808218 103.652549 
L 62.817552 103.652549 
L 62.860604 103.552257 
L 62.954456 103.217949 
L 62.9668 103.217949 
L 63.105718 103.117657 
L 63.214283 102.749919 
L 63.268966 102.649626 
L 63.370567 102.34875 
L 63.456065 102.248457 
L 63.547175 102.047873 
L 63.551432 102.047873 
L 63.628291 101.947581 
L 63.734559 101.646704 
L 63.839205 101.546412 
L 63.940984 101.412689 
L 63.944101 101.412689 
L 63.999568 101.312396 
L 64.109345 100.978089 
L 64.16141 100.877796 
L 64.269102 100.61035 
L 64.324658 100.510058 
L 64.428771 100.242612 
L 64.434684 100.242612 
L 64.500767 100.14232 
L 64.598236 99.975166 
L 64.606875 99.975166 
L 64.741659 99.874874 
L 64.851169 99.674289 
L 64.852683 99.674289 
L 64.894862 99.573997 
L 65.002786 99.206259 
L 65.092791 99.105966 
L 65.155828 98.905382 
L 65.190455 98.905382 
L 65.265017 98.80509 
L 65.370661 98.537644 
L 65.374188 98.537644 
L 65.456213 98.437351 
L 65.549905 98.103044 
L 65.556442 98.103044 
L 65.595415 98.002752 
L 65.705174 97.768736 
L 65.778186 97.668444 
L 65.843164 97.434429 
L 65.872252 97.434429 
L 65.935485 97.334136 
L 66.040755 97.166983 
L 66.046419 97.166983 
L 66.170873 97.06669 
L 66.279135 96.899537 
L 66.324966 96.799244 
L 66.420297 96.531798 
L 66.431536 96.531798 
L 66.503711 96.431506 
L 66.612722 96.063768 
L 66.644659 95.963476 
L 66.755023 95.629168 
L 66.807641 95.528876 
L 66.917809 95.227999 
L 67.014333 95.127707 
L 67.118962 94.860261 
L 67.205743 94.759968 
L 67.315412 94.459092 
L 67.411652 94.358799 
L 67.484628 94.057923 
L 67.514499 94.057923 
L 67.589364 93.95763 
L 67.672778 93.723615 
L 67.690715 93.723615 
L 67.765277 93.623323 
L 67.857009 93.4896 
L 67.869959 93.4896 
L 67.958949 93.389307 
L 68.017194 93.289015 
L 68.069972 93.289015 
L 68.159407 93.188723 
L 68.262896 92.954708 
L 68.406319 92.854415 
L 68.510485 92.653831 
L 68.564616 92.553539 
L 68.651219 92.453246 
L 68.673163 92.453246 
L 68.760532 92.352954 
L 68.869311 92.219231 
L 68.870914 92.219231 
L 68.947222 92.118939 
L 69.041608 91.985216 
L 69.050978 91.985216 
L 69.108814 91.884924 
L 69.183981 91.71777 
L 69.215348 91.71777 
L 69.302628 91.617477 
L 69.404995 91.416893 
L 69.511494 91.316601 
L 69.615125 90.948862 
L 69.619257 90.948862 
L 69.794369 90.84857 
L 69.891677 90.581124 
L 69.962747 90.480832 
L 69.974806 90.41397 
L 70.049137 90.41397 
L 70.182817 90.313678 
L 70.264094 90.146524 
L 70.293591 90.146524 
L 70.350251 90.046232 
L 70.457979 89.879078 
L 70.461114 89.879078 
L 70.643814 89.778786 
L 70.689092 89.578201 
L 70.743295 89.578201 
L 70.844717 89.477909 
L 70.928381 89.210463 
L 70.944448 89.210463 
L 71.030142 89.110171 
L 71.129997 88.943017 
L 71.139954 88.943017 
L 71.242089 88.842725 
L 71.324774 88.675571 
L 71.473826 88.575279 
L 71.576014 88.441556 
L 71.678292 88.341264 
L 71.779732 88.240971 
L 71.782386 88.240971 
L 71.894728 88.140679 
L 71.98785 87.973525 
L 72.004077 87.973525 
L 72.066811 87.873233 
L 72.158954 87.572356 
L 72.177247 87.572356 
L 72.272595 87.472064 
L 72.371203 87.405202 
L 72.470275 87.30491 
L 72.573176 87.171187 
L 72.610083 87.070895 
L 72.69225 86.903741 
L 72.711523 86.903741 
L 73.013992 86.803449 
L 73.087039 86.636295 
L 73.121435 86.636295 
L 73.242842 86.536003 
L 73.301391 86.335418 
L 73.34854 86.335418 
L 73.388297 86.235126 
L 73.462182 86.034541 
L 73.606692 85.934249 
L 73.679579 85.800526 
L 73.702486 85.800526 
L 73.835774 85.700234 
L 73.946513 85.432788 
L 74.013308 85.332496 
L 74.109245 85.265634 
L 74.117367 85.265634 
L 74.173689 85.165342 
L 74.272066 84.998188 
L 74.283679 84.998188 
L 74.436401 84.897896 
L 74.475712 84.764173 
L 74.546249 84.764173 
L 74.640315 84.663881 
L 74.679608 84.563588 
L 74.750643 84.563588 
L 74.796011 84.463296 
L 74.892179 84.229281 
L 74.901245 84.229281 
L 75.03017 84.128988 
L 75.132821 83.894973 
L 75.179792 83.794681 
L 75.268639 83.660958 
L 75.272772 83.660958 
L 75.381693 83.560666 
L 75.422982 83.460373 
L 75.490045 83.460373 
L 75.62385 83.360081 
L 75.731204 83.192927 
L 75.856228 83.092635 
L 75.957151 82.958912 
L 75.960732 82.958912 
L 76.039871 82.85862 
L 76.148383 82.758328 
L 76.296616 82.658035 
L 76.388242 82.524312 
L 76.503023 82.42402 
L 76.61394 82.223435 
L 76.746872 82.123143 
L 76.857646 81.889128 
L 76.943483 81.788836 
L 77.029997 81.655113 
L 77.052351 81.655113 
L 77.151476 81.55482 
L 77.256443 81.421097 
L 77.259008 81.421097 
L 77.449295 81.320805 
L 77.551484 81.120221 
L 77.552428 81.120221 
L 77.722997 81.019928 
L 77.798948 80.919636 
L 77.833362 80.919636 
L 77.954182 80.819344 
L 78.056228 80.65219 
L 78.123682 80.551898 
L 78.233833 80.351313 
L 78.380374 80.251021 
L 78.426774 80.117298 
L 78.475384 80.117298 
L 78.630261 80.017006 
L 78.700263 79.916713 
L 78.718752 79.916713 
L 78.757172 79.816421 
L 78.773132 79.716129 
L 78.862549 79.716129 
L 78.961175 79.615837 
L 79.044839 79.482114 
L 79.055277 79.482114 
L 79.212398 79.381821 
L 79.275934 79.281529 
L 79.319343 79.281529 
L 79.443298 79.181237 
L 79.497749 79.047514 
L 79.516595 79.047514 
L 79.666003 78.947222 
L 79.752036 78.780068 
L 79.762937 78.780068 
L 79.96108 78.679775 
L 80.068897 78.479191 
L 80.249459 78.378899 
L 80.32028 78.278606 
L 80.345075 78.278606 
L 80.501163 78.178314 
L 80.596244 78.111453 
L 80.756411 78.01116 
L 80.816581 77.877437 
L 80.865796 77.877437 
L 81.105031 77.777145 
L 81.159394 77.676853 
L 81.187039 77.676853 
L 81.289619 77.576561 
L 81.382474 77.509699 
L 81.558957 77.409407 
L 81.637722 77.242253 
L 81.667772 77.242253 
L 81.97993 77.141961 
L 82.011921 77.075099 
L 82.03456 77.075099 
L 82.237957 76.974807 
L 82.346807 76.774222 
L 82.48218 76.67393 
L 82.554337 76.540207 
L 82.563902 76.540207 
L 82.742345 76.439915 
L 82.823711 76.339623 
L 82.823853 76.339623 
L 83.084303 76.23933 
L 83.191301 76.139038 
L 83.270369 76.038746 
L 83.353427 75.971884 
L 83.380163 75.971884 
L 83.485985 75.871592 
L 83.58324 75.637577 
L 83.699322 75.537285 
L 83.77465 75.370131 
L 83.808261 75.370131 
L 83.888238 75.269839 
L 83.998602 75.069254 
L 84.170614 74.968962 
L 84.261545 74.9021 
L 84.379284 74.801808 
L 84.446293 74.701516 
L 84.477037 74.701516 
L 84.608883 74.601223 
L 84.677976 74.400639 
L 84.692956 74.400639 
L 84.988443 74.300347 
L 85.002853 74.233485 
L 85.09113 74.233485 
L 85.289932 74.133193 
L 85.395647 73.899178 
L 85.638267 73.798885 
L 85.638267 73.765455 
L 85.729465 73.765455 
L 85.898182 73.665162 
L 85.995009 73.464578 
L 86.007353 73.464578 
L 86.148176 73.364285 
L 86.240033 73.230562 
L 86.253161 73.230562 
L 86.455721 73.13027 
L 86.493661 73.063409 
L 86.5106 73.063409 
L 86.802756 72.963116 
L 86.911677 72.795963 
L 87.065663 72.69567 
L 87.110283 72.595378 
L 87.173944 72.595378 
L 87.2479 72.495086 
L 87.306912 72.428224 
L 87.331688 72.428224 
L 87.483448 72.327932 
L 87.561376 72.194209 
L 87.581023 72.194209 
L 87.68168 72.093917 
L 87.784296 71.960194 
L 87.896762 71.859902 
L 88.006164 71.625886 
L 88.146453 71.525594 
L 88.146453 71.492163 
L 88.25525 71.492163 
L 88.523572 71.391871 
L 88.577419 71.325009 
L 88.627863 71.325009 
L 88.748416 71.224717 
L 88.829746 71.157856 
L 88.855039 71.157856 
L 89.154907 71.057563 
L 89.260302 70.89041 
L 89.330927 70.790117 
L 89.431513 70.689825 
L 89.435788 70.689825 
L 89.748106 70.589533 
L 89.850099 70.422379 
L 90.082245 70.322087 
L 90.185591 70.121502 
L 90.359224 70.02121 
L 90.428318 69.920918 
L 90.461627 69.920918 
L 90.757059 69.820626 
L 90.845764 69.686902 
L 90.86094 69.686902 
L 91.026273 69.58661 
L 91.055128 69.486318 
L 91.125308 69.486318 
L 91.360964 69.386026 
L 91.406367 69.319164 
L 91.456009 69.319164 
L 91.620594 69.218872 
L 91.729337 69.085149 
L 91.837208 68.984857 
L 91.888168 68.917995 
L 92.115897 68.817703 
L 92.205581 68.717411 
L 92.39651 68.617118 
L 92.479462 68.550257 
L 92.489971 68.550257 
L 92.759148 68.449965 
L 92.759148 68.416534 
L 92.857578 68.416534 
L 92.995872 68.316242 
L 93.073355 68.215949 
L 93.089618 68.215949 
L 93.199804 68.115657 
L 93.272121 68.048796 
L 93.807787 67.948503 
L 93.917421 67.848211 
L 94.112821 67.747919 
L 94.215775 67.647626 
L 94.21777 67.647626 
L 94.332765 67.547334 
L 94.408271 67.413611 
L 94.43091 67.413611 
L 94.693551 67.313319 
L 94.779958 67.213027 
L 94.796862 67.213027 
L 94.944649 67.112734 
L 95.043952 66.979011 
L 95.044148 66.979011 
L 95.227845 66.878719 
L 95.307929 66.778427 
L 95.338744 66.778427 
L 95.584302 66.678135 
L 95.683819 66.577842 
L 95.902606 66.47755 
L 95.97186 66.410689 
L 96.011064 66.410689 
L 96.333981 66.310396 
L 96.418002 66.143243 
L 96.425322 66.143243 
L 96.724318 66.04295 
L 96.83429 65.842366 
L 96.984874 65.742073 
L 97.049372 65.641781 
L 97.065777 65.641781 
L 97.270403 65.541489 
L 97.315611 65.474627 
L 97.363899 65.474627 
L 97.601728 65.374335 
L 97.703542 65.240612 
L 97.708797 65.240612 
L 98.009021 65.14032 
L 98.112581 65.006597 
L 98.113881 65.006597 
L 98.223996 64.906305 
L 98.32166 64.806012 
L 98.457229 64.70572 
L 98.516864 64.638859 
L 98.562784 64.638859 
L 98.849578 64.538566 
L 98.958802 64.371413 
L 99.298819 64.27112 
L 99.401684 64.170828 
L 99.40603 64.170828 
L 99.574462 64.070536 
L 99.6414 64.003674 
L 99.965048 63.903382 
L 100.061198 63.769659 
L 100.423551 63.669367 
L 100.472196 63.569074 
L 101.09922 63.468782 
L 101.190436 63.36849 
L 101.309244 63.268198 
L 101.385783 63.167905 
L 101.398091 63.167905 
L 101.706936 63.067613 
L 101.751698 62.93389 
L 102.106713 62.833598 
L 102.134144 62.699875 
L 102.20101 62.699875 
L 102.33022 62.599583 
L 102.384797 62.49929 
L 102.441315 62.49929 
L 102.805627 62.398998 
L 102.805627 62.365567 
L 102.910826 62.365567 
L 103.091263 62.265275 
L 103.153143 62.098121 
L 103.656907 61.997829 
L 103.656907 61.964398 
L 103.764083 61.964398 
L 103.968068 61.864106 
L 104.074086 61.663521 
L 104.473862 61.563229 
L 104.473862 61.529798 
L 104.543989 61.529798 
L 105.051298 61.429506 
L 105.11934 61.362645 
L 105.154929 61.362645 
L 105.442382 61.262352 
L 105.521913 61.095199 
L 105.543092 61.095199 
L 105.765406 60.994906 
L 105.824685 60.894614 
L 105.847342 60.894614 
L 106.060803 60.794322 
L 106.111354 60.660599 
L 106.159055 60.660599 
L 106.477412 60.560307 
L 106.496685 60.460014 
L 106.579244 60.460014 
L 106.893754 60.359722 
L 107.000271 60.225999 
L 107.70932 60.125707 
L 107.811633 59.991984 
L 107.986299 59.891691 
L 107.986299 59.858261 
L 108.036922 59.858261 
L 108.180737 59.757968 
L 108.25651 59.691107 
L 108.525492 59.590815 
L 108.614232 59.490522 
L 108.629978 59.490522 
L 108.734856 59.39023 
L 108.830258 59.223076 
L 109.219116 59.122784 
L 109.278929 58.989061 
L 109.301836 58.989061 
L 109.537705 58.888769 
L 109.607279 58.821907 
L 109.646911 58.821907 
L 109.8634 58.721615 
L 109.950751 58.621323 
L 109.973622 58.621323 
L 110.439802 58.52103 
L 110.439802 58.4876 
L 110.479898 58.4876 
L 111.006639 58.387307 
L 111.098657 58.220154 
L 111.327775 58.119861 
L 111.37569 58.019569 
L 111.893116 57.919277 
L 111.96367 57.818985 
L 111.967642 57.818985 
L 112.304648 57.718692 
L 112.392516 57.584969 
L 112.408493 57.584969 
L 112.492799 57.484677 
L 112.593847 57.350954 
L 112.596287 57.350954 
L 112.791669 57.250662 
L 112.791669 57.217231 
L 112.808038 57.217231 
L 113.125487 57.116939 
L 113.148251 56.983216 
L 113.645442 56.882924 
L 113.722908 56.71577 
L 113.750427 56.71577 
L 113.945079 56.615477 
L 113.989413 56.548616 
L 114.384167 56.448324 
L 114.387747 56.381462 
L 114.484681 56.381462 
L 114.661556 56.28117 
L 114.741319 56.214308 
L 115.274046 56.114016 
L 115.298092 56.047155 
L 115.561089 55.946862 
L 115.630022 55.84657 
L 115.904187 55.746278 
L 115.909495 55.679416 
L 115.977983 55.679416 
L 116.590918 55.579124 
L 116.674029 55.512263 
L 116.885603 55.41197 
L 116.956014 55.278247 
L 116.972811 55.278247 
L 117.469415 55.177955 
L 117.543923 54.97737 
L 117.775606 54.877078 
L 117.817625 54.743355 
L 117.885578 54.743355 
L 118.31291 54.643063 
L 118.31291 54.609632 
L 118.389325 54.609632 
L 118.898913 54.50934 
L 118.898913 54.475909 
L 118.963874 54.475909 
L 119.304069 54.375617 
L 119.304069 54.342186 
L 119.410728 54.342186 
L 119.706713 54.241894 
L 119.784695 54.175032 
L 119.817078 54.175032 
L 120.217549 54.07474 
L 120.30864 53.941017 
L 120.325188 53.941017 
L 120.579617 53.840725 
L 120.654001 53.740433 
L 120.675108 53.740433 
L 120.960993 53.64014 
L 121.010298 53.506417 
L 121.343528 53.406125 
L 121.419889 53.238971 
L 121.426604 53.238971 
L 121.854524 53.138679 
L 121.945989 53.071817 
L 122.414628 52.971525 
L 122.414628 52.938094 
L 122.522676 52.938094 
L 122.794526 52.837802 
L 122.812819 52.770941 
L 122.892867 52.770941 
L 123.524665 52.670648 
L 123.572793 52.603787 
L 123.632019 52.603787 
L 123.791865 52.503495 
L 123.873018 52.403202 
L 123.879038 52.403202 
L 124.638193 52.30291 
L 124.638193 52.269479 
L 124.709638 52.269479 
L 124.940555 52.169187 
L 125.037257 52.035464 
L 125.492679 51.935172 
L 125.602527 51.734587 
L 125.837042 51.634295 
L 125.902911 51.534003 
L 125.942633 51.534003 
L 126.167583 51.433711 
L 126.253473 51.333418 
L 126.257712 51.333418 
L 126.726404 51.233126 
L 126.726404 51.199695 
L 126.801945 51.199695 
L 127.04241 51.099403 
L 127.126127 51.032541 
L 127.364757 50.932249 
L 127.364757 50.898818 
L 127.455082 50.898818 
L 127.788455 50.798526 
L 127.794333 50.731665 
L 127.795313 50.731665 
L 128.268725 50.631372 
L 128.268725 50.597942 
L 128.322749 50.597942 
L 128.637865 50.497649 
L 128.682039 50.430788 
L 128.747409 50.430788 
L 129.054278 50.330496 
L 129.110725 50.263634 
L 129.755098 50.163342 
L 129.755098 50.129911 
L 129.856378 50.129911 
L 130.244559 50.029619 
L 130.244559 49.996188 
L 130.342633 49.996188 
L 130.869463 49.895896 
L 130.869463 49.862465 
L 130.973683 49.862465 
L 131.290971 49.762173 
L 131.395101 49.62845 
L 131.790763 49.528158 
L 131.845108 49.461296 
L 131.872645 49.461296 
L 132.039688 49.361004 
L 132.085234 49.294142 
L 132.451791 49.19385 
L 132.535597 49.126988 
L 132.541012 49.126988 
L 132.895866 49.026696 
L 132.895866 48.993265 
L 133.001047 48.993265 
L 134.376913 48.892973 
L 134.46991 48.826112 
L 134.740602 48.725819 
L 134.775282 48.658958 
L 134.837055 48.658958 
L 135.154682 48.558666 
L 135.167133 48.491804 
L 135.198215 48.491804 
L 135.933145 48.391512 
L 135.933145 48.358081 
L 135.997732 48.358081 
L 136.359213 48.257789 
L 136.423461 48.190927 
L 137.018335 48.090635 
L 137.091436 47.990343 
L 137.527282 47.890051 
L 137.537898 47.823189 
L 137.628758 47.823189 
L 137.999233 47.722897 
L 137.999233 47.689466 
L 138.076841 47.689466 
L 138.629339 47.589174 
L 138.629339 47.555743 
L 138.688351 47.555743 
L 138.890466 47.455451 
L 138.975234 47.388589 
L 139.3085 47.288297 
L 139.315144 47.221435 
L 139.402904 47.221435 
L 139.993111 47.121143 
L 139.993111 47.087712 
L 140.060192 47.087712 
L 140.80011 46.98742 
L 140.898985 46.853697 
L 140.906092 46.853697 
L 141.546262 46.753405 
L 141.636908 46.619682 
L 141.779477 46.51939 
L 141.886635 46.385667 
L 142.689412 46.285374 
L 142.789587 46.118221 
L 143.359702 46.017928 
L 143.462389 45.884205 
L 144.461154 45.783913 
L 144.461154 45.750482 
L 144.52941 45.750482 
L 145.280906 45.65019 
L 145.355289 45.583328 
L 145.699314 45.483036 
L 145.744379 45.416175 
L 146.812842 45.315882 
L 146.876396 45.249021 
L 146.913766 45.249021 
L 147.346531 45.148729 
L 147.346531 45.115298 
L 147.412293 45.115298 
L 147.638775 45.015006 
L 147.673188 44.914713 
L 147.729991 44.914713 
L 148.311844 44.814421 
L 148.351814 44.74756 
L 148.399569 44.74756 
L 149.118379 44.647267 
L 149.221352 44.580406 
L 150.109413 44.480114 
L 150.151379 44.413252 
L 150.884493 44.31296 
L 150.884493 44.279529 
L 150.900826 44.279529 
L 151.465633 44.179237 
L 151.52411 44.078945 
L 151.554996 44.078945 
L 152.678108 43.978652 
L 152.75413 43.911791 
L 153.90884 43.811498 
L 153.962615 43.744637 
L 154.568871 43.644345 
L 154.588357 43.577483 
L 154.654725 43.577483 
L 155.079938 43.477191 
L 155.098712 43.410329 
L 155.176515 43.410329 
L 155.957811 43.310037 
L 156.066412 43.176314 
L 156.404398 43.076022 
L 156.509721 42.97573 
L 156.963023 42.875437 
L 156.963023 42.842007 
L 157.063466 42.842007 
L 158.464145 42.741714 
L 158.50025 42.674853 
L 159.082708 42.574561 
L 159.082708 42.54113 
L 159.172713 42.54113 
L 160.005255 42.440838 
L 160.04168 42.373976 
L 160.089399 42.373976 
L 161.085118 42.273684 
L 161.14942 42.173392 
L 161.833639 42.073099 
L 161.833639 42.039668 
L 161.901129 42.039668 
L 162.065376 41.939376 
L 162.065376 41.905945 
L 162.153172 41.905945 
L 163.016778 41.805653 
L 163.016778 41.772222 
L 163.799267 41.67193 
L 163.89392 41.605069 
L 165.239239 41.504776 
L 165.239239 41.471346 
L 165.279013 41.471346 
L 166.307827 41.371053 
L 166.307827 41.337623 
L 166.760417 41.23733 
L 166.761966 41.170469 
L 166.800298 41.170469 
L 167.700918 41.070177 
L 167.792686 40.969884 
L 168.196399 40.869592 
L 168.196399 40.836161 
L 169.061287 40.735869 
L 169.122971 40.669008 
L 169.361155 40.568715 
L 169.421111 40.501854 
L 169.763675 40.401562 
L 169.826017 40.3347 
L 170.639375 40.234408 
L 170.639375 40.200977 
L 170.732123 40.200977 
L 171.599754 40.100685 
L 171.599754 40.067254 
L 171.63235 40.067254 
L 172.249542 39.966962 
L 172.249542 39.933531 
L 172.701135 39.833239 
L 172.701135 39.799808 
L 172.785066 39.799808 
L 173.439556 39.699516 
L 173.483071 39.632654 
L 173.508294 39.632654 
L 174.216737 39.532362 
L 174.30774 39.4655 
L 175.224711 39.365208 
L 175.241347 39.298347 
L 175.299753 39.298347 
L 175.533129 39.198054 
L 175.533129 39.164624 
L 175.61852 39.164624 
L 176.376393 39.064331 
L 176.423559 38.99747 
L 176.473238 38.99747 
L 176.99175 38.897178 
L 176.99175 38.863747 
L 176.992142 38.863747 
L 178.091314 38.763455 
L 178.091314 38.730024 
L 178.19083 38.730024 
L 178.903229 38.629732 
L 179.003974 38.56287 
L 179.936299 38.462578 
L 180.042691 38.362285 
L 180.957543 38.261993 
L 180.970991 38.195132 
L 181.031161 38.195132 
L 181.680557 38.094839 
L 181.680557 38.061409 
L 182.428882 37.961116 
L 182.428882 37.927686 
L 182.53148 37.927686 
L 184.594149 37.827393 
L 184.665451 37.760532 
L 185.299208 37.66024 
L 185.321847 37.593378 
L 185.643482 37.493086 
L 185.715621 37.426224 
L 185.752777 37.426224 
L 186.000206 37.325932 
L 186.082677 37.259071 
L 186.097247 37.259071 
L 186.534661 37.158778 
L 186.534661 37.125348 
L 187.990521 37.025055 
L 187.990521 36.991625 
L 188.066758 36.991625 
L 188.743763 36.891332 
L 188.743763 36.857902 
L 188.840483 36.857902 
L 189.326845 36.757609 
L 189.326845 36.724179 
L 189.410847 36.724179 
L 190.196061 36.623886 
L 190.196061 36.590456 
L 190.271763 36.590456 
L 192.54091 36.490163 
L 192.609469 36.423302 
L 193.665909 36.323009 
L 193.730176 36.256148 
L 194.74905 36.155856 
L 194.770923 36.088994 
L 194.811125 36.088994 
L 196.100781 35.988702 
L 196.202168 35.92184 
L 197.407821 35.821548 
L 197.407821 35.788117 
L 197.472033 35.788117 
L 197.850756 35.687825 
L 197.850756 35.654394 
L 197.919475 35.654394 
L 198.630858 35.554102 
L 198.630858 35.520671 
L 198.716642 35.520671 
L 199.350648 35.420379 
L 199.350648 35.386948 
L 199.399169 35.386948 
L 201.455175 35.286656 
L 201.455175 35.253225 
L 201.476995 35.253225 
L 203.003089 35.152933 
L 203.051503 35.086072 
L 205.162032 34.985779 
L 205.162032 34.952349 
L 206.545682 34.852056 
L 206.556797 34.785195 
L 207.808512 34.684902 
L 207.864852 34.58461 
L 208.973589 34.484318 
L 208.973589 34.450887 
L 209.028914 34.450887 
L 209.517609 34.350595 
L 209.53168 34.283733 
L 211.007776 34.183441 
L 211.040853 34.11658 
L 211.770867 34.016287 
L 211.770867 33.982857 
L 213.789379 33.882564 
L 213.844864 33.815703 
L 214.372015 33.715411 
L 214.372015 33.68198 
L 214.40951 33.68198 
L 216.047162 33.581688 
L 216.122044 33.481395 
L 216.129276 33.481395 
L 217.034473 33.381103 
L 217.034473 33.347672 
L 217.109213 33.347672 
L 217.471263 33.24738 
L 217.471263 33.213949 
L 217.575179 33.213949 
L 219.122399 33.113657 
L 219.122399 33.080226 
L 219.222753 33.080226 
L 219.875337 32.979934 
L 219.879025 32.913073 
L 220.639516 32.81278 
L 220.7476 32.745919 
L 221.858724 32.645626 
L 221.858724 32.612196 
L 221.940606 32.612196 
L 222.471106 32.511903 
L 222.471106 32.478473 
L 222.528675 32.478473 
L 223.639799 32.37818 
L 223.639799 32.34475 
L 223.678576 32.34475 
L 224.793155 32.244457 
L 224.793155 32.211027 
L 224.811199 32.211027 
L 226.257976 32.110734 
L 226.257976 32.077304 
L 226.33569 32.077304 
L 227.006265 31.977011 
L 227.006265 31.943581 
L 227.066755 31.943581 
L 228.204205 31.843288 
L 228.307748 31.776427 
L 229.463847 31.676135 
L 229.463847 31.642704 
L 229.54272 31.642704 
L 230.779811 31.542412 
L 230.779811 31.508981 
L 233.000277 31.408689 
L 233.000277 31.375258 
L 233.105797 31.375258 
L 234.142483 31.274966 
L 234.142483 31.241535 
L 234.187138 31.241535 
L 235.094562 31.141243 
L 235.128779 31.04095 
L 235.169302 31.04095 
L 236.078792 30.940658 
L 236.078792 30.907227 
L 236.109714 30.907227 
L 238.091176 30.806935 
L 238.133623 30.706643 
L 238.557107 30.60635 
L 238.613394 30.539489 
L 238.66325 30.539489 
L 239.978537 30.439197 
L 239.978537 30.405766 
L 240.995844 30.305474 
L 241.089287 30.238612 
L 241.098531 30.238612 
L 242.660374 30.13832 
L 242.73344 30.071458 
L 243.38289 29.971166 
L 243.38289 29.937735 
L 244.821187 29.837443 
L 244.821187 29.804012 
L 244.857186 29.804012 
L 245.634955 29.70372 
L 245.732369 29.636859 
L 246.797075 29.536566 
L 246.904464 29.436274 
L 248.260381 29.335982 
L 248.260381 29.302551 
L 248.334462 29.302551 
L 249.665103 29.202259 
L 249.665103 29.168828 
L 249.751278 29.168828 
L 250.936572 29.068536 
L 250.985163 29.001674 
L 251.047417 29.001674 
L 252.848086 28.901382 
L 252.9271 28.83452 
L 252.953926 28.83452 
L 255.031271 28.734228 
L 255.031271 28.700797 
L 255.125426 28.700797 
L 256.430044 28.600505 
L 256.430044 28.567074 
L 256.506102 28.567074 
L 260.187434 28.466782 
L 260.276459 28.399921 
L 262.309007 28.299628 
L 262.309007 28.266198 
L 262.316363 28.266198 
L 263.815739 28.165905 
L 263.815739 28.132475 
L 263.892153 28.132475 
L 266.704661 28.032182 
L 266.704661 27.998752 
L 266.801506 27.998752 
L 268.796202 27.898459 
L 268.796202 27.865029 
L 268.903093 27.865029 
L 271.844294 27.764736 
L 271.848693 27.697875 
L 271.955246 27.697875 
L 273.20306 27.597583 
L 273.20306 27.564152 
L 273.308188 27.564152 
L 276.121443 27.46386 
L 276.153594 27.396998 
L 276.231309 27.396998 
L 278.610286 27.296706 
L 278.610286 27.263275 
L 278.721024 27.263275 
L 279.358896 27.162983 
L 279.358896 27.129552 
L 279.465431 27.129552 
L 280.735955 27.02926 
L 280.735955 26.995829 
L 280.846498 26.995829 
L 282.023758 26.895537 
L 282.023758 26.895537 
" clip-path="url(#p95681a8bb9)" style="fill: none; stroke: #1f77b4; stroke-width: 1.5; stroke-linecap: round"/>
   </g>
   <g id="line2d_26">
    <path d="M 42.831699 265.022801 
L 282.023758 26.895537 
" clip-path="url(#p95681a8bb9)" style="fill: none; stroke-dasharray: 5.55,2.4; stroke-dashoffset: 0; stroke: #999999; stroke-width: 1.5"/>
   </g>
   <g id="patch_3">
    <path d="M 35.655938 265.022801 
L 35.655938 19.751719 
" style="fill: none"/>
   </g>
   <g id="patch_4">
    <path d="M 289.19952 265.022801 
L 289.19952 19.751719 
" style="fill: none"/>
   </g>
   <g id="patch_5">
    <path d="M 35.655938 265.022801 
L 289.19952 265.022801 
" style="fill: none"/>
   </g>
   <g id="patch_6">
    <path d="M 35.655938 19.751719 
L 289.19952 19.751719 
" style="fill: none"/>
   </g>
   <g id="text_15">
    <!-- Model 0: Receiver Operating Characteristic (ROC) Curve -->
    <g style="fill: #333333" transform="translate(42.14976 13.751719) scale(0.09 -0.09)">
     <defs>
      <path id="Arial-BoldMT-4d" d="M 453 0 
L 453 4581 
L 1838 4581 
L 2669 1456 
L 3491 4581 
L 4878 4581 
L 4878 0 
L 4019 0 
L 4019 3606 
L 3109 0 
L 2219 0 
L 1313 3606 
L 1313 0 
L 453 0 
z
" transform="scale(0.015625)"/>
      <path id="Arial-BoldMT-64" d="M 3503 0 
L 2688 0 
L 2688 488 
Q 2484 203 2207 64 
Q 1931 -75 1650 -75 
Q 1078 -75 670 386 
Q 263 847 263 1672 
Q 263 2516 659 2955 
Q 1056 3394 1663 3394 
Q 2219 3394 2625 2931 
L 2625 4581 
L 3503 4581 
L 3503 0 
z
M 1159 1731 
Q 1159 1200 1306 963 
Q 1519 619 1900 619 
Q 2203 619 2415 876 
Q 2628 1134 2628 1647 
Q 2628 2219 2422 2470 
Q 2216 2722 1894 2722 
Q 1581 2722 1370 2473 
Q 1159 2225 1159 1731 
z
" transform="scale(0.015625)"/>
      <path id="Arial-BoldMT-30" d="M 1756 4600 
Q 2422 4600 2797 4125 
Q 3244 3563 3244 2259 
Q 3244 959 2794 391 
Q 2422 -78 1756 -78 
Q 1088 -78 678 436 
Q 269 950 269 2269 
Q 269 3563 719 4131 
Q 1091 4600 1756 4600 
z
M 1756 3872 
Q 1597 3872 1472 3770 
Q 1347 3669 1278 3406 
Q 1188 3066 1188 2259 
Q 1188 1453 1269 1151 
Q 1350 850 1473 750 
Q 1597 650 1756 650 
Q 1916 650 2041 751 
Q 2166 853 2234 1116 
Q 2325 1453 2325 2259 
Q 2325 3066 2244 3367 
Q 2163 3669 2039 3770 
Q 1916 3872 1756 3872 
z
" transform="scale(0.015625)"/>
      <path id="Arial-BoldMT-3a" d="M 628 2441 
L 628 3319 
L 1506 3319 
L 1506 2441 
L 628 2441 
z
M 628 0 
L 628 878 
L 1506 878 
L 1506 0 
L 628 0 
z
" transform="scale(0.015625)"/>
      <path id="Arial-BoldMT-63" d="M 3353 2338 
L 2488 2181 
Q 2444 2441 2289 2572 
Q 2134 2703 1888 2703 
Q 1559 2703 1364 2476 
Q 1169 2250 1169 1719 
Q 1169 1128 1367 884 
Q 1566 641 1900 641 
Q 2150 641 2309 783 
Q 2469 925 2534 1272 
L 3397 1125 
Q 3263 531 2881 228 
Q 2500 -75 1859 -75 
Q 1131 -75 698 384 
Q 266 844 266 1656 
Q 266 2478 700 2936 
Q 1134 3394 1875 3394 
Q 2481 3394 2839 3133 
Q 3197 2872 3353 2338 
z
" transform="scale(0.015625)"/>
      <path id="Arial-BoldMT-4f" d="M 278 2263 
Q 278 2963 488 3438 
Q 644 3788 914 4066 
Q 1184 4344 1506 4478 
Q 1934 4659 2494 4659 
Q 3506 4659 4114 4031 
Q 4722 3403 4722 2284 
Q 4722 1175 4119 548 
Q 3516 -78 2506 -78 
Q 1484 -78 881 545 
Q 278 1169 278 2263 
z
M 1231 2294 
Q 1231 1516 1590 1114 
Q 1950 713 2503 713 
Q 3056 713 3411 1111 
Q 3766 1509 3766 2306 
Q 3766 3094 3420 3481 
Q 3075 3869 2503 3869 
Q 1931 3869 1581 3476 
Q 1231 3084 1231 2294 
z
" transform="scale(0.015625)"/>
      <path id="Arial-BoldMT-70" d="M 434 3319 
L 1253 3319 
L 1253 2831 
Q 1413 3081 1684 3237 
Q 1956 3394 2288 3394 
Q 2866 3394 3269 2941 
Q 3672 2488 3672 1678 
Q 3672 847 3265 386 
Q 2859 -75 2281 -75 
Q 2006 -75 1782 34 
Q 1559 144 1313 409 
L 1313 -1263 
L 434 -1263 
L 434 3319 
z
M 1303 1716 
Q 1303 1156 1525 889 
Q 1747 622 2066 622 
Q 2372 622 2575 867 
Q 2778 1113 2778 1672 
Q 2778 2194 2568 2447 
Q 2359 2700 2050 2700 
Q 1728 2700 1515 2451 
Q 1303 2203 1303 1716 
z
" transform="scale(0.015625)"/>
      <path id="Arial-BoldMT-6e" d="M 3478 0 
L 2600 0 
L 2600 1694 
Q 2600 2231 2544 2389 
Q 2488 2547 2361 2634 
Q 2234 2722 2056 2722 
Q 1828 2722 1647 2597 
Q 1466 2472 1398 2265 
Q 1331 2059 1331 1503 
L 1331 0 
L 453 0 
L 453 3319 
L 1269 3319 
L 1269 2831 
Q 1703 3394 2363 3394 
Q 2653 3394 2893 3289 
Q 3134 3184 3257 3021 
Q 3381 2859 3429 2653 
Q 3478 2447 3478 2063 
L 3478 0 
z
" transform="scale(0.015625)"/>
      <path id="Arial-BoldMT-67" d="M 378 -219 
L 1381 -341 
Q 1406 -516 1497 -581 
Q 1622 -675 1891 -675 
Q 2234 -675 2406 -572 
Q 2522 -503 2581 -350 
Q 2622 -241 2622 53 
L 2622 538 
Q 2228 0 1628 0 
Q 959 0 569 566 
Q 263 1013 263 1678 
Q 263 2513 664 2953 
Q 1066 3394 1663 3394 
Q 2278 3394 2678 2853 
L 2678 3319 
L 3500 3319 
L 3500 341 
Q 3500 -247 3403 -537 
Q 3306 -828 3131 -993 
Q 2956 -1159 2664 -1253 
Q 2372 -1347 1925 -1347 
Q 1081 -1347 728 -1058 
Q 375 -769 375 -325 
Q 375 -281 378 -219 
z
M 1163 1728 
Q 1163 1200 1367 954 
Q 1572 709 1872 709 
Q 2194 709 2416 961 
Q 2638 1213 2638 1706 
Q 2638 2222 2425 2472 
Q 2213 2722 1888 2722 
Q 1572 2722 1367 2476 
Q 1163 2231 1163 1728 
z
" transform="scale(0.015625)"/>
      <path id="Arial-BoldMT-43" d="M 3397 1684 
L 4294 1400 
Q 4088 650 3608 286 
Q 3128 -78 2391 -78 
Q 1478 -78 890 545 
Q 303 1169 303 2250 
Q 303 3394 893 4026 
Q 1484 4659 2447 4659 
Q 3288 4659 3813 4163 
Q 4125 3869 4281 3319 
L 3366 3100 
Q 3284 3456 3026 3662 
Q 2769 3869 2400 3869 
Q 1891 3869 1573 3503 
Q 1256 3138 1256 2319 
Q 1256 1450 1568 1081 
Q 1881 713 2381 713 
Q 2750 713 3015 947 
Q 3281 1181 3397 1684 
z
" transform="scale(0.015625)"/>
      <path id="Arial-BoldMT-68" d="M 1334 4581 
L 1334 2897 
Q 1759 3394 2350 3394 
Q 2653 3394 2897 3281 
Q 3141 3169 3264 2994 
Q 3388 2819 3433 2606 
Q 3478 2394 3478 1947 
L 3478 0 
L 2600 0 
L 2600 1753 
Q 2600 2275 2550 2415 
Q 2500 2556 2373 2639 
Q 2247 2722 2056 2722 
Q 1838 2722 1666 2615 
Q 1494 2509 1414 2295 
Q 1334 2081 1334 1663 
L 1334 0 
L 456 0 
L 456 4581 
L 1334 4581 
z
" transform="scale(0.015625)"/>
     </defs>
     <use xlink:href="#Arial-BoldMT-4d"/>
     <use xlink:href="#Arial-BoldMT-6f" transform="translate(83.300781 0)"/>
     <use xlink:href="#Arial-BoldMT-64" transform="translate(144.384766 0)"/>
     <use xlink:href="#Arial-BoldMT-65" transform="translate(205.46875 0)"/>
     <use xlink:href="#Arial-BoldMT-6c" transform="translate(261.083984 0)"/>
     <use xlink:href="#Arial-BoldMT-20" transform="translate(288.867188 0)"/>
     <use xlink:href="#Arial-BoldMT-30" transform="translate(316.650391 0)"/>
     <use xlink:href="#Arial-BoldMT-3a" transform="translate(372.265625 0)"/>
     <use xlink:href="#Arial-BoldMT-20" transform="translate(405.566406 0)"/>
     <use xlink:href="#Arial-BoldMT-52" transform="translate(433.349609 0)"/>
     <use xlink:href="#Arial-BoldMT-65" transform="translate(505.566406 0)"/>
     <use xlink:href="#Arial-BoldMT-63" transform="translate(561.181641 0)"/>
     <use xlink:href="#Arial-BoldMT-65" transform="translate(616.796875 0)"/>
     <use xlink:href="#Arial-BoldMT-69" transform="translate(672.412109 0)"/>
     <use xlink:href="#Arial-BoldMT-76" transform="translate(700.195312 0)"/>
     <use xlink:href="#Arial-BoldMT-65" transform="translate(755.810547 0)"/>
     <use xlink:href="#Arial-BoldMT-72" transform="translate(811.425781 0)"/>
     <use xlink:href="#Arial-BoldMT-20" transform="translate(850.341797 0)"/>
     <use xlink:href="#Arial-BoldMT-4f" transform="translate(878.125 0)"/>
     <use xlink:href="#Arial-BoldMT-70" transform="translate(955.908203 0)"/>
     <use xlink:href="#Arial-BoldMT-65" transform="translate(1016.992188 0)"/>
     <use xlink:href="#Arial-BoldMT-72" transform="translate(1072.607422 0)"/>
     <use xlink:href="#Arial-BoldMT-61" transform="translate(1111.523438 0)"/>
     <use xlink:href="#Arial-BoldMT-74" transform="translate(1167.138672 0)"/>
     <use xlink:href="#Arial-BoldMT-69" transform="translate(1200.439453 0)"/>
     <use xlink:href="#Arial-BoldMT-6e" transform="translate(1228.222656 0)"/>
     <use xlink:href="#Arial-BoldMT-67" transform="translate(1289.306641 0)"/>
     <use xlink:href="#Arial-BoldMT-20" transform="translate(1350.390625 0)"/>
     <use xlink:href="#Arial-BoldMT-43" transform="translate(1378.173828 0)"/>
     <use xlink:href="#Arial-BoldMT-68" transform="translate(1450.390625 0)"/>
     <use xlink:href="#Arial-BoldMT-61" transform="translate(1511.474609 0)"/>
     <use xlink:href="#Arial-BoldMT-72" transform="translate(1567.089844 0)"/>
     <use xlink:href="#Arial-BoldMT-61" transform="translate(1606.005859 0)"/>
     <use xlink:href="#Arial-BoldMT-63" transform="translate(1661.621094 0)"/>
     <use xlink:href="#Arial-BoldMT-74" transform="translate(1717.236328 0)"/>
     <use xlink:href="#Arial-BoldMT-65" transform="translate(1750.537109 0)"/>
     <use xlink:href="#Arial-BoldMT-72" transform="translate(1806.152344 0)"/>
     <use xlink:href="#Arial-BoldMT-69" transform="translate(1845.068359 0)"/>
     <use xlink:href="#Arial-BoldMT-73" transform="translate(1872.851562 0)"/>
     <use xlink:href="#Arial-BoldMT-74" transform="translate(1928.466797 0)"/>
     <use xlink:href="#Arial-BoldMT-69" transform="translate(1961.767578 0)"/>
     <use xlink:href="#Arial-BoldMT-63" transform="translate(1989.550781 0)"/>
     <use xlink:href="#Arial-BoldMT-20" transform="translate(2045.166016 0)"/>
     <use xlink:href="#Arial-BoldMT-28" transform="translate(2072.949219 0)"/>
     <use xlink:href="#Arial-BoldMT-52" transform="translate(2106.25 0)"/>
     <use xlink:href="#Arial-BoldMT-4f" transform="translate(2178.466797 0)"/>
     <use xlink:href="#Arial-BoldMT-43" transform="translate(2256.25 0)"/>
     <use xlink:href="#Arial-BoldMT-29" transform="translate(2328.466797 0)"/>
     <use xlink:href="#Arial-BoldMT-20" transform="translate(2361.767578 0)"/>
     <use xlink:href="#Arial-BoldMT-43" transform="translate(2389.550781 0)"/>
     <use xlink:href="#Arial-BoldMT-75" transform="translate(2461.767578 0)"/>
     <use xlink:href="#Arial-BoldMT-72" transform="translate(2522.851562 0)"/>
     <use xlink:href="#Arial-BoldMT-76" transform="translate(2561.767578 0)"/>
     <use xlink:href="#Arial-BoldMT-65" transform="translate(2617.382812 0)"/>
    </g>
   </g>
   <g id="legend_1">
    <g id="patch_7">
     <path d="M 182.577645 260.522801 
L 282.89952 260.522801 
Q 284.69952 260.522801 284.69952 258.722801 
L 284.69952 234.161239 
Q 284.69952 232.361239 282.89952 232.361239 
L 182.577645 232.361239 
Q 180.777645 232.361239 180.777645 234.161239 
L 180.777645 258.722801 
Q 180.777645 260.522801 182.577645 260.522801 
z
" style="fill: #ffffff; opacity: 0.8; stroke: #cccccc; stroke-width: 0.75; stroke-linejoin: miter"/>
    </g>
    <g id="line2d_27">
     <path d="M 184.377645 239.25327 
L 193.377645 239.25327 
L 202.377645 239.25327 
" style="fill: none; stroke: #1f77b4; stroke-width: 1.5; stroke-linecap: round"/>
    </g>
    <g id="text_16">
     <!-- ROC curve -->
     <g style="fill: #333333" transform="translate(209.577645 242.40327) scale(0.09 -0.09)">
      <defs>
       <path id="ArialMT-52" d="M 503 0 
L 503 4581 
L 2534 4581 
Q 3147 4581 3465 4457 
Q 3784 4334 3975 4021 
Q 4166 3709 4166 3331 
Q 4166 2844 3850 2509 
Q 3534 2175 2875 2084 
Q 3116 1969 3241 1856 
Q 3506 1613 3744 1247 
L 4541 0 
L 3778 0 
L 3172 953 
Q 2906 1366 2734 1584 
Q 2563 1803 2427 1890 
Q 2291 1978 2150 2013 
Q 2047 2034 1813 2034 
L 1109 2034 
L 1109 0 
L 503 0 
z
M 1109 2559 
L 2413 2559 
Q 2828 2559 3062 2645 
Q 3297 2731 3419 2920 
Q 3541 3109 3541 3331 
Q 3541 3656 3305 3865 
Q 3069 4075 2559 4075 
L 1109 4075 
L 1109 2559 
z
" transform="scale(0.015625)"/>
       <path id="ArialMT-4f" d="M 309 2231 
Q 309 3372 921 4017 
Q 1534 4663 2503 4663 
Q 3138 4663 3647 4359 
Q 4156 4056 4423 3514 
Q 4691 2972 4691 2284 
Q 4691 1588 4409 1038 
Q 4128 488 3612 205 
Q 3097 -78 2500 -78 
Q 1853 -78 1343 234 
Q 834 547 571 1087 
Q 309 1628 309 2231 
z
M 934 2222 
Q 934 1394 1379 917 
Q 1825 441 2497 441 
Q 3181 441 3623 922 
Q 4066 1403 4066 2288 
Q 4066 2847 3877 3264 
Q 3688 3681 3323 3911 
Q 2959 4141 2506 4141 
Q 1863 4141 1398 3698 
Q 934 3256 934 2222 
z
" transform="scale(0.015625)"/>
       <path id="ArialMT-43" d="M 3763 1606 
L 4369 1453 
Q 4178 706 3683 314 
Q 3188 -78 2472 -78 
Q 1731 -78 1267 223 
Q 803 525 561 1097 
Q 319 1669 319 2325 
Q 319 3041 592 3573 
Q 866 4106 1370 4382 
Q 1875 4659 2481 4659 
Q 3169 4659 3637 4309 
Q 4106 3959 4291 3325 
L 3694 3184 
Q 3534 3684 3231 3912 
Q 2928 4141 2469 4141 
Q 1941 4141 1586 3887 
Q 1231 3634 1087 3207 
Q 944 2781 944 2328 
Q 944 1744 1114 1308 
Q 1284 872 1643 656 
Q 2003 441 2422 441 
Q 2931 441 3284 734 
Q 3638 1028 3763 1606 
z
" transform="scale(0.015625)"/>
       <path id="ArialMT-20" transform="scale(0.015625)"/>
       <path id="ArialMT-63" d="M 2588 1216 
L 3141 1144 
Q 3050 572 2676 248 
Q 2303 -75 1759 -75 
Q 1078 -75 664 370 
Q 250 816 250 1647 
Q 250 2184 428 2587 
Q 606 2991 970 3192 
Q 1334 3394 1763 3394 
Q 2303 3394 2647 3120 
Q 2991 2847 3088 2344 
L 2541 2259 
Q 2463 2594 2264 2762 
Q 2066 2931 1784 2931 
Q 1359 2931 1093 2626 
Q 828 2322 828 1663 
Q 828 994 1084 691 
Q 1341 388 1753 388 
Q 2084 388 2306 591 
Q 2528 794 2588 1216 
z
" transform="scale(0.015625)"/>
       <path id="ArialMT-75" d="M 2597 0 
L 2597 488 
Q 2209 -75 1544 -75 
Q 1250 -75 995 37 
Q 741 150 617 320 
Q 494 491 444 738 
Q 409 903 409 1263 
L 409 3319 
L 972 3319 
L 972 1478 
Q 972 1038 1006 884 
Q 1059 663 1231 536 
Q 1403 409 1656 409 
Q 1909 409 2131 539 
Q 2353 669 2445 892 
Q 2538 1116 2538 1541 
L 2538 3319 
L 3100 3319 
L 3100 0 
L 2597 0 
z
" transform="scale(0.015625)"/>
       <path id="ArialMT-72" d="M 416 0 
L 416 3319 
L 922 3319 
L 922 2816 
Q 1116 3169 1280 3281 
Q 1444 3394 1641 3394 
Q 1925 3394 2219 3213 
L 2025 2691 
Q 1819 2813 1613 2813 
Q 1428 2813 1281 2702 
Q 1134 2591 1072 2394 
Q 978 2094 978 1738 
L 978 0 
L 416 0 
z
" transform="scale(0.015625)"/>
       <path id="ArialMT-76" d="M 1344 0 
L 81 3319 
L 675 3319 
L 1388 1331 
Q 1503 1009 1600 663 
Q 1675 925 1809 1294 
L 2547 3319 
L 3125 3319 
L 1869 0 
L 1344 0 
z
" transform="scale(0.015625)"/>
       <path id="ArialMT-65" d="M 2694 1069 
L 3275 997 
Q 3138 488 2766 206 
Q 2394 -75 1816 -75 
Q 1088 -75 661 373 
Q 234 822 234 1631 
Q 234 2469 665 2931 
Q 1097 3394 1784 3394 
Q 2450 3394 2872 2941 
Q 3294 2488 3294 1666 
Q 3294 1616 3291 1516 
L 816 1516 
Q 847 969 1125 678 
Q 1403 388 1819 388 
Q 2128 388 2347 550 
Q 2566 713 2694 1069 
z
M 847 1978 
L 2700 1978 
Q 2663 2397 2488 2606 
Q 2219 2931 1791 2931 
Q 1403 2931 1139 2672 
Q 875 2413 847 1978 
z
" transform="scale(0.015625)"/>
      </defs>
      <use xlink:href="#ArialMT-52"/>
      <use xlink:href="#ArialMT-4f" transform="translate(72.216797 0)"/>
      <use xlink:href="#ArialMT-43" transform="translate(150 0)"/>
      <use xlink:href="#ArialMT-20" transform="translate(222.216797 0)"/>
      <use xlink:href="#ArialMT-63" transform="translate(250 0)"/>
      <use xlink:href="#ArialMT-75" transform="translate(300 0)"/>
      <use xlink:href="#ArialMT-72" transform="translate(355.615234 0)"/>
      <use xlink:href="#ArialMT-76" transform="translate(388.916016 0)"/>
      <use xlink:href="#ArialMT-65" transform="translate(438.916016 0)"/>
     </g>
    </g>
    <g id="line2d_28">
     <path d="M 184.377645 251.984051 
L 193.377645 251.984051 
L 202.377645 251.984051 
" style="fill: none; stroke-dasharray: 5.55,2.4; stroke-dashoffset: 0; stroke: #999999; stroke-width: 1.5"/>
    </g>
    <g id="text_17">
     <!-- Random classifier -->
     <g style="fill: #333333" transform="translate(209.577645 255.134051) scale(0.09 -0.09)">
      <defs>
       <path id="ArialMT-61" d="M 2588 409 
Q 2275 144 1986 34 
Q 1697 -75 1366 -75 
Q 819 -75 525 192 
Q 231 459 231 875 
Q 231 1119 342 1320 
Q 453 1522 633 1644 
Q 813 1766 1038 1828 
Q 1203 1872 1538 1913 
Q 2219 1994 2541 2106 
Q 2544 2222 2544 2253 
Q 2544 2597 2384 2738 
Q 2169 2928 1744 2928 
Q 1347 2928 1158 2789 
Q 969 2650 878 2297 
L 328 2372 
Q 403 2725 575 2942 
Q 747 3159 1072 3276 
Q 1397 3394 1825 3394 
Q 2250 3394 2515 3294 
Q 2781 3194 2906 3042 
Q 3031 2891 3081 2659 
Q 3109 2516 3109 2141 
L 3109 1391 
Q 3109 606 3145 398 
Q 3181 191 3288 0 
L 2700 0 
Q 2613 175 2588 409 
z
M 2541 1666 
Q 2234 1541 1622 1453 
Q 1275 1403 1131 1340 
Q 988 1278 909 1158 
Q 831 1038 831 891 
Q 831 666 1001 516 
Q 1172 366 1500 366 
Q 1825 366 2078 508 
Q 2331 650 2450 897 
Q 2541 1088 2541 1459 
L 2541 1666 
z
" transform="scale(0.015625)"/>
       <path id="ArialMT-6e" d="M 422 0 
L 422 3319 
L 928 3319 
L 928 2847 
Q 1294 3394 1984 3394 
Q 2284 3394 2536 3286 
Q 2788 3178 2913 3003 
Q 3038 2828 3088 2588 
Q 3119 2431 3119 2041 
L 3119 0 
L 2556 0 
L 2556 2019 
Q 2556 2363 2490 2533 
Q 2425 2703 2258 2804 
Q 2091 2906 1866 2906 
Q 1506 2906 1245 2678 
Q 984 2450 984 1813 
L 984 0 
L 422 0 
z
" transform="scale(0.015625)"/>
       <path id="ArialMT-64" d="M 2575 0 
L 2575 419 
Q 2259 -75 1647 -75 
Q 1250 -75 917 144 
Q 584 363 401 755 
Q 219 1147 219 1656 
Q 219 2153 384 2558 
Q 550 2963 881 3178 
Q 1213 3394 1622 3394 
Q 1922 3394 2156 3267 
Q 2391 3141 2538 2938 
L 2538 4581 
L 3097 4581 
L 3097 0 
L 2575 0 
z
M 797 1656 
Q 797 1019 1065 703 
Q 1334 388 1700 388 
Q 2069 388 2326 689 
Q 2584 991 2584 1609 
Q 2584 2291 2321 2609 
Q 2059 2928 1675 2928 
Q 1300 2928 1048 2622 
Q 797 2316 797 1656 
z
" transform="scale(0.015625)"/>
       <path id="ArialMT-6f" d="M 213 1659 
Q 213 2581 725 3025 
Q 1153 3394 1769 3394 
Q 2453 3394 2887 2945 
Q 3322 2497 3322 1706 
Q 3322 1066 3130 698 
Q 2938 331 2570 128 
Q 2203 -75 1769 -75 
Q 1072 -75 642 372 
Q 213 819 213 1659 
z
M 791 1659 
Q 791 1022 1069 705 
Q 1347 388 1769 388 
Q 2188 388 2466 706 
Q 2744 1025 2744 1678 
Q 2744 2294 2464 2611 
Q 2184 2928 1769 2928 
Q 1347 2928 1069 2612 
Q 791 2297 791 1659 
z
" transform="scale(0.015625)"/>
       <path id="ArialMT-6d" d="M 422 0 
L 422 3319 
L 925 3319 
L 925 2853 
Q 1081 3097 1340 3245 
Q 1600 3394 1931 3394 
Q 2300 3394 2536 3241 
Q 2772 3088 2869 2813 
Q 3263 3394 3894 3394 
Q 4388 3394 4653 3120 
Q 4919 2847 4919 2278 
L 4919 0 
L 4359 0 
L 4359 2091 
Q 4359 2428 4304 2576 
Q 4250 2725 4106 2815 
Q 3963 2906 3769 2906 
Q 3419 2906 3187 2673 
Q 2956 2441 2956 1928 
L 2956 0 
L 2394 0 
L 2394 2156 
Q 2394 2531 2256 2718 
Q 2119 2906 1806 2906 
Q 1569 2906 1367 2781 
Q 1166 2656 1075 2415 
Q 984 2175 984 1722 
L 984 0 
L 422 0 
z
" transform="scale(0.015625)"/>
       <path id="ArialMT-6c" d="M 409 0 
L 409 4581 
L 972 4581 
L 972 0 
L 409 0 
z
" transform="scale(0.015625)"/>
       <path id="ArialMT-73" d="M 197 991 
L 753 1078 
Q 800 744 1014 566 
Q 1228 388 1613 388 
Q 2000 388 2187 545 
Q 2375 703 2375 916 
Q 2375 1106 2209 1216 
Q 2094 1291 1634 1406 
Q 1016 1563 777 1677 
Q 538 1791 414 1992 
Q 291 2194 291 2438 
Q 291 2659 392 2848 
Q 494 3038 669 3163 
Q 800 3259 1026 3326 
Q 1253 3394 1513 3394 
Q 1903 3394 2198 3281 
Q 2494 3169 2634 2976 
Q 2775 2784 2828 2463 
L 2278 2388 
Q 2241 2644 2061 2787 
Q 1881 2931 1553 2931 
Q 1166 2931 1000 2803 
Q 834 2675 834 2503 
Q 834 2394 903 2306 
Q 972 2216 1119 2156 
Q 1203 2125 1616 2013 
Q 2213 1853 2448 1751 
Q 2684 1650 2818 1456 
Q 2953 1263 2953 975 
Q 2953 694 2789 445 
Q 2625 197 2315 61 
Q 2006 -75 1616 -75 
Q 969 -75 630 194 
Q 291 463 197 991 
z
" transform="scale(0.015625)"/>
       <path id="ArialMT-69" d="M 425 3934 
L 425 4581 
L 988 4581 
L 988 3934 
L 425 3934 
z
M 425 0 
L 425 3319 
L 988 3319 
L 988 0 
L 425 0 
z
" transform="scale(0.015625)"/>
       <path id="ArialMT-66" d="M 556 0 
L 556 2881 
L 59 2881 
L 59 3319 
L 556 3319 
L 556 3672 
Q 556 4006 616 4169 
Q 697 4388 901 4523 
Q 1106 4659 1475 4659 
Q 1713 4659 2000 4603 
L 1916 4113 
Q 1741 4144 1584 4144 
Q 1328 4144 1222 4034 
Q 1116 3925 1116 3625 
L 1116 3319 
L 1763 3319 
L 1763 2881 
L 1116 2881 
L 1116 0 
L 556 0 
z
" transform="scale(0.015625)"/>
      </defs>
      <use xlink:href="#ArialMT-52"/>
      <use xlink:href="#ArialMT-61" transform="translate(72.216797 0)"/>
      <use xlink:href="#ArialMT-6e" transform="translate(127.832031 0)"/>
      <use xlink:href="#ArialMT-64" transform="translate(183.447266 0)"/>
      <use xlink:href="#ArialMT-6f" transform="translate(239.0625 0)"/>
      <use xlink:href="#ArialMT-6d" transform="translate(294.677734 0)"/>
      <use xlink:href="#ArialMT-20" transform="translate(377.978516 0)"/>
      <use xlink:href="#ArialMT-63" transform="translate(405.761719 0)"/>
      <use xlink:href="#ArialMT-6c" transform="translate(455.761719 0)"/>
      <use xlink:href="#ArialMT-61" transform="translate(477.978516 0)"/>
      <use xlink:href="#ArialMT-73" transform="translate(533.59375 0)"/>
      <use xlink:href="#ArialMT-73" transform="translate(583.59375 0)"/>
      <use xlink:href="#ArialMT-69" transform="translate(633.59375 0)"/>
      <use xlink:href="#ArialMT-66" transform="translate(655.810547 0)"/>
      <use xlink:href="#ArialMT-69" transform="translate(683.59375 0)"/>
      <use xlink:href="#ArialMT-65" transform="translate(705.810547 0)"/>
      <use xlink:href="#ArialMT-72" transform="translate(761.425781 0)"/>
     </g>
    </g>
   </g>
  </g>
 </g>
 <defs>
  <clipPath id="p95681a8bb9">
   <rect x="35.655938" y="19.751719" width="253.543583" height="245.271083"/>
  </clipPath>
 </defs>
</svg>
