<?xml version="1.0" encoding="utf-8" standalone="no"?>
<!DOCTYPE svg PUBLIC "-//W3C//DTD SVG 1.1//EN"
  "http://www.w3.org/Graphics/SVG/1.1/DTD/svg11.dtd">
<svg xmlns:xlink="http://www.w3.org/1999/xlink" width="296.39952pt" height="296.39952pt" viewBox="0 0 296.39952 296.39952" xmlns="http://www.w3.org/2000/svg" version="1.1">
 <metadata>
  <rdf:RDF xmlns:dc="http://purl.org/dc/elements/1.1/" xmlns:cc="http://creativecommons.org/ns#" xmlns:rdf="http://www.w3.org/1999/02/22-rdf-syntax-ns#">
   <cc:Work>
    <dc:type rdf:resource="http://purl.org/dc/dcmitype/StillImage"/>
    <dc:date>2025-12-27T08:19:37.508806</dc:date>
    <dc:format>image/svg+xml</dc:format>
    <dc:creator>
     <cc:Agent>
      <dc:title>Matplotlib v3.10.8, https://matplotlib.org/</dc:title>
     </cc:Agent>
    </dc:creator>
   </cc:Work>
  </rdf:RDF>
 </metadata>
 <defs>
  <style type="text/css">*{stroke-linejoin: round; stroke-linecap: butt}</style>
 </defs>
 <g id="figure_1">
  <g id="patch_1">
   <path d="M 0 296.39952 
L 296.39952 296.39952 
L 296.39952 0 
L 0 0 
z
" style="fill: #ffffff"/>
  </g>
  <g id="axes_1">
   <g id="patch_2">
    <path d="M 35.655938 265.022801 
L 289.19952 265.022801 
L 289.19952 19.751719 
L 35.655938 19.751719 
z
" style="fill: #ffffff"/>
   </g>
   <g id="matplotlib.axis_1">
    <g id="xtick_1">
     <g id="line2d_1">
      <path d="M 42.831699 265.022801 
L 42.831699 19.751719 
" clip-path="url(#p27cbd96102)" style="fill: none; stroke: #c0c0c0; stroke-width: 0.25; stroke-linecap: round"/>
     </g>
     <g id="line2d_2"/>
     <g id="text_1">
      <!-- 0.0 -->
      <g style="fill: #333333" transform="translate(36.576699 274.964832) scale(0.09 -0.09)">
       <defs>
        <path id="ArialMT-30" d="M 266 2259 
Q 266 3072 433 3567 
Q 600 4063 929 4331 
Q 1259 4600 1759 4600 
Q 2128 4600 2406 4451 
Q 2684 4303 2865 4023 
Q 3047 3744 3150 3342 
Q 3253 2941 3253 2259 
Q 3253 1453 3087 958 
Q 2922 463 2592 192 
Q 2263 -78 1759 -78 
Q 1097 -78 719 397 
Q 266 969 266 2259 
z
M 844 2259 
Q 844 1131 1108 757 
Q 1372 384 1759 384 
Q 2147 384 2411 759 
Q 2675 1134 2675 2259 
Q 2675 3391 2411 3762 
Q 2147 4134 1753 4134 
Q 1366 4134 1134 3806 
Q 844 3388 844 2259 
z
" transform="scale(0.015625)"/>
        <path id="ArialMT-2e" d="M 581 0 
L 581 641 
L 1222 641 
L 1222 0 
L 581 0 
z
" transform="scale(0.015625)"/>
       </defs>
       <use xlink:href="#ArialMT-30"/>
       <use xlink:href="#ArialMT-2e" transform="translate(55.615234 0)"/>
       <use xlink:href="#ArialMT-30" transform="translate(83.398438 0)"/>
      </g>
     </g>
    </g>
    <g id="xtick_2">
     <g id="line2d_3">
      <path d="M 90.670111 265.022801 
L 90.670111 19.751719 
" clip-path="url(#p27cbd96102)" style="fill: none; stroke: #c0c0c0; stroke-width: 0.25; stroke-linecap: round"/>
     </g>
     <g id="line2d_4"/>
     <g id="text_2">
      <!-- 0.2 -->
      <g style="fill: #333333" transform="translate(84.415111 274.964832) scale(0.09 -0.09)">
       <defs>
        <path id="ArialMT-32" d="M 3222 541 
L 3222 0 
L 194 0 
Q 188 203 259 391 
Q 375 700 629 1000 
Q 884 1300 1366 1694 
Q 2113 2306 2375 2664 
Q 2638 3022 2638 3341 
Q 2638 3675 2398 3904 
Q 2159 4134 1775 4134 
Q 1369 4134 1125 3890 
Q 881 3647 878 3216 
L 300 3275 
Q 359 3922 746 4261 
Q 1134 4600 1788 4600 
Q 2447 4600 2831 4234 
Q 3216 3869 3216 3328 
Q 3216 3053 3103 2787 
Q 2991 2522 2730 2228 
Q 2469 1934 1863 1422 
Q 1356 997 1212 845 
Q 1069 694 975 541 
L 3222 541 
z
" transform="scale(0.015625)"/>
       </defs>
       <use xlink:href="#ArialMT-30"/>
       <use xlink:href="#ArialMT-2e" transform="translate(55.615234 0)"/>
       <use xlink:href="#ArialMT-32" transform="translate(83.398438 0)"/>
      </g>
     </g>
    </g>
    <g id="xtick_3">
     <g id="line2d_5">
      <path d="M 138.508523 265.022801 
L 138.508523 19.751719 
" clip-path="url(#p27cbd96102)" style="fill: none; stroke: #c0c0c0; stroke-width: 0.25; stroke-linecap: round"/>
     </g>
     <g id="line2d_6"/>
     <g id="text_3">
      <!-- 0.4 -->
      <g style="fill: #333333" transform="translate(132.253523 274.964832) scale(0.09 -0.09)">
       <defs>
        <path id="ArialMT-34" d="M 2069 0 
L 2069 1097 
L 81 1097 
L 81 1613 
L 2172 4581 
L 2631 4581 
L 2631 1613 
L 3250 1613 
L 3250 1097 
L 2631 1097 
L 2631 0 
L 2069 0 
z
M 2069 1613 
L 2069 3678 
L 634 1613 
L 2069 1613 
z
" transform="scale(0.015625)"/>
       </defs>
       <use xlink:href="#ArialMT-30"/>
       <use xlink:href="#ArialMT-2e" transform="translate(55.615234 0)"/>
       <use xlink:href="#ArialMT-34" transform="translate(83.398438 0)"/>
      </g>
     </g>
    </g>
    <g id="xtick_4">
     <g id="line2d_7">
      <path d="M 186.346935 265.022801 
L 186.346935 19.751719 
" clip-path="url(#p27cbd96102)" style="fill: none; stroke: #c0c0c0; stroke-width: 0.25; stroke-linecap: round"/>
     </g>
     <g id="line2d_8"/>
     <g id="text_4">
      <!-- 0.6 -->
      <g style="fill: #333333" transform="translate(180.091935 274.964832) scale(0.09 -0.09)">
       <defs>
        <path id="ArialMT-36" d="M 3184 3459 
L 2625 3416 
Q 2550 3747 2413 3897 
Q 2184 4138 1850 4138 
Q 1581 4138 1378 3988 
Q 1113 3794 959 3422 
Q 806 3050 800 2363 
Q 1003 2672 1297 2822 
Q 1591 2972 1913 2972 
Q 2475 2972 2870 2558 
Q 3266 2144 3266 1488 
Q 3266 1056 3080 686 
Q 2894 316 2569 119 
Q 2244 -78 1831 -78 
Q 1128 -78 684 439 
Q 241 956 241 2144 
Q 241 3472 731 4075 
Q 1159 4600 1884 4600 
Q 2425 4600 2770 4297 
Q 3116 3994 3184 3459 
z
M 888 1484 
Q 888 1194 1011 928 
Q 1134 663 1356 523 
Q 1578 384 1822 384 
Q 2178 384 2434 671 
Q 2691 959 2691 1453 
Q 2691 1928 2437 2201 
Q 2184 2475 1800 2475 
Q 1419 2475 1153 2201 
Q 888 1928 888 1484 
z
" transform="scale(0.015625)"/>
       </defs>
       <use xlink:href="#ArialMT-30"/>
       <use xlink:href="#ArialMT-2e" transform="translate(55.615234 0)"/>
       <use xlink:href="#ArialMT-36" transform="translate(83.398438 0)"/>
      </g>
     </g>
    </g>
    <g id="xtick_5">
     <g id="line2d_9">
      <path d="M 234.185346 265.022801 
L 234.185346 19.751719 
" clip-path="url(#p27cbd96102)" style="fill: none; stroke: #c0c0c0; stroke-width: 0.25; stroke-linecap: round"/>
     </g>
     <g id="line2d_10"/>
     <g id="text_5">
      <!-- 0.8 -->
      <g style="fill: #333333" transform="translate(227.930346 274.964832) scale(0.09 -0.09)">
       <defs>
        <path id="ArialMT-38" d="M 1131 2484 
Q 781 2613 612 2850 
Q 444 3088 444 3419 
Q 444 3919 803 4259 
Q 1163 4600 1759 4600 
Q 2359 4600 2725 4251 
Q 3091 3903 3091 3403 
Q 3091 3084 2923 2848 
Q 2756 2613 2416 2484 
Q 2838 2347 3058 2040 
Q 3278 1734 3278 1309 
Q 3278 722 2862 322 
Q 2447 -78 1769 -78 
Q 1091 -78 675 323 
Q 259 725 259 1325 
Q 259 1772 486 2073 
Q 713 2375 1131 2484 
z
M 1019 3438 
Q 1019 3113 1228 2906 
Q 1438 2700 1772 2700 
Q 2097 2700 2305 2904 
Q 2513 3109 2513 3406 
Q 2513 3716 2298 3927 
Q 2084 4138 1766 4138 
Q 1444 4138 1231 3931 
Q 1019 3725 1019 3438 
z
M 838 1322 
Q 838 1081 952 856 
Q 1066 631 1291 507 
Q 1516 384 1775 384 
Q 2178 384 2440 643 
Q 2703 903 2703 1303 
Q 2703 1709 2433 1975 
Q 2163 2241 1756 2241 
Q 1359 2241 1098 1978 
Q 838 1716 838 1322 
z
" transform="scale(0.015625)"/>
       </defs>
       <use xlink:href="#ArialMT-30"/>
       <use xlink:href="#ArialMT-2e" transform="translate(55.615234 0)"/>
       <use xlink:href="#ArialMT-38" transform="translate(83.398438 0)"/>
      </g>
     </g>
    </g>
    <g id="xtick_6">
     <g id="line2d_11">
      <path d="M 282.023758 265.022801 
L 282.023758 19.751719 
" clip-path="url(#p27cbd96102)" style="fill: none; stroke: #c0c0c0; stroke-width: 0.25; stroke-linecap: round"/>
     </g>
     <g id="line2d_12"/>
     <g id="text_6">
      <!-- 1.0 -->
      <g style="fill: #333333" transform="translate(275.768758 274.964832) scale(0.09 -0.09)">
       <defs>
        <path id="ArialMT-31" d="M 2384 0 
L 1822 0 
L 1822 3584 
Q 1619 3391 1289 3197 
Q 959 3003 697 2906 
L 697 3450 
Q 1169 3672 1522 3987 
Q 1875 4303 2022 4600 
L 2384 4600 
L 2384 0 
z
" transform="scale(0.015625)"/>
       </defs>
       <use xlink:href="#ArialMT-31"/>
       <use xlink:href="#ArialMT-2e" transform="translate(55.615234 0)"/>
       <use xlink:href="#ArialMT-30" transform="translate(83.398438 0)"/>
      </g>
     </g>
    </g>
    <g id="text_7">
     <!-- False Positive Rate (FPR) -->
     <g style="fill: #333333" transform="translate(108.165463 287.305301) scale(0.09 -0.09)">
      <defs>
       <path id="Arial-BoldMT-46" d="M 472 0 
L 472 4581 
L 3613 4581 
L 3613 3806 
L 1397 3806 
L 1397 2722 
L 3309 2722 
L 3309 1947 
L 1397 1947 
L 1397 0 
L 472 0 
z
" transform="scale(0.015625)"/>
       <path id="Arial-BoldMT-61" d="M 1116 2306 
L 319 2450 
Q 453 2931 781 3162 
Q 1109 3394 1756 3394 
Q 2344 3394 2631 3255 
Q 2919 3116 3036 2902 
Q 3153 2688 3153 2116 
L 3144 1091 
Q 3144 653 3186 445 
Q 3228 238 3344 0 
L 2475 0 
Q 2441 88 2391 259 
Q 2369 338 2359 363 
Q 2134 144 1878 34 
Q 1622 -75 1331 -75 
Q 819 -75 523 203 
Q 228 481 228 906 
Q 228 1188 362 1408 
Q 497 1628 739 1745 
Q 981 1863 1438 1950 
Q 2053 2066 2291 2166 
L 2291 2253 
Q 2291 2506 2166 2614 
Q 2041 2722 1694 2722 
Q 1459 2722 1328 2630 
Q 1197 2538 1116 2306 
z
M 2291 1594 
Q 2122 1538 1756 1459 
Q 1391 1381 1278 1306 
Q 1106 1184 1106 997 
Q 1106 813 1243 678 
Q 1381 544 1594 544 
Q 1831 544 2047 700 
Q 2206 819 2256 991 
Q 2291 1103 2291 1419 
L 2291 1594 
z
" transform="scale(0.015625)"/>
       <path id="Arial-BoldMT-6c" d="M 459 0 
L 459 4581 
L 1338 4581 
L 1338 0 
L 459 0 
z
" transform="scale(0.015625)"/>
       <path id="Arial-BoldMT-73" d="M 150 947 
L 1031 1081 
Q 1088 825 1259 692 
Q 1431 559 1741 559 
Q 2081 559 2253 684 
Q 2369 772 2369 919 
Q 2369 1019 2306 1084 
Q 2241 1147 2013 1200 
Q 950 1434 666 1628 
Q 272 1897 272 2375 
Q 272 2806 612 3100 
Q 953 3394 1669 3394 
Q 2350 3394 2681 3172 
Q 3013 2950 3138 2516 
L 2309 2363 
Q 2256 2556 2107 2659 
Q 1959 2763 1684 2763 
Q 1338 2763 1188 2666 
Q 1088 2597 1088 2488 
Q 1088 2394 1175 2328 
Q 1294 2241 1995 2081 
Q 2697 1922 2975 1691 
Q 3250 1456 3250 1038 
Q 3250 581 2869 253 
Q 2488 -75 1741 -75 
Q 1063 -75 667 200 
Q 272 475 150 947 
z
" transform="scale(0.015625)"/>
       <path id="Arial-BoldMT-65" d="M 2381 1056 
L 3256 909 
Q 3088 428 2723 176 
Q 2359 -75 1813 -75 
Q 947 -75 531 491 
Q 203 944 203 1634 
Q 203 2459 634 2926 
Q 1066 3394 1725 3394 
Q 2466 3394 2894 2905 
Q 3322 2416 3303 1406 
L 1103 1406 
Q 1113 1016 1316 798 
Q 1519 581 1822 581 
Q 2028 581 2168 693 
Q 2309 806 2381 1056 
z
M 2431 1944 
Q 2422 2325 2234 2523 
Q 2047 2722 1778 2722 
Q 1491 2722 1303 2513 
Q 1116 2303 1119 1944 
L 2431 1944 
z
" transform="scale(0.015625)"/>
       <path id="Arial-BoldMT-20" transform="scale(0.015625)"/>
       <path id="Arial-BoldMT-50" d="M 466 0 
L 466 4581 
L 1950 4581 
Q 2794 4581 3050 4513 
Q 3444 4409 3709 4064 
Q 3975 3719 3975 3172 
Q 3975 2750 3822 2462 
Q 3669 2175 3433 2011 
Q 3197 1847 2953 1794 
Q 2622 1728 1994 1728 
L 1391 1728 
L 1391 0 
L 466 0 
z
M 1391 3806 
L 1391 2506 
L 1897 2506 
Q 2444 2506 2628 2578 
Q 2813 2650 2917 2803 
Q 3022 2956 3022 3159 
Q 3022 3409 2875 3571 
Q 2728 3734 2503 3775 
Q 2338 3806 1838 3806 
L 1391 3806 
z
" transform="scale(0.015625)"/>
       <path id="Arial-BoldMT-6f" d="M 256 1706 
Q 256 2144 472 2553 
Q 688 2963 1083 3178 
Q 1478 3394 1966 3394 
Q 2719 3394 3200 2905 
Q 3681 2416 3681 1669 
Q 3681 916 3195 420 
Q 2709 -75 1972 -75 
Q 1516 -75 1102 131 
Q 688 338 472 736 
Q 256 1134 256 1706 
z
M 1156 1659 
Q 1156 1166 1390 903 
Q 1625 641 1969 641 
Q 2313 641 2545 903 
Q 2778 1166 2778 1666 
Q 2778 2153 2545 2415 
Q 2313 2678 1969 2678 
Q 1625 2678 1390 2415 
Q 1156 2153 1156 1659 
z
" transform="scale(0.015625)"/>
       <path id="Arial-BoldMT-69" d="M 459 3769 
L 459 4581 
L 1338 4581 
L 1338 3769 
L 459 3769 
z
M 459 0 
L 459 3319 
L 1338 3319 
L 1338 0 
L 459 0 
z
" transform="scale(0.015625)"/>
       <path id="Arial-BoldMT-74" d="M 1981 3319 
L 1981 2619 
L 1381 2619 
L 1381 1281 
Q 1381 875 1398 808 
Q 1416 741 1477 697 
Q 1538 653 1625 653 
Q 1747 653 1978 738 
L 2053 56 
Q 1747 -75 1359 -75 
Q 1122 -75 931 4 
Q 741 84 652 211 
Q 563 338 528 553 
Q 500 706 500 1172 
L 500 2619 
L 97 2619 
L 97 3319 
L 500 3319 
L 500 3978 
L 1381 4491 
L 1381 3319 
L 1981 3319 
z
" transform="scale(0.015625)"/>
       <path id="Arial-BoldMT-76" d="M 1372 0 
L 34 3319 
L 956 3319 
L 1581 1625 
L 1763 1059 
Q 1834 1275 1853 1344 
Q 1897 1484 1947 1625 
L 2578 3319 
L 3481 3319 
L 2163 0 
L 1372 0 
z
" transform="scale(0.015625)"/>
       <path id="Arial-BoldMT-52" d="M 469 0 
L 469 4581 
L 2416 4581 
Q 3150 4581 3483 4457 
Q 3816 4334 4016 4018 
Q 4216 3703 4216 3297 
Q 4216 2781 3912 2445 
Q 3609 2109 3006 2022 
Q 3306 1847 3501 1637 
Q 3697 1428 4028 894 
L 4588 0 
L 3481 0 
L 2813 997 
Q 2456 1531 2325 1670 
Q 2194 1809 2047 1861 
Q 1900 1913 1581 1913 
L 1394 1913 
L 1394 0 
L 469 0 
z
M 1394 2644 
L 2078 2644 
Q 2744 2644 2909 2700 
Q 3075 2756 3169 2893 
Q 3263 3031 3263 3238 
Q 3263 3469 3139 3611 
Q 3016 3753 2791 3791 
Q 2678 3806 2116 3806 
L 1394 3806 
L 1394 2644 
z
" transform="scale(0.015625)"/>
       <path id="Arial-BoldMT-28" d="M 1916 -1347 
L 1313 -1347 
Q 834 -625 584 153 
Q 334 931 334 1659 
Q 334 2563 644 3369 
Q 913 4069 1325 4659 
L 1925 4659 
Q 1497 3713 1336 3048 
Q 1175 2384 1175 1641 
Q 1175 1128 1270 590 
Q 1366 53 1531 -431 
Q 1641 -750 1916 -1347 
z
" transform="scale(0.015625)"/>
       <path id="Arial-BoldMT-29" d="M 216 -1347 
Q 475 -791 581 -494 
Q 688 -197 778 190 
Q 869 578 912 926 
Q 956 1275 956 1641 
Q 956 2384 797 3048 
Q 638 3713 209 4659 
L 806 4659 
Q 1278 3988 1539 3234 
Q 1800 2481 1800 1706 
Q 1800 1053 1594 306 
Q 1359 -531 822 -1347 
L 216 -1347 
z
" transform="scale(0.015625)"/>
      </defs>
      <use xlink:href="#Arial-BoldMT-46"/>
      <use xlink:href="#Arial-BoldMT-61" transform="translate(61.083984 0)"/>
      <use xlink:href="#Arial-BoldMT-6c" transform="translate(116.699219 0)"/>
      <use xlink:href="#Arial-BoldMT-73" transform="translate(144.482422 0)"/>
      <use xlink:href="#Arial-BoldMT-65" transform="translate(200.097656 0)"/>
      <use xlink:href="#Arial-BoldMT-20" transform="translate(255.712891 0)"/>
      <use xlink:href="#Arial-BoldMT-50" transform="translate(283.496094 0)"/>
      <use xlink:href="#Arial-BoldMT-6f" transform="translate(350.195312 0)"/>
      <use xlink:href="#Arial-BoldMT-73" transform="translate(411.279297 0)"/>
      <use xlink:href="#Arial-BoldMT-69" transform="translate(466.894531 0)"/>
      <use xlink:href="#Arial-BoldMT-74" transform="translate(494.677734 0)"/>
      <use xlink:href="#Arial-BoldMT-69" transform="translate(527.978516 0)"/>
      <use xlink:href="#Arial-BoldMT-76" transform="translate(555.761719 0)"/>
      <use xlink:href="#Arial-BoldMT-65" transform="translate(611.376953 0)"/>
      <use xlink:href="#Arial-BoldMT-20" transform="translate(666.992188 0)"/>
      <use xlink:href="#Arial-BoldMT-52" transform="translate(694.775391 0)"/>
      <use xlink:href="#Arial-BoldMT-61" transform="translate(766.992188 0)"/>
      <use xlink:href="#Arial-BoldMT-74" transform="translate(822.607422 0)"/>
      <use xlink:href="#Arial-BoldMT-65" transform="translate(855.908203 0)"/>
      <use xlink:href="#Arial-BoldMT-20" transform="translate(911.523438 0)"/>
      <use xlink:href="#Arial-BoldMT-28" transform="translate(939.306641 0)"/>
      <use xlink:href="#Arial-BoldMT-46" transform="translate(972.607422 0)"/>
      <use xlink:href="#Arial-BoldMT-50" transform="translate(1033.691406 0)"/>
      <use xlink:href="#Arial-BoldMT-52" transform="translate(1100.390625 0)"/>
      <use xlink:href="#Arial-BoldMT-29" transform="translate(1172.607422 0)"/>
     </g>
    </g>
   </g>
   <g id="matplotlib.axis_2">
    <g id="ytick_1">
     <g id="line2d_13">
      <path d="M 35.655938 265.022801 
L 289.19952 265.022801 
" clip-path="url(#p27cbd96102)" style="fill: none; stroke: #c0c0c0; stroke-width: 0.25; stroke-linecap: round"/>
     </g>
     <g id="line2d_14"/>
     <g id="text_8">
      <!-- 0.0 -->
      <g style="fill: #333333" transform="translate(19.645938 268.243817) scale(0.09 -0.09)">
       <use xlink:href="#ArialMT-30"/>
       <use xlink:href="#ArialMT-2e" transform="translate(55.615234 0)"/>
       <use xlink:href="#ArialMT-30" transform="translate(83.398438 0)"/>
      </g>
     </g>
    </g>
    <g id="ytick_2">
     <g id="line2d_15">
      <path d="M 35.655938 217.397348 
L 289.19952 217.397348 
" clip-path="url(#p27cbd96102)" style="fill: none; stroke: #c0c0c0; stroke-width: 0.25; stroke-linecap: round"/>
     </g>
     <g id="line2d_16"/>
     <g id="text_9">
      <!-- 0.2 -->
      <g style="fill: #333333" transform="translate(19.645938 220.618364) scale(0.09 -0.09)">
       <use xlink:href="#ArialMT-30"/>
       <use xlink:href="#ArialMT-2e" transform="translate(55.615234 0)"/>
       <use xlink:href="#ArialMT-32" transform="translate(83.398438 0)"/>
      </g>
     </g>
    </g>
    <g id="ytick_3">
     <g id="line2d_17">
      <path d="M 35.655938 169.771895 
L 289.19952 169.771895 
" clip-path="url(#p27cbd96102)" style="fill: none; stroke: #c0c0c0; stroke-width: 0.25; stroke-linecap: round"/>
     </g>
     <g id="line2d_18"/>
     <g id="text_10">
      <!-- 0.4 -->
      <g style="fill: #333333" transform="translate(19.645938 172.992911) scale(0.09 -0.09)">
       <use xlink:href="#ArialMT-30"/>
       <use xlink:href="#ArialMT-2e" transform="translate(55.615234 0)"/>
       <use xlink:href="#ArialMT-34" transform="translate(83.398438 0)"/>
      </g>
     </g>
    </g>
    <g id="ytick_4">
     <g id="line2d_19">
      <path d="M 35.655938 122.146443 
L 289.19952 122.146443 
" clip-path="url(#p27cbd96102)" style="fill: none; stroke: #c0c0c0; stroke-width: 0.25; stroke-linecap: round"/>
     </g>
     <g id="line2d_20"/>
     <g id="text_11">
      <!-- 0.6 -->
      <g style="fill: #333333" transform="translate(19.645938 125.367458) scale(0.09 -0.09)">
       <use xlink:href="#ArialMT-30"/>
       <use xlink:href="#ArialMT-2e" transform="translate(55.615234 0)"/>
       <use xlink:href="#ArialMT-36" transform="translate(83.398438 0)"/>
      </g>
     </g>
    </g>
    <g id="ytick_5">
     <g id="line2d_21">
      <path d="M 35.655938 74.52099 
L 289.19952 74.52099 
" clip-path="url(#p27cbd96102)" style="fill: none; stroke: #c0c0c0; stroke-width: 0.25; stroke-linecap: round"/>
     </g>
     <g id="line2d_22"/>
     <g id="text_12">
      <!-- 0.8 -->
      <g style="fill: #333333" transform="translate(19.645938 77.742005) scale(0.09 -0.09)">
       <use xlink:href="#ArialMT-30"/>
       <use xlink:href="#ArialMT-2e" transform="translate(55.615234 0)"/>
       <use xlink:href="#ArialMT-38" transform="translate(83.398438 0)"/>
      </g>
     </g>
    </g>
    <g id="ytick_6">
     <g id="line2d_23">
      <path d="M 35.655938 26.895537 
L 289.19952 26.895537 
" clip-path="url(#p27cbd96102)" style="fill: none; stroke: #c0c0c0; stroke-width: 0.25; stroke-linecap: round"/>
     </g>
     <g id="line2d_24"/>
     <g id="text_13">
      <!-- 1.0 -->
      <g style="fill: #333333" transform="translate(19.645938 30.116552) scale(0.09 -0.09)">
       <use xlink:href="#ArialMT-31"/>
       <use xlink:href="#ArialMT-2e" transform="translate(55.615234 0)"/>
       <use xlink:href="#ArialMT-30" transform="translate(83.398438 0)"/>
      </g>
     </g>
    </g>
    <g id="text_14">
     <!-- True Positive Rate (TPR) -->
     <g style="fill: #333333" transform="translate(13.751719 194.647026) rotate(-90) scale(0.09 -0.09)">
      <defs>
       <path id="Arial-BoldMT-54" d="M 1497 0 
L 1497 3806 
L 138 3806 
L 138 4581 
L 3778 4581 
L 3778 3806 
L 2422 3806 
L 2422 0 
L 1497 0 
z
" transform="scale(0.015625)"/>
       <path id="Arial-BoldMT-72" d="M 1300 0 
L 422 0 
L 422 3319 
L 1238 3319 
L 1238 2847 
Q 1447 3181 1614 3287 
Q 1781 3394 1994 3394 
Q 2294 3394 2572 3228 
L 2300 2463 
Q 2078 2606 1888 2606 
Q 1703 2606 1575 2504 
Q 1447 2403 1373 2137 
Q 1300 1872 1300 1025 
L 1300 0 
z
" transform="scale(0.015625)"/>
       <path id="Arial-BoldMT-75" d="M 2644 0 
L 2644 497 
Q 2463 231 2167 78 
Q 1872 -75 1544 -75 
Q 1209 -75 943 72 
Q 678 219 559 484 
Q 441 750 441 1219 
L 441 3319 
L 1319 3319 
L 1319 1794 
Q 1319 1094 1367 936 
Q 1416 778 1544 686 
Q 1672 594 1869 594 
Q 2094 594 2272 717 
Q 2450 841 2515 1023 
Q 2581 1206 2581 1919 
L 2581 3319 
L 3459 3319 
L 3459 0 
L 2644 0 
z
" transform="scale(0.015625)"/>
      </defs>
      <use xlink:href="#Arial-BoldMT-54"/>
      <use xlink:href="#Arial-BoldMT-72" transform="translate(55.583984 0)"/>
      <use xlink:href="#Arial-BoldMT-75" transform="translate(94.5 0)"/>
      <use xlink:href="#Arial-BoldMT-65" transform="translate(155.583984 0)"/>
      <use xlink:href="#Arial-BoldMT-20" transform="translate(211.199219 0)"/>
      <use xlink:href="#Arial-BoldMT-50" transform="translate(238.982422 0)"/>
      <use xlink:href="#Arial-BoldMT-6f" transform="translate(305.681641 0)"/>
      <use xlink:href="#Arial-BoldMT-73" transform="translate(366.765625 0)"/>
      <use xlink:href="#Arial-BoldMT-69" transform="translate(422.380859 0)"/>
      <use xlink:href="#Arial-BoldMT-74" transform="translate(450.164062 0)"/>
      <use xlink:href="#Arial-BoldMT-69" transform="translate(483.464844 0)"/>
      <use xlink:href="#Arial-BoldMT-76" transform="translate(511.248047 0)"/>
      <use xlink:href="#Arial-BoldMT-65" transform="translate(566.863281 0)"/>
      <use xlink:href="#Arial-BoldMT-20" transform="translate(622.478516 0)"/>
      <use xlink:href="#Arial-BoldMT-52" transform="translate(650.261719 0)"/>
      <use xlink:href="#Arial-BoldMT-61" transform="translate(722.478516 0)"/>
      <use xlink:href="#Arial-BoldMT-74" transform="translate(778.09375 0)"/>
      <use xlink:href="#Arial-BoldMT-65" transform="translate(811.394531 0)"/>
      <use xlink:href="#Arial-BoldMT-20" transform="translate(867.009766 0)"/>
      <use xlink:href="#Arial-BoldMT-28" transform="translate(894.792969 0)"/>
      <use xlink:href="#Arial-BoldMT-54" transform="translate(928.09375 0)"/>
      <use xlink:href="#Arial-BoldMT-50" transform="translate(989.177734 0)"/>
      <use xlink:href="#Arial-BoldMT-52" transform="translate(1055.876953 0)"/>
      <use xlink:href="#Arial-BoldMT-29" transform="translate(1128.09375 0)"/>
     </g>
    </g>
   </g>
   <g id="line2d_25">
    <path d="M 42.831699 265.022801 
L 42.942509 242.457042 
L 42.944664 242.35675 
L 43.055616 232.060077 
L 43.057682 231.959785 
L 43.168741 224.437865 
L 43.172108 224.337573 
L 43.282864 219.924713 
L 43.286177 219.824421 
L 43.397093 215.511854 
L 43.400389 215.411562 
L 43.511216 211.934763 
L 43.517967 211.834471 
L 43.628634 207.789349 
L 43.632713 207.689057 
L 43.743576 205.382335 
L 43.749329 205.282043 
L 43.859266 202.674444 
L 43.867602 202.574152 
L 43.977111 200.73546 
L 43.983577 200.635168 
L 44.092784 198.595892 
L 44.097059 198.4956 
L 44.20671 196.255739 
L 44.21225 196.155447 
L 44.319515 193.715002 
L 44.326765 193.61471 
L 44.43777 191.776018 
L 44.444165 191.675726 
L 44.548722 189.770173 
L 44.560211 189.669881 
L 44.670629 188.031774 
L 44.677896 187.931481 
L 44.787049 186.360236 
L 44.801121 186.259944 
L 44.911877 184.989575 
L 44.922831 184.889283 
L 45.033089 183.351468 
L 45.040712 183.284606 
L 45.145769 181.847084 
L 45.166288 181.746792 
L 45.276047 180.476423 
L 45.28734 180.376131 
L 45.38666 179.038901 
L 45.414964 178.938608 
L 45.521445 177.801963 
L 45.535 177.70167 
L 45.64385 176.36444 
L 45.648642 176.264148 
L 45.755622 175.060641 
L 45.767716 174.960349 
L 45.878045 174.258303 
L 45.8859 174.15801 
L 45.995979 173.054796 
L 46.001822 172.954503 
L 46.111224 172.185596 
L 46.129304 172.085304 
L 46.238902 171.182673 
L 46.248146 171.082381 
L 46.358707 170.380335 
L 46.369804 170.280043 
L 46.478084 169.24369 
L 46.504286 169.143397 
L 46.611408 168.341059 
L 46.626281 168.240767 
L 46.734918 167.104121 
L 46.753229 167.003829 
L 46.852638 166.101199 
L 46.863629 166.101199 
L 46.891914 166.000906 
L 47.002724 164.997984 
L 47.017116 164.897691 
L 47.127498 163.9282 
L 47.127819 163.9282 
L 47.145898 163.827907 
L 47.241835 163.092431 
L 47.287006 162.992138 
L 47.381215 162.056077 
L 47.410623 161.955785 
L 47.520809 161.053155 
L 47.529555 160.952862 
L 47.639349 160.150524 
L 47.661988 160.050232 
L 47.770536 159.147602 
L 47.783396 159.047309 
L 47.886012 158.244971 
L 47.914761 158.144679 
L 48.022435 157.509495 
L 48.034672 157.409202 
L 48.145001 156.506572 
L 48.171025 156.40628 
L 48.277043 155.771095 
L 48.279269 155.771095 
L 48.301624 155.670803 
L 48.408051 154.935327 
L 48.421963 154.835034 
L 48.529637 153.898973 
L 48.559027 153.798681 
L 48.669766 152.762328 
L 48.700688 152.662035 
L 48.810286 152.060282 
L 48.820225 151.959989 
L 48.930215 151.057359 
L 48.948811 150.957067 
L 49.059692 150.321882 
L 49.091362 150.22159 
L 49.200105 149.452683 
L 49.223707 149.352391 
L 49.331631 148.88436 
L 49.35753 148.784068 
L 49.467413 148.182314 
L 49.48551 148.082022 
L 49.591973 147.346545 
L 49.625051 147.246253 
L 49.727168 146.744792 
L 49.729947 146.744792 
L 49.744642 146.644499 
L 49.852672 145.842161 
L 49.921267 145.741869 
L 50.019733 144.939531 
L 50.031792 144.939531 
L 50.061502 144.839239 
L 50.166416 144.337777 
L 50.197605 144.237485 
L 50.306883 143.56887 
L 50.319316 143.468578 
L 50.426296 142.900255 
L 50.426777 142.900255 
L 50.523818 142.799963 
L 50.632739 142.365363 
L 50.6539 142.265071 
L 50.757691 141.863902 
L 50.779173 141.763609 
L 50.88471 141.061563 
L 50.919747 140.961271 
L 51.021989 140.493241 
L 51.065112 140.392948 
L 51.172555 139.858056 
L 51.196031 139.757764 
L 51.306681 139.356595 
L 51.322338 139.256303 
L 51.423155 138.754841 
L 51.429692 138.754841 
L 51.442071 138.654549 
L 51.552631 138.153088 
L 51.584301 138.052796 
L 51.676925 137.685057 
L 51.678118 137.685057 
L 51.739588 137.584765 
L 51.844662 136.91615 
L 51.864505 136.815858 
L 51.953209 136.548412 
L 51.972981 136.548412 
L 52.009015 136.448119 
L 52.11815 135.879796 
L 52.194742 135.779504 
L 52.302773 135.077458 
L 52.348764 134.977166 
L 52.442848 134.542566 
L 52.473717 134.442274 
L 52.560801 134.007674 
L 52.573376 134.007674 
L 52.611993 133.907382 
L 52.72209 133.339059 
L 52.776079 133.238767 
L 52.886995 132.670444 
L 52.903489 132.570152 
L 52.998553 132.168983 
L 53.043546 132.06869 
L 53.154142 131.734383 
L 53.202858 131.634091 
L 53.299365 131.266352 
L 53.312154 131.266352 
L 53.329645 131.16606 
L 53.440277 130.798322 
L 53.477237 130.69803 
L 53.583558 130.26343 
L 53.58737 130.26343 
L 53.614177 130.163137 
L 53.718539 129.728538 
L 53.740412 129.628245 
L 53.848105 129.260507 
L 53.850776 129.260507 
L 53.890284 129.160215 
L 53.983246 128.692184 
L 54.001058 128.692184 
L 54.017249 128.591892 
L 54.108269 128.190723 
L 54.124282 128.190723 
L 54.152782 128.090431 
L 54.255932 127.722692 
L 54.26336 127.722692 
L 54.291343 127.6224 
L 54.391055 127.15437 
L 54.395526 127.15437 
L 54.506407 127.054077 
L 54.609201 126.686339 
L 54.658167 126.586047 
L 54.745215 126.251739 
L 54.767836 126.251739 
L 54.792667 126.151447 
L 54.895318 125.649986 
L 54.932207 125.549693 
L 55.040149 125.315678 
L 55.042055 125.315678 
L 55.083468 125.215386 
L 55.194492 124.814217 
L 55.229778 124.713924 
L 55.325019 124.312755 
L 55.32623 124.312755 
L 55.370422 124.212463 
L 55.467249 123.878156 
L 55.47938 123.878156 
L 55.501787 123.777863 
L 55.582281 123.410125 
L 55.593235 123.410125 
L 55.632653 123.309833 
L 55.727022 122.975525 
L 55.739455 122.975525 
L 55.753705 122.875233 
L 55.860881 122.30691 
L 55.880599 122.206618 
L 55.987419 121.939172 
L 55.998337 121.83888 
L 56.108132 121.437711 
L 56.163385 121.337418 
L 56.271202 120.936249 
L 56.286717 120.835957 
L 56.384131 120.601942 
L 56.390081 120.601942 
L 56.417583 120.501649 
L 56.492608 120.133911 
L 56.511738 120.133911 
L 56.545349 120.033619 
L 56.651332 119.799604 
L 56.656426 119.799604 
L 56.709364 119.699311 
L 56.815489 119.465296 
L 56.878028 119.365004 
L 56.987768 118.896973 
L 57.069882 118.796681 
L 57.180122 118.495804 
L 57.222711 118.395512 
L 57.324436 118.094635 
L 57.355198 117.994343 
L 57.456015 117.726897 
L 57.463745 117.726897 
L 57.53022 117.626604 
L 57.628152 117.225435 
L 57.663188 117.125143 
L 57.762758 116.690543 
L 57.820292 116.590251 
L 57.928109 116.322805 
L 57.963573 116.222513 
L 58.017223 116.021928 
L 58.064319 116.021928 
L 58.130865 115.921636 
L 58.236847 115.620759 
L 58.23772 115.620759 
L 58.282714 115.520467 
L 58.388767 114.952144 
L 58.439586 114.851852 
L 58.543039 114.584406 
L 58.624957 114.484114 
L 58.73411 114.082945 
L 58.736052 114.082945 
L 58.808814 113.982652 
L 58.919374 113.514622 
L 58.937579 113.414329 
L 59.041067 113.113453 
L 59.111247 113.01316 
L 59.209232 112.611991 
L 59.257022 112.511699 
L 59.346154 112.210822 
L 59.368099 112.210822 
L 59.417154 112.11053 
L 59.52433 111.542207 
L 59.544315 111.441915 
L 59.64946 111.007315 
L 59.652916 111.007315 
L 59.681522 110.907023 
L 59.781181 110.472423 
L 59.790835 110.472423 
L 59.842847 110.372131 
L 59.952534 110.104685 
L 59.959837 110.004392 
L 60.065873 109.4695 
L 60.070576 109.4695 
L 60.131262 109.369208 
L 60.227626 109.068331 
L 60.277553 108.968039 
L 60.35696 108.767455 
L 60.386065 108.767455 
L 60.430649 108.667162 
L 60.537397 108.299424 
L 60.597887 108.199132 
L 60.687785 107.965116 
L 60.703745 107.965116 
L 60.754635 107.864824 
L 60.860831 107.630809 
L 60.921517 107.530517 
L 61.026395 107.162778 
L 61.030171 107.162778 
L 61.073188 107.062486 
L 61.16688 106.861902 
L 61.170763 106.861902 
L 61.238467 106.761609 
L 61.339319 106.527594 
L 61.394626 106.427302 
L 61.493127 105.992702 
L 61.520042 105.89241 
L 61.629355 105.45781 
L 61.702314 105.357518 
L 61.781257 105.123502 
L 61.799159 105.123502 
L 61.835264 105.02321 
L 61.93902 104.655472 
L 61.972293 104.555179 
L 62.070794 104.454887 
L 62.081606 104.454887 
L 62.199737 104.354595 
L 62.309032 104.220872 
L 62.30921 104.220872 
L 62.39038 104.12058 
L 62.420964 104.053718 
L 62.498304 104.053718 
L 62.543476 103.953426 
L 62.65368 103.752841 
L 62.660645 103.652549 
L 62.747764 103.318242 
L 62.763581 103.318242 
L 62.840494 103.217949 
L 62.916196 103.050796 
L 62.951446 103.050796 
L 62.983116 102.950503 
L 63.084735 102.749919 
L 63.192089 102.649626 
L 63.286173 102.449042 
L 63.296878 102.449042 
L 63.358704 102.34875 
L 63.444238 102.081304 
L 63.463546 102.081304 
L 63.533085 101.981011 
L 63.629609 101.680135 
L 63.63538 101.680135 
L 63.699308 101.579842 
L 63.795904 101.379258 
L 63.809655 101.379258 
L 63.836337 101.278966 
L 63.93931 101.04495 
L 63.985853 100.944658 
L 64.096841 100.744073 
L 64.147605 100.643781 
L 64.251557 100.409766 
L 64.256865 100.409766 
L 64.299419 100.309474 
L 64.402195 100.075458 
L 64.467138 99.975166 
L 64.528412 99.874874 
L 64.574278 99.874874 
L 64.610918 99.774582 
L 64.697966 99.573997 
L 64.720427 99.573997 
L 64.776999 99.473705 
L 64.863459 99.039105 
L 64.880006 99.039105 
L 64.973538 98.938813 
L 65.068139 98.671367 
L 65.083671 98.671367 
L 65.107468 98.571074 
L 65.19261 98.437351 
L 65.204366 98.437351 
L 65.287104 98.337059 
L 65.360686 98.002752 
L 65.391252 98.002752 
L 65.458867 97.902459 
L 65.555943 97.668444 
L 65.569748 97.668444 
L 65.633301 97.568152 
L 65.732373 97.300706 
L 65.732729 97.300706 
L 65.840884 97.200413 
L 65.950661 97.03326 
L 65.95075 97.03326 
L 65.999662 96.932967 
L 66.108993 96.765814 
L 66.165387 96.665521 
L 66.264618 96.464937 
L 66.372471 96.364645 
L 66.472041 96.197491 
L 66.474517 96.197491 
L 66.543326 96.097199 
L 66.648115 95.930045 
L 66.653298 95.930045 
L 66.773833 95.829753 
L 66.883894 95.562307 
L 66.985014 95.462014 
L 67.049637 95.26143 
L 67.091638 95.26143 
L 67.235614 95.161137 
L 67.338176 94.860261 
L 67.344019 94.860261 
L 67.402817 94.759968 
L 67.509636 94.559384 
L 67.644029 94.459092 
L 67.712642 94.325369 
L 67.737757 94.325369 
L 67.834602 94.225076 
L 67.93875 94.057923 
L 67.939961 94.057923 
L 68.020383 93.95763 
L 68.123711 93.52303 
L 68.13023 93.52303 
L 68.219398 93.422738 
L 68.313785 93.222154 
L 68.364728 93.121861 
L 68.433465 92.921277 
L 68.461804 92.921277 
L 68.550829 92.820985 
L 68.661621 92.6204 
L 68.779983 92.520108 
L 68.885253 92.319523 
L 68.983113 92.219231 
L 69.079032 92.052077 
L 69.170497 91.951785 
L 69.188541 91.818062 
L 69.263958 91.818062 
L 69.345538 91.71777 
L 69.418621 91.517185 
L 69.448474 91.517185 
L 69.572928 91.416893 
L 69.6645 91.216308 
L 69.669131 91.216308 
L 69.756233 91.116016 
L 69.841536 90.915432 
L 69.854022 90.915432 
L 70.032642 90.815139 
L 70.113973 90.681416 
L 70.126317 90.681416 
L 70.195179 90.581124 
L 70.305008 90.38054 
L 70.411721 90.280247 
L 70.485695 90.113094 
L 70.516207 90.113094 
L 70.617024 90.012801 
L 70.702078 89.912509 
L 70.724717 89.912509 
L 70.791762 89.812217 
L 70.892775 89.411048 
L 70.896925 89.411048 
L 70.994767 89.310755 
L 71.067601 89.177032 
L 71.099788 89.177032 
L 71.198093 89.07674 
L 71.281241 88.842725 
L 71.304005 88.842725 
L 71.415633 88.742433 
L 71.501755 88.441556 
L 71.574073 88.341264 
L 71.64053 88.207541 
L 71.675157 88.207541 
L 71.775867 88.107248 
L 71.840329 87.973525 
L 71.939062 87.873233 
L 72.0148 87.73951 
L 72.045508 87.73951 
L 72.181165 87.639218 
L 72.28868 87.405202 
L 72.291815 87.405202 
L 72.339284 87.30491 
L 72.448882 87.204618 
L 72.543412 87.104326 
L 72.617528 86.937172 
L 72.650855 86.937172 
L 72.695332 86.83688 
L 72.728159 86.736587 
L 72.792907 86.736587 
L 72.992172 86.636295 
L 73.101271 86.40228 
L 73.163471 86.301987 
L 73.261777 86.168264 
L 73.44925 86.067972 
L 73.527392 85.867388 
L 73.554502 85.867388 
L 73.582182 85.767095 
L 73.654482 85.666803 
L 73.689483 85.666803 
L 73.796516 85.566511 
L 73.846372 85.466219 
L 73.875157 85.466219 
L 74.013112 85.365926 
L 74.121036 85.09848 
L 74.161007 84.998188 
L 74.266277 84.797604 
L 74.271799 84.797604 
L 74.434584 84.697311 
L 74.533228 84.496727 
L 74.606454 84.396434 
L 74.714823 84.229281 
L 74.90292 84.128988 
L 74.90292 84.095558 
L 75.004556 84.095558 
L 75.071619 83.995265 
L 75.174805 83.861542 
L 75.427471 83.76125 
L 75.525313 83.527235 
L 75.534682 83.527235 
L 75.725575 83.426943 
L 75.835423 83.192927 
L 76.008967 83.092635 
L 76.104476 82.85862 
L 76.117372 82.85862 
L 76.249022 82.758328 
L 76.336355 82.524312 
L 76.359012 82.524312 
L 76.471549 82.42402 
L 76.521121 82.290297 
L 76.557511 82.290297 
L 76.755956 82.190005 
L 76.843289 82.022851 
L 76.852106 82.022851 
L 76.947598 81.922559 
L 77.002887 81.822266 
L 77.035091 81.822266 
L 77.187421 81.721974 
L 77.276784 81.655113 
L 77.294561 81.655113 
L 77.337346 81.55482 
L 77.411551 81.387667 
L 77.447229 81.387667 
L 77.475212 81.287374 
L 77.562848 81.153651 
L 77.582905 81.153651 
L 77.747133 81.053359 
L 77.834911 80.886205 
L 77.84811 80.886205 
L 77.926982 80.785913 
L 78.009097 80.685621 
L 78.026463 80.685621 
L 78.10986 80.585328 
L 78.205209 80.418175 
L 78.213812 80.418175 
L 78.310265 80.317882 
L 78.410494 80.050436 
L 78.414039 80.050436 
L 78.503491 79.950144 
L 78.605716 79.78299 
L 78.698695 79.682698 
L 78.806049 79.582406 
L 78.888822 79.482114 
L 78.911177 79.381821 
L 78.989782 79.381821 
L 79.325613 79.281529 
L 79.420284 79.114375 
L 79.42748 79.114375 
L 79.538522 79.014083 
L 79.628331 78.88036 
L 79.638056 78.88036 
L 79.771077 78.780068 
L 79.848026 78.612914 
L 80.078836 78.512622 
L 80.166864 78.345468 
L 80.173223 78.345468 
L 80.296804 78.245176 
L 80.394165 78.078022 
L 80.407043 78.078022 
L 80.593804 77.97773 
L 80.691611 77.777145 
L 80.700659 77.777145 
L 80.741057 77.676853 
L 80.850958 77.609991 
L 80.916044 77.509699 
L 80.999601 77.375976 
L 81.271664 77.275684 
L 81.329875 77.208822 
L 81.34872 77.208822 
L 81.516564 77.10853 
L 81.613961 77.041668 
L 81.619946 77.041668 
L 81.701757 76.941376 
L 81.784744 76.707361 
L 81.801719 76.707361 
L 82.029679 76.607069 
L 82.12029 76.473346 
L 82.130158 76.473346 
L 82.26806 76.373053 
L 82.355144 76.272761 
L 82.371264 76.272761 
L 82.564579 76.172469 
L 82.658681 76.072177 
L 82.671987 76.072177 
L 82.869755 75.971884 
L 82.973903 75.804731 
L 83.099782 75.704438 
L 83.206797 75.604146 
L 83.207296 75.604146 
L 83.382889 75.503854 
L 83.398528 75.436992 
L 83.489975 75.436992 
L 83.606414 75.3367 
L 83.70194 75.169546 
L 83.715745 75.169546 
L 84.077065 75.069254 
L 84.167871 74.868669 
L 84.187162 74.868669 
L 84.266248 74.768377 
L 84.344176 74.668085 
L 84.366424 74.668085 
L 84.471605 74.567793 
L 84.582396 74.333777 
L 84.720316 74.233485 
L 84.744273 74.133193 
L 84.830947 74.133193 
L 85.068633 74.032901 
L 85.179496 73.966039 
L 85.352328 73.865747 
L 85.419177 73.798885 
L 85.442689 73.798885 
L 85.59924 73.698593 
L 85.700449 73.56487 
L 85.701678 73.56487 
L 85.95885 73.464578 
L 86.012198 73.364285 
L 86.059329 73.364285 
L 86.281233 73.263993 
L 86.390813 73.197132 
L 86.521875 73.096839 
L 86.606679 72.929686 
L 86.627377 72.929686 
L 86.753594 72.829393 
L 86.802934 72.729101 
L 86.860147 72.729101 
L 86.925571 72.628809 
L 87.032355 72.428224 
L 87.273068 72.327932 
L 87.273068 72.294501 
L 87.378641 72.294501 
L 87.78011 72.194209 
L 87.834223 72.060486 
L 87.889031 72.060486 
L 87.962809 71.960194 
L 88.015534 71.859902 
L 88.067581 71.859902 
L 88.295701 71.759609 
L 88.295701 71.726179 
L 88.390961 71.726179 
L 88.620595 71.625886 
L 88.631639 71.525594 
L 88.729838 71.525594 
L 88.763734 71.425302 
L 88.852082 71.191286 
L 89.27058 71.090994 
L 89.370363 71.024133 
L 89.686601 70.92384 
L 89.761768 70.723256 
L 90.130035 70.622964 
L 90.220592 70.45581 
L 90.636008 70.355518 
L 90.647604 70.288656 
L 90.742364 70.288656 
L 90.943036 70.188364 
L 91.044352 70.054641 
L 91.052225 70.054641 
L 91.248925 69.954349 
L 91.318357 69.820626 
L 91.354302 69.820626 
L 91.5305 69.720333 
L 91.611064 69.620041 
L 91.625225 69.620041 
L 91.724866 69.519749 
L 91.754399 69.452887 
L 91.791359 69.452887 
L 92.011927 69.352595 
L 92.056244 69.285733 
L 92.099759 69.285733 
L 92.198403 69.185441 
L 92.268583 69.11858 
L 92.286841 69.11858 
L 92.506198 69.018287 
L 92.606177 68.817703 
L 92.68619 68.717411 
L 92.792742 68.516826 
L 92.910142 68.416534 
L 92.991366 68.24938 
L 93.01926 68.24938 
L 93.218186 68.149088 
L 93.310026 67.948503 
L 93.329281 67.948503 
L 93.419339 67.848211 
L 93.529614 67.681057 
L 93.530255 67.681057 
L 93.70453 67.580765 
L 93.762259 67.480473 
L 93.802426 67.480473 
L 94.040343 67.38018 
L 94.141195 67.246457 
L 94.151384 67.246457 
L 94.529358 67.146165 
L 94.601159 67.045873 
L 94.834784 66.945581 
L 94.849176 66.811858 
L 94.925038 66.811858 
L 95.16463 66.711565 
L 95.234347 66.644704 
L 95.258375 66.644704 
L 95.494226 66.544412 
L 95.494226 66.510981 
L 95.593529 66.510981 
L 95.855564 66.410689 
L 95.965732 66.276966 
L 96.091201 66.176673 
L 96.174171 66.009519 
L 96.192624 66.009519 
L 96.316134 65.909227 
L 96.408134 65.808935 
L 96.537397 65.708643 
L 96.604032 65.60835 
L 96.641028 65.60835 
L 96.939507 65.508058 
L 96.939507 65.474627 
L 97.047252 65.474627 
L 97.389371 65.374335 
L 97.389371 65.340904 
L 97.479554 65.340904 
L 97.604043 65.240612 
L 97.709242 65.14032 
L 98.045981 65.040028 
L 98.126849 64.872874 
L 98.14003 64.872874 
L 98.290471 64.772582 
L 98.290471 64.739151 
L 98.389703 64.739151 
L 98.498802 64.638859 
L 98.585957 64.505136 
L 98.924888 64.404843 
L 98.926972 64.337982 
L 99.0347 64.337982 
L 99.189398 64.23769 
L 99.27748 64.070536 
L 99.286564 64.070536 
L 99.431983 63.970243 
L 99.537342 63.83652 
L 100.009827 63.736228 
L 100.055516 63.669367 
L 100.088646 63.669367 
L 100.280145 63.569074 
L 100.280145 63.535644 
L 100.387855 63.535644 
L 100.504881 63.435351 
L 100.504881 63.401921 
L 100.614426 63.401921 
L 100.916913 63.301628 
L 100.916913 63.268198 
L 101.018264 63.268198 
L 101.466169 63.167905 
L 101.497608 63.034182 
L 101.569961 63.034182 
L 101.845283 62.93389 
L 101.887605 62.833598 
L 101.889778 62.833598 
L 102.296252 62.733306 
L 102.296252 62.699875 
L 102.3807 62.699875 
L 102.674619 62.599583 
L 102.75944 62.49929 
L 102.785072 62.49929 
L 103.059575 62.398998 
L 103.168176 62.298706 
L 103.525791 62.198413 
L 103.611112 62.098121 
L 103.62285 62.098121 
L 103.735868 61.997829 
L 103.756085 61.930967 
L 103.807687 61.930967 
L 103.896855 61.830675 
L 103.964808 61.730383 
L 103.977847 61.730383 
L 104.198272 61.630091 
L 104.198272 61.59666 
L 104.26391 61.59666 
L 104.411057 61.496368 
L 104.491817 61.396075 
L 104.521047 61.396075 
L 104.860173 61.295783 
L 104.860173 61.262352 
L 104.969504 61.262352 
L 105.480945 61.16206 
L 105.506203 61.061768 
L 105.588388 61.061768 
L 106.025766 60.961476 
L 106.120598 60.861183 
L 106.29489 60.760891 
L 106.400641 60.660599 
L 106.595507 60.560307 
L 106.595507 60.526876 
L 106.66273 60.526876 
L 106.828739 60.426583 
L 106.838946 60.359722 
L 107.048844 60.25943 
L 107.132704 60.159137 
L 107.317363 60.058845 
L 107.423488 59.891691 
L 107.812684 59.791399 
L 107.903526 59.657676 
L 107.919219 59.657676 
L 108.278971 59.557384 
L 108.382086 59.457092 
L 108.791659 59.356799 
L 108.795703 59.289938 
L 108.892441 59.289938 
L 109.137465 59.189646 
L 109.226152 59.055923 
L 109.227096 59.055923 
L 109.405894 58.95563 
L 109.483199 58.888769 
L 109.510701 58.888769 
L 109.887251 58.788477 
L 109.947883 58.688184 
L 110.352558 58.587892 
L 110.437914 58.420738 
L 110.659498 58.320446 
L 110.659498 58.287015 
L 110.697153 58.287015 
L 111.130363 58.186723 
L 111.238875 58.119861 
L 111.419419 58.019569 
L 111.511347 57.919277 
L 111.52248 57.919277 
L 112.254596 57.818985 
L 112.363678 57.6184 
L 112.463782 57.518108 
L 112.539075 57.384385 
L 112.574859 57.384385 
L 113.037922 57.284093 
L 113.056358 57.217231 
L 113.09013 57.217231 
L 113.357954 57.116939 
L 113.465023 57.016647 
L 113.64514 56.916354 
L 113.727183 56.849493 
L 113.943031 56.7492 
L 113.943031 56.71577 
L 114.032786 56.71577 
L 114.342878 56.615477 
L 114.395157 56.548616 
L 114.607318 56.448324 
L 114.607318 56.414893 
L 114.701812 56.414893 
L 114.889819 56.314601 
L 114.889819 56.28117 
L 114.953124 56.28117 
L 115.321177 56.180878 
L 115.321177 56.147447 
L 115.364549 56.147447 
L 115.695001 56.047155 
L 115.799897 55.946862 
L 116.018826 55.84657 
L 116.040557 55.746278 
L 116.430608 55.645986 
L 116.485327 55.579124 
L 116.75796 55.478832 
L 116.763838 55.41197 
L 116.854413 55.41197 
L 117.3295 55.311678 
L 117.432347 55.211386 
L 117.793133 55.111094 
L 117.793133 55.077663 
L 117.830788 55.077663 
L 118.05898 54.97737 
L 118.05898 54.94394 
L 118.148807 54.94394 
L 118.435511 54.843647 
L 118.460716 54.776786 
L 118.539232 54.776786 
L 118.719242 54.676494 
L 118.749059 54.609632 
L 118.826311 54.609632 
L 119.367231 54.50934 
L 119.395481 54.442478 
L 119.406863 54.442478 
L 119.775308 54.342186 
L 119.826411 54.241894 
L 119.855801 54.241894 
L 120.164486 54.141602 
L 120.25711 54.07474 
L 120.266069 54.07474 
L 120.468166 53.974448 
L 120.521086 53.907586 
L 120.576999 53.907586 
L 121.200069 53.807294 
L 121.289147 53.673571 
L 121.302898 53.673571 
L 121.355177 53.573279 
L 121.382732 53.506417 
L 121.459841 53.506417 
L 121.724744 53.406125 
L 121.81564 53.339264 
L 122.122223 53.238971 
L 122.154784 53.138679 
L 122.224536 53.138679 
L 122.371665 53.038387 
L 122.469044 52.837802 
L 122.820264 52.73751 
L 122.870334 52.637218 
L 123.326629 52.536925 
L 123.39745 52.403202 
L 123.410613 52.403202 
L 124.174346 52.30291 
L 124.188079 52.236049 
L 124.285067 52.236049 
L 124.704365 52.135756 
L 124.803989 52.068895 
L 125.24411 51.968603 
L 125.258538 51.901741 
L 125.33 51.901741 
L 125.758668 51.801449 
L 125.758668 51.768018 
L 125.850686 51.768018 
L 126.157038 51.667726 
L 126.264695 51.500572 
L 126.265478 51.500572 
L 126.610607 51.40028 
L 126.720366 51.299987 
L 126.720544 51.299987 
L 127.108155 51.199695 
L 127.184836 51.132834 
L 127.216827 51.132834 
L 127.616336 51.032541 
L 127.713573 50.898818 
L 127.718863 50.898818 
L 128.408907 50.798526 
L 128.408907 50.765095 
L 128.508495 50.765095 
L 128.840264 50.664803 
L 128.840264 50.631372 
L 128.898083 50.631372 
L 129.063041 50.53108 
L 129.17011 50.430788 
L 129.378851 50.330496 
L 129.378851 50.297065 
L 129.46093 50.297065 
L 129.725583 50.196773 
L 129.785949 50.09648 
L 129.801178 50.09648 
L 130.353623 49.996188 
L 130.353623 49.962757 
L 130.445249 49.962757 
L 130.744173 49.862465 
L 130.805731 49.762173 
L 131.576482 49.661881 
L 131.601597 49.561588 
L 131.64294 49.561588 
L 132.01614 49.461296 
L 132.079391 49.361004 
L 132.371582 49.260711 
L 132.471544 49.160419 
L 132.83819 49.060127 
L 132.945259 48.926404 
L 133.299063 48.826112 
L 133.299063 48.792681 
L 133.405027 48.792681 
L 133.805374 48.692389 
L 133.805374 48.658958 
L 133.900526 48.658958 
L 134.300374 48.558666 
L 134.300374 48.525235 
L 134.405377 48.525235 
L 134.736309 48.424943 
L 134.736309 48.391512 
L 134.835345 48.391512 
L 134.922429 48.29122 
L 135.032205 48.190927 
L 135.552659 48.090635 
L 135.552659 48.057204 
L 135.621218 48.057204 
L 135.846525 47.956912 
L 135.900193 47.890051 
L 135.901119 47.890051 
L 136.470824 47.789758 
L 136.530227 47.689466 
L 136.558371 47.689466 
L 137.348323 47.589174 
L 137.348323 47.555743 
L 137.427605 47.555743 
L 138.260948 47.455451 
L 138.310982 47.388589 
L 138.349314 47.388589 
L 138.637996 47.288297 
L 138.637996 47.254866 
L 138.713342 47.254866 
L 138.976962 47.154574 
L 138.976962 47.121143 
L 139.001222 47.121143 
L 139.326508 47.020851 
L 139.360707 46.953989 
L 139.415462 46.953989 
L 140.125794 46.853697 
L 140.125794 46.820266 
L 140.224438 46.820266 
L 140.613295 46.719974 
L 140.619369 46.653113 
L 140.717995 46.653113 
L 141.423536 46.55282 
L 141.423536 46.51939 
L 141.461351 46.51939 
L 141.815154 46.419097 
L 141.815154 46.385667 
L 141.900225 46.385667 
L 142.660574 46.285374 
L 142.771651 46.185082 
L 143.425393 46.08479 
L 143.528864 46.017928 
L 143.533086 46.017928 
L 144.011574 45.917636 
L 144.011574 45.884205 
L 144.113121 45.884205 
L 144.667543 45.783913 
L 144.67506 45.717051 
L 144.771192 45.717051 
L 145.293071 45.616759 
L 145.362183 45.549898 
L 145.379888 45.549898 
L 145.754834 45.449605 
L 145.754834 45.416175 
L 145.840689 45.416175 
L 146.549632 45.315882 
L 146.549632 45.282452 
L 146.578416 45.282452 
L 147.019446 45.182159 
L 147.019446 45.148729 
L 147.11768 45.148729 
L 147.457643 45.048436 
L 147.457643 45.015006 
L 147.55577 45.015006 
L 148.336122 44.914713 
L 148.406106 44.847852 
L 148.413284 44.847852 
L 148.882475 44.74756 
L 148.990524 44.680698 
L 149.705148 44.580406 
L 149.705148 44.546975 
L 149.798716 44.546975 
L 150.055425 44.446683 
L 150.055425 44.413252 
L 150.146 44.413252 
L 151.225382 44.31296 
L 151.225382 44.279529 
L 151.321301 44.279529 
L 151.947844 44.179237 
L 151.947844 44.145806 
L 152.01309 44.145806 
L 152.515019 44.045514 
L 152.515019 44.012083 
L 152.591754 44.012083 
L 153.667931 43.911791 
L 153.667931 43.87836 
L 153.724645 43.87836 
L 154.752336 43.778068 
L 154.781708 43.711206 
L 154.814162 43.711206 
L 155.41429 43.610914 
L 155.41429 43.577483 
L 155.512204 43.577483 
L 155.760897 43.477191 
L 155.838719 43.376899 
L 155.858116 43.376899 
L 156.48124 43.276606 
L 156.508902 43.209745 
L 156.584319 43.209745 
L 156.677904 43.109453 
L 156.718533 43.042591 
L 156.783103 43.042591 
L 156.898739 42.942299 
L 156.898739 42.908868 
L 157.000233 42.908868 
L 157.629787 42.808576 
L 157.691791 42.741714 
L 157.737194 42.741714 
L 158.035513 42.641422 
L 158.035513 42.607991 
L 158.139518 42.607991 
L 158.684339 42.507699 
L 158.790713 42.373976 
L 159.245173 42.273684 
L 159.245173 42.240253 
L 159.353044 42.240253 
L 159.771398 42.139961 
L 159.771398 42.10653 
L 159.866391 42.10653 
L 161.402282 42.006238 
L 161.446046 41.939376 
L 161.511114 41.939376 
L 161.834458 41.839084 
L 161.834458 41.805653 
L 161.936772 41.805653 
L 162.830284 41.705361 
L 162.830284 41.67193 
L 162.938048 41.67193 
L 163.309218 41.571638 
L 163.309218 41.538207 
L 163.395215 41.538207 
L 164.874802 41.437915 
L 164.874802 41.404484 
L 164.968975 41.404484 
L 165.371191 41.304192 
L 165.371191 41.270761 
L 165.470209 41.270761 
L 165.922799 41.170469 
L 166.025308 41.070177 
L 166.032825 41.070177 
L 166.922864 40.969884 
L 166.936935 40.903023 
L 166.998156 40.903023 
L 168.126629 40.802731 
L 168.126629 40.7693 
L 168.233519 40.7693 
L 169.531404 40.669008 
L 169.531404 40.635577 
L 169.622032 40.635577 
L 170.513639 40.535285 
L 170.513639 40.501854 
L 170.609076 40.501854 
L 171.357954 40.401562 
L 171.357954 40.368131 
L 171.467445 40.368131 
L 171.686357 40.267839 
L 171.686357 40.234408 
L 171.792518 40.234408 
L 172.209554 40.134115 
L 172.209554 40.100685 
L 172.295124 40.100685 
L 172.961656 40.000392 
L 172.961656 39.966962 
L 173.064272 39.966962 
L 173.723785 39.866669 
L 173.829162 39.732946 
L 173.832368 39.732946 
L 174.13131 39.632654 
L 174.13131 39.599223 
L 174.231575 39.599223 
L 174.966826 39.498931 
L 175.067572 39.43207 
L 175.461452 39.331777 
L 175.461452 39.298347 
L 175.568165 39.298347 
L 176.316562 39.198054 
L 176.316562 39.164624 
L 176.42144 39.164624 
L 177.072653 39.064331 
L 177.138273 38.99747 
L 177.164653 38.99747 
L 177.483242 38.897178 
L 177.585982 38.796885 
L 178.26712 38.696593 
L 178.35985 38.629732 
L 178.844537 38.529439 
L 178.943003 38.429147 
L 179.144334 38.328855 
L 179.144334 38.295424 
L 179.239879 38.295424 
L 180.295411 38.195132 
L 180.385861 38.12827 
L 180.388818 38.12827 
L 181.514156 38.027978 
L 181.617733 37.927686 
L 181.624662 37.927686 
L 182.707376 37.827393 
L 182.707376 37.793963 
L 182.803205 37.793963 
L 183.605929 37.69367 
L 183.605929 37.66024 
L 183.676946 37.66024 
L 184.130818 37.559947 
L 184.130818 37.526517 
L 184.230424 37.526517 
L 184.465313 37.426224 
L 184.572881 37.325932 
L 185.46992 37.22564 
L 185.46992 37.192209 
L 185.558375 37.192209 
L 186.536763 37.091917 
L 186.623615 36.991625 
L 186.629974 36.991625 
L 187.889776 36.891332 
L 187.889776 36.857902 
L 187.983058 36.857902 
L 189.459064 36.757609 
L 189.504646 36.690748 
L 189.54898 36.690748 
L 190.280099 36.590456 
L 190.280099 36.557025 
L 190.36786 36.557025 
L 191.054608 36.456732 
L 191.054608 36.423302 
L 191.139252 36.423302 
L 192.959318 36.323009 
L 192.995138 36.256148 
L 193.05203 36.256148 
L 193.864586 36.155856 
L 193.864586 36.122425 
L 193.914478 36.122425 
L 195.419019 36.022133 
L 195.419019 35.988702 
L 195.523595 35.988702 
L 196.411657 35.88841 
L 196.411657 35.854979 
L 196.497119 35.854979 
L 197.743812 35.754687 
L 197.743812 35.721256 
L 197.853535 35.721256 
L 199.605184 35.620964 
L 199.611811 35.554102 
L 199.71603 35.554102 
L 201.217668 35.45381 
L 201.254022 35.386948 
L 201.28058 35.386948 
L 202.700781 35.286656 
L 202.700781 35.253225 
L 202.810041 35.253225 
L 203.712281 35.152933 
L 203.712281 35.119502 
L 203.81406 35.119502 
L 205.524332 35.01921 
L 205.524332 34.985779 
L 205.63051 34.985779 
L 206.74981 34.885487 
L 206.84783 34.785195 
L 206.854777 34.785195 
L 207.912909 34.684902 
L 207.912909 34.651472 
L 208.010752 34.651472 
L 208.846606 34.551179 
L 208.851772 34.484318 
L 208.955171 34.484318 
L 209.552485 34.384026 
L 209.650381 34.317164 
L 209.65902 34.317164 
L 210.209594 34.216872 
L 210.209594 34.183441 
L 210.307169 34.183441 
L 210.930987 34.083149 
L 210.934229 34.016287 
L 211.036578 34.016287 
L 211.779453 33.915995 
L 211.790086 33.849134 
L 211.889942 33.849134 
L 213.056497 33.748841 
L 213.056497 33.715411 
L 213.150474 33.715411 
L 214.61622 33.615118 
L 214.61622 33.581688 
L 214.722416 33.581688 
L 215.357813 33.481395 
L 215.357813 33.447965 
L 215.467838 33.447965 
L 216.488797 33.347672 
L 216.501996 33.280811 
L 216.58386 33.280811 
L 217.483162 33.180519 
L 217.50215 33.113657 
L 217.590569 33.113657 
L 218.431055 33.013365 
L 218.443327 32.946503 
L 218.532923 32.946503 
L 219.083265 32.846211 
L 219.083265 32.81278 
L 219.185792 32.81278 
L 221.722122 32.712488 
L 221.762182 32.645626 
L 221.830331 32.645626 
L 223.082385 32.545334 
L 223.123068 32.478473 
L 223.184502 32.478473 
L 223.95365 32.37818 
L 223.95365 32.34475 
L 224.0524 32.34475 
L 224.798089 32.244457 
L 224.798089 32.211027 
L 224.894827 32.211027 
L 226.185907 32.110734 
L 226.185907 32.077304 
L 226.290946 32.077304 
L 226.960541 31.977011 
L 226.99857 31.91015 
L 227.065437 31.91015 
L 227.99436 31.809858 
L 227.99436 31.776427 
L 228.100111 31.776427 
L 228.59089 31.676135 
L 228.628901 31.609273 
L 228.698369 31.609273 
L 229.033772 31.508981 
L 229.118398 31.442119 
L 229.138935 31.442119 
L 230.247245 31.341827 
L 230.247245 31.308396 
L 230.357128 31.308396 
L 231.62393 31.208104 
L 231.62393 31.174673 
L 231.73449 31.174673 
L 232.657767 31.074381 
L 232.763821 30.974089 
L 232.764391 30.974089 
L 235.036761 30.873796 
L 235.14139 30.773504 
L 235.14579 30.773504 
L 236.478942 30.673212 
L 236.524577 30.60635 
L 236.581879 30.60635 
L 237.499295 30.506058 
L 237.579771 30.439197 
L 237.610301 30.439197 
L 239.082477 30.338904 
L 239.082477 30.305474 
L 239.193518 30.305474 
L 240.006092 30.205181 
L 240.006092 30.171751 
L 240.114889 30.171751 
L 240.863713 30.071458 
L 240.863713 30.038028 
L 240.967059 30.038028 
L 242.056523 29.937735 
L 242.056523 29.904305 
L 242.159905 29.904305 
L 244.372499 29.804012 
L 244.372499 29.770582 
L 244.477626 29.770582 
L 245.135555 29.670289 
L 245.135555 29.636859 
L 245.24241 29.636859 
L 246.963494 29.536566 
L 246.989001 29.469705 
L 247.066306 29.469705 
L 248.219573 29.369413 
L 248.219573 29.335982 
L 248.33049 29.335982 
L 250.078915 29.23569 
L 250.078915 29.202259 
L 250.189671 29.202259 
L 251.062771 29.101966 
L 251.062771 29.068536 
L 251.173741 29.068536 
L 252.86889 28.968243 
L 252.86889 28.934813 
L 252.977099 28.934813 
L 254.502036 28.83452 
L 254.502036 28.80109 
L 254.612738 28.80109 
L 255.857453 28.700797 
L 255.945232 28.600505 
L 255.967657 28.600505 
L 258.792989 28.500213 
L 258.792989 28.466782 
L 258.898919 28.466782 
L 259.841254 28.36649 
L 259.841254 28.333059 
L 259.952349 28.333059 
L 262.749413 28.232767 
L 262.749413 28.199336 
L 262.858281 28.199336 
L 265.475211 28.099044 
L 265.475211 28.065613 
L 265.585717 28.065613 
L 267.256927 27.965321 
L 267.256927 27.93189 
L 267.366009 27.93189 
L 267.854758 27.831598 
L 267.854758 27.798167 
L 267.96473 27.798167 
L 269.422853 27.697875 
L 269.422853 27.664444 
L 269.533823 27.664444 
L 270.964817 27.564152 
L 270.964817 27.530721 
L 271.073739 27.530721 
L 274.624953 27.430429 
L 274.624953 27.396998 
L 274.736048 27.396998 
L 277.509083 27.296706 
L 277.509083 27.263275 
L 277.619839 27.263275 
L 280.175834 27.162983 
L 280.286608 27.129552 
L 280.843986 27.02926 
L 280.843986 26.995829 
L 280.954938 26.995829 
L 282.023758 26.895537 
L 282.023758 26.895537 
" clip-path="url(#p27cbd96102)" style="fill: none; stroke: #1f77b4; stroke-width: 1.5; stroke-linecap: round"/>
   </g>
   <g id="line2d_26">
    <path d="M 42.831699 265.022801 
L 282.023758 26.895537 
" clip-path="url(#p27cbd96102)" style="fill: none; stroke-dasharray: 5.55,2.4; stroke-dashoffset: 0; stroke: #999999; stroke-width: 1.5"/>
   </g>
   <g id="patch_3">
    <path d="M 35.655938 265.022801 
L 35.655938 19.751719 
" style="fill: none"/>
   </g>
   <g id="patch_4">
    <path d="M 289.19952 265.022801 
L 289.19952 19.751719 
" style="fill: none"/>
   </g>
   <g id="patch_5">
    <path d="M 35.655938 265.022801 
L 289.19952 265.022801 
" style="fill: none"/>
   </g>
   <g id="patch_6">
    <path d="M 35.655938 19.751719 
L 289.19952 19.751719 
" style="fill: none"/>
   </g>
   <g id="text_15">
    <!-- Model 1: Receiver Operating Characteristic (ROC) Curve -->
    <g style="fill: #333333" transform="translate(42.14976 13.751719) scale(0.09 -0.09)">
     <defs>
      <path id="Arial-BoldMT-4d" d="M 453 0 
L 453 4581 
L 1838 4581 
L 2669 1456 
L 3491 4581 
L 4878 4581 
L 4878 0 
L 4019 0 
L 4019 3606 
L 3109 0 
L 2219 0 
L 1313 3606 
L 1313 0 
L 453 0 
z
" transform="scale(0.015625)"/>
      <path id="Arial-BoldMT-64" d="M 3503 0 
L 2688 0 
L 2688 488 
Q 2484 203 2207 64 
Q 1931 -75 1650 -75 
Q 1078 -75 670 386 
Q 263 847 263 1672 
Q 263 2516 659 2955 
Q 1056 3394 1663 3394 
Q 2219 3394 2625 2931 
L 2625 4581 
L 3503 4581 
L 3503 0 
z
M 1159 1731 
Q 1159 1200 1306 963 
Q 1519 619 1900 619 
Q 2203 619 2415 876 
Q 2628 1134 2628 1647 
Q 2628 2219 2422 2470 
Q 2216 2722 1894 2722 
Q 1581 2722 1370 2473 
Q 1159 2225 1159 1731 
z
" transform="scale(0.015625)"/>
      <path id="Arial-BoldMT-31" d="M 2519 0 
L 1641 0 
L 1641 3309 
Q 1159 2859 506 2644 
L 506 3441 
Q 850 3553 1253 3867 
Q 1656 4181 1806 4600 
L 2519 4600 
L 2519 0 
z
" transform="scale(0.015625)"/>
      <path id="Arial-BoldMT-3a" d="M 628 2441 
L 628 3319 
L 1506 3319 
L 1506 2441 
L 628 2441 
z
M 628 0 
L 628 878 
L 1506 878 
L 1506 0 
L 628 0 
z
" transform="scale(0.015625)"/>
      <path id="Arial-BoldMT-63" d="M 3353 2338 
L 2488 2181 
Q 2444 2441 2289 2572 
Q 2134 2703 1888 2703 
Q 1559 2703 1364 2476 
Q 1169 2250 1169 1719 
Q 1169 1128 1367 884 
Q 1566 641 1900 641 
Q 2150 641 2309 783 
Q 2469 925 2534 1272 
L 3397 1125 
Q 3263 531 2881 228 
Q 2500 -75 1859 -75 
Q 1131 -75 698 384 
Q 266 844 266 1656 
Q 266 2478 700 2936 
Q 1134 3394 1875 3394 
Q 2481 3394 2839 3133 
Q 3197 2872 3353 2338 
z
" transform="scale(0.015625)"/>
      <path id="Arial-BoldMT-4f" d="M 278 2263 
Q 278 2963 488 3438 
Q 644 3788 914 4066 
Q 1184 4344 1506 4478 
Q 1934 4659 2494 4659 
Q 3506 4659 4114 4031 
Q 4722 3403 4722 2284 
Q 4722 1175 4119 548 
Q 3516 -78 2506 -78 
Q 1484 -78 881 545 
Q 278 1169 278 2263 
z
M 1231 2294 
Q 1231 1516 1590 1114 
Q 1950 713 2503 713 
Q 3056 713 3411 1111 
Q 3766 1509 3766 2306 
Q 3766 3094 3420 3481 
Q 3075 3869 2503 3869 
Q 1931 3869 1581 3476 
Q 1231 3084 1231 2294 
z
" transform="scale(0.015625)"/>
      <path id="Arial-BoldMT-70" d="M 434 3319 
L 1253 3319 
L 1253 2831 
Q 1413 3081 1684 3237 
Q 1956 3394 2288 3394 
Q 2866 3394 3269 2941 
Q 3672 2488 3672 1678 
Q 3672 847 3265 386 
Q 2859 -75 2281 -75 
Q 2006 -75 1782 34 
Q 1559 144 1313 409 
L 1313 -1263 
L 434 -1263 
L 434 3319 
z
M 1303 1716 
Q 1303 1156 1525 889 
Q 1747 622 2066 622 
Q 2372 622 2575 867 
Q 2778 1113 2778 1672 
Q 2778 2194 2568 2447 
Q 2359 2700 2050 2700 
Q 1728 2700 1515 2451 
Q 1303 2203 1303 1716 
z
" transform="scale(0.015625)"/>
      <path id="Arial-BoldMT-6e" d="M 3478 0 
L 2600 0 
L 2600 1694 
Q 2600 2231 2544 2389 
Q 2488 2547 2361 2634 
Q 2234 2722 2056 2722 
Q 1828 2722 1647 2597 
Q 1466 2472 1398 2265 
Q 1331 2059 1331 1503 
L 1331 0 
L 453 0 
L 453 3319 
L 1269 3319 
L 1269 2831 
Q 1703 3394 2363 3394 
Q 2653 3394 2893 3289 
Q 3134 3184 3257 3021 
Q 3381 2859 3429 2653 
Q 3478 2447 3478 2063 
L 3478 0 
z
" transform="scale(0.015625)"/>
      <path id="Arial-BoldMT-67" d="M 378 -219 
L 1381 -341 
Q 1406 -516 1497 -581 
Q 1622 -675 1891 -675 
Q 2234 -675 2406 -572 
Q 2522 -503 2581 -350 
Q 2622 -241 2622 53 
L 2622 538 
Q 2228 0 1628 0 
Q 959 0 569 566 
Q 263 1013 263 1678 
Q 263 2513 664 2953 
Q 1066 3394 1663 3394 
Q 2278 3394 2678 2853 
L 2678 3319 
L 3500 3319 
L 3500 341 
Q 3500 -247 3403 -537 
Q 3306 -828 3131 -993 
Q 2956 -1159 2664 -1253 
Q 2372 -1347 1925 -1347 
Q 1081 -1347 728 -1058 
Q 375 -769 375 -325 
Q 375 -281 378 -219 
z
M 1163 1728 
Q 1163 1200 1367 954 
Q 1572 709 1872 709 
Q 2194 709 2416 961 
Q 2638 1213 2638 1706 
Q 2638 2222 2425 2472 
Q 2213 2722 1888 2722 
Q 1572 2722 1367 2476 
Q 1163 2231 1163 1728 
z
" transform="scale(0.015625)"/>
      <path id="Arial-BoldMT-43" d="M 3397 1684 
L 4294 1400 
Q 4088 650 3608 286 
Q 3128 -78 2391 -78 
Q 1478 -78 890 545 
Q 303 1169 303 2250 
Q 303 3394 893 4026 
Q 1484 4659 2447 4659 
Q 3288 4659 3813 4163 
Q 4125 3869 4281 3319 
L 3366 3100 
Q 3284 3456 3026 3662 
Q 2769 3869 2400 3869 
Q 1891 3869 1573 3503 
Q 1256 3138 1256 2319 
Q 1256 1450 1568 1081 
Q 1881 713 2381 713 
Q 2750 713 3015 947 
Q 3281 1181 3397 1684 
z
" transform="scale(0.015625)"/>
      <path id="Arial-BoldMT-68" d="M 1334 4581 
L 1334 2897 
Q 1759 3394 2350 3394 
Q 2653 3394 2897 3281 
Q 3141 3169 3264 2994 
Q 3388 2819 3433 2606 
Q 3478 2394 3478 1947 
L 3478 0 
L 2600 0 
L 2600 1753 
Q 2600 2275 2550 2415 
Q 2500 2556 2373 2639 
Q 2247 2722 2056 2722 
Q 1838 2722 1666 2615 
Q 1494 2509 1414 2295 
Q 1334 2081 1334 1663 
L 1334 0 
L 456 0 
L 456 4581 
L 1334 4581 
z
" transform="scale(0.015625)"/>
     </defs>
     <use xlink:href="#Arial-BoldMT-4d"/>
     <use xlink:href="#Arial-BoldMT-6f" transform="translate(83.300781 0)"/>
     <use xlink:href="#Arial-BoldMT-64" transform="translate(144.384766 0)"/>
     <use xlink:href="#Arial-BoldMT-65" transform="translate(205.46875 0)"/>
     <use xlink:href="#Arial-BoldMT-6c" transform="translate(261.083984 0)"/>
     <use xlink:href="#Arial-BoldMT-20" transform="translate(288.867188 0)"/>
     <use xlink:href="#Arial-BoldMT-31" transform="translate(316.650391 0)"/>
     <use xlink:href="#Arial-BoldMT-3a" transform="translate(372.265625 0)"/>
     <use xlink:href="#Arial-BoldMT-20" transform="translate(405.566406 0)"/>
     <use xlink:href="#Arial-BoldMT-52" transform="translate(433.349609 0)"/>
     <use xlink:href="#Arial-BoldMT-65" transform="translate(505.566406 0)"/>
     <use xlink:href="#Arial-BoldMT-63" transform="translate(561.181641 0)"/>
     <use xlink:href="#Arial-BoldMT-65" transform="translate(616.796875 0)"/>
     <use xlink:href="#Arial-BoldMT-69" transform="translate(672.412109 0)"/>
     <use xlink:href="#Arial-BoldMT-76" transform="translate(700.195312 0)"/>
     <use xlink:href="#Arial-BoldMT-65" transform="translate(755.810547 0)"/>
     <use xlink:href="#Arial-BoldMT-72" transform="translate(811.425781 0)"/>
     <use xlink:href="#Arial-BoldMT-20" transform="translate(850.341797 0)"/>
     <use xlink:href="#Arial-BoldMT-4f" transform="translate(878.125 0)"/>
     <use xlink:href="#Arial-BoldMT-70" transform="translate(955.908203 0)"/>
     <use xlink:href="#Arial-BoldMT-65" transform="translate(1016.992188 0)"/>
     <use xlink:href="#Arial-BoldMT-72" transform="translate(1072.607422 0)"/>
     <use xlink:href="#Arial-BoldMT-61" transform="translate(1111.523438 0)"/>
     <use xlink:href="#Arial-BoldMT-74" transform="translate(1167.138672 0)"/>
     <use xlink:href="#Arial-BoldMT-69" transform="translate(1200.439453 0)"/>
     <use xlink:href="#Arial-BoldMT-6e" transform="translate(1228.222656 0)"/>
     <use xlink:href="#Arial-BoldMT-67" transform="translate(1289.306641 0)"/>
     <use xlink:href="#Arial-BoldMT-20" transform="translate(1350.390625 0)"/>
     <use xlink:href="#Arial-BoldMT-43" transform="translate(1378.173828 0)"/>
     <use xlink:href="#Arial-BoldMT-68" transform="translate(1450.390625 0)"/>
     <use xlink:href="#Arial-BoldMT-61" transform="translate(1511.474609 0)"/>
     <use xlink:href="#Arial-BoldMT-72" transform="translate(1567.089844 0)"/>
     <use xlink:href="#Arial-BoldMT-61" transform="translate(1606.005859 0)"/>
     <use xlink:href="#Arial-BoldMT-63" transform="translate(1661.621094 0)"/>
     <use xlink:href="#Arial-BoldMT-74" transform="translate(1717.236328 0)"/>
     <use xlink:href="#Arial-BoldMT-65" transform="translate(1750.537109 0)"/>
     <use xlink:href="#Arial-BoldMT-72" transform="translate(1806.152344 0)"/>
     <use xlink:href="#Arial-BoldMT-69" transform="translate(1845.068359 0)"/>
     <use xlink:href="#Arial-BoldMT-73" transform="translate(1872.851562 0)"/>
     <use xlink:href="#Arial-BoldMT-74" transform="translate(1928.466797 0)"/>
     <use xlink:href="#Arial-BoldMT-69" transform="translate(1961.767578 0)"/>
     <use xlink:href="#Arial-BoldMT-63" transform="translate(1989.550781 0)"/>
     <use xlink:href="#Arial-BoldMT-20" transform="translate(2045.166016 0)"/>
     <use xlink:href="#Arial-BoldMT-28" transform="translate(2072.949219 0)"/>
     <use xlink:href="#Arial-BoldMT-52" transform="translate(2106.25 0)"/>
     <use xlink:href="#Arial-BoldMT-4f" transform="translate(2178.466797 0)"/>
     <use xlink:href="#Arial-BoldMT-43" transform="translate(2256.25 0)"/>
     <use xlink:href="#Arial-BoldMT-29" transform="translate(2328.466797 0)"/>
     <use xlink:href="#Arial-BoldMT-20" transform="translate(2361.767578 0)"/>
     <use xlink:href="#Arial-BoldMT-43" transform="translate(2389.550781 0)"/>
     <use xlink:href="#Arial-BoldMT-75" transform="translate(2461.767578 0)"/>
     <use xlink:href="#Arial-BoldMT-72" transform="translate(2522.851562 0)"/>
     <use xlink:href="#Arial-BoldMT-76" transform="translate(2561.767578 0)"/>
     <use xlink:href="#Arial-BoldMT-65" transform="translate(2617.382812 0)"/>
    </g>
   </g>
   <g id="legend_1">
    <g id="patch_7">
     <path d="M 182.577645 260.522801 
L 282.89952 260.522801 
Q 284.69952 260.522801 284.69952 258.722801 
L 284.69952 234.161239 
Q 284.69952 232.361239 282.89952 232.361239 
L 182.577645 232.361239 
Q 180.777645 232.361239 180.777645 234.161239 
L 180.777645 258.722801 
Q 180.777645 260.522801 182.577645 260.522801 
z
" style="fill: #ffffff; opacity: 0.8; stroke: #cccccc; stroke-width: 0.75; stroke-linejoin: miter"/>
    </g>
    <g id="line2d_27">
     <path d="M 184.377645 239.25327 
L 193.377645 239.25327 
L 202.377645 239.25327 
" style="fill: none; stroke: #1f77b4; stroke-width: 1.5; stroke-linecap: round"/>
    </g>
    <g id="text_16">
     <!-- ROC curve -->
     <g style="fill: #333333" transform="translate(209.577645 242.40327) scale(0.09 -0.09)">
      <defs>
       <path id="ArialMT-52" d="M 503 0 
L 503 4581 
L 2534 4581 
Q 3147 4581 3465 4457 
Q 3784 4334 3975 4021 
Q 4166 3709 4166 3331 
Q 4166 2844 3850 2509 
Q 3534 2175 2875 2084 
Q 3116 1969 3241 1856 
Q 3506 1613 3744 1247 
L 4541 0 
L 3778 0 
L 3172 953 
Q 2906 1366 2734 1584 
Q 2563 1803 2427 1890 
Q 2291 1978 2150 2013 
Q 2047 2034 1813 2034 
L 1109 2034 
L 1109 0 
L 503 0 
z
M 1109 2559 
L 2413 2559 
Q 2828 2559 3062 2645 
Q 3297 2731 3419 2920 
Q 3541 3109 3541 3331 
Q 3541 3656 3305 3865 
Q 3069 4075 2559 4075 
L 1109 4075 
L 1109 2559 
z
" transform="scale(0.015625)"/>
       <path id="ArialMT-4f" d="M 309 2231 
Q 309 3372 921 4017 
Q 1534 4663 2503 4663 
Q 3138 4663 3647 4359 
Q 4156 4056 4423 3514 
Q 4691 2972 4691 2284 
Q 4691 1588 4409 1038 
Q 4128 488 3612 205 
Q 3097 -78 2500 -78 
Q 1853 -78 1343 234 
Q 834 547 571 1087 
Q 309 1628 309 2231 
z
M 934 2222 
Q 934 1394 1379 917 
Q 1825 441 2497 441 
Q 3181 441 3623 922 
Q 4066 1403 4066 2288 
Q 4066 2847 3877 3264 
Q 3688 3681 3323 3911 
Q 2959 4141 2506 4141 
Q 1863 4141 1398 3698 
Q 934 3256 934 2222 
z
" transform="scale(0.015625)"/>
       <path id="ArialMT-43" d="M 3763 1606 
L 4369 1453 
Q 4178 706 3683 314 
Q 3188 -78 2472 -78 
Q 1731 -78 1267 223 
Q 803 525 561 1097 
Q 319 1669 319 2325 
Q 319 3041 592 3573 
Q 866 4106 1370 4382 
Q 1875 4659 2481 4659 
Q 3169 4659 3637 4309 
Q 4106 3959 4291 3325 
L 3694 3184 
Q 3534 3684 3231 3912 
Q 2928 4141 2469 4141 
Q 1941 4141 1586 3887 
Q 1231 3634 1087 3207 
Q 944 2781 944 2328 
Q 944 1744 1114 1308 
Q 1284 872 1643 656 
Q 2003 441 2422 441 
Q 2931 441 3284 734 
Q 3638 1028 3763 1606 
z
" transform="scale(0.015625)"/>
       <path id="ArialMT-20" transform="scale(0.015625)"/>
       <path id="ArialMT-63" d="M 2588 1216 
L 3141 1144 
Q 3050 572 2676 248 
Q 2303 -75 1759 -75 
Q 1078 -75 664 370 
Q 250 816 250 1647 
Q 250 2184 428 2587 
Q 606 2991 970 3192 
Q 1334 3394 1763 3394 
Q 2303 3394 2647 3120 
Q 2991 2847 3088 2344 
L 2541 2259 
Q 2463 2594 2264 2762 
Q 2066 2931 1784 2931 
Q 1359 2931 1093 2626 
Q 828 2322 828 1663 
Q 828 994 1084 691 
Q 1341 388 1753 388 
Q 2084 388 2306 591 
Q 2528 794 2588 1216 
z
" transform="scale(0.015625)"/>
       <path id="ArialMT-75" d="M 2597 0 
L 2597 488 
Q 2209 -75 1544 -75 
Q 1250 -75 995 37 
Q 741 150 617 320 
Q 494 491 444 738 
Q 409 903 409 1263 
L 409 3319 
L 972 3319 
L 972 1478 
Q 972 1038 1006 884 
Q 1059 663 1231 536 
Q 1403 409 1656 409 
Q 1909 409 2131 539 
Q 2353 669 2445 892 
Q 2538 1116 2538 1541 
L 2538 3319 
L 3100 3319 
L 3100 0 
L 2597 0 
z
" transform="scale(0.015625)"/>
       <path id="ArialMT-72" d="M 416 0 
L 416 3319 
L 922 3319 
L 922 2816 
Q 1116 3169 1280 3281 
Q 1444 3394 1641 3394 
Q 1925 3394 2219 3213 
L 2025 2691 
Q 1819 2813 1613 2813 
Q 1428 2813 1281 2702 
Q 1134 2591 1072 2394 
Q 978 2094 978 1738 
L 978 0 
L 416 0 
z
" transform="scale(0.015625)"/>
       <path id="ArialMT-76" d="M 1344 0 
L 81 3319 
L 675 3319 
L 1388 1331 
Q 1503 1009 1600 663 
Q 1675 925 1809 1294 
L 2547 3319 
L 3125 3319 
L 1869 0 
L 1344 0 
z
" transform="scale(0.015625)"/>
       <path id="ArialMT-65" d="M 2694 1069 
L 3275 997 
Q 3138 488 2766 206 
Q 2394 -75 1816 -75 
Q 1088 -75 661 373 
Q 234 822 234 1631 
Q 234 2469 665 2931 
Q 1097 3394 1784 3394 
Q 2450 3394 2872 2941 
Q 3294 2488 3294 1666 
Q 3294 1616 3291 1516 
L 816 1516 
Q 847 969 1125 678 
Q 1403 388 1819 388 
Q 2128 388 2347 550 
Q 2566 713 2694 1069 
z
M 847 1978 
L 2700 1978 
Q 2663 2397 2488 2606 
Q 2219 2931 1791 2931 
Q 1403 2931 1139 2672 
Q 875 2413 847 1978 
z
" transform="scale(0.015625)"/>
      </defs>
      <use xlink:href="#ArialMT-52"/>
      <use xlink:href="#ArialMT-4f" transform="translate(72.216797 0)"/>
      <use xlink:href="#ArialMT-43" transform="translate(150 0)"/>
      <use xlink:href="#ArialMT-20" transform="translate(222.216797 0)"/>
      <use xlink:href="#ArialMT-63" transform="translate(250 0)"/>
      <use xlink:href="#ArialMT-75" transform="translate(300 0)"/>
      <use xlink:href="#ArialMT-72" transform="translate(355.615234 0)"/>
      <use xlink:href="#ArialMT-76" transform="translate(388.916016 0)"/>
      <use xlink:href="#ArialMT-65" transform="translate(438.916016 0)"/>
     </g>
    </g>
    <g id="line2d_28">
     <path d="M 184.377645 251.984051 
L 193.377645 251.984051 
L 202.377645 251.984051 
" style="fill: none; stroke-dasharray: 5.55,2.4; stroke-dashoffset: 0; stroke: #999999; stroke-width: 1.5"/>
    </g>
    <g id="text_17">
     <!-- Random classifier -->
     <g style="fill: #333333" transform="translate(209.577645 255.134051) scale(0.09 -0.09)">
      <defs>
       <path id="ArialMT-61" d="M 2588 409 
Q 2275 144 1986 34 
Q 1697 -75 1366 -75 
Q 819 -75 525 192 
Q 231 459 231 875 
Q 231 1119 342 1320 
Q 453 1522 633 1644 
Q 813 1766 1038 1828 
Q 1203 1872 1538 1913 
Q 2219 1994 2541 2106 
Q 2544 2222 2544 2253 
Q 2544 2597 2384 2738 
Q 2169 2928 1744 2928 
Q 1347 2928 1158 2789 
Q 969 2650 878 2297 
L 328 2372 
Q 403 2725 575 2942 
Q 747 3159 1072 3276 
Q 1397 3394 1825 3394 
Q 2250 3394 2515 3294 
Q 2781 3194 2906 3042 
Q 3031 2891 3081 2659 
Q 3109 2516 3109 2141 
L 3109 1391 
Q 3109 606 3145 398 
Q 3181 191 3288 0 
L 2700 0 
Q 2613 175 2588 409 
z
M 2541 1666 
Q 2234 1541 1622 1453 
Q 1275 1403 1131 1340 
Q 988 1278 909 1158 
Q 831 1038 831 891 
Q 831 666 1001 516 
Q 1172 366 1500 366 
Q 1825 366 2078 508 
Q 2331 650 2450 897 
Q 2541 1088 2541 1459 
L 2541 1666 
z
" transform="scale(0.015625)"/>
       <path id="ArialMT-6e" d="M 422 0 
L 422 3319 
L 928 3319 
L 928 2847 
Q 1294 3394 1984 3394 
Q 2284 3394 2536 3286 
Q 2788 3178 2913 3003 
Q 3038 2828 3088 2588 
Q 3119 2431 3119 2041 
L 3119 0 
L 2556 0 
L 2556 2019 
Q 2556 2363 2490 2533 
Q 2425 2703 2258 2804 
Q 2091 2906 1866 2906 
Q 1506 2906 1245 2678 
Q 984 2450 984 1813 
L 984 0 
L 422 0 
z
" transform="scale(0.015625)"/>
       <path id="ArialMT-64" d="M 2575 0 
L 2575 419 
Q 2259 -75 1647 -75 
Q 1250 -75 917 144 
Q 584 363 401 755 
Q 219 1147 219 1656 
Q 219 2153 384 2558 
Q 550 2963 881 3178 
Q 1213 3394 1622 3394 
Q 1922 3394 2156 3267 
Q 2391 3141 2538 2938 
L 2538 4581 
L 3097 4581 
L 3097 0 
L 2575 0 
z
M 797 1656 
Q 797 1019 1065 703 
Q 1334 388 1700 388 
Q 2069 388 2326 689 
Q 2584 991 2584 1609 
Q 2584 2291 2321 2609 
Q 2059 2928 1675 2928 
Q 1300 2928 1048 2622 
Q 797 2316 797 1656 
z
" transform="scale(0.015625)"/>
       <path id="ArialMT-6f" d="M 213 1659 
Q 213 2581 725 3025 
Q 1153 3394 1769 3394 
Q 2453 3394 2887 2945 
Q 3322 2497 3322 1706 
Q 3322 1066 3130 698 
Q 2938 331 2570 128 
Q 2203 -75 1769 -75 
Q 1072 -75 642 372 
Q 213 819 213 1659 
z
M 791 1659 
Q 791 1022 1069 705 
Q 1347 388 1769 388 
Q 2188 388 2466 706 
Q 2744 1025 2744 1678 
Q 2744 2294 2464 2611 
Q 2184 2928 1769 2928 
Q 1347 2928 1069 2612 
Q 791 2297 791 1659 
z
" transform="scale(0.015625)"/>
       <path id="ArialMT-6d" d="M 422 0 
L 422 3319 
L 925 3319 
L 925 2853 
Q 1081 3097 1340 3245 
Q 1600 3394 1931 3394 
Q 2300 3394 2536 3241 
Q 2772 3088 2869 2813 
Q 3263 3394 3894 3394 
Q 4388 3394 4653 3120 
Q 4919 2847 4919 2278 
L 4919 0 
L 4359 0 
L 4359 2091 
Q 4359 2428 4304 2576 
Q 4250 2725 4106 2815 
Q 3963 2906 3769 2906 
Q 3419 2906 3187 2673 
Q 2956 2441 2956 1928 
L 2956 0 
L 2394 0 
L 2394 2156 
Q 2394 2531 2256 2718 
Q 2119 2906 1806 2906 
Q 1569 2906 1367 2781 
Q 1166 2656 1075 2415 
Q 984 2175 984 1722 
L 984 0 
L 422 0 
z
" transform="scale(0.015625)"/>
       <path id="ArialMT-6c" d="M 409 0 
L 409 4581 
L 972 4581 
L 972 0 
L 409 0 
z
" transform="scale(0.015625)"/>
       <path id="ArialMT-73" d="M 197 991 
L 753 1078 
Q 800 744 1014 566 
Q 1228 388 1613 388 
Q 2000 388 2187 545 
Q 2375 703 2375 916 
Q 2375 1106 2209 1216 
Q 2094 1291 1634 1406 
Q 1016 1563 777 1677 
Q 538 1791 414 1992 
Q 291 2194 291 2438 
Q 291 2659 392 2848 
Q 494 3038 669 3163 
Q 800 3259 1026 3326 
Q 1253 3394 1513 3394 
Q 1903 3394 2198 3281 
Q 2494 3169 2634 2976 
Q 2775 2784 2828 2463 
L 2278 2388 
Q 2241 2644 2061 2787 
Q 1881 2931 1553 2931 
Q 1166 2931 1000 2803 
Q 834 2675 834 2503 
Q 834 2394 903 2306 
Q 972 2216 1119 2156 
Q 1203 2125 1616 2013 
Q 2213 1853 2448 1751 
Q 2684 1650 2818 1456 
Q 2953 1263 2953 975 
Q 2953 694 2789 445 
Q 2625 197 2315 61 
Q 2006 -75 1616 -75 
Q 969 -75 630 194 
Q 291 463 197 991 
z
" transform="scale(0.015625)"/>
       <path id="ArialMT-69" d="M 425 3934 
L 425 4581 
L 988 4581 
L 988 3934 
L 425 3934 
z
M 425 0 
L 425 3319 
L 988 3319 
L 988 0 
L 425 0 
z
" transform="scale(0.015625)"/>
       <path id="ArialMT-66" d="M 556 0 
L 556 2881 
L 59 2881 
L 59 3319 
L 556 3319 
L 556 3672 
Q 556 4006 616 4169 
Q 697 4388 901 4523 
Q 1106 4659 1475 4659 
Q 1713 4659 2000 4603 
L 1916 4113 
Q 1741 4144 1584 4144 
Q 1328 4144 1222 4034 
Q 1116 3925 1116 3625 
L 1116 3319 
L 1763 3319 
L 1763 2881 
L 1116 2881 
L 1116 0 
L 556 0 
z
" transform="scale(0.015625)"/>
      </defs>
      <use xlink:href="#ArialMT-52"/>
      <use xlink:href="#ArialMT-61" transform="translate(72.216797 0)"/>
      <use xlink:href="#ArialMT-6e" transform="translate(127.832031 0)"/>
      <use xlink:href="#ArialMT-64" transform="translate(183.447266 0)"/>
      <use xlink:href="#ArialMT-6f" transform="translate(239.0625 0)"/>
      <use xlink:href="#ArialMT-6d" transform="translate(294.677734 0)"/>
      <use xlink:href="#ArialMT-20" transform="translate(377.978516 0)"/>
      <use xlink:href="#ArialMT-63" transform="translate(405.761719 0)"/>
      <use xlink:href="#ArialMT-6c" transform="translate(455.761719 0)"/>
      <use xlink:href="#ArialMT-61" transform="translate(477.978516 0)"/>
      <use xlink:href="#ArialMT-73" transform="translate(533.59375 0)"/>
      <use xlink:href="#ArialMT-73" transform="translate(583.59375 0)"/>
      <use xlink:href="#ArialMT-69" transform="translate(633.59375 0)"/>
      <use xlink:href="#ArialMT-66" transform="translate(655.810547 0)"/>
      <use xlink:href="#ArialMT-69" transform="translate(683.59375 0)"/>
      <use xlink:href="#ArialMT-65" transform="translate(705.810547 0)"/>
      <use xlink:href="#ArialMT-72" transform="translate(761.425781 0)"/>
     </g>
    </g>
   </g>
  </g>
 </g>
 <defs>
  <clipPath id="p27cbd96102">
   <rect x="35.655938" y="19.751719" width="253.543583" height="245.271083"/>
  </clipPath>
 </defs>
</svg>
