<?xml version="1.0" encoding="utf-8" standalone="no"?>
<!DOCTYPE svg PUBLIC "-//W3C//DTD SVG 1.1//EN"
  "http://www.w3.org/Graphics/SVG/1.1/DTD/svg11.dtd">
<svg xmlns:xlink="http://www.w3.org/1999/xlink" width="296.39952pt" height="296.39952pt" viewBox="0 0 296.39952 296.39952" xmlns="http://www.w3.org/2000/svg" version="1.1">
 <metadata>
  <rdf:RDF xmlns:dc="http://purl.org/dc/elements/1.1/" xmlns:cc="http://creativecommons.org/ns#" xmlns:rdf="http://www.w3.org/1999/02/22-rdf-syntax-ns#">
   <cc:Work>
    <dc:type rdf:resource="http://purl.org/dc/dcmitype/StillImage"/>
    <dc:date>2025-12-27T08:43:46.067201</dc:date>
    <dc:format>image/svg+xml</dc:format>
    <dc:creator>
     <cc:Agent>
      <dc:title>Matplotlib v3.10.8, https://matplotlib.org/</dc:title>
     </cc:Agent>
    </dc:creator>
   </cc:Work>
  </rdf:RDF>
 </metadata>
 <defs>
  <style type="text/css">*{stroke-linejoin: round; stroke-linecap: butt}</style>
 </defs>
 <g id="figure_1">
  <g id="patch_1">
   <path d="M 0 296.39952 
L 296.39952 296.39952 
L 296.39952 0 
L 0 0 
z
" style="fill: #ffffff"/>
  </g>
  <g id="axes_1">
   <g id="patch_2">
    <path d="M 35.655938 265.022801 
L 289.19952 265.022801 
L 289.19952 19.642031 
L 35.655938 19.642031 
z
" style="fill: #ffffff"/>
   </g>
   <g id="matplotlib.axis_1">
    <g id="xtick_1">
     <g id="line2d_1">
      <path d="M 42.831699 265.022801 
L 42.831699 19.642031 
" clip-path="url(#p5eb0918316)" style="fill: none; stroke: #c0c0c0; stroke-width: 0.25; stroke-linecap: round"/>
     </g>
     <g id="line2d_2"/>
     <g id="text_1">
      <!-- 0.0 -->
      <g style="fill: #333333" transform="translate(36.576699 274.964832) scale(0.09 -0.09)">
       <defs>
        <path id="ArialMT-30" d="M 266 2259 
Q 266 3072 433 3567 
Q 600 4063 929 4331 
Q 1259 4600 1759 4600 
Q 2128 4600 2406 4451 
Q 2684 4303 2865 4023 
Q 3047 3744 3150 3342 
Q 3253 2941 3253 2259 
Q 3253 1453 3087 958 
Q 2922 463 2592 192 
Q 2263 -78 1759 -78 
Q 1097 -78 719 397 
Q 266 969 266 2259 
z
M 844 2259 
Q 844 1131 1108 757 
Q 1372 384 1759 384 
Q 2147 384 2411 759 
Q 2675 1134 2675 2259 
Q 2675 3391 2411 3762 
Q 2147 4134 1753 4134 
Q 1366 4134 1134 3806 
Q 844 3388 844 2259 
z
" transform="scale(0.015625)"/>
        <path id="ArialMT-2e" d="M 581 0 
L 581 641 
L 1222 641 
L 1222 0 
L 581 0 
z
" transform="scale(0.015625)"/>
       </defs>
       <use xlink:href="#ArialMT-30"/>
       <use xlink:href="#ArialMT-2e" transform="translate(55.615234 0)"/>
       <use xlink:href="#ArialMT-30" transform="translate(83.398438 0)"/>
      </g>
     </g>
    </g>
    <g id="xtick_2">
     <g id="line2d_3">
      <path d="M 90.670111 265.022801 
L 90.670111 19.642031 
" clip-path="url(#p5eb0918316)" style="fill: none; stroke: #c0c0c0; stroke-width: 0.25; stroke-linecap: round"/>
     </g>
     <g id="line2d_4"/>
     <g id="text_2">
      <!-- 0.2 -->
      <g style="fill: #333333" transform="translate(84.415111 274.964832) scale(0.09 -0.09)">
       <defs>
        <path id="ArialMT-32" d="M 3222 541 
L 3222 0 
L 194 0 
Q 188 203 259 391 
Q 375 700 629 1000 
Q 884 1300 1366 1694 
Q 2113 2306 2375 2664 
Q 2638 3022 2638 3341 
Q 2638 3675 2398 3904 
Q 2159 4134 1775 4134 
Q 1369 4134 1125 3890 
Q 881 3647 878 3216 
L 300 3275 
Q 359 3922 746 4261 
Q 1134 4600 1788 4600 
Q 2447 4600 2831 4234 
Q 3216 3869 3216 3328 
Q 3216 3053 3103 2787 
Q 2991 2522 2730 2228 
Q 2469 1934 1863 1422 
Q 1356 997 1212 845 
Q 1069 694 975 541 
L 3222 541 
z
" transform="scale(0.015625)"/>
       </defs>
       <use xlink:href="#ArialMT-30"/>
       <use xlink:href="#ArialMT-2e" transform="translate(55.615234 0)"/>
       <use xlink:href="#ArialMT-32" transform="translate(83.398438 0)"/>
      </g>
     </g>
    </g>
    <g id="xtick_3">
     <g id="line2d_5">
      <path d="M 138.508523 265.022801 
L 138.508523 19.642031 
" clip-path="url(#p5eb0918316)" style="fill: none; stroke: #c0c0c0; stroke-width: 0.25; stroke-linecap: round"/>
     </g>
     <g id="line2d_6"/>
     <g id="text_3">
      <!-- 0.4 -->
      <g style="fill: #333333" transform="translate(132.253523 274.964832) scale(0.09 -0.09)">
       <defs>
        <path id="ArialMT-34" d="M 2069 0 
L 2069 1097 
L 81 1097 
L 81 1613 
L 2172 4581 
L 2631 4581 
L 2631 1613 
L 3250 1613 
L 3250 1097 
L 2631 1097 
L 2631 0 
L 2069 0 
z
M 2069 1613 
L 2069 3678 
L 634 1613 
L 2069 1613 
z
" transform="scale(0.015625)"/>
       </defs>
       <use xlink:href="#ArialMT-30"/>
       <use xlink:href="#ArialMT-2e" transform="translate(55.615234 0)"/>
       <use xlink:href="#ArialMT-34" transform="translate(83.398438 0)"/>
      </g>
     </g>
    </g>
    <g id="xtick_4">
     <g id="line2d_7">
      <path d="M 186.346935 265.022801 
L 186.346935 19.642031 
" clip-path="url(#p5eb0918316)" style="fill: none; stroke: #c0c0c0; stroke-width: 0.25; stroke-linecap: round"/>
     </g>
     <g id="line2d_8"/>
     <g id="text_4">
      <!-- 0.6 -->
      <g style="fill: #333333" transform="translate(180.091935 274.964832) scale(0.09 -0.09)">
       <defs>
        <path id="ArialMT-36" d="M 3184 3459 
L 2625 3416 
Q 2550 3747 2413 3897 
Q 2184 4138 1850 4138 
Q 1581 4138 1378 3988 
Q 1113 3794 959 3422 
Q 806 3050 800 2363 
Q 1003 2672 1297 2822 
Q 1591 2972 1913 2972 
Q 2475 2972 2870 2558 
Q 3266 2144 3266 1488 
Q 3266 1056 3080 686 
Q 2894 316 2569 119 
Q 2244 -78 1831 -78 
Q 1128 -78 684 439 
Q 241 956 241 2144 
Q 241 3472 731 4075 
Q 1159 4600 1884 4600 
Q 2425 4600 2770 4297 
Q 3116 3994 3184 3459 
z
M 888 1484 
Q 888 1194 1011 928 
Q 1134 663 1356 523 
Q 1578 384 1822 384 
Q 2178 384 2434 671 
Q 2691 959 2691 1453 
Q 2691 1928 2437 2201 
Q 2184 2475 1800 2475 
Q 1419 2475 1153 2201 
Q 888 1928 888 1484 
z
" transform="scale(0.015625)"/>
       </defs>
       <use xlink:href="#ArialMT-30"/>
       <use xlink:href="#ArialMT-2e" transform="translate(55.615234 0)"/>
       <use xlink:href="#ArialMT-36" transform="translate(83.398438 0)"/>
      </g>
     </g>
    </g>
    <g id="xtick_5">
     <g id="line2d_9">
      <path d="M 234.185346 265.022801 
L 234.185346 19.642031 
" clip-path="url(#p5eb0918316)" style="fill: none; stroke: #c0c0c0; stroke-width: 0.25; stroke-linecap: round"/>
     </g>
     <g id="line2d_10"/>
     <g id="text_5">
      <!-- 0.8 -->
      <g style="fill: #333333" transform="translate(227.930346 274.964832) scale(0.09 -0.09)">
       <defs>
        <path id="ArialMT-38" d="M 1131 2484 
Q 781 2613 612 2850 
Q 444 3088 444 3419 
Q 444 3919 803 4259 
Q 1163 4600 1759 4600 
Q 2359 4600 2725 4251 
Q 3091 3903 3091 3403 
Q 3091 3084 2923 2848 
Q 2756 2613 2416 2484 
Q 2838 2347 3058 2040 
Q 3278 1734 3278 1309 
Q 3278 722 2862 322 
Q 2447 -78 1769 -78 
Q 1091 -78 675 323 
Q 259 725 259 1325 
Q 259 1772 486 2073 
Q 713 2375 1131 2484 
z
M 1019 3438 
Q 1019 3113 1228 2906 
Q 1438 2700 1772 2700 
Q 2097 2700 2305 2904 
Q 2513 3109 2513 3406 
Q 2513 3716 2298 3927 
Q 2084 4138 1766 4138 
Q 1444 4138 1231 3931 
Q 1019 3725 1019 3438 
z
M 838 1322 
Q 838 1081 952 856 
Q 1066 631 1291 507 
Q 1516 384 1775 384 
Q 2178 384 2440 643 
Q 2703 903 2703 1303 
Q 2703 1709 2433 1975 
Q 2163 2241 1756 2241 
Q 1359 2241 1098 1978 
Q 838 1716 838 1322 
z
" transform="scale(0.015625)"/>
       </defs>
       <use xlink:href="#ArialMT-30"/>
       <use xlink:href="#ArialMT-2e" transform="translate(55.615234 0)"/>
       <use xlink:href="#ArialMT-38" transform="translate(83.398438 0)"/>
      </g>
     </g>
    </g>
    <g id="xtick_6">
     <g id="line2d_11">
      <path d="M 282.023758 265.022801 
L 282.023758 19.642031 
" clip-path="url(#p5eb0918316)" style="fill: none; stroke: #c0c0c0; stroke-width: 0.25; stroke-linecap: round"/>
     </g>
     <g id="line2d_12"/>
     <g id="text_6">
      <!-- 1.0 -->
      <g style="fill: #333333" transform="translate(275.768758 274.964832) scale(0.09 -0.09)">
       <defs>
        <path id="ArialMT-31" d="M 2384 0 
L 1822 0 
L 1822 3584 
Q 1619 3391 1289 3197 
Q 959 3003 697 2906 
L 697 3450 
Q 1169 3672 1522 3987 
Q 1875 4303 2022 4600 
L 2384 4600 
L 2384 0 
z
" transform="scale(0.015625)"/>
       </defs>
       <use xlink:href="#ArialMT-31"/>
       <use xlink:href="#ArialMT-2e" transform="translate(55.615234 0)"/>
       <use xlink:href="#ArialMT-30" transform="translate(83.398438 0)"/>
      </g>
     </g>
    </g>
    <g id="text_7">
     <!-- Recall [TP / (TP + FN)] -->
     <g style="fill: #333333" transform="translate(115.706479 287.305301) scale(0.09 -0.09)">
      <defs>
       <path id="Arial-BoldMT-52" d="M 469 0 
L 469 4581 
L 2416 4581 
Q 3150 4581 3483 4457 
Q 3816 4334 4016 4018 
Q 4216 3703 4216 3297 
Q 4216 2781 3912 2445 
Q 3609 2109 3006 2022 
Q 3306 1847 3501 1637 
Q 3697 1428 4028 894 
L 4588 0 
L 3481 0 
L 2813 997 
Q 2456 1531 2325 1670 
Q 2194 1809 2047 1861 
Q 1900 1913 1581 1913 
L 1394 1913 
L 1394 0 
L 469 0 
z
M 1394 2644 
L 2078 2644 
Q 2744 2644 2909 2700 
Q 3075 2756 3169 2893 
Q 3263 3031 3263 3238 
Q 3263 3469 3139 3611 
Q 3016 3753 2791 3791 
Q 2678 3806 2116 3806 
L 1394 3806 
L 1394 2644 
z
" transform="scale(0.015625)"/>
       <path id="Arial-BoldMT-65" d="M 2381 1056 
L 3256 909 
Q 3088 428 2723 176 
Q 2359 -75 1813 -75 
Q 947 -75 531 491 
Q 203 944 203 1634 
Q 203 2459 634 2926 
Q 1066 3394 1725 3394 
Q 2466 3394 2894 2905 
Q 3322 2416 3303 1406 
L 1103 1406 
Q 1113 1016 1316 798 
Q 1519 581 1822 581 
Q 2028 581 2168 693 
Q 2309 806 2381 1056 
z
M 2431 1944 
Q 2422 2325 2234 2523 
Q 2047 2722 1778 2722 
Q 1491 2722 1303 2513 
Q 1116 2303 1119 1944 
L 2431 1944 
z
" transform="scale(0.015625)"/>
       <path id="Arial-BoldMT-63" d="M 3353 2338 
L 2488 2181 
Q 2444 2441 2289 2572 
Q 2134 2703 1888 2703 
Q 1559 2703 1364 2476 
Q 1169 2250 1169 1719 
Q 1169 1128 1367 884 
Q 1566 641 1900 641 
Q 2150 641 2309 783 
Q 2469 925 2534 1272 
L 3397 1125 
Q 3263 531 2881 228 
Q 2500 -75 1859 -75 
Q 1131 -75 698 384 
Q 266 844 266 1656 
Q 266 2478 700 2936 
Q 1134 3394 1875 3394 
Q 2481 3394 2839 3133 
Q 3197 2872 3353 2338 
z
" transform="scale(0.015625)"/>
       <path id="Arial-BoldMT-61" d="M 1116 2306 
L 319 2450 
Q 453 2931 781 3162 
Q 1109 3394 1756 3394 
Q 2344 3394 2631 3255 
Q 2919 3116 3036 2902 
Q 3153 2688 3153 2116 
L 3144 1091 
Q 3144 653 3186 445 
Q 3228 238 3344 0 
L 2475 0 
Q 2441 88 2391 259 
Q 2369 338 2359 363 
Q 2134 144 1878 34 
Q 1622 -75 1331 -75 
Q 819 -75 523 203 
Q 228 481 228 906 
Q 228 1188 362 1408 
Q 497 1628 739 1745 
Q 981 1863 1438 1950 
Q 2053 2066 2291 2166 
L 2291 2253 
Q 2291 2506 2166 2614 
Q 2041 2722 1694 2722 
Q 1459 2722 1328 2630 
Q 1197 2538 1116 2306 
z
M 2291 1594 
Q 2122 1538 1756 1459 
Q 1391 1381 1278 1306 
Q 1106 1184 1106 997 
Q 1106 813 1243 678 
Q 1381 544 1594 544 
Q 1831 544 2047 700 
Q 2206 819 2256 991 
Q 2291 1103 2291 1419 
L 2291 1594 
z
" transform="scale(0.015625)"/>
       <path id="Arial-BoldMT-6c" d="M 459 0 
L 459 4581 
L 1338 4581 
L 1338 0 
L 459 0 
z
" transform="scale(0.015625)"/>
       <path id="Arial-BoldMT-20" transform="scale(0.015625)"/>
       <path id="Arial-BoldMT-5b" d="M 456 -1291 
L 456 4581 
L 2013 4581 
L 2013 3891 
L 1291 3891 
L 1291 -600 
L 2013 -600 
L 2013 -1291 
L 456 -1291 
z
" transform="scale(0.015625)"/>
       <path id="Arial-BoldMT-54" d="M 1497 0 
L 1497 3806 
L 138 3806 
L 138 4581 
L 3778 4581 
L 3778 3806 
L 2422 3806 
L 2422 0 
L 1497 0 
z
" transform="scale(0.015625)"/>
       <path id="Arial-BoldMT-50" d="M 466 0 
L 466 4581 
L 1950 4581 
Q 2794 4581 3050 4513 
Q 3444 4409 3709 4064 
Q 3975 3719 3975 3172 
Q 3975 2750 3822 2462 
Q 3669 2175 3433 2011 
Q 3197 1847 2953 1794 
Q 2622 1728 1994 1728 
L 1391 1728 
L 1391 0 
L 466 0 
z
M 1391 3806 
L 1391 2506 
L 1897 2506 
Q 2444 2506 2628 2578 
Q 2813 2650 2917 2803 
Q 3022 2956 3022 3159 
Q 3022 3409 2875 3571 
Q 2728 3734 2503 3775 
Q 2338 3806 1838 3806 
L 1391 3806 
z
" transform="scale(0.015625)"/>
       <path id="Arial-BoldMT-2f" d="M -9 -78 
L 1125 4659 
L 1784 4659 
L 638 -78 
L -9 -78 
z
" transform="scale(0.015625)"/>
       <path id="Arial-BoldMT-28" d="M 1916 -1347 
L 1313 -1347 
Q 834 -625 584 153 
Q 334 931 334 1659 
Q 334 2563 644 3369 
Q 913 4069 1325 4659 
L 1925 4659 
Q 1497 3713 1336 3048 
Q 1175 2384 1175 1641 
Q 1175 1128 1270 590 
Q 1366 53 1531 -431 
Q 1641 -750 1916 -1347 
z
" transform="scale(0.015625)"/>
       <path id="Arial-BoldMT-2b" d="M 1466 659 
L 1466 1850 
L 266 1850 
L 266 2672 
L 1466 2672 
L 1466 3863 
L 2266 3863 
L 2266 2672 
L 3469 2672 
L 3469 1850 
L 2266 1850 
L 2266 659 
L 1466 659 
z
" transform="scale(0.015625)"/>
       <path id="Arial-BoldMT-46" d="M 472 0 
L 472 4581 
L 3613 4581 
L 3613 3806 
L 1397 3806 
L 1397 2722 
L 3309 2722 
L 3309 1947 
L 1397 1947 
L 1397 0 
L 472 0 
z
" transform="scale(0.015625)"/>
       <path id="Arial-BoldMT-4e" d="M 475 0 
L 475 4581 
L 1375 4581 
L 3250 1522 
L 3250 4581 
L 4109 4581 
L 4109 0 
L 3181 0 
L 1334 2988 
L 1334 0 
L 475 0 
z
" transform="scale(0.015625)"/>
       <path id="Arial-BoldMT-29" d="M 216 -1347 
Q 475 -791 581 -494 
Q 688 -197 778 190 
Q 869 578 912 926 
Q 956 1275 956 1641 
Q 956 2384 797 3048 
Q 638 3713 209 4659 
L 806 4659 
Q 1278 3988 1539 3234 
Q 1800 2481 1800 1706 
Q 1800 1053 1594 306 
Q 1359 -531 822 -1347 
L 216 -1347 
z
" transform="scale(0.015625)"/>
       <path id="Arial-BoldMT-5d" d="M 1675 4581 
L 1675 -1291 
L 119 -1291 
L 119 -600 
L 841 -600 
L 841 3897 
L 119 3897 
L 119 4581 
L 1675 4581 
z
" transform="scale(0.015625)"/>
      </defs>
      <use xlink:href="#Arial-BoldMT-52"/>
      <use xlink:href="#Arial-BoldMT-65" transform="translate(72.216797 0)"/>
      <use xlink:href="#Arial-BoldMT-63" transform="translate(127.832031 0)"/>
      <use xlink:href="#Arial-BoldMT-61" transform="translate(183.447266 0)"/>
      <use xlink:href="#Arial-BoldMT-6c" transform="translate(239.0625 0)"/>
      <use xlink:href="#Arial-BoldMT-6c" transform="translate(266.845703 0)"/>
      <use xlink:href="#Arial-BoldMT-20" transform="translate(294.628906 0)"/>
      <use xlink:href="#Arial-BoldMT-5b" transform="translate(322.412109 0)"/>
      <use xlink:href="#Arial-BoldMT-54" transform="translate(355.712891 0)"/>
      <use xlink:href="#Arial-BoldMT-50" transform="translate(416.796875 0)"/>
      <use xlink:href="#Arial-BoldMT-20" transform="translate(481.746094 0)"/>
      <use xlink:href="#Arial-BoldMT-2f" transform="translate(509.529297 0)"/>
      <use xlink:href="#Arial-BoldMT-20" transform="translate(537.3125 0)"/>
      <use xlink:href="#Arial-BoldMT-28" transform="translate(565.095703 0)"/>
      <use xlink:href="#Arial-BoldMT-54" transform="translate(598.396484 0)"/>
      <use xlink:href="#Arial-BoldMT-50" transform="translate(659.480469 0)"/>
      <use xlink:href="#Arial-BoldMT-20" transform="translate(724.429688 0)"/>
      <use xlink:href="#Arial-BoldMT-2b" transform="translate(752.212891 0)"/>
      <use xlink:href="#Arial-BoldMT-20" transform="translate(810.611328 0)"/>
      <use xlink:href="#Arial-BoldMT-46" transform="translate(838.394531 0)"/>
      <use xlink:href="#Arial-BoldMT-4e" transform="translate(899.478516 0)"/>
      <use xlink:href="#Arial-BoldMT-29" transform="translate(971.695312 0)"/>
      <use xlink:href="#Arial-BoldMT-5d" transform="translate(1004.996094 0)"/>
     </g>
    </g>
   </g>
   <g id="matplotlib.axis_2">
    <g id="ytick_1">
     <g id="line2d_13">
      <path d="M 35.655938 265.022801 
L 289.19952 265.022801 
" clip-path="url(#p5eb0918316)" style="fill: none; stroke: #c0c0c0; stroke-width: 0.25; stroke-linecap: round"/>
     </g>
     <g id="line2d_14"/>
     <g id="text_8">
      <!-- 0.0 -->
      <g style="fill: #333333" transform="translate(19.645938 268.243817) scale(0.09 -0.09)">
       <use xlink:href="#ArialMT-30"/>
       <use xlink:href="#ArialMT-2e" transform="translate(55.615234 0)"/>
       <use xlink:href="#ArialMT-30" transform="translate(83.398438 0)"/>
      </g>
     </g>
    </g>
    <g id="ytick_2">
     <g id="line2d_15">
      <path d="M 35.655938 217.37605 
L 289.19952 217.37605 
" clip-path="url(#p5eb0918316)" style="fill: none; stroke: #c0c0c0; stroke-width: 0.25; stroke-linecap: round"/>
     </g>
     <g id="line2d_16"/>
     <g id="text_9">
      <!-- 0.2 -->
      <g style="fill: #333333" transform="translate(19.645938 220.597065) scale(0.09 -0.09)">
       <use xlink:href="#ArialMT-30"/>
       <use xlink:href="#ArialMT-2e" transform="translate(55.615234 0)"/>
       <use xlink:href="#ArialMT-32" transform="translate(83.398438 0)"/>
      </g>
     </g>
    </g>
    <g id="ytick_3">
     <g id="line2d_17">
      <path d="M 35.655938 169.729298 
L 289.19952 169.729298 
" clip-path="url(#p5eb0918316)" style="fill: none; stroke: #c0c0c0; stroke-width: 0.25; stroke-linecap: round"/>
     </g>
     <g id="line2d_18"/>
     <g id="text_10">
      <!-- 0.4 -->
      <g style="fill: #333333" transform="translate(19.645938 172.950314) scale(0.09 -0.09)">
       <use xlink:href="#ArialMT-30"/>
       <use xlink:href="#ArialMT-2e" transform="translate(55.615234 0)"/>
       <use xlink:href="#ArialMT-34" transform="translate(83.398438 0)"/>
      </g>
     </g>
    </g>
    <g id="ytick_4">
     <g id="line2d_19">
      <path d="M 35.655938 122.082547 
L 289.19952 122.082547 
" clip-path="url(#p5eb0918316)" style="fill: none; stroke: #c0c0c0; stroke-width: 0.25; stroke-linecap: round"/>
     </g>
     <g id="line2d_20"/>
     <g id="text_11">
      <!-- 0.6 -->
      <g style="fill: #333333" transform="translate(19.645938 125.303563) scale(0.09 -0.09)">
       <use xlink:href="#ArialMT-30"/>
       <use xlink:href="#ArialMT-2e" transform="translate(55.615234 0)"/>
       <use xlink:href="#ArialMT-36" transform="translate(83.398438 0)"/>
      </g>
     </g>
    </g>
    <g id="ytick_5">
     <g id="line2d_21">
      <path d="M 35.655938 74.435795 
L 289.19952 74.435795 
" clip-path="url(#p5eb0918316)" style="fill: none; stroke: #c0c0c0; stroke-width: 0.25; stroke-linecap: round"/>
     </g>
     <g id="line2d_22"/>
     <g id="text_12">
      <!-- 0.8 -->
      <g style="fill: #333333" transform="translate(19.645938 77.656811) scale(0.09 -0.09)">
       <use xlink:href="#ArialMT-30"/>
       <use xlink:href="#ArialMT-2e" transform="translate(55.615234 0)"/>
       <use xlink:href="#ArialMT-38" transform="translate(83.398438 0)"/>
      </g>
     </g>
    </g>
    <g id="ytick_6">
     <g id="line2d_23">
      <path d="M 35.655938 26.789044 
L 289.19952 26.789044 
" clip-path="url(#p5eb0918316)" style="fill: none; stroke: #c0c0c0; stroke-width: 0.25; stroke-linecap: round"/>
     </g>
     <g id="line2d_24"/>
     <g id="text_13">
      <!-- 1.0 -->
      <g style="fill: #333333" transform="translate(19.645938 30.01006) scale(0.09 -0.09)">
       <use xlink:href="#ArialMT-31"/>
       <use xlink:href="#ArialMT-2e" transform="translate(55.615234 0)"/>
       <use xlink:href="#ArialMT-30" transform="translate(83.398438 0)"/>
      </g>
     </g>
    </g>
    <g id="text_14">
     <!-- Precision [TP / (TP + FP)] -->
     <g style="fill: #333333" transform="translate(13.751719 195.805776) rotate(-90) scale(0.09 -0.09)">
      <defs>
       <path id="Arial-BoldMT-72" d="M 1300 0 
L 422 0 
L 422 3319 
L 1238 3319 
L 1238 2847 
Q 1447 3181 1614 3287 
Q 1781 3394 1994 3394 
Q 2294 3394 2572 3228 
L 2300 2463 
Q 2078 2606 1888 2606 
Q 1703 2606 1575 2504 
Q 1447 2403 1373 2137 
Q 1300 1872 1300 1025 
L 1300 0 
z
" transform="scale(0.015625)"/>
       <path id="Arial-BoldMT-69" d="M 459 3769 
L 459 4581 
L 1338 4581 
L 1338 3769 
L 459 3769 
z
M 459 0 
L 459 3319 
L 1338 3319 
L 1338 0 
L 459 0 
z
" transform="scale(0.015625)"/>
       <path id="Arial-BoldMT-73" d="M 150 947 
L 1031 1081 
Q 1088 825 1259 692 
Q 1431 559 1741 559 
Q 2081 559 2253 684 
Q 2369 772 2369 919 
Q 2369 1019 2306 1084 
Q 2241 1147 2013 1200 
Q 950 1434 666 1628 
Q 272 1897 272 2375 
Q 272 2806 612 3100 
Q 953 3394 1669 3394 
Q 2350 3394 2681 3172 
Q 3013 2950 3138 2516 
L 2309 2363 
Q 2256 2556 2107 2659 
Q 1959 2763 1684 2763 
Q 1338 2763 1188 2666 
Q 1088 2597 1088 2488 
Q 1088 2394 1175 2328 
Q 1294 2241 1995 2081 
Q 2697 1922 2975 1691 
Q 3250 1456 3250 1038 
Q 3250 581 2869 253 
Q 2488 -75 1741 -75 
Q 1063 -75 667 200 
Q 272 475 150 947 
z
" transform="scale(0.015625)"/>
       <path id="Arial-BoldMT-6f" d="M 256 1706 
Q 256 2144 472 2553 
Q 688 2963 1083 3178 
Q 1478 3394 1966 3394 
Q 2719 3394 3200 2905 
Q 3681 2416 3681 1669 
Q 3681 916 3195 420 
Q 2709 -75 1972 -75 
Q 1516 -75 1102 131 
Q 688 338 472 736 
Q 256 1134 256 1706 
z
M 1156 1659 
Q 1156 1166 1390 903 
Q 1625 641 1969 641 
Q 2313 641 2545 903 
Q 2778 1166 2778 1666 
Q 2778 2153 2545 2415 
Q 2313 2678 1969 2678 
Q 1625 2678 1390 2415 
Q 1156 2153 1156 1659 
z
" transform="scale(0.015625)"/>
       <path id="Arial-BoldMT-6e" d="M 3478 0 
L 2600 0 
L 2600 1694 
Q 2600 2231 2544 2389 
Q 2488 2547 2361 2634 
Q 2234 2722 2056 2722 
Q 1828 2722 1647 2597 
Q 1466 2472 1398 2265 
Q 1331 2059 1331 1503 
L 1331 0 
L 453 0 
L 453 3319 
L 1269 3319 
L 1269 2831 
Q 1703 3394 2363 3394 
Q 2653 3394 2893 3289 
Q 3134 3184 3257 3021 
Q 3381 2859 3429 2653 
Q 3478 2447 3478 2063 
L 3478 0 
z
" transform="scale(0.015625)"/>
      </defs>
      <use xlink:href="#Arial-BoldMT-50"/>
      <use xlink:href="#Arial-BoldMT-72" transform="translate(66.699219 0)"/>
      <use xlink:href="#Arial-BoldMT-65" transform="translate(105.615234 0)"/>
      <use xlink:href="#Arial-BoldMT-63" transform="translate(161.230469 0)"/>
      <use xlink:href="#Arial-BoldMT-69" transform="translate(216.845703 0)"/>
      <use xlink:href="#Arial-BoldMT-73" transform="translate(244.628906 0)"/>
      <use xlink:href="#Arial-BoldMT-69" transform="translate(300.244141 0)"/>
      <use xlink:href="#Arial-BoldMT-6f" transform="translate(328.027344 0)"/>
      <use xlink:href="#Arial-BoldMT-6e" transform="translate(389.111328 0)"/>
      <use xlink:href="#Arial-BoldMT-20" transform="translate(450.195312 0)"/>
      <use xlink:href="#Arial-BoldMT-5b" transform="translate(477.978516 0)"/>
      <use xlink:href="#Arial-BoldMT-54" transform="translate(511.279297 0)"/>
      <use xlink:href="#Arial-BoldMT-50" transform="translate(572.363281 0)"/>
      <use xlink:href="#Arial-BoldMT-20" transform="translate(637.3125 0)"/>
      <use xlink:href="#Arial-BoldMT-2f" transform="translate(665.095703 0)"/>
      <use xlink:href="#Arial-BoldMT-20" transform="translate(692.878906 0)"/>
      <use xlink:href="#Arial-BoldMT-28" transform="translate(720.662109 0)"/>
      <use xlink:href="#Arial-BoldMT-54" transform="translate(753.962891 0)"/>
      <use xlink:href="#Arial-BoldMT-50" transform="translate(815.046875 0)"/>
      <use xlink:href="#Arial-BoldMT-20" transform="translate(879.996094 0)"/>
      <use xlink:href="#Arial-BoldMT-2b" transform="translate(907.779297 0)"/>
      <use xlink:href="#Arial-BoldMT-20" transform="translate(966.177734 0)"/>
      <use xlink:href="#Arial-BoldMT-46" transform="translate(993.960938 0)"/>
      <use xlink:href="#Arial-BoldMT-50" transform="translate(1055.044922 0)"/>
      <use xlink:href="#Arial-BoldMT-29" transform="translate(1121.744141 0)"/>
      <use xlink:href="#Arial-BoldMT-5d" transform="translate(1155.044922 0)"/>
     </g>
    </g>
   </g>
   <g id="line2d_25">
    <path d="M 42.831699 265.022801 
L 42.942758 241.97871 
L 42.944771 241.878373 
L 43.055866 231.978445 
L 43.056934 231.878108 
L 43.16753 225.222412 
L 43.170469 225.122075 
L 43.280816 220.172111 
L 43.283096 220.071774 
L 43.394119 215.556603 
L 43.396915 215.456266 
L 43.507511 211.810684 
L 43.512214 211.710347 
L 43.622792 208.49956 
L 43.626764 208.399223 
L 43.737003 205.556338 
L 43.746283 205.456001 
L 43.857182 203.014464 
L 43.860495 202.914127 
L 43.970165 200.673265 
L 43.975918 200.572928 
L 44.08646 198.833751 
L 44.090682 198.733414 
L 44.200779 196.960791 
L 44.207156 196.860454 
L 44.316238 194.586146 
L 44.326711 194.485809 
L 44.430805 192.980753 
L 44.432747 192.980753 
L 44.453569 192.880415 
L 44.56217 190.840227 
L 44.572199 190.73989 
L 44.68112 189.268279 
L 44.688174 189.167942 
L 44.799072 187.328428 
L 44.805004 187.228091 
L 44.915564 185.52236 
L 44.936262 185.422023 
L 45.04415 183.749738 
L 45.057669 183.649401 
L 45.160018 182.244681 
L 45.161265 182.244681 
L 45.18207 182.144344 
L 45.29304 180.873407 
L 45.326491 180.77307 
L 45.435377 179.936928 
L 45.450945 179.83659 
L 45.561843 178.465317 
L 45.578925 178.364979 
L 45.689307 177.19438 
L 45.710058 177.094043 
L 45.820458 175.488649 
L 45.830843 175.388312 
L 45.940174 174.38494 
L 45.982638 174.284603 
L 46.093359 173.047112 
L 46.10996 172.946775 
L 46.218382 171.943404 
L 46.243337 171.843067 
L 46.354289 170.404902 
L 46.371086 170.304564 
L 46.473132 169.368085 
L 46.47958 169.368085 
L 46.489591 169.267748 
L 46.596125 168.331268 
L 46.599278 168.331268 
L 46.637645 168.230931 
L 46.747653 167.22756 
L 46.762455 167.127222 
L 46.87143 166.05696 
L 46.891326 165.956623 
L 46.998609 165.287709 
L 47.026396 165.187372 
L 47.134587 164.485012 
L 47.154519 164.384675 
L 47.264474 163.414749 
L 47.286864 163.314412 
L 47.394467 162.645498 
L 47.410338 162.545161 
L 47.520898 161.54179 
L 47.528041 161.441453 
L 47.637479 160.270853 
L 47.660759 160.170516 
L 47.771836 159.167145 
L 47.781152 159.066808 
L 47.882984 158.264111 
L 47.905445 158.163774 
L 47.999778 157.595197 
L 48.014438 157.595197 
L 48.030308 157.494859 
L 48.131499 156.825945 
L 48.140619 156.825945 
L 48.155973 156.725608 
L 48.26705 156.257368 
L 48.293163 156.157031 
L 48.404097 155.421226 
L 48.424919 155.320889 
L 48.535925 154.551637 
L 48.56918 154.4513 
L 48.671814 153.849278 
L 48.676819 153.849278 
L 48.707242 153.74894 
L 48.814935 153.046581 
L 48.825854 152.946244 
L 48.932513 152.377667 
L 48.935755 152.377667 
L 48.950788 152.277329 
L 49.046565 151.708752 
L 49.050216 151.708752 
L 49.075545 151.608415 
L 49.184431 150.772273 
L 49.185589 150.772273 
L 49.213091 150.671936 
L 49.323865 149.869239 
L 49.350048 149.768902 
L 49.457794 149.200325 
L 49.459041 149.200325 
L 49.485314 149.099987 
L 49.58264 148.497965 
L 49.622183 148.397628 
L 49.724781 147.862496 
L 49.729198 147.862496 
L 49.763754 147.762159 
L 49.872747 146.892571 
L 49.878108 146.792234 
L 49.987956 146.12332 
L 50.007389 146.022983 
L 50.099977 145.588188 
L 50.116239 145.588188 
L 50.163192 145.487851 
L 50.272167 144.95272 
L 50.293809 144.852383 
L 50.400219 144.384143 
L 50.410906 144.283806 
L 50.517441 143.548 
L 50.542004 143.447663 
L 50.643872 142.879086 
L 50.650284 142.879086 
L 50.690486 142.778749 
L 50.796308 142.143281 
L 50.799835 142.143281 
L 50.82723 142.042944 
L 50.921385 141.675041 
L 50.922935 141.675041 
L 50.955638 141.574704 
L 51.06089 140.972681 
L 51.066394 140.972681 
L 51.09566 140.872344 
L 51.204332 140.270321 
L 51.205329 140.270321 
L 51.257929 140.169984 
L 51.367937 139.634853 
L 51.402956 139.534516 
L 51.509401 139.099722 
L 51.530509 138.999385 
L 51.638771 138.397362 
L 51.641372 138.397362 
L 51.676462 138.297025 
L 51.787218 137.661556 
L 51.8367 137.561219 
L 51.946316 136.959197 
L 51.972322 136.858859 
L 52.072444 136.557848 
L 52.082116 136.557848 
L 52.128731 136.457511 
L 52.238258 135.92238 
L 52.269625 135.822043 
L 52.374645 135.22002 
L 52.374948 135.22002 
L 52.442065 135.119683 
L 52.549454 134.718334 
L 52.568959 134.617997 
L 52.665322 134.116312 
L 52.674549 134.116312 
L 52.698702 134.015974 
L 52.786855 133.547735 
L 52.808069 133.547735 
L 52.833469 133.447397 
L 52.936388 132.979158 
L 52.936816 132.979158 
L 52.967417 132.87882 
L 53.074664 132.310243 
L 53.124984 132.209906 
L 53.221846 131.775112 
L 53.234707 131.775112 
L 53.272415 131.674775 
L 53.363489 131.17309 
L 53.378932 131.17309 
L 53.419348 131.072752 
L 53.525081 130.671404 
L 53.545155 130.571067 
L 53.652758 130.136273 
L 53.671568 130.035936 
L 53.777444 129.400467 
L 53.805658 129.30013 
L 53.915702 128.698107 
L 53.943168 128.59777 
L 54.039176 128.36365 
L 54.095587 128.263313 
L 54.172732 127.828519 
L 54.20148 127.828519 
L 54.254133 127.728182 
L 54.360597 127.226496 
L 54.410578 127.126159 
L 54.514262 126.825148 
L 54.562409 126.724811 
L 54.672221 126.490691 
L 54.713206 126.390354 
L 54.798634 125.989005 
L 54.835238 125.888668 
L 54.943322 125.353537 
L 54.97232 125.2532 
L 55.071142 124.885297 
L 55.076094 124.885297 
L 55.095456 124.78496 
L 55.194688 124.450503 
L 55.231434 124.350166 
L 55.323719 124.049154 
L 55.326444 124.049154 
L 55.393382 123.948817 
L 55.499187 123.547469 
L 55.566446 123.447132 
L 55.668171 123.14612 
L 55.742341 123.045783 
L 55.847326 122.845109 
L 55.892747 122.744772 
L 55.9962 122.510652 
L 56.002969 122.510652 
L 56.039697 122.410315 
L 56.122132 122.075858 
L 56.149777 122.075858 
L 56.192098 121.975521 
L 56.301269 121.373498 
L 56.361029 121.273161 
L 56.470325 120.905258 
L 56.514303 120.804921 
L 56.613339 120.303235 
L 56.652436 120.202898 
L 56.756531 119.868441 
L 56.787595 119.768104 
L 56.875373 119.366756 
L 56.875908 119.366756 
L 56.941296 119.266419 
L 57.044447 118.898516 
L 57.104474 118.798179 
L 57.141131 118.63095 
L 57.204008 118.63095 
L 57.258015 118.530613 
L 57.359455 118.16271 
L 57.360506 118.16271 
L 57.422581 118.062373 
L 57.490642 117.861699 
L 57.516541 117.861699 
L 57.563868 117.761362 
L 57.67327 117.360013 
L 57.709268 117.259676 
L 57.816818 116.858328 
L 57.848773 116.757991 
L 57.955005 116.390088 
L 57.956288 116.390088 
L 57.985589 116.289751 
L 58.090378 115.921848 
L 58.092337 115.921848 
L 58.15639 115.821511 
L 58.257082 115.5205 
L 58.284602 115.420162 
L 58.395696 115.018814 
L 58.460693 114.918477 
L 58.547242 114.416791 
L 58.562312 114.416791 
L 58.634665 114.316454 
L 58.722853 114.015443 
L 58.7451 114.015443 
L 58.80486 113.915106 
L 58.914049 113.41342 
L 58.936403 113.313083 
L 59.002041 113.012072 
L 59.042047 113.012072 
L 59.100934 112.911735 
L 59.198634 112.71106 
L 59.234775 112.610723 
L 59.345086 112.24282 
L 59.354722 112.142483 
L 59.451104 111.774581 
L 59.486496 111.674243 
L 59.596487 111.339786 
L 59.655463 111.239449 
L 59.761463 111.038775 
L 59.765115 111.038775 
L 59.841369 110.938438 
L 59.948206 110.670872 
L 59.95216 110.670872 
L 59.987963 110.570535 
L 60.077077 110.202632 
L 60.093322 110.202632 
L 60.145298 110.102295 
L 60.252723 109.734393 
L 60.269128 109.634055 
L 60.368894 109.36649 
L 60.377604 109.36649 
L 60.415704 109.266153 
L 60.485564 109.13237 
L 60.50758 109.13237 
L 60.548815 109.032033 
L 60.643059 108.597239 
L 60.65665 108.597239 
L 60.720204 108.496901 
L 60.809834 107.96177 
L 60.862095 107.861433 
L 60.964836 107.393193 
L 61.021087 107.292856 
L 61.130258 106.958399 
L 61.233283 106.858062 
L 61.340905 106.490159 
L 61.411316 106.389822 
L 61.518991 106.088811 
L 61.520576 106.088811 
L 61.586766 105.988474 
L 61.693675 105.754354 
L 61.787385 105.654017 
L 61.898319 105.486788 
L 62.008523 105.386451 
L 62.107042 104.918211 
L 62.107772 104.918211 
L 62.150504 104.817874 
L 62.258517 104.684091 
L 62.380797 104.583754 
L 62.46439 104.282743 
L 62.489915 104.282743 
L 62.579991 104.182406 
L 62.688859 103.847948 
L 62.689465 103.847948 
L 62.787628 103.747611 
L 62.880358 103.613829 
L 62.895463 103.613829 
L 62.95777 103.513491 
L 63.066014 103.245926 
L 63.068223 103.245926 
L 63.153989 103.145589 
L 63.256355 103.011806 
L 63.260612 103.011806 
L 63.331184 102.911469 
L 63.392547 102.777686 
L 63.420726 102.777686 
L 63.4566 102.677349 
L 63.563241 102.342892 
L 63.565681 102.342892 
L 63.595535 102.242555 
L 63.706309 101.974989 
L 63.736482 101.874652 
L 63.845689 101.573641 
L 63.862878 101.473303 
L 63.970392 100.971618 
L 64.058847 100.871281 
L 64.161659 100.637161 
L 64.169016 100.637161 
L 64.203874 100.536824 
L 64.302126 100.269258 
L 64.376492 100.168921 
L 64.466906 99.834464 
L 64.486678 99.834464 
L 64.526666 99.734127 
L 64.604434 99.533453 
L 64.637529 99.533453 
L 64.678818 99.433115 
L 64.762606 99.132104 
L 64.762713 99.132104 
L 64.813977 99.031767 
L 64.916575 98.831093 
L 64.924875 98.831093 
L 64.954515 98.730756 
L 65.06365 98.46319 
L 65.162989 98.362853 
L 65.23568 98.162179 
L 65.273335 98.162179 
L 65.431204 98.061841 
L 65.531149 97.894613 
L 65.534088 97.894613 
L 65.606761 97.794276 
L 65.708326 97.52671 
L 65.713349 97.52671 
L 65.825049 97.426373 
L 65.878753 97.125362 
L 65.928663 97.125362 
L 66.083896 97.025025 
L 66.183876 96.82435 
L 66.184428 96.82435 
L 66.342956 96.724013 
L 66.450916 96.489893 
L 66.507577 96.389556 
L 66.609231 96.055099 
L 66.613595 96.055099 
L 66.718597 95.954762 
L 66.821481 95.653751 
L 66.88222 95.553414 
L 66.968253 95.319294 
L 66.989182 95.319294 
L 67.091691 95.218957 
L 67.18134 94.8845 
L 67.18517 94.8845 
L 67.289407 94.784162 
L 67.396689 94.449705 
L 67.400252 94.449705 
L 67.436161 94.349368 
L 67.491806 94.148694 
L 67.543943 94.148694 
L 67.577732 94.048357 
L 67.660684 93.814237 
L 67.6726 93.814237 
L 67.769498 93.7139 
L 67.85407 93.47978 
L 67.878188 93.47978 
L 67.969903 93.379443 
L 68.0419 93.111877 
L 68.069527 93.111877 
L 68.179962 93.01154 
L 68.284751 92.810866 
L 68.290807 92.810866 
L 68.328444 92.710529 
L 68.430473 92.610192 
L 68.473204 92.509854 
L 68.571527 92.442963 
L 68.665932 92.342626 
L 68.75941 92.141952 
L 68.920967 92.041615 
L 69.003205 91.874386 
L 69.03028 91.874386 
L 69.076004 91.774049 
L 69.165154 91.573375 
L 69.182841 91.573375 
L 69.228423 91.473038 
L 69.282928 91.339255 
L 69.338074 91.339255 
L 69.398618 91.238918 
L 69.474605 91.004798 
L 69.506916 91.004798 
L 69.566195 90.904461 
L 69.664714 90.770678 
L 69.672551 90.770678 
L 69.818219 90.670341 
L 69.928797 90.335884 
L 70.064206 90.235547 
L 70.160872 90.068318 
L 70.168229 90.068318 
L 70.20266 89.967981 
L 70.271148 89.867644 
L 70.308749 89.867644 
L 70.397935 89.767307 
L 70.442287 89.700415 
L 70.507871 89.700415 
L 70.576858 89.600078 
L 70.630829 89.43285 
L 70.663496 89.43285 
L 70.757117 89.332512 
L 70.866359 89.165284 
L 70.947743 89.064947 
L 70.967479 88.931164 
L 71.055774 88.931164 
L 71.135003 88.830827 
L 71.241787 88.630153 
L 71.346576 88.529816 
L 71.428797 88.329141 
L 71.443759 88.329141 
L 71.504196 88.228804 
L 71.57165 88.161913 
L 71.609359 88.161913 
L 71.749291 88.061576 
L 71.859816 87.894347 
L 71.925667 87.79401 
L 71.968363 87.693673 
L 72.036014 87.693673 
L 72.129831 87.593336 
L 72.129831 87.55989 
L 72.233729 87.55989 
L 72.313866 87.459553 
L 72.41992 87.258879 
L 72.422841 87.258879 
L 72.526383 87.158542 
L 72.526383 87.125096 
L 72.637068 87.125096 
L 72.750923 87.024759 
L 72.834837 86.924422 
L 72.859115 86.924422 
L 72.900225 86.824085 
L 73.008844 86.62341 
L 73.135506 86.523073 
L 73.18652 86.38929 
L 73.246191 86.38929 
L 73.420252 86.288953 
L 73.515618 85.954496 
L 73.527089 85.954496 
L 73.641336 85.854159 
L 73.731929 85.753822 
L 73.905384 85.653485 
L 73.990028 85.452811 
L 74.011848 85.452811 
L 74.124064 85.352474 
L 74.217489 85.185245 
L 74.231347 85.185245 
L 74.259188 85.084908 
L 74.362106 84.884234 
L 74.524625 84.783897 
L 74.611815 84.616668 
L 74.630126 84.616668 
L 74.834022 84.516331 
L 74.942659 84.382548 
L 75.088273 84.282211 
L 75.163316 84.148428 
L 75.193614 84.148428 
L 75.255334 84.048091 
L 75.30747 83.947754 
L 75.355046 83.947754 
L 75.443092 83.847417 
L 75.539456 83.74708 
L 75.54439 83.74708 
L 75.697646 83.646743 
L 75.786831 83.446068 
L 75.799888 83.446068 
L 75.966431 83.345731 
L 76.074623 83.245394 
L 76.191666 83.145057 
L 76.298486 82.977829 
L 76.301211 82.977829 
L 76.473099 82.877491 
L 76.53749 82.743709 
L 76.567984 82.743709 
L 76.698174 82.643371 
L 76.77115 82.509589 
L 76.808823 82.509589 
L 76.915838 82.409252 
L 76.977397 82.208577 
L 77.016905 82.208577 
L 77.20721 82.10824 
L 77.301793 81.87412 
L 77.315757 81.87412 
L 77.418908 81.773783 
L 77.517195 81.573109 
L 77.527829 81.573109 
L 77.590582 81.472772 
L 77.669294 81.272098 
L 77.694533 81.272098 
L 77.840362 81.17176 
L 77.925112 81.004532 
L 77.933894 81.004532 
L 78.012873 80.904195 
L 78.10701 80.736966 
L 78.174198 80.636629 
L 78.239622 80.502846 
L 78.285007 80.502846 
L 78.494122 80.402509 
L 78.596186 80.201835 
L 78.872257 80.101498 
L 78.951094 80.001161 
L 78.973395 80.001161 
L 79.112668 79.900824 
L 79.189171 79.700149 
L 79.215035 79.700149 
L 79.431007 79.599812 
L 79.514297 79.466029 
L 79.527638 79.466029 
L 79.630005 79.365692 
L 79.698279 79.265355 
L 79.722539 79.265355 
L 79.82047 79.165018 
L 79.926346 78.99779 
L 79.927629 78.99779 
L 80.064497 78.897452 
L 80.17064 78.76367 
L 80.175022 78.76367 
L 80.242673 78.663333 
L 80.326016 78.562995 
L 80.337042 78.562995 
L 80.424677 78.462658 
L 80.522413 78.261984 
L 80.535131 78.261984 
L 80.689527 78.161647 
L 80.689527 78.128201 
L 80.768844 78.128201 
L 80.999067 78.027864 
L 81.036561 77.894081 
L 81.109556 77.894081 
L 81.395477 77.793744 
L 81.501424 77.626516 
L 81.66143 77.526179 
L 81.753466 77.325504 
L 81.761268 77.325504 
L 81.935435 77.225167 
L 82.002552 77.057939 
L 82.037731 77.057939 
L 82.218168 76.957602 
L 82.310346 76.723482 
L 82.323883 76.723482 
L 82.466523 76.623145 
L 82.466523 76.589699 
L 82.567785 76.589699 
L 82.692595 76.489362 
L 82.794018 76.389025 
L 82.794499 76.389025 
L 82.926202 76.288687 
L 82.961025 76.221796 
L 83.029388 76.221796 
L 83.130668 76.121459 
L 83.225714 75.987676 
L 83.241104 75.987676 
L 83.333495 75.887339 
L 83.428755 75.787002 
L 83.539244 75.686665 
L 83.647293 75.452545 
L 83.745705 75.352208 
L 83.855339 75.184979 
L 83.937774 75.084642 
L 84.046214 74.883968 
L 84.048601 74.883968 
L 84.331334 74.783631 
L 84.384717 74.716739 
L 84.439988 74.716739 
L 84.717911 74.616402 
L 84.792954 74.516065 
L 84.821685 74.516065 
L 84.955989 74.415728 
L 85.055737 74.281945 
L 85.063183 74.281945 
L 85.218505 74.181608 
L 85.269091 74.081271 
L 85.32276 74.081271 
L 85.481448 73.980934 
L 85.516485 73.847151 
L 85.589568 73.847151 
L 85.702355 73.746814 
L 85.702355 73.713368 
L 85.808729 73.713368 
L 85.958369 73.613031 
L 86.057227 73.479248 
L 86.063141 73.479248 
L 86.350451 73.378911 
L 86.438497 73.245128 
L 86.60757 73.144791 
L 86.698733 72.977563 
L 86.706801 72.977563 
L 86.918321 72.877226 
L 86.994628 72.743443 
L 87.028507 72.743443 
L 87.173089 72.643106 
L 87.181122 72.576214 
L 87.283204 72.576214 
L 87.495329 72.475877 
L 87.576552 72.342094 
L 87.601329 72.342094 
L 87.743061 72.241757 
L 87.834116 72.007637 
L 87.848402 72.007637 
L 87.959247 71.9073 
L 88.0119 71.806963 
L 88.059013 71.806963 
L 88.303165 71.706626 
L 88.380933 71.572843 
L 88.408025 71.572843 
L 88.607984 71.472506 
L 88.715819 71.372169 
L 88.992585 71.271832 
L 89.056246 71.138049 
L 89.103377 71.138049 
L 89.22222 71.037712 
L 89.324372 70.937375 
L 89.324836 70.937375 
L 89.533256 70.837038 
L 89.608067 70.7367 
L 89.632398 70.7367 
L 89.875178 70.636363 
L 89.982354 70.536026 
L 89.983904 70.536026 
L 90.067746 70.435689 
L 90.175296 70.268461 
L 90.504981 70.168123 
L 90.582162 69.967449 
L 90.610412 69.967449 
L 90.826545 69.867112 
L 90.893038 69.699884 
L 90.929268 69.699884 
L 91.220817 69.599546 
L 91.311321 69.432318 
L 91.330077 69.432318 
L 91.479183 69.331981 
L 91.518014 69.231644 
L 91.587766 69.231644 
L 91.617851 69.131307 
L 91.617851 69.097861 
L 91.71963 69.097861 
L 91.984034 68.997524 
L 91.984034 68.964078 
L 92.084281 68.964078 
L 92.456733 68.863741 
L 92.550764 68.763404 
L 92.656123 68.663067 
L 92.762052 68.596175 
L 92.763049 68.596175 
L 92.903961 68.495838 
L 92.993681 68.295164 
L 93.011636 68.295164 
L 93.234662 68.194827 
L 93.334161 68.127935 
L 93.343673 68.127935 
L 93.449727 68.027598 
L 93.560144 67.960707 
L 93.790776 67.86037 
L 93.899217 67.726587 
L 93.934841 67.62625 
L 94.007372 67.525913 
L 94.041287 67.525913 
L 94.195238 67.425576 
L 94.301523 67.358684 
L 94.3048 67.358684 
L 94.651211 67.258347 
L 94.759812 67.024227 
L 95.035794 66.92389 
L 95.142952 66.856999 
L 95.358444 66.756662 
L 95.416013 66.622879 
L 95.468648 66.622879 
L 95.726925 66.522542 
L 95.779435 66.45565 
L 95.837004 66.45565 
L 96.054473 66.355313 
L 96.126006 66.254976 
L 96.154381 66.254976 
L 96.356639 66.154639 
L 96.356639 66.121193 
L 96.459931 66.121193 
L 96.629717 66.020856 
L 96.696014 65.920519 
L 96.733491 65.920519 
L 96.791915 65.820182 
L 96.791915 65.786736 
L 96.899447 65.786736 
L 97.128048 65.686399 
L 97.15067 65.586062 
L 97.236293 65.586062 
L 97.351858 65.485725 
L 97.420863 65.385388 
L 97.451375 65.385388 
L 97.611524 65.285051 
L 97.675791 65.151268 
L 97.71984 65.151268 
L 97.797537 65.050931 
L 97.802845 64.984039 
L 97.891852 64.984039 
L 98.484838 64.883702 
L 98.58366 64.783365 
L 98.594347 64.783365 
L 98.750115 64.683028 
L 98.758985 64.616136 
L 98.861013 64.616136 
L 99.13785 64.515799 
L 99.229137 64.348571 
L 99.248945 64.348571 
L 99.391139 64.248234 
L 99.391139 64.214788 
L 99.489409 64.214788 
L 99.683491 64.114451 
L 99.742413 64.047559 
L 99.785839 64.047559 
L 99.970213 63.947222 
L 99.996308 63.880331 
L 100.079313 63.880331 
L 100.327258 63.779994 
L 100.407467 63.713102 
L 100.437017 63.713102 
L 100.590879 63.612765 
L 100.669074 63.478982 
L 100.689807 63.478982 
L 101.055082 63.378645 
L 101.055082 63.3452 
L 101.157395 63.3452 
L 101.309493 63.244863 
L 101.346952 63.144525 
L 101.411254 63.144525 
L 101.64609 63.044188 
L 101.748171 62.943851 
L 101.754513 62.943851 
L 101.947882 62.843514 
L 102.044976 62.776623 
L 102.057355 62.776623 
L 102.306957 62.676286 
L 102.397265 62.542503 
L 102.416128 62.542503 
L 102.643412 62.442166 
L 102.753455 62.341828 
L 103.063102 62.241491 
L 103.063102 62.208046 
L 103.169904 62.208046 
L 103.581864 62.107709 
L 103.630117 62.007371 
L 103.684373 62.007371 
L 103.898921 61.907034 
L 103.992257 61.739806 
L 104.007771 61.739806 
L 104.126471 61.639469 
L 104.181582 61.505686 
L 104.232418 61.505686 
L 104.48129 61.405349 
L 104.504873 61.338457 
L 104.592349 61.338457 
L 104.974955 61.23812 
L 105.079298 61.137783 
L 105.250224 61.037446 
L 105.300739 60.937109 
L 105.347906 60.937109 
L 105.457807 60.836772 
L 105.566907 60.602652 
L 105.568385 60.602652 
L 105.660795 60.502315 
L 105.767418 60.401978 
L 105.767792 60.401978 
L 105.947215 60.30164 
L 106.032606 60.201303 
L 106.038858 60.201303 
L 106.379213 60.100966 
L 106.379213 60.067521 
L 106.465745 60.067521 
L 107.023355 59.967183 
L 107.098344 59.900292 
L 107.133755 59.900292 
L 107.410164 59.799955 
L 107.444845 59.699618 
L 107.520297 59.699618 
L 107.742059 59.599281 
L 107.778396 59.498944 
L 107.839313 59.498944 
L 108.183694 59.398606 
L 108.183694 59.365161 
L 108.291867 59.365161 
L 108.836653 59.264824 
L 108.922276 59.164486 
L 108.932429 59.164486 
L 109.141455 59.064149 
L 109.149274 58.963812 
L 109.250483 58.963812 
L 109.496327 58.863475 
L 109.541819 58.796584 
L 109.601187 58.796584 
L 109.773146 58.696247 
L 109.860087 58.629355 
L 109.883083 58.629355 
L 110.046705 58.529018 
L 110.046705 58.495572 
L 110.157266 58.495572 
L 110.298481 58.395235 
L 110.400473 58.228007 
L 110.409575 58.228007 
L 110.639673 58.12767 
L 110.639673 58.094224 
L 110.749414 58.094224 
L 110.946274 57.993887 
L 111.038719 57.860104 
L 111.053717 57.860104 
L 111.525847 57.759767 
L 111.609689 57.625984 
L 111.627625 57.625984 
L 111.97254 57.525647 
L 112.004976 57.458756 
L 112.083314 57.458756 
L 112.309084 57.358418 
L 112.309084 57.324973 
L 112.405822 57.324973 
L 112.624466 57.224636 
L 112.706954 57.124298 
L 112.723431 57.124298 
L 113.178977 57.023961 
L 113.249086 56.95707 
L 113.28626 56.95707 
L 113.394184 56.856733 
L 113.48996 56.789841 
L 113.50168 56.789841 
L 113.649201 56.689504 
L 113.656896 56.622613 
L 113.759155 56.622613 
L 113.922742 56.522276 
L 114.027247 56.321602 
L 114.031094 56.321602 
L 114.306987 56.221264 
L 114.343288 56.154373 
L 114.414109 56.154373 
L 114.606873 56.054036 
L 114.606873 56.02059 
L 114.716863 56.02059 
L 115.069241 55.920253 
L 115.084007 55.853362 
L 115.168259 55.853362 
L 115.259511 55.753025 
L 115.335444 55.686133 
L 115.362483 55.686133 
L 115.52762 55.585796 
L 115.52762 55.55235 
L 115.623467 55.55235 
L 116.459001 55.452013 
L 116.482727 55.385122 
L 116.564182 55.385122 
L 116.727715 55.284785 
L 116.82041 55.184448 
L 116.83213 55.184448 
L 117.547093 55.08411 
L 117.547093 55.050665 
L 117.645149 55.050665 
L 118.008411 54.950328 
L 118.082652 54.849991 
L 118.113343 54.849991 
L 118.429135 54.749653 
L 118.435796 54.682762 
L 118.537219 54.682762 
L 119.133731 54.582425 
L 119.224324 54.448642 
L 119.242902 54.448642 
L 119.538157 54.348305 
L 119.538157 54.314859 
L 119.645974 54.314859 
L 119.683379 54.214522 
L 119.736442 54.147631 
L 119.793263 54.147631 
L 120.003856 54.047294 
L 120.003856 54.013848 
L 120.109162 54.013848 
L 120.625323 53.913511 
L 120.690106 53.846619 
L 120.721598 53.846619 
L 120.9427 53.746282 
L 120.9427 53.712837 
L 121.046973 53.712837 
L 121.573893 53.612499 
L 121.659961 53.478717 
L 121.680249 53.478717 
L 121.883842 53.37838 
L 121.960524 53.244597 
L 121.986975 53.244597 
L 122.239374 53.14426 
L 122.29949 53.077368 
L 122.350254 53.077368 
L 122.776945 52.977031 
L 122.776945 52.943585 
L 122.886045 52.943585 
L 123.130962 52.843248 
L 123.130962 52.809803 
L 123.242039 52.809803 
L 123.638217 52.709465 
L 123.661124 52.642574 
L 123.745376 52.642574 
L 124.137867 52.542237 
L 124.193387 52.475345 
L 124.247073 52.475345 
L 124.430343 52.375008 
L 124.536984 52.308117 
L 124.540066 52.308117 
L 124.900584 52.20778 
L 124.900584 52.174334 
L 125.002969 52.174334 
L 125.508728 52.073997 
L 125.56692 52.007106 
L 125.618451 52.007106 
L 126.348269 51.906768 
L 126.440643 51.839877 
L 126.457921 51.839877 
L 127.241336 51.73954 
L 127.241336 51.706094 
L 127.349064 51.706094 
L 127.669256 51.605757 
L 127.679854 51.538866 
L 127.779157 51.538866 
L 128.117428 51.438529 
L 128.117428 51.405083 
L 128.217479 51.405083 
L 128.555002 51.304746 
L 128.555002 51.2713 
L 128.663835 51.2713 
L 128.891795 51.170963 
L 128.891795 51.137517 
L 129.001233 51.137517 
L 129.480149 51.03718 
L 129.523718 50.936843 
L 129.590513 50.936843 
L 129.969699 50.836506 
L 130.03995 50.669277 
L 130.078977 50.669277 
L 130.451233 50.56894 
L 130.535343 50.468603 
L 130.561722 50.468603 
L 130.924717 50.368266 
L 130.934852 50.301375 
L 131.028972 50.301375 
L 131.640001 50.201038 
L 131.640001 50.167592 
L 131.741904 50.167592 
L 131.967673 50.067255 
L 131.967673 50.033809 
L 132.07175 50.033809 
L 132.192712 49.933472 
L 132.192712 49.900026 
L 132.297982 49.900026 
L 132.483336 49.799689 
L 132.499723 49.699352 
L 132.589514 49.699352 
L 132.868667 49.599015 
L 132.868667 49.565569 
L 132.973848 49.565569 
L 133.213279 49.465232 
L 133.237593 49.364895 
L 133.321328 49.364895 
L 133.489671 49.264558 
L 133.489671 49.231112 
L 133.595511 49.231112 
L 134.150182 49.130775 
L 134.150182 49.097329 
L 134.259014 49.097329 
L 134.606886 48.996992 
L 134.606886 48.963546 
L 134.706563 48.963546 
L 135.484599 48.863209 
L 135.497673 48.796318 
L 135.593521 48.796318 
L 135.751515 48.695981 
L 135.751515 48.662535 
L 135.855662 48.662535 
L 136.055373 48.562198 
L 136.060075 48.461861 
L 136.16107 48.461861 
L 136.567882 48.361524 
L 136.57205 48.294632 
L 136.6783 48.294632 
L 136.964845 48.194295 
L 136.971524 48.127404 
L 137.075725 48.127404 
L 137.746354 48.027067 
L 137.746354 47.993621 
L 137.856415 47.993621 
L 138.634915 47.893284 
L 138.742358 47.759501 
L 138.743978 47.759501 
L 138.904876 47.659164 
L 139.011927 47.558827 
L 139.37697 47.45849 
L 139.37697 47.425044 
L 139.487103 47.425044 
L 140.085574 47.324707 
L 140.085574 47.291261 
L 140.19503 47.291261 
L 140.793875 47.190924 
L 140.8194 47.124033 
L 140.903456 47.124033 
L 141.715371 47.023696 
L 141.745455 46.956804 
L 141.825877 46.956804 
L 142.280907 46.856467 
L 142.336374 46.75613 
L 142.391147 46.75613 
L 143.290217 46.655793 
L 143.384051 46.588901 
L 143.399334 46.588901 
L 143.856911 46.488564 
L 143.856911 46.455119 
L 143.965601 46.455119 
L 144.779475 46.354781 
L 144.846787 46.28789 
L 144.890017 46.28789 
L 145.242966 46.187553 
L 145.305112 46.120662 
L 145.352012 46.120662 
L 145.621866 46.020324 
L 145.621866 45.986879 
L 145.728027 45.986879 
L 145.906986 45.886542 
L 145.989848 45.81965 
L 146.017243 45.81965 
L 146.671574 45.719313 
L 146.672518 45.652422 
L 146.782081 45.652422 
L 147.243363 45.552085 
L 147.243363 45.518639 
L 147.353887 45.518639 
L 147.691072 45.418302 
L 147.691072 45.384856 
L 147.800082 45.384856 
L 148.358832 45.284519 
L 148.358832 45.251073 
L 148.469856 45.251073 
L 149.047095 45.150736 
L 149.047095 45.11729 
L 149.158154 45.11729 
L 149.573071 45.016953 
L 149.573071 44.983508 
L 149.682705 44.983508 
L 150.125836 44.88317 
L 150.227241 44.782833 
L 150.235969 44.782833 
L 150.649318 44.682496 
L 150.741995 44.582159 
L 150.760413 44.582159 
L 151.177984 44.481822 
L 151.177984 44.448376 
L 151.285961 44.448376 
L 151.461019 44.348039 
L 151.461019 44.314593 
L 151.570475 44.314593 
L 151.801214 44.214256 
L 151.841915 44.147365 
L 151.909655 44.147365 
L 152.35186 44.047028 
L 152.453229 43.946691 
L 152.46242 43.946691 
L 153.198437 43.846354 
L 153.307751 43.779462 
L 153.308695 43.779462 
L 153.639128 43.679125 
L 153.730202 43.578788 
L 153.749582 43.578788 
L 154.215441 43.478451 
L 154.215441 43.445005 
L 154.326447 43.445005 
L 155.024186 43.344668 
L 155.049995 43.244331 
L 155.127567 43.244331 
L 155.538744 43.143994 
L 155.58591 43.077102 
L 155.646846 43.077102 
L 156.210494 42.976765 
L 156.268188 42.876428 
L 156.319327 42.876428 
L 157.150479 42.776091 
L 157.150479 42.742645 
L 157.257548 42.742645 
L 157.495287 42.642308 
L 157.565699 42.541971 
L 157.606292 42.541971 
L 158.126622 42.441634 
L 158.223627 42.341297 
L 158.233709 42.341297 
L 158.888591 42.24096 
L 158.888591 42.207514 
L 158.998207 42.207514 
L 160.198428 42.107177 
L 160.198428 42.073731 
L 160.309184 42.073731 
L 160.779425 41.973394 
L 160.779425 41.939948 
L 160.886281 41.939948 
L 161.327666 41.839611 
L 161.381334 41.77272 
L 161.437657 41.77272 
L 161.77607 41.672383 
L 161.8605 41.5386 
L 161.883531 41.5386 
L 162.598565 41.438263 
L 162.674071 41.371371 
L 162.708057 41.371371 
L 163.411887 41.271034 
L 163.471469 41.204143 
L 163.522911 41.204143 
L 165.105612 41.103806 
L 165.116192 41.036914 
L 165.216386 41.036914 
L 166.092656 40.936577 
L 166.167752 40.869686 
L 166.200936 40.869686 
L 167.753962 40.769349 
L 167.753962 40.735903 
L 167.864861 40.735903 
L 168.812576 40.635566 
L 168.812576 40.60212 
L 168.919591 40.60212 
L 169.315538 40.501783 
L 169.416159 40.434892 
L 169.425261 40.434892 
L 169.78252 40.334555 
L 169.78252 40.301109 
L 169.893472 40.301109 
L 170.632642 40.200772 
L 170.679684 40.100435 
L 170.743291 40.100435 
L 171.301863 40.000097 
L 171.301863 39.966652 
L 171.412281 39.966652 
L 171.764802 39.866315 
L 171.764802 39.832869 
L 171.874685 39.832869 
L 172.969724 39.732532 
L 172.969724 39.699086 
L 173.080445 39.699086 
L 173.789566 39.598749 
L 173.825172 39.531858 
L 173.900429 39.531858 
L 174.949709 39.43152 
L 174.949709 39.398075 
L 175.058541 39.398075 
L 175.630009 39.297738 
L 175.685423 39.197401 
L 175.740819 39.197401 
L 176.222371 39.097063 
L 176.222371 39.063618 
L 176.332717 39.063618 
L 178.148099 38.963281 
L 178.215215 38.896389 
L 178.258356 38.896389 
L 178.841777 38.796052 
L 178.858716 38.729161 
L 178.952515 38.729161 
L 179.564078 38.628824 
L 179.667567 38.528486 
L 179.674995 38.528486 
L 179.896685 38.428149 
L 179.896685 38.394704 
L 180.006711 38.394704 
L 181.213931 38.294367 
L 181.213931 38.260921 
L 181.322817 38.260921 
L 181.815342 38.160584 
L 181.880855 38.093692 
L 181.926027 38.093692 
L 182.41563 37.993355 
L 182.468799 37.893018 
L 182.526707 37.893018 
L 184.02024 37.792681 
L 184.02024 37.759235 
L 184.13121 37.759235 
L 185.069164 37.658898 
L 185.154092 37.592007 
L 185.180134 37.592007 
L 185.621038 37.49167 
L 185.645085 37.424778 
L 185.731474 37.424778 
L 187.290948 37.324441 
L 187.323188 37.25755 
L 187.401651 37.25755 
L 188.756534 37.157213 
L 188.756534 37.123767 
L 188.86713 37.123767 
L 190.143444 37.02343 
L 190.215957 36.889647 
L 190.252401 36.889647 
L 190.799823 36.78931 
L 190.799823 36.755864 
L 190.910686 36.755864 
L 191.743886 36.655527 
L 191.743886 36.622081 
L 191.854232 36.622081 
L 192.987497 36.521744 
L 192.987497 36.488298 
L 193.098431 36.488298 
L 194.015598 36.387961 
L 194.015598 36.354516 
L 194.126033 36.354516 
L 194.837808 36.254179 
L 194.903891 36.187287 
L 194.948261 36.187287 
L 196.848732 36.08695 
L 196.848732 36.053504 
L 196.959524 36.053504 
L 198.246151 35.953167 
L 198.246151 35.919721 
L 198.356568 35.919721 
L 199.040022 35.819384 
L 199.137615 35.752493 
L 199.147109 35.752493 
L 200.798636 35.652156 
L 200.798636 35.61871 
L 200.907557 35.61871 
L 202.570271 35.518373 
L 202.570271 35.484927 
L 202.68133 35.484927 
L 202.870638 35.38459 
L 202.870638 35.351144 
L 202.981625 35.351144 
L 204.215422 35.250807 
L 204.290518 35.183916 
L 204.325323 35.183916 
L 205.204959 35.083579 
L 205.204959 35.050133 
L 205.315413 35.050133 
L 205.841602 34.949796 
L 205.841602 34.91635 
L 205.952537 34.91635 
L 207.217486 34.816013 
L 207.217486 34.782567 
L 207.32769 34.782567 
L 208.122256 34.68223 
L 208.223536 34.581893 
L 208.233066 34.581893 
L 209.523219 34.481556 
L 209.523219 34.44811 
L 209.633263 34.44811 
L 210.741893 34.347773 
L 210.852453 34.247436 
L 211.202605 34.147099 
L 211.307733 34.046762 
L 211.3137 34.046762 
L 212.345274 33.946425 
L 212.362801 33.879533 
L 212.456137 33.879533 
L 213.539634 33.779196 
L 213.539634 33.745751 
L 213.650604 33.745751 
L 214.243073 33.645414 
L 214.243073 33.611968 
L 214.3539 33.611968 
L 214.824961 33.511631 
L 214.92519 33.444739 
L 214.935984 33.444739 
L 215.404498 33.344402 
L 215.404498 33.310956 
L 215.515343 33.310956 
L 217.37823 33.210619 
L 217.37823 33.177174 
L 217.48765 33.177174 
L 218.21485 33.076837 
L 218.31613 33.009945 
L 218.32566 33.009945 
L 219.527109 32.909608 
L 219.527109 32.876162 
L 219.637812 32.876162 
L 220.827505 32.775825 
L 220.873104 32.708934 
L 220.93762 32.708934 
L 222.879468 32.608597 
L 222.918904 32.541705 
L 222.989512 32.541705 
L 223.462782 32.441368 
L 223.462782 32.407922 
L 223.573858 32.407922 
L 225.203512 32.307585 
L 225.215714 32.240694 
L 225.313538 32.240694 
L 225.976757 32.140357 
L 225.976757 32.106911 
L 226.087798 32.106911 
L 226.932202 32.006574 
L 226.932202 31.973128 
L 227.04294 31.973128 
L 228.271001 31.872791 
L 228.271001 31.839345 
L 228.381722 31.839345 
L 229.844137 31.739008 
L 229.844137 31.705563 
L 229.955214 31.705563 
L 231.209904 31.605225 
L 231.304558 31.504888 
L 231.32082 31.504888 
L 232.095134 31.404551 
L 232.095134 31.371106 
L 232.205783 31.371106 
L 233.908716 31.270768 
L 233.908716 31.237323 
L 234.019579 31.237323 
L 234.543489 31.136986 
L 234.543489 31.10354 
L 234.654566 31.10354 
L 235.340762 31.003203 
L 235.36032 30.936311 
L 235.451376 30.936311 
L 236.832389 30.835974 
L 236.832389 30.802529 
L 236.943306 30.802529 
L 237.65818 30.702191 
L 237.727309 30.601854 
L 237.768419 30.601854 
L 238.868553 30.501517 
L 238.979559 30.468072 
L 240.272402 30.367734 
L 240.272402 30.334289 
L 240.38323 30.334289 
L 242.341358 30.233952 
L 242.342676 30.16706 
L 242.452221 30.16706 
L 243.180187 30.066723 
L 243.180187 30.033277 
L 243.291282 30.033277 
L 243.990534 29.93294 
L 243.990534 29.899495 
L 244.101059 29.899495 
L 245.503251 29.799157 
L 245.503251 29.765712 
L 245.614328 29.765712 
L 247.908626 29.665375 
L 247.908626 29.631929 
L 248.019275 29.631929 
L 249.468207 29.531592 
L 249.468207 29.498146 
L 249.579301 29.498146 
L 250.508919 29.397809 
L 250.508919 29.364363 
L 250.619871 29.364363 
L 251.942372 29.264026 
L 251.942372 29.23058 
L 252.05295 29.23058 
L 253.078255 29.130243 
L 253.189385 29.096798 
L 254.829744 28.996461 
L 254.928762 28.896123 
L 254.9405 28.896123 
L 256.478457 28.795786 
L 256.503234 28.695449 
L 256.589427 28.695449 
L 258.361258 28.595112 
L 258.376523 28.528221 
L 258.472281 28.528221 
L 259.300316 28.427884 
L 259.300316 28.394438 
L 259.411393 28.394438 
L 261.236749 28.294101 
L 261.280532 28.227209 
L 261.347844 28.227209 
L 262.418819 28.126872 
L 262.418819 28.093426 
L 262.529717 28.093426 
L 263.40898 27.993089 
L 263.520306 27.959644 
L 264.811867 27.859307 
L 264.811867 27.825861 
L 264.922908 27.825861 
L 267.344225 27.725524 
L 267.344225 27.692078 
L 267.455266 27.692078 
L 270.224561 27.591741 
L 270.224561 27.558295 
L 270.33562 27.558295 
L 272.569143 27.457958 
L 272.680362 27.424512 
L 275.153565 27.324175 
L 275.153565 27.29073 
L 275.264392 27.29073 
L 276.788652 27.190392 
L 276.788652 27.156947 
L 276.899729 27.156947 
L 278.677562 27.05661 
L 278.793377 27.023164 
L 279.775843 26.922827 
L 279.775843 26.889381 
L 279.88651 26.889381 
L 282.023758 26.789044 
L 282.023758 26.789044 
" clip-path="url(#p5eb0918316)" style="fill: none; stroke: #1f77b4; stroke-width: 1.5; stroke-linecap: round"/>
   </g>
   <g id="patch_3">
    <path d="M 35.655938 265.022801 
L 35.655938 19.642031 
" style="fill: none"/>
   </g>
   <g id="patch_4">
    <path d="M 289.19952 265.022801 
L 289.19952 19.642031 
" style="fill: none"/>
   </g>
   <g id="patch_5">
    <path d="M 35.655938 265.022801 
L 289.19952 265.022801 
" style="fill: none"/>
   </g>
   <g id="patch_6">
    <path d="M 35.655938 19.642031 
L 289.19952 19.642031 
" style="fill: none"/>
   </g>
   <g id="text_15">
    <!-- Model 2: Precision-Recall Curve -->
    <g style="fill: #333333" transform="translate(93.910307 13.642031) scale(0.09 -0.09)">
     <defs>
      <path id="Arial-BoldMT-4d" d="M 453 0 
L 453 4581 
L 1838 4581 
L 2669 1456 
L 3491 4581 
L 4878 4581 
L 4878 0 
L 4019 0 
L 4019 3606 
L 3109 0 
L 2219 0 
L 1313 3606 
L 1313 0 
L 453 0 
z
" transform="scale(0.015625)"/>
      <path id="Arial-BoldMT-64" d="M 3503 0 
L 2688 0 
L 2688 488 
Q 2484 203 2207 64 
Q 1931 -75 1650 -75 
Q 1078 -75 670 386 
Q 263 847 263 1672 
Q 263 2516 659 2955 
Q 1056 3394 1663 3394 
Q 2219 3394 2625 2931 
L 2625 4581 
L 3503 4581 
L 3503 0 
z
M 1159 1731 
Q 1159 1200 1306 963 
Q 1519 619 1900 619 
Q 2203 619 2415 876 
Q 2628 1134 2628 1647 
Q 2628 2219 2422 2470 
Q 2216 2722 1894 2722 
Q 1581 2722 1370 2473 
Q 1159 2225 1159 1731 
z
" transform="scale(0.015625)"/>
      <path id="Arial-BoldMT-32" d="M 3238 816 
L 3238 0 
L 159 0 
Q 209 463 459 877 
Q 709 1291 1447 1975 
Q 2041 2528 2175 2725 
Q 2356 2997 2356 3263 
Q 2356 3556 2198 3714 
Q 2041 3872 1763 3872 
Q 1488 3872 1325 3706 
Q 1163 3541 1138 3156 
L 263 3244 
Q 341 3969 753 4284 
Q 1166 4600 1784 4600 
Q 2463 4600 2850 4234 
Q 3238 3869 3238 3325 
Q 3238 3016 3127 2736 
Q 3016 2456 2775 2150 
Q 2616 1947 2200 1565 
Q 1784 1184 1673 1059 
Q 1563 934 1494 816 
L 3238 816 
z
" transform="scale(0.015625)"/>
      <path id="Arial-BoldMT-3a" d="M 628 2441 
L 628 3319 
L 1506 3319 
L 1506 2441 
L 628 2441 
z
M 628 0 
L 628 878 
L 1506 878 
L 1506 0 
L 628 0 
z
" transform="scale(0.015625)"/>
      <path id="Arial-BoldMT-2d" d="M 359 1222 
L 359 2100 
L 2084 2100 
L 2084 1222 
L 359 1222 
z
" transform="scale(0.015625)"/>
      <path id="Arial-BoldMT-43" d="M 3397 1684 
L 4294 1400 
Q 4088 650 3608 286 
Q 3128 -78 2391 -78 
Q 1478 -78 890 545 
Q 303 1169 303 2250 
Q 303 3394 893 4026 
Q 1484 4659 2447 4659 
Q 3288 4659 3813 4163 
Q 4125 3869 4281 3319 
L 3366 3100 
Q 3284 3456 3026 3662 
Q 2769 3869 2400 3869 
Q 1891 3869 1573 3503 
Q 1256 3138 1256 2319 
Q 1256 1450 1568 1081 
Q 1881 713 2381 713 
Q 2750 713 3015 947 
Q 3281 1181 3397 1684 
z
" transform="scale(0.015625)"/>
      <path id="Arial-BoldMT-75" d="M 2644 0 
L 2644 497 
Q 2463 231 2167 78 
Q 1872 -75 1544 -75 
Q 1209 -75 943 72 
Q 678 219 559 484 
Q 441 750 441 1219 
L 441 3319 
L 1319 3319 
L 1319 1794 
Q 1319 1094 1367 936 
Q 1416 778 1544 686 
Q 1672 594 1869 594 
Q 2094 594 2272 717 
Q 2450 841 2515 1023 
Q 2581 1206 2581 1919 
L 2581 3319 
L 3459 3319 
L 3459 0 
L 2644 0 
z
" transform="scale(0.015625)"/>
      <path id="Arial-BoldMT-76" d="M 1372 0 
L 34 3319 
L 956 3319 
L 1581 1625 
L 1763 1059 
Q 1834 1275 1853 1344 
Q 1897 1484 1947 1625 
L 2578 3319 
L 3481 3319 
L 2163 0 
L 1372 0 
z
" transform="scale(0.015625)"/>
     </defs>
     <use xlink:href="#Arial-BoldMT-4d"/>
     <use xlink:href="#Arial-BoldMT-6f" transform="translate(83.300781 0)"/>
     <use xlink:href="#Arial-BoldMT-64" transform="translate(144.384766 0)"/>
     <use xlink:href="#Arial-BoldMT-65" transform="translate(205.46875 0)"/>
     <use xlink:href="#Arial-BoldMT-6c" transform="translate(261.083984 0)"/>
     <use xlink:href="#Arial-BoldMT-20" transform="translate(288.867188 0)"/>
     <use xlink:href="#Arial-BoldMT-32" transform="translate(316.650391 0)"/>
     <use xlink:href="#Arial-BoldMT-3a" transform="translate(372.265625 0)"/>
     <use xlink:href="#Arial-BoldMT-20" transform="translate(405.566406 0)"/>
     <use xlink:href="#Arial-BoldMT-50" transform="translate(433.349609 0)"/>
     <use xlink:href="#Arial-BoldMT-72" transform="translate(500.048828 0)"/>
     <use xlink:href="#Arial-BoldMT-65" transform="translate(538.964844 0)"/>
     <use xlink:href="#Arial-BoldMT-63" transform="translate(594.580078 0)"/>
     <use xlink:href="#Arial-BoldMT-69" transform="translate(650.195312 0)"/>
     <use xlink:href="#Arial-BoldMT-73" transform="translate(677.978516 0)"/>
     <use xlink:href="#Arial-BoldMT-69" transform="translate(733.59375 0)"/>
     <use xlink:href="#Arial-BoldMT-6f" transform="translate(761.376953 0)"/>
     <use xlink:href="#Arial-BoldMT-6e" transform="translate(822.460938 0)"/>
     <use xlink:href="#Arial-BoldMT-2d" transform="translate(883.544922 0)"/>
     <use xlink:href="#Arial-BoldMT-52" transform="translate(916.845703 0)"/>
     <use xlink:href="#Arial-BoldMT-65" transform="translate(989.0625 0)"/>
     <use xlink:href="#Arial-BoldMT-63" transform="translate(1044.677734 0)"/>
     <use xlink:href="#Arial-BoldMT-61" transform="translate(1100.292969 0)"/>
     <use xlink:href="#Arial-BoldMT-6c" transform="translate(1155.908203 0)"/>
     <use xlink:href="#Arial-BoldMT-6c" transform="translate(1183.691406 0)"/>
     <use xlink:href="#Arial-BoldMT-20" transform="translate(1211.474609 0)"/>
     <use xlink:href="#Arial-BoldMT-43" transform="translate(1239.257812 0)"/>
     <use xlink:href="#Arial-BoldMT-75" transform="translate(1311.474609 0)"/>
     <use xlink:href="#Arial-BoldMT-72" transform="translate(1372.558594 0)"/>
     <use xlink:href="#Arial-BoldMT-76" transform="translate(1411.474609 0)"/>
     <use xlink:href="#Arial-BoldMT-65" transform="translate(1467.089844 0)"/>
    </g>
   </g>
   <g id="legend_1">
    <g id="patch_7">
     <path d="M 164.573426 260.522801 
L 282.89952 260.522801 
Q 284.69952 260.522801 284.69952 258.722801 
L 284.69952 246.89202 
Q 284.69952 245.09202 282.89952 245.09202 
L 164.573426 245.09202 
Q 162.773426 245.09202 162.773426 246.89202 
L 162.773426 258.722801 
Q 162.773426 260.522801 164.573426 260.522801 
z
" style="fill: #ffffff; opacity: 0.8; stroke: #cccccc; stroke-width: 0.75; stroke-linejoin: miter"/>
    </g>
    <g id="line2d_26">
     <path d="M 166.373426 251.984051 
L 175.373426 251.984051 
L 184.373426 251.984051 
" style="fill: none; stroke: #1f77b4; stroke-width: 1.5; stroke-linecap: round"/>
    </g>
    <g id="text_16">
     <!-- Precision-Recall curve -->
     <g style="fill: #333333" transform="translate(191.573426 255.134051) scale(0.09 -0.09)">
      <defs>
       <path id="ArialMT-50" d="M 494 0 
L 494 4581 
L 2222 4581 
Q 2678 4581 2919 4538 
Q 3256 4481 3484 4323 
Q 3713 4166 3852 3881 
Q 3991 3597 3991 3256 
Q 3991 2672 3619 2267 
Q 3247 1863 2275 1863 
L 1100 1863 
L 1100 0 
L 494 0 
z
M 1100 2403 
L 2284 2403 
Q 2872 2403 3119 2622 
Q 3366 2841 3366 3238 
Q 3366 3525 3220 3729 
Q 3075 3934 2838 4000 
Q 2684 4041 2272 4041 
L 1100 4041 
L 1100 2403 
z
" transform="scale(0.015625)"/>
       <path id="ArialMT-72" d="M 416 0 
L 416 3319 
L 922 3319 
L 922 2816 
Q 1116 3169 1280 3281 
Q 1444 3394 1641 3394 
Q 1925 3394 2219 3213 
L 2025 2691 
Q 1819 2813 1613 2813 
Q 1428 2813 1281 2702 
Q 1134 2591 1072 2394 
Q 978 2094 978 1738 
L 978 0 
L 416 0 
z
" transform="scale(0.015625)"/>
       <path id="ArialMT-65" d="M 2694 1069 
L 3275 997 
Q 3138 488 2766 206 
Q 2394 -75 1816 -75 
Q 1088 -75 661 373 
Q 234 822 234 1631 
Q 234 2469 665 2931 
Q 1097 3394 1784 3394 
Q 2450 3394 2872 2941 
Q 3294 2488 3294 1666 
Q 3294 1616 3291 1516 
L 816 1516 
Q 847 969 1125 678 
Q 1403 388 1819 388 
Q 2128 388 2347 550 
Q 2566 713 2694 1069 
z
M 847 1978 
L 2700 1978 
Q 2663 2397 2488 2606 
Q 2219 2931 1791 2931 
Q 1403 2931 1139 2672 
Q 875 2413 847 1978 
z
" transform="scale(0.015625)"/>
       <path id="ArialMT-63" d="M 2588 1216 
L 3141 1144 
Q 3050 572 2676 248 
Q 2303 -75 1759 -75 
Q 1078 -75 664 370 
Q 250 816 250 1647 
Q 250 2184 428 2587 
Q 606 2991 970 3192 
Q 1334 3394 1763 3394 
Q 2303 3394 2647 3120 
Q 2991 2847 3088 2344 
L 2541 2259 
Q 2463 2594 2264 2762 
Q 2066 2931 1784 2931 
Q 1359 2931 1093 2626 
Q 828 2322 828 1663 
Q 828 994 1084 691 
Q 1341 388 1753 388 
Q 2084 388 2306 591 
Q 2528 794 2588 1216 
z
" transform="scale(0.015625)"/>
       <path id="ArialMT-69" d="M 425 3934 
L 425 4581 
L 988 4581 
L 988 3934 
L 425 3934 
z
M 425 0 
L 425 3319 
L 988 3319 
L 988 0 
L 425 0 
z
" transform="scale(0.015625)"/>
       <path id="ArialMT-73" d="M 197 991 
L 753 1078 
Q 800 744 1014 566 
Q 1228 388 1613 388 
Q 2000 388 2187 545 
Q 2375 703 2375 916 
Q 2375 1106 2209 1216 
Q 2094 1291 1634 1406 
Q 1016 1563 777 1677 
Q 538 1791 414 1992 
Q 291 2194 291 2438 
Q 291 2659 392 2848 
Q 494 3038 669 3163 
Q 800 3259 1026 3326 
Q 1253 3394 1513 3394 
Q 1903 3394 2198 3281 
Q 2494 3169 2634 2976 
Q 2775 2784 2828 2463 
L 2278 2388 
Q 2241 2644 2061 2787 
Q 1881 2931 1553 2931 
Q 1166 2931 1000 2803 
Q 834 2675 834 2503 
Q 834 2394 903 2306 
Q 972 2216 1119 2156 
Q 1203 2125 1616 2013 
Q 2213 1853 2448 1751 
Q 2684 1650 2818 1456 
Q 2953 1263 2953 975 
Q 2953 694 2789 445 
Q 2625 197 2315 61 
Q 2006 -75 1616 -75 
Q 969 -75 630 194 
Q 291 463 197 991 
z
" transform="scale(0.015625)"/>
       <path id="ArialMT-6f" d="M 213 1659 
Q 213 2581 725 3025 
Q 1153 3394 1769 3394 
Q 2453 3394 2887 2945 
Q 3322 2497 3322 1706 
Q 3322 1066 3130 698 
Q 2938 331 2570 128 
Q 2203 -75 1769 -75 
Q 1072 -75 642 372 
Q 213 819 213 1659 
z
M 791 1659 
Q 791 1022 1069 705 
Q 1347 388 1769 388 
Q 2188 388 2466 706 
Q 2744 1025 2744 1678 
Q 2744 2294 2464 2611 
Q 2184 2928 1769 2928 
Q 1347 2928 1069 2612 
Q 791 2297 791 1659 
z
" transform="scale(0.015625)"/>
       <path id="ArialMT-6e" d="M 422 0 
L 422 3319 
L 928 3319 
L 928 2847 
Q 1294 3394 1984 3394 
Q 2284 3394 2536 3286 
Q 2788 3178 2913 3003 
Q 3038 2828 3088 2588 
Q 3119 2431 3119 2041 
L 3119 0 
L 2556 0 
L 2556 2019 
Q 2556 2363 2490 2533 
Q 2425 2703 2258 2804 
Q 2091 2906 1866 2906 
Q 1506 2906 1245 2678 
Q 984 2450 984 1813 
L 984 0 
L 422 0 
z
" transform="scale(0.015625)"/>
       <path id="ArialMT-2d" d="M 203 1375 
L 203 1941 
L 1931 1941 
L 1931 1375 
L 203 1375 
z
" transform="scale(0.015625)"/>
       <path id="ArialMT-52" d="M 503 0 
L 503 4581 
L 2534 4581 
Q 3147 4581 3465 4457 
Q 3784 4334 3975 4021 
Q 4166 3709 4166 3331 
Q 4166 2844 3850 2509 
Q 3534 2175 2875 2084 
Q 3116 1969 3241 1856 
Q 3506 1613 3744 1247 
L 4541 0 
L 3778 0 
L 3172 953 
Q 2906 1366 2734 1584 
Q 2563 1803 2427 1890 
Q 2291 1978 2150 2013 
Q 2047 2034 1813 2034 
L 1109 2034 
L 1109 0 
L 503 0 
z
M 1109 2559 
L 2413 2559 
Q 2828 2559 3062 2645 
Q 3297 2731 3419 2920 
Q 3541 3109 3541 3331 
Q 3541 3656 3305 3865 
Q 3069 4075 2559 4075 
L 1109 4075 
L 1109 2559 
z
" transform="scale(0.015625)"/>
       <path id="ArialMT-61" d="M 2588 409 
Q 2275 144 1986 34 
Q 1697 -75 1366 -75 
Q 819 -75 525 192 
Q 231 459 231 875 
Q 231 1119 342 1320 
Q 453 1522 633 1644 
Q 813 1766 1038 1828 
Q 1203 1872 1538 1913 
Q 2219 1994 2541 2106 
Q 2544 2222 2544 2253 
Q 2544 2597 2384 2738 
Q 2169 2928 1744 2928 
Q 1347 2928 1158 2789 
Q 969 2650 878 2297 
L 328 2372 
Q 403 2725 575 2942 
Q 747 3159 1072 3276 
Q 1397 3394 1825 3394 
Q 2250 3394 2515 3294 
Q 2781 3194 2906 3042 
Q 3031 2891 3081 2659 
Q 3109 2516 3109 2141 
L 3109 1391 
Q 3109 606 3145 398 
Q 3181 191 3288 0 
L 2700 0 
Q 2613 175 2588 409 
z
M 2541 1666 
Q 2234 1541 1622 1453 
Q 1275 1403 1131 1340 
Q 988 1278 909 1158 
Q 831 1038 831 891 
Q 831 666 1001 516 
Q 1172 366 1500 366 
Q 1825 366 2078 508 
Q 2331 650 2450 897 
Q 2541 1088 2541 1459 
L 2541 1666 
z
" transform="scale(0.015625)"/>
       <path id="ArialMT-6c" d="M 409 0 
L 409 4581 
L 972 4581 
L 972 0 
L 409 0 
z
" transform="scale(0.015625)"/>
       <path id="ArialMT-20" transform="scale(0.015625)"/>
       <path id="ArialMT-75" d="M 2597 0 
L 2597 488 
Q 2209 -75 1544 -75 
Q 1250 -75 995 37 
Q 741 150 617 320 
Q 494 491 444 738 
Q 409 903 409 1263 
L 409 3319 
L 972 3319 
L 972 1478 
Q 972 1038 1006 884 
Q 1059 663 1231 536 
Q 1403 409 1656 409 
Q 1909 409 2131 539 
Q 2353 669 2445 892 
Q 2538 1116 2538 1541 
L 2538 3319 
L 3100 3319 
L 3100 0 
L 2597 0 
z
" transform="scale(0.015625)"/>
       <path id="ArialMT-76" d="M 1344 0 
L 81 3319 
L 675 3319 
L 1388 1331 
Q 1503 1009 1600 663 
Q 1675 925 1809 1294 
L 2547 3319 
L 3125 3319 
L 1869 0 
L 1344 0 
z
" transform="scale(0.015625)"/>
      </defs>
      <use xlink:href="#ArialMT-50"/>
      <use xlink:href="#ArialMT-72" transform="translate(66.699219 0)"/>
      <use xlink:href="#ArialMT-65" transform="translate(100 0)"/>
      <use xlink:href="#ArialMT-63" transform="translate(155.615234 0)"/>
      <use xlink:href="#ArialMT-69" transform="translate(205.615234 0)"/>
      <use xlink:href="#ArialMT-73" transform="translate(227.832031 0)"/>
      <use xlink:href="#ArialMT-69" transform="translate(277.832031 0)"/>
      <use xlink:href="#ArialMT-6f" transform="translate(300.048828 0)"/>
      <use xlink:href="#ArialMT-6e" transform="translate(355.664062 0)"/>
      <use xlink:href="#ArialMT-2d" transform="translate(411.279297 0)"/>
      <use xlink:href="#ArialMT-52" transform="translate(444.580078 0)"/>
      <use xlink:href="#ArialMT-65" transform="translate(516.796875 0)"/>
      <use xlink:href="#ArialMT-63" transform="translate(572.412109 0)"/>
      <use xlink:href="#ArialMT-61" transform="translate(622.412109 0)"/>
      <use xlink:href="#ArialMT-6c" transform="translate(678.027344 0)"/>
      <use xlink:href="#ArialMT-6c" transform="translate(700.244141 0)"/>
      <use xlink:href="#ArialMT-20" transform="translate(722.460938 0)"/>
      <use xlink:href="#ArialMT-63" transform="translate(750.244141 0)"/>
      <use xlink:href="#ArialMT-75" transform="translate(800.244141 0)"/>
      <use xlink:href="#ArialMT-72" transform="translate(855.859375 0)"/>
      <use xlink:href="#ArialMT-76" transform="translate(889.160156 0)"/>
      <use xlink:href="#ArialMT-65" transform="translate(939.160156 0)"/>
     </g>
    </g>
   </g>
  </g>
 </g>
 <defs>
  <clipPath id="p5eb0918316">
   <rect x="35.655938" y="19.642031" width="253.543583" height="245.38077"/>
  </clipPath>
 </defs>
</svg>
