<?xml version="1.0" encoding="utf-8" standalone="no"?>
<!DOCTYPE svg PUBLIC "-//W3C//DTD SVG 1.1//EN"
  "http://www.w3.org/Graphics/SVG/1.1/DTD/svg11.dtd">
<svg xmlns:xlink="http://www.w3.org/1999/xlink" width="296.39952pt" height="296.39952pt" viewBox="0 0 296.39952 296.39952" xmlns="http://www.w3.org/2000/svg" version="1.1">
 <metadata>
  <rdf:RDF xmlns:dc="http://purl.org/dc/elements/1.1/" xmlns:cc="http://creativecommons.org/ns#" xmlns:rdf="http://www.w3.org/1999/02/22-rdf-syntax-ns#">
   <cc:Work>
    <dc:type rdf:resource="http://purl.org/dc/dcmitype/StillImage"/>
    <dc:date>2025-12-27T08:19:37.839437</dc:date>
    <dc:format>image/svg+xml</dc:format>
    <dc:creator>
     <cc:Agent>
      <dc:title>Matplotlib v3.10.8, https://matplotlib.org/</dc:title>
     </cc:Agent>
    </dc:creator>
   </cc:Work>
  </rdf:RDF>
 </metadata>
 <defs>
  <style type="text/css">*{stroke-linejoin: round; stroke-linecap: butt}</style>
 </defs>
 <g id="figure_1">
  <g id="patch_1">
   <path d="M 0 296.39952 
L 296.39952 296.39952 
L 296.39952 0 
L 0 0 
z
" style="fill: #ffffff"/>
  </g>
  <g id="axes_1">
   <g id="patch_2">
    <path d="M 35.655938 265.022801 
L 289.19952 265.022801 
L 289.19952 19.642031 
L 35.655938 19.642031 
z
" style="fill: #ffffff"/>
   </g>
   <g id="matplotlib.axis_1">
    <g id="xtick_1">
     <g id="line2d_1">
      <path d="M 42.831699 265.022801 
L 42.831699 19.642031 
" clip-path="url(#p2117469542)" style="fill: none; stroke: #c0c0c0; stroke-width: 0.25; stroke-linecap: round"/>
     </g>
     <g id="line2d_2"/>
     <g id="text_1">
      <!-- 0.0 -->
      <g style="fill: #333333" transform="translate(36.576699 274.964832) scale(0.09 -0.09)">
       <defs>
        <path id="ArialMT-30" d="M 266 2259 
Q 266 3072 433 3567 
Q 600 4063 929 4331 
Q 1259 4600 1759 4600 
Q 2128 4600 2406 4451 
Q 2684 4303 2865 4023 
Q 3047 3744 3150 3342 
Q 3253 2941 3253 2259 
Q 3253 1453 3087 958 
Q 2922 463 2592 192 
Q 2263 -78 1759 -78 
Q 1097 -78 719 397 
Q 266 969 266 2259 
z
M 844 2259 
Q 844 1131 1108 757 
Q 1372 384 1759 384 
Q 2147 384 2411 759 
Q 2675 1134 2675 2259 
Q 2675 3391 2411 3762 
Q 2147 4134 1753 4134 
Q 1366 4134 1134 3806 
Q 844 3388 844 2259 
z
" transform="scale(0.015625)"/>
        <path id="ArialMT-2e" d="M 581 0 
L 581 641 
L 1222 641 
L 1222 0 
L 581 0 
z
" transform="scale(0.015625)"/>
       </defs>
       <use xlink:href="#ArialMT-30"/>
       <use xlink:href="#ArialMT-2e" transform="translate(55.615234 0)"/>
       <use xlink:href="#ArialMT-30" transform="translate(83.398438 0)"/>
      </g>
     </g>
    </g>
    <g id="xtick_2">
     <g id="line2d_3">
      <path d="M 90.670111 265.022801 
L 90.670111 19.642031 
" clip-path="url(#p2117469542)" style="fill: none; stroke: #c0c0c0; stroke-width: 0.25; stroke-linecap: round"/>
     </g>
     <g id="line2d_4"/>
     <g id="text_2">
      <!-- 0.2 -->
      <g style="fill: #333333" transform="translate(84.415111 274.964832) scale(0.09 -0.09)">
       <defs>
        <path id="ArialMT-32" d="M 3222 541 
L 3222 0 
L 194 0 
Q 188 203 259 391 
Q 375 700 629 1000 
Q 884 1300 1366 1694 
Q 2113 2306 2375 2664 
Q 2638 3022 2638 3341 
Q 2638 3675 2398 3904 
Q 2159 4134 1775 4134 
Q 1369 4134 1125 3890 
Q 881 3647 878 3216 
L 300 3275 
Q 359 3922 746 4261 
Q 1134 4600 1788 4600 
Q 2447 4600 2831 4234 
Q 3216 3869 3216 3328 
Q 3216 3053 3103 2787 
Q 2991 2522 2730 2228 
Q 2469 1934 1863 1422 
Q 1356 997 1212 845 
Q 1069 694 975 541 
L 3222 541 
z
" transform="scale(0.015625)"/>
       </defs>
       <use xlink:href="#ArialMT-30"/>
       <use xlink:href="#ArialMT-2e" transform="translate(55.615234 0)"/>
       <use xlink:href="#ArialMT-32" transform="translate(83.398438 0)"/>
      </g>
     </g>
    </g>
    <g id="xtick_3">
     <g id="line2d_5">
      <path d="M 138.508523 265.022801 
L 138.508523 19.642031 
" clip-path="url(#p2117469542)" style="fill: none; stroke: #c0c0c0; stroke-width: 0.25; stroke-linecap: round"/>
     </g>
     <g id="line2d_6"/>
     <g id="text_3">
      <!-- 0.4 -->
      <g style="fill: #333333" transform="translate(132.253523 274.964832) scale(0.09 -0.09)">
       <defs>
        <path id="ArialMT-34" d="M 2069 0 
L 2069 1097 
L 81 1097 
L 81 1613 
L 2172 4581 
L 2631 4581 
L 2631 1613 
L 3250 1613 
L 3250 1097 
L 2631 1097 
L 2631 0 
L 2069 0 
z
M 2069 1613 
L 2069 3678 
L 634 1613 
L 2069 1613 
z
" transform="scale(0.015625)"/>
       </defs>
       <use xlink:href="#ArialMT-30"/>
       <use xlink:href="#ArialMT-2e" transform="translate(55.615234 0)"/>
       <use xlink:href="#ArialMT-34" transform="translate(83.398438 0)"/>
      </g>
     </g>
    </g>
    <g id="xtick_4">
     <g id="line2d_7">
      <path d="M 186.346935 265.022801 
L 186.346935 19.642031 
" clip-path="url(#p2117469542)" style="fill: none; stroke: #c0c0c0; stroke-width: 0.25; stroke-linecap: round"/>
     </g>
     <g id="line2d_8"/>
     <g id="text_4">
      <!-- 0.6 -->
      <g style="fill: #333333" transform="translate(180.091935 274.964832) scale(0.09 -0.09)">
       <defs>
        <path id="ArialMT-36" d="M 3184 3459 
L 2625 3416 
Q 2550 3747 2413 3897 
Q 2184 4138 1850 4138 
Q 1581 4138 1378 3988 
Q 1113 3794 959 3422 
Q 806 3050 800 2363 
Q 1003 2672 1297 2822 
Q 1591 2972 1913 2972 
Q 2475 2972 2870 2558 
Q 3266 2144 3266 1488 
Q 3266 1056 3080 686 
Q 2894 316 2569 119 
Q 2244 -78 1831 -78 
Q 1128 -78 684 439 
Q 241 956 241 2144 
Q 241 3472 731 4075 
Q 1159 4600 1884 4600 
Q 2425 4600 2770 4297 
Q 3116 3994 3184 3459 
z
M 888 1484 
Q 888 1194 1011 928 
Q 1134 663 1356 523 
Q 1578 384 1822 384 
Q 2178 384 2434 671 
Q 2691 959 2691 1453 
Q 2691 1928 2437 2201 
Q 2184 2475 1800 2475 
Q 1419 2475 1153 2201 
Q 888 1928 888 1484 
z
" transform="scale(0.015625)"/>
       </defs>
       <use xlink:href="#ArialMT-30"/>
       <use xlink:href="#ArialMT-2e" transform="translate(55.615234 0)"/>
       <use xlink:href="#ArialMT-36" transform="translate(83.398438 0)"/>
      </g>
     </g>
    </g>
    <g id="xtick_5">
     <g id="line2d_9">
      <path d="M 234.185346 265.022801 
L 234.185346 19.642031 
" clip-path="url(#p2117469542)" style="fill: none; stroke: #c0c0c0; stroke-width: 0.25; stroke-linecap: round"/>
     </g>
     <g id="line2d_10"/>
     <g id="text_5">
      <!-- 0.8 -->
      <g style="fill: #333333" transform="translate(227.930346 274.964832) scale(0.09 -0.09)">
       <defs>
        <path id="ArialMT-38" d="M 1131 2484 
Q 781 2613 612 2850 
Q 444 3088 444 3419 
Q 444 3919 803 4259 
Q 1163 4600 1759 4600 
Q 2359 4600 2725 4251 
Q 3091 3903 3091 3403 
Q 3091 3084 2923 2848 
Q 2756 2613 2416 2484 
Q 2838 2347 3058 2040 
Q 3278 1734 3278 1309 
Q 3278 722 2862 322 
Q 2447 -78 1769 -78 
Q 1091 -78 675 323 
Q 259 725 259 1325 
Q 259 1772 486 2073 
Q 713 2375 1131 2484 
z
M 1019 3438 
Q 1019 3113 1228 2906 
Q 1438 2700 1772 2700 
Q 2097 2700 2305 2904 
Q 2513 3109 2513 3406 
Q 2513 3716 2298 3927 
Q 2084 4138 1766 4138 
Q 1444 4138 1231 3931 
Q 1019 3725 1019 3438 
z
M 838 1322 
Q 838 1081 952 856 
Q 1066 631 1291 507 
Q 1516 384 1775 384 
Q 2178 384 2440 643 
Q 2703 903 2703 1303 
Q 2703 1709 2433 1975 
Q 2163 2241 1756 2241 
Q 1359 2241 1098 1978 
Q 838 1716 838 1322 
z
" transform="scale(0.015625)"/>
       </defs>
       <use xlink:href="#ArialMT-30"/>
       <use xlink:href="#ArialMT-2e" transform="translate(55.615234 0)"/>
       <use xlink:href="#ArialMT-38" transform="translate(83.398438 0)"/>
      </g>
     </g>
    </g>
    <g id="xtick_6">
     <g id="line2d_11">
      <path d="M 282.023758 265.022801 
L 282.023758 19.642031 
" clip-path="url(#p2117469542)" style="fill: none; stroke: #c0c0c0; stroke-width: 0.25; stroke-linecap: round"/>
     </g>
     <g id="line2d_12"/>
     <g id="text_6">
      <!-- 1.0 -->
      <g style="fill: #333333" transform="translate(275.768758 274.964832) scale(0.09 -0.09)">
       <defs>
        <path id="ArialMT-31" d="M 2384 0 
L 1822 0 
L 1822 3584 
Q 1619 3391 1289 3197 
Q 959 3003 697 2906 
L 697 3450 
Q 1169 3672 1522 3987 
Q 1875 4303 2022 4600 
L 2384 4600 
L 2384 0 
z
" transform="scale(0.015625)"/>
       </defs>
       <use xlink:href="#ArialMT-31"/>
       <use xlink:href="#ArialMT-2e" transform="translate(55.615234 0)"/>
       <use xlink:href="#ArialMT-30" transform="translate(83.398438 0)"/>
      </g>
     </g>
    </g>
    <g id="text_7">
     <!-- Recall [TP / (TP + FN)] -->
     <g style="fill: #333333" transform="translate(115.706479 287.305301) scale(0.09 -0.09)">
      <defs>
       <path id="Arial-BoldMT-52" d="M 469 0 
L 469 4581 
L 2416 4581 
Q 3150 4581 3483 4457 
Q 3816 4334 4016 4018 
Q 4216 3703 4216 3297 
Q 4216 2781 3912 2445 
Q 3609 2109 3006 2022 
Q 3306 1847 3501 1637 
Q 3697 1428 4028 894 
L 4588 0 
L 3481 0 
L 2813 997 
Q 2456 1531 2325 1670 
Q 2194 1809 2047 1861 
Q 1900 1913 1581 1913 
L 1394 1913 
L 1394 0 
L 469 0 
z
M 1394 2644 
L 2078 2644 
Q 2744 2644 2909 2700 
Q 3075 2756 3169 2893 
Q 3263 3031 3263 3238 
Q 3263 3469 3139 3611 
Q 3016 3753 2791 3791 
Q 2678 3806 2116 3806 
L 1394 3806 
L 1394 2644 
z
" transform="scale(0.015625)"/>
       <path id="Arial-BoldMT-65" d="M 2381 1056 
L 3256 909 
Q 3088 428 2723 176 
Q 2359 -75 1813 -75 
Q 947 -75 531 491 
Q 203 944 203 1634 
Q 203 2459 634 2926 
Q 1066 3394 1725 3394 
Q 2466 3394 2894 2905 
Q 3322 2416 3303 1406 
L 1103 1406 
Q 1113 1016 1316 798 
Q 1519 581 1822 581 
Q 2028 581 2168 693 
Q 2309 806 2381 1056 
z
M 2431 1944 
Q 2422 2325 2234 2523 
Q 2047 2722 1778 2722 
Q 1491 2722 1303 2513 
Q 1116 2303 1119 1944 
L 2431 1944 
z
" transform="scale(0.015625)"/>
       <path id="Arial-BoldMT-63" d="M 3353 2338 
L 2488 2181 
Q 2444 2441 2289 2572 
Q 2134 2703 1888 2703 
Q 1559 2703 1364 2476 
Q 1169 2250 1169 1719 
Q 1169 1128 1367 884 
Q 1566 641 1900 641 
Q 2150 641 2309 783 
Q 2469 925 2534 1272 
L 3397 1125 
Q 3263 531 2881 228 
Q 2500 -75 1859 -75 
Q 1131 -75 698 384 
Q 266 844 266 1656 
Q 266 2478 700 2936 
Q 1134 3394 1875 3394 
Q 2481 3394 2839 3133 
Q 3197 2872 3353 2338 
z
" transform="scale(0.015625)"/>
       <path id="Arial-BoldMT-61" d="M 1116 2306 
L 319 2450 
Q 453 2931 781 3162 
Q 1109 3394 1756 3394 
Q 2344 3394 2631 3255 
Q 2919 3116 3036 2902 
Q 3153 2688 3153 2116 
L 3144 1091 
Q 3144 653 3186 445 
Q 3228 238 3344 0 
L 2475 0 
Q 2441 88 2391 259 
Q 2369 338 2359 363 
Q 2134 144 1878 34 
Q 1622 -75 1331 -75 
Q 819 -75 523 203 
Q 228 481 228 906 
Q 228 1188 362 1408 
Q 497 1628 739 1745 
Q 981 1863 1438 1950 
Q 2053 2066 2291 2166 
L 2291 2253 
Q 2291 2506 2166 2614 
Q 2041 2722 1694 2722 
Q 1459 2722 1328 2630 
Q 1197 2538 1116 2306 
z
M 2291 1594 
Q 2122 1538 1756 1459 
Q 1391 1381 1278 1306 
Q 1106 1184 1106 997 
Q 1106 813 1243 678 
Q 1381 544 1594 544 
Q 1831 544 2047 700 
Q 2206 819 2256 991 
Q 2291 1103 2291 1419 
L 2291 1594 
z
" transform="scale(0.015625)"/>
       <path id="Arial-BoldMT-6c" d="M 459 0 
L 459 4581 
L 1338 4581 
L 1338 0 
L 459 0 
z
" transform="scale(0.015625)"/>
       <path id="Arial-BoldMT-20" transform="scale(0.015625)"/>
       <path id="Arial-BoldMT-5b" d="M 456 -1291 
L 456 4581 
L 2013 4581 
L 2013 3891 
L 1291 3891 
L 1291 -600 
L 2013 -600 
L 2013 -1291 
L 456 -1291 
z
" transform="scale(0.015625)"/>
       <path id="Arial-BoldMT-54" d="M 1497 0 
L 1497 3806 
L 138 3806 
L 138 4581 
L 3778 4581 
L 3778 3806 
L 2422 3806 
L 2422 0 
L 1497 0 
z
" transform="scale(0.015625)"/>
       <path id="Arial-BoldMT-50" d="M 466 0 
L 466 4581 
L 1950 4581 
Q 2794 4581 3050 4513 
Q 3444 4409 3709 4064 
Q 3975 3719 3975 3172 
Q 3975 2750 3822 2462 
Q 3669 2175 3433 2011 
Q 3197 1847 2953 1794 
Q 2622 1728 1994 1728 
L 1391 1728 
L 1391 0 
L 466 0 
z
M 1391 3806 
L 1391 2506 
L 1897 2506 
Q 2444 2506 2628 2578 
Q 2813 2650 2917 2803 
Q 3022 2956 3022 3159 
Q 3022 3409 2875 3571 
Q 2728 3734 2503 3775 
Q 2338 3806 1838 3806 
L 1391 3806 
z
" transform="scale(0.015625)"/>
       <path id="Arial-BoldMT-2f" d="M -9 -78 
L 1125 4659 
L 1784 4659 
L 638 -78 
L -9 -78 
z
" transform="scale(0.015625)"/>
       <path id="Arial-BoldMT-28" d="M 1916 -1347 
L 1313 -1347 
Q 834 -625 584 153 
Q 334 931 334 1659 
Q 334 2563 644 3369 
Q 913 4069 1325 4659 
L 1925 4659 
Q 1497 3713 1336 3048 
Q 1175 2384 1175 1641 
Q 1175 1128 1270 590 
Q 1366 53 1531 -431 
Q 1641 -750 1916 -1347 
z
" transform="scale(0.015625)"/>
       <path id="Arial-BoldMT-2b" d="M 1466 659 
L 1466 1850 
L 266 1850 
L 266 2672 
L 1466 2672 
L 1466 3863 
L 2266 3863 
L 2266 2672 
L 3469 2672 
L 3469 1850 
L 2266 1850 
L 2266 659 
L 1466 659 
z
" transform="scale(0.015625)"/>
       <path id="Arial-BoldMT-46" d="M 472 0 
L 472 4581 
L 3613 4581 
L 3613 3806 
L 1397 3806 
L 1397 2722 
L 3309 2722 
L 3309 1947 
L 1397 1947 
L 1397 0 
L 472 0 
z
" transform="scale(0.015625)"/>
       <path id="Arial-BoldMT-4e" d="M 475 0 
L 475 4581 
L 1375 4581 
L 3250 1522 
L 3250 4581 
L 4109 4581 
L 4109 0 
L 3181 0 
L 1334 2988 
L 1334 0 
L 475 0 
z
" transform="scale(0.015625)"/>
       <path id="Arial-BoldMT-29" d="M 216 -1347 
Q 475 -791 581 -494 
Q 688 -197 778 190 
Q 869 578 912 926 
Q 956 1275 956 1641 
Q 956 2384 797 3048 
Q 638 3713 209 4659 
L 806 4659 
Q 1278 3988 1539 3234 
Q 1800 2481 1800 1706 
Q 1800 1053 1594 306 
Q 1359 -531 822 -1347 
L 216 -1347 
z
" transform="scale(0.015625)"/>
       <path id="Arial-BoldMT-5d" d="M 1675 4581 
L 1675 -1291 
L 119 -1291 
L 119 -600 
L 841 -600 
L 841 3897 
L 119 3897 
L 119 4581 
L 1675 4581 
z
" transform="scale(0.015625)"/>
      </defs>
      <use xlink:href="#Arial-BoldMT-52"/>
      <use xlink:href="#Arial-BoldMT-65" transform="translate(72.216797 0)"/>
      <use xlink:href="#Arial-BoldMT-63" transform="translate(127.832031 0)"/>
      <use xlink:href="#Arial-BoldMT-61" transform="translate(183.447266 0)"/>
      <use xlink:href="#Arial-BoldMT-6c" transform="translate(239.0625 0)"/>
      <use xlink:href="#Arial-BoldMT-6c" transform="translate(266.845703 0)"/>
      <use xlink:href="#Arial-BoldMT-20" transform="translate(294.628906 0)"/>
      <use xlink:href="#Arial-BoldMT-5b" transform="translate(322.412109 0)"/>
      <use xlink:href="#Arial-BoldMT-54" transform="translate(355.712891 0)"/>
      <use xlink:href="#Arial-BoldMT-50" transform="translate(416.796875 0)"/>
      <use xlink:href="#Arial-BoldMT-20" transform="translate(481.746094 0)"/>
      <use xlink:href="#Arial-BoldMT-2f" transform="translate(509.529297 0)"/>
      <use xlink:href="#Arial-BoldMT-20" transform="translate(537.3125 0)"/>
      <use xlink:href="#Arial-BoldMT-28" transform="translate(565.095703 0)"/>
      <use xlink:href="#Arial-BoldMT-54" transform="translate(598.396484 0)"/>
      <use xlink:href="#Arial-BoldMT-50" transform="translate(659.480469 0)"/>
      <use xlink:href="#Arial-BoldMT-20" transform="translate(724.429688 0)"/>
      <use xlink:href="#Arial-BoldMT-2b" transform="translate(752.212891 0)"/>
      <use xlink:href="#Arial-BoldMT-20" transform="translate(810.611328 0)"/>
      <use xlink:href="#Arial-BoldMT-46" transform="translate(838.394531 0)"/>
      <use xlink:href="#Arial-BoldMT-4e" transform="translate(899.478516 0)"/>
      <use xlink:href="#Arial-BoldMT-29" transform="translate(971.695312 0)"/>
      <use xlink:href="#Arial-BoldMT-5d" transform="translate(1004.996094 0)"/>
     </g>
    </g>
   </g>
   <g id="matplotlib.axis_2">
    <g id="ytick_1">
     <g id="line2d_13">
      <path d="M 35.655938 265.022801 
L 289.19952 265.022801 
" clip-path="url(#p2117469542)" style="fill: none; stroke: #c0c0c0; stroke-width: 0.25; stroke-linecap: round"/>
     </g>
     <g id="line2d_14"/>
     <g id="text_8">
      <!-- 0.0 -->
      <g style="fill: #333333" transform="translate(19.645938 268.243817) scale(0.09 -0.09)">
       <use xlink:href="#ArialMT-30"/>
       <use xlink:href="#ArialMT-2e" transform="translate(55.615234 0)"/>
       <use xlink:href="#ArialMT-30" transform="translate(83.398438 0)"/>
      </g>
     </g>
    </g>
    <g id="ytick_2">
     <g id="line2d_15">
      <path d="M 35.655938 217.37605 
L 289.19952 217.37605 
" clip-path="url(#p2117469542)" style="fill: none; stroke: #c0c0c0; stroke-width: 0.25; stroke-linecap: round"/>
     </g>
     <g id="line2d_16"/>
     <g id="text_9">
      <!-- 0.2 -->
      <g style="fill: #333333" transform="translate(19.645938 220.597065) scale(0.09 -0.09)">
       <use xlink:href="#ArialMT-30"/>
       <use xlink:href="#ArialMT-2e" transform="translate(55.615234 0)"/>
       <use xlink:href="#ArialMT-32" transform="translate(83.398438 0)"/>
      </g>
     </g>
    </g>
    <g id="ytick_3">
     <g id="line2d_17">
      <path d="M 35.655938 169.729298 
L 289.19952 169.729298 
" clip-path="url(#p2117469542)" style="fill: none; stroke: #c0c0c0; stroke-width: 0.25; stroke-linecap: round"/>
     </g>
     <g id="line2d_18"/>
     <g id="text_10">
      <!-- 0.4 -->
      <g style="fill: #333333" transform="translate(19.645938 172.950314) scale(0.09 -0.09)">
       <use xlink:href="#ArialMT-30"/>
       <use xlink:href="#ArialMT-2e" transform="translate(55.615234 0)"/>
       <use xlink:href="#ArialMT-34" transform="translate(83.398438 0)"/>
      </g>
     </g>
    </g>
    <g id="ytick_4">
     <g id="line2d_19">
      <path d="M 35.655938 122.082547 
L 289.19952 122.082547 
" clip-path="url(#p2117469542)" style="fill: none; stroke: #c0c0c0; stroke-width: 0.25; stroke-linecap: round"/>
     </g>
     <g id="line2d_20"/>
     <g id="text_11">
      <!-- 0.6 -->
      <g style="fill: #333333" transform="translate(19.645938 125.303563) scale(0.09 -0.09)">
       <use xlink:href="#ArialMT-30"/>
       <use xlink:href="#ArialMT-2e" transform="translate(55.615234 0)"/>
       <use xlink:href="#ArialMT-36" transform="translate(83.398438 0)"/>
      </g>
     </g>
    </g>
    <g id="ytick_5">
     <g id="line2d_21">
      <path d="M 35.655938 74.435795 
L 289.19952 74.435795 
" clip-path="url(#p2117469542)" style="fill: none; stroke: #c0c0c0; stroke-width: 0.25; stroke-linecap: round"/>
     </g>
     <g id="line2d_22"/>
     <g id="text_12">
      <!-- 0.8 -->
      <g style="fill: #333333" transform="translate(19.645938 77.656811) scale(0.09 -0.09)">
       <use xlink:href="#ArialMT-30"/>
       <use xlink:href="#ArialMT-2e" transform="translate(55.615234 0)"/>
       <use xlink:href="#ArialMT-38" transform="translate(83.398438 0)"/>
      </g>
     </g>
    </g>
    <g id="ytick_6">
     <g id="line2d_23">
      <path d="M 35.655938 26.789044 
L 289.19952 26.789044 
" clip-path="url(#p2117469542)" style="fill: none; stroke: #c0c0c0; stroke-width: 0.25; stroke-linecap: round"/>
     </g>
     <g id="line2d_24"/>
     <g id="text_13">
      <!-- 1.0 -->
      <g style="fill: #333333" transform="translate(19.645938 30.01006) scale(0.09 -0.09)">
       <use xlink:href="#ArialMT-31"/>
       <use xlink:href="#ArialMT-2e" transform="translate(55.615234 0)"/>
       <use xlink:href="#ArialMT-30" transform="translate(83.398438 0)"/>
      </g>
     </g>
    </g>
    <g id="text_14">
     <!-- Precision [TP / (TP + FP)] -->
     <g style="fill: #333333" transform="translate(13.751719 195.805776) rotate(-90) scale(0.09 -0.09)">
      <defs>
       <path id="Arial-BoldMT-72" d="M 1300 0 
L 422 0 
L 422 3319 
L 1238 3319 
L 1238 2847 
Q 1447 3181 1614 3287 
Q 1781 3394 1994 3394 
Q 2294 3394 2572 3228 
L 2300 2463 
Q 2078 2606 1888 2606 
Q 1703 2606 1575 2504 
Q 1447 2403 1373 2137 
Q 1300 1872 1300 1025 
L 1300 0 
z
" transform="scale(0.015625)"/>
       <path id="Arial-BoldMT-69" d="M 459 3769 
L 459 4581 
L 1338 4581 
L 1338 3769 
L 459 3769 
z
M 459 0 
L 459 3319 
L 1338 3319 
L 1338 0 
L 459 0 
z
" transform="scale(0.015625)"/>
       <path id="Arial-BoldMT-73" d="M 150 947 
L 1031 1081 
Q 1088 825 1259 692 
Q 1431 559 1741 559 
Q 2081 559 2253 684 
Q 2369 772 2369 919 
Q 2369 1019 2306 1084 
Q 2241 1147 2013 1200 
Q 950 1434 666 1628 
Q 272 1897 272 2375 
Q 272 2806 612 3100 
Q 953 3394 1669 3394 
Q 2350 3394 2681 3172 
Q 3013 2950 3138 2516 
L 2309 2363 
Q 2256 2556 2107 2659 
Q 1959 2763 1684 2763 
Q 1338 2763 1188 2666 
Q 1088 2597 1088 2488 
Q 1088 2394 1175 2328 
Q 1294 2241 1995 2081 
Q 2697 1922 2975 1691 
Q 3250 1456 3250 1038 
Q 3250 581 2869 253 
Q 2488 -75 1741 -75 
Q 1063 -75 667 200 
Q 272 475 150 947 
z
" transform="scale(0.015625)"/>
       <path id="Arial-BoldMT-6f" d="M 256 1706 
Q 256 2144 472 2553 
Q 688 2963 1083 3178 
Q 1478 3394 1966 3394 
Q 2719 3394 3200 2905 
Q 3681 2416 3681 1669 
Q 3681 916 3195 420 
Q 2709 -75 1972 -75 
Q 1516 -75 1102 131 
Q 688 338 472 736 
Q 256 1134 256 1706 
z
M 1156 1659 
Q 1156 1166 1390 903 
Q 1625 641 1969 641 
Q 2313 641 2545 903 
Q 2778 1166 2778 1666 
Q 2778 2153 2545 2415 
Q 2313 2678 1969 2678 
Q 1625 2678 1390 2415 
Q 1156 2153 1156 1659 
z
" transform="scale(0.015625)"/>
       <path id="Arial-BoldMT-6e" d="M 3478 0 
L 2600 0 
L 2600 1694 
Q 2600 2231 2544 2389 
Q 2488 2547 2361 2634 
Q 2234 2722 2056 2722 
Q 1828 2722 1647 2597 
Q 1466 2472 1398 2265 
Q 1331 2059 1331 1503 
L 1331 0 
L 453 0 
L 453 3319 
L 1269 3319 
L 1269 2831 
Q 1703 3394 2363 3394 
Q 2653 3394 2893 3289 
Q 3134 3184 3257 3021 
Q 3381 2859 3429 2653 
Q 3478 2447 3478 2063 
L 3478 0 
z
" transform="scale(0.015625)"/>
      </defs>
      <use xlink:href="#Arial-BoldMT-50"/>
      <use xlink:href="#Arial-BoldMT-72" transform="translate(66.699219 0)"/>
      <use xlink:href="#Arial-BoldMT-65" transform="translate(105.615234 0)"/>
      <use xlink:href="#Arial-BoldMT-63" transform="translate(161.230469 0)"/>
      <use xlink:href="#Arial-BoldMT-69" transform="translate(216.845703 0)"/>
      <use xlink:href="#Arial-BoldMT-73" transform="translate(244.628906 0)"/>
      <use xlink:href="#Arial-BoldMT-69" transform="translate(300.244141 0)"/>
      <use xlink:href="#Arial-BoldMT-6f" transform="translate(328.027344 0)"/>
      <use xlink:href="#Arial-BoldMT-6e" transform="translate(389.111328 0)"/>
      <use xlink:href="#Arial-BoldMT-20" transform="translate(450.195312 0)"/>
      <use xlink:href="#Arial-BoldMT-5b" transform="translate(477.978516 0)"/>
      <use xlink:href="#Arial-BoldMT-54" transform="translate(511.279297 0)"/>
      <use xlink:href="#Arial-BoldMT-50" transform="translate(572.363281 0)"/>
      <use xlink:href="#Arial-BoldMT-20" transform="translate(637.3125 0)"/>
      <use xlink:href="#Arial-BoldMT-2f" transform="translate(665.095703 0)"/>
      <use xlink:href="#Arial-BoldMT-20" transform="translate(692.878906 0)"/>
      <use xlink:href="#Arial-BoldMT-28" transform="translate(720.662109 0)"/>
      <use xlink:href="#Arial-BoldMT-54" transform="translate(753.962891 0)"/>
      <use xlink:href="#Arial-BoldMT-50" transform="translate(815.046875 0)"/>
      <use xlink:href="#Arial-BoldMT-20" transform="translate(879.996094 0)"/>
      <use xlink:href="#Arial-BoldMT-2b" transform="translate(907.779297 0)"/>
      <use xlink:href="#Arial-BoldMT-20" transform="translate(966.177734 0)"/>
      <use xlink:href="#Arial-BoldMT-46" transform="translate(993.960938 0)"/>
      <use xlink:href="#Arial-BoldMT-50" transform="translate(1055.044922 0)"/>
      <use xlink:href="#Arial-BoldMT-29" transform="translate(1121.744141 0)"/>
      <use xlink:href="#Arial-BoldMT-5d" transform="translate(1155.044922 0)"/>
     </g>
    </g>
   </g>
   <g id="line2d_25">
    <path d="M 42.831699 265.022801 
L 42.942509 242.44695 
L 42.944664 242.346613 
L 43.055616 232.045336 
L 43.057682 231.944999 
L 43.168741 224.419715 
L 43.172108 224.319378 
L 43.282864 219.904545 
L 43.286177 219.804208 
L 43.397093 215.489712 
L 43.400389 215.389375 
L 43.511216 211.911022 
L 43.517967 211.810684 
L 43.628634 207.763754 
L 43.632713 207.663417 
L 43.743576 205.355663 
L 43.749329 205.255326 
L 43.859266 202.646561 
L 43.867602 202.546224 
L 43.977111 200.70671 
L 43.983577 200.606373 
L 44.092784 198.566185 
L 44.097059 198.465848 
L 44.20671 196.224986 
L 44.21225 196.124649 
L 44.319515 193.683112 
L 44.326765 193.582775 
L 44.43777 191.743261 
L 44.444165 191.642924 
L 44.548722 189.736519 
L 44.560211 189.636182 
L 44.670629 187.997342 
L 44.677896 187.897005 
L 44.787049 186.325057 
L 44.801121 186.22472 
L 44.911877 184.953783 
L 44.922831 184.853446 
L 45.033089 183.314944 
L 45.040712 183.248052 
L 45.145769 181.809887 
L 45.166288 181.70955 
L 45.276047 180.438613 
L 45.28734 180.338276 
L 45.38666 179.000448 
L 45.414964 178.900111 
L 45.521445 177.762957 
L 45.535 177.66262 
L 45.64385 176.324791 
L 45.648642 176.224454 
L 45.755622 175.020409 
L 45.767716 174.920072 
L 45.878045 174.217712 
L 45.8859 174.117375 
L 45.995979 173.013667 
L 46.001822 172.913329 
L 46.111224 172.144078 
L 46.129304 172.043741 
L 46.238902 171.140707 
L 46.248146 171.04037 
L 46.358707 170.33801 
L 46.369804 170.237673 
L 46.478084 169.200856 
L 46.504286 169.100519 
L 46.611408 168.297822 
L 46.626281 168.197485 
L 46.734918 167.060331 
L 46.753229 166.959994 
L 46.852638 166.05696 
L 46.863629 166.05696 
L 46.891914 165.956623 
L 47.002724 164.953252 
L 47.017116 164.852915 
L 47.127498 163.882989 
L 47.127819 163.882989 
L 47.145898 163.782652 
L 47.241835 163.046846 
L 47.287006 162.946509 
L 47.381215 162.01003 
L 47.410623 161.909692 
L 47.520809 161.006658 
L 47.529555 160.906321 
L 47.639349 160.103624 
L 47.661988 160.003287 
L 47.770536 159.100253 
L 47.783396 158.999916 
L 47.886012 158.197219 
L 47.914761 158.096882 
L 48.022435 157.461414 
L 48.034672 157.361077 
L 48.145001 156.458043 
L 48.171025 156.357705 
L 48.277043 155.722237 
L 48.279269 155.722237 
L 48.301624 155.6219 
L 48.408051 154.886094 
L 48.421963 154.785757 
L 48.529637 153.849278 
L 48.559027 153.74894 
L 48.669766 152.712124 
L 48.700688 152.611786 
L 48.810286 152.009764 
L 48.820225 151.909427 
L 48.930215 151.006393 
L 48.948811 150.906056 
L 49.059692 150.270587 
L 49.091362 150.17025 
L 49.200105 149.400999 
L 49.223707 149.300662 
L 49.331631 148.832422 
L 49.35753 148.732085 
L 49.467413 148.130062 
L 49.48551 148.029725 
L 49.591973 147.293919 
L 49.625051 147.193582 
L 49.727168 146.691897 
L 49.729947 146.691897 
L 49.744642 146.59156 
L 49.852672 145.788863 
L 49.921267 145.688526 
L 50.019733 144.885829 
L 50.031792 144.885829 
L 50.061502 144.785491 
L 50.166416 144.283806 
L 50.197605 144.183469 
L 50.306883 143.514555 
L 50.319316 143.414218 
L 50.426296 142.845641 
L 50.426777 142.845641 
L 50.523818 142.745303 
L 50.632739 142.310509 
L 50.6539 142.210172 
L 50.757691 141.808824 
L 50.779173 141.708487 
L 50.88471 141.006127 
L 50.919747 140.90579 
L 51.021989 140.43755 
L 51.065112 140.337213 
L 51.172555 139.802081 
L 51.196031 139.701744 
L 51.306681 139.300396 
L 51.322338 139.200059 
L 51.423155 138.698373 
L 51.429692 138.698373 
L 51.442071 138.598036 
L 51.552631 138.09635 
L 51.584301 137.996013 
L 51.676925 137.628111 
L 51.678118 137.628111 
L 51.739588 137.527773 
L 51.844662 136.858859 
L 51.864505 136.758522 
L 51.953209 136.490957 
L 51.972981 136.490957 
L 52.009015 136.39062 
L 52.11815 135.822043 
L 52.194742 135.721705 
L 52.302773 135.019346 
L 52.348764 134.919008 
L 52.442848 134.484214 
L 52.473717 134.383877 
L 52.560801 133.949083 
L 52.573376 133.949083 
L 52.611993 133.848746 
L 52.72209 133.280169 
L 52.776079 133.179832 
L 52.886995 132.611255 
L 52.903489 132.510918 
L 52.998553 132.109569 
L 53.043546 132.009232 
L 53.154142 131.674775 
L 53.202858 131.574438 
L 53.299365 131.206535 
L 53.312154 131.206535 
L 53.329645 131.106198 
L 53.440277 130.738295 
L 53.477237 130.637958 
L 53.583558 130.203164 
L 53.58737 130.203164 
L 53.614177 130.102827 
L 53.718539 129.668033 
L 53.740412 129.567696 
L 53.848105 129.199793 
L 53.850776 129.199793 
L 53.890284 129.099456 
L 53.983246 128.631216 
L 54.001058 128.631216 
L 54.017249 128.530879 
L 54.108269 128.12953 
L 54.124282 128.12953 
L 54.152782 128.029193 
L 54.255932 127.66129 
L 54.26336 127.66129 
L 54.291343 127.560953 
L 54.391055 127.092714 
L 54.395526 127.092714 
L 54.506407 126.992376 
L 54.609201 126.624474 
L 54.658167 126.524137 
L 54.745215 126.189679 
L 54.767836 126.189679 
L 54.792667 126.089342 
L 54.895318 125.587657 
L 54.932207 125.48732 
L 55.040149 125.2532 
L 55.042055 125.2532 
L 55.083468 125.152863 
L 55.194492 124.751514 
L 55.229778 124.651177 
L 55.325019 124.249829 
L 55.32623 124.249829 
L 55.370422 124.149491 
L 55.467249 123.815034 
L 55.47938 123.815034 
L 55.501787 123.714697 
L 55.582281 123.346795 
L 55.593235 123.346795 
L 55.632653 123.246457 
L 55.727022 122.912 
L 55.739455 122.912 
L 55.753705 122.811663 
L 55.860881 122.243086 
L 55.880599 122.142749 
L 55.987419 121.875184 
L 55.998337 121.774846 
L 56.108132 121.373498 
L 56.163385 121.273161 
L 56.271202 120.871812 
L 56.286717 120.771475 
L 56.384131 120.537355 
L 56.390081 120.537355 
L 56.417583 120.437018 
L 56.492608 120.069115 
L 56.511738 120.069115 
L 56.545349 119.968778 
L 56.651332 119.734658 
L 56.656426 119.734658 
L 56.709364 119.634321 
L 56.815489 119.400201 
L 56.878028 119.299864 
L 56.987768 118.831624 
L 57.069882 118.731287 
L 57.180122 118.430276 
L 57.222711 118.329939 
L 57.324436 118.028927 
L 57.355198 117.92859 
L 57.456015 117.661025 
L 57.463745 117.661025 
L 57.53022 117.560688 
L 57.628152 117.159339 
L 57.663188 117.059002 
L 57.762758 116.624208 
L 57.820292 116.523871 
L 57.928109 116.256305 
L 57.963573 116.155968 
L 58.017223 115.955294 
L 58.064319 115.955294 
L 58.130865 115.854957 
L 58.236847 115.553945 
L 58.23772 115.553945 
L 58.282714 115.453608 
L 58.388767 114.885031 
L 58.439586 114.784694 
L 58.543039 114.517128 
L 58.624957 114.416791 
L 58.73411 114.015443 
L 58.736052 114.015443 
L 58.808814 113.915106 
L 58.919374 113.446866 
L 58.937579 113.346529 
L 59.041067 113.045517 
L 59.111247 112.94518 
L 59.209232 112.543832 
L 59.257022 112.443495 
L 59.346154 112.142483 
L 59.368099 112.142483 
L 59.417154 112.042146 
L 59.52433 111.473569 
L 59.544315 111.373232 
L 59.64946 110.938438 
L 59.652916 110.938438 
L 59.681522 110.838101 
L 59.781181 110.403307 
L 59.790835 110.403307 
L 59.842847 110.30297 
L 59.952534 110.035404 
L 59.959837 109.935067 
L 60.065873 109.399936 
L 60.070576 109.399936 
L 60.131262 109.299598 
L 60.227626 108.998587 
L 60.277553 108.89825 
L 60.35696 108.697576 
L 60.386065 108.697576 
L 60.430649 108.597239 
L 60.537397 108.229336 
L 60.597887 108.128999 
L 60.687785 107.894879 
L 60.703745 107.894879 
L 60.754635 107.794542 
L 60.860831 107.560422 
L 60.921517 107.460085 
L 61.026395 107.092182 
L 61.030171 107.092182 
L 61.073188 106.991845 
L 61.16688 106.791171 
L 61.170763 106.791171 
L 61.238467 106.690833 
L 61.339319 106.456713 
L 61.394626 106.356376 
L 61.493127 105.921582 
L 61.520042 105.821245 
L 61.629355 105.386451 
L 61.702314 105.286114 
L 61.781257 105.051994 
L 61.799159 105.051994 
L 61.835264 104.951657 
L 61.93902 104.583754 
L 61.972293 104.483417 
L 62.070794 104.38308 
L 62.081606 104.38308 
L 62.199737 104.282743 
L 62.309032 104.14896 
L 62.30921 104.14896 
L 62.39038 104.048623 
L 62.420964 103.981731 
L 62.498304 103.981731 
L 62.543476 103.881394 
L 62.65368 103.68072 
L 62.660645 103.580383 
L 62.747764 103.245926 
L 62.763581 103.245926 
L 62.840494 103.145589 
L 62.916196 102.97836 
L 62.951446 102.97836 
L 62.983116 102.878023 
L 63.084735 102.677349 
L 63.192089 102.577012 
L 63.286173 102.376337 
L 63.296878 102.376337 
L 63.358704 102.276 
L 63.444238 102.008435 
L 63.463546 102.008435 
L 63.533085 101.908098 
L 63.629609 101.607086 
L 63.63538 101.607086 
L 63.699308 101.506749 
L 63.795904 101.306075 
L 63.809655 101.306075 
L 63.836337 101.205738 
L 63.93931 100.971618 
L 63.985853 100.871281 
L 64.096841 100.670606 
L 64.147605 100.570269 
L 64.251557 100.336149 
L 64.256865 100.336149 
L 64.299419 100.235812 
L 64.402195 100.001692 
L 64.467138 99.901355 
L 64.528412 99.801018 
L 64.574278 99.801018 
L 64.610918 99.700681 
L 64.697966 99.500007 
L 64.720427 99.500007 
L 64.776999 99.39967 
L 64.863459 98.964876 
L 64.880006 98.964876 
L 64.973538 98.864538 
L 65.068139 98.596973 
L 65.083671 98.596973 
L 65.107468 98.496636 
L 65.19261 98.362853 
L 65.204366 98.362853 
L 65.287104 98.262516 
L 65.360686 97.928059 
L 65.391252 97.928059 
L 65.458867 97.827722 
L 65.555943 97.593602 
L 65.569748 97.593602 
L 65.633301 97.493265 
L 65.732373 97.225699 
L 65.732729 97.225699 
L 65.840884 97.125362 
L 65.950661 96.958133 
L 65.95075 96.958133 
L 65.999662 96.857796 
L 66.108993 96.690568 
L 66.165387 96.59023 
L 66.264618 96.389556 
L 66.372471 96.289219 
L 66.472041 96.121991 
L 66.474517 96.121991 
L 66.543326 96.021653 
L 66.648115 95.854425 
L 66.653298 95.854425 
L 66.773833 95.754088 
L 66.883894 95.486522 
L 66.985014 95.386185 
L 67.049637 95.185511 
L 67.091638 95.185511 
L 67.235614 95.085174 
L 67.338176 94.784162 
L 67.344019 94.784162 
L 67.402817 94.683825 
L 67.509636 94.483151 
L 67.644029 94.382814 
L 67.712642 94.249031 
L 67.737757 94.249031 
L 67.834602 94.148694 
L 67.93875 93.981465 
L 67.939961 93.981465 
L 68.020383 93.881128 
L 68.123711 93.446334 
L 68.13023 93.446334 
L 68.219398 93.345997 
L 68.313785 93.145323 
L 68.364728 93.044986 
L 68.433465 92.844312 
L 68.461804 92.844312 
L 68.550829 92.743974 
L 68.661621 92.5433 
L 68.779983 92.442963 
L 68.885253 92.242289 
L 68.983113 92.141952 
L 69.079032 91.974723 
L 69.170497 91.874386 
L 69.188541 91.740603 
L 69.263958 91.740603 
L 69.345538 91.640266 
L 69.418621 91.439592 
L 69.448474 91.439592 
L 69.572928 91.339255 
L 69.6645 91.138581 
L 69.669131 91.138581 
L 69.756233 91.038243 
L 69.841536 90.837569 
L 69.854022 90.837569 
L 70.032642 90.737232 
L 70.113973 90.603449 
L 70.126317 90.603449 
L 70.195179 90.503112 
L 70.305008 90.302438 
L 70.411721 90.202101 
L 70.485695 90.034872 
L 70.516207 90.034872 
L 70.617024 89.934535 
L 70.702078 89.834198 
L 70.724717 89.834198 
L 70.791762 89.733861 
L 70.892775 89.332512 
L 70.896925 89.332512 
L 70.994767 89.232175 
L 71.067601 89.098393 
L 71.099788 89.098393 
L 71.198093 88.998055 
L 71.281241 88.763935 
L 71.304005 88.763935 
L 71.415633 88.663598 
L 71.501755 88.362587 
L 71.574073 88.26225 
L 71.64053 88.128467 
L 71.675157 88.128467 
L 71.775867 88.02813 
L 71.840329 87.894347 
L 71.939062 87.79401 
L 72.0148 87.660227 
L 72.045508 87.660227 
L 72.181165 87.55989 
L 72.28868 87.32577 
L 72.291815 87.32577 
L 72.339284 87.225433 
L 72.448882 87.125096 
L 72.543412 87.024759 
L 72.617528 86.85753 
L 72.650855 86.85753 
L 72.695332 86.757193 
L 72.728159 86.656856 
L 72.792907 86.656856 
L 72.992172 86.556519 
L 73.101271 86.322399 
L 73.163471 86.222062 
L 73.261777 86.088279 
L 73.44925 85.987942 
L 73.527392 85.787268 
L 73.554502 85.787268 
L 73.582182 85.686931 
L 73.654482 85.586593 
L 73.689483 85.586593 
L 73.796516 85.486256 
L 73.846372 85.385919 
L 73.875157 85.385919 
L 74.013112 85.285582 
L 74.121036 85.018017 
L 74.161007 84.917679 
L 74.266277 84.717005 
L 74.271799 84.717005 
L 74.434584 84.616668 
L 74.533228 84.415994 
L 74.606454 84.315657 
L 74.714823 84.148428 
L 74.90292 84.048091 
L 74.90292 84.014645 
L 75.004556 84.014645 
L 75.071619 83.914308 
L 75.174805 83.780525 
L 75.427471 83.680188 
L 75.525313 83.446068 
L 75.534682 83.446068 
L 75.725575 83.345731 
L 75.835423 83.111611 
L 76.008967 83.011274 
L 76.104476 82.777154 
L 76.117372 82.777154 
L 76.249022 82.676817 
L 76.336355 82.442697 
L 76.359012 82.442697 
L 76.471549 82.34236 
L 76.521121 82.208577 
L 76.557511 82.208577 
L 76.755956 82.10824 
L 76.843289 81.941012 
L 76.852106 81.941012 
L 76.947598 81.840675 
L 77.002887 81.740337 
L 77.035091 81.740337 
L 77.187421 81.64 
L 77.276784 81.573109 
L 77.294561 81.573109 
L 77.337346 81.472772 
L 77.411551 81.305543 
L 77.447229 81.305543 
L 77.475212 81.205206 
L 77.562848 81.071423 
L 77.582905 81.071423 
L 77.747133 80.971086 
L 77.834911 80.803858 
L 77.84811 80.803858 
L 77.926982 80.703521 
L 78.009097 80.603183 
L 78.026463 80.603183 
L 78.10986 80.502846 
L 78.205209 80.335618 
L 78.213812 80.335618 
L 78.310265 80.235281 
L 78.410494 79.967715 
L 78.414039 79.967715 
L 78.503491 79.867378 
L 78.605716 79.700149 
L 78.698695 79.599812 
L 78.806049 79.499475 
L 78.888822 79.399138 
L 78.911177 79.298801 
L 78.989782 79.298801 
L 79.325613 79.198464 
L 79.420284 79.031235 
L 79.42748 79.031235 
L 79.538522 78.930898 
L 79.628331 78.797115 
L 79.638056 78.797115 
L 79.771077 78.696778 
L 79.848026 78.52955 
L 80.078836 78.429213 
L 80.166864 78.261984 
L 80.173223 78.261984 
L 80.296804 78.161647 
L 80.394165 77.994418 
L 80.407043 77.994418 
L 80.593804 77.894081 
L 80.691611 77.693407 
L 80.700659 77.693407 
L 80.741057 77.59307 
L 80.850958 77.526179 
L 80.916044 77.425841 
L 80.999601 77.292059 
L 81.271664 77.191722 
L 81.329875 77.12483 
L 81.34872 77.12483 
L 81.516564 77.024493 
L 81.613961 76.957602 
L 81.619946 76.957602 
L 81.701757 76.857264 
L 81.784744 76.623145 
L 81.801719 76.623145 
L 82.029679 76.522807 
L 82.12029 76.389025 
L 82.130158 76.389025 
L 82.26806 76.288687 
L 82.355144 76.18835 
L 82.371264 76.18835 
L 82.564579 76.088013 
L 82.658681 75.987676 
L 82.671987 75.987676 
L 82.869755 75.887339 
L 82.973903 75.72011 
L 83.099782 75.619773 
L 83.206797 75.519436 
L 83.207296 75.519436 
L 83.382889 75.419099 
L 83.398528 75.352208 
L 83.489975 75.352208 
L 83.606414 75.251871 
L 83.70194 75.084642 
L 83.715745 75.084642 
L 84.077065 74.984305 
L 84.167871 74.783631 
L 84.187162 74.783631 
L 84.266248 74.683294 
L 84.344176 74.582957 
L 84.366424 74.582957 
L 84.471605 74.482619 
L 84.582396 74.248499 
L 84.720316 74.148162 
L 84.744273 74.047825 
L 84.830947 74.047825 
L 85.068633 73.947488 
L 85.179496 73.880597 
L 85.352328 73.78026 
L 85.419177 73.713368 
L 85.442689 73.713368 
L 85.59924 73.613031 
L 85.700449 73.479248 
L 85.701678 73.479248 
L 85.95885 73.378911 
L 86.012198 73.278574 
L 86.059329 73.278574 
L 86.281233 73.178237 
L 86.390813 73.111346 
L 86.521875 73.011008 
L 86.606679 72.84378 
L 86.627377 72.84378 
L 86.753594 72.743443 
L 86.802934 72.643106 
L 86.860147 72.643106 
L 86.925571 72.542769 
L 87.032355 72.342094 
L 87.273068 72.241757 
L 87.273068 72.208311 
L 87.378641 72.208311 
L 87.78011 72.107974 
L 87.834223 71.974192 
L 87.889031 71.974192 
L 87.962809 71.873854 
L 88.015534 71.773517 
L 88.067581 71.773517 
L 88.295701 71.67318 
L 88.295701 71.639734 
L 88.390961 71.639734 
L 88.620595 71.539397 
L 88.631639 71.43906 
L 88.729838 71.43906 
L 88.763734 71.338723 
L 88.852082 71.104603 
L 89.27058 71.004266 
L 89.370363 70.937375 
L 89.686601 70.837038 
L 89.761768 70.636363 
L 90.130035 70.536026 
L 90.220592 70.368798 
L 90.636008 70.268461 
L 90.647604 70.201569 
L 90.742364 70.201569 
L 90.943036 70.101232 
L 91.044352 69.967449 
L 91.052225 69.967449 
L 91.248925 69.867112 
L 91.318357 69.733329 
L 91.354302 69.733329 
L 91.5305 69.632992 
L 91.611064 69.532655 
L 91.625225 69.532655 
L 91.724866 69.432318 
L 91.754399 69.365427 
L 91.791359 69.365427 
L 92.011927 69.265089 
L 92.056244 69.198198 
L 92.099759 69.198198 
L 92.198403 69.097861 
L 92.268583 69.030969 
L 92.286841 69.030969 
L 92.506198 68.930632 
L 92.606177 68.729958 
L 92.68619 68.629621 
L 92.792742 68.428947 
L 92.910142 68.32861 
L 92.991366 68.161381 
L 93.01926 68.161381 
L 93.218186 68.061044 
L 93.310026 67.86037 
L 93.329281 67.86037 
L 93.419339 67.760033 
L 93.529614 67.592804 
L 93.530255 67.592804 
L 93.70453 67.492467 
L 93.762259 67.39213 
L 93.802426 67.39213 
L 94.040343 67.291793 
L 94.141195 67.15801 
L 94.151384 67.15801 
L 94.529358 67.057673 
L 94.601159 66.957336 
L 94.834784 66.856999 
L 94.849176 66.723216 
L 94.925038 66.723216 
L 95.16463 66.622879 
L 95.234347 66.555987 
L 95.258375 66.555987 
L 95.494226 66.45565 
L 95.494226 66.422204 
L 95.593529 66.422204 
L 95.855564 66.321867 
L 95.965732 66.188085 
L 96.091201 66.087747 
L 96.174171 65.920519 
L 96.192624 65.920519 
L 96.316134 65.820182 
L 96.408134 65.719845 
L 96.537397 65.619508 
L 96.604032 65.51917 
L 96.641028 65.51917 
L 96.939507 65.418833 
L 96.939507 65.385388 
L 97.047252 65.385388 
L 97.389371 65.285051 
L 97.389371 65.251605 
L 97.479554 65.251605 
L 97.604043 65.151268 
L 97.709242 65.050931 
L 98.045981 64.950593 
L 98.126849 64.783365 
L 98.14003 64.783365 
L 98.290471 64.683028 
L 98.290471 64.649582 
L 98.389703 64.649582 
L 98.498802 64.549245 
L 98.585957 64.415462 
L 98.924888 64.315125 
L 98.926972 64.248234 
L 99.0347 64.248234 
L 99.189398 64.147897 
L 99.27748 63.980668 
L 99.286564 63.980668 
L 99.431983 63.880331 
L 99.537342 63.746548 
L 100.009827 63.646211 
L 100.055516 63.57932 
L 100.088646 63.57932 
L 100.280145 63.478982 
L 100.280145 63.445537 
L 100.387855 63.445537 
L 100.504881 63.3452 
L 100.504881 63.311754 
L 100.614426 63.311754 
L 100.916913 63.211417 
L 100.916913 63.177971 
L 101.018264 63.177971 
L 101.466169 63.077634 
L 101.497608 62.943851 
L 101.569961 62.943851 
L 101.845283 62.843514 
L 101.887605 62.743177 
L 101.889778 62.743177 
L 102.296252 62.64284 
L 102.296252 62.609394 
L 102.3807 62.609394 
L 102.674619 62.509057 
L 102.75944 62.40872 
L 102.785072 62.40872 
L 103.059575 62.308383 
L 103.168176 62.208046 
L 103.525791 62.107709 
L 103.611112 62.007371 
L 103.62285 62.007371 
L 103.735868 61.907034 
L 103.756085 61.840143 
L 103.807687 61.840143 
L 103.896855 61.739806 
L 103.964808 61.639469 
L 103.977847 61.639469 
L 104.198272 61.539132 
L 104.198272 61.505686 
L 104.26391 61.505686 
L 104.411057 61.405349 
L 104.491817 61.305012 
L 104.521047 61.305012 
L 104.860173 61.204674 
L 104.860173 61.171229 
L 104.969504 61.171229 
L 105.480945 61.070892 
L 105.506203 60.970555 
L 105.588388 60.970555 
L 106.025766 60.870217 
L 106.120598 60.76988 
L 106.29489 60.669543 
L 106.400641 60.569206 
L 106.595507 60.468869 
L 106.595507 60.435423 
L 106.66273 60.435423 
L 106.828739 60.335086 
L 106.838946 60.268195 
L 107.048844 60.167858 
L 107.132704 60.067521 
L 107.317363 59.967183 
L 107.423488 59.799955 
L 107.812684 59.699618 
L 107.903526 59.565835 
L 107.919219 59.565835 
L 108.278971 59.465498 
L 108.382086 59.365161 
L 108.791659 59.264824 
L 108.795703 59.197932 
L 108.892441 59.197932 
L 109.137465 59.097595 
L 109.226152 58.963812 
L 109.227096 58.963812 
L 109.405894 58.863475 
L 109.483199 58.796584 
L 109.510701 58.796584 
L 109.887251 58.696247 
L 109.947883 58.595909 
L 110.352558 58.495572 
L 110.437914 58.328344 
L 110.659498 58.228007 
L 110.659498 58.194561 
L 110.697153 58.194561 
L 111.130363 58.094224 
L 111.238875 58.027333 
L 111.419419 57.926995 
L 111.511347 57.826658 
L 111.52248 57.826658 
L 112.254596 57.726321 
L 112.363678 57.525647 
L 112.463782 57.42531 
L 112.539075 57.291527 
L 112.574859 57.291527 
L 113.037922 57.19119 
L 113.056358 57.124298 
L 113.09013 57.124298 
L 113.357954 57.023961 
L 113.465023 56.923624 
L 113.64514 56.823287 
L 113.727183 56.756396 
L 113.943031 56.656059 
L 113.943031 56.622613 
L 114.032786 56.622613 
L 114.342878 56.522276 
L 114.395157 56.455384 
L 114.607318 56.355047 
L 114.607318 56.321602 
L 114.701812 56.321602 
L 114.889819 56.221264 
L 114.889819 56.187819 
L 114.953124 56.187819 
L 115.321177 56.087482 
L 115.321177 56.054036 
L 115.364549 56.054036 
L 115.695001 55.953699 
L 115.799897 55.853362 
L 116.018826 55.753025 
L 116.040557 55.652687 
L 116.430608 55.55235 
L 116.485327 55.485459 
L 116.75796 55.385122 
L 116.763838 55.31823 
L 116.854413 55.31823 
L 117.3295 55.217893 
L 117.432347 55.117556 
L 117.793133 55.017219 
L 117.793133 54.983773 
L 117.830788 54.983773 
L 118.05898 54.883436 
L 118.05898 54.849991 
L 118.148807 54.849991 
L 118.435511 54.749653 
L 118.460716 54.682762 
L 118.539232 54.682762 
L 118.719242 54.582425 
L 118.749059 54.515533 
L 118.826311 54.515533 
L 119.367231 54.415196 
L 119.395481 54.348305 
L 119.406863 54.348305 
L 119.775308 54.247968 
L 119.826411 54.147631 
L 119.855801 54.147631 
L 120.164486 54.047294 
L 120.25711 53.980402 
L 120.266069 53.980402 
L 120.468166 53.880065 
L 120.521086 53.813174 
L 120.576999 53.813174 
L 121.200069 53.712837 
L 121.289147 53.579054 
L 121.302898 53.579054 
L 121.355177 53.478717 
L 121.382732 53.411825 
L 121.459841 53.411825 
L 121.724744 53.311488 
L 121.81564 53.244597 
L 122.122223 53.14426 
L 122.154784 53.043922 
L 122.224536 53.043922 
L 122.371665 52.943585 
L 122.469044 52.742911 
L 122.820264 52.642574 
L 122.870334 52.542237 
L 123.326629 52.4419 
L 123.39745 52.308117 
L 123.410613 52.308117 
L 124.174346 52.20778 
L 124.188079 52.140888 
L 124.285067 52.140888 
L 124.704365 52.040551 
L 124.803989 51.97366 
L 125.24411 51.873323 
L 125.258538 51.806431 
L 125.33 51.806431 
L 125.758668 51.706094 
L 125.758668 51.672649 
L 125.850686 51.672649 
L 126.157038 51.572311 
L 126.264695 51.405083 
L 126.265478 51.405083 
L 126.610607 51.304746 
L 126.720366 51.204409 
L 126.720544 51.204409 
L 127.108155 51.104072 
L 127.184836 51.03718 
L 127.216827 51.03718 
L 127.616336 50.936843 
L 127.713573 50.80306 
L 127.718863 50.80306 
L 128.408907 50.702723 
L 128.408907 50.669277 
L 128.508495 50.669277 
L 128.840264 50.56894 
L 128.840264 50.535495 
L 128.898083 50.535495 
L 129.063041 50.435157 
L 129.17011 50.33482 
L 129.378851 50.234483 
L 129.378851 50.201038 
L 129.46093 50.201038 
L 129.725583 50.1007 
L 129.785949 50.000363 
L 129.801178 50.000363 
L 130.353623 49.900026 
L 130.353623 49.86658 
L 130.445249 49.86658 
L 130.744173 49.766243 
L 130.805731 49.665906 
L 131.576482 49.565569 
L 131.601597 49.465232 
L 131.64294 49.465232 
L 132.01614 49.364895 
L 132.079391 49.264558 
L 132.371582 49.164221 
L 132.471544 49.063884 
L 132.83819 48.963546 
L 132.945259 48.829764 
L 133.299063 48.729427 
L 133.299063 48.695981 
L 133.405027 48.695981 
L 133.805374 48.595644 
L 133.805374 48.562198 
L 133.900526 48.562198 
L 134.300374 48.461861 
L 134.300374 48.428415 
L 134.405377 48.428415 
L 134.736309 48.328078 
L 134.736309 48.294632 
L 134.835345 48.294632 
L 134.922429 48.194295 
L 135.032205 48.093958 
L 135.552659 47.993621 
L 135.552659 47.960175 
L 135.621218 47.960175 
L 135.846525 47.859838 
L 135.900193 47.792947 
L 135.901119 47.792947 
L 136.470824 47.69261 
L 136.530227 47.592273 
L 136.558371 47.592273 
L 137.348323 47.491935 
L 137.348323 47.45849 
L 137.427605 47.45849 
L 138.260948 47.358153 
L 138.310982 47.291261 
L 138.349314 47.291261 
L 138.637996 47.190924 
L 138.637996 47.157478 
L 138.713342 47.157478 
L 138.976962 47.057141 
L 138.976962 47.023696 
L 139.001222 47.023696 
L 139.326508 46.923358 
L 139.360707 46.856467 
L 139.415462 46.856467 
L 140.125794 46.75613 
L 140.125794 46.722684 
L 140.224438 46.722684 
L 140.613295 46.622347 
L 140.619369 46.555456 
L 140.717995 46.555456 
L 141.423536 46.455119 
L 141.423536 46.421673 
L 141.461351 46.421673 
L 141.815154 46.321336 
L 141.815154 46.28789 
L 141.900225 46.28789 
L 142.660574 46.187553 
L 142.771651 46.087216 
L 143.425393 45.986879 
L 143.528864 45.919987 
L 143.533086 45.919987 
L 144.011574 45.81965 
L 144.011574 45.786204 
L 144.113121 45.786204 
L 144.667543 45.685867 
L 144.67506 45.618976 
L 144.771192 45.618976 
L 145.293071 45.518639 
L 145.362183 45.451747 
L 145.379888 45.451747 
L 145.754834 45.35141 
L 145.754834 45.317965 
L 145.840689 45.317965 
L 146.549632 45.217627 
L 146.549632 45.184182 
L 146.578416 45.184182 
L 147.019446 45.083845 
L 147.019446 45.050399 
L 147.11768 45.050399 
L 147.457643 44.950062 
L 147.457643 44.916616 
L 147.55577 44.916616 
L 148.336122 44.816279 
L 148.406106 44.749388 
L 148.413284 44.749388 
L 148.882475 44.64905 
L 148.990524 44.582159 
L 149.705148 44.481822 
L 149.705148 44.448376 
L 149.798716 44.448376 
L 150.055425 44.348039 
L 150.055425 44.314593 
L 150.146 44.314593 
L 151.225382 44.214256 
L 151.225382 44.180811 
L 151.321301 44.180811 
L 151.947844 44.080473 
L 151.947844 44.047028 
L 152.01309 44.047028 
L 152.515019 43.946691 
L 152.515019 43.913245 
L 152.591754 43.913245 
L 153.667931 43.812908 
L 153.667931 43.779462 
L 153.724645 43.779462 
L 154.752336 43.679125 
L 154.781708 43.612234 
L 154.814162 43.612234 
L 155.41429 43.511897 
L 155.41429 43.478451 
L 155.512204 43.478451 
L 155.760897 43.378114 
L 155.838719 43.277777 
L 155.858116 43.277777 
L 156.48124 43.177439 
L 156.508902 43.110548 
L 156.584319 43.110548 
L 156.677904 43.010211 
L 156.718533 42.94332 
L 156.783103 42.94332 
L 156.898739 42.842982 
L 156.898739 42.809537 
L 157.000233 42.809537 
L 157.629787 42.7092 
L 157.691791 42.642308 
L 157.737194 42.642308 
L 158.035513 42.541971 
L 158.035513 42.508525 
L 158.139518 42.508525 
L 158.684339 42.408188 
L 158.790713 42.274405 
L 159.245173 42.174068 
L 159.245173 42.140623 
L 159.353044 42.140623 
L 159.771398 42.040285 
L 159.771398 42.00684 
L 159.866391 42.00684 
L 161.402282 41.906503 
L 161.446046 41.839611 
L 161.511114 41.839611 
L 161.834458 41.739274 
L 161.834458 41.705828 
L 161.936772 41.705828 
L 162.830284 41.605491 
L 162.830284 41.572046 
L 162.938048 41.572046 
L 163.309218 41.471708 
L 163.309218 41.438263 
L 163.395215 41.438263 
L 164.874802 41.337926 
L 164.874802 41.30448 
L 164.968975 41.30448 
L 165.371191 41.204143 
L 165.371191 41.170697 
L 165.470209 41.170697 
L 165.922799 41.07036 
L 166.025308 40.970023 
L 166.032825 40.970023 
L 166.922864 40.869686 
L 166.936935 40.802794 
L 166.998156 40.802794 
L 168.126629 40.702457 
L 168.126629 40.669012 
L 168.233519 40.669012 
L 169.531404 40.568674 
L 169.531404 40.535229 
L 169.622032 40.535229 
L 170.513639 40.434892 
L 170.513639 40.401446 
L 170.609076 40.401446 
L 171.357954 40.301109 
L 171.357954 40.267663 
L 171.467445 40.267663 
L 171.686357 40.167326 
L 171.686357 40.13388 
L 171.792518 40.13388 
L 172.209554 40.033543 
L 172.209554 40.000097 
L 172.295124 40.000097 
L 172.961656 39.89976 
L 172.961656 39.866315 
L 173.064272 39.866315 
L 173.723785 39.765978 
L 173.829162 39.632195 
L 173.832368 39.632195 
L 174.13131 39.531858 
L 174.13131 39.498412 
L 174.231575 39.498412 
L 174.966826 39.398075 
L 175.067572 39.331183 
L 175.461452 39.230846 
L 175.461452 39.197401 
L 175.568165 39.197401 
L 176.316562 39.097063 
L 176.316562 39.063618 
L 176.42144 39.063618 
L 177.072653 38.963281 
L 177.138273 38.896389 
L 177.164653 38.896389 
L 177.483242 38.796052 
L 177.585982 38.695715 
L 178.26712 38.595378 
L 178.35985 38.528486 
L 178.844537 38.428149 
L 178.943003 38.327812 
L 179.144334 38.227475 
L 179.144334 38.194029 
L 179.239879 38.194029 
L 180.295411 38.093692 
L 180.385861 38.026801 
L 180.388818 38.026801 
L 181.514156 37.926464 
L 181.617733 37.826127 
L 181.624662 37.826127 
L 182.707376 37.72579 
L 182.707376 37.692344 
L 182.803205 37.692344 
L 183.605929 37.592007 
L 183.605929 37.558561 
L 183.676946 37.558561 
L 184.130818 37.458224 
L 184.130818 37.424778 
L 184.230424 37.424778 
L 184.465313 37.324441 
L 184.572881 37.224104 
L 185.46992 37.123767 
L 185.46992 37.090321 
L 185.558375 37.090321 
L 186.536763 36.989984 
L 186.623615 36.889647 
L 186.629974 36.889647 
L 187.889776 36.78931 
L 187.889776 36.755864 
L 187.983058 36.755864 
L 189.459064 36.655527 
L 189.504646 36.588636 
L 189.54898 36.588636 
L 190.280099 36.488298 
L 190.280099 36.454853 
L 190.36786 36.454853 
L 191.054608 36.354516 
L 191.054608 36.32107 
L 191.139252 36.32107 
L 192.959318 36.220733 
L 192.995138 36.153841 
L 193.05203 36.153841 
L 193.864586 36.053504 
L 193.864586 36.020059 
L 193.914478 36.020059 
L 195.419019 35.919721 
L 195.419019 35.886276 
L 195.523595 35.886276 
L 196.411657 35.785939 
L 196.411657 35.752493 
L 196.497119 35.752493 
L 197.743812 35.652156 
L 197.743812 35.61871 
L 197.853535 35.61871 
L 199.605184 35.518373 
L 199.611811 35.451482 
L 199.71603 35.451482 
L 201.217668 35.351144 
L 201.254022 35.284253 
L 201.28058 35.284253 
L 202.700781 35.183916 
L 202.700781 35.15047 
L 202.810041 35.15047 
L 203.712281 35.050133 
L 203.712281 35.016687 
L 203.81406 35.016687 
L 205.524332 34.91635 
L 205.524332 34.882905 
L 205.63051 34.882905 
L 206.74981 34.782567 
L 206.84783 34.68223 
L 206.854777 34.68223 
L 207.912909 34.581893 
L 207.912909 34.548448 
L 208.010752 34.548448 
L 208.846606 34.44811 
L 208.851772 34.381219 
L 208.955171 34.381219 
L 209.552485 34.280882 
L 209.650381 34.21399 
L 209.65902 34.21399 
L 210.209594 34.113653 
L 210.209594 34.080208 
L 210.307169 34.080208 
L 210.930987 33.979871 
L 210.934229 33.912979 
L 211.036578 33.912979 
L 211.779453 33.812642 
L 211.790086 33.745751 
L 211.889942 33.745751 
L 213.056497 33.645414 
L 213.056497 33.611968 
L 213.150474 33.611968 
L 214.61622 33.511631 
L 214.61622 33.478185 
L 214.722416 33.478185 
L 215.357813 33.377848 
L 215.357813 33.344402 
L 215.467838 33.344402 
L 216.488797 33.244065 
L 216.501996 33.177174 
L 216.58386 33.177174 
L 217.483162 33.076837 
L 217.50215 33.009945 
L 217.590569 33.009945 
L 218.431055 32.909608 
L 218.443327 32.842717 
L 218.532923 32.842717 
L 219.083265 32.742379 
L 219.083265 32.708934 
L 219.185792 32.708934 
L 221.722122 32.608597 
L 221.762182 32.541705 
L 221.830331 32.541705 
L 223.082385 32.441368 
L 223.123068 32.374477 
L 223.184502 32.374477 
L 223.95365 32.27414 
L 223.95365 32.240694 
L 224.0524 32.240694 
L 224.798089 32.140357 
L 224.798089 32.106911 
L 224.894827 32.106911 
L 226.185907 32.006574 
L 226.185907 31.973128 
L 226.290946 31.973128 
L 226.960541 31.872791 
L 226.99857 31.8059 
L 227.065437 31.8059 
L 227.99436 31.705563 
L 227.99436 31.672117 
L 228.100111 31.672117 
L 228.59089 31.57178 
L 228.628901 31.504888 
L 228.698369 31.504888 
L 229.033772 31.404551 
L 229.118398 31.33766 
L 229.138935 31.33766 
L 230.247245 31.237323 
L 230.247245 31.203877 
L 230.357128 31.203877 
L 231.62393 31.10354 
L 231.62393 31.070094 
L 231.73449 31.070094 
L 232.657767 30.969757 
L 232.763821 30.86942 
L 232.764391 30.86942 
L 235.036761 30.769083 
L 235.14139 30.668746 
L 235.14579 30.668746 
L 236.478942 30.568409 
L 236.524577 30.501517 
L 236.581879 30.501517 
L 237.499295 30.40118 
L 237.579771 30.334289 
L 237.610301 30.334289 
L 239.082477 30.233952 
L 239.082477 30.200506 
L 239.193518 30.200506 
L 240.006092 30.100169 
L 240.006092 30.066723 
L 240.114889 30.066723 
L 240.863713 29.966386 
L 240.863713 29.93294 
L 240.967059 29.93294 
L 242.056523 29.832603 
L 242.056523 29.799157 
L 242.159905 29.799157 
L 244.372499 29.69882 
L 244.372499 29.665375 
L 244.477626 29.665375 
L 245.135555 29.565037 
L 245.135555 29.531592 
L 245.24241 29.531592 
L 246.963494 29.431255 
L 246.989001 29.364363 
L 247.066306 29.364363 
L 248.219573 29.264026 
L 248.219573 29.23058 
L 248.33049 29.23058 
L 250.078915 29.130243 
L 250.078915 29.096798 
L 250.189671 29.096798 
L 251.062771 28.996461 
L 251.062771 28.963015 
L 251.173741 28.963015 
L 252.86889 28.862678 
L 252.86889 28.829232 
L 252.977099 28.829232 
L 254.502036 28.728895 
L 254.502036 28.695449 
L 254.612738 28.695449 
L 255.857453 28.595112 
L 255.945232 28.494775 
L 255.967657 28.494775 
L 258.792989 28.394438 
L 258.792989 28.360992 
L 258.898919 28.360992 
L 259.841254 28.260655 
L 259.841254 28.227209 
L 259.952349 28.227209 
L 262.749413 28.126872 
L 262.749413 28.093426 
L 262.858281 28.093426 
L 265.475211 27.993089 
L 265.475211 27.959644 
L 265.585717 27.959644 
L 267.256927 27.859307 
L 267.256927 27.825861 
L 267.366009 27.825861 
L 267.854758 27.725524 
L 267.854758 27.692078 
L 267.96473 27.692078 
L 269.422853 27.591741 
L 269.422853 27.558295 
L 269.533823 27.558295 
L 270.964817 27.457958 
L 270.964817 27.424512 
L 271.073739 27.424512 
L 274.624953 27.324175 
L 274.624953 27.29073 
L 274.736048 27.29073 
L 277.509083 27.190392 
L 277.509083 27.156947 
L 277.619839 27.156947 
L 280.175834 27.05661 
L 280.286608 27.023164 
L 280.843986 26.922827 
L 280.843986 26.889381 
L 280.954938 26.889381 
L 282.023758 26.789044 
L 282.023758 26.789044 
" clip-path="url(#p2117469542)" style="fill: none; stroke: #1f77b4; stroke-width: 1.5; stroke-linecap: round"/>
   </g>
   <g id="patch_3">
    <path d="M 35.655938 265.022801 
L 35.655938 19.642031 
" style="fill: none"/>
   </g>
   <g id="patch_4">
    <path d="M 289.19952 265.022801 
L 289.19952 19.642031 
" style="fill: none"/>
   </g>
   <g id="patch_5">
    <path d="M 35.655938 265.022801 
L 289.19952 265.022801 
" style="fill: none"/>
   </g>
   <g id="patch_6">
    <path d="M 35.655938 19.642031 
L 289.19952 19.642031 
" style="fill: none"/>
   </g>
   <g id="text_15">
    <!-- Model 1: Precision-Recall Curve -->
    <g style="fill: #333333" transform="translate(93.910307 13.642031) scale(0.09 -0.09)">
     <defs>
      <path id="Arial-BoldMT-4d" d="M 453 0 
L 453 4581 
L 1838 4581 
L 2669 1456 
L 3491 4581 
L 4878 4581 
L 4878 0 
L 4019 0 
L 4019 3606 
L 3109 0 
L 2219 0 
L 1313 3606 
L 1313 0 
L 453 0 
z
" transform="scale(0.015625)"/>
      <path id="Arial-BoldMT-64" d="M 3503 0 
L 2688 0 
L 2688 488 
Q 2484 203 2207 64 
Q 1931 -75 1650 -75 
Q 1078 -75 670 386 
Q 263 847 263 1672 
Q 263 2516 659 2955 
Q 1056 3394 1663 3394 
Q 2219 3394 2625 2931 
L 2625 4581 
L 3503 4581 
L 3503 0 
z
M 1159 1731 
Q 1159 1200 1306 963 
Q 1519 619 1900 619 
Q 2203 619 2415 876 
Q 2628 1134 2628 1647 
Q 2628 2219 2422 2470 
Q 2216 2722 1894 2722 
Q 1581 2722 1370 2473 
Q 1159 2225 1159 1731 
z
" transform="scale(0.015625)"/>
      <path id="Arial-BoldMT-31" d="M 2519 0 
L 1641 0 
L 1641 3309 
Q 1159 2859 506 2644 
L 506 3441 
Q 850 3553 1253 3867 
Q 1656 4181 1806 4600 
L 2519 4600 
L 2519 0 
z
" transform="scale(0.015625)"/>
      <path id="Arial-BoldMT-3a" d="M 628 2441 
L 628 3319 
L 1506 3319 
L 1506 2441 
L 628 2441 
z
M 628 0 
L 628 878 
L 1506 878 
L 1506 0 
L 628 0 
z
" transform="scale(0.015625)"/>
      <path id="Arial-BoldMT-2d" d="M 359 1222 
L 359 2100 
L 2084 2100 
L 2084 1222 
L 359 1222 
z
" transform="scale(0.015625)"/>
      <path id="Arial-BoldMT-43" d="M 3397 1684 
L 4294 1400 
Q 4088 650 3608 286 
Q 3128 -78 2391 -78 
Q 1478 -78 890 545 
Q 303 1169 303 2250 
Q 303 3394 893 4026 
Q 1484 4659 2447 4659 
Q 3288 4659 3813 4163 
Q 4125 3869 4281 3319 
L 3366 3100 
Q 3284 3456 3026 3662 
Q 2769 3869 2400 3869 
Q 1891 3869 1573 3503 
Q 1256 3138 1256 2319 
Q 1256 1450 1568 1081 
Q 1881 713 2381 713 
Q 2750 713 3015 947 
Q 3281 1181 3397 1684 
z
" transform="scale(0.015625)"/>
      <path id="Arial-BoldMT-75" d="M 2644 0 
L 2644 497 
Q 2463 231 2167 78 
Q 1872 -75 1544 -75 
Q 1209 -75 943 72 
Q 678 219 559 484 
Q 441 750 441 1219 
L 441 3319 
L 1319 3319 
L 1319 1794 
Q 1319 1094 1367 936 
Q 1416 778 1544 686 
Q 1672 594 1869 594 
Q 2094 594 2272 717 
Q 2450 841 2515 1023 
Q 2581 1206 2581 1919 
L 2581 3319 
L 3459 3319 
L 3459 0 
L 2644 0 
z
" transform="scale(0.015625)"/>
      <path id="Arial-BoldMT-76" d="M 1372 0 
L 34 3319 
L 956 3319 
L 1581 1625 
L 1763 1059 
Q 1834 1275 1853 1344 
Q 1897 1484 1947 1625 
L 2578 3319 
L 3481 3319 
L 2163 0 
L 1372 0 
z
" transform="scale(0.015625)"/>
     </defs>
     <use xlink:href="#Arial-BoldMT-4d"/>
     <use xlink:href="#Arial-BoldMT-6f" transform="translate(83.300781 0)"/>
     <use xlink:href="#Arial-BoldMT-64" transform="translate(144.384766 0)"/>
     <use xlink:href="#Arial-BoldMT-65" transform="translate(205.46875 0)"/>
     <use xlink:href="#Arial-BoldMT-6c" transform="translate(261.083984 0)"/>
     <use xlink:href="#Arial-BoldMT-20" transform="translate(288.867188 0)"/>
     <use xlink:href="#Arial-BoldMT-31" transform="translate(316.650391 0)"/>
     <use xlink:href="#Arial-BoldMT-3a" transform="translate(372.265625 0)"/>
     <use xlink:href="#Arial-BoldMT-20" transform="translate(405.566406 0)"/>
     <use xlink:href="#Arial-BoldMT-50" transform="translate(433.349609 0)"/>
     <use xlink:href="#Arial-BoldMT-72" transform="translate(500.048828 0)"/>
     <use xlink:href="#Arial-BoldMT-65" transform="translate(538.964844 0)"/>
     <use xlink:href="#Arial-BoldMT-63" transform="translate(594.580078 0)"/>
     <use xlink:href="#Arial-BoldMT-69" transform="translate(650.195312 0)"/>
     <use xlink:href="#Arial-BoldMT-73" transform="translate(677.978516 0)"/>
     <use xlink:href="#Arial-BoldMT-69" transform="translate(733.59375 0)"/>
     <use xlink:href="#Arial-BoldMT-6f" transform="translate(761.376953 0)"/>
     <use xlink:href="#Arial-BoldMT-6e" transform="translate(822.460938 0)"/>
     <use xlink:href="#Arial-BoldMT-2d" transform="translate(883.544922 0)"/>
     <use xlink:href="#Arial-BoldMT-52" transform="translate(916.845703 0)"/>
     <use xlink:href="#Arial-BoldMT-65" transform="translate(989.0625 0)"/>
     <use xlink:href="#Arial-BoldMT-63" transform="translate(1044.677734 0)"/>
     <use xlink:href="#Arial-BoldMT-61" transform="translate(1100.292969 0)"/>
     <use xlink:href="#Arial-BoldMT-6c" transform="translate(1155.908203 0)"/>
     <use xlink:href="#Arial-BoldMT-6c" transform="translate(1183.691406 0)"/>
     <use xlink:href="#Arial-BoldMT-20" transform="translate(1211.474609 0)"/>
     <use xlink:href="#Arial-BoldMT-43" transform="translate(1239.257812 0)"/>
     <use xlink:href="#Arial-BoldMT-75" transform="translate(1311.474609 0)"/>
     <use xlink:href="#Arial-BoldMT-72" transform="translate(1372.558594 0)"/>
     <use xlink:href="#Arial-BoldMT-76" transform="translate(1411.474609 0)"/>
     <use xlink:href="#Arial-BoldMT-65" transform="translate(1467.089844 0)"/>
    </g>
   </g>
   <g id="legend_1">
    <g id="patch_7">
     <path d="M 164.573426 260.522801 
L 282.89952 260.522801 
Q 284.69952 260.522801 284.69952 258.722801 
L 284.69952 246.89202 
Q 284.69952 245.09202 282.89952 245.09202 
L 164.573426 245.09202 
Q 162.773426 245.09202 162.773426 246.89202 
L 162.773426 258.722801 
Q 162.773426 260.522801 164.573426 260.522801 
z
" style="fill: #ffffff; opacity: 0.8; stroke: #cccccc; stroke-width: 0.75; stroke-linejoin: miter"/>
    </g>
    <g id="line2d_26">
     <path d="M 166.373426 251.984051 
L 175.373426 251.984051 
L 184.373426 251.984051 
" style="fill: none; stroke: #1f77b4; stroke-width: 1.5; stroke-linecap: round"/>
    </g>
    <g id="text_16">
     <!-- Precision-Recall curve -->
     <g style="fill: #333333" transform="translate(191.573426 255.134051) scale(0.09 -0.09)">
      <defs>
       <path id="ArialMT-50" d="M 494 0 
L 494 4581 
L 2222 4581 
Q 2678 4581 2919 4538 
Q 3256 4481 3484 4323 
Q 3713 4166 3852 3881 
Q 3991 3597 3991 3256 
Q 3991 2672 3619 2267 
Q 3247 1863 2275 1863 
L 1100 1863 
L 1100 0 
L 494 0 
z
M 1100 2403 
L 2284 2403 
Q 2872 2403 3119 2622 
Q 3366 2841 3366 3238 
Q 3366 3525 3220 3729 
Q 3075 3934 2838 4000 
Q 2684 4041 2272 4041 
L 1100 4041 
L 1100 2403 
z
" transform="scale(0.015625)"/>
       <path id="ArialMT-72" d="M 416 0 
L 416 3319 
L 922 3319 
L 922 2816 
Q 1116 3169 1280 3281 
Q 1444 3394 1641 3394 
Q 1925 3394 2219 3213 
L 2025 2691 
Q 1819 2813 1613 2813 
Q 1428 2813 1281 2702 
Q 1134 2591 1072 2394 
Q 978 2094 978 1738 
L 978 0 
L 416 0 
z
" transform="scale(0.015625)"/>
       <path id="ArialMT-65" d="M 2694 1069 
L 3275 997 
Q 3138 488 2766 206 
Q 2394 -75 1816 -75 
Q 1088 -75 661 373 
Q 234 822 234 1631 
Q 234 2469 665 2931 
Q 1097 3394 1784 3394 
Q 2450 3394 2872 2941 
Q 3294 2488 3294 1666 
Q 3294 1616 3291 1516 
L 816 1516 
Q 847 969 1125 678 
Q 1403 388 1819 388 
Q 2128 388 2347 550 
Q 2566 713 2694 1069 
z
M 847 1978 
L 2700 1978 
Q 2663 2397 2488 2606 
Q 2219 2931 1791 2931 
Q 1403 2931 1139 2672 
Q 875 2413 847 1978 
z
" transform="scale(0.015625)"/>
       <path id="ArialMT-63" d="M 2588 1216 
L 3141 1144 
Q 3050 572 2676 248 
Q 2303 -75 1759 -75 
Q 1078 -75 664 370 
Q 250 816 250 1647 
Q 250 2184 428 2587 
Q 606 2991 970 3192 
Q 1334 3394 1763 3394 
Q 2303 3394 2647 3120 
Q 2991 2847 3088 2344 
L 2541 2259 
Q 2463 2594 2264 2762 
Q 2066 2931 1784 2931 
Q 1359 2931 1093 2626 
Q 828 2322 828 1663 
Q 828 994 1084 691 
Q 1341 388 1753 388 
Q 2084 388 2306 591 
Q 2528 794 2588 1216 
z
" transform="scale(0.015625)"/>
       <path id="ArialMT-69" d="M 425 3934 
L 425 4581 
L 988 4581 
L 988 3934 
L 425 3934 
z
M 425 0 
L 425 3319 
L 988 3319 
L 988 0 
L 425 0 
z
" transform="scale(0.015625)"/>
       <path id="ArialMT-73" d="M 197 991 
L 753 1078 
Q 800 744 1014 566 
Q 1228 388 1613 388 
Q 2000 388 2187 545 
Q 2375 703 2375 916 
Q 2375 1106 2209 1216 
Q 2094 1291 1634 1406 
Q 1016 1563 777 1677 
Q 538 1791 414 1992 
Q 291 2194 291 2438 
Q 291 2659 392 2848 
Q 494 3038 669 3163 
Q 800 3259 1026 3326 
Q 1253 3394 1513 3394 
Q 1903 3394 2198 3281 
Q 2494 3169 2634 2976 
Q 2775 2784 2828 2463 
L 2278 2388 
Q 2241 2644 2061 2787 
Q 1881 2931 1553 2931 
Q 1166 2931 1000 2803 
Q 834 2675 834 2503 
Q 834 2394 903 2306 
Q 972 2216 1119 2156 
Q 1203 2125 1616 2013 
Q 2213 1853 2448 1751 
Q 2684 1650 2818 1456 
Q 2953 1263 2953 975 
Q 2953 694 2789 445 
Q 2625 197 2315 61 
Q 2006 -75 1616 -75 
Q 969 -75 630 194 
Q 291 463 197 991 
z
" transform="scale(0.015625)"/>
       <path id="ArialMT-6f" d="M 213 1659 
Q 213 2581 725 3025 
Q 1153 3394 1769 3394 
Q 2453 3394 2887 2945 
Q 3322 2497 3322 1706 
Q 3322 1066 3130 698 
Q 2938 331 2570 128 
Q 2203 -75 1769 -75 
Q 1072 -75 642 372 
Q 213 819 213 1659 
z
M 791 1659 
Q 791 1022 1069 705 
Q 1347 388 1769 388 
Q 2188 388 2466 706 
Q 2744 1025 2744 1678 
Q 2744 2294 2464 2611 
Q 2184 2928 1769 2928 
Q 1347 2928 1069 2612 
Q 791 2297 791 1659 
z
" transform="scale(0.015625)"/>
       <path id="ArialMT-6e" d="M 422 0 
L 422 3319 
L 928 3319 
L 928 2847 
Q 1294 3394 1984 3394 
Q 2284 3394 2536 3286 
Q 2788 3178 2913 3003 
Q 3038 2828 3088 2588 
Q 3119 2431 3119 2041 
L 3119 0 
L 2556 0 
L 2556 2019 
Q 2556 2363 2490 2533 
Q 2425 2703 2258 2804 
Q 2091 2906 1866 2906 
Q 1506 2906 1245 2678 
Q 984 2450 984 1813 
L 984 0 
L 422 0 
z
" transform="scale(0.015625)"/>
       <path id="ArialMT-2d" d="M 203 1375 
L 203 1941 
L 1931 1941 
L 1931 1375 
L 203 1375 
z
" transform="scale(0.015625)"/>
       <path id="ArialMT-52" d="M 503 0 
L 503 4581 
L 2534 4581 
Q 3147 4581 3465 4457 
Q 3784 4334 3975 4021 
Q 4166 3709 4166 3331 
Q 4166 2844 3850 2509 
Q 3534 2175 2875 2084 
Q 3116 1969 3241 1856 
Q 3506 1613 3744 1247 
L 4541 0 
L 3778 0 
L 3172 953 
Q 2906 1366 2734 1584 
Q 2563 1803 2427 1890 
Q 2291 1978 2150 2013 
Q 2047 2034 1813 2034 
L 1109 2034 
L 1109 0 
L 503 0 
z
M 1109 2559 
L 2413 2559 
Q 2828 2559 3062 2645 
Q 3297 2731 3419 2920 
Q 3541 3109 3541 3331 
Q 3541 3656 3305 3865 
Q 3069 4075 2559 4075 
L 1109 4075 
L 1109 2559 
z
" transform="scale(0.015625)"/>
       <path id="ArialMT-61" d="M 2588 409 
Q 2275 144 1986 34 
Q 1697 -75 1366 -75 
Q 819 -75 525 192 
Q 231 459 231 875 
Q 231 1119 342 1320 
Q 453 1522 633 1644 
Q 813 1766 1038 1828 
Q 1203 1872 1538 1913 
Q 2219 1994 2541 2106 
Q 2544 2222 2544 2253 
Q 2544 2597 2384 2738 
Q 2169 2928 1744 2928 
Q 1347 2928 1158 2789 
Q 969 2650 878 2297 
L 328 2372 
Q 403 2725 575 2942 
Q 747 3159 1072 3276 
Q 1397 3394 1825 3394 
Q 2250 3394 2515 3294 
Q 2781 3194 2906 3042 
Q 3031 2891 3081 2659 
Q 3109 2516 3109 2141 
L 3109 1391 
Q 3109 606 3145 398 
Q 3181 191 3288 0 
L 2700 0 
Q 2613 175 2588 409 
z
M 2541 1666 
Q 2234 1541 1622 1453 
Q 1275 1403 1131 1340 
Q 988 1278 909 1158 
Q 831 1038 831 891 
Q 831 666 1001 516 
Q 1172 366 1500 366 
Q 1825 366 2078 508 
Q 2331 650 2450 897 
Q 2541 1088 2541 1459 
L 2541 1666 
z
" transform="scale(0.015625)"/>
       <path id="ArialMT-6c" d="M 409 0 
L 409 4581 
L 972 4581 
L 972 0 
L 409 0 
z
" transform="scale(0.015625)"/>
       <path id="ArialMT-20" transform="scale(0.015625)"/>
       <path id="ArialMT-75" d="M 2597 0 
L 2597 488 
Q 2209 -75 1544 -75 
Q 1250 -75 995 37 
Q 741 150 617 320 
Q 494 491 444 738 
Q 409 903 409 1263 
L 409 3319 
L 972 3319 
L 972 1478 
Q 972 1038 1006 884 
Q 1059 663 1231 536 
Q 1403 409 1656 409 
Q 1909 409 2131 539 
Q 2353 669 2445 892 
Q 2538 1116 2538 1541 
L 2538 3319 
L 3100 3319 
L 3100 0 
L 2597 0 
z
" transform="scale(0.015625)"/>
       <path id="ArialMT-76" d="M 1344 0 
L 81 3319 
L 675 3319 
L 1388 1331 
Q 1503 1009 1600 663 
Q 1675 925 1809 1294 
L 2547 3319 
L 3125 3319 
L 1869 0 
L 1344 0 
z
" transform="scale(0.015625)"/>
      </defs>
      <use xlink:href="#ArialMT-50"/>
      <use xlink:href="#ArialMT-72" transform="translate(66.699219 0)"/>
      <use xlink:href="#ArialMT-65" transform="translate(100 0)"/>
      <use xlink:href="#ArialMT-63" transform="translate(155.615234 0)"/>
      <use xlink:href="#ArialMT-69" transform="translate(205.615234 0)"/>
      <use xlink:href="#ArialMT-73" transform="translate(227.832031 0)"/>
      <use xlink:href="#ArialMT-69" transform="translate(277.832031 0)"/>
      <use xlink:href="#ArialMT-6f" transform="translate(300.048828 0)"/>
      <use xlink:href="#ArialMT-6e" transform="translate(355.664062 0)"/>
      <use xlink:href="#ArialMT-2d" transform="translate(411.279297 0)"/>
      <use xlink:href="#ArialMT-52" transform="translate(444.580078 0)"/>
      <use xlink:href="#ArialMT-65" transform="translate(516.796875 0)"/>
      <use xlink:href="#ArialMT-63" transform="translate(572.412109 0)"/>
      <use xlink:href="#ArialMT-61" transform="translate(622.412109 0)"/>
      <use xlink:href="#ArialMT-6c" transform="translate(678.027344 0)"/>
      <use xlink:href="#ArialMT-6c" transform="translate(700.244141 0)"/>
      <use xlink:href="#ArialMT-20" transform="translate(722.460938 0)"/>
      <use xlink:href="#ArialMT-63" transform="translate(750.244141 0)"/>
      <use xlink:href="#ArialMT-75" transform="translate(800.244141 0)"/>
      <use xlink:href="#ArialMT-72" transform="translate(855.859375 0)"/>
      <use xlink:href="#ArialMT-76" transform="translate(889.160156 0)"/>
      <use xlink:href="#ArialMT-65" transform="translate(939.160156 0)"/>
     </g>
    </g>
   </g>
  </g>
 </g>
 <defs>
  <clipPath id="p2117469542">
   <rect x="35.655938" y="19.642031" width="253.543583" height="245.38077"/>
  </clipPath>
 </defs>
</svg>
