<?xml version="1.0" encoding="utf-8" standalone="no"?>
<!DOCTYPE svg PUBLIC "-//W3C//DTD SVG 1.1//EN"
  "http://www.w3.org/Graphics/SVG/1.1/DTD/svg11.dtd">
<svg xmlns:xlink="http://www.w3.org/1999/xlink" width="296.39952pt" height="296.39952pt" viewBox="0 0 296.39952 296.39952" xmlns="http://www.w3.org/2000/svg" version="1.1">
 <metadata>
  <rdf:RDF xmlns:dc="http://purl.org/dc/elements/1.1/" xmlns:cc="http://creativecommons.org/ns#" xmlns:rdf="http://www.w3.org/1999/02/22-rdf-syntax-ns#">
   <cc:Work>
    <dc:type rdf:resource="http://purl.org/dc/dcmitype/StillImage"/>
    <dc:date>2025-12-26T22:07:00.144018</dc:date>
    <dc:format>image/svg+xml</dc:format>
    <dc:creator>
     <cc:Agent>
      <dc:title>Matplotlib v3.10.8, https://matplotlib.org/</dc:title>
     </cc:Agent>
    </dc:creator>
   </cc:Work>
  </rdf:RDF>
 </metadata>
 <defs>
  <style type="text/css">*{stroke-linejoin: round; stroke-linecap: butt}</style>
 </defs>
 <g id="figure_1">
  <g id="patch_1">
   <path d="M 0 296.39952 
L 296.39952 296.39952 
L 296.39952 0 
L 0 0 
z
" style="fill: #ffffff"/>
  </g>
  <g id="axes_1">
   <g id="patch_2">
    <path d="M 35.655938 265.022801 
L 289.19952 265.022801 
L 289.19952 19.642031 
L 35.655938 19.642031 
z
" style="fill: #ffffff"/>
   </g>
   <g id="matplotlib.axis_1">
    <g id="xtick_1">
     <g id="line2d_1">
      <path d="M 42.831699 265.022801 
L 42.831699 19.642031 
" clip-path="url(#p4e6f88117f)" style="fill: none; stroke: #c0c0c0; stroke-width: 0.25; stroke-linecap: round"/>
     </g>
     <g id="line2d_2"/>
     <g id="text_1">
      <!-- 0.0 -->
      <g style="fill: #333333" transform="translate(36.576699 274.964832) scale(0.09 -0.09)">
       <defs>
        <path id="ArialMT-30" d="M 266 2259 
Q 266 3072 433 3567 
Q 600 4063 929 4331 
Q 1259 4600 1759 4600 
Q 2128 4600 2406 4451 
Q 2684 4303 2865 4023 
Q 3047 3744 3150 3342 
Q 3253 2941 3253 2259 
Q 3253 1453 3087 958 
Q 2922 463 2592 192 
Q 2263 -78 1759 -78 
Q 1097 -78 719 397 
Q 266 969 266 2259 
z
M 844 2259 
Q 844 1131 1108 757 
Q 1372 384 1759 384 
Q 2147 384 2411 759 
Q 2675 1134 2675 2259 
Q 2675 3391 2411 3762 
Q 2147 4134 1753 4134 
Q 1366 4134 1134 3806 
Q 844 3388 844 2259 
z
" transform="scale(0.015625)"/>
        <path id="ArialMT-2e" d="M 581 0 
L 581 641 
L 1222 641 
L 1222 0 
L 581 0 
z
" transform="scale(0.015625)"/>
       </defs>
       <use xlink:href="#ArialMT-30"/>
       <use xlink:href="#ArialMT-2e" transform="translate(55.615234 0)"/>
       <use xlink:href="#ArialMT-30" transform="translate(83.398438 0)"/>
      </g>
     </g>
    </g>
    <g id="xtick_2">
     <g id="line2d_3">
      <path d="M 90.670111 265.022801 
L 90.670111 19.642031 
" clip-path="url(#p4e6f88117f)" style="fill: none; stroke: #c0c0c0; stroke-width: 0.25; stroke-linecap: round"/>
     </g>
     <g id="line2d_4"/>
     <g id="text_2">
      <!-- 0.2 -->
      <g style="fill: #333333" transform="translate(84.415111 274.964832) scale(0.09 -0.09)">
       <defs>
        <path id="ArialMT-32" d="M 3222 541 
L 3222 0 
L 194 0 
Q 188 203 259 391 
Q 375 700 629 1000 
Q 884 1300 1366 1694 
Q 2113 2306 2375 2664 
Q 2638 3022 2638 3341 
Q 2638 3675 2398 3904 
Q 2159 4134 1775 4134 
Q 1369 4134 1125 3890 
Q 881 3647 878 3216 
L 300 3275 
Q 359 3922 746 4261 
Q 1134 4600 1788 4600 
Q 2447 4600 2831 4234 
Q 3216 3869 3216 3328 
Q 3216 3053 3103 2787 
Q 2991 2522 2730 2228 
Q 2469 1934 1863 1422 
Q 1356 997 1212 845 
Q 1069 694 975 541 
L 3222 541 
z
" transform="scale(0.015625)"/>
       </defs>
       <use xlink:href="#ArialMT-30"/>
       <use xlink:href="#ArialMT-2e" transform="translate(55.615234 0)"/>
       <use xlink:href="#ArialMT-32" transform="translate(83.398438 0)"/>
      </g>
     </g>
    </g>
    <g id="xtick_3">
     <g id="line2d_5">
      <path d="M 138.508523 265.022801 
L 138.508523 19.642031 
" clip-path="url(#p4e6f88117f)" style="fill: none; stroke: #c0c0c0; stroke-width: 0.25; stroke-linecap: round"/>
     </g>
     <g id="line2d_6"/>
     <g id="text_3">
      <!-- 0.4 -->
      <g style="fill: #333333" transform="translate(132.253523 274.964832) scale(0.09 -0.09)">
       <defs>
        <path id="ArialMT-34" d="M 2069 0 
L 2069 1097 
L 81 1097 
L 81 1613 
L 2172 4581 
L 2631 4581 
L 2631 1613 
L 3250 1613 
L 3250 1097 
L 2631 1097 
L 2631 0 
L 2069 0 
z
M 2069 1613 
L 2069 3678 
L 634 1613 
L 2069 1613 
z
" transform="scale(0.015625)"/>
       </defs>
       <use xlink:href="#ArialMT-30"/>
       <use xlink:href="#ArialMT-2e" transform="translate(55.615234 0)"/>
       <use xlink:href="#ArialMT-34" transform="translate(83.398438 0)"/>
      </g>
     </g>
    </g>
    <g id="xtick_4">
     <g id="line2d_7">
      <path d="M 186.346935 265.022801 
L 186.346935 19.642031 
" clip-path="url(#p4e6f88117f)" style="fill: none; stroke: #c0c0c0; stroke-width: 0.25; stroke-linecap: round"/>
     </g>
     <g id="line2d_8"/>
     <g id="text_4">
      <!-- 0.6 -->
      <g style="fill: #333333" transform="translate(180.091935 274.964832) scale(0.09 -0.09)">
       <defs>
        <path id="ArialMT-36" d="M 3184 3459 
L 2625 3416 
Q 2550 3747 2413 3897 
Q 2184 4138 1850 4138 
Q 1581 4138 1378 3988 
Q 1113 3794 959 3422 
Q 806 3050 800 2363 
Q 1003 2672 1297 2822 
Q 1591 2972 1913 2972 
Q 2475 2972 2870 2558 
Q 3266 2144 3266 1488 
Q 3266 1056 3080 686 
Q 2894 316 2569 119 
Q 2244 -78 1831 -78 
Q 1128 -78 684 439 
Q 241 956 241 2144 
Q 241 3472 731 4075 
Q 1159 4600 1884 4600 
Q 2425 4600 2770 4297 
Q 3116 3994 3184 3459 
z
M 888 1484 
Q 888 1194 1011 928 
Q 1134 663 1356 523 
Q 1578 384 1822 384 
Q 2178 384 2434 671 
Q 2691 959 2691 1453 
Q 2691 1928 2437 2201 
Q 2184 2475 1800 2475 
Q 1419 2475 1153 2201 
Q 888 1928 888 1484 
z
" transform="scale(0.015625)"/>
       </defs>
       <use xlink:href="#ArialMT-30"/>
       <use xlink:href="#ArialMT-2e" transform="translate(55.615234 0)"/>
       <use xlink:href="#ArialMT-36" transform="translate(83.398438 0)"/>
      </g>
     </g>
    </g>
    <g id="xtick_5">
     <g id="line2d_9">
      <path d="M 234.185346 265.022801 
L 234.185346 19.642031 
" clip-path="url(#p4e6f88117f)" style="fill: none; stroke: #c0c0c0; stroke-width: 0.25; stroke-linecap: round"/>
     </g>
     <g id="line2d_10"/>
     <g id="text_5">
      <!-- 0.8 -->
      <g style="fill: #333333" transform="translate(227.930346 274.964832) scale(0.09 -0.09)">
       <defs>
        <path id="ArialMT-38" d="M 1131 2484 
Q 781 2613 612 2850 
Q 444 3088 444 3419 
Q 444 3919 803 4259 
Q 1163 4600 1759 4600 
Q 2359 4600 2725 4251 
Q 3091 3903 3091 3403 
Q 3091 3084 2923 2848 
Q 2756 2613 2416 2484 
Q 2838 2347 3058 2040 
Q 3278 1734 3278 1309 
Q 3278 722 2862 322 
Q 2447 -78 1769 -78 
Q 1091 -78 675 323 
Q 259 725 259 1325 
Q 259 1772 486 2073 
Q 713 2375 1131 2484 
z
M 1019 3438 
Q 1019 3113 1228 2906 
Q 1438 2700 1772 2700 
Q 2097 2700 2305 2904 
Q 2513 3109 2513 3406 
Q 2513 3716 2298 3927 
Q 2084 4138 1766 4138 
Q 1444 4138 1231 3931 
Q 1019 3725 1019 3438 
z
M 838 1322 
Q 838 1081 952 856 
Q 1066 631 1291 507 
Q 1516 384 1775 384 
Q 2178 384 2440 643 
Q 2703 903 2703 1303 
Q 2703 1709 2433 1975 
Q 2163 2241 1756 2241 
Q 1359 2241 1098 1978 
Q 838 1716 838 1322 
z
" transform="scale(0.015625)"/>
       </defs>
       <use xlink:href="#ArialMT-30"/>
       <use xlink:href="#ArialMT-2e" transform="translate(55.615234 0)"/>
       <use xlink:href="#ArialMT-38" transform="translate(83.398438 0)"/>
      </g>
     </g>
    </g>
    <g id="xtick_6">
     <g id="line2d_11">
      <path d="M 282.023758 265.022801 
L 282.023758 19.642031 
" clip-path="url(#p4e6f88117f)" style="fill: none; stroke: #c0c0c0; stroke-width: 0.25; stroke-linecap: round"/>
     </g>
     <g id="line2d_12"/>
     <g id="text_6">
      <!-- 1.0 -->
      <g style="fill: #333333" transform="translate(275.768758 274.964832) scale(0.09 -0.09)">
       <defs>
        <path id="ArialMT-31" d="M 2384 0 
L 1822 0 
L 1822 3584 
Q 1619 3391 1289 3197 
Q 959 3003 697 2906 
L 697 3450 
Q 1169 3672 1522 3987 
Q 1875 4303 2022 4600 
L 2384 4600 
L 2384 0 
z
" transform="scale(0.015625)"/>
       </defs>
       <use xlink:href="#ArialMT-31"/>
       <use xlink:href="#ArialMT-2e" transform="translate(55.615234 0)"/>
       <use xlink:href="#ArialMT-30" transform="translate(83.398438 0)"/>
      </g>
     </g>
    </g>
    <g id="text_7">
     <!-- Recall [TP / (TP + FN)] -->
     <g style="fill: #333333" transform="translate(115.706479 287.305301) scale(0.09 -0.09)">
      <defs>
       <path id="Arial-BoldMT-52" d="M 469 0 
L 469 4581 
L 2416 4581 
Q 3150 4581 3483 4457 
Q 3816 4334 4016 4018 
Q 4216 3703 4216 3297 
Q 4216 2781 3912 2445 
Q 3609 2109 3006 2022 
Q 3306 1847 3501 1637 
Q 3697 1428 4028 894 
L 4588 0 
L 3481 0 
L 2813 997 
Q 2456 1531 2325 1670 
Q 2194 1809 2047 1861 
Q 1900 1913 1581 1913 
L 1394 1913 
L 1394 0 
L 469 0 
z
M 1394 2644 
L 2078 2644 
Q 2744 2644 2909 2700 
Q 3075 2756 3169 2893 
Q 3263 3031 3263 3238 
Q 3263 3469 3139 3611 
Q 3016 3753 2791 3791 
Q 2678 3806 2116 3806 
L 1394 3806 
L 1394 2644 
z
" transform="scale(0.015625)"/>
       <path id="Arial-BoldMT-65" d="M 2381 1056 
L 3256 909 
Q 3088 428 2723 176 
Q 2359 -75 1813 -75 
Q 947 -75 531 491 
Q 203 944 203 1634 
Q 203 2459 634 2926 
Q 1066 3394 1725 3394 
Q 2466 3394 2894 2905 
Q 3322 2416 3303 1406 
L 1103 1406 
Q 1113 1016 1316 798 
Q 1519 581 1822 581 
Q 2028 581 2168 693 
Q 2309 806 2381 1056 
z
M 2431 1944 
Q 2422 2325 2234 2523 
Q 2047 2722 1778 2722 
Q 1491 2722 1303 2513 
Q 1116 2303 1119 1944 
L 2431 1944 
z
" transform="scale(0.015625)"/>
       <path id="Arial-BoldMT-63" d="M 3353 2338 
L 2488 2181 
Q 2444 2441 2289 2572 
Q 2134 2703 1888 2703 
Q 1559 2703 1364 2476 
Q 1169 2250 1169 1719 
Q 1169 1128 1367 884 
Q 1566 641 1900 641 
Q 2150 641 2309 783 
Q 2469 925 2534 1272 
L 3397 1125 
Q 3263 531 2881 228 
Q 2500 -75 1859 -75 
Q 1131 -75 698 384 
Q 266 844 266 1656 
Q 266 2478 700 2936 
Q 1134 3394 1875 3394 
Q 2481 3394 2839 3133 
Q 3197 2872 3353 2338 
z
" transform="scale(0.015625)"/>
       <path id="Arial-BoldMT-61" d="M 1116 2306 
L 319 2450 
Q 453 2931 781 3162 
Q 1109 3394 1756 3394 
Q 2344 3394 2631 3255 
Q 2919 3116 3036 2902 
Q 3153 2688 3153 2116 
L 3144 1091 
Q 3144 653 3186 445 
Q 3228 238 3344 0 
L 2475 0 
Q 2441 88 2391 259 
Q 2369 338 2359 363 
Q 2134 144 1878 34 
Q 1622 -75 1331 -75 
Q 819 -75 523 203 
Q 228 481 228 906 
Q 228 1188 362 1408 
Q 497 1628 739 1745 
Q 981 1863 1438 1950 
Q 2053 2066 2291 2166 
L 2291 2253 
Q 2291 2506 2166 2614 
Q 2041 2722 1694 2722 
Q 1459 2722 1328 2630 
Q 1197 2538 1116 2306 
z
M 2291 1594 
Q 2122 1538 1756 1459 
Q 1391 1381 1278 1306 
Q 1106 1184 1106 997 
Q 1106 813 1243 678 
Q 1381 544 1594 544 
Q 1831 544 2047 700 
Q 2206 819 2256 991 
Q 2291 1103 2291 1419 
L 2291 1594 
z
" transform="scale(0.015625)"/>
       <path id="Arial-BoldMT-6c" d="M 459 0 
L 459 4581 
L 1338 4581 
L 1338 0 
L 459 0 
z
" transform="scale(0.015625)"/>
       <path id="Arial-BoldMT-20" transform="scale(0.015625)"/>
       <path id="Arial-BoldMT-5b" d="M 456 -1291 
L 456 4581 
L 2013 4581 
L 2013 3891 
L 1291 3891 
L 1291 -600 
L 2013 -600 
L 2013 -1291 
L 456 -1291 
z
" transform="scale(0.015625)"/>
       <path id="Arial-BoldMT-54" d="M 1497 0 
L 1497 3806 
L 138 3806 
L 138 4581 
L 3778 4581 
L 3778 3806 
L 2422 3806 
L 2422 0 
L 1497 0 
z
" transform="scale(0.015625)"/>
       <path id="Arial-BoldMT-50" d="M 466 0 
L 466 4581 
L 1950 4581 
Q 2794 4581 3050 4513 
Q 3444 4409 3709 4064 
Q 3975 3719 3975 3172 
Q 3975 2750 3822 2462 
Q 3669 2175 3433 2011 
Q 3197 1847 2953 1794 
Q 2622 1728 1994 1728 
L 1391 1728 
L 1391 0 
L 466 0 
z
M 1391 3806 
L 1391 2506 
L 1897 2506 
Q 2444 2506 2628 2578 
Q 2813 2650 2917 2803 
Q 3022 2956 3022 3159 
Q 3022 3409 2875 3571 
Q 2728 3734 2503 3775 
Q 2338 3806 1838 3806 
L 1391 3806 
z
" transform="scale(0.015625)"/>
       <path id="Arial-BoldMT-2f" d="M -9 -78 
L 1125 4659 
L 1784 4659 
L 638 -78 
L -9 -78 
z
" transform="scale(0.015625)"/>
       <path id="Arial-BoldMT-28" d="M 1916 -1347 
L 1313 -1347 
Q 834 -625 584 153 
Q 334 931 334 1659 
Q 334 2563 644 3369 
Q 913 4069 1325 4659 
L 1925 4659 
Q 1497 3713 1336 3048 
Q 1175 2384 1175 1641 
Q 1175 1128 1270 590 
Q 1366 53 1531 -431 
Q 1641 -750 1916 -1347 
z
" transform="scale(0.015625)"/>
       <path id="Arial-BoldMT-2b" d="M 1466 659 
L 1466 1850 
L 266 1850 
L 266 2672 
L 1466 2672 
L 1466 3863 
L 2266 3863 
L 2266 2672 
L 3469 2672 
L 3469 1850 
L 2266 1850 
L 2266 659 
L 1466 659 
z
" transform="scale(0.015625)"/>
       <path id="Arial-BoldMT-46" d="M 472 0 
L 472 4581 
L 3613 4581 
L 3613 3806 
L 1397 3806 
L 1397 2722 
L 3309 2722 
L 3309 1947 
L 1397 1947 
L 1397 0 
L 472 0 
z
" transform="scale(0.015625)"/>
       <path id="Arial-BoldMT-4e" d="M 475 0 
L 475 4581 
L 1375 4581 
L 3250 1522 
L 3250 4581 
L 4109 4581 
L 4109 0 
L 3181 0 
L 1334 2988 
L 1334 0 
L 475 0 
z
" transform="scale(0.015625)"/>
       <path id="Arial-BoldMT-29" d="M 216 -1347 
Q 475 -791 581 -494 
Q 688 -197 778 190 
Q 869 578 912 926 
Q 956 1275 956 1641 
Q 956 2384 797 3048 
Q 638 3713 209 4659 
L 806 4659 
Q 1278 3988 1539 3234 
Q 1800 2481 1800 1706 
Q 1800 1053 1594 306 
Q 1359 -531 822 -1347 
L 216 -1347 
z
" transform="scale(0.015625)"/>
       <path id="Arial-BoldMT-5d" d="M 1675 4581 
L 1675 -1291 
L 119 -1291 
L 119 -600 
L 841 -600 
L 841 3897 
L 119 3897 
L 119 4581 
L 1675 4581 
z
" transform="scale(0.015625)"/>
      </defs>
      <use xlink:href="#Arial-BoldMT-52"/>
      <use xlink:href="#Arial-BoldMT-65" transform="translate(72.216797 0)"/>
      <use xlink:href="#Arial-BoldMT-63" transform="translate(127.832031 0)"/>
      <use xlink:href="#Arial-BoldMT-61" transform="translate(183.447266 0)"/>
      <use xlink:href="#Arial-BoldMT-6c" transform="translate(239.0625 0)"/>
      <use xlink:href="#Arial-BoldMT-6c" transform="translate(266.845703 0)"/>
      <use xlink:href="#Arial-BoldMT-20" transform="translate(294.628906 0)"/>
      <use xlink:href="#Arial-BoldMT-5b" transform="translate(322.412109 0)"/>
      <use xlink:href="#Arial-BoldMT-54" transform="translate(355.712891 0)"/>
      <use xlink:href="#Arial-BoldMT-50" transform="translate(416.796875 0)"/>
      <use xlink:href="#Arial-BoldMT-20" transform="translate(481.746094 0)"/>
      <use xlink:href="#Arial-BoldMT-2f" transform="translate(509.529297 0)"/>
      <use xlink:href="#Arial-BoldMT-20" transform="translate(537.3125 0)"/>
      <use xlink:href="#Arial-BoldMT-28" transform="translate(565.095703 0)"/>
      <use xlink:href="#Arial-BoldMT-54" transform="translate(598.396484 0)"/>
      <use xlink:href="#Arial-BoldMT-50" transform="translate(659.480469 0)"/>
      <use xlink:href="#Arial-BoldMT-20" transform="translate(724.429688 0)"/>
      <use xlink:href="#Arial-BoldMT-2b" transform="translate(752.212891 0)"/>
      <use xlink:href="#Arial-BoldMT-20" transform="translate(810.611328 0)"/>
      <use xlink:href="#Arial-BoldMT-46" transform="translate(838.394531 0)"/>
      <use xlink:href="#Arial-BoldMT-4e" transform="translate(899.478516 0)"/>
      <use xlink:href="#Arial-BoldMT-29" transform="translate(971.695312 0)"/>
      <use xlink:href="#Arial-BoldMT-5d" transform="translate(1004.996094 0)"/>
     </g>
    </g>
   </g>
   <g id="matplotlib.axis_2">
    <g id="ytick_1">
     <g id="line2d_13">
      <path d="M 35.655938 265.022801 
L 289.19952 265.022801 
" clip-path="url(#p4e6f88117f)" style="fill: none; stroke: #c0c0c0; stroke-width: 0.25; stroke-linecap: round"/>
     </g>
     <g id="line2d_14"/>
     <g id="text_8">
      <!-- 0.0 -->
      <g style="fill: #333333" transform="translate(19.645938 268.243817) scale(0.09 -0.09)">
       <use xlink:href="#ArialMT-30"/>
       <use xlink:href="#ArialMT-2e" transform="translate(55.615234 0)"/>
       <use xlink:href="#ArialMT-30" transform="translate(83.398438 0)"/>
      </g>
     </g>
    </g>
    <g id="ytick_2">
     <g id="line2d_15">
      <path d="M 35.655938 217.37605 
L 289.19952 217.37605 
" clip-path="url(#p4e6f88117f)" style="fill: none; stroke: #c0c0c0; stroke-width: 0.25; stroke-linecap: round"/>
     </g>
     <g id="line2d_16"/>
     <g id="text_9">
      <!-- 0.2 -->
      <g style="fill: #333333" transform="translate(19.645938 220.597065) scale(0.09 -0.09)">
       <use xlink:href="#ArialMT-30"/>
       <use xlink:href="#ArialMT-2e" transform="translate(55.615234 0)"/>
       <use xlink:href="#ArialMT-32" transform="translate(83.398438 0)"/>
      </g>
     </g>
    </g>
    <g id="ytick_3">
     <g id="line2d_17">
      <path d="M 35.655938 169.729298 
L 289.19952 169.729298 
" clip-path="url(#p4e6f88117f)" style="fill: none; stroke: #c0c0c0; stroke-width: 0.25; stroke-linecap: round"/>
     </g>
     <g id="line2d_18"/>
     <g id="text_10">
      <!-- 0.4 -->
      <g style="fill: #333333" transform="translate(19.645938 172.950314) scale(0.09 -0.09)">
       <use xlink:href="#ArialMT-30"/>
       <use xlink:href="#ArialMT-2e" transform="translate(55.615234 0)"/>
       <use xlink:href="#ArialMT-34" transform="translate(83.398438 0)"/>
      </g>
     </g>
    </g>
    <g id="ytick_4">
     <g id="line2d_19">
      <path d="M 35.655938 122.082547 
L 289.19952 122.082547 
" clip-path="url(#p4e6f88117f)" style="fill: none; stroke: #c0c0c0; stroke-width: 0.25; stroke-linecap: round"/>
     </g>
     <g id="line2d_20"/>
     <g id="text_11">
      <!-- 0.6 -->
      <g style="fill: #333333" transform="translate(19.645938 125.303563) scale(0.09 -0.09)">
       <use xlink:href="#ArialMT-30"/>
       <use xlink:href="#ArialMT-2e" transform="translate(55.615234 0)"/>
       <use xlink:href="#ArialMT-36" transform="translate(83.398438 0)"/>
      </g>
     </g>
    </g>
    <g id="ytick_5">
     <g id="line2d_21">
      <path d="M 35.655938 74.435795 
L 289.19952 74.435795 
" clip-path="url(#p4e6f88117f)" style="fill: none; stroke: #c0c0c0; stroke-width: 0.25; stroke-linecap: round"/>
     </g>
     <g id="line2d_22"/>
     <g id="text_12">
      <!-- 0.8 -->
      <g style="fill: #333333" transform="translate(19.645938 77.656811) scale(0.09 -0.09)">
       <use xlink:href="#ArialMT-30"/>
       <use xlink:href="#ArialMT-2e" transform="translate(55.615234 0)"/>
       <use xlink:href="#ArialMT-38" transform="translate(83.398438 0)"/>
      </g>
     </g>
    </g>
    <g id="ytick_6">
     <g id="line2d_23">
      <path d="M 35.655938 26.789044 
L 289.19952 26.789044 
" clip-path="url(#p4e6f88117f)" style="fill: none; stroke: #c0c0c0; stroke-width: 0.25; stroke-linecap: round"/>
     </g>
     <g id="line2d_24"/>
     <g id="text_13">
      <!-- 1.0 -->
      <g style="fill: #333333" transform="translate(19.645938 30.01006) scale(0.09 -0.09)">
       <use xlink:href="#ArialMT-31"/>
       <use xlink:href="#ArialMT-2e" transform="translate(55.615234 0)"/>
       <use xlink:href="#ArialMT-30" transform="translate(83.398438 0)"/>
      </g>
     </g>
    </g>
    <g id="text_14">
     <!-- Precision [TP / (TP + FP)] -->
     <g style="fill: #333333" transform="translate(13.751719 195.805776) rotate(-90) scale(0.09 -0.09)">
      <defs>
       <path id="Arial-BoldMT-72" d="M 1300 0 
L 422 0 
L 422 3319 
L 1238 3319 
L 1238 2847 
Q 1447 3181 1614 3287 
Q 1781 3394 1994 3394 
Q 2294 3394 2572 3228 
L 2300 2463 
Q 2078 2606 1888 2606 
Q 1703 2606 1575 2504 
Q 1447 2403 1373 2137 
Q 1300 1872 1300 1025 
L 1300 0 
z
" transform="scale(0.015625)"/>
       <path id="Arial-BoldMT-69" d="M 459 3769 
L 459 4581 
L 1338 4581 
L 1338 3769 
L 459 3769 
z
M 459 0 
L 459 3319 
L 1338 3319 
L 1338 0 
L 459 0 
z
" transform="scale(0.015625)"/>
       <path id="Arial-BoldMT-73" d="M 150 947 
L 1031 1081 
Q 1088 825 1259 692 
Q 1431 559 1741 559 
Q 2081 559 2253 684 
Q 2369 772 2369 919 
Q 2369 1019 2306 1084 
Q 2241 1147 2013 1200 
Q 950 1434 666 1628 
Q 272 1897 272 2375 
Q 272 2806 612 3100 
Q 953 3394 1669 3394 
Q 2350 3394 2681 3172 
Q 3013 2950 3138 2516 
L 2309 2363 
Q 2256 2556 2107 2659 
Q 1959 2763 1684 2763 
Q 1338 2763 1188 2666 
Q 1088 2597 1088 2488 
Q 1088 2394 1175 2328 
Q 1294 2241 1995 2081 
Q 2697 1922 2975 1691 
Q 3250 1456 3250 1038 
Q 3250 581 2869 253 
Q 2488 -75 1741 -75 
Q 1063 -75 667 200 
Q 272 475 150 947 
z
" transform="scale(0.015625)"/>
       <path id="Arial-BoldMT-6f" d="M 256 1706 
Q 256 2144 472 2553 
Q 688 2963 1083 3178 
Q 1478 3394 1966 3394 
Q 2719 3394 3200 2905 
Q 3681 2416 3681 1669 
Q 3681 916 3195 420 
Q 2709 -75 1972 -75 
Q 1516 -75 1102 131 
Q 688 338 472 736 
Q 256 1134 256 1706 
z
M 1156 1659 
Q 1156 1166 1390 903 
Q 1625 641 1969 641 
Q 2313 641 2545 903 
Q 2778 1166 2778 1666 
Q 2778 2153 2545 2415 
Q 2313 2678 1969 2678 
Q 1625 2678 1390 2415 
Q 1156 2153 1156 1659 
z
" transform="scale(0.015625)"/>
       <path id="Arial-BoldMT-6e" d="M 3478 0 
L 2600 0 
L 2600 1694 
Q 2600 2231 2544 2389 
Q 2488 2547 2361 2634 
Q 2234 2722 2056 2722 
Q 1828 2722 1647 2597 
Q 1466 2472 1398 2265 
Q 1331 2059 1331 1503 
L 1331 0 
L 453 0 
L 453 3319 
L 1269 3319 
L 1269 2831 
Q 1703 3394 2363 3394 
Q 2653 3394 2893 3289 
Q 3134 3184 3257 3021 
Q 3381 2859 3429 2653 
Q 3478 2447 3478 2063 
L 3478 0 
z
" transform="scale(0.015625)"/>
      </defs>
      <use xlink:href="#Arial-BoldMT-50"/>
      <use xlink:href="#Arial-BoldMT-72" transform="translate(66.699219 0)"/>
      <use xlink:href="#Arial-BoldMT-65" transform="translate(105.615234 0)"/>
      <use xlink:href="#Arial-BoldMT-63" transform="translate(161.230469 0)"/>
      <use xlink:href="#Arial-BoldMT-69" transform="translate(216.845703 0)"/>
      <use xlink:href="#Arial-BoldMT-73" transform="translate(244.628906 0)"/>
      <use xlink:href="#Arial-BoldMT-69" transform="translate(300.244141 0)"/>
      <use xlink:href="#Arial-BoldMT-6f" transform="translate(328.027344 0)"/>
      <use xlink:href="#Arial-BoldMT-6e" transform="translate(389.111328 0)"/>
      <use xlink:href="#Arial-BoldMT-20" transform="translate(450.195312 0)"/>
      <use xlink:href="#Arial-BoldMT-5b" transform="translate(477.978516 0)"/>
      <use xlink:href="#Arial-BoldMT-54" transform="translate(511.279297 0)"/>
      <use xlink:href="#Arial-BoldMT-50" transform="translate(572.363281 0)"/>
      <use xlink:href="#Arial-BoldMT-20" transform="translate(637.3125 0)"/>
      <use xlink:href="#Arial-BoldMT-2f" transform="translate(665.095703 0)"/>
      <use xlink:href="#Arial-BoldMT-20" transform="translate(692.878906 0)"/>
      <use xlink:href="#Arial-BoldMT-28" transform="translate(720.662109 0)"/>
      <use xlink:href="#Arial-BoldMT-54" transform="translate(753.962891 0)"/>
      <use xlink:href="#Arial-BoldMT-50" transform="translate(815.046875 0)"/>
      <use xlink:href="#Arial-BoldMT-20" transform="translate(879.996094 0)"/>
      <use xlink:href="#Arial-BoldMT-2b" transform="translate(907.779297 0)"/>
      <use xlink:href="#Arial-BoldMT-20" transform="translate(966.177734 0)"/>
      <use xlink:href="#Arial-BoldMT-46" transform="translate(993.960938 0)"/>
      <use xlink:href="#Arial-BoldMT-50" transform="translate(1055.044922 0)"/>
      <use xlink:href="#Arial-BoldMT-29" transform="translate(1121.744141 0)"/>
      <use xlink:href="#Arial-BoldMT-5d" transform="translate(1155.044922 0)"/>
     </g>
    </g>
   </g>
   <g id="line2d_25">
    <path d="M 42.831699 265.022801 
L 42.83186 264.922464 
L 42.942758 242.246276 
L 42.943809 242.145939 
L 43.054494 232.145673 
L 43.056026 232.045336 
L 43.166105 225.055184 
L 43.168207 224.954847 
L 43.279052 219.570088 
L 43.28078 219.469751 
L 43.391483 215.790723 
L 43.396773 215.690386 
L 43.505231 212.044804 
L 43.509755 211.944467 
L 43.618428 207.930983 
L 43.629542 207.830646 
L 43.740014 205.021206 
L 43.746693 204.920869 
L 43.856131 202.479333 
L 43.864823 202.378996 
L 43.972569 200.271916 
L 43.983969 200.171579 
L 44.088366 197.730043 
L 44.093835 197.730043 
L 44.102723 197.629706 
L 44.212268 195.990866 
L 44.213746 195.990866 
L 44.222884 195.890529 
L 44.332821 193.850341 
L 44.344719 193.750004 
L 44.45576 192.111164 
L 44.464987 192.010827 
L 44.575048 190.371988 
L 44.587125 190.27165 
L 44.698131 188.365245 
L 44.703955 188.264908 
L 44.811648 186.559177 
L 44.821355 186.45884 
L 44.929226 185.321686 
L 44.953807 185.221349 
L 45.055425 183.649401 
L 45.070868 183.549064 
L 45.180948 182.17779 
L 45.18964 182.077453 
L 45.297671 180.873407 
L 45.3103 180.77307 
L 45.419684 179.268013 
L 45.427165 179.167676 
L 45.533255 177.829848 
L 45.544886 177.729511 
L 45.646594 176.224454 
L 45.652062 176.224454 
L 45.670355 176.124117 
L 45.769426 175.053855 
L 45.793936 174.953517 
L 45.897015 174.017038 
L 45.909501 173.916701 
L 46.018904 172.812992 
L 46.031889 172.712655 
L 46.142075 171.608947 
L 46.156895 171.50861 
L 46.26774 170.304564 
L 46.270109 170.204227 
L 46.370694 169.702542 
L 46.402026 169.602205 
L 46.506672 168.899845 
L 46.537648 168.799508 
L 46.647496 167.628908 
L 46.658076 167.528571 
L 46.76559 166.357971 
L 46.765768 166.357971 
L 46.813968 166.257634 
L 46.923656 165.12048 
L 46.929462 165.020143 
L 47.038758 164.284338 
L 47.053952 164.184 
L 47.16428 163.214075 
L 47.194508 163.113738 
L 47.304587 161.943138 
L 47.323129 161.842801 
L 47.433868 160.705647 
L 47.445659 160.60531 
L 47.555044 159.869504 
L 47.564752 159.769167 
L 47.675597 158.799242 
L 47.688136 158.698905 
L 47.797325 157.896208 
L 47.815351 157.795871 
L 47.918323 156.993174 
L 47.944703 156.892837 
L 48.051647 155.922911 
L 48.078188 155.822574 
L 48.175709 155.220551 
L 48.177081 155.220551 
L 48.209161 155.120214 
L 48.317494 154.68542 
L 48.388939 154.585083 
L 48.496507 153.74894 
L 48.525451 153.648603 
L 48.623116 152.979689 
L 48.667789 152.879352 
L 48.77272 152.143547 
L 48.778794 152.143547 
L 48.796945 152.043209 
L 48.901716 151.207067 
L 48.906347 151.207067 
L 48.922645 151.10673 
L 49.033526 150.471261 
L 49.055791 150.370924 
L 49.166476 149.802347 
L 49.187263 149.70201 
L 49.293032 148.966205 
L 49.294261 148.966205 
L 49.316722 148.865868 
L 49.421386 148.397628 
L 49.421885 148.397628 
L 49.459415 148.297291 
L 49.538947 147.829051 
L 49.570439 147.829051 
L 49.604852 147.728714 
L 49.715697 147.293919 
L 49.727952 147.193582 
L 49.833809 146.457777 
L 49.834094 146.457777 
L 49.851301 146.35744 
L 49.958566 145.956091 
L 49.990877 145.855754 
L 50.098053 145.18684 
L 50.146003 145.086503 
L 50.251309 144.885829 
L 50.280058 144.785491 
L 50.389353 144.283806 
L 50.430838 144.183469 
L 50.520914 143.78212 
L 50.556093 143.681783 
L 50.658478 143.079761 
L 50.667188 143.079761 
L 50.684947 142.979423 
L 50.791909 142.444292 
L 50.83204 142.343955 
L 50.941228 141.708487 
L 50.98795 141.60815 
L 51.093006 141.006127 
L 51.12505 140.90579 
L 51.235646 140.337213 
L 51.262328 140.236876 
L 51.370502 139.601407 
L 51.403525 139.50107 
L 51.511645 138.899047 
L 51.556781 138.79871 
L 51.665454 138.297025 
L 51.687416 138.196688 
L 51.796302 137.795339 
L 51.796462 137.795339 
L 51.837715 137.695002 
L 51.945799 136.992642 
L 51.947046 136.992642 
L 51.995068 136.892305 
L 52.103847 136.557848 
L 52.130779 136.457511 
L 52.22855 135.888934 
L 52.30003 135.788597 
L 52.404802 135.387248 
L 52.43013 135.286911 
L 52.515789 134.75178 
L 52.526334 134.75178 
L 52.581178 134.651443 
L 52.691578 134.116312 
L 52.714431 134.015974 
L 52.817225 133.648072 
L 52.821001 133.648072 
L 52.843694 133.547735 
L 52.94834 133.012603 
L 52.953595 133.012603 
L 52.986814 132.912266 
L 53.086295 132.343689 
L 53.094667 132.343689 
L 53.113976 132.243352 
L 53.214294 131.775112 
L 53.220867 131.775112 
L 53.252465 131.674775 
L 53.363204 131.139644 
L 53.395925 131.039307 
L 53.492449 130.771741 
L 53.502263 130.771741 
L 53.590095 130.671404 
L 53.69964 130.303501 
L 53.729048 130.203164 
L 53.822722 129.835261 
L 53.827193 129.835261 
L 53.872988 129.734924 
L 53.980182 129.199793 
L 54.002554 129.099456 
L 54.104885 128.731553 
L 54.183365 128.631216 
L 54.294264 128.36365 
L 54.313252 128.263313 
L 54.422868 127.627845 
L 54.499247 127.527508 
L 54.600117 127.226496 
L 54.603644 127.226496 
L 54.66588 127.126159 
L 54.772753 126.524137 
L 54.81242 126.423799 
L 54.915018 125.989005 
L 54.915731 125.989005 
L 54.940917 125.888668 
L 55.046063 125.554211 
L 55.074028 125.453874 
L 55.183501 125.219754 
L 55.300492 125.119417 
L 55.410714 124.78496 
L 55.460926 124.684623 
L 55.563346 124.216383 
L 55.61021 124.116046 
L 55.719025 123.714697 
L 55.774688 123.61436 
L 55.853453 123.447132 
L 55.885675 123.447132 
L 55.927587 123.346795 
L 55.999958 122.945446 
L 56.011269 122.945446 
L 56.059914 122.845109 
L 56.167713 122.376869 
L 56.233423 122.276532 
L 56.335201 121.975521 
L 56.336965 121.975521 
L 56.357253 121.875184 
L 56.447774 121.641064 
L 56.467261 121.641064 
L 56.498628 121.540726 
L 56.608333 120.972149 
L 56.636672 120.871812 
L 56.744525 120.303235 
L 56.784068 120.202898 
L 56.886114 119.868441 
L 56.892954 119.868441 
L 56.949098 119.768104 
L 57.048882 119.366756 
L 57.089654 119.266419 
L 57.200107 118.965407 
L 57.232508 118.86507 
L 57.337849 118.63095 
L 57.354165 118.530613 
L 57.457297 118.363384 
L 57.464298 118.363384 
L 57.505925 118.263047 
L 57.600026 117.995482 
L 57.615434 117.995482 
L 57.650506 117.895145 
L 57.7533 117.493796 
L 57.758573 117.493796 
L 57.788533 117.393459 
L 57.889777 117.025556 
L 57.928198 116.925219 
L 58.032453 116.624208 
L 58.074418 116.523871 
L 58.167647 116.323196 
L 58.180792 116.323196 
L 58.233125 116.222859 
L 58.337932 115.788065 
L 58.396249 115.687728 
L 58.473197 115.319825 
L 58.506542 115.319825 
L 58.557787 115.219488 
L 58.650535 114.684357 
L 58.667083 114.684357 
L 58.696758 114.58402 
L 58.79387 114.015443 
L 58.803168 114.015443 
L 58.871549 113.915106 
L 58.942423 113.547203 
L 59.008578 113.446866 
L 59.105832 113.012072 
L 59.119512 113.012072 
L 59.173216 112.911735 
L 59.277435 112.677615 
L 59.341933 112.577277 
L 59.425454 112.309712 
L 59.440862 112.309712 
L 59.53703 112.209375 
L 59.622243 111.975255 
L 59.643742 111.975255 
L 59.67429 111.874918 
L 59.766985 111.373232 
L 59.847977 111.272895 
L 59.952606 110.938438 
L 59.958216 110.938438 
L 59.98693 110.838101 
L 60.090276 110.403307 
L 60.09049 110.403307 
L 60.144567 110.30297 
L 60.251832 109.968513 
L 60.293103 109.868175 
L 60.399139 109.533718 
L 60.438255 109.433381 
L 60.542064 109.266153 
L 60.547123 109.266153 
L 60.588625 109.165816 
L 60.677722 108.864804 
L 60.692523 108.864804 
L 60.719135 108.764467 
L 60.826988 108.363119 
L 60.827433 108.363119 
L 60.927715 108.262782 
L 61.034553 107.928324 
L 61.070836 107.827987 
L 61.176231 107.526976 
L 61.176748 107.526976 
L 61.223041 107.426639 
L 61.314543 107.02529 
L 61.320438 107.02529 
L 61.370562 106.924953 
L 61.478717 106.657388 
L 61.607357 106.557051 
L 61.698413 106.322931 
L 61.708227 106.322931 
L 61.755946 106.222594 
L 61.851544 105.754354 
L 61.857476 105.754354 
L 61.906174 105.654017 
L 61.998192 105.353005 
L 62.013154 105.353005 
L 62.075889 105.252668 
L 62.159552 104.918211 
L 62.184454 104.918211 
L 62.245746 104.817874 
L 62.351977 104.416525 
L 62.353919 104.416525 
L 62.448929 104.316188 
L 62.509882 104.082068 
L 62.557494 104.082068 
L 62.708844 103.981731 
L 62.808218 103.580383 
L 62.817552 103.580383 
L 62.860604 103.480046 
L 62.954456 103.145589 
L 62.9668 103.145589 
L 63.105718 103.045252 
L 63.214283 102.677349 
L 63.268966 102.577012 
L 63.370567 102.276 
L 63.456065 102.175663 
L 63.547175 101.974989 
L 63.551432 101.974989 
L 63.628291 101.874652 
L 63.734559 101.573641 
L 63.839205 101.473303 
L 63.940984 101.339521 
L 63.944101 101.339521 
L 63.999568 101.239183 
L 64.109345 100.904726 
L 64.16141 100.804389 
L 64.269102 100.536824 
L 64.324658 100.436487 
L 64.428771 100.168921 
L 64.434684 100.168921 
L 64.500767 100.068584 
L 64.598236 99.901355 
L 64.606875 99.901355 
L 64.741659 99.801018 
L 64.851169 99.600344 
L 64.852683 99.600344 
L 64.894862 99.500007 
L 65.002786 99.132104 
L 65.092791 99.031767 
L 65.155828 98.831093 
L 65.190455 98.831093 
L 65.265017 98.730756 
L 65.370661 98.46319 
L 65.374188 98.46319 
L 65.456213 98.362853 
L 65.549905 98.028396 
L 65.556442 98.028396 
L 65.595415 97.928059 
L 65.705174 97.693939 
L 65.778186 97.593602 
L 65.843164 97.359482 
L 65.872252 97.359482 
L 65.935485 97.259145 
L 66.040755 97.091916 
L 66.046419 97.091916 
L 66.170873 96.991579 
L 66.279135 96.82435 
L 66.324966 96.724013 
L 66.420297 96.456448 
L 66.431536 96.456448 
L 66.503711 96.356111 
L 66.612722 95.988208 
L 66.644659 95.887871 
L 66.755023 95.553414 
L 66.807641 95.453076 
L 66.917809 95.152065 
L 67.014333 95.051728 
L 67.118962 94.784162 
L 67.205743 94.683825 
L 67.315412 94.382814 
L 67.411652 94.282477 
L 67.484628 93.981465 
L 67.514499 93.981465 
L 67.589364 93.881128 
L 67.672778 93.647008 
L 67.690715 93.647008 
L 67.765277 93.546671 
L 67.857009 93.412888 
L 67.869959 93.412888 
L 67.958949 93.312551 
L 68.017194 93.212214 
L 68.069972 93.212214 
L 68.159407 93.111877 
L 68.262896 92.877757 
L 68.406319 92.77742 
L 68.510485 92.576746 
L 68.564616 92.476409 
L 68.651219 92.376072 
L 68.673163 92.376072 
L 68.760532 92.275735 
L 68.869311 92.141952 
L 68.870914 92.141952 
L 68.947222 92.041615 
L 69.041608 91.907832 
L 69.050978 91.907832 
L 69.108814 91.807495 
L 69.183981 91.640266 
L 69.215348 91.640266 
L 69.302628 91.539929 
L 69.404995 91.339255 
L 69.511494 91.238918 
L 69.615125 90.871015 
L 69.619257 90.871015 
L 69.794369 90.770678 
L 69.891677 90.503112 
L 69.962747 90.402775 
L 69.974806 90.335884 
L 70.049137 90.335884 
L 70.182817 90.235547 
L 70.264094 90.068318 
L 70.293591 90.068318 
L 70.350251 89.967981 
L 70.457979 89.800752 
L 70.461114 89.800752 
L 70.643814 89.700415 
L 70.689092 89.499741 
L 70.743295 89.499741 
L 70.844717 89.399404 
L 70.928381 89.131838 
L 70.944448 89.131838 
L 71.030142 89.031501 
L 71.129997 88.864273 
L 71.139954 88.864273 
L 71.242089 88.763935 
L 71.324774 88.596707 
L 71.473826 88.49637 
L 71.576014 88.362587 
L 71.678292 88.26225 
L 71.779732 88.161913 
L 71.782386 88.161913 
L 71.894728 88.061576 
L 71.98785 87.894347 
L 72.004077 87.894347 
L 72.066811 87.79401 
L 72.158954 87.492999 
L 72.177247 87.492999 
L 72.272595 87.392662 
L 72.371203 87.32577 
L 72.470275 87.225433 
L 72.573176 87.09165 
L 72.610083 86.991313 
L 72.69225 86.824085 
L 72.711523 86.824085 
L 73.013992 86.723747 
L 73.087039 86.556519 
L 73.121435 86.556519 
L 73.242842 86.456182 
L 73.301391 86.255508 
L 73.34854 86.255508 
L 73.388297 86.15517 
L 73.462182 85.954496 
L 73.606692 85.854159 
L 73.679579 85.720376 
L 73.702486 85.720376 
L 73.835774 85.620039 
L 73.946513 85.352474 
L 74.013308 85.252136 
L 74.109245 85.185245 
L 74.117367 85.185245 
L 74.173689 85.084908 
L 74.272066 84.917679 
L 74.283679 84.917679 
L 74.436401 84.817342 
L 74.475712 84.683559 
L 74.546249 84.683559 
L 74.640315 84.583222 
L 74.679608 84.482885 
L 74.750643 84.482885 
L 74.796011 84.382548 
L 74.892179 84.148428 
L 74.901245 84.148428 
L 75.03017 84.048091 
L 75.132821 83.813971 
L 75.179792 83.713634 
L 75.268639 83.579851 
L 75.272772 83.579851 
L 75.381693 83.479514 
L 75.422982 83.379177 
L 75.490045 83.379177 
L 75.62385 83.27884 
L 75.731204 83.111611 
L 75.856228 83.011274 
L 75.957151 82.877491 
L 75.960732 82.877491 
L 76.039871 82.777154 
L 76.148383 82.676817 
L 76.296616 82.57648 
L 76.388242 82.442697 
L 76.503023 82.34236 
L 76.61394 82.141686 
L 76.746872 82.041349 
L 76.857646 81.807229 
L 76.943483 81.706892 
L 77.029997 81.573109 
L 77.052351 81.573109 
L 77.151476 81.472772 
L 77.256443 81.338989 
L 77.259008 81.338989 
L 77.449295 81.238652 
L 77.551484 81.037978 
L 77.552428 81.037978 
L 77.722997 80.93764 
L 77.798948 80.837303 
L 77.833362 80.837303 
L 77.954182 80.736966 
L 78.056228 80.569738 
L 78.123682 80.469401 
L 78.233833 80.268726 
L 78.380374 80.168389 
L 78.426774 80.034606 
L 78.475384 80.034606 
L 78.630261 79.934269 
L 78.700263 79.833932 
L 78.718752 79.833932 
L 78.757172 79.733595 
L 78.773132 79.633258 
L 78.862549 79.633258 
L 78.961175 79.532921 
L 79.044839 79.399138 
L 79.055277 79.399138 
L 79.212398 79.298801 
L 79.275934 79.198464 
L 79.319343 79.198464 
L 79.443298 79.098127 
L 79.497749 78.964344 
L 79.516595 78.964344 
L 79.666003 78.864007 
L 79.752036 78.696778 
L 79.762937 78.696778 
L 79.96108 78.596441 
L 80.068897 78.395767 
L 80.249459 78.29543 
L 80.32028 78.195093 
L 80.345075 78.195093 
L 80.501163 78.094756 
L 80.596244 78.027864 
L 80.756411 77.927527 
L 80.816581 77.793744 
L 80.865796 77.793744 
L 81.105031 77.693407 
L 81.159394 77.59307 
L 81.187039 77.59307 
L 81.289619 77.492733 
L 81.382474 77.425841 
L 81.558957 77.325504 
L 81.637722 77.158276 
L 81.667772 77.158276 
L 81.97993 77.057939 
L 82.011921 76.991047 
L 82.03456 76.991047 
L 82.237957 76.89071 
L 82.346807 76.690036 
L 82.48218 76.589699 
L 82.554337 76.455916 
L 82.563902 76.455916 
L 82.742345 76.355579 
L 82.823711 76.255242 
L 82.823853 76.255242 
L 83.084303 76.154905 
L 83.191301 76.054568 
L 83.270369 75.95423 
L 83.353427 75.887339 
L 83.380163 75.887339 
L 83.485985 75.787002 
L 83.58324 75.552882 
L 83.699322 75.452545 
L 83.77465 75.285316 
L 83.808261 75.285316 
L 83.888238 75.184979 
L 83.998602 74.984305 
L 84.170614 74.883968 
L 84.261545 74.817076 
L 84.379284 74.716739 
L 84.446293 74.616402 
L 84.477037 74.616402 
L 84.608883 74.516065 
L 84.677976 74.315391 
L 84.692956 74.315391 
L 84.988443 74.215054 
L 85.002853 74.148162 
L 85.09113 74.148162 
L 85.289932 74.047825 
L 85.395647 73.813705 
L 85.638267 73.713368 
L 85.638267 73.679922 
L 85.729465 73.679922 
L 85.898182 73.579585 
L 85.995009 73.378911 
L 86.007353 73.378911 
L 86.148176 73.278574 
L 86.240033 73.144791 
L 86.253161 73.144791 
L 86.455721 73.044454 
L 86.493661 72.977563 
L 86.5106 72.977563 
L 86.802756 72.877226 
L 86.911677 72.709997 
L 87.065663 72.60966 
L 87.110283 72.509323 
L 87.173944 72.509323 
L 87.2479 72.408986 
L 87.306912 72.342094 
L 87.331688 72.342094 
L 87.483448 72.241757 
L 87.561376 72.107974 
L 87.581023 72.107974 
L 87.68168 72.007637 
L 87.784296 71.873854 
L 87.896762 71.773517 
L 88.006164 71.539397 
L 88.146453 71.43906 
L 88.146453 71.405615 
L 88.25525 71.405615 
L 88.523572 71.305277 
L 88.577419 71.238386 
L 88.627863 71.238386 
L 88.748416 71.138049 
L 88.829746 71.071157 
L 88.855039 71.071157 
L 89.154907 70.97082 
L 89.260302 70.803592 
L 89.330927 70.703255 
L 89.431513 70.602918 
L 89.435788 70.602918 
L 89.748106 70.502581 
L 89.850099 70.335352 
L 90.082245 70.235015 
L 90.185591 70.034341 
L 90.359224 69.934004 
L 90.428318 69.833666 
L 90.461627 69.833666 
L 90.757059 69.733329 
L 90.845764 69.599546 
L 90.86094 69.599546 
L 91.026273 69.499209 
L 91.055128 69.398872 
L 91.125308 69.398872 
L 91.360964 69.298535 
L 91.406367 69.231644 
L 91.456009 69.231644 
L 91.620594 69.131307 
L 91.729337 68.997524 
L 91.837208 68.897187 
L 91.888168 68.830295 
L 92.115897 68.729958 
L 92.205581 68.629621 
L 92.39651 68.529284 
L 92.479462 68.462392 
L 92.489971 68.462392 
L 92.759148 68.362055 
L 92.759148 68.32861 
L 92.857578 68.32861 
L 92.995872 68.228273 
L 93.073355 68.127935 
L 93.089618 68.127935 
L 93.199804 68.027598 
L 93.272121 67.960707 
L 93.807787 67.86037 
L 93.917421 67.760033 
L 94.112821 67.659696 
L 94.215775 67.559358 
L 94.21777 67.559358 
L 94.332765 67.459021 
L 94.408271 67.325239 
L 94.43091 67.325239 
L 94.693551 67.224901 
L 94.779958 67.124564 
L 94.796862 67.124564 
L 94.944649 67.024227 
L 95.043952 66.890444 
L 95.044148 66.890444 
L 95.227845 66.790107 
L 95.307929 66.68977 
L 95.338744 66.68977 
L 95.584302 66.589433 
L 95.683819 66.489096 
L 95.902606 66.388759 
L 95.97186 66.321867 
L 96.011064 66.321867 
L 96.333981 66.22153 
L 96.418002 66.054302 
L 96.425322 66.054302 
L 96.724318 65.953965 
L 96.83429 65.75329 
L 96.984874 65.652953 
L 97.049372 65.552616 
L 97.065777 65.552616 
L 97.270403 65.452279 
L 97.315611 65.385388 
L 97.363899 65.385388 
L 97.601728 65.285051 
L 97.703542 65.151268 
L 97.708797 65.151268 
L 98.009021 65.050931 
L 98.112581 64.917148 
L 98.113881 64.917148 
L 98.223996 64.816811 
L 98.32166 64.716474 
L 98.457229 64.616136 
L 98.516864 64.549245 
L 98.562784 64.549245 
L 98.849578 64.448908 
L 98.958802 64.281679 
L 99.298819 64.181342 
L 99.401684 64.081005 
L 99.40603 64.081005 
L 99.574462 63.980668 
L 99.6414 63.913777 
L 99.965048 63.813439 
L 100.061198 63.679657 
L 100.423551 63.57932 
L 100.472196 63.478982 
L 101.09922 63.378645 
L 101.190436 63.278308 
L 101.309244 63.177971 
L 101.385783 63.077634 
L 101.398091 63.077634 
L 101.706936 62.977297 
L 101.751698 62.843514 
L 102.106713 62.743177 
L 102.134144 62.609394 
L 102.20101 62.609394 
L 102.33022 62.509057 
L 102.384797 62.40872 
L 102.441315 62.40872 
L 102.805627 62.308383 
L 102.805627 62.274937 
L 102.910826 62.274937 
L 103.091263 62.1746 
L 103.153143 62.007371 
L 103.656907 61.907034 
L 103.656907 61.873589 
L 103.764083 61.873589 
L 103.968068 61.773251 
L 104.074086 61.572577 
L 104.473862 61.47224 
L 104.473862 61.438794 
L 104.543989 61.438794 
L 105.051298 61.338457 
L 105.11934 61.271566 
L 105.154929 61.271566 
L 105.442382 61.171229 
L 105.521913 61.004 
L 105.543092 61.004 
L 105.765406 60.903663 
L 105.824685 60.803326 
L 105.847342 60.803326 
L 106.060803 60.702989 
L 106.111354 60.569206 
L 106.159055 60.569206 
L 106.477412 60.468869 
L 106.496685 60.368532 
L 106.579244 60.368532 
L 106.893754 60.268195 
L 107.000271 60.134412 
L 107.70932 60.034075 
L 107.811633 59.900292 
L 107.986299 59.799955 
L 107.986299 59.766509 
L 108.036922 59.766509 
L 108.180737 59.666172 
L 108.25651 59.599281 
L 108.525492 59.498944 
L 108.614232 59.398606 
L 108.629978 59.398606 
L 108.734856 59.298269 
L 108.830258 59.131041 
L 109.219116 59.030704 
L 109.278929 58.896921 
L 109.301836 58.896921 
L 109.537705 58.796584 
L 109.607279 58.729692 
L 109.646911 58.729692 
L 109.8634 58.629355 
L 109.950751 58.529018 
L 109.973622 58.529018 
L 110.439802 58.428681 
L 110.439802 58.395235 
L 110.479898 58.395235 
L 111.006639 58.294898 
L 111.098657 58.12767 
L 111.327775 58.027333 
L 111.37569 57.926995 
L 111.893116 57.826658 
L 111.96367 57.726321 
L 111.967642 57.726321 
L 112.304648 57.625984 
L 112.392516 57.492201 
L 112.408493 57.492201 
L 112.492799 57.391864 
L 112.593847 57.258081 
L 112.596287 57.258081 
L 112.791669 57.157744 
L 112.791669 57.124298 
L 112.808038 57.124298 
L 113.125487 57.023961 
L 113.148251 56.890179 
L 113.645442 56.789841 
L 113.722908 56.622613 
L 113.750427 56.622613 
L 113.945079 56.522276 
L 113.989413 56.455384 
L 114.384167 56.355047 
L 114.387747 56.288156 
L 114.484681 56.288156 
L 114.661556 56.187819 
L 114.741319 56.120927 
L 115.274046 56.02059 
L 115.298092 55.953699 
L 115.561089 55.853362 
L 115.630022 55.753025 
L 115.904187 55.652687 
L 115.909495 55.585796 
L 115.977983 55.585796 
L 116.590918 55.485459 
L 116.674029 55.418568 
L 116.885603 55.31823 
L 116.956014 55.184448 
L 116.972811 55.184448 
L 117.469415 55.08411 
L 117.543923 54.883436 
L 117.775606 54.783099 
L 117.817625 54.649316 
L 117.885578 54.649316 
L 118.31291 54.548979 
L 118.31291 54.515533 
L 118.389325 54.515533 
L 118.898913 54.415196 
L 118.898913 54.381751 
L 118.963874 54.381751 
L 119.304069 54.281414 
L 119.304069 54.247968 
L 119.410728 54.247968 
L 119.706713 54.147631 
L 119.784695 54.080739 
L 119.817078 54.080739 
L 120.217549 53.980402 
L 120.30864 53.846619 
L 120.325188 53.846619 
L 120.579617 53.746282 
L 120.654001 53.645945 
L 120.675108 53.645945 
L 120.960993 53.545608 
L 121.010298 53.411825 
L 121.343528 53.311488 
L 121.419889 53.14426 
L 121.426604 53.14426 
L 121.854524 53.043922 
L 121.945989 52.977031 
L 122.414628 52.876694 
L 122.414628 52.843248 
L 122.522676 52.843248 
L 122.794526 52.742911 
L 122.812819 52.67602 
L 122.892867 52.67602 
L 123.524665 52.575683 
L 123.572793 52.508791 
L 123.632019 52.508791 
L 123.791865 52.408454 
L 123.873018 52.308117 
L 123.879038 52.308117 
L 124.638193 52.20778 
L 124.638193 52.174334 
L 124.709638 52.174334 
L 124.940555 52.073997 
L 125.037257 51.940214 
L 125.492679 51.839877 
L 125.602527 51.639203 
L 125.837042 51.538866 
L 125.902911 51.438529 
L 125.942633 51.438529 
L 126.167583 51.338191 
L 126.253473 51.237854 
L 126.257712 51.237854 
L 126.726404 51.137517 
L 126.726404 51.104072 
L 126.801945 51.104072 
L 127.04241 51.003734 
L 127.126127 50.936843 
L 127.364757 50.836506 
L 127.364757 50.80306 
L 127.455082 50.80306 
L 127.788455 50.702723 
L 127.794333 50.635832 
L 127.795313 50.635832 
L 128.268725 50.535495 
L 128.268725 50.502049 
L 128.322749 50.502049 
L 128.637865 50.401712 
L 128.682039 50.33482 
L 128.747409 50.33482 
L 129.054278 50.234483 
L 129.110725 50.167592 
L 129.755098 50.067255 
L 129.755098 50.033809 
L 129.856378 50.033809 
L 130.244559 49.933472 
L 130.244559 49.900026 
L 130.342633 49.900026 
L 130.869463 49.799689 
L 130.869463 49.766243 
L 130.973683 49.766243 
L 131.290971 49.665906 
L 131.395101 49.532123 
L 131.790763 49.431786 
L 131.845108 49.364895 
L 131.872645 49.364895 
L 132.039688 49.264558 
L 132.085234 49.197666 
L 132.451791 49.097329 
L 132.535597 49.030438 
L 132.541012 49.030438 
L 132.895866 48.930101 
L 132.895866 48.896655 
L 133.001047 48.896655 
L 134.376913 48.796318 
L 134.46991 48.729427 
L 134.740602 48.629089 
L 134.775282 48.562198 
L 134.837055 48.562198 
L 135.154682 48.461861 
L 135.167133 48.394969 
L 135.198215 48.394969 
L 135.933145 48.294632 
L 135.933145 48.261187 
L 135.997732 48.261187 
L 136.359213 48.16085 
L 136.423461 48.093958 
L 137.018335 47.993621 
L 137.091436 47.893284 
L 137.527282 47.792947 
L 137.537898 47.726055 
L 137.628758 47.726055 
L 137.999233 47.625718 
L 137.999233 47.592273 
L 138.076841 47.592273 
L 138.629339 47.491935 
L 138.629339 47.45849 
L 138.688351 47.45849 
L 138.890466 47.358153 
L 138.975234 47.291261 
L 139.3085 47.190924 
L 139.315144 47.124033 
L 139.402904 47.124033 
L 139.993111 47.023696 
L 139.993111 46.99025 
L 140.060192 46.99025 
L 140.80011 46.889913 
L 140.898985 46.75613 
L 140.906092 46.75613 
L 141.546262 46.655793 
L 141.636908 46.52201 
L 141.779477 46.421673 
L 141.886635 46.28789 
L 142.689412 46.187553 
L 142.789587 46.020324 
L 143.359702 45.919987 
L 143.462389 45.786204 
L 144.461154 45.685867 
L 144.461154 45.652422 
L 144.52941 45.652422 
L 145.280906 45.552085 
L 145.355289 45.485193 
L 145.699314 45.384856 
L 145.744379 45.317965 
L 146.812842 45.217627 
L 146.876396 45.150736 
L 146.913766 45.150736 
L 147.346531 45.050399 
L 147.346531 45.016953 
L 147.412293 45.016953 
L 147.638775 44.916616 
L 147.673188 44.816279 
L 147.729991 44.816279 
L 148.311844 44.715942 
L 148.351814 44.64905 
L 148.399569 44.64905 
L 149.118379 44.548713 
L 149.221352 44.481822 
L 150.109413 44.381485 
L 150.151379 44.314593 
L 150.884493 44.214256 
L 150.884493 44.180811 
L 150.900826 44.180811 
L 151.465633 44.080473 
L 151.52411 43.980136 
L 151.554996 43.980136 
L 152.678108 43.879799 
L 152.75413 43.812908 
L 153.90884 43.712571 
L 153.962615 43.645679 
L 154.568871 43.545342 
L 154.588357 43.478451 
L 154.654725 43.478451 
L 155.079938 43.378114 
L 155.098712 43.311222 
L 155.176515 43.311222 
L 155.957811 43.210885 
L 156.066412 43.077102 
L 156.404398 42.976765 
L 156.509721 42.876428 
L 156.963023 42.776091 
L 156.963023 42.742645 
L 157.063466 42.742645 
L 158.464145 42.642308 
L 158.50025 42.575417 
L 159.082708 42.47508 
L 159.082708 42.441634 
L 159.172713 42.441634 
L 160.005255 42.341297 
L 160.04168 42.274405 
L 160.089399 42.274405 
L 161.085118 42.174068 
L 161.14942 42.073731 
L 161.833639 41.973394 
L 161.833639 41.939948 
L 161.901129 41.939948 
L 162.065376 41.839611 
L 162.065376 41.806166 
L 162.153172 41.806166 
L 163.016778 41.705828 
L 163.016778 41.672383 
L 163.799267 41.572046 
L 163.89392 41.505154 
L 165.239239 41.404817 
L 165.239239 41.371371 
L 165.279013 41.371371 
L 166.307827 41.271034 
L 166.307827 41.237589 
L 166.760417 41.137251 
L 166.761966 41.07036 
L 166.800298 41.07036 
L 167.700918 40.970023 
L 167.792686 40.869686 
L 168.196399 40.769349 
L 168.196399 40.735903 
L 169.061287 40.635566 
L 169.122971 40.568674 
L 169.361155 40.468337 
L 169.421111 40.401446 
L 169.763675 40.301109 
L 169.826017 40.234217 
L 170.639375 40.13388 
L 170.639375 40.100435 
L 170.732123 40.100435 
L 171.599754 40.000097 
L 171.599754 39.966652 
L 171.63235 39.966652 
L 172.249542 39.866315 
L 172.249542 39.832869 
L 172.701135 39.732532 
L 172.701135 39.699086 
L 172.785066 39.699086 
L 173.439556 39.598749 
L 173.483071 39.531858 
L 173.508294 39.531858 
L 174.216737 39.43152 
L 174.30774 39.364629 
L 175.224711 39.264292 
L 175.241347 39.197401 
L 175.299753 39.197401 
L 175.533129 39.097063 
L 175.533129 39.063618 
L 175.61852 39.063618 
L 176.376393 38.963281 
L 176.423559 38.896389 
L 176.473238 38.896389 
L 176.99175 38.796052 
L 176.99175 38.762606 
L 176.992142 38.762606 
L 178.091314 38.662269 
L 178.091314 38.628824 
L 178.19083 38.628824 
L 178.903229 38.528486 
L 179.003974 38.461595 
L 179.936299 38.361258 
L 180.042691 38.260921 
L 180.957543 38.160584 
L 180.970991 38.093692 
L 181.031161 38.093692 
L 181.680557 37.993355 
L 181.680557 37.959909 
L 182.428882 37.859572 
L 182.428882 37.826127 
L 182.53148 37.826127 
L 184.594149 37.72579 
L 184.665451 37.658898 
L 185.299208 37.558561 
L 185.321847 37.49167 
L 185.643482 37.391332 
L 185.715621 37.324441 
L 185.752777 37.324441 
L 186.000206 37.224104 
L 186.082677 37.157213 
L 186.097247 37.157213 
L 186.534661 37.056875 
L 186.534661 37.02343 
L 187.990521 36.923093 
L 187.990521 36.889647 
L 188.066758 36.889647 
L 188.743763 36.78931 
L 188.743763 36.755864 
L 188.840483 36.755864 
L 189.326845 36.655527 
L 189.326845 36.622081 
L 189.410847 36.622081 
L 190.196061 36.521744 
L 190.196061 36.488298 
L 190.271763 36.488298 
L 192.54091 36.387961 
L 192.609469 36.32107 
L 193.665909 36.220733 
L 193.730176 36.153841 
L 194.74905 36.053504 
L 194.770923 35.986613 
L 194.811125 35.986613 
L 196.100781 35.886276 
L 196.202168 35.819384 
L 197.407821 35.719047 
L 197.407821 35.685602 
L 197.472033 35.685602 
L 197.850756 35.585264 
L 197.850756 35.551819 
L 197.919475 35.551819 
L 198.630858 35.451482 
L 198.630858 35.418036 
L 198.716642 35.418036 
L 199.350648 35.317699 
L 199.350648 35.284253 
L 199.399169 35.284253 
L 201.455175 35.183916 
L 201.455175 35.15047 
L 201.476995 35.15047 
L 203.003089 35.050133 
L 203.051503 34.983242 
L 205.162032 34.882905 
L 205.162032 34.849459 
L 206.545682 34.749122 
L 206.556797 34.68223 
L 207.808512 34.581893 
L 207.864852 34.481556 
L 208.973589 34.381219 
L 208.973589 34.347773 
L 209.028914 34.347773 
L 209.517609 34.247436 
L 209.53168 34.180545 
L 211.007776 34.080208 
L 211.040853 34.013316 
L 211.770867 33.912979 
L 211.770867 33.879533 
L 213.789379 33.779196 
L 213.844864 33.712305 
L 214.372015 33.611968 
L 214.372015 33.578522 
L 214.40951 33.578522 
L 216.047162 33.478185 
L 216.122044 33.377848 
L 216.129276 33.377848 
L 217.034473 33.277511 
L 217.034473 33.244065 
L 217.109213 33.244065 
L 217.471263 33.143728 
L 217.471263 33.110282 
L 217.575179 33.110282 
L 219.122399 33.009945 
L 219.122399 32.976499 
L 219.222753 32.976499 
L 219.875337 32.876162 
L 219.879025 32.809271 
L 220.639516 32.708934 
L 220.7476 32.642042 
L 221.858724 32.541705 
L 221.858724 32.50826 
L 221.940606 32.50826 
L 222.471106 32.407922 
L 222.471106 32.374477 
L 222.528675 32.374477 
L 223.639799 32.27414 
L 223.639799 32.240694 
L 223.678576 32.240694 
L 224.793155 32.140357 
L 224.793155 32.106911 
L 224.811199 32.106911 
L 226.257976 32.006574 
L 226.257976 31.973128 
L 226.33569 31.973128 
L 227.006265 31.872791 
L 227.006265 31.839345 
L 227.066755 31.839345 
L 228.204205 31.739008 
L 228.307748 31.672117 
L 229.463847 31.57178 
L 229.463847 31.538334 
L 229.54272 31.538334 
L 230.779811 31.437997 
L 230.779811 31.404551 
L 233.000277 31.304214 
L 233.000277 31.270768 
L 233.105797 31.270768 
L 234.142483 31.170431 
L 234.142483 31.136986 
L 234.187138 31.136986 
L 235.094562 31.036649 
L 235.128779 30.936311 
L 235.169302 30.936311 
L 236.078792 30.835974 
L 236.078792 30.802529 
L 236.109714 30.802529 
L 238.091176 30.702191 
L 238.133623 30.601854 
L 238.557107 30.501517 
L 238.613394 30.434626 
L 238.66325 30.434626 
L 239.978537 30.334289 
L 239.978537 30.300843 
L 240.995844 30.200506 
L 241.089287 30.133614 
L 241.098531 30.133614 
L 242.660374 30.033277 
L 242.73344 29.966386 
L 243.38289 29.866049 
L 243.38289 29.832603 
L 244.821187 29.732266 
L 244.821187 29.69882 
L 244.857186 29.69882 
L 245.634955 29.598483 
L 245.732369 29.531592 
L 246.797075 29.431255 
L 246.904464 29.330918 
L 248.260381 29.23058 
L 248.260381 29.197135 
L 248.334462 29.197135 
L 249.665103 29.096798 
L 249.665103 29.063352 
L 249.751278 29.063352 
L 250.936572 28.963015 
L 250.985163 28.896123 
L 251.047417 28.896123 
L 252.848086 28.795786 
L 252.9271 28.728895 
L 252.953926 28.728895 
L 255.031271 28.628558 
L 255.031271 28.595112 
L 255.125426 28.595112 
L 256.430044 28.494775 
L 256.430044 28.461329 
L 256.506102 28.461329 
L 260.187434 28.360992 
L 260.276459 28.294101 
L 262.309007 28.193764 
L 262.309007 28.160318 
L 262.316363 28.160318 
L 263.815739 28.059981 
L 263.815739 28.026535 
L 263.892153 28.026535 
L 266.704661 27.926198 
L 266.704661 27.892752 
L 266.801506 27.892752 
L 268.796202 27.792415 
L 268.796202 27.758969 
L 268.903093 27.758969 
L 271.844294 27.658632 
L 271.848693 27.591741 
L 271.955246 27.591741 
L 273.20306 27.491404 
L 273.20306 27.457958 
L 273.308188 27.457958 
L 276.121443 27.357621 
L 276.153594 27.29073 
L 276.231309 27.29073 
L 278.610286 27.190392 
L 278.610286 27.156947 
L 278.721024 27.156947 
L 279.358896 27.05661 
L 279.358896 27.023164 
L 279.465431 27.023164 
L 280.735955 26.922827 
L 280.735955 26.889381 
L 280.846498 26.889381 
L 282.023758 26.789044 
L 282.023758 26.789044 
" clip-path="url(#p4e6f88117f)" style="fill: none; stroke: #1f77b4; stroke-width: 1.5; stroke-linecap: round"/>
   </g>
   <g id="patch_3">
    <path d="M 35.655938 265.022801 
L 35.655938 19.642031 
" style="fill: none"/>
   </g>
   <g id="patch_4">
    <path d="M 289.19952 265.022801 
L 289.19952 19.642031 
" style="fill: none"/>
   </g>
   <g id="patch_5">
    <path d="M 35.655938 265.022801 
L 289.19952 265.022801 
" style="fill: none"/>
   </g>
   <g id="patch_6">
    <path d="M 35.655938 19.642031 
L 289.19952 19.642031 
" style="fill: none"/>
   </g>
   <g id="text_15">
    <!-- Model 0: Precision-Recall Curve -->
    <g style="fill: #333333" transform="translate(93.910307 13.642031) scale(0.09 -0.09)">
     <defs>
      <path id="Arial-BoldMT-4d" d="M 453 0 
L 453 4581 
L 1838 4581 
L 2669 1456 
L 3491 4581 
L 4878 4581 
L 4878 0 
L 4019 0 
L 4019 3606 
L 3109 0 
L 2219 0 
L 1313 3606 
L 1313 0 
L 453 0 
z
" transform="scale(0.015625)"/>
      <path id="Arial-BoldMT-64" d="M 3503 0 
L 2688 0 
L 2688 488 
Q 2484 203 2207 64 
Q 1931 -75 1650 -75 
Q 1078 -75 670 386 
Q 263 847 263 1672 
Q 263 2516 659 2955 
Q 1056 3394 1663 3394 
Q 2219 3394 2625 2931 
L 2625 4581 
L 3503 4581 
L 3503 0 
z
M 1159 1731 
Q 1159 1200 1306 963 
Q 1519 619 1900 619 
Q 2203 619 2415 876 
Q 2628 1134 2628 1647 
Q 2628 2219 2422 2470 
Q 2216 2722 1894 2722 
Q 1581 2722 1370 2473 
Q 1159 2225 1159 1731 
z
" transform="scale(0.015625)"/>
      <path id="Arial-BoldMT-30" d="M 1756 4600 
Q 2422 4600 2797 4125 
Q 3244 3563 3244 2259 
Q 3244 959 2794 391 
Q 2422 -78 1756 -78 
Q 1088 -78 678 436 
Q 269 950 269 2269 
Q 269 3563 719 4131 
Q 1091 4600 1756 4600 
z
M 1756 3872 
Q 1597 3872 1472 3770 
Q 1347 3669 1278 3406 
Q 1188 3066 1188 2259 
Q 1188 1453 1269 1151 
Q 1350 850 1473 750 
Q 1597 650 1756 650 
Q 1916 650 2041 751 
Q 2166 853 2234 1116 
Q 2325 1453 2325 2259 
Q 2325 3066 2244 3367 
Q 2163 3669 2039 3770 
Q 1916 3872 1756 3872 
z
" transform="scale(0.015625)"/>
      <path id="Arial-BoldMT-3a" d="M 628 2441 
L 628 3319 
L 1506 3319 
L 1506 2441 
L 628 2441 
z
M 628 0 
L 628 878 
L 1506 878 
L 1506 0 
L 628 0 
z
" transform="scale(0.015625)"/>
      <path id="Arial-BoldMT-2d" d="M 359 1222 
L 359 2100 
L 2084 2100 
L 2084 1222 
L 359 1222 
z
" transform="scale(0.015625)"/>
      <path id="Arial-BoldMT-43" d="M 3397 1684 
L 4294 1400 
Q 4088 650 3608 286 
Q 3128 -78 2391 -78 
Q 1478 -78 890 545 
Q 303 1169 303 2250 
Q 303 3394 893 4026 
Q 1484 4659 2447 4659 
Q 3288 4659 3813 4163 
Q 4125 3869 4281 3319 
L 3366 3100 
Q 3284 3456 3026 3662 
Q 2769 3869 2400 3869 
Q 1891 3869 1573 3503 
Q 1256 3138 1256 2319 
Q 1256 1450 1568 1081 
Q 1881 713 2381 713 
Q 2750 713 3015 947 
Q 3281 1181 3397 1684 
z
" transform="scale(0.015625)"/>
      <path id="Arial-BoldMT-75" d="M 2644 0 
L 2644 497 
Q 2463 231 2167 78 
Q 1872 -75 1544 -75 
Q 1209 -75 943 72 
Q 678 219 559 484 
Q 441 750 441 1219 
L 441 3319 
L 1319 3319 
L 1319 1794 
Q 1319 1094 1367 936 
Q 1416 778 1544 686 
Q 1672 594 1869 594 
Q 2094 594 2272 717 
Q 2450 841 2515 1023 
Q 2581 1206 2581 1919 
L 2581 3319 
L 3459 3319 
L 3459 0 
L 2644 0 
z
" transform="scale(0.015625)"/>
      <path id="Arial-BoldMT-76" d="M 1372 0 
L 34 3319 
L 956 3319 
L 1581 1625 
L 1763 1059 
Q 1834 1275 1853 1344 
Q 1897 1484 1947 1625 
L 2578 3319 
L 3481 3319 
L 2163 0 
L 1372 0 
z
" transform="scale(0.015625)"/>
     </defs>
     <use xlink:href="#Arial-BoldMT-4d"/>
     <use xlink:href="#Arial-BoldMT-6f" transform="translate(83.300781 0)"/>
     <use xlink:href="#Arial-BoldMT-64" transform="translate(144.384766 0)"/>
     <use xlink:href="#Arial-BoldMT-65" transform="translate(205.46875 0)"/>
     <use xlink:href="#Arial-BoldMT-6c" transform="translate(261.083984 0)"/>
     <use xlink:href="#Arial-BoldMT-20" transform="translate(288.867188 0)"/>
     <use xlink:href="#Arial-BoldMT-30" transform="translate(316.650391 0)"/>
     <use xlink:href="#Arial-BoldMT-3a" transform="translate(372.265625 0)"/>
     <use xlink:href="#Arial-BoldMT-20" transform="translate(405.566406 0)"/>
     <use xlink:href="#Arial-BoldMT-50" transform="translate(433.349609 0)"/>
     <use xlink:href="#Arial-BoldMT-72" transform="translate(500.048828 0)"/>
     <use xlink:href="#Arial-BoldMT-65" transform="translate(538.964844 0)"/>
     <use xlink:href="#Arial-BoldMT-63" transform="translate(594.580078 0)"/>
     <use xlink:href="#Arial-BoldMT-69" transform="translate(650.195312 0)"/>
     <use xlink:href="#Arial-BoldMT-73" transform="translate(677.978516 0)"/>
     <use xlink:href="#Arial-BoldMT-69" transform="translate(733.59375 0)"/>
     <use xlink:href="#Arial-BoldMT-6f" transform="translate(761.376953 0)"/>
     <use xlink:href="#Arial-BoldMT-6e" transform="translate(822.460938 0)"/>
     <use xlink:href="#Arial-BoldMT-2d" transform="translate(883.544922 0)"/>
     <use xlink:href="#Arial-BoldMT-52" transform="translate(916.845703 0)"/>
     <use xlink:href="#Arial-BoldMT-65" transform="translate(989.0625 0)"/>
     <use xlink:href="#Arial-BoldMT-63" transform="translate(1044.677734 0)"/>
     <use xlink:href="#Arial-BoldMT-61" transform="translate(1100.292969 0)"/>
     <use xlink:href="#Arial-BoldMT-6c" transform="translate(1155.908203 0)"/>
     <use xlink:href="#Arial-BoldMT-6c" transform="translate(1183.691406 0)"/>
     <use xlink:href="#Arial-BoldMT-20" transform="translate(1211.474609 0)"/>
     <use xlink:href="#Arial-BoldMT-43" transform="translate(1239.257812 0)"/>
     <use xlink:href="#Arial-BoldMT-75" transform="translate(1311.474609 0)"/>
     <use xlink:href="#Arial-BoldMT-72" transform="translate(1372.558594 0)"/>
     <use xlink:href="#Arial-BoldMT-76" transform="translate(1411.474609 0)"/>
     <use xlink:href="#Arial-BoldMT-65" transform="translate(1467.089844 0)"/>
    </g>
   </g>
   <g id="legend_1">
    <g id="patch_7">
     <path d="M 164.573426 260.522801 
L 282.89952 260.522801 
Q 284.69952 260.522801 284.69952 258.722801 
L 284.69952 246.89202 
Q 284.69952 245.09202 282.89952 245.09202 
L 164.573426 245.09202 
Q 162.773426 245.09202 162.773426 246.89202 
L 162.773426 258.722801 
Q 162.773426 260.522801 164.573426 260.522801 
z
" style="fill: #ffffff; opacity: 0.8; stroke: #cccccc; stroke-width: 0.75; stroke-linejoin: miter"/>
    </g>
    <g id="line2d_26">
     <path d="M 166.373426 251.984051 
L 175.373426 251.984051 
L 184.373426 251.984051 
" style="fill: none; stroke: #1f77b4; stroke-width: 1.5; stroke-linecap: round"/>
    </g>
    <g id="text_16">
     <!-- Precision-Recall curve -->
     <g style="fill: #333333" transform="translate(191.573426 255.134051) scale(0.09 -0.09)">
      <defs>
       <path id="ArialMT-50" d="M 494 0 
L 494 4581 
L 2222 4581 
Q 2678 4581 2919 4538 
Q 3256 4481 3484 4323 
Q 3713 4166 3852 3881 
Q 3991 3597 3991 3256 
Q 3991 2672 3619 2267 
Q 3247 1863 2275 1863 
L 1100 1863 
L 1100 0 
L 494 0 
z
M 1100 2403 
L 2284 2403 
Q 2872 2403 3119 2622 
Q 3366 2841 3366 3238 
Q 3366 3525 3220 3729 
Q 3075 3934 2838 4000 
Q 2684 4041 2272 4041 
L 1100 4041 
L 1100 2403 
z
" transform="scale(0.015625)"/>
       <path id="ArialMT-72" d="M 416 0 
L 416 3319 
L 922 3319 
L 922 2816 
Q 1116 3169 1280 3281 
Q 1444 3394 1641 3394 
Q 1925 3394 2219 3213 
L 2025 2691 
Q 1819 2813 1613 2813 
Q 1428 2813 1281 2702 
Q 1134 2591 1072 2394 
Q 978 2094 978 1738 
L 978 0 
L 416 0 
z
" transform="scale(0.015625)"/>
       <path id="ArialMT-65" d="M 2694 1069 
L 3275 997 
Q 3138 488 2766 206 
Q 2394 -75 1816 -75 
Q 1088 -75 661 373 
Q 234 822 234 1631 
Q 234 2469 665 2931 
Q 1097 3394 1784 3394 
Q 2450 3394 2872 2941 
Q 3294 2488 3294 1666 
Q 3294 1616 3291 1516 
L 816 1516 
Q 847 969 1125 678 
Q 1403 388 1819 388 
Q 2128 388 2347 550 
Q 2566 713 2694 1069 
z
M 847 1978 
L 2700 1978 
Q 2663 2397 2488 2606 
Q 2219 2931 1791 2931 
Q 1403 2931 1139 2672 
Q 875 2413 847 1978 
z
" transform="scale(0.015625)"/>
       <path id="ArialMT-63" d="M 2588 1216 
L 3141 1144 
Q 3050 572 2676 248 
Q 2303 -75 1759 -75 
Q 1078 -75 664 370 
Q 250 816 250 1647 
Q 250 2184 428 2587 
Q 606 2991 970 3192 
Q 1334 3394 1763 3394 
Q 2303 3394 2647 3120 
Q 2991 2847 3088 2344 
L 2541 2259 
Q 2463 2594 2264 2762 
Q 2066 2931 1784 2931 
Q 1359 2931 1093 2626 
Q 828 2322 828 1663 
Q 828 994 1084 691 
Q 1341 388 1753 388 
Q 2084 388 2306 591 
Q 2528 794 2588 1216 
z
" transform="scale(0.015625)"/>
       <path id="ArialMT-69" d="M 425 3934 
L 425 4581 
L 988 4581 
L 988 3934 
L 425 3934 
z
M 425 0 
L 425 3319 
L 988 3319 
L 988 0 
L 425 0 
z
" transform="scale(0.015625)"/>
       <path id="ArialMT-73" d="M 197 991 
L 753 1078 
Q 800 744 1014 566 
Q 1228 388 1613 388 
Q 2000 388 2187 545 
Q 2375 703 2375 916 
Q 2375 1106 2209 1216 
Q 2094 1291 1634 1406 
Q 1016 1563 777 1677 
Q 538 1791 414 1992 
Q 291 2194 291 2438 
Q 291 2659 392 2848 
Q 494 3038 669 3163 
Q 800 3259 1026 3326 
Q 1253 3394 1513 3394 
Q 1903 3394 2198 3281 
Q 2494 3169 2634 2976 
Q 2775 2784 2828 2463 
L 2278 2388 
Q 2241 2644 2061 2787 
Q 1881 2931 1553 2931 
Q 1166 2931 1000 2803 
Q 834 2675 834 2503 
Q 834 2394 903 2306 
Q 972 2216 1119 2156 
Q 1203 2125 1616 2013 
Q 2213 1853 2448 1751 
Q 2684 1650 2818 1456 
Q 2953 1263 2953 975 
Q 2953 694 2789 445 
Q 2625 197 2315 61 
Q 2006 -75 1616 -75 
Q 969 -75 630 194 
Q 291 463 197 991 
z
" transform="scale(0.015625)"/>
       <path id="ArialMT-6f" d="M 213 1659 
Q 213 2581 725 3025 
Q 1153 3394 1769 3394 
Q 2453 3394 2887 2945 
Q 3322 2497 3322 1706 
Q 3322 1066 3130 698 
Q 2938 331 2570 128 
Q 2203 -75 1769 -75 
Q 1072 -75 642 372 
Q 213 819 213 1659 
z
M 791 1659 
Q 791 1022 1069 705 
Q 1347 388 1769 388 
Q 2188 388 2466 706 
Q 2744 1025 2744 1678 
Q 2744 2294 2464 2611 
Q 2184 2928 1769 2928 
Q 1347 2928 1069 2612 
Q 791 2297 791 1659 
z
" transform="scale(0.015625)"/>
       <path id="ArialMT-6e" d="M 422 0 
L 422 3319 
L 928 3319 
L 928 2847 
Q 1294 3394 1984 3394 
Q 2284 3394 2536 3286 
Q 2788 3178 2913 3003 
Q 3038 2828 3088 2588 
Q 3119 2431 3119 2041 
L 3119 0 
L 2556 0 
L 2556 2019 
Q 2556 2363 2490 2533 
Q 2425 2703 2258 2804 
Q 2091 2906 1866 2906 
Q 1506 2906 1245 2678 
Q 984 2450 984 1813 
L 984 0 
L 422 0 
z
" transform="scale(0.015625)"/>
       <path id="ArialMT-2d" d="M 203 1375 
L 203 1941 
L 1931 1941 
L 1931 1375 
L 203 1375 
z
" transform="scale(0.015625)"/>
       <path id="ArialMT-52" d="M 503 0 
L 503 4581 
L 2534 4581 
Q 3147 4581 3465 4457 
Q 3784 4334 3975 4021 
Q 4166 3709 4166 3331 
Q 4166 2844 3850 2509 
Q 3534 2175 2875 2084 
Q 3116 1969 3241 1856 
Q 3506 1613 3744 1247 
L 4541 0 
L 3778 0 
L 3172 953 
Q 2906 1366 2734 1584 
Q 2563 1803 2427 1890 
Q 2291 1978 2150 2013 
Q 2047 2034 1813 2034 
L 1109 2034 
L 1109 0 
L 503 0 
z
M 1109 2559 
L 2413 2559 
Q 2828 2559 3062 2645 
Q 3297 2731 3419 2920 
Q 3541 3109 3541 3331 
Q 3541 3656 3305 3865 
Q 3069 4075 2559 4075 
L 1109 4075 
L 1109 2559 
z
" transform="scale(0.015625)"/>
       <path id="ArialMT-61" d="M 2588 409 
Q 2275 144 1986 34 
Q 1697 -75 1366 -75 
Q 819 -75 525 192 
Q 231 459 231 875 
Q 231 1119 342 1320 
Q 453 1522 633 1644 
Q 813 1766 1038 1828 
Q 1203 1872 1538 1913 
Q 2219 1994 2541 2106 
Q 2544 2222 2544 2253 
Q 2544 2597 2384 2738 
Q 2169 2928 1744 2928 
Q 1347 2928 1158 2789 
Q 969 2650 878 2297 
L 328 2372 
Q 403 2725 575 2942 
Q 747 3159 1072 3276 
Q 1397 3394 1825 3394 
Q 2250 3394 2515 3294 
Q 2781 3194 2906 3042 
Q 3031 2891 3081 2659 
Q 3109 2516 3109 2141 
L 3109 1391 
Q 3109 606 3145 398 
Q 3181 191 3288 0 
L 2700 0 
Q 2613 175 2588 409 
z
M 2541 1666 
Q 2234 1541 1622 1453 
Q 1275 1403 1131 1340 
Q 988 1278 909 1158 
Q 831 1038 831 891 
Q 831 666 1001 516 
Q 1172 366 1500 366 
Q 1825 366 2078 508 
Q 2331 650 2450 897 
Q 2541 1088 2541 1459 
L 2541 1666 
z
" transform="scale(0.015625)"/>
       <path id="ArialMT-6c" d="M 409 0 
L 409 4581 
L 972 4581 
L 972 0 
L 409 0 
z
" transform="scale(0.015625)"/>
       <path id="ArialMT-20" transform="scale(0.015625)"/>
       <path id="ArialMT-75" d="M 2597 0 
L 2597 488 
Q 2209 -75 1544 -75 
Q 1250 -75 995 37 
Q 741 150 617 320 
Q 494 491 444 738 
Q 409 903 409 1263 
L 409 3319 
L 972 3319 
L 972 1478 
Q 972 1038 1006 884 
Q 1059 663 1231 536 
Q 1403 409 1656 409 
Q 1909 409 2131 539 
Q 2353 669 2445 892 
Q 2538 1116 2538 1541 
L 2538 3319 
L 3100 3319 
L 3100 0 
L 2597 0 
z
" transform="scale(0.015625)"/>
       <path id="ArialMT-76" d="M 1344 0 
L 81 3319 
L 675 3319 
L 1388 1331 
Q 1503 1009 1600 663 
Q 1675 925 1809 1294 
L 2547 3319 
L 3125 3319 
L 1869 0 
L 1344 0 
z
" transform="scale(0.015625)"/>
      </defs>
      <use xlink:href="#ArialMT-50"/>
      <use xlink:href="#ArialMT-72" transform="translate(66.699219 0)"/>
      <use xlink:href="#ArialMT-65" transform="translate(100 0)"/>
      <use xlink:href="#ArialMT-63" transform="translate(155.615234 0)"/>
      <use xlink:href="#ArialMT-69" transform="translate(205.615234 0)"/>
      <use xlink:href="#ArialMT-73" transform="translate(227.832031 0)"/>
      <use xlink:href="#ArialMT-69" transform="translate(277.832031 0)"/>
      <use xlink:href="#ArialMT-6f" transform="translate(300.048828 0)"/>
      <use xlink:href="#ArialMT-6e" transform="translate(355.664062 0)"/>
      <use xlink:href="#ArialMT-2d" transform="translate(411.279297 0)"/>
      <use xlink:href="#ArialMT-52" transform="translate(444.580078 0)"/>
      <use xlink:href="#ArialMT-65" transform="translate(516.796875 0)"/>
      <use xlink:href="#ArialMT-63" transform="translate(572.412109 0)"/>
      <use xlink:href="#ArialMT-61" transform="translate(622.412109 0)"/>
      <use xlink:href="#ArialMT-6c" transform="translate(678.027344 0)"/>
      <use xlink:href="#ArialMT-6c" transform="translate(700.244141 0)"/>
      <use xlink:href="#ArialMT-20" transform="translate(722.460938 0)"/>
      <use xlink:href="#ArialMT-63" transform="translate(750.244141 0)"/>
      <use xlink:href="#ArialMT-75" transform="translate(800.244141 0)"/>
      <use xlink:href="#ArialMT-72" transform="translate(855.859375 0)"/>
      <use xlink:href="#ArialMT-76" transform="translate(889.160156 0)"/>
      <use xlink:href="#ArialMT-65" transform="translate(939.160156 0)"/>
     </g>
    </g>
   </g>
  </g>
 </g>
 <defs>
  <clipPath id="p4e6f88117f">
   <rect x="35.655938" y="19.642031" width="253.543583" height="245.38077"/>
  </clipPath>
 </defs>
</svg>
