<?xml version="1.0" encoding="utf-8" standalone="no"?>
<!DOCTYPE svg PUBLIC "-//W3C//DTD SVG 1.1//EN"
  "http://www.w3.org/Graphics/SVG/1.1/DTD/svg11.dtd">
<svg xmlns:xlink="http://www.w3.org/1999/xlink" width="440.39952pt" height="440.39952pt" viewBox="0 0 440.39952 440.39952" xmlns="http://www.w3.org/2000/svg" version="1.1">
 <metadata>
  <rdf:RDF xmlns:dc="http://purl.org/dc/elements/1.1/" xmlns:cc="http://creativecommons.org/ns#" xmlns:rdf="http://www.w3.org/1999/02/22-rdf-syntax-ns#">
   <cc:Work>
    <dc:type rdf:resource="http://purl.org/dc/dcmitype/StillImage"/>
    <dc:date>2025-12-27T08:47:46.248286</dc:date>
    <dc:format>image/svg+xml</dc:format>
    <dc:creator>
     <cc:Agent>
      <dc:title>Matplotlib v3.10.8, https://matplotlib.org/</dc:title>
     </cc:Agent>
    </dc:creator>
   </cc:Work>
  </rdf:RDF>
 </metadata>
 <defs>
  <style type="text/css">*{stroke-linejoin: round; stroke-linecap: butt}</style>
 </defs>
 <g id="figure_1">
  <g id="patch_1">
   <path d="M 0 440.39952 
L 440.39952 440.39952 
L 440.39952 0 
L 0 0 
z
" style="fill: #ffffff"/>
  </g>
  <g id="axes_1">
   <g id="patch_2">
    <path d="M 65.436094 409.132489 
L 433.19952 409.132489 
L 433.19952 19.66875 
L 65.436094 19.66875 
z
" style="fill: #ffffff"/>
   </g>
   <g id="matplotlib.axis_1">
    <g id="xtick_1">
     <g id="line2d_1">
      <path d="M 88.970704 409.132489 
L 88.970704 19.66875 
" clip-path="url(#p89891db04f)" style="fill: none; stroke: #c0c0c0; stroke-width: 0.25; stroke-linecap: round"/>
     </g>
     <g id="line2d_2"/>
     <g id="text_1">
      <!-- 0.000 -->
      <g style="fill: #333333" transform="translate(77.71086 419.07452) scale(0.09 -0.09)">
       <defs>
        <path id="ArialMT-30" d="M 266 2259 
Q 266 3072 433 3567 
Q 600 4063 929 4331 
Q 1259 4600 1759 4600 
Q 2128 4600 2406 4451 
Q 2684 4303 2865 4023 
Q 3047 3744 3150 3342 
Q 3253 2941 3253 2259 
Q 3253 1453 3087 958 
Q 2922 463 2592 192 
Q 2263 -78 1759 -78 
Q 1097 -78 719 397 
Q 266 969 266 2259 
z
M 844 2259 
Q 844 1131 1108 757 
Q 1372 384 1759 384 
Q 2147 384 2411 759 
Q 2675 1134 2675 2259 
Q 2675 3391 2411 3762 
Q 2147 4134 1753 4134 
Q 1366 4134 1134 3806 
Q 844 3388 844 2259 
z
" transform="scale(0.015625)"/>
        <path id="ArialMT-2e" d="M 581 0 
L 581 641 
L 1222 641 
L 1222 0 
L 581 0 
z
" transform="scale(0.015625)"/>
       </defs>
       <use xlink:href="#ArialMT-30"/>
       <use xlink:href="#ArialMT-2e" transform="translate(55.615234 0)"/>
       <use xlink:href="#ArialMT-30" transform="translate(83.398438 0)"/>
       <use xlink:href="#ArialMT-30" transform="translate(139.013672 0)"/>
       <use xlink:href="#ArialMT-30" transform="translate(194.628906 0)"/>
      </g>
     </g>
    </g>
    <g id="xtick_2">
     <g id="line2d_3">
      <path d="M 143.145502 409.132489 
L 143.145502 19.66875 
" clip-path="url(#p89891db04f)" style="fill: none; stroke: #c0c0c0; stroke-width: 0.25; stroke-linecap: round"/>
     </g>
     <g id="line2d_4"/>
     <g id="text_2">
      <!-- 0.002 -->
      <g style="fill: #333333" transform="translate(131.885658 419.07452) scale(0.09 -0.09)">
       <defs>
        <path id="ArialMT-32" d="M 3222 541 
L 3222 0 
L 194 0 
Q 188 203 259 391 
Q 375 700 629 1000 
Q 884 1300 1366 1694 
Q 2113 2306 2375 2664 
Q 2638 3022 2638 3341 
Q 2638 3675 2398 3904 
Q 2159 4134 1775 4134 
Q 1369 4134 1125 3890 
Q 881 3647 878 3216 
L 300 3275 
Q 359 3922 746 4261 
Q 1134 4600 1788 4600 
Q 2447 4600 2831 4234 
Q 3216 3869 3216 3328 
Q 3216 3053 3103 2787 
Q 2991 2522 2730 2228 
Q 2469 1934 1863 1422 
Q 1356 997 1212 845 
Q 1069 694 975 541 
L 3222 541 
z
" transform="scale(0.015625)"/>
       </defs>
       <use xlink:href="#ArialMT-30"/>
       <use xlink:href="#ArialMT-2e" transform="translate(55.615234 0)"/>
       <use xlink:href="#ArialMT-30" transform="translate(83.398438 0)"/>
       <use xlink:href="#ArialMT-30" transform="translate(139.013672 0)"/>
       <use xlink:href="#ArialMT-32" transform="translate(194.628906 0)"/>
      </g>
     </g>
    </g>
    <g id="xtick_3">
     <g id="line2d_5">
      <path d="M 197.320299 409.132489 
L 197.320299 19.66875 
" clip-path="url(#p89891db04f)" style="fill: none; stroke: #c0c0c0; stroke-width: 0.25; stroke-linecap: round"/>
     </g>
     <g id="line2d_6"/>
     <g id="text_3">
      <!-- 0.004 -->
      <g style="fill: #333333" transform="translate(186.060456 419.07452) scale(0.09 -0.09)">
       <defs>
        <path id="ArialMT-34" d="M 2069 0 
L 2069 1097 
L 81 1097 
L 81 1613 
L 2172 4581 
L 2631 4581 
L 2631 1613 
L 3250 1613 
L 3250 1097 
L 2631 1097 
L 2631 0 
L 2069 0 
z
M 2069 1613 
L 2069 3678 
L 634 1613 
L 2069 1613 
z
" transform="scale(0.015625)"/>
       </defs>
       <use xlink:href="#ArialMT-30"/>
       <use xlink:href="#ArialMT-2e" transform="translate(55.615234 0)"/>
       <use xlink:href="#ArialMT-30" transform="translate(83.398438 0)"/>
       <use xlink:href="#ArialMT-30" transform="translate(139.013672 0)"/>
       <use xlink:href="#ArialMT-34" transform="translate(194.628906 0)"/>
      </g>
     </g>
    </g>
    <g id="xtick_4">
     <g id="line2d_7">
      <path d="M 251.495097 409.132489 
L 251.495097 19.66875 
" clip-path="url(#p89891db04f)" style="fill: none; stroke: #c0c0c0; stroke-width: 0.25; stroke-linecap: round"/>
     </g>
     <g id="line2d_8"/>
     <g id="text_4">
      <!-- 0.006 -->
      <g style="fill: #333333" transform="translate(240.235253 419.07452) scale(0.09 -0.09)">
       <defs>
        <path id="ArialMT-36" d="M 3184 3459 
L 2625 3416 
Q 2550 3747 2413 3897 
Q 2184 4138 1850 4138 
Q 1581 4138 1378 3988 
Q 1113 3794 959 3422 
Q 806 3050 800 2363 
Q 1003 2672 1297 2822 
Q 1591 2972 1913 2972 
Q 2475 2972 2870 2558 
Q 3266 2144 3266 1488 
Q 3266 1056 3080 686 
Q 2894 316 2569 119 
Q 2244 -78 1831 -78 
Q 1128 -78 684 439 
Q 241 956 241 2144 
Q 241 3472 731 4075 
Q 1159 4600 1884 4600 
Q 2425 4600 2770 4297 
Q 3116 3994 3184 3459 
z
M 888 1484 
Q 888 1194 1011 928 
Q 1134 663 1356 523 
Q 1578 384 1822 384 
Q 2178 384 2434 671 
Q 2691 959 2691 1453 
Q 2691 1928 2437 2201 
Q 2184 2475 1800 2475 
Q 1419 2475 1153 2201 
Q 888 1928 888 1484 
z
" transform="scale(0.015625)"/>
       </defs>
       <use xlink:href="#ArialMT-30"/>
       <use xlink:href="#ArialMT-2e" transform="translate(55.615234 0)"/>
       <use xlink:href="#ArialMT-30" transform="translate(83.398438 0)"/>
       <use xlink:href="#ArialMT-30" transform="translate(139.013672 0)"/>
       <use xlink:href="#ArialMT-36" transform="translate(194.628906 0)"/>
      </g>
     </g>
    </g>
    <g id="xtick_5">
     <g id="line2d_9">
      <path d="M 305.669895 409.132489 
L 305.669895 19.66875 
" clip-path="url(#p89891db04f)" style="fill: none; stroke: #c0c0c0; stroke-width: 0.25; stroke-linecap: round"/>
     </g>
     <g id="line2d_10"/>
     <g id="text_5">
      <!-- 0.008 -->
      <g style="fill: #333333" transform="translate(294.410051 419.07452) scale(0.09 -0.09)">
       <defs>
        <path id="ArialMT-38" d="M 1131 2484 
Q 781 2613 612 2850 
Q 444 3088 444 3419 
Q 444 3919 803 4259 
Q 1163 4600 1759 4600 
Q 2359 4600 2725 4251 
Q 3091 3903 3091 3403 
Q 3091 3084 2923 2848 
Q 2756 2613 2416 2484 
Q 2838 2347 3058 2040 
Q 3278 1734 3278 1309 
Q 3278 722 2862 322 
Q 2447 -78 1769 -78 
Q 1091 -78 675 323 
Q 259 725 259 1325 
Q 259 1772 486 2073 
Q 713 2375 1131 2484 
z
M 1019 3438 
Q 1019 3113 1228 2906 
Q 1438 2700 1772 2700 
Q 2097 2700 2305 2904 
Q 2513 3109 2513 3406 
Q 2513 3716 2298 3927 
Q 2084 4138 1766 4138 
Q 1444 4138 1231 3931 
Q 1019 3725 1019 3438 
z
M 838 1322 
Q 838 1081 952 856 
Q 1066 631 1291 507 
Q 1516 384 1775 384 
Q 2178 384 2440 643 
Q 2703 903 2703 1303 
Q 2703 1709 2433 1975 
Q 2163 2241 1756 2241 
Q 1359 2241 1098 1978 
Q 838 1716 838 1322 
z
" transform="scale(0.015625)"/>
       </defs>
       <use xlink:href="#ArialMT-30"/>
       <use xlink:href="#ArialMT-2e" transform="translate(55.615234 0)"/>
       <use xlink:href="#ArialMT-30" transform="translate(83.398438 0)"/>
       <use xlink:href="#ArialMT-30" transform="translate(139.013672 0)"/>
       <use xlink:href="#ArialMT-38" transform="translate(194.628906 0)"/>
      </g>
     </g>
    </g>
    <g id="xtick_6">
     <g id="line2d_11">
      <path d="M 359.844692 409.132489 
L 359.844692 19.66875 
" clip-path="url(#p89891db04f)" style="fill: none; stroke: #c0c0c0; stroke-width: 0.25; stroke-linecap: round"/>
     </g>
     <g id="line2d_12"/>
     <g id="text_6">
      <!-- 0.010 -->
      <g style="fill: #333333" transform="translate(348.584849 419.07452) scale(0.09 -0.09)">
       <defs>
        <path id="ArialMT-31" d="M 2384 0 
L 1822 0 
L 1822 3584 
Q 1619 3391 1289 3197 
Q 959 3003 697 2906 
L 697 3450 
Q 1169 3672 1522 3987 
Q 1875 4303 2022 4600 
L 2384 4600 
L 2384 0 
z
" transform="scale(0.015625)"/>
       </defs>
       <use xlink:href="#ArialMT-30"/>
       <use xlink:href="#ArialMT-2e" transform="translate(55.615234 0)"/>
       <use xlink:href="#ArialMT-30" transform="translate(83.398438 0)"/>
       <use xlink:href="#ArialMT-31" transform="translate(139.013672 0)"/>
       <use xlink:href="#ArialMT-30" transform="translate(194.628906 0)"/>
      </g>
     </g>
    </g>
    <g id="xtick_7">
     <g id="line2d_13">
      <path d="M 414.01949 409.132489 
L 414.01949 19.66875 
" clip-path="url(#p89891db04f)" style="fill: none; stroke: #c0c0c0; stroke-width: 0.25; stroke-linecap: round"/>
     </g>
     <g id="line2d_14"/>
     <g id="text_7">
      <!-- 0.012 -->
      <g style="fill: #333333" transform="translate(402.759646 419.07452) scale(0.09 -0.09)">
       <use xlink:href="#ArialMT-30"/>
       <use xlink:href="#ArialMT-2e" transform="translate(55.615234 0)"/>
       <use xlink:href="#ArialMT-30" transform="translate(83.398438 0)"/>
       <use xlink:href="#ArialMT-31" transform="translate(139.013672 0)"/>
       <use xlink:href="#ArialMT-32" transform="translate(194.628906 0)"/>
      </g>
     </g>
    </g>
    <g id="text_8">
     <!-- Decrease in average precision -->
     <g style="fill: #333333" transform="translate(184.536088 431.305301) scale(0.09 -0.09)">
      <defs>
       <path id="Arial-BoldMT-44" d="M 463 4581 
L 2153 4581 
Q 2725 4581 3025 4494 
Q 3428 4375 3715 4072 
Q 4003 3769 4153 3330 
Q 4303 2891 4303 2247 
Q 4303 1681 4163 1272 
Q 3991 772 3672 463 
Q 3431 228 3022 97 
Q 2716 0 2203 0 
L 463 0 
L 463 4581 
z
M 1388 3806 
L 1388 772 
L 2078 772 
Q 2466 772 2638 816 
Q 2863 872 3011 1006 
Q 3159 1141 3253 1448 
Q 3347 1756 3347 2288 
Q 3347 2819 3253 3103 
Q 3159 3388 2990 3547 
Q 2822 3706 2563 3763 
Q 2369 3806 1803 3806 
L 1388 3806 
z
" transform="scale(0.015625)"/>
       <path id="Arial-BoldMT-65" d="M 2381 1056 
L 3256 909 
Q 3088 428 2723 176 
Q 2359 -75 1813 -75 
Q 947 -75 531 491 
Q 203 944 203 1634 
Q 203 2459 634 2926 
Q 1066 3394 1725 3394 
Q 2466 3394 2894 2905 
Q 3322 2416 3303 1406 
L 1103 1406 
Q 1113 1016 1316 798 
Q 1519 581 1822 581 
Q 2028 581 2168 693 
Q 2309 806 2381 1056 
z
M 2431 1944 
Q 2422 2325 2234 2523 
Q 2047 2722 1778 2722 
Q 1491 2722 1303 2513 
Q 1116 2303 1119 1944 
L 2431 1944 
z
" transform="scale(0.015625)"/>
       <path id="Arial-BoldMT-63" d="M 3353 2338 
L 2488 2181 
Q 2444 2441 2289 2572 
Q 2134 2703 1888 2703 
Q 1559 2703 1364 2476 
Q 1169 2250 1169 1719 
Q 1169 1128 1367 884 
Q 1566 641 1900 641 
Q 2150 641 2309 783 
Q 2469 925 2534 1272 
L 3397 1125 
Q 3263 531 2881 228 
Q 2500 -75 1859 -75 
Q 1131 -75 698 384 
Q 266 844 266 1656 
Q 266 2478 700 2936 
Q 1134 3394 1875 3394 
Q 2481 3394 2839 3133 
Q 3197 2872 3353 2338 
z
" transform="scale(0.015625)"/>
       <path id="Arial-BoldMT-72" d="M 1300 0 
L 422 0 
L 422 3319 
L 1238 3319 
L 1238 2847 
Q 1447 3181 1614 3287 
Q 1781 3394 1994 3394 
Q 2294 3394 2572 3228 
L 2300 2463 
Q 2078 2606 1888 2606 
Q 1703 2606 1575 2504 
Q 1447 2403 1373 2137 
Q 1300 1872 1300 1025 
L 1300 0 
z
" transform="scale(0.015625)"/>
       <path id="Arial-BoldMT-61" d="M 1116 2306 
L 319 2450 
Q 453 2931 781 3162 
Q 1109 3394 1756 3394 
Q 2344 3394 2631 3255 
Q 2919 3116 3036 2902 
Q 3153 2688 3153 2116 
L 3144 1091 
Q 3144 653 3186 445 
Q 3228 238 3344 0 
L 2475 0 
Q 2441 88 2391 259 
Q 2369 338 2359 363 
Q 2134 144 1878 34 
Q 1622 -75 1331 -75 
Q 819 -75 523 203 
Q 228 481 228 906 
Q 228 1188 362 1408 
Q 497 1628 739 1745 
Q 981 1863 1438 1950 
Q 2053 2066 2291 2166 
L 2291 2253 
Q 2291 2506 2166 2614 
Q 2041 2722 1694 2722 
Q 1459 2722 1328 2630 
Q 1197 2538 1116 2306 
z
M 2291 1594 
Q 2122 1538 1756 1459 
Q 1391 1381 1278 1306 
Q 1106 1184 1106 997 
Q 1106 813 1243 678 
Q 1381 544 1594 544 
Q 1831 544 2047 700 
Q 2206 819 2256 991 
Q 2291 1103 2291 1419 
L 2291 1594 
z
" transform="scale(0.015625)"/>
       <path id="Arial-BoldMT-73" d="M 150 947 
L 1031 1081 
Q 1088 825 1259 692 
Q 1431 559 1741 559 
Q 2081 559 2253 684 
Q 2369 772 2369 919 
Q 2369 1019 2306 1084 
Q 2241 1147 2013 1200 
Q 950 1434 666 1628 
Q 272 1897 272 2375 
Q 272 2806 612 3100 
Q 953 3394 1669 3394 
Q 2350 3394 2681 3172 
Q 3013 2950 3138 2516 
L 2309 2363 
Q 2256 2556 2107 2659 
Q 1959 2763 1684 2763 
Q 1338 2763 1188 2666 
Q 1088 2597 1088 2488 
Q 1088 2394 1175 2328 
Q 1294 2241 1995 2081 
Q 2697 1922 2975 1691 
Q 3250 1456 3250 1038 
Q 3250 581 2869 253 
Q 2488 -75 1741 -75 
Q 1063 -75 667 200 
Q 272 475 150 947 
z
" transform="scale(0.015625)"/>
       <path id="Arial-BoldMT-20" transform="scale(0.015625)"/>
       <path id="Arial-BoldMT-69" d="M 459 3769 
L 459 4581 
L 1338 4581 
L 1338 3769 
L 459 3769 
z
M 459 0 
L 459 3319 
L 1338 3319 
L 1338 0 
L 459 0 
z
" transform="scale(0.015625)"/>
       <path id="Arial-BoldMT-6e" d="M 3478 0 
L 2600 0 
L 2600 1694 
Q 2600 2231 2544 2389 
Q 2488 2547 2361 2634 
Q 2234 2722 2056 2722 
Q 1828 2722 1647 2597 
Q 1466 2472 1398 2265 
Q 1331 2059 1331 1503 
L 1331 0 
L 453 0 
L 453 3319 
L 1269 3319 
L 1269 2831 
Q 1703 3394 2363 3394 
Q 2653 3394 2893 3289 
Q 3134 3184 3257 3021 
Q 3381 2859 3429 2653 
Q 3478 2447 3478 2063 
L 3478 0 
z
" transform="scale(0.015625)"/>
       <path id="Arial-BoldMT-76" d="M 1372 0 
L 34 3319 
L 956 3319 
L 1581 1625 
L 1763 1059 
Q 1834 1275 1853 1344 
Q 1897 1484 1947 1625 
L 2578 3319 
L 3481 3319 
L 2163 0 
L 1372 0 
z
" transform="scale(0.015625)"/>
       <path id="Arial-BoldMT-67" d="M 378 -219 
L 1381 -341 
Q 1406 -516 1497 -581 
Q 1622 -675 1891 -675 
Q 2234 -675 2406 -572 
Q 2522 -503 2581 -350 
Q 2622 -241 2622 53 
L 2622 538 
Q 2228 0 1628 0 
Q 959 0 569 566 
Q 263 1013 263 1678 
Q 263 2513 664 2953 
Q 1066 3394 1663 3394 
Q 2278 3394 2678 2853 
L 2678 3319 
L 3500 3319 
L 3500 341 
Q 3500 -247 3403 -537 
Q 3306 -828 3131 -993 
Q 2956 -1159 2664 -1253 
Q 2372 -1347 1925 -1347 
Q 1081 -1347 728 -1058 
Q 375 -769 375 -325 
Q 375 -281 378 -219 
z
M 1163 1728 
Q 1163 1200 1367 954 
Q 1572 709 1872 709 
Q 2194 709 2416 961 
Q 2638 1213 2638 1706 
Q 2638 2222 2425 2472 
Q 2213 2722 1888 2722 
Q 1572 2722 1367 2476 
Q 1163 2231 1163 1728 
z
" transform="scale(0.015625)"/>
       <path id="Arial-BoldMT-70" d="M 434 3319 
L 1253 3319 
L 1253 2831 
Q 1413 3081 1684 3237 
Q 1956 3394 2288 3394 
Q 2866 3394 3269 2941 
Q 3672 2488 3672 1678 
Q 3672 847 3265 386 
Q 2859 -75 2281 -75 
Q 2006 -75 1782 34 
Q 1559 144 1313 409 
L 1313 -1263 
L 434 -1263 
L 434 3319 
z
M 1303 1716 
Q 1303 1156 1525 889 
Q 1747 622 2066 622 
Q 2372 622 2575 867 
Q 2778 1113 2778 1672 
Q 2778 2194 2568 2447 
Q 2359 2700 2050 2700 
Q 1728 2700 1515 2451 
Q 1303 2203 1303 1716 
z
" transform="scale(0.015625)"/>
       <path id="Arial-BoldMT-6f" d="M 256 1706 
Q 256 2144 472 2553 
Q 688 2963 1083 3178 
Q 1478 3394 1966 3394 
Q 2719 3394 3200 2905 
Q 3681 2416 3681 1669 
Q 3681 916 3195 420 
Q 2709 -75 1972 -75 
Q 1516 -75 1102 131 
Q 688 338 472 736 
Q 256 1134 256 1706 
z
M 1156 1659 
Q 1156 1166 1390 903 
Q 1625 641 1969 641 
Q 2313 641 2545 903 
Q 2778 1166 2778 1666 
Q 2778 2153 2545 2415 
Q 2313 2678 1969 2678 
Q 1625 2678 1390 2415 
Q 1156 2153 1156 1659 
z
" transform="scale(0.015625)"/>
      </defs>
      <use xlink:href="#Arial-BoldMT-44"/>
      <use xlink:href="#Arial-BoldMT-65" transform="translate(72.216797 0)"/>
      <use xlink:href="#Arial-BoldMT-63" transform="translate(127.832031 0)"/>
      <use xlink:href="#Arial-BoldMT-72" transform="translate(183.447266 0)"/>
      <use xlink:href="#Arial-BoldMT-65" transform="translate(222.363281 0)"/>
      <use xlink:href="#Arial-BoldMT-61" transform="translate(277.978516 0)"/>
      <use xlink:href="#Arial-BoldMT-73" transform="translate(333.59375 0)"/>
      <use xlink:href="#Arial-BoldMT-65" transform="translate(389.208984 0)"/>
      <use xlink:href="#Arial-BoldMT-20" transform="translate(444.824219 0)"/>
      <use xlink:href="#Arial-BoldMT-69" transform="translate(472.607422 0)"/>
      <use xlink:href="#Arial-BoldMT-6e" transform="translate(500.390625 0)"/>
      <use xlink:href="#Arial-BoldMT-20" transform="translate(561.474609 0)"/>
      <use xlink:href="#Arial-BoldMT-61" transform="translate(589.257812 0)"/>
      <use xlink:href="#Arial-BoldMT-76" transform="translate(644.873047 0)"/>
      <use xlink:href="#Arial-BoldMT-65" transform="translate(700.488281 0)"/>
      <use xlink:href="#Arial-BoldMT-72" transform="translate(756.103516 0)"/>
      <use xlink:href="#Arial-BoldMT-61" transform="translate(795.019531 0)"/>
      <use xlink:href="#Arial-BoldMT-67" transform="translate(850.634766 0)"/>
      <use xlink:href="#Arial-BoldMT-65" transform="translate(911.71875 0)"/>
      <use xlink:href="#Arial-BoldMT-20" transform="translate(967.333984 0)"/>
      <use xlink:href="#Arial-BoldMT-70" transform="translate(995.117188 0)"/>
      <use xlink:href="#Arial-BoldMT-72" transform="translate(1056.201172 0)"/>
      <use xlink:href="#Arial-BoldMT-65" transform="translate(1095.117188 0)"/>
      <use xlink:href="#Arial-BoldMT-63" transform="translate(1150.732422 0)"/>
      <use xlink:href="#Arial-BoldMT-69" transform="translate(1206.347656 0)"/>
      <use xlink:href="#Arial-BoldMT-73" transform="translate(1234.130859 0)"/>
      <use xlink:href="#Arial-BoldMT-69" transform="translate(1289.746094 0)"/>
      <use xlink:href="#Arial-BoldMT-6f" transform="translate(1317.529297 0)"/>
      <use xlink:href="#Arial-BoldMT-6e" transform="translate(1378.613281 0)"/>
     </g>
    </g>
   </g>
   <g id="matplotlib.axis_2">
    <g id="ytick_1">
     <g id="line2d_15">
      <path d="M 65.436094 401.642801 
L 433.19952 401.642801 
" clip-path="url(#p89891db04f)" style="fill: none; stroke: #c0c0c0; stroke-width: 0.25; stroke-linecap: round"/>
     </g>
     <g id="line2d_16"/>
     <g id="text_9">
      <!-- pay_rec -->
      <g style="fill: #333333" transform="translate(29.92 404.811083) scale(0.09 -0.09)">
       <defs>
        <path id="ArialMT-70" d="M 422 -1272 
L 422 3319 
L 934 3319 
L 934 2888 
Q 1116 3141 1344 3267 
Q 1572 3394 1897 3394 
Q 2322 3394 2647 3175 
Q 2972 2956 3137 2557 
Q 3303 2159 3303 1684 
Q 3303 1175 3120 767 
Q 2938 359 2589 142 
Q 2241 -75 1856 -75 
Q 1575 -75 1351 44 
Q 1128 163 984 344 
L 984 -1272 
L 422 -1272 
z
M 931 1641 
Q 931 1000 1190 694 
Q 1450 388 1819 388 
Q 2194 388 2461 705 
Q 2728 1022 2728 1688 
Q 2728 2322 2467 2637 
Q 2206 2953 1844 2953 
Q 1484 2953 1207 2617 
Q 931 2281 931 1641 
z
" transform="scale(0.015625)"/>
        <path id="ArialMT-61" d="M 2588 409 
Q 2275 144 1986 34 
Q 1697 -75 1366 -75 
Q 819 -75 525 192 
Q 231 459 231 875 
Q 231 1119 342 1320 
Q 453 1522 633 1644 
Q 813 1766 1038 1828 
Q 1203 1872 1538 1913 
Q 2219 1994 2541 2106 
Q 2544 2222 2544 2253 
Q 2544 2597 2384 2738 
Q 2169 2928 1744 2928 
Q 1347 2928 1158 2789 
Q 969 2650 878 2297 
L 328 2372 
Q 403 2725 575 2942 
Q 747 3159 1072 3276 
Q 1397 3394 1825 3394 
Q 2250 3394 2515 3294 
Q 2781 3194 2906 3042 
Q 3031 2891 3081 2659 
Q 3109 2516 3109 2141 
L 3109 1391 
Q 3109 606 3145 398 
Q 3181 191 3288 0 
L 2700 0 
Q 2613 175 2588 409 
z
M 2541 1666 
Q 2234 1541 1622 1453 
Q 1275 1403 1131 1340 
Q 988 1278 909 1158 
Q 831 1038 831 891 
Q 831 666 1001 516 
Q 1172 366 1500 366 
Q 1825 366 2078 508 
Q 2331 650 2450 897 
Q 2541 1088 2541 1459 
L 2541 1666 
z
" transform="scale(0.015625)"/>
        <path id="ArialMT-79" d="M 397 -1278 
L 334 -750 
Q 519 -800 656 -800 
Q 844 -800 956 -737 
Q 1069 -675 1141 -563 
Q 1194 -478 1313 -144 
Q 1328 -97 1363 -6 
L 103 3319 
L 709 3319 
L 1400 1397 
Q 1534 1031 1641 628 
Q 1738 1016 1872 1384 
L 2581 3319 
L 3144 3319 
L 1881 -56 
Q 1678 -603 1566 -809 
Q 1416 -1088 1222 -1217 
Q 1028 -1347 759 -1347 
Q 597 -1347 397 -1278 
z
" transform="scale(0.015625)"/>
        <path id="ArialMT-5f" d="M -97 -1272 
L -97 -866 
L 3631 -866 
L 3631 -1272 
L -97 -1272 
z
" transform="scale(0.015625)"/>
        <path id="ArialMT-72" d="M 416 0 
L 416 3319 
L 922 3319 
L 922 2816 
Q 1116 3169 1280 3281 
Q 1444 3394 1641 3394 
Q 1925 3394 2219 3213 
L 2025 2691 
Q 1819 2813 1613 2813 
Q 1428 2813 1281 2702 
Q 1134 2591 1072 2394 
Q 978 2094 978 1738 
L 978 0 
L 416 0 
z
" transform="scale(0.015625)"/>
        <path id="ArialMT-65" d="M 2694 1069 
L 3275 997 
Q 3138 488 2766 206 
Q 2394 -75 1816 -75 
Q 1088 -75 661 373 
Q 234 822 234 1631 
Q 234 2469 665 2931 
Q 1097 3394 1784 3394 
Q 2450 3394 2872 2941 
Q 3294 2488 3294 1666 
Q 3294 1616 3291 1516 
L 816 1516 
Q 847 969 1125 678 
Q 1403 388 1819 388 
Q 2128 388 2347 550 
Q 2566 713 2694 1069 
z
M 847 1978 
L 2700 1978 
Q 2663 2397 2488 2606 
Q 2219 2931 1791 2931 
Q 1403 2931 1139 2672 
Q 875 2413 847 1978 
z
" transform="scale(0.015625)"/>
        <path id="ArialMT-63" d="M 2588 1216 
L 3141 1144 
Q 3050 572 2676 248 
Q 2303 -75 1759 -75 
Q 1078 -75 664 370 
Q 250 816 250 1647 
Q 250 2184 428 2587 
Q 606 2991 970 3192 
Q 1334 3394 1763 3394 
Q 2303 3394 2647 3120 
Q 2991 2847 3088 2344 
L 2541 2259 
Q 2463 2594 2264 2762 
Q 2066 2931 1784 2931 
Q 1359 2931 1093 2626 
Q 828 2322 828 1663 
Q 828 994 1084 691 
Q 1341 388 1753 388 
Q 2084 388 2306 591 
Q 2528 794 2588 1216 
z
" transform="scale(0.015625)"/>
       </defs>
       <use xlink:href="#ArialMT-70"/>
       <use xlink:href="#ArialMT-61" transform="translate(55.615234 0)"/>
       <use xlink:href="#ArialMT-79" transform="translate(111.230469 0)"/>
       <use xlink:href="#ArialMT-5f" transform="translate(161.230469 0)"/>
       <use xlink:href="#ArialMT-72" transform="translate(216.845703 0)"/>
       <use xlink:href="#ArialMT-65" transform="translate(250.146484 0)"/>
       <use xlink:href="#ArialMT-63" transform="translate(305.761719 0)"/>
      </g>
     </g>
    </g>
    <g id="ytick_2">
     <g id="line2d_17">
      <path d="M 65.436094 386.663427 
L 433.19952 386.663427 
" clip-path="url(#p89891db04f)" style="fill: none; stroke: #c0c0c0; stroke-width: 0.25; stroke-linecap: round"/>
     </g>
     <g id="line2d_18"/>
     <g id="text_10">
      <!-- rf_inftr -->
      <g style="fill: #333333" transform="translate(36.432344 389.939286) scale(0.09 -0.09)">
       <defs>
        <path id="ArialMT-66" d="M 556 0 
L 556 2881 
L 59 2881 
L 59 3319 
L 556 3319 
L 556 3672 
Q 556 4006 616 4169 
Q 697 4388 901 4523 
Q 1106 4659 1475 4659 
Q 1713 4659 2000 4603 
L 1916 4113 
Q 1741 4144 1584 4144 
Q 1328 4144 1222 4034 
Q 1116 3925 1116 3625 
L 1116 3319 
L 1763 3319 
L 1763 2881 
L 1116 2881 
L 1116 0 
L 556 0 
z
" transform="scale(0.015625)"/>
        <path id="ArialMT-69" d="M 425 3934 
L 425 4581 
L 988 4581 
L 988 3934 
L 425 3934 
z
M 425 0 
L 425 3319 
L 988 3319 
L 988 0 
L 425 0 
z
" transform="scale(0.015625)"/>
        <path id="ArialMT-6e" d="M 422 0 
L 422 3319 
L 928 3319 
L 928 2847 
Q 1294 3394 1984 3394 
Q 2284 3394 2536 3286 
Q 2788 3178 2913 3003 
Q 3038 2828 3088 2588 
Q 3119 2431 3119 2041 
L 3119 0 
L 2556 0 
L 2556 2019 
Q 2556 2363 2490 2533 
Q 2425 2703 2258 2804 
Q 2091 2906 1866 2906 
Q 1506 2906 1245 2678 
Q 984 2450 984 1813 
L 984 0 
L 422 0 
z
" transform="scale(0.015625)"/>
        <path id="ArialMT-74" d="M 1650 503 
L 1731 6 
Q 1494 -44 1306 -44 
Q 1000 -44 831 53 
Q 663 150 594 308 
Q 525 466 525 972 
L 525 2881 
L 113 2881 
L 113 3319 
L 525 3319 
L 525 4141 
L 1084 4478 
L 1084 3319 
L 1650 3319 
L 1650 2881 
L 1084 2881 
L 1084 941 
Q 1084 700 1114 631 
Q 1144 563 1211 522 
Q 1278 481 1403 481 
Q 1497 481 1650 503 
z
" transform="scale(0.015625)"/>
       </defs>
       <use xlink:href="#ArialMT-72"/>
       <use xlink:href="#ArialMT-66" transform="translate(33.300781 0)"/>
       <use xlink:href="#ArialMT-5f" transform="translate(61.083984 0)"/>
       <use xlink:href="#ArialMT-69" transform="translate(116.699219 0)"/>
       <use xlink:href="#ArialMT-6e" transform="translate(138.916016 0)"/>
       <use xlink:href="#ArialMT-66" transform="translate(194.53125 0)"/>
       <use xlink:href="#ArialMT-74" transform="translate(222.314453 0)"/>
       <use xlink:href="#ArialMT-72" transform="translate(250.097656 0)"/>
      </g>
     </g>
    </g>
    <g id="ytick_3">
     <g id="line2d_19">
      <path d="M 65.436094 371.684052 
L 433.19952 371.684052 
" clip-path="url(#p89891db04f)" style="fill: none; stroke: #c0c0c0; stroke-width: 0.25; stroke-linecap: round"/>
     </g>
     <g id="line2d_20"/>
     <g id="text_11">
      <!-- ca_cleft -->
      <g style="fill: #333333" transform="translate(30.92125 374.959912) scale(0.09 -0.09)">
       <defs>
        <path id="ArialMT-6c" d="M 409 0 
L 409 4581 
L 972 4581 
L 972 0 
L 409 0 
z
" transform="scale(0.015625)"/>
       </defs>
       <use xlink:href="#ArialMT-63"/>
       <use xlink:href="#ArialMT-61" transform="translate(50 0)"/>
       <use xlink:href="#ArialMT-5f" transform="translate(105.615234 0)"/>
       <use xlink:href="#ArialMT-63" transform="translate(161.230469 0)"/>
       <use xlink:href="#ArialMT-6c" transform="translate(211.230469 0)"/>
       <use xlink:href="#ArialMT-65" transform="translate(233.447266 0)"/>
       <use xlink:href="#ArialMT-66" transform="translate(289.0625 0)"/>
       <use xlink:href="#ArialMT-74" transform="translate(316.845703 0)"/>
      </g>
     </g>
    </g>
    <g id="ytick_4">
     <g id="line2d_21">
      <path d="M 65.436094 356.704678 
L 433.19952 356.704678 
" clip-path="url(#p89891db04f)" style="fill: none; stroke: #c0c0c0; stroke-width: 0.25; stroke-linecap: round"/>
     </g>
     <g id="line2d_22"/>
     <g id="text_12">
      <!-- me_pres -->
      <g style="fill: #333333" transform="translate(26.923281 359.925693) scale(0.09 -0.09)">
       <defs>
        <path id="ArialMT-6d" d="M 422 0 
L 422 3319 
L 925 3319 
L 925 2853 
Q 1081 3097 1340 3245 
Q 1600 3394 1931 3394 
Q 2300 3394 2536 3241 
Q 2772 3088 2869 2813 
Q 3263 3394 3894 3394 
Q 4388 3394 4653 3120 
Q 4919 2847 4919 2278 
L 4919 0 
L 4359 0 
L 4359 2091 
Q 4359 2428 4304 2576 
Q 4250 2725 4106 2815 
Q 3963 2906 3769 2906 
Q 3419 2906 3187 2673 
Q 2956 2441 2956 1928 
L 2956 0 
L 2394 0 
L 2394 2156 
Q 2394 2531 2256 2718 
Q 2119 2906 1806 2906 
Q 1569 2906 1367 2781 
Q 1166 2656 1075 2415 
Q 984 2175 984 1722 
L 984 0 
L 422 0 
z
" transform="scale(0.015625)"/>
        <path id="ArialMT-73" d="M 197 991 
L 753 1078 
Q 800 744 1014 566 
Q 1228 388 1613 388 
Q 2000 388 2187 545 
Q 2375 703 2375 916 
Q 2375 1106 2209 1216 
Q 2094 1291 1634 1406 
Q 1016 1563 777 1677 
Q 538 1791 414 1992 
Q 291 2194 291 2438 
Q 291 2659 392 2848 
Q 494 3038 669 3163 
Q 800 3259 1026 3326 
Q 1253 3394 1513 3394 
Q 1903 3394 2198 3281 
Q 2494 3169 2634 2976 
Q 2775 2784 2828 2463 
L 2278 2388 
Q 2241 2644 2061 2787 
Q 1881 2931 1553 2931 
Q 1166 2931 1000 2803 
Q 834 2675 834 2503 
Q 834 2394 903 2306 
Q 972 2216 1119 2156 
Q 1203 2125 1616 2013 
Q 2213 1853 2448 1751 
Q 2684 1650 2818 1456 
Q 2953 1263 2953 975 
Q 2953 694 2789 445 
Q 2625 197 2315 61 
Q 2006 -75 1616 -75 
Q 969 -75 630 194 
Q 291 463 197 991 
z
" transform="scale(0.015625)"/>
       </defs>
       <use xlink:href="#ArialMT-6d"/>
       <use xlink:href="#ArialMT-65" transform="translate(83.300781 0)"/>
       <use xlink:href="#ArialMT-5f" transform="translate(138.916016 0)"/>
       <use xlink:href="#ArialMT-70" transform="translate(194.53125 0)"/>
       <use xlink:href="#ArialMT-72" transform="translate(250.146484 0)"/>
       <use xlink:href="#ArialMT-65" transform="translate(283.447266 0)"/>
       <use xlink:href="#ArialMT-73" transform="translate(339.0625 0)"/>
      </g>
     </g>
    </g>
    <g id="ytick_5">
     <g id="line2d_23">
      <path d="M 65.436094 341.725303 
L 433.19952 341.725303 
" clip-path="url(#p89891db04f)" style="fill: none; stroke: #c0c0c0; stroke-width: 0.25; stroke-linecap: round"/>
     </g>
     <g id="line2d_24"/>
     <g id="text_13">
      <!-- ab_anti -->
      <g style="fill: #333333" transform="translate(32.411875 344.946319) scale(0.09 -0.09)">
       <defs>
        <path id="ArialMT-62" d="M 941 0 
L 419 0 
L 419 4581 
L 981 4581 
L 981 2947 
Q 1338 3394 1891 3394 
Q 2197 3394 2470 3270 
Q 2744 3147 2920 2923 
Q 3097 2700 3197 2384 
Q 3297 2069 3297 1709 
Q 3297 856 2875 390 
Q 2453 -75 1863 -75 
Q 1275 -75 941 416 
L 941 0 
z
M 934 1684 
Q 934 1088 1097 822 
Q 1363 388 1816 388 
Q 2184 388 2453 708 
Q 2722 1028 2722 1663 
Q 2722 2313 2464 2622 
Q 2206 2931 1841 2931 
Q 1472 2931 1203 2611 
Q 934 2291 934 1684 
z
" transform="scale(0.015625)"/>
       </defs>
       <use xlink:href="#ArialMT-61"/>
       <use xlink:href="#ArialMT-62" transform="translate(55.615234 0)"/>
       <use xlink:href="#ArialMT-5f" transform="translate(111.230469 0)"/>
       <use xlink:href="#ArialMT-61" transform="translate(166.845703 0)"/>
       <use xlink:href="#ArialMT-6e" transform="translate(222.460938 0)"/>
       <use xlink:href="#ArialMT-74" transform="translate(278.076172 0)"/>
       <use xlink:href="#ArialMT-69" transform="translate(305.859375 0)"/>
      </g>
     </g>
    </g>
    <g id="ytick_6">
     <g id="line2d_25">
      <path d="M 65.436094 326.745929 
L 433.19952 326.745929 
" clip-path="url(#p89891db04f)" style="fill: none; stroke: #c0c0c0; stroke-width: 0.25; stroke-linecap: round"/>
     </g>
     <g id="line2d_26"/>
     <g id="text_14">
      <!-- sex -->
      <g style="fill: #333333" transform="translate(47.93125 329.966944) scale(0.09 -0.09)">
       <defs>
        <path id="ArialMT-78" d="M 47 0 
L 1259 1725 
L 138 3319 
L 841 3319 
L 1350 2541 
Q 1494 2319 1581 2169 
Q 1719 2375 1834 2534 
L 2394 3319 
L 3066 3319 
L 1919 1756 
L 3153 0 
L 2463 0 
L 1781 1031 
L 1600 1309 
L 728 0 
L 47 0 
z
" transform="scale(0.015625)"/>
       </defs>
       <use xlink:href="#ArialMT-73"/>
       <use xlink:href="#ArialMT-65" transform="translate(50 0)"/>
       <use xlink:href="#ArialMT-78" transform="translate(105.615234 0)"/>
      </g>
     </g>
    </g>
    <g id="ytick_7">
     <g id="line2d_27">
      <path d="M 65.436094 311.766554 
L 433.19952 311.766554 
" clip-path="url(#p89891db04f)" style="fill: none; stroke: #c0c0c0; stroke-width: 0.25; stroke-linecap: round"/>
     </g>
     <g id="line2d_28"/>
     <g id="text_15">
      <!-- ca_clpal -->
      <g style="fill: #333333" transform="translate(28.917344 314.98757) scale(0.09 -0.09)">
       <use xlink:href="#ArialMT-63"/>
       <use xlink:href="#ArialMT-61" transform="translate(50 0)"/>
       <use xlink:href="#ArialMT-5f" transform="translate(105.615234 0)"/>
       <use xlink:href="#ArialMT-63" transform="translate(161.230469 0)"/>
       <use xlink:href="#ArialMT-6c" transform="translate(211.230469 0)"/>
       <use xlink:href="#ArialMT-70" transform="translate(233.447266 0)"/>
       <use xlink:href="#ArialMT-61" transform="translate(289.0625 0)"/>
       <use xlink:href="#ArialMT-6c" transform="translate(344.677734 0)"/>
      </g>
     </g>
    </g>
    <g id="ytick_8">
     <g id="line2d_29">
      <path d="M 65.436094 296.787179 
L 433.19952 296.787179 
" clip-path="url(#p89891db04f)" style="fill: none; stroke: #c0c0c0; stroke-width: 0.25; stroke-linecap: round"/>
     </g>
     <g id="line2d_30"/>
     <g id="text_16">
      <!-- rf_phype -->
      <g style="fill: #333333" transform="translate(26.914844 300.063039) scale(0.09 -0.09)">
       <defs>
        <path id="ArialMT-68" d="M 422 0 
L 422 4581 
L 984 4581 
L 984 2938 
Q 1378 3394 1978 3394 
Q 2347 3394 2619 3248 
Q 2891 3103 3008 2847 
Q 3125 2591 3125 2103 
L 3125 0 
L 2563 0 
L 2563 2103 
Q 2563 2525 2380 2717 
Q 2197 2909 1863 2909 
Q 1613 2909 1392 2779 
Q 1172 2650 1078 2428 
Q 984 2206 984 1816 
L 984 0 
L 422 0 
z
" transform="scale(0.015625)"/>
       </defs>
       <use xlink:href="#ArialMT-72"/>
       <use xlink:href="#ArialMT-66" transform="translate(33.300781 0)"/>
       <use xlink:href="#ArialMT-5f" transform="translate(61.083984 0)"/>
       <use xlink:href="#ArialMT-70" transform="translate(116.699219 0)"/>
       <use xlink:href="#ArialMT-68" transform="translate(172.314453 0)"/>
       <use xlink:href="#ArialMT-79" transform="translate(227.929688 0)"/>
       <use xlink:href="#ArialMT-70" transform="translate(277.929688 0)"/>
       <use xlink:href="#ArialMT-65" transform="translate(333.544922 0)"/>
      </g>
     </g>
    </g>
    <g id="ytick_9">
     <g id="line2d_31">
      <path d="M 65.436094 281.807805 
L 433.19952 281.807805 
" clip-path="url(#p89891db04f)" style="fill: none; stroke: #c0c0c0; stroke-width: 0.25; stroke-linecap: round"/>
     </g>
     <g id="line2d_32"/>
     <g id="text_17">
      <!-- rf_artec -->
      <g style="fill: #333333" transform="translate(31.4275 285.083664) scale(0.09 -0.09)">
       <use xlink:href="#ArialMT-72"/>
       <use xlink:href="#ArialMT-66" transform="translate(33.300781 0)"/>
       <use xlink:href="#ArialMT-5f" transform="translate(61.083984 0)"/>
       <use xlink:href="#ArialMT-61" transform="translate(116.699219 0)"/>
       <use xlink:href="#ArialMT-72" transform="translate(172.314453 0)"/>
       <use xlink:href="#ArialMT-74" transform="translate(205.615234 0)"/>
       <use xlink:href="#ArialMT-65" transform="translate(233.398438 0)"/>
       <use xlink:href="#ArialMT-63" transform="translate(289.013672 0)"/>
      </g>
     </g>
    </g>
    <g id="ytick_10">
     <g id="line2d_33">
      <path d="M 65.436094 266.82843 
L 433.19952 266.82843 
" clip-path="url(#p89891db04f)" style="fill: none; stroke: #c0c0c0; stroke-width: 0.25; stroke-linecap: round"/>
     </g>
     <g id="line2d_34"/>
     <g id="text_18">
      <!-- bmi -->
      <g style="fill: #333333" transform="translate(47.434844 270.049446) scale(0.09 -0.09)">
       <use xlink:href="#ArialMT-62"/>
       <use xlink:href="#ArialMT-6d" transform="translate(55.615234 0)"/>
       <use xlink:href="#ArialMT-69" transform="translate(138.916016 0)"/>
      </g>
     </g>
    </g>
    <g id="ytick_11">
     <g id="line2d_35">
      <path d="M 65.436094 251.849056 
L 433.19952 251.849056 
" clip-path="url(#p89891db04f)" style="fill: none; stroke: #c0c0c0; stroke-width: 0.25; stroke-linecap: round"/>
     </g>
     <g id="line2d_36"/>
     <g id="text_19">
      <!-- ab_aven6 -->
      <g style="fill: #333333" transform="translate(22.402187 255.083431) scale(0.09 -0.09)">
       <defs>
        <path id="ArialMT-76" d="M 1344 0 
L 81 3319 
L 675 3319 
L 1388 1331 
Q 1503 1009 1600 663 
Q 1675 925 1809 1294 
L 2547 3319 
L 3125 3319 
L 1869 0 
L 1344 0 
z
" transform="scale(0.015625)"/>
       </defs>
       <use xlink:href="#ArialMT-61"/>
       <use xlink:href="#ArialMT-62" transform="translate(55.615234 0)"/>
       <use xlink:href="#ArialMT-5f" transform="translate(111.230469 0)"/>
       <use xlink:href="#ArialMT-61" transform="translate(166.845703 0)"/>
       <use xlink:href="#ArialMT-76" transform="translate(222.460938 0)"/>
       <use xlink:href="#ArialMT-65" transform="translate(272.460938 0)"/>
       <use xlink:href="#ArialMT-6e" transform="translate(328.076172 0)"/>
       <use xlink:href="#ArialMT-36" transform="translate(383.691406 0)"/>
      </g>
     </g>
    </g>
    <g id="ytick_12">
     <g id="line2d_37">
      <path d="M 65.436094 236.869681 
L 433.19952 236.869681 
" clip-path="url(#p89891db04f)" style="fill: none; stroke: #c0c0c0; stroke-width: 0.25; stroke-linecap: round"/>
     </g>
     <g id="line2d_38"/>
     <g id="text_20">
      <!-- rf_ghype -->
      <g style="fill: #333333" transform="translate(26.914844 240.145541) scale(0.09 -0.09)">
       <defs>
        <path id="ArialMT-67" d="M 319 -275 
L 866 -356 
Q 900 -609 1056 -725 
Q 1266 -881 1628 -881 
Q 2019 -881 2231 -725 
Q 2444 -569 2519 -288 
Q 2563 -116 2559 434 
Q 2191 0 1641 0 
Q 956 0 581 494 
Q 206 988 206 1678 
Q 206 2153 378 2554 
Q 550 2956 876 3175 
Q 1203 3394 1644 3394 
Q 2231 3394 2613 2919 
L 2613 3319 
L 3131 3319 
L 3131 450 
Q 3131 -325 2973 -648 
Q 2816 -972 2473 -1159 
Q 2131 -1347 1631 -1347 
Q 1038 -1347 672 -1080 
Q 306 -813 319 -275 
z
M 784 1719 
Q 784 1066 1043 766 
Q 1303 466 1694 466 
Q 2081 466 2343 764 
Q 2606 1063 2606 1700 
Q 2606 2309 2336 2618 
Q 2066 2928 1684 2928 
Q 1309 2928 1046 2623 
Q 784 2319 784 1719 
z
" transform="scale(0.015625)"/>
       </defs>
       <use xlink:href="#ArialMT-72"/>
       <use xlink:href="#ArialMT-66" transform="translate(33.300781 0)"/>
       <use xlink:href="#ArialMT-5f" transform="translate(61.083984 0)"/>
       <use xlink:href="#ArialMT-67" transform="translate(116.699219 0)"/>
       <use xlink:href="#ArialMT-68" transform="translate(172.314453 0)"/>
       <use xlink:href="#ArialMT-79" transform="translate(227.929688 0)"/>
       <use xlink:href="#ArialMT-70" transform="translate(277.929688 0)"/>
       <use xlink:href="#ArialMT-65" transform="translate(333.544922 0)"/>
      </g>
     </g>
    </g>
    <g id="ytick_13">
     <g id="line2d_39">
      <path d="M 65.436094 221.890307 
L 433.19952 221.890307 
" clip-path="url(#p89891db04f)" style="fill: none; stroke: #c0c0c0; stroke-width: 0.25; stroke-linecap: round"/>
     </g>
     <g id="line2d_40"/>
     <g id="text_21">
      <!-- ab_aven1 -->
      <g style="fill: #333333" transform="translate(22.402187 225.124682) scale(0.09 -0.09)">
       <use xlink:href="#ArialMT-61"/>
       <use xlink:href="#ArialMT-62" transform="translate(55.615234 0)"/>
       <use xlink:href="#ArialMT-5f" transform="translate(111.230469 0)"/>
       <use xlink:href="#ArialMT-61" transform="translate(166.845703 0)"/>
       <use xlink:href="#ArialMT-76" transform="translate(222.460938 0)"/>
       <use xlink:href="#ArialMT-65" transform="translate(272.460938 0)"/>
       <use xlink:href="#ArialMT-6e" transform="translate(328.076172 0)"/>
       <use xlink:href="#ArialMT-31" transform="translate(383.691406 0)"/>
      </g>
     </g>
    </g>
    <g id="ytick_14">
     <g id="line2d_41">
      <path d="M 65.436094 206.910932 
L 433.19952 206.910932 
" clip-path="url(#p89891db04f)" style="fill: none; stroke: #c0c0c0; stroke-width: 0.25; stroke-linecap: round"/>
     </g>
     <g id="line2d_42"/>
     <g id="text_22">
      <!-- bfacil3 -->
      <g style="fill: #333333" transform="translate(35.921875 210.131948) scale(0.09 -0.09)">
       <defs>
        <path id="ArialMT-33" d="M 269 1209 
L 831 1284 
Q 928 806 1161 595 
Q 1394 384 1728 384 
Q 2125 384 2398 659 
Q 2672 934 2672 1341 
Q 2672 1728 2419 1979 
Q 2166 2231 1775 2231 
Q 1616 2231 1378 2169 
L 1441 2663 
Q 1497 2656 1531 2656 
Q 1891 2656 2178 2843 
Q 2466 3031 2466 3422 
Q 2466 3731 2256 3934 
Q 2047 4138 1716 4138 
Q 1388 4138 1169 3931 
Q 950 3725 888 3313 
L 325 3413 
Q 428 3978 793 4289 
Q 1159 4600 1703 4600 
Q 2078 4600 2393 4439 
Q 2709 4278 2876 4000 
Q 3044 3722 3044 3409 
Q 3044 3113 2884 2869 
Q 2725 2625 2413 2481 
Q 2819 2388 3044 2092 
Q 3269 1797 3269 1353 
Q 3269 753 2831 336 
Q 2394 -81 1725 -81 
Q 1122 -81 723 278 
Q 325 638 269 1209 
z
" transform="scale(0.015625)"/>
       </defs>
       <use xlink:href="#ArialMT-62"/>
       <use xlink:href="#ArialMT-66" transform="translate(55.615234 0)"/>
       <use xlink:href="#ArialMT-61" transform="translate(83.398438 0)"/>
       <use xlink:href="#ArialMT-63" transform="translate(139.013672 0)"/>
       <use xlink:href="#ArialMT-69" transform="translate(189.013672 0)"/>
       <use xlink:href="#ArialMT-6c" transform="translate(211.230469 0)"/>
       <use xlink:href="#ArialMT-33" transform="translate(233.447266 0)"/>
      </g>
     </g>
    </g>
    <g id="ytick_15">
     <g id="line2d_43">
      <path d="M 65.436094 191.931558 
L 433.19952 191.931558 
" clip-path="url(#p89891db04f)" style="fill: none; stroke: #c0c0c0; stroke-width: 0.25; stroke-linecap: round"/>
     </g>
     <g id="line2d_44"/>
     <g id="text_23">
      <!-- precare -->
      <g style="fill: #333333" transform="translate(31.423281 195.152573) scale(0.09 -0.09)">
       <use xlink:href="#ArialMT-70"/>
       <use xlink:href="#ArialMT-72" transform="translate(55.615234 0)"/>
       <use xlink:href="#ArialMT-65" transform="translate(88.916016 0)"/>
       <use xlink:href="#ArialMT-63" transform="translate(144.53125 0)"/>
       <use xlink:href="#ArialMT-61" transform="translate(194.53125 0)"/>
       <use xlink:href="#ArialMT-72" transform="translate(250.146484 0)"/>
       <use xlink:href="#ArialMT-65" transform="translate(283.447266 0)"/>
      </g>
     </g>
    </g>
    <g id="ytick_16">
     <g id="line2d_45">
      <path d="M 65.436094 176.952183 
L 433.19952 176.952183 
" clip-path="url(#p89891db04f)" style="fill: none; stroke: #c0c0c0; stroke-width: 0.25; stroke-linecap: round"/>
     </g>
     <g id="line2d_46"/>
     <g id="text_24">
      <!-- year -->
      <g style="fill: #333333" transform="translate(44.429688 180.120464) scale(0.09 -0.09)">
       <use xlink:href="#ArialMT-79"/>
       <use xlink:href="#ArialMT-65" transform="translate(50 0)"/>
       <use xlink:href="#ArialMT-61" transform="translate(105.615234 0)"/>
       <use xlink:href="#ArialMT-72" transform="translate(161.230469 0)"/>
      </g>
     </g>
    </g>
    <g id="ytick_17">
     <g id="line2d_47">
      <path d="M 65.436094 161.972808 
L 433.19952 161.972808 
" clip-path="url(#p89891db04f)" style="fill: none; stroke: #c0c0c0; stroke-width: 0.25; stroke-linecap: round"/>
     </g>
     <g id="line2d_48"/>
     <g id="text_25">
      <!-- wtgain -->
      <g style="fill: #333333" transform="translate(35.921875 165.193824) scale(0.09 -0.09)">
       <defs>
        <path id="ArialMT-77" d="M 1034 0 
L 19 3319 
L 600 3319 
L 1128 1403 
L 1325 691 
Q 1338 744 1497 1375 
L 2025 3319 
L 2603 3319 
L 3100 1394 
L 3266 759 
L 3456 1400 
L 4025 3319 
L 4572 3319 
L 3534 0 
L 2950 0 
L 2422 1988 
L 2294 2553 
L 1622 0 
L 1034 0 
z
" transform="scale(0.015625)"/>
       </defs>
       <use xlink:href="#ArialMT-77"/>
       <use xlink:href="#ArialMT-74" transform="translate(72.216797 0)"/>
       <use xlink:href="#ArialMT-67" transform="translate(100 0)"/>
       <use xlink:href="#ArialMT-61" transform="translate(155.615234 0)"/>
       <use xlink:href="#ArialMT-69" transform="translate(211.230469 0)"/>
       <use xlink:href="#ArialMT-6e" transform="translate(233.447266 0)"/>
      </g>
     </g>
    </g>
    <g id="ytick_18">
     <g id="line2d_49">
      <path d="M 65.436094 146.993434 
L 433.19952 146.993434 
" clip-path="url(#p89891db04f)" style="fill: none; stroke: #c0c0c0; stroke-width: 0.25; stroke-linecap: round"/>
     </g>
     <g id="line2d_50"/>
     <g id="text_26">
      <!-- meduc -->
      <g style="fill: #333333" transform="translate(34.924844 150.214449) scale(0.09 -0.09)">
       <defs>
        <path id="ArialMT-64" d="M 2575 0 
L 2575 419 
Q 2259 -75 1647 -75 
Q 1250 -75 917 144 
Q 584 363 401 755 
Q 219 1147 219 1656 
Q 219 2153 384 2558 
Q 550 2963 881 3178 
Q 1213 3394 1622 3394 
Q 1922 3394 2156 3267 
Q 2391 3141 2538 2938 
L 2538 4581 
L 3097 4581 
L 3097 0 
L 2575 0 
z
M 797 1656 
Q 797 1019 1065 703 
Q 1334 388 1700 388 
Q 2069 388 2326 689 
Q 2584 991 2584 1609 
Q 2584 2291 2321 2609 
Q 2059 2928 1675 2928 
Q 1300 2928 1048 2622 
Q 797 2316 797 1656 
z
" transform="scale(0.015625)"/>
        <path id="ArialMT-75" d="M 2597 0 
L 2597 488 
Q 2209 -75 1544 -75 
Q 1250 -75 995 37 
Q 741 150 617 320 
Q 494 491 444 738 
Q 409 903 409 1263 
L 409 3319 
L 972 3319 
L 972 1478 
Q 972 1038 1006 884 
Q 1059 663 1231 536 
Q 1403 409 1656 409 
Q 1909 409 2131 539 
Q 2353 669 2445 892 
Q 2538 1116 2538 1541 
L 2538 3319 
L 3100 3319 
L 3100 0 
L 2597 0 
z
" transform="scale(0.015625)"/>
       </defs>
       <use xlink:href="#ArialMT-6d"/>
       <use xlink:href="#ArialMT-65" transform="translate(83.300781 0)"/>
       <use xlink:href="#ArialMT-64" transform="translate(138.916016 0)"/>
       <use xlink:href="#ArialMT-75" transform="translate(194.53125 0)"/>
       <use xlink:href="#ArialMT-63" transform="translate(250.146484 0)"/>
      </g>
     </g>
    </g>
    <g id="ytick_19">
     <g id="line2d_51">
      <path d="M 65.436094 132.014059 
L 433.19952 132.014059 
" clip-path="url(#p89891db04f)" style="fill: none; stroke: #c0c0c0; stroke-width: 0.25; stroke-linecap: round"/>
     </g>
     <g id="line2d_52"/>
     <g id="text_27">
      <!-- mracehisp -->
      <g style="fill: #333333" transform="translate(20.423594 135.235075) scale(0.09 -0.09)">
       <use xlink:href="#ArialMT-6d"/>
       <use xlink:href="#ArialMT-72" transform="translate(83.300781 0)"/>
       <use xlink:href="#ArialMT-61" transform="translate(116.601562 0)"/>
       <use xlink:href="#ArialMT-63" transform="translate(172.216797 0)"/>
       <use xlink:href="#ArialMT-65" transform="translate(222.216797 0)"/>
       <use xlink:href="#ArialMT-68" transform="translate(277.832031 0)"/>
       <use xlink:href="#ArialMT-69" transform="translate(333.447266 0)"/>
       <use xlink:href="#ArialMT-73" transform="translate(355.664062 0)"/>
       <use xlink:href="#ArialMT-70" transform="translate(405.664062 0)"/>
      </g>
     </g>
    </g>
    <g id="ytick_20">
     <g id="line2d_53">
      <path d="M 65.436094 117.034685 
L 433.19952 117.034685 
" clip-path="url(#p89891db04f)" style="fill: none; stroke: #c0c0c0; stroke-width: 0.25; stroke-linecap: round"/>
     </g>
     <g id="line2d_54"/>
     <g id="text_28">
      <!-- dmeth_rec -->
      <g style="fill: #333333" transform="translate(19.418125 120.2557) scale(0.09 -0.09)">
       <use xlink:href="#ArialMT-64"/>
       <use xlink:href="#ArialMT-6d" transform="translate(55.615234 0)"/>
       <use xlink:href="#ArialMT-65" transform="translate(138.916016 0)"/>
       <use xlink:href="#ArialMT-74" transform="translate(194.53125 0)"/>
       <use xlink:href="#ArialMT-68" transform="translate(222.314453 0)"/>
       <use xlink:href="#ArialMT-5f" transform="translate(277.929688 0)"/>
       <use xlink:href="#ArialMT-72" transform="translate(333.544922 0)"/>
       <use xlink:href="#ArialMT-65" transform="translate(366.845703 0)"/>
       <use xlink:href="#ArialMT-63" transform="translate(422.460938 0)"/>
      </g>
     </g>
    </g>
    <g id="ytick_21">
     <g id="line2d_55">
      <path d="M 65.436094 102.05531 
L 433.19952 102.05531 
" clip-path="url(#p89891db04f)" style="fill: none; stroke: #c0c0c0; stroke-width: 0.25; stroke-linecap: round"/>
     </g>
     <g id="line2d_56"/>
     <g id="text_29">
      <!-- gestrec10 -->
      <g style="fill: #333333" transform="translate(22.414844 105.289685) scale(0.09 -0.09)">
       <use xlink:href="#ArialMT-67"/>
       <use xlink:href="#ArialMT-65" transform="translate(55.615234 0)"/>
       <use xlink:href="#ArialMT-73" transform="translate(111.230469 0)"/>
       <use xlink:href="#ArialMT-74" transform="translate(161.230469 0)"/>
       <use xlink:href="#ArialMT-72" transform="translate(189.013672 0)"/>
       <use xlink:href="#ArialMT-65" transform="translate(222.314453 0)"/>
       <use xlink:href="#ArialMT-63" transform="translate(277.929688 0)"/>
       <use xlink:href="#ArialMT-31" transform="translate(327.929688 0)"/>
       <use xlink:href="#ArialMT-30" transform="translate(383.544922 0)"/>
      </g>
     </g>
    </g>
    <g id="ytick_22">
     <g id="line2d_57">
      <path d="M 65.436094 87.075936 
L 433.19952 87.075936 
" clip-path="url(#p89891db04f)" style="fill: none; stroke: #c0c0c0; stroke-width: 0.25; stroke-linecap: round"/>
     </g>
     <g id="line2d_58"/>
     <g id="text_30">
      <!-- dbwt -->
      <g style="fill: #333333" transform="translate(42.926406 90.296951) scale(0.09 -0.09)">
       <use xlink:href="#ArialMT-64"/>
       <use xlink:href="#ArialMT-62" transform="translate(55.615234 0)"/>
       <use xlink:href="#ArialMT-77" transform="translate(111.230469 0)"/>
       <use xlink:href="#ArialMT-74" transform="translate(183.447266 0)"/>
      </g>
     </g>
    </g>
    <g id="ytick_23">
     <g id="line2d_59">
      <path d="M 65.436094 72.096561 
L 433.19952 72.096561 
" clip-path="url(#p89891db04f)" style="fill: none; stroke: #c0c0c0; stroke-width: 0.25; stroke-linecap: round"/>
     </g>
     <g id="line2d_60"/>
     <g id="text_31">
      <!-- ab_nicu -->
      <g style="fill: #333333" transform="translate(30.412187 75.317577) scale(0.09 -0.09)">
       <use xlink:href="#ArialMT-61"/>
       <use xlink:href="#ArialMT-62" transform="translate(55.615234 0)"/>
       <use xlink:href="#ArialMT-5f" transform="translate(111.230469 0)"/>
       <use xlink:href="#ArialMT-6e" transform="translate(166.845703 0)"/>
       <use xlink:href="#ArialMT-69" transform="translate(222.460938 0)"/>
       <use xlink:href="#ArialMT-63" transform="translate(244.677734 0)"/>
       <use xlink:href="#ArialMT-75" transform="translate(294.677734 0)"/>
      </g>
     </g>
    </g>
    <g id="ytick_24">
     <g id="line2d_61">
      <path d="M 65.436094 57.117186 
L 433.19952 57.117186 
" clip-path="url(#p89891db04f)" style="fill: none; stroke: #c0c0c0; stroke-width: 0.25; stroke-linecap: round"/>
     </g>
     <g id="line2d_62"/>
     <g id="text_32">
      <!-- mage_c -->
      <g style="fill: #333333" transform="translate(29.92 60.285468) scale(0.09 -0.09)">
       <use xlink:href="#ArialMT-6d"/>
       <use xlink:href="#ArialMT-61" transform="translate(83.300781 0)"/>
       <use xlink:href="#ArialMT-67" transform="translate(138.916016 0)"/>
       <use xlink:href="#ArialMT-65" transform="translate(194.53125 0)"/>
       <use xlink:href="#ArialMT-5f" transform="translate(250.146484 0)"/>
       <use xlink:href="#ArialMT-63" transform="translate(305.761719 0)"/>
      </g>
     </g>
    </g>
    <g id="ytick_25">
     <g id="line2d_63">
      <path d="M 65.436094 42.137812 
L 433.19952 42.137812 
" clip-path="url(#p89891db04f)" style="fill: none; stroke: #c0c0c0; stroke-width: 0.25; stroke-linecap: round"/>
     </g>
     <g id="line2d_64"/>
     <g id="text_33">
      <!-- ca_cchd -->
      <g style="fill: #333333" transform="translate(28.416719 45.358827) scale(0.09 -0.09)">
       <use xlink:href="#ArialMT-63"/>
       <use xlink:href="#ArialMT-61" transform="translate(50 0)"/>
       <use xlink:href="#ArialMT-5f" transform="translate(105.615234 0)"/>
       <use xlink:href="#ArialMT-63" transform="translate(161.230469 0)"/>
       <use xlink:href="#ArialMT-63" transform="translate(211.230469 0)"/>
       <use xlink:href="#ArialMT-68" transform="translate(261.230469 0)"/>
       <use xlink:href="#ArialMT-64" transform="translate(316.845703 0)"/>
      </g>
     </g>
    </g>
    <g id="ytick_26">
     <g id="line2d_65">
      <path d="M 65.436094 27.158437 
L 433.19952 27.158437 
" clip-path="url(#p89891db04f)" style="fill: none; stroke: #c0c0c0; stroke-width: 0.25; stroke-linecap: round"/>
     </g>
     <g id="line2d_66"/>
     <g id="text_34">
      <!-- ca_disor -->
      <g style="fill: #333333" transform="translate(27.920313 30.379453) scale(0.09 -0.09)">
       <defs>
        <path id="ArialMT-6f" d="M 213 1659 
Q 213 2581 725 3025 
Q 1153 3394 1769 3394 
Q 2453 3394 2887 2945 
Q 3322 2497 3322 1706 
Q 3322 1066 3130 698 
Q 2938 331 2570 128 
Q 2203 -75 1769 -75 
Q 1072 -75 642 372 
Q 213 819 213 1659 
z
M 791 1659 
Q 791 1022 1069 705 
Q 1347 388 1769 388 
Q 2188 388 2466 706 
Q 2744 1025 2744 1678 
Q 2744 2294 2464 2611 
Q 2184 2928 1769 2928 
Q 1347 2928 1069 2612 
Q 791 2297 791 1659 
z
" transform="scale(0.015625)"/>
       </defs>
       <use xlink:href="#ArialMT-63"/>
       <use xlink:href="#ArialMT-61" transform="translate(50 0)"/>
       <use xlink:href="#ArialMT-5f" transform="translate(105.615234 0)"/>
       <use xlink:href="#ArialMT-64" transform="translate(161.230469 0)"/>
       <use xlink:href="#ArialMT-69" transform="translate(216.845703 0)"/>
       <use xlink:href="#ArialMT-73" transform="translate(239.0625 0)"/>
       <use xlink:href="#ArialMT-6f" transform="translate(289.0625 0)"/>
       <use xlink:href="#ArialMT-72" transform="translate(344.677734 0)"/>
      </g>
     </g>
    </g>
    <g id="text_35">
     <!-- Predictor variable -->
     <g style="fill: #333333" transform="translate(13.642031 252.415776) rotate(-90) scale(0.09 -0.09)">
      <defs>
       <path id="Arial-BoldMT-50" d="M 466 0 
L 466 4581 
L 1950 4581 
Q 2794 4581 3050 4513 
Q 3444 4409 3709 4064 
Q 3975 3719 3975 3172 
Q 3975 2750 3822 2462 
Q 3669 2175 3433 2011 
Q 3197 1847 2953 1794 
Q 2622 1728 1994 1728 
L 1391 1728 
L 1391 0 
L 466 0 
z
M 1391 3806 
L 1391 2506 
L 1897 2506 
Q 2444 2506 2628 2578 
Q 2813 2650 2917 2803 
Q 3022 2956 3022 3159 
Q 3022 3409 2875 3571 
Q 2728 3734 2503 3775 
Q 2338 3806 1838 3806 
L 1391 3806 
z
" transform="scale(0.015625)"/>
       <path id="Arial-BoldMT-64" d="M 3503 0 
L 2688 0 
L 2688 488 
Q 2484 203 2207 64 
Q 1931 -75 1650 -75 
Q 1078 -75 670 386 
Q 263 847 263 1672 
Q 263 2516 659 2955 
Q 1056 3394 1663 3394 
Q 2219 3394 2625 2931 
L 2625 4581 
L 3503 4581 
L 3503 0 
z
M 1159 1731 
Q 1159 1200 1306 963 
Q 1519 619 1900 619 
Q 2203 619 2415 876 
Q 2628 1134 2628 1647 
Q 2628 2219 2422 2470 
Q 2216 2722 1894 2722 
Q 1581 2722 1370 2473 
Q 1159 2225 1159 1731 
z
" transform="scale(0.015625)"/>
       <path id="Arial-BoldMT-74" d="M 1981 3319 
L 1981 2619 
L 1381 2619 
L 1381 1281 
Q 1381 875 1398 808 
Q 1416 741 1477 697 
Q 1538 653 1625 653 
Q 1747 653 1978 738 
L 2053 56 
Q 1747 -75 1359 -75 
Q 1122 -75 931 4 
Q 741 84 652 211 
Q 563 338 528 553 
Q 500 706 500 1172 
L 500 2619 
L 97 2619 
L 97 3319 
L 500 3319 
L 500 3978 
L 1381 4491 
L 1381 3319 
L 1981 3319 
z
" transform="scale(0.015625)"/>
       <path id="Arial-BoldMT-62" d="M 422 0 
L 422 4581 
L 1300 4581 
L 1300 2931 
Q 1706 3394 2263 3394 
Q 2869 3394 3266 2955 
Q 3663 2516 3663 1694 
Q 3663 844 3258 384 
Q 2853 -75 2275 -75 
Q 1991 -75 1714 67 
Q 1438 209 1238 488 
L 1238 0 
L 422 0 
z
M 1294 1731 
Q 1294 1216 1456 969 
Q 1684 619 2063 619 
Q 2353 619 2558 867 
Q 2763 1116 2763 1650 
Q 2763 2219 2556 2470 
Q 2350 2722 2028 2722 
Q 1713 2722 1503 2476 
Q 1294 2231 1294 1731 
z
" transform="scale(0.015625)"/>
       <path id="Arial-BoldMT-6c" d="M 459 0 
L 459 4581 
L 1338 4581 
L 1338 0 
L 459 0 
z
" transform="scale(0.015625)"/>
      </defs>
      <use xlink:href="#Arial-BoldMT-50"/>
      <use xlink:href="#Arial-BoldMT-72" transform="translate(66.699219 0)"/>
      <use xlink:href="#Arial-BoldMT-65" transform="translate(105.615234 0)"/>
      <use xlink:href="#Arial-BoldMT-64" transform="translate(161.230469 0)"/>
      <use xlink:href="#Arial-BoldMT-69" transform="translate(222.314453 0)"/>
      <use xlink:href="#Arial-BoldMT-63" transform="translate(250.097656 0)"/>
      <use xlink:href="#Arial-BoldMT-74" transform="translate(305.712891 0)"/>
      <use xlink:href="#Arial-BoldMT-6f" transform="translate(339.013672 0)"/>
      <use xlink:href="#Arial-BoldMT-72" transform="translate(400.097656 0)"/>
      <use xlink:href="#Arial-BoldMT-20" transform="translate(439.013672 0)"/>
      <use xlink:href="#Arial-BoldMT-76" transform="translate(466.796875 0)"/>
      <use xlink:href="#Arial-BoldMT-61" transform="translate(522.412109 0)"/>
      <use xlink:href="#Arial-BoldMT-72" transform="translate(578.027344 0)"/>
      <use xlink:href="#Arial-BoldMT-69" transform="translate(616.943359 0)"/>
      <use xlink:href="#Arial-BoldMT-61" transform="translate(644.726562 0)"/>
      <use xlink:href="#Arial-BoldMT-62" transform="translate(700.341797 0)"/>
      <use xlink:href="#Arial-BoldMT-6c" transform="translate(761.425781 0)"/>
      <use xlink:href="#Arial-BoldMT-65" transform="translate(789.208984 0)"/>
     </g>
    </g>
   </g>
   <g id="line2d_67">
    <path d="M 87.366502 405.387645 
L 87.366502 397.897958 
L 90.697091 397.897958 
L 90.697091 405.387645 
L 87.366502 405.387645 
" clip-path="url(#p89891db04f)" style="fill: none; stroke: #1f77b4; stroke-linecap: round"/>
   </g>
   <g id="line2d_68">
    <path d="M 87.366502 401.642801 
L 82.152613 401.642801 
" clip-path="url(#p89891db04f)" style="fill: none; stroke: #1f77b4; stroke-linecap: round"/>
   </g>
   <g id="line2d_69">
    <path d="M 90.697091 401.642801 
L 94.808208 401.642801 
" clip-path="url(#p89891db04f)" style="fill: none; stroke: #1f77b4; stroke-linecap: round"/>
   </g>
   <g id="line2d_70">
    <path d="M 82.152613 403.515223 
L 82.152613 399.77038 
" clip-path="url(#p89891db04f)" style="fill: none; stroke: #1f77b4; stroke-linecap: round"/>
   </g>
   <g id="line2d_71">
    <path d="M 94.808208 403.515223 
L 94.808208 399.77038 
" clip-path="url(#p89891db04f)" style="fill: none; stroke: #1f77b4; stroke-linecap: round"/>
   </g>
   <g id="line2d_72"/>
   <g id="line2d_73">
    <path d="M 89.914095 390.408271 
L 89.914095 382.918583 
L 93.808544 382.918583 
L 93.808544 390.408271 
L 89.914095 390.408271 
" clip-path="url(#p89891db04f)" style="fill: none; stroke: #1f77b4; stroke-linecap: round"/>
   </g>
   <g id="line2d_74">
    <path d="M 89.914095 386.663427 
L 88.998392 386.663427 
" clip-path="url(#p89891db04f)" style="fill: none; stroke: #1f77b4; stroke-linecap: round"/>
   </g>
   <g id="line2d_75">
    <path d="M 93.808544 386.663427 
L 97.607084 386.663427 
" clip-path="url(#p89891db04f)" style="fill: none; stroke: #1f77b4; stroke-linecap: round"/>
   </g>
   <g id="line2d_76">
    <path d="M 88.998392 388.535849 
L 88.998392 384.791005 
" clip-path="url(#p89891db04f)" style="fill: none; stroke: #1f77b4; stroke-linecap: round"/>
   </g>
   <g id="line2d_77">
    <path d="M 97.607084 388.535849 
L 97.607084 384.791005 
" clip-path="url(#p89891db04f)" style="fill: none; stroke: #1f77b4; stroke-linecap: round"/>
   </g>
   <g id="line2d_78"/>
   <g id="line2d_79">
    <path d="M 92.023383 375.428896 
L 92.023383 367.939209 
L 93.197614 367.939209 
L 93.197614 375.428896 
L 92.023383 375.428896 
" clip-path="url(#p89891db04f)" style="fill: none; stroke: #1f77b4; stroke-linecap: round"/>
   </g>
   <g id="line2d_80">
    <path d="M 92.023383 371.684052 
L 90.570348 371.684052 
" clip-path="url(#p89891db04f)" style="fill: none; stroke: #1f77b4; stroke-linecap: round"/>
   </g>
   <g id="line2d_81">
    <path d="M 93.197614 371.684052 
L 93.846271 371.684052 
" clip-path="url(#p89891db04f)" style="fill: none; stroke: #1f77b4; stroke-linecap: round"/>
   </g>
   <g id="line2d_82">
    <path d="M 90.570348 373.556474 
L 90.570348 369.811631 
" clip-path="url(#p89891db04f)" style="fill: none; stroke: #1f77b4; stroke-linecap: round"/>
   </g>
   <g id="line2d_83">
    <path d="M 93.846271 373.556474 
L 93.846271 369.811631 
" clip-path="url(#p89891db04f)" style="fill: none; stroke: #1f77b4; stroke-linecap: round"/>
   </g>
   <g id="line2d_84"/>
   <g id="line2d_85">
    <path d="M 91.210671 360.449521 
L 91.210671 352.959834 
L 94.472299 352.959834 
L 94.472299 360.449521 
L 91.210671 360.449521 
" clip-path="url(#p89891db04f)" style="fill: none; stroke: #1f77b4; stroke-linecap: round"/>
   </g>
   <g id="line2d_86">
    <path d="M 91.210671 356.704678 
L 88.190185 356.704678 
" clip-path="url(#p89891db04f)" style="fill: none; stroke: #1f77b4; stroke-linecap: round"/>
   </g>
   <g id="line2d_87">
    <path d="M 94.472299 356.704678 
L 97.247434 356.704678 
" clip-path="url(#p89891db04f)" style="fill: none; stroke: #1f77b4; stroke-linecap: round"/>
   </g>
   <g id="line2d_88">
    <path d="M 88.190185 358.5771 
L 88.190185 354.832256 
" clip-path="url(#p89891db04f)" style="fill: none; stroke: #1f77b4; stroke-linecap: round"/>
   </g>
   <g id="line2d_89">
    <path d="M 97.247434 358.5771 
L 97.247434 354.832256 
" clip-path="url(#p89891db04f)" style="fill: none; stroke: #1f77b4; stroke-linecap: round"/>
   </g>
   <g id="line2d_90"/>
   <g id="line2d_91">
    <path d="M 90.709169 345.470147 
L 90.709169 337.98046 
L 94.566473 337.98046 
L 94.566473 345.470147 
L 90.709169 345.470147 
" clip-path="url(#p89891db04f)" style="fill: none; stroke: #1f77b4; stroke-linecap: round"/>
   </g>
   <g id="line2d_92">
    <path d="M 90.709169 341.725303 
L 89.019814 341.725303 
" clip-path="url(#p89891db04f)" style="fill: none; stroke: #1f77b4; stroke-linecap: round"/>
   </g>
   <g id="line2d_93">
    <path d="M 94.566473 341.725303 
L 96.697033 341.725303 
" clip-path="url(#p89891db04f)" style="fill: none; stroke: #1f77b4; stroke-linecap: round"/>
   </g>
   <g id="line2d_94">
    <path d="M 89.019814 343.597725 
L 89.019814 339.852881 
" clip-path="url(#p89891db04f)" style="fill: none; stroke: #1f77b4; stroke-linecap: round"/>
   </g>
   <g id="line2d_95">
    <path d="M 96.697033 343.597725 
L 96.697033 339.852881 
" clip-path="url(#p89891db04f)" style="fill: none; stroke: #1f77b4; stroke-linecap: round"/>
   </g>
   <g id="line2d_96"/>
   <g id="line2d_97">
    <path d="M 91.557457 330.490772 
L 91.557457 323.001085 
L 94.020713 323.001085 
L 94.020713 330.490772 
L 91.557457 330.490772 
" clip-path="url(#p89891db04f)" style="fill: none; stroke: #1f77b4; stroke-linecap: round"/>
   </g>
   <g id="line2d_98">
    <path d="M 91.557457 326.745929 
L 90.458302 326.745929 
" clip-path="url(#p89891db04f)" style="fill: none; stroke: #1f77b4; stroke-linecap: round"/>
   </g>
   <g id="line2d_99">
    <path d="M 94.020713 326.745929 
L 96.41339 326.745929 
" clip-path="url(#p89891db04f)" style="fill: none; stroke: #1f77b4; stroke-linecap: round"/>
   </g>
   <g id="line2d_100">
    <path d="M 90.458302 328.61835 
L 90.458302 324.873507 
" clip-path="url(#p89891db04f)" style="fill: none; stroke: #1f77b4; stroke-linecap: round"/>
   </g>
   <g id="line2d_101">
    <path d="M 96.41339 328.61835 
L 96.41339 324.873507 
" clip-path="url(#p89891db04f)" style="fill: none; stroke: #1f77b4; stroke-linecap: round"/>
   </g>
   <g id="line2d_102"/>
   <g id="line2d_103">
    <path d="M 93.380552 315.511398 
L 93.380552 308.02171 
L 94.276146 308.02171 
L 94.276146 315.511398 
L 93.380552 315.511398 
" clip-path="url(#p89891db04f)" style="fill: none; stroke: #1f77b4; stroke-linecap: round"/>
   </g>
   <g id="line2d_104">
    <path d="M 93.380552 311.766554 
L 92.193788 311.766554 
" clip-path="url(#p89891db04f)" style="fill: none; stroke: #1f77b4; stroke-linecap: round"/>
   </g>
   <g id="line2d_105">
    <path d="M 94.276146 311.766554 
L 95.177685 311.766554 
" clip-path="url(#p89891db04f)" style="fill: none; stroke: #1f77b4; stroke-linecap: round"/>
   </g>
   <g id="line2d_106">
    <path d="M 92.193788 313.638976 
L 92.193788 309.894132 
" clip-path="url(#p89891db04f)" style="fill: none; stroke: #1f77b4; stroke-linecap: round"/>
   </g>
   <g id="line2d_107">
    <path d="M 95.177685 313.638976 
L 95.177685 309.894132 
" clip-path="url(#p89891db04f)" style="fill: none; stroke: #1f77b4; stroke-linecap: round"/>
   </g>
   <g id="line2d_108"/>
   <g id="line2d_109">
    <path d="M 92.686639 300.532023 
L 92.686639 293.042336 
L 95.117003 293.042336 
L 95.117003 300.532023 
L 92.686639 300.532023 
" clip-path="url(#p89891db04f)" style="fill: none; stroke: #1f77b4; stroke-linecap: round"/>
   </g>
   <g id="line2d_110">
    <path d="M 92.686639 296.787179 
L 90.925746 296.787179 
" clip-path="url(#p89891db04f)" style="fill: none; stroke: #1f77b4; stroke-linecap: round"/>
   </g>
   <g id="line2d_111">
    <path d="M 95.117003 296.787179 
L 97.082966 296.787179 
" clip-path="url(#p89891db04f)" style="fill: none; stroke: #1f77b4; stroke-linecap: round"/>
   </g>
   <g id="line2d_112">
    <path d="M 90.925746 298.659601 
L 90.925746 294.914758 
" clip-path="url(#p89891db04f)" style="fill: none; stroke: #1f77b4; stroke-linecap: round"/>
   </g>
   <g id="line2d_113">
    <path d="M 97.082966 298.659601 
L 97.082966 294.914758 
" clip-path="url(#p89891db04f)" style="fill: none; stroke: #1f77b4; stroke-linecap: round"/>
   </g>
   <g id="line2d_114"/>
   <g id="line2d_115">
    <path d="M 92.9144 285.552649 
L 92.9144 278.062961 
L 97.685557 278.062961 
L 97.685557 285.552649 
L 92.9144 285.552649 
" clip-path="url(#p89891db04f)" style="fill: none; stroke: #1f77b4; stroke-linecap: round"/>
   </g>
   <g id="line2d_116">
    <path d="M 92.9144 281.807805 
L 88.170997 281.807805 
" clip-path="url(#p89891db04f)" style="fill: none; stroke: #1f77b4; stroke-linecap: round"/>
   </g>
   <g id="line2d_117">
    <path d="M 97.685557 281.807805 
L 103.663895 281.807805 
" clip-path="url(#p89891db04f)" style="fill: none; stroke: #1f77b4; stroke-linecap: round"/>
   </g>
   <g id="line2d_118">
    <path d="M 88.170997 283.680227 
L 88.170997 279.935383 
" clip-path="url(#p89891db04f)" style="fill: none; stroke: #1f77b4; stroke-linecap: round"/>
   </g>
   <g id="line2d_119">
    <path d="M 103.663895 283.680227 
L 103.663895 279.935383 
" clip-path="url(#p89891db04f)" style="fill: none; stroke: #1f77b4; stroke-linecap: round"/>
   </g>
   <g id="line2d_120"/>
   <g id="line2d_121">
    <path d="M 91.067139 270.573274 
L 91.067139 263.083587 
L 99.530182 263.083587 
L 99.530182 270.573274 
L 91.067139 270.573274 
" clip-path="url(#p89891db04f)" style="fill: none; stroke: #1f77b4; stroke-linecap: round"/>
   </g>
   <g id="line2d_122">
    <path d="M 91.067139 266.82843 
L 82.850647 266.82843 
" clip-path="url(#p89891db04f)" style="fill: none; stroke: #1f77b4; stroke-linecap: round"/>
   </g>
   <g id="line2d_123">
    <path d="M 99.530182 266.82843 
L 107.287019 266.82843 
" clip-path="url(#p89891db04f)" style="fill: none; stroke: #1f77b4; stroke-linecap: round"/>
   </g>
   <g id="line2d_124">
    <path d="M 82.850647 268.700852 
L 82.850647 264.956009 
" clip-path="url(#p89891db04f)" style="fill: none; stroke: #1f77b4; stroke-linecap: round"/>
   </g>
   <g id="line2d_125">
    <path d="M 107.287019 268.700852 
L 107.287019 264.956009 
" clip-path="url(#p89891db04f)" style="fill: none; stroke: #1f77b4; stroke-linecap: round"/>
   </g>
   <g id="line2d_126"/>
   <g id="line2d_127">
    <path d="M 90.377268 255.593899 
L 90.377268 248.104212 
L 100.260133 248.104212 
L 100.260133 255.593899 
L 90.377268 255.593899 
" clip-path="url(#p89891db04f)" style="fill: none; stroke: #1f77b4; stroke-linecap: round"/>
   </g>
   <g id="line2d_128">
    <path d="M 90.377268 251.849056 
L 84.909909 251.849056 
" clip-path="url(#p89891db04f)" style="fill: none; stroke: #1f77b4; stroke-linecap: round"/>
   </g>
   <g id="line2d_129">
    <path d="M 100.260133 251.849056 
L 109.66839 251.849056 
" clip-path="url(#p89891db04f)" style="fill: none; stroke: #1f77b4; stroke-linecap: round"/>
   </g>
   <g id="line2d_130">
    <path d="M 84.909909 253.721478 
L 84.909909 249.976634 
" clip-path="url(#p89891db04f)" style="fill: none; stroke: #1f77b4; stroke-linecap: round"/>
   </g>
   <g id="line2d_131">
    <path d="M 109.66839 253.721478 
L 109.66839 249.976634 
" clip-path="url(#p89891db04f)" style="fill: none; stroke: #1f77b4; stroke-linecap: round"/>
   </g>
   <g id="line2d_132"/>
   <g id="line2d_133">
    <path d="M 94.897568 240.614525 
L 94.897568 233.124838 
L 97.284197 233.124838 
L 97.284197 240.614525 
L 94.897568 240.614525 
" clip-path="url(#p89891db04f)" style="fill: none; stroke: #1f77b4; stroke-linecap: round"/>
   </g>
   <g id="line2d_134">
    <path d="M 94.897568 236.869681 
L 91.841392 236.869681 
" clip-path="url(#p89891db04f)" style="fill: none; stroke: #1f77b4; stroke-linecap: round"/>
   </g>
   <g id="line2d_135">
    <path d="M 97.284197 236.869681 
L 102.521075 236.869681 
" clip-path="url(#p89891db04f)" style="fill: none; stroke: #1f77b4; stroke-linecap: round"/>
   </g>
   <g id="line2d_136">
    <path d="M 91.841392 238.742103 
L 91.841392 234.997259 
" clip-path="url(#p89891db04f)" style="fill: none; stroke: #1f77b4; stroke-linecap: round"/>
   </g>
   <g id="line2d_137">
    <path d="M 102.521075 238.742103 
L 102.521075 234.997259 
" clip-path="url(#p89891db04f)" style="fill: none; stroke: #1f77b4; stroke-linecap: round"/>
   </g>
   <g id="line2d_138"/>
   <g id="line2d_139">
    <path d="M 95.769946 225.63515 
L 95.769946 218.145463 
L 101.503879 218.145463 
L 101.503879 225.63515 
L 95.769946 225.63515 
" clip-path="url(#p89891db04f)" style="fill: none; stroke: #1f77b4; stroke-linecap: round"/>
   </g>
   <g id="line2d_140">
    <path d="M 95.769946 221.890307 
L 90.535319 221.890307 
" clip-path="url(#p89891db04f)" style="fill: none; stroke: #1f77b4; stroke-linecap: round"/>
   </g>
   <g id="line2d_141">
    <path d="M 101.503879 221.890307 
L 104.62582 221.890307 
" clip-path="url(#p89891db04f)" style="fill: none; stroke: #1f77b4; stroke-linecap: round"/>
   </g>
   <g id="line2d_142">
    <path d="M 90.535319 223.762728 
L 90.535319 220.017885 
" clip-path="url(#p89891db04f)" style="fill: none; stroke: #1f77b4; stroke-linecap: round"/>
   </g>
   <g id="line2d_143">
    <path d="M 104.62582 223.762728 
L 104.62582 220.017885 
" clip-path="url(#p89891db04f)" style="fill: none; stroke: #1f77b4; stroke-linecap: round"/>
   </g>
   <g id="line2d_144"/>
   <g id="line2d_145">
    <path d="M 95.128869 210.655776 
L 95.128869 203.166088 
L 103.958535 203.166088 
L 103.958535 210.655776 
L 95.128869 210.655776 
" clip-path="url(#p89891db04f)" style="fill: none; stroke: #1f77b4; stroke-linecap: round"/>
   </g>
   <g id="line2d_146">
    <path d="M 95.128869 206.910932 
L 88.30837 206.910932 
" clip-path="url(#p89891db04f)" style="fill: none; stroke: #1f77b4; stroke-linecap: round"/>
   </g>
   <g id="line2d_147">
    <path d="M 103.958535 206.910932 
L 107.46808 206.910932 
" clip-path="url(#p89891db04f)" style="fill: none; stroke: #1f77b4; stroke-linecap: round"/>
   </g>
   <g id="line2d_148">
    <path d="M 88.30837 208.783354 
L 88.30837 205.03851 
" clip-path="url(#p89891db04f)" style="fill: none; stroke: #1f77b4; stroke-linecap: round"/>
   </g>
   <g id="line2d_149">
    <path d="M 107.46808 208.783354 
L 107.46808 205.03851 
" clip-path="url(#p89891db04f)" style="fill: none; stroke: #1f77b4; stroke-linecap: round"/>
   </g>
   <g id="line2d_150"/>
   <g id="line2d_151">
    <path d="M 97.54859 195.676401 
L 97.54859 188.186714 
L 104.266283 188.186714 
L 104.266283 195.676401 
L 97.54859 195.676401 
" clip-path="url(#p89891db04f)" style="fill: none; stroke: #1f77b4; stroke-linecap: round"/>
   </g>
   <g id="line2d_152">
    <path d="M 97.54859 191.931558 
L 92.144834 191.931558 
" clip-path="url(#p89891db04f)" style="fill: none; stroke: #1f77b4; stroke-linecap: round"/>
   </g>
   <g id="line2d_153">
    <path d="M 104.266283 191.931558 
L 113.467634 191.931558 
" clip-path="url(#p89891db04f)" style="fill: none; stroke: #1f77b4; stroke-linecap: round"/>
   </g>
   <g id="line2d_154">
    <path d="M 92.144834 193.803979 
L 92.144834 190.059136 
" clip-path="url(#p89891db04f)" style="fill: none; stroke: #1f77b4; stroke-linecap: round"/>
   </g>
   <g id="line2d_155">
    <path d="M 113.467634 193.803979 
L 113.467634 190.059136 
" clip-path="url(#p89891db04f)" style="fill: none; stroke: #1f77b4; stroke-linecap: round"/>
   </g>
   <g id="line2d_156"/>
   <g id="line2d_157">
    <path d="M 100.350836 180.697027 
L 100.350836 173.207339 
L 106.819479 173.207339 
L 106.819479 180.697027 
L 100.350836 180.697027 
" clip-path="url(#p89891db04f)" style="fill: none; stroke: #1f77b4; stroke-linecap: round"/>
   </g>
   <g id="line2d_158">
    <path d="M 100.350836 176.952183 
L 92.106315 176.952183 
" clip-path="url(#p89891db04f)" style="fill: none; stroke: #1f77b4; stroke-linecap: round"/>
   </g>
   <g id="line2d_159">
    <path d="M 106.819479 176.952183 
L 111.259462 176.952183 
" clip-path="url(#p89891db04f)" style="fill: none; stroke: #1f77b4; stroke-linecap: round"/>
   </g>
   <g id="line2d_160">
    <path d="M 92.106315 178.824605 
L 92.106315 175.079761 
" clip-path="url(#p89891db04f)" style="fill: none; stroke: #1f77b4; stroke-linecap: round"/>
   </g>
   <g id="line2d_161">
    <path d="M 111.259462 178.824605 
L 111.259462 175.079761 
" clip-path="url(#p89891db04f)" style="fill: none; stroke: #1f77b4; stroke-linecap: round"/>
   </g>
   <g id="line2d_162"/>
   <g id="line2d_163">
    <path d="M 102.742814 165.717652 
L 102.742814 158.227965 
L 113.254912 158.227965 
L 113.254912 165.717652 
L 102.742814 165.717652 
" clip-path="url(#p89891db04f)" style="fill: none; stroke: #1f77b4; stroke-linecap: round"/>
   </g>
   <g id="line2d_164">
    <path d="M 102.742814 161.972808 
L 93.688012 161.972808 
" clip-path="url(#p89891db04f)" style="fill: none; stroke: #1f77b4; stroke-linecap: round"/>
   </g>
   <g id="line2d_165">
    <path d="M 113.254912 161.972808 
L 117.01631 161.972808 
" clip-path="url(#p89891db04f)" style="fill: none; stroke: #1f77b4; stroke-linecap: round"/>
   </g>
   <g id="line2d_166">
    <path d="M 93.688012 163.84523 
L 93.688012 160.100387 
" clip-path="url(#p89891db04f)" style="fill: none; stroke: #1f77b4; stroke-linecap: round"/>
   </g>
   <g id="line2d_167">
    <path d="M 117.01631 163.84523 
L 117.01631 160.100387 
" clip-path="url(#p89891db04f)" style="fill: none; stroke: #1f77b4; stroke-linecap: round"/>
   </g>
   <g id="line2d_168"/>
   <g id="line2d_169">
    <path d="M 103.669565 150.738277 
L 103.669565 143.24859 
L 112.16509 143.24859 
L 112.16509 150.738277 
L 103.669565 150.738277 
" clip-path="url(#p89891db04f)" style="fill: none; stroke: #1f77b4; stroke-linecap: round"/>
   </g>
   <g id="line2d_170">
    <path d="M 103.669565 146.993434 
L 98.419975 146.993434 
" clip-path="url(#p89891db04f)" style="fill: none; stroke: #1f77b4; stroke-linecap: round"/>
   </g>
   <g id="line2d_171">
    <path d="M 112.16509 146.993434 
L 120.712189 146.993434 
" clip-path="url(#p89891db04f)" style="fill: none; stroke: #1f77b4; stroke-linecap: round"/>
   </g>
   <g id="line2d_172">
    <path d="M 98.419975 148.865856 
L 98.419975 145.121012 
" clip-path="url(#p89891db04f)" style="fill: none; stroke: #1f77b4; stroke-linecap: round"/>
   </g>
   <g id="line2d_173">
    <path d="M 120.712189 148.865856 
L 120.712189 145.121012 
" clip-path="url(#p89891db04f)" style="fill: none; stroke: #1f77b4; stroke-linecap: round"/>
   </g>
   <g id="line2d_174"/>
   <g id="line2d_175">
    <path d="M 107.96217 135.758903 
L 107.96217 128.269216 
L 113.301837 128.269216 
L 113.301837 135.758903 
L 107.96217 135.758903 
" clip-path="url(#p89891db04f)" style="fill: none; stroke: #1f77b4; stroke-linecap: round"/>
   </g>
   <g id="line2d_176">
    <path d="M 107.96217 132.014059 
L 101.899063 132.014059 
" clip-path="url(#p89891db04f)" style="fill: none; stroke: #1f77b4; stroke-linecap: round"/>
   </g>
   <g id="line2d_177">
    <path d="M 113.301837 132.014059 
L 116.759816 132.014059 
" clip-path="url(#p89891db04f)" style="fill: none; stroke: #1f77b4; stroke-linecap: round"/>
   </g>
   <g id="line2d_178">
    <path d="M 101.899063 133.886481 
L 101.899063 130.141637 
" clip-path="url(#p89891db04f)" style="fill: none; stroke: #1f77b4; stroke-linecap: round"/>
   </g>
   <g id="line2d_179">
    <path d="M 116.759816 133.886481 
L 116.759816 130.141637 
" clip-path="url(#p89891db04f)" style="fill: none; stroke: #1f77b4; stroke-linecap: round"/>
   </g>
   <g id="line2d_180"/>
   <g id="line2d_181">
    <path d="M 121.234363 120.779528 
L 121.234363 113.289841 
L 130.352474 113.289841 
L 130.352474 120.779528 
L 121.234363 120.779528 
" clip-path="url(#p89891db04f)" style="fill: none; stroke: #1f77b4; stroke-linecap: round"/>
   </g>
   <g id="line2d_182">
    <path d="M 121.234363 117.034685 
L 106.968297 117.034685 
" clip-path="url(#p89891db04f)" style="fill: none; stroke: #1f77b4; stroke-linecap: round"/>
   </g>
   <g id="line2d_183">
    <path d="M 130.352474 117.034685 
L 134.574413 117.034685 
" clip-path="url(#p89891db04f)" style="fill: none; stroke: #1f77b4; stroke-linecap: round"/>
   </g>
   <g id="line2d_184">
    <path d="M 106.968297 118.907107 
L 106.968297 115.162263 
" clip-path="url(#p89891db04f)" style="fill: none; stroke: #1f77b4; stroke-linecap: round"/>
   </g>
   <g id="line2d_185">
    <path d="M 134.574413 118.907107 
L 134.574413 115.162263 
" clip-path="url(#p89891db04f)" style="fill: none; stroke: #1f77b4; stroke-linecap: round"/>
   </g>
   <g id="line2d_186"/>
   <g id="line2d_187">
    <path d="M 141.433236 105.800154 
L 141.433236 98.310466 
L 152.285711 98.310466 
L 152.285711 105.800154 
L 141.433236 105.800154 
" clip-path="url(#p89891db04f)" style="fill: none; stroke: #1f77b4; stroke-linecap: round"/>
   </g>
   <g id="line2d_188">
    <path d="M 141.433236 102.05531 
L 132.495828 102.05531 
" clip-path="url(#p89891db04f)" style="fill: none; stroke: #1f77b4; stroke-linecap: round"/>
   </g>
   <g id="line2d_189">
    <path d="M 152.285711 102.05531 
L 159.588031 102.05531 
" clip-path="url(#p89891db04f)" style="fill: none; stroke: #1f77b4; stroke-linecap: round"/>
   </g>
   <g id="line2d_190">
    <path d="M 132.495828 103.927732 
L 132.495828 100.182888 
" clip-path="url(#p89891db04f)" style="fill: none; stroke: #1f77b4; stroke-linecap: round"/>
   </g>
   <g id="line2d_191">
    <path d="M 159.588031 103.927732 
L 159.588031 100.182888 
" clip-path="url(#p89891db04f)" style="fill: none; stroke: #1f77b4; stroke-linecap: round"/>
   </g>
   <g id="line2d_192"/>
   <g id="line2d_193">
    <path d="M 184.323366 90.820779 
L 184.323366 83.331092 
L 191.361511 83.331092 
L 191.361511 90.820779 
L 184.323366 90.820779 
" clip-path="url(#p89891db04f)" style="fill: none; stroke: #1f77b4; stroke-linecap: round"/>
   </g>
   <g id="line2d_194">
    <path d="M 184.323366 87.075936 
L 178.266403 87.075936 
" clip-path="url(#p89891db04f)" style="fill: none; stroke: #1f77b4; stroke-linecap: round"/>
   </g>
   <g id="line2d_195">
    <path d="M 191.361511 87.075936 
L 200.940841 87.075936 
" clip-path="url(#p89891db04f)" style="fill: none; stroke: #1f77b4; stroke-linecap: round"/>
   </g>
   <g id="line2d_196">
    <path d="M 178.266403 88.948357 
L 178.266403 85.203514 
" clip-path="url(#p89891db04f)" style="fill: none; stroke: #1f77b4; stroke-linecap: round"/>
   </g>
   <g id="line2d_197">
    <path d="M 200.940841 88.948357 
L 200.940841 85.203514 
" clip-path="url(#p89891db04f)" style="fill: none; stroke: #1f77b4; stroke-linecap: round"/>
   </g>
   <g id="line2d_198"/>
   <g id="line2d_199">
    <path d="M 193.321109 75.841405 
L 193.321109 68.351717 
L 215.625255 68.351717 
L 215.625255 75.841405 
L 193.321109 75.841405 
" clip-path="url(#p89891db04f)" style="fill: none; stroke: #1f77b4; stroke-linecap: round"/>
   </g>
   <g id="line2d_200">
    <path d="M 193.321109 72.096561 
L 184.140534 72.096561 
" clip-path="url(#p89891db04f)" style="fill: none; stroke: #1f77b4; stroke-linecap: round"/>
   </g>
   <g id="line2d_201">
    <path d="M 215.625255 72.096561 
L 229.45577 72.096561 
" clip-path="url(#p89891db04f)" style="fill: none; stroke: #1f77b4; stroke-linecap: round"/>
   </g>
   <g id="line2d_202">
    <path d="M 184.140534 73.968983 
L 184.140534 70.224139 
" clip-path="url(#p89891db04f)" style="fill: none; stroke: #1f77b4; stroke-linecap: round"/>
   </g>
   <g id="line2d_203">
    <path d="M 229.45577 73.968983 
L 229.45577 70.224139 
" clip-path="url(#p89891db04f)" style="fill: none; stroke: #1f77b4; stroke-linecap: round"/>
   </g>
   <g id="line2d_204"/>
   <g id="line2d_205">
    <path d="M 328.051158 60.86203 
L 328.051158 53.372343 
L 343.444616 53.372343 
L 343.444616 60.86203 
L 328.051158 60.86203 
" clip-path="url(#p89891db04f)" style="fill: none; stroke: #1f77b4; stroke-linecap: round"/>
   </g>
   <g id="line2d_206">
    <path d="M 328.051158 57.117186 
L 303.575016 57.117186 
" clip-path="url(#p89891db04f)" style="fill: none; stroke: #1f77b4; stroke-linecap: round"/>
   </g>
   <g id="line2d_207">
    <path d="M 343.444616 57.117186 
L 348.693091 57.117186 
" clip-path="url(#p89891db04f)" style="fill: none; stroke: #1f77b4; stroke-linecap: round"/>
   </g>
   <g id="line2d_208">
    <path d="M 303.575016 58.989608 
L 303.575016 55.244765 
" clip-path="url(#p89891db04f)" style="fill: none; stroke: #1f77b4; stroke-linecap: round"/>
   </g>
   <g id="line2d_209">
    <path d="M 348.693091 58.989608 
L 348.693091 55.244765 
" clip-path="url(#p89891db04f)" style="fill: none; stroke: #1f77b4; stroke-linecap: round"/>
   </g>
   <g id="line2d_210"/>
   <g id="line2d_211">
    <path d="M 389.387787 45.882655 
L 389.387787 38.392968 
L 397.509253 38.392968 
L 397.509253 45.882655 
L 389.387787 45.882655 
" clip-path="url(#p89891db04f)" style="fill: none; stroke: #1f77b4; stroke-linecap: round"/>
   </g>
   <g id="line2d_212">
    <path d="M 389.387787 42.137812 
L 381.633022 42.137812 
" clip-path="url(#p89891db04f)" style="fill: none; stroke: #1f77b4; stroke-linecap: round"/>
   </g>
   <g id="line2d_213">
    <path d="M 397.509253 42.137812 
L 401.089437 42.137812 
" clip-path="url(#p89891db04f)" style="fill: none; stroke: #1f77b4; stroke-linecap: round"/>
   </g>
   <g id="line2d_214">
    <path d="M 381.633022 44.010234 
L 381.633022 40.26539 
" clip-path="url(#p89891db04f)" style="fill: none; stroke: #1f77b4; stroke-linecap: round"/>
   </g>
   <g id="line2d_215">
    <path d="M 401.089437 44.010234 
L 401.089437 40.26539 
" clip-path="url(#p89891db04f)" style="fill: none; stroke: #1f77b4; stroke-linecap: round"/>
   </g>
   <g id="line2d_216"/>
   <g id="line2d_217">
    <path d="M 395.143556 30.903281 
L 395.143556 23.413594 
L 401.527441 23.413594 
L 401.527441 30.903281 
L 395.143556 30.903281 
" clip-path="url(#p89891db04f)" style="fill: none; stroke: #1f77b4; stroke-linecap: round"/>
   </g>
   <g id="line2d_218">
    <path d="M 395.143556 27.158437 
L 376.958134 27.158437 
" clip-path="url(#p89891db04f)" style="fill: none; stroke: #1f77b4; stroke-linecap: round"/>
   </g>
   <g id="line2d_219">
    <path d="M 401.527441 27.158437 
L 416.483001 27.158437 
" clip-path="url(#p89891db04f)" style="fill: none; stroke: #1f77b4; stroke-linecap: round"/>
   </g>
   <g id="line2d_220">
    <path d="M 376.958134 29.030859 
L 376.958134 25.286015 
" clip-path="url(#p89891db04f)" style="fill: none; stroke: #1f77b4; stroke-linecap: round"/>
   </g>
   <g id="line2d_221">
    <path d="M 416.483001 29.030859 
L 416.483001 25.286015 
" clip-path="url(#p89891db04f)" style="fill: none; stroke: #1f77b4; stroke-linecap: round"/>
   </g>
   <g id="line2d_222"/>
   <g id="line2d_223">
    <path d="M 88.970704 409.132489 
L 88.970704 19.66875 
" clip-path="url(#p89891db04f)" style="fill: none; stroke-dasharray: 5.55,2.4; stroke-dashoffset: 0; stroke: #000000; stroke-width: 1.5"/>
   </g>
   <g id="line2d_224">
    <path d="M 88.124186 405.387645 
L 88.124186 397.897958 
" clip-path="url(#p89891db04f)" style="fill: none; stroke: #2ca02c"/>
   </g>
   <g id="line2d_225">
    <path d="M 92.333487 390.408271 
L 92.333487 382.918583 
" clip-path="url(#p89891db04f)" style="fill: none; stroke: #2ca02c"/>
   </g>
   <g id="line2d_226">
    <path d="M 92.571797 375.428896 
L 92.571797 367.939209 
" clip-path="url(#p89891db04f)" style="fill: none; stroke: #2ca02c"/>
   </g>
   <g id="line2d_227">
    <path d="M 92.961133 360.449521 
L 92.961133 352.959834 
" clip-path="url(#p89891db04f)" style="fill: none; stroke: #2ca02c"/>
   </g>
   <g id="line2d_228">
    <path d="M 93.238982 345.470147 
L 93.238982 337.98046 
" clip-path="url(#p89891db04f)" style="fill: none; stroke: #2ca02c"/>
   </g>
   <g id="line2d_229">
    <path d="M 92.893234 330.490772 
L 92.893234 323.001085 
" clip-path="url(#p89891db04f)" style="fill: none; stroke: #2ca02c"/>
   </g>
   <g id="line2d_230">
    <path d="M 93.722801 315.511398 
L 93.722801 308.02171 
" clip-path="url(#p89891db04f)" style="fill: none; stroke: #2ca02c"/>
   </g>
   <g id="line2d_231">
    <path d="M 93.799132 300.532023 
L 93.799132 293.042336 
" clip-path="url(#p89891db04f)" style="fill: none; stroke: #2ca02c"/>
   </g>
   <g id="line2d_232">
    <path d="M 95.054081 285.552649 
L 95.054081 278.062961 
" clip-path="url(#p89891db04f)" style="fill: none; stroke: #2ca02c"/>
   </g>
   <g id="line2d_233">
    <path d="M 94.432513 270.573274 
L 94.432513 263.083587 
" clip-path="url(#p89891db04f)" style="fill: none; stroke: #2ca02c"/>
   </g>
   <g id="line2d_234">
    <path d="M 96.884195 255.593899 
L 96.884195 248.104212 
" clip-path="url(#p89891db04f)" style="fill: none; stroke: #2ca02c"/>
   </g>
   <g id="line2d_235">
    <path d="M 95.978894 240.614525 
L 95.978894 233.124838 
" clip-path="url(#p89891db04f)" style="fill: none; stroke: #2ca02c"/>
   </g>
   <g id="line2d_236">
    <path d="M 97.763022 225.63515 
L 97.763022 218.145463 
" clip-path="url(#p89891db04f)" style="fill: none; stroke: #2ca02c"/>
   </g>
   <g id="line2d_237">
    <path d="M 101.127885 210.655776 
L 101.127885 203.166088 
" clip-path="url(#p89891db04f)" style="fill: none; stroke: #2ca02c"/>
   </g>
   <g id="line2d_238">
    <path d="M 99.768816 195.676401 
L 99.768816 188.186714 
" clip-path="url(#p89891db04f)" style="fill: none; stroke: #2ca02c"/>
   </g>
   <g id="line2d_239">
    <path d="M 105.017449 180.697027 
L 105.017449 173.207339 
" clip-path="url(#p89891db04f)" style="fill: none; stroke: #2ca02c"/>
   </g>
   <g id="line2d_240">
    <path d="M 108.514074 165.717652 
L 108.514074 158.227965 
" clip-path="url(#p89891db04f)" style="fill: none; stroke: #2ca02c"/>
   </g>
   <g id="line2d_241">
    <path d="M 107.994264 150.738277 
L 107.994264 143.24859 
" clip-path="url(#p89891db04f)" style="fill: none; stroke: #2ca02c"/>
   </g>
   <g id="line2d_242">
    <path d="M 108.888203 135.758903 
L 108.888203 128.269216 
" clip-path="url(#p89891db04f)" style="fill: none; stroke: #2ca02c"/>
   </g>
   <g id="line2d_243">
    <path d="M 125.044524 120.779528 
L 125.044524 113.289841 
" clip-path="url(#p89891db04f)" style="fill: none; stroke: #2ca02c"/>
   </g>
   <g id="line2d_244">
    <path d="M 144.870208 105.800154 
L 144.870208 98.310466 
" clip-path="url(#p89891db04f)" style="fill: none; stroke: #2ca02c"/>
   </g>
   <g id="line2d_245">
    <path d="M 187.971685 90.820779 
L 187.971685 83.331092 
" clip-path="url(#p89891db04f)" style="fill: none; stroke: #2ca02c"/>
   </g>
   <g id="line2d_246">
    <path d="M 200.520413 75.841405 
L 200.520413 68.351717 
" clip-path="url(#p89891db04f)" style="fill: none; stroke: #2ca02c"/>
   </g>
   <g id="line2d_247">
    <path d="M 334.600597 60.86203 
L 334.600597 53.372343 
" clip-path="url(#p89891db04f)" style="fill: none; stroke: #2ca02c"/>
   </g>
   <g id="line2d_248">
    <path d="M 392.788214 45.882655 
L 392.788214 38.392968 
" clip-path="url(#p89891db04f)" style="fill: none; stroke: #2ca02c"/>
   </g>
   <g id="line2d_249">
    <path d="M 399.124176 30.903281 
L 399.124176 23.413594 
" clip-path="url(#p89891db04f)" style="fill: none; stroke: #2ca02c"/>
   </g>
   <g id="patch_3">
    <path d="M 65.436094 409.132489 
L 65.436094 19.66875 
" style="fill: none"/>
   </g>
   <g id="patch_4">
    <path d="M 433.19952 409.132489 
L 433.19952 19.66875 
" style="fill: none"/>
   </g>
   <g id="patch_5">
    <path d="M 65.436094 409.132489 
L 433.19952 409.132489 
" style="fill: none"/>
   </g>
   <g id="patch_6">
    <path d="M 65.436094 19.66875 
L 433.19952 19.66875 
" style="fill: none"/>
   </g>
   <g id="text_36">
    <!-- Model 2: Permutation importances -->
    <g style="fill: #333333" transform="translate(175.559994 13.66875) scale(0.09 -0.09)">
     <defs>
      <path id="Arial-BoldMT-4d" d="M 453 0 
L 453 4581 
L 1838 4581 
L 2669 1456 
L 3491 4581 
L 4878 4581 
L 4878 0 
L 4019 0 
L 4019 3606 
L 3109 0 
L 2219 0 
L 1313 3606 
L 1313 0 
L 453 0 
z
" transform="scale(0.015625)"/>
      <path id="Arial-BoldMT-32" d="M 3238 816 
L 3238 0 
L 159 0 
Q 209 463 459 877 
Q 709 1291 1447 1975 
Q 2041 2528 2175 2725 
Q 2356 2997 2356 3263 
Q 2356 3556 2198 3714 
Q 2041 3872 1763 3872 
Q 1488 3872 1325 3706 
Q 1163 3541 1138 3156 
L 263 3244 
Q 341 3969 753 4284 
Q 1166 4600 1784 4600 
Q 2463 4600 2850 4234 
Q 3238 3869 3238 3325 
Q 3238 3016 3127 2736 
Q 3016 2456 2775 2150 
Q 2616 1947 2200 1565 
Q 1784 1184 1673 1059 
Q 1563 934 1494 816 
L 3238 816 
z
" transform="scale(0.015625)"/>
      <path id="Arial-BoldMT-3a" d="M 628 2441 
L 628 3319 
L 1506 3319 
L 1506 2441 
L 628 2441 
z
M 628 0 
L 628 878 
L 1506 878 
L 1506 0 
L 628 0 
z
" transform="scale(0.015625)"/>
      <path id="Arial-BoldMT-6d" d="M 394 3319 
L 1203 3319 
L 1203 2866 
Q 1638 3394 2238 3394 
Q 2556 3394 2790 3262 
Q 3025 3131 3175 2866 
Q 3394 3131 3647 3262 
Q 3900 3394 4188 3394 
Q 4553 3394 4806 3245 
Q 5059 3097 5184 2809 
Q 5275 2597 5275 2122 
L 5275 0 
L 4397 0 
L 4397 1897 
Q 4397 2391 4306 2534 
Q 4184 2722 3931 2722 
Q 3747 2722 3584 2609 
Q 3422 2497 3350 2280 
Q 3278 2063 3278 1594 
L 3278 0 
L 2400 0 
L 2400 1819 
Q 2400 2303 2353 2443 
Q 2306 2584 2207 2653 
Q 2109 2722 1941 2722 
Q 1738 2722 1575 2612 
Q 1413 2503 1342 2297 
Q 1272 2091 1272 1613 
L 1272 0 
L 394 0 
L 394 3319 
z
" transform="scale(0.015625)"/>
      <path id="Arial-BoldMT-75" d="M 2644 0 
L 2644 497 
Q 2463 231 2167 78 
Q 1872 -75 1544 -75 
Q 1209 -75 943 72 
Q 678 219 559 484 
Q 441 750 441 1219 
L 441 3319 
L 1319 3319 
L 1319 1794 
Q 1319 1094 1367 936 
Q 1416 778 1544 686 
Q 1672 594 1869 594 
Q 2094 594 2272 717 
Q 2450 841 2515 1023 
Q 2581 1206 2581 1919 
L 2581 3319 
L 3459 3319 
L 3459 0 
L 2644 0 
z
" transform="scale(0.015625)"/>
     </defs>
     <use xlink:href="#Arial-BoldMT-4d"/>
     <use xlink:href="#Arial-BoldMT-6f" transform="translate(83.300781 0)"/>
     <use xlink:href="#Arial-BoldMT-64" transform="translate(144.384766 0)"/>
     <use xlink:href="#Arial-BoldMT-65" transform="translate(205.46875 0)"/>
     <use xlink:href="#Arial-BoldMT-6c" transform="translate(261.083984 0)"/>
     <use xlink:href="#Arial-BoldMT-20" transform="translate(288.867188 0)"/>
     <use xlink:href="#Arial-BoldMT-32" transform="translate(316.650391 0)"/>
     <use xlink:href="#Arial-BoldMT-3a" transform="translate(372.265625 0)"/>
     <use xlink:href="#Arial-BoldMT-20" transform="translate(405.566406 0)"/>
     <use xlink:href="#Arial-BoldMT-50" transform="translate(433.349609 0)"/>
     <use xlink:href="#Arial-BoldMT-65" transform="translate(500.048828 0)"/>
     <use xlink:href="#Arial-BoldMT-72" transform="translate(555.664062 0)"/>
     <use xlink:href="#Arial-BoldMT-6d" transform="translate(594.580078 0)"/>
     <use xlink:href="#Arial-BoldMT-75" transform="translate(683.496094 0)"/>
     <use xlink:href="#Arial-BoldMT-74" transform="translate(744.580078 0)"/>
     <use xlink:href="#Arial-BoldMT-61" transform="translate(777.880859 0)"/>
     <use xlink:href="#Arial-BoldMT-74" transform="translate(833.496094 0)"/>
     <use xlink:href="#Arial-BoldMT-69" transform="translate(866.796875 0)"/>
     <use xlink:href="#Arial-BoldMT-6f" transform="translate(894.580078 0)"/>
     <use xlink:href="#Arial-BoldMT-6e" transform="translate(955.664062 0)"/>
     <use xlink:href="#Arial-BoldMT-20" transform="translate(1016.748047 0)"/>
     <use xlink:href="#Arial-BoldMT-69" transform="translate(1044.53125 0)"/>
     <use xlink:href="#Arial-BoldMT-6d" transform="translate(1072.314453 0)"/>
     <use xlink:href="#Arial-BoldMT-70" transform="translate(1161.230469 0)"/>
     <use xlink:href="#Arial-BoldMT-6f" transform="translate(1222.314453 0)"/>
     <use xlink:href="#Arial-BoldMT-72" transform="translate(1283.398438 0)"/>
     <use xlink:href="#Arial-BoldMT-74" transform="translate(1322.314453 0)"/>
     <use xlink:href="#Arial-BoldMT-61" transform="translate(1355.615234 0)"/>
     <use xlink:href="#Arial-BoldMT-6e" transform="translate(1411.230469 0)"/>
     <use xlink:href="#Arial-BoldMT-63" transform="translate(1472.314453 0)"/>
     <use xlink:href="#Arial-BoldMT-65" transform="translate(1527.929688 0)"/>
     <use xlink:href="#Arial-BoldMT-73" transform="translate(1583.544922 0)"/>
    </g>
   </g>
  </g>
 </g>
 <defs>
  <clipPath id="p89891db04f">
   <rect x="65.436094" y="19.66875" width="367.763426" height="389.463739"/>
  </clipPath>
 </defs>
</svg>
